ISO-10303-21;
HEADER;
/* Generated by software containing ST-Developer
 * from STEP Tools, Inc. (www.steptools.com) 
 */

FILE_DESCRIPTION(
/* description */ (''),
/* implementation_level */ '2;1');

FILE_NAME(
/* name */ 'ServoMount_v1.step',
/* time_stamp */ '2026-08-21T09:12:05-04:00',
/* author */ (''),
/* organization */ (''),
/* preprocessor_version */ 'ST-DEVELOPER v20.1',
/* originating_system */ 'Autodesk Translation Framework v15.8.0.0',
/* authorisation */ '');

FILE_SCHEMA (('AUTOMOTIVE_DESIGN { 1 0 10303 214 3 1 1 }'));
ENDSEC;

DATA;
#10=MECHANICAL_DESIGN_GEOMETRIC_PRESENTATION_REPRESENTATION('',(#13),#1137);
#11=SHAPE_REPRESENTATION_RELATIONSHIP('SRR','None',#1144,#12);
#12=ADVANCED_BREP_SHAPE_REPRESENTATION('',(#14),#1136);
#13=STYLED_ITEM('',(#1153),#14);
#14=MANIFOLD_SOLID_BREP('Body1',#581);
#15=FACE_BOUND('',#115,.T.);
#16=FACE_BOUND('',#116,.T.);
#17=FACE_BOUND('',#117,.T.);
#18=TOROIDAL_SURFACE('',#620,2.75999999999993,2.);
#19=TOROIDAL_SURFACE('',#624,2.7600000000001,2.);
#20=PLANE('',#604);
#21=PLANE('',#619);
#22=PLANE('',#623);
#23=PLANE('',#626);
#24=PLANE('',#627);
#25=PLANE('',#629);
#26=PLANE('',#631);
#27=PLANE('',#633);
#28=PLANE('',#637);
#29=PLANE('',#638);
#30=PLANE('',#641);
#31=PLANE('',#642);
#32=PLANE('',#643);
#33=PLANE('',#644);
#34=PLANE('',#645);
#35=PLANE('',#648);
#36=PLANE('',#649);
#37=B_SPLINE_CURVE_WITH_KNOTS('',3,(#854,#855,#856,#857,#858,#859),
 .UNSPECIFIED.,.F.,.F.,(4,1,1,4),(-0.192293070705949,-0.0824113160168352,
-0.0549408773445568,0.),.UNSPECIFIED.);
#38=B_SPLINE_CURVE_WITH_KNOTS('',3,(#862,#863,#864,#865,#866,#867),
 .UNSPECIFIED.,.F.,.F.,(4,1,1,4),(0.,0.0549408773445568,0.0824113160168352,
0.192293070705949),.UNSPECIFIED.);
#39=B_SPLINE_CURVE_WITH_KNOTS('',3,(#904,#905,#906,#907,#908,#909),
 .UNSPECIFIED.,.F.,.F.,(4,1,1,4),(0.516407788041224,0.598819081074187,0.653759943096162,
0.708700805118137),.UNSPECIFIED.);
#40=B_SPLINE_CURVE_WITH_KNOTS('',3,(#910,#911,#912,#913,#914,#915),
 .UNSPECIFIED.,.F.,.F.,(4,1,1,4),(-0.708700805118137,-0.653759943096162,
-0.598819081074187,-0.516407788041224),.UNSPECIFIED.);
#41=B_SPLINE_CURVE_WITH_KNOTS('',3,(#985,#986,#987,#988,#989,#990),
 .UNSPECIFIED.,.F.,.F.,(4,1,1,4),(-0.192293017067917,-0.10988172403881,
-0.0549408620194048,-2.0510495809251E-17),.UNSPECIFIED.);
#42=B_SPLINE_CURVE_WITH_KNOTS('',3,(#991,#992,#993,#994,#995,#996),
 .UNSPECIFIED.,.F.,.F.,(4,1,1,4),(2.0510495809251E-17,0.0549408620194048,
0.10988172403881,0.192293017067917),.UNSPECIFIED.);
#43=B_SPLINE_CURVE_WITH_KNOTS('',3,(#1034,#1035,#1036,#1037,#1038,#1039),
 .UNSPECIFIED.,.F.,.F.,(4,1,1,4),(0.51640773450499,0.62628948898298,0.653759927694675,
0.708700805118066),.UNSPECIFIED.);
#44=B_SPLINE_CURVE_WITH_KNOTS('',3,(#1042,#1043,#1044,#1045,#1046,#1047),
 .UNSPECIFIED.,.F.,.F.,(4,1,1,4),(-0.708700805118066,-0.653759927694675,
-0.62628948898298,-0.516407734136198),.UNSPECIFIED.);
#45=B_SPLINE_SURFACE_WITH_KNOTS('',3,3,((#820,#821,#822,#823,#824,#825),
(#826,#827,#828,#829,#830,#831),(#832,#833,#834,#835,#836,#837),(#838,#839,
#840,#841,#842,#843),(#844,#845,#846,#847,#848,#849)),.UNSPECIFIED.,.F.,
 .F.,.F.,(4,1,4),(4,1,1,4),(0.,0.571428571428571,1.),(0.,0.0549408773445568,
0.0824113160168352,0.192293070705949),.UNSPECIFIED.);
#46=B_SPLINE_SURFACE_WITH_KNOTS('',3,3,((#874,#875,#876,#877,#878,#879),
(#880,#881,#882,#883,#884,#885),(#886,#887,#888,#889,#890,#891),(#892,#893,
#894,#895,#896,#897),(#898,#899,#900,#901,#902,#903)),.UNSPECIFIED.,.F.,
 .F.,.F.,(4,1,4),(4,1,1,4),(0.,0.571428571428571,1.),(0.516407788041224,
0.598819081074187,0.653759943096162,0.708700805118137),.UNSPECIFIED.);
#47=B_SPLINE_SURFACE_WITH_KNOTS('',3,3,((#952,#953,#954,#955,#956,#957),
(#958,#959,#960,#961,#962,#963),(#964,#965,#966,#967,#968,#969),(#970,#971,
#972,#973,#974,#975),(#976,#977,#978,#979,#980,#981)),.UNSPECIFIED.,.F.,
 .F.,.F.,(4,1,4),(4,1,1,4),(0.,0.571428571428571,1.),(2.0510495809251E-17,
0.0549408620194048,0.10988172403881,0.192293017067917),.UNSPECIFIED.);
#48=B_SPLINE_SURFACE_WITH_KNOTS('',3,3,((#1003,#1004,#1005,#1006,#1007,
#1008),(#1009,#1010,#1011,#1012,#1013,#1014),(#1015,#1016,#1017,#1018,#1019,
#1020),(#1021,#1022,#1023,#1024,#1025,#1026),(#1027,#1028,#1029,#1030,#1031,
#1032)),.UNSPECIFIED.,.F.,.F.,.F.,(4,1,4),(4,1,1,4),(0.,0.571428571428571,
1.),(0.516407734136198,0.62628948898298,0.653759927694675,0.708700805118066),
 .UNSPECIFIED.);
#49=FACE_OUTER_BOUND('',#82,.T.);
#50=FACE_OUTER_BOUND('',#83,.T.);
#51=FACE_OUTER_BOUND('',#84,.T.);
#52=FACE_OUTER_BOUND('',#85,.T.);
#53=FACE_OUTER_BOUND('',#86,.T.);
#54=FACE_OUTER_BOUND('',#87,.T.);
#55=FACE_OUTER_BOUND('',#88,.T.);
#56=FACE_OUTER_BOUND('',#89,.T.);
#57=FACE_OUTER_BOUND('',#90,.T.);
#58=FACE_OUTER_BOUND('',#91,.T.);
#59=FACE_OUTER_BOUND('',#92,.T.);
#60=FACE_OUTER_BOUND('',#93,.T.);
#61=FACE_OUTER_BOUND('',#94,.T.);
#62=FACE_OUTER_BOUND('',#95,.T.);
#63=FACE_OUTER_BOUND('',#96,.T.);
#64=FACE_OUTER_BOUND('',#97,.T.);
#65=FACE_OUTER_BOUND('',#98,.T.);
#66=FACE_OUTER_BOUND('',#99,.T.);
#67=FACE_OUTER_BOUND('',#100,.T.);
#68=FACE_OUTER_BOUND('',#101,.T.);
#69=FACE_OUTER_BOUND('',#102,.T.);
#70=FACE_OUTER_BOUND('',#103,.T.);
#71=FACE_OUTER_BOUND('',#104,.T.);
#72=FACE_OUTER_BOUND('',#105,.T.);
#73=FACE_OUTER_BOUND('',#106,.T.);
#74=FACE_OUTER_BOUND('',#107,.T.);
#75=FACE_OUTER_BOUND('',#108,.T.);
#76=FACE_OUTER_BOUND('',#109,.T.);
#77=FACE_OUTER_BOUND('',#110,.T.);
#78=FACE_OUTER_BOUND('',#111,.T.);
#79=FACE_OUTER_BOUND('',#112,.T.);
#80=FACE_OUTER_BOUND('',#113,.T.);
#81=FACE_OUTER_BOUND('',#114,.T.);
#82=EDGE_LOOP('',(#374,#375,#376,#377));
#83=EDGE_LOOP('',(#378,#379,#380,#381));
#84=EDGE_LOOP('',(#382,#383,#384,#385));
#85=EDGE_LOOP('',(#386,#387,#388,#389));
#86=EDGE_LOOP('',(#390,#391,#392,#393));
#87=EDGE_LOOP('',(#394,#395,#396,#397,#398,#399,#400,#401,#402,#403));
#88=EDGE_LOOP('',(#404,#405,#406,#407,#408,#409,#410,#411));
#89=EDGE_LOOP('',(#412,#413,#414,#415));
#90=EDGE_LOOP('',(#416,#417,#418,#419));
#91=EDGE_LOOP('',(#420,#421,#422,#423));
#92=EDGE_LOOP('',(#424,#425,#426,#427));
#93=EDGE_LOOP('',(#428,#429,#430,#431));
#94=EDGE_LOOP('',(#432,#433,#434,#435,#436,#437,#438,#439,#440,#441));
#95=EDGE_LOOP('',(#442,#443,#444,#445));
#96=EDGE_LOOP('',(#446,#447));
#97=EDGE_LOOP('',(#448,#449,#450,#451));
#98=EDGE_LOOP('',(#452,#453));
#99=EDGE_LOOP('',(#454));
#100=EDGE_LOOP('',(#455));
#101=EDGE_LOOP('',(#456,#457,#458,#459,#460,#461,#462,#463,#464,#465));
#102=EDGE_LOOP('',(#466,#467,#468,#469,#470,#471,#472,#473,#474,#475));
#103=EDGE_LOOP('',(#476,#477,#478,#479));
#104=EDGE_LOOP('',(#480,#481,#482,#483));
#105=EDGE_LOOP('',(#484,#485,#486,#487));
#106=EDGE_LOOP('',(#488,#489,#490,#491));
#107=EDGE_LOOP('',(#492,#493,#494,#495));
#108=EDGE_LOOP('',(#496,#497,#498,#499));
#109=EDGE_LOOP('',(#500,#501,#502,#503));
#110=EDGE_LOOP('',(#504,#505,#506,#507));
#111=EDGE_LOOP('',(#508,#509,#510,#511));
#112=EDGE_LOOP('',(#512,#513,#514,#515,#516,#517,#518,#519));
#113=EDGE_LOOP('',(#520,#521,#522,#523));
#114=EDGE_LOOP('',(#524,#525,#526,#527,#528,#529,#530,#531));
#115=EDGE_LOOP('',(#532));
#116=EDGE_LOOP('',(#533,#534,#535,#536));
#117=EDGE_LOOP('',(#537));
#118=LINE('',#816,#166);
#119=LINE('',#819,#167);
#120=LINE('',#872,#168);
#121=LINE('',#873,#169);
#122=LINE('',#920,#170);
#123=LINE('',#921,#171);
#124=LINE('',#924,#172);
#125=LINE('',#926,#173);
#126=LINE('',#928,#174);
#127=LINE('',#930,#175);
#128=LINE('',#931,#176);
#129=LINE('',#936,#177);
#130=LINE('',#940,#178);
#131=LINE('',#948,#179);
#132=LINE('',#951,#180);
#133=LINE('',#1001,#181);
#134=LINE('',#1002,#182);
#135=LINE('',#1052,#183);
#136=LINE('',#1053,#184);
#137=LINE('',#1056,#185);
#138=LINE('',#1058,#186);
#139=LINE('',#1060,#187);
#140=LINE('',#1062,#188);
#141=LINE('',#1063,#189);
#142=LINE('',#1080,#190);
#143=LINE('',#1082,#191);
#144=LINE('',#1084,#192);
#145=LINE('',#1085,#193);
#146=LINE('',#1090,#194);
#147=LINE('',#1092,#195);
#148=LINE('',#1093,#196);
#149=LINE('',#1094,#197);
#150=LINE('',#1098,#198);
#151=LINE('',#1100,#199);
#152=LINE('',#1102,#200);
#153=LINE('',#1106,#201);
#154=LINE('',#1109,#202);
#155=LINE('',#1111,#203);
#156=LINE('',#1112,#204);
#157=LINE('',#1114,#205);
#158=LINE('',#1117,#206);
#159=LINE('',#1118,#207);
#160=LINE('',#1121,#208);
#161=LINE('',#1122,#209);
#162=LINE('',#1125,#210);
#163=LINE('',#1126,#211);
#164=LINE('',#1130,#212);
#165=LINE('',#1132,#213);
#166=VECTOR('',#656,10.);
#167=VECTOR('',#659,10.);
#168=VECTOR('',#668,10.);
#169=VECTOR('',#669,10.);
#170=VECTOR('',#674,10.);
#171=VECTOR('',#675,10.);
#172=VECTOR('',#678,10.);
#173=VECTOR('',#679,10.);
#174=VECTOR('',#680,10.);
#175=VECTOR('',#681,10.);
#176=VECTOR('',#682,10.);
#177=VECTOR('',#687,10.);
#178=VECTOR('',#690,10.);
#179=VECTOR('',#699,10.);
#180=VECTOR('',#702,10.);
#181=VECTOR('',#709,10.);
#182=VECTOR('',#710,10.);
#183=VECTOR('',#717,10.);
#184=VECTOR('',#718,10.);
#185=VECTOR('',#721,10.);
#186=VECTOR('',#722,10.);
#187=VECTOR('',#723,10.);
#188=VECTOR('',#724,10.);
#189=VECTOR('',#725,10.);
#190=VECTOR('',#752,10.);
#191=VECTOR('',#753,10.);
#192=VECTOR('',#754,10.);
#193=VECTOR('',#755,10.);
#194=VECTOR('',#760,10.);
#195=VECTOR('',#761,10.);
#196=VECTOR('',#762,10.);
#197=VECTOR('',#763,10.);
#198=VECTOR('',#768,2.1);
#199=VECTOR('',#771,10.);
#200=VECTOR('',#774,10.);
#201=VECTOR('',#779,2.1);
#202=VECTOR('',#782,10.);
#203=VECTOR('',#783,10.);
#204=VECTOR('',#784,10.);
#205=VECTOR('',#787,10.);
#206=VECTOR('',#790,10.);
#207=VECTOR('',#791,10.);
#208=VECTOR('',#794,10.);
#209=VECTOR('',#795,10.);
#210=VECTOR('',#798,10.);
#211=VECTOR('',#799,10.);
#212=VECTOR('',#804,10.);
#213=VECTOR('',#807,10.);
#214=CIRCLE('',#596,1.);
#215=CIRCLE('',#597,1.);
#216=CIRCLE('',#598,1.);
#217=CIRCLE('',#599,0.999999999999999);
#218=CIRCLE('',#601,1.);
#219=CIRCLE('',#603,1.);
#220=CIRCLE('',#606,4.7600000000001);
#221=CIRCLE('',#607,4.7600000000001);
#222=CIRCLE('',#608,4.7600000000001);
#223=CIRCLE('',#609,4.7600000000001);
#224=CIRCLE('',#611,1.);
#225=CIRCLE('',#612,1.);
#226=CIRCLE('',#613,1.);
#227=CIRCLE('',#615,1.);
#228=CIRCLE('',#616,1.);
#229=CIRCLE('',#618,1.);
#230=CIRCLE('',#621,4.75999999999993);
#231=CIRCLE('',#622,2.75999999999993);
#232=CIRCLE('',#625,2.7600000000001);
#233=CIRCLE('',#628,2.1);
#234=CIRCLE('',#630,2.1);
#235=CIRCLE('',#632,4.75999999999993);
#236=CIRCLE('',#634,4.75999999999993);
#237=CIRCLE('',#636,2.1);
#238=CIRCLE('',#640,2.1);
#239=CIRCLE('',#647,4.75999999999993);
#240=VERTEX_POINT('',#812);
#241=VERTEX_POINT('',#813);
#242=VERTEX_POINT('',#815);
#243=VERTEX_POINT('',#817);
#244=VERTEX_POINT('',#850);
#245=VERTEX_POINT('',#851);
#246=VERTEX_POINT('',#853);
#247=VERTEX_POINT('',#860);
#248=VERTEX_POINT('',#869);
#249=VERTEX_POINT('',#870);
#250=VERTEX_POINT('',#917);
#251=VERTEX_POINT('',#918);
#252=VERTEX_POINT('',#923);
#253=VERTEX_POINT('',#925);
#254=VERTEX_POINT('',#927);
#255=VERTEX_POINT('',#929);
#256=VERTEX_POINT('',#933);
#257=VERTEX_POINT('',#935);
#258=VERTEX_POINT('',#937);
#259=VERTEX_POINT('',#939);
#260=VERTEX_POINT('',#944);
#261=VERTEX_POINT('',#945);
#262=VERTEX_POINT('',#947);
#263=VERTEX_POINT('',#949);
#264=VERTEX_POINT('',#982);
#265=VERTEX_POINT('',#983);
#266=VERTEX_POINT('',#998);
#267=VERTEX_POINT('',#999);
#268=VERTEX_POINT('',#1033);
#269=VERTEX_POINT('',#1040);
#270=VERTEX_POINT('',#1049);
#271=VERTEX_POINT('',#1050);
#272=VERTEX_POINT('',#1055);
#273=VERTEX_POINT('',#1057);
#274=VERTEX_POINT('',#1059);
#275=VERTEX_POINT('',#1061);
#276=VERTEX_POINT('',#1072);
#277=VERTEX_POINT('',#1075);
#278=VERTEX_POINT('',#1078);
#279=VERTEX_POINT('',#1081);
#280=VERTEX_POINT('',#1083);
#281=VERTEX_POINT('',#1087);
#282=VERTEX_POINT('',#1089);
#283=VERTEX_POINT('',#1091);
#284=VERTEX_POINT('',#1096);
#285=VERTEX_POINT('',#1104);
#286=VERTEX_POINT('',#1108);
#287=VERTEX_POINT('',#1110);
#288=VERTEX_POINT('',#1116);
#289=VERTEX_POINT('',#1120);
#290=VERTEX_POINT('',#1124);
#291=VERTEX_POINT('',#1128);
#292=EDGE_CURVE('',#240,#241,#214,.T.);
#293=EDGE_CURVE('',#241,#242,#118,.T.);
#294=EDGE_CURVE('',#242,#243,#215,.F.);
#295=EDGE_CURVE('',#243,#240,#119,.T.);
#296=EDGE_CURVE('',#244,#245,#216,.T.);
#297=EDGE_CURVE('',#245,#246,#37,.T.);
#298=EDGE_CURVE('',#246,#247,#217,.T.);
#299=EDGE_CURVE('',#247,#244,#38,.T.);
#300=EDGE_CURVE('',#248,#249,#218,.T.);
#301=EDGE_CURVE('',#249,#245,#120,.T.);
#302=EDGE_CURVE('',#244,#248,#121,.T.);
#303=EDGE_CURVE('',#248,#241,#39,.T.);
#304=EDGE_CURVE('',#240,#249,#40,.T.);
#305=EDGE_CURVE('',#250,#251,#219,.F.);
#306=EDGE_CURVE('',#251,#247,#122,.T.);
#307=EDGE_CURVE('',#246,#250,#123,.T.);
#308=EDGE_CURVE('',#252,#242,#124,.T.);
#309=EDGE_CURVE('',#251,#253,#125,.T.);
#310=EDGE_CURVE('',#253,#254,#126,.T.);
#311=EDGE_CURVE('',#255,#254,#127,.T.);
#312=EDGE_CURVE('',#252,#255,#128,.T.);
#313=EDGE_CURVE('',#256,#243,#220,.T.);
#314=EDGE_CURVE('',#256,#257,#129,.T.);
#315=EDGE_CURVE('',#258,#257,#221,.T.);
#316=EDGE_CURVE('',#259,#258,#130,.T.);
#317=EDGE_CURVE('',#250,#259,#222,.T.);
#318=EDGE_CURVE('',#240,#246,#223,.T.);
#319=EDGE_CURVE('',#260,#261,#224,.T.);
#320=EDGE_CURVE('',#261,#262,#131,.T.);
#321=EDGE_CURVE('',#262,#263,#225,.F.);
#322=EDGE_CURVE('',#263,#260,#132,.T.);
#323=EDGE_CURVE('',#264,#265,#226,.T.);
#324=EDGE_CURVE('',#265,#261,#41,.T.);
#325=EDGE_CURVE('',#260,#264,#42,.T.);
#326=EDGE_CURVE('',#266,#267,#227,.T.);
#327=EDGE_CURVE('',#267,#265,#133,.T.);
#328=EDGE_CURVE('',#264,#266,#134,.T.);
#329=EDGE_CURVE('',#266,#268,#43,.T.);
#330=EDGE_CURVE('',#268,#269,#228,.T.);
#331=EDGE_CURVE('',#269,#267,#44,.T.);
#332=EDGE_CURVE('',#270,#271,#229,.F.);
#333=EDGE_CURVE('',#271,#269,#135,.T.);
#334=EDGE_CURVE('',#268,#270,#136,.T.);
#335=EDGE_CURVE('',#272,#270,#137,.T.);
#336=EDGE_CURVE('',#263,#273,#138,.T.);
#337=EDGE_CURVE('',#273,#274,#139,.T.);
#338=EDGE_CURVE('',#275,#274,#140,.T.);
#339=EDGE_CURVE('',#272,#275,#141,.T.);
#340=EDGE_CURVE('',#269,#261,#230,.T.);
#341=EDGE_CURVE('',#265,#267,#231,.T.);
#342=EDGE_CURVE('',#245,#249,#232,.T.);
#343=EDGE_CURVE('',#276,#276,#233,.T.);
#344=EDGE_CURVE('',#277,#277,#234,.T.);
#345=EDGE_CURVE('',#278,#271,#235,.T.);
#346=EDGE_CURVE('',#253,#272,#142,.T.);
#347=EDGE_CURVE('',#259,#279,#143,.T.);
#348=EDGE_CURVE('',#279,#280,#144,.T.);
#349=EDGE_CURVE('',#280,#278,#145,.T.);
#350=EDGE_CURVE('',#262,#281,#236,.T.);
#351=EDGE_CURVE('',#281,#282,#146,.T.);
#352=EDGE_CURVE('',#282,#283,#147,.T.);
#353=EDGE_CURVE('',#283,#256,#148,.T.);
#354=EDGE_CURVE('',#273,#252,#149,.T.);
#355=EDGE_CURVE('',#284,#284,#237,.T.);
#356=EDGE_CURVE('',#284,#276,#150,.T.);
#357=EDGE_CURVE('',#254,#275,#151,.T.);
#358=EDGE_CURVE('',#274,#255,#152,.T.);
#359=EDGE_CURVE('',#285,#285,#238,.T.);
#360=EDGE_CURVE('',#285,#277,#153,.T.);
#361=EDGE_CURVE('',#282,#286,#154,.T.);
#362=EDGE_CURVE('',#287,#286,#155,.T.);
#363=EDGE_CURVE('',#283,#287,#156,.T.);
#364=EDGE_CURVE('',#257,#287,#157,.T.);
#365=EDGE_CURVE('',#288,#258,#158,.T.);
#366=EDGE_CURVE('',#279,#288,#159,.T.);
#367=EDGE_CURVE('',#289,#288,#160,.T.);
#368=EDGE_CURVE('',#280,#289,#161,.T.);
#369=EDGE_CURVE('',#290,#289,#162,.T.);
#370=EDGE_CURVE('',#278,#290,#163,.T.);
#371=EDGE_CURVE('',#291,#290,#239,.T.);
#372=EDGE_CURVE('',#281,#291,#164,.T.);
#373=EDGE_CURVE('',#286,#291,#165,.T.);
#374=ORIENTED_EDGE('',*,*,#292,.T.);
#375=ORIENTED_EDGE('',*,*,#293,.T.);
#376=ORIENTED_EDGE('',*,*,#294,.T.);
#377=ORIENTED_EDGE('',*,*,#295,.T.);
#378=ORIENTED_EDGE('',*,*,#296,.T.);
#379=ORIENTED_EDGE('',*,*,#297,.T.);
#380=ORIENTED_EDGE('',*,*,#298,.T.);
#381=ORIENTED_EDGE('',*,*,#299,.T.);
#382=ORIENTED_EDGE('',*,*,#300,.T.);
#383=ORIENTED_EDGE('',*,*,#301,.T.);
#384=ORIENTED_EDGE('',*,*,#296,.F.);
#385=ORIENTED_EDGE('',*,*,#302,.T.);
#386=ORIENTED_EDGE('',*,*,#300,.F.);
#387=ORIENTED_EDGE('',*,*,#303,.T.);
#388=ORIENTED_EDGE('',*,*,#292,.F.);
#389=ORIENTED_EDGE('',*,*,#304,.T.);
#390=ORIENTED_EDGE('',*,*,#305,.T.);
#391=ORIENTED_EDGE('',*,*,#306,.T.);
#392=ORIENTED_EDGE('',*,*,#298,.F.);
#393=ORIENTED_EDGE('',*,*,#307,.T.);
#394=ORIENTED_EDGE('',*,*,#308,.T.);
#395=ORIENTED_EDGE('',*,*,#293,.F.);
#396=ORIENTED_EDGE('',*,*,#303,.F.);
#397=ORIENTED_EDGE('',*,*,#302,.F.);
#398=ORIENTED_EDGE('',*,*,#299,.F.);
#399=ORIENTED_EDGE('',*,*,#306,.F.);
#400=ORIENTED_EDGE('',*,*,#309,.T.);
#401=ORIENTED_EDGE('',*,*,#310,.T.);
#402=ORIENTED_EDGE('',*,*,#311,.F.);
#403=ORIENTED_EDGE('',*,*,#312,.F.);
#404=ORIENTED_EDGE('',*,*,#295,.F.);
#405=ORIENTED_EDGE('',*,*,#313,.F.);
#406=ORIENTED_EDGE('',*,*,#314,.T.);
#407=ORIENTED_EDGE('',*,*,#315,.F.);
#408=ORIENTED_EDGE('',*,*,#316,.F.);
#409=ORIENTED_EDGE('',*,*,#317,.F.);
#410=ORIENTED_EDGE('',*,*,#307,.F.);
#411=ORIENTED_EDGE('',*,*,#318,.F.);
#412=ORIENTED_EDGE('',*,*,#319,.T.);
#413=ORIENTED_EDGE('',*,*,#320,.T.);
#414=ORIENTED_EDGE('',*,*,#321,.T.);
#415=ORIENTED_EDGE('',*,*,#322,.T.);
#416=ORIENTED_EDGE('',*,*,#323,.T.);
#417=ORIENTED_EDGE('',*,*,#324,.T.);
#418=ORIENTED_EDGE('',*,*,#319,.F.);
#419=ORIENTED_EDGE('',*,*,#325,.T.);
#420=ORIENTED_EDGE('',*,*,#326,.T.);
#421=ORIENTED_EDGE('',*,*,#327,.T.);
#422=ORIENTED_EDGE('',*,*,#323,.F.);
#423=ORIENTED_EDGE('',*,*,#328,.T.);
#424=ORIENTED_EDGE('',*,*,#326,.F.);
#425=ORIENTED_EDGE('',*,*,#329,.T.);
#426=ORIENTED_EDGE('',*,*,#330,.T.);
#427=ORIENTED_EDGE('',*,*,#331,.T.);
#428=ORIENTED_EDGE('',*,*,#332,.T.);
#429=ORIENTED_EDGE('',*,*,#333,.T.);
#430=ORIENTED_EDGE('',*,*,#330,.F.);
#431=ORIENTED_EDGE('',*,*,#334,.T.);
#432=ORIENTED_EDGE('',*,*,#335,.T.);
#433=ORIENTED_EDGE('',*,*,#334,.F.);
#434=ORIENTED_EDGE('',*,*,#329,.F.);
#435=ORIENTED_EDGE('',*,*,#328,.F.);
#436=ORIENTED_EDGE('',*,*,#325,.F.);
#437=ORIENTED_EDGE('',*,*,#322,.F.);
#438=ORIENTED_EDGE('',*,*,#336,.T.);
#439=ORIENTED_EDGE('',*,*,#337,.T.);
#440=ORIENTED_EDGE('',*,*,#338,.F.);
#441=ORIENTED_EDGE('',*,*,#339,.F.);
#442=ORIENTED_EDGE('',*,*,#331,.F.);
#443=ORIENTED_EDGE('',*,*,#340,.T.);
#444=ORIENTED_EDGE('',*,*,#324,.F.);
#445=ORIENTED_EDGE('',*,*,#341,.T.);
#446=ORIENTED_EDGE('',*,*,#327,.F.);
#447=ORIENTED_EDGE('',*,*,#341,.F.);
#448=ORIENTED_EDGE('',*,*,#304,.F.);
#449=ORIENTED_EDGE('',*,*,#318,.T.);
#450=ORIENTED_EDGE('',*,*,#297,.F.);
#451=ORIENTED_EDGE('',*,*,#342,.T.);
#452=ORIENTED_EDGE('',*,*,#301,.F.);
#453=ORIENTED_EDGE('',*,*,#342,.F.);
#454=ORIENTED_EDGE('',*,*,#343,.T.);
#455=ORIENTED_EDGE('',*,*,#344,.T.);
#456=ORIENTED_EDGE('',*,*,#345,.T.);
#457=ORIENTED_EDGE('',*,*,#332,.F.);
#458=ORIENTED_EDGE('',*,*,#335,.F.);
#459=ORIENTED_EDGE('',*,*,#346,.F.);
#460=ORIENTED_EDGE('',*,*,#309,.F.);
#461=ORIENTED_EDGE('',*,*,#305,.F.);
#462=ORIENTED_EDGE('',*,*,#317,.T.);
#463=ORIENTED_EDGE('',*,*,#347,.T.);
#464=ORIENTED_EDGE('',*,*,#348,.T.);
#465=ORIENTED_EDGE('',*,*,#349,.T.);
#466=ORIENTED_EDGE('',*,*,#350,.T.);
#467=ORIENTED_EDGE('',*,*,#351,.T.);
#468=ORIENTED_EDGE('',*,*,#352,.T.);
#469=ORIENTED_EDGE('',*,*,#353,.T.);
#470=ORIENTED_EDGE('',*,*,#313,.T.);
#471=ORIENTED_EDGE('',*,*,#294,.F.);
#472=ORIENTED_EDGE('',*,*,#308,.F.);
#473=ORIENTED_EDGE('',*,*,#354,.F.);
#474=ORIENTED_EDGE('',*,*,#336,.F.);
#475=ORIENTED_EDGE('',*,*,#321,.F.);
#476=ORIENTED_EDGE('',*,*,#355,.F.);
#477=ORIENTED_EDGE('',*,*,#356,.T.);
#478=ORIENTED_EDGE('',*,*,#343,.F.);
#479=ORIENTED_EDGE('',*,*,#356,.F.);
#480=ORIENTED_EDGE('',*,*,#346,.T.);
#481=ORIENTED_EDGE('',*,*,#339,.T.);
#482=ORIENTED_EDGE('',*,*,#357,.F.);
#483=ORIENTED_EDGE('',*,*,#310,.F.);
#484=ORIENTED_EDGE('',*,*,#354,.T.);
#485=ORIENTED_EDGE('',*,*,#312,.T.);
#486=ORIENTED_EDGE('',*,*,#358,.F.);
#487=ORIENTED_EDGE('',*,*,#337,.F.);
#488=ORIENTED_EDGE('',*,*,#359,.F.);
#489=ORIENTED_EDGE('',*,*,#360,.T.);
#490=ORIENTED_EDGE('',*,*,#344,.F.);
#491=ORIENTED_EDGE('',*,*,#360,.F.);
#492=ORIENTED_EDGE('',*,*,#352,.F.);
#493=ORIENTED_EDGE('',*,*,#361,.T.);
#494=ORIENTED_EDGE('',*,*,#362,.F.);
#495=ORIENTED_EDGE('',*,*,#363,.F.);
#496=ORIENTED_EDGE('',*,*,#353,.F.);
#497=ORIENTED_EDGE('',*,*,#363,.T.);
#498=ORIENTED_EDGE('',*,*,#364,.F.);
#499=ORIENTED_EDGE('',*,*,#314,.F.);
#500=ORIENTED_EDGE('',*,*,#347,.F.);
#501=ORIENTED_EDGE('',*,*,#316,.T.);
#502=ORIENTED_EDGE('',*,*,#365,.F.);
#503=ORIENTED_EDGE('',*,*,#366,.F.);
#504=ORIENTED_EDGE('',*,*,#348,.F.);
#505=ORIENTED_EDGE('',*,*,#366,.T.);
#506=ORIENTED_EDGE('',*,*,#367,.F.);
#507=ORIENTED_EDGE('',*,*,#368,.F.);
#508=ORIENTED_EDGE('',*,*,#349,.F.);
#509=ORIENTED_EDGE('',*,*,#368,.T.);
#510=ORIENTED_EDGE('',*,*,#369,.F.);
#511=ORIENTED_EDGE('',*,*,#370,.F.);
#512=ORIENTED_EDGE('',*,*,#333,.F.);
#513=ORIENTED_EDGE('',*,*,#345,.F.);
#514=ORIENTED_EDGE('',*,*,#370,.T.);
#515=ORIENTED_EDGE('',*,*,#371,.F.);
#516=ORIENTED_EDGE('',*,*,#372,.F.);
#517=ORIENTED_EDGE('',*,*,#350,.F.);
#518=ORIENTED_EDGE('',*,*,#320,.F.);
#519=ORIENTED_EDGE('',*,*,#340,.F.);
#520=ORIENTED_EDGE('',*,*,#351,.F.);
#521=ORIENTED_EDGE('',*,*,#372,.T.);
#522=ORIENTED_EDGE('',*,*,#373,.F.);
#523=ORIENTED_EDGE('',*,*,#361,.F.);
#524=ORIENTED_EDGE('',*,*,#373,.T.);
#525=ORIENTED_EDGE('',*,*,#371,.T.);
#526=ORIENTED_EDGE('',*,*,#369,.T.);
#527=ORIENTED_EDGE('',*,*,#367,.T.);
#528=ORIENTED_EDGE('',*,*,#365,.T.);
#529=ORIENTED_EDGE('',*,*,#315,.T.);
#530=ORIENTED_EDGE('',*,*,#364,.T.);
#531=ORIENTED_EDGE('',*,*,#362,.T.);
#532=ORIENTED_EDGE('',*,*,#359,.T.);
#533=ORIENTED_EDGE('',*,*,#338,.T.);
#534=ORIENTED_EDGE('',*,*,#358,.T.);
#535=ORIENTED_EDGE('',*,*,#311,.T.);
#536=ORIENTED_EDGE('',*,*,#357,.T.);
#537=ORIENTED_EDGE('',*,*,#355,.T.);
#538=CYLINDRICAL_SURFACE('',#595,1.);
#539=CYLINDRICAL_SURFACE('',#600,1.);
#540=CYLINDRICAL_SURFACE('',#602,1.);
#541=CYLINDRICAL_SURFACE('',#605,4.7600000000001);
#542=CYLINDRICAL_SURFACE('',#610,1.);
#543=CYLINDRICAL_SURFACE('',#614,1.);
#544=CYLINDRICAL_SURFACE('',#617,1.);
#545=CYLINDRICAL_SURFACE('',#635,2.1);
#546=CYLINDRICAL_SURFACE('',#639,2.1);
#547=CYLINDRICAL_SURFACE('',#646,4.75999999999993);
#548=ADVANCED_FACE('',(#49),#538,.T.);
#549=ADVANCED_FACE('',(#50),#45,.F.);
#550=ADVANCED_FACE('',(#51),#539,.T.);
#551=ADVANCED_FACE('',(#52),#46,.F.);
#552=ADVANCED_FACE('',(#53),#540,.T.);
#553=ADVANCED_FACE('',(#54),#20,.T.);
#554=ADVANCED_FACE('',(#55),#541,.T.);
#555=ADVANCED_FACE('',(#56),#542,.T.);
#556=ADVANCED_FACE('',(#57),#47,.F.);
#557=ADVANCED_FACE('',(#58),#543,.T.);
#558=ADVANCED_FACE('',(#59),#48,.F.);
#559=ADVANCED_FACE('',(#60),#544,.T.);
#560=ADVANCED_FACE('',(#61),#21,.T.);
#561=ADVANCED_FACE('',(#62),#18,.T.);
#562=ADVANCED_FACE('',(#63),#22,.F.);
#563=ADVANCED_FACE('',(#64),#19,.T.);
#564=ADVANCED_FACE('',(#65),#23,.F.);
#565=ADVANCED_FACE('',(#66),#24,.T.);
#566=ADVANCED_FACE('',(#67),#25,.T.);
#567=ADVANCED_FACE('',(#68),#26,.F.);
#568=ADVANCED_FACE('',(#69),#27,.F.);
#569=ADVANCED_FACE('',(#70),#545,.F.);
#570=ADVANCED_FACE('',(#71),#28,.T.);
#571=ADVANCED_FACE('',(#72),#29,.T.);
#572=ADVANCED_FACE('',(#73),#546,.F.);
#573=ADVANCED_FACE('',(#74),#30,.T.);
#574=ADVANCED_FACE('',(#75),#31,.T.);
#575=ADVANCED_FACE('',(#76),#32,.T.);
#576=ADVANCED_FACE('',(#77),#33,.T.);
#577=ADVANCED_FACE('',(#78),#34,.T.);
#578=ADVANCED_FACE('',(#79),#547,.T.);
#579=ADVANCED_FACE('',(#80),#35,.T.);
#580=ADVANCED_FACE('',(#81,#15,#16,#17),#36,.T.);
#581=CLOSED_SHELL('',(#548,#549,#550,#551,#552,#553,#554,#555,#556,#557,
#558,#559,#560,#561,#562,#563,#564,#565,#566,#567,#568,#569,#570,#571,#572,
#573,#574,#575,#576,#577,#578,#579,#580));
#582=DERIVED_UNIT_ELEMENT(#584,1.);
#583=DERIVED_UNIT_ELEMENT(#1139,-3.);
#584=(
MASS_UNIT()
NAMED_UNIT(*)
SI_UNIT(.KILO.,.GRAM.)
);
#585=DERIVED_UNIT((#582,#583));
#586=MEASURE_REPRESENTATION_ITEM('density measure',
POSITIVE_RATIO_MEASURE(7850.),#585);
#587=PROPERTY_DEFINITION_REPRESENTATION(#592,#589);
#588=PROPERTY_DEFINITION_REPRESENTATION(#593,#590);
#589=REPRESENTATION('material name',(#591),#1136);
#590=REPRESENTATION('density',(#586),#1136);
#591=DESCRIPTIVE_REPRESENTATION_ITEM('Steel','Steel');
#592=PROPERTY_DEFINITION('material property','material name',#1146);
#593=PROPERTY_DEFINITION('material property','density of part',#1146);
#594=AXIS2_PLACEMENT_3D('',#810,#650,#651);
#595=AXIS2_PLACEMENT_3D('',#811,#652,#653);
#596=AXIS2_PLACEMENT_3D('',#814,#654,#655);
#597=AXIS2_PLACEMENT_3D('',#818,#657,#658);
#598=AXIS2_PLACEMENT_3D('',#852,#660,#661);
#599=AXIS2_PLACEMENT_3D('',#861,#662,#663);
#600=AXIS2_PLACEMENT_3D('',#868,#664,#665);
#601=AXIS2_PLACEMENT_3D('',#871,#666,#667);
#602=AXIS2_PLACEMENT_3D('',#916,#670,#671);
#603=AXIS2_PLACEMENT_3D('',#919,#672,#673);
#604=AXIS2_PLACEMENT_3D('',#922,#676,#677);
#605=AXIS2_PLACEMENT_3D('',#932,#683,#684);
#606=AXIS2_PLACEMENT_3D('',#934,#685,#686);
#607=AXIS2_PLACEMENT_3D('',#938,#688,#689);
#608=AXIS2_PLACEMENT_3D('',#941,#691,#692);
#609=AXIS2_PLACEMENT_3D('',#942,#693,#694);
#610=AXIS2_PLACEMENT_3D('',#943,#695,#696);
#611=AXIS2_PLACEMENT_3D('',#946,#697,#698);
#612=AXIS2_PLACEMENT_3D('',#950,#700,#701);
#613=AXIS2_PLACEMENT_3D('',#984,#703,#704);
#614=AXIS2_PLACEMENT_3D('',#997,#705,#706);
#615=AXIS2_PLACEMENT_3D('',#1000,#707,#708);
#616=AXIS2_PLACEMENT_3D('',#1041,#711,#712);
#617=AXIS2_PLACEMENT_3D('',#1048,#713,#714);
#618=AXIS2_PLACEMENT_3D('',#1051,#715,#716);
#619=AXIS2_PLACEMENT_3D('',#1054,#719,#720);
#620=AXIS2_PLACEMENT_3D('',#1064,#726,#727);
#621=AXIS2_PLACEMENT_3D('',#1065,#728,#729);
#622=AXIS2_PLACEMENT_3D('',#1066,#730,#731);
#623=AXIS2_PLACEMENT_3D('',#1067,#732,#733);
#624=AXIS2_PLACEMENT_3D('',#1068,#734,#735);
#625=AXIS2_PLACEMENT_3D('',#1069,#736,#737);
#626=AXIS2_PLACEMENT_3D('',#1070,#738,#739);
#627=AXIS2_PLACEMENT_3D('',#1071,#740,#741);
#628=AXIS2_PLACEMENT_3D('',#1073,#742,#743);
#629=AXIS2_PLACEMENT_3D('',#1074,#744,#745);
#630=AXIS2_PLACEMENT_3D('',#1076,#746,#747);
#631=AXIS2_PLACEMENT_3D('',#1077,#748,#749);
#632=AXIS2_PLACEMENT_3D('',#1079,#750,#751);
#633=AXIS2_PLACEMENT_3D('',#1086,#756,#757);
#634=AXIS2_PLACEMENT_3D('',#1088,#758,#759);
#635=AXIS2_PLACEMENT_3D('',#1095,#764,#765);
#636=AXIS2_PLACEMENT_3D('',#1097,#766,#767);
#637=AXIS2_PLACEMENT_3D('',#1099,#769,#770);
#638=AXIS2_PLACEMENT_3D('',#1101,#772,#773);
#639=AXIS2_PLACEMENT_3D('',#1103,#775,#776);
#640=AXIS2_PLACEMENT_3D('',#1105,#777,#778);
#641=AXIS2_PLACEMENT_3D('',#1107,#780,#781);
#642=AXIS2_PLACEMENT_3D('',#1113,#785,#786);
#643=AXIS2_PLACEMENT_3D('',#1115,#788,#789);
#644=AXIS2_PLACEMENT_3D('',#1119,#792,#793);
#645=AXIS2_PLACEMENT_3D('',#1123,#796,#797);
#646=AXIS2_PLACEMENT_3D('',#1127,#800,#801);
#647=AXIS2_PLACEMENT_3D('',#1129,#802,#803);
#648=AXIS2_PLACEMENT_3D('',#1131,#805,#806);
#649=AXIS2_PLACEMENT_3D('',#1133,#808,#809);
#650=DIRECTION('axis',(0.,0.,1.));
#651=DIRECTION('refdir',(1.,0.,0.));
#652=DIRECTION('center_axis',(0.,0.,-1.));
#653=DIRECTION('ref_axis',(0.89323700126311,-0.449586098066306,0.));
#654=DIRECTION('center_axis',(0.,0.,1.));
#655=DIRECTION('ref_axis',(0.595744680851026,-0.803173876092661,0.));
#656=DIRECTION('',(0.,0.,1.));
#657=DIRECTION('center_axis',(0.,0.,1.));
#658=DIRECTION('ref_axis',(0.89323700126311,-0.449586098066306,0.));
#659=DIRECTION('',(0.,0.,-1.));
#660=DIRECTION('center_axis',(0.,1.,1.40379485813469E-9));
#661=DIRECTION('ref_axis',(1.,0.,0.));
#662=DIRECTION('center_axis',(0.,0.,-1.));
#663=DIRECTION('ref_axis',(0.595744680851028,0.80317387609266,0.));
#664=DIRECTION('center_axis',(0.,-1.,0.));
#665=DIRECTION('ref_axis',(0.70710678118655,0.,-0.707106781186545));
#666=DIRECTION('center_axis',(0.,1.,9.009903934043E-11));
#667=DIRECTION('ref_axis',(1.,0.,0.));
#668=DIRECTION('',(0.,1.,0.));
#669=DIRECTION('',(0.,-1.,0.));
#670=DIRECTION('center_axis',(0.,0.,-1.));
#671=DIRECTION('ref_axis',(0.893237001263111,0.449586098066306,0.));
#672=DIRECTION('center_axis',(0.,0.,1.));
#673=DIRECTION('ref_axis',(0.893237001263111,0.449586098066306,0.));
#674=DIRECTION('',(0.,0.,-1.));
#675=DIRECTION('',(0.,0.,1.));
#676=DIRECTION('center_axis',(1.,0.,0.));
#677=DIRECTION('ref_axis',(0.,1.,0.));
#678=DIRECTION('',(0.,1.,0.));
#679=DIRECTION('',(0.,1.,0.));
#680=DIRECTION('',(0.,0.,1.));
#681=DIRECTION('',(0.,1.,0.));
#682=DIRECTION('',(0.,0.,1.));
#683=DIRECTION('center_axis',(0.,0.,1.));
#684=DIRECTION('ref_axis',(-1.,-1.22464679914735E-16,0.));
#685=DIRECTION('center_axis',(0.,0.,1.));
#686=DIRECTION('ref_axis',(1.,0.,0.));
#687=DIRECTION('',(0.,0.,1.));
#688=DIRECTION('center_axis',(0.,0.,1.));
#689=DIRECTION('ref_axis',(1.,0.,0.));
#690=DIRECTION('',(0.,0.,1.));
#691=DIRECTION('center_axis',(0.,0.,1.));
#692=DIRECTION('ref_axis',(1.,0.,0.));
#693=DIRECTION('center_axis',(0.,0.,-1.));
#694=DIRECTION('ref_axis',(-1.,1.16620065611884E-16,0.));
#695=DIRECTION('center_axis',(0.,0.,-1.));
#696=DIRECTION('ref_axis',(-0.893237001263129,-0.449586098066269,0.));
#697=DIRECTION('center_axis',(0.,0.,1.));
#698=DIRECTION('ref_axis',(-1.,0.,0.));
#699=DIRECTION('',(0.,0.,1.));
#700=DIRECTION('center_axis',(0.,0.,1.));
#701=DIRECTION('ref_axis',(-0.893237001263129,-0.449586098066269,0.));
#702=DIRECTION('',(0.,0.,-1.));
#703=DIRECTION('center_axis',(0.,-1.,4.58549864745805E-11));
#704=DIRECTION('ref_axis',(-1.,0.,0.));
#705=DIRECTION('center_axis',(0.,1.,0.));
#706=DIRECTION('ref_axis',(-0.70710678118655,0.,-0.707106781186545));
#707=DIRECTION('center_axis',(0.,-1.,3.6875447140261E-9));
#708=DIRECTION('ref_axis',(-1.,0.,0.));
#709=DIRECTION('',(0.,-1.,0.));
#710=DIRECTION('',(0.,1.,0.));
#711=DIRECTION('center_axis',(0.,0.,-1.));
#712=DIRECTION('ref_axis',(-1.,0.,0.));
#713=DIRECTION('center_axis',(0.,0.,-1.));
#714=DIRECTION('ref_axis',(-0.893237001263129,0.449586098066269,0.));
#715=DIRECTION('center_axis',(0.,0.,1.));
#716=DIRECTION('ref_axis',(-0.893237001263129,0.449586098066269,0.));
#717=DIRECTION('',(0.,0.,-1.));
#718=DIRECTION('',(0.,0.,1.));
#719=DIRECTION('center_axis',(-1.,0.,0.));
#720=DIRECTION('ref_axis',(0.,-1.,0.));
#721=DIRECTION('',(0.,-1.,0.));
#722=DIRECTION('',(0.,-1.,0.));
#723=DIRECTION('',(0.,0.,1.));
#724=DIRECTION('',(0.,-1.,0.));
#725=DIRECTION('',(0.,0.,1.));
#726=DIRECTION('center_axis',(0.,0.,-1.));
#727=DIRECTION('ref_axis',(1.,1.32463601245657E-11,0.));
#728=DIRECTION('center_axis',(0.,0.,-1.));
#729=DIRECTION('ref_axis',(1.,0.,0.));
#730=DIRECTION('center_axis',(0.,0.,1.));
#731=DIRECTION('ref_axis',(1.,0.,0.));
#732=DIRECTION('center_axis',(0.,0.,1.));
#733=DIRECTION('ref_axis',(1.,0.,0.));
#734=DIRECTION('center_axis',(0.,0.,-1.));
#735=DIRECTION('ref_axis',(-1.,0.,0.));
#736=DIRECTION('center_axis',(0.,0.,1.));
#737=DIRECTION('ref_axis',(-1.,1.16620065611884E-16,0.));
#738=DIRECTION('center_axis',(0.,0.,1.));
#739=DIRECTION('ref_axis',(1.,0.,0.));
#740=DIRECTION('center_axis',(0.,0.,1.));
#741=DIRECTION('ref_axis',(1.,0.,0.));
#742=DIRECTION('center_axis',(0.,0.,1.));
#743=DIRECTION('ref_axis',(1.,0.,0.));
#744=DIRECTION('center_axis',(0.,0.,1.));
#745=DIRECTION('ref_axis',(1.,0.,0.));
#746=DIRECTION('center_axis',(0.,0.,1.));
#747=DIRECTION('ref_axis',(1.,0.,0.));
#748=DIRECTION('center_axis',(0.,0.,1.));
#749=DIRECTION('ref_axis',(1.,0.,0.));
#750=DIRECTION('center_axis',(0.,0.,1.));
#751=DIRECTION('ref_axis',(1.,0.,0.));
#752=DIRECTION('',(1.,0.,0.));
#753=DIRECTION('',(0.,1.,0.));
#754=DIRECTION('',(1.,0.,0.));
#755=DIRECTION('',(0.,-1.,0.));
#756=DIRECTION('center_axis',(0.,0.,1.));
#757=DIRECTION('ref_axis',(1.,0.,0.));
#758=DIRECTION('center_axis',(0.,0.,1.));
#759=DIRECTION('ref_axis',(1.,0.,0.));
#760=DIRECTION('',(0.,-1.,0.));
#761=DIRECTION('',(-1.,0.,0.));
#762=DIRECTION('',(0.,1.,0.));
#763=DIRECTION('',(-1.,5.28677630773884E-17,0.));
#764=DIRECTION('center_axis',(0.,0.,1.));
#765=DIRECTION('ref_axis',(1.,0.,0.));
#766=DIRECTION('center_axis',(0.,0.,-1.));
#767=DIRECTION('ref_axis',(1.,0.,0.));
#768=DIRECTION('',(0.,0.,-1.));
#769=DIRECTION('center_axis',(0.,-1.,0.));
#770=DIRECTION('ref_axis',(1.,0.,0.));
#771=DIRECTION('',(1.,0.,0.));
#772=DIRECTION('center_axis',(5.28677630773884E-17,1.,0.));
#773=DIRECTION('ref_axis',(-1.,5.28677630773884E-17,0.));
#774=DIRECTION('',(-1.,5.28677630773884E-17,0.));
#775=DIRECTION('center_axis',(0.,0.,1.));
#776=DIRECTION('ref_axis',(1.,0.,0.));
#777=DIRECTION('center_axis',(0.,0.,-1.));
#778=DIRECTION('ref_axis',(1.,0.,0.));
#779=DIRECTION('',(0.,0.,-1.));
#780=DIRECTION('center_axis',(0.,-1.,0.));
#781=DIRECTION('ref_axis',(1.,0.,0.));
#782=DIRECTION('',(0.,0.,1.));
#783=DIRECTION('',(1.,0.,0.));
#784=DIRECTION('',(0.,0.,1.));
#785=DIRECTION('center_axis',(-1.,0.,0.));
#786=DIRECTION('ref_axis',(0.,-1.,0.));
#787=DIRECTION('',(0.,-1.,0.));
#788=DIRECTION('center_axis',(-1.,0.,0.));
#789=DIRECTION('ref_axis',(0.,-1.,0.));
#790=DIRECTION('',(0.,-1.,0.));
#791=DIRECTION('',(0.,0.,1.));
#792=DIRECTION('center_axis',(0.,1.,0.));
#793=DIRECTION('ref_axis',(-1.,0.,0.));
#794=DIRECTION('',(-1.,0.,0.));
#795=DIRECTION('',(0.,0.,1.));
#796=DIRECTION('center_axis',(1.,0.,0.));
#797=DIRECTION('ref_axis',(0.,1.,0.));
#798=DIRECTION('',(0.,1.,0.));
#799=DIRECTION('',(0.,0.,1.));
#800=DIRECTION('center_axis',(0.,0.,1.));
#801=DIRECTION('ref_axis',(1.,0.,0.));
#802=DIRECTION('center_axis',(0.,0.,1.));
#803=DIRECTION('ref_axis',(1.,0.,0.));
#804=DIRECTION('',(0.,0.,1.));
#805=DIRECTION('center_axis',(1.,0.,0.));
#806=DIRECTION('ref_axis',(0.,1.,0.));
#807=DIRECTION('',(0.,1.,0.));
#808=DIRECTION('center_axis',(0.,0.,1.));
#809=DIRECTION('ref_axis',(1.,0.,0.));
#810=CARTESIAN_POINT('',(0.,0.,0.));
#811=CARTESIAN_POINT('Origin',(-22.,-7.51993377410851,0.));
#812=CARTESIAN_POINT('',(-21.404255319149,-8.32310765020118,-4.));
#813=CARTESIAN_POINT('',(-21.,-7.51993377410851,-4.));
#814=CARTESIAN_POINT('Origin',(-22.,-7.51993377410851,-4.));
#815=CARTESIAN_POINT('',(-21.,-7.51993377410851,0.));
#816=CARTESIAN_POINT('',(-21.,-7.51993377410851,0.));
#817=CARTESIAN_POINT('',(-21.404255319149,-8.32310765020118,0.));
#818=CARTESIAN_POINT('Origin',(-22.,-7.51993377410851,0.));
#819=CARTESIAN_POINT('',(-21.404255319149,-8.32310765020118,0.));
#820=CARTESIAN_POINT('Ctrl Pts',(-21.,-1.48006622589155,-4.));
#821=CARTESIAN_POINT('Ctrl Pts',(-21.,-1.48006622589155,-4.18313625781519));
#822=CARTESIAN_POINT('Ctrl Pts',(-21.,-1.57765931002239,-4.45250176530846));
#823=CARTESIAN_POINT('Ctrl Pts',(-21.,-2.04385232619493,-4.90797486256363));
#824=CARTESIAN_POINT('Ctrl Pts',(-21.,-2.52131357769372,-4.9999999996552));
#825=CARTESIAN_POINT('Ctrl Pts',(-21.,-2.8875484475817,-5.));
#826=CARTESIAN_POINT('Ctrl Pts',(-21.,-1.3024274022896,-4.));
#827=CARTESIAN_POINT('Ctrl Pts',(-21.,-1.3024274022896,-4.22366245737752));
#828=CARTESIAN_POINT('Ctrl Pts',(-21.0007066008975,-1.41366646298156,-4.55266536853969));
#829=CARTESIAN_POINT('Ctrl Pts',(-21.0001469249794,-1.94290747272611,-5.12367854963501));
#830=CARTESIAN_POINT('Ctrl Pts',(-21.0013629967773,-2.48375119851818,-5.26540610491363));
#831=CARTESIAN_POINT('Ctrl Pts',(-21.,-2.88754844730001,-5.29919930009277));
#832=CARTESIAN_POINT('Ctrl Pts',(-21.0849085774829,-0.991970397427713,-4.));
#833=CARTESIAN_POINT('Ctrl Pts',(-21.0849085774829,-0.991970397427713,-4.29441929090521));
#834=CARTESIAN_POINT('Ctrl Pts',(-21.0925545099065,-1.127255113026,-4.72871119378564));
#835=CARTESIAN_POINT('Ctrl Pts',(-21.1351192718959,-1.76713004503372,-5.5003861264268));
#836=CARTESIAN_POINT('Ctrl Pts',(-21.1918542843684,-2.41923008866803,-5.72964400279494));
#837=CARTESIAN_POINT('Ctrl Pts',(-21.2511039209574,-2.8875484468123,-5.8172302356686));
#838=CARTESIAN_POINT('Ctrl Pts',(-21.2972491722763,-0.756262888004013,-4.));
#839=CARTESIAN_POINT('Ctrl Pts',(-21.2972491722763,-0.756262888004013,-4.34819269579548));
#840=CARTESIAN_POINT('Ctrl Pts',(-21.3230723311196,-0.916377535133269,-4.86069581564554));
#841=CARTESIAN_POINT('Ctrl Pts',(-21.457183634375,-1.66369108147501,-5.74649935373067));
#842=CARTESIAN_POINT('Ctrl Pts',(-21.6264011025347,-2.39621058258415,-5.96066484305975));
#843=CARTESIAN_POINT('Ctrl Pts',(-21.7756005236226,-2.88754844664023,-5.99999999970652));
#844=CARTESIAN_POINT('Ctrl Pts',(-21.404255319149,-0.67689234979889,-4.));
#845=CARTESIAN_POINT('Ctrl Pts',(-21.404255319149,-0.67689234979889,-4.36627251563035));
#846=CARTESIAN_POINT('Ctrl Pts',(-21.4386024962886,-0.847724768341206,-4.90500353061692));
#847=CARTESIAN_POINT('Ctrl Pts',(-21.6129290303552,-1.63914739222364,-5.81594972512724));
#848=CARTESIAN_POINT('Ctrl Pts',(-21.8263494259443,-2.39631217671447,-5.99999999931041));
#849=CARTESIAN_POINT('Ctrl Pts',(-21.9999999986921,-2.88754844664023,-6.));
#850=CARTESIAN_POINT('',(-21.,-2.8875484475817,-5.));
#851=CARTESIAN_POINT('',(-22.,-2.8875484461779,-6.));
#852=CARTESIAN_POINT('Origin',(-22.,-2.8875484475817,-5.));
#853=CARTESIAN_POINT('',(-21.404255319149,-0.676892349798891,-4.));
#854=CARTESIAN_POINT('Ctrl Pts',(-21.9999999986921,-2.88754844664023,-6.));
#855=CARTESIAN_POINT('Ctrl Pts',(-21.8263494259443,-2.39631217671447,-5.99999999931041));
#856=CARTESIAN_POINT('Ctrl Pts',(-21.6129290303552,-1.63914739222364,-5.81594972512724));
#857=CARTESIAN_POINT('Ctrl Pts',(-21.4386024962886,-0.847724768341206,-4.90500353061692));
#858=CARTESIAN_POINT('Ctrl Pts',(-21.404255319149,-0.67689234979889,-4.36627251563035));
#859=CARTESIAN_POINT('Ctrl Pts',(-21.404255319149,-0.67689234979889,-4.));
#860=CARTESIAN_POINT('',(-21.,-1.48006622589155,-4.));
#861=CARTESIAN_POINT('Origin',(-22.,-1.48006622589155,-4.));
#862=CARTESIAN_POINT('Ctrl Pts',(-21.,-1.48006622589155,-4.));
#863=CARTESIAN_POINT('Ctrl Pts',(-21.,-1.48006622589155,-4.18313625781519));
#864=CARTESIAN_POINT('Ctrl Pts',(-21.,-1.57765931002239,-4.45250176530846));
#865=CARTESIAN_POINT('Ctrl Pts',(-21.,-2.04385232619493,-4.90797486256363));
#866=CARTESIAN_POINT('Ctrl Pts',(-21.,-2.52131357769372,-4.9999999996552));
#867=CARTESIAN_POINT('Ctrl Pts',(-21.,-2.8875484475817,-5.));
#868=CARTESIAN_POINT('Origin',(-22.,-7.75000000000001,-5.));
#869=CARTESIAN_POINT('',(-21.,-6.11245154975012,-5.));
#870=CARTESIAN_POINT('',(-22.,-6.11245154966002,-6.));
#871=CARTESIAN_POINT('Origin',(-22.,-6.11245154975012,-5.));
#872=CARTESIAN_POINT('',(-22.,-7.75000000000001,-6.));
#873=CARTESIAN_POINT('',(-21.,-7.75000000000001,-5.));
#874=CARTESIAN_POINT('Ctrl Pts',(-21.,-6.11245154966002,-5.));
#875=CARTESIAN_POINT('Ctrl Pts',(-21.,-6.38711188974898,-5.));
#876=CARTESIAN_POINT('Ctrl Pts',(-21.,-6.85194977912435,-4.9354188913132));
#877=CARTESIAN_POINT('Ctrl Pts',(-21.,-7.38619696188864,-4.54475733311651));
#878=CARTESIAN_POINT('Ctrl Pts',(-21.,-7.51993377410851,-4.18313620673992));
#879=CARTESIAN_POINT('Ctrl Pts',(-21.,-7.51993377410851,-4.));
#880=CARTESIAN_POINT('Ctrl Pts',(-21.,-6.11245154966002,-5.29919930034189));
#881=CARTESIAN_POINT('Ctrl Pts',(-21.0010221887375,-6.41528205210216,-5.2738558632736));
#882=CARTESIAN_POINT('Ctrl Pts',(-21.0004258601954,-6.93873859259217,-5.16210441741418));
#883=CARTESIAN_POINT('Ctrl Pts',(-21.0009040892965,-7.5452697136697,-4.66517642136119));
#884=CARTESIAN_POINT('Ctrl Pts',(-21.,-7.69757259771046,-4.22366239499981));
#885=CARTESIAN_POINT('Ctrl Pts',(-21.,-7.69757259771046,-4.));
#886=CARTESIAN_POINT('Ctrl Pts',(-21.2511245185044,-6.11245154966002,-5.81720552271097));
#887=CARTESIAN_POINT('Ctrl Pts',(-21.2066898491408,-6.46367009831344,-5.75151962996027));
#888=CARTESIAN_POINT('Ctrl Pts',(-21.1456222514028,-7.08961228009728,-5.55828917723473));
#889=CARTESIAN_POINT('Ctrl Pts',(-21.0951787056096,-7.82302881239472,-4.87689640845487));
#890=CARTESIAN_POINT('Ctrl Pts',(-21.0849122838295,-8.0080274899846,-4.29441920879399));
#891=CARTESIAN_POINT('Ctrl Pts',(-21.0849122838295,-8.0080274899846,-4.));
#892=CARTESIAN_POINT('Ctrl Pts',(-21.7756005247436,-6.11245154966002,-6.));
#893=CARTESIAN_POINT('Ctrl Pts',(-21.6637074006244,-6.48093373374505,-5.97050033129176));
#894=CARTESIAN_POINT('Ctrl Pts',(-21.4901010688838,-7.17129019300499,-5.80547634082183));
#895=CARTESIAN_POINT('Ctrl Pts',(-21.3318093421197,-8.02429867451221,-5.03593555925948));
#896=CARTESIAN_POINT('Ctrl Pts',(-21.2972491722763,-8.24373711199605,-4.34819259868729));
#897=CARTESIAN_POINT('Ctrl Pts',(-21.2972491722763,-8.24373711199605,-4.));
#898=CARTESIAN_POINT('Ctrl Pts',(-22.,-6.11245154966002,-6.));
#899=CARTESIAN_POINT('Ctrl Pts',(-21.869769567862,-6.48085754247838,-6.));
#900=CARTESIAN_POINT('Ctrl Pts',(-21.6554496315272,-7.18770985189947,-5.8708377826264));
#901=CARTESIAN_POINT('Ctrl Pts',(-21.4502322724061,-8.08856099238766,-5.08951466623302));
#902=CARTESIAN_POINT('Ctrl Pts',(-21.404255319149,-8.32310765020117,-4.36627241347984));
#903=CARTESIAN_POINT('Ctrl Pts',(-21.404255319149,-8.32310765020117,-4.));
#904=CARTESIAN_POINT('Ctrl Pts',(-21.,-6.11245154966002,-5.));
#905=CARTESIAN_POINT('Ctrl Pts',(-21.,-6.38711188974898,-5.));
#906=CARTESIAN_POINT('Ctrl Pts',(-21.,-6.85194977912435,-4.9354188913132));
#907=CARTESIAN_POINT('Ctrl Pts',(-21.,-7.38619696188864,-4.54475733311651));
#908=CARTESIAN_POINT('Ctrl Pts',(-21.,-7.51993377410851,-4.18313620673992));
#909=CARTESIAN_POINT('Ctrl Pts',(-21.,-7.51993377410851,-4.));
#910=CARTESIAN_POINT('Ctrl Pts',(-21.404255319149,-8.32310765020117,-4.));
#911=CARTESIAN_POINT('Ctrl Pts',(-21.404255319149,-8.32310765020117,-4.36627241347984));
#912=CARTESIAN_POINT('Ctrl Pts',(-21.4502322724061,-8.08856099238766,-5.08951466623302));
#913=CARTESIAN_POINT('Ctrl Pts',(-21.6554496315272,-7.18770985189947,-5.8708377826264));
#914=CARTESIAN_POINT('Ctrl Pts',(-21.869769567862,-6.48085754247838,-6.));
#915=CARTESIAN_POINT('Ctrl Pts',(-22.,-6.11245154966002,-6.));
#916=CARTESIAN_POINT('Origin',(-22.,-1.48006622589155,0.));
#917=CARTESIAN_POINT('',(-21.404255319149,-0.676892349798885,0.));
#918=CARTESIAN_POINT('',(-21.,-1.48006622589155,0.));
#919=CARTESIAN_POINT('Origin',(-22.,-1.48006622589155,0.));
#920=CARTESIAN_POINT('',(-21.,-1.48006622589155,0.));
#921=CARTESIAN_POINT('',(-21.404255319149,-0.676892349798886,0.));
#922=CARTESIAN_POINT('Origin',(-21.,-11.,0.));
#923=CARTESIAN_POINT('',(-21.,-11.,0.));
#924=CARTESIAN_POINT('',(-21.,-11.,0.));
#925=CARTESIAN_POINT('',(-21.,11.,0.));
#926=CARTESIAN_POINT('',(-21.,-11.,0.));
#927=CARTESIAN_POINT('',(-21.,11.,2.));
#928=CARTESIAN_POINT('',(-21.,11.,0.));
#929=CARTESIAN_POINT('',(-21.,-11.,2.));
#930=CARTESIAN_POINT('',(-21.,-11.,2.));
#931=CARTESIAN_POINT('',(-21.,-11.,0.));
#932=CARTESIAN_POINT('Origin',(-24.2399999999999,-4.50000000000003,0.));
#933=CARTESIAN_POINT('',(-24.,-9.25394572960202,0.));
#934=CARTESIAN_POINT('Origin',(-24.2399999999999,-4.50000000000003,0.));
#935=CARTESIAN_POINT('',(-24.,-9.25394572960202,2.));
#936=CARTESIAN_POINT('',(-24.,-9.25394572960202,0.));
#937=CARTESIAN_POINT('',(-24.,0.25394572960196,2.));
#938=CARTESIAN_POINT('Origin',(-24.2399999999999,-4.50000000000003,2.));
#939=CARTESIAN_POINT('',(-24.,0.25394572960196,0.));
#940=CARTESIAN_POINT('',(-24.,0.25394572960196,0.));
#941=CARTESIAN_POINT('Origin',(-24.2399999999999,-4.50000000000003,0.));
#942=CARTESIAN_POINT('Origin',(-24.2399999999999,-4.50000000000003,-4.));
#943=CARTESIAN_POINT('Origin',(22.,1.48006622589181,0.));
#944=CARTESIAN_POINT('',(21.,1.48006622589181,-4.));
#945=CARTESIAN_POINT('',(21.4042553191489,0.676892349799195,-4.));
#946=CARTESIAN_POINT('Origin',(22.,1.48006622589181,-4.));
#947=CARTESIAN_POINT('',(21.4042553191489,0.676892349799195,0.));
#948=CARTESIAN_POINT('',(21.4042553191489,0.676892349799195,0.));
#949=CARTESIAN_POINT('',(21.,1.48006622589181,0.));
#950=CARTESIAN_POINT('Origin',(22.,1.48006622589181,0.));
#951=CARTESIAN_POINT('',(21.,1.48006622589181,0.));
#952=CARTESIAN_POINT('Ctrl Pts',(21.,1.48006622589181,-4.));
#953=CARTESIAN_POINT('Ctrl Pts',(21.,1.48006622589181,-4.18313620673135));
#954=CARTESIAN_POINT('Ctrl Pts',(21.,1.61380128094047,-4.5447588880076));
#955=CARTESIAN_POINT('Ctrl Pts',(21.,2.14804995153935,-4.93542013381373));
#956=CARTESIAN_POINT('Ctrl Pts',(21.,2.61288811017424,-4.99999999999156));
#957=CARTESIAN_POINT('Ctrl Pts',(21.,2.88754845025038,-5.));
#958=CARTESIAN_POINT('Ctrl Pts',(21.,1.30242740228987,-4.));
#959=CARTESIAN_POINT('Ctrl Pts',(21.,1.30242740228987,-4.22366239498936));
#960=CARTESIAN_POINT('Ctrl Pts',(21.0009012549305,1.45472831108029,-4.66517948596297));
#961=CARTESIAN_POINT('Ctrl Pts',(21.0004215318336,2.06126119570104,-5.16210791467488));
#962=CARTESIAN_POINT('Ctrl Pts',(21.0010221887373,2.58471794781164,-5.27385586325743));
#963=CARTESIAN_POINT('Ctrl Pts',(21.,2.88754845024118,-5.29919930033375));
#964=CARTESIAN_POINT('Ctrl Pts',(21.0849085774829,0.991970397428016,-4.));
#965=CARTESIAN_POINT('Ctrl Pts',(21.0849085774829,0.991970397428016,-4.29441920878024));
#966=CARTESIAN_POINT('Ctrl Pts',(21.0951694873926,1.17696661259389,-4.87690683837456));
#967=CARTESIAN_POINT('Ctrl Pts',(21.1456125793771,1.91038457394702,-5.55829969310773));
#968=CARTESIAN_POINT('Ctrl Pts',(21.2066692520263,2.53632990158386,-5.75154434355026));
#969=CARTESIAN_POINT('Ctrl Pts',(21.2511039213863,2.88754845022525,-5.81723023630886));
#970=CARTESIAN_POINT('Ctrl Pts',(21.2972491722762,0.756262888004322,-4.));
#971=CARTESIAN_POINT('Ctrl Pts',(21.2972491722762,0.756262888004322,-4.34819259867103));
#972=CARTESIAN_POINT('Ctrl Pts',(21.3318091920599,0.97569812967296,-5.03593903955452));
#973=CARTESIAN_POINT('Ctrl Pts',(21.4901010555603,1.82870916570177,-5.80547961436136));
#974=CARTESIAN_POINT('Ctrl Pts',(21.6637074005944,2.51906626614331,-5.97050033126831));
#975=CARTESIAN_POINT('Ctrl Pts',(21.7756005247069,2.88754845021962,-5.99999999999041));
#976=CARTESIAN_POINT('Ctrl Pts',(21.4042553191489,0.676892349799197,-4.));
#977=CARTESIAN_POINT('Ctrl Pts',(21.4042553191489,0.676892349799197,-4.36627241346274));
#978=CARTESIAN_POINT('Ctrl Pts',(21.4502313241303,0.911435580228022,-5.08951777601522));
#979=CARTESIAN_POINT('Ctrl Pts',(21.6554484011772,1.81228966630744,-5.87084026762748));
#980=CARTESIAN_POINT('Ctrl Pts',(21.8697695678255,2.51914245740817,-5.99999999998311));
#981=CARTESIAN_POINT('Ctrl Pts',(21.9999999999573,2.88754845021962,-6.));
#982=CARTESIAN_POINT('',(21.,2.88754845025038,-5.));
#983=CARTESIAN_POINT('',(22.,2.88754845020452,-6.));
#984=CARTESIAN_POINT('Origin',(22.,2.88754845025038,-5.));
#985=CARTESIAN_POINT('Ctrl Pts',(21.9999999999573,2.88754845021962,-6.));
#986=CARTESIAN_POINT('Ctrl Pts',(21.8697695678255,2.51914245740817,-5.99999999998311));
#987=CARTESIAN_POINT('Ctrl Pts',(21.6554484011772,1.81228966630744,-5.87084026762748));
#988=CARTESIAN_POINT('Ctrl Pts',(21.4502313241303,0.911435580228022,-5.08951777601522));
#989=CARTESIAN_POINT('Ctrl Pts',(21.4042553191489,0.676892349799197,-4.36627241346274));
#990=CARTESIAN_POINT('Ctrl Pts',(21.4042553191489,0.676892349799197,-4.));
#991=CARTESIAN_POINT('Ctrl Pts',(21.,1.48006622589181,-4.));
#992=CARTESIAN_POINT('Ctrl Pts',(21.,1.48006622589181,-4.18313620673135));
#993=CARTESIAN_POINT('Ctrl Pts',(21.,1.61380128094047,-4.5447588880076));
#994=CARTESIAN_POINT('Ctrl Pts',(21.,2.14804995153935,-4.93542013381373));
#995=CARTESIAN_POINT('Ctrl Pts',(21.,2.61288811017424,-4.99999999999156));
#996=CARTESIAN_POINT('Ctrl Pts',(21.,2.88754845025038,-5.));
#997=CARTESIAN_POINT('Origin',(22.,7.74999999999999,-5.));
#998=CARTESIAN_POINT('',(21.,6.112451553347,-5.));
#999=CARTESIAN_POINT('',(22.,6.11245154965946,-6.));
#1000=CARTESIAN_POINT('Origin',(22.,6.112451553347,-5.));
#1001=CARTESIAN_POINT('',(22.,7.74999999999999,-6.));
#1002=CARTESIAN_POINT('',(21.,7.74999999999999,-5.));
#1003=CARTESIAN_POINT('Ctrl Pts',(21.,6.11245154965946,-5.));
#1004=CARTESIAN_POINT('Ctrl Pts',(21.,6.47868642007103,-5.));
#1005=CARTESIAN_POINT('Ctrl Pts',(21.,6.95615382037113,-4.90796843518291));
#1006=CARTESIAN_POINT('Ctrl Pts',(21.,7.42234334398628,-4.4524967596774));
#1007=CARTESIAN_POINT('Ctrl Pts',(21.,7.51993377410813,-4.18313625807797));
#1008=CARTESIAN_POINT('Ctrl Pts',(21.,7.51993377410813,-4.));
#1009=CARTESIAN_POINT('Ctrl Pts',(21.,6.11245154965946,-5.29919930034189));
#1010=CARTESIAN_POINT('Ctrl Pts',(21.0013629967824,6.51624879895522,-5.26540610549083));
#1011=CARTESIAN_POINT('Ctrl Pts',(21.0001500746145,7.05709922092428,-5.1236697257952));
#1012=CARTESIAN_POINT('Ctrl Pts',(21.0007090670594,7.58633636904479,-4.55265853485485));
#1013=CARTESIAN_POINT('Ctrl Pts',(21.,7.69757259771006,-4.22366245769848));
#1014=CARTESIAN_POINT('Ctrl Pts',(21.,7.69757259771006,-4.));
#1015=CARTESIAN_POINT('Ctrl Pts',(21.2511245185046,6.11245154965946,-5.81720552271075));
#1016=CARTESIAN_POINT('Ctrl Pts',(21.1918748817682,6.58076990829305,-5.72961929016031));
#1017=CARTESIAN_POINT('Ctrl Pts',(21.1351266925796,7.23287469335745,-5.50037170083362));
#1018=CARTESIAN_POINT('Ctrl Pts',(21.0925624610647,7.8727456738165,-4.72869781835441));
#1019=CARTESIAN_POINT('Ctrl Pts',(21.0849122838295,8.00802748998415,-4.29441929132776));
#1020=CARTESIAN_POINT('Ctrl Pts',(21.0849122838295,8.00802748998415,-4.));
#1021=CARTESIAN_POINT('Ctrl Pts',(21.7756005247436,6.11245154965946,-6.));
#1022=CARTESIAN_POINT('Ctrl Pts',(21.6264011033838,6.60378941406909,-5.96066484391941));
#1023=CARTESIAN_POINT('Ctrl Pts',(21.4571837891281,7.33631863461682,-5.74648717359028));
#1024=CARTESIAN_POINT('Ctrl Pts',(21.3230724942726,8.0836264339551,-4.86068630518531));
#1025=CARTESIAN_POINT('Ctrl Pts',(21.2972491722762,8.24373711199561,-4.34819269629523));
#1026=CARTESIAN_POINT('Ctrl Pts',(21.2972491722762,8.24373711199561,-4.));
#1027=CARTESIAN_POINT('Ctrl Pts',(22.,6.11245154965946,-6.));
#1028=CARTESIAN_POINT('Ctrl Pts',(21.8263494269968,6.6036878198649,-6.));
#1029=CARTESIAN_POINT('Ctrl Pts',(21.6129300679486,7.36086405205886,-5.81593687036589));
#1030=CARTESIAN_POINT('Ctrl Pts',(21.4386033603427,8.15228002663047,-4.90499351935485));
#1031=CARTESIAN_POINT('Ctrl Pts',(21.4042553191489,8.32310765020074,-4.36627251615607));
#1032=CARTESIAN_POINT('Ctrl Pts',(21.4042553191489,8.32310765020074,-4.));
#1033=CARTESIAN_POINT('',(21.,7.51993377410813,-4.));
#1034=CARTESIAN_POINT('Ctrl Pts',(21.,6.11245155334701,-5.));
#1035=CARTESIAN_POINT('Ctrl Pts',(21.,6.47868642263504,-4.99999999950579));
#1036=CARTESIAN_POINT('Ctrl Pts',(21.,6.95615382126522,-4.90796843430938));
#1037=CARTESIAN_POINT('Ctrl Pts',(21.,7.42234334398628,-4.4524967596774));
#1038=CARTESIAN_POINT('Ctrl Pts',(21.,7.51993377410813,-4.18313625807797));
#1039=CARTESIAN_POINT('Ctrl Pts',(21.,7.51993377410813,-4.));
#1040=CARTESIAN_POINT('',(21.4042553191489,8.32310765020074,-4.));
#1041=CARTESIAN_POINT('Origin',(22.,7.51993377410813,-4.));
#1042=CARTESIAN_POINT('Ctrl Pts',(21.4042553191489,8.32310765020074,-4.));
#1043=CARTESIAN_POINT('Ctrl Pts',(21.4042553191489,8.32310765020074,-4.36627251615607));
#1044=CARTESIAN_POINT('Ctrl Pts',(21.4386033603427,8.15228002663047,-4.90499351935485));
#1045=CARTESIAN_POINT('Ctrl Pts',(21.6129300679486,7.36086405205886,-5.81593687036589));
#1046=CARTESIAN_POINT('Ctrl Pts',(21.8263494269968,6.6036878198649,-6.));
#1047=CARTESIAN_POINT('Ctrl Pts',(22.,6.11245154965946,-6.));
#1048=CARTESIAN_POINT('Origin',(22.,7.51993377410813,0.));
#1049=CARTESIAN_POINT('',(21.,7.51993377410813,0.));
#1050=CARTESIAN_POINT('',(21.4042553191489,8.32310765020074,0.));
#1051=CARTESIAN_POINT('Origin',(22.,7.51993377410813,0.));
#1052=CARTESIAN_POINT('',(21.4042553191489,8.32310765020074,0.));
#1053=CARTESIAN_POINT('',(21.,7.51993377410813,0.));
#1054=CARTESIAN_POINT('Origin',(21.,11.,0.));
#1055=CARTESIAN_POINT('',(21.,11.,0.));
#1056=CARTESIAN_POINT('',(21.,11.,0.));
#1057=CARTESIAN_POINT('',(21.,-11.,0.));
#1058=CARTESIAN_POINT('',(21.,11.,0.));
#1059=CARTESIAN_POINT('',(21.,-11.,2.));
#1060=CARTESIAN_POINT('',(21.,-11.,0.));
#1061=CARTESIAN_POINT('',(21.,11.,2.));
#1062=CARTESIAN_POINT('',(21.,11.,2.));
#1063=CARTESIAN_POINT('',(21.,11.,0.));
#1064=CARTESIAN_POINT('Origin',(24.24,4.49999999999997,-4.));
#1065=CARTESIAN_POINT('Origin',(24.24,4.49999999999997,-4.));
#1066=CARTESIAN_POINT('Origin',(24.24,4.49999999999997,-6.));
#1067=CARTESIAN_POINT('Origin',(25.,4.49999999999997,-6.));
#1068=CARTESIAN_POINT('Origin',(-24.2399999999999,-4.50000000000003,-4.));
#1069=CARTESIAN_POINT('Origin',(-24.2399999999999,-4.50000000000003,-6.));
#1070=CARTESIAN_POINT('Origin',(-25.,-4.50000000000003,-6.));
#1071=CARTESIAN_POINT('Origin',(25.,4.49999999999997,-4.));
#1072=CARTESIAN_POINT('',(22.1400000000001,4.49999999999997,-4.));
#1073=CARTESIAN_POINT('Origin',(24.24,4.49999999999997,-4.));
#1074=CARTESIAN_POINT('Origin',(-25.,-4.50000000000003,-4.));
#1075=CARTESIAN_POINT('',(-26.3399999999999,-4.50000000000003,-4.));
#1076=CARTESIAN_POINT('Origin',(-24.2399999999999,-4.50000000000003,-4.));
#1077=CARTESIAN_POINT('Origin',(-3.10862446895044E-14,6.66133814775094E-15,
0.));
#1078=CARTESIAN_POINT('',(24.,9.25394572960178,0.));
#1079=CARTESIAN_POINT('Origin',(24.24,4.49999999999997,0.));
#1080=CARTESIAN_POINT('',(-21.,11.,0.));
#1081=CARTESIAN_POINT('',(-24.,14.,0.));
#1082=CARTESIAN_POINT('',(-24.,-14.,0.));
#1083=CARTESIAN_POINT('',(24.,14.,0.));
#1084=CARTESIAN_POINT('',(-24.,14.,0.));
#1085=CARTESIAN_POINT('',(24.,14.,0.));
#1086=CARTESIAN_POINT('Origin',(-3.10862446895044E-14,6.66133814775094E-15,
0.));
#1087=CARTESIAN_POINT('',(24.,-0.253945729601844,0.));
#1088=CARTESIAN_POINT('Origin',(24.24,4.49999999999997,0.));
#1089=CARTESIAN_POINT('',(24.,-14.,0.));
#1090=CARTESIAN_POINT('',(24.,14.,0.));
#1091=CARTESIAN_POINT('',(-24.,-14.,0.));
#1092=CARTESIAN_POINT('',(24.,-14.,0.));
#1093=CARTESIAN_POINT('',(-24.,-14.,0.));
#1094=CARTESIAN_POINT('',(21.,-11.,0.));
#1095=CARTESIAN_POINT('Origin',(24.24,4.49999999999997,0.));
#1096=CARTESIAN_POINT('',(22.1400000000001,4.49999999999997,2.));
#1097=CARTESIAN_POINT('Origin',(24.24,4.49999999999997,2.));
#1098=CARTESIAN_POINT('',(22.1400000000001,4.49999999999997,0.));
#1099=CARTESIAN_POINT('Origin',(-21.,11.,0.));
#1100=CARTESIAN_POINT('',(-21.,11.,2.));
#1101=CARTESIAN_POINT('Origin',(21.,-11.,0.));
#1102=CARTESIAN_POINT('',(21.,-11.,2.));
#1103=CARTESIAN_POINT('Origin',(-24.2399999999999,-4.50000000000003,0.));
#1104=CARTESIAN_POINT('',(-26.3399999999999,-4.50000000000003,2.));
#1105=CARTESIAN_POINT('Origin',(-24.2399999999999,-4.50000000000003,2.));
#1106=CARTESIAN_POINT('',(-26.3399999999999,-4.50000000000003,0.));
#1107=CARTESIAN_POINT('Origin',(-24.,-14.,0.));
#1108=CARTESIAN_POINT('',(24.,-14.,2.));
#1109=CARTESIAN_POINT('',(24.,-14.,0.));
#1110=CARTESIAN_POINT('',(-24.,-14.,2.));
#1111=CARTESIAN_POINT('',(24.,-14.,2.));
#1112=CARTESIAN_POINT('',(-24.,-14.,0.));
#1113=CARTESIAN_POINT('Origin',(-24.,-9.25394572960202,0.));
#1114=CARTESIAN_POINT('',(-24.,-14.,2.));
#1115=CARTESIAN_POINT('Origin',(-24.,14.,0.));
#1116=CARTESIAN_POINT('',(-24.,14.,2.));
#1117=CARTESIAN_POINT('',(-24.,-14.,2.));
#1118=CARTESIAN_POINT('',(-24.,14.,0.));
#1119=CARTESIAN_POINT('Origin',(24.,14.,0.));
#1120=CARTESIAN_POINT('',(24.,14.,2.));
#1121=CARTESIAN_POINT('',(-24.,14.,2.));
#1122=CARTESIAN_POINT('',(24.,14.,0.));
#1123=CARTESIAN_POINT('Origin',(24.,9.25394572960178,0.));
#1124=CARTESIAN_POINT('',(24.,9.25394572960178,2.));
#1125=CARTESIAN_POINT('',(24.,14.,2.));
#1126=CARTESIAN_POINT('',(24.,9.25394572960178,0.));
#1127=CARTESIAN_POINT('Origin',(24.24,4.49999999999997,0.));
#1128=CARTESIAN_POINT('',(24.,-0.253945729601844,2.));
#1129=CARTESIAN_POINT('Origin',(24.24,4.49999999999997,2.));
#1130=CARTESIAN_POINT('',(24.,-0.253945729601844,0.));
#1131=CARTESIAN_POINT('Origin',(24.,-14.,0.));
#1132=CARTESIAN_POINT('',(24.,14.,2.));
#1133=CARTESIAN_POINT('Origin',(-3.10862446895044E-14,6.66133814775094E-15,
2.));
#1134=UNCERTAINTY_MEASURE_WITH_UNIT(LENGTH_MEASURE(0.01),#1138,
'DISTANCE_ACCURACY_VALUE',
'Maximum model space distance between geometric entities at asserted c
onnectivities');
#1135=UNCERTAINTY_MEASURE_WITH_UNIT(LENGTH_MEASURE(0.01),#1138,
'DISTANCE_ACCURACY_VALUE',
'Maximum model space distance between geometric entities at asserted c
onnectivities');
#1136=(
GEOMETRIC_REPRESENTATION_CONTEXT(3)
GLOBAL_UNCERTAINTY_ASSIGNED_CONTEXT((#1134))
GLOBAL_UNIT_ASSIGNED_CONTEXT((#1138,#1140,#1141))
REPRESENTATION_CONTEXT('','3D')
);
#1137=(
GEOMETRIC_REPRESENTATION_CONTEXT(3)
GLOBAL_UNCERTAINTY_ASSIGNED_CONTEXT((#1135))
GLOBAL_UNIT_ASSIGNED_CONTEXT((#1138,#1140,#1141))
REPRESENTATION_CONTEXT('','3D')
);
#1138=(
LENGTH_UNIT()
NAMED_UNIT(*)
SI_UNIT(.MILLI.,.METRE.)
);
#1139=(
LENGTH_UNIT()
NAMED_UNIT(*)
SI_UNIT($,.METRE.)
);
#1140=(
NAMED_UNIT(*)
PLANE_ANGLE_UNIT()
SI_UNIT($,.RADIAN.)
);
#1141=(
NAMED_UNIT(*)
SI_UNIT($,.STERADIAN.)
SOLID_ANGLE_UNIT()
);
#1142=SHAPE_DEFINITION_REPRESENTATION(#1143,#1144);
#1143=PRODUCT_DEFINITION_SHAPE('',$,#1146);
#1144=SHAPE_REPRESENTATION('',(#594),#1136);
#1145=PRODUCT_DEFINITION_CONTEXT('part definition',#1150,'design');
#1146=PRODUCT_DEFINITION('ServoMount','ServoMount v1',#1147,#1145);
#1147=PRODUCT_DEFINITION_FORMATION('',$,#1152);
#1148=PRODUCT_RELATED_PRODUCT_CATEGORY('ServoMount v1','ServoMount v1',
(#1152));
#1149=APPLICATION_PROTOCOL_DEFINITION('international standard',
'automotive_design',2009,#1150);
#1150=APPLICATION_CONTEXT(
'Core Data for Automotive Mechanical Design Process');
#1151=PRODUCT_CONTEXT('part definition',#1150,'mechanical');
#1152=PRODUCT('ServoMount','ServoMount v1',$,(#1151));
#1153=PRESENTATION_STYLE_ASSIGNMENT((#1154));
#1154=SURFACE_STYLE_USAGE(.BOTH.,#1155);
#1155=SURFACE_SIDE_STYLE('',(#1156));
#1156=SURFACE_STYLE_FILL_AREA(#1157);
#1157=FILL_AREA_STYLE('Steel - Satin',(#1158));
#1158=FILL_AREA_STYLE_COLOUR('Steel - Satin',#1159);
#1159=COLOUR_RGB('Steel - Satin',0.627450980392157,0.627450980392157,0.627450980392157);
ENDSEC;
END-ISO-10303-21;
