ISO-10303-21;
HEADER;
/* Generated by software containing ST-Developer
 * from STEP Tools, Inc. (www.steptools.com) 
 */

FILE_DESCRIPTION(
/* description */ (''),
/* implementation_level */ '2;1');

FILE_NAME(
/* name */ 'MidBearingMount-Bottom_v21.step',
/* time_stamp */ '2026-08-21T09:19:32-04:00',
/* author */ (''),
/* organization */ (''),
/* preprocessor_version */ 'ST-DEVELOPER v20.1',
/* originating_system */ 'Autodesk Translation Framework v15.8.0.0',
/* authorisation */ '');

FILE_SCHEMA (('AUTOMOTIVE_DESIGN { 1 0 10303 214 3 1 1 }'));
ENDSEC;

DATA;
#10=MECHANICAL_DESIGN_GEOMETRIC_PRESENTATION_REPRESENTATION('',(#13),#1295);
#11=SHAPE_REPRESENTATION_RELATIONSHIP('SRR','None',#1302,#12);
#12=ADVANCED_BREP_SHAPE_REPRESENTATION('',(#14),#1294);
#13=STYLED_ITEM('',(#1312),#14);
#14=MANIFOLD_SOLID_BREP('Body1',#755);
#15=FACE_BOUND('',#108,.T.);
#16=FACE_BOUND('',#109,.T.);
#17=FACE_BOUND('',#110,.T.);
#18=FACE_BOUND('',#111,.T.);
#19=FACE_BOUND('',#121,.T.);
#20=FACE_BOUND('',#122,.T.);
#21=FACE_BOUND('',#123,.T.);
#22=FACE_BOUND('',#124,.T.);
#23=PLANE('',#781);
#24=PLANE('',#785);
#25=PLANE('',#786);
#26=PLANE('',#787);
#27=PLANE('',#794);
#28=PLANE('',#795);
#29=PLANE('',#796);
#30=PLANE('',#800);
#31=PLANE('',#801);
#32=PLANE('',#805);
#33=PLANE('',#806);
#34=PLANE('',#807);
#35=PLANE('',#811);
#36=PLANE('',#812);
#37=PLANE('',#816);
#38=PLANE('',#820);
#39=PLANE('',#821);
#40=PLANE('',#846);
#41=FACE_OUTER_BOUND('',#79,.T.);
#42=FACE_OUTER_BOUND('',#80,.T.);
#43=FACE_OUTER_BOUND('',#81,.T.);
#44=FACE_OUTER_BOUND('',#82,.T.);
#45=FACE_OUTER_BOUND('',#83,.T.);
#46=FACE_OUTER_BOUND('',#84,.T.);
#47=FACE_OUTER_BOUND('',#85,.T.);
#48=FACE_OUTER_BOUND('',#86,.T.);
#49=FACE_OUTER_BOUND('',#87,.T.);
#50=FACE_OUTER_BOUND('',#88,.T.);
#51=FACE_OUTER_BOUND('',#89,.T.);
#52=FACE_OUTER_BOUND('',#90,.T.);
#53=FACE_OUTER_BOUND('',#91,.T.);
#54=FACE_OUTER_BOUND('',#92,.T.);
#55=FACE_OUTER_BOUND('',#93,.T.);
#56=FACE_OUTER_BOUND('',#94,.T.);
#57=FACE_OUTER_BOUND('',#95,.T.);
#58=FACE_OUTER_BOUND('',#96,.T.);
#59=FACE_OUTER_BOUND('',#97,.T.);
#60=FACE_OUTER_BOUND('',#98,.T.);
#61=FACE_OUTER_BOUND('',#99,.T.);
#62=FACE_OUTER_BOUND('',#100,.T.);
#63=FACE_OUTER_BOUND('',#101,.T.);
#64=FACE_OUTER_BOUND('',#102,.T.);
#65=FACE_OUTER_BOUND('',#103,.T.);
#66=FACE_OUTER_BOUND('',#104,.T.);
#67=FACE_OUTER_BOUND('',#105,.T.);
#68=FACE_OUTER_BOUND('',#106,.T.);
#69=FACE_OUTER_BOUND('',#107,.T.);
#70=FACE_OUTER_BOUND('',#112,.T.);
#71=FACE_OUTER_BOUND('',#113,.T.);
#72=FACE_OUTER_BOUND('',#114,.T.);
#73=FACE_OUTER_BOUND('',#115,.T.);
#74=FACE_OUTER_BOUND('',#116,.T.);
#75=FACE_OUTER_BOUND('',#117,.T.);
#76=FACE_OUTER_BOUND('',#118,.T.);
#77=FACE_OUTER_BOUND('',#119,.T.);
#78=FACE_OUTER_BOUND('',#120,.T.);
#79=EDGE_LOOP('',(#481,#482,#483,#484));
#80=EDGE_LOOP('',(#485,#486,#487,#488));
#81=EDGE_LOOP('',(#489,#490,#491,#492));
#82=EDGE_LOOP('',(#493,#494,#495,#496));
#83=EDGE_LOOP('',(#497,#498,#499,#500));
#84=EDGE_LOOP('',(#501,#502,#503,#504));
#85=EDGE_LOOP('',(#505,#506,#507,#508));
#86=EDGE_LOOP('',(#509,#510,#511,#512));
#87=EDGE_LOOP('',(#513,#514,#515,#516));
#88=EDGE_LOOP('',(#517,#518,#519,#520));
#89=EDGE_LOOP('',(#521,#522,#523,#524));
#90=EDGE_LOOP('',(#525,#526,#527,#528));
#91=EDGE_LOOP('',(#529,#530,#531,#532));
#92=EDGE_LOOP('',(#533,#534,#535,#536));
#93=EDGE_LOOP('',(#537,#538,#539,#540));
#94=EDGE_LOOP('',(#541,#542,#543,#544));
#95=EDGE_LOOP('',(#545,#546,#547,#548));
#96=EDGE_LOOP('',(#549,#550,#551,#552));
#97=EDGE_LOOP('',(#553,#554,#555,#556));
#98=EDGE_LOOP('',(#557,#558,#559,#560));
#99=EDGE_LOOP('',(#561,#562,#563,#564));
#100=EDGE_LOOP('',(#565,#566,#567,#568));
#101=EDGE_LOOP('',(#569,#570,#571,#572));
#102=EDGE_LOOP('',(#573,#574,#575,#576));
#103=EDGE_LOOP('',(#577,#578,#579,#580));
#104=EDGE_LOOP('',(#581,#582,#583,#584));
#105=EDGE_LOOP('',(#585,#586,#587,#588));
#106=EDGE_LOOP('',(#589,#590,#591,#592));
#107=EDGE_LOOP('',(#593,#594,#595,#596,#597,#598,#599,#600,#601,#602,#603,
#604,#605,#606,#607,#608,#609,#610,#611,#612,#613,#614,#615,#616,#617,#618,
#619,#620,#621,#622,#623,#624));
#108=EDGE_LOOP('',(#625));
#109=EDGE_LOOP('',(#626));
#110=EDGE_LOOP('',(#627));
#111=EDGE_LOOP('',(#628));
#112=EDGE_LOOP('',(#629,#630,#631,#632));
#113=EDGE_LOOP('',(#633,#634,#635,#636));
#114=EDGE_LOOP('',(#637,#638,#639,#640));
#115=EDGE_LOOP('',(#641,#642,#643,#644));
#116=EDGE_LOOP('',(#645,#646,#647,#648));
#117=EDGE_LOOP('',(#649,#650,#651,#652));
#118=EDGE_LOOP('',(#653,#654,#655,#656));
#119=EDGE_LOOP('',(#657,#658,#659,#660));
#120=EDGE_LOOP('',(#661,#662,#663,#664,#665,#666,#667,#668,#669,#670,#671,
#672,#673,#674,#675,#676,#677,#678,#679,#680,#681,#682,#683,#684,#685,#686,
#687,#688,#689,#690,#691,#692));
#121=EDGE_LOOP('',(#693));
#122=EDGE_LOOP('',(#694));
#123=EDGE_LOOP('',(#695));
#124=EDGE_LOOP('',(#696));
#125=LINE('',#1078,#193);
#126=LINE('',#1084,#194);
#127=LINE('',#1090,#195);
#128=LINE('',#1096,#196);
#129=LINE('',#1101,#197);
#130=LINE('',#1103,#198);
#131=LINE('',#1105,#199);
#132=LINE('',#1106,#200);
#133=LINE('',#1111,#201);
#134=LINE('',#1116,#202);
#135=LINE('',#1117,#203);
#136=LINE('',#1118,#204);
#137=LINE('',#1122,#205);
#138=LINE('',#1124,#206);
#139=LINE('',#1126,#207);
#140=LINE('',#1127,#208);
#141=LINE('',#1131,#209);
#142=LINE('',#1133,#210);
#143=LINE('',#1135,#211);
#144=LINE('',#1136,#212);
#145=LINE('',#1145,#213);
#146=LINE('',#1148,#214);
#147=LINE('',#1152,#215);
#148=LINE('',#1153,#216);
#149=LINE('',#1154,#217);
#150=LINE('',#1158,#218);
#151=LINE('',#1159,#219);
#152=LINE('',#1160,#220);
#153=LINE('',#1164,#221);
#154=LINE('',#1166,#222);
#155=LINE('',#1168,#223);
#156=LINE('',#1169,#224);
#157=LINE('',#1174,#225);
#158=LINE('',#1179,#226);
#159=LINE('',#1180,#227);
#160=LINE('',#1181,#228);
#161=LINE('',#1185,#229);
#162=LINE('',#1187,#230);
#163=LINE('',#1189,#231);
#164=LINE('',#1190,#232);
#165=LINE('',#1195,#233);
#166=LINE('',#1200,#234);
#167=LINE('',#1201,#235);
#168=LINE('',#1202,#236);
#169=LINE('',#1206,#237);
#170=LINE('',#1208,#238);
#171=LINE('',#1210,#239);
#172=LINE('',#1211,#240);
#173=LINE('',#1215,#241);
#174=LINE('',#1217,#242);
#175=LINE('',#1219,#243);
#176=LINE('',#1220,#244);
#177=LINE('',#1227,#245);
#178=LINE('',#1229,#246);
#179=LINE('',#1231,#247);
#180=LINE('',#1232,#248);
#181=LINE('',#1236,#249);
#182=LINE('',#1238,#250);
#183=LINE('',#1240,#251);
#184=LINE('',#1241,#252);
#185=LINE('',#1248,#253);
#186=LINE('',#1250,#254);
#187=LINE('',#1252,#255);
#188=LINE('',#1253,#256);
#189=LINE('',#1258,#257);
#190=LINE('',#1263,#258);
#191=LINE('',#1264,#259);
#192=LINE('',#1265,#260);
#193=VECTOR('',#853,1.5);
#194=VECTOR('',#860,1.5);
#195=VECTOR('',#867,1.5);
#196=VECTOR('',#874,6.);
#197=VECTOR('',#879,10.);
#198=VECTOR('',#880,10.);
#199=VECTOR('',#881,10.);
#200=VECTOR('',#882,10.);
#201=VECTOR('',#887,10.);
#202=VECTOR('',#892,10.);
#203=VECTOR('',#893,10.);
#204=VECTOR('',#894,10.);
#205=VECTOR('',#897,10.);
#206=VECTOR('',#898,10.);
#207=VECTOR('',#899,10.);
#208=VECTOR('',#900,10.);
#209=VECTOR('',#903,10.);
#210=VECTOR('',#904,10.);
#211=VECTOR('',#905,10.);
#212=VECTOR('',#906,10.);
#213=VECTOR('',#917,10.);
#214=VECTOR('',#920,10.);
#215=VECTOR('',#923,10.);
#216=VECTOR('',#924,10.);
#217=VECTOR('',#925,10.);
#218=VECTOR('',#928,10.);
#219=VECTOR('',#929,10.);
#220=VECTOR('',#930,10.);
#221=VECTOR('',#933,10.);
#222=VECTOR('',#934,10.);
#223=VECTOR('',#935,10.);
#224=VECTOR('',#936,10.);
#225=VECTOR('',#941,10.);
#226=VECTOR('',#946,10.);
#227=VECTOR('',#947,10.);
#228=VECTOR('',#948,10.);
#229=VECTOR('',#951,10.);
#230=VECTOR('',#952,10.);
#231=VECTOR('',#953,10.);
#232=VECTOR('',#954,10.);
#233=VECTOR('',#959,10.);
#234=VECTOR('',#964,10.);
#235=VECTOR('',#965,10.);
#236=VECTOR('',#966,10.);
#237=VECTOR('',#969,10.);
#238=VECTOR('',#970,10.);
#239=VECTOR('',#971,10.);
#240=VECTOR('',#972,10.);
#241=VECTOR('',#975,10.);
#242=VECTOR('',#976,10.);
#243=VECTOR('',#977,10.);
#244=VECTOR('',#978,10.);
#245=VECTOR('',#987,10.);
#246=VECTOR('',#988,10.);
#247=VECTOR('',#989,10.);
#248=VECTOR('',#990,10.);
#249=VECTOR('',#993,10.);
#250=VECTOR('',#994,10.);
#251=VECTOR('',#995,10.);
#252=VECTOR('',#996,10.);
#253=VECTOR('',#1005,10.);
#254=VECTOR('',#1006,10.);
#255=VECTOR('',#1007,10.);
#256=VECTOR('',#1008,10.);
#257=VECTOR('',#1013,10.);
#258=VECTOR('',#1018,10.);
#259=VECTOR('',#1019,10.);
#260=VECTOR('',#1020,10.);
#261=CIRCLE('',#770,1.5);
#262=CIRCLE('',#771,1.5);
#263=CIRCLE('',#773,1.5);
#264=CIRCLE('',#774,1.5);
#265=CIRCLE('',#776,1.5);
#266=CIRCLE('',#777,1.5);
#267=CIRCLE('',#779,6.);
#268=CIRCLE('',#780,6.);
#269=CIRCLE('',#783,2.1);
#270=CIRCLE('',#784,2.1);
#271=CIRCLE('',#789,2.1);
#272=CIRCLE('',#790,2.1);
#273=CIRCLE('',#792,2.1);
#274=CIRCLE('',#793,2.1);
#275=CIRCLE('',#798,2.1);
#276=CIRCLE('',#799,2.1);
#277=CIRCLE('',#803,2.1);
#278=CIRCLE('',#804,2.1);
#279=CIRCLE('',#809,2.1);
#280=CIRCLE('',#810,2.1);
#281=CIRCLE('',#814,2.1);
#282=CIRCLE('',#815,2.1);
#283=CIRCLE('',#818,2.1);
#284=CIRCLE('',#819,2.1);
#285=CIRCLE('',#822,20.);
#286=CIRCLE('',#823,20.);
#287=CIRCLE('',#824,20.);
#288=CIRCLE('',#825,20.);
#289=CIRCLE('',#826,20.);
#290=CIRCLE('',#827,20.);
#291=CIRCLE('',#828,20.);
#292=CIRCLE('',#829,20.);
#293=CIRCLE('',#831,20.);
#294=CIRCLE('',#833,20.);
#295=CIRCLE('',#835,20.);
#296=CIRCLE('',#837,20.);
#297=CIRCLE('',#839,20.);
#298=CIRCLE('',#841,20.);
#299=CIRCLE('',#843,20.);
#300=CIRCLE('',#845,20.);
#301=VERTEX_POINT('',#1075);
#302=VERTEX_POINT('',#1077);
#303=VERTEX_POINT('',#1081);
#304=VERTEX_POINT('',#1083);
#305=VERTEX_POINT('',#1087);
#306=VERTEX_POINT('',#1089);
#307=VERTEX_POINT('',#1093);
#308=VERTEX_POINT('',#1095);
#309=VERTEX_POINT('',#1099);
#310=VERTEX_POINT('',#1100);
#311=VERTEX_POINT('',#1102);
#312=VERTEX_POINT('',#1104);
#313=VERTEX_POINT('',#1108);
#314=VERTEX_POINT('',#1110);
#315=VERTEX_POINT('',#1114);
#316=VERTEX_POINT('',#1115);
#317=VERTEX_POINT('',#1120);
#318=VERTEX_POINT('',#1121);
#319=VERTEX_POINT('',#1123);
#320=VERTEX_POINT('',#1125);
#321=VERTEX_POINT('',#1129);
#322=VERTEX_POINT('',#1130);
#323=VERTEX_POINT('',#1132);
#324=VERTEX_POINT('',#1134);
#325=VERTEX_POINT('',#1141);
#326=VERTEX_POINT('',#1142);
#327=VERTEX_POINT('',#1144);
#328=VERTEX_POINT('',#1146);
#329=VERTEX_POINT('',#1150);
#330=VERTEX_POINT('',#1151);
#331=VERTEX_POINT('',#1156);
#332=VERTEX_POINT('',#1157);
#333=VERTEX_POINT('',#1162);
#334=VERTEX_POINT('',#1163);
#335=VERTEX_POINT('',#1165);
#336=VERTEX_POINT('',#1167);
#337=VERTEX_POINT('',#1171);
#338=VERTEX_POINT('',#1173);
#339=VERTEX_POINT('',#1177);
#340=VERTEX_POINT('',#1178);
#341=VERTEX_POINT('',#1183);
#342=VERTEX_POINT('',#1184);
#343=VERTEX_POINT('',#1186);
#344=VERTEX_POINT('',#1188);
#345=VERTEX_POINT('',#1192);
#346=VERTEX_POINT('',#1194);
#347=VERTEX_POINT('',#1198);
#348=VERTEX_POINT('',#1199);
#349=VERTEX_POINT('',#1204);
#350=VERTEX_POINT('',#1205);
#351=VERTEX_POINT('',#1207);
#352=VERTEX_POINT('',#1209);
#353=VERTEX_POINT('',#1213);
#354=VERTEX_POINT('',#1214);
#355=VERTEX_POINT('',#1216);
#356=VERTEX_POINT('',#1218);
#357=VERTEX_POINT('',#1225);
#358=VERTEX_POINT('',#1226);
#359=VERTEX_POINT('',#1228);
#360=VERTEX_POINT('',#1230);
#361=VERTEX_POINT('',#1234);
#362=VERTEX_POINT('',#1235);
#363=VERTEX_POINT('',#1237);
#364=VERTEX_POINT('',#1239);
#365=VERTEX_POINT('',#1246);
#366=VERTEX_POINT('',#1247);
#367=VERTEX_POINT('',#1249);
#368=VERTEX_POINT('',#1251);
#369=VERTEX_POINT('',#1255);
#370=VERTEX_POINT('',#1257);
#371=VERTEX_POINT('',#1261);
#372=VERTEX_POINT('',#1262);
#373=EDGE_CURVE('',#301,#301,#261,.T.);
#374=EDGE_CURVE('',#301,#302,#125,.T.);
#375=EDGE_CURVE('',#302,#302,#262,.T.);
#376=EDGE_CURVE('',#303,#303,#263,.T.);
#377=EDGE_CURVE('',#303,#304,#126,.T.);
#378=EDGE_CURVE('',#304,#304,#264,.T.);
#379=EDGE_CURVE('',#305,#305,#265,.T.);
#380=EDGE_CURVE('',#305,#306,#127,.T.);
#381=EDGE_CURVE('',#306,#306,#266,.T.);
#382=EDGE_CURVE('',#307,#307,#267,.T.);
#383=EDGE_CURVE('',#307,#308,#128,.T.);
#384=EDGE_CURVE('',#308,#308,#268,.T.);
#385=EDGE_CURVE('',#309,#310,#129,.T.);
#386=EDGE_CURVE('',#311,#309,#130,.T.);
#387=EDGE_CURVE('',#311,#312,#131,.T.);
#388=EDGE_CURVE('',#310,#312,#132,.T.);
#389=EDGE_CURVE('',#313,#311,#269,.T.);
#390=EDGE_CURVE('',#313,#314,#133,.T.);
#391=EDGE_CURVE('',#312,#314,#270,.T.);
#392=EDGE_CURVE('',#315,#316,#134,.T.);
#393=EDGE_CURVE('',#314,#315,#135,.T.);
#394=EDGE_CURVE('',#316,#313,#136,.T.);
#395=EDGE_CURVE('',#317,#318,#137,.T.);
#396=EDGE_CURVE('',#319,#317,#138,.T.);
#397=EDGE_CURVE('',#320,#319,#139,.T.);
#398=EDGE_CURVE('',#318,#320,#140,.T.);
#399=EDGE_CURVE('',#321,#322,#141,.T.);
#400=EDGE_CURVE('',#323,#321,#142,.T.);
#401=EDGE_CURVE('',#323,#324,#143,.T.);
#402=EDGE_CURVE('',#322,#324,#144,.T.);
#403=EDGE_CURVE('',#320,#323,#271,.T.);
#404=EDGE_CURVE('',#324,#319,#272,.T.);
#405=EDGE_CURVE('',#325,#326,#273,.T.);
#406=EDGE_CURVE('',#325,#327,#145,.T.);
#407=EDGE_CURVE('',#328,#327,#274,.T.);
#408=EDGE_CURVE('',#326,#328,#146,.T.);
#409=EDGE_CURVE('',#329,#330,#147,.T.);
#410=EDGE_CURVE('',#327,#329,#148,.T.);
#411=EDGE_CURVE('',#330,#325,#149,.T.);
#412=EDGE_CURVE('',#331,#332,#150,.T.);
#413=EDGE_CURVE('',#326,#331,#151,.T.);
#414=EDGE_CURVE('',#332,#328,#152,.T.);
#415=EDGE_CURVE('',#333,#334,#153,.T.);
#416=EDGE_CURVE('',#335,#333,#154,.T.);
#417=EDGE_CURVE('',#335,#336,#155,.T.);
#418=EDGE_CURVE('',#334,#336,#156,.T.);
#419=EDGE_CURVE('',#337,#335,#275,.T.);
#420=EDGE_CURVE('',#337,#338,#157,.T.);
#421=EDGE_CURVE('',#336,#338,#276,.T.);
#422=EDGE_CURVE('',#339,#340,#158,.T.);
#423=EDGE_CURVE('',#338,#339,#159,.T.);
#424=EDGE_CURVE('',#340,#337,#160,.T.);
#425=EDGE_CURVE('',#341,#342,#161,.T.);
#426=EDGE_CURVE('',#343,#341,#162,.T.);
#427=EDGE_CURVE('',#343,#344,#163,.T.);
#428=EDGE_CURVE('',#342,#344,#164,.T.);
#429=EDGE_CURVE('',#345,#343,#277,.T.);
#430=EDGE_CURVE('',#345,#346,#165,.T.);
#431=EDGE_CURVE('',#344,#346,#278,.T.);
#432=EDGE_CURVE('',#347,#348,#166,.T.);
#433=EDGE_CURVE('',#346,#347,#167,.T.);
#434=EDGE_CURVE('',#348,#345,#168,.T.);
#435=EDGE_CURVE('',#349,#350,#169,.T.);
#436=EDGE_CURVE('',#351,#349,#170,.T.);
#437=EDGE_CURVE('',#352,#351,#171,.T.);
#438=EDGE_CURVE('',#350,#352,#172,.T.);
#439=EDGE_CURVE('',#353,#354,#173,.T.);
#440=EDGE_CURVE('',#355,#353,#174,.T.);
#441=EDGE_CURVE('',#355,#356,#175,.T.);
#442=EDGE_CURVE('',#354,#356,#176,.T.);
#443=EDGE_CURVE('',#352,#355,#279,.T.);
#444=EDGE_CURVE('',#356,#351,#280,.T.);
#445=EDGE_CURVE('',#357,#358,#177,.T.);
#446=EDGE_CURVE('',#359,#357,#178,.T.);
#447=EDGE_CURVE('',#360,#359,#179,.T.);
#448=EDGE_CURVE('',#358,#360,#180,.T.);
#449=EDGE_CURVE('',#361,#362,#181,.T.);
#450=EDGE_CURVE('',#363,#361,#182,.T.);
#451=EDGE_CURVE('',#363,#364,#183,.T.);
#452=EDGE_CURVE('',#362,#364,#184,.T.);
#453=EDGE_CURVE('',#360,#363,#281,.T.);
#454=EDGE_CURVE('',#364,#359,#282,.T.);
#455=EDGE_CURVE('',#365,#366,#185,.T.);
#456=EDGE_CURVE('',#367,#365,#186,.T.);
#457=EDGE_CURVE('',#367,#368,#187,.T.);
#458=EDGE_CURVE('',#366,#368,#188,.T.);
#459=EDGE_CURVE('',#369,#367,#283,.T.);
#460=EDGE_CURVE('',#369,#370,#189,.T.);
#461=EDGE_CURVE('',#368,#370,#284,.T.);
#462=EDGE_CURVE('',#371,#372,#190,.T.);
#463=EDGE_CURVE('',#370,#371,#191,.T.);
#464=EDGE_CURVE('',#372,#369,#192,.T.);
#465=EDGE_CURVE('',#315,#362,#285,.T.);
#466=EDGE_CURVE('',#357,#322,#286,.T.);
#467=EDGE_CURVE('',#317,#354,#287,.T.);
#468=EDGE_CURVE('',#349,#332,#288,.T.);
#469=EDGE_CURVE('',#329,#342,#289,.T.);
#470=EDGE_CURVE('',#347,#334,#290,.T.);
#471=EDGE_CURVE('',#339,#366,#291,.T.);
#472=EDGE_CURVE('',#371,#310,#292,.T.);
#473=EDGE_CURVE('',#340,#365,#293,.T.);
#474=EDGE_CURVE('',#348,#333,#294,.T.);
#475=EDGE_CURVE('',#350,#331,#295,.T.);
#476=EDGE_CURVE('',#330,#341,#296,.T.);
#477=EDGE_CURVE('',#358,#321,#297,.T.);
#478=EDGE_CURVE('',#318,#353,#298,.T.);
#479=EDGE_CURVE('',#316,#361,#299,.T.);
#480=EDGE_CURVE('',#372,#309,#300,.T.);
#481=ORIENTED_EDGE('',*,*,#373,.F.);
#482=ORIENTED_EDGE('',*,*,#374,.T.);
#483=ORIENTED_EDGE('',*,*,#375,.F.);
#484=ORIENTED_EDGE('',*,*,#374,.F.);
#485=ORIENTED_EDGE('',*,*,#376,.F.);
#486=ORIENTED_EDGE('',*,*,#377,.T.);
#487=ORIENTED_EDGE('',*,*,#378,.F.);
#488=ORIENTED_EDGE('',*,*,#377,.F.);
#489=ORIENTED_EDGE('',*,*,#379,.F.);
#490=ORIENTED_EDGE('',*,*,#380,.T.);
#491=ORIENTED_EDGE('',*,*,#381,.F.);
#492=ORIENTED_EDGE('',*,*,#380,.F.);
#493=ORIENTED_EDGE('',*,*,#382,.F.);
#494=ORIENTED_EDGE('',*,*,#383,.T.);
#495=ORIENTED_EDGE('',*,*,#384,.F.);
#496=ORIENTED_EDGE('',*,*,#383,.F.);
#497=ORIENTED_EDGE('',*,*,#385,.F.);
#498=ORIENTED_EDGE('',*,*,#386,.F.);
#499=ORIENTED_EDGE('',*,*,#387,.T.);
#500=ORIENTED_EDGE('',*,*,#388,.F.);
#501=ORIENTED_EDGE('',*,*,#389,.F.);
#502=ORIENTED_EDGE('',*,*,#390,.T.);
#503=ORIENTED_EDGE('',*,*,#391,.F.);
#504=ORIENTED_EDGE('',*,*,#387,.F.);
#505=ORIENTED_EDGE('',*,*,#392,.F.);
#506=ORIENTED_EDGE('',*,*,#393,.F.);
#507=ORIENTED_EDGE('',*,*,#390,.F.);
#508=ORIENTED_EDGE('',*,*,#394,.F.);
#509=ORIENTED_EDGE('',*,*,#395,.F.);
#510=ORIENTED_EDGE('',*,*,#396,.F.);
#511=ORIENTED_EDGE('',*,*,#397,.F.);
#512=ORIENTED_EDGE('',*,*,#398,.F.);
#513=ORIENTED_EDGE('',*,*,#399,.F.);
#514=ORIENTED_EDGE('',*,*,#400,.F.);
#515=ORIENTED_EDGE('',*,*,#401,.T.);
#516=ORIENTED_EDGE('',*,*,#402,.F.);
#517=ORIENTED_EDGE('',*,*,#403,.F.);
#518=ORIENTED_EDGE('',*,*,#397,.T.);
#519=ORIENTED_EDGE('',*,*,#404,.F.);
#520=ORIENTED_EDGE('',*,*,#401,.F.);
#521=ORIENTED_EDGE('',*,*,#405,.F.);
#522=ORIENTED_EDGE('',*,*,#406,.T.);
#523=ORIENTED_EDGE('',*,*,#407,.F.);
#524=ORIENTED_EDGE('',*,*,#408,.F.);
#525=ORIENTED_EDGE('',*,*,#409,.F.);
#526=ORIENTED_EDGE('',*,*,#410,.F.);
#527=ORIENTED_EDGE('',*,*,#406,.F.);
#528=ORIENTED_EDGE('',*,*,#411,.F.);
#529=ORIENTED_EDGE('',*,*,#412,.F.);
#530=ORIENTED_EDGE('',*,*,#413,.F.);
#531=ORIENTED_EDGE('',*,*,#408,.T.);
#532=ORIENTED_EDGE('',*,*,#414,.F.);
#533=ORIENTED_EDGE('',*,*,#415,.F.);
#534=ORIENTED_EDGE('',*,*,#416,.F.);
#535=ORIENTED_EDGE('',*,*,#417,.T.);
#536=ORIENTED_EDGE('',*,*,#418,.F.);
#537=ORIENTED_EDGE('',*,*,#419,.F.);
#538=ORIENTED_EDGE('',*,*,#420,.T.);
#539=ORIENTED_EDGE('',*,*,#421,.F.);
#540=ORIENTED_EDGE('',*,*,#417,.F.);
#541=ORIENTED_EDGE('',*,*,#422,.F.);
#542=ORIENTED_EDGE('',*,*,#423,.F.);
#543=ORIENTED_EDGE('',*,*,#420,.F.);
#544=ORIENTED_EDGE('',*,*,#424,.F.);
#545=ORIENTED_EDGE('',*,*,#425,.F.);
#546=ORIENTED_EDGE('',*,*,#426,.F.);
#547=ORIENTED_EDGE('',*,*,#427,.T.);
#548=ORIENTED_EDGE('',*,*,#428,.F.);
#549=ORIENTED_EDGE('',*,*,#429,.F.);
#550=ORIENTED_EDGE('',*,*,#430,.T.);
#551=ORIENTED_EDGE('',*,*,#431,.F.);
#552=ORIENTED_EDGE('',*,*,#427,.F.);
#553=ORIENTED_EDGE('',*,*,#432,.F.);
#554=ORIENTED_EDGE('',*,*,#433,.F.);
#555=ORIENTED_EDGE('',*,*,#430,.F.);
#556=ORIENTED_EDGE('',*,*,#434,.F.);
#557=ORIENTED_EDGE('',*,*,#435,.F.);
#558=ORIENTED_EDGE('',*,*,#436,.F.);
#559=ORIENTED_EDGE('',*,*,#437,.F.);
#560=ORIENTED_EDGE('',*,*,#438,.F.);
#561=ORIENTED_EDGE('',*,*,#439,.F.);
#562=ORIENTED_EDGE('',*,*,#440,.F.);
#563=ORIENTED_EDGE('',*,*,#441,.T.);
#564=ORIENTED_EDGE('',*,*,#442,.F.);
#565=ORIENTED_EDGE('',*,*,#443,.F.);
#566=ORIENTED_EDGE('',*,*,#437,.T.);
#567=ORIENTED_EDGE('',*,*,#444,.F.);
#568=ORIENTED_EDGE('',*,*,#441,.F.);
#569=ORIENTED_EDGE('',*,*,#445,.F.);
#570=ORIENTED_EDGE('',*,*,#446,.F.);
#571=ORIENTED_EDGE('',*,*,#447,.F.);
#572=ORIENTED_EDGE('',*,*,#448,.F.);
#573=ORIENTED_EDGE('',*,*,#449,.F.);
#574=ORIENTED_EDGE('',*,*,#450,.F.);
#575=ORIENTED_EDGE('',*,*,#451,.T.);
#576=ORIENTED_EDGE('',*,*,#452,.F.);
#577=ORIENTED_EDGE('',*,*,#453,.F.);
#578=ORIENTED_EDGE('',*,*,#447,.T.);
#579=ORIENTED_EDGE('',*,*,#454,.F.);
#580=ORIENTED_EDGE('',*,*,#451,.F.);
#581=ORIENTED_EDGE('',*,*,#455,.F.);
#582=ORIENTED_EDGE('',*,*,#456,.F.);
#583=ORIENTED_EDGE('',*,*,#457,.T.);
#584=ORIENTED_EDGE('',*,*,#458,.F.);
#585=ORIENTED_EDGE('',*,*,#459,.F.);
#586=ORIENTED_EDGE('',*,*,#460,.T.);
#587=ORIENTED_EDGE('',*,*,#461,.F.);
#588=ORIENTED_EDGE('',*,*,#457,.F.);
#589=ORIENTED_EDGE('',*,*,#462,.F.);
#590=ORIENTED_EDGE('',*,*,#463,.F.);
#591=ORIENTED_EDGE('',*,*,#460,.F.);
#592=ORIENTED_EDGE('',*,*,#464,.F.);
#593=ORIENTED_EDGE('',*,*,#388,.T.);
#594=ORIENTED_EDGE('',*,*,#391,.T.);
#595=ORIENTED_EDGE('',*,*,#393,.T.);
#596=ORIENTED_EDGE('',*,*,#465,.T.);
#597=ORIENTED_EDGE('',*,*,#452,.T.);
#598=ORIENTED_EDGE('',*,*,#454,.T.);
#599=ORIENTED_EDGE('',*,*,#446,.T.);
#600=ORIENTED_EDGE('',*,*,#466,.T.);
#601=ORIENTED_EDGE('',*,*,#402,.T.);
#602=ORIENTED_EDGE('',*,*,#404,.T.);
#603=ORIENTED_EDGE('',*,*,#396,.T.);
#604=ORIENTED_EDGE('',*,*,#467,.T.);
#605=ORIENTED_EDGE('',*,*,#442,.T.);
#606=ORIENTED_EDGE('',*,*,#444,.T.);
#607=ORIENTED_EDGE('',*,*,#436,.T.);
#608=ORIENTED_EDGE('',*,*,#468,.T.);
#609=ORIENTED_EDGE('',*,*,#414,.T.);
#610=ORIENTED_EDGE('',*,*,#407,.T.);
#611=ORIENTED_EDGE('',*,*,#410,.T.);
#612=ORIENTED_EDGE('',*,*,#469,.T.);
#613=ORIENTED_EDGE('',*,*,#428,.T.);
#614=ORIENTED_EDGE('',*,*,#431,.T.);
#615=ORIENTED_EDGE('',*,*,#433,.T.);
#616=ORIENTED_EDGE('',*,*,#470,.T.);
#617=ORIENTED_EDGE('',*,*,#418,.T.);
#618=ORIENTED_EDGE('',*,*,#421,.T.);
#619=ORIENTED_EDGE('',*,*,#423,.T.);
#620=ORIENTED_EDGE('',*,*,#471,.T.);
#621=ORIENTED_EDGE('',*,*,#458,.T.);
#622=ORIENTED_EDGE('',*,*,#461,.T.);
#623=ORIENTED_EDGE('',*,*,#463,.T.);
#624=ORIENTED_EDGE('',*,*,#472,.T.);
#625=ORIENTED_EDGE('',*,*,#373,.T.);
#626=ORIENTED_EDGE('',*,*,#376,.T.);
#627=ORIENTED_EDGE('',*,*,#379,.T.);
#628=ORIENTED_EDGE('',*,*,#384,.T.);
#629=ORIENTED_EDGE('',*,*,#422,.T.);
#630=ORIENTED_EDGE('',*,*,#473,.T.);
#631=ORIENTED_EDGE('',*,*,#455,.T.);
#632=ORIENTED_EDGE('',*,*,#471,.F.);
#633=ORIENTED_EDGE('',*,*,#415,.T.);
#634=ORIENTED_EDGE('',*,*,#470,.F.);
#635=ORIENTED_EDGE('',*,*,#432,.T.);
#636=ORIENTED_EDGE('',*,*,#474,.T.);
#637=ORIENTED_EDGE('',*,*,#412,.T.);
#638=ORIENTED_EDGE('',*,*,#468,.F.);
#639=ORIENTED_EDGE('',*,*,#435,.T.);
#640=ORIENTED_EDGE('',*,*,#475,.T.);
#641=ORIENTED_EDGE('',*,*,#409,.T.);
#642=ORIENTED_EDGE('',*,*,#476,.T.);
#643=ORIENTED_EDGE('',*,*,#425,.T.);
#644=ORIENTED_EDGE('',*,*,#469,.F.);
#645=ORIENTED_EDGE('',*,*,#399,.T.);
#646=ORIENTED_EDGE('',*,*,#466,.F.);
#647=ORIENTED_EDGE('',*,*,#445,.T.);
#648=ORIENTED_EDGE('',*,*,#477,.T.);
#649=ORIENTED_EDGE('',*,*,#395,.T.);
#650=ORIENTED_EDGE('',*,*,#478,.T.);
#651=ORIENTED_EDGE('',*,*,#439,.T.);
#652=ORIENTED_EDGE('',*,*,#467,.F.);
#653=ORIENTED_EDGE('',*,*,#392,.T.);
#654=ORIENTED_EDGE('',*,*,#479,.T.);
#655=ORIENTED_EDGE('',*,*,#449,.T.);
#656=ORIENTED_EDGE('',*,*,#465,.F.);
#657=ORIENTED_EDGE('',*,*,#385,.T.);
#658=ORIENTED_EDGE('',*,*,#472,.F.);
#659=ORIENTED_EDGE('',*,*,#462,.T.);
#660=ORIENTED_EDGE('',*,*,#480,.T.);
#661=ORIENTED_EDGE('',*,*,#386,.T.);
#662=ORIENTED_EDGE('',*,*,#480,.F.);
#663=ORIENTED_EDGE('',*,*,#464,.T.);
#664=ORIENTED_EDGE('',*,*,#459,.T.);
#665=ORIENTED_EDGE('',*,*,#456,.T.);
#666=ORIENTED_EDGE('',*,*,#473,.F.);
#667=ORIENTED_EDGE('',*,*,#424,.T.);
#668=ORIENTED_EDGE('',*,*,#419,.T.);
#669=ORIENTED_EDGE('',*,*,#416,.T.);
#670=ORIENTED_EDGE('',*,*,#474,.F.);
#671=ORIENTED_EDGE('',*,*,#434,.T.);
#672=ORIENTED_EDGE('',*,*,#429,.T.);
#673=ORIENTED_EDGE('',*,*,#426,.T.);
#674=ORIENTED_EDGE('',*,*,#476,.F.);
#675=ORIENTED_EDGE('',*,*,#411,.T.);
#676=ORIENTED_EDGE('',*,*,#405,.T.);
#677=ORIENTED_EDGE('',*,*,#413,.T.);
#678=ORIENTED_EDGE('',*,*,#475,.F.);
#679=ORIENTED_EDGE('',*,*,#438,.T.);
#680=ORIENTED_EDGE('',*,*,#443,.T.);
#681=ORIENTED_EDGE('',*,*,#440,.T.);
#682=ORIENTED_EDGE('',*,*,#478,.F.);
#683=ORIENTED_EDGE('',*,*,#398,.T.);
#684=ORIENTED_EDGE('',*,*,#403,.T.);
#685=ORIENTED_EDGE('',*,*,#400,.T.);
#686=ORIENTED_EDGE('',*,*,#477,.F.);
#687=ORIENTED_EDGE('',*,*,#448,.T.);
#688=ORIENTED_EDGE('',*,*,#453,.T.);
#689=ORIENTED_EDGE('',*,*,#450,.T.);
#690=ORIENTED_EDGE('',*,*,#479,.F.);
#691=ORIENTED_EDGE('',*,*,#394,.T.);
#692=ORIENTED_EDGE('',*,*,#389,.T.);
#693=ORIENTED_EDGE('',*,*,#375,.T.);
#694=ORIENTED_EDGE('',*,*,#378,.T.);
#695=ORIENTED_EDGE('',*,*,#381,.T.);
#696=ORIENTED_EDGE('',*,*,#382,.T.);
#697=CYLINDRICAL_SURFACE('',#769,1.5);
#698=CYLINDRICAL_SURFACE('',#772,1.5);
#699=CYLINDRICAL_SURFACE('',#775,1.5);
#700=CYLINDRICAL_SURFACE('',#778,6.);
#701=CYLINDRICAL_SURFACE('',#782,2.1);
#702=CYLINDRICAL_SURFACE('',#788,2.1);
#703=CYLINDRICAL_SURFACE('',#791,2.1);
#704=CYLINDRICAL_SURFACE('',#797,2.1);
#705=CYLINDRICAL_SURFACE('',#802,2.1);
#706=CYLINDRICAL_SURFACE('',#808,2.1);
#707=CYLINDRICAL_SURFACE('',#813,2.1);
#708=CYLINDRICAL_SURFACE('',#817,2.1);
#709=CYLINDRICAL_SURFACE('',#830,20.);
#710=CYLINDRICAL_SURFACE('',#832,20.);
#711=CYLINDRICAL_SURFACE('',#834,20.);
#712=CYLINDRICAL_SURFACE('',#836,20.);
#713=CYLINDRICAL_SURFACE('',#838,20.);
#714=CYLINDRICAL_SURFACE('',#840,20.);
#715=CYLINDRICAL_SURFACE('',#842,20.);
#716=CYLINDRICAL_SURFACE('',#844,20.);
#717=ADVANCED_FACE('',(#41),#697,.F.);
#718=ADVANCED_FACE('',(#42),#698,.F.);
#719=ADVANCED_FACE('',(#43),#699,.F.);
#720=ADVANCED_FACE('',(#44),#700,.F.);
#721=ADVANCED_FACE('',(#45),#23,.F.);
#722=ADVANCED_FACE('',(#46),#701,.F.);
#723=ADVANCED_FACE('',(#47),#24,.F.);
#724=ADVANCED_FACE('',(#48),#25,.F.);
#725=ADVANCED_FACE('',(#49),#26,.F.);
#726=ADVANCED_FACE('',(#50),#702,.F.);
#727=ADVANCED_FACE('',(#51),#703,.F.);
#728=ADVANCED_FACE('',(#52),#27,.F.);
#729=ADVANCED_FACE('',(#53),#28,.F.);
#730=ADVANCED_FACE('',(#54),#29,.F.);
#731=ADVANCED_FACE('',(#55),#704,.F.);
#732=ADVANCED_FACE('',(#56),#30,.F.);
#733=ADVANCED_FACE('',(#57),#31,.F.);
#734=ADVANCED_FACE('',(#58),#705,.F.);
#735=ADVANCED_FACE('',(#59),#32,.F.);
#736=ADVANCED_FACE('',(#60),#33,.F.);
#737=ADVANCED_FACE('',(#61),#34,.F.);
#738=ADVANCED_FACE('',(#62),#706,.F.);
#739=ADVANCED_FACE('',(#63),#35,.F.);
#740=ADVANCED_FACE('',(#64),#36,.F.);
#741=ADVANCED_FACE('',(#65),#707,.F.);
#742=ADVANCED_FACE('',(#66),#37,.F.);
#743=ADVANCED_FACE('',(#67),#708,.F.);
#744=ADVANCED_FACE('',(#68),#38,.F.);
#745=ADVANCED_FACE('',(#69,#15,#16,#17,#18),#39,.T.);
#746=ADVANCED_FACE('',(#70),#709,.T.);
#747=ADVANCED_FACE('',(#71),#710,.T.);
#748=ADVANCED_FACE('',(#72),#711,.T.);
#749=ADVANCED_FACE('',(#73),#712,.T.);
#750=ADVANCED_FACE('',(#74),#713,.T.);
#751=ADVANCED_FACE('',(#75),#714,.T.);
#752=ADVANCED_FACE('',(#76),#715,.T.);
#753=ADVANCED_FACE('',(#77),#716,.T.);
#754=ADVANCED_FACE('',(#78,#19,#20,#21,#22),#40,.F.);
#755=CLOSED_SHELL('',(#717,#718,#719,#720,#721,#722,#723,#724,#725,#726,
#727,#728,#729,#730,#731,#732,#733,#734,#735,#736,#737,#738,#739,#740,#741,
#742,#743,#744,#745,#746,#747,#748,#749,#750,#751,#752,#753,#754));
#756=DERIVED_UNIT_ELEMENT(#758,1.);
#757=DERIVED_UNIT_ELEMENT(#1297,-3.);
#758=(
MASS_UNIT()
NAMED_UNIT(*)
SI_UNIT(.KILO.,.GRAM.)
);
#759=DERIVED_UNIT((#756,#757));
#760=MEASURE_REPRESENTATION_ITEM('density measure',
POSITIVE_RATIO_MEASURE(7850.),#759);
#761=PROPERTY_DEFINITION_REPRESENTATION(#766,#763);
#762=PROPERTY_DEFINITION_REPRESENTATION(#767,#764);
#763=REPRESENTATION('material name',(#765),#1294);
#764=REPRESENTATION('density',(#760),#1294);
#765=DESCRIPTIVE_REPRESENTATION_ITEM('Steel','Steel');
#766=PROPERTY_DEFINITION('material property','material name',#1304);
#767=PROPERTY_DEFINITION('material property','density of part',#1304);
#768=AXIS2_PLACEMENT_3D('',#1073,#847,#848);
#769=AXIS2_PLACEMENT_3D('',#1074,#849,#850);
#770=AXIS2_PLACEMENT_3D('',#1076,#851,#852);
#771=AXIS2_PLACEMENT_3D('',#1079,#854,#855);
#772=AXIS2_PLACEMENT_3D('',#1080,#856,#857);
#773=AXIS2_PLACEMENT_3D('',#1082,#858,#859);
#774=AXIS2_PLACEMENT_3D('',#1085,#861,#862);
#775=AXIS2_PLACEMENT_3D('',#1086,#863,#864);
#776=AXIS2_PLACEMENT_3D('',#1088,#865,#866);
#777=AXIS2_PLACEMENT_3D('',#1091,#868,#869);
#778=AXIS2_PLACEMENT_3D('',#1092,#870,#871);
#779=AXIS2_PLACEMENT_3D('',#1094,#872,#873);
#780=AXIS2_PLACEMENT_3D('',#1097,#875,#876);
#781=AXIS2_PLACEMENT_3D('',#1098,#877,#878);
#782=AXIS2_PLACEMENT_3D('',#1107,#883,#884);
#783=AXIS2_PLACEMENT_3D('',#1109,#885,#886);
#784=AXIS2_PLACEMENT_3D('',#1112,#888,#889);
#785=AXIS2_PLACEMENT_3D('',#1113,#890,#891);
#786=AXIS2_PLACEMENT_3D('',#1119,#895,#896);
#787=AXIS2_PLACEMENT_3D('',#1128,#901,#902);
#788=AXIS2_PLACEMENT_3D('',#1137,#907,#908);
#789=AXIS2_PLACEMENT_3D('',#1138,#909,#910);
#790=AXIS2_PLACEMENT_3D('',#1139,#911,#912);
#791=AXIS2_PLACEMENT_3D('',#1140,#913,#914);
#792=AXIS2_PLACEMENT_3D('',#1143,#915,#916);
#793=AXIS2_PLACEMENT_3D('',#1147,#918,#919);
#794=AXIS2_PLACEMENT_3D('',#1149,#921,#922);
#795=AXIS2_PLACEMENT_3D('',#1155,#926,#927);
#796=AXIS2_PLACEMENT_3D('',#1161,#931,#932);
#797=AXIS2_PLACEMENT_3D('',#1170,#937,#938);
#798=AXIS2_PLACEMENT_3D('',#1172,#939,#940);
#799=AXIS2_PLACEMENT_3D('',#1175,#942,#943);
#800=AXIS2_PLACEMENT_3D('',#1176,#944,#945);
#801=AXIS2_PLACEMENT_3D('',#1182,#949,#950);
#802=AXIS2_PLACEMENT_3D('',#1191,#955,#956);
#803=AXIS2_PLACEMENT_3D('',#1193,#957,#958);
#804=AXIS2_PLACEMENT_3D('',#1196,#960,#961);
#805=AXIS2_PLACEMENT_3D('',#1197,#962,#963);
#806=AXIS2_PLACEMENT_3D('',#1203,#967,#968);
#807=AXIS2_PLACEMENT_3D('',#1212,#973,#974);
#808=AXIS2_PLACEMENT_3D('',#1221,#979,#980);
#809=AXIS2_PLACEMENT_3D('',#1222,#981,#982);
#810=AXIS2_PLACEMENT_3D('',#1223,#983,#984);
#811=AXIS2_PLACEMENT_3D('',#1224,#985,#986);
#812=AXIS2_PLACEMENT_3D('',#1233,#991,#992);
#813=AXIS2_PLACEMENT_3D('',#1242,#997,#998);
#814=AXIS2_PLACEMENT_3D('',#1243,#999,#1000);
#815=AXIS2_PLACEMENT_3D('',#1244,#1001,#1002);
#816=AXIS2_PLACEMENT_3D('',#1245,#1003,#1004);
#817=AXIS2_PLACEMENT_3D('',#1254,#1009,#1010);
#818=AXIS2_PLACEMENT_3D('',#1256,#1011,#1012);
#819=AXIS2_PLACEMENT_3D('',#1259,#1014,#1015);
#820=AXIS2_PLACEMENT_3D('',#1260,#1016,#1017);
#821=AXIS2_PLACEMENT_3D('',#1266,#1021,#1022);
#822=AXIS2_PLACEMENT_3D('',#1267,#1023,#1024);
#823=AXIS2_PLACEMENT_3D('',#1268,#1025,#1026);
#824=AXIS2_PLACEMENT_3D('',#1269,#1027,#1028);
#825=AXIS2_PLACEMENT_3D('',#1270,#1029,#1030);
#826=AXIS2_PLACEMENT_3D('',#1271,#1031,#1032);
#827=AXIS2_PLACEMENT_3D('',#1272,#1033,#1034);
#828=AXIS2_PLACEMENT_3D('',#1273,#1035,#1036);
#829=AXIS2_PLACEMENT_3D('',#1274,#1037,#1038);
#830=AXIS2_PLACEMENT_3D('',#1275,#1039,#1040);
#831=AXIS2_PLACEMENT_3D('',#1276,#1041,#1042);
#832=AXIS2_PLACEMENT_3D('',#1277,#1043,#1044);
#833=AXIS2_PLACEMENT_3D('',#1278,#1045,#1046);
#834=AXIS2_PLACEMENT_3D('',#1279,#1047,#1048);
#835=AXIS2_PLACEMENT_3D('',#1280,#1049,#1050);
#836=AXIS2_PLACEMENT_3D('',#1281,#1051,#1052);
#837=AXIS2_PLACEMENT_3D('',#1282,#1053,#1054);
#838=AXIS2_PLACEMENT_3D('',#1283,#1055,#1056);
#839=AXIS2_PLACEMENT_3D('',#1284,#1057,#1058);
#840=AXIS2_PLACEMENT_3D('',#1285,#1059,#1060);
#841=AXIS2_PLACEMENT_3D('',#1286,#1061,#1062);
#842=AXIS2_PLACEMENT_3D('',#1287,#1063,#1064);
#843=AXIS2_PLACEMENT_3D('',#1288,#1065,#1066);
#844=AXIS2_PLACEMENT_3D('',#1289,#1067,#1068);
#845=AXIS2_PLACEMENT_3D('',#1290,#1069,#1070);
#846=AXIS2_PLACEMENT_3D('',#1291,#1071,#1072);
#847=DIRECTION('axis',(0.,0.,1.));
#848=DIRECTION('refdir',(1.,0.,0.));
#849=DIRECTION('center_axis',(0.,0.,-1.));
#850=DIRECTION('ref_axis',(-1.,0.,0.));
#851=DIRECTION('center_axis',(0.,0.,-1.));
#852=DIRECTION('ref_axis',(-1.,0.,0.));
#853=DIRECTION('',(0.,0.,-1.));
#854=DIRECTION('center_axis',(0.,0.,1.));
#855=DIRECTION('ref_axis',(-1.,0.,0.));
#856=DIRECTION('center_axis',(0.,0.,-1.));
#857=DIRECTION('ref_axis',(-1.,0.,0.));
#858=DIRECTION('center_axis',(0.,0.,-1.));
#859=DIRECTION('ref_axis',(-1.,0.,0.));
#860=DIRECTION('',(0.,0.,-1.));
#861=DIRECTION('center_axis',(0.,0.,1.));
#862=DIRECTION('ref_axis',(-1.,0.,0.));
#863=DIRECTION('center_axis',(0.,0.,-1.));
#864=DIRECTION('ref_axis',(-1.,0.,0.));
#865=DIRECTION('center_axis',(0.,0.,-1.));
#866=DIRECTION('ref_axis',(-1.,0.,0.));
#867=DIRECTION('',(0.,0.,-1.));
#868=DIRECTION('center_axis',(0.,0.,1.));
#869=DIRECTION('ref_axis',(-1.,0.,0.));
#870=DIRECTION('center_axis',(0.,0.,1.));
#871=DIRECTION('ref_axis',(1.,0.,0.));
#872=DIRECTION('center_axis',(0.,0.,1.));
#873=DIRECTION('ref_axis',(1.,0.,0.));
#874=DIRECTION('',(0.,0.,1.));
#875=DIRECTION('center_axis',(0.,0.,-1.));
#876=DIRECTION('ref_axis',(1.,0.,0.));
#877=DIRECTION('center_axis',(-0.725501978235456,0.688220080770998,0.));
#878=DIRECTION('ref_axis',(-0.688220080770998,-0.725501978235456,0.));
#879=DIRECTION('',(0.,0.,1.));
#880=DIRECTION('',(-0.688220080770998,-0.725501978235456,0.));
#881=DIRECTION('',(0.,0.,1.));
#882=DIRECTION('',(0.688220080770998,0.725501978235456,0.));
#883=DIRECTION('center_axis',(0.,0.,1.));
#884=DIRECTION('ref_axis',(1.,0.,0.));
#885=DIRECTION('center_axis',(0.,0.,1.));
#886=DIRECTION('ref_axis',(1.,0.,0.));
#887=DIRECTION('',(0.,0.,1.));
#888=DIRECTION('center_axis',(0.,0.,-1.));
#889=DIRECTION('ref_axis',(1.,0.,0.));
#890=DIRECTION('center_axis',(0.82004130935839,-0.57230433420146,0.));
#891=DIRECTION('ref_axis',(0.57230433420146,0.82004130935839,0.));
#892=DIRECTION('',(0.,0.,-1.));
#893=DIRECTION('',(-0.57230433420146,-0.82004130935839,0.));
#894=DIRECTION('',(0.57230433420146,0.82004130935839,0.));
#895=DIRECTION('center_axis',(0.106273945820299,0.994336888805693,0.));
#896=DIRECTION('ref_axis',(-0.994336888805692,0.106273945820299,0.));
#897=DIRECTION('',(0.,0.,-1.));
#898=DIRECTION('',(0.994336888805692,-0.106273945820299,0.));
#899=DIRECTION('',(0.,0.,1.));
#900=DIRECTION('',(-0.994336888805692,0.106273945820299,0.));
#901=DIRECTION('center_axis',(-0.253401305850504,-0.967361244930382,0.));
#902=DIRECTION('ref_axis',(0.967361244930382,-0.253401305850504,0.));
#903=DIRECTION('',(0.,0.,1.));
#904=DIRECTION('',(0.967361244930382,-0.253401305850504,0.));
#905=DIRECTION('',(0.,0.,1.));
#906=DIRECTION('',(-0.967361244930382,0.253401305850504,0.));
#907=DIRECTION('center_axis',(0.,0.,1.));
#908=DIRECTION('ref_axis',(-0.983603836406337,0.180342709879651,0.));
#909=DIRECTION('center_axis',(0.,0.,1.));
#910=DIRECTION('ref_axis',(1.,0.,0.));
#911=DIRECTION('center_axis',(0.,0.,-1.));
#912=DIRECTION('ref_axis',(1.,0.,0.));
#913=DIRECTION('center_axis',(0.,0.,1.));
#914=DIRECTION('ref_axis',(1.,0.,0.));
#915=DIRECTION('center_axis',(0.,0.,1.));
#916=DIRECTION('ref_axis',(1.,0.,0.));
#917=DIRECTION('',(0.,0.,1.));
#918=DIRECTION('center_axis',(0.,0.,-1.));
#919=DIRECTION('ref_axis',(1.,0.,0.));
#920=DIRECTION('',(0.,0.,1.));
#921=DIRECTION('center_axis',(-0.944789624600504,-0.327677532411423,0.));
#922=DIRECTION('ref_axis',(0.327677532411423,-0.944789624600504,0.));
#923=DIRECTION('',(0.,0.,-1.));
#924=DIRECTION('',(-0.327677532411423,0.944789624600504,0.));
#925=DIRECTION('',(0.327677532411423,-0.944789624600504,0.));
#926=DIRECTION('center_axis',(0.983096892801829,0.183086043606248,0.));
#927=DIRECTION('ref_axis',(-0.183086043606248,0.983096892801829,0.));
#928=DIRECTION('',(0.,0.,1.));
#929=DIRECTION('',(-0.183086043606248,0.983096892801829,0.));
#930=DIRECTION('',(0.183086043606248,-0.983096892801829,0.));
#931=DIRECTION('center_axis',(-0.151494507740468,0.98845809932666,0.));
#932=DIRECTION('ref_axis',(-0.98845809932666,-0.151494507740468,0.));
#933=DIRECTION('',(0.,0.,1.));
#934=DIRECTION('',(-0.98845809932666,-0.151494507740468,0.));
#935=DIRECTION('',(0.,0.,1.));
#936=DIRECTION('',(0.98845809932666,0.151494507740468,0.));
#937=DIRECTION('center_axis',(0.,0.,1.));
#938=DIRECTION('ref_axis',(1.,0.,0.));
#939=DIRECTION('center_axis',(0.,0.,1.));
#940=DIRECTION('ref_axis',(1.,0.,0.));
#941=DIRECTION('',(0.,0.,1.));
#942=DIRECTION('center_axis',(0.,0.,-1.));
#943=DIRECTION('ref_axis',(1.,0.,0.));
#944=DIRECTION('center_axis',(0.296778396409157,-0.954946377251,0.));
#945=DIRECTION('ref_axis',(0.954946377251,0.296778396409157,0.));
#946=DIRECTION('',(0.,0.,-1.));
#947=DIRECTION('',(-0.954946377251,-0.296778396409157,0.));
#948=DIRECTION('',(0.954946377251,0.296778396409157,0.));
#949=DIRECTION('center_axis',(0.608396923713148,0.793632902050046,0.));
#950=DIRECTION('ref_axis',(-0.793632902050046,0.608396923713148,0.));
#951=DIRECTION('',(0.,0.,1.));
#952=DIRECTION('',(-0.793632902050046,0.608396923713148,0.));
#953=DIRECTION('',(0.,0.,1.));
#954=DIRECTION('',(0.793632902050046,-0.608396923713148,0.));
#955=DIRECTION('center_axis',(0.,0.,1.));
#956=DIRECTION('ref_axis',(1.,0.,0.));
#957=DIRECTION('center_axis',(0.,0.,1.));
#958=DIRECTION('ref_axis',(1.,0.,0.));
#959=DIRECTION('',(0.,0.,1.));
#960=DIRECTION('center_axis',(0.,0.,-1.));
#961=DIRECTION('ref_axis',(1.,0.,0.));
#962=DIRECTION('center_axis',(-0.483634039075936,-0.875270310388223,0.));
#963=DIRECTION('ref_axis',(0.875270310388223,-0.483634039075936,0.));
#964=DIRECTION('',(0.,0.,-1.));
#965=DIRECTION('',(-0.875270310388223,0.483634039075936,0.));
#966=DIRECTION('',(0.875270310388223,-0.483634039075936,0.));
#967=DIRECTION('center_axis',(-0.857145542350909,0.515074285155031,0.));
#968=DIRECTION('ref_axis',(-0.515074285155031,-0.857145542350909,0.));
#969=DIRECTION('',(0.,0.,-1.));
#970=DIRECTION('',(0.515074285155031,0.857145542350909,0.));
#971=DIRECTION('',(0.,0.,1.));
#972=DIRECTION('',(-0.515074285155031,-0.857145542350909,0.));
#973=DIRECTION('center_axis',(0.771034937109954,-0.636792843675122,0.));
#974=DIRECTION('ref_axis',(0.636792843675122,0.771034937109954,0.));
#975=DIRECTION('',(0.,0.,1.));
#976=DIRECTION('',(0.636792843675122,0.771034937109954,0.));
#977=DIRECTION('',(0.,0.,1.));
#978=DIRECTION('',(-0.636792843675122,-0.771034937109954,0.));
#979=DIRECTION('center_axis',(0.,0.,1.));
#980=DIRECTION('ref_axis',(-0.546586924082932,-0.83740237306898,0.));
#981=DIRECTION('center_axis',(0.,0.,1.));
#982=DIRECTION('ref_axis',(1.,0.,0.));
#983=DIRECTION('center_axis',(0.,0.,-1.));
#984=DIRECTION('ref_axis',(1.,0.,0.));
#985=DIRECTION('center_axis',(0.80044008070306,0.599412776977667,0.));
#986=DIRECTION('ref_axis',(-0.599412776977667,0.80044008070306,0.));
#987=DIRECTION('',(0.,0.,-1.));
#988=DIRECTION('',(0.599412776977667,-0.80044008070306,0.));
#989=DIRECTION('',(0.,0.,1.));
#990=DIRECTION('',(-0.599412776977667,0.80044008070306,0.));
#991=DIRECTION('center_axis',(-0.880894490287886,-0.473312684153346,0.));
#992=DIRECTION('ref_axis',(0.473312684153346,-0.880894490287886,0.));
#993=DIRECTION('',(0.,0.,1.));
#994=DIRECTION('',(0.473312684153346,-0.880894490287886,0.));
#995=DIRECTION('',(0.,0.,1.));
#996=DIRECTION('',(-0.473312684153346,0.880894490287886,0.));
#997=DIRECTION('center_axis',(0.,0.,1.));
#998=DIRECTION('ref_axis',(-0.537869135334141,0.843028346649686,0.));
#999=DIRECTION('center_axis',(0.,0.,1.));
#1000=DIRECTION('ref_axis',(1.,0.,0.));
#1001=DIRECTION('center_axis',(0.,0.,-1.));
#1002=DIRECTION('ref_axis',(1.,0.,0.));
#1003=DIRECTION('center_axis',(-0.556008303200656,0.831176736183062,0.));
#1004=DIRECTION('ref_axis',(-0.831176736183062,-0.556008303200656,0.));
#1005=DIRECTION('',(0.,0.,1.));
#1006=DIRECTION('',(-0.831176736183062,-0.556008303200656,0.));
#1007=DIRECTION('',(0.,0.,1.));
#1008=DIRECTION('',(0.831176736183062,0.556008303200656,0.));
#1009=DIRECTION('center_axis',(0.,0.,1.));
#1010=DIRECTION('ref_axis',(1.,0.,0.));
#1011=DIRECTION('center_axis',(0.,0.,1.));
#1012=DIRECTION('ref_axis',(1.,0.,0.));
#1013=DIRECTION('',(0.,0.,1.));
#1014=DIRECTION('center_axis',(0.,0.,-1.));
#1015=DIRECTION('ref_axis',(1.,0.,0.));
#1016=DIRECTION('center_axis',(0.673767325715462,-0.738943564014354,0.));
#1017=DIRECTION('ref_axis',(0.738943564014354,0.673767325715462,0.));
#1018=DIRECTION('',(0.,0.,-1.));
#1019=DIRECTION('',(-0.738943564014354,-0.673767325715462,0.));
#1020=DIRECTION('',(0.738943564014354,0.673767325715462,0.));
#1021=DIRECTION('center_axis',(0.,0.,1.));
#1022=DIRECTION('ref_axis',(1.,0.,0.));
#1023=DIRECTION('center_axis',(0.,0.,1.));
#1024=DIRECTION('ref_axis',(1.,0.,0.));
#1025=DIRECTION('center_axis',(0.,0.,1.));
#1026=DIRECTION('ref_axis',(1.,0.,0.));
#1027=DIRECTION('center_axis',(0.,0.,1.));
#1028=DIRECTION('ref_axis',(1.,0.,0.));
#1029=DIRECTION('center_axis',(0.,0.,1.));
#1030=DIRECTION('ref_axis',(1.,0.,0.));
#1031=DIRECTION('center_axis',(0.,0.,1.));
#1032=DIRECTION('ref_axis',(1.,0.,0.));
#1033=DIRECTION('center_axis',(0.,0.,1.));
#1034=DIRECTION('ref_axis',(1.,0.,0.));
#1035=DIRECTION('center_axis',(0.,0.,1.));
#1036=DIRECTION('ref_axis',(1.,0.,0.));
#1037=DIRECTION('center_axis',(0.,0.,1.));
#1038=DIRECTION('ref_axis',(1.,0.,0.));
#1039=DIRECTION('center_axis',(0.,0.,1.));
#1040=DIRECTION('ref_axis',(1.,0.,0.));
#1041=DIRECTION('center_axis',(0.,0.,1.));
#1042=DIRECTION('ref_axis',(1.,0.,0.));
#1043=DIRECTION('center_axis',(0.,0.,1.));
#1044=DIRECTION('ref_axis',(1.,0.,0.));
#1045=DIRECTION('center_axis',(0.,0.,1.));
#1046=DIRECTION('ref_axis',(1.,0.,0.));
#1047=DIRECTION('center_axis',(0.,0.,1.));
#1048=DIRECTION('ref_axis',(1.,0.,0.));
#1049=DIRECTION('center_axis',(0.,0.,1.));
#1050=DIRECTION('ref_axis',(1.,0.,0.));
#1051=DIRECTION('center_axis',(0.,0.,1.));
#1052=DIRECTION('ref_axis',(1.,0.,0.));
#1053=DIRECTION('center_axis',(0.,0.,1.));
#1054=DIRECTION('ref_axis',(1.,0.,0.));
#1055=DIRECTION('center_axis',(0.,0.,1.));
#1056=DIRECTION('ref_axis',(1.,0.,0.));
#1057=DIRECTION('center_axis',(0.,0.,1.));
#1058=DIRECTION('ref_axis',(1.,0.,0.));
#1059=DIRECTION('center_axis',(0.,0.,1.));
#1060=DIRECTION('ref_axis',(1.,0.,0.));
#1061=DIRECTION('center_axis',(0.,0.,1.));
#1062=DIRECTION('ref_axis',(1.,0.,0.));
#1063=DIRECTION('center_axis',(0.,0.,1.));
#1064=DIRECTION('ref_axis',(1.,0.,0.));
#1065=DIRECTION('center_axis',(0.,0.,1.));
#1066=DIRECTION('ref_axis',(1.,0.,0.));
#1067=DIRECTION('center_axis',(0.,0.,1.));
#1068=DIRECTION('ref_axis',(1.,0.,0.));
#1069=DIRECTION('center_axis',(0.,0.,1.));
#1070=DIRECTION('ref_axis',(1.,0.,0.));
#1071=DIRECTION('center_axis',(0.,0.,1.));
#1072=DIRECTION('ref_axis',(1.,0.,0.));
#1073=CARTESIAN_POINT('',(0.,0.,0.));
#1074=CARTESIAN_POINT('Origin',(-0.349072633888823,-15.9537409499173,3.));
#1075=CARTESIAN_POINT('',(1.15092736611118,-15.9537409499173,3.));
#1076=CARTESIAN_POINT('Origin',(-0.349072633888823,-15.9537409499173,3.));
#1077=CARTESIAN_POINT('',(1.15092736611118,-15.9537409499173,0.));
#1078=CARTESIAN_POINT('',(1.15092736611118,-15.9537409499173,3.));
#1079=CARTESIAN_POINT('Origin',(-0.349072633888823,-15.9537409499173,0.));
#1080=CARTESIAN_POINT('Origin',(17.0000002533197,2.5000000372529,3.));
#1081=CARTESIAN_POINT('',(18.5000002533197,2.5000000372529,3.));
#1082=CARTESIAN_POINT('Origin',(17.0000002533197,2.5000000372529,3.));
#1083=CARTESIAN_POINT('',(18.5000002533197,2.5000000372529,0.));
#1084=CARTESIAN_POINT('',(18.5000002533197,2.5000000372529,3.));
#1085=CARTESIAN_POINT('Origin',(17.0000002533197,2.5000000372529,0.));
#1086=CARTESIAN_POINT('Origin',(-14.4882172088877,9.22716244926488,3.));
#1087=CARTESIAN_POINT('',(-12.9882172088877,9.22716244926488,3.));
#1088=CARTESIAN_POINT('Origin',(-14.4882172088877,9.22716244926488,3.));
#1089=CARTESIAN_POINT('',(-12.9882172088877,9.22716244926488,0.));
#1090=CARTESIAN_POINT('',(-12.9882172088877,9.22716244926488,3.));
#1091=CARTESIAN_POINT('Origin',(-14.4882172088877,9.22716244926488,0.));
#1092=CARTESIAN_POINT('Origin',(0.,0.,0.));
#1093=CARTESIAN_POINT('',(-6.,-7.34788079488412E-16,0.));
#1094=CARTESIAN_POINT('Origin',(0.,0.,0.));
#1095=CARTESIAN_POINT('',(-6.,7.34788079488412E-16,3.));
#1096=CARTESIAN_POINT('',(-6.,-7.34788079488412E-16,0.));
#1097=CARTESIAN_POINT('Origin',(0.,0.,3.));
#1098=CARTESIAN_POINT('Origin',(-5.45421255775242,-7.91152742330381,0.));
#1099=CARTESIAN_POINT('',(-12.6468383793769,-15.4937884007082,0.));
#1100=CARTESIAN_POINT('',(-12.6468383793769,-15.4937884007082,3.));
#1101=CARTESIAN_POINT('',(-12.6468383793769,-15.4937884007082,0.));
#1102=CARTESIAN_POINT('',(-5.45421255775242,-7.91152742330381,0.));
#1103=CARTESIAN_POINT('',(-2.18739445952991,-4.46774096746447,0.));
#1104=CARTESIAN_POINT('',(-5.45421255775242,-7.91152742330381,3.));
#1105=CARTESIAN_POINT('',(-5.45421255775242,-7.91152742330381,0.));
#1106=CARTESIAN_POINT('',(-2.18739445952991,-4.46774096746447,3.));
#1107=CARTESIAN_POINT('Origin',(-3.8268343236509,-9.23879532511287,0.));
#1108=CARTESIAN_POINT('',(-2.19945608954936,-10.5660632269219,0.));
#1109=CARTESIAN_POINT('Origin',(-3.8268343236509,-9.23879532511287,0.));
#1110=CARTESIAN_POINT('',(-2.19945608954936,-10.5660632269219,3.));
#1111=CARTESIAN_POINT('',(-2.19945608954936,-10.5660632269219,0.));
#1112=CARTESIAN_POINT('Origin',(-3.8268343236509,-9.23879532511287,3.));
#1113=CARTESIAN_POINT('Origin',(-9.08639628527184,-20.4341965225631,0.));
#1114=CARTESIAN_POINT('',(-7.70576651264328,-18.4559248603971,3.));
#1115=CARTESIAN_POINT('',(-7.70576651264328,-18.4559248603971,0.));
#1116=CARTESIAN_POINT('',(-7.70576651264328,-18.4559248603971,0.));
#1117=CARTESIAN_POINT('',(-2.80333333666641,-11.4313446145049,3.));
#1118=CARTESIAN_POINT('',(-2.80333333666641,-11.4313446145049,0.));
#1119=CARTESIAN_POINT('Origin',(21.5830694916279,-3.0401353329877,0.));
#1120=CARTESIAN_POINT('',(19.7960202776161,-2.84913691636835,3.));
#1121=CARTESIAN_POINT('',(19.7960202776161,-2.84913691636835,0.));
#1122=CARTESIAN_POINT('',(19.7960202776161,-2.84913691636835,0.));
#1123=CARTESIAN_POINT('',(9.61751501586013,-1.76126626719759,3.));
#1124=CARTESIAN_POINT('',(10.7527872252746,-1.8826032694077,3.));
#1125=CARTESIAN_POINT('',(9.61751501586013,-1.76126626719759,0.));
#1126=CARTESIAN_POINT('',(9.61751501586013,-1.76126626719759,0.));
#1127=CARTESIAN_POINT('',(10.7527872252746,-1.8826032694077,0.));
#1128=CARTESIAN_POINT('Origin',(8.8600756343656,-5.89240238010421,0.));
#1129=CARTESIAN_POINT('',(18.1808823732728,-8.33399760794409,0.));
#1130=CARTESIAN_POINT('',(18.1808823732728,-8.33399760794409,3.));
#1131=CARTESIAN_POINT('',(18.1808823732728,-8.33399760794409,0.));
#1132=CARTESIAN_POINT('',(8.8600756343656,-5.89240238010421,0.));
#1133=CARTESIAN_POINT('',(3.99229631473518,-4.61728241571573,0.));
#1134=CARTESIAN_POINT('',(8.8600756343656,-5.89240238010421,3.));
#1135=CARTESIAN_POINT('',(8.8600756343656,-5.89240238010421,0.));
#1136=CARTESIAN_POINT('',(3.99229631473518,-4.61728241571573,3.));
#1137=CARTESIAN_POINT('Origin',(9.23879532511287,-3.8268343236509,0.));
#1138=CARTESIAN_POINT('Origin',(9.23879532511287,-3.8268343236509,0.));
#1139=CARTESIAN_POINT('Origin',(9.23879532511287,-3.8268343236509,3.));
#1140=CARTESIAN_POINT('Origin',(3.8268343236509,9.23879532511287,0.));
#1141=CARTESIAN_POINT('',(1.79686817425707,8.70098733677948,0.));
#1142=CARTESIAN_POINT('',(5.85680047304472,9.77660331344626,0.));
#1143=CARTESIAN_POINT('Origin',(3.8268343236509,9.23879532511287,0.));
#1144=CARTESIAN_POINT('',(1.79686817425707,8.70098733677948,3.));
#1145=CARTESIAN_POINT('',(1.79686817425707,8.70098733677948,0.));
#1146=CARTESIAN_POINT('',(5.85680047304472,9.77660331344626,3.));
#1147=CARTESIAN_POINT('Origin',(3.8268343236509,9.23879532511287,3.));
#1148=CARTESIAN_POINT('',(5.85680047304472,9.77660331344626,0.));
#1149=CARTESIAN_POINT('Origin',(-2.1463058231025,20.070304766887,0.));
#1150=CARTESIAN_POINT('',(-2.08415672675876,19.8911108472681,3.));
#1151=CARTESIAN_POINT('',(-2.08415672675876,19.8911108472681,0.));
#1152=CARTESIAN_POINT('',(-2.08415672675876,19.8911108472681,0.));
#1153=CARTESIAN_POINT('',(1.07566738376413,10.7804189630403,3.));
#1154=CARTESIAN_POINT('',(1.07566738376413,10.7804189630403,0.));
#1155=CARTESIAN_POINT('Origin',(5.85680047304472,9.77660331344626,0.));
#1156=CARTESIAN_POINT('',(4.02922570339654,19.5899295616674,0.));
#1157=CARTESIAN_POINT('',(4.02922570339654,19.5899295616674,3.));
#1158=CARTESIAN_POINT('',(4.02922570339654,19.5899295616674,0.));
#1159=CARTESIAN_POINT('',(6.63849090539052,5.57924659506753,0.));
#1160=CARTESIAN_POINT('',(6.63849090539052,5.57924659506753,3.));
#1161=CARTESIAN_POINT('Origin',(-9.71128891729539,5.87298920668065,0.));
#1162=CARTESIAN_POINT('',(-19.5166990847639,4.37017812391859,0.));
#1163=CARTESIAN_POINT('',(-19.5166990847639,4.37017812391859,3.));
#1164=CARTESIAN_POINT('',(-19.5166990847639,4.37017812391859,0.));
#1165=CARTESIAN_POINT('',(-9.71128891729539,5.87298920668065,0.));
#1166=CARTESIAN_POINT('',(-5.40681258589068,6.53270813998786,0.));
#1167=CARTESIAN_POINT('',(-9.71128891729539,5.87298920668065,3.));
#1168=CARTESIAN_POINT('',(-9.71128891729539,5.87298920668065,0.));
#1169=CARTESIAN_POINT('',(-5.40681258589068,6.53270813998786,3.));
#1170=CARTESIAN_POINT('Origin',(-9.23879532511287,3.8268343236509,0.));
#1171=CARTESIAN_POINT('',(-8.61556069265364,1.8214469314238,0.));
#1172=CARTESIAN_POINT('Origin',(-9.23879532511287,3.8268343236509,0.));
#1173=CARTESIAN_POINT('',(-8.61556069265364,1.8214469314238,3.));
#1174=CARTESIAN_POINT('',(-8.61556069265364,1.8214469314238,0.));
#1175=CARTESIAN_POINT('Origin',(-9.23879532511287,3.8268343236509,3.));
#1176=CARTESIAN_POINT('Origin',(-20.2561180964506,-1.79620746457751,0.));
#1177=CARTESIAN_POINT('',(-19.9281071694478,-1.69426817328369,3.));
#1178=CARTESIAN_POINT('',(-19.9281071694478,-1.69426817328369,0.));
#1179=CARTESIAN_POINT('',(-19.9281071694478,-1.69426817328369,0.));
#1180=CARTESIAN_POINT('',(-10.7655830314715,1.15326262583475,3.));
#1181=CARTESIAN_POINT('',(-10.7655830314715,1.15326262583475,0.));
#1182=CARTESIAN_POINT('Origin',(-2.67742614317546,10.9963108541072,0.));
#1183=CARTESIAN_POINT('',(-10.5209268093565,17.0091181156509,0.));
#1184=CARTESIAN_POINT('',(-10.5209268093565,17.0091181156509,3.));
#1185=CARTESIAN_POINT('',(-10.5209268093565,17.0091181156509,0.));
#1186=CARTESIAN_POINT('',(-2.67742614317546,10.9963108541072,0.));
#1187=CARTESIAN_POINT('',(0.820516894643133,8.3147967963666,0.));
#1188=CARTESIAN_POINT('',(-2.67742614317546,10.9963108541072,3.));
#1189=CARTESIAN_POINT('',(-2.67742614317546,10.9963108541072,0.));
#1190=CARTESIAN_POINT('',(0.820516894643133,8.3147967963666,3.));
#1191=CARTESIAN_POINT('Origin',(-3.8268343236509,9.23879532511287,0.));
#1192=CARTESIAN_POINT('',(-4.84246580571036,7.4007276732976,0.));
#1193=CARTESIAN_POINT('Origin',(-3.8268343236509,9.23879532511287,0.));
#1194=CARTESIAN_POINT('',(-4.84246580571036,7.4007276732976,3.));
#1195=CARTESIAN_POINT('',(-4.84246580571036,7.4007276732976,0.));
#1196=CARTESIAN_POINT('Origin',(-3.8268343236509,9.23879532511287,3.));
#1197=CARTESIAN_POINT('Origin',(-15.5117918900118,13.296105600695,0.));
#1198=CARTESIAN_POINT('',(-15.1269156874755,13.0834407471433,3.));
#1199=CARTESIAN_POINT('',(-15.1269156874755,13.0834407471433,0.));
#1200=CARTESIAN_POINT('',(-15.1269156874755,13.0834407471433,0.));
#1201=CARTESIAN_POINT('',(-6.75582395877258,8.45796121678877,3.));
#1202=CARTESIAN_POINT('',(-6.75582395877258,8.45796121678877,0.));
#1203=CARTESIAN_POINT('Origin',(13.7174163466873,15.3568800193588,0.));
#1204=CARTESIAN_POINT('',(13.4072303363249,14.8406932017588,3.));
#1205=CARTESIAN_POINT('',(13.4072303363249,14.8406932017588,0.));
#1206=CARTESIAN_POINT('',(13.4072303363249,14.8406932017588,0.));
#1207=CARTESIAN_POINT('',(7.43878968617596,4.90849032247646,3.));
#1208=CARTESIAN_POINT('',(8.5078083149418,6.68746585813327,3.));
#1209=CARTESIAN_POINT('',(7.43878968617596,4.90849032247646,0.));
#1210=CARTESIAN_POINT('',(7.43878968617596,4.90849032247646,0.));
#1211=CARTESIAN_POINT('',(8.5078083149418,6.68746585813327,0.));
#1212=CARTESIAN_POINT('Origin',(10.9534478682235,2.61441250909773,0.));
#1213=CARTESIAN_POINT('',(17.2096904681992,10.1895315882906,0.));
#1214=CARTESIAN_POINT('',(17.2096904681992,10.1895315882906,3.));
#1215=CARTESIAN_POINT('',(17.2096904681992,10.1895315882906,0.));
#1216=CARTESIAN_POINT('',(10.9534478682235,2.61441250909773,0.));
#1217=CARTESIAN_POINT('',(8.0907836558285,-0.851729020119805,0.));
#1218=CARTESIAN_POINT('',(10.9534478682235,2.61441250909773,3.));
#1219=CARTESIAN_POINT('',(10.9534478682235,2.61441250909773,0.));
#1220=CARTESIAN_POINT('',(8.0907836558285,-0.851729020119805,3.));
#1221=CARTESIAN_POINT('Origin',(9.23879532511287,3.8268343236509,0.));
#1222=CARTESIAN_POINT('Origin',(9.23879532511287,3.8268343236509,0.));
#1223=CARTESIAN_POINT('Origin',(9.23879532511287,3.8268343236509,3.));
#1224=CARTESIAN_POINT('Origin',(12.8103489876096,-17.7415280789067,0.));
#1225=CARTESIAN_POINT('',(11.6814518757662,-16.2340285226483,3.));
#1226=CARTESIAN_POINT('',(11.6814518757662,-16.2340285226483,0.));
#1227=CARTESIAN_POINT('',(11.6814518757662,-16.2340285226483,0.));
#1228=CARTESIAN_POINT('',(5.59719385161524,-8.10927014091117,3.));
#1229=CARTESIAN_POINT('',(6.25285801599259,-8.98482684708373,3.));
#1230=CARTESIAN_POINT('',(5.59719385161524,-8.10927014091117,0.));
#1231=CARTESIAN_POINT('',(5.59719385161524,-8.10927014091117,0.));
#1232=CARTESIAN_POINT('',(6.25285801599259,-8.98482684708373,0.));
#1233=CARTESIAN_POINT('Origin',(2.05647479568655,-10.3683205093146,0.));
#1234=CARTESIAN_POINT('',(6.62497261973901,-18.8708700856031,0.));
#1235=CARTESIAN_POINT('',(6.62497261973901,-18.8708700856031,3.));
#1236=CARTESIAN_POINT('',(6.62497261973901,-18.8708700856031,0.));
#1237=CARTESIAN_POINT('',(2.05647479568655,-10.3683205093146,0.));
#1238=CARTESIAN_POINT('',(-0.335352166609477,-5.91682942667549,0.));
#1239=CARTESIAN_POINT('',(2.05647479568655,-10.3683205093146,3.));
#1240=CARTESIAN_POINT('',(2.05647479568655,-10.3683205093146,0.));
#1241=CARTESIAN_POINT('',(-0.335352166609477,-5.91682942667549,3.));
#1242=CARTESIAN_POINT('Origin',(3.8268343236509,-9.23879532511287,0.));
#1243=CARTESIAN_POINT('Origin',(3.8268343236509,-9.23879532511287,0.));
#1244=CARTESIAN_POINT('Origin',(3.8268343236509,-9.23879532511287,3.));
#1245=CARTESIAN_POINT('Origin',(-10.5336863238906,-2.17357774910343,0.));
#1246=CARTESIAN_POINT('',(-18.5310392337816,-7.52333602307172,0.));
#1247=CARTESIAN_POINT('',(-18.5310392337816,-7.52333602307172,3.));
#1248=CARTESIAN_POINT('',(-18.5310392337816,-7.52333602307172,0.));
#1249=CARTESIAN_POINT('',(-10.5336863238906,-2.17357774910343,0.));
#1250=CARTESIAN_POINT('',(-6.39281274112974,0.596422894913879,0.));
#1251=CARTESIAN_POINT('',(-10.5336863238906,-2.17357774910343,3.));
#1252=CARTESIAN_POINT('',(-10.5336863238906,-2.17357774910343,0.));
#1253=CARTESIAN_POINT('',(-6.39281274112974,0.596422894913879,3.));
#1254=CARTESIAN_POINT('Origin',(-9.23879532511287,-3.8268343236509,0.));
#1255=CARTESIAN_POINT('',(-7.94390432633515,-5.48009089819836,0.));
#1256=CARTESIAN_POINT('Origin',(-9.23879532511287,-3.8268343236509,0.));
#1257=CARTESIAN_POINT('',(-7.94390432633515,-5.48009089819836,3.));
#1258=CARTESIAN_POINT('',(-7.94390432633515,-5.48009089819836,0.));
#1259=CARTESIAN_POINT('Origin',(-9.23879532511287,-3.8268343236509,3.));
#1260=CARTESIAN_POINT('Origin',(-16.8361314671302,-13.58800656602,0.));
#1261=CARTESIAN_POINT('',(-15.6253078527294,-12.4839799145718,3.));
#1262=CARTESIAN_POINT('',(-15.6253078527294,-12.4839799145718,0.));
#1263=CARTESIAN_POINT('',(-15.6253078527294,-12.4839799145718,0.));
#1264=CARTESIAN_POINT('',(-8.85697975936695,-6.312631328415,3.));
#1265=CARTESIAN_POINT('',(-8.85697975936695,-6.312631328415,0.));
#1266=CARTESIAN_POINT('Origin',(0.,0.,3.));
#1267=CARTESIAN_POINT('Origin',(0.,0.,3.));
#1268=CARTESIAN_POINT('Origin',(0.,0.,3.));
#1269=CARTESIAN_POINT('Origin',(0.,0.,3.));
#1270=CARTESIAN_POINT('Origin',(0.,0.,3.));
#1271=CARTESIAN_POINT('Origin',(0.,0.,3.));
#1272=CARTESIAN_POINT('Origin',(0.,0.,3.));
#1273=CARTESIAN_POINT('Origin',(0.,0.,3.));
#1274=CARTESIAN_POINT('Origin',(0.,0.,3.));
#1275=CARTESIAN_POINT('Origin',(0.,0.,0.));
#1276=CARTESIAN_POINT('Origin',(0.,0.,0.));
#1277=CARTESIAN_POINT('Origin',(0.,0.,0.));
#1278=CARTESIAN_POINT('Origin',(0.,0.,0.));
#1279=CARTESIAN_POINT('Origin',(0.,0.,0.));
#1280=CARTESIAN_POINT('Origin',(0.,0.,0.));
#1281=CARTESIAN_POINT('Origin',(0.,0.,0.));
#1282=CARTESIAN_POINT('Origin',(0.,0.,0.));
#1283=CARTESIAN_POINT('Origin',(0.,0.,0.));
#1284=CARTESIAN_POINT('Origin',(0.,0.,0.));
#1285=CARTESIAN_POINT('Origin',(0.,0.,0.));
#1286=CARTESIAN_POINT('Origin',(0.,0.,0.));
#1287=CARTESIAN_POINT('Origin',(0.,0.,0.));
#1288=CARTESIAN_POINT('Origin',(0.,0.,0.));
#1289=CARTESIAN_POINT('Origin',(0.,0.,0.));
#1290=CARTESIAN_POINT('Origin',(0.,0.,0.));
#1291=CARTESIAN_POINT('Origin',(0.,0.,0.));
#1292=UNCERTAINTY_MEASURE_WITH_UNIT(LENGTH_MEASURE(0.01),#1296,
'DISTANCE_ACCURACY_VALUE',
'Maximum model space distance between geometric entities at asserted c
onnectivities');
#1293=UNCERTAINTY_MEASURE_WITH_UNIT(LENGTH_MEASURE(0.01),#1296,
'DISTANCE_ACCURACY_VALUE',
'Maximum model space distance between geometric entities at asserted c
onnectivities');
#1294=(
GEOMETRIC_REPRESENTATION_CONTEXT(3)
GLOBAL_UNCERTAINTY_ASSIGNED_CONTEXT((#1292))
GLOBAL_UNIT_ASSIGNED_CONTEXT((#1296,#1298,#1299))
REPRESENTATION_CONTEXT('','3D')
);
#1295=(
GEOMETRIC_REPRESENTATION_CONTEXT(3)
GLOBAL_UNCERTAINTY_ASSIGNED_CONTEXT((#1293))
GLOBAL_UNIT_ASSIGNED_CONTEXT((#1296,#1298,#1299))
REPRESENTATION_CONTEXT('','3D')
);
#1296=(
LENGTH_UNIT()
NAMED_UNIT(*)
SI_UNIT(.MILLI.,.METRE.)
);
#1297=(
LENGTH_UNIT()
NAMED_UNIT(*)
SI_UNIT($,.METRE.)
);
#1298=(
NAMED_UNIT(*)
PLANE_ANGLE_UNIT()
SI_UNIT($,.RADIAN.)
);
#1299=(
NAMED_UNIT(*)
SI_UNIT($,.STERADIAN.)
SOLID_ANGLE_UNIT()
);
#1300=SHAPE_DEFINITION_REPRESENTATION(#1301,#1302);
#1301=PRODUCT_DEFINITION_SHAPE('',$,#1304);
#1302=SHAPE_REPRESENTATION('',(#768),#1294);
#1303=PRODUCT_DEFINITION_CONTEXT('part definition',#1308,'design');
#1304=PRODUCT_DEFINITION('MidBearingMount-Bottom',
'MidBearingMount-Bottom v21',#1305,#1303);
#1305=PRODUCT_DEFINITION_FORMATION('',$,#1310);
#1306=PRODUCT_RELATED_PRODUCT_CATEGORY('MidBearingMount-Bottom v21',
'MidBearingMount-Bottom v21',(#1310));
#1307=APPLICATION_PROTOCOL_DEFINITION('international standard',
'automotive_design',2009,#1308);
#1308=APPLICATION_CONTEXT(
'Core Data for Automotive Mechanical Design Process');
#1309=PRODUCT_CONTEXT('part definition',#1308,'mechanical');
#1310=PRODUCT('MidBearingMount-Bottom','MidBearingMount-Bottom v21',$,(#1309));
#1311=PRESENTATION_STYLE_ASSIGNMENT((#1313));
#1312=PRESENTATION_STYLE_ASSIGNMENT((#1314));
#1313=SURFACE_STYLE_USAGE(.BOTH.,#1315);
#1314=SURFACE_STYLE_USAGE(.BOTH.,#1316);
#1315=SURFACE_SIDE_STYLE('',(#1317));
#1316=SURFACE_SIDE_STYLE('',(#1318));
#1317=SURFACE_STYLE_FILL_AREA(#1319);
#1318=SURFACE_STYLE_FILL_AREA(#1320);
#1319=FILL_AREA_STYLE('Steel - Satin',(#1321));
#1320=FILL_AREA_STYLE('Acrylic (Clear)',(#1322));
#1321=FILL_AREA_STYLE_COLOUR('Steel - Satin',#1323);
#1322=FILL_AREA_STYLE_COLOUR('Acrylic (Clear)',#1324);
#1323=COLOUR_RGB('Steel - Satin',0.627450980392157,0.627450980392157,0.627450980392157);
#1324=COLOUR_RGB('Acrylic (Clear)',0.964705882352941,0.964705882352941,
0.952941176470588);
ENDSEC;
END-ISO-10303-21;
