ISO-10303-21;
HEADER;
/* Generated by software containing ST-Developer
 * from STEP Tools, Inc. (www.steptools.com) 
 */

FILE_DESCRIPTION(
/* description */ (''),
/* implementation_level */ '2;1');

FILE_NAME(
/* name */ 'ServoPlate_v4.step',
/* time_stamp */ '2026-08-21T09:19:42-04:00',
/* author */ (''),
/* organization */ (''),
/* preprocessor_version */ 'ST-DEVELOPER v20.1',
/* originating_system */ 'Autodesk Translation Framework v15.8.0.0',
/* authorisation */ '');

FILE_SCHEMA (('AUTOMOTIVE_DESIGN { 1 0 10303 214 3 1 1 }'));
ENDSEC;

DATA;
#10=MECHANICAL_DESIGN_GEOMETRIC_PRESENTATION_REPRESENTATION('',(#13),#872);
#11=SHAPE_REPRESENTATION_RELATIONSHIP('SRR','None',#879,#12);
#12=ADVANCED_BREP_SHAPE_REPRESENTATION('',(#14),#871);
#13=STYLED_ITEM('',(#889),#14);
#14=MANIFOLD_SOLID_BREP('Body2',#508);
#15=FACE_BOUND('',#69,.T.);
#16=FACE_BOUND('',#70,.T.);
#17=FACE_BOUND('',#71,.T.);
#18=FACE_BOUND('',#72,.T.);
#19=FACE_BOUND('',#73,.T.);
#20=FACE_BOUND('',#74,.T.);
#21=FACE_BOUND('',#75,.T.);
#22=FACE_BOUND('',#76,.T.);
#23=FACE_BOUND('',#99,.T.);
#24=FACE_BOUND('',#100,.T.);
#25=FACE_BOUND('',#101,.T.);
#26=FACE_BOUND('',#102,.T.);
#27=FACE_BOUND('',#103,.T.);
#28=FACE_BOUND('',#104,.T.);
#29=FACE_BOUND('',#105,.T.);
#30=FACE_BOUND('',#106,.T.);
#31=PLANE('',#525);
#32=PLANE('',#526);
#33=PLANE('',#543);
#34=PLANE('',#546);
#35=PLANE('',#551);
#36=PLANE('',#554);
#37=PLANE('',#557);
#38=PLANE('',#560);
#39=PLANE('',#575);
#40=PLANE('',#576);
#41=FACE_OUTER_BOUND('',#66,.T.);
#42=FACE_OUTER_BOUND('',#67,.T.);
#43=FACE_OUTER_BOUND('',#68,.T.);
#44=FACE_OUTER_BOUND('',#77,.T.);
#45=FACE_OUTER_BOUND('',#78,.T.);
#46=FACE_OUTER_BOUND('',#79,.T.);
#47=FACE_OUTER_BOUND('',#80,.T.);
#48=FACE_OUTER_BOUND('',#81,.T.);
#49=FACE_OUTER_BOUND('',#82,.T.);
#50=FACE_OUTER_BOUND('',#83,.T.);
#51=FACE_OUTER_BOUND('',#84,.T.);
#52=FACE_OUTER_BOUND('',#85,.T.);
#53=FACE_OUTER_BOUND('',#86,.T.);
#54=FACE_OUTER_BOUND('',#87,.T.);
#55=FACE_OUTER_BOUND('',#88,.T.);
#56=FACE_OUTER_BOUND('',#89,.T.);
#57=FACE_OUTER_BOUND('',#90,.T.);
#58=FACE_OUTER_BOUND('',#91,.T.);
#59=FACE_OUTER_BOUND('',#92,.T.);
#60=FACE_OUTER_BOUND('',#93,.T.);
#61=FACE_OUTER_BOUND('',#94,.T.);
#62=FACE_OUTER_BOUND('',#95,.T.);
#63=FACE_OUTER_BOUND('',#96,.T.);
#64=FACE_OUTER_BOUND('',#97,.T.);
#65=FACE_OUTER_BOUND('',#98,.T.);
#66=EDGE_LOOP('',(#330,#331,#332,#333));
#67=EDGE_LOOP('',(#334,#335,#336,#337));
#68=EDGE_LOOP('',(#338,#339,#340,#341,#342,#343,#344,#345));
#69=EDGE_LOOP('',(#346));
#70=EDGE_LOOP('',(#347));
#71=EDGE_LOOP('',(#348));
#72=EDGE_LOOP('',(#349));
#73=EDGE_LOOP('',(#350));
#74=EDGE_LOOP('',(#351));
#75=EDGE_LOOP('',(#352,#353,#354,#355,#356,#357,#358,#359));
#76=EDGE_LOOP('',(#360));
#77=EDGE_LOOP('',(#361,#362,#363,#364));
#78=EDGE_LOOP('',(#365,#366,#367,#368));
#79=EDGE_LOOP('',(#369,#370,#371,#372));
#80=EDGE_LOOP('',(#373,#374,#375,#376));
#81=EDGE_LOOP('',(#377,#378,#379,#380));
#82=EDGE_LOOP('',(#381,#382,#383,#384));
#83=EDGE_LOOP('',(#385,#386,#387,#388));
#84=EDGE_LOOP('',(#389,#390,#391,#392));
#85=EDGE_LOOP('',(#393,#394,#395,#396));
#86=EDGE_LOOP('',(#397,#398,#399,#400));
#87=EDGE_LOOP('',(#401,#402,#403,#404));
#88=EDGE_LOOP('',(#405,#406,#407,#408));
#89=EDGE_LOOP('',(#409,#410,#411,#412));
#90=EDGE_LOOP('',(#413,#414,#415,#416));
#91=EDGE_LOOP('',(#417,#418,#419,#420));
#92=EDGE_LOOP('',(#421,#422,#423,#424));
#93=EDGE_LOOP('',(#425,#426,#427,#428));
#94=EDGE_LOOP('',(#429,#430,#431,#432));
#95=EDGE_LOOP('',(#433,#434,#435,#436));
#96=EDGE_LOOP('',(#437,#438,#439,#440));
#97=EDGE_LOOP('',(#441,#442,#443,#444));
#98=EDGE_LOOP('',(#445,#446,#447,#448,#449,#450,#451,#452));
#99=EDGE_LOOP('',(#453));
#100=EDGE_LOOP('',(#454));
#101=EDGE_LOOP('',(#455));
#102=EDGE_LOOP('',(#456));
#103=EDGE_LOOP('',(#457));
#104=EDGE_LOOP('',(#458));
#105=EDGE_LOOP('',(#459,#460,#461,#462,#463,#464,#465,#466));
#106=EDGE_LOOP('',(#467));
#107=LINE('',#734,#146);
#108=LINE('',#737,#147);
#109=LINE('',#740,#148);
#110=LINE('',#742,#149);
#111=LINE('',#743,#150);
#112=LINE('',#746,#151);
#113=LINE('',#750,#152);
#114=LINE('',#754,#153);
#115=LINE('',#772,#154);
#116=LINE('',#776,#155);
#117=LINE('',#780,#156);
#118=LINE('',#783,#157);
#119=LINE('',#789,#158);
#120=LINE('',#792,#159);
#121=LINE('',#793,#160);
#122=LINE('',#798,#161);
#123=LINE('',#799,#162);
#124=LINE('',#801,#163);
#125=LINE('',#805,#164);
#126=LINE('',#808,#165);
#127=LINE('',#811,#166);
#128=LINE('',#814,#167);
#129=LINE('',#815,#168);
#130=LINE('',#818,#169);
#131=LINE('',#822,#170);
#132=LINE('',#823,#171);
#133=LINE('',#826,#172);
#134=LINE('',#830,#173);
#135=LINE('',#831,#174);
#136=LINE('',#834,#175);
#137=LINE('',#837,#176);
#138=LINE('',#841,#177);
#139=LINE('',#845,#178);
#140=LINE('',#849,#179);
#141=LINE('',#853,#180);
#142=LINE('',#857,#181);
#143=LINE('',#861,#182);
#144=LINE('',#865,#183);
#145=LINE('',#867,#184);
#146=VECTOR('',#583,10.);
#147=VECTOR('',#586,10.);
#148=VECTOR('',#589,10.);
#149=VECTOR('',#590,10.);
#150=VECTOR('',#591,10.);
#151=VECTOR('',#594,10.);
#152=VECTOR('',#597,10.);
#153=VECTOR('',#600,10.);
#154=VECTOR('',#617,10.);
#155=VECTOR('',#620,10.);
#156=VECTOR('',#623,10.);
#157=VECTOR('',#626,10.);
#158=VECTOR('',#633,10.);
#159=VECTOR('',#636,10.);
#160=VECTOR('',#637,10.);
#161=VECTOR('',#642,10.);
#162=VECTOR('',#643,10.);
#163=VECTOR('',#646,10.);
#164=VECTOR('',#651,10.);
#165=VECTOR('',#654,10.);
#166=VECTOR('',#657,10.);
#167=VECTOR('',#660,10.);
#168=VECTOR('',#661,10.);
#169=VECTOR('',#664,10.);
#170=VECTOR('',#669,10.);
#171=VECTOR('',#670,10.);
#172=VECTOR('',#673,10.);
#173=VECTOR('',#678,10.);
#174=VECTOR('',#679,10.);
#175=VECTOR('',#682,10.);
#176=VECTOR('',#687,10.);
#177=VECTOR('',#692,1.5);
#178=VECTOR('',#697,1.25);
#179=VECTOR('',#702,1.5);
#180=VECTOR('',#707,1.25);
#181=VECTOR('',#712,1.5);
#182=VECTOR('',#717,1.5);
#183=VECTOR('',#722,1.25);
#184=VECTOR('',#725,10.);
#185=CIRCLE('',#523,1.);
#186=CIRCLE('',#524,1.);
#187=CIRCLE('',#527,1.);
#188=CIRCLE('',#528,1.);
#189=CIRCLE('',#529,1.);
#190=CIRCLE('',#530,1.25);
#191=CIRCLE('',#531,1.5);
#192=CIRCLE('',#532,1.5);
#193=CIRCLE('',#533,1.25);
#194=CIRCLE('',#534,1.5);
#195=CIRCLE('',#535,1.25);
#196=CIRCLE('',#536,0.75);
#197=CIRCLE('',#537,0.75);
#198=CIRCLE('',#538,0.75);
#199=CIRCLE('',#539,0.75);
#200=CIRCLE('',#540,1.5);
#201=CIRCLE('',#542,1.);
#202=CIRCLE('',#545,1.);
#203=CIRCLE('',#548,1.);
#204=CIRCLE('',#550,0.75);
#205=CIRCLE('',#553,0.75);
#206=CIRCLE('',#556,0.75);
#207=CIRCLE('',#559,0.75);
#208=CIRCLE('',#562,1.5);
#209=CIRCLE('',#564,1.25);
#210=CIRCLE('',#566,1.5);
#211=CIRCLE('',#568,1.25);
#212=CIRCLE('',#570,1.5);
#213=CIRCLE('',#572,1.5);
#214=CIRCLE('',#574,1.25);
#215=VERTEX_POINT('',#730);
#216=VERTEX_POINT('',#731);
#217=VERTEX_POINT('',#733);
#218=VERTEX_POINT('',#735);
#219=VERTEX_POINT('',#739);
#220=VERTEX_POINT('',#741);
#221=VERTEX_POINT('',#745);
#222=VERTEX_POINT('',#747);
#223=VERTEX_POINT('',#749);
#224=VERTEX_POINT('',#751);
#225=VERTEX_POINT('',#753);
#226=VERTEX_POINT('',#756);
#227=VERTEX_POINT('',#758);
#228=VERTEX_POINT('',#760);
#229=VERTEX_POINT('',#762);
#230=VERTEX_POINT('',#764);
#231=VERTEX_POINT('',#766);
#232=VERTEX_POINT('',#768);
#233=VERTEX_POINT('',#769);
#234=VERTEX_POINT('',#771);
#235=VERTEX_POINT('',#773);
#236=VERTEX_POINT('',#775);
#237=VERTEX_POINT('',#777);
#238=VERTEX_POINT('',#779);
#239=VERTEX_POINT('',#781);
#240=VERTEX_POINT('',#784);
#241=VERTEX_POINT('',#787);
#242=VERTEX_POINT('',#791);
#243=VERTEX_POINT('',#795);
#244=VERTEX_POINT('',#796);
#245=VERTEX_POINT('',#803);
#246=VERTEX_POINT('',#807);
#247=VERTEX_POINT('',#809);
#248=VERTEX_POINT('',#813);
#249=VERTEX_POINT('',#817);
#250=VERTEX_POINT('',#821);
#251=VERTEX_POINT('',#825);
#252=VERTEX_POINT('',#829);
#253=VERTEX_POINT('',#833);
#254=VERTEX_POINT('',#839);
#255=VERTEX_POINT('',#843);
#256=VERTEX_POINT('',#847);
#257=VERTEX_POINT('',#851);
#258=VERTEX_POINT('',#855);
#259=VERTEX_POINT('',#859);
#260=VERTEX_POINT('',#863);
#261=EDGE_CURVE('',#215,#216,#185,.T.);
#262=EDGE_CURVE('',#216,#217,#107,.T.);
#263=EDGE_CURVE('',#217,#218,#186,.T.);
#264=EDGE_CURVE('',#218,#215,#108,.T.);
#265=EDGE_CURVE('',#218,#219,#109,.T.);
#266=EDGE_CURVE('',#220,#219,#110,.T.);
#267=EDGE_CURVE('',#215,#220,#111,.T.);
#268=EDGE_CURVE('',#221,#217,#112,.T.);
#269=EDGE_CURVE('',#222,#221,#187,.T.);
#270=EDGE_CURVE('',#222,#223,#113,.T.);
#271=EDGE_CURVE('',#224,#223,#188,.T.);
#272=EDGE_CURVE('',#224,#225,#114,.T.);
#273=EDGE_CURVE('',#219,#225,#189,.T.);
#274=EDGE_CURVE('',#226,#226,#190,.T.);
#275=EDGE_CURVE('',#227,#227,#191,.T.);
#276=EDGE_CURVE('',#228,#228,#192,.T.);
#277=EDGE_CURVE('',#229,#229,#193,.T.);
#278=EDGE_CURVE('',#230,#230,#194,.T.);
#279=EDGE_CURVE('',#231,#231,#195,.T.);
#280=EDGE_CURVE('',#232,#233,#196,.T.);
#281=EDGE_CURVE('',#234,#232,#115,.T.);
#282=EDGE_CURVE('',#235,#234,#197,.T.);
#283=EDGE_CURVE('',#236,#235,#116,.T.);
#284=EDGE_CURVE('',#237,#236,#198,.T.);
#285=EDGE_CURVE('',#238,#237,#117,.T.);
#286=EDGE_CURVE('',#239,#238,#199,.T.);
#287=EDGE_CURVE('',#233,#239,#118,.T.);
#288=EDGE_CURVE('',#240,#240,#200,.T.);
#289=EDGE_CURVE('',#241,#220,#201,.T.);
#290=EDGE_CURVE('',#225,#241,#119,.T.);
#291=EDGE_CURVE('',#242,#224,#120,.T.);
#292=EDGE_CURVE('',#241,#242,#121,.T.);
#293=EDGE_CURVE('',#243,#244,#202,.T.);
#294=EDGE_CURVE('',#244,#222,#122,.T.);
#295=EDGE_CURVE('',#221,#243,#123,.T.);
#296=EDGE_CURVE('',#243,#216,#124,.T.);
#297=EDGE_CURVE('',#245,#242,#203,.T.);
#298=EDGE_CURVE('',#223,#245,#125,.T.);
#299=EDGE_CURVE('',#236,#246,#126,.T.);
#300=EDGE_CURVE('',#246,#247,#204,.T.);
#301=EDGE_CURVE('',#247,#237,#127,.T.);
#302=EDGE_CURVE('',#248,#235,#128,.T.);
#303=EDGE_CURVE('',#246,#248,#129,.T.);
#304=EDGE_CURVE('',#234,#249,#130,.T.);
#305=EDGE_CURVE('',#249,#248,#205,.T.);
#306=EDGE_CURVE('',#250,#232,#131,.T.);
#307=EDGE_CURVE('',#249,#250,#132,.T.);
#308=EDGE_CURVE('',#233,#251,#133,.T.);
#309=EDGE_CURVE('',#251,#250,#206,.T.);
#310=EDGE_CURVE('',#252,#239,#134,.T.);
#311=EDGE_CURVE('',#251,#252,#135,.T.);
#312=EDGE_CURVE('',#238,#253,#136,.T.);
#313=EDGE_CURVE('',#253,#252,#207,.T.);
#314=EDGE_CURVE('',#253,#247,#137,.T.);
#315=EDGE_CURVE('',#254,#254,#208,.T.);
#316=EDGE_CURVE('',#254,#240,#138,.T.);
#317=EDGE_CURVE('',#255,#255,#209,.T.);
#318=EDGE_CURVE('',#255,#231,#139,.T.);
#319=EDGE_CURVE('',#256,#256,#210,.T.);
#320=EDGE_CURVE('',#256,#230,#140,.T.);
#321=EDGE_CURVE('',#257,#257,#211,.T.);
#322=EDGE_CURVE('',#257,#229,#141,.T.);
#323=EDGE_CURVE('',#258,#258,#212,.T.);
#324=EDGE_CURVE('',#258,#228,#142,.T.);
#325=EDGE_CURVE('',#259,#259,#213,.T.);
#326=EDGE_CURVE('',#259,#227,#143,.T.);
#327=EDGE_CURVE('',#260,#260,#214,.T.);
#328=EDGE_CURVE('',#260,#226,#144,.T.);
#329=EDGE_CURVE('',#245,#244,#145,.T.);
#330=ORIENTED_EDGE('',*,*,#261,.T.);
#331=ORIENTED_EDGE('',*,*,#262,.T.);
#332=ORIENTED_EDGE('',*,*,#263,.T.);
#333=ORIENTED_EDGE('',*,*,#264,.T.);
#334=ORIENTED_EDGE('',*,*,#264,.F.);
#335=ORIENTED_EDGE('',*,*,#265,.T.);
#336=ORIENTED_EDGE('',*,*,#266,.F.);
#337=ORIENTED_EDGE('',*,*,#267,.F.);
#338=ORIENTED_EDGE('',*,*,#263,.F.);
#339=ORIENTED_EDGE('',*,*,#268,.F.);
#340=ORIENTED_EDGE('',*,*,#269,.F.);
#341=ORIENTED_EDGE('',*,*,#270,.T.);
#342=ORIENTED_EDGE('',*,*,#271,.F.);
#343=ORIENTED_EDGE('',*,*,#272,.T.);
#344=ORIENTED_EDGE('',*,*,#273,.F.);
#345=ORIENTED_EDGE('',*,*,#265,.F.);
#346=ORIENTED_EDGE('',*,*,#274,.F.);
#347=ORIENTED_EDGE('',*,*,#275,.F.);
#348=ORIENTED_EDGE('',*,*,#276,.F.);
#349=ORIENTED_EDGE('',*,*,#277,.F.);
#350=ORIENTED_EDGE('',*,*,#278,.F.);
#351=ORIENTED_EDGE('',*,*,#279,.F.);
#352=ORIENTED_EDGE('',*,*,#280,.F.);
#353=ORIENTED_EDGE('',*,*,#281,.F.);
#354=ORIENTED_EDGE('',*,*,#282,.F.);
#355=ORIENTED_EDGE('',*,*,#283,.F.);
#356=ORIENTED_EDGE('',*,*,#284,.F.);
#357=ORIENTED_EDGE('',*,*,#285,.F.);
#358=ORIENTED_EDGE('',*,*,#286,.F.);
#359=ORIENTED_EDGE('',*,*,#287,.F.);
#360=ORIENTED_EDGE('',*,*,#288,.F.);
#361=ORIENTED_EDGE('',*,*,#289,.T.);
#362=ORIENTED_EDGE('',*,*,#266,.T.);
#363=ORIENTED_EDGE('',*,*,#273,.T.);
#364=ORIENTED_EDGE('',*,*,#290,.T.);
#365=ORIENTED_EDGE('',*,*,#290,.F.);
#366=ORIENTED_EDGE('',*,*,#272,.F.);
#367=ORIENTED_EDGE('',*,*,#291,.F.);
#368=ORIENTED_EDGE('',*,*,#292,.F.);
#369=ORIENTED_EDGE('',*,*,#293,.T.);
#370=ORIENTED_EDGE('',*,*,#294,.T.);
#371=ORIENTED_EDGE('',*,*,#269,.T.);
#372=ORIENTED_EDGE('',*,*,#295,.T.);
#373=ORIENTED_EDGE('',*,*,#262,.F.);
#374=ORIENTED_EDGE('',*,*,#296,.F.);
#375=ORIENTED_EDGE('',*,*,#295,.F.);
#376=ORIENTED_EDGE('',*,*,#268,.T.);
#377=ORIENTED_EDGE('',*,*,#297,.T.);
#378=ORIENTED_EDGE('',*,*,#291,.T.);
#379=ORIENTED_EDGE('',*,*,#271,.T.);
#380=ORIENTED_EDGE('',*,*,#298,.T.);
#381=ORIENTED_EDGE('',*,*,#284,.T.);
#382=ORIENTED_EDGE('',*,*,#299,.T.);
#383=ORIENTED_EDGE('',*,*,#300,.T.);
#384=ORIENTED_EDGE('',*,*,#301,.T.);
#385=ORIENTED_EDGE('',*,*,#299,.F.);
#386=ORIENTED_EDGE('',*,*,#283,.T.);
#387=ORIENTED_EDGE('',*,*,#302,.F.);
#388=ORIENTED_EDGE('',*,*,#303,.F.);
#389=ORIENTED_EDGE('',*,*,#282,.T.);
#390=ORIENTED_EDGE('',*,*,#304,.T.);
#391=ORIENTED_EDGE('',*,*,#305,.T.);
#392=ORIENTED_EDGE('',*,*,#302,.T.);
#393=ORIENTED_EDGE('',*,*,#304,.F.);
#394=ORIENTED_EDGE('',*,*,#281,.T.);
#395=ORIENTED_EDGE('',*,*,#306,.F.);
#396=ORIENTED_EDGE('',*,*,#307,.F.);
#397=ORIENTED_EDGE('',*,*,#280,.T.);
#398=ORIENTED_EDGE('',*,*,#308,.T.);
#399=ORIENTED_EDGE('',*,*,#309,.T.);
#400=ORIENTED_EDGE('',*,*,#306,.T.);
#401=ORIENTED_EDGE('',*,*,#308,.F.);
#402=ORIENTED_EDGE('',*,*,#287,.T.);
#403=ORIENTED_EDGE('',*,*,#310,.F.);
#404=ORIENTED_EDGE('',*,*,#311,.F.);
#405=ORIENTED_EDGE('',*,*,#286,.T.);
#406=ORIENTED_EDGE('',*,*,#312,.T.);
#407=ORIENTED_EDGE('',*,*,#313,.T.);
#408=ORIENTED_EDGE('',*,*,#310,.T.);
#409=ORIENTED_EDGE('',*,*,#301,.F.);
#410=ORIENTED_EDGE('',*,*,#314,.F.);
#411=ORIENTED_EDGE('',*,*,#312,.F.);
#412=ORIENTED_EDGE('',*,*,#285,.T.);
#413=ORIENTED_EDGE('',*,*,#315,.F.);
#414=ORIENTED_EDGE('',*,*,#316,.T.);
#415=ORIENTED_EDGE('',*,*,#288,.T.);
#416=ORIENTED_EDGE('',*,*,#316,.F.);
#417=ORIENTED_EDGE('',*,*,#317,.F.);
#418=ORIENTED_EDGE('',*,*,#318,.T.);
#419=ORIENTED_EDGE('',*,*,#279,.T.);
#420=ORIENTED_EDGE('',*,*,#318,.F.);
#421=ORIENTED_EDGE('',*,*,#319,.F.);
#422=ORIENTED_EDGE('',*,*,#320,.T.);
#423=ORIENTED_EDGE('',*,*,#278,.T.);
#424=ORIENTED_EDGE('',*,*,#320,.F.);
#425=ORIENTED_EDGE('',*,*,#321,.F.);
#426=ORIENTED_EDGE('',*,*,#322,.T.);
#427=ORIENTED_EDGE('',*,*,#277,.T.);
#428=ORIENTED_EDGE('',*,*,#322,.F.);
#429=ORIENTED_EDGE('',*,*,#323,.F.);
#430=ORIENTED_EDGE('',*,*,#324,.T.);
#431=ORIENTED_EDGE('',*,*,#276,.T.);
#432=ORIENTED_EDGE('',*,*,#324,.F.);
#433=ORIENTED_EDGE('',*,*,#325,.F.);
#434=ORIENTED_EDGE('',*,*,#326,.T.);
#435=ORIENTED_EDGE('',*,*,#275,.T.);
#436=ORIENTED_EDGE('',*,*,#326,.F.);
#437=ORIENTED_EDGE('',*,*,#327,.F.);
#438=ORIENTED_EDGE('',*,*,#328,.T.);
#439=ORIENTED_EDGE('',*,*,#274,.T.);
#440=ORIENTED_EDGE('',*,*,#328,.F.);
#441=ORIENTED_EDGE('',*,*,#294,.F.);
#442=ORIENTED_EDGE('',*,*,#329,.F.);
#443=ORIENTED_EDGE('',*,*,#298,.F.);
#444=ORIENTED_EDGE('',*,*,#270,.F.);
#445=ORIENTED_EDGE('',*,*,#261,.F.);
#446=ORIENTED_EDGE('',*,*,#267,.T.);
#447=ORIENTED_EDGE('',*,*,#289,.F.);
#448=ORIENTED_EDGE('',*,*,#292,.T.);
#449=ORIENTED_EDGE('',*,*,#297,.F.);
#450=ORIENTED_EDGE('',*,*,#329,.T.);
#451=ORIENTED_EDGE('',*,*,#293,.F.);
#452=ORIENTED_EDGE('',*,*,#296,.T.);
#453=ORIENTED_EDGE('',*,*,#327,.T.);
#454=ORIENTED_EDGE('',*,*,#325,.T.);
#455=ORIENTED_EDGE('',*,*,#323,.T.);
#456=ORIENTED_EDGE('',*,*,#321,.T.);
#457=ORIENTED_EDGE('',*,*,#319,.T.);
#458=ORIENTED_EDGE('',*,*,#317,.T.);
#459=ORIENTED_EDGE('',*,*,#311,.T.);
#460=ORIENTED_EDGE('',*,*,#313,.F.);
#461=ORIENTED_EDGE('',*,*,#314,.T.);
#462=ORIENTED_EDGE('',*,*,#300,.F.);
#463=ORIENTED_EDGE('',*,*,#303,.T.);
#464=ORIENTED_EDGE('',*,*,#305,.F.);
#465=ORIENTED_EDGE('',*,*,#307,.T.);
#466=ORIENTED_EDGE('',*,*,#309,.F.);
#467=ORIENTED_EDGE('',*,*,#315,.T.);
#468=CYLINDRICAL_SURFACE('',#522,1.);
#469=CYLINDRICAL_SURFACE('',#541,1.);
#470=CYLINDRICAL_SURFACE('',#544,1.);
#471=CYLINDRICAL_SURFACE('',#547,1.);
#472=CYLINDRICAL_SURFACE('',#549,0.75);
#473=CYLINDRICAL_SURFACE('',#552,0.75);
#474=CYLINDRICAL_SURFACE('',#555,0.75);
#475=CYLINDRICAL_SURFACE('',#558,0.75);
#476=CYLINDRICAL_SURFACE('',#561,1.5);
#477=CYLINDRICAL_SURFACE('',#563,1.25);
#478=CYLINDRICAL_SURFACE('',#565,1.5);
#479=CYLINDRICAL_SURFACE('',#567,1.25);
#480=CYLINDRICAL_SURFACE('',#569,1.5);
#481=CYLINDRICAL_SURFACE('',#571,1.5);
#482=CYLINDRICAL_SURFACE('',#573,1.25);
#483=ADVANCED_FACE('',(#41),#468,.T.);
#484=ADVANCED_FACE('',(#42),#31,.T.);
#485=ADVANCED_FACE('',(#43,#15,#16,#17,#18,#19,#20,#21,#22),#32,.F.);
#486=ADVANCED_FACE('',(#44),#469,.T.);
#487=ADVANCED_FACE('',(#45),#33,.T.);
#488=ADVANCED_FACE('',(#46),#470,.T.);
#489=ADVANCED_FACE('',(#47),#34,.T.);
#490=ADVANCED_FACE('',(#48),#471,.T.);
#491=ADVANCED_FACE('',(#49),#472,.F.);
#492=ADVANCED_FACE('',(#50),#35,.T.);
#493=ADVANCED_FACE('',(#51),#473,.F.);
#494=ADVANCED_FACE('',(#52),#36,.T.);
#495=ADVANCED_FACE('',(#53),#474,.F.);
#496=ADVANCED_FACE('',(#54),#37,.T.);
#497=ADVANCED_FACE('',(#55),#475,.F.);
#498=ADVANCED_FACE('',(#56),#38,.T.);
#499=ADVANCED_FACE('',(#57),#476,.F.);
#500=ADVANCED_FACE('',(#58),#477,.F.);
#501=ADVANCED_FACE('',(#59),#478,.F.);
#502=ADVANCED_FACE('',(#60),#479,.F.);
#503=ADVANCED_FACE('',(#61),#480,.F.);
#504=ADVANCED_FACE('',(#62),#481,.F.);
#505=ADVANCED_FACE('',(#63),#482,.F.);
#506=ADVANCED_FACE('',(#64),#39,.T.);
#507=ADVANCED_FACE('',(#65,#23,#24,#25,#26,#27,#28,#29,#30),#40,.T.);
#508=CLOSED_SHELL('',(#483,#484,#485,#486,#487,#488,#489,#490,#491,#492,
#493,#494,#495,#496,#497,#498,#499,#500,#501,#502,#503,#504,#505,#506,#507));
#509=DERIVED_UNIT_ELEMENT(#511,1.);
#510=DERIVED_UNIT_ELEMENT(#874,-3.);
#511=(
MASS_UNIT()
NAMED_UNIT(*)
SI_UNIT(.KILO.,.GRAM.)
);
#512=DERIVED_UNIT((#509,#510));
#513=MEASURE_REPRESENTATION_ITEM('density measure',
POSITIVE_RATIO_MEASURE(7850.),#512);
#514=PROPERTY_DEFINITION_REPRESENTATION(#519,#516);
#515=PROPERTY_DEFINITION_REPRESENTATION(#520,#517);
#516=REPRESENTATION('material name',(#518),#871);
#517=REPRESENTATION('density',(#513),#871);
#518=DESCRIPTIVE_REPRESENTATION_ITEM('Steel','Steel');
#519=PROPERTY_DEFINITION('material property','material name',#881);
#520=PROPERTY_DEFINITION('material property','density of part',#881);
#521=AXIS2_PLACEMENT_3D('',#728,#577,#578);
#522=AXIS2_PLACEMENT_3D('',#729,#579,#580);
#523=AXIS2_PLACEMENT_3D('',#732,#581,#582);
#524=AXIS2_PLACEMENT_3D('',#736,#584,#585);
#525=AXIS2_PLACEMENT_3D('',#738,#587,#588);
#526=AXIS2_PLACEMENT_3D('',#744,#592,#593);
#527=AXIS2_PLACEMENT_3D('',#748,#595,#596);
#528=AXIS2_PLACEMENT_3D('',#752,#598,#599);
#529=AXIS2_PLACEMENT_3D('',#755,#601,#602);
#530=AXIS2_PLACEMENT_3D('',#757,#603,#604);
#531=AXIS2_PLACEMENT_3D('',#759,#605,#606);
#532=AXIS2_PLACEMENT_3D('',#761,#607,#608);
#533=AXIS2_PLACEMENT_3D('',#763,#609,#610);
#534=AXIS2_PLACEMENT_3D('',#765,#611,#612);
#535=AXIS2_PLACEMENT_3D('',#767,#613,#614);
#536=AXIS2_PLACEMENT_3D('',#770,#615,#616);
#537=AXIS2_PLACEMENT_3D('',#774,#618,#619);
#538=AXIS2_PLACEMENT_3D('',#778,#621,#622);
#539=AXIS2_PLACEMENT_3D('',#782,#624,#625);
#540=AXIS2_PLACEMENT_3D('',#785,#627,#628);
#541=AXIS2_PLACEMENT_3D('',#786,#629,#630);
#542=AXIS2_PLACEMENT_3D('',#788,#631,#632);
#543=AXIS2_PLACEMENT_3D('',#790,#634,#635);
#544=AXIS2_PLACEMENT_3D('',#794,#638,#639);
#545=AXIS2_PLACEMENT_3D('',#797,#640,#641);
#546=AXIS2_PLACEMENT_3D('',#800,#644,#645);
#547=AXIS2_PLACEMENT_3D('',#802,#647,#648);
#548=AXIS2_PLACEMENT_3D('',#804,#649,#650);
#549=AXIS2_PLACEMENT_3D('',#806,#652,#653);
#550=AXIS2_PLACEMENT_3D('',#810,#655,#656);
#551=AXIS2_PLACEMENT_3D('',#812,#658,#659);
#552=AXIS2_PLACEMENT_3D('',#816,#662,#663);
#553=AXIS2_PLACEMENT_3D('',#819,#665,#666);
#554=AXIS2_PLACEMENT_3D('',#820,#667,#668);
#555=AXIS2_PLACEMENT_3D('',#824,#671,#672);
#556=AXIS2_PLACEMENT_3D('',#827,#674,#675);
#557=AXIS2_PLACEMENT_3D('',#828,#676,#677);
#558=AXIS2_PLACEMENT_3D('',#832,#680,#681);
#559=AXIS2_PLACEMENT_3D('',#835,#683,#684);
#560=AXIS2_PLACEMENT_3D('',#836,#685,#686);
#561=AXIS2_PLACEMENT_3D('',#838,#688,#689);
#562=AXIS2_PLACEMENT_3D('',#840,#690,#691);
#563=AXIS2_PLACEMENT_3D('',#842,#693,#694);
#564=AXIS2_PLACEMENT_3D('',#844,#695,#696);
#565=AXIS2_PLACEMENT_3D('',#846,#698,#699);
#566=AXIS2_PLACEMENT_3D('',#848,#700,#701);
#567=AXIS2_PLACEMENT_3D('',#850,#703,#704);
#568=AXIS2_PLACEMENT_3D('',#852,#705,#706);
#569=AXIS2_PLACEMENT_3D('',#854,#708,#709);
#570=AXIS2_PLACEMENT_3D('',#856,#710,#711);
#571=AXIS2_PLACEMENT_3D('',#858,#713,#714);
#572=AXIS2_PLACEMENT_3D('',#860,#715,#716);
#573=AXIS2_PLACEMENT_3D('',#862,#718,#719);
#574=AXIS2_PLACEMENT_3D('',#864,#720,#721);
#575=AXIS2_PLACEMENT_3D('',#866,#723,#724);
#576=AXIS2_PLACEMENT_3D('',#868,#726,#727);
#577=DIRECTION('axis',(0.,0.,1.));
#578=DIRECTION('refdir',(1.,0.,0.));
#579=DIRECTION('center_axis',(0.,0.,1.));
#580=DIRECTION('ref_axis',(0.70710678118667,0.707106781186425,0.));
#581=DIRECTION('center_axis',(0.,0.,-1.));
#582=DIRECTION('ref_axis',(0.70710678118667,0.707106781186425,0.));
#583=DIRECTION('',(0.,0.,-1.));
#584=DIRECTION('center_axis',(0.,0.,1.));
#585=DIRECTION('ref_axis',(0.70710678118667,0.707106781186425,0.));
#586=DIRECTION('',(0.,0.,1.));
#587=DIRECTION('center_axis',(4.20615923043899E-13,1.,0.));
#588=DIRECTION('ref_axis',(-1.,4.20615923043899E-13,0.));
#589=DIRECTION('',(-1.,4.20615923043899E-13,0.));
#590=DIRECTION('',(0.,0.,-1.));
#591=DIRECTION('',(-1.,4.20615923043899E-13,0.));
#592=DIRECTION('center_axis',(0.,0.,1.));
#593=DIRECTION('ref_axis',(1.,0.,0.));
#594=DIRECTION('',(-7.71030748826192E-14,1.,0.));
#595=DIRECTION('center_axis',(0.,0.,1.));
#596=DIRECTION('ref_axis',(0.707106781186636,-0.70710678118646,0.));
#597=DIRECTION('',(-1.,-1.70974345792336E-13,0.));
#598=DIRECTION('center_axis',(0.,0.,1.));
#599=DIRECTION('ref_axis',(-0.707106781186486,-0.707106781186609,0.));
#600=DIRECTION('',(6.12536841172482E-16,1.,0.));
#601=DIRECTION('center_axis',(0.,0.,1.));
#602=DIRECTION('ref_axis',(-0.707106781186401,0.707106781186694,0.));
#603=DIRECTION('center_axis',(0.,0.,-1.));
#604=DIRECTION('ref_axis',(1.,0.,0.));
#605=DIRECTION('center_axis',(0.,0.,-1.));
#606=DIRECTION('ref_axis',(1.,0.,0.));
#607=DIRECTION('center_axis',(0.,0.,-1.));
#608=DIRECTION('ref_axis',(1.,0.,0.));
#609=DIRECTION('center_axis',(0.,0.,-1.));
#610=DIRECTION('ref_axis',(1.,0.,0.));
#611=DIRECTION('center_axis',(0.,0.,-1.));
#612=DIRECTION('ref_axis',(1.,0.,0.));
#613=DIRECTION('center_axis',(0.,0.,-1.));
#614=DIRECTION('ref_axis',(1.,0.,0.));
#615=DIRECTION('center_axis',(0.,0.,-1.));
#616=DIRECTION('ref_axis',(0.707106781186618,-0.707106781186477,0.));
#617=DIRECTION('',(1.97619698383324E-13,-1.,0.));
#618=DIRECTION('center_axis',(0.,0.,-1.));
#619=DIRECTION('ref_axis',(0.707106781186477,0.707106781186618,0.));
#620=DIRECTION('',(1.,0.,0.));
#621=DIRECTION('center_axis',(0.,0.,-1.));
#622=DIRECTION('ref_axis',(-0.707106781186687,0.707106781186408,0.));
#623=DIRECTION('',(-3.9185321654154E-13,1.,0.));
#624=DIRECTION('center_axis',(0.,0.,-1.));
#625=DIRECTION('ref_axis',(-0.707106781186408,-0.707106781186687,0.));
#626=DIRECTION('',(-1.,0.,0.));
#627=DIRECTION('center_axis',(0.,0.,-1.));
#628=DIRECTION('ref_axis',(1.,0.,0.));
#629=DIRECTION('center_axis',(0.,0.,1.));
#630=DIRECTION('ref_axis',(-0.707106781186401,0.707106781186694,0.));
#631=DIRECTION('center_axis',(0.,0.,-1.));
#632=DIRECTION('ref_axis',(-0.707106781186401,0.707106781186694,0.));
#633=DIRECTION('',(0.,0.,1.));
#634=DIRECTION('center_axis',(-1.,6.12536841172482E-16,0.));
#635=DIRECTION('ref_axis',(-6.12536841172482E-16,-1.,0.));
#636=DIRECTION('',(0.,0.,-1.));
#637=DIRECTION('',(-6.12536841172482E-16,-1.,0.));
#638=DIRECTION('center_axis',(0.,0.,1.));
#639=DIRECTION('ref_axis',(0.707106781186636,-0.70710678118646,0.));
#640=DIRECTION('center_axis',(0.,0.,-1.));
#641=DIRECTION('ref_axis',(0.707106781186636,-0.70710678118646,0.));
#642=DIRECTION('',(0.,0.,-1.));
#643=DIRECTION('',(0.,0.,1.));
#644=DIRECTION('center_axis',(1.,7.71030748826192E-14,0.));
#645=DIRECTION('ref_axis',(-7.71030748826192E-14,1.,0.));
#646=DIRECTION('',(-7.71030748826192E-14,1.,0.));
#647=DIRECTION('center_axis',(0.,0.,1.));
#648=DIRECTION('ref_axis',(-0.707106781186486,-0.707106781186609,0.));
#649=DIRECTION('center_axis',(0.,0.,-1.));
#650=DIRECTION('ref_axis',(-0.707106781186486,-0.707106781186609,0.));
#651=DIRECTION('',(0.,0.,1.));
#652=DIRECTION('center_axis',(0.,0.,1.));
#653=DIRECTION('ref_axis',(-0.707106781186687,0.707106781186408,0.));
#654=DIRECTION('',(0.,0.,1.));
#655=DIRECTION('center_axis',(0.,0.,1.));
#656=DIRECTION('ref_axis',(-0.707106781186687,0.707106781186408,0.));
#657=DIRECTION('',(0.,0.,-1.));
#658=DIRECTION('center_axis',(0.,-1.,0.));
#659=DIRECTION('ref_axis',(1.,0.,0.));
#660=DIRECTION('',(0.,0.,-1.));
#661=DIRECTION('',(1.,0.,0.));
#662=DIRECTION('center_axis',(0.,0.,1.));
#663=DIRECTION('ref_axis',(0.707106781186477,0.707106781186618,0.));
#664=DIRECTION('',(0.,0.,1.));
#665=DIRECTION('center_axis',(0.,0.,1.));
#666=DIRECTION('ref_axis',(0.707106781186477,0.707106781186618,0.));
#667=DIRECTION('center_axis',(-1.,-1.97619698383324E-13,0.));
#668=DIRECTION('ref_axis',(1.97619698383324E-13,-1.,0.));
#669=DIRECTION('',(0.,0.,-1.));
#670=DIRECTION('',(1.97619698383324E-13,-1.,0.));
#671=DIRECTION('center_axis',(0.,0.,1.));
#672=DIRECTION('ref_axis',(0.707106781186618,-0.707106781186477,0.));
#673=DIRECTION('',(0.,0.,1.));
#674=DIRECTION('center_axis',(0.,0.,1.));
#675=DIRECTION('ref_axis',(0.707106781186618,-0.707106781186477,0.));
#676=DIRECTION('center_axis',(0.,1.,0.));
#677=DIRECTION('ref_axis',(-1.,0.,0.));
#678=DIRECTION('',(0.,0.,-1.));
#679=DIRECTION('',(-1.,0.,0.));
#680=DIRECTION('center_axis',(0.,0.,1.));
#681=DIRECTION('ref_axis',(-0.707106781186408,-0.707106781186687,0.));
#682=DIRECTION('',(0.,0.,1.));
#683=DIRECTION('center_axis',(0.,0.,1.));
#684=DIRECTION('ref_axis',(-0.707106781186408,-0.707106781186687,0.));
#685=DIRECTION('center_axis',(1.,3.9185321654154E-13,0.));
#686=DIRECTION('ref_axis',(-3.9185321654154E-13,1.,0.));
#687=DIRECTION('',(-3.9185321654154E-13,1.,0.));
#688=DIRECTION('center_axis',(0.,0.,1.));
#689=DIRECTION('ref_axis',(1.,0.,0.));
#690=DIRECTION('center_axis',(0.,0.,-1.));
#691=DIRECTION('ref_axis',(1.,0.,0.));
#692=DIRECTION('',(0.,0.,-1.));
#693=DIRECTION('center_axis',(0.,0.,1.));
#694=DIRECTION('ref_axis',(1.,0.,0.));
#695=DIRECTION('center_axis',(0.,0.,-1.));
#696=DIRECTION('ref_axis',(1.,0.,0.));
#697=DIRECTION('',(0.,0.,-1.));
#698=DIRECTION('center_axis',(0.,0.,1.));
#699=DIRECTION('ref_axis',(1.,0.,0.));
#700=DIRECTION('center_axis',(0.,0.,-1.));
#701=DIRECTION('ref_axis',(1.,0.,0.));
#702=DIRECTION('',(0.,0.,-1.));
#703=DIRECTION('center_axis',(0.,0.,1.));
#704=DIRECTION('ref_axis',(1.,0.,0.));
#705=DIRECTION('center_axis',(0.,0.,-1.));
#706=DIRECTION('ref_axis',(1.,0.,0.));
#707=DIRECTION('',(0.,0.,-1.));
#708=DIRECTION('center_axis',(0.,0.,1.));
#709=DIRECTION('ref_axis',(1.,0.,0.));
#710=DIRECTION('center_axis',(0.,0.,-1.));
#711=DIRECTION('ref_axis',(1.,0.,0.));
#712=DIRECTION('',(0.,0.,-1.));
#713=DIRECTION('center_axis',(0.,0.,1.));
#714=DIRECTION('ref_axis',(1.,0.,0.));
#715=DIRECTION('center_axis',(0.,0.,-1.));
#716=DIRECTION('ref_axis',(1.,0.,0.));
#717=DIRECTION('',(0.,0.,-1.));
#718=DIRECTION('center_axis',(0.,0.,1.));
#719=DIRECTION('ref_axis',(1.,0.,0.));
#720=DIRECTION('center_axis',(0.,0.,-1.));
#721=DIRECTION('ref_axis',(1.,0.,0.));
#722=DIRECTION('',(0.,0.,-1.));
#723=DIRECTION('center_axis',(1.70974345792336E-13,-1.,0.));
#724=DIRECTION('ref_axis',(1.,1.70974345792336E-13,0.));
#725=DIRECTION('',(1.,1.70974345792336E-13,0.));
#726=DIRECTION('center_axis',(0.,0.,1.));
#727=DIRECTION('ref_axis',(1.,0.,0.));
#728=CARTESIAN_POINT('',(0.,0.,0.));
#729=CARTESIAN_POINT('Origin',(20.9999999999906,27.9999999999839,0.));
#730=CARTESIAN_POINT('',(20.999999999991,28.9999999999839,3.));
#731=CARTESIAN_POINT('',(21.9999999999906,27.9999999999839,3.));
#732=CARTESIAN_POINT('Origin',(20.9999999999906,27.9999999999839,3.));
#733=CARTESIAN_POINT('',(21.9999999999906,27.9999999999839,0.));
#734=CARTESIAN_POINT('',(21.9999999999906,27.9999999999839,0.));
#735=CARTESIAN_POINT('',(20.999999999991,28.9999999999839,0.));
#736=CARTESIAN_POINT('Origin',(20.9999999999906,27.9999999999839,0.));
#737=CARTESIAN_POINT('',(20.999999999991,28.9999999999839,0.));
#738=CARTESIAN_POINT('Origin',(21.9999999999905,28.9999999999834,0.));
#739=CARTESIAN_POINT('',(-18.9999999999894,29.0000000000007,0.));
#740=CARTESIAN_POINT('',(21.9999999999905,28.9999999999834,0.));
#741=CARTESIAN_POINT('',(-18.9999999999894,29.0000000000007,3.));
#742=CARTESIAN_POINT('',(-18.9999999999894,29.0000000000007,0.));
#743=CARTESIAN_POINT('',(21.9999999999905,28.9999999999834,3.));
#744=CARTESIAN_POINT('Origin',(1.00000000000257,2.57571741713036E-13,0.));
#745=CARTESIAN_POINT('',(21.9999999999949,-27.9999999999935,0.));
#746=CARTESIAN_POINT('',(21.999999999995,-28.9999999999934,0.));
#747=CARTESIAN_POINT('',(20.9999999999951,-28.9999999999936,0.));
#748=CARTESIAN_POINT('Origin',(20.9999999999949,-27.9999999999936,0.));
#749=CARTESIAN_POINT('',(-18.9999999999897,-29.0000000000004,0.));
#750=CARTESIAN_POINT('',(21.999999999995,-28.9999999999934,0.));
#751=CARTESIAN_POINT('',(-19.9999999999899,-28.0000000000004,0.));
#752=CARTESIAN_POINT('Origin',(-18.9999999999899,-28.0000000000004,0.));
#753=CARTESIAN_POINT('',(-19.9999999999898,28.0000000000007,0.));
#754=CARTESIAN_POINT('',(-19.9999999999899,-29.0000000000006,0.));
#755=CARTESIAN_POINT('Origin',(-18.9999999999898,28.0000000000007,0.));
#756=CARTESIAN_POINT('',(12.8499999999962,-11.8999999999967,0.));
#757=CARTESIAN_POINT('Origin',(14.0999999999962,-11.8999999999967,0.));
#758=CARTESIAN_POINT('',(-6.00000000000292,24.2399999999947,0.));
#759=CARTESIAN_POINT('Origin',(-4.50000000000292,24.2399999999947,0.));
#760=CARTESIAN_POINT('',(-6.00000000000295,-24.2399999999947,0.));
#761=CARTESIAN_POINT('Origin',(-4.50000000000295,-24.2399999999947,0.));
#762=CARTESIAN_POINT('',(-14.2499999999916,-16.9999999999961,0.));
#763=CARTESIAN_POINT('Origin',(-12.9999999999916,-16.9999999999961,0.));
#764=CARTESIAN_POINT('',(2.99999999999562,-24.2399999999943,0.));
#765=CARTESIAN_POINT('Origin',(4.49999999999562,-24.2399999999943,0.));
#766=CARTESIAN_POINT('',(12.8499999999962,-24.8999999999967,0.));
#767=CARTESIAN_POINT('Origin',(14.0999999999962,-24.8999999999967,0.));
#768=CARTESIAN_POINT('',(10.0000000000008,-19.2499999999979,0.));
#769=CARTESIAN_POINT('',(9.25000000000082,-19.9999999999981,0.));
#770=CARTESIAN_POINT('Origin',(9.25000000000082,-19.2499999999981,0.));
#771=CARTESIAN_POINT('',(9.99999999999321,19.2499999999928,0.));
#772=CARTESIAN_POINT('',(9.99999999999306,19.9999999999927,0.));
#773=CARTESIAN_POINT('',(9.24999999999321,19.9999999999927,0.));
#774=CARTESIAN_POINT('Origin',(9.24999999999321,19.2499999999927,0.));
#775=CARTESIAN_POINT('',(-9.25000000000664,19.9999999999927,0.));
#776=CARTESIAN_POINT('',(-10.0000000000069,19.9999999999927,0.));
#777=CARTESIAN_POINT('',(-10.0000000000066,19.2499999999924,0.));
#778=CARTESIAN_POINT('Origin',(-9.25000000000664,19.2499999999927,0.));
#779=CARTESIAN_POINT('',(-9.99999999999156,-19.2499999999984,0.));
#780=CARTESIAN_POINT('',(-9.99999999999126,-19.9999999999981,0.));
#781=CARTESIAN_POINT('',(-9.24999999999156,-19.9999999999981,0.));
#782=CARTESIAN_POINT('Origin',(-9.24999999999156,-19.2499999999981,0.));
#783=CARTESIAN_POINT('',(10.000000000001,-19.9999999999981,0.));
#784=CARTESIAN_POINT('',(2.99999999999565,24.2399999999943,0.));
#785=CARTESIAN_POINT('Origin',(4.49999999999565,24.2399999999943,0.));
#786=CARTESIAN_POINT('Origin',(-18.9999999999898,28.0000000000007,0.));
#787=CARTESIAN_POINT('',(-19.9999999999898,28.0000000000007,3.));
#788=CARTESIAN_POINT('Origin',(-18.9999999999898,28.0000000000007,3.));
#789=CARTESIAN_POINT('',(-19.9999999999898,28.0000000000007,0.));
#790=CARTESIAN_POINT('Origin',(-19.9999999999898,29.0000000000011,0.));
#791=CARTESIAN_POINT('',(-19.9999999999899,-28.0000000000004,3.));
#792=CARTESIAN_POINT('',(-19.9999999999899,-28.0000000000004,0.));
#793=CARTESIAN_POINT('',(-19.9999999999899,-29.0000000000006,3.));
#794=CARTESIAN_POINT('Origin',(20.9999999999949,-27.9999999999936,0.));
#795=CARTESIAN_POINT('',(21.9999999999949,-27.9999999999935,3.));
#796=CARTESIAN_POINT('',(20.9999999999951,-28.9999999999936,3.));
#797=CARTESIAN_POINT('Origin',(20.9999999999949,-27.9999999999936,3.));
#798=CARTESIAN_POINT('',(20.9999999999951,-28.9999999999936,0.));
#799=CARTESIAN_POINT('',(21.9999999999949,-27.9999999999935,0.));
#800=CARTESIAN_POINT('Origin',(21.999999999995,-28.9999999999934,0.));
#801=CARTESIAN_POINT('',(21.999999999995,-28.9999999999934,3.));
#802=CARTESIAN_POINT('Origin',(-18.9999999999899,-28.0000000000004,0.));
#803=CARTESIAN_POINT('',(-18.9999999999897,-29.0000000000004,3.));
#804=CARTESIAN_POINT('Origin',(-18.9999999999899,-28.0000000000004,3.));
#805=CARTESIAN_POINT('',(-18.9999999999897,-29.0000000000004,0.));
#806=CARTESIAN_POINT('Origin',(-9.25000000000664,19.2499999999927,0.));
#807=CARTESIAN_POINT('',(-9.25000000000664,19.9999999999927,3.));
#808=CARTESIAN_POINT('',(-9.25000000000664,19.9999999999927,0.));
#809=CARTESIAN_POINT('',(-10.0000000000066,19.2499999999924,3.));
#810=CARTESIAN_POINT('Origin',(-9.25000000000664,19.2499999999927,3.));
#811=CARTESIAN_POINT('',(-10.0000000000066,19.2499999999924,0.));
#812=CARTESIAN_POINT('Origin',(-10.0000000000069,19.9999999999927,0.));
#813=CARTESIAN_POINT('',(9.24999999999321,19.9999999999927,3.));
#814=CARTESIAN_POINT('',(9.24999999999321,19.9999999999927,0.));
#815=CARTESIAN_POINT('',(-10.0000000000069,19.9999999999927,3.));
#816=CARTESIAN_POINT('Origin',(9.24999999999321,19.2499999999927,0.));
#817=CARTESIAN_POINT('',(9.99999999999321,19.2499999999928,3.));
#818=CARTESIAN_POINT('',(9.99999999999321,19.2499999999928,0.));
#819=CARTESIAN_POINT('Origin',(9.24999999999321,19.2499999999927,3.));
#820=CARTESIAN_POINT('Origin',(9.99999999999306,19.9999999999927,0.));
#821=CARTESIAN_POINT('',(10.0000000000008,-19.2499999999979,3.));
#822=CARTESIAN_POINT('',(10.0000000000008,-19.2499999999979,0.));
#823=CARTESIAN_POINT('',(9.99999999999306,19.9999999999927,3.));
#824=CARTESIAN_POINT('Origin',(9.25000000000082,-19.2499999999981,0.));
#825=CARTESIAN_POINT('',(9.25000000000082,-19.9999999999981,3.));
#826=CARTESIAN_POINT('',(9.25000000000082,-19.9999999999981,0.));
#827=CARTESIAN_POINT('Origin',(9.25000000000082,-19.2499999999981,3.));
#828=CARTESIAN_POINT('Origin',(10.000000000001,-19.9999999999981,0.));
#829=CARTESIAN_POINT('',(-9.24999999999156,-19.9999999999981,3.));
#830=CARTESIAN_POINT('',(-9.24999999999156,-19.9999999999981,0.));
#831=CARTESIAN_POINT('',(10.000000000001,-19.9999999999981,3.));
#832=CARTESIAN_POINT('Origin',(-9.24999999999156,-19.2499999999981,0.));
#833=CARTESIAN_POINT('',(-9.99999999999156,-19.2499999999984,3.));
#834=CARTESIAN_POINT('',(-9.99999999999156,-19.2499999999984,0.));
#835=CARTESIAN_POINT('Origin',(-9.24999999999156,-19.2499999999981,3.));
#836=CARTESIAN_POINT('Origin',(-9.99999999999126,-19.9999999999981,0.));
#837=CARTESIAN_POINT('',(-9.99999999999126,-19.9999999999981,3.));
#838=CARTESIAN_POINT('Origin',(4.49999999999565,24.2399999999943,0.));
#839=CARTESIAN_POINT('',(2.99999999999565,24.2399999999943,3.));
#840=CARTESIAN_POINT('Origin',(4.49999999999565,24.2399999999943,3.));
#841=CARTESIAN_POINT('',(2.99999999999565,24.2399999999943,0.));
#842=CARTESIAN_POINT('Origin',(14.0999999999962,-24.8999999999967,0.));
#843=CARTESIAN_POINT('',(12.8499999999962,-24.8999999999967,3.));
#844=CARTESIAN_POINT('Origin',(14.0999999999962,-24.8999999999967,3.));
#845=CARTESIAN_POINT('',(12.8499999999962,-24.8999999999967,0.));
#846=CARTESIAN_POINT('Origin',(4.49999999999562,-24.2399999999943,0.));
#847=CARTESIAN_POINT('',(2.99999999999562,-24.2399999999943,3.));
#848=CARTESIAN_POINT('Origin',(4.49999999999562,-24.2399999999943,3.));
#849=CARTESIAN_POINT('',(2.99999999999562,-24.2399999999943,0.));
#850=CARTESIAN_POINT('Origin',(-12.9999999999916,-16.9999999999961,0.));
#851=CARTESIAN_POINT('',(-14.2499999999916,-16.9999999999962,3.));
#852=CARTESIAN_POINT('Origin',(-12.9999999999916,-16.9999999999961,3.));
#853=CARTESIAN_POINT('',(-14.2499999999916,-16.9999999999961,0.));
#854=CARTESIAN_POINT('Origin',(-4.50000000000295,-24.2399999999947,0.));
#855=CARTESIAN_POINT('',(-6.00000000000295,-24.2399999999947,3.));
#856=CARTESIAN_POINT('Origin',(-4.50000000000295,-24.2399999999947,3.));
#857=CARTESIAN_POINT('',(-6.00000000000295,-24.2399999999947,0.));
#858=CARTESIAN_POINT('Origin',(-4.50000000000292,24.2399999999947,0.));
#859=CARTESIAN_POINT('',(-6.00000000000291,24.2399999999947,3.));
#860=CARTESIAN_POINT('Origin',(-4.50000000000292,24.2399999999947,3.));
#861=CARTESIAN_POINT('',(-6.00000000000292,24.2399999999947,0.));
#862=CARTESIAN_POINT('Origin',(14.0999999999962,-11.8999999999967,0.));
#863=CARTESIAN_POINT('',(12.8499999999962,-11.8999999999967,3.));
#864=CARTESIAN_POINT('Origin',(14.0999999999962,-11.8999999999967,3.));
#865=CARTESIAN_POINT('',(12.8499999999962,-11.8999999999967,0.));
#866=CARTESIAN_POINT('Origin',(-19.9999999999899,-29.0000000000006,0.));
#867=CARTESIAN_POINT('',(21.999999999995,-28.9999999999934,3.));
#868=CARTESIAN_POINT('Origin',(1.00000000000257,2.57571741713036E-13,3.));
#869=UNCERTAINTY_MEASURE_WITH_UNIT(LENGTH_MEASURE(0.01),#873,
'DISTANCE_ACCURACY_VALUE',
'Maximum model space distance between geometric entities at asserted c
onnectivities');
#870=UNCERTAINTY_MEASURE_WITH_UNIT(LENGTH_MEASURE(0.01),#873,
'DISTANCE_ACCURACY_VALUE',
'Maximum model space distance between geometric entities at asserted c
onnectivities');
#871=(
GEOMETRIC_REPRESENTATION_CONTEXT(3)
GLOBAL_UNCERTAINTY_ASSIGNED_CONTEXT((#869))
GLOBAL_UNIT_ASSIGNED_CONTEXT((#873,#875,#876))
REPRESENTATION_CONTEXT('','3D')
);
#872=(
GEOMETRIC_REPRESENTATION_CONTEXT(3)
GLOBAL_UNCERTAINTY_ASSIGNED_CONTEXT((#870))
GLOBAL_UNIT_ASSIGNED_CONTEXT((#873,#875,#876))
REPRESENTATION_CONTEXT('','3D')
);
#873=(
LENGTH_UNIT()
NAMED_UNIT(*)
SI_UNIT(.MILLI.,.METRE.)
);
#874=(
LENGTH_UNIT()
NAMED_UNIT(*)
SI_UNIT($,.METRE.)
);
#875=(
NAMED_UNIT(*)
PLANE_ANGLE_UNIT()
SI_UNIT($,.RADIAN.)
);
#876=(
NAMED_UNIT(*)
SI_UNIT($,.STERADIAN.)
SOLID_ANGLE_UNIT()
);
#877=SHAPE_DEFINITION_REPRESENTATION(#878,#879);
#878=PRODUCT_DEFINITION_SHAPE('',$,#881);
#879=SHAPE_REPRESENTATION('',(#521),#871);
#880=PRODUCT_DEFINITION_CONTEXT('part definition',#885,'design');
#881=PRODUCT_DEFINITION('ServoPlate','ServoPlate v4',#882,#880);
#882=PRODUCT_DEFINITION_FORMATION('',$,#887);
#883=PRODUCT_RELATED_PRODUCT_CATEGORY('ServoPlate v4','ServoPlate v4',(#887));
#884=APPLICATION_PROTOCOL_DEFINITION('international standard',
'automotive_design',2009,#885);
#885=APPLICATION_CONTEXT(
'Core Data for Automotive Mechanical Design Process');
#886=PRODUCT_CONTEXT('part definition',#885,'mechanical');
#887=PRODUCT('ServoPlate','ServoPlate v4',$,(#886));
#888=PRESENTATION_STYLE_ASSIGNMENT((#890));
#889=PRESENTATION_STYLE_ASSIGNMENT((#891));
#890=SURFACE_STYLE_USAGE(.BOTH.,#892);
#891=SURFACE_STYLE_USAGE(.BOTH.,#893);
#892=SURFACE_SIDE_STYLE('',(#894));
#893=SURFACE_SIDE_STYLE('',(#895));
#894=SURFACE_STYLE_FILL_AREA(#896);
#895=SURFACE_STYLE_FILL_AREA(#897);
#896=FILL_AREA_STYLE('Steel - Satin',(#898));
#897=FILL_AREA_STYLE('Acrylic (Clear)',(#899));
#898=FILL_AREA_STYLE_COLOUR('Steel - Satin',#900);
#899=FILL_AREA_STYLE_COLOUR('Acrylic (Clear)',#901);
#900=COLOUR_RGB('Steel - Satin',0.627450980392157,0.627450980392157,0.627450980392157);
#901=COLOUR_RGB('Acrylic (Clear)',0.964705882352941,0.964705882352941,0.952941176470588);
ENDSEC;
END-ISO-10303-21;
