ISO-10303-21;
HEADER;
/* Generated by software containing ST-Developer
 * from STEP Tools, Inc. (www.steptools.com) 
 */

FILE_DESCRIPTION(
/* description */ (''),
/* implementation_level */ '2;1');

FILE_NAME(
/* name */ 'BasePlate_v7.step',
/* time_stamp */ '2026-08-21T09:18:06-04:00',
/* author */ (''),
/* organization */ (''),
/* preprocessor_version */ 'ST-DEVELOPER v20.1',
/* originating_system */ 'Autodesk Translation Framework v15.8.0.0',
/* authorisation */ '');

FILE_SCHEMA (('AUTOMOTIVE_DESIGN { 1 0 10303 214 3 1 1 }'));
ENDSEC;

DATA;
#10=MECHANICAL_DESIGN_GEOMETRIC_PRESENTATION_REPRESENTATION('',(#13),#1723);
#11=SHAPE_REPRESENTATION_RELATIONSHIP('SRR','None',#1730,#12);
#12=ADVANCED_BREP_SHAPE_REPRESENTATION('',(#14),#1722);
#13=STYLED_ITEM('',(#1740),#14);
#14=MANIFOLD_SOLID_BREP('Body1',#1071);
#15=FACE_BOUND('',#137,.T.);
#16=FACE_BOUND('',#138,.T.);
#17=FACE_BOUND('',#139,.T.);
#18=FACE_BOUND('',#140,.T.);
#19=FACE_BOUND('',#141,.T.);
#20=FACE_BOUND('',#142,.T.);
#21=FACE_BOUND('',#143,.T.);
#22=FACE_BOUND('',#144,.T.);
#23=FACE_BOUND('',#145,.T.);
#24=FACE_BOUND('',#146,.T.);
#25=FACE_BOUND('',#147,.T.);
#26=FACE_BOUND('',#148,.T.);
#27=FACE_BOUND('',#149,.T.);
#28=FACE_BOUND('',#150,.T.);
#29=FACE_BOUND('',#151,.T.);
#30=FACE_BOUND('',#152,.T.);
#31=FACE_BOUND('',#201,.T.);
#32=FACE_BOUND('',#202,.T.);
#33=FACE_BOUND('',#203,.T.);
#34=FACE_BOUND('',#204,.T.);
#35=FACE_BOUND('',#205,.T.);
#36=FACE_BOUND('',#206,.T.);
#37=FACE_BOUND('',#207,.T.);
#38=FACE_BOUND('',#208,.T.);
#39=FACE_BOUND('',#209,.T.);
#40=FACE_BOUND('',#210,.T.);
#41=FACE_BOUND('',#211,.T.);
#42=FACE_BOUND('',#212,.T.);
#43=FACE_BOUND('',#213,.T.);
#44=FACE_BOUND('',#214,.T.);
#45=FACE_BOUND('',#215,.T.);
#46=FACE_BOUND('',#216,.T.);
#47=PLANE('',#1088);
#48=PLANE('',#1100);
#49=PLANE('',#1105);
#50=PLANE('',#1108);
#51=PLANE('',#1109);
#52=PLANE('',#1110);
#53=PLANE('',#1111);
#54=PLANE('',#1120);
#55=PLANE('',#1121);
#56=PLANE('',#1122);
#57=PLANE('',#1123);
#58=PLANE('',#1124);
#59=PLANE('',#1125);
#60=PLANE('',#1126);
#61=PLANE('',#1127);
#62=PLANE('',#1136);
#63=PLANE('',#1137);
#64=PLANE('',#1138);
#65=PLANE('',#1139);
#66=PLANE('',#1140);
#67=PLANE('',#1141);
#68=PLANE('',#1142);
#69=PLANE('',#1143);
#70=PLANE('',#1144);
#71=PLANE('',#1145);
#72=PLANE('',#1146);
#73=PLANE('',#1147);
#74=PLANE('',#1148);
#75=PLANE('',#1149);
#76=PLANE('',#1150);
#77=PLANE('',#1151);
#78=PLANE('',#1152);
#79=PLANE('',#1153);
#80=PLANE('',#1154);
#81=PLANE('',#1155);
#82=PLANE('',#1156);
#83=PLANE('',#1157);
#84=PLANE('',#1158);
#85=FACE_OUTER_BOUND('',#135,.T.);
#86=FACE_OUTER_BOUND('',#136,.T.);
#87=FACE_OUTER_BOUND('',#153,.T.);
#88=FACE_OUTER_BOUND('',#154,.T.);
#89=FACE_OUTER_BOUND('',#155,.T.);
#90=FACE_OUTER_BOUND('',#156,.T.);
#91=FACE_OUTER_BOUND('',#157,.T.);
#92=FACE_OUTER_BOUND('',#158,.T.);
#93=FACE_OUTER_BOUND('',#159,.T.);
#94=FACE_OUTER_BOUND('',#160,.T.);
#95=FACE_OUTER_BOUND('',#161,.T.);
#96=FACE_OUTER_BOUND('',#162,.T.);
#97=FACE_OUTER_BOUND('',#163,.T.);
#98=FACE_OUTER_BOUND('',#164,.T.);
#99=FACE_OUTER_BOUND('',#165,.T.);
#100=FACE_OUTER_BOUND('',#166,.T.);
#101=FACE_OUTER_BOUND('',#167,.T.);
#102=FACE_OUTER_BOUND('',#168,.T.);
#103=FACE_OUTER_BOUND('',#169,.T.);
#104=FACE_OUTER_BOUND('',#170,.T.);
#105=FACE_OUTER_BOUND('',#171,.T.);
#106=FACE_OUTER_BOUND('',#172,.T.);
#107=FACE_OUTER_BOUND('',#173,.T.);
#108=FACE_OUTER_BOUND('',#174,.T.);
#109=FACE_OUTER_BOUND('',#175,.T.);
#110=FACE_OUTER_BOUND('',#176,.T.);
#111=FACE_OUTER_BOUND('',#177,.T.);
#112=FACE_OUTER_BOUND('',#178,.T.);
#113=FACE_OUTER_BOUND('',#179,.T.);
#114=FACE_OUTER_BOUND('',#180,.T.);
#115=FACE_OUTER_BOUND('',#181,.T.);
#116=FACE_OUTER_BOUND('',#182,.T.);
#117=FACE_OUTER_BOUND('',#183,.T.);
#118=FACE_OUTER_BOUND('',#184,.T.);
#119=FACE_OUTER_BOUND('',#185,.T.);
#120=FACE_OUTER_BOUND('',#186,.T.);
#121=FACE_OUTER_BOUND('',#187,.T.);
#122=FACE_OUTER_BOUND('',#188,.T.);
#123=FACE_OUTER_BOUND('',#189,.T.);
#124=FACE_OUTER_BOUND('',#190,.T.);
#125=FACE_OUTER_BOUND('',#191,.T.);
#126=FACE_OUTER_BOUND('',#192,.T.);
#127=FACE_OUTER_BOUND('',#193,.T.);
#128=FACE_OUTER_BOUND('',#194,.T.);
#129=FACE_OUTER_BOUND('',#195,.T.);
#130=FACE_OUTER_BOUND('',#196,.T.);
#131=FACE_OUTER_BOUND('',#197,.T.);
#132=FACE_OUTER_BOUND('',#198,.T.);
#133=FACE_OUTER_BOUND('',#199,.T.);
#134=FACE_OUTER_BOUND('',#200,.T.);
#135=EDGE_LOOP('',(#721,#722,#723,#724));
#136=EDGE_LOOP('',(#725,#726,#727,#728,#729,#730,#731,#732));
#137=EDGE_LOOP('',(#733,#734,#735,#736));
#138=EDGE_LOOP('',(#737,#738,#739,#740));
#139=EDGE_LOOP('',(#741,#742,#743,#744));
#140=EDGE_LOOP('',(#745,#746,#747,#748));
#141=EDGE_LOOP('',(#749,#750,#751,#752));
#142=EDGE_LOOP('',(#753));
#143=EDGE_LOOP('',(#754));
#144=EDGE_LOOP('',(#755));
#145=EDGE_LOOP('',(#756));
#146=EDGE_LOOP('',(#757,#758,#759,#760));
#147=EDGE_LOOP('',(#761,#762,#763,#764));
#148=EDGE_LOOP('',(#765));
#149=EDGE_LOOP('',(#766));
#150=EDGE_LOOP('',(#767));
#151=EDGE_LOOP('',(#768));
#152=EDGE_LOOP('',(#769,#770,#771,#772));
#153=EDGE_LOOP('',(#773,#774,#775,#776));
#154=EDGE_LOOP('',(#777,#778,#779,#780));
#155=EDGE_LOOP('',(#781,#782,#783,#784));
#156=EDGE_LOOP('',(#785,#786,#787,#788));
#157=EDGE_LOOP('',(#789,#790,#791,#792));
#158=EDGE_LOOP('',(#793,#794,#795,#796));
#159=EDGE_LOOP('',(#797,#798,#799,#800));
#160=EDGE_LOOP('',(#801,#802,#803,#804));
#161=EDGE_LOOP('',(#805,#806,#807,#808));
#162=EDGE_LOOP('',(#809,#810,#811,#812));
#163=EDGE_LOOP('',(#813,#814,#815,#816));
#164=EDGE_LOOP('',(#817,#818,#819,#820));
#165=EDGE_LOOP('',(#821,#822,#823,#824));
#166=EDGE_LOOP('',(#825,#826,#827,#828));
#167=EDGE_LOOP('',(#829,#830,#831,#832));
#168=EDGE_LOOP('',(#833,#834,#835,#836));
#169=EDGE_LOOP('',(#837,#838,#839,#840));
#170=EDGE_LOOP('',(#841,#842,#843,#844));
#171=EDGE_LOOP('',(#845,#846,#847,#848));
#172=EDGE_LOOP('',(#849,#850,#851,#852));
#173=EDGE_LOOP('',(#853,#854,#855,#856));
#174=EDGE_LOOP('',(#857,#858,#859,#860));
#175=EDGE_LOOP('',(#861,#862,#863,#864));
#176=EDGE_LOOP('',(#865,#866,#867,#868));
#177=EDGE_LOOP('',(#869,#870,#871,#872));
#178=EDGE_LOOP('',(#873,#874,#875,#876));
#179=EDGE_LOOP('',(#877,#878,#879,#880));
#180=EDGE_LOOP('',(#881,#882,#883,#884));
#181=EDGE_LOOP('',(#885,#886,#887,#888));
#182=EDGE_LOOP('',(#889,#890,#891,#892));
#183=EDGE_LOOP('',(#893,#894,#895,#896));
#184=EDGE_LOOP('',(#897,#898,#899,#900));
#185=EDGE_LOOP('',(#901,#902,#903,#904));
#186=EDGE_LOOP('',(#905,#906,#907,#908));
#187=EDGE_LOOP('',(#909,#910,#911,#912));
#188=EDGE_LOOP('',(#913,#914,#915,#916));
#189=EDGE_LOOP('',(#917,#918,#919,#920));
#190=EDGE_LOOP('',(#921,#922,#923,#924));
#191=EDGE_LOOP('',(#925,#926,#927,#928));
#192=EDGE_LOOP('',(#929,#930,#931,#932));
#193=EDGE_LOOP('',(#933,#934,#935,#936));
#194=EDGE_LOOP('',(#937,#938,#939,#940));
#195=EDGE_LOOP('',(#941,#942,#943,#944));
#196=EDGE_LOOP('',(#945,#946,#947,#948));
#197=EDGE_LOOP('',(#949,#950,#951,#952));
#198=EDGE_LOOP('',(#953,#954,#955,#956));
#199=EDGE_LOOP('',(#957,#958,#959,#960));
#200=EDGE_LOOP('',(#961,#962,#963,#964,#965,#966,#967,#968));
#201=EDGE_LOOP('',(#969,#970,#971,#972));
#202=EDGE_LOOP('',(#973,#974,#975,#976));
#203=EDGE_LOOP('',(#977,#978,#979,#980));
#204=EDGE_LOOP('',(#981,#982,#983,#984));
#205=EDGE_LOOP('',(#985,#986,#987,#988));
#206=EDGE_LOOP('',(#989));
#207=EDGE_LOOP('',(#990));
#208=EDGE_LOOP('',(#991));
#209=EDGE_LOOP('',(#992));
#210=EDGE_LOOP('',(#993,#994,#995,#996));
#211=EDGE_LOOP('',(#997,#998,#999,#1000));
#212=EDGE_LOOP('',(#1001));
#213=EDGE_LOOP('',(#1002));
#214=EDGE_LOOP('',(#1003));
#215=EDGE_LOOP('',(#1004));
#216=EDGE_LOOP('',(#1005,#1006,#1007,#1008));
#217=LINE('',#1435,#337);
#218=LINE('',#1438,#338);
#219=LINE('',#1441,#339);
#220=LINE('',#1445,#340);
#221=LINE('',#1449,#341);
#222=LINE('',#1452,#342);
#223=LINE('',#1455,#343);
#224=LINE('',#1457,#344);
#225=LINE('',#1459,#345);
#226=LINE('',#1460,#346);
#227=LINE('',#1463,#347);
#228=LINE('',#1465,#348);
#229=LINE('',#1467,#349);
#230=LINE('',#1468,#350);
#231=LINE('',#1471,#351);
#232=LINE('',#1473,#352);
#233=LINE('',#1475,#353);
#234=LINE('',#1476,#354);
#235=LINE('',#1479,#355);
#236=LINE('',#1481,#356);
#237=LINE('',#1483,#357);
#238=LINE('',#1484,#358);
#239=LINE('',#1487,#359);
#240=LINE('',#1489,#360);
#241=LINE('',#1491,#361);
#242=LINE('',#1492,#362);
#243=LINE('',#1503,#363);
#244=LINE('',#1505,#364);
#245=LINE('',#1507,#365);
#246=LINE('',#1508,#366);
#247=LINE('',#1511,#367);
#248=LINE('',#1513,#368);
#249=LINE('',#1515,#369);
#250=LINE('',#1516,#370);
#251=LINE('',#1527,#371);
#252=LINE('',#1529,#372);
#253=LINE('',#1531,#373);
#254=LINE('',#1532,#374);
#255=LINE('',#1535,#375);
#256=LINE('',#1536,#376);
#257=LINE('',#1540,#377);
#258=LINE('',#1545,#378);
#259=LINE('',#1546,#379);
#260=LINE('',#1549,#380);
#261=LINE('',#1550,#381);
#262=LINE('',#1554,#382);
#263=LINE('',#1557,#383);
#264=LINE('',#1559,#384);
#265=LINE('',#1560,#385);
#266=LINE('',#1563,#386);
#267=LINE('',#1564,#387);
#268=LINE('',#1567,#388);
#269=LINE('',#1568,#389);
#270=LINE('',#1570,#390);
#271=LINE('',#1573,#391);
#272=LINE('',#1577,#392);
#273=LINE('',#1581,#393);
#274=LINE('',#1585,#394);
#275=LINE('',#1589,#395);
#276=LINE('',#1591,#396);
#277=LINE('',#1592,#397);
#278=LINE('',#1595,#398);
#279=LINE('',#1596,#399);
#280=LINE('',#1599,#400);
#281=LINE('',#1600,#401);
#282=LINE('',#1602,#402);
#283=LINE('',#1605,#403);
#284=LINE('',#1607,#404);
#285=LINE('',#1608,#405);
#286=LINE('',#1611,#406);
#287=LINE('',#1612,#407);
#288=LINE('',#1615,#408);
#289=LINE('',#1616,#409);
#290=LINE('',#1618,#410);
#291=LINE('',#1621,#411);
#292=LINE('',#1625,#412);
#293=LINE('',#1629,#413);
#294=LINE('',#1633,#414);
#295=LINE('',#1637,#415);
#296=LINE('',#1639,#416);
#297=LINE('',#1640,#417);
#298=LINE('',#1643,#418);
#299=LINE('',#1644,#419);
#300=LINE('',#1647,#420);
#301=LINE('',#1648,#421);
#302=LINE('',#1650,#422);
#303=LINE('',#1653,#423);
#304=LINE('',#1655,#424);
#305=LINE('',#1656,#425);
#306=LINE('',#1659,#426);
#307=LINE('',#1660,#427);
#308=LINE('',#1663,#428);
#309=LINE('',#1664,#429);
#310=LINE('',#1666,#430);
#311=LINE('',#1669,#431);
#312=LINE('',#1671,#432);
#313=LINE('',#1672,#433);
#314=LINE('',#1675,#434);
#315=LINE('',#1676,#435);
#316=LINE('',#1679,#436);
#317=LINE('',#1680,#437);
#318=LINE('',#1682,#438);
#319=LINE('',#1685,#439);
#320=LINE('',#1687,#440);
#321=LINE('',#1688,#441);
#322=LINE('',#1691,#442);
#323=LINE('',#1692,#443);
#324=LINE('',#1695,#444);
#325=LINE('',#1696,#445);
#326=LINE('',#1698,#446);
#327=LINE('',#1701,#447);
#328=LINE('',#1703,#448);
#329=LINE('',#1704,#449);
#330=LINE('',#1707,#450);
#331=LINE('',#1708,#451);
#332=LINE('',#1711,#452);
#333=LINE('',#1712,#453);
#334=LINE('',#1714,#454);
#335=LINE('',#1716,#455);
#336=LINE('',#1718,#456);
#337=VECTOR('',#1165,10.);
#338=VECTOR('',#1168,10.);
#339=VECTOR('',#1171,10.);
#340=VECTOR('',#1174,10.);
#341=VECTOR('',#1177,10.);
#342=VECTOR('',#1180,10.);
#343=VECTOR('',#1181,10.);
#344=VECTOR('',#1182,10.);
#345=VECTOR('',#1183,10.);
#346=VECTOR('',#1184,10.);
#347=VECTOR('',#1185,10.);
#348=VECTOR('',#1186,10.);
#349=VECTOR('',#1187,10.);
#350=VECTOR('',#1188,10.);
#351=VECTOR('',#1189,10.);
#352=VECTOR('',#1190,10.);
#353=VECTOR('',#1191,10.);
#354=VECTOR('',#1192,10.);
#355=VECTOR('',#1193,10.);
#356=VECTOR('',#1194,10.);
#357=VECTOR('',#1195,10.);
#358=VECTOR('',#1196,10.);
#359=VECTOR('',#1197,10.);
#360=VECTOR('',#1198,10.);
#361=VECTOR('',#1199,10.);
#362=VECTOR('',#1200,10.);
#363=VECTOR('',#1209,10.);
#364=VECTOR('',#1210,10.);
#365=VECTOR('',#1211,10.);
#366=VECTOR('',#1212,10.);
#367=VECTOR('',#1213,10.);
#368=VECTOR('',#1214,10.);
#369=VECTOR('',#1215,10.);
#370=VECTOR('',#1216,10.);
#371=VECTOR('',#1225,10.);
#372=VECTOR('',#1226,10.);
#373=VECTOR('',#1227,10.);
#374=VECTOR('',#1228,10.);
#375=VECTOR('',#1231,10.);
#376=VECTOR('',#1232,10.);
#377=VECTOR('',#1237,10.);
#378=VECTOR('',#1242,10.);
#379=VECTOR('',#1243,10.);
#380=VECTOR('',#1246,10.);
#381=VECTOR('',#1247,10.);
#382=VECTOR('',#1252,10.);
#383=VECTOR('',#1255,10.);
#384=VECTOR('',#1256,10.);
#385=VECTOR('',#1257,10.);
#386=VECTOR('',#1260,10.);
#387=VECTOR('',#1261,10.);
#388=VECTOR('',#1264,10.);
#389=VECTOR('',#1265,10.);
#390=VECTOR('',#1268,10.);
#391=VECTOR('',#1271,1.25);
#392=VECTOR('',#1276,1.25);
#393=VECTOR('',#1281,1.25);
#394=VECTOR('',#1286,1.25);
#395=VECTOR('',#1291,10.);
#396=VECTOR('',#1292,10.);
#397=VECTOR('',#1293,10.);
#398=VECTOR('',#1296,10.);
#399=VECTOR('',#1297,10.);
#400=VECTOR('',#1300,10.);
#401=VECTOR('',#1301,10.);
#402=VECTOR('',#1304,10.);
#403=VECTOR('',#1307,10.);
#404=VECTOR('',#1308,10.);
#405=VECTOR('',#1309,10.);
#406=VECTOR('',#1312,10.);
#407=VECTOR('',#1313,10.);
#408=VECTOR('',#1316,10.);
#409=VECTOR('',#1317,10.);
#410=VECTOR('',#1320,10.);
#411=VECTOR('',#1323,1.25);
#412=VECTOR('',#1328,1.25);
#413=VECTOR('',#1333,1.25);
#414=VECTOR('',#1338,1.25);
#415=VECTOR('',#1343,10.);
#416=VECTOR('',#1344,10.);
#417=VECTOR('',#1345,10.);
#418=VECTOR('',#1348,10.);
#419=VECTOR('',#1349,10.);
#420=VECTOR('',#1352,10.);
#421=VECTOR('',#1353,10.);
#422=VECTOR('',#1356,10.);
#423=VECTOR('',#1359,10.);
#424=VECTOR('',#1360,10.);
#425=VECTOR('',#1361,10.);
#426=VECTOR('',#1364,10.);
#427=VECTOR('',#1365,10.);
#428=VECTOR('',#1368,10.);
#429=VECTOR('',#1369,10.);
#430=VECTOR('',#1372,10.);
#431=VECTOR('',#1375,10.);
#432=VECTOR('',#1376,10.);
#433=VECTOR('',#1377,10.);
#434=VECTOR('',#1380,10.);
#435=VECTOR('',#1381,10.);
#436=VECTOR('',#1384,10.);
#437=VECTOR('',#1385,10.);
#438=VECTOR('',#1388,10.);
#439=VECTOR('',#1391,10.);
#440=VECTOR('',#1392,10.);
#441=VECTOR('',#1393,10.);
#442=VECTOR('',#1396,10.);
#443=VECTOR('',#1397,10.);
#444=VECTOR('',#1400,10.);
#445=VECTOR('',#1401,10.);
#446=VECTOR('',#1404,10.);
#447=VECTOR('',#1407,10.);
#448=VECTOR('',#1408,10.);
#449=VECTOR('',#1409,10.);
#450=VECTOR('',#1412,10.);
#451=VECTOR('',#1413,10.);
#452=VECTOR('',#1416,10.);
#453=VECTOR('',#1417,10.);
#454=VECTOR('',#1420,10.);
#455=VECTOR('',#1423,10.);
#456=VECTOR('',#1426,10.);
#457=CIRCLE('',#1086,40.);
#458=CIRCLE('',#1087,40.);
#459=CIRCLE('',#1089,40.);
#460=CIRCLE('',#1090,40.);
#461=CIRCLE('',#1091,40.);
#462=CIRCLE('',#1092,1.25);
#463=CIRCLE('',#1093,1.25);
#464=CIRCLE('',#1094,1.25);
#465=CIRCLE('',#1095,1.25);
#466=CIRCLE('',#1096,1.25);
#467=CIRCLE('',#1097,1.25);
#468=CIRCLE('',#1098,1.25);
#469=CIRCLE('',#1099,1.25);
#470=CIRCLE('',#1102,40.);
#471=CIRCLE('',#1104,40.);
#472=CIRCLE('',#1107,40.);
#473=CIRCLE('',#1113,1.25);
#474=CIRCLE('',#1115,1.25);
#475=CIRCLE('',#1117,1.25);
#476=CIRCLE('',#1119,1.25);
#477=CIRCLE('',#1129,1.25);
#478=CIRCLE('',#1131,1.25);
#479=CIRCLE('',#1133,1.25);
#480=CIRCLE('',#1135,1.25);
#481=VERTEX_POINT('',#1431);
#482=VERTEX_POINT('',#1432);
#483=VERTEX_POINT('',#1434);
#484=VERTEX_POINT('',#1436);
#485=VERTEX_POINT('',#1440);
#486=VERTEX_POINT('',#1442);
#487=VERTEX_POINT('',#1444);
#488=VERTEX_POINT('',#1446);
#489=VERTEX_POINT('',#1448);
#490=VERTEX_POINT('',#1450);
#491=VERTEX_POINT('',#1453);
#492=VERTEX_POINT('',#1454);
#493=VERTEX_POINT('',#1456);
#494=VERTEX_POINT('',#1458);
#495=VERTEX_POINT('',#1461);
#496=VERTEX_POINT('',#1462);
#497=VERTEX_POINT('',#1464);
#498=VERTEX_POINT('',#1466);
#499=VERTEX_POINT('',#1469);
#500=VERTEX_POINT('',#1470);
#501=VERTEX_POINT('',#1472);
#502=VERTEX_POINT('',#1474);
#503=VERTEX_POINT('',#1477);
#504=VERTEX_POINT('',#1478);
#505=VERTEX_POINT('',#1480);
#506=VERTEX_POINT('',#1482);
#507=VERTEX_POINT('',#1485);
#508=VERTEX_POINT('',#1486);
#509=VERTEX_POINT('',#1488);
#510=VERTEX_POINT('',#1490);
#511=VERTEX_POINT('',#1493);
#512=VERTEX_POINT('',#1495);
#513=VERTEX_POINT('',#1497);
#514=VERTEX_POINT('',#1499);
#515=VERTEX_POINT('',#1501);
#516=VERTEX_POINT('',#1502);
#517=VERTEX_POINT('',#1504);
#518=VERTEX_POINT('',#1506);
#519=VERTEX_POINT('',#1509);
#520=VERTEX_POINT('',#1510);
#521=VERTEX_POINT('',#1512);
#522=VERTEX_POINT('',#1514);
#523=VERTEX_POINT('',#1517);
#524=VERTEX_POINT('',#1519);
#525=VERTEX_POINT('',#1521);
#526=VERTEX_POINT('',#1523);
#527=VERTEX_POINT('',#1525);
#528=VERTEX_POINT('',#1526);
#529=VERTEX_POINT('',#1528);
#530=VERTEX_POINT('',#1530);
#531=VERTEX_POINT('',#1534);
#532=VERTEX_POINT('',#1538);
#533=VERTEX_POINT('',#1542);
#534=VERTEX_POINT('',#1543);
#535=VERTEX_POINT('',#1548);
#536=VERTEX_POINT('',#1552);
#537=VERTEX_POINT('',#1556);
#538=VERTEX_POINT('',#1558);
#539=VERTEX_POINT('',#1562);
#540=VERTEX_POINT('',#1566);
#541=VERTEX_POINT('',#1572);
#542=VERTEX_POINT('',#1576);
#543=VERTEX_POINT('',#1580);
#544=VERTEX_POINT('',#1584);
#545=VERTEX_POINT('',#1588);
#546=VERTEX_POINT('',#1590);
#547=VERTEX_POINT('',#1594);
#548=VERTEX_POINT('',#1598);
#549=VERTEX_POINT('',#1604);
#550=VERTEX_POINT('',#1606);
#551=VERTEX_POINT('',#1610);
#552=VERTEX_POINT('',#1614);
#553=VERTEX_POINT('',#1620);
#554=VERTEX_POINT('',#1624);
#555=VERTEX_POINT('',#1628);
#556=VERTEX_POINT('',#1632);
#557=VERTEX_POINT('',#1636);
#558=VERTEX_POINT('',#1638);
#559=VERTEX_POINT('',#1642);
#560=VERTEX_POINT('',#1646);
#561=VERTEX_POINT('',#1652);
#562=VERTEX_POINT('',#1654);
#563=VERTEX_POINT('',#1658);
#564=VERTEX_POINT('',#1662);
#565=VERTEX_POINT('',#1668);
#566=VERTEX_POINT('',#1670);
#567=VERTEX_POINT('',#1674);
#568=VERTEX_POINT('',#1678);
#569=VERTEX_POINT('',#1684);
#570=VERTEX_POINT('',#1686);
#571=VERTEX_POINT('',#1690);
#572=VERTEX_POINT('',#1694);
#573=VERTEX_POINT('',#1700);
#574=VERTEX_POINT('',#1702);
#575=VERTEX_POINT('',#1706);
#576=VERTEX_POINT('',#1710);
#577=EDGE_CURVE('',#481,#482,#457,.T.);
#578=EDGE_CURVE('',#482,#483,#217,.T.);
#579=EDGE_CURVE('',#483,#484,#458,.T.);
#580=EDGE_CURVE('',#484,#481,#218,.T.);
#581=EDGE_CURVE('',#483,#485,#219,.T.);
#582=EDGE_CURVE('',#486,#485,#459,.T.);
#583=EDGE_CURVE('',#486,#487,#220,.T.);
#584=EDGE_CURVE('',#488,#487,#460,.T.);
#585=EDGE_CURVE('',#488,#489,#221,.T.);
#586=EDGE_CURVE('',#490,#489,#461,.T.);
#587=EDGE_CURVE('',#490,#484,#222,.T.);
#588=EDGE_CURVE('',#491,#492,#223,.T.);
#589=EDGE_CURVE('',#493,#491,#224,.T.);
#590=EDGE_CURVE('',#494,#493,#225,.T.);
#591=EDGE_CURVE('',#492,#494,#226,.T.);
#592=EDGE_CURVE('',#495,#496,#227,.T.);
#593=EDGE_CURVE('',#497,#495,#228,.T.);
#594=EDGE_CURVE('',#498,#497,#229,.T.);
#595=EDGE_CURVE('',#496,#498,#230,.T.);
#596=EDGE_CURVE('',#499,#500,#231,.T.);
#597=EDGE_CURVE('',#501,#499,#232,.T.);
#598=EDGE_CURVE('',#502,#501,#233,.T.);
#599=EDGE_CURVE('',#500,#502,#234,.T.);
#600=EDGE_CURVE('',#503,#504,#235,.T.);
#601=EDGE_CURVE('',#505,#503,#236,.T.);
#602=EDGE_CURVE('',#506,#505,#237,.T.);
#603=EDGE_CURVE('',#504,#506,#238,.T.);
#604=EDGE_CURVE('',#507,#508,#239,.T.);
#605=EDGE_CURVE('',#508,#509,#240,.T.);
#606=EDGE_CURVE('',#509,#510,#241,.T.);
#607=EDGE_CURVE('',#510,#507,#242,.T.);
#608=EDGE_CURVE('',#511,#511,#462,.T.);
#609=EDGE_CURVE('',#512,#512,#463,.T.);
#610=EDGE_CURVE('',#513,#513,#464,.T.);
#611=EDGE_CURVE('',#514,#514,#465,.T.);
#612=EDGE_CURVE('',#515,#516,#243,.T.);
#613=EDGE_CURVE('',#516,#517,#244,.T.);
#614=EDGE_CURVE('',#517,#518,#245,.T.);
#615=EDGE_CURVE('',#518,#515,#246,.T.);
#616=EDGE_CURVE('',#519,#520,#247,.T.);
#617=EDGE_CURVE('',#520,#521,#248,.T.);
#618=EDGE_CURVE('',#521,#522,#249,.T.);
#619=EDGE_CURVE('',#522,#519,#250,.T.);
#620=EDGE_CURVE('',#523,#523,#466,.T.);
#621=EDGE_CURVE('',#524,#524,#467,.T.);
#622=EDGE_CURVE('',#525,#525,#468,.T.);
#623=EDGE_CURVE('',#526,#526,#469,.T.);
#624=EDGE_CURVE('',#527,#528,#251,.T.);
#625=EDGE_CURVE('',#528,#529,#252,.T.);
#626=EDGE_CURVE('',#529,#530,#253,.T.);
#627=EDGE_CURVE('',#530,#527,#254,.T.);
#628=EDGE_CURVE('',#531,#482,#255,.T.);
#629=EDGE_CURVE('',#485,#531,#256,.T.);
#630=EDGE_CURVE('',#531,#532,#470,.T.);
#631=EDGE_CURVE('',#532,#486,#257,.T.);
#632=EDGE_CURVE('',#533,#534,#471,.T.);
#633=EDGE_CURVE('',#534,#490,#258,.T.);
#634=EDGE_CURVE('',#489,#533,#259,.T.);
#635=EDGE_CURVE('',#535,#488,#260,.T.);
#636=EDGE_CURVE('',#533,#535,#261,.T.);
#637=EDGE_CURVE('',#536,#535,#472,.T.);
#638=EDGE_CURVE('',#487,#536,#262,.T.);
#639=EDGE_CURVE('',#527,#537,#263,.T.);
#640=EDGE_CURVE('',#538,#537,#264,.T.);
#641=EDGE_CURVE('',#528,#538,#265,.T.);
#642=EDGE_CURVE('',#530,#539,#266,.T.);
#643=EDGE_CURVE('',#537,#539,#267,.T.);
#644=EDGE_CURVE('',#529,#540,#268,.T.);
#645=EDGE_CURVE('',#539,#540,#269,.T.);
#646=EDGE_CURVE('',#540,#538,#270,.T.);
#647=EDGE_CURVE('',#526,#541,#271,.T.);
#648=EDGE_CURVE('',#541,#541,#473,.T.);
#649=EDGE_CURVE('',#525,#542,#272,.T.);
#650=EDGE_CURVE('',#542,#542,#474,.T.);
#651=EDGE_CURVE('',#524,#543,#273,.T.);
#652=EDGE_CURVE('',#543,#543,#475,.T.);
#653=EDGE_CURVE('',#523,#544,#274,.T.);
#654=EDGE_CURVE('',#544,#544,#476,.T.);
#655=EDGE_CURVE('',#519,#545,#275,.T.);
#656=EDGE_CURVE('',#546,#545,#276,.T.);
#657=EDGE_CURVE('',#520,#546,#277,.T.);
#658=EDGE_CURVE('',#522,#547,#278,.T.);
#659=EDGE_CURVE('',#545,#547,#279,.T.);
#660=EDGE_CURVE('',#521,#548,#280,.T.);
#661=EDGE_CURVE('',#547,#548,#281,.T.);
#662=EDGE_CURVE('',#548,#546,#282,.T.);
#663=EDGE_CURVE('',#515,#549,#283,.T.);
#664=EDGE_CURVE('',#550,#549,#284,.T.);
#665=EDGE_CURVE('',#516,#550,#285,.T.);
#666=EDGE_CURVE('',#518,#551,#286,.T.);
#667=EDGE_CURVE('',#549,#551,#287,.T.);
#668=EDGE_CURVE('',#517,#552,#288,.T.);
#669=EDGE_CURVE('',#551,#552,#289,.T.);
#670=EDGE_CURVE('',#552,#550,#290,.T.);
#671=EDGE_CURVE('',#514,#553,#291,.T.);
#672=EDGE_CURVE('',#553,#553,#477,.T.);
#673=EDGE_CURVE('',#513,#554,#292,.T.);
#674=EDGE_CURVE('',#554,#554,#478,.T.);
#675=EDGE_CURVE('',#512,#555,#293,.T.);
#676=EDGE_CURVE('',#555,#555,#479,.T.);
#677=EDGE_CURVE('',#511,#556,#294,.T.);
#678=EDGE_CURVE('',#556,#556,#480,.T.);
#679=EDGE_CURVE('',#507,#557,#295,.T.);
#680=EDGE_CURVE('',#558,#557,#296,.T.);
#681=EDGE_CURVE('',#508,#558,#297,.T.);
#682=EDGE_CURVE('',#510,#559,#298,.T.);
#683=EDGE_CURVE('',#557,#559,#299,.T.);
#684=EDGE_CURVE('',#509,#560,#300,.T.);
#685=EDGE_CURVE('',#559,#560,#301,.T.);
#686=EDGE_CURVE('',#560,#558,#302,.T.);
#687=EDGE_CURVE('',#491,#561,#303,.T.);
#688=EDGE_CURVE('',#562,#561,#304,.T.);
#689=EDGE_CURVE('',#493,#562,#305,.T.);
#690=EDGE_CURVE('',#563,#562,#306,.T.);
#691=EDGE_CURVE('',#494,#563,#307,.T.);
#692=EDGE_CURVE('',#564,#563,#308,.T.);
#693=EDGE_CURVE('',#492,#564,#309,.T.);
#694=EDGE_CURVE('',#561,#564,#310,.T.);
#695=EDGE_CURVE('',#495,#565,#311,.T.);
#696=EDGE_CURVE('',#566,#565,#312,.T.);
#697=EDGE_CURVE('',#497,#566,#313,.T.);
#698=EDGE_CURVE('',#567,#566,#314,.T.);
#699=EDGE_CURVE('',#498,#567,#315,.T.);
#700=EDGE_CURVE('',#568,#567,#316,.T.);
#701=EDGE_CURVE('',#496,#568,#317,.T.);
#702=EDGE_CURVE('',#565,#568,#318,.T.);
#703=EDGE_CURVE('',#499,#569,#319,.T.);
#704=EDGE_CURVE('',#570,#569,#320,.T.);
#705=EDGE_CURVE('',#501,#570,#321,.T.);
#706=EDGE_CURVE('',#571,#570,#322,.T.);
#707=EDGE_CURVE('',#502,#571,#323,.T.);
#708=EDGE_CURVE('',#572,#571,#324,.T.);
#709=EDGE_CURVE('',#500,#572,#325,.T.);
#710=EDGE_CURVE('',#569,#572,#326,.T.);
#711=EDGE_CURVE('',#503,#573,#327,.T.);
#712=EDGE_CURVE('',#574,#573,#328,.T.);
#713=EDGE_CURVE('',#505,#574,#329,.T.);
#714=EDGE_CURVE('',#575,#574,#330,.T.);
#715=EDGE_CURVE('',#506,#575,#331,.T.);
#716=EDGE_CURVE('',#576,#575,#332,.T.);
#717=EDGE_CURVE('',#504,#576,#333,.T.);
#718=EDGE_CURVE('',#573,#576,#334,.T.);
#719=EDGE_CURVE('',#536,#532,#335,.T.);
#720=EDGE_CURVE('',#481,#534,#336,.T.);
#721=ORIENTED_EDGE('',*,*,#577,.T.);
#722=ORIENTED_EDGE('',*,*,#578,.T.);
#723=ORIENTED_EDGE('',*,*,#579,.T.);
#724=ORIENTED_EDGE('',*,*,#580,.T.);
#725=ORIENTED_EDGE('',*,*,#579,.F.);
#726=ORIENTED_EDGE('',*,*,#581,.T.);
#727=ORIENTED_EDGE('',*,*,#582,.F.);
#728=ORIENTED_EDGE('',*,*,#583,.T.);
#729=ORIENTED_EDGE('',*,*,#584,.F.);
#730=ORIENTED_EDGE('',*,*,#585,.T.);
#731=ORIENTED_EDGE('',*,*,#586,.F.);
#732=ORIENTED_EDGE('',*,*,#587,.T.);
#733=ORIENTED_EDGE('',*,*,#588,.F.);
#734=ORIENTED_EDGE('',*,*,#589,.F.);
#735=ORIENTED_EDGE('',*,*,#590,.F.);
#736=ORIENTED_EDGE('',*,*,#591,.F.);
#737=ORIENTED_EDGE('',*,*,#592,.F.);
#738=ORIENTED_EDGE('',*,*,#593,.F.);
#739=ORIENTED_EDGE('',*,*,#594,.F.);
#740=ORIENTED_EDGE('',*,*,#595,.F.);
#741=ORIENTED_EDGE('',*,*,#596,.F.);
#742=ORIENTED_EDGE('',*,*,#597,.F.);
#743=ORIENTED_EDGE('',*,*,#598,.F.);
#744=ORIENTED_EDGE('',*,*,#599,.F.);
#745=ORIENTED_EDGE('',*,*,#600,.F.);
#746=ORIENTED_EDGE('',*,*,#601,.F.);
#747=ORIENTED_EDGE('',*,*,#602,.F.);
#748=ORIENTED_EDGE('',*,*,#603,.F.);
#749=ORIENTED_EDGE('',*,*,#604,.T.);
#750=ORIENTED_EDGE('',*,*,#605,.T.);
#751=ORIENTED_EDGE('',*,*,#606,.T.);
#752=ORIENTED_EDGE('',*,*,#607,.T.);
#753=ORIENTED_EDGE('',*,*,#608,.T.);
#754=ORIENTED_EDGE('',*,*,#609,.T.);
#755=ORIENTED_EDGE('',*,*,#610,.T.);
#756=ORIENTED_EDGE('',*,*,#611,.T.);
#757=ORIENTED_EDGE('',*,*,#612,.T.);
#758=ORIENTED_EDGE('',*,*,#613,.T.);
#759=ORIENTED_EDGE('',*,*,#614,.T.);
#760=ORIENTED_EDGE('',*,*,#615,.T.);
#761=ORIENTED_EDGE('',*,*,#616,.T.);
#762=ORIENTED_EDGE('',*,*,#617,.T.);
#763=ORIENTED_EDGE('',*,*,#618,.T.);
#764=ORIENTED_EDGE('',*,*,#619,.T.);
#765=ORIENTED_EDGE('',*,*,#620,.T.);
#766=ORIENTED_EDGE('',*,*,#621,.T.);
#767=ORIENTED_EDGE('',*,*,#622,.T.);
#768=ORIENTED_EDGE('',*,*,#623,.T.);
#769=ORIENTED_EDGE('',*,*,#624,.T.);
#770=ORIENTED_EDGE('',*,*,#625,.T.);
#771=ORIENTED_EDGE('',*,*,#626,.T.);
#772=ORIENTED_EDGE('',*,*,#627,.T.);
#773=ORIENTED_EDGE('',*,*,#578,.F.);
#774=ORIENTED_EDGE('',*,*,#628,.F.);
#775=ORIENTED_EDGE('',*,*,#629,.F.);
#776=ORIENTED_EDGE('',*,*,#581,.F.);
#777=ORIENTED_EDGE('',*,*,#630,.T.);
#778=ORIENTED_EDGE('',*,*,#631,.T.);
#779=ORIENTED_EDGE('',*,*,#582,.T.);
#780=ORIENTED_EDGE('',*,*,#629,.T.);
#781=ORIENTED_EDGE('',*,*,#632,.T.);
#782=ORIENTED_EDGE('',*,*,#633,.T.);
#783=ORIENTED_EDGE('',*,*,#586,.T.);
#784=ORIENTED_EDGE('',*,*,#634,.T.);
#785=ORIENTED_EDGE('',*,*,#634,.F.);
#786=ORIENTED_EDGE('',*,*,#585,.F.);
#787=ORIENTED_EDGE('',*,*,#635,.F.);
#788=ORIENTED_EDGE('',*,*,#636,.F.);
#789=ORIENTED_EDGE('',*,*,#637,.T.);
#790=ORIENTED_EDGE('',*,*,#635,.T.);
#791=ORIENTED_EDGE('',*,*,#584,.T.);
#792=ORIENTED_EDGE('',*,*,#638,.T.);
#793=ORIENTED_EDGE('',*,*,#624,.F.);
#794=ORIENTED_EDGE('',*,*,#639,.T.);
#795=ORIENTED_EDGE('',*,*,#640,.F.);
#796=ORIENTED_EDGE('',*,*,#641,.F.);
#797=ORIENTED_EDGE('',*,*,#627,.F.);
#798=ORIENTED_EDGE('',*,*,#642,.T.);
#799=ORIENTED_EDGE('',*,*,#643,.F.);
#800=ORIENTED_EDGE('',*,*,#639,.F.);
#801=ORIENTED_EDGE('',*,*,#626,.F.);
#802=ORIENTED_EDGE('',*,*,#644,.T.);
#803=ORIENTED_EDGE('',*,*,#645,.F.);
#804=ORIENTED_EDGE('',*,*,#642,.F.);
#805=ORIENTED_EDGE('',*,*,#625,.F.);
#806=ORIENTED_EDGE('',*,*,#641,.T.);
#807=ORIENTED_EDGE('',*,*,#646,.F.);
#808=ORIENTED_EDGE('',*,*,#644,.F.);
#809=ORIENTED_EDGE('',*,*,#623,.F.);
#810=ORIENTED_EDGE('',*,*,#647,.T.);
#811=ORIENTED_EDGE('',*,*,#648,.F.);
#812=ORIENTED_EDGE('',*,*,#647,.F.);
#813=ORIENTED_EDGE('',*,*,#622,.F.);
#814=ORIENTED_EDGE('',*,*,#649,.T.);
#815=ORIENTED_EDGE('',*,*,#650,.F.);
#816=ORIENTED_EDGE('',*,*,#649,.F.);
#817=ORIENTED_EDGE('',*,*,#621,.F.);
#818=ORIENTED_EDGE('',*,*,#651,.T.);
#819=ORIENTED_EDGE('',*,*,#652,.F.);
#820=ORIENTED_EDGE('',*,*,#651,.F.);
#821=ORIENTED_EDGE('',*,*,#620,.F.);
#822=ORIENTED_EDGE('',*,*,#653,.T.);
#823=ORIENTED_EDGE('',*,*,#654,.F.);
#824=ORIENTED_EDGE('',*,*,#653,.F.);
#825=ORIENTED_EDGE('',*,*,#616,.F.);
#826=ORIENTED_EDGE('',*,*,#655,.T.);
#827=ORIENTED_EDGE('',*,*,#656,.F.);
#828=ORIENTED_EDGE('',*,*,#657,.F.);
#829=ORIENTED_EDGE('',*,*,#619,.F.);
#830=ORIENTED_EDGE('',*,*,#658,.T.);
#831=ORIENTED_EDGE('',*,*,#659,.F.);
#832=ORIENTED_EDGE('',*,*,#655,.F.);
#833=ORIENTED_EDGE('',*,*,#618,.F.);
#834=ORIENTED_EDGE('',*,*,#660,.T.);
#835=ORIENTED_EDGE('',*,*,#661,.F.);
#836=ORIENTED_EDGE('',*,*,#658,.F.);
#837=ORIENTED_EDGE('',*,*,#617,.F.);
#838=ORIENTED_EDGE('',*,*,#657,.T.);
#839=ORIENTED_EDGE('',*,*,#662,.F.);
#840=ORIENTED_EDGE('',*,*,#660,.F.);
#841=ORIENTED_EDGE('',*,*,#612,.F.);
#842=ORIENTED_EDGE('',*,*,#663,.T.);
#843=ORIENTED_EDGE('',*,*,#664,.F.);
#844=ORIENTED_EDGE('',*,*,#665,.F.);
#845=ORIENTED_EDGE('',*,*,#615,.F.);
#846=ORIENTED_EDGE('',*,*,#666,.T.);
#847=ORIENTED_EDGE('',*,*,#667,.F.);
#848=ORIENTED_EDGE('',*,*,#663,.F.);
#849=ORIENTED_EDGE('',*,*,#614,.F.);
#850=ORIENTED_EDGE('',*,*,#668,.T.);
#851=ORIENTED_EDGE('',*,*,#669,.F.);
#852=ORIENTED_EDGE('',*,*,#666,.F.);
#853=ORIENTED_EDGE('',*,*,#613,.F.);
#854=ORIENTED_EDGE('',*,*,#665,.T.);
#855=ORIENTED_EDGE('',*,*,#670,.F.);
#856=ORIENTED_EDGE('',*,*,#668,.F.);
#857=ORIENTED_EDGE('',*,*,#611,.F.);
#858=ORIENTED_EDGE('',*,*,#671,.T.);
#859=ORIENTED_EDGE('',*,*,#672,.F.);
#860=ORIENTED_EDGE('',*,*,#671,.F.);
#861=ORIENTED_EDGE('',*,*,#610,.F.);
#862=ORIENTED_EDGE('',*,*,#673,.T.);
#863=ORIENTED_EDGE('',*,*,#674,.F.);
#864=ORIENTED_EDGE('',*,*,#673,.F.);
#865=ORIENTED_EDGE('',*,*,#609,.F.);
#866=ORIENTED_EDGE('',*,*,#675,.T.);
#867=ORIENTED_EDGE('',*,*,#676,.F.);
#868=ORIENTED_EDGE('',*,*,#675,.F.);
#869=ORIENTED_EDGE('',*,*,#608,.F.);
#870=ORIENTED_EDGE('',*,*,#677,.T.);
#871=ORIENTED_EDGE('',*,*,#678,.F.);
#872=ORIENTED_EDGE('',*,*,#677,.F.);
#873=ORIENTED_EDGE('',*,*,#604,.F.);
#874=ORIENTED_EDGE('',*,*,#679,.T.);
#875=ORIENTED_EDGE('',*,*,#680,.F.);
#876=ORIENTED_EDGE('',*,*,#681,.F.);
#877=ORIENTED_EDGE('',*,*,#607,.F.);
#878=ORIENTED_EDGE('',*,*,#682,.T.);
#879=ORIENTED_EDGE('',*,*,#683,.F.);
#880=ORIENTED_EDGE('',*,*,#679,.F.);
#881=ORIENTED_EDGE('',*,*,#606,.F.);
#882=ORIENTED_EDGE('',*,*,#684,.T.);
#883=ORIENTED_EDGE('',*,*,#685,.F.);
#884=ORIENTED_EDGE('',*,*,#682,.F.);
#885=ORIENTED_EDGE('',*,*,#605,.F.);
#886=ORIENTED_EDGE('',*,*,#681,.T.);
#887=ORIENTED_EDGE('',*,*,#686,.F.);
#888=ORIENTED_EDGE('',*,*,#684,.F.);
#889=ORIENTED_EDGE('',*,*,#589,.T.);
#890=ORIENTED_EDGE('',*,*,#687,.T.);
#891=ORIENTED_EDGE('',*,*,#688,.F.);
#892=ORIENTED_EDGE('',*,*,#689,.F.);
#893=ORIENTED_EDGE('',*,*,#590,.T.);
#894=ORIENTED_EDGE('',*,*,#689,.T.);
#895=ORIENTED_EDGE('',*,*,#690,.F.);
#896=ORIENTED_EDGE('',*,*,#691,.F.);
#897=ORIENTED_EDGE('',*,*,#591,.T.);
#898=ORIENTED_EDGE('',*,*,#691,.T.);
#899=ORIENTED_EDGE('',*,*,#692,.F.);
#900=ORIENTED_EDGE('',*,*,#693,.F.);
#901=ORIENTED_EDGE('',*,*,#588,.T.);
#902=ORIENTED_EDGE('',*,*,#693,.T.);
#903=ORIENTED_EDGE('',*,*,#694,.F.);
#904=ORIENTED_EDGE('',*,*,#687,.F.);
#905=ORIENTED_EDGE('',*,*,#593,.T.);
#906=ORIENTED_EDGE('',*,*,#695,.T.);
#907=ORIENTED_EDGE('',*,*,#696,.F.);
#908=ORIENTED_EDGE('',*,*,#697,.F.);
#909=ORIENTED_EDGE('',*,*,#594,.T.);
#910=ORIENTED_EDGE('',*,*,#697,.T.);
#911=ORIENTED_EDGE('',*,*,#698,.F.);
#912=ORIENTED_EDGE('',*,*,#699,.F.);
#913=ORIENTED_EDGE('',*,*,#595,.T.);
#914=ORIENTED_EDGE('',*,*,#699,.T.);
#915=ORIENTED_EDGE('',*,*,#700,.F.);
#916=ORIENTED_EDGE('',*,*,#701,.F.);
#917=ORIENTED_EDGE('',*,*,#592,.T.);
#918=ORIENTED_EDGE('',*,*,#701,.T.);
#919=ORIENTED_EDGE('',*,*,#702,.F.);
#920=ORIENTED_EDGE('',*,*,#695,.F.);
#921=ORIENTED_EDGE('',*,*,#597,.T.);
#922=ORIENTED_EDGE('',*,*,#703,.T.);
#923=ORIENTED_EDGE('',*,*,#704,.F.);
#924=ORIENTED_EDGE('',*,*,#705,.F.);
#925=ORIENTED_EDGE('',*,*,#598,.T.);
#926=ORIENTED_EDGE('',*,*,#705,.T.);
#927=ORIENTED_EDGE('',*,*,#706,.F.);
#928=ORIENTED_EDGE('',*,*,#707,.F.);
#929=ORIENTED_EDGE('',*,*,#599,.T.);
#930=ORIENTED_EDGE('',*,*,#707,.T.);
#931=ORIENTED_EDGE('',*,*,#708,.F.);
#932=ORIENTED_EDGE('',*,*,#709,.F.);
#933=ORIENTED_EDGE('',*,*,#596,.T.);
#934=ORIENTED_EDGE('',*,*,#709,.T.);
#935=ORIENTED_EDGE('',*,*,#710,.F.);
#936=ORIENTED_EDGE('',*,*,#703,.F.);
#937=ORIENTED_EDGE('',*,*,#601,.T.);
#938=ORIENTED_EDGE('',*,*,#711,.T.);
#939=ORIENTED_EDGE('',*,*,#712,.F.);
#940=ORIENTED_EDGE('',*,*,#713,.F.);
#941=ORIENTED_EDGE('',*,*,#602,.T.);
#942=ORIENTED_EDGE('',*,*,#713,.T.);
#943=ORIENTED_EDGE('',*,*,#714,.F.);
#944=ORIENTED_EDGE('',*,*,#715,.F.);
#945=ORIENTED_EDGE('',*,*,#603,.T.);
#946=ORIENTED_EDGE('',*,*,#715,.T.);
#947=ORIENTED_EDGE('',*,*,#716,.F.);
#948=ORIENTED_EDGE('',*,*,#717,.F.);
#949=ORIENTED_EDGE('',*,*,#600,.T.);
#950=ORIENTED_EDGE('',*,*,#717,.T.);
#951=ORIENTED_EDGE('',*,*,#718,.F.);
#952=ORIENTED_EDGE('',*,*,#711,.F.);
#953=ORIENTED_EDGE('',*,*,#631,.F.);
#954=ORIENTED_EDGE('',*,*,#719,.F.);
#955=ORIENTED_EDGE('',*,*,#638,.F.);
#956=ORIENTED_EDGE('',*,*,#583,.F.);
#957=ORIENTED_EDGE('',*,*,#580,.F.);
#958=ORIENTED_EDGE('',*,*,#587,.F.);
#959=ORIENTED_EDGE('',*,*,#633,.F.);
#960=ORIENTED_EDGE('',*,*,#720,.F.);
#961=ORIENTED_EDGE('',*,*,#577,.F.);
#962=ORIENTED_EDGE('',*,*,#720,.T.);
#963=ORIENTED_EDGE('',*,*,#632,.F.);
#964=ORIENTED_EDGE('',*,*,#636,.T.);
#965=ORIENTED_EDGE('',*,*,#637,.F.);
#966=ORIENTED_EDGE('',*,*,#719,.T.);
#967=ORIENTED_EDGE('',*,*,#630,.F.);
#968=ORIENTED_EDGE('',*,*,#628,.T.);
#969=ORIENTED_EDGE('',*,*,#694,.T.);
#970=ORIENTED_EDGE('',*,*,#692,.T.);
#971=ORIENTED_EDGE('',*,*,#690,.T.);
#972=ORIENTED_EDGE('',*,*,#688,.T.);
#973=ORIENTED_EDGE('',*,*,#702,.T.);
#974=ORIENTED_EDGE('',*,*,#700,.T.);
#975=ORIENTED_EDGE('',*,*,#698,.T.);
#976=ORIENTED_EDGE('',*,*,#696,.T.);
#977=ORIENTED_EDGE('',*,*,#710,.T.);
#978=ORIENTED_EDGE('',*,*,#708,.T.);
#979=ORIENTED_EDGE('',*,*,#706,.T.);
#980=ORIENTED_EDGE('',*,*,#704,.T.);
#981=ORIENTED_EDGE('',*,*,#718,.T.);
#982=ORIENTED_EDGE('',*,*,#716,.T.);
#983=ORIENTED_EDGE('',*,*,#714,.T.);
#984=ORIENTED_EDGE('',*,*,#712,.T.);
#985=ORIENTED_EDGE('',*,*,#680,.T.);
#986=ORIENTED_EDGE('',*,*,#683,.T.);
#987=ORIENTED_EDGE('',*,*,#685,.T.);
#988=ORIENTED_EDGE('',*,*,#686,.T.);
#989=ORIENTED_EDGE('',*,*,#678,.T.);
#990=ORIENTED_EDGE('',*,*,#676,.T.);
#991=ORIENTED_EDGE('',*,*,#674,.T.);
#992=ORIENTED_EDGE('',*,*,#672,.T.);
#993=ORIENTED_EDGE('',*,*,#664,.T.);
#994=ORIENTED_EDGE('',*,*,#667,.T.);
#995=ORIENTED_EDGE('',*,*,#669,.T.);
#996=ORIENTED_EDGE('',*,*,#670,.T.);
#997=ORIENTED_EDGE('',*,*,#656,.T.);
#998=ORIENTED_EDGE('',*,*,#659,.T.);
#999=ORIENTED_EDGE('',*,*,#661,.T.);
#1000=ORIENTED_EDGE('',*,*,#662,.T.);
#1001=ORIENTED_EDGE('',*,*,#654,.T.);
#1002=ORIENTED_EDGE('',*,*,#652,.T.);
#1003=ORIENTED_EDGE('',*,*,#650,.T.);
#1004=ORIENTED_EDGE('',*,*,#648,.T.);
#1005=ORIENTED_EDGE('',*,*,#640,.T.);
#1006=ORIENTED_EDGE('',*,*,#643,.T.);
#1007=ORIENTED_EDGE('',*,*,#645,.T.);
#1008=ORIENTED_EDGE('',*,*,#646,.T.);
#1009=CYLINDRICAL_SURFACE('',#1085,40.);
#1010=CYLINDRICAL_SURFACE('',#1101,40.);
#1011=CYLINDRICAL_SURFACE('',#1103,40.);
#1012=CYLINDRICAL_SURFACE('',#1106,40.);
#1013=CYLINDRICAL_SURFACE('',#1112,1.25);
#1014=CYLINDRICAL_SURFACE('',#1114,1.25);
#1015=CYLINDRICAL_SURFACE('',#1116,1.25);
#1016=CYLINDRICAL_SURFACE('',#1118,1.25);
#1017=CYLINDRICAL_SURFACE('',#1128,1.25);
#1018=CYLINDRICAL_SURFACE('',#1130,1.25);
#1019=CYLINDRICAL_SURFACE('',#1132,1.25);
#1020=CYLINDRICAL_SURFACE('',#1134,1.25);
#1021=ADVANCED_FACE('',(#85),#1009,.T.);
#1022=ADVANCED_FACE('',(#86,#15,#16,#17,#18,#19,#20,#21,#22,#23,#24,#25,
#26,#27,#28,#29,#30),#47,.F.);
#1023=ADVANCED_FACE('',(#87),#48,.T.);
#1024=ADVANCED_FACE('',(#88),#1010,.T.);
#1025=ADVANCED_FACE('',(#89),#1011,.T.);
#1026=ADVANCED_FACE('',(#90),#49,.T.);
#1027=ADVANCED_FACE('',(#91),#1012,.T.);
#1028=ADVANCED_FACE('',(#92),#50,.F.);
#1029=ADVANCED_FACE('',(#93),#51,.F.);
#1030=ADVANCED_FACE('',(#94),#52,.F.);
#1031=ADVANCED_FACE('',(#95),#53,.F.);
#1032=ADVANCED_FACE('',(#96),#1013,.F.);
#1033=ADVANCED_FACE('',(#97),#1014,.F.);
#1034=ADVANCED_FACE('',(#98),#1015,.F.);
#1035=ADVANCED_FACE('',(#99),#1016,.F.);
#1036=ADVANCED_FACE('',(#100),#54,.F.);
#1037=ADVANCED_FACE('',(#101),#55,.F.);
#1038=ADVANCED_FACE('',(#102),#56,.F.);
#1039=ADVANCED_FACE('',(#103),#57,.F.);
#1040=ADVANCED_FACE('',(#104),#58,.F.);
#1041=ADVANCED_FACE('',(#105),#59,.F.);
#1042=ADVANCED_FACE('',(#106),#60,.F.);
#1043=ADVANCED_FACE('',(#107),#61,.F.);
#1044=ADVANCED_FACE('',(#108),#1017,.F.);
#1045=ADVANCED_FACE('',(#109),#1018,.F.);
#1046=ADVANCED_FACE('',(#110),#1019,.F.);
#1047=ADVANCED_FACE('',(#111),#1020,.F.);
#1048=ADVANCED_FACE('',(#112),#62,.F.);
#1049=ADVANCED_FACE('',(#113),#63,.F.);
#1050=ADVANCED_FACE('',(#114),#64,.F.);
#1051=ADVANCED_FACE('',(#115),#65,.F.);
#1052=ADVANCED_FACE('',(#116),#66,.T.);
#1053=ADVANCED_FACE('',(#117),#67,.T.);
#1054=ADVANCED_FACE('',(#118),#68,.T.);
#1055=ADVANCED_FACE('',(#119),#69,.T.);
#1056=ADVANCED_FACE('',(#120),#70,.T.);
#1057=ADVANCED_FACE('',(#121),#71,.T.);
#1058=ADVANCED_FACE('',(#122),#72,.T.);
#1059=ADVANCED_FACE('',(#123),#73,.T.);
#1060=ADVANCED_FACE('',(#124),#74,.T.);
#1061=ADVANCED_FACE('',(#125),#75,.T.);
#1062=ADVANCED_FACE('',(#126),#76,.T.);
#1063=ADVANCED_FACE('',(#127),#77,.T.);
#1064=ADVANCED_FACE('',(#128),#78,.T.);
#1065=ADVANCED_FACE('',(#129),#79,.T.);
#1066=ADVANCED_FACE('',(#130),#80,.T.);
#1067=ADVANCED_FACE('',(#131),#81,.T.);
#1068=ADVANCED_FACE('',(#132),#82,.T.);
#1069=ADVANCED_FACE('',(#133),#83,.T.);
#1070=ADVANCED_FACE('',(#134,#31,#32,#33,#34,#35,#36,#37,#38,#39,#40,#41,
#42,#43,#44,#45,#46),#84,.T.);
#1071=CLOSED_SHELL('',(#1021,#1022,#1023,#1024,#1025,#1026,#1027,#1028,
#1029,#1030,#1031,#1032,#1033,#1034,#1035,#1036,#1037,#1038,#1039,#1040,
#1041,#1042,#1043,#1044,#1045,#1046,#1047,#1048,#1049,#1050,#1051,#1052,
#1053,#1054,#1055,#1056,#1057,#1058,#1059,#1060,#1061,#1062,#1063,#1064,
#1065,#1066,#1067,#1068,#1069,#1070));
#1072=DERIVED_UNIT_ELEMENT(#1074,1.);
#1073=DERIVED_UNIT_ELEMENT(#1725,-3.);
#1074=(
MASS_UNIT()
NAMED_UNIT(*)
SI_UNIT(.KILO.,.GRAM.)
);
#1075=DERIVED_UNIT((#1072,#1073));
#1076=MEASURE_REPRESENTATION_ITEM('density measure',
POSITIVE_RATIO_MEASURE(7850.),#1075);
#1077=PROPERTY_DEFINITION_REPRESENTATION(#1082,#1079);
#1078=PROPERTY_DEFINITION_REPRESENTATION(#1083,#1080);
#1079=REPRESENTATION('material name',(#1081),#1722);
#1080=REPRESENTATION('density',(#1076),#1722);
#1081=DESCRIPTIVE_REPRESENTATION_ITEM('Steel','Steel');
#1082=PROPERTY_DEFINITION('material property','material name',#1732);
#1083=PROPERTY_DEFINITION('material property','density of part',#1732);
#1084=AXIS2_PLACEMENT_3D('',#1429,#1159,#1160);
#1085=AXIS2_PLACEMENT_3D('',#1430,#1161,#1162);
#1086=AXIS2_PLACEMENT_3D('',#1433,#1163,#1164);
#1087=AXIS2_PLACEMENT_3D('',#1437,#1166,#1167);
#1088=AXIS2_PLACEMENT_3D('',#1439,#1169,#1170);
#1089=AXIS2_PLACEMENT_3D('',#1443,#1172,#1173);
#1090=AXIS2_PLACEMENT_3D('',#1447,#1175,#1176);
#1091=AXIS2_PLACEMENT_3D('',#1451,#1178,#1179);
#1092=AXIS2_PLACEMENT_3D('',#1494,#1201,#1202);
#1093=AXIS2_PLACEMENT_3D('',#1496,#1203,#1204);
#1094=AXIS2_PLACEMENT_3D('',#1498,#1205,#1206);
#1095=AXIS2_PLACEMENT_3D('',#1500,#1207,#1208);
#1096=AXIS2_PLACEMENT_3D('',#1518,#1217,#1218);
#1097=AXIS2_PLACEMENT_3D('',#1520,#1219,#1220);
#1098=AXIS2_PLACEMENT_3D('',#1522,#1221,#1222);
#1099=AXIS2_PLACEMENT_3D('',#1524,#1223,#1224);
#1100=AXIS2_PLACEMENT_3D('',#1533,#1229,#1230);
#1101=AXIS2_PLACEMENT_3D('',#1537,#1233,#1234);
#1102=AXIS2_PLACEMENT_3D('',#1539,#1235,#1236);
#1103=AXIS2_PLACEMENT_3D('',#1541,#1238,#1239);
#1104=AXIS2_PLACEMENT_3D('',#1544,#1240,#1241);
#1105=AXIS2_PLACEMENT_3D('',#1547,#1244,#1245);
#1106=AXIS2_PLACEMENT_3D('',#1551,#1248,#1249);
#1107=AXIS2_PLACEMENT_3D('',#1553,#1250,#1251);
#1108=AXIS2_PLACEMENT_3D('',#1555,#1253,#1254);
#1109=AXIS2_PLACEMENT_3D('',#1561,#1258,#1259);
#1110=AXIS2_PLACEMENT_3D('',#1565,#1262,#1263);
#1111=AXIS2_PLACEMENT_3D('',#1569,#1266,#1267);
#1112=AXIS2_PLACEMENT_3D('',#1571,#1269,#1270);
#1113=AXIS2_PLACEMENT_3D('',#1574,#1272,#1273);
#1114=AXIS2_PLACEMENT_3D('',#1575,#1274,#1275);
#1115=AXIS2_PLACEMENT_3D('',#1578,#1277,#1278);
#1116=AXIS2_PLACEMENT_3D('',#1579,#1279,#1280);
#1117=AXIS2_PLACEMENT_3D('',#1582,#1282,#1283);
#1118=AXIS2_PLACEMENT_3D('',#1583,#1284,#1285);
#1119=AXIS2_PLACEMENT_3D('',#1586,#1287,#1288);
#1120=AXIS2_PLACEMENT_3D('',#1587,#1289,#1290);
#1121=AXIS2_PLACEMENT_3D('',#1593,#1294,#1295);
#1122=AXIS2_PLACEMENT_3D('',#1597,#1298,#1299);
#1123=AXIS2_PLACEMENT_3D('',#1601,#1302,#1303);
#1124=AXIS2_PLACEMENT_3D('',#1603,#1305,#1306);
#1125=AXIS2_PLACEMENT_3D('',#1609,#1310,#1311);
#1126=AXIS2_PLACEMENT_3D('',#1613,#1314,#1315);
#1127=AXIS2_PLACEMENT_3D('',#1617,#1318,#1319);
#1128=AXIS2_PLACEMENT_3D('',#1619,#1321,#1322);
#1129=AXIS2_PLACEMENT_3D('',#1622,#1324,#1325);
#1130=AXIS2_PLACEMENT_3D('',#1623,#1326,#1327);
#1131=AXIS2_PLACEMENT_3D('',#1626,#1329,#1330);
#1132=AXIS2_PLACEMENT_3D('',#1627,#1331,#1332);
#1133=AXIS2_PLACEMENT_3D('',#1630,#1334,#1335);
#1134=AXIS2_PLACEMENT_3D('',#1631,#1336,#1337);
#1135=AXIS2_PLACEMENT_3D('',#1634,#1339,#1340);
#1136=AXIS2_PLACEMENT_3D('',#1635,#1341,#1342);
#1137=AXIS2_PLACEMENT_3D('',#1641,#1346,#1347);
#1138=AXIS2_PLACEMENT_3D('',#1645,#1350,#1351);
#1139=AXIS2_PLACEMENT_3D('',#1649,#1354,#1355);
#1140=AXIS2_PLACEMENT_3D('',#1651,#1357,#1358);
#1141=AXIS2_PLACEMENT_3D('',#1657,#1362,#1363);
#1142=AXIS2_PLACEMENT_3D('',#1661,#1366,#1367);
#1143=AXIS2_PLACEMENT_3D('',#1665,#1370,#1371);
#1144=AXIS2_PLACEMENT_3D('',#1667,#1373,#1374);
#1145=AXIS2_PLACEMENT_3D('',#1673,#1378,#1379);
#1146=AXIS2_PLACEMENT_3D('',#1677,#1382,#1383);
#1147=AXIS2_PLACEMENT_3D('',#1681,#1386,#1387);
#1148=AXIS2_PLACEMENT_3D('',#1683,#1389,#1390);
#1149=AXIS2_PLACEMENT_3D('',#1689,#1394,#1395);
#1150=AXIS2_PLACEMENT_3D('',#1693,#1398,#1399);
#1151=AXIS2_PLACEMENT_3D('',#1697,#1402,#1403);
#1152=AXIS2_PLACEMENT_3D('',#1699,#1405,#1406);
#1153=AXIS2_PLACEMENT_3D('',#1705,#1410,#1411);
#1154=AXIS2_PLACEMENT_3D('',#1709,#1414,#1415);
#1155=AXIS2_PLACEMENT_3D('',#1713,#1418,#1419);
#1156=AXIS2_PLACEMENT_3D('',#1715,#1421,#1422);
#1157=AXIS2_PLACEMENT_3D('',#1717,#1424,#1425);
#1158=AXIS2_PLACEMENT_3D('',#1719,#1427,#1428);
#1159=DIRECTION('axis',(0.,0.,1.));
#1160=DIRECTION('refdir',(1.,0.,0.));
#1161=DIRECTION('center_axis',(0.,0.,1.));
#1162=DIRECTION('ref_axis',(-0.707106781186547,0.707106781186548,0.));
#1163=DIRECTION('center_axis',(0.,0.,-1.));
#1164=DIRECTION('ref_axis',(-0.707106781186547,0.707106781186548,0.));
#1165=DIRECTION('',(0.,0.,-1.));
#1166=DIRECTION('center_axis',(0.,0.,1.));
#1167=DIRECTION('ref_axis',(-0.707106781186547,0.707106781186548,0.));
#1168=DIRECTION('',(0.,0.,1.));
#1169=DIRECTION('center_axis',(0.,0.,1.));
#1170=DIRECTION('ref_axis',(1.,0.,0.));
#1171=DIRECTION('',(1.,0.,0.));
#1172=DIRECTION('center_axis',(0.,0.,1.));
#1173=DIRECTION('ref_axis',(0.707106781186547,0.707106781186547,0.));
#1174=DIRECTION('',(-8.07434927000114E-17,-1.,0.));
#1175=DIRECTION('center_axis',(0.,0.,1.));
#1176=DIRECTION('ref_axis',(0.707106781186547,-0.707106781186548,0.));
#1177=DIRECTION('',(-1.,0.,0.));
#1178=DIRECTION('center_axis',(0.,0.,1.));
#1179=DIRECTION('ref_axis',(-0.707106781186547,-0.707106781186548,0.));
#1180=DIRECTION('',(-8.07434927000114E-17,1.,0.));
#1181=DIRECTION('',(0.,1.,0.));
#1182=DIRECTION('',(-1.,-8.88178419700125E-16,0.));
#1183=DIRECTION('',(0.,-1.,0.));
#1184=DIRECTION('',(1.,0.,0.));
#1185=DIRECTION('',(-1.,0.,0.));
#1186=DIRECTION('',(0.,-1.,0.));
#1187=DIRECTION('',(1.,0.,0.));
#1188=DIRECTION('',(0.,1.,0.));
#1189=DIRECTION('',(0.,-1.,0.));
#1190=DIRECTION('',(1.,0.,0.));
#1191=DIRECTION('',(8.88178419700125E-16,1.,0.));
#1192=DIRECTION('',(-1.,0.,0.));
#1193=DIRECTION('',(0.,-1.,0.));
#1194=DIRECTION('',(1.,0.,0.));
#1195=DIRECTION('',(0.,1.,0.));
#1196=DIRECTION('',(-1.,0.,0.));
#1197=DIRECTION('',(-5.77315972805047E-14,-1.,0.));
#1198=DIRECTION('',(1.,-2.77555756156289E-16,0.));
#1199=DIRECTION('',(-1.48029736616657E-15,1.,0.));
#1200=DIRECTION('',(-1.,-4.36803371250968E-14,0.));
#1201=DIRECTION('center_axis',(0.,0.,1.));
#1202=DIRECTION('ref_axis',(1.,0.,0.));
#1203=DIRECTION('center_axis',(0.,0.,1.));
#1204=DIRECTION('ref_axis',(1.,0.,0.));
#1205=DIRECTION('center_axis',(0.,0.,1.));
#1206=DIRECTION('ref_axis',(1.,0.,0.));
#1207=DIRECTION('center_axis',(0.,0.,1.));
#1208=DIRECTION('ref_axis',(1.,0.,0.));
#1209=DIRECTION('',(0.,1.,0.));
#1210=DIRECTION('',(-1.,0.,0.));
#1211=DIRECTION('',(0.,-1.,0.));
#1212=DIRECTION('',(1.,0.,0.));
#1213=DIRECTION('',(-1.,7.40148683083362E-16,0.));
#1214=DIRECTION('',(-1.66533453693773E-16,-1.,0.));
#1215=DIRECTION('',(1.,2.96059473233375E-15,0.));
#1216=DIRECTION('',(3.066991105527E-14,1.,0.));
#1217=DIRECTION('center_axis',(0.,0.,1.));
#1218=DIRECTION('ref_axis',(1.,0.,0.));
#1219=DIRECTION('center_axis',(0.,0.,1.));
#1220=DIRECTION('ref_axis',(1.,0.,0.));
#1221=DIRECTION('center_axis',(0.,0.,1.));
#1222=DIRECTION('ref_axis',(1.,0.,0.));
#1223=DIRECTION('center_axis',(0.,0.,1.));
#1224=DIRECTION('ref_axis',(1.,0.,0.));
#1225=DIRECTION('',(-4.95899617665879E-14,1.,0.));
#1226=DIRECTION('',(-1.,5.55111512312578E-17,0.));
#1227=DIRECTION('',(-5.92118946466628E-15,-1.,0.));
#1228=DIRECTION('',(1.,4.71636618648566E-14,0.));
#1229=DIRECTION('center_axis',(0.,1.,0.));
#1230=DIRECTION('ref_axis',(-1.,0.,0.));
#1231=DIRECTION('',(-1.,0.,0.));
#1232=DIRECTION('',(0.,0.,1.));
#1233=DIRECTION('center_axis',(0.,0.,1.));
#1234=DIRECTION('ref_axis',(0.707106781186547,0.707106781186547,0.));
#1235=DIRECTION('center_axis',(0.,0.,-1.));
#1236=DIRECTION('ref_axis',(0.707106781186547,0.707106781186547,0.));
#1237=DIRECTION('',(0.,0.,-1.));
#1238=DIRECTION('center_axis',(0.,0.,1.));
#1239=DIRECTION('ref_axis',(-0.707106781186547,-0.707106781186548,0.));
#1240=DIRECTION('center_axis',(0.,0.,-1.));
#1241=DIRECTION('ref_axis',(-0.707106781186547,-0.707106781186548,0.));
#1242=DIRECTION('',(0.,0.,-1.));
#1243=DIRECTION('',(0.,0.,1.));
#1244=DIRECTION('center_axis',(0.,-1.,0.));
#1245=DIRECTION('ref_axis',(1.,0.,0.));
#1246=DIRECTION('',(0.,0.,-1.));
#1247=DIRECTION('',(1.,0.,0.));
#1248=DIRECTION('center_axis',(0.,0.,1.));
#1249=DIRECTION('ref_axis',(0.707106781186547,-0.707106781186548,0.));
#1250=DIRECTION('center_axis',(0.,0.,-1.));
#1251=DIRECTION('ref_axis',(0.707106781186547,-0.707106781186548,0.));
#1252=DIRECTION('',(0.,0.,1.));
#1253=DIRECTION('center_axis',(1.,4.95899617665879E-14,0.));
#1254=DIRECTION('ref_axis',(-4.95899617665879E-14,1.,0.));
#1255=DIRECTION('',(0.,0.,1.));
#1256=DIRECTION('',(4.95899617665879E-14,-1.,0.));
#1257=DIRECTION('',(0.,0.,1.));
#1258=DIRECTION('center_axis',(4.71636618648566E-14,-1.,0.));
#1259=DIRECTION('ref_axis',(1.,4.71636618648566E-14,0.));
#1260=DIRECTION('',(0.,0.,1.));
#1261=DIRECTION('',(-1.,-4.71636618648566E-14,0.));
#1262=DIRECTION('center_axis',(-1.,5.92118946466628E-15,0.));
#1263=DIRECTION('ref_axis',(-5.92118946466628E-15,-1.,0.));
#1264=DIRECTION('',(0.,0.,1.));
#1265=DIRECTION('',(5.92118946466628E-15,1.,0.));
#1266=DIRECTION('center_axis',(5.55111512312578E-17,1.,0.));
#1267=DIRECTION('ref_axis',(-1.,5.55111512312578E-17,0.));
#1268=DIRECTION('',(1.,-5.55111512312578E-17,0.));
#1269=DIRECTION('center_axis',(0.,0.,1.));
#1270=DIRECTION('ref_axis',(1.,0.,0.));
#1271=DIRECTION('',(0.,0.,1.));
#1272=DIRECTION('center_axis',(0.,0.,-1.));
#1273=DIRECTION('ref_axis',(1.,0.,0.));
#1274=DIRECTION('center_axis',(0.,0.,1.));
#1275=DIRECTION('ref_axis',(1.,0.,0.));
#1276=DIRECTION('',(0.,0.,1.));
#1277=DIRECTION('center_axis',(0.,0.,-1.));
#1278=DIRECTION('ref_axis',(1.,0.,0.));
#1279=DIRECTION('center_axis',(0.,0.,1.));
#1280=DIRECTION('ref_axis',(1.,0.,0.));
#1281=DIRECTION('',(0.,0.,1.));
#1282=DIRECTION('center_axis',(0.,0.,-1.));
#1283=DIRECTION('ref_axis',(1.,0.,0.));
#1284=DIRECTION('center_axis',(0.,0.,1.));
#1285=DIRECTION('ref_axis',(1.,0.,0.));
#1286=DIRECTION('',(0.,0.,1.));
#1287=DIRECTION('center_axis',(0.,0.,-1.));
#1288=DIRECTION('ref_axis',(1.,0.,0.));
#1289=DIRECTION('center_axis',(7.40148683083362E-16,1.,0.));
#1290=DIRECTION('ref_axis',(-1.,7.40148683083362E-16,0.));
#1291=DIRECTION('',(0.,0.,1.));
#1292=DIRECTION('',(1.,-7.40148683083362E-16,0.));
#1293=DIRECTION('',(0.,0.,1.));
#1294=DIRECTION('center_axis',(1.,-3.066991105527E-14,0.));
#1295=DIRECTION('ref_axis',(3.066991105527E-14,1.,0.));
#1296=DIRECTION('',(0.,0.,1.));
#1297=DIRECTION('',(-3.066991105527E-14,-1.,0.));
#1298=DIRECTION('center_axis',(2.96059473233375E-15,-1.,0.));
#1299=DIRECTION('ref_axis',(1.,2.96059473233375E-15,0.));
#1300=DIRECTION('',(0.,0.,1.));
#1301=DIRECTION('',(-1.,-2.96059473233375E-15,0.));
#1302=DIRECTION('center_axis',(-1.,1.66533453693773E-16,0.));
#1303=DIRECTION('ref_axis',(-1.66533453693773E-16,-1.,0.));
#1304=DIRECTION('',(1.66533453693773E-16,1.,0.));
#1305=DIRECTION('center_axis',(1.,0.,0.));
#1306=DIRECTION('ref_axis',(0.,1.,0.));
#1307=DIRECTION('',(0.,0.,1.));
#1308=DIRECTION('',(0.,-1.,0.));
#1309=DIRECTION('',(0.,0.,1.));
#1310=DIRECTION('center_axis',(0.,-1.,0.));
#1311=DIRECTION('ref_axis',(1.,0.,0.));
#1312=DIRECTION('',(0.,0.,1.));
#1313=DIRECTION('',(-1.,0.,0.));
#1314=DIRECTION('center_axis',(-1.,0.,0.));
#1315=DIRECTION('ref_axis',(0.,-1.,0.));
#1316=DIRECTION('',(0.,0.,1.));
#1317=DIRECTION('',(0.,1.,0.));
#1318=DIRECTION('center_axis',(0.,1.,0.));
#1319=DIRECTION('ref_axis',(-1.,0.,0.));
#1320=DIRECTION('',(1.,0.,0.));
#1321=DIRECTION('center_axis',(0.,0.,1.));
#1322=DIRECTION('ref_axis',(1.,0.,0.));
#1323=DIRECTION('',(0.,0.,1.));
#1324=DIRECTION('center_axis',(0.,0.,-1.));
#1325=DIRECTION('ref_axis',(1.,0.,0.));
#1326=DIRECTION('center_axis',(0.,0.,1.));
#1327=DIRECTION('ref_axis',(1.,0.,0.));
#1328=DIRECTION('',(0.,0.,1.));
#1329=DIRECTION('center_axis',(0.,0.,-1.));
#1330=DIRECTION('ref_axis',(1.,0.,0.));
#1331=DIRECTION('center_axis',(0.,0.,1.));
#1332=DIRECTION('ref_axis',(1.,0.,0.));
#1333=DIRECTION('',(0.,0.,1.));
#1334=DIRECTION('center_axis',(0.,0.,-1.));
#1335=DIRECTION('ref_axis',(1.,0.,0.));
#1336=DIRECTION('center_axis',(0.,0.,1.));
#1337=DIRECTION('ref_axis',(1.,0.,0.));
#1338=DIRECTION('',(0.,0.,1.));
#1339=DIRECTION('center_axis',(0.,0.,-1.));
#1340=DIRECTION('ref_axis',(1.,0.,0.));
#1341=DIRECTION('center_axis',(-1.,5.77315972805047E-14,0.));
#1342=DIRECTION('ref_axis',(-5.77315972805047E-14,-1.,0.));
#1343=DIRECTION('',(0.,0.,1.));
#1344=DIRECTION('',(5.77315972805047E-14,1.,0.));
#1345=DIRECTION('',(0.,0.,1.));
#1346=DIRECTION('center_axis',(-4.36803371250968E-14,1.,0.));
#1347=DIRECTION('ref_axis',(-1.,-4.36803371250968E-14,0.));
#1348=DIRECTION('',(0.,0.,1.));
#1349=DIRECTION('',(1.,4.36803371250968E-14,0.));
#1350=DIRECTION('center_axis',(1.,1.48029736616657E-15,0.));
#1351=DIRECTION('ref_axis',(-1.48029736616657E-15,1.,0.));
#1352=DIRECTION('',(0.,0.,1.));
#1353=DIRECTION('',(1.48029736616657E-15,-1.,0.));
#1354=DIRECTION('center_axis',(-2.77555756156289E-16,-1.,0.));
#1355=DIRECTION('ref_axis',(1.,-2.77555756156289E-16,0.));
#1356=DIRECTION('',(-1.,2.77555756156289E-16,0.));
#1357=DIRECTION('center_axis',(-8.88178419700125E-16,1.,0.));
#1358=DIRECTION('ref_axis',(-1.,-8.88178419700125E-16,0.));
#1359=DIRECTION('',(0.,0.,1.));
#1360=DIRECTION('',(-1.,-8.88178419700125E-16,0.));
#1361=DIRECTION('',(0.,0.,1.));
#1362=DIRECTION('center_axis',(-1.,0.,0.));
#1363=DIRECTION('ref_axis',(0.,-1.,0.));
#1364=DIRECTION('',(0.,-1.,0.));
#1365=DIRECTION('',(0.,0.,1.));
#1366=DIRECTION('center_axis',(0.,-1.,0.));
#1367=DIRECTION('ref_axis',(1.,0.,0.));
#1368=DIRECTION('',(1.,0.,0.));
#1369=DIRECTION('',(0.,0.,1.));
#1370=DIRECTION('center_axis',(1.,0.,0.));
#1371=DIRECTION('ref_axis',(0.,1.,0.));
#1372=DIRECTION('',(0.,1.,0.));
#1373=DIRECTION('center_axis',(-1.,0.,0.));
#1374=DIRECTION('ref_axis',(0.,-1.,0.));
#1375=DIRECTION('',(0.,0.,1.));
#1376=DIRECTION('',(0.,-1.,0.));
#1377=DIRECTION('',(0.,0.,1.));
#1378=DIRECTION('center_axis',(0.,-1.,0.));
#1379=DIRECTION('ref_axis',(1.,0.,0.));
#1380=DIRECTION('',(1.,0.,0.));
#1381=DIRECTION('',(0.,0.,1.));
#1382=DIRECTION('center_axis',(1.,0.,0.));
#1383=DIRECTION('ref_axis',(0.,1.,0.));
#1384=DIRECTION('',(0.,1.,0.));
#1385=DIRECTION('',(0.,0.,1.));
#1386=DIRECTION('center_axis',(0.,1.,0.));
#1387=DIRECTION('ref_axis',(-1.,0.,0.));
#1388=DIRECTION('',(-1.,0.,0.));
#1389=DIRECTION('center_axis',(0.,-1.,0.));
#1390=DIRECTION('ref_axis',(1.,0.,0.));
#1391=DIRECTION('',(0.,0.,1.));
#1392=DIRECTION('',(1.,0.,0.));
#1393=DIRECTION('',(0.,0.,1.));
#1394=DIRECTION('center_axis',(1.,-8.88178419700125E-16,0.));
#1395=DIRECTION('ref_axis',(8.88178419700125E-16,1.,0.));
#1396=DIRECTION('',(8.88178419700125E-16,1.,0.));
#1397=DIRECTION('',(0.,0.,1.));
#1398=DIRECTION('center_axis',(0.,1.,0.));
#1399=DIRECTION('ref_axis',(-1.,0.,0.));
#1400=DIRECTION('',(-1.,0.,0.));
#1401=DIRECTION('',(0.,0.,1.));
#1402=DIRECTION('center_axis',(-1.,0.,0.));
#1403=DIRECTION('ref_axis',(0.,-1.,0.));
#1404=DIRECTION('',(0.,-1.,0.));
#1405=DIRECTION('center_axis',(0.,-1.,0.));
#1406=DIRECTION('ref_axis',(1.,0.,0.));
#1407=DIRECTION('',(0.,0.,1.));
#1408=DIRECTION('',(1.,0.,0.));
#1409=DIRECTION('',(0.,0.,1.));
#1410=DIRECTION('center_axis',(1.,0.,0.));
#1411=DIRECTION('ref_axis',(0.,1.,0.));
#1412=DIRECTION('',(0.,1.,0.));
#1413=DIRECTION('',(0.,0.,1.));
#1414=DIRECTION('center_axis',(0.,1.,0.));
#1415=DIRECTION('ref_axis',(-1.,0.,0.));
#1416=DIRECTION('',(-1.,0.,0.));
#1417=DIRECTION('',(0.,0.,1.));
#1418=DIRECTION('center_axis',(-1.,0.,0.));
#1419=DIRECTION('ref_axis',(0.,-1.,0.));
#1420=DIRECTION('',(0.,-1.,0.));
#1421=DIRECTION('center_axis',(1.,-8.07434927000114E-17,0.));
#1422=DIRECTION('ref_axis',(8.07434927000114E-17,1.,0.));
#1423=DIRECTION('',(8.07434927000114E-17,1.,0.));
#1424=DIRECTION('center_axis',(-1.,-8.07434927000114E-17,0.));
#1425=DIRECTION('ref_axis',(8.07434927000114E-17,-1.,0.));
#1426=DIRECTION('',(8.07434927000114E-17,-1.,0.));
#1427=DIRECTION('center_axis',(0.,0.,1.));
#1428=DIRECTION('ref_axis',(1.,0.,0.));
#1429=CARTESIAN_POINT('',(0.,0.,0.));
#1430=CARTESIAN_POINT('Origin',(-15.,15.,0.));
#1431=CARTESIAN_POINT('',(-55.,15.,3.));
#1432=CARTESIAN_POINT('',(-15.,55.,3.));
#1433=CARTESIAN_POINT('Origin',(-15.,15.,3.));
#1434=CARTESIAN_POINT('',(-15.,55.,0.));
#1435=CARTESIAN_POINT('',(-15.,55.,0.));
#1436=CARTESIAN_POINT('',(-55.,15.,0.));
#1437=CARTESIAN_POINT('Origin',(-15.,15.,0.));
#1438=CARTESIAN_POINT('',(-55.,15.,0.));
#1439=CARTESIAN_POINT('Origin',(-8.88178419700125E-15,8.88178419700125E-15,
0.));
#1440=CARTESIAN_POINT('',(15.,55.,0.));
#1441=CARTESIAN_POINT('',(-55.,55.,0.));
#1442=CARTESIAN_POINT('',(55.,15.,0.));
#1443=CARTESIAN_POINT('Origin',(15.,15.,0.));
#1444=CARTESIAN_POINT('',(55.,-15.,0.));
#1445=CARTESIAN_POINT('',(55.,55.,0.));
#1446=CARTESIAN_POINT('',(15.,-55.,0.));
#1447=CARTESIAN_POINT('Origin',(15.,-15.,0.));
#1448=CARTESIAN_POINT('',(-15.,-55.,0.));
#1449=CARTESIAN_POINT('',(55.,-55.,0.));
#1450=CARTESIAN_POINT('',(-55.,-15.,0.));
#1451=CARTESIAN_POINT('Origin',(-15.,-15.,0.));
#1452=CARTESIAN_POINT('',(-55.,-55.,0.));
#1453=CARTESIAN_POINT('',(-27.4,33.4,0.));
#1454=CARTESIAN_POINT('',(-27.4,36.4,0.));
#1455=CARTESIAN_POINT('',(-27.4,36.4,0.));
#1456=CARTESIAN_POINT('',(-17.4,33.4,0.));
#1457=CARTESIAN_POINT('',(-27.4,33.4,0.));
#1458=CARTESIAN_POINT('',(-17.4,36.4,0.));
#1459=CARTESIAN_POINT('',(-17.4,33.4,0.));
#1460=CARTESIAN_POINT('',(-17.4,36.4,0.));
#1461=CARTESIAN_POINT('',(36.4,17.4,0.));
#1462=CARTESIAN_POINT('',(33.4,17.4,0.));
#1463=CARTESIAN_POINT('',(36.4,17.4,0.));
#1464=CARTESIAN_POINT('',(36.4,27.4,0.));
#1465=CARTESIAN_POINT('',(36.4,27.4,0.));
#1466=CARTESIAN_POINT('',(33.4,27.4,0.));
#1467=CARTESIAN_POINT('',(33.4,27.4,0.));
#1468=CARTESIAN_POINT('',(33.4,17.4,0.));
#1469=CARTESIAN_POINT('',(-33.4,-17.4,0.));
#1470=CARTESIAN_POINT('',(-33.4,-27.4,0.));
#1471=CARTESIAN_POINT('',(-33.4,-27.4,0.));
#1472=CARTESIAN_POINT('',(-36.4,-17.4,0.));
#1473=CARTESIAN_POINT('',(-33.4,-17.4,0.));
#1474=CARTESIAN_POINT('',(-36.4,-27.4,0.));
#1475=CARTESIAN_POINT('',(-36.4,-17.4,0.));
#1476=CARTESIAN_POINT('',(-36.4,-27.4,0.));
#1477=CARTESIAN_POINT('',(27.4,-33.4,0.));
#1478=CARTESIAN_POINT('',(27.4,-36.4,0.));
#1479=CARTESIAN_POINT('',(27.4,-36.4,0.));
#1480=CARTESIAN_POINT('',(17.4,-33.4,0.));
#1481=CARTESIAN_POINT('',(27.4,-33.4,0.));
#1482=CARTESIAN_POINT('',(17.4,-36.4,0.));
#1483=CARTESIAN_POINT('',(17.4,-33.4,0.));
#1484=CARTESIAN_POINT('',(17.4,-36.4,0.));
#1485=CARTESIAN_POINT('',(11.5000000000002,-0.499999999999823,0.));
#1486=CARTESIAN_POINT('',(11.5,-3.5,0.));
#1487=CARTESIAN_POINT('',(11.5000000000002,-0.250000000000239,0.));
#1488=CARTESIAN_POINT('',(21.5,-3.5,0.));
#1489=CARTESIAN_POINT('',(5.75,-3.5,0.));
#1490=CARTESIAN_POINT('',(21.5,-0.499999999999386,0.));
#1491=CARTESIAN_POINT('',(21.5,-1.74999999999998,0.));
#1492=CARTESIAN_POINT('',(10.75,-0.499999999999856,0.));
#1493=CARTESIAN_POINT('',(-39.4,-7.75000000000001,0.));
#1494=CARTESIAN_POINT('Origin',(-38.15,-7.75000000000001,0.));
#1495=CARTESIAN_POINT('',(36.9,7.75,0.));
#1496=CARTESIAN_POINT('Origin',(38.15,7.75,0.));
#1497=CARTESIAN_POINT('',(-39.4,37.75,0.));
#1498=CARTESIAN_POINT('Origin',(-38.15,37.75,0.));
#1499=CARTESIAN_POINT('',(36.9,-37.75,0.));
#1500=CARTESIAN_POINT('Origin',(38.15,-37.75,0.));
#1501=CARTESIAN_POINT('',(3.5,11.5,0.));
#1502=CARTESIAN_POINT('',(3.5,21.5,0.));
#1503=CARTESIAN_POINT('',(3.5,5.75000000000001,0.));
#1504=CARTESIAN_POINT('',(0.5,21.5,0.));
#1505=CARTESIAN_POINT('',(1.75,21.5,0.));
#1506=CARTESIAN_POINT('',(0.5,11.5,0.));
#1507=CARTESIAN_POINT('',(0.5,10.75,0.));
#1508=CARTESIAN_POINT('',(0.249999999999996,11.5,0.));
#1509=CARTESIAN_POINT('',(-0.499999999999696,-11.5,0.));
#1510=CARTESIAN_POINT('',(-3.5,-11.5,0.));
#1511=CARTESIAN_POINT('',(-0.249999999999857,-11.5,0.));
#1512=CARTESIAN_POINT('',(-3.5,-21.5,0.));
#1513=CARTESIAN_POINT('',(-3.5,-5.75,0.));
#1514=CARTESIAN_POINT('',(-0.500000000000003,-21.5,0.));
#1515=CARTESIAN_POINT('',(-1.74999999999997,-21.5,0.));
#1516=CARTESIAN_POINT('',(-0.499999999999673,-10.75,0.));
#1517=CARTESIAN_POINT('',(-39.,-38.15,0.));
#1518=CARTESIAN_POINT('Origin',(-37.75,-38.15,0.));
#1519=CARTESIAN_POINT('',(36.5,38.15,0.));
#1520=CARTESIAN_POINT('Origin',(37.75,38.15,0.));
#1521=CARTESIAN_POINT('',(-9.,38.15,0.));
#1522=CARTESIAN_POINT('Origin',(-7.75,38.15,0.));
#1523=CARTESIAN_POINT('',(6.50000000000002,-38.15,0.));
#1524=CARTESIAN_POINT('Origin',(7.75000000000002,-38.15,0.));
#1525=CARTESIAN_POINT('',(-11.4999999999999,0.499999999999855,0.));
#1526=CARTESIAN_POINT('',(-11.5,3.5,0.));
#1527=CARTESIAN_POINT('',(-11.4999999999998,0.249999999999647,0.));
#1528=CARTESIAN_POINT('',(-21.5,3.5,0.));
#1529=CARTESIAN_POINT('',(-5.75,3.5,0.));
#1530=CARTESIAN_POINT('',(-21.5,0.499999999999383,0.));
#1531=CARTESIAN_POINT('',(-21.5,1.75000000000007,0.));
#1532=CARTESIAN_POINT('',(-10.75,0.49999999999989,0.));
#1533=CARTESIAN_POINT('Origin',(55.,55.,0.));
#1534=CARTESIAN_POINT('',(15.,55.,3.));
#1535=CARTESIAN_POINT('',(-55.,55.,3.));
#1536=CARTESIAN_POINT('',(15.,55.,0.));
#1537=CARTESIAN_POINT('Origin',(15.,15.,0.));
#1538=CARTESIAN_POINT('',(55.,15.,3.));
#1539=CARTESIAN_POINT('Origin',(15.,15.,3.));
#1540=CARTESIAN_POINT('',(55.,15.,0.));
#1541=CARTESIAN_POINT('Origin',(-15.,-15.,0.));
#1542=CARTESIAN_POINT('',(-15.,-55.,3.));
#1543=CARTESIAN_POINT('',(-55.,-15.,3.));
#1544=CARTESIAN_POINT('Origin',(-15.,-15.,3.));
#1545=CARTESIAN_POINT('',(-55.,-15.,0.));
#1546=CARTESIAN_POINT('',(-15.,-55.,0.));
#1547=CARTESIAN_POINT('Origin',(-55.,-55.,0.));
#1548=CARTESIAN_POINT('',(15.,-55.,3.));
#1549=CARTESIAN_POINT('',(15.,-55.,0.));
#1550=CARTESIAN_POINT('',(55.,-55.,3.));
#1551=CARTESIAN_POINT('Origin',(15.,-15.,0.));
#1552=CARTESIAN_POINT('',(55.,-15.,3.));
#1553=CARTESIAN_POINT('Origin',(15.,-15.,3.));
#1554=CARTESIAN_POINT('',(55.,-15.,0.));
#1555=CARTESIAN_POINT('Origin',(-11.4999999999999,0.499999999999855,0.));
#1556=CARTESIAN_POINT('',(-11.4999999999999,0.499999999999855,3.));
#1557=CARTESIAN_POINT('',(-11.4999999999999,0.499999999999855,0.));
#1558=CARTESIAN_POINT('',(-11.5,3.5,3.));
#1559=CARTESIAN_POINT('',(-11.4999999999998,0.249999999999647,3.));
#1560=CARTESIAN_POINT('',(-11.5,3.5,0.));
#1561=CARTESIAN_POINT('Origin',(-21.5,0.499999999999383,0.));
#1562=CARTESIAN_POINT('',(-21.5,0.499999999999383,3.));
#1563=CARTESIAN_POINT('',(-21.5,0.499999999999383,0.));
#1564=CARTESIAN_POINT('',(-10.75,0.49999999999989,3.));
#1565=CARTESIAN_POINT('Origin',(-21.5,3.5,0.));
#1566=CARTESIAN_POINT('',(-21.5,3.5,3.));
#1567=CARTESIAN_POINT('',(-21.5,3.5,0.));
#1568=CARTESIAN_POINT('',(-21.5,1.75000000000007,3.));
#1569=CARTESIAN_POINT('Origin',(-11.5,3.5,0.));
#1570=CARTESIAN_POINT('',(-5.75,3.5,3.));
#1571=CARTESIAN_POINT('Origin',(7.75000000000002,-38.15,0.));
#1572=CARTESIAN_POINT('',(6.50000000000002,-38.15,3.));
#1573=CARTESIAN_POINT('',(6.50000000000002,-38.15,0.));
#1574=CARTESIAN_POINT('Origin',(7.75000000000002,-38.15,3.));
#1575=CARTESIAN_POINT('Origin',(-7.75,38.15,0.));
#1576=CARTESIAN_POINT('',(-9.,38.15,3.));
#1577=CARTESIAN_POINT('',(-9.,38.15,0.));
#1578=CARTESIAN_POINT('Origin',(-7.75,38.15,3.));
#1579=CARTESIAN_POINT('Origin',(37.75,38.15,0.));
#1580=CARTESIAN_POINT('',(36.5,38.15,3.));
#1581=CARTESIAN_POINT('',(36.5,38.15,0.));
#1582=CARTESIAN_POINT('Origin',(37.75,38.15,3.));
#1583=CARTESIAN_POINT('Origin',(-37.75,-38.15,0.));
#1584=CARTESIAN_POINT('',(-39.,-38.15,3.));
#1585=CARTESIAN_POINT('',(-39.,-38.15,0.));
#1586=CARTESIAN_POINT('Origin',(-37.75,-38.15,3.));
#1587=CARTESIAN_POINT('Origin',(-0.499999999999696,-11.5,0.));
#1588=CARTESIAN_POINT('',(-0.499999999999696,-11.5,3.));
#1589=CARTESIAN_POINT('',(-0.499999999999696,-11.5,0.));
#1590=CARTESIAN_POINT('',(-3.5,-11.5,3.));
#1591=CARTESIAN_POINT('',(-0.249999999999857,-11.5,3.));
#1592=CARTESIAN_POINT('',(-3.5,-11.5,0.));
#1593=CARTESIAN_POINT('Origin',(-0.500000000000003,-21.5,0.));
#1594=CARTESIAN_POINT('',(-0.500000000000003,-21.5,3.));
#1595=CARTESIAN_POINT('',(-0.500000000000003,-21.5,0.));
#1596=CARTESIAN_POINT('',(-0.499999999999673,-10.75,3.));
#1597=CARTESIAN_POINT('Origin',(-3.5,-21.5,0.));
#1598=CARTESIAN_POINT('',(-3.5,-21.5,3.));
#1599=CARTESIAN_POINT('',(-3.5,-21.5,0.));
#1600=CARTESIAN_POINT('',(-1.74999999999997,-21.5,3.));
#1601=CARTESIAN_POINT('Origin',(-3.5,-11.5,0.));
#1602=CARTESIAN_POINT('',(-3.5,-5.75,3.));
#1603=CARTESIAN_POINT('Origin',(3.5,11.5,0.));
#1604=CARTESIAN_POINT('',(3.5,11.5,3.));
#1605=CARTESIAN_POINT('',(3.5,11.5,0.));
#1606=CARTESIAN_POINT('',(3.5,21.5,3.));
#1607=CARTESIAN_POINT('',(3.5,5.75000000000001,3.));
#1608=CARTESIAN_POINT('',(3.5,21.5,0.));
#1609=CARTESIAN_POINT('Origin',(0.5,11.5,0.));
#1610=CARTESIAN_POINT('',(0.5,11.5,3.));
#1611=CARTESIAN_POINT('',(0.5,11.5,0.));
#1612=CARTESIAN_POINT('',(0.249999999999996,11.5,3.));
#1613=CARTESIAN_POINT('Origin',(0.5,21.5,0.));
#1614=CARTESIAN_POINT('',(0.5,21.5,3.));
#1615=CARTESIAN_POINT('',(0.5,21.5,0.));
#1616=CARTESIAN_POINT('',(0.5,10.75,3.));
#1617=CARTESIAN_POINT('Origin',(3.5,21.5,0.));
#1618=CARTESIAN_POINT('',(1.75,21.5,3.));
#1619=CARTESIAN_POINT('Origin',(38.15,-37.75,0.));
#1620=CARTESIAN_POINT('',(36.9,-37.75,3.));
#1621=CARTESIAN_POINT('',(36.9,-37.75,0.));
#1622=CARTESIAN_POINT('Origin',(38.15,-37.75,3.));
#1623=CARTESIAN_POINT('Origin',(-38.15,37.75,0.));
#1624=CARTESIAN_POINT('',(-39.4,37.75,3.));
#1625=CARTESIAN_POINT('',(-39.4,37.75,0.));
#1626=CARTESIAN_POINT('Origin',(-38.15,37.75,3.));
#1627=CARTESIAN_POINT('Origin',(38.15,7.75,0.));
#1628=CARTESIAN_POINT('',(36.9,7.75,3.));
#1629=CARTESIAN_POINT('',(36.9,7.75,0.));
#1630=CARTESIAN_POINT('Origin',(38.15,7.75,3.));
#1631=CARTESIAN_POINT('Origin',(-38.15,-7.75000000000001,0.));
#1632=CARTESIAN_POINT('',(-39.4,-7.75000000000001,3.));
#1633=CARTESIAN_POINT('',(-39.4,-7.75000000000001,0.));
#1634=CARTESIAN_POINT('Origin',(-38.15,-7.75000000000001,3.));
#1635=CARTESIAN_POINT('Origin',(11.5000000000002,-0.499999999999823,0.));
#1636=CARTESIAN_POINT('',(11.5000000000002,-0.499999999999823,3.));
#1637=CARTESIAN_POINT('',(11.5000000000002,-0.499999999999823,0.));
#1638=CARTESIAN_POINT('',(11.5,-3.5,3.));
#1639=CARTESIAN_POINT('',(11.5000000000002,-0.250000000000239,3.));
#1640=CARTESIAN_POINT('',(11.5,-3.5,0.));
#1641=CARTESIAN_POINT('Origin',(21.5,-0.499999999999386,0.));
#1642=CARTESIAN_POINT('',(21.5,-0.499999999999386,3.));
#1643=CARTESIAN_POINT('',(21.5,-0.499999999999386,0.));
#1644=CARTESIAN_POINT('',(10.75,-0.499999999999856,3.));
#1645=CARTESIAN_POINT('Origin',(21.5,-3.5,0.));
#1646=CARTESIAN_POINT('',(21.5,-3.5,3.));
#1647=CARTESIAN_POINT('',(21.5,-3.5,0.));
#1648=CARTESIAN_POINT('',(21.5,-1.74999999999998,3.));
#1649=CARTESIAN_POINT('Origin',(11.5,-3.5,0.));
#1650=CARTESIAN_POINT('',(5.75,-3.5,3.));
#1651=CARTESIAN_POINT('Origin',(-17.4,33.4,0.));
#1652=CARTESIAN_POINT('',(-27.4,33.4,3.));
#1653=CARTESIAN_POINT('',(-27.4,33.4,0.));
#1654=CARTESIAN_POINT('',(-17.4,33.4,3.));
#1655=CARTESIAN_POINT('',(-27.4,33.4,3.));
#1656=CARTESIAN_POINT('',(-17.4,33.4,0.));
#1657=CARTESIAN_POINT('Origin',(-17.4,36.4,0.));
#1658=CARTESIAN_POINT('',(-17.4,36.4,3.));
#1659=CARTESIAN_POINT('',(-17.4,33.4,3.));
#1660=CARTESIAN_POINT('',(-17.4,36.4,0.));
#1661=CARTESIAN_POINT('Origin',(-27.4,36.4,0.));
#1662=CARTESIAN_POINT('',(-27.4,36.4,3.));
#1663=CARTESIAN_POINT('',(-17.4,36.4,3.));
#1664=CARTESIAN_POINT('',(-27.4,36.4,0.));
#1665=CARTESIAN_POINT('Origin',(-27.4,33.4,0.));
#1666=CARTESIAN_POINT('',(-27.4,36.4,3.));
#1667=CARTESIAN_POINT('Origin',(36.4,27.4,0.));
#1668=CARTESIAN_POINT('',(36.4,17.4,3.));
#1669=CARTESIAN_POINT('',(36.4,17.4,0.));
#1670=CARTESIAN_POINT('',(36.4,27.4,3.));
#1671=CARTESIAN_POINT('',(36.4,27.4,3.));
#1672=CARTESIAN_POINT('',(36.4,27.4,0.));
#1673=CARTESIAN_POINT('Origin',(33.4,27.4,0.));
#1674=CARTESIAN_POINT('',(33.4,27.4,3.));
#1675=CARTESIAN_POINT('',(33.4,27.4,3.));
#1676=CARTESIAN_POINT('',(33.4,27.4,0.));
#1677=CARTESIAN_POINT('Origin',(33.4,17.4,0.));
#1678=CARTESIAN_POINT('',(33.4,17.4,3.));
#1679=CARTESIAN_POINT('',(33.4,17.4,3.));
#1680=CARTESIAN_POINT('',(33.4,17.4,0.));
#1681=CARTESIAN_POINT('Origin',(36.4,17.4,0.));
#1682=CARTESIAN_POINT('',(36.4,17.4,3.));
#1683=CARTESIAN_POINT('Origin',(-36.4,-17.4,0.));
#1684=CARTESIAN_POINT('',(-33.4,-17.4,3.));
#1685=CARTESIAN_POINT('',(-33.4,-17.4,0.));
#1686=CARTESIAN_POINT('',(-36.4,-17.4,3.));
#1687=CARTESIAN_POINT('',(-33.4,-17.4,3.));
#1688=CARTESIAN_POINT('',(-36.4,-17.4,0.));
#1689=CARTESIAN_POINT('Origin',(-36.4,-27.4,0.));
#1690=CARTESIAN_POINT('',(-36.4,-27.4,3.));
#1691=CARTESIAN_POINT('',(-36.4,-17.4,3.));
#1692=CARTESIAN_POINT('',(-36.4,-27.4,0.));
#1693=CARTESIAN_POINT('Origin',(-33.4,-27.4,0.));
#1694=CARTESIAN_POINT('',(-33.4,-27.4,3.));
#1695=CARTESIAN_POINT('',(-36.4,-27.4,3.));
#1696=CARTESIAN_POINT('',(-33.4,-27.4,0.));
#1697=CARTESIAN_POINT('Origin',(-33.4,-17.4,0.));
#1698=CARTESIAN_POINT('',(-33.4,-27.4,3.));
#1699=CARTESIAN_POINT('Origin',(17.4,-33.4,0.));
#1700=CARTESIAN_POINT('',(27.4,-33.4,3.));
#1701=CARTESIAN_POINT('',(27.4,-33.4,0.));
#1702=CARTESIAN_POINT('',(17.4,-33.4,3.));
#1703=CARTESIAN_POINT('',(27.4,-33.4,3.));
#1704=CARTESIAN_POINT('',(17.4,-33.4,0.));
#1705=CARTESIAN_POINT('Origin',(17.4,-36.4,0.));
#1706=CARTESIAN_POINT('',(17.4,-36.4,3.));
#1707=CARTESIAN_POINT('',(17.4,-33.4,3.));
#1708=CARTESIAN_POINT('',(17.4,-36.4,0.));
#1709=CARTESIAN_POINT('Origin',(27.4,-36.4,0.));
#1710=CARTESIAN_POINT('',(27.4,-36.4,3.));
#1711=CARTESIAN_POINT('',(17.4,-36.4,3.));
#1712=CARTESIAN_POINT('',(27.4,-36.4,0.));
#1713=CARTESIAN_POINT('Origin',(27.4,-33.4,0.));
#1714=CARTESIAN_POINT('',(27.4,-36.4,3.));
#1715=CARTESIAN_POINT('Origin',(55.,-55.,0.));
#1716=CARTESIAN_POINT('',(55.,55.,3.));
#1717=CARTESIAN_POINT('Origin',(-55.,55.,0.));
#1718=CARTESIAN_POINT('',(-55.,-55.,3.));
#1719=CARTESIAN_POINT('Origin',(-8.88178419700125E-15,8.88178419700125E-15,
3.));
#1720=UNCERTAINTY_MEASURE_WITH_UNIT(LENGTH_MEASURE(0.01),#1724,
'DISTANCE_ACCURACY_VALUE',
'Maximum model space distance between geometric entities at asserted c
onnectivities');
#1721=UNCERTAINTY_MEASURE_WITH_UNIT(LENGTH_MEASURE(0.01),#1724,
'DISTANCE_ACCURACY_VALUE',
'Maximum model space distance between geometric entities at asserted c
onnectivities');
#1722=(
GEOMETRIC_REPRESENTATION_CONTEXT(3)
GLOBAL_UNCERTAINTY_ASSIGNED_CONTEXT((#1720))
GLOBAL_UNIT_ASSIGNED_CONTEXT((#1724,#1726,#1727))
REPRESENTATION_CONTEXT('','3D')
);
#1723=(
GEOMETRIC_REPRESENTATION_CONTEXT(3)
GLOBAL_UNCERTAINTY_ASSIGNED_CONTEXT((#1721))
GLOBAL_UNIT_ASSIGNED_CONTEXT((#1724,#1726,#1727))
REPRESENTATION_CONTEXT('','3D')
);
#1724=(
LENGTH_UNIT()
NAMED_UNIT(*)
SI_UNIT(.MILLI.,.METRE.)
);
#1725=(
LENGTH_UNIT()
NAMED_UNIT(*)
SI_UNIT($,.METRE.)
);
#1726=(
NAMED_UNIT(*)
PLANE_ANGLE_UNIT()
SI_UNIT($,.RADIAN.)
);
#1727=(
NAMED_UNIT(*)
SI_UNIT($,.STERADIAN.)
SOLID_ANGLE_UNIT()
);
#1728=SHAPE_DEFINITION_REPRESENTATION(#1729,#1730);
#1729=PRODUCT_DEFINITION_SHAPE('',$,#1732);
#1730=SHAPE_REPRESENTATION('',(#1084),#1722);
#1731=PRODUCT_DEFINITION_CONTEXT('part definition',#1736,'design');
#1732=PRODUCT_DEFINITION('BasePlate','BasePlate v7',#1733,#1731);
#1733=PRODUCT_DEFINITION_FORMATION('',$,#1738);
#1734=PRODUCT_RELATED_PRODUCT_CATEGORY('BasePlate v7','BasePlate v7',(#1738));
#1735=APPLICATION_PROTOCOL_DEFINITION('international standard',
'automotive_design',2009,#1736);
#1736=APPLICATION_CONTEXT(
'Core Data for Automotive Mechanical Design Process');
#1737=PRODUCT_CONTEXT('part definition',#1736,'mechanical');
#1738=PRODUCT('BasePlate','BasePlate v7',$,(#1737));
#1739=PRESENTATION_STYLE_ASSIGNMENT((#1741));
#1740=PRESENTATION_STYLE_ASSIGNMENT((#1742));
#1741=SURFACE_STYLE_USAGE(.BOTH.,#1743);
#1742=SURFACE_STYLE_USAGE(.BOTH.,#1744);
#1743=SURFACE_SIDE_STYLE('',(#1745));
#1744=SURFACE_SIDE_STYLE('',(#1746));
#1745=SURFACE_STYLE_FILL_AREA(#1747);
#1746=SURFACE_STYLE_FILL_AREA(#1748);
#1747=FILL_AREA_STYLE('Steel - Satin',(#1749));
#1748=FILL_AREA_STYLE('Acrylic (Clear)',(#1750));
#1749=FILL_AREA_STYLE_COLOUR('Steel - Satin',#1751);
#1750=FILL_AREA_STYLE_COLOUR('Acrylic (Clear)',#1752);
#1751=COLOUR_RGB('Steel - Satin',0.627450980392157,0.627450980392157,0.627450980392157);
#1752=COLOUR_RGB('Acrylic (Clear)',0.964705882352941,0.964705882352941,
0.952941176470588);
ENDSEC;
END-ISO-10303-21;
