ISO-10303-21;
HEADER;
/* Generated by software containing ST-Developer
 * from STEP Tools, Inc. (www.steptools.com) 
 */

FILE_DESCRIPTION(
/* description */ (''),
/* implementation_level */ '2;1');

FILE_NAME(
/* name */ 'BearingPlate8_v12.step',
/* time_stamp */ '2026-08-21T09:18:21-04:00',
/* author */ (''),
/* organization */ (''),
/* preprocessor_version */ 'ST-DEVELOPER v20.1',
/* originating_system */ 'Autodesk Translation Framework v15.8.0.0',
/* authorisation */ '');

FILE_SCHEMA (('AUTOMOTIVE_DESIGN { 1 0 10303 214 3 1 1 }'));
ENDSEC;

DATA;
#10=MECHANICAL_DESIGN_GEOMETRIC_PRESENTATION_REPRESENTATION('',(#13),#1771);
#11=SHAPE_REPRESENTATION_RELATIONSHIP('SRR','None',#1778,#12);
#12=ADVANCED_BREP_SHAPE_REPRESENTATION('',(#14),#1770);
#13=STYLED_ITEM('',(#1788),#14);
#14=MANIFOLD_SOLID_BREP('Body1',#1047);
#15=FACE_BOUND('',#189,.T.);
#16=FACE_BOUND('',#190,.T.);
#17=FACE_BOUND('',#191,.T.);
#18=FACE_BOUND('',#192,.T.);
#19=FACE_BOUND('',#193,.T.);
#20=FACE_BOUND('',#194,.T.);
#21=FACE_BOUND('',#195,.T.);
#22=FACE_BOUND('',#196,.T.);
#23=FACE_BOUND('',#197,.T.);
#24=FACE_BOUND('',#198,.T.);
#25=FACE_BOUND('',#199,.T.);
#26=FACE_BOUND('',#200,.T.);
#27=FACE_BOUND('',#201,.T.);
#28=FACE_BOUND('',#220,.T.);
#29=FACE_BOUND('',#221,.T.);
#30=FACE_BOUND('',#222,.T.);
#31=FACE_BOUND('',#223,.T.);
#32=FACE_BOUND('',#224,.T.);
#33=FACE_BOUND('',#225,.T.);
#34=FACE_BOUND('',#226,.T.);
#35=FACE_BOUND('',#227,.T.);
#36=FACE_BOUND('',#228,.T.);
#37=FACE_BOUND('',#229,.T.);
#38=FACE_BOUND('',#230,.T.);
#39=FACE_BOUND('',#231,.T.);
#40=FACE_BOUND('',#232,.T.);
#41=FACE_BOUND('',#233,.T.);
#42=CIRCLE('',#1068,2.);
#43=CIRCLE('',#1069,2.);
#44=CIRCLE('',#1073,2.);
#45=CIRCLE('',#1074,2.);
#46=CIRCLE('',#1080,2.);
#47=CIRCLE('',#1081,2.);
#48=CIRCLE('',#1083,2.);
#49=CIRCLE('',#1084,2.);
#50=CIRCLE('',#1086,2.);
#51=CIRCLE('',#1087,2.);
#52=CIRCLE('',#1092,2.);
#53=CIRCLE('',#1093,2.);
#54=CIRCLE('',#1097,2.);
#55=CIRCLE('',#1098,2.);
#56=CIRCLE('',#1101,2.);
#57=CIRCLE('',#1102,2.);
#58=CIRCLE('',#1104,8.);
#59=CIRCLE('',#1105,8.);
#60=CIRCLE('',#1108,8.);
#61=CIRCLE('',#1109,8.);
#62=CIRCLE('',#1110,8.);
#63=CIRCLE('',#1111,1.5);
#64=CIRCLE('',#1112,1.5);
#65=CIRCLE('',#1113,1.5);
#66=CIRCLE('',#1114,0.5);
#67=CIRCLE('',#1115,1.5);
#68=CIRCLE('',#1117,8.);
#69=CIRCLE('',#1120,8.);
#70=CIRCLE('',#1123,8.);
#71=CIRCLE('',#1126,1.5);
#72=CIRCLE('',#1128,1.5);
#73=CIRCLE('',#1130,1.5);
#74=CIRCLE('',#1132,0.5);
#75=CIRCLE('',#1134,1.5);
#76=CYLINDRICAL_SURFACE('',#1067,2.);
#77=CYLINDRICAL_SURFACE('',#1072,2.);
#78=CYLINDRICAL_SURFACE('',#1079,2.);
#79=CYLINDRICAL_SURFACE('',#1082,2.);
#80=CYLINDRICAL_SURFACE('',#1085,2.);
#81=CYLINDRICAL_SURFACE('',#1091,2.);
#82=CYLINDRICAL_SURFACE('',#1096,2.);
#83=CYLINDRICAL_SURFACE('',#1100,2.);
#84=CYLINDRICAL_SURFACE('',#1103,8.);
#85=CYLINDRICAL_SURFACE('',#1116,8.);
#86=CYLINDRICAL_SURFACE('',#1119,8.);
#87=CYLINDRICAL_SURFACE('',#1122,8.);
#88=CYLINDRICAL_SURFACE('',#1125,1.5);
#89=CYLINDRICAL_SURFACE('',#1127,1.5);
#90=CYLINDRICAL_SURFACE('',#1129,1.5);
#91=CYLINDRICAL_SURFACE('',#1131,0.5);
#92=CYLINDRICAL_SURFACE('',#1133,1.5);
#93=B_SPLINE_CURVE_WITH_KNOTS('',3,(#1429,#1430,#1431,#1432,#1433),
 .UNSPECIFIED.,.F.,.F.,(4,1,4),(0.,0.0378197094061398,0.069339047776688),
 .UNSPECIFIED.);
#94=B_SPLINE_CURVE_WITH_KNOTS('',3,(#1436,#1437,#1438,#1439,#1440),
 .UNSPECIFIED.,.F.,.F.,(4,1,4),(0.,0.0378197094061398,0.069339047776688),
 .UNSPECIFIED.);
#95=B_SPLINE_CURVE_WITH_KNOTS('',3,(#1452,#1453,#1454,#1455,#1456),
 .UNSPECIFIED.,.F.,.F.,(4,1,4),(0.,0.0441517627096177,0.0861996388853848),
 .UNSPECIFIED.);
#96=B_SPLINE_CURVE_WITH_KNOTS('',3,(#1459,#1460,#1461,#1462,#1463),
 .UNSPECIFIED.,.F.,.F.,(4,1,4),(0.,0.0441517627096177,0.0861996388853848),
 .UNSPECIFIED.);
#97=B_SPLINE_CURVE_WITH_KNOTS('',3,(#1481,#1482,#1483,#1484,#1485),
 .UNSPECIFIED.,.F.,.F.,(4,1,4),(0.,0.0310716189253043,0.0576511059224218),
 .UNSPECIFIED.);
#98=B_SPLINE_CURVE_WITH_KNOTS('',3,(#1488,#1489,#1490,#1491,#1492),
 .UNSPECIFIED.,.F.,.F.,(4,1,4),(0.,0.0310716189253043,0.0576511059224218),
 .UNSPECIFIED.);
#99=B_SPLINE_CURVE_WITH_KNOTS('',3,(#1504,#1505,#1506,#1507,#1508),
 .UNSPECIFIED.,.F.,.F.,(4,1,4),(0.,0.0265771211995909,0.0576155637099044),
 .UNSPECIFIED.);
#100=B_SPLINE_CURVE_WITH_KNOTS('',3,(#1511,#1512,#1513,#1514,#1515),
 .UNSPECIFIED.,.F.,.F.,(4,1,4),(0.,0.0265771211995909,0.0576155637099044),
 .UNSPECIFIED.);
#101=B_SPLINE_SURFACE_WITH_KNOTS('',3,1,((#1418,#1419),(#1420,#1421),(#1422,
#1423),(#1424,#1425),(#1426,#1427)),.UNSPECIFIED.,.F.,.F.,.F.,(4,1,4),(2,
2),(0.,0.0378197094061398,0.069339047776688),(0.,0.1),.UNSPECIFIED.);
#102=B_SPLINE_SURFACE_WITH_KNOTS('',3,1,((#1441,#1442),(#1443,#1444),(#1445,
#1446),(#1447,#1448),(#1449,#1450)),.UNSPECIFIED.,.F.,.F.,.F.,(4,1,4),(2,
2),(0.,0.0441517627096177,0.0861996388853848),(0.,0.1),.UNSPECIFIED.);
#103=B_SPLINE_SURFACE_WITH_KNOTS('',3,1,((#1470,#1471),(#1472,#1473),(#1474,
#1475),(#1476,#1477),(#1478,#1479)),.UNSPECIFIED.,.F.,.F.,.F.,(4,1,4),(2,
2),(0.,0.0310716189253043,0.0576511059224218),(0.,0.1),.UNSPECIFIED.);
#104=B_SPLINE_SURFACE_WITH_KNOTS('',3,1,((#1493,#1494),(#1495,#1496),(#1497,
#1498),(#1499,#1500),(#1501,#1502)),.UNSPECIFIED.,.F.,.F.,.F.,(4,1,4),(2,
2),(0.,0.0265771211995909,0.0576155637099044),(0.,0.1),.UNSPECIFIED.);
#105=FACE_OUTER_BOUND('',#156,.T.);
#106=FACE_OUTER_BOUND('',#157,.T.);
#107=FACE_OUTER_BOUND('',#158,.T.);
#108=FACE_OUTER_BOUND('',#159,.T.);
#109=FACE_OUTER_BOUND('',#160,.T.);
#110=FACE_OUTER_BOUND('',#161,.T.);
#111=FACE_OUTER_BOUND('',#162,.T.);
#112=FACE_OUTER_BOUND('',#163,.T.);
#113=FACE_OUTER_BOUND('',#164,.T.);
#114=FACE_OUTER_BOUND('',#165,.T.);
#115=FACE_OUTER_BOUND('',#166,.T.);
#116=FACE_OUTER_BOUND('',#167,.T.);
#117=FACE_OUTER_BOUND('',#168,.T.);
#118=FACE_OUTER_BOUND('',#169,.T.);
#119=FACE_OUTER_BOUND('',#170,.T.);
#120=FACE_OUTER_BOUND('',#171,.T.);
#121=FACE_OUTER_BOUND('',#172,.T.);
#122=FACE_OUTER_BOUND('',#173,.T.);
#123=FACE_OUTER_BOUND('',#174,.T.);
#124=FACE_OUTER_BOUND('',#175,.T.);
#125=FACE_OUTER_BOUND('',#176,.T.);
#126=FACE_OUTER_BOUND('',#177,.T.);
#127=FACE_OUTER_BOUND('',#178,.T.);
#128=FACE_OUTER_BOUND('',#179,.T.);
#129=FACE_OUTER_BOUND('',#180,.T.);
#130=FACE_OUTER_BOUND('',#181,.T.);
#131=FACE_OUTER_BOUND('',#182,.T.);
#132=FACE_OUTER_BOUND('',#183,.T.);
#133=FACE_OUTER_BOUND('',#184,.T.);
#134=FACE_OUTER_BOUND('',#185,.T.);
#135=FACE_OUTER_BOUND('',#186,.T.);
#136=FACE_OUTER_BOUND('',#187,.T.);
#137=FACE_OUTER_BOUND('',#188,.T.);
#138=FACE_OUTER_BOUND('',#202,.T.);
#139=FACE_OUTER_BOUND('',#203,.T.);
#140=FACE_OUTER_BOUND('',#204,.T.);
#141=FACE_OUTER_BOUND('',#205,.T.);
#142=FACE_OUTER_BOUND('',#206,.T.);
#143=FACE_OUTER_BOUND('',#207,.T.);
#144=FACE_OUTER_BOUND('',#208,.T.);
#145=FACE_OUTER_BOUND('',#209,.T.);
#146=FACE_OUTER_BOUND('',#210,.T.);
#147=FACE_OUTER_BOUND('',#211,.T.);
#148=FACE_OUTER_BOUND('',#212,.T.);
#149=FACE_OUTER_BOUND('',#213,.T.);
#150=FACE_OUTER_BOUND('',#214,.T.);
#151=FACE_OUTER_BOUND('',#215,.T.);
#152=FACE_OUTER_BOUND('',#216,.T.);
#153=FACE_OUTER_BOUND('',#217,.T.);
#154=FACE_OUTER_BOUND('',#218,.T.);
#155=FACE_OUTER_BOUND('',#219,.T.);
#156=EDGE_LOOP('',(#678,#679,#680,#681));
#157=EDGE_LOOP('',(#682,#683,#684,#685));
#158=EDGE_LOOP('',(#686,#687,#688,#689));
#159=EDGE_LOOP('',(#690,#691,#692,#693));
#160=EDGE_LOOP('',(#694,#695,#696,#697));
#161=EDGE_LOOP('',(#698,#699,#700,#701));
#162=EDGE_LOOP('',(#702,#703,#704,#705));
#163=EDGE_LOOP('',(#706,#707,#708,#709));
#164=EDGE_LOOP('',(#710,#711,#712,#713));
#165=EDGE_LOOP('',(#714,#715,#716,#717,#718,#719,#720,#721,#722));
#166=EDGE_LOOP('',(#723,#724,#725,#726));
#167=EDGE_LOOP('',(#727,#728,#729,#730));
#168=EDGE_LOOP('',(#731,#732,#733,#734));
#169=EDGE_LOOP('',(#735,#736,#737,#738));
#170=EDGE_LOOP('',(#739,#740,#741,#742));
#171=EDGE_LOOP('',(#743,#744,#745,#746));
#172=EDGE_LOOP('',(#747,#748,#749,#750));
#173=EDGE_LOOP('',(#751,#752,#753,#754));
#174=EDGE_LOOP('',(#755,#756,#757,#758));
#175=EDGE_LOOP('',(#759,#760,#761,#762));
#176=EDGE_LOOP('',(#763,#764,#765,#766));
#177=EDGE_LOOP('',(#767,#768,#769,#770));
#178=EDGE_LOOP('',(#771,#772,#773,#774));
#179=EDGE_LOOP('',(#775,#776,#777,#778));
#180=EDGE_LOOP('',(#779,#780,#781,#782));
#181=EDGE_LOOP('',(#783,#784,#785,#786));
#182=EDGE_LOOP('',(#787,#788,#789,#790));
#183=EDGE_LOOP('',(#791,#792,#793,#794));
#184=EDGE_LOOP('',(#795,#796,#797,#798));
#185=EDGE_LOOP('',(#799,#800,#801,#802));
#186=EDGE_LOOP('',(#803,#804,#805,#806));
#187=EDGE_LOOP('',(#807,#808,#809,#810));
#188=EDGE_LOOP('',(#811,#812,#813,#814,#815,#816,#817,#818,#819,#820,#821,
#822,#823,#824));
#189=EDGE_LOOP('',(#825));
#190=EDGE_LOOP('',(#826));
#191=EDGE_LOOP('',(#827));
#192=EDGE_LOOP('',(#828));
#193=EDGE_LOOP('',(#829));
#194=EDGE_LOOP('',(#830));
#195=EDGE_LOOP('',(#831,#832,#833,#834));
#196=EDGE_LOOP('',(#835,#836,#837,#838));
#197=EDGE_LOOP('',(#839));
#198=EDGE_LOOP('',(#840));
#199=EDGE_LOOP('',(#841,#842,#843,#844));
#200=EDGE_LOOP('',(#845,#846,#847,#848));
#201=EDGE_LOOP('',(#849));
#202=EDGE_LOOP('',(#850,#851,#852,#853));
#203=EDGE_LOOP('',(#854,#855,#856,#857));
#204=EDGE_LOOP('',(#858,#859,#860,#861));
#205=EDGE_LOOP('',(#862,#863,#864,#865));
#206=EDGE_LOOP('',(#866,#867,#868,#869));
#207=EDGE_LOOP('',(#870,#871,#872,#873));
#208=EDGE_LOOP('',(#874,#875,#876,#877));
#209=EDGE_LOOP('',(#878,#879,#880,#881));
#210=EDGE_LOOP('',(#882,#883,#884,#885));
#211=EDGE_LOOP('',(#886,#887,#888,#889));
#212=EDGE_LOOP('',(#890,#891,#892,#893));
#213=EDGE_LOOP('',(#894,#895,#896,#897));
#214=EDGE_LOOP('',(#898,#899,#900,#901));
#215=EDGE_LOOP('',(#902,#903,#904,#905));
#216=EDGE_LOOP('',(#906,#907,#908,#909));
#217=EDGE_LOOP('',(#910,#911,#912,#913));
#218=EDGE_LOOP('',(#914,#915,#916,#917));
#219=EDGE_LOOP('',(#918,#919,#920,#921,#922,#923,#924,#925,#926,#927,#928,
#929,#930,#931));
#220=EDGE_LOOP('',(#932));
#221=EDGE_LOOP('',(#933,#934,#935,#936));
#222=EDGE_LOOP('',(#937,#938,#939,#940));
#223=EDGE_LOOP('',(#941));
#224=EDGE_LOOP('',(#942));
#225=EDGE_LOOP('',(#943,#944,#945,#946));
#226=EDGE_LOOP('',(#947,#948,#949,#950));
#227=EDGE_LOOP('',(#951));
#228=EDGE_LOOP('',(#952));
#229=EDGE_LOOP('',(#953));
#230=EDGE_LOOP('',(#954));
#231=EDGE_LOOP('',(#955));
#232=EDGE_LOOP('',(#956));
#233=EDGE_LOOP('',(#957,#958,#959,#960,#961,#962,#963,#964,#965));
#234=LINE('',#1412,#336);
#235=LINE('',#1414,#337);
#236=LINE('',#1416,#338);
#237=LINE('',#1417,#339);
#238=LINE('',#1435,#340);
#239=LINE('',#1458,#341);
#240=LINE('',#1466,#342);
#241=LINE('',#1468,#343);
#242=LINE('',#1469,#344);
#243=LINE('',#1487,#345);
#244=LINE('',#1510,#346);
#245=LINE('',#1518,#347);
#246=LINE('',#1520,#348);
#247=LINE('',#1521,#349);
#248=LINE('',#1524,#350);
#249=LINE('',#1526,#351);
#250=LINE('',#1527,#352);
#251=LINE('',#1529,#353);
#252=LINE('',#1530,#354);
#253=LINE('',#1536,#355);
#254=LINE('',#1541,#356);
#255=LINE('',#1543,#357);
#256=LINE('',#1545,#358);
#257=LINE('',#1546,#359);
#258=LINE('',#1549,#360);
#259=LINE('',#1551,#361);
#260=LINE('',#1552,#362);
#261=LINE('',#1557,#363);
#262=LINE('',#1560,#364);
#263=LINE('',#1561,#365);
#264=LINE('',#1565,#366);
#265=LINE('',#1567,#367);
#266=LINE('',#1569,#368);
#267=LINE('',#1570,#369);
#268=LINE('',#1573,#370);
#269=LINE('',#1575,#371);
#270=LINE('',#1576,#372);
#271=LINE('',#1579,#373);
#272=LINE('',#1581,#374);
#273=LINE('',#1582,#375);
#274=LINE('',#1590,#376);
#275=LINE('',#1596,#377);
#276=LINE('',#1601,#378);
#277=LINE('',#1603,#379);
#278=LINE('',#1605,#380);
#279=LINE('',#1606,#381);
#280=LINE('',#1609,#382);
#281=LINE('',#1611,#383);
#282=LINE('',#1612,#384);
#283=LINE('',#1615,#385);
#284=LINE('',#1617,#386);
#285=LINE('',#1618,#387);
#286=LINE('',#1625,#388);
#287=LINE('',#1627,#389);
#288=LINE('',#1629,#390);
#289=LINE('',#1630,#391);
#290=LINE('',#1633,#392);
#291=LINE('',#1635,#393);
#292=LINE('',#1636,#394);
#293=LINE('',#1641,#395);
#294=LINE('',#1644,#396);
#295=LINE('',#1645,#397);
#296=LINE('',#1650,#398);
#297=LINE('',#1657,#399);
#298=LINE('',#1660,#400);
#299=LINE('',#1663,#401);
#300=LINE('',#1665,#402);
#301=LINE('',#1666,#403);
#302=LINE('',#1669,#404);
#303=LINE('',#1671,#405);
#304=LINE('',#1673,#406);
#305=LINE('',#1675,#407);
#306=LINE('',#1679,#408);
#307=LINE('',#1681,#409);
#308=LINE('',#1683,#410);
#309=LINE('',#1685,#411);
#310=LINE('',#1689,#412);
#311=LINE('',#1704,#413);
#312=LINE('',#1707,#414);
#313=LINE('',#1708,#415);
#314=LINE('',#1712,#416);
#315=LINE('',#1715,#417);
#316=LINE('',#1716,#418);
#317=LINE('',#1721,#419);
#318=LINE('',#1722,#420);
#319=LINE('',#1725,#421);
#320=LINE('',#1726,#422);
#321=LINE('',#1730,#423);
#322=LINE('',#1734,#424);
#323=LINE('',#1738,#425);
#324=LINE('',#1742,#426);
#325=LINE('',#1746,#427);
#326=LINE('',#1749,#428);
#327=LINE('',#1750,#429);
#328=LINE('',#1753,#430);
#329=LINE('',#1754,#431);
#330=LINE('',#1757,#432);
#331=LINE('',#1758,#433);
#332=LINE('',#1760,#434);
#333=LINE('',#1763,#435);
#334=LINE('',#1764,#436);
#335=LINE('',#1766,#437);
#336=VECTOR('',#1146,10.);
#337=VECTOR('',#1147,10.);
#338=VECTOR('',#1148,10.);
#339=VECTOR('',#1149,10.);
#340=VECTOR('',#1150,10.);
#341=VECTOR('',#1151,10.);
#342=VECTOR('',#1154,10.);
#343=VECTOR('',#1155,10.);
#344=VECTOR('',#1156,10.);
#345=VECTOR('',#1157,10.);
#346=VECTOR('',#1158,10.);
#347=VECTOR('',#1161,10.);
#348=VECTOR('',#1162,10.);
#349=VECTOR('',#1163,10.);
#350=VECTOR('',#1166,10.);
#351=VECTOR('',#1167,10.);
#352=VECTOR('',#1168,10.);
#353=VECTOR('',#1171,10.);
#354=VECTOR('',#1172,10.);
#355=VECTOR('',#1179,2.);
#356=VECTOR('',#1184,10.);
#357=VECTOR('',#1185,10.);
#358=VECTOR('',#1186,10.);
#359=VECTOR('',#1187,10.);
#360=VECTOR('',#1190,10.);
#361=VECTOR('',#1191,10.);
#362=VECTOR('',#1192,10.);
#363=VECTOR('',#1197,10.);
#364=VECTOR('',#1202,10.);
#365=VECTOR('',#1203,10.);
#366=VECTOR('',#1206,10.);
#367=VECTOR('',#1207,10.);
#368=VECTOR('',#1208,10.);
#369=VECTOR('',#1209,10.);
#370=VECTOR('',#1212,10.);
#371=VECTOR('',#1213,10.);
#372=VECTOR('',#1214,10.);
#373=VECTOR('',#1217,10.);
#374=VECTOR('',#1218,10.);
#375=VECTOR('',#1219,10.);
#376=VECTOR('',#1230,2.);
#377=VECTOR('',#1237,2.);
#378=VECTOR('',#1242,10.);
#379=VECTOR('',#1243,10.);
#380=VECTOR('',#1244,10.);
#381=VECTOR('',#1245,10.);
#382=VECTOR('',#1248,10.);
#383=VECTOR('',#1249,10.);
#384=VECTOR('',#1250,10.);
#385=VECTOR('',#1253,10.);
#386=VECTOR('',#1254,10.);
#387=VECTOR('',#1255,10.);
#388=VECTOR('',#1264,10.);
#389=VECTOR('',#1265,10.);
#390=VECTOR('',#1266,10.);
#391=VECTOR('',#1267,10.);
#392=VECTOR('',#1270,10.);
#393=VECTOR('',#1271,10.);
#394=VECTOR('',#1272,10.);
#395=VECTOR('',#1277,10.);
#396=VECTOR('',#1282,10.);
#397=VECTOR('',#1283,10.);
#398=VECTOR('',#1288,2.);
#399=VECTOR('',#1295,10.);
#400=VECTOR('',#1298,10.);
#401=VECTOR('',#1301,10.);
#402=VECTOR('',#1302,10.);
#403=VECTOR('',#1303,10.);
#404=VECTOR('',#1306,10.);
#405=VECTOR('',#1307,10.);
#406=VECTOR('',#1308,10.);
#407=VECTOR('',#1309,10.);
#408=VECTOR('',#1312,10.);
#409=VECTOR('',#1313,10.);
#410=VECTOR('',#1314,10.);
#411=VECTOR('',#1315,10.);
#412=VECTOR('',#1318,10.);
#413=VECTOR('',#1335,10.);
#414=VECTOR('',#1338,10.);
#415=VECTOR('',#1339,10.);
#416=VECTOR('',#1344,10.);
#417=VECTOR('',#1347,10.);
#418=VECTOR('',#1348,10.);
#419=VECTOR('',#1353,10.);
#420=VECTOR('',#1354,10.);
#421=VECTOR('',#1357,10.);
#422=VECTOR('',#1358,10.);
#423=VECTOR('',#1363,1.5);
#424=VECTOR('',#1368,1.5);
#425=VECTOR('',#1373,1.5);
#426=VECTOR('',#1378,0.5);
#427=VECTOR('',#1383,1.5);
#428=VECTOR('',#1386,10.);
#429=VECTOR('',#1387,10.);
#430=VECTOR('',#1390,10.);
#431=VECTOR('',#1391,10.);
#432=VECTOR('',#1394,10.);
#433=VECTOR('',#1395,10.);
#434=VECTOR('',#1398,10.);
#435=VECTOR('',#1401,10.);
#436=VECTOR('',#1402,10.);
#437=VECTOR('',#1405,10.);
#438=VERTEX_POINT('',#1410);
#439=VERTEX_POINT('',#1411);
#440=VERTEX_POINT('',#1413);
#441=VERTEX_POINT('',#1415);
#442=VERTEX_POINT('',#1428);
#443=VERTEX_POINT('',#1434);
#444=VERTEX_POINT('',#1451);
#445=VERTEX_POINT('',#1457);
#446=VERTEX_POINT('',#1465);
#447=VERTEX_POINT('',#1467);
#448=VERTEX_POINT('',#1480);
#449=VERTEX_POINT('',#1486);
#450=VERTEX_POINT('',#1503);
#451=VERTEX_POINT('',#1509);
#452=VERTEX_POINT('',#1517);
#453=VERTEX_POINT('',#1519);
#454=VERTEX_POINT('',#1523);
#455=VERTEX_POINT('',#1525);
#456=VERTEX_POINT('',#1533);
#457=VERTEX_POINT('',#1535);
#458=VERTEX_POINT('',#1539);
#459=VERTEX_POINT('',#1540);
#460=VERTEX_POINT('',#1542);
#461=VERTEX_POINT('',#1544);
#462=VERTEX_POINT('',#1548);
#463=VERTEX_POINT('',#1550);
#464=VERTEX_POINT('',#1554);
#465=VERTEX_POINT('',#1556);
#466=VERTEX_POINT('',#1563);
#467=VERTEX_POINT('',#1564);
#468=VERTEX_POINT('',#1566);
#469=VERTEX_POINT('',#1568);
#470=VERTEX_POINT('',#1572);
#471=VERTEX_POINT('',#1574);
#472=VERTEX_POINT('',#1578);
#473=VERTEX_POINT('',#1580);
#474=VERTEX_POINT('',#1587);
#475=VERTEX_POINT('',#1589);
#476=VERTEX_POINT('',#1593);
#477=VERTEX_POINT('',#1595);
#478=VERTEX_POINT('',#1599);
#479=VERTEX_POINT('',#1600);
#480=VERTEX_POINT('',#1602);
#481=VERTEX_POINT('',#1604);
#482=VERTEX_POINT('',#1608);
#483=VERTEX_POINT('',#1610);
#484=VERTEX_POINT('',#1614);
#485=VERTEX_POINT('',#1616);
#486=VERTEX_POINT('',#1623);
#487=VERTEX_POINT('',#1624);
#488=VERTEX_POINT('',#1626);
#489=VERTEX_POINT('',#1628);
#490=VERTEX_POINT('',#1632);
#491=VERTEX_POINT('',#1634);
#492=VERTEX_POINT('',#1638);
#493=VERTEX_POINT('',#1640);
#494=VERTEX_POINT('',#1647);
#495=VERTEX_POINT('',#1649);
#496=VERTEX_POINT('',#1653);
#497=VERTEX_POINT('',#1654);
#498=VERTEX_POINT('',#1656);
#499=VERTEX_POINT('',#1658);
#500=VERTEX_POINT('',#1662);
#501=VERTEX_POINT('',#1664);
#502=VERTEX_POINT('',#1668);
#503=VERTEX_POINT('',#1670);
#504=VERTEX_POINT('',#1672);
#505=VERTEX_POINT('',#1674);
#506=VERTEX_POINT('',#1676);
#507=VERTEX_POINT('',#1678);
#508=VERTEX_POINT('',#1680);
#509=VERTEX_POINT('',#1682);
#510=VERTEX_POINT('',#1684);
#511=VERTEX_POINT('',#1686);
#512=VERTEX_POINT('',#1688);
#513=VERTEX_POINT('',#1691);
#514=VERTEX_POINT('',#1693);
#515=VERTEX_POINT('',#1695);
#516=VERTEX_POINT('',#1697);
#517=VERTEX_POINT('',#1699);
#518=VERTEX_POINT('',#1702);
#519=VERTEX_POINT('',#1706);
#520=VERTEX_POINT('',#1710);
#521=VERTEX_POINT('',#1714);
#522=VERTEX_POINT('',#1718);
#523=VERTEX_POINT('',#1719);
#524=VERTEX_POINT('',#1724);
#525=VERTEX_POINT('',#1728);
#526=VERTEX_POINT('',#1732);
#527=VERTEX_POINT('',#1736);
#528=VERTEX_POINT('',#1740);
#529=VERTEX_POINT('',#1744);
#530=VERTEX_POINT('',#1748);
#531=VERTEX_POINT('',#1752);
#532=VERTEX_POINT('',#1756);
#533=VERTEX_POINT('',#1762);
#534=EDGE_CURVE('',#438,#439,#234,.T.);
#535=EDGE_CURVE('',#438,#440,#235,.T.);
#536=EDGE_CURVE('',#440,#441,#236,.T.);
#537=EDGE_CURVE('',#439,#441,#237,.T.);
#538=EDGE_CURVE('',#442,#438,#93,.T.);
#539=EDGE_CURVE('',#442,#443,#238,.T.);
#540=EDGE_CURVE('',#443,#440,#94,.T.);
#541=EDGE_CURVE('',#444,#442,#95,.T.);
#542=EDGE_CURVE('',#444,#445,#239,.T.);
#543=EDGE_CURVE('',#445,#443,#96,.T.);
#544=EDGE_CURVE('',#446,#444,#240,.T.);
#545=EDGE_CURVE('',#446,#447,#241,.T.);
#546=EDGE_CURVE('',#447,#445,#242,.T.);
#547=EDGE_CURVE('',#448,#446,#97,.T.);
#548=EDGE_CURVE('',#448,#449,#243,.T.);
#549=EDGE_CURVE('',#449,#447,#98,.T.);
#550=EDGE_CURVE('',#450,#448,#99,.T.);
#551=EDGE_CURVE('',#450,#451,#244,.T.);
#552=EDGE_CURVE('',#451,#449,#100,.T.);
#553=EDGE_CURVE('',#452,#450,#245,.T.);
#554=EDGE_CURVE('',#452,#453,#246,.T.);
#555=EDGE_CURVE('',#453,#451,#247,.T.);
#556=EDGE_CURVE('',#454,#452,#248,.T.);
#557=EDGE_CURVE('',#454,#455,#249,.T.);
#558=EDGE_CURVE('',#455,#453,#250,.T.);
#559=EDGE_CURVE('',#439,#454,#251,.T.);
#560=EDGE_CURVE('',#441,#455,#252,.T.);
#561=EDGE_CURVE('',#456,#456,#42,.T.);
#562=EDGE_CURVE('',#456,#457,#253,.T.);
#563=EDGE_CURVE('',#457,#457,#43,.T.);
#564=EDGE_CURVE('',#458,#459,#254,.T.);
#565=EDGE_CURVE('',#458,#460,#255,.T.);
#566=EDGE_CURVE('',#461,#460,#256,.T.);
#567=EDGE_CURVE('',#459,#461,#257,.T.);
#568=EDGE_CURVE('',#462,#458,#258,.T.);
#569=EDGE_CURVE('',#462,#463,#259,.T.);
#570=EDGE_CURVE('',#460,#463,#260,.T.);
#571=EDGE_CURVE('',#464,#462,#44,.T.);
#572=EDGE_CURVE('',#464,#465,#261,.T.);
#573=EDGE_CURVE('',#463,#465,#45,.T.);
#574=EDGE_CURVE('',#459,#464,#262,.T.);
#575=EDGE_CURVE('',#465,#461,#263,.T.);
#576=EDGE_CURVE('',#466,#467,#264,.T.);
#577=EDGE_CURVE('',#466,#468,#265,.T.);
#578=EDGE_CURVE('',#469,#468,#266,.T.);
#579=EDGE_CURVE('',#467,#469,#267,.T.);
#580=EDGE_CURVE('',#470,#466,#268,.T.);
#581=EDGE_CURVE('',#470,#471,#269,.T.);
#582=EDGE_CURVE('',#468,#471,#270,.T.);
#583=EDGE_CURVE('',#472,#470,#271,.T.);
#584=EDGE_CURVE('',#472,#473,#272,.T.);
#585=EDGE_CURVE('',#471,#473,#273,.T.);
#586=EDGE_CURVE('',#467,#472,#46,.T.);
#587=EDGE_CURVE('',#473,#469,#47,.T.);
#588=EDGE_CURVE('',#474,#474,#48,.T.);
#589=EDGE_CURVE('',#474,#475,#274,.T.);
#590=EDGE_CURVE('',#475,#475,#49,.T.);
#591=EDGE_CURVE('',#476,#476,#50,.T.);
#592=EDGE_CURVE('',#476,#477,#275,.T.);
#593=EDGE_CURVE('',#477,#477,#51,.T.);
#594=EDGE_CURVE('',#478,#479,#276,.T.);
#595=EDGE_CURVE('',#478,#480,#277,.T.);
#596=EDGE_CURVE('',#481,#480,#278,.T.);
#597=EDGE_CURVE('',#479,#481,#279,.T.);
#598=EDGE_CURVE('',#482,#478,#280,.T.);
#599=EDGE_CURVE('',#482,#483,#281,.T.);
#600=EDGE_CURVE('',#480,#483,#282,.T.);
#601=EDGE_CURVE('',#484,#482,#283,.T.);
#602=EDGE_CURVE('',#484,#485,#284,.T.);
#603=EDGE_CURVE('',#483,#485,#285,.T.);
#604=EDGE_CURVE('',#479,#484,#52,.T.);
#605=EDGE_CURVE('',#485,#481,#53,.T.);
#606=EDGE_CURVE('',#486,#487,#286,.T.);
#607=EDGE_CURVE('',#486,#488,#287,.T.);
#608=EDGE_CURVE('',#489,#488,#288,.T.);
#609=EDGE_CURVE('',#487,#489,#289,.T.);
#610=EDGE_CURVE('',#490,#486,#290,.T.);
#611=EDGE_CURVE('',#490,#491,#291,.T.);
#612=EDGE_CURVE('',#488,#491,#292,.T.);
#613=EDGE_CURVE('',#492,#490,#54,.T.);
#614=EDGE_CURVE('',#492,#493,#293,.T.);
#615=EDGE_CURVE('',#491,#493,#55,.T.);
#616=EDGE_CURVE('',#487,#492,#294,.T.);
#617=EDGE_CURVE('',#493,#489,#295,.T.);
#618=EDGE_CURVE('',#494,#494,#56,.T.);
#619=EDGE_CURVE('',#494,#495,#296,.T.);
#620=EDGE_CURVE('',#495,#495,#57,.T.);
#621=EDGE_CURVE('',#496,#497,#58,.T.);
#622=EDGE_CURVE('',#497,#498,#297,.T.);
#623=EDGE_CURVE('',#498,#499,#59,.T.);
#624=EDGE_CURVE('',#499,#496,#298,.T.);
#625=EDGE_CURVE('',#500,#499,#299,.T.);
#626=EDGE_CURVE('',#501,#500,#300,.T.);
#627=EDGE_CURVE('',#496,#501,#301,.T.);
#628=EDGE_CURVE('',#498,#502,#302,.T.);
#629=EDGE_CURVE('',#502,#503,#303,.T.);
#630=EDGE_CURVE('',#504,#503,#304,.T.);
#631=EDGE_CURVE('',#504,#505,#305,.T.);
#632=EDGE_CURVE('',#506,#505,#60,.T.);
#633=EDGE_CURVE('',#506,#507,#306,.T.);
#634=EDGE_CURVE('',#508,#507,#307,.T.);
#635=EDGE_CURVE('',#508,#509,#308,.T.);
#636=EDGE_CURVE('',#509,#510,#309,.T.);
#637=EDGE_CURVE('',#511,#510,#61,.T.);
#638=EDGE_CURVE('',#511,#512,#310,.T.);
#639=EDGE_CURVE('',#500,#512,#62,.T.);
#640=EDGE_CURVE('',#513,#513,#63,.T.);
#641=EDGE_CURVE('',#514,#514,#64,.T.);
#642=EDGE_CURVE('',#515,#515,#65,.T.);
#643=EDGE_CURVE('',#516,#516,#66,.T.);
#644=EDGE_CURVE('',#517,#517,#67,.T.);
#645=EDGE_CURVE('',#518,#501,#68,.T.);
#646=EDGE_CURVE('',#512,#518,#311,.T.);
#647=EDGE_CURVE('',#519,#511,#312,.T.);
#648=EDGE_CURVE('',#518,#519,#313,.T.);
#649=EDGE_CURVE('',#520,#519,#69,.T.);
#650=EDGE_CURVE('',#510,#520,#314,.T.);
#651=EDGE_CURVE('',#509,#521,#315,.T.);
#652=EDGE_CURVE('',#520,#521,#316,.T.);
#653=EDGE_CURVE('',#522,#523,#70,.T.);
#654=EDGE_CURVE('',#523,#506,#317,.T.);
#655=EDGE_CURVE('',#505,#522,#318,.T.);
#656=EDGE_CURVE('',#524,#523,#319,.T.);
#657=EDGE_CURVE('',#507,#524,#320,.T.);
#658=EDGE_CURVE('',#525,#525,#71,.T.);
#659=EDGE_CURVE('',#525,#513,#321,.T.);
#660=EDGE_CURVE('',#526,#526,#72,.T.);
#661=EDGE_CURVE('',#526,#514,#322,.T.);
#662=EDGE_CURVE('',#527,#527,#73,.T.);
#663=EDGE_CURVE('',#527,#515,#323,.T.);
#664=EDGE_CURVE('',#528,#528,#74,.T.);
#665=EDGE_CURVE('',#528,#516,#324,.T.);
#666=EDGE_CURVE('',#529,#529,#75,.T.);
#667=EDGE_CURVE('',#529,#517,#325,.T.);
#668=EDGE_CURVE('',#530,#497,#326,.T.);
#669=EDGE_CURVE('',#502,#530,#327,.T.);
#670=EDGE_CURVE('',#531,#530,#328,.T.);
#671=EDGE_CURVE('',#503,#531,#329,.T.);
#672=EDGE_CURVE('',#532,#531,#330,.T.);
#673=EDGE_CURVE('',#504,#532,#331,.T.);
#674=EDGE_CURVE('',#522,#532,#332,.T.);
#675=EDGE_CURVE('',#533,#524,#333,.T.);
#676=EDGE_CURVE('',#508,#533,#334,.T.);
#677=EDGE_CURVE('',#521,#533,#335,.T.);
#678=ORIENTED_EDGE('',*,*,#534,.F.);
#679=ORIENTED_EDGE('',*,*,#535,.T.);
#680=ORIENTED_EDGE('',*,*,#536,.T.);
#681=ORIENTED_EDGE('',*,*,#537,.F.);
#682=ORIENTED_EDGE('',*,*,#538,.F.);
#683=ORIENTED_EDGE('',*,*,#539,.T.);
#684=ORIENTED_EDGE('',*,*,#540,.T.);
#685=ORIENTED_EDGE('',*,*,#535,.F.);
#686=ORIENTED_EDGE('',*,*,#541,.F.);
#687=ORIENTED_EDGE('',*,*,#542,.T.);
#688=ORIENTED_EDGE('',*,*,#543,.T.);
#689=ORIENTED_EDGE('',*,*,#539,.F.);
#690=ORIENTED_EDGE('',*,*,#544,.F.);
#691=ORIENTED_EDGE('',*,*,#545,.T.);
#692=ORIENTED_EDGE('',*,*,#546,.T.);
#693=ORIENTED_EDGE('',*,*,#542,.F.);
#694=ORIENTED_EDGE('',*,*,#547,.F.);
#695=ORIENTED_EDGE('',*,*,#548,.T.);
#696=ORIENTED_EDGE('',*,*,#549,.T.);
#697=ORIENTED_EDGE('',*,*,#545,.F.);
#698=ORIENTED_EDGE('',*,*,#550,.F.);
#699=ORIENTED_EDGE('',*,*,#551,.T.);
#700=ORIENTED_EDGE('',*,*,#552,.T.);
#701=ORIENTED_EDGE('',*,*,#548,.F.);
#702=ORIENTED_EDGE('',*,*,#553,.F.);
#703=ORIENTED_EDGE('',*,*,#554,.T.);
#704=ORIENTED_EDGE('',*,*,#555,.T.);
#705=ORIENTED_EDGE('',*,*,#551,.F.);
#706=ORIENTED_EDGE('',*,*,#556,.F.);
#707=ORIENTED_EDGE('',*,*,#557,.T.);
#708=ORIENTED_EDGE('',*,*,#558,.T.);
#709=ORIENTED_EDGE('',*,*,#554,.F.);
#710=ORIENTED_EDGE('',*,*,#559,.F.);
#711=ORIENTED_EDGE('',*,*,#537,.T.);
#712=ORIENTED_EDGE('',*,*,#560,.T.);
#713=ORIENTED_EDGE('',*,*,#557,.F.);
#714=ORIENTED_EDGE('',*,*,#560,.F.);
#715=ORIENTED_EDGE('',*,*,#536,.F.);
#716=ORIENTED_EDGE('',*,*,#540,.F.);
#717=ORIENTED_EDGE('',*,*,#543,.F.);
#718=ORIENTED_EDGE('',*,*,#546,.F.);
#719=ORIENTED_EDGE('',*,*,#549,.F.);
#720=ORIENTED_EDGE('',*,*,#552,.F.);
#721=ORIENTED_EDGE('',*,*,#555,.F.);
#722=ORIENTED_EDGE('',*,*,#558,.F.);
#723=ORIENTED_EDGE('',*,*,#561,.F.);
#724=ORIENTED_EDGE('',*,*,#562,.T.);
#725=ORIENTED_EDGE('',*,*,#563,.F.);
#726=ORIENTED_EDGE('',*,*,#562,.F.);
#727=ORIENTED_EDGE('',*,*,#564,.F.);
#728=ORIENTED_EDGE('',*,*,#565,.T.);
#729=ORIENTED_EDGE('',*,*,#566,.F.);
#730=ORIENTED_EDGE('',*,*,#567,.F.);
#731=ORIENTED_EDGE('',*,*,#568,.F.);
#732=ORIENTED_EDGE('',*,*,#569,.T.);
#733=ORIENTED_EDGE('',*,*,#570,.F.);
#734=ORIENTED_EDGE('',*,*,#565,.F.);
#735=ORIENTED_EDGE('',*,*,#571,.F.);
#736=ORIENTED_EDGE('',*,*,#572,.T.);
#737=ORIENTED_EDGE('',*,*,#573,.F.);
#738=ORIENTED_EDGE('',*,*,#569,.F.);
#739=ORIENTED_EDGE('',*,*,#574,.F.);
#740=ORIENTED_EDGE('',*,*,#567,.T.);
#741=ORIENTED_EDGE('',*,*,#575,.F.);
#742=ORIENTED_EDGE('',*,*,#572,.F.);
#743=ORIENTED_EDGE('',*,*,#576,.F.);
#744=ORIENTED_EDGE('',*,*,#577,.T.);
#745=ORIENTED_EDGE('',*,*,#578,.F.);
#746=ORIENTED_EDGE('',*,*,#579,.F.);
#747=ORIENTED_EDGE('',*,*,#580,.F.);
#748=ORIENTED_EDGE('',*,*,#581,.T.);
#749=ORIENTED_EDGE('',*,*,#582,.F.);
#750=ORIENTED_EDGE('',*,*,#577,.F.);
#751=ORIENTED_EDGE('',*,*,#583,.F.);
#752=ORIENTED_EDGE('',*,*,#584,.T.);
#753=ORIENTED_EDGE('',*,*,#585,.F.);
#754=ORIENTED_EDGE('',*,*,#581,.F.);
#755=ORIENTED_EDGE('',*,*,#586,.F.);
#756=ORIENTED_EDGE('',*,*,#579,.T.);
#757=ORIENTED_EDGE('',*,*,#587,.F.);
#758=ORIENTED_EDGE('',*,*,#584,.F.);
#759=ORIENTED_EDGE('',*,*,#588,.F.);
#760=ORIENTED_EDGE('',*,*,#589,.T.);
#761=ORIENTED_EDGE('',*,*,#590,.F.);
#762=ORIENTED_EDGE('',*,*,#589,.F.);
#763=ORIENTED_EDGE('',*,*,#591,.F.);
#764=ORIENTED_EDGE('',*,*,#592,.T.);
#765=ORIENTED_EDGE('',*,*,#593,.F.);
#766=ORIENTED_EDGE('',*,*,#592,.F.);
#767=ORIENTED_EDGE('',*,*,#594,.F.);
#768=ORIENTED_EDGE('',*,*,#595,.T.);
#769=ORIENTED_EDGE('',*,*,#596,.F.);
#770=ORIENTED_EDGE('',*,*,#597,.F.);
#771=ORIENTED_EDGE('',*,*,#598,.F.);
#772=ORIENTED_EDGE('',*,*,#599,.T.);
#773=ORIENTED_EDGE('',*,*,#600,.F.);
#774=ORIENTED_EDGE('',*,*,#595,.F.);
#775=ORIENTED_EDGE('',*,*,#601,.F.);
#776=ORIENTED_EDGE('',*,*,#602,.T.);
#777=ORIENTED_EDGE('',*,*,#603,.F.);
#778=ORIENTED_EDGE('',*,*,#599,.F.);
#779=ORIENTED_EDGE('',*,*,#604,.F.);
#780=ORIENTED_EDGE('',*,*,#597,.T.);
#781=ORIENTED_EDGE('',*,*,#605,.F.);
#782=ORIENTED_EDGE('',*,*,#602,.F.);
#783=ORIENTED_EDGE('',*,*,#606,.F.);
#784=ORIENTED_EDGE('',*,*,#607,.T.);
#785=ORIENTED_EDGE('',*,*,#608,.F.);
#786=ORIENTED_EDGE('',*,*,#609,.F.);
#787=ORIENTED_EDGE('',*,*,#610,.F.);
#788=ORIENTED_EDGE('',*,*,#611,.T.);
#789=ORIENTED_EDGE('',*,*,#612,.F.);
#790=ORIENTED_EDGE('',*,*,#607,.F.);
#791=ORIENTED_EDGE('',*,*,#613,.F.);
#792=ORIENTED_EDGE('',*,*,#614,.T.);
#793=ORIENTED_EDGE('',*,*,#615,.F.);
#794=ORIENTED_EDGE('',*,*,#611,.F.);
#795=ORIENTED_EDGE('',*,*,#616,.F.);
#796=ORIENTED_EDGE('',*,*,#609,.T.);
#797=ORIENTED_EDGE('',*,*,#617,.F.);
#798=ORIENTED_EDGE('',*,*,#614,.F.);
#799=ORIENTED_EDGE('',*,*,#618,.F.);
#800=ORIENTED_EDGE('',*,*,#619,.T.);
#801=ORIENTED_EDGE('',*,*,#620,.F.);
#802=ORIENTED_EDGE('',*,*,#619,.F.);
#803=ORIENTED_EDGE('',*,*,#621,.T.);
#804=ORIENTED_EDGE('',*,*,#622,.T.);
#805=ORIENTED_EDGE('',*,*,#623,.T.);
#806=ORIENTED_EDGE('',*,*,#624,.T.);
#807=ORIENTED_EDGE('',*,*,#624,.F.);
#808=ORIENTED_EDGE('',*,*,#625,.F.);
#809=ORIENTED_EDGE('',*,*,#626,.F.);
#810=ORIENTED_EDGE('',*,*,#627,.F.);
#811=ORIENTED_EDGE('',*,*,#623,.F.);
#812=ORIENTED_EDGE('',*,*,#628,.T.);
#813=ORIENTED_EDGE('',*,*,#629,.T.);
#814=ORIENTED_EDGE('',*,*,#630,.F.);
#815=ORIENTED_EDGE('',*,*,#631,.T.);
#816=ORIENTED_EDGE('',*,*,#632,.F.);
#817=ORIENTED_EDGE('',*,*,#633,.T.);
#818=ORIENTED_EDGE('',*,*,#634,.F.);
#819=ORIENTED_EDGE('',*,*,#635,.T.);
#820=ORIENTED_EDGE('',*,*,#636,.T.);
#821=ORIENTED_EDGE('',*,*,#637,.F.);
#822=ORIENTED_EDGE('',*,*,#638,.T.);
#823=ORIENTED_EDGE('',*,*,#639,.F.);
#824=ORIENTED_EDGE('',*,*,#625,.T.);
#825=ORIENTED_EDGE('',*,*,#640,.F.);
#826=ORIENTED_EDGE('',*,*,#641,.F.);
#827=ORIENTED_EDGE('',*,*,#642,.F.);
#828=ORIENTED_EDGE('',*,*,#643,.F.);
#829=ORIENTED_EDGE('',*,*,#644,.F.);
#830=ORIENTED_EDGE('',*,*,#618,.T.);
#831=ORIENTED_EDGE('',*,*,#606,.T.);
#832=ORIENTED_EDGE('',*,*,#616,.T.);
#833=ORIENTED_EDGE('',*,*,#613,.T.);
#834=ORIENTED_EDGE('',*,*,#610,.T.);
#835=ORIENTED_EDGE('',*,*,#594,.T.);
#836=ORIENTED_EDGE('',*,*,#604,.T.);
#837=ORIENTED_EDGE('',*,*,#601,.T.);
#838=ORIENTED_EDGE('',*,*,#598,.T.);
#839=ORIENTED_EDGE('',*,*,#591,.T.);
#840=ORIENTED_EDGE('',*,*,#588,.T.);
#841=ORIENTED_EDGE('',*,*,#576,.T.);
#842=ORIENTED_EDGE('',*,*,#586,.T.);
#843=ORIENTED_EDGE('',*,*,#583,.T.);
#844=ORIENTED_EDGE('',*,*,#580,.T.);
#845=ORIENTED_EDGE('',*,*,#564,.T.);
#846=ORIENTED_EDGE('',*,*,#574,.T.);
#847=ORIENTED_EDGE('',*,*,#571,.T.);
#848=ORIENTED_EDGE('',*,*,#568,.T.);
#849=ORIENTED_EDGE('',*,*,#561,.T.);
#850=ORIENTED_EDGE('',*,*,#645,.T.);
#851=ORIENTED_EDGE('',*,*,#626,.T.);
#852=ORIENTED_EDGE('',*,*,#639,.T.);
#853=ORIENTED_EDGE('',*,*,#646,.T.);
#854=ORIENTED_EDGE('',*,*,#646,.F.);
#855=ORIENTED_EDGE('',*,*,#638,.F.);
#856=ORIENTED_EDGE('',*,*,#647,.F.);
#857=ORIENTED_EDGE('',*,*,#648,.F.);
#858=ORIENTED_EDGE('',*,*,#649,.T.);
#859=ORIENTED_EDGE('',*,*,#647,.T.);
#860=ORIENTED_EDGE('',*,*,#637,.T.);
#861=ORIENTED_EDGE('',*,*,#650,.T.);
#862=ORIENTED_EDGE('',*,*,#650,.F.);
#863=ORIENTED_EDGE('',*,*,#636,.F.);
#864=ORIENTED_EDGE('',*,*,#651,.T.);
#865=ORIENTED_EDGE('',*,*,#652,.F.);
#866=ORIENTED_EDGE('',*,*,#653,.T.);
#867=ORIENTED_EDGE('',*,*,#654,.T.);
#868=ORIENTED_EDGE('',*,*,#632,.T.);
#869=ORIENTED_EDGE('',*,*,#655,.T.);
#870=ORIENTED_EDGE('',*,*,#654,.F.);
#871=ORIENTED_EDGE('',*,*,#656,.F.);
#872=ORIENTED_EDGE('',*,*,#657,.F.);
#873=ORIENTED_EDGE('',*,*,#633,.F.);
#874=ORIENTED_EDGE('',*,*,#658,.F.);
#875=ORIENTED_EDGE('',*,*,#659,.T.);
#876=ORIENTED_EDGE('',*,*,#640,.T.);
#877=ORIENTED_EDGE('',*,*,#659,.F.);
#878=ORIENTED_EDGE('',*,*,#660,.F.);
#879=ORIENTED_EDGE('',*,*,#661,.T.);
#880=ORIENTED_EDGE('',*,*,#641,.T.);
#881=ORIENTED_EDGE('',*,*,#661,.F.);
#882=ORIENTED_EDGE('',*,*,#662,.F.);
#883=ORIENTED_EDGE('',*,*,#663,.T.);
#884=ORIENTED_EDGE('',*,*,#642,.T.);
#885=ORIENTED_EDGE('',*,*,#663,.F.);
#886=ORIENTED_EDGE('',*,*,#664,.F.);
#887=ORIENTED_EDGE('',*,*,#665,.T.);
#888=ORIENTED_EDGE('',*,*,#643,.T.);
#889=ORIENTED_EDGE('',*,*,#665,.F.);
#890=ORIENTED_EDGE('',*,*,#666,.F.);
#891=ORIENTED_EDGE('',*,*,#667,.T.);
#892=ORIENTED_EDGE('',*,*,#644,.T.);
#893=ORIENTED_EDGE('',*,*,#667,.F.);
#894=ORIENTED_EDGE('',*,*,#622,.F.);
#895=ORIENTED_EDGE('',*,*,#668,.F.);
#896=ORIENTED_EDGE('',*,*,#669,.F.);
#897=ORIENTED_EDGE('',*,*,#628,.F.);
#898=ORIENTED_EDGE('',*,*,#629,.F.);
#899=ORIENTED_EDGE('',*,*,#669,.T.);
#900=ORIENTED_EDGE('',*,*,#670,.F.);
#901=ORIENTED_EDGE('',*,*,#671,.F.);
#902=ORIENTED_EDGE('',*,*,#630,.T.);
#903=ORIENTED_EDGE('',*,*,#671,.T.);
#904=ORIENTED_EDGE('',*,*,#672,.F.);
#905=ORIENTED_EDGE('',*,*,#673,.F.);
#906=ORIENTED_EDGE('',*,*,#655,.F.);
#907=ORIENTED_EDGE('',*,*,#631,.F.);
#908=ORIENTED_EDGE('',*,*,#673,.T.);
#909=ORIENTED_EDGE('',*,*,#674,.F.);
#910=ORIENTED_EDGE('',*,*,#634,.T.);
#911=ORIENTED_EDGE('',*,*,#657,.T.);
#912=ORIENTED_EDGE('',*,*,#675,.F.);
#913=ORIENTED_EDGE('',*,*,#676,.F.);
#914=ORIENTED_EDGE('',*,*,#635,.F.);
#915=ORIENTED_EDGE('',*,*,#676,.T.);
#916=ORIENTED_EDGE('',*,*,#677,.F.);
#917=ORIENTED_EDGE('',*,*,#651,.F.);
#918=ORIENTED_EDGE('',*,*,#621,.F.);
#919=ORIENTED_EDGE('',*,*,#627,.T.);
#920=ORIENTED_EDGE('',*,*,#645,.F.);
#921=ORIENTED_EDGE('',*,*,#648,.T.);
#922=ORIENTED_EDGE('',*,*,#649,.F.);
#923=ORIENTED_EDGE('',*,*,#652,.T.);
#924=ORIENTED_EDGE('',*,*,#677,.T.);
#925=ORIENTED_EDGE('',*,*,#675,.T.);
#926=ORIENTED_EDGE('',*,*,#656,.T.);
#927=ORIENTED_EDGE('',*,*,#653,.F.);
#928=ORIENTED_EDGE('',*,*,#674,.T.);
#929=ORIENTED_EDGE('',*,*,#672,.T.);
#930=ORIENTED_EDGE('',*,*,#670,.T.);
#931=ORIENTED_EDGE('',*,*,#668,.T.);
#932=ORIENTED_EDGE('',*,*,#563,.T.);
#933=ORIENTED_EDGE('',*,*,#566,.T.);
#934=ORIENTED_EDGE('',*,*,#570,.T.);
#935=ORIENTED_EDGE('',*,*,#573,.T.);
#936=ORIENTED_EDGE('',*,*,#575,.T.);
#937=ORIENTED_EDGE('',*,*,#578,.T.);
#938=ORIENTED_EDGE('',*,*,#582,.T.);
#939=ORIENTED_EDGE('',*,*,#585,.T.);
#940=ORIENTED_EDGE('',*,*,#587,.T.);
#941=ORIENTED_EDGE('',*,*,#590,.T.);
#942=ORIENTED_EDGE('',*,*,#593,.T.);
#943=ORIENTED_EDGE('',*,*,#596,.T.);
#944=ORIENTED_EDGE('',*,*,#600,.T.);
#945=ORIENTED_EDGE('',*,*,#603,.T.);
#946=ORIENTED_EDGE('',*,*,#605,.T.);
#947=ORIENTED_EDGE('',*,*,#608,.T.);
#948=ORIENTED_EDGE('',*,*,#612,.T.);
#949=ORIENTED_EDGE('',*,*,#615,.T.);
#950=ORIENTED_EDGE('',*,*,#617,.T.);
#951=ORIENTED_EDGE('',*,*,#620,.T.);
#952=ORIENTED_EDGE('',*,*,#666,.T.);
#953=ORIENTED_EDGE('',*,*,#664,.T.);
#954=ORIENTED_EDGE('',*,*,#662,.T.);
#955=ORIENTED_EDGE('',*,*,#660,.T.);
#956=ORIENTED_EDGE('',*,*,#658,.T.);
#957=ORIENTED_EDGE('',*,*,#534,.T.);
#958=ORIENTED_EDGE('',*,*,#559,.T.);
#959=ORIENTED_EDGE('',*,*,#556,.T.);
#960=ORIENTED_EDGE('',*,*,#553,.T.);
#961=ORIENTED_EDGE('',*,*,#550,.T.);
#962=ORIENTED_EDGE('',*,*,#547,.T.);
#963=ORIENTED_EDGE('',*,*,#544,.T.);
#964=ORIENTED_EDGE('',*,*,#541,.T.);
#965=ORIENTED_EDGE('',*,*,#538,.T.);
#966=PLANE('',#1061);
#967=PLANE('',#1062);
#968=PLANE('',#1063);
#969=PLANE('',#1064);
#970=PLANE('',#1065);
#971=PLANE('',#1066);
#972=PLANE('',#1070);
#973=PLANE('',#1071);
#974=PLANE('',#1075);
#975=PLANE('',#1076);
#976=PLANE('',#1077);
#977=PLANE('',#1078);
#978=PLANE('',#1088);
#979=PLANE('',#1089);
#980=PLANE('',#1090);
#981=PLANE('',#1094);
#982=PLANE('',#1095);
#983=PLANE('',#1099);
#984=PLANE('',#1106);
#985=PLANE('',#1107);
#986=PLANE('',#1118);
#987=PLANE('',#1121);
#988=PLANE('',#1124);
#989=PLANE('',#1135);
#990=PLANE('',#1136);
#991=PLANE('',#1137);
#992=PLANE('',#1138);
#993=PLANE('',#1139);
#994=PLANE('',#1140);
#995=PLANE('',#1141);
#996=ADVANCED_FACE('',(#105),#966,.F.);
#997=ADVANCED_FACE('',(#106),#101,.F.);
#998=ADVANCED_FACE('',(#107),#102,.F.);
#999=ADVANCED_FACE('',(#108),#967,.F.);
#1000=ADVANCED_FACE('',(#109),#103,.F.);
#1001=ADVANCED_FACE('',(#110),#104,.F.);
#1002=ADVANCED_FACE('',(#111),#968,.F.);
#1003=ADVANCED_FACE('',(#112),#969,.F.);
#1004=ADVANCED_FACE('',(#113),#970,.F.);
#1005=ADVANCED_FACE('',(#114),#971,.T.);
#1006=ADVANCED_FACE('',(#115),#76,.F.);
#1007=ADVANCED_FACE('',(#116),#972,.F.);
#1008=ADVANCED_FACE('',(#117),#973,.F.);
#1009=ADVANCED_FACE('',(#118),#77,.F.);
#1010=ADVANCED_FACE('',(#119),#974,.F.);
#1011=ADVANCED_FACE('',(#120),#975,.F.);
#1012=ADVANCED_FACE('',(#121),#976,.F.);
#1013=ADVANCED_FACE('',(#122),#977,.F.);
#1014=ADVANCED_FACE('',(#123),#78,.F.);
#1015=ADVANCED_FACE('',(#124),#79,.F.);
#1016=ADVANCED_FACE('',(#125),#80,.F.);
#1017=ADVANCED_FACE('',(#126),#978,.F.);
#1018=ADVANCED_FACE('',(#127),#979,.F.);
#1019=ADVANCED_FACE('',(#128),#980,.F.);
#1020=ADVANCED_FACE('',(#129),#81,.F.);
#1021=ADVANCED_FACE('',(#130),#981,.F.);
#1022=ADVANCED_FACE('',(#131),#982,.F.);
#1023=ADVANCED_FACE('',(#132),#82,.F.);
#1024=ADVANCED_FACE('',(#133),#983,.F.);
#1025=ADVANCED_FACE('',(#134),#83,.F.);
#1026=ADVANCED_FACE('',(#135),#84,.T.);
#1027=ADVANCED_FACE('',(#136),#984,.T.);
#1028=ADVANCED_FACE('',(#137,#15,#16,#17,#18,#19,#20,#21,#22,#23,#24,#25,
#26,#27),#985,.F.);
#1029=ADVANCED_FACE('',(#138),#85,.T.);
#1030=ADVANCED_FACE('',(#139),#986,.T.);
#1031=ADVANCED_FACE('',(#140),#86,.T.);
#1032=ADVANCED_FACE('',(#141),#987,.T.);
#1033=ADVANCED_FACE('',(#142),#87,.T.);
#1034=ADVANCED_FACE('',(#143),#988,.T.);
#1035=ADVANCED_FACE('',(#144),#88,.F.);
#1036=ADVANCED_FACE('',(#145),#89,.F.);
#1037=ADVANCED_FACE('',(#146),#90,.F.);
#1038=ADVANCED_FACE('',(#147),#91,.F.);
#1039=ADVANCED_FACE('',(#148),#92,.F.);
#1040=ADVANCED_FACE('',(#149),#989,.T.);
#1041=ADVANCED_FACE('',(#150),#990,.T.);
#1042=ADVANCED_FACE('',(#151),#991,.T.);
#1043=ADVANCED_FACE('',(#152),#992,.T.);
#1044=ADVANCED_FACE('',(#153),#993,.T.);
#1045=ADVANCED_FACE('',(#154),#994,.T.);
#1046=ADVANCED_FACE('',(#155,#28,#29,#30,#31,#32,#33,#34,#35,#36,#37,#38,
#39,#40,#41),#995,.T.);
#1047=CLOSED_SHELL('',(#996,#997,#998,#999,#1000,#1001,#1002,#1003,#1004,
#1005,#1006,#1007,#1008,#1009,#1010,#1011,#1012,#1013,#1014,#1015,#1016,
#1017,#1018,#1019,#1020,#1021,#1022,#1023,#1024,#1025,#1026,#1027,#1028,
#1029,#1030,#1031,#1032,#1033,#1034,#1035,#1036,#1037,#1038,#1039,#1040,
#1041,#1042,#1043,#1044,#1045,#1046));
#1048=DERIVED_UNIT_ELEMENT(#1050,1.);
#1049=DERIVED_UNIT_ELEMENT(#1773,-3.);
#1050=(
MASS_UNIT()
NAMED_UNIT(*)
SI_UNIT(.KILO.,.GRAM.)
);
#1051=DERIVED_UNIT((#1048,#1049));
#1052=MEASURE_REPRESENTATION_ITEM('density measure',
POSITIVE_RATIO_MEASURE(7850.),#1051);
#1053=PROPERTY_DEFINITION_REPRESENTATION(#1058,#1055);
#1054=PROPERTY_DEFINITION_REPRESENTATION(#1059,#1056);
#1055=REPRESENTATION('material name',(#1057),#1770);
#1056=REPRESENTATION('density',(#1052),#1770);
#1057=DESCRIPTIVE_REPRESENTATION_ITEM('Steel','Steel');
#1058=PROPERTY_DEFINITION('material property','material name',#1780);
#1059=PROPERTY_DEFINITION('material property','density of part',#1780);
#1060=AXIS2_PLACEMENT_3D('',#1408,#1142,#1143);
#1061=AXIS2_PLACEMENT_3D('',#1409,#1144,#1145);
#1062=AXIS2_PLACEMENT_3D('',#1464,#1152,#1153);
#1063=AXIS2_PLACEMENT_3D('',#1516,#1159,#1160);
#1064=AXIS2_PLACEMENT_3D('',#1522,#1164,#1165);
#1065=AXIS2_PLACEMENT_3D('',#1528,#1169,#1170);
#1066=AXIS2_PLACEMENT_3D('',#1531,#1173,#1174);
#1067=AXIS2_PLACEMENT_3D('',#1532,#1175,#1176);
#1068=AXIS2_PLACEMENT_3D('',#1534,#1177,#1178);
#1069=AXIS2_PLACEMENT_3D('',#1537,#1180,#1181);
#1070=AXIS2_PLACEMENT_3D('',#1538,#1182,#1183);
#1071=AXIS2_PLACEMENT_3D('',#1547,#1188,#1189);
#1072=AXIS2_PLACEMENT_3D('',#1553,#1193,#1194);
#1073=AXIS2_PLACEMENT_3D('',#1555,#1195,#1196);
#1074=AXIS2_PLACEMENT_3D('',#1558,#1198,#1199);
#1075=AXIS2_PLACEMENT_3D('',#1559,#1200,#1201);
#1076=AXIS2_PLACEMENT_3D('',#1562,#1204,#1205);
#1077=AXIS2_PLACEMENT_3D('',#1571,#1210,#1211);
#1078=AXIS2_PLACEMENT_3D('',#1577,#1215,#1216);
#1079=AXIS2_PLACEMENT_3D('',#1583,#1220,#1221);
#1080=AXIS2_PLACEMENT_3D('',#1584,#1222,#1223);
#1081=AXIS2_PLACEMENT_3D('',#1585,#1224,#1225);
#1082=AXIS2_PLACEMENT_3D('',#1586,#1226,#1227);
#1083=AXIS2_PLACEMENT_3D('',#1588,#1228,#1229);
#1084=AXIS2_PLACEMENT_3D('',#1591,#1231,#1232);
#1085=AXIS2_PLACEMENT_3D('',#1592,#1233,#1234);
#1086=AXIS2_PLACEMENT_3D('',#1594,#1235,#1236);
#1087=AXIS2_PLACEMENT_3D('',#1597,#1238,#1239);
#1088=AXIS2_PLACEMENT_3D('',#1598,#1240,#1241);
#1089=AXIS2_PLACEMENT_3D('',#1607,#1246,#1247);
#1090=AXIS2_PLACEMENT_3D('',#1613,#1251,#1252);
#1091=AXIS2_PLACEMENT_3D('',#1619,#1256,#1257);
#1092=AXIS2_PLACEMENT_3D('',#1620,#1258,#1259);
#1093=AXIS2_PLACEMENT_3D('',#1621,#1260,#1261);
#1094=AXIS2_PLACEMENT_3D('',#1622,#1262,#1263);
#1095=AXIS2_PLACEMENT_3D('',#1631,#1268,#1269);
#1096=AXIS2_PLACEMENT_3D('',#1637,#1273,#1274);
#1097=AXIS2_PLACEMENT_3D('',#1639,#1275,#1276);
#1098=AXIS2_PLACEMENT_3D('',#1642,#1278,#1279);
#1099=AXIS2_PLACEMENT_3D('',#1643,#1280,#1281);
#1100=AXIS2_PLACEMENT_3D('',#1646,#1284,#1285);
#1101=AXIS2_PLACEMENT_3D('',#1648,#1286,#1287);
#1102=AXIS2_PLACEMENT_3D('',#1651,#1289,#1290);
#1103=AXIS2_PLACEMENT_3D('',#1652,#1291,#1292);
#1104=AXIS2_PLACEMENT_3D('',#1655,#1293,#1294);
#1105=AXIS2_PLACEMENT_3D('',#1659,#1296,#1297);
#1106=AXIS2_PLACEMENT_3D('',#1661,#1299,#1300);
#1107=AXIS2_PLACEMENT_3D('',#1667,#1304,#1305);
#1108=AXIS2_PLACEMENT_3D('',#1677,#1310,#1311);
#1109=AXIS2_PLACEMENT_3D('',#1687,#1316,#1317);
#1110=AXIS2_PLACEMENT_3D('',#1690,#1319,#1320);
#1111=AXIS2_PLACEMENT_3D('',#1692,#1321,#1322);
#1112=AXIS2_PLACEMENT_3D('',#1694,#1323,#1324);
#1113=AXIS2_PLACEMENT_3D('',#1696,#1325,#1326);
#1114=AXIS2_PLACEMENT_3D('',#1698,#1327,#1328);
#1115=AXIS2_PLACEMENT_3D('',#1700,#1329,#1330);
#1116=AXIS2_PLACEMENT_3D('',#1701,#1331,#1332);
#1117=AXIS2_PLACEMENT_3D('',#1703,#1333,#1334);
#1118=AXIS2_PLACEMENT_3D('',#1705,#1336,#1337);
#1119=AXIS2_PLACEMENT_3D('',#1709,#1340,#1341);
#1120=AXIS2_PLACEMENT_3D('',#1711,#1342,#1343);
#1121=AXIS2_PLACEMENT_3D('',#1713,#1345,#1346);
#1122=AXIS2_PLACEMENT_3D('',#1717,#1349,#1350);
#1123=AXIS2_PLACEMENT_3D('',#1720,#1351,#1352);
#1124=AXIS2_PLACEMENT_3D('',#1723,#1355,#1356);
#1125=AXIS2_PLACEMENT_3D('',#1727,#1359,#1360);
#1126=AXIS2_PLACEMENT_3D('',#1729,#1361,#1362);
#1127=AXIS2_PLACEMENT_3D('',#1731,#1364,#1365);
#1128=AXIS2_PLACEMENT_3D('',#1733,#1366,#1367);
#1129=AXIS2_PLACEMENT_3D('',#1735,#1369,#1370);
#1130=AXIS2_PLACEMENT_3D('',#1737,#1371,#1372);
#1131=AXIS2_PLACEMENT_3D('',#1739,#1374,#1375);
#1132=AXIS2_PLACEMENT_3D('',#1741,#1376,#1377);
#1133=AXIS2_PLACEMENT_3D('',#1743,#1379,#1380);
#1134=AXIS2_PLACEMENT_3D('',#1745,#1381,#1382);
#1135=AXIS2_PLACEMENT_3D('',#1747,#1384,#1385);
#1136=AXIS2_PLACEMENT_3D('',#1751,#1388,#1389);
#1137=AXIS2_PLACEMENT_3D('',#1755,#1392,#1393);
#1138=AXIS2_PLACEMENT_3D('',#1759,#1396,#1397);
#1139=AXIS2_PLACEMENT_3D('',#1761,#1399,#1400);
#1140=AXIS2_PLACEMENT_3D('',#1765,#1403,#1404);
#1141=AXIS2_PLACEMENT_3D('',#1767,#1406,#1407);
#1142=DIRECTION('axis',(0.,0.,1.));
#1143=DIRECTION('refdir',(1.,0.,0.));
#1144=DIRECTION('center_axis',(0.,1.,0.));
#1145=DIRECTION('ref_axis',(1.,0.,0.));
#1146=DIRECTION('',(1.,0.,0.));
#1147=DIRECTION('',(0.,0.,-1.));
#1148=DIRECTION('',(1.,0.,0.));
#1149=DIRECTION('',(0.,0.,-1.));
#1150=DIRECTION('',(0.,0.,-1.));
#1151=DIRECTION('',(0.,0.,-1.));
#1152=DIRECTION('center_axis',(-1.,0.,0.));
#1153=DIRECTION('ref_axis',(0.,1.,0.));
#1154=DIRECTION('',(0.,1.,0.));
#1155=DIRECTION('',(0.,0.,-1.));
#1156=DIRECTION('',(0.,1.,0.));
#1157=DIRECTION('',(0.,0.,-1.));
#1158=DIRECTION('',(0.,0.,-1.));
#1159=DIRECTION('center_axis',(-1.,-1.41899468669302E-15,0.));
#1160=DIRECTION('ref_axis',(-1.41899468669302E-15,1.,0.));
#1161=DIRECTION('',(-1.41899468669302E-15,1.,0.));
#1162=DIRECTION('',(0.,0.,-1.));
#1163=DIRECTION('',(-1.41899468669302E-15,1.,0.));
#1164=DIRECTION('center_axis',(0.,-1.,0.));
#1165=DIRECTION('ref_axis',(-1.,0.,0.));
#1166=DIRECTION('',(-1.,0.,0.));
#1167=DIRECTION('',(0.,0.,-1.));
#1168=DIRECTION('',(-1.,0.,0.));
#1169=DIRECTION('center_axis',(1.,1.10569766080415E-15,0.));
#1170=DIRECTION('ref_axis',(1.10569766080415E-15,-1.,0.));
#1171=DIRECTION('',(1.10569766080415E-15,-1.,0.));
#1172=DIRECTION('',(1.10569766080415E-15,-1.,0.));
#1173=DIRECTION('center_axis',(0.,0.,1.));
#1174=DIRECTION('ref_axis',(-1.,0.,0.));
#1175=DIRECTION('center_axis',(0.,0.,1.));
#1176=DIRECTION('ref_axis',(1.,0.,0.));
#1177=DIRECTION('center_axis',(0.,0.,1.));
#1178=DIRECTION('ref_axis',(1.,0.,0.));
#1179=DIRECTION('',(0.,0.,1.));
#1180=DIRECTION('center_axis',(0.,0.,-1.));
#1181=DIRECTION('ref_axis',(1.,0.,0.));
#1182=DIRECTION('center_axis',(0.895334399954824,0.445394557956803,0.));
#1183=DIRECTION('ref_axis',(-0.445394557956803,0.895334399954823,0.));
#1184=DIRECTION('',(-0.445394557956803,0.895334399954823,0.));
#1185=DIRECTION('',(0.,0.,1.));
#1186=DIRECTION('',(0.445394557956803,-0.895334399954823,0.));
#1187=DIRECTION('',(0.,0.,1.));
#1188=DIRECTION('center_axis',(0.445394557956803,-0.895334399954824,0.));
#1189=DIRECTION('ref_axis',(0.895334399954824,0.445394557956803,0.));
#1190=DIRECTION('',(0.895334399954824,0.445394557956803,0.));
#1191=DIRECTION('',(0.,0.,1.));
#1192=DIRECTION('',(-0.895334399954824,-0.445394557956803,0.));
#1193=DIRECTION('center_axis',(0.,0.,1.));
#1194=DIRECTION('ref_axis',(-0.895334399954823,-0.445394557956804,0.));
#1195=DIRECTION('center_axis',(0.,0.,1.));
#1196=DIRECTION('ref_axis',(1.,0.,0.));
#1197=DIRECTION('',(0.,0.,1.));
#1198=DIRECTION('center_axis',(0.,0.,-1.));
#1199=DIRECTION('ref_axis',(1.,0.,0.));
#1200=DIRECTION('center_axis',(-0.445394557956803,0.895334399954824,0.));
#1201=DIRECTION('ref_axis',(-0.895334399954824,-0.445394557956803,0.));
#1202=DIRECTION('',(-0.895334399954824,-0.445394557956803,0.));
#1203=DIRECTION('',(0.895334399954824,0.445394557956803,0.));
#1204=DIRECTION('center_axis',(0.939662604164265,0.342102602058553,0.));
#1205=DIRECTION('ref_axis',(-0.342102602058553,0.939662604164264,0.));
#1206=DIRECTION('',(-0.342102602058553,0.939662604164264,0.));
#1207=DIRECTION('',(0.,0.,1.));
#1208=DIRECTION('',(0.342102602058553,-0.939662604164264,0.));
#1209=DIRECTION('',(0.,0.,1.));
#1210=DIRECTION('center_axis',(0.342102602058841,-0.93966260416416,0.));
#1211=DIRECTION('ref_axis',(0.93966260416416,0.342102602058841,0.));
#1212=DIRECTION('',(0.93966260416416,0.342102602058841,0.));
#1213=DIRECTION('',(0.,0.,1.));
#1214=DIRECTION('',(-0.93966260416416,-0.342102602058841,0.));
#1215=DIRECTION('center_axis',(-0.939662604164251,-0.34210260205859,0.));
#1216=DIRECTION('ref_axis',(0.34210260205859,-0.939662604164251,0.));
#1217=DIRECTION('',(0.34210260205859,-0.939662604164251,0.));
#1218=DIRECTION('',(0.,0.,1.));
#1219=DIRECTION('',(-0.34210260205859,0.939662604164251,0.));
#1220=DIRECTION('center_axis',(0.,0.,1.));
#1221=DIRECTION('ref_axis',(-0.34210260205884,0.93966260416416,0.));
#1222=DIRECTION('center_axis',(0.,0.,1.));
#1223=DIRECTION('ref_axis',(1.,0.,0.));
#1224=DIRECTION('center_axis',(0.,0.,-1.));
#1225=DIRECTION('ref_axis',(1.,0.,0.));
#1226=DIRECTION('center_axis',(0.,0.,1.));
#1227=DIRECTION('ref_axis',(1.,0.,0.));
#1228=DIRECTION('center_axis',(0.,0.,1.));
#1229=DIRECTION('ref_axis',(1.,0.,0.));
#1230=DIRECTION('',(0.,0.,1.));
#1231=DIRECTION('center_axis',(0.,0.,-1.));
#1232=DIRECTION('ref_axis',(1.,0.,0.));
#1233=DIRECTION('center_axis',(0.,0.,1.));
#1234=DIRECTION('ref_axis',(1.,0.,0.));
#1235=DIRECTION('center_axis',(0.,0.,1.));
#1236=DIRECTION('ref_axis',(1.,0.,0.));
#1237=DIRECTION('',(0.,0.,1.));
#1238=DIRECTION('center_axis',(0.,0.,-1.));
#1239=DIRECTION('ref_axis',(1.,0.,0.));
#1240=DIRECTION('center_axis',(-0.897961975696994,-0.440073050983984,0.));
#1241=DIRECTION('ref_axis',(0.440073050983984,-0.897961975696994,0.));
#1242=DIRECTION('',(0.440073050983984,-0.897961975696994,0.));
#1243=DIRECTION('',(0.,0.,1.));
#1244=DIRECTION('',(-0.440073050983984,0.897961975696994,0.));
#1245=DIRECTION('',(0.,0.,1.));
#1246=DIRECTION('center_axis',(-0.440073050983984,0.897961975696994,0.));
#1247=DIRECTION('ref_axis',(-0.897961975696994,-0.440073050983984,0.));
#1248=DIRECTION('',(-0.897961975696994,-0.440073050983984,0.));
#1249=DIRECTION('',(0.,0.,1.));
#1250=DIRECTION('',(0.897961975696994,0.440073050983984,0.));
#1251=DIRECTION('center_axis',(0.897961975696993,0.440073050983984,0.));
#1252=DIRECTION('ref_axis',(-0.440073050983984,0.897961975696993,0.));
#1253=DIRECTION('',(-0.440073050983984,0.897961975696993,0.));
#1254=DIRECTION('',(0.,0.,1.));
#1255=DIRECTION('',(0.440073050983984,-0.897961975696993,0.));
#1256=DIRECTION('center_axis',(0.,0.,1.));
#1257=DIRECTION('ref_axis',(1.,0.,0.));
#1258=DIRECTION('center_axis',(0.,0.,1.));
#1259=DIRECTION('ref_axis',(1.,0.,0.));
#1260=DIRECTION('center_axis',(0.,0.,-1.));
#1261=DIRECTION('ref_axis',(1.,0.,0.));
#1262=DIRECTION('center_axis',(0.987402171167449,0.158230693526281,0.));
#1263=DIRECTION('ref_axis',(-0.158230693526281,0.987402171167449,0.));
#1264=DIRECTION('',(-0.158230693526281,0.987402171167449,0.));
#1265=DIRECTION('',(0.,0.,1.));
#1266=DIRECTION('',(0.158230693526281,-0.987402171167449,0.));
#1267=DIRECTION('',(0.,0.,1.));
#1268=DIRECTION('center_axis',(0.136702059853057,-0.990612208097564,0.));
#1269=DIRECTION('ref_axis',(0.990612208097564,0.136702059853057,0.));
#1270=DIRECTION('',(0.990612208097564,0.136702059853057,0.));
#1271=DIRECTION('',(0.,0.,1.));
#1272=DIRECTION('',(-0.990612208097564,-0.136702059853057,0.));
#1273=DIRECTION('center_axis',(0.,0.,1.));
#1274=DIRECTION('ref_axis',(-0.990612208097564,-0.136702059853058,0.));
#1275=DIRECTION('center_axis',(0.,0.,1.));
#1276=DIRECTION('ref_axis',(1.,0.,0.));
#1277=DIRECTION('',(0.,0.,1.));
#1278=DIRECTION('center_axis',(0.,0.,-1.));
#1279=DIRECTION('ref_axis',(1.,0.,0.));
#1280=DIRECTION('center_axis',(-0.136702059853057,0.990612208097564,0.));
#1281=DIRECTION('ref_axis',(-0.990612208097564,-0.136702059853057,0.));
#1282=DIRECTION('',(-0.990612208097564,-0.136702059853057,0.));
#1283=DIRECTION('',(0.990612208097564,0.136702059853057,0.));
#1284=DIRECTION('center_axis',(0.,0.,1.));
#1285=DIRECTION('ref_axis',(1.,0.,0.));
#1286=DIRECTION('center_axis',(0.,0.,1.));
#1287=DIRECTION('ref_axis',(1.,0.,0.));
#1288=DIRECTION('',(0.,0.,1.));
#1289=DIRECTION('center_axis',(0.,0.,-1.));
#1290=DIRECTION('ref_axis',(1.,0.,0.));
#1291=DIRECTION('center_axis',(0.,0.,1.));
#1292=DIRECTION('ref_axis',(0.707106781186548,-0.707106781186547,0.));
#1293=DIRECTION('center_axis',(0.,0.,-1.));
#1294=DIRECTION('ref_axis',(0.707106781186548,-0.707106781186547,0.));
#1295=DIRECTION('',(0.,0.,-1.));
#1296=DIRECTION('center_axis',(0.,0.,1.));
#1297=DIRECTION('ref_axis',(0.707106781186548,-0.707106781186547,0.));
#1298=DIRECTION('',(0.,0.,1.));
#1299=DIRECTION('center_axis',(1.,0.,0.));
#1300=DIRECTION('ref_axis',(0.,1.,0.));
#1301=DIRECTION('',(0.,-1.,0.));
#1302=DIRECTION('',(0.,0.,-1.));
#1303=DIRECTION('',(0.,1.,0.));
#1304=DIRECTION('center_axis',(0.,0.,1.));
#1305=DIRECTION('ref_axis',(1.,0.,0.));
#1306=DIRECTION('',(-1.,0.,0.));
#1307=DIRECTION('',(-0.554700196225229,0.832050294337844,0.));
#1308=DIRECTION('',(0.554700196225229,0.832050294337844,0.));
#1309=DIRECTION('',(-1.,0.,0.));
#1310=DIRECTION('center_axis',(0.,0.,1.));
#1311=DIRECTION('ref_axis',(-0.707106781186547,-0.707106781186548,0.));
#1312=DIRECTION('',(0.,1.,0.));
#1313=DIRECTION('',(-0.832050341388611,-0.554700125649072,0.));
#1314=DIRECTION('',(-0.832050341388611,0.554700125649072,0.));
#1315=DIRECTION('',(0.,1.,0.));
#1316=DIRECTION('center_axis',(0.,0.,1.));
#1317=DIRECTION('ref_axis',(-0.707106781186548,0.707106781186548,0.));
#1318=DIRECTION('',(1.,0.,0.));
#1319=DIRECTION('center_axis',(0.,0.,1.));
#1320=DIRECTION('ref_axis',(0.707106781186548,0.707106781186548,0.));
#1321=DIRECTION('center_axis',(0.,0.,-1.));
#1322=DIRECTION('ref_axis',(1.,0.,0.));
#1323=DIRECTION('center_axis',(0.,0.,-1.));
#1324=DIRECTION('ref_axis',(1.,0.,0.));
#1325=DIRECTION('center_axis',(0.,0.,-1.));
#1326=DIRECTION('ref_axis',(1.,0.,0.));
#1327=DIRECTION('center_axis',(0.,0.,-1.));
#1328=DIRECTION('ref_axis',(1.,0.,0.));
#1329=DIRECTION('center_axis',(0.,0.,-1.));
#1330=DIRECTION('ref_axis',(1.,0.,0.));
#1331=DIRECTION('center_axis',(0.,0.,1.));
#1332=DIRECTION('ref_axis',(0.707106781186548,0.707106781186548,0.));
#1333=DIRECTION('center_axis',(0.,0.,-1.));
#1334=DIRECTION('ref_axis',(0.707106781186548,0.707106781186548,0.));
#1335=DIRECTION('',(0.,0.,1.));
#1336=DIRECTION('center_axis',(0.,1.,0.));
#1337=DIRECTION('ref_axis',(-1.,0.,0.));
#1338=DIRECTION('',(0.,0.,-1.));
#1339=DIRECTION('',(-1.,0.,0.));
#1340=DIRECTION('center_axis',(0.,0.,1.));
#1341=DIRECTION('ref_axis',(-0.707106781186548,0.707106781186548,0.));
#1342=DIRECTION('center_axis',(0.,0.,-1.));
#1343=DIRECTION('ref_axis',(-0.707106781186548,0.707106781186548,0.));
#1344=DIRECTION('',(0.,0.,1.));
#1345=DIRECTION('center_axis',(-1.,0.,0.));
#1346=DIRECTION('ref_axis',(0.,-1.,0.));
#1347=DIRECTION('',(0.,0.,1.));
#1348=DIRECTION('',(0.,-1.,0.));
#1349=DIRECTION('center_axis',(0.,0.,1.));
#1350=DIRECTION('ref_axis',(-0.707106781186547,-0.707106781186548,0.));
#1351=DIRECTION('center_axis',(0.,0.,-1.));
#1352=DIRECTION('ref_axis',(-0.707106781186547,-0.707106781186548,0.));
#1353=DIRECTION('',(0.,0.,-1.));
#1354=DIRECTION('',(0.,0.,1.));
#1355=DIRECTION('center_axis',(-1.,0.,0.));
#1356=DIRECTION('ref_axis',(0.,-1.,0.));
#1357=DIRECTION('',(0.,-1.,0.));
#1358=DIRECTION('',(0.,0.,1.));
#1359=DIRECTION('center_axis',(0.,0.,1.));
#1360=DIRECTION('ref_axis',(1.,0.,0.));
#1361=DIRECTION('center_axis',(0.,0.,-1.));
#1362=DIRECTION('ref_axis',(1.,0.,0.));
#1363=DIRECTION('',(0.,0.,-1.));
#1364=DIRECTION('center_axis',(0.,0.,1.));
#1365=DIRECTION('ref_axis',(1.,0.,0.));
#1366=DIRECTION('center_axis',(0.,0.,-1.));
#1367=DIRECTION('ref_axis',(1.,0.,0.));
#1368=DIRECTION('',(0.,0.,-1.));
#1369=DIRECTION('center_axis',(0.,0.,1.));
#1370=DIRECTION('ref_axis',(1.,0.,0.));
#1371=DIRECTION('center_axis',(0.,0.,-1.));
#1372=DIRECTION('ref_axis',(1.,0.,0.));
#1373=DIRECTION('',(0.,0.,-1.));
#1374=DIRECTION('center_axis',(0.,0.,1.));
#1375=DIRECTION('ref_axis',(1.,0.,0.));
#1376=DIRECTION('center_axis',(0.,0.,-1.));
#1377=DIRECTION('ref_axis',(1.,0.,0.));
#1378=DIRECTION('',(0.,0.,-1.));
#1379=DIRECTION('center_axis',(0.,0.,1.));
#1380=DIRECTION('ref_axis',(1.,0.,0.));
#1381=DIRECTION('center_axis',(0.,0.,-1.));
#1382=DIRECTION('ref_axis',(1.,0.,0.));
#1383=DIRECTION('',(0.,0.,-1.));
#1384=DIRECTION('center_axis',(0.,-1.,0.));
#1385=DIRECTION('ref_axis',(1.,0.,0.));
#1386=DIRECTION('',(1.,0.,0.));
#1387=DIRECTION('',(0.,0.,1.));
#1388=DIRECTION('center_axis',(-0.832050294337843,-0.554700196225229,0.));
#1389=DIRECTION('ref_axis',(0.554700196225229,-0.832050294337844,0.));
#1390=DIRECTION('',(0.554700196225229,-0.832050294337844,0.));
#1391=DIRECTION('',(0.,0.,1.));
#1392=DIRECTION('center_axis',(0.832050294337843,-0.554700196225229,0.));
#1393=DIRECTION('ref_axis',(0.554700196225229,0.832050294337844,0.));
#1394=DIRECTION('',(0.554700196225229,0.832050294337844,0.));
#1395=DIRECTION('',(0.,0.,1.));
#1396=DIRECTION('center_axis',(0.,-1.,0.));
#1397=DIRECTION('ref_axis',(1.,0.,0.));
#1398=DIRECTION('',(1.,0.,0.));
#1399=DIRECTION('center_axis',(-0.554700125649072,0.832050341388611,0.));
#1400=DIRECTION('ref_axis',(-0.832050341388611,-0.554700125649072,0.));
#1401=DIRECTION('',(-0.832050341388611,-0.554700125649072,0.));
#1402=DIRECTION('',(0.,0.,1.));
#1403=DIRECTION('center_axis',(-0.554700125649072,-0.832050341388611,0.));
#1404=DIRECTION('ref_axis',(0.832050341388611,-0.554700125649072,0.));
#1405=DIRECTION('',(0.832050341388611,-0.554700125649072,0.));
#1406=DIRECTION('center_axis',(0.,0.,1.));
#1407=DIRECTION('ref_axis',(1.,0.,0.));
#1408=CARTESIAN_POINT('',(0.,0.,0.));
#1409=CARTESIAN_POINT('Origin',(-13.9154054215844,-14.2453407318577,3.));
#1410=CARTESIAN_POINT('',(-13.9154054215844,-14.2453407318577,3.));
#1411=CARTESIAN_POINT('',(-13.5988979032929,-14.2453407318577,3.));
#1412=CARTESIAN_POINT('',(-6.95770278529801,-14.2453407318577,3.));
#1413=CARTESIAN_POINT('',(-13.9154054215844,-14.2453407318577,2.));
#1414=CARTESIAN_POINT('',(-13.9154054215844,-14.2453407318577,3.));
#1415=CARTESIAN_POINT('',(-13.5988979032929,-14.2453407318577,2.));
#1416=CARTESIAN_POINT('',(-13.9154054215844,-14.2453407318577,2.));
#1417=CARTESIAN_POINT('',(-13.5988979032929,-14.2453407318577,3.));
#1418=CARTESIAN_POINT('Ctrl Pts',(-14.3519675723012,-14.7801294000134,3.));
#1419=CARTESIAN_POINT('Ctrl Pts',(-14.3519675723012,-14.7801294000134,2.));
#1420=CARTESIAN_POINT('Ctrl Pts',(-14.2591634885771,-14.6936739642277,3.));
#1421=CARTESIAN_POINT('Ctrl Pts',(-14.2591634885771,-14.6936739642277,2.));
#1422=CARTESIAN_POINT('Ctrl Pts',(-14.0890155182129,-14.53516567089,3.));
#1423=CARTESIAN_POINT('Ctrl Pts',(-14.0890155182129,-14.53516567089,2.));
#1424=CARTESIAN_POINT('Ctrl Pts',(-13.9696604576722,-14.3359141652681,3.));
#1425=CARTESIAN_POINT('Ctrl Pts',(-13.9696604576722,-14.3359141652681,2.));
#1426=CARTESIAN_POINT('Ctrl Pts',(-13.9154054215844,-14.2453407318577,3.));
#1427=CARTESIAN_POINT('Ctrl Pts',(-13.9154054215844,-14.2453407318577,2.));
#1428=CARTESIAN_POINT('',(-14.3519675723012,-14.7801294000134,3.));
#1429=CARTESIAN_POINT('Ctrl Pts',(-14.3519675723012,-14.7801294000134,3.));
#1430=CARTESIAN_POINT('Ctrl Pts',(-14.2591634885771,-14.6936739642277,3.));
#1431=CARTESIAN_POINT('Ctrl Pts',(-14.0890155182129,-14.53516567089,3.));
#1432=CARTESIAN_POINT('Ctrl Pts',(-13.9696604576722,-14.3359141652681,3.));
#1433=CARTESIAN_POINT('Ctrl Pts',(-13.9154054215844,-14.2453407318577,3.));
#1434=CARTESIAN_POINT('',(-14.3519675723012,-14.7801294000134,2.));
#1435=CARTESIAN_POINT('',(-14.3519675723012,-14.7801294000134,3.));
#1436=CARTESIAN_POINT('Ctrl Pts',(-14.3519675723012,-14.7801294000134,2.));
#1437=CARTESIAN_POINT('Ctrl Pts',(-14.2591634885771,-14.6936739642277,2.));
#1438=CARTESIAN_POINT('Ctrl Pts',(-14.0890155182129,-14.53516567089,2.));
#1439=CARTESIAN_POINT('Ctrl Pts',(-13.9696604576722,-14.3359141652681,2.));
#1440=CARTESIAN_POINT('Ctrl Pts',(-13.9154054215844,-14.2453407318577,2.));
#1441=CARTESIAN_POINT('Ctrl Pts',(-15.0722949198182,-15.2494334251866,3.));
#1442=CARTESIAN_POINT('Ctrl Pts',(-15.0722949198182,-15.2494334251866,2.));
#1443=CARTESIAN_POINT('Ctrl Pts',(-14.9406021681735,-15.182620989312,3.));
#1444=CARTESIAN_POINT('Ctrl Pts',(-14.9406021681735,-15.182620989312,2.));
#1445=CARTESIAN_POINT('Ctrl Pts',(-14.6834919886716,-15.0521798134224,3.));
#1446=CARTESIAN_POINT('Ctrl Pts',(-14.6834919886716,-15.0521798134224,2.));
#1447=CARTESIAN_POINT('Ctrl Pts',(-14.4606628370955,-14.8693252186703,3.));
#1448=CARTESIAN_POINT('Ctrl Pts',(-14.4606628370955,-14.8693252186703,2.));
#1449=CARTESIAN_POINT('Ctrl Pts',(-14.3519675723012,-14.7801294000134,3.));
#1450=CARTESIAN_POINT('Ctrl Pts',(-14.3519675723012,-14.7801294000134,2.));
#1451=CARTESIAN_POINT('',(-15.0722949198182,-15.2494334251866,3.));
#1452=CARTESIAN_POINT('Ctrl Pts',(-15.0722949198182,-15.2494334251866,3.));
#1453=CARTESIAN_POINT('Ctrl Pts',(-14.9406021681735,-15.182620989312,3.));
#1454=CARTESIAN_POINT('Ctrl Pts',(-14.6834919886716,-15.0521798134224,3.));
#1455=CARTESIAN_POINT('Ctrl Pts',(-14.4606628370955,-14.8693252186703,3.));
#1456=CARTESIAN_POINT('Ctrl Pts',(-14.3519675723012,-14.7801294000134,3.));
#1457=CARTESIAN_POINT('',(-15.0722949198182,-15.2494334251866,2.));
#1458=CARTESIAN_POINT('',(-15.0722949198182,-15.2494334251866,3.));
#1459=CARTESIAN_POINT('Ctrl Pts',(-15.0722949198182,-15.2494334251866,2.));
#1460=CARTESIAN_POINT('Ctrl Pts',(-14.9406021681735,-15.182620989312,2.));
#1461=CARTESIAN_POINT('Ctrl Pts',(-14.6834919886716,-15.0521798134224,2.));
#1462=CARTESIAN_POINT('Ctrl Pts',(-14.4606628370955,-14.8693252186703,2.));
#1463=CARTESIAN_POINT('Ctrl Pts',(-14.3519675723012,-14.7801294000134,2.));
#1464=CARTESIAN_POINT('Origin',(-15.0722949198182,-15.7241948516354,3.));
#1465=CARTESIAN_POINT('',(-15.0722949198182,-15.7241948516354,3.));
#1466=CARTESIAN_POINT('',(-15.0722949198182,-7.86209742581771,3.));
#1467=CARTESIAN_POINT('',(-15.0722949198182,-15.7241948516354,2.));
#1468=CARTESIAN_POINT('',(-15.0722949198182,-15.7241948516354,3.));
#1469=CARTESIAN_POINT('',(-15.0722949198182,-15.7241948516354,2.));
#1470=CARTESIAN_POINT('Ctrl Pts',(-14.5552417627271,-15.4704429776654,3.));
#1471=CARTESIAN_POINT('Ctrl Pts',(-14.5552417627271,-15.4704429776654,2.));
#1472=CARTESIAN_POINT('Ctrl Pts',(-14.6452385054505,-15.5219774133088,3.));
#1473=CARTESIAN_POINT('Ctrl Pts',(-14.6452385054505,-15.5219774133088,2.));
#1474=CARTESIAN_POINT('Ctrl Pts',(-14.8122208490451,-15.6175957721421,3.));
#1475=CARTESIAN_POINT('Ctrl Pts',(-14.8122208490451,-15.6175957721421,2.));
#1476=CARTESIAN_POINT('Ctrl Pts',(-14.9902269307088,-15.6905568497042,3.));
#1477=CARTESIAN_POINT('Ctrl Pts',(-14.9902269307088,-15.6905568497042,2.));
#1478=CARTESIAN_POINT('Ctrl Pts',(-15.0722949198182,-15.7241948516354,3.));
#1479=CARTESIAN_POINT('Ctrl Pts',(-15.0722949198182,-15.7241948516354,2.));
#1480=CARTESIAN_POINT('',(-14.5552417627271,-15.4704429776654,3.));
#1481=CARTESIAN_POINT('Ctrl Pts',(-14.5552417627271,-15.4704429776654,3.));
#1482=CARTESIAN_POINT('Ctrl Pts',(-14.6452385054505,-15.5219774133088,3.));
#1483=CARTESIAN_POINT('Ctrl Pts',(-14.8122208490451,-15.6175957721421,3.));
#1484=CARTESIAN_POINT('Ctrl Pts',(-14.9902269307088,-15.6905568497042,3.));
#1485=CARTESIAN_POINT('Ctrl Pts',(-15.0722949198182,-15.7241948516354,3.));
#1486=CARTESIAN_POINT('',(-14.5552417627271,-15.4704429776654,2.));
#1487=CARTESIAN_POINT('',(-14.5552417627271,-15.4704429776654,3.));
#1488=CARTESIAN_POINT('Ctrl Pts',(-14.5552417627271,-15.4704429776654,2.));
#1489=CARTESIAN_POINT('Ctrl Pts',(-14.6452385054505,-15.5219774133088,2.));
#1490=CARTESIAN_POINT('Ctrl Pts',(-14.8122208490451,-15.6175957721421,2.));
#1491=CARTESIAN_POINT('Ctrl Pts',(-14.9902269307088,-15.6905568497042,2.));
#1492=CARTESIAN_POINT('Ctrl Pts',(-15.0722949198182,-15.7241948516354,2.));
#1493=CARTESIAN_POINT('Ctrl Pts',(-14.0900301924642,-15.1321073443875,3.));
#1494=CARTESIAN_POINT('Ctrl Pts',(-14.0900301924642,-15.1321073443875,2.));
#1495=CARTESIAN_POINT('Ctrl Pts',(-14.1569845155383,-15.1903659992076,3.));
#1496=CARTESIAN_POINT('Ctrl Pts',(-14.1569845155383,-15.1903659992076,2.));
#1497=CARTESIAN_POINT('Ctrl Pts',(-14.3021323303734,-15.3166627946067,3.));
#1498=CARTESIAN_POINT('Ctrl Pts',(-14.3021323303734,-15.3166627946067,2.));
#1499=CARTESIAN_POINT('Ctrl Pts',(-14.4666262235104,-15.4166033648312,3.));
#1500=CARTESIAN_POINT('Ctrl Pts',(-14.4666262235104,-15.4166033648312,2.));
#1501=CARTESIAN_POINT('Ctrl Pts',(-14.5552417627271,-15.4704429776654,3.));
#1502=CARTESIAN_POINT('Ctrl Pts',(-14.5552417627271,-15.4704429776654,2.));
#1503=CARTESIAN_POINT('',(-14.0900301924642,-15.1321073443875,3.));
#1504=CARTESIAN_POINT('Ctrl Pts',(-14.0900301924642,-15.1321073443875,3.));
#1505=CARTESIAN_POINT('Ctrl Pts',(-14.1569845155383,-15.1903659992076,3.));
#1506=CARTESIAN_POINT('Ctrl Pts',(-14.3021323303734,-15.3166627946067,3.));
#1507=CARTESIAN_POINT('Ctrl Pts',(-14.4666262235104,-15.4166033648312,3.));
#1508=CARTESIAN_POINT('Ctrl Pts',(-14.5552417627271,-15.4704429776654,3.));
#1509=CARTESIAN_POINT('',(-14.0900301924642,-15.1321073443875,2.));
#1510=CARTESIAN_POINT('',(-14.0900301924642,-15.1321073443875,3.));
#1511=CARTESIAN_POINT('Ctrl Pts',(-14.0900301924642,-15.1321073443875,2.));
#1512=CARTESIAN_POINT('Ctrl Pts',(-14.1569845155383,-15.1903659992076,2.));
#1513=CARTESIAN_POINT('Ctrl Pts',(-14.3021323303734,-15.3166627946067,2.));
#1514=CARTESIAN_POINT('Ctrl Pts',(-14.4666262235104,-15.4166033648312,2.));
#1515=CARTESIAN_POINT('Ctrl Pts',(-14.5552417627271,-15.4704429776654,2.));
#1516=CARTESIAN_POINT('Origin',(-14.0900301924642,-18.2617118031964,3.));
#1517=CARTESIAN_POINT('',(-14.0900301924642,-18.2617118031964,3.));
#1518=CARTESIAN_POINT('',(-14.0900301924642,-9.13085590159821,3.));
#1519=CARTESIAN_POINT('',(-14.0900301924642,-18.2617118031964,2.));
#1520=CARTESIAN_POINT('',(-14.0900301924642,-18.2617118031964,3.));
#1521=CARTESIAN_POINT('',(-14.0900301924642,-18.2617118031964,2.));
#1522=CARTESIAN_POINT('Origin',(-13.5988979032929,-18.2617118031964,3.));
#1523=CARTESIAN_POINT('',(-13.5988979032929,-18.2617118031964,3.));
#1524=CARTESIAN_POINT('',(-6.79944902615228,-18.2617118031964,3.));
#1525=CARTESIAN_POINT('',(-13.5988979032929,-18.2617118031964,2.));
#1526=CARTESIAN_POINT('',(-13.5988979032929,-18.2617118031964,3.));
#1527=CARTESIAN_POINT('',(-13.5988979032929,-18.2617118031964,2.));
#1528=CARTESIAN_POINT('Origin',(-13.5988979032929,-14.2453407318577,3.));
#1529=CARTESIAN_POINT('',(-13.598897903293,-7.12267036592888,3.));
#1530=CARTESIAN_POINT('',(-13.5988979032929,-14.2453407318577,2.));
#1531=CARTESIAN_POINT('Origin',(-14.3355964115556,-16.2535262675271,2.));
#1532=CARTESIAN_POINT('Origin',(-11.,1.36314857258864E-15,0.));
#1533=CARTESIAN_POINT('',(-13.,1.11821921275917E-15,0.));
#1534=CARTESIAN_POINT('Origin',(-11.,1.36314857258864E-15,0.));
#1535=CARTESIAN_POINT('',(-13.,1.11821921275917E-15,3.));
#1536=CARTESIAN_POINT('',(-13.,1.11821921275917E-15,0.));
#1537=CARTESIAN_POINT('Origin',(-11.,1.36314857258864E-15,3.));
#1538=CARTESIAN_POINT('Origin',(19.4129765084235,11.332240488624,0.));
#1539=CARTESIAN_POINT('',(19.4129765084235,11.332240488624,0.));
#1540=CARTESIAN_POINT('',(17.6313982765963,14.9135780884433,0.));
#1541=CARTESIAN_POINT('',(19.7469579740811,10.6608692520235,0.));
#1542=CARTESIAN_POINT('',(19.4129765084235,11.332240488624,3.));
#1543=CARTESIAN_POINT('',(19.4129765084235,11.332240488624,0.));
#1544=CARTESIAN_POINT('',(17.6313982765963,14.9135780884433,3.));
#1545=CARTESIAN_POINT('',(19.7469579740811,10.6608692520235,3.));
#1546=CARTESIAN_POINT('',(17.6313982765963,14.9135780884433,0.));
#1547=CARTESIAN_POINT('Origin',(8.66896370896563,5.98750579314238,0.));
#1548=CARTESIAN_POINT('',(8.66896370896563,5.98750579314238,0.));
#1549=CARTESIAN_POINT('',(4.00050031431941,3.66512413317166,0.));
#1550=CARTESIAN_POINT('',(8.66896370896563,5.98750579314238,3.));
#1551=CARTESIAN_POINT('',(8.66896370896563,5.98750579314238,0.));
#1552=CARTESIAN_POINT('',(4.00050031431941,3.66512413317166,3.));
#1553=CARTESIAN_POINT('Origin',(7.77817459305202,7.77817459305202,0.));
#1554=CARTESIAN_POINT('',(6.88738547713841,9.56884339296167,0.));
#1555=CARTESIAN_POINT('Origin',(7.77817459305202,7.77817459305202,0.));
#1556=CARTESIAN_POINT('',(6.88738547713841,9.56884339296167,3.));
#1557=CARTESIAN_POINT('',(6.88738547713841,9.56884339296167,0.));
#1558=CARTESIAN_POINT('Origin',(7.77817459305202,7.77817459305202,3.));
#1559=CARTESIAN_POINT('Origin',(17.6313982765963,14.9135780884433,0.));
#1560=CARTESIAN_POINT('',(7.59092848222114,9.91882908073177,0.));
#1561=CARTESIAN_POINT('',(7.59092848222114,9.91882908073177,3.));
#1562=CARTESIAN_POINT('Origin',(16.9845564330311,-10.591746045854,0.));
#1563=CARTESIAN_POINT('',(16.9845564330311,-10.591746045854,0.));
#1564=CARTESIAN_POINT('',(12.8793252083282,0.68420520411706,0.));
#1565=CARTESIAN_POINT('',(14.2882527651163,-3.18573477623833,0.));
#1566=CARTESIAN_POINT('',(16.9845564330311,-10.591746045854,3.));
#1567=CARTESIAN_POINT('',(16.9845564330311,-10.591746045854,0.));
#1568=CARTESIAN_POINT('',(12.8793252083282,0.68420520411706,3.));
#1569=CARTESIAN_POINT('',(14.2882527651163,-3.18573477623833,3.));
#1570=CARTESIAN_POINT('',(12.8793252083282,0.68420520411706,0.));
#1571=CARTESIAN_POINT('Origin',(13.2259060163747,-11.9601564540893,0.));
#1572=CARTESIAN_POINT('',(13.2259060163747,-11.9601564540893,0.));
#1573=CARTESIAN_POINT('',(9.30925660159926,-13.3860894966613,0.));
#1574=CARTESIAN_POINT('',(13.2259060163747,-11.9601564540893,3.));
#1575=CARTESIAN_POINT('',(13.2259060163747,-11.9601564540893,0.));
#1576=CARTESIAN_POINT('',(9.30925660159926,-13.3860894966613,3.));
#1577=CARTESIAN_POINT('Origin',(9.12067479167158,-0.684205204118298,0.));
#1578=CARTESIAN_POINT('',(9.12067479167158,-0.684205204118298,0.));
#1579=CARTESIAN_POINT('',(8.47698673610775,1.0838304405125,0.));
#1580=CARTESIAN_POINT('',(9.12067479167158,-0.684205204118298,3.));
#1581=CARTESIAN_POINT('',(9.12067479167158,-0.684205204118298,0.));
#1582=CARTESIAN_POINT('',(8.47698673610775,1.0838304405125,3.));
#1583=CARTESIAN_POINT('Origin',(11.0000000000001,-1.05657550565608E-12,
0.));
#1584=CARTESIAN_POINT('Origin',(11.0000000000001,-1.05657550565608E-12,
0.));
#1585=CARTESIAN_POINT('Origin',(11.0000000000001,-1.05657550565608E-12,
3.));
#1586=CARTESIAN_POINT('Origin',(-2.77369312498518E-13,-11.0000000000001,
0.));
#1587=CARTESIAN_POINT('',(-2.00000000000028,-11.0000000000001,0.));
#1588=CARTESIAN_POINT('Origin',(-2.77369312498518E-13,-11.0000000000001,
0.));
#1589=CARTESIAN_POINT('',(-2.00000000000028,-11.0000000000001,3.));
#1590=CARTESIAN_POINT('',(-2.00000000000028,-11.0000000000001,0.));
#1591=CARTESIAN_POINT('Origin',(-2.77369312498518E-13,-11.0000000000001,
3.));
#1592=CARTESIAN_POINT('Origin',(4.41213041805076E-32,9.,0.));
#1593=CARTESIAN_POINT('',(-2.,9.,0.));
#1594=CARTESIAN_POINT('Origin',(4.41213041805076E-32,9.,0.));
#1595=CARTESIAN_POINT('',(-2.,9.,3.));
#1596=CARTESIAN_POINT('',(-2.,9.,0.));
#1597=CARTESIAN_POINT('Origin',(4.41213041805076E-32,9.,3.));
#1598=CARTESIAN_POINT('Origin',(-14.8549751562538,17.673572199448,0.));
#1599=CARTESIAN_POINT('',(-14.8549751562538,17.673572199448,0.));
#1600=CARTESIAN_POINT('',(-9.57409854444601,6.89802849108406,0.));
#1601=CARTESIAN_POINT('',(-9.92451331600349,7.61304419104023,0.));
#1602=CARTESIAN_POINT('',(-14.8549751562538,17.673572199448,3.));
#1603=CARTESIAN_POINT('',(-14.8549751562538,17.673572199448,0.));
#1604=CARTESIAN_POINT('',(-9.57409854444601,6.89802849108406,3.));
#1605=CARTESIAN_POINT('',(-9.92451331600349,7.61304419104023,3.));
#1606=CARTESIAN_POINT('',(-9.57409854444601,6.89802849108406,0.));
#1607=CARTESIAN_POINT('Origin',(-11.2631272534658,19.4338644033839,0.));
#1608=CARTESIAN_POINT('',(-11.2631272534658,19.4338644033839,0.));
#1609=CARTESIAN_POINT('',(-10.5620255414891,19.7774602100997,0.));
#1610=CARTESIAN_POINT('',(-11.2631272534658,19.4338644033839,3.));
#1611=CARTESIAN_POINT('',(-11.2631272534658,19.4338644033839,0.));
#1612=CARTESIAN_POINT('',(-10.5620255414891,19.7774602100997,3.));
#1613=CARTESIAN_POINT('Origin',(-5.98225064165804,8.65832069502,0.));
#1614=CARTESIAN_POINT('',(-5.98225064165804,8.65832069502,0.));
#1615=CARTESIAN_POINT('',(-3.69222710731161,3.9855645407942,0.));
#1616=CARTESIAN_POINT('',(-5.98225064165804,8.65832069502,3.));
#1617=CARTESIAN_POINT('',(-5.98225064165804,8.65832069502,0.));
#1618=CARTESIAN_POINT('',(-3.69222710731161,3.9855645407942,3.));
#1619=CARTESIAN_POINT('Origin',(-7.77817459305202,7.77817459305202,0.));
#1620=CARTESIAN_POINT('Origin',(-7.77817459305202,7.77817459305202,0.));
#1621=CARTESIAN_POINT('Origin',(-7.77817459305202,7.77817459305202,3.));
#1622=CARTESIAN_POINT('Origin',(5.585319900183,-6.73394302766258,0.));
#1623=CARTESIAN_POINT('',(5.585319900183,-6.73394302766258,0.));
#1624=CARTESIAN_POINT('',(4.95224715544798,-2.78339848584479,0.));
#1625=CARTESIAN_POINT('',(4.98935356352205,-3.01495247249577,0.));
#1626=CARTESIAN_POINT('',(5.585319900183,-6.73394302766258,3.));
#1627=CARTESIAN_POINT('',(5.585319900183,-6.73394302766258,0.));
#1628=CARTESIAN_POINT('',(4.95224715544798,-2.78339848584479,3.));
#1629=CARTESIAN_POINT('',(4.98935356352205,-3.01495247249577,3.));
#1630=CARTESIAN_POINT('',(4.95224715544798,-2.78339848584479,0.));
#1631=CARTESIAN_POINT('Origin',(-6.09055691097281,-8.34518544687406,0.));
#1632=CARTESIAN_POINT('',(-6.09055691097281,-8.34518544687406,0.));
#1633=CARTESIAN_POINT('',(-2.53713982236537,-7.85482258685785,0.));
#1634=CARTESIAN_POINT('',(-6.09055691097281,-8.34518544687406,3.));
#1635=CARTESIAN_POINT('',(-6.09055691097281,-8.34518544687406,0.));
#1636=CARTESIAN_POINT('',(-2.53713982236537,-7.85482258685785,3.));
#1637=CARTESIAN_POINT('Origin',(-6.36396103067892,-6.36396103067893,0.));
#1638=CARTESIAN_POINT('',(-6.63736515038504,-4.3827366144838,0.));
#1639=CARTESIAN_POINT('Origin',(-6.36396103067892,-6.36396103067893,0.));
#1640=CARTESIAN_POINT('',(-6.63736515038504,-4.3827366144838,3.));
#1641=CARTESIAN_POINT('',(-6.63736515038504,-4.3827366144838,0.));
#1642=CARTESIAN_POINT('Origin',(-6.36396103067892,-6.36396103067893,3.));
#1643=CARTESIAN_POINT('Origin',(4.95224715544798,-2.7833984858448,0.));
#1644=CARTESIAN_POINT('',(2.71085809113891,-3.09270469014809,0.));
#1645=CARTESIAN_POINT('',(2.71085809113891,-3.09270469014809,3.));
#1646=CARTESIAN_POINT('Origin',(7.77817459305202,-7.77817459305202,0.));
#1647=CARTESIAN_POINT('',(5.77817459305202,-7.77817459305202,0.));
#1648=CARTESIAN_POINT('Origin',(7.77817459305202,-7.77817459305202,0.));
#1649=CARTESIAN_POINT('',(5.77817459305202,-7.77817459305202,3.));
#1650=CARTESIAN_POINT('',(5.77817459305202,-7.77817459305202,0.));
#1651=CARTESIAN_POINT('Origin',(7.77817459305202,-7.77817459305202,3.));
#1652=CARTESIAN_POINT('Origin',(12.,-12.,0.));
#1653=CARTESIAN_POINT('',(20.,-12.,3.));
#1654=CARTESIAN_POINT('',(12.,-20.,3.));
#1655=CARTESIAN_POINT('Origin',(12.,-12.,3.));
#1656=CARTESIAN_POINT('',(12.,-20.,0.));
#1657=CARTESIAN_POINT('',(12.,-20.,0.));
#1658=CARTESIAN_POINT('',(20.,-12.,0.));
#1659=CARTESIAN_POINT('Origin',(12.,-12.,0.));
#1660=CARTESIAN_POINT('',(20.,-12.,0.));
#1661=CARTESIAN_POINT('Origin',(20.,-20.,0.));
#1662=CARTESIAN_POINT('',(20.,12.,0.));
#1663=CARTESIAN_POINT('',(20.,20.,0.));
#1664=CARTESIAN_POINT('',(20.,12.,3.));
#1665=CARTESIAN_POINT('',(20.,12.,0.));
#1666=CARTESIAN_POINT('',(20.,20.,3.));
#1667=CARTESIAN_POINT('Origin',(-1.49011611938477E-7,0.,0.));
#1668=CARTESIAN_POINT('',(1.,-20.,0.));
#1669=CARTESIAN_POINT('',(20.,-20.,0.));
#1670=CARTESIAN_POINT('',(0.,-18.5,0.));
#1671=CARTESIAN_POINT('',(1.,-20.,0.));
#1672=CARTESIAN_POINT('',(-1.,-20.,0.));
#1673=CARTESIAN_POINT('',(-1.,-20.,0.));
#1674=CARTESIAN_POINT('',(-12.,-20.,0.));
#1675=CARTESIAN_POINT('',(20.,-20.,0.));
#1676=CARTESIAN_POINT('',(-20.,-12.,0.));
#1677=CARTESIAN_POINT('Origin',(-12.,-12.,0.));
#1678=CARTESIAN_POINT('',(-20.0000002980232,-1.00000001490116,0.));
#1679=CARTESIAN_POINT('',(-20.,-20.,0.));
#1680=CARTESIAN_POINT('',(-18.5,0.,0.));
#1681=CARTESIAN_POINT('',(-18.5,0.,0.));
#1682=CARTESIAN_POINT('',(-20.0000002980232,1.00000001490116,0.));
#1683=CARTESIAN_POINT('',(-18.5,0.,0.));
#1684=CARTESIAN_POINT('',(-20.,12.,0.));
#1685=CARTESIAN_POINT('',(-20.,-20.,0.));
#1686=CARTESIAN_POINT('',(-12.,20.,0.));
#1687=CARTESIAN_POINT('Origin',(-12.,12.,0.));
#1688=CARTESIAN_POINT('',(12.,20.,0.));
#1689=CARTESIAN_POINT('',(-20.,20.,0.));
#1690=CARTESIAN_POINT('Origin',(12.,12.,0.));
#1691=CARTESIAN_POINT('',(14.6041869945503,2.73505935302734,0.));
#1692=CARTESIAN_POINT('Origin',(16.1041869945503,2.73505935302734,0.));
#1693=CARTESIAN_POINT('',(-17.1755164835329,-11.4448608340439,0.));
#1694=CARTESIAN_POINT('Origin',(-15.6755164835329,-11.4448608340439,0.));
#1695=CARTESIAN_POINT('',(-3.82970924864231,15.9974552926998,0.));
#1696=CARTESIAN_POINT('Origin',(-2.32970924864231,15.9974552926998,0.));
#1697=CARTESIAN_POINT('',(-0.5,-6.12323399573677E-17,0.));
#1698=CARTESIAN_POINT('Origin',(0.,0.,0.));
#1699=CARTESIAN_POINT('',(4.50000008940697,-14.0000002086163,0.));
#1700=CARTESIAN_POINT('Origin',(6.00000008940697,-14.0000002086163,0.));
#1701=CARTESIAN_POINT('Origin',(12.,12.,0.));
#1702=CARTESIAN_POINT('',(12.,20.,3.));
#1703=CARTESIAN_POINT('Origin',(12.,12.,3.));
#1704=CARTESIAN_POINT('',(12.,20.,0.));
#1705=CARTESIAN_POINT('Origin',(20.,20.,0.));
#1706=CARTESIAN_POINT('',(-12.,20.,3.));
#1707=CARTESIAN_POINT('',(-12.,20.,0.));
#1708=CARTESIAN_POINT('',(-20.,20.,3.));
#1709=CARTESIAN_POINT('Origin',(-12.,12.,0.));
#1710=CARTESIAN_POINT('',(-20.,12.,3.));
#1711=CARTESIAN_POINT('Origin',(-12.,12.,3.));
#1712=CARTESIAN_POINT('',(-20.,12.,0.));
#1713=CARTESIAN_POINT('Origin',(-20.,20.,0.));
#1714=CARTESIAN_POINT('',(-20.0000002980232,1.00000001490116,3.));
#1715=CARTESIAN_POINT('',(-20.0000002980232,1.00000001490116,0.));
#1716=CARTESIAN_POINT('',(-20.,-20.,3.));
#1717=CARTESIAN_POINT('Origin',(-12.,-12.,0.));
#1718=CARTESIAN_POINT('',(-12.,-20.,3.));
#1719=CARTESIAN_POINT('',(-20.,-12.,3.));
#1720=CARTESIAN_POINT('Origin',(-12.,-12.,3.));
#1721=CARTESIAN_POINT('',(-20.,-12.,0.));
#1722=CARTESIAN_POINT('',(-12.,-20.,0.));
#1723=CARTESIAN_POINT('Origin',(-20.,-1.00000001490116,0.));
#1724=CARTESIAN_POINT('',(-20.0000002980232,-1.00000001490116,3.));
#1725=CARTESIAN_POINT('',(-20.,-20.,3.));
#1726=CARTESIAN_POINT('',(-20.0000002980232,-1.00000001490116,0.));
#1727=CARTESIAN_POINT('Origin',(16.1041869945503,2.73505935302734,0.));
#1728=CARTESIAN_POINT('',(14.6041869945503,2.73505935302734,3.));
#1729=CARTESIAN_POINT('Origin',(16.1041869945503,2.73505935302734,3.));
#1730=CARTESIAN_POINT('',(14.6041869945503,2.73505935302734,0.));
#1731=CARTESIAN_POINT('Origin',(-15.6755164835329,-11.4448608340439,0.));
#1732=CARTESIAN_POINT('',(-17.1755164835329,-11.4448608340439,3.));
#1733=CARTESIAN_POINT('Origin',(-15.6755164835329,-11.4448608340439,3.));
#1734=CARTESIAN_POINT('',(-17.1755164835329,-11.4448608340439,0.));
#1735=CARTESIAN_POINT('Origin',(-2.32970924864231,15.9974552926998,0.));
#1736=CARTESIAN_POINT('',(-3.82970924864231,15.9974552926998,3.));
#1737=CARTESIAN_POINT('Origin',(-2.32970924864231,15.9974552926998,3.));
#1738=CARTESIAN_POINT('',(-3.82970924864231,15.9974552926998,0.));
#1739=CARTESIAN_POINT('Origin',(0.,0.,0.));
#1740=CARTESIAN_POINT('',(-0.5,0.,3.));
#1741=CARTESIAN_POINT('Origin',(0.,0.,3.));
#1742=CARTESIAN_POINT('',(-0.5,-6.12323399573677E-17,0.));
#1743=CARTESIAN_POINT('Origin',(6.00000008940697,-14.0000002086163,0.));
#1744=CARTESIAN_POINT('',(4.50000008940697,-14.0000002086163,3.));
#1745=CARTESIAN_POINT('Origin',(6.00000008940697,-14.0000002086163,3.));
#1746=CARTESIAN_POINT('',(4.50000008940697,-14.0000002086163,0.));
#1747=CARTESIAN_POINT('Origin',(1.,-20.,0.));
#1748=CARTESIAN_POINT('',(1.,-20.,3.));
#1749=CARTESIAN_POINT('',(20.,-20.,3.));
#1750=CARTESIAN_POINT('',(1.,-20.,0.));
#1751=CARTESIAN_POINT('Origin',(0.,-18.5,0.));
#1752=CARTESIAN_POINT('',(0.,-18.5,3.));
#1753=CARTESIAN_POINT('',(1.,-20.,3.));
#1754=CARTESIAN_POINT('',(0.,-18.5,0.));
#1755=CARTESIAN_POINT('Origin',(-1.,-20.,0.));
#1756=CARTESIAN_POINT('',(-1.,-20.,3.));
#1757=CARTESIAN_POINT('',(-1.,-20.,3.));
#1758=CARTESIAN_POINT('',(-1.,-20.,0.));
#1759=CARTESIAN_POINT('Origin',(-20.,-20.,0.));
#1760=CARTESIAN_POINT('',(20.,-20.,3.));
#1761=CARTESIAN_POINT('Origin',(-18.5,0.,0.));
#1762=CARTESIAN_POINT('',(-18.5,0.,3.));
#1763=CARTESIAN_POINT('',(-18.5,0.,3.));
#1764=CARTESIAN_POINT('',(-18.5,0.,0.));
#1765=CARTESIAN_POINT('Origin',(-20.0000002980232,1.00000001490116,0.));
#1766=CARTESIAN_POINT('',(-18.5,0.,3.));
#1767=CARTESIAN_POINT('Origin',(-1.49011611938477E-7,0.,3.));
#1768=UNCERTAINTY_MEASURE_WITH_UNIT(LENGTH_MEASURE(0.01),#1772,
'DISTANCE_ACCURACY_VALUE',
'Maximum model space distance between geometric entities at asserted c
onnectivities');
#1769=UNCERTAINTY_MEASURE_WITH_UNIT(LENGTH_MEASURE(0.01),#1772,
'DISTANCE_ACCURACY_VALUE',
'Maximum model space distance between geometric entities at asserted c
onnectivities');
#1770=(
GEOMETRIC_REPRESENTATION_CONTEXT(3)
GLOBAL_UNCERTAINTY_ASSIGNED_CONTEXT((#1768))
GLOBAL_UNIT_ASSIGNED_CONTEXT((#1772,#1774,#1775))
REPRESENTATION_CONTEXT('','3D')
);
#1771=(
GEOMETRIC_REPRESENTATION_CONTEXT(3)
GLOBAL_UNCERTAINTY_ASSIGNED_CONTEXT((#1769))
GLOBAL_UNIT_ASSIGNED_CONTEXT((#1772,#1774,#1775))
REPRESENTATION_CONTEXT('','3D')
);
#1772=(
LENGTH_UNIT()
NAMED_UNIT(*)
SI_UNIT(.MILLI.,.METRE.)
);
#1773=(
LENGTH_UNIT()
NAMED_UNIT(*)
SI_UNIT($,.METRE.)
);
#1774=(
NAMED_UNIT(*)
PLANE_ANGLE_UNIT()
SI_UNIT($,.RADIAN.)
);
#1775=(
NAMED_UNIT(*)
SI_UNIT($,.STERADIAN.)
SOLID_ANGLE_UNIT()
);
#1776=SHAPE_DEFINITION_REPRESENTATION(#1777,#1778);
#1777=PRODUCT_DEFINITION_SHAPE('',$,#1780);
#1778=SHAPE_REPRESENTATION('',(#1060),#1770);
#1779=PRODUCT_DEFINITION_CONTEXT('part definition',#1784,'design');
#1780=PRODUCT_DEFINITION('BearingPlate8','BearingPlate8 v12',#1781,#1779);
#1781=PRODUCT_DEFINITION_FORMATION('',$,#1786);
#1782=PRODUCT_RELATED_PRODUCT_CATEGORY('BearingPlate8 v12',
'BearingPlate8 v12',(#1786));
#1783=APPLICATION_PROTOCOL_DEFINITION('international standard',
'automotive_design',2009,#1784);
#1784=APPLICATION_CONTEXT(
'Core Data for Automotive Mechanical Design Process');
#1785=PRODUCT_CONTEXT('part definition',#1784,'mechanical');
#1786=PRODUCT('BearingPlate8','BearingPlate8 v12',$,(#1785));
#1787=PRESENTATION_STYLE_ASSIGNMENT((#1789));
#1788=PRESENTATION_STYLE_ASSIGNMENT((#1790));
#1789=SURFACE_STYLE_USAGE(.BOTH.,#1791);
#1790=SURFACE_STYLE_USAGE(.BOTH.,#1792);
#1791=SURFACE_SIDE_STYLE('',(#1793));
#1792=SURFACE_SIDE_STYLE('',(#1794));
#1793=SURFACE_STYLE_FILL_AREA(#1795);
#1794=SURFACE_STYLE_FILL_AREA(#1796);
#1795=FILL_AREA_STYLE('Steel - Satin',(#1797));
#1796=FILL_AREA_STYLE('Acrylic (Clear)',(#1798));
#1797=FILL_AREA_STYLE_COLOUR('Steel - Satin',#1799);
#1798=FILL_AREA_STYLE_COLOUR('Acrylic (Clear)',#1800);
#1799=COLOUR_RGB('Steel - Satin',0.627450980392157,0.627450980392157,0.627450980392157);
#1800=COLOUR_RGB('Acrylic (Clear)',0.964705882352941,0.964705882352941,
0.952941176470588);
ENDSEC;
END-ISO-10303-21;
