ISO-10303-21;
HEADER;
/* Generated by software containing ST-Developer
 * from STEP Tools, Inc. (www.steptools.com) 
 */

FILE_DESCRIPTION(
/* description */ (''),
/* implementation_level */ '2;1');

FILE_NAME(
/* name */ 'BearingPlate1_v15.step',
/* time_stamp */ '2026-08-21T09:18:08-04:00',
/* author */ (''),
/* organization */ (''),
/* preprocessor_version */ 'ST-DEVELOPER v20.1',
/* originating_system */ 'Autodesk Translation Framework v15.8.0.0',
/* authorisation */ '');

FILE_SCHEMA (('AUTOMOTIVE_DESIGN { 1 0 10303 214 3 1 1 }'));
ENDSEC;

DATA;
#10=MECHANICAL_DESIGN_GEOMETRIC_PRESENTATION_REPRESENTATION('',(#13),#2003);
#11=SHAPE_REPRESENTATION_RELATIONSHIP('SRR','None',#2010,#12);
#12=ADVANCED_BREP_SHAPE_REPRESENTATION('',(#14),#2002);
#13=STYLED_ITEM('',(#2020),#14);
#14=MANIFOLD_SOLID_BREP('Body1',#1223);
#15=CYLINDRICAL_SURFACE('',#1272,8.);
#16=CYLINDRICAL_SURFACE('',#1274,2.);
#17=CYLINDRICAL_SURFACE('',#1279,2.1);
#18=CYLINDRICAL_SURFACE('',#1283,2.1);
#19=CYLINDRICAL_SURFACE('',#1285,2.);
#20=CYLINDRICAL_SURFACE('',#1289,2.1);
#21=CYLINDRICAL_SURFACE('',#1294,2.1);
#22=CYLINDRICAL_SURFACE('',#1299,2.1);
#23=CYLINDRICAL_SURFACE('',#1302,2.);
#24=CYLINDRICAL_SURFACE('',#1304,8.);
#25=CYLINDRICAL_SURFACE('',#1316,8.);
#26=CYLINDRICAL_SURFACE('',#1318,8.);
#27=CYLINDRICAL_SURFACE('',#1320,8.);
#28=CYLINDRICAL_SURFACE('',#1322,1.5);
#29=CYLINDRICAL_SURFACE('',#1323,1.5);
#30=CYLINDRICAL_SURFACE('',#1324,0.5);
#31=CYLINDRICAL_SURFACE('',#1325,1.5);
#32=CYLINDRICAL_SURFACE('',#1326,1.5);
#33=CIRCLE('',#1254,8.);
#34=CIRCLE('',#1255,8.);
#35=CIRCLE('',#1256,8.);
#36=CIRCLE('',#1257,8.);
#37=CIRCLE('',#1258,8.);
#38=CIRCLE('',#1259,2.1);
#39=CIRCLE('',#1260,1.5);
#40=CIRCLE('',#1261,1.5);
#41=CIRCLE('',#1262,0.5);
#42=CIRCLE('',#1263,1.5);
#43=CIRCLE('',#1264,1.5);
#44=CIRCLE('',#1265,2.);
#45=CIRCLE('',#1266,2.1);
#46=CIRCLE('',#1267,2.1);
#47=CIRCLE('',#1268,2.1);
#48=CIRCLE('',#1269,2.);
#49=CIRCLE('',#1270,2.1);
#50=CIRCLE('',#1271,2.);
#51=CIRCLE('',#1273,8.);
#52=CIRCLE('',#1275,2.);
#53=CIRCLE('',#1280,2.1);
#54=CIRCLE('',#1284,2.1);
#55=CIRCLE('',#1286,2.);
#56=CIRCLE('',#1290,2.1);
#57=CIRCLE('',#1295,2.1);
#58=CIRCLE('',#1300,2.1);
#59=CIRCLE('',#1303,2.);
#60=CIRCLE('',#1305,8.);
#61=CIRCLE('',#1308,8.);
#62=CIRCLE('',#1309,8.);
#63=CIRCLE('',#1310,8.);
#64=CIRCLE('',#1311,1.5);
#65=CIRCLE('',#1312,1.5);
#66=CIRCLE('',#1313,0.5);
#67=CIRCLE('',#1314,1.5);
#68=CIRCLE('',#1315,1.5);
#69=FACE_BOUND('',#170,.T.);
#70=FACE_BOUND('',#173,.T.);
#71=FACE_BOUND('',#174,.T.);
#72=FACE_BOUND('',#175,.T.);
#73=FACE_BOUND('',#176,.T.);
#74=FACE_BOUND('',#177,.T.);
#75=FACE_BOUND('',#178,.T.);
#76=FACE_BOUND('',#179,.T.);
#77=FACE_BOUND('',#180,.T.);
#78=FACE_BOUND('',#181,.T.);
#79=FACE_BOUND('',#182,.T.);
#80=FACE_BOUND('',#183,.T.);
#81=FACE_BOUND('',#184,.T.);
#82=FACE_BOUND('',#185,.T.);
#83=FACE_BOUND('',#212,.T.);
#84=FACE_BOUND('',#213,.T.);
#85=FACE_BOUND('',#214,.T.);
#86=FACE_BOUND('',#215,.T.);
#87=FACE_BOUND('',#216,.T.);
#88=FACE_BOUND('',#217,.T.);
#89=FACE_BOUND('',#218,.T.);
#90=FACE_BOUND('',#219,.T.);
#91=FACE_BOUND('',#220,.T.);
#92=FACE_BOUND('',#221,.T.);
#93=FACE_BOUND('',#222,.T.);
#94=FACE_BOUND('',#223,.T.);
#95=FACE_OUTER_BOUND('',#155,.T.);
#96=FACE_OUTER_BOUND('',#156,.T.);
#97=FACE_OUTER_BOUND('',#157,.T.);
#98=FACE_OUTER_BOUND('',#158,.T.);
#99=FACE_OUTER_BOUND('',#159,.T.);
#100=FACE_OUTER_BOUND('',#160,.T.);
#101=FACE_OUTER_BOUND('',#161,.T.);
#102=FACE_OUTER_BOUND('',#162,.T.);
#103=FACE_OUTER_BOUND('',#163,.T.);
#104=FACE_OUTER_BOUND('',#164,.T.);
#105=FACE_OUTER_BOUND('',#165,.T.);
#106=FACE_OUTER_BOUND('',#166,.T.);
#107=FACE_OUTER_BOUND('',#167,.T.);
#108=FACE_OUTER_BOUND('',#168,.T.);
#109=FACE_OUTER_BOUND('',#169,.T.);
#110=FACE_OUTER_BOUND('',#171,.T.);
#111=FACE_OUTER_BOUND('',#172,.T.);
#112=FACE_OUTER_BOUND('',#186,.T.);
#113=FACE_OUTER_BOUND('',#187,.T.);
#114=FACE_OUTER_BOUND('',#188,.T.);
#115=FACE_OUTER_BOUND('',#189,.T.);
#116=FACE_OUTER_BOUND('',#190,.T.);
#117=FACE_OUTER_BOUND('',#191,.T.);
#118=FACE_OUTER_BOUND('',#192,.T.);
#119=FACE_OUTER_BOUND('',#193,.T.);
#120=FACE_OUTER_BOUND('',#194,.T.);
#121=FACE_OUTER_BOUND('',#195,.T.);
#122=FACE_OUTER_BOUND('',#196,.T.);
#123=FACE_OUTER_BOUND('',#197,.T.);
#124=FACE_OUTER_BOUND('',#198,.T.);
#125=FACE_OUTER_BOUND('',#199,.T.);
#126=FACE_OUTER_BOUND('',#200,.T.);
#127=FACE_OUTER_BOUND('',#201,.T.);
#128=FACE_OUTER_BOUND('',#202,.T.);
#129=FACE_OUTER_BOUND('',#203,.T.);
#130=FACE_OUTER_BOUND('',#204,.T.);
#131=FACE_OUTER_BOUND('',#205,.T.);
#132=FACE_OUTER_BOUND('',#206,.T.);
#133=FACE_OUTER_BOUND('',#207,.T.);
#134=FACE_OUTER_BOUND('',#208,.T.);
#135=FACE_OUTER_BOUND('',#209,.T.);
#136=FACE_OUTER_BOUND('',#210,.T.);
#137=FACE_OUTER_BOUND('',#211,.T.);
#138=FACE_OUTER_BOUND('',#224,.T.);
#139=FACE_OUTER_BOUND('',#225,.T.);
#140=FACE_OUTER_BOUND('',#226,.T.);
#141=FACE_OUTER_BOUND('',#227,.T.);
#142=FACE_OUTER_BOUND('',#228,.T.);
#143=FACE_OUTER_BOUND('',#229,.T.);
#144=FACE_OUTER_BOUND('',#230,.T.);
#145=FACE_OUTER_BOUND('',#231,.T.);
#146=FACE_OUTER_BOUND('',#232,.T.);
#147=FACE_OUTER_BOUND('',#233,.T.);
#148=FACE_OUTER_BOUND('',#234,.T.);
#149=FACE_OUTER_BOUND('',#235,.T.);
#150=FACE_OUTER_BOUND('',#236,.T.);
#151=FACE_OUTER_BOUND('',#237,.T.);
#152=FACE_OUTER_BOUND('',#238,.T.);
#153=FACE_OUTER_BOUND('',#239,.T.);
#154=FACE_OUTER_BOUND('',#240,.T.);
#155=EDGE_LOOP('',(#785,#786,#787,#788));
#156=EDGE_LOOP('',(#789,#790,#791,#792));
#157=EDGE_LOOP('',(#793,#794,#795,#796));
#158=EDGE_LOOP('',(#797,#798,#799,#800));
#159=EDGE_LOOP('',(#801,#802,#803,#804));
#160=EDGE_LOOP('',(#805,#806,#807,#808));
#161=EDGE_LOOP('',(#809,#810,#811,#812));
#162=EDGE_LOOP('',(#813,#814,#815,#816));
#163=EDGE_LOOP('',(#817,#818,#819,#820));
#164=EDGE_LOOP('',(#821,#822,#823,#824));
#165=EDGE_LOOP('',(#825,#826,#827,#828));
#166=EDGE_LOOP('',(#829,#830,#831,#832));
#167=EDGE_LOOP('',(#833,#834,#835,#836));
#168=EDGE_LOOP('',(#837,#838,#839,#840));
#169=EDGE_LOOP('',(#841,#842,#843,#844,#845,#846,#847,#848,#849,#850,#851));
#170=EDGE_LOOP('',(#852,#853,#854));
#171=EDGE_LOOP('',(#855,#856,#857));
#172=EDGE_LOOP('',(#858,#859,#860,#861,#862,#863,#864,#865,#866,#867,#868,
#869,#870,#871,#872,#873,#874,#875));
#173=EDGE_LOOP('',(#876));
#174=EDGE_LOOP('',(#877));
#175=EDGE_LOOP('',(#878));
#176=EDGE_LOOP('',(#879));
#177=EDGE_LOOP('',(#880));
#178=EDGE_LOOP('',(#881));
#179=EDGE_LOOP('',(#882,#883,#884,#885));
#180=EDGE_LOOP('',(#886,#887,#888,#889));
#181=EDGE_LOOP('',(#890,#891,#892,#893));
#182=EDGE_LOOP('',(#894));
#183=EDGE_LOOP('',(#895,#896,#897,#898));
#184=EDGE_LOOP('',(#899));
#185=EDGE_LOOP('',(#900,#901,#902,#903,#904,#905,#906,#907,#908,#909,#910));
#186=EDGE_LOOP('',(#911,#912,#913,#914));
#187=EDGE_LOOP('',(#915,#916,#917,#918));
#188=EDGE_LOOP('',(#919,#920,#921,#922));
#189=EDGE_LOOP('',(#923,#924,#925,#926));
#190=EDGE_LOOP('',(#927,#928,#929,#930));
#191=EDGE_LOOP('',(#931,#932,#933,#934));
#192=EDGE_LOOP('',(#935,#936,#937,#938));
#193=EDGE_LOOP('',(#939,#940,#941,#942));
#194=EDGE_LOOP('',(#943,#944,#945,#946));
#195=EDGE_LOOP('',(#947,#948,#949,#950));
#196=EDGE_LOOP('',(#951,#952,#953,#954));
#197=EDGE_LOOP('',(#955,#956,#957,#958));
#198=EDGE_LOOP('',(#959,#960,#961,#962));
#199=EDGE_LOOP('',(#963,#964,#965,#966));
#200=EDGE_LOOP('',(#967,#968,#969,#970));
#201=EDGE_LOOP('',(#971,#972,#973,#974));
#202=EDGE_LOOP('',(#975,#976,#977,#978));
#203=EDGE_LOOP('',(#979,#980,#981,#982));
#204=EDGE_LOOP('',(#983,#984,#985,#986));
#205=EDGE_LOOP('',(#987,#988,#989,#990));
#206=EDGE_LOOP('',(#991,#992,#993,#994));
#207=EDGE_LOOP('',(#995,#996,#997,#998));
#208=EDGE_LOOP('',(#999,#1000,#1001,#1002));
#209=EDGE_LOOP('',(#1003,#1004,#1005,#1006));
#210=EDGE_LOOP('',(#1007,#1008,#1009,#1010));
#211=EDGE_LOOP('',(#1011,#1012,#1013,#1014,#1015,#1016,#1017,#1018,#1019,
#1020,#1021,#1022,#1023,#1024,#1025,#1026,#1027,#1028));
#212=EDGE_LOOP('',(#1029));
#213=EDGE_LOOP('',(#1030,#1031,#1032,#1033));
#214=EDGE_LOOP('',(#1034));
#215=EDGE_LOOP('',(#1035,#1036,#1037,#1038));
#216=EDGE_LOOP('',(#1039,#1040,#1041,#1042));
#217=EDGE_LOOP('',(#1043,#1044,#1045,#1046));
#218=EDGE_LOOP('',(#1047));
#219=EDGE_LOOP('',(#1048));
#220=EDGE_LOOP('',(#1049));
#221=EDGE_LOOP('',(#1050));
#222=EDGE_LOOP('',(#1051));
#223=EDGE_LOOP('',(#1052));
#224=EDGE_LOOP('',(#1053,#1054,#1055,#1056));
#225=EDGE_LOOP('',(#1057,#1058,#1059,#1060));
#226=EDGE_LOOP('',(#1061,#1062,#1063,#1064));
#227=EDGE_LOOP('',(#1065,#1066,#1067,#1068));
#228=EDGE_LOOP('',(#1069,#1070,#1071,#1072));
#229=EDGE_LOOP('',(#1073,#1074,#1075,#1076));
#230=EDGE_LOOP('',(#1077,#1078,#1079,#1080));
#231=EDGE_LOOP('',(#1081,#1082,#1083,#1084));
#232=EDGE_LOOP('',(#1085,#1086,#1087,#1088));
#233=EDGE_LOOP('',(#1089,#1090,#1091,#1092));
#234=EDGE_LOOP('',(#1093,#1094,#1095,#1096));
#235=EDGE_LOOP('',(#1097,#1098,#1099,#1100));
#236=EDGE_LOOP('',(#1101,#1102,#1103,#1104));
#237=EDGE_LOOP('',(#1105,#1106,#1107,#1108));
#238=EDGE_LOOP('',(#1109,#1110,#1111,#1112));
#239=EDGE_LOOP('',(#1113,#1114,#1115,#1116));
#240=EDGE_LOOP('',(#1117,#1118,#1119,#1120));
#241=LINE('',#1663,#373);
#242=LINE('',#1665,#374);
#243=LINE('',#1667,#375);
#244=LINE('',#1668,#376);
#245=LINE('',#1671,#377);
#246=LINE('',#1673,#378);
#247=LINE('',#1674,#379);
#248=LINE('',#1676,#380);
#249=LINE('',#1677,#381);
#250=LINE('',#1681,#382);
#251=LINE('',#1683,#383);
#252=LINE('',#1685,#384);
#253=LINE('',#1686,#385);
#254=LINE('',#1689,#386);
#255=LINE('',#1691,#387);
#256=LINE('',#1692,#388);
#257=LINE('',#1695,#389);
#258=LINE('',#1697,#390);
#259=LINE('',#1698,#391);
#260=LINE('',#1701,#392);
#261=LINE('',#1703,#393);
#262=LINE('',#1704,#394);
#263=LINE('',#1707,#395);
#264=LINE('',#1709,#396);
#265=LINE('',#1710,#397);
#266=LINE('',#1713,#398);
#267=LINE('',#1715,#399);
#268=LINE('',#1716,#400);
#269=LINE('',#1719,#401);
#270=LINE('',#1721,#402);
#271=LINE('',#1722,#403);
#272=LINE('',#1725,#404);
#273=LINE('',#1727,#405);
#274=LINE('',#1728,#406);
#275=LINE('',#1731,#407);
#276=LINE('',#1733,#408);
#277=LINE('',#1734,#409);
#278=LINE('',#1737,#410);
#279=LINE('',#1739,#411);
#280=LINE('',#1740,#412);
#281=LINE('',#1742,#413);
#282=LINE('',#1743,#414);
#283=LINE('',#1749,#415);
#284=LINE('',#1753,#416);
#285=LINE('',#1757,#417);
#286=LINE('',#1761,#418);
#287=LINE('',#1763,#419);
#288=LINE('',#1765,#420);
#289=LINE('',#1767,#421);
#290=LINE('',#1771,#422);
#291=LINE('',#1773,#423);
#292=LINE('',#1775,#424);
#293=LINE('',#1777,#425);
#294=LINE('',#1781,#426);
#295=LINE('',#1797,#427);
#296=LINE('',#1799,#428);
#297=LINE('',#1802,#429);
#298=LINE('',#1805,#430);
#299=LINE('',#1807,#431);
#300=LINE('',#1810,#432);
#301=LINE('',#1813,#433);
#302=LINE('',#1815,#434);
#303=LINE('',#1818,#435);
#304=LINE('',#1823,#436);
#305=LINE('',#1825,#437);
#306=LINE('',#1827,#438);
#307=LINE('',#1833,#439);
#308=LINE('',#1835,#440);
#309=LINE('',#1840,#441);
#310=LINE('',#1844,#442);
#311=LINE('',#1845,#443);
#312=LINE('',#1846,#444);
#313=LINE('',#1849,#445);
#314=LINE('',#1850,#446);
#315=LINE('',#1853,#447);
#316=LINE('',#1854,#448);
#317=LINE('',#1860,#449);
#318=LINE('',#1861,#450);
#319=LINE('',#1862,#451);
#320=LINE('',#1865,#452);
#321=LINE('',#1866,#453);
#322=LINE('',#1872,#454);
#323=LINE('',#1876,#455);
#324=LINE('',#1877,#456);
#325=LINE('',#1878,#457);
#326=LINE('',#1881,#458);
#327=LINE('',#1882,#459);
#328=LINE('',#1886,#460);
#329=LINE('',#1888,#461);
#330=LINE('',#1892,#462);
#331=LINE('',#1893,#463);
#332=LINE('',#1894,#464);
#333=LINE('',#1897,#465);
#334=LINE('',#1898,#466);
#335=LINE('',#1902,#467);
#336=LINE('',#1904,#468);
#337=LINE('',#1908,#469);
#338=LINE('',#1909,#470);
#339=LINE('',#1910,#471);
#340=LINE('',#1913,#472);
#341=LINE('',#1914,#473);
#342=LINE('',#1918,#474);
#343=LINE('',#1920,#475);
#344=LINE('',#1924,#476);
#345=LINE('',#1928,#477);
#346=LINE('',#1931,#478);
#347=LINE('',#1932,#479);
#348=LINE('',#1935,#480);
#349=LINE('',#1937,#481);
#350=LINE('',#1939,#482);
#351=LINE('',#1941,#483);
#352=LINE('',#1945,#484);
#353=LINE('',#1947,#485);
#354=LINE('',#1949,#486);
#355=LINE('',#1951,#487);
#356=LINE('',#1955,#488);
#357=LINE('',#1968,#489);
#358=LINE('',#1970,#490);
#359=LINE('',#1972,#491);
#360=LINE('',#1974,#492);
#361=LINE('',#1976,#493);
#362=LINE('',#1977,#494);
#363=LINE('',#1979,#495);
#364=LINE('',#1981,#496);
#365=LINE('',#1983,#497);
#366=LINE('',#1985,#498);
#367=LINE('',#1987,#499);
#368=LINE('',#1989,#500);
#369=LINE('',#1991,#501);
#370=LINE('',#1993,#502);
#371=LINE('',#1995,#503);
#372=LINE('',#1998,#504);
#373=VECTOR('',#1337,10.);
#374=VECTOR('',#1338,10.);
#375=VECTOR('',#1339,10.);
#376=VECTOR('',#1340,10.);
#377=VECTOR('',#1343,10.);
#378=VECTOR('',#1344,10.);
#379=VECTOR('',#1345,10.);
#380=VECTOR('',#1348,10.);
#381=VECTOR('',#1349,10.);
#382=VECTOR('',#1352,10.);
#383=VECTOR('',#1353,10.);
#384=VECTOR('',#1354,10.);
#385=VECTOR('',#1355,10.);
#386=VECTOR('',#1358,10.);
#387=VECTOR('',#1359,10.);
#388=VECTOR('',#1360,10.);
#389=VECTOR('',#1363,10.);
#390=VECTOR('',#1364,10.);
#391=VECTOR('',#1365,10.);
#392=VECTOR('',#1368,10.);
#393=VECTOR('',#1369,10.);
#394=VECTOR('',#1370,10.);
#395=VECTOR('',#1373,10.);
#396=VECTOR('',#1374,10.);
#397=VECTOR('',#1375,10.);
#398=VECTOR('',#1378,10.);
#399=VECTOR('',#1379,10.);
#400=VECTOR('',#1380,10.);
#401=VECTOR('',#1383,10.);
#402=VECTOR('',#1384,10.);
#403=VECTOR('',#1385,10.);
#404=VECTOR('',#1388,10.);
#405=VECTOR('',#1389,10.);
#406=VECTOR('',#1390,10.);
#407=VECTOR('',#1393,10.);
#408=VECTOR('',#1394,10.);
#409=VECTOR('',#1395,10.);
#410=VECTOR('',#1398,10.);
#411=VECTOR('',#1399,10.);
#412=VECTOR('',#1400,10.);
#413=VECTOR('',#1403,10.);
#414=VECTOR('',#1404,10.);
#415=VECTOR('',#1411,10.);
#416=VECTOR('',#1414,10.);
#417=VECTOR('',#1417,10.);
#418=VECTOR('',#1420,10.);
#419=VECTOR('',#1421,10.);
#420=VECTOR('',#1422,10.);
#421=VECTOR('',#1423,10.);
#422=VECTOR('',#1426,10.);
#423=VECTOR('',#1427,10.);
#424=VECTOR('',#1428,10.);
#425=VECTOR('',#1429,10.);
#426=VECTOR('',#1432,10.);
#427=VECTOR('',#1447,10.);
#428=VECTOR('',#1448,10.);
#429=VECTOR('',#1451,10.);
#430=VECTOR('',#1452,10.);
#431=VECTOR('',#1453,10.);
#432=VECTOR('',#1456,10.);
#433=VECTOR('',#1457,10.);
#434=VECTOR('',#1458,10.);
#435=VECTOR('',#1461,10.);
#436=VECTOR('',#1464,10.);
#437=VECTOR('',#1465,10.);
#438=VECTOR('',#1466,10.);
#439=VECTOR('',#1473,10.);
#440=VECTOR('',#1474,10.);
#441=VECTOR('',#1481,2.);
#442=VECTOR('',#1484,10.);
#443=VECTOR('',#1485,10.);
#444=VECTOR('',#1486,10.);
#445=VECTOR('',#1489,10.);
#446=VECTOR('',#1490,10.);
#447=VECTOR('',#1493,10.);
#448=VECTOR('',#1494,10.);
#449=VECTOR('',#1501,10.);
#450=VECTOR('',#1502,10.);
#451=VECTOR('',#1503,10.);
#452=VECTOR('',#1506,10.);
#453=VECTOR('',#1507,10.);
#454=VECTOR('',#1516,2.);
#455=VECTOR('',#1519,10.);
#456=VECTOR('',#1520,10.);
#457=VECTOR('',#1521,10.);
#458=VECTOR('',#1524,10.);
#459=VECTOR('',#1525,10.);
#460=VECTOR('',#1530,10.);
#461=VECTOR('',#1533,10.);
#462=VECTOR('',#1536,10.);
#463=VECTOR('',#1537,10.);
#464=VECTOR('',#1538,10.);
#465=VECTOR('',#1541,10.);
#466=VECTOR('',#1542,10.);
#467=VECTOR('',#1547,10.);
#468=VECTOR('',#1550,10.);
#469=VECTOR('',#1553,10.);
#470=VECTOR('',#1554,10.);
#471=VECTOR('',#1555,10.);
#472=VECTOR('',#1558,10.);
#473=VECTOR('',#1559,10.);
#474=VECTOR('',#1564,10.);
#475=VECTOR('',#1567,10.);
#476=VECTOR('',#1572,2.);
#477=VECTOR('',#1577,10.);
#478=VECTOR('',#1580,10.);
#479=VECTOR('',#1581,10.);
#480=VECTOR('',#1584,10.);
#481=VECTOR('',#1585,10.);
#482=VECTOR('',#1586,10.);
#483=VECTOR('',#1587,10.);
#484=VECTOR('',#1590,10.);
#485=VECTOR('',#1591,10.);
#486=VECTOR('',#1592,10.);
#487=VECTOR('',#1593,10.);
#488=VECTOR('',#1596,10.);
#489=VECTOR('',#1611,10.);
#490=VECTOR('',#1614,10.);
#491=VECTOR('',#1617,10.);
#492=VECTOR('',#1620,10.);
#493=VECTOR('',#1623,10.);
#494=VECTOR('',#1624,10.);
#495=VECTOR('',#1627,10.);
#496=VECTOR('',#1630,1.5);
#497=VECTOR('',#1633,1.5);
#498=VECTOR('',#1636,0.5);
#499=VECTOR('',#1639,1.5);
#500=VECTOR('',#1642,1.5);
#501=VECTOR('',#1645,10.);
#502=VECTOR('',#1648,10.);
#503=VECTOR('',#1651,10.);
#504=VECTOR('',#1656,10.);
#505=VERTEX_POINT('',#1661);
#506=VERTEX_POINT('',#1662);
#507=VERTEX_POINT('',#1664);
#508=VERTEX_POINT('',#1666);
#509=VERTEX_POINT('',#1670);
#510=VERTEX_POINT('',#1672);
#511=VERTEX_POINT('',#1679);
#512=VERTEX_POINT('',#1680);
#513=VERTEX_POINT('',#1682);
#514=VERTEX_POINT('',#1684);
#515=VERTEX_POINT('',#1688);
#516=VERTEX_POINT('',#1690);
#517=VERTEX_POINT('',#1694);
#518=VERTEX_POINT('',#1696);
#519=VERTEX_POINT('',#1700);
#520=VERTEX_POINT('',#1702);
#521=VERTEX_POINT('',#1706);
#522=VERTEX_POINT('',#1708);
#523=VERTEX_POINT('',#1712);
#524=VERTEX_POINT('',#1714);
#525=VERTEX_POINT('',#1718);
#526=VERTEX_POINT('',#1720);
#527=VERTEX_POINT('',#1724);
#528=VERTEX_POINT('',#1726);
#529=VERTEX_POINT('',#1730);
#530=VERTEX_POINT('',#1732);
#531=VERTEX_POINT('',#1736);
#532=VERTEX_POINT('',#1738);
#533=VERTEX_POINT('',#1747);
#534=VERTEX_POINT('',#1748);
#535=VERTEX_POINT('',#1750);
#536=VERTEX_POINT('',#1752);
#537=VERTEX_POINT('',#1754);
#538=VERTEX_POINT('',#1756);
#539=VERTEX_POINT('',#1758);
#540=VERTEX_POINT('',#1760);
#541=VERTEX_POINT('',#1762);
#542=VERTEX_POINT('',#1764);
#543=VERTEX_POINT('',#1766);
#544=VERTEX_POINT('',#1768);
#545=VERTEX_POINT('',#1770);
#546=VERTEX_POINT('',#1772);
#547=VERTEX_POINT('',#1774);
#548=VERTEX_POINT('',#1776);
#549=VERTEX_POINT('',#1778);
#550=VERTEX_POINT('',#1780);
#551=VERTEX_POINT('',#1783);
#552=VERTEX_POINT('',#1785);
#553=VERTEX_POINT('',#1787);
#554=VERTEX_POINT('',#1789);
#555=VERTEX_POINT('',#1791);
#556=VERTEX_POINT('',#1793);
#557=VERTEX_POINT('',#1795);
#558=VERTEX_POINT('',#1796);
#559=VERTEX_POINT('',#1798);
#560=VERTEX_POINT('',#1800);
#561=VERTEX_POINT('',#1803);
#562=VERTEX_POINT('',#1804);
#563=VERTEX_POINT('',#1806);
#564=VERTEX_POINT('',#1808);
#565=VERTEX_POINT('',#1811);
#566=VERTEX_POINT('',#1812);
#567=VERTEX_POINT('',#1814);
#568=VERTEX_POINT('',#1816);
#569=VERTEX_POINT('',#1819);
#570=VERTEX_POINT('',#1821);
#571=VERTEX_POINT('',#1822);
#572=VERTEX_POINT('',#1824);
#573=VERTEX_POINT('',#1826);
#574=VERTEX_POINT('',#1829);
#575=VERTEX_POINT('',#1832);
#576=VERTEX_POINT('',#1834);
#577=VERTEX_POINT('',#1838);
#578=VERTEX_POINT('',#1842);
#579=VERTEX_POINT('',#1843);
#580=VERTEX_POINT('',#1848);
#581=VERTEX_POINT('',#1852);
#582=VERTEX_POINT('',#1858);
#583=VERTEX_POINT('',#1859);
#584=VERTEX_POINT('',#1864);
#585=VERTEX_POINT('',#1870);
#586=VERTEX_POINT('',#1874);
#587=VERTEX_POINT('',#1875);
#588=VERTEX_POINT('',#1880);
#589=VERTEX_POINT('',#1884);
#590=VERTEX_POINT('',#1890);
#591=VERTEX_POINT('',#1891);
#592=VERTEX_POINT('',#1896);
#593=VERTEX_POINT('',#1900);
#594=VERTEX_POINT('',#1906);
#595=VERTEX_POINT('',#1907);
#596=VERTEX_POINT('',#1912);
#597=VERTEX_POINT('',#1916);
#598=VERTEX_POINT('',#1922);
#599=VERTEX_POINT('',#1926);
#600=VERTEX_POINT('',#1930);
#601=VERTEX_POINT('',#1934);
#602=VERTEX_POINT('',#1936);
#603=VERTEX_POINT('',#1938);
#604=VERTEX_POINT('',#1940);
#605=VERTEX_POINT('',#1942);
#606=VERTEX_POINT('',#1944);
#607=VERTEX_POINT('',#1946);
#608=VERTEX_POINT('',#1948);
#609=VERTEX_POINT('',#1950);
#610=VERTEX_POINT('',#1952);
#611=VERTEX_POINT('',#1954);
#612=VERTEX_POINT('',#1957);
#613=VERTEX_POINT('',#1959);
#614=VERTEX_POINT('',#1961);
#615=VERTEX_POINT('',#1963);
#616=VERTEX_POINT('',#1965);
#617=EDGE_CURVE('',#505,#506,#241,.T.);
#618=EDGE_CURVE('',#505,#507,#242,.T.);
#619=EDGE_CURVE('',#507,#508,#243,.T.);
#620=EDGE_CURVE('',#506,#508,#244,.T.);
#621=EDGE_CURVE('',#509,#505,#245,.T.);
#622=EDGE_CURVE('',#509,#510,#246,.T.);
#623=EDGE_CURVE('',#510,#507,#247,.T.);
#624=EDGE_CURVE('',#506,#509,#248,.T.);
#625=EDGE_CURVE('',#508,#510,#249,.T.);
#626=EDGE_CURVE('',#511,#512,#250,.T.);
#627=EDGE_CURVE('',#511,#513,#251,.T.);
#628=EDGE_CURVE('',#513,#514,#252,.T.);
#629=EDGE_CURVE('',#512,#514,#253,.T.);
#630=EDGE_CURVE('',#515,#511,#254,.T.);
#631=EDGE_CURVE('',#515,#516,#255,.T.);
#632=EDGE_CURVE('',#516,#513,#256,.T.);
#633=EDGE_CURVE('',#517,#515,#257,.T.);
#634=EDGE_CURVE('',#517,#518,#258,.T.);
#635=EDGE_CURVE('',#518,#516,#259,.T.);
#636=EDGE_CURVE('',#519,#517,#260,.T.);
#637=EDGE_CURVE('',#519,#520,#261,.T.);
#638=EDGE_CURVE('',#520,#518,#262,.T.);
#639=EDGE_CURVE('',#521,#519,#263,.T.);
#640=EDGE_CURVE('',#521,#522,#264,.T.);
#641=EDGE_CURVE('',#522,#520,#265,.T.);
#642=EDGE_CURVE('',#523,#521,#266,.T.);
#643=EDGE_CURVE('',#523,#524,#267,.T.);
#644=EDGE_CURVE('',#524,#522,#268,.T.);
#645=EDGE_CURVE('',#525,#523,#269,.T.);
#646=EDGE_CURVE('',#525,#526,#270,.T.);
#647=EDGE_CURVE('',#526,#524,#271,.T.);
#648=EDGE_CURVE('',#527,#525,#272,.T.);
#649=EDGE_CURVE('',#527,#528,#273,.T.);
#650=EDGE_CURVE('',#528,#526,#274,.T.);
#651=EDGE_CURVE('',#529,#527,#275,.T.);
#652=EDGE_CURVE('',#529,#530,#276,.T.);
#653=EDGE_CURVE('',#530,#528,#277,.T.);
#654=EDGE_CURVE('',#531,#529,#278,.T.);
#655=EDGE_CURVE('',#531,#532,#279,.T.);
#656=EDGE_CURVE('',#532,#530,#280,.T.);
#657=EDGE_CURVE('',#512,#531,#281,.T.);
#658=EDGE_CURVE('',#514,#532,#282,.T.);
#659=EDGE_CURVE('',#533,#534,#283,.T.);
#660=EDGE_CURVE('',#535,#534,#33,.T.);
#661=EDGE_CURVE('',#535,#536,#284,.T.);
#662=EDGE_CURVE('',#537,#536,#34,.T.);
#663=EDGE_CURVE('',#537,#538,#285,.T.);
#664=EDGE_CURVE('',#539,#538,#35,.T.);
#665=EDGE_CURVE('',#539,#540,#286,.T.);
#666=EDGE_CURVE('',#540,#541,#287,.T.);
#667=EDGE_CURVE('',#541,#542,#288,.T.);
#668=EDGE_CURVE('',#542,#543,#289,.T.);
#669=EDGE_CURVE('',#544,#543,#36,.T.);
#670=EDGE_CURVE('',#544,#545,#290,.T.);
#671=EDGE_CURVE('',#545,#546,#291,.T.);
#672=EDGE_CURVE('',#546,#547,#292,.T.);
#673=EDGE_CURVE('',#547,#548,#293,.T.);
#674=EDGE_CURVE('',#549,#548,#37,.T.);
#675=EDGE_CURVE('',#549,#550,#294,.T.);
#676=EDGE_CURVE('',#550,#533,#38,.T.);
#677=EDGE_CURVE('',#551,#551,#39,.T.);
#678=EDGE_CURVE('',#552,#552,#40,.T.);
#679=EDGE_CURVE('',#553,#553,#41,.T.);
#680=EDGE_CURVE('',#554,#554,#42,.T.);
#681=EDGE_CURVE('',#555,#555,#43,.T.);
#682=EDGE_CURVE('',#556,#556,#44,.T.);
#683=EDGE_CURVE('',#557,#558,#295,.T.);
#684=EDGE_CURVE('',#558,#559,#296,.T.);
#685=EDGE_CURVE('',#559,#560,#45,.T.);
#686=EDGE_CURVE('',#560,#557,#297,.T.);
#687=EDGE_CURVE('',#561,#562,#298,.T.);
#688=EDGE_CURVE('',#562,#563,#299,.T.);
#689=EDGE_CURVE('',#563,#564,#46,.T.);
#690=EDGE_CURVE('',#564,#561,#300,.T.);
#691=EDGE_CURVE('',#565,#566,#301,.T.);
#692=EDGE_CURVE('',#566,#567,#302,.T.);
#693=EDGE_CURVE('',#567,#568,#47,.T.);
#694=EDGE_CURVE('',#568,#565,#303,.T.);
#695=EDGE_CURVE('',#569,#569,#48,.T.);
#696=EDGE_CURVE('',#570,#571,#304,.T.);
#697=EDGE_CURVE('',#571,#572,#305,.T.);
#698=EDGE_CURVE('',#572,#573,#306,.T.);
#699=EDGE_CURVE('',#573,#570,#49,.T.);
#700=EDGE_CURVE('',#574,#574,#50,.T.);
#701=EDGE_CURVE('',#575,#549,#307,.T.);
#702=EDGE_CURVE('',#548,#576,#308,.T.);
#703=EDGE_CURVE('',#576,#575,#51,.T.);
#704=EDGE_CURVE('',#577,#577,#52,.T.);
#705=EDGE_CURVE('',#577,#574,#309,.T.);
#706=EDGE_CURVE('',#578,#579,#310,.F.);
#707=EDGE_CURVE('',#578,#571,#311,.F.);
#708=EDGE_CURVE('',#579,#570,#312,.T.);
#709=EDGE_CURVE('',#580,#578,#313,.T.);
#710=EDGE_CURVE('',#580,#572,#314,.T.);
#711=EDGE_CURVE('',#581,#580,#315,.F.);
#712=EDGE_CURVE('',#581,#573,#316,.T.);
#713=EDGE_CURVE('',#579,#581,#53,.F.);
#714=EDGE_CURVE('',#582,#583,#317,.F.);
#715=EDGE_CURVE('',#534,#582,#318,.T.);
#716=EDGE_CURVE('',#583,#533,#319,.T.);
#717=EDGE_CURVE('',#584,#575,#320,.F.);
#718=EDGE_CURVE('',#584,#550,#321,.T.);
#719=EDGE_CURVE('',#583,#584,#54,.F.);
#720=EDGE_CURVE('',#585,#585,#55,.T.);
#721=EDGE_CURVE('',#585,#569,#322,.T.);
#722=EDGE_CURVE('',#586,#587,#323,.T.);
#723=EDGE_CURVE('',#586,#566,#324,.T.);
#724=EDGE_CURVE('',#587,#565,#325,.F.);
#725=EDGE_CURVE('',#588,#586,#326,.F.);
#726=EDGE_CURVE('',#588,#567,#327,.T.);
#727=EDGE_CURVE('',#589,#588,#56,.F.);
#728=EDGE_CURVE('',#589,#568,#328,.T.);
#729=EDGE_CURVE('',#587,#589,#329,.F.);
#730=EDGE_CURVE('',#590,#591,#330,.T.);
#731=EDGE_CURVE('',#590,#562,#331,.T.);
#732=EDGE_CURVE('',#591,#561,#332,.F.);
#733=EDGE_CURVE('',#592,#590,#333,.F.);
#734=EDGE_CURVE('',#592,#563,#334,.T.);
#735=EDGE_CURVE('',#593,#592,#57,.F.);
#736=EDGE_CURVE('',#593,#564,#335,.T.);
#737=EDGE_CURVE('',#591,#593,#336,.F.);
#738=EDGE_CURVE('',#594,#595,#337,.T.);
#739=EDGE_CURVE('',#594,#558,#338,.T.);
#740=EDGE_CURVE('',#595,#557,#339,.F.);
#741=EDGE_CURVE('',#596,#594,#340,.F.);
#742=EDGE_CURVE('',#596,#559,#341,.T.);
#743=EDGE_CURVE('',#597,#596,#58,.F.);
#744=EDGE_CURVE('',#597,#560,#342,.T.);
#745=EDGE_CURVE('',#595,#597,#343,.F.);
#746=EDGE_CURVE('',#598,#598,#59,.T.);
#747=EDGE_CURVE('',#598,#556,#344,.T.);
#748=EDGE_CURVE('',#582,#599,#60,.T.);
#749=EDGE_CURVE('',#599,#535,#345,.T.);
#750=EDGE_CURVE('',#600,#599,#346,.T.);
#751=EDGE_CURVE('',#536,#600,#347,.T.);
#752=EDGE_CURVE('',#576,#601,#348,.T.);
#753=EDGE_CURVE('',#601,#602,#349,.T.);
#754=EDGE_CURVE('',#603,#602,#350,.T.);
#755=EDGE_CURVE('',#603,#604,#351,.T.);
#756=EDGE_CURVE('',#605,#604,#61,.T.);
#757=EDGE_CURVE('',#605,#606,#352,.T.);
#758=EDGE_CURVE('',#607,#606,#353,.T.);
#759=EDGE_CURVE('',#607,#608,#354,.T.);
#760=EDGE_CURVE('',#608,#609,#355,.T.);
#761=EDGE_CURVE('',#610,#609,#62,.T.);
#762=EDGE_CURVE('',#610,#611,#356,.T.);
#763=EDGE_CURVE('',#600,#611,#63,.T.);
#764=EDGE_CURVE('',#612,#612,#64,.T.);
#765=EDGE_CURVE('',#613,#613,#65,.T.);
#766=EDGE_CURVE('',#614,#614,#66,.T.);
#767=EDGE_CURVE('',#615,#615,#67,.T.);
#768=EDGE_CURVE('',#616,#616,#68,.T.);
#769=EDGE_CURVE('',#611,#537,#357,.T.);
#770=EDGE_CURVE('',#538,#610,#358,.T.);
#771=EDGE_CURVE('',#609,#539,#359,.T.);
#772=EDGE_CURVE('',#608,#540,#360,.T.);
#773=EDGE_CURVE('',#543,#605,#361,.T.);
#774=EDGE_CURVE('',#604,#544,#362,.T.);
#775=EDGE_CURVE('',#606,#542,#363,.T.);
#776=EDGE_CURVE('',#551,#616,#364,.T.);
#777=EDGE_CURVE('',#552,#615,#365,.T.);
#778=EDGE_CURVE('',#553,#614,#366,.T.);
#779=EDGE_CURVE('',#554,#613,#367,.T.);
#780=EDGE_CURVE('',#555,#612,#368,.T.);
#781=EDGE_CURVE('',#601,#547,#369,.T.);
#782=EDGE_CURVE('',#602,#546,#370,.T.);
#783=EDGE_CURVE('',#603,#545,#371,.T.);
#784=EDGE_CURVE('',#607,#541,#372,.T.);
#785=ORIENTED_EDGE('',*,*,#617,.F.);
#786=ORIENTED_EDGE('',*,*,#618,.T.);
#787=ORIENTED_EDGE('',*,*,#619,.T.);
#788=ORIENTED_EDGE('',*,*,#620,.F.);
#789=ORIENTED_EDGE('',*,*,#621,.F.);
#790=ORIENTED_EDGE('',*,*,#622,.T.);
#791=ORIENTED_EDGE('',*,*,#623,.T.);
#792=ORIENTED_EDGE('',*,*,#618,.F.);
#793=ORIENTED_EDGE('',*,*,#624,.F.);
#794=ORIENTED_EDGE('',*,*,#620,.T.);
#795=ORIENTED_EDGE('',*,*,#625,.T.);
#796=ORIENTED_EDGE('',*,*,#622,.F.);
#797=ORIENTED_EDGE('',*,*,#626,.F.);
#798=ORIENTED_EDGE('',*,*,#627,.T.);
#799=ORIENTED_EDGE('',*,*,#628,.T.);
#800=ORIENTED_EDGE('',*,*,#629,.F.);
#801=ORIENTED_EDGE('',*,*,#630,.F.);
#802=ORIENTED_EDGE('',*,*,#631,.T.);
#803=ORIENTED_EDGE('',*,*,#632,.T.);
#804=ORIENTED_EDGE('',*,*,#627,.F.);
#805=ORIENTED_EDGE('',*,*,#633,.F.);
#806=ORIENTED_EDGE('',*,*,#634,.T.);
#807=ORIENTED_EDGE('',*,*,#635,.T.);
#808=ORIENTED_EDGE('',*,*,#631,.F.);
#809=ORIENTED_EDGE('',*,*,#636,.F.);
#810=ORIENTED_EDGE('',*,*,#637,.T.);
#811=ORIENTED_EDGE('',*,*,#638,.T.);
#812=ORIENTED_EDGE('',*,*,#634,.F.);
#813=ORIENTED_EDGE('',*,*,#639,.F.);
#814=ORIENTED_EDGE('',*,*,#640,.T.);
#815=ORIENTED_EDGE('',*,*,#641,.T.);
#816=ORIENTED_EDGE('',*,*,#637,.F.);
#817=ORIENTED_EDGE('',*,*,#642,.F.);
#818=ORIENTED_EDGE('',*,*,#643,.T.);
#819=ORIENTED_EDGE('',*,*,#644,.T.);
#820=ORIENTED_EDGE('',*,*,#640,.F.);
#821=ORIENTED_EDGE('',*,*,#645,.F.);
#822=ORIENTED_EDGE('',*,*,#646,.T.);
#823=ORIENTED_EDGE('',*,*,#647,.T.);
#824=ORIENTED_EDGE('',*,*,#643,.F.);
#825=ORIENTED_EDGE('',*,*,#648,.F.);
#826=ORIENTED_EDGE('',*,*,#649,.T.);
#827=ORIENTED_EDGE('',*,*,#650,.T.);
#828=ORIENTED_EDGE('',*,*,#646,.F.);
#829=ORIENTED_EDGE('',*,*,#651,.F.);
#830=ORIENTED_EDGE('',*,*,#652,.T.);
#831=ORIENTED_EDGE('',*,*,#653,.T.);
#832=ORIENTED_EDGE('',*,*,#649,.F.);
#833=ORIENTED_EDGE('',*,*,#654,.F.);
#834=ORIENTED_EDGE('',*,*,#655,.T.);
#835=ORIENTED_EDGE('',*,*,#656,.T.);
#836=ORIENTED_EDGE('',*,*,#652,.F.);
#837=ORIENTED_EDGE('',*,*,#657,.F.);
#838=ORIENTED_EDGE('',*,*,#629,.T.);
#839=ORIENTED_EDGE('',*,*,#658,.T.);
#840=ORIENTED_EDGE('',*,*,#655,.F.);
#841=ORIENTED_EDGE('',*,*,#658,.F.);
#842=ORIENTED_EDGE('',*,*,#628,.F.);
#843=ORIENTED_EDGE('',*,*,#632,.F.);
#844=ORIENTED_EDGE('',*,*,#635,.F.);
#845=ORIENTED_EDGE('',*,*,#638,.F.);
#846=ORIENTED_EDGE('',*,*,#641,.F.);
#847=ORIENTED_EDGE('',*,*,#644,.F.);
#848=ORIENTED_EDGE('',*,*,#647,.F.);
#849=ORIENTED_EDGE('',*,*,#650,.F.);
#850=ORIENTED_EDGE('',*,*,#653,.F.);
#851=ORIENTED_EDGE('',*,*,#656,.F.);
#852=ORIENTED_EDGE('',*,*,#625,.F.);
#853=ORIENTED_EDGE('',*,*,#619,.F.);
#854=ORIENTED_EDGE('',*,*,#623,.F.);
#855=ORIENTED_EDGE('',*,*,#617,.T.);
#856=ORIENTED_EDGE('',*,*,#624,.T.);
#857=ORIENTED_EDGE('',*,*,#621,.T.);
#858=ORIENTED_EDGE('',*,*,#659,.T.);
#859=ORIENTED_EDGE('',*,*,#660,.F.);
#860=ORIENTED_EDGE('',*,*,#661,.T.);
#861=ORIENTED_EDGE('',*,*,#662,.F.);
#862=ORIENTED_EDGE('',*,*,#663,.T.);
#863=ORIENTED_EDGE('',*,*,#664,.F.);
#864=ORIENTED_EDGE('',*,*,#665,.T.);
#865=ORIENTED_EDGE('',*,*,#666,.T.);
#866=ORIENTED_EDGE('',*,*,#667,.T.);
#867=ORIENTED_EDGE('',*,*,#668,.T.);
#868=ORIENTED_EDGE('',*,*,#669,.F.);
#869=ORIENTED_EDGE('',*,*,#670,.T.);
#870=ORIENTED_EDGE('',*,*,#671,.T.);
#871=ORIENTED_EDGE('',*,*,#672,.T.);
#872=ORIENTED_EDGE('',*,*,#673,.T.);
#873=ORIENTED_EDGE('',*,*,#674,.F.);
#874=ORIENTED_EDGE('',*,*,#675,.T.);
#875=ORIENTED_EDGE('',*,*,#676,.T.);
#876=ORIENTED_EDGE('',*,*,#677,.T.);
#877=ORIENTED_EDGE('',*,*,#678,.T.);
#878=ORIENTED_EDGE('',*,*,#679,.T.);
#879=ORIENTED_EDGE('',*,*,#680,.T.);
#880=ORIENTED_EDGE('',*,*,#681,.T.);
#881=ORIENTED_EDGE('',*,*,#682,.T.);
#882=ORIENTED_EDGE('',*,*,#683,.T.);
#883=ORIENTED_EDGE('',*,*,#684,.T.);
#884=ORIENTED_EDGE('',*,*,#685,.T.);
#885=ORIENTED_EDGE('',*,*,#686,.T.);
#886=ORIENTED_EDGE('',*,*,#687,.T.);
#887=ORIENTED_EDGE('',*,*,#688,.T.);
#888=ORIENTED_EDGE('',*,*,#689,.T.);
#889=ORIENTED_EDGE('',*,*,#690,.T.);
#890=ORIENTED_EDGE('',*,*,#691,.T.);
#891=ORIENTED_EDGE('',*,*,#692,.T.);
#892=ORIENTED_EDGE('',*,*,#693,.T.);
#893=ORIENTED_EDGE('',*,*,#694,.T.);
#894=ORIENTED_EDGE('',*,*,#695,.T.);
#895=ORIENTED_EDGE('',*,*,#696,.T.);
#896=ORIENTED_EDGE('',*,*,#697,.T.);
#897=ORIENTED_EDGE('',*,*,#698,.T.);
#898=ORIENTED_EDGE('',*,*,#699,.T.);
#899=ORIENTED_EDGE('',*,*,#700,.T.);
#900=ORIENTED_EDGE('',*,*,#626,.T.);
#901=ORIENTED_EDGE('',*,*,#657,.T.);
#902=ORIENTED_EDGE('',*,*,#654,.T.);
#903=ORIENTED_EDGE('',*,*,#651,.T.);
#904=ORIENTED_EDGE('',*,*,#648,.T.);
#905=ORIENTED_EDGE('',*,*,#645,.T.);
#906=ORIENTED_EDGE('',*,*,#642,.T.);
#907=ORIENTED_EDGE('',*,*,#639,.T.);
#908=ORIENTED_EDGE('',*,*,#636,.T.);
#909=ORIENTED_EDGE('',*,*,#633,.T.);
#910=ORIENTED_EDGE('',*,*,#630,.T.);
#911=ORIENTED_EDGE('',*,*,#701,.T.);
#912=ORIENTED_EDGE('',*,*,#674,.T.);
#913=ORIENTED_EDGE('',*,*,#702,.T.);
#914=ORIENTED_EDGE('',*,*,#703,.T.);
#915=ORIENTED_EDGE('',*,*,#704,.F.);
#916=ORIENTED_EDGE('',*,*,#705,.T.);
#917=ORIENTED_EDGE('',*,*,#700,.F.);
#918=ORIENTED_EDGE('',*,*,#705,.F.);
#919=ORIENTED_EDGE('',*,*,#706,.F.);
#920=ORIENTED_EDGE('',*,*,#707,.T.);
#921=ORIENTED_EDGE('',*,*,#696,.F.);
#922=ORIENTED_EDGE('',*,*,#708,.F.);
#923=ORIENTED_EDGE('',*,*,#709,.F.);
#924=ORIENTED_EDGE('',*,*,#710,.T.);
#925=ORIENTED_EDGE('',*,*,#697,.F.);
#926=ORIENTED_EDGE('',*,*,#707,.F.);
#927=ORIENTED_EDGE('',*,*,#711,.F.);
#928=ORIENTED_EDGE('',*,*,#712,.T.);
#929=ORIENTED_EDGE('',*,*,#698,.F.);
#930=ORIENTED_EDGE('',*,*,#710,.F.);
#931=ORIENTED_EDGE('',*,*,#713,.F.);
#932=ORIENTED_EDGE('',*,*,#708,.T.);
#933=ORIENTED_EDGE('',*,*,#699,.F.);
#934=ORIENTED_EDGE('',*,*,#712,.F.);
#935=ORIENTED_EDGE('',*,*,#714,.F.);
#936=ORIENTED_EDGE('',*,*,#715,.F.);
#937=ORIENTED_EDGE('',*,*,#659,.F.);
#938=ORIENTED_EDGE('',*,*,#716,.F.);
#939=ORIENTED_EDGE('',*,*,#717,.F.);
#940=ORIENTED_EDGE('',*,*,#718,.T.);
#941=ORIENTED_EDGE('',*,*,#675,.F.);
#942=ORIENTED_EDGE('',*,*,#701,.F.);
#943=ORIENTED_EDGE('',*,*,#719,.F.);
#944=ORIENTED_EDGE('',*,*,#716,.T.);
#945=ORIENTED_EDGE('',*,*,#676,.F.);
#946=ORIENTED_EDGE('',*,*,#718,.F.);
#947=ORIENTED_EDGE('',*,*,#720,.F.);
#948=ORIENTED_EDGE('',*,*,#721,.T.);
#949=ORIENTED_EDGE('',*,*,#695,.F.);
#950=ORIENTED_EDGE('',*,*,#721,.F.);
#951=ORIENTED_EDGE('',*,*,#722,.F.);
#952=ORIENTED_EDGE('',*,*,#723,.T.);
#953=ORIENTED_EDGE('',*,*,#691,.F.);
#954=ORIENTED_EDGE('',*,*,#724,.F.);
#955=ORIENTED_EDGE('',*,*,#725,.F.);
#956=ORIENTED_EDGE('',*,*,#726,.T.);
#957=ORIENTED_EDGE('',*,*,#692,.F.);
#958=ORIENTED_EDGE('',*,*,#723,.F.);
#959=ORIENTED_EDGE('',*,*,#727,.F.);
#960=ORIENTED_EDGE('',*,*,#728,.T.);
#961=ORIENTED_EDGE('',*,*,#693,.F.);
#962=ORIENTED_EDGE('',*,*,#726,.F.);
#963=ORIENTED_EDGE('',*,*,#729,.F.);
#964=ORIENTED_EDGE('',*,*,#724,.T.);
#965=ORIENTED_EDGE('',*,*,#694,.F.);
#966=ORIENTED_EDGE('',*,*,#728,.F.);
#967=ORIENTED_EDGE('',*,*,#730,.F.);
#968=ORIENTED_EDGE('',*,*,#731,.T.);
#969=ORIENTED_EDGE('',*,*,#687,.F.);
#970=ORIENTED_EDGE('',*,*,#732,.F.);
#971=ORIENTED_EDGE('',*,*,#733,.F.);
#972=ORIENTED_EDGE('',*,*,#734,.T.);
#973=ORIENTED_EDGE('',*,*,#688,.F.);
#974=ORIENTED_EDGE('',*,*,#731,.F.);
#975=ORIENTED_EDGE('',*,*,#735,.F.);
#976=ORIENTED_EDGE('',*,*,#736,.T.);
#977=ORIENTED_EDGE('',*,*,#689,.F.);
#978=ORIENTED_EDGE('',*,*,#734,.F.);
#979=ORIENTED_EDGE('',*,*,#737,.F.);
#980=ORIENTED_EDGE('',*,*,#732,.T.);
#981=ORIENTED_EDGE('',*,*,#690,.F.);
#982=ORIENTED_EDGE('',*,*,#736,.F.);
#983=ORIENTED_EDGE('',*,*,#738,.F.);
#984=ORIENTED_EDGE('',*,*,#739,.T.);
#985=ORIENTED_EDGE('',*,*,#683,.F.);
#986=ORIENTED_EDGE('',*,*,#740,.F.);
#987=ORIENTED_EDGE('',*,*,#741,.F.);
#988=ORIENTED_EDGE('',*,*,#742,.T.);
#989=ORIENTED_EDGE('',*,*,#684,.F.);
#990=ORIENTED_EDGE('',*,*,#739,.F.);
#991=ORIENTED_EDGE('',*,*,#743,.F.);
#992=ORIENTED_EDGE('',*,*,#744,.T.);
#993=ORIENTED_EDGE('',*,*,#685,.F.);
#994=ORIENTED_EDGE('',*,*,#742,.F.);
#995=ORIENTED_EDGE('',*,*,#745,.F.);
#996=ORIENTED_EDGE('',*,*,#740,.T.);
#997=ORIENTED_EDGE('',*,*,#686,.F.);
#998=ORIENTED_EDGE('',*,*,#744,.F.);
#999=ORIENTED_EDGE('',*,*,#746,.F.);
#1000=ORIENTED_EDGE('',*,*,#747,.T.);
#1001=ORIENTED_EDGE('',*,*,#682,.F.);
#1002=ORIENTED_EDGE('',*,*,#747,.F.);
#1003=ORIENTED_EDGE('',*,*,#715,.T.);
#1004=ORIENTED_EDGE('',*,*,#748,.T.);
#1005=ORIENTED_EDGE('',*,*,#749,.T.);
#1006=ORIENTED_EDGE('',*,*,#660,.T.);
#1007=ORIENTED_EDGE('',*,*,#749,.F.);
#1008=ORIENTED_EDGE('',*,*,#750,.F.);
#1009=ORIENTED_EDGE('',*,*,#751,.F.);
#1010=ORIENTED_EDGE('',*,*,#661,.F.);
#1011=ORIENTED_EDGE('',*,*,#714,.T.);
#1012=ORIENTED_EDGE('',*,*,#719,.T.);
#1013=ORIENTED_EDGE('',*,*,#717,.T.);
#1014=ORIENTED_EDGE('',*,*,#703,.F.);
#1015=ORIENTED_EDGE('',*,*,#752,.T.);
#1016=ORIENTED_EDGE('',*,*,#753,.T.);
#1017=ORIENTED_EDGE('',*,*,#754,.F.);
#1018=ORIENTED_EDGE('',*,*,#755,.T.);
#1019=ORIENTED_EDGE('',*,*,#756,.F.);
#1020=ORIENTED_EDGE('',*,*,#757,.T.);
#1021=ORIENTED_EDGE('',*,*,#758,.F.);
#1022=ORIENTED_EDGE('',*,*,#759,.T.);
#1023=ORIENTED_EDGE('',*,*,#760,.T.);
#1024=ORIENTED_EDGE('',*,*,#761,.F.);
#1025=ORIENTED_EDGE('',*,*,#762,.T.);
#1026=ORIENTED_EDGE('',*,*,#763,.F.);
#1027=ORIENTED_EDGE('',*,*,#750,.T.);
#1028=ORIENTED_EDGE('',*,*,#748,.F.);
#1029=ORIENTED_EDGE('',*,*,#704,.T.);
#1030=ORIENTED_EDGE('',*,*,#706,.T.);
#1031=ORIENTED_EDGE('',*,*,#713,.T.);
#1032=ORIENTED_EDGE('',*,*,#711,.T.);
#1033=ORIENTED_EDGE('',*,*,#709,.T.);
#1034=ORIENTED_EDGE('',*,*,#720,.T.);
#1035=ORIENTED_EDGE('',*,*,#722,.T.);
#1036=ORIENTED_EDGE('',*,*,#729,.T.);
#1037=ORIENTED_EDGE('',*,*,#727,.T.);
#1038=ORIENTED_EDGE('',*,*,#725,.T.);
#1039=ORIENTED_EDGE('',*,*,#730,.T.);
#1040=ORIENTED_EDGE('',*,*,#737,.T.);
#1041=ORIENTED_EDGE('',*,*,#735,.T.);
#1042=ORIENTED_EDGE('',*,*,#733,.T.);
#1043=ORIENTED_EDGE('',*,*,#738,.T.);
#1044=ORIENTED_EDGE('',*,*,#745,.T.);
#1045=ORIENTED_EDGE('',*,*,#743,.T.);
#1046=ORIENTED_EDGE('',*,*,#741,.T.);
#1047=ORIENTED_EDGE('',*,*,#746,.T.);
#1048=ORIENTED_EDGE('',*,*,#764,.F.);
#1049=ORIENTED_EDGE('',*,*,#765,.F.);
#1050=ORIENTED_EDGE('',*,*,#766,.F.);
#1051=ORIENTED_EDGE('',*,*,#767,.F.);
#1052=ORIENTED_EDGE('',*,*,#768,.F.);
#1053=ORIENTED_EDGE('',*,*,#662,.T.);
#1054=ORIENTED_EDGE('',*,*,#751,.T.);
#1055=ORIENTED_EDGE('',*,*,#763,.T.);
#1056=ORIENTED_EDGE('',*,*,#769,.T.);
#1057=ORIENTED_EDGE('',*,*,#769,.F.);
#1058=ORIENTED_EDGE('',*,*,#762,.F.);
#1059=ORIENTED_EDGE('',*,*,#770,.F.);
#1060=ORIENTED_EDGE('',*,*,#663,.F.);
#1061=ORIENTED_EDGE('',*,*,#664,.T.);
#1062=ORIENTED_EDGE('',*,*,#770,.T.);
#1063=ORIENTED_EDGE('',*,*,#761,.T.);
#1064=ORIENTED_EDGE('',*,*,#771,.T.);
#1065=ORIENTED_EDGE('',*,*,#771,.F.);
#1066=ORIENTED_EDGE('',*,*,#760,.F.);
#1067=ORIENTED_EDGE('',*,*,#772,.T.);
#1068=ORIENTED_EDGE('',*,*,#665,.F.);
#1069=ORIENTED_EDGE('',*,*,#669,.T.);
#1070=ORIENTED_EDGE('',*,*,#773,.T.);
#1071=ORIENTED_EDGE('',*,*,#756,.T.);
#1072=ORIENTED_EDGE('',*,*,#774,.T.);
#1073=ORIENTED_EDGE('',*,*,#773,.F.);
#1074=ORIENTED_EDGE('',*,*,#668,.F.);
#1075=ORIENTED_EDGE('',*,*,#775,.F.);
#1076=ORIENTED_EDGE('',*,*,#757,.F.);
#1077=ORIENTED_EDGE('',*,*,#677,.F.);
#1078=ORIENTED_EDGE('',*,*,#776,.T.);
#1079=ORIENTED_EDGE('',*,*,#768,.T.);
#1080=ORIENTED_EDGE('',*,*,#776,.F.);
#1081=ORIENTED_EDGE('',*,*,#678,.F.);
#1082=ORIENTED_EDGE('',*,*,#777,.T.);
#1083=ORIENTED_EDGE('',*,*,#767,.T.);
#1084=ORIENTED_EDGE('',*,*,#777,.F.);
#1085=ORIENTED_EDGE('',*,*,#679,.F.);
#1086=ORIENTED_EDGE('',*,*,#778,.T.);
#1087=ORIENTED_EDGE('',*,*,#766,.T.);
#1088=ORIENTED_EDGE('',*,*,#778,.F.);
#1089=ORIENTED_EDGE('',*,*,#680,.F.);
#1090=ORIENTED_EDGE('',*,*,#779,.T.);
#1091=ORIENTED_EDGE('',*,*,#765,.T.);
#1092=ORIENTED_EDGE('',*,*,#779,.F.);
#1093=ORIENTED_EDGE('',*,*,#681,.F.);
#1094=ORIENTED_EDGE('',*,*,#780,.T.);
#1095=ORIENTED_EDGE('',*,*,#764,.T.);
#1096=ORIENTED_EDGE('',*,*,#780,.F.);
#1097=ORIENTED_EDGE('',*,*,#702,.F.);
#1098=ORIENTED_EDGE('',*,*,#673,.F.);
#1099=ORIENTED_EDGE('',*,*,#781,.F.);
#1100=ORIENTED_EDGE('',*,*,#752,.F.);
#1101=ORIENTED_EDGE('',*,*,#753,.F.);
#1102=ORIENTED_EDGE('',*,*,#781,.T.);
#1103=ORIENTED_EDGE('',*,*,#672,.F.);
#1104=ORIENTED_EDGE('',*,*,#782,.F.);
#1105=ORIENTED_EDGE('',*,*,#754,.T.);
#1106=ORIENTED_EDGE('',*,*,#782,.T.);
#1107=ORIENTED_EDGE('',*,*,#671,.F.);
#1108=ORIENTED_EDGE('',*,*,#783,.F.);
#1109=ORIENTED_EDGE('',*,*,#774,.F.);
#1110=ORIENTED_EDGE('',*,*,#755,.F.);
#1111=ORIENTED_EDGE('',*,*,#783,.T.);
#1112=ORIENTED_EDGE('',*,*,#670,.F.);
#1113=ORIENTED_EDGE('',*,*,#758,.T.);
#1114=ORIENTED_EDGE('',*,*,#775,.T.);
#1115=ORIENTED_EDGE('',*,*,#667,.F.);
#1116=ORIENTED_EDGE('',*,*,#784,.F.);
#1117=ORIENTED_EDGE('',*,*,#759,.F.);
#1118=ORIENTED_EDGE('',*,*,#784,.T.);
#1119=ORIENTED_EDGE('',*,*,#666,.F.);
#1120=ORIENTED_EDGE('',*,*,#772,.F.);
#1121=PLANE('',#1237);
#1122=PLANE('',#1238);
#1123=PLANE('',#1239);
#1124=PLANE('',#1240);
#1125=PLANE('',#1241);
#1126=PLANE('',#1242);
#1127=PLANE('',#1243);
#1128=PLANE('',#1244);
#1129=PLANE('',#1245);
#1130=PLANE('',#1246);
#1131=PLANE('',#1247);
#1132=PLANE('',#1248);
#1133=PLANE('',#1249);
#1134=PLANE('',#1250);
#1135=PLANE('',#1251);
#1136=PLANE('',#1252);
#1137=PLANE('',#1253);
#1138=PLANE('',#1276);
#1139=PLANE('',#1277);
#1140=PLANE('',#1278);
#1141=PLANE('',#1281);
#1142=PLANE('',#1282);
#1143=PLANE('',#1287);
#1144=PLANE('',#1288);
#1145=PLANE('',#1291);
#1146=PLANE('',#1292);
#1147=PLANE('',#1293);
#1148=PLANE('',#1296);
#1149=PLANE('',#1297);
#1150=PLANE('',#1298);
#1151=PLANE('',#1301);
#1152=PLANE('',#1306);
#1153=PLANE('',#1307);
#1154=PLANE('',#1317);
#1155=PLANE('',#1319);
#1156=PLANE('',#1321);
#1157=PLANE('',#1327);
#1158=PLANE('',#1328);
#1159=PLANE('',#1329);
#1160=PLANE('',#1330);
#1161=PLANE('',#1331);
#1162=PLANE('',#1332);
#1163=ADVANCED_FACE('',(#95),#1121,.F.);
#1164=ADVANCED_FACE('',(#96),#1122,.F.);
#1165=ADVANCED_FACE('',(#97),#1123,.F.);
#1166=ADVANCED_FACE('',(#98),#1124,.F.);
#1167=ADVANCED_FACE('',(#99),#1125,.F.);
#1168=ADVANCED_FACE('',(#100),#1126,.F.);
#1169=ADVANCED_FACE('',(#101),#1127,.F.);
#1170=ADVANCED_FACE('',(#102),#1128,.F.);
#1171=ADVANCED_FACE('',(#103),#1129,.F.);
#1172=ADVANCED_FACE('',(#104),#1130,.F.);
#1173=ADVANCED_FACE('',(#105),#1131,.F.);
#1174=ADVANCED_FACE('',(#106),#1132,.F.);
#1175=ADVANCED_FACE('',(#107),#1133,.F.);
#1176=ADVANCED_FACE('',(#108),#1134,.F.);
#1177=ADVANCED_FACE('',(#109,#69),#1135,.F.);
#1178=ADVANCED_FACE('',(#110),#1136,.T.);
#1179=ADVANCED_FACE('',(#111,#70,#71,#72,#73,#74,#75,#76,#77,#78,#79,#80,
#81,#82),#1137,.T.);
#1180=ADVANCED_FACE('',(#112),#15,.T.);
#1181=ADVANCED_FACE('',(#113),#16,.F.);
#1182=ADVANCED_FACE('',(#114),#1138,.F.);
#1183=ADVANCED_FACE('',(#115),#1139,.F.);
#1184=ADVANCED_FACE('',(#116),#1140,.F.);
#1185=ADVANCED_FACE('',(#117),#17,.F.);
#1186=ADVANCED_FACE('',(#118),#1141,.F.);
#1187=ADVANCED_FACE('',(#119),#1142,.F.);
#1188=ADVANCED_FACE('',(#120),#18,.F.);
#1189=ADVANCED_FACE('',(#121),#19,.F.);
#1190=ADVANCED_FACE('',(#122),#1143,.F.);
#1191=ADVANCED_FACE('',(#123),#1144,.F.);
#1192=ADVANCED_FACE('',(#124),#20,.F.);
#1193=ADVANCED_FACE('',(#125),#1145,.F.);
#1194=ADVANCED_FACE('',(#126),#1146,.F.);
#1195=ADVANCED_FACE('',(#127),#1147,.F.);
#1196=ADVANCED_FACE('',(#128),#21,.F.);
#1197=ADVANCED_FACE('',(#129),#1148,.F.);
#1198=ADVANCED_FACE('',(#130),#1149,.F.);
#1199=ADVANCED_FACE('',(#131),#1150,.F.);
#1200=ADVANCED_FACE('',(#132),#22,.F.);
#1201=ADVANCED_FACE('',(#133),#1151,.F.);
#1202=ADVANCED_FACE('',(#134),#23,.F.);
#1203=ADVANCED_FACE('',(#135),#24,.T.);
#1204=ADVANCED_FACE('',(#136),#1152,.T.);
#1205=ADVANCED_FACE('',(#137,#83,#84,#85,#86,#87,#88,#89,#90,#91,#92,#93,
#94),#1153,.F.);
#1206=ADVANCED_FACE('',(#138),#25,.T.);
#1207=ADVANCED_FACE('',(#139),#1154,.T.);
#1208=ADVANCED_FACE('',(#140),#26,.T.);
#1209=ADVANCED_FACE('',(#141),#1155,.T.);
#1210=ADVANCED_FACE('',(#142),#27,.T.);
#1211=ADVANCED_FACE('',(#143),#1156,.T.);
#1212=ADVANCED_FACE('',(#144),#28,.F.);
#1213=ADVANCED_FACE('',(#145),#29,.F.);
#1214=ADVANCED_FACE('',(#146),#30,.F.);
#1215=ADVANCED_FACE('',(#147),#31,.F.);
#1216=ADVANCED_FACE('',(#148),#32,.F.);
#1217=ADVANCED_FACE('',(#149),#1157,.T.);
#1218=ADVANCED_FACE('',(#150),#1158,.T.);
#1219=ADVANCED_FACE('',(#151),#1159,.T.);
#1220=ADVANCED_FACE('',(#152),#1160,.T.);
#1221=ADVANCED_FACE('',(#153),#1161,.T.);
#1222=ADVANCED_FACE('',(#154),#1162,.T.);
#1223=CLOSED_SHELL('',(#1163,#1164,#1165,#1166,#1167,#1168,#1169,#1170,
#1171,#1172,#1173,#1174,#1175,#1176,#1177,#1178,#1179,#1180,#1181,#1182,
#1183,#1184,#1185,#1186,#1187,#1188,#1189,#1190,#1191,#1192,#1193,#1194,
#1195,#1196,#1197,#1198,#1199,#1200,#1201,#1202,#1203,#1204,#1205,#1206,
#1207,#1208,#1209,#1210,#1211,#1212,#1213,#1214,#1215,#1216,#1217,#1218,
#1219,#1220,#1221,#1222));
#1224=DERIVED_UNIT_ELEMENT(#1226,1.);
#1225=DERIVED_UNIT_ELEMENT(#2005,-3.);
#1226=(
MASS_UNIT()
NAMED_UNIT(*)
SI_UNIT(.KILO.,.GRAM.)
);
#1227=DERIVED_UNIT((#1224,#1225));
#1228=MEASURE_REPRESENTATION_ITEM('density measure',
POSITIVE_RATIO_MEASURE(7850.),#1227);
#1229=PROPERTY_DEFINITION_REPRESENTATION(#1234,#1231);
#1230=PROPERTY_DEFINITION_REPRESENTATION(#1235,#1232);
#1231=REPRESENTATION('material name',(#1233),#2002);
#1232=REPRESENTATION('density',(#1228),#2002);
#1233=DESCRIPTIVE_REPRESENTATION_ITEM('Steel','Steel');
#1234=PROPERTY_DEFINITION('material property','material name',#2012);
#1235=PROPERTY_DEFINITION('material property','density of part',#2012);
#1236=AXIS2_PLACEMENT_3D('',#1659,#1333,#1334);
#1237=AXIS2_PLACEMENT_3D('',#1660,#1335,#1336);
#1238=AXIS2_PLACEMENT_3D('',#1669,#1341,#1342);
#1239=AXIS2_PLACEMENT_3D('',#1675,#1346,#1347);
#1240=AXIS2_PLACEMENT_3D('',#1678,#1350,#1351);
#1241=AXIS2_PLACEMENT_3D('',#1687,#1356,#1357);
#1242=AXIS2_PLACEMENT_3D('',#1693,#1361,#1362);
#1243=AXIS2_PLACEMENT_3D('',#1699,#1366,#1367);
#1244=AXIS2_PLACEMENT_3D('',#1705,#1371,#1372);
#1245=AXIS2_PLACEMENT_3D('',#1711,#1376,#1377);
#1246=AXIS2_PLACEMENT_3D('',#1717,#1381,#1382);
#1247=AXIS2_PLACEMENT_3D('',#1723,#1386,#1387);
#1248=AXIS2_PLACEMENT_3D('',#1729,#1391,#1392);
#1249=AXIS2_PLACEMENT_3D('',#1735,#1396,#1397);
#1250=AXIS2_PLACEMENT_3D('',#1741,#1401,#1402);
#1251=AXIS2_PLACEMENT_3D('',#1744,#1405,#1406);
#1252=AXIS2_PLACEMENT_3D('',#1745,#1407,#1408);
#1253=AXIS2_PLACEMENT_3D('',#1746,#1409,#1410);
#1254=AXIS2_PLACEMENT_3D('',#1751,#1412,#1413);
#1255=AXIS2_PLACEMENT_3D('',#1755,#1415,#1416);
#1256=AXIS2_PLACEMENT_3D('',#1759,#1418,#1419);
#1257=AXIS2_PLACEMENT_3D('',#1769,#1424,#1425);
#1258=AXIS2_PLACEMENT_3D('',#1779,#1430,#1431);
#1259=AXIS2_PLACEMENT_3D('',#1782,#1433,#1434);
#1260=AXIS2_PLACEMENT_3D('',#1784,#1435,#1436);
#1261=AXIS2_PLACEMENT_3D('',#1786,#1437,#1438);
#1262=AXIS2_PLACEMENT_3D('',#1788,#1439,#1440);
#1263=AXIS2_PLACEMENT_3D('',#1790,#1441,#1442);
#1264=AXIS2_PLACEMENT_3D('',#1792,#1443,#1444);
#1265=AXIS2_PLACEMENT_3D('',#1794,#1445,#1446);
#1266=AXIS2_PLACEMENT_3D('',#1801,#1449,#1450);
#1267=AXIS2_PLACEMENT_3D('',#1809,#1454,#1455);
#1268=AXIS2_PLACEMENT_3D('',#1817,#1459,#1460);
#1269=AXIS2_PLACEMENT_3D('',#1820,#1462,#1463);
#1270=AXIS2_PLACEMENT_3D('',#1828,#1467,#1468);
#1271=AXIS2_PLACEMENT_3D('',#1830,#1469,#1470);
#1272=AXIS2_PLACEMENT_3D('',#1831,#1471,#1472);
#1273=AXIS2_PLACEMENT_3D('',#1836,#1475,#1476);
#1274=AXIS2_PLACEMENT_3D('',#1837,#1477,#1478);
#1275=AXIS2_PLACEMENT_3D('',#1839,#1479,#1480);
#1276=AXIS2_PLACEMENT_3D('',#1841,#1482,#1483);
#1277=AXIS2_PLACEMENT_3D('',#1847,#1487,#1488);
#1278=AXIS2_PLACEMENT_3D('',#1851,#1491,#1492);
#1279=AXIS2_PLACEMENT_3D('',#1855,#1495,#1496);
#1280=AXIS2_PLACEMENT_3D('',#1856,#1497,#1498);
#1281=AXIS2_PLACEMENT_3D('',#1857,#1499,#1500);
#1282=AXIS2_PLACEMENT_3D('',#1863,#1504,#1505);
#1283=AXIS2_PLACEMENT_3D('',#1867,#1508,#1509);
#1284=AXIS2_PLACEMENT_3D('',#1868,#1510,#1511);
#1285=AXIS2_PLACEMENT_3D('',#1869,#1512,#1513);
#1286=AXIS2_PLACEMENT_3D('',#1871,#1514,#1515);
#1287=AXIS2_PLACEMENT_3D('',#1873,#1517,#1518);
#1288=AXIS2_PLACEMENT_3D('',#1879,#1522,#1523);
#1289=AXIS2_PLACEMENT_3D('',#1883,#1526,#1527);
#1290=AXIS2_PLACEMENT_3D('',#1885,#1528,#1529);
#1291=AXIS2_PLACEMENT_3D('',#1887,#1531,#1532);
#1292=AXIS2_PLACEMENT_3D('',#1889,#1534,#1535);
#1293=AXIS2_PLACEMENT_3D('',#1895,#1539,#1540);
#1294=AXIS2_PLACEMENT_3D('',#1899,#1543,#1544);
#1295=AXIS2_PLACEMENT_3D('',#1901,#1545,#1546);
#1296=AXIS2_PLACEMENT_3D('',#1903,#1548,#1549);
#1297=AXIS2_PLACEMENT_3D('',#1905,#1551,#1552);
#1298=AXIS2_PLACEMENT_3D('',#1911,#1556,#1557);
#1299=AXIS2_PLACEMENT_3D('',#1915,#1560,#1561);
#1300=AXIS2_PLACEMENT_3D('',#1917,#1562,#1563);
#1301=AXIS2_PLACEMENT_3D('',#1919,#1565,#1566);
#1302=AXIS2_PLACEMENT_3D('',#1921,#1568,#1569);
#1303=AXIS2_PLACEMENT_3D('',#1923,#1570,#1571);
#1304=AXIS2_PLACEMENT_3D('',#1925,#1573,#1574);
#1305=AXIS2_PLACEMENT_3D('',#1927,#1575,#1576);
#1306=AXIS2_PLACEMENT_3D('',#1929,#1578,#1579);
#1307=AXIS2_PLACEMENT_3D('',#1933,#1582,#1583);
#1308=AXIS2_PLACEMENT_3D('',#1943,#1588,#1589);
#1309=AXIS2_PLACEMENT_3D('',#1953,#1594,#1595);
#1310=AXIS2_PLACEMENT_3D('',#1956,#1597,#1598);
#1311=AXIS2_PLACEMENT_3D('',#1958,#1599,#1600);
#1312=AXIS2_PLACEMENT_3D('',#1960,#1601,#1602);
#1313=AXIS2_PLACEMENT_3D('',#1962,#1603,#1604);
#1314=AXIS2_PLACEMENT_3D('',#1964,#1605,#1606);
#1315=AXIS2_PLACEMENT_3D('',#1966,#1607,#1608);
#1316=AXIS2_PLACEMENT_3D('',#1967,#1609,#1610);
#1317=AXIS2_PLACEMENT_3D('',#1969,#1612,#1613);
#1318=AXIS2_PLACEMENT_3D('',#1971,#1615,#1616);
#1319=AXIS2_PLACEMENT_3D('',#1973,#1618,#1619);
#1320=AXIS2_PLACEMENT_3D('',#1975,#1621,#1622);
#1321=AXIS2_PLACEMENT_3D('',#1978,#1625,#1626);
#1322=AXIS2_PLACEMENT_3D('',#1980,#1628,#1629);
#1323=AXIS2_PLACEMENT_3D('',#1982,#1631,#1632);
#1324=AXIS2_PLACEMENT_3D('',#1984,#1634,#1635);
#1325=AXIS2_PLACEMENT_3D('',#1986,#1637,#1638);
#1326=AXIS2_PLACEMENT_3D('',#1988,#1640,#1641);
#1327=AXIS2_PLACEMENT_3D('',#1990,#1643,#1644);
#1328=AXIS2_PLACEMENT_3D('',#1992,#1646,#1647);
#1329=AXIS2_PLACEMENT_3D('',#1994,#1649,#1650);
#1330=AXIS2_PLACEMENT_3D('',#1996,#1652,#1653);
#1331=AXIS2_PLACEMENT_3D('',#1997,#1654,#1655);
#1332=AXIS2_PLACEMENT_3D('',#1999,#1657,#1658);
#1333=DIRECTION('axis',(0.,0.,1.));
#1334=DIRECTION('refdir',(1.,0.,0.));
#1335=DIRECTION('center_axis',(0.821386153275807,-0.570372498641697,0.));
#1336=DIRECTION('ref_axis',(-0.570372498641696,-0.821386153275807,0.));
#1337=DIRECTION('',(-0.570372498641696,-0.821386153275807,0.));
#1338=DIRECTION('',(0.,0.,-1.));
#1339=DIRECTION('',(-0.570372498641696,-0.821386153275807,0.));
#1340=DIRECTION('',(0.,0.,-1.));
#1341=DIRECTION('center_axis',(-1.,0.,0.));
#1342=DIRECTION('ref_axis',(0.,1.,0.));
#1343=DIRECTION('',(0.,1.,0.));
#1344=DIRECTION('',(0.,0.,-1.));
#1345=DIRECTION('',(0.,1.,0.));
#1346=DIRECTION('center_axis',(0.,1.,0.));
#1347=DIRECTION('ref_axis',(1.,0.,0.));
#1348=DIRECTION('',(1.,0.,0.));
#1349=DIRECTION('',(1.,0.,0.));
#1350=DIRECTION('center_axis',(1.,0.,0.));
#1351=DIRECTION('ref_axis',(0.,-1.,0.));
#1352=DIRECTION('',(0.,-1.,0.));
#1353=DIRECTION('',(0.,0.,-1.));
#1354=DIRECTION('',(0.,-1.,0.));
#1355=DIRECTION('',(0.,0.,-1.));
#1356=DIRECTION('center_axis',(0.,-1.,0.));
#1357=DIRECTION('ref_axis',(-1.,0.,0.));
#1358=DIRECTION('',(-1.,0.,0.));
#1359=DIRECTION('',(0.,0.,-1.));
#1360=DIRECTION('',(-1.,0.,0.));
#1361=DIRECTION('center_axis',(1.,0.,0.));
#1362=DIRECTION('ref_axis',(0.,-1.,0.));
#1363=DIRECTION('',(0.,-1.,0.));
#1364=DIRECTION('',(0.,0.,-1.));
#1365=DIRECTION('',(0.,-1.,0.));
#1366=DIRECTION('center_axis',(0.,1.,0.));
#1367=DIRECTION('ref_axis',(1.,0.,0.));
#1368=DIRECTION('',(1.,0.,0.));
#1369=DIRECTION('',(0.,0.,-1.));
#1370=DIRECTION('',(1.,0.,0.));
#1371=DIRECTION('center_axis',(1.,0.,0.));
#1372=DIRECTION('ref_axis',(0.,-1.,0.));
#1373=DIRECTION('',(0.,-1.,0.));
#1374=DIRECTION('',(0.,0.,-1.));
#1375=DIRECTION('',(0.,-1.,0.));
#1376=DIRECTION('center_axis',(0.,1.,0.));
#1377=DIRECTION('ref_axis',(1.,0.,0.));
#1378=DIRECTION('',(1.,0.,0.));
#1379=DIRECTION('',(0.,0.,-1.));
#1380=DIRECTION('',(1.,0.,0.));
#1381=DIRECTION('center_axis',(-0.817611368222283,0.575770484267548,0.));
#1382=DIRECTION('ref_axis',(0.575770484267548,0.817611368222283,0.));
#1383=DIRECTION('',(0.575770484267548,0.817611368222283,0.));
#1384=DIRECTION('',(0.,0.,-1.));
#1385=DIRECTION('',(0.575770484267548,0.817611368222283,0.));
#1386=DIRECTION('center_axis',(-1.,0.,0.));
#1387=DIRECTION('ref_axis',(0.,1.,0.));
#1388=DIRECTION('',(0.,1.,0.));
#1389=DIRECTION('',(0.,0.,-1.));
#1390=DIRECTION('',(0.,1.,0.));
#1391=DIRECTION('center_axis',(0.,-1.,0.));
#1392=DIRECTION('ref_axis',(-1.,0.,0.));
#1393=DIRECTION('',(-1.,0.,0.));
#1394=DIRECTION('',(0.,0.,-1.));
#1395=DIRECTION('',(-1.,0.,0.));
#1396=DIRECTION('center_axis',(-1.,0.,0.));
#1397=DIRECTION('ref_axis',(0.,1.,0.));
#1398=DIRECTION('',(0.,1.,0.));
#1399=DIRECTION('',(0.,0.,-1.));
#1400=DIRECTION('',(0.,1.,0.));
#1401=DIRECTION('center_axis',(0.,-1.,0.));
#1402=DIRECTION('ref_axis',(-1.,0.,0.));
#1403=DIRECTION('',(-1.,0.,0.));
#1404=DIRECTION('',(-1.,0.,0.));
#1405=DIRECTION('center_axis',(0.,0.,-1.));
#1406=DIRECTION('ref_axis',(-1.,0.,0.));
#1407=DIRECTION('center_axis',(0.,0.,1.));
#1408=DIRECTION('ref_axis',(1.,0.,0.));
#1409=DIRECTION('center_axis',(0.,0.,1.));
#1410=DIRECTION('ref_axis',(1.,0.,0.));
#1411=DIRECTION('',(0.342102602058553,-0.939662604164264,0.));
#1412=DIRECTION('center_axis',(0.,0.,-1.));
#1413=DIRECTION('ref_axis',(0.707106781186548,-0.707106781186547,0.));
#1414=DIRECTION('',(0.,1.,0.));
#1415=DIRECTION('center_axis',(0.,0.,-1.));
#1416=DIRECTION('ref_axis',(0.707106781186548,0.707106781186548,0.));
#1417=DIRECTION('',(-1.,0.,0.));
#1418=DIRECTION('center_axis',(0.,0.,-1.));
#1419=DIRECTION('ref_axis',(-0.707106781186548,0.707106781186548,0.));
#1420=DIRECTION('',(0.,-1.,0.));
#1421=DIRECTION('',(0.832050341388611,-0.554700125649072,0.));
#1422=DIRECTION('',(-0.832050341388611,-0.554700125649072,0.));
#1423=DIRECTION('',(0.,-1.,0.));
#1424=DIRECTION('center_axis',(0.,0.,-1.));
#1425=DIRECTION('ref_axis',(-0.707106781186547,-0.707106781186548,0.));
#1426=DIRECTION('',(1.,0.,0.));
#1427=DIRECTION('',(0.554700196225229,0.832050294337844,0.));
#1428=DIRECTION('',(0.554700196225229,-0.832050294337844,0.));
#1429=DIRECTION('',(1.,0.,0.));
#1430=DIRECTION('center_axis',(0.,0.,-1.));
#1431=DIRECTION('ref_axis',(0.707106781186548,-0.707106781186547,0.));
#1432=DIRECTION('',(-0.34210260205859,0.939662604164251,0.));
#1433=DIRECTION('center_axis',(0.,0.,-1.));
#1434=DIRECTION('ref_axis',(1.,0.,0.));
#1435=DIRECTION('center_axis',(0.,0.,-1.));
#1436=DIRECTION('ref_axis',(1.,0.,0.));
#1437=DIRECTION('center_axis',(0.,0.,-1.));
#1438=DIRECTION('ref_axis',(1.,0.,0.));
#1439=DIRECTION('center_axis',(0.,0.,-1.));
#1440=DIRECTION('ref_axis',(1.,0.,0.));
#1441=DIRECTION('center_axis',(0.,0.,-1.));
#1442=DIRECTION('ref_axis',(1.,0.,0.));
#1443=DIRECTION('center_axis',(0.,0.,-1.));
#1444=DIRECTION('ref_axis',(1.,0.,0.));
#1445=DIRECTION('center_axis',(0.,0.,-1.));
#1446=DIRECTION('ref_axis',(1.,0.,0.));
#1447=DIRECTION('',(-0.342102602061442,0.939662604163213,0.));
#1448=DIRECTION('',(0.939662604163944,0.342102602059433,0.));
#1449=DIRECTION('center_axis',(0.,0.,-1.));
#1450=DIRECTION('ref_axis',(1.,0.,0.));
#1451=DIRECTION('',(-0.939662604163983,-0.342102602059327,0.));
#1452=DIRECTION('',(0.445394557956803,-0.895334399954823,0.));
#1453=DIRECTION('',(-0.895334399954824,-0.445394557956803,0.));
#1454=DIRECTION('center_axis',(0.,0.,-1.));
#1455=DIRECTION('ref_axis',(1.,0.,0.));
#1456=DIRECTION('',(0.895334399954824,0.445394557956803,0.));
#1457=DIRECTION('',(0.136702059853057,-0.990612208097564,0.));
#1458=DIRECTION('',(-0.990612208097564,-0.136702059853057,0.));
#1459=DIRECTION('center_axis',(0.,0.,-1.));
#1460=DIRECTION('ref_axis',(1.,0.,0.));
#1461=DIRECTION('',(0.990612208097564,0.136702059853057,0.));
#1462=DIRECTION('center_axis',(0.,0.,-1.));
#1463=DIRECTION('ref_axis',(1.,0.,0.));
#1464=DIRECTION('',(-0.440073050983984,0.897961975696994,0.));
#1465=DIRECTION('',(0.897961975696994,0.440073050983984,0.));
#1466=DIRECTION('',(0.440073050983984,-0.897961975696993,0.));
#1467=DIRECTION('center_axis',(0.,0.,-1.));
#1468=DIRECTION('ref_axis',(1.,0.,0.));
#1469=DIRECTION('center_axis',(0.,0.,-1.));
#1470=DIRECTION('ref_axis',(1.,0.,0.));
#1471=DIRECTION('center_axis',(0.,0.,1.));
#1472=DIRECTION('ref_axis',(0.707106781186548,-0.707106781186547,0.));
#1473=DIRECTION('',(0.,0.,1.));
#1474=DIRECTION('',(0.,0.,-1.));
#1475=DIRECTION('center_axis',(0.,0.,1.));
#1476=DIRECTION('ref_axis',(0.707106781186548,-0.707106781186547,0.));
#1477=DIRECTION('center_axis',(0.,0.,1.));
#1478=DIRECTION('ref_axis',(1.,0.,0.));
#1479=DIRECTION('center_axis',(0.,0.,1.));
#1480=DIRECTION('ref_axis',(1.,0.,0.));
#1481=DIRECTION('',(0.,0.,1.));
#1482=DIRECTION('center_axis',(-0.897961975696994,-0.440073050983984,0.));
#1483=DIRECTION('ref_axis',(0.440073050983984,-0.897961975696994,0.));
#1484=DIRECTION('',(-0.440073050983984,0.897961975696994,0.));
#1485=DIRECTION('',(0.,0.,-1.));
#1486=DIRECTION('',(0.,0.,1.));
#1487=DIRECTION('center_axis',(-0.440073050983984,0.897961975696994,0.));
#1488=DIRECTION('ref_axis',(-0.897961975696994,-0.440073050983984,0.));
#1489=DIRECTION('',(-0.897961975696994,-0.440073050983984,0.));
#1490=DIRECTION('',(0.,0.,1.));
#1491=DIRECTION('center_axis',(0.897961975696993,0.440073050983984,0.));
#1492=DIRECTION('ref_axis',(-0.440073050983984,0.897961975696993,0.));
#1493=DIRECTION('',(0.440073050983984,-0.897961975696993,0.));
#1494=DIRECTION('',(0.,0.,1.));
#1495=DIRECTION('center_axis',(0.,0.,1.));
#1496=DIRECTION('ref_axis',(1.,0.,0.));
#1497=DIRECTION('center_axis',(0.,0.,-1.));
#1498=DIRECTION('ref_axis',(1.,0.,0.));
#1499=DIRECTION('center_axis',(0.939662604164265,0.342102602058553,0.));
#1500=DIRECTION('ref_axis',(-0.342102602058553,0.939662604164264,0.));
#1501=DIRECTION('',(0.342102602058553,-0.939662604164264,0.));
#1502=DIRECTION('',(0.,0.,-1.));
#1503=DIRECTION('',(0.,0.,1.));
#1504=DIRECTION('center_axis',(-0.939662604164251,-0.34210260205859,0.));
#1505=DIRECTION('ref_axis',(0.34210260205859,-0.939662604164251,0.));
#1506=DIRECTION('',(-0.34210260205859,0.939662604164251,0.));
#1507=DIRECTION('',(0.,0.,1.));
#1508=DIRECTION('center_axis',(0.,0.,1.));
#1509=DIRECTION('ref_axis',(-0.342102602058827,0.939662604164165,0.));
#1510=DIRECTION('center_axis',(0.,0.,-1.));
#1511=DIRECTION('ref_axis',(1.,0.,0.));
#1512=DIRECTION('center_axis',(0.,0.,1.));
#1513=DIRECTION('ref_axis',(1.,0.,0.));
#1514=DIRECTION('center_axis',(0.,0.,1.));
#1515=DIRECTION('ref_axis',(1.,0.,0.));
#1516=DIRECTION('',(0.,0.,1.));
#1517=DIRECTION('center_axis',(0.990612208097564,0.136702059853057,0.));
#1518=DIRECTION('ref_axis',(-0.136702059853057,0.990612208097564,0.));
#1519=DIRECTION('',(-0.136702059853057,0.990612208097564,0.));
#1520=DIRECTION('',(0.,0.,1.));
#1521=DIRECTION('',(0.,0.,-1.));
#1522=DIRECTION('center_axis',(0.136702059853057,-0.990612208097564,0.));
#1523=DIRECTION('ref_axis',(0.990612208097564,0.136702059853057,0.));
#1524=DIRECTION('',(-0.990612208097564,-0.136702059853057,0.));
#1525=DIRECTION('',(0.,0.,1.));
#1526=DIRECTION('center_axis',(0.,0.,1.));
#1527=DIRECTION('ref_axis',(-0.990612208097564,-0.136702059853058,0.));
#1528=DIRECTION('center_axis',(0.,0.,-1.));
#1529=DIRECTION('ref_axis',(1.,0.,0.));
#1530=DIRECTION('',(0.,0.,1.));
#1531=DIRECTION('center_axis',(-0.136702059853057,0.990612208097564,0.));
#1532=DIRECTION('ref_axis',(-0.990612208097564,-0.136702059853057,0.));
#1533=DIRECTION('',(0.990612208097564,0.136702059853057,0.));
#1534=DIRECTION('center_axis',(0.895334399954824,0.445394557956803,0.));
#1535=DIRECTION('ref_axis',(-0.445394557956803,0.895334399954823,0.));
#1536=DIRECTION('',(-0.445394557956803,0.895334399954823,0.));
#1537=DIRECTION('',(0.,0.,1.));
#1538=DIRECTION('',(0.,0.,-1.));
#1539=DIRECTION('center_axis',(0.445394557956803,-0.895334399954824,0.));
#1540=DIRECTION('ref_axis',(0.895334399954824,0.445394557956803,0.));
#1541=DIRECTION('',(-0.895334399954824,-0.445394557956803,0.));
#1542=DIRECTION('',(0.,0.,1.));
#1543=DIRECTION('center_axis',(0.,0.,1.));
#1544=DIRECTION('ref_axis',(-0.895334399954823,-0.445394557956804,0.));
#1545=DIRECTION('center_axis',(0.,0.,-1.));
#1546=DIRECTION('ref_axis',(1.,0.,0.));
#1547=DIRECTION('',(0.,0.,1.));
#1548=DIRECTION('center_axis',(-0.445394557956803,0.895334399954824,0.));
#1549=DIRECTION('ref_axis',(-0.895334399954824,-0.445394557956803,0.));
#1550=DIRECTION('',(0.895334399954824,0.445394557956803,0.));
#1551=DIRECTION('center_axis',(-0.939662604163213,-0.342102602061442,0.));
#1552=DIRECTION('ref_axis',(0.342102602061442,-0.939662604163213,0.));
#1553=DIRECTION('',(0.342102602061442,-0.939662604163213,0.));
#1554=DIRECTION('',(0.,0.,1.));
#1555=DIRECTION('',(0.,0.,-1.));
#1556=DIRECTION('center_axis',(-0.342102602059434,0.939662604163944,0.));
#1557=DIRECTION('ref_axis',(-0.939662604163944,-0.342102602059433,0.));
#1558=DIRECTION('',(0.939662604163944,0.342102602059433,0.));
#1559=DIRECTION('',(0.,0.,1.));
#1560=DIRECTION('center_axis',(0.,0.,1.));
#1561=DIRECTION('ref_axis',(1.,0.,0.));
#1562=DIRECTION('center_axis',(0.,0.,-1.));
#1563=DIRECTION('ref_axis',(1.,0.,0.));
#1564=DIRECTION('',(0.,0.,1.));
#1565=DIRECTION('center_axis',(0.342102602059327,-0.939662604163983,0.));
#1566=DIRECTION('ref_axis',(0.939662604163983,0.342102602059327,0.));
#1567=DIRECTION('',(-0.939662604163983,-0.342102602059327,0.));
#1568=DIRECTION('center_axis',(0.,0.,1.));
#1569=DIRECTION('ref_axis',(1.,0.,0.));
#1570=DIRECTION('center_axis',(0.,0.,1.));
#1571=DIRECTION('ref_axis',(1.,0.,0.));
#1572=DIRECTION('',(0.,0.,1.));
#1573=DIRECTION('center_axis',(0.,0.,1.));
#1574=DIRECTION('ref_axis',(0.707106781186548,-0.707106781186547,0.));
#1575=DIRECTION('center_axis',(0.,0.,1.));
#1576=DIRECTION('ref_axis',(0.707106781186548,-0.707106781186547,0.));
#1577=DIRECTION('',(0.,0.,1.));
#1578=DIRECTION('center_axis',(1.,0.,0.));
#1579=DIRECTION('ref_axis',(0.,1.,0.));
#1580=DIRECTION('',(0.,-1.,0.));
#1581=DIRECTION('',(0.,0.,-1.));
#1582=DIRECTION('center_axis',(0.,0.,1.));
#1583=DIRECTION('ref_axis',(1.,0.,0.));
#1584=DIRECTION('',(-1.,0.,0.));
#1585=DIRECTION('',(-0.554700196225229,0.832050294337844,0.));
#1586=DIRECTION('',(0.554700196225229,0.832050294337844,0.));
#1587=DIRECTION('',(-1.,0.,0.));
#1588=DIRECTION('center_axis',(0.,0.,1.));
#1589=DIRECTION('ref_axis',(-0.707106781186547,-0.707106781186548,0.));
#1590=DIRECTION('',(0.,1.,0.));
#1591=DIRECTION('',(-0.832050341388611,-0.554700125649072,0.));
#1592=DIRECTION('',(-0.832050341388611,0.554700125649072,0.));
#1593=DIRECTION('',(0.,1.,0.));
#1594=DIRECTION('center_axis',(0.,0.,1.));
#1595=DIRECTION('ref_axis',(-0.707106781186548,0.707106781186548,0.));
#1596=DIRECTION('',(1.,0.,0.));
#1597=DIRECTION('center_axis',(0.,0.,1.));
#1598=DIRECTION('ref_axis',(0.707106781186548,0.707106781186548,0.));
#1599=DIRECTION('center_axis',(0.,0.,-1.));
#1600=DIRECTION('ref_axis',(1.,0.,0.));
#1601=DIRECTION('center_axis',(0.,0.,-1.));
#1602=DIRECTION('ref_axis',(1.,0.,0.));
#1603=DIRECTION('center_axis',(0.,0.,-1.));
#1604=DIRECTION('ref_axis',(1.,0.,0.));
#1605=DIRECTION('center_axis',(0.,0.,-1.));
#1606=DIRECTION('ref_axis',(1.,0.,0.));
#1607=DIRECTION('center_axis',(0.,0.,-1.));
#1608=DIRECTION('ref_axis',(1.,0.,0.));
#1609=DIRECTION('center_axis',(0.,0.,1.));
#1610=DIRECTION('ref_axis',(0.707106781186548,0.707106781186548,0.));
#1611=DIRECTION('',(0.,0.,1.));
#1612=DIRECTION('center_axis',(0.,1.,0.));
#1613=DIRECTION('ref_axis',(-1.,0.,0.));
#1614=DIRECTION('',(0.,0.,-1.));
#1615=DIRECTION('center_axis',(0.,0.,1.));
#1616=DIRECTION('ref_axis',(-0.707106781186548,0.707106781186548,0.));
#1617=DIRECTION('',(0.,0.,1.));
#1618=DIRECTION('center_axis',(-1.,0.,0.));
#1619=DIRECTION('ref_axis',(0.,-1.,0.));
#1620=DIRECTION('',(0.,0.,1.));
#1621=DIRECTION('center_axis',(0.,0.,1.));
#1622=DIRECTION('ref_axis',(-0.707106781186547,-0.707106781186548,0.));
#1623=DIRECTION('',(0.,0.,-1.));
#1624=DIRECTION('',(0.,0.,1.));
#1625=DIRECTION('center_axis',(-1.,0.,0.));
#1626=DIRECTION('ref_axis',(0.,-1.,0.));
#1627=DIRECTION('',(0.,0.,1.));
#1628=DIRECTION('center_axis',(0.,0.,1.));
#1629=DIRECTION('ref_axis',(1.,0.,0.));
#1630=DIRECTION('',(0.,0.,-1.));
#1631=DIRECTION('center_axis',(0.,0.,1.));
#1632=DIRECTION('ref_axis',(1.,0.,0.));
#1633=DIRECTION('',(0.,0.,-1.));
#1634=DIRECTION('center_axis',(0.,0.,1.));
#1635=DIRECTION('ref_axis',(1.,0.,0.));
#1636=DIRECTION('',(0.,0.,-1.));
#1637=DIRECTION('center_axis',(0.,0.,1.));
#1638=DIRECTION('ref_axis',(1.,0.,0.));
#1639=DIRECTION('',(0.,0.,-1.));
#1640=DIRECTION('center_axis',(0.,0.,1.));
#1641=DIRECTION('ref_axis',(1.,0.,0.));
#1642=DIRECTION('',(0.,0.,-1.));
#1643=DIRECTION('center_axis',(0.,-1.,0.));
#1644=DIRECTION('ref_axis',(1.,0.,0.));
#1645=DIRECTION('',(0.,0.,1.));
#1646=DIRECTION('center_axis',(-0.832050294337843,-0.554700196225229,0.));
#1647=DIRECTION('ref_axis',(0.554700196225229,-0.832050294337844,0.));
#1648=DIRECTION('',(0.,0.,1.));
#1649=DIRECTION('center_axis',(0.832050294337843,-0.554700196225229,0.));
#1650=DIRECTION('ref_axis',(0.554700196225229,0.832050294337844,0.));
#1651=DIRECTION('',(0.,0.,1.));
#1652=DIRECTION('center_axis',(0.,-1.,0.));
#1653=DIRECTION('ref_axis',(1.,0.,0.));
#1654=DIRECTION('center_axis',(-0.554700125649072,0.832050341388611,0.));
#1655=DIRECTION('ref_axis',(-0.832050341388611,-0.554700125649072,0.));
#1656=DIRECTION('',(0.,0.,1.));
#1657=DIRECTION('center_axis',(-0.554700125649072,-0.832050341388611,0.));
#1658=DIRECTION('ref_axis',(0.832050341388611,-0.554700125649072,0.));
#1659=CARTESIAN_POINT('',(0.,0.,0.));
#1660=CARTESIAN_POINT('Origin',(-13.5646654479206,-15.0885399244726,3.));
#1661=CARTESIAN_POINT('',(-13.5646654479206,-15.0885399244726,3.));
#1662=CARTESIAN_POINT('',(-14.8170528747141,-16.8920870684087,3.));
#1663=CARTESIAN_POINT('',(-7.82374367407757,-6.82111177303839,3.));
#1664=CARTESIAN_POINT('',(-13.5646654479206,-15.0885399244726,2.));
#1665=CARTESIAN_POINT('',(-13.5646654479206,-15.0885399244726,3.));
#1666=CARTESIAN_POINT('',(-14.8170528747141,-16.8920870684087,2.));
#1667=CARTESIAN_POINT('',(-13.5646654479206,-15.0885399244726,2.));
#1668=CARTESIAN_POINT('',(-14.8170528747141,-16.8920870684087,3.));
#1669=CARTESIAN_POINT('Origin',(-13.5646654479206,-16.8920870684087,3.));
#1670=CARTESIAN_POINT('',(-13.5646654479206,-16.8920870684087,3.));
#1671=CARTESIAN_POINT('',(-13.5646654479206,-8.44604353420436,3.));
#1672=CARTESIAN_POINT('',(-13.5646654479206,-16.8920870684087,2.));
#1673=CARTESIAN_POINT('',(-13.5646654479206,-16.8920870684087,3.));
#1674=CARTESIAN_POINT('',(-13.5646654479206,-16.8920870684087,2.));
#1675=CARTESIAN_POINT('Origin',(-14.8170528747141,-16.8920870684087,3.));
#1676=CARTESIAN_POINT('',(-7.40852651186287,-16.8920870684087,3.));
#1677=CARTESIAN_POINT('',(-14.8170528747141,-16.8920870684087,2.));
#1678=CARTESIAN_POINT('Origin',(-13.0735331587493,-17.3422916792333,3.));
#1679=CARTESIAN_POINT('',(-13.0735331587493,-17.3422916792333,3.));
#1680=CARTESIAN_POINT('',(-13.0735331587493,-18.2999997399747,3.));
#1681=CARTESIAN_POINT('',(-13.0735331587493,-8.67114583961666,3.));
#1682=CARTESIAN_POINT('',(-13.0735331587493,-17.3422916792333,2.));
#1683=CARTESIAN_POINT('',(-13.0735331587493,-17.3422916792333,3.));
#1684=CARTESIAN_POINT('',(-13.0735331587493,-18.2999997399747,2.));
#1685=CARTESIAN_POINT('',(-13.0735331587493,-17.3422916792333,2.));
#1686=CARTESIAN_POINT('',(-13.0735331587493,-18.2999997399747,3.));
#1687=CARTESIAN_POINT('Origin',(-12.5332875363529,-17.3422916792333,3.));
#1688=CARTESIAN_POINT('',(-12.5332875363529,-17.3422916792333,3.));
#1689=CARTESIAN_POINT('',(-6.26664384268224,-17.3422916792333,3.));
#1690=CARTESIAN_POINT('',(-12.5332875363529,-17.3422916792333,2.));
#1691=CARTESIAN_POINT('',(-12.5332875363529,-17.3422916792333,3.));
#1692=CARTESIAN_POINT('',(-12.5332875363529,-17.3422916792333,2.));
#1693=CARTESIAN_POINT('Origin',(-12.5332875363529,-16.8920870684087,3.));
#1694=CARTESIAN_POINT('',(-12.5332875363529,-16.8920870684087,3.));
#1695=CARTESIAN_POINT('',(-12.5332875363529,-8.44604353420436,3.));
#1696=CARTESIAN_POINT('',(-12.5332875363529,-16.8920870684087,2.));
#1697=CARTESIAN_POINT('',(-12.5332875363529,-16.8920870684087,3.));
#1698=CARTESIAN_POINT('',(-12.5332875363529,-16.8920870684087,2.));
#1699=CARTESIAN_POINT('Origin',(-13.0735331587493,-16.8920870684087,3.));
#1700=CARTESIAN_POINT('',(-13.0735331587493,-16.8920870684087,3.));
#1701=CARTESIAN_POINT('',(-6.53676665388048,-16.8920870684087,3.));
#1702=CARTESIAN_POINT('',(-13.0735331587493,-16.8920870684087,2.));
#1703=CARTESIAN_POINT('',(-13.0735331587493,-16.8920870684087,3.));
#1704=CARTESIAN_POINT('',(-13.0735331587493,-16.8920870684087,2.));
#1705=CARTESIAN_POINT('Origin',(-13.0735331587493,-14.2999996803701,3.));
#1706=CARTESIAN_POINT('',(-13.0735331587493,-14.2999996803701,3.));
#1707=CARTESIAN_POINT('',(-13.0735331587493,-7.14999984018505,3.));
#1708=CARTESIAN_POINT('',(-13.0735331587493,-14.2999996803701,2.));
#1709=CARTESIAN_POINT('',(-13.0735331587493,-14.2999996803701,3.));
#1710=CARTESIAN_POINT('',(-13.0735331587493,-14.2999996803701,2.));
#1711=CARTESIAN_POINT('Origin',(-13.4746245853603,-14.2999996803701,3.));
#1712=CARTESIAN_POINT('',(-13.4746245853603,-14.2999996803701,3.));
#1713=CARTESIAN_POINT('',(-6.73731236718595,-14.2999996803701,3.));
#1714=CARTESIAN_POINT('',(-13.4746245853603,-14.2999996803701,2.));
#1715=CARTESIAN_POINT('',(-13.4746245853603,-14.2999996803701,3.));
#1716=CARTESIAN_POINT('',(-13.4746245853603,-14.2999996803701,2.));
#1717=CARTESIAN_POINT('Origin',(-15.2999996580184,-16.8920870684087,3.));
#1718=CARTESIAN_POINT('',(-15.2999996580184,-16.8920870684087,3.));
#1719=CARTESIAN_POINT('',(-8.78790577519918,-7.6447183077523,3.));
#1720=CARTESIAN_POINT('',(-15.2999996580184,-16.8920870684087,2.));
#1721=CARTESIAN_POINT('',(-15.2999996580184,-16.8920870684087,3.));
#1722=CARTESIAN_POINT('',(-15.2999996580184,-16.8920870684087,2.));
#1723=CARTESIAN_POINT('Origin',(-15.2999996580184,-17.3422916792333,3.));
#1724=CARTESIAN_POINT('',(-15.2999996580184,-17.3422916792333,3.));
#1725=CARTESIAN_POINT('',(-15.2999996580184,-8.67114583961666,3.));
#1726=CARTESIAN_POINT('',(-15.2999996580184,-17.3422916792333,2.));
#1727=CARTESIAN_POINT('',(-15.2999996580184,-17.3422916792333,3.));
#1728=CARTESIAN_POINT('',(-15.2999996580184,-17.3422916792333,2.));
#1729=CARTESIAN_POINT('Origin',(-13.5646654479206,-17.3422916792333,3.));
#1730=CARTESIAN_POINT('',(-13.5646654479206,-17.3422916792333,3.));
#1731=CARTESIAN_POINT('',(-6.78233279846609,-17.3422916792333,3.));
#1732=CARTESIAN_POINT('',(-13.5646654479206,-17.3422916792333,2.));
#1733=CARTESIAN_POINT('',(-13.5646654479206,-17.3422916792333,3.));
#1734=CARTESIAN_POINT('',(-13.5646654479206,-17.3422916792333,2.));
#1735=CARTESIAN_POINT('Origin',(-13.5646654479206,-18.2999997399747,3.));
#1736=CARTESIAN_POINT('',(-13.5646654479206,-18.2999997399747,3.));
#1737=CARTESIAN_POINT('',(-13.5646654479206,-9.14999986998737,3.));
#1738=CARTESIAN_POINT('',(-13.5646654479206,-18.2999997399747,2.));
#1739=CARTESIAN_POINT('',(-13.5646654479206,-18.2999997399747,3.));
#1740=CARTESIAN_POINT('',(-13.5646654479206,-18.2999997399747,2.));
#1741=CARTESIAN_POINT('Origin',(-13.0735331587493,-18.2999997399747,3.));
#1742=CARTESIAN_POINT('',(-6.53676665388048,-18.2999997399747,3.));
#1743=CARTESIAN_POINT('',(-13.0735331587493,-18.2999997399747,2.));
#1744=CARTESIAN_POINT('Origin',(-13.9166435971856,-16.2999997101724,2.));
#1745=CARTESIAN_POINT('Origin',(-1.49011611938477E-7,0.,3.));
#1746=CARTESIAN_POINT('Origin',(-1.49011611938477E-7,0.,3.));
#1747=CARTESIAN_POINT('',(12.9732914687446,0.718415464322916,3.));
#1748=CARTESIAN_POINT('',(19.0082640240806,-15.8580092494417,3.));
#1749=CARTESIAN_POINT('',(14.3822190255327,-3.15152451603247,3.));
#1750=CARTESIAN_POINT('',(20.,-12.,3.));
#1751=CARTESIAN_POINT('Origin',(12.,-12.,3.));
#1752=CARTESIAN_POINT('',(20.,12.,3.));
#1753=CARTESIAN_POINT('',(20.,20.,3.));
#1754=CARTESIAN_POINT('',(12.,20.,3.));
#1755=CARTESIAN_POINT('Origin',(12.,12.,3.));
#1756=CARTESIAN_POINT('',(-12.,20.,3.));
#1757=CARTESIAN_POINT('',(-20.,20.,3.));
#1758=CARTESIAN_POINT('',(-20.,12.,3.));
#1759=CARTESIAN_POINT('Origin',(-12.,12.,3.));
#1760=CARTESIAN_POINT('',(-20.0000002980232,1.00000001490116,3.));
#1761=CARTESIAN_POINT('',(-20.,-20.,3.));
#1762=CARTESIAN_POINT('',(-18.5,0.,3.));
#1763=CARTESIAN_POINT('',(-18.5,0.,3.));
#1764=CARTESIAN_POINT('',(-20.0000002980232,-1.00000001490116,3.));
#1765=CARTESIAN_POINT('',(-18.5,0.,3.));
#1766=CARTESIAN_POINT('',(-20.,-12.,3.));
#1767=CARTESIAN_POINT('',(-20.,-20.,3.));
#1768=CARTESIAN_POINT('',(-12.,-20.,3.));
#1769=CARTESIAN_POINT('Origin',(-12.,-12.,3.));
#1770=CARTESIAN_POINT('',(-1.,-20.,3.));
#1771=CARTESIAN_POINT('',(20.,-20.,3.));
#1772=CARTESIAN_POINT('',(0.,-18.5,3.));
#1773=CARTESIAN_POINT('',(-1.,-20.,3.));
#1774=CARTESIAN_POINT('',(1.,-20.,3.));
#1775=CARTESIAN_POINT('',(1.,-20.,3.));
#1776=CARTESIAN_POINT('',(12.,-20.,3.));
#1777=CARTESIAN_POINT('',(20.,-20.,3.));
#1778=CARTESIAN_POINT('',(15.7137099226818,-19.0857856734574,3.));
#1779=CARTESIAN_POINT('Origin',(12.,-12.,3.));
#1780=CARTESIAN_POINT('',(9.02670853125516,-0.718415464324157,3.));
#1781=CARTESIAN_POINT('',(8.38302047569133,1.04962018030664,3.));
#1782=CARTESIAN_POINT('Origin',(11.0000000000001,-1.05657550565608E-12,
3.));
#1783=CARTESIAN_POINT('',(14.6041869945503,2.73505935302734,3.));
#1784=CARTESIAN_POINT('Origin',(16.1041869945503,2.73505935302734,3.));
#1785=CARTESIAN_POINT('',(-17.1755164835329,-11.4448608340439,3.));
#1786=CARTESIAN_POINT('Origin',(-15.6755164835329,-11.4448608340439,3.));
#1787=CARTESIAN_POINT('',(-0.5,0.,3.));
#1788=CARTESIAN_POINT('Origin',(0.,0.,3.));
#1789=CARTESIAN_POINT('',(-3.82970924864231,15.9974552926998,3.));
#1790=CARTESIAN_POINT('Origin',(-2.32970924864231,15.9974552926998,3.));
#1791=CARTESIAN_POINT('',(4.50000008940697,-14.0000002086163,3.));
#1792=CARTESIAN_POINT('Origin',(6.00000008940697,-14.0000002086163,3.));
#1793=CARTESIAN_POINT('',(-13.,1.11821921275917E-15,3.));
#1794=CARTESIAN_POINT('Origin',(-11.,1.36314857258864E-15,3.));
#1795=CARTESIAN_POINT('',(-10.5575357856447,-17.0785226934568,3.));
#1796=CARTESIAN_POINT('',(-11.9943667143051,-13.1319397559649,3.));
#1797=CARTESIAN_POINT('',(-13.3860894814438,-9.30925664346426,3.));
#1798=CARTESIAN_POINT('',(-0.718415464331132,-9.02670853125798,3.));
#1799=CARTESIAN_POINT('',(1.04962009056649,-8.38302050835274,3.));
#1800=CARTESIAN_POINT('',(0.718415464322897,-12.9732914687449,3.));
#1801=CARTESIAN_POINT('Origin',(-2.77369312498518E-13,-11.0000000000001,
3.));
#1802=CARTESIAN_POINT('',(-3.15152460576336,-14.3822190582046,3.));
#1803=CARTESIAN_POINT('',(17.5868588208006,15.0031115284388,3.));
#1804=CARTESIAN_POINT('',(19.4575159642192,11.2427070486285,3.));
#1805=CARTESIAN_POINT('',(19.7469579740811,10.6608692520235,3.));
#1806=CARTESIAN_POINT('',(8.71350316476131,5.89797235314689,3.));
#1807=CARTESIAN_POINT('',(4.04503977011509,3.57559069317618,3.));
#1808=CARTESIAN_POINT('',(6.84284602134273,9.65837683295715,3.));
#1809=CARTESIAN_POINT('Origin',(7.77817459305202,7.77817459305202,3.));
#1810=CARTESIAN_POINT('',(7.54638902642546,10.0083625207273,3.));
#1811=CARTESIAN_POINT('',(5.23631114080055,-2.64325067543734,3.));
#1812=CARTESIAN_POINT('',(5.8104597921834,-6.80382194944711,3.));
#1813=CARTESIAN_POINT('',(5.28865087857125,-3.02253086521653,3.));
#1814=CARTESIAN_POINT('',(-6.0768867049875,-8.44424666768382,3.));
#1815=CARTESIAN_POINT('',(-2.52346961638006,-7.95388380766761,3.));
#1816=CARTESIAN_POINT('',(-6.65103535637034,-4.28367539367405,3.));
#1817=CARTESIAN_POINT('Origin',(-6.36396103067892,-6.36396103067893,3.));
#1818=CARTESIAN_POINT('',(2.84605498082255,-2.97310017453949,3.));
#1819=CARTESIAN_POINT('',(5.77817459305202,-7.77817459305202,3.));
#1820=CARTESIAN_POINT('Origin',(7.77817459305202,-7.77817459305202,3.));
#1821=CARTESIAN_POINT('',(-9.66389474201571,6.85402118598566,3.));
#1822=CARTESIAN_POINT('',(-14.9447713538235,17.6295648943496,3.));
#1823=CARTESIAN_POINT('',(-10.0143095135732,7.56903688594183,3.));
#1824=CARTESIAN_POINT('',(-11.1733310558961,19.4778717084823,3.));
#1825=CARTESIAN_POINT('',(-10.5620255414891,19.7774602100997,3.));
#1826=CARTESIAN_POINT('',(-5.89245444408834,8.70232800011839,3.));
#1827=CARTESIAN_POINT('',(-3.60243090974191,4.0295718458926,3.));
#1828=CARTESIAN_POINT('Origin',(-7.77817459305202,7.77817459305202,3.));
#1829=CARTESIAN_POINT('',(-2.,9.,3.));
#1830=CARTESIAN_POINT('Origin',(4.41213041805076E-32,9.,3.));
#1831=CARTESIAN_POINT('Origin',(12.,-12.,0.));
#1832=CARTESIAN_POINT('',(15.7137099226818,-19.0857856734574,0.));
#1833=CARTESIAN_POINT('',(15.7137099226818,-19.0857856734574,0.));
#1834=CARTESIAN_POINT('',(12.,-20.,0.));
#1835=CARTESIAN_POINT('',(12.,-20.,0.));
#1836=CARTESIAN_POINT('Origin',(12.,-12.,0.));
#1837=CARTESIAN_POINT('Origin',(4.41213041805076E-32,9.,0.));
#1838=CARTESIAN_POINT('',(-2.,9.,0.));
#1839=CARTESIAN_POINT('Origin',(4.41213041805076E-32,9.,0.));
#1840=CARTESIAN_POINT('',(-2.,9.,0.));
#1841=CARTESIAN_POINT('Origin',(-14.9447713538235,17.6295648943496,0.));
#1842=CARTESIAN_POINT('',(-14.9447713538235,17.6295648943496,0.));
#1843=CARTESIAN_POINT('',(-9.66389474201571,6.85402118598566,0.));
#1844=CARTESIAN_POINT('',(-10.0143095135732,7.56903688594183,0.));
#1845=CARTESIAN_POINT('',(-14.9447713538235,17.6295648943496,0.));
#1846=CARTESIAN_POINT('',(-9.66389474201571,6.85402118598566,0.));
#1847=CARTESIAN_POINT('Origin',(-11.2631272534658,19.4338644033839,0.));
#1848=CARTESIAN_POINT('',(-11.1733310558961,19.4778717084823,0.));
#1849=CARTESIAN_POINT('',(-10.5620255414891,19.7774602100997,0.));
#1850=CARTESIAN_POINT('',(-11.1733310558961,19.4778717084823,0.));
#1851=CARTESIAN_POINT('Origin',(-5.89245444408834,8.70232800011839,0.));
#1852=CARTESIAN_POINT('',(-5.89245444408834,8.70232800011839,0.));
#1853=CARTESIAN_POINT('',(-3.60243090974191,4.0295718458926,0.));
#1854=CARTESIAN_POINT('',(-5.89245444408834,8.70232800011839,0.));
#1855=CARTESIAN_POINT('Origin',(-7.77817459305202,7.77817459305202,0.));
#1856=CARTESIAN_POINT('Origin',(-7.77817459305202,7.77817459305202,0.));
#1857=CARTESIAN_POINT('Origin',(17.0785226934476,-10.5575357856482,0.));
#1858=CARTESIAN_POINT('',(19.0082640240806,-15.8580092494417,0.));
#1859=CARTESIAN_POINT('',(12.9732914687446,0.718415464322916,0.));
#1860=CARTESIAN_POINT('',(14.3822190255327,-3.15152451603247,0.));
#1861=CARTESIAN_POINT('',(19.0082640240806,-15.8580092494417,0.));
#1862=CARTESIAN_POINT('',(12.9732914687446,0.718415464322916,0.));
#1863=CARTESIAN_POINT('Origin',(9.02670853125516,-0.718415464324157,0.));
#1864=CARTESIAN_POINT('',(9.02670853125516,-0.718415464324157,0.));
#1865=CARTESIAN_POINT('',(8.38302047569133,1.04962018030664,0.));
#1866=CARTESIAN_POINT('',(9.02670853125516,-0.718415464324157,0.));
#1867=CARTESIAN_POINT('Origin',(11.0000000000001,-1.05657550565608E-12,
0.));
#1868=CARTESIAN_POINT('Origin',(11.0000000000001,-1.05657550565608E-12,
0.));
#1869=CARTESIAN_POINT('Origin',(7.77817459305202,-7.77817459305202,0.));
#1870=CARTESIAN_POINT('',(5.77817459305202,-7.77817459305202,0.));
#1871=CARTESIAN_POINT('Origin',(7.77817459305202,-7.77817459305202,0.));
#1872=CARTESIAN_POINT('',(5.77817459305202,-7.77817459305202,0.));
#1873=CARTESIAN_POINT('Origin',(5.79678958619809,-6.70476072863735,0.));
#1874=CARTESIAN_POINT('',(5.8104597921834,-6.80382194944711,0.));
#1875=CARTESIAN_POINT('',(5.23631114080055,-2.64325067543734,0.));
#1876=CARTESIAN_POINT('',(5.28865087857125,-3.02253086521653,0.));
#1877=CARTESIAN_POINT('',(5.81045979218339,-6.80382194944711,0.));
#1878=CARTESIAN_POINT('',(5.23631114080055,-2.64325067543734,0.));
#1879=CARTESIAN_POINT('Origin',(-6.0768867049875,-8.44424666768382,0.));
#1880=CARTESIAN_POINT('',(-6.0768867049875,-8.44424666768382,0.));
#1881=CARTESIAN_POINT('',(-2.52346961638006,-7.95388380766761,0.));
#1882=CARTESIAN_POINT('',(-6.0768867049875,-8.44424666768382,0.));
#1883=CARTESIAN_POINT('Origin',(-6.36396103067892,-6.36396103067893,0.));
#1884=CARTESIAN_POINT('',(-6.65103535637034,-4.28367539367405,0.));
#1885=CARTESIAN_POINT('Origin',(-6.36396103067892,-6.36396103067893,0.));
#1886=CARTESIAN_POINT('',(-6.65103535637034,-4.28367539367405,0.));
#1887=CARTESIAN_POINT('Origin',(5.23631114080055,-2.64325067543734,0.));
#1888=CARTESIAN_POINT('',(2.84605498082255,-2.97310017453949,0.));
#1889=CARTESIAN_POINT('Origin',(19.4129765084235,11.332240488624,0.));
#1890=CARTESIAN_POINT('',(19.4575159642192,11.2427070486285,0.));
#1891=CARTESIAN_POINT('',(17.5868588208006,15.0031115284388,0.));
#1892=CARTESIAN_POINT('',(19.7469579740811,10.6608692520235,0.));
#1893=CARTESIAN_POINT('',(19.4575159642192,11.2427070486285,0.));
#1894=CARTESIAN_POINT('',(17.5868588208006,15.0031115284388,0.));
#1895=CARTESIAN_POINT('Origin',(8.71350316476131,5.89797235314689,0.));
#1896=CARTESIAN_POINT('',(8.71350316476131,5.89797235314689,0.));
#1897=CARTESIAN_POINT('',(4.04503977011509,3.57559069317618,0.));
#1898=CARTESIAN_POINT('',(8.71350316476131,5.89797235314689,0.));
#1899=CARTESIAN_POINT('Origin',(7.77817459305202,7.77817459305202,0.));
#1900=CARTESIAN_POINT('',(6.84284602134273,9.65837683295715,0.));
#1901=CARTESIAN_POINT('Origin',(7.77817459305202,7.77817459305202,0.));
#1902=CARTESIAN_POINT('',(6.84284602134273,9.65837683295715,0.));
#1903=CARTESIAN_POINT('Origin',(17.5868588208006,15.0031115284388,0.));
#1904=CARTESIAN_POINT('',(7.54638902642546,10.0083625207273,0.));
#1905=CARTESIAN_POINT('Origin',(-11.9601564540989,-13.2259060163812,0.));
#1906=CARTESIAN_POINT('',(-11.9943667143051,-13.1319397559649,0.));
#1907=CARTESIAN_POINT('',(-10.5575357856447,-17.0785226934568,0.));
#1908=CARTESIAN_POINT('',(-13.3860894814438,-9.30925664346426,0.));
#1909=CARTESIAN_POINT('',(-11.9943667143051,-13.1319397559649,0.));
#1910=CARTESIAN_POINT('',(-10.5575357856447,-17.0785226934568,0.));
#1911=CARTESIAN_POINT('Origin',(-0.71841546433394,-9.02670853125027,0.));
#1912=CARTESIAN_POINT('',(-0.718415464331132,-9.02670853125798,0.));
#1913=CARTESIAN_POINT('',(1.04962009056649,-8.38302050835274,0.));
#1914=CARTESIAN_POINT('',(-0.718415464331132,-9.02670853125798,0.));
#1915=CARTESIAN_POINT('Origin',(-2.77369312498518E-13,-11.0000000000001,
0.));
#1916=CARTESIAN_POINT('',(0.718415464322897,-12.9732914687449,0.));
#1917=CARTESIAN_POINT('Origin',(-2.77369312498518E-13,-11.0000000000001,
0.));
#1918=CARTESIAN_POINT('',(0.718415464322897,-12.9732914687449,0.));
#1919=CARTESIAN_POINT('Origin',(-10.5575357856449,-17.0785226934569,0.));
#1920=CARTESIAN_POINT('',(-3.15152460576336,-14.3822190582046,0.));
#1921=CARTESIAN_POINT('Origin',(-11.,1.36314857258864E-15,0.));
#1922=CARTESIAN_POINT('',(-13.,1.11821921275917E-15,0.));
#1923=CARTESIAN_POINT('Origin',(-11.,1.36314857258864E-15,0.));
#1924=CARTESIAN_POINT('',(-13.,1.11821921275917E-15,0.));
#1925=CARTESIAN_POINT('Origin',(12.,-12.,0.));
#1926=CARTESIAN_POINT('',(20.,-12.,0.));
#1927=CARTESIAN_POINT('Origin',(12.,-12.,0.));
#1928=CARTESIAN_POINT('',(20.,-12.,0.));
#1929=CARTESIAN_POINT('Origin',(20.,-20.,0.));
#1930=CARTESIAN_POINT('',(20.,12.,0.));
#1931=CARTESIAN_POINT('',(20.,20.,0.));
#1932=CARTESIAN_POINT('',(20.,12.,0.));
#1933=CARTESIAN_POINT('Origin',(-1.49011611938477E-7,0.,0.));
#1934=CARTESIAN_POINT('',(1.,-20.,0.));
#1935=CARTESIAN_POINT('',(20.,-20.,0.));
#1936=CARTESIAN_POINT('',(0.,-18.5,0.));
#1937=CARTESIAN_POINT('',(1.,-20.,0.));
#1938=CARTESIAN_POINT('',(-1.,-20.,0.));
#1939=CARTESIAN_POINT('',(-1.,-20.,0.));
#1940=CARTESIAN_POINT('',(-12.,-20.,0.));
#1941=CARTESIAN_POINT('',(20.,-20.,0.));
#1942=CARTESIAN_POINT('',(-20.,-12.,0.));
#1943=CARTESIAN_POINT('Origin',(-12.,-12.,0.));
#1944=CARTESIAN_POINT('',(-20.0000002980232,-1.00000001490116,0.));
#1945=CARTESIAN_POINT('',(-20.,-20.,0.));
#1946=CARTESIAN_POINT('',(-18.5,0.,0.));
#1947=CARTESIAN_POINT('',(-18.5,0.,0.));
#1948=CARTESIAN_POINT('',(-20.0000002980232,1.00000001490116,0.));
#1949=CARTESIAN_POINT('',(-18.5,0.,0.));
#1950=CARTESIAN_POINT('',(-20.,12.,0.));
#1951=CARTESIAN_POINT('',(-20.,-20.,0.));
#1952=CARTESIAN_POINT('',(-12.,20.,0.));
#1953=CARTESIAN_POINT('Origin',(-12.,12.,0.));
#1954=CARTESIAN_POINT('',(12.,20.,0.));
#1955=CARTESIAN_POINT('',(-20.,20.,0.));
#1956=CARTESIAN_POINT('Origin',(12.,12.,0.));
#1957=CARTESIAN_POINT('',(4.50000008940697,-14.0000002086163,0.));
#1958=CARTESIAN_POINT('Origin',(6.00000008940697,-14.0000002086163,0.));
#1959=CARTESIAN_POINT('',(-3.82970924864231,15.9974552926998,0.));
#1960=CARTESIAN_POINT('Origin',(-2.32970924864231,15.9974552926998,0.));
#1961=CARTESIAN_POINT('',(-0.5,-6.12323399573677E-17,0.));
#1962=CARTESIAN_POINT('Origin',(0.,0.,0.));
#1963=CARTESIAN_POINT('',(-17.1755164835329,-11.4448608340439,0.));
#1964=CARTESIAN_POINT('Origin',(-15.6755164835329,-11.4448608340439,0.));
#1965=CARTESIAN_POINT('',(14.6041869945503,2.73505935302734,0.));
#1966=CARTESIAN_POINT('Origin',(16.1041869945503,2.73505935302734,0.));
#1967=CARTESIAN_POINT('Origin',(12.,12.,0.));
#1968=CARTESIAN_POINT('',(12.,20.,0.));
#1969=CARTESIAN_POINT('Origin',(20.,20.,0.));
#1970=CARTESIAN_POINT('',(-12.,20.,0.));
#1971=CARTESIAN_POINT('Origin',(-12.,12.,0.));
#1972=CARTESIAN_POINT('',(-20.,12.,0.));
#1973=CARTESIAN_POINT('Origin',(-20.,20.,0.));
#1974=CARTESIAN_POINT('',(-20.0000002980232,1.00000001490116,0.));
#1975=CARTESIAN_POINT('Origin',(-12.,-12.,0.));
#1976=CARTESIAN_POINT('',(-20.,-12.,0.));
#1977=CARTESIAN_POINT('',(-12.,-20.,0.));
#1978=CARTESIAN_POINT('Origin',(-20.,-1.00000001490116,0.));
#1979=CARTESIAN_POINT('',(-20.0000002980232,-1.00000001490116,0.));
#1980=CARTESIAN_POINT('Origin',(16.1041869945503,2.73505935302734,0.));
#1981=CARTESIAN_POINT('',(14.6041869945503,2.73505935302734,0.));
#1982=CARTESIAN_POINT('Origin',(-15.6755164835329,-11.4448608340439,0.));
#1983=CARTESIAN_POINT('',(-17.1755164835329,-11.4448608340439,0.));
#1984=CARTESIAN_POINT('Origin',(0.,0.,0.));
#1985=CARTESIAN_POINT('',(-0.5,-6.12323399573677E-17,0.));
#1986=CARTESIAN_POINT('Origin',(-2.32970924864231,15.9974552926998,0.));
#1987=CARTESIAN_POINT('',(-3.82970924864231,15.9974552926998,0.));
#1988=CARTESIAN_POINT('Origin',(6.00000008940697,-14.0000002086163,0.));
#1989=CARTESIAN_POINT('',(4.50000008940697,-14.0000002086163,0.));
#1990=CARTESIAN_POINT('Origin',(1.,-20.,0.));
#1991=CARTESIAN_POINT('',(1.,-20.,0.));
#1992=CARTESIAN_POINT('Origin',(0.,-18.5,0.));
#1993=CARTESIAN_POINT('',(0.,-18.5,0.));
#1994=CARTESIAN_POINT('Origin',(-1.,-20.,0.));
#1995=CARTESIAN_POINT('',(-1.,-20.,0.));
#1996=CARTESIAN_POINT('Origin',(-20.,-20.,0.));
#1997=CARTESIAN_POINT('Origin',(-18.5,0.,0.));
#1998=CARTESIAN_POINT('',(-18.5,0.,0.));
#1999=CARTESIAN_POINT('Origin',(-20.0000002980232,1.00000001490116,0.));
#2000=UNCERTAINTY_MEASURE_WITH_UNIT(LENGTH_MEASURE(0.01),#2004,
'DISTANCE_ACCURACY_VALUE',
'Maximum model space distance between geometric entities at asserted c
onnectivities');
#2001=UNCERTAINTY_MEASURE_WITH_UNIT(LENGTH_MEASURE(0.01),#2004,
'DISTANCE_ACCURACY_VALUE',
'Maximum model space distance between geometric entities at asserted c
onnectivities');
#2002=(
GEOMETRIC_REPRESENTATION_CONTEXT(3)
GLOBAL_UNCERTAINTY_ASSIGNED_CONTEXT((#2000))
GLOBAL_UNIT_ASSIGNED_CONTEXT((#2004,#2006,#2007))
REPRESENTATION_CONTEXT('','3D')
);
#2003=(
GEOMETRIC_REPRESENTATION_CONTEXT(3)
GLOBAL_UNCERTAINTY_ASSIGNED_CONTEXT((#2001))
GLOBAL_UNIT_ASSIGNED_CONTEXT((#2004,#2006,#2007))
REPRESENTATION_CONTEXT('','3D')
);
#2004=(
LENGTH_UNIT()
NAMED_UNIT(*)
SI_UNIT(.MILLI.,.METRE.)
);
#2005=(
LENGTH_UNIT()
NAMED_UNIT(*)
SI_UNIT($,.METRE.)
);
#2006=(
NAMED_UNIT(*)
PLANE_ANGLE_UNIT()
SI_UNIT($,.RADIAN.)
);
#2007=(
NAMED_UNIT(*)
SI_UNIT($,.STERADIAN.)
SOLID_ANGLE_UNIT()
);
#2008=SHAPE_DEFINITION_REPRESENTATION(#2009,#2010);
#2009=PRODUCT_DEFINITION_SHAPE('',$,#2012);
#2010=SHAPE_REPRESENTATION('',(#1236),#2002);
#2011=PRODUCT_DEFINITION_CONTEXT('part definition',#2016,'design');
#2012=PRODUCT_DEFINITION('BearingPlate1','BearingPlate1 v15',#2013,#2011);
#2013=PRODUCT_DEFINITION_FORMATION('',$,#2018);
#2014=PRODUCT_RELATED_PRODUCT_CATEGORY('BearingPlate1 v15',
'BearingPlate1 v15',(#2018));
#2015=APPLICATION_PROTOCOL_DEFINITION('international standard',
'automotive_design',2009,#2016);
#2016=APPLICATION_CONTEXT(
'Core Data for Automotive Mechanical Design Process');
#2017=PRODUCT_CONTEXT('part definition',#2016,'mechanical');
#2018=PRODUCT('BearingPlate1','BearingPlate1 v15',$,(#2017));
#2019=PRESENTATION_STYLE_ASSIGNMENT((#2021));
#2020=PRESENTATION_STYLE_ASSIGNMENT((#2022));
#2021=SURFACE_STYLE_USAGE(.BOTH.,#2023);
#2022=SURFACE_STYLE_USAGE(.BOTH.,#2024);
#2023=SURFACE_SIDE_STYLE('',(#2025));
#2024=SURFACE_SIDE_STYLE('',(#2026));
#2025=SURFACE_STYLE_FILL_AREA(#2027);
#2026=SURFACE_STYLE_FILL_AREA(#2028);
#2027=FILL_AREA_STYLE('Steel - Satin',(#2029));
#2028=FILL_AREA_STYLE('Acrylic (Clear)',(#2030));
#2029=FILL_AREA_STYLE_COLOUR('Steel - Satin',#2031);
#2030=FILL_AREA_STYLE_COLOUR('Acrylic (Clear)',#2032);
#2031=COLOUR_RGB('Steel - Satin',0.627450980392157,0.627450980392157,0.627450980392157);
#2032=COLOUR_RGB('Acrylic (Clear)',0.964705882352941,0.964705882352941,
0.952941176470588);
ENDSEC;
END-ISO-10303-21;
