ISO-10303-21;
HEADER;
/* Generated by software containing ST-Developer
 * from STEP Tools, Inc. (www.steptools.com) 
 */

FILE_DESCRIPTION(
/* description */ (''),
/* implementation_level */ '2;1');

FILE_NAME(
/* name */ 'BearingPlate2_v17.step',
/* time_stamp */ '2026-08-21T09:18:09-04:00',
/* author */ (''),
/* organization */ (''),
/* preprocessor_version */ 'ST-DEVELOPER v20.1',
/* originating_system */ 'Autodesk Translation Framework v15.8.0.0',
/* authorisation */ '');

FILE_SCHEMA (('AUTOMOTIVE_DESIGN { 1 0 10303 214 3 1 1 }'));
ENDSEC;

DATA;
#10=MECHANICAL_DESIGN_GEOMETRIC_PRESENTATION_REPRESENTATION('',(#13,#14),
#1840);
#11=SHAPE_REPRESENTATION_RELATIONSHIP('SRR','None',#1847,#12);
#12=ADVANCED_BREP_SHAPE_REPRESENTATION('',(#15,#16),#1839);
#13=STYLED_ITEM('',(#1857),#15);
#14=STYLED_ITEM('',(#1857),#16);
#15=MANIFOLD_SOLID_BREP('Body1',#1119);
#16=MANIFOLD_SOLID_BREP('Body1',#1120);
#17=CYLINDRICAL_SURFACE('',#1150,8.);
#18=CYLINDRICAL_SURFACE('',#1152,8.);
#19=CYLINDRICAL_SURFACE('',#1170,2.);
#20=CYLINDRICAL_SURFACE('',#1178,2.);
#21=CYLINDRICAL_SURFACE('',#1180,2.);
#22=CYLINDRICAL_SURFACE('',#1185,2.);
#23=CYLINDRICAL_SURFACE('',#1189,2.);
#24=CYLINDRICAL_SURFACE('',#1197,2.);
#25=CYLINDRICAL_SURFACE('',#1198,8.);
#26=CYLINDRICAL_SURFACE('',#1201,8.);
#27=CYLINDRICAL_SURFACE('',#1203,1.5);
#28=CYLINDRICAL_SURFACE('',#1204,0.5);
#29=CYLINDRICAL_SURFACE('',#1205,1.5);
#30=CYLINDRICAL_SURFACE('',#1206,1.5);
#31=CYLINDRICAL_SURFACE('',#1207,1.5);
#32=FACE_BOUND('',#101,.T.);
#33=FACE_BOUND('',#102,.T.);
#34=FACE_BOUND('',#103,.T.);
#35=FACE_BOUND('',#104,.T.);
#36=FACE_BOUND('',#105,.T.);
#37=FACE_BOUND('',#106,.T.);
#38=FACE_BOUND('',#110,.T.);
#39=FACE_BOUND('',#111,.T.);
#40=FACE_BOUND('',#112,.T.);
#41=FACE_BOUND('',#113,.T.);
#42=FACE_BOUND('',#114,.T.);
#43=FACE_BOUND('',#115,.T.);
#44=FACE_OUTER_BOUND('',#100,.T.);
#45=FACE_OUTER_BOUND('',#107,.T.);
#46=FACE_OUTER_BOUND('',#108,.T.);
#47=FACE_OUTER_BOUND('',#109,.T.);
#48=FACE_OUTER_BOUND('',#116,.T.);
#49=FACE_OUTER_BOUND('',#117,.T.);
#50=FACE_OUTER_BOUND('',#118,.T.);
#51=FACE_OUTER_BOUND('',#119,.T.);
#52=FACE_OUTER_BOUND('',#120,.T.);
#53=FACE_OUTER_BOUND('',#121,.T.);
#54=FACE_OUTER_BOUND('',#122,.T.);
#55=FACE_OUTER_BOUND('',#123,.T.);
#56=FACE_OUTER_BOUND('',#124,.T.);
#57=FACE_OUTER_BOUND('',#125,.T.);
#58=FACE_OUTER_BOUND('',#126,.T.);
#59=FACE_OUTER_BOUND('',#127,.T.);
#60=FACE_OUTER_BOUND('',#128,.T.);
#61=FACE_OUTER_BOUND('',#129,.T.);
#62=FACE_OUTER_BOUND('',#130,.T.);
#63=FACE_OUTER_BOUND('',#131,.T.);
#64=FACE_OUTER_BOUND('',#132,.T.);
#65=FACE_OUTER_BOUND('',#133,.T.);
#66=FACE_OUTER_BOUND('',#134,.T.);
#67=FACE_OUTER_BOUND('',#135,.T.);
#68=FACE_OUTER_BOUND('',#136,.T.);
#69=FACE_OUTER_BOUND('',#137,.T.);
#70=FACE_OUTER_BOUND('',#138,.T.);
#71=FACE_OUTER_BOUND('',#139,.T.);
#72=FACE_OUTER_BOUND('',#140,.T.);
#73=FACE_OUTER_BOUND('',#141,.T.);
#74=FACE_OUTER_BOUND('',#142,.T.);
#75=FACE_OUTER_BOUND('',#143,.T.);
#76=FACE_OUTER_BOUND('',#144,.T.);
#77=FACE_OUTER_BOUND('',#145,.T.);
#78=FACE_OUTER_BOUND('',#146,.T.);
#79=FACE_OUTER_BOUND('',#147,.T.);
#80=FACE_OUTER_BOUND('',#148,.T.);
#81=FACE_OUTER_BOUND('',#149,.T.);
#82=FACE_OUTER_BOUND('',#150,.T.);
#83=FACE_OUTER_BOUND('',#151,.T.);
#84=FACE_OUTER_BOUND('',#152,.T.);
#85=FACE_OUTER_BOUND('',#153,.T.);
#86=FACE_OUTER_BOUND('',#154,.T.);
#87=FACE_OUTER_BOUND('',#155,.T.);
#88=FACE_OUTER_BOUND('',#156,.T.);
#89=FACE_OUTER_BOUND('',#157,.T.);
#90=FACE_OUTER_BOUND('',#158,.T.);
#91=FACE_OUTER_BOUND('',#159,.T.);
#92=FACE_OUTER_BOUND('',#160,.T.);
#93=FACE_OUTER_BOUND('',#161,.T.);
#94=FACE_OUTER_BOUND('',#162,.T.);
#95=FACE_OUTER_BOUND('',#163,.T.);
#96=FACE_OUTER_BOUND('',#164,.T.);
#97=FACE_OUTER_BOUND('',#165,.T.);
#98=FACE_OUTER_BOUND('',#166,.T.);
#99=FACE_OUTER_BOUND('',#167,.T.);
#100=EDGE_LOOP('',(#710,#711,#712,#713,#714,#715,#716,#717,#718,#719,#720,
#721,#722,#723,#724,#725,#726,#727,#728,#729,#730,#731,#732,#733));
#101=EDGE_LOOP('',(#734,#735,#736,#737,#738,#739,#740,#741,#742,#743,#744,
#745,#746,#747,#748,#749,#750,#751,#752));
#102=EDGE_LOOP('',(#753));
#103=EDGE_LOOP('',(#754));
#104=EDGE_LOOP('',(#755));
#105=EDGE_LOOP('',(#756));
#106=EDGE_LOOP('',(#757));
#107=EDGE_LOOP('',(#758,#759,#760,#761));
#108=EDGE_LOOP('',(#762,#763,#764,#765));
#109=EDGE_LOOP('',(#766,#767,#768,#769,#770,#771,#772,#773,#774,#775,#776,
#777,#778,#779,#780,#781,#782,#783,#784,#785,#786,#787,#788,#789));
#110=EDGE_LOOP('',(#790,#791,#792,#793,#794,#795,#796,#797,#798,#799,#800,
#801,#802,#803,#804,#805,#806,#807,#808));
#111=EDGE_LOOP('',(#809));
#112=EDGE_LOOP('',(#810));
#113=EDGE_LOOP('',(#811));
#114=EDGE_LOOP('',(#812));
#115=EDGE_LOOP('',(#813));
#116=EDGE_LOOP('',(#814,#815,#816,#817));
#117=EDGE_LOOP('',(#818,#819,#820,#821));
#118=EDGE_LOOP('',(#822,#823,#824,#825));
#119=EDGE_LOOP('',(#826,#827,#828,#829));
#120=EDGE_LOOP('',(#830,#831,#832,#833));
#121=EDGE_LOOP('',(#834,#835,#836,#837));
#122=EDGE_LOOP('',(#838,#839,#840,#841));
#123=EDGE_LOOP('',(#842,#843,#844,#845));
#124=EDGE_LOOP('',(#846,#847,#848,#849));
#125=EDGE_LOOP('',(#850,#851,#852,#853));
#126=EDGE_LOOP('',(#854,#855,#856,#857));
#127=EDGE_LOOP('',(#858,#859,#860,#861));
#128=EDGE_LOOP('',(#862,#863,#864,#865));
#129=EDGE_LOOP('',(#866,#867,#868,#869));
#130=EDGE_LOOP('',(#870,#871,#872,#873));
#131=EDGE_LOOP('',(#874,#875,#876,#877));
#132=EDGE_LOOP('',(#878,#879,#880,#881));
#133=EDGE_LOOP('',(#882,#883,#884,#885));
#134=EDGE_LOOP('',(#886,#887,#888,#889));
#135=EDGE_LOOP('',(#890,#891,#892,#893));
#136=EDGE_LOOP('',(#894,#895,#896,#897));
#137=EDGE_LOOP('',(#898,#899,#900,#901));
#138=EDGE_LOOP('',(#902,#903,#904,#905));
#139=EDGE_LOOP('',(#906,#907,#908,#909));
#140=EDGE_LOOP('',(#910,#911,#912,#913));
#141=EDGE_LOOP('',(#914,#915,#916,#917));
#142=EDGE_LOOP('',(#918,#919,#920,#921));
#143=EDGE_LOOP('',(#922,#923,#924,#925));
#144=EDGE_LOOP('',(#926,#927,#928,#929));
#145=EDGE_LOOP('',(#930,#931,#932,#933));
#146=EDGE_LOOP('',(#934,#935,#936,#937));
#147=EDGE_LOOP('',(#938,#939,#940,#941));
#148=EDGE_LOOP('',(#942,#943,#944,#945));
#149=EDGE_LOOP('',(#946,#947,#948,#949));
#150=EDGE_LOOP('',(#950,#951,#952,#953));
#151=EDGE_LOOP('',(#954,#955,#956,#957));
#152=EDGE_LOOP('',(#958,#959,#960,#961));
#153=EDGE_LOOP('',(#962,#963,#964,#965));
#154=EDGE_LOOP('',(#966,#967,#968,#969));
#155=EDGE_LOOP('',(#970,#971,#972,#973));
#156=EDGE_LOOP('',(#974,#975,#976,#977));
#157=EDGE_LOOP('',(#978,#979,#980,#981));
#158=EDGE_LOOP('',(#982,#983,#984,#985));
#159=EDGE_LOOP('',(#986,#987,#988,#989));
#160=EDGE_LOOP('',(#990,#991,#992,#993));
#161=EDGE_LOOP('',(#994,#995,#996,#997));
#162=EDGE_LOOP('',(#998,#999,#1000,#1001));
#163=EDGE_LOOP('',(#1002,#1003,#1004,#1005));
#164=EDGE_LOOP('',(#1006,#1007,#1008,#1009));
#165=EDGE_LOOP('',(#1010,#1011,#1012,#1013));
#166=EDGE_LOOP('',(#1014,#1015,#1016,#1017));
#167=EDGE_LOOP('',(#1018,#1019,#1020,#1021));
#168=CIRCLE('',#1135,2.);
#169=CIRCLE('',#1136,8.);
#170=CIRCLE('',#1137,2.);
#171=CIRCLE('',#1138,8.);
#172=CIRCLE('',#1139,8.);
#173=CIRCLE('',#1140,8.);
#174=CIRCLE('',#1141,2.);
#175=CIRCLE('',#1142,2.);
#176=CIRCLE('',#1143,2.);
#177=CIRCLE('',#1144,2.);
#178=CIRCLE('',#1145,1.5);
#179=CIRCLE('',#1146,1.5);
#180=CIRCLE('',#1147,1.5);
#181=CIRCLE('',#1148,0.5);
#182=CIRCLE('',#1149,1.5);
#183=CIRCLE('',#1151,8.);
#184=CIRCLE('',#1153,8.);
#185=CIRCLE('',#1155,8.);
#186=CIRCLE('',#1156,8.);
#187=CIRCLE('',#1157,2.);
#188=CIRCLE('',#1158,2.);
#189=CIRCLE('',#1159,2.);
#190=CIRCLE('',#1160,2.);
#191=CIRCLE('',#1161,2.);
#192=CIRCLE('',#1162,2.);
#193=CIRCLE('',#1163,1.5);
#194=CIRCLE('',#1164,1.5);
#195=CIRCLE('',#1165,1.5);
#196=CIRCLE('',#1166,0.5);
#197=CIRCLE('',#1167,1.5);
#198=LINE('',#1524,#324);
#199=LINE('',#1528,#325);
#200=LINE('',#1532,#326);
#201=LINE('',#1534,#327);
#202=LINE('',#1536,#328);
#203=LINE('',#1540,#329);
#204=LINE('',#1542,#330);
#205=LINE('',#1544,#331);
#206=LINE('',#1546,#332);
#207=LINE('',#1550,#333);
#208=LINE('',#1552,#334);
#209=LINE('',#1554,#335);
#210=LINE('',#1556,#336);
#211=LINE('',#1560,#337);
#212=LINE('',#1562,#338);
#213=LINE('',#1564,#339);
#214=LINE('',#1566,#340);
#215=LINE('',#1569,#341);
#216=LINE('',#1572,#342);
#217=LINE('',#1574,#343);
#218=LINE('',#1576,#344);
#219=LINE('',#1578,#345);
#220=LINE('',#1580,#346);
#221=LINE('',#1582,#347);
#222=LINE('',#1586,#348);
#223=LINE('',#1590,#349);
#224=LINE('',#1592,#350);
#225=LINE('',#1594,#351);
#226=LINE('',#1596,#352);
#227=LINE('',#1600,#353);
#228=LINE('',#1602,#354);
#229=LINE('',#1604,#355);
#230=LINE('',#1606,#356);
#231=LINE('',#1620,#357);
#232=LINE('',#1623,#358);
#233=LINE('',#1626,#359);
#234=LINE('',#1629,#360);
#235=LINE('',#1633,#361);
#236=LINE('',#1635,#362);
#237=LINE('',#1639,#363);
#238=LINE('',#1641,#364);
#239=LINE('',#1643,#365);
#240=LINE('',#1645,#366);
#241=LINE('',#1649,#367);
#242=LINE('',#1651,#368);
#243=LINE('',#1653,#369);
#244=LINE('',#1654,#370);
#245=LINE('',#1656,#371);
#246=LINE('',#1658,#372);
#247=LINE('',#1660,#373);
#248=LINE('',#1662,#374);
#249=LINE('',#1666,#375);
#250=LINE('',#1668,#376);
#251=LINE('',#1669,#377);
#252=LINE('',#1671,#378);
#253=LINE('',#1675,#379);
#254=LINE('',#1679,#380);
#255=LINE('',#1681,#381);
#256=LINE('',#1683,#382);
#257=LINE('',#1685,#383);
#258=LINE('',#1689,#384);
#259=LINE('',#1691,#385);
#260=LINE('',#1693,#386);
#261=LINE('',#1695,#387);
#262=LINE('',#1699,#388);
#263=LINE('',#1703,#389);
#264=LINE('',#1705,#390);
#265=LINE('',#1707,#391);
#266=LINE('',#1709,#392);
#267=LINE('',#1710,#393);
#268=LINE('',#1722,#394);
#269=LINE('',#1724,#395);
#270=LINE('',#1725,#396);
#271=LINE('',#1727,#397);
#272=LINE('',#1730,#398);
#273=LINE('',#1731,#399);
#274=LINE('',#1733,#400);
#275=LINE('',#1735,#401);
#276=LINE('',#1737,#402);
#277=LINE('',#1739,#403);
#278=LINE('',#1741,#404);
#279=LINE('',#1743,#405);
#280=LINE('',#1745,#406);
#281=LINE('',#1747,#407);
#282=LINE('',#1749,#408);
#283=LINE('',#1751,#409);
#284=LINE('',#1752,#410);
#285=LINE('',#1754,#411);
#286=LINE('',#1756,#412);
#287=LINE('',#1759,#413);
#288=LINE('',#1761,#414);
#289=LINE('',#1763,#415);
#290=LINE('',#1765,#416);
#291=LINE('',#1768,#417);
#292=LINE('',#1769,#418);
#293=LINE('',#1771,#419);
#294=LINE('',#1773,#420);
#295=LINE('',#1776,#421);
#296=LINE('',#1778,#422);
#297=LINE('',#1781,#423);
#298=LINE('',#1782,#424);
#299=LINE('',#1785,#425);
#300=LINE('',#1787,#426);
#301=LINE('',#1788,#427);
#302=LINE('',#1790,#428);
#303=LINE('',#1792,#429);
#304=LINE('',#1794,#430);
#305=LINE('',#1796,#431);
#306=LINE('',#1798,#432);
#307=LINE('',#1800,#433);
#308=LINE('',#1802,#434);
#309=LINE('',#1804,#435);
#310=LINE('',#1806,#436);
#311=LINE('',#1809,#437);
#312=LINE('',#1814,#438);
#313=LINE('',#1816,#439);
#314=LINE('',#1818,#440);
#315=LINE('',#1819,#441);
#316=LINE('',#1823,#442);
#317=LINE('',#1825,#443);
#318=LINE('',#1827,#444);
#319=LINE('',#1828,#445);
#320=LINE('',#1830,#446);
#321=LINE('',#1831,#447);
#322=LINE('',#1833,#448);
#323=LINE('',#1835,#449);
#324=VECTOR('',#1224,10.);
#325=VECTOR('',#1227,10.);
#326=VECTOR('',#1230,10.);
#327=VECTOR('',#1231,10.);
#328=VECTOR('',#1232,10.);
#329=VECTOR('',#1235,10.);
#330=VECTOR('',#1236,10.);
#331=VECTOR('',#1237,10.);
#332=VECTOR('',#1238,10.);
#333=VECTOR('',#1241,10.);
#334=VECTOR('',#1242,10.);
#335=VECTOR('',#1243,10.);
#336=VECTOR('',#1244,10.);
#337=VECTOR('',#1247,10.);
#338=VECTOR('',#1248,10.);
#339=VECTOR('',#1249,10.);
#340=VECTOR('',#1250,10.);
#341=VECTOR('',#1253,10.);
#342=VECTOR('',#1254,10.);
#343=VECTOR('',#1255,10.);
#344=VECTOR('',#1256,10.);
#345=VECTOR('',#1257,10.);
#346=VECTOR('',#1258,10.);
#347=VECTOR('',#1259,10.);
#348=VECTOR('',#1262,10.);
#349=VECTOR('',#1265,10.);
#350=VECTOR('',#1266,10.);
#351=VECTOR('',#1267,10.);
#352=VECTOR('',#1268,10.);
#353=VECTOR('',#1271,10.);
#354=VECTOR('',#1272,10.);
#355=VECTOR('',#1273,10.);
#356=VECTOR('',#1274,10.);
#357=VECTOR('',#1289,10.);
#358=VECTOR('',#1292,10.);
#359=VECTOR('',#1295,10.);
#360=VECTOR('',#1298,10.);
#361=VECTOR('',#1301,10.);
#362=VECTOR('',#1302,10.);
#363=VECTOR('',#1305,10.);
#364=VECTOR('',#1306,10.);
#365=VECTOR('',#1307,10.);
#366=VECTOR('',#1308,10.);
#367=VECTOR('',#1311,10.);
#368=VECTOR('',#1312,10.);
#369=VECTOR('',#1313,10.);
#370=VECTOR('',#1314,10.);
#371=VECTOR('',#1315,10.);
#372=VECTOR('',#1316,10.);
#373=VECTOR('',#1317,10.);
#374=VECTOR('',#1318,10.);
#375=VECTOR('',#1321,10.);
#376=VECTOR('',#1322,10.);
#377=VECTOR('',#1323,10.);
#378=VECTOR('',#1324,10.);
#379=VECTOR('',#1327,10.);
#380=VECTOR('',#1330,10.);
#381=VECTOR('',#1331,10.);
#382=VECTOR('',#1332,10.);
#383=VECTOR('',#1333,10.);
#384=VECTOR('',#1336,10.);
#385=VECTOR('',#1337,10.);
#386=VECTOR('',#1338,10.);
#387=VECTOR('',#1339,10.);
#388=VECTOR('',#1342,10.);
#389=VECTOR('',#1345,10.);
#390=VECTOR('',#1346,10.);
#391=VECTOR('',#1347,10.);
#392=VECTOR('',#1348,10.);
#393=VECTOR('',#1349,10.);
#394=VECTOR('',#1362,10.);
#395=VECTOR('',#1365,10.);
#396=VECTOR('',#1366,10.);
#397=VECTOR('',#1369,10.);
#398=VECTOR('',#1374,10.);
#399=VECTOR('',#1375,10.);
#400=VECTOR('',#1378,10.);
#401=VECTOR('',#1381,10.);
#402=VECTOR('',#1384,10.);
#403=VECTOR('',#1387,10.);
#404=VECTOR('',#1390,10.);
#405=VECTOR('',#1393,10.);
#406=VECTOR('',#1396,10.);
#407=VECTOR('',#1399,10.);
#408=VECTOR('',#1402,10.);
#409=VECTOR('',#1405,10.);
#410=VECTOR('',#1406,10.);
#411=VECTOR('',#1409,10.);
#412=VECTOR('',#1412,10.);
#413=VECTOR('',#1417,10.);
#414=VECTOR('',#1420,10.);
#415=VECTOR('',#1423,10.);
#416=VECTOR('',#1426,10.);
#417=VECTOR('',#1431,10.);
#418=VECTOR('',#1432,10.);
#419=VECTOR('',#1435,10.);
#420=VECTOR('',#1438,10.);
#421=VECTOR('',#1443,10.);
#422=VECTOR('',#1446,10.);
#423=VECTOR('',#1451,10.);
#424=VECTOR('',#1452,10.);
#425=VECTOR('',#1457,10.);
#426=VECTOR('',#1460,10.);
#427=VECTOR('',#1461,10.);
#428=VECTOR('',#1464,10.);
#429=VECTOR('',#1467,1.5);
#430=VECTOR('',#1470,0.5);
#431=VECTOR('',#1473,1.5);
#432=VECTOR('',#1476,1.5);
#433=VECTOR('',#1479,1.5);
#434=VECTOR('',#1482,10.);
#435=VECTOR('',#1485,10.);
#436=VECTOR('',#1488,10.);
#437=VECTOR('',#1493,10.);
#438=VECTOR('',#1498,10.);
#439=VECTOR('',#1499,10.);
#440=VECTOR('',#1500,10.);
#441=VECTOR('',#1501,10.);
#442=VECTOR('',#1504,10.);
#443=VECTOR('',#1505,10.);
#444=VECTOR('',#1506,10.);
#445=VECTOR('',#1507,10.);
#446=VECTOR('',#1510,10.);
#447=VECTOR('',#1511,10.);
#448=VECTOR('',#1514,10.);
#449=VECTOR('',#1517,10.);
#450=VERTEX_POINT('',#1522);
#451=VERTEX_POINT('',#1523);
#452=VERTEX_POINT('',#1525);
#453=VERTEX_POINT('',#1527);
#454=VERTEX_POINT('',#1529);
#455=VERTEX_POINT('',#1531);
#456=VERTEX_POINT('',#1533);
#457=VERTEX_POINT('',#1535);
#458=VERTEX_POINT('',#1537);
#459=VERTEX_POINT('',#1539);
#460=VERTEX_POINT('',#1541);
#461=VERTEX_POINT('',#1543);
#462=VERTEX_POINT('',#1545);
#463=VERTEX_POINT('',#1547);
#464=VERTEX_POINT('',#1549);
#465=VERTEX_POINT('',#1551);
#466=VERTEX_POINT('',#1553);
#467=VERTEX_POINT('',#1555);
#468=VERTEX_POINT('',#1557);
#469=VERTEX_POINT('',#1559);
#470=VERTEX_POINT('',#1561);
#471=VERTEX_POINT('',#1563);
#472=VERTEX_POINT('',#1565);
#473=VERTEX_POINT('',#1567);
#474=VERTEX_POINT('',#1570);
#475=VERTEX_POINT('',#1571);
#476=VERTEX_POINT('',#1573);
#477=VERTEX_POINT('',#1575);
#478=VERTEX_POINT('',#1577);
#479=VERTEX_POINT('',#1579);
#480=VERTEX_POINT('',#1581);
#481=VERTEX_POINT('',#1583);
#482=VERTEX_POINT('',#1585);
#483=VERTEX_POINT('',#1587);
#484=VERTEX_POINT('',#1589);
#485=VERTEX_POINT('',#1591);
#486=VERTEX_POINT('',#1593);
#487=VERTEX_POINT('',#1595);
#488=VERTEX_POINT('',#1597);
#489=VERTEX_POINT('',#1599);
#490=VERTEX_POINT('',#1601);
#491=VERTEX_POINT('',#1603);
#492=VERTEX_POINT('',#1605);
#493=VERTEX_POINT('',#1608);
#494=VERTEX_POINT('',#1610);
#495=VERTEX_POINT('',#1612);
#496=VERTEX_POINT('',#1614);
#497=VERTEX_POINT('',#1616);
#498=VERTEX_POINT('',#1619);
#499=VERTEX_POINT('',#1621);
#500=VERTEX_POINT('',#1625);
#501=VERTEX_POINT('',#1627);
#502=VERTEX_POINT('',#1631);
#503=VERTEX_POINT('',#1632);
#504=VERTEX_POINT('',#1634);
#505=VERTEX_POINT('',#1636);
#506=VERTEX_POINT('',#1638);
#507=VERTEX_POINT('',#1640);
#508=VERTEX_POINT('',#1642);
#509=VERTEX_POINT('',#1644);
#510=VERTEX_POINT('',#1646);
#511=VERTEX_POINT('',#1648);
#512=VERTEX_POINT('',#1650);
#513=VERTEX_POINT('',#1652);
#514=VERTEX_POINT('',#1655);
#515=VERTEX_POINT('',#1657);
#516=VERTEX_POINT('',#1659);
#517=VERTEX_POINT('',#1661);
#518=VERTEX_POINT('',#1663);
#519=VERTEX_POINT('',#1665);
#520=VERTEX_POINT('',#1667);
#521=VERTEX_POINT('',#1670);
#522=VERTEX_POINT('',#1673);
#523=VERTEX_POINT('',#1674);
#524=VERTEX_POINT('',#1676);
#525=VERTEX_POINT('',#1678);
#526=VERTEX_POINT('',#1680);
#527=VERTEX_POINT('',#1682);
#528=VERTEX_POINT('',#1684);
#529=VERTEX_POINT('',#1686);
#530=VERTEX_POINT('',#1688);
#531=VERTEX_POINT('',#1690);
#532=VERTEX_POINT('',#1692);
#533=VERTEX_POINT('',#1694);
#534=VERTEX_POINT('',#1696);
#535=VERTEX_POINT('',#1698);
#536=VERTEX_POINT('',#1700);
#537=VERTEX_POINT('',#1702);
#538=VERTEX_POINT('',#1704);
#539=VERTEX_POINT('',#1706);
#540=VERTEX_POINT('',#1708);
#541=VERTEX_POINT('',#1711);
#542=VERTEX_POINT('',#1713);
#543=VERTEX_POINT('',#1715);
#544=VERTEX_POINT('',#1717);
#545=VERTEX_POINT('',#1719);
#546=VERTEX_POINT('',#1812);
#547=VERTEX_POINT('',#1813);
#548=VERTEX_POINT('',#1815);
#549=VERTEX_POINT('',#1817);
#550=VERTEX_POINT('',#1821);
#551=VERTEX_POINT('',#1822);
#552=VERTEX_POINT('',#1824);
#553=VERTEX_POINT('',#1826);
#554=EDGE_CURVE('',#450,#451,#198,.T.);
#555=EDGE_CURVE('',#451,#452,#168,.T.);
#556=EDGE_CURVE('',#452,#453,#199,.T.);
#557=EDGE_CURVE('',#454,#453,#169,.T.);
#558=EDGE_CURVE('',#454,#455,#200,.T.);
#559=EDGE_CURVE('',#455,#456,#201,.T.);
#560=EDGE_CURVE('',#456,#457,#202,.T.);
#561=EDGE_CURVE('',#457,#458,#170,.T.);
#562=EDGE_CURVE('',#458,#459,#203,.T.);
#563=EDGE_CURVE('',#459,#460,#204,.T.);
#564=EDGE_CURVE('',#460,#461,#205,.T.);
#565=EDGE_CURVE('',#461,#462,#206,.T.);
#566=EDGE_CURVE('',#463,#462,#171,.T.);
#567=EDGE_CURVE('',#463,#464,#207,.T.);
#568=EDGE_CURVE('',#464,#465,#208,.T.);
#569=EDGE_CURVE('',#465,#466,#209,.T.);
#570=EDGE_CURVE('',#466,#467,#210,.T.);
#571=EDGE_CURVE('',#468,#467,#172,.T.);
#572=EDGE_CURVE('',#468,#469,#211,.T.);
#573=EDGE_CURVE('',#469,#470,#212,.T.);
#574=EDGE_CURVE('',#470,#471,#213,.T.);
#575=EDGE_CURVE('',#471,#472,#214,.T.);
#576=EDGE_CURVE('',#473,#472,#173,.T.);
#577=EDGE_CURVE('',#473,#450,#215,.T.);
#578=EDGE_CURVE('',#474,#475,#216,.T.);
#579=EDGE_CURVE('',#475,#476,#217,.T.);
#580=EDGE_CURVE('',#476,#477,#218,.T.);
#581=EDGE_CURVE('',#477,#478,#219,.T.);
#582=EDGE_CURVE('',#478,#479,#220,.T.);
#583=EDGE_CURVE('',#479,#480,#221,.T.);
#584=EDGE_CURVE('',#480,#481,#174,.T.);
#585=EDGE_CURVE('',#481,#482,#222,.T.);
#586=EDGE_CURVE('',#482,#483,#175,.T.);
#587=EDGE_CURVE('',#483,#484,#223,.T.);
#588=EDGE_CURVE('',#484,#485,#224,.T.);
#589=EDGE_CURVE('',#485,#486,#225,.T.);
#590=EDGE_CURVE('',#486,#487,#226,.T.);
#591=EDGE_CURVE('',#487,#488,#176,.T.);
#592=EDGE_CURVE('',#488,#489,#227,.T.);
#593=EDGE_CURVE('',#489,#490,#228,.T.);
#594=EDGE_CURVE('',#490,#491,#229,.T.);
#595=EDGE_CURVE('',#491,#492,#230,.T.);
#596=EDGE_CURVE('',#492,#474,#177,.T.);
#597=EDGE_CURVE('',#493,#493,#178,.T.);
#598=EDGE_CURVE('',#494,#494,#179,.T.);
#599=EDGE_CURVE('',#495,#495,#180,.T.);
#600=EDGE_CURVE('',#496,#496,#181,.T.);
#601=EDGE_CURVE('',#497,#497,#182,.T.);
#602=EDGE_CURVE('',#453,#498,#231,.T.);
#603=EDGE_CURVE('',#498,#499,#183,.T.);
#604=EDGE_CURVE('',#499,#454,#232,.T.);
#605=EDGE_CURVE('',#462,#500,#233,.T.);
#606=EDGE_CURVE('',#500,#501,#184,.T.);
#607=EDGE_CURVE('',#501,#463,#234,.T.);
#608=EDGE_CURVE('',#502,#503,#235,.T.);
#609=EDGE_CURVE('',#503,#504,#236,.T.);
#610=EDGE_CURVE('',#505,#504,#185,.T.);
#611=EDGE_CURVE('',#505,#506,#237,.T.);
#612=EDGE_CURVE('',#506,#507,#238,.T.);
#613=EDGE_CURVE('',#508,#507,#239,.T.);
#614=EDGE_CURVE('',#508,#509,#240,.T.);
#615=EDGE_CURVE('',#510,#509,#186,.T.);
#616=EDGE_CURVE('',#510,#511,#241,.T.);
#617=EDGE_CURVE('',#512,#511,#242,.T.);
#618=EDGE_CURVE('',#512,#513,#243,.T.);
#619=EDGE_CURVE('',#513,#501,#244,.T.);
#620=EDGE_CURVE('',#500,#514,#245,.T.);
#621=EDGE_CURVE('',#514,#515,#246,.T.);
#622=EDGE_CURVE('',#515,#516,#247,.T.);
#623=EDGE_CURVE('',#516,#517,#248,.T.);
#624=EDGE_CURVE('',#517,#518,#187,.T.);
#625=EDGE_CURVE('',#518,#519,#249,.T.);
#626=EDGE_CURVE('',#519,#520,#250,.T.);
#627=EDGE_CURVE('',#520,#499,#251,.T.);
#628=EDGE_CURVE('',#498,#521,#252,.T.);
#629=EDGE_CURVE('',#521,#502,#188,.T.);
#630=EDGE_CURVE('',#522,#523,#253,.T.);
#631=EDGE_CURVE('',#523,#524,#189,.T.);
#632=EDGE_CURVE('',#524,#525,#254,.T.);
#633=EDGE_CURVE('',#525,#526,#255,.T.);
#634=EDGE_CURVE('',#526,#527,#256,.T.);
#635=EDGE_CURVE('',#527,#528,#257,.T.);
#636=EDGE_CURVE('',#528,#529,#190,.T.);
#637=EDGE_CURVE('',#529,#530,#258,.T.);
#638=EDGE_CURVE('',#530,#531,#259,.T.);
#639=EDGE_CURVE('',#531,#532,#260,.T.);
#640=EDGE_CURVE('',#532,#533,#261,.T.);
#641=EDGE_CURVE('',#533,#534,#191,.T.);
#642=EDGE_CURVE('',#534,#535,#262,.T.);
#643=EDGE_CURVE('',#535,#536,#192,.T.);
#644=EDGE_CURVE('',#536,#537,#263,.T.);
#645=EDGE_CURVE('',#537,#538,#264,.T.);
#646=EDGE_CURVE('',#538,#539,#265,.T.);
#647=EDGE_CURVE('',#539,#540,#266,.T.);
#648=EDGE_CURVE('',#540,#522,#267,.T.);
#649=EDGE_CURVE('',#541,#541,#193,.T.);
#650=EDGE_CURVE('',#542,#542,#194,.T.);
#651=EDGE_CURVE('',#543,#543,#195,.T.);
#652=EDGE_CURVE('',#544,#544,#196,.T.);
#653=EDGE_CURVE('',#545,#545,#197,.T.);
#654=EDGE_CURVE('',#520,#455,#268,.T.);
#655=EDGE_CURVE('',#502,#451,#269,.T.);
#656=EDGE_CURVE('',#503,#450,#270,.T.);
#657=EDGE_CURVE('',#521,#452,#271,.T.);
#658=EDGE_CURVE('',#522,#475,#272,.T.);
#659=EDGE_CURVE('',#523,#474,#273,.T.);
#660=EDGE_CURVE('',#540,#476,#274,.T.);
#661=EDGE_CURVE('',#539,#477,#275,.T.);
#662=EDGE_CURVE('',#538,#478,#276,.T.);
#663=EDGE_CURVE('',#537,#479,#277,.T.);
#664=EDGE_CURVE('',#536,#480,#278,.T.);
#665=EDGE_CURVE('',#535,#481,#279,.T.);
#666=EDGE_CURVE('',#534,#482,#280,.T.);
#667=EDGE_CURVE('',#533,#483,#281,.T.);
#668=EDGE_CURVE('',#532,#484,#282,.T.);
#669=EDGE_CURVE('',#526,#490,#283,.T.);
#670=EDGE_CURVE('',#527,#489,#284,.T.);
#671=EDGE_CURVE('',#525,#491,#285,.T.);
#672=EDGE_CURVE('',#524,#492,#286,.T.);
#673=EDGE_CURVE('',#531,#485,#287,.T.);
#674=EDGE_CURVE('',#530,#486,#288,.T.);
#675=EDGE_CURVE('',#529,#487,#289,.T.);
#676=EDGE_CURVE('',#528,#488,#290,.T.);
#677=EDGE_CURVE('',#516,#459,#291,.T.);
#678=EDGE_CURVE('',#517,#458,#292,.T.);
#679=EDGE_CURVE('',#515,#460,#293,.T.);
#680=EDGE_CURVE('',#514,#461,#294,.T.);
#681=EDGE_CURVE('',#519,#456,#295,.T.);
#682=EDGE_CURVE('',#518,#457,#296,.T.);
#683=EDGE_CURVE('',#472,#505,#297,.T.);
#684=EDGE_CURVE('',#504,#473,#298,.T.);
#685=EDGE_CURVE('',#513,#464,#299,.T.);
#686=EDGE_CURVE('',#467,#510,#300,.T.);
#687=EDGE_CURVE('',#509,#468,#301,.T.);
#688=EDGE_CURVE('',#511,#466,#302,.T.);
#689=EDGE_CURVE('',#497,#545,#303,.T.);
#690=EDGE_CURVE('',#496,#544,#304,.T.);
#691=EDGE_CURVE('',#495,#543,#305,.T.);
#692=EDGE_CURVE('',#494,#542,#306,.T.);
#693=EDGE_CURVE('',#493,#541,#307,.T.);
#694=EDGE_CURVE('',#506,#471,#308,.T.);
#695=EDGE_CURVE('',#507,#470,#309,.T.);
#696=EDGE_CURVE('',#508,#469,#310,.T.);
#697=EDGE_CURVE('',#512,#465,#311,.T.);
#698=EDGE_CURVE('',#546,#547,#312,.T.);
#699=EDGE_CURVE('',#547,#548,#313,.T.);
#700=EDGE_CURVE('',#548,#549,#314,.T.);
#701=EDGE_CURVE('',#549,#546,#315,.T.);
#702=EDGE_CURVE('',#550,#551,#316,.T.);
#703=EDGE_CURVE('',#551,#552,#317,.T.);
#704=EDGE_CURVE('',#552,#553,#318,.T.);
#705=EDGE_CURVE('',#553,#550,#319,.T.);
#706=EDGE_CURVE('',#551,#546,#320,.T.);
#707=EDGE_CURVE('',#552,#549,#321,.T.);
#708=EDGE_CURVE('',#553,#548,#322,.T.);
#709=EDGE_CURVE('',#550,#547,#323,.T.);
#710=ORIENTED_EDGE('',*,*,#554,.T.);
#711=ORIENTED_EDGE('',*,*,#555,.T.);
#712=ORIENTED_EDGE('',*,*,#556,.T.);
#713=ORIENTED_EDGE('',*,*,#557,.F.);
#714=ORIENTED_EDGE('',*,*,#558,.T.);
#715=ORIENTED_EDGE('',*,*,#559,.T.);
#716=ORIENTED_EDGE('',*,*,#560,.T.);
#717=ORIENTED_EDGE('',*,*,#561,.T.);
#718=ORIENTED_EDGE('',*,*,#562,.T.);
#719=ORIENTED_EDGE('',*,*,#563,.T.);
#720=ORIENTED_EDGE('',*,*,#564,.T.);
#721=ORIENTED_EDGE('',*,*,#565,.T.);
#722=ORIENTED_EDGE('',*,*,#566,.F.);
#723=ORIENTED_EDGE('',*,*,#567,.T.);
#724=ORIENTED_EDGE('',*,*,#568,.T.);
#725=ORIENTED_EDGE('',*,*,#569,.T.);
#726=ORIENTED_EDGE('',*,*,#570,.T.);
#727=ORIENTED_EDGE('',*,*,#571,.F.);
#728=ORIENTED_EDGE('',*,*,#572,.T.);
#729=ORIENTED_EDGE('',*,*,#573,.T.);
#730=ORIENTED_EDGE('',*,*,#574,.T.);
#731=ORIENTED_EDGE('',*,*,#575,.T.);
#732=ORIENTED_EDGE('',*,*,#576,.F.);
#733=ORIENTED_EDGE('',*,*,#577,.T.);
#734=ORIENTED_EDGE('',*,*,#578,.T.);
#735=ORIENTED_EDGE('',*,*,#579,.T.);
#736=ORIENTED_EDGE('',*,*,#580,.T.);
#737=ORIENTED_EDGE('',*,*,#581,.T.);
#738=ORIENTED_EDGE('',*,*,#582,.T.);
#739=ORIENTED_EDGE('',*,*,#583,.T.);
#740=ORIENTED_EDGE('',*,*,#584,.T.);
#741=ORIENTED_EDGE('',*,*,#585,.T.);
#742=ORIENTED_EDGE('',*,*,#586,.T.);
#743=ORIENTED_EDGE('',*,*,#587,.T.);
#744=ORIENTED_EDGE('',*,*,#588,.T.);
#745=ORIENTED_EDGE('',*,*,#589,.T.);
#746=ORIENTED_EDGE('',*,*,#590,.T.);
#747=ORIENTED_EDGE('',*,*,#591,.T.);
#748=ORIENTED_EDGE('',*,*,#592,.T.);
#749=ORIENTED_EDGE('',*,*,#593,.T.);
#750=ORIENTED_EDGE('',*,*,#594,.T.);
#751=ORIENTED_EDGE('',*,*,#595,.T.);
#752=ORIENTED_EDGE('',*,*,#596,.T.);
#753=ORIENTED_EDGE('',*,*,#597,.T.);
#754=ORIENTED_EDGE('',*,*,#598,.T.);
#755=ORIENTED_EDGE('',*,*,#599,.T.);
#756=ORIENTED_EDGE('',*,*,#600,.T.);
#757=ORIENTED_EDGE('',*,*,#601,.T.);
#758=ORIENTED_EDGE('',*,*,#602,.T.);
#759=ORIENTED_EDGE('',*,*,#603,.T.);
#760=ORIENTED_EDGE('',*,*,#604,.T.);
#761=ORIENTED_EDGE('',*,*,#557,.T.);
#762=ORIENTED_EDGE('',*,*,#605,.T.);
#763=ORIENTED_EDGE('',*,*,#606,.T.);
#764=ORIENTED_EDGE('',*,*,#607,.T.);
#765=ORIENTED_EDGE('',*,*,#566,.T.);
#766=ORIENTED_EDGE('',*,*,#608,.T.);
#767=ORIENTED_EDGE('',*,*,#609,.T.);
#768=ORIENTED_EDGE('',*,*,#610,.F.);
#769=ORIENTED_EDGE('',*,*,#611,.T.);
#770=ORIENTED_EDGE('',*,*,#612,.T.);
#771=ORIENTED_EDGE('',*,*,#613,.F.);
#772=ORIENTED_EDGE('',*,*,#614,.T.);
#773=ORIENTED_EDGE('',*,*,#615,.F.);
#774=ORIENTED_EDGE('',*,*,#616,.T.);
#775=ORIENTED_EDGE('',*,*,#617,.F.);
#776=ORIENTED_EDGE('',*,*,#618,.T.);
#777=ORIENTED_EDGE('',*,*,#619,.T.);
#778=ORIENTED_EDGE('',*,*,#606,.F.);
#779=ORIENTED_EDGE('',*,*,#620,.T.);
#780=ORIENTED_EDGE('',*,*,#621,.T.);
#781=ORIENTED_EDGE('',*,*,#622,.T.);
#782=ORIENTED_EDGE('',*,*,#623,.T.);
#783=ORIENTED_EDGE('',*,*,#624,.T.);
#784=ORIENTED_EDGE('',*,*,#625,.T.);
#785=ORIENTED_EDGE('',*,*,#626,.T.);
#786=ORIENTED_EDGE('',*,*,#627,.T.);
#787=ORIENTED_EDGE('',*,*,#603,.F.);
#788=ORIENTED_EDGE('',*,*,#628,.T.);
#789=ORIENTED_EDGE('',*,*,#629,.T.);
#790=ORIENTED_EDGE('',*,*,#630,.T.);
#791=ORIENTED_EDGE('',*,*,#631,.T.);
#792=ORIENTED_EDGE('',*,*,#632,.T.);
#793=ORIENTED_EDGE('',*,*,#633,.T.);
#794=ORIENTED_EDGE('',*,*,#634,.T.);
#795=ORIENTED_EDGE('',*,*,#635,.T.);
#796=ORIENTED_EDGE('',*,*,#636,.T.);
#797=ORIENTED_EDGE('',*,*,#637,.T.);
#798=ORIENTED_EDGE('',*,*,#638,.T.);
#799=ORIENTED_EDGE('',*,*,#639,.T.);
#800=ORIENTED_EDGE('',*,*,#640,.T.);
#801=ORIENTED_EDGE('',*,*,#641,.T.);
#802=ORIENTED_EDGE('',*,*,#642,.T.);
#803=ORIENTED_EDGE('',*,*,#643,.T.);
#804=ORIENTED_EDGE('',*,*,#644,.T.);
#805=ORIENTED_EDGE('',*,*,#645,.T.);
#806=ORIENTED_EDGE('',*,*,#646,.T.);
#807=ORIENTED_EDGE('',*,*,#647,.T.);
#808=ORIENTED_EDGE('',*,*,#648,.T.);
#809=ORIENTED_EDGE('',*,*,#649,.F.);
#810=ORIENTED_EDGE('',*,*,#650,.F.);
#811=ORIENTED_EDGE('',*,*,#651,.F.);
#812=ORIENTED_EDGE('',*,*,#652,.F.);
#813=ORIENTED_EDGE('',*,*,#653,.F.);
#814=ORIENTED_EDGE('',*,*,#654,.T.);
#815=ORIENTED_EDGE('',*,*,#558,.F.);
#816=ORIENTED_EDGE('',*,*,#604,.F.);
#817=ORIENTED_EDGE('',*,*,#627,.F.);
#818=ORIENTED_EDGE('',*,*,#608,.F.);
#819=ORIENTED_EDGE('',*,*,#655,.T.);
#820=ORIENTED_EDGE('',*,*,#554,.F.);
#821=ORIENTED_EDGE('',*,*,#656,.F.);
#822=ORIENTED_EDGE('',*,*,#629,.F.);
#823=ORIENTED_EDGE('',*,*,#657,.T.);
#824=ORIENTED_EDGE('',*,*,#555,.F.);
#825=ORIENTED_EDGE('',*,*,#655,.F.);
#826=ORIENTED_EDGE('',*,*,#628,.F.);
#827=ORIENTED_EDGE('',*,*,#602,.F.);
#828=ORIENTED_EDGE('',*,*,#556,.F.);
#829=ORIENTED_EDGE('',*,*,#657,.F.);
#830=ORIENTED_EDGE('',*,*,#630,.F.);
#831=ORIENTED_EDGE('',*,*,#658,.T.);
#832=ORIENTED_EDGE('',*,*,#578,.F.);
#833=ORIENTED_EDGE('',*,*,#659,.F.);
#834=ORIENTED_EDGE('',*,*,#648,.F.);
#835=ORIENTED_EDGE('',*,*,#660,.T.);
#836=ORIENTED_EDGE('',*,*,#579,.F.);
#837=ORIENTED_EDGE('',*,*,#658,.F.);
#838=ORIENTED_EDGE('',*,*,#647,.F.);
#839=ORIENTED_EDGE('',*,*,#661,.T.);
#840=ORIENTED_EDGE('',*,*,#580,.F.);
#841=ORIENTED_EDGE('',*,*,#660,.F.);
#842=ORIENTED_EDGE('',*,*,#646,.F.);
#843=ORIENTED_EDGE('',*,*,#662,.T.);
#844=ORIENTED_EDGE('',*,*,#581,.F.);
#845=ORIENTED_EDGE('',*,*,#661,.F.);
#846=ORIENTED_EDGE('',*,*,#645,.F.);
#847=ORIENTED_EDGE('',*,*,#663,.T.);
#848=ORIENTED_EDGE('',*,*,#582,.F.);
#849=ORIENTED_EDGE('',*,*,#662,.F.);
#850=ORIENTED_EDGE('',*,*,#644,.F.);
#851=ORIENTED_EDGE('',*,*,#664,.T.);
#852=ORIENTED_EDGE('',*,*,#583,.F.);
#853=ORIENTED_EDGE('',*,*,#663,.F.);
#854=ORIENTED_EDGE('',*,*,#643,.F.);
#855=ORIENTED_EDGE('',*,*,#665,.T.);
#856=ORIENTED_EDGE('',*,*,#584,.F.);
#857=ORIENTED_EDGE('',*,*,#664,.F.);
#858=ORIENTED_EDGE('',*,*,#642,.F.);
#859=ORIENTED_EDGE('',*,*,#666,.T.);
#860=ORIENTED_EDGE('',*,*,#585,.F.);
#861=ORIENTED_EDGE('',*,*,#665,.F.);
#862=ORIENTED_EDGE('',*,*,#641,.F.);
#863=ORIENTED_EDGE('',*,*,#667,.T.);
#864=ORIENTED_EDGE('',*,*,#586,.F.);
#865=ORIENTED_EDGE('',*,*,#666,.F.);
#866=ORIENTED_EDGE('',*,*,#640,.F.);
#867=ORIENTED_EDGE('',*,*,#668,.T.);
#868=ORIENTED_EDGE('',*,*,#587,.F.);
#869=ORIENTED_EDGE('',*,*,#667,.F.);
#870=ORIENTED_EDGE('',*,*,#634,.F.);
#871=ORIENTED_EDGE('',*,*,#669,.T.);
#872=ORIENTED_EDGE('',*,*,#593,.F.);
#873=ORIENTED_EDGE('',*,*,#670,.F.);
#874=ORIENTED_EDGE('',*,*,#633,.F.);
#875=ORIENTED_EDGE('',*,*,#671,.T.);
#876=ORIENTED_EDGE('',*,*,#594,.F.);
#877=ORIENTED_EDGE('',*,*,#669,.F.);
#878=ORIENTED_EDGE('',*,*,#632,.F.);
#879=ORIENTED_EDGE('',*,*,#672,.T.);
#880=ORIENTED_EDGE('',*,*,#595,.F.);
#881=ORIENTED_EDGE('',*,*,#671,.F.);
#882=ORIENTED_EDGE('',*,*,#631,.F.);
#883=ORIENTED_EDGE('',*,*,#659,.T.);
#884=ORIENTED_EDGE('',*,*,#596,.F.);
#885=ORIENTED_EDGE('',*,*,#672,.F.);
#886=ORIENTED_EDGE('',*,*,#639,.F.);
#887=ORIENTED_EDGE('',*,*,#673,.T.);
#888=ORIENTED_EDGE('',*,*,#588,.F.);
#889=ORIENTED_EDGE('',*,*,#668,.F.);
#890=ORIENTED_EDGE('',*,*,#638,.F.);
#891=ORIENTED_EDGE('',*,*,#674,.T.);
#892=ORIENTED_EDGE('',*,*,#589,.F.);
#893=ORIENTED_EDGE('',*,*,#673,.F.);
#894=ORIENTED_EDGE('',*,*,#637,.F.);
#895=ORIENTED_EDGE('',*,*,#675,.T.);
#896=ORIENTED_EDGE('',*,*,#590,.F.);
#897=ORIENTED_EDGE('',*,*,#674,.F.);
#898=ORIENTED_EDGE('',*,*,#636,.F.);
#899=ORIENTED_EDGE('',*,*,#676,.T.);
#900=ORIENTED_EDGE('',*,*,#591,.F.);
#901=ORIENTED_EDGE('',*,*,#675,.F.);
#902=ORIENTED_EDGE('',*,*,#635,.F.);
#903=ORIENTED_EDGE('',*,*,#670,.T.);
#904=ORIENTED_EDGE('',*,*,#592,.F.);
#905=ORIENTED_EDGE('',*,*,#676,.F.);
#906=ORIENTED_EDGE('',*,*,#623,.F.);
#907=ORIENTED_EDGE('',*,*,#677,.T.);
#908=ORIENTED_EDGE('',*,*,#562,.F.);
#909=ORIENTED_EDGE('',*,*,#678,.F.);
#910=ORIENTED_EDGE('',*,*,#622,.F.);
#911=ORIENTED_EDGE('',*,*,#679,.T.);
#912=ORIENTED_EDGE('',*,*,#563,.F.);
#913=ORIENTED_EDGE('',*,*,#677,.F.);
#914=ORIENTED_EDGE('',*,*,#621,.F.);
#915=ORIENTED_EDGE('',*,*,#680,.T.);
#916=ORIENTED_EDGE('',*,*,#564,.F.);
#917=ORIENTED_EDGE('',*,*,#679,.F.);
#918=ORIENTED_EDGE('',*,*,#620,.F.);
#919=ORIENTED_EDGE('',*,*,#605,.F.);
#920=ORIENTED_EDGE('',*,*,#565,.F.);
#921=ORIENTED_EDGE('',*,*,#680,.F.);
#922=ORIENTED_EDGE('',*,*,#626,.F.);
#923=ORIENTED_EDGE('',*,*,#681,.T.);
#924=ORIENTED_EDGE('',*,*,#559,.F.);
#925=ORIENTED_EDGE('',*,*,#654,.F.);
#926=ORIENTED_EDGE('',*,*,#625,.F.);
#927=ORIENTED_EDGE('',*,*,#682,.T.);
#928=ORIENTED_EDGE('',*,*,#560,.F.);
#929=ORIENTED_EDGE('',*,*,#681,.F.);
#930=ORIENTED_EDGE('',*,*,#624,.F.);
#931=ORIENTED_EDGE('',*,*,#678,.T.);
#932=ORIENTED_EDGE('',*,*,#561,.F.);
#933=ORIENTED_EDGE('',*,*,#682,.F.);
#934=ORIENTED_EDGE('',*,*,#576,.T.);
#935=ORIENTED_EDGE('',*,*,#683,.T.);
#936=ORIENTED_EDGE('',*,*,#610,.T.);
#937=ORIENTED_EDGE('',*,*,#684,.T.);
#938=ORIENTED_EDGE('',*,*,#656,.T.);
#939=ORIENTED_EDGE('',*,*,#577,.F.);
#940=ORIENTED_EDGE('',*,*,#684,.F.);
#941=ORIENTED_EDGE('',*,*,#609,.F.);
#942=ORIENTED_EDGE('',*,*,#607,.F.);
#943=ORIENTED_EDGE('',*,*,#619,.F.);
#944=ORIENTED_EDGE('',*,*,#685,.T.);
#945=ORIENTED_EDGE('',*,*,#567,.F.);
#946=ORIENTED_EDGE('',*,*,#571,.T.);
#947=ORIENTED_EDGE('',*,*,#686,.T.);
#948=ORIENTED_EDGE('',*,*,#615,.T.);
#949=ORIENTED_EDGE('',*,*,#687,.T.);
#950=ORIENTED_EDGE('',*,*,#686,.F.);
#951=ORIENTED_EDGE('',*,*,#570,.F.);
#952=ORIENTED_EDGE('',*,*,#688,.F.);
#953=ORIENTED_EDGE('',*,*,#616,.F.);
#954=ORIENTED_EDGE('',*,*,#601,.F.);
#955=ORIENTED_EDGE('',*,*,#689,.T.);
#956=ORIENTED_EDGE('',*,*,#653,.T.);
#957=ORIENTED_EDGE('',*,*,#689,.F.);
#958=ORIENTED_EDGE('',*,*,#600,.F.);
#959=ORIENTED_EDGE('',*,*,#690,.T.);
#960=ORIENTED_EDGE('',*,*,#652,.T.);
#961=ORIENTED_EDGE('',*,*,#690,.F.);
#962=ORIENTED_EDGE('',*,*,#599,.F.);
#963=ORIENTED_EDGE('',*,*,#691,.T.);
#964=ORIENTED_EDGE('',*,*,#651,.T.);
#965=ORIENTED_EDGE('',*,*,#691,.F.);
#966=ORIENTED_EDGE('',*,*,#598,.F.);
#967=ORIENTED_EDGE('',*,*,#692,.T.);
#968=ORIENTED_EDGE('',*,*,#650,.T.);
#969=ORIENTED_EDGE('',*,*,#692,.F.);
#970=ORIENTED_EDGE('',*,*,#597,.F.);
#971=ORIENTED_EDGE('',*,*,#693,.T.);
#972=ORIENTED_EDGE('',*,*,#649,.T.);
#973=ORIENTED_EDGE('',*,*,#693,.F.);
#974=ORIENTED_EDGE('',*,*,#683,.F.);
#975=ORIENTED_EDGE('',*,*,#575,.F.);
#976=ORIENTED_EDGE('',*,*,#694,.F.);
#977=ORIENTED_EDGE('',*,*,#611,.F.);
#978=ORIENTED_EDGE('',*,*,#612,.F.);
#979=ORIENTED_EDGE('',*,*,#694,.T.);
#980=ORIENTED_EDGE('',*,*,#574,.F.);
#981=ORIENTED_EDGE('',*,*,#695,.F.);
#982=ORIENTED_EDGE('',*,*,#613,.T.);
#983=ORIENTED_EDGE('',*,*,#695,.T.);
#984=ORIENTED_EDGE('',*,*,#573,.F.);
#985=ORIENTED_EDGE('',*,*,#696,.F.);
#986=ORIENTED_EDGE('',*,*,#687,.F.);
#987=ORIENTED_EDGE('',*,*,#614,.F.);
#988=ORIENTED_EDGE('',*,*,#696,.T.);
#989=ORIENTED_EDGE('',*,*,#572,.F.);
#990=ORIENTED_EDGE('',*,*,#617,.T.);
#991=ORIENTED_EDGE('',*,*,#688,.T.);
#992=ORIENTED_EDGE('',*,*,#569,.F.);
#993=ORIENTED_EDGE('',*,*,#697,.F.);
#994=ORIENTED_EDGE('',*,*,#618,.F.);
#995=ORIENTED_EDGE('',*,*,#697,.T.);
#996=ORIENTED_EDGE('',*,*,#568,.F.);
#997=ORIENTED_EDGE('',*,*,#685,.F.);
#998=ORIENTED_EDGE('',*,*,#698,.T.);
#999=ORIENTED_EDGE('',*,*,#699,.T.);
#1000=ORIENTED_EDGE('',*,*,#700,.T.);
#1001=ORIENTED_EDGE('',*,*,#701,.T.);
#1002=ORIENTED_EDGE('',*,*,#702,.T.);
#1003=ORIENTED_EDGE('',*,*,#703,.T.);
#1004=ORIENTED_EDGE('',*,*,#704,.T.);
#1005=ORIENTED_EDGE('',*,*,#705,.T.);
#1006=ORIENTED_EDGE('',*,*,#703,.F.);
#1007=ORIENTED_EDGE('',*,*,#706,.T.);
#1008=ORIENTED_EDGE('',*,*,#701,.F.);
#1009=ORIENTED_EDGE('',*,*,#707,.F.);
#1010=ORIENTED_EDGE('',*,*,#704,.F.);
#1011=ORIENTED_EDGE('',*,*,#707,.T.);
#1012=ORIENTED_EDGE('',*,*,#700,.F.);
#1013=ORIENTED_EDGE('',*,*,#708,.F.);
#1014=ORIENTED_EDGE('',*,*,#705,.F.);
#1015=ORIENTED_EDGE('',*,*,#708,.T.);
#1016=ORIENTED_EDGE('',*,*,#699,.F.);
#1017=ORIENTED_EDGE('',*,*,#709,.F.);
#1018=ORIENTED_EDGE('',*,*,#702,.F.);
#1019=ORIENTED_EDGE('',*,*,#709,.T.);
#1020=ORIENTED_EDGE('',*,*,#698,.F.);
#1021=ORIENTED_EDGE('',*,*,#706,.F.);
#1022=PLANE('',#1134);
#1023=PLANE('',#1154);
#1024=PLANE('',#1168);
#1025=PLANE('',#1169);
#1026=PLANE('',#1171);
#1027=PLANE('',#1172);
#1028=PLANE('',#1173);
#1029=PLANE('',#1174);
#1030=PLANE('',#1175);
#1031=PLANE('',#1176);
#1032=PLANE('',#1177);
#1033=PLANE('',#1179);
#1034=PLANE('',#1181);
#1035=PLANE('',#1182);
#1036=PLANE('',#1183);
#1037=PLANE('',#1184);
#1038=PLANE('',#1186);
#1039=PLANE('',#1187);
#1040=PLANE('',#1188);
#1041=PLANE('',#1190);
#1042=PLANE('',#1191);
#1043=PLANE('',#1192);
#1044=PLANE('',#1193);
#1045=PLANE('',#1194);
#1046=PLANE('',#1195);
#1047=PLANE('',#1196);
#1048=PLANE('',#1199);
#1049=PLANE('',#1200);
#1050=PLANE('',#1202);
#1051=PLANE('',#1208);
#1052=PLANE('',#1209);
#1053=PLANE('',#1210);
#1054=PLANE('',#1211);
#1055=PLANE('',#1212);
#1056=PLANE('',#1213);
#1057=PLANE('',#1214);
#1058=PLANE('',#1215);
#1059=PLANE('',#1216);
#1060=PLANE('',#1217);
#1061=PLANE('',#1218);
#1062=PLANE('',#1219);
#1063=ADVANCED_FACE('',(#44,#32,#33,#34,#35,#36,#37),#1022,.T.);
#1064=ADVANCED_FACE('',(#45),#17,.T.);
#1065=ADVANCED_FACE('',(#46),#18,.T.);
#1066=ADVANCED_FACE('',(#47,#38,#39,#40,#41,#42,#43),#1023,.F.);
#1067=ADVANCED_FACE('',(#48),#1024,.T.);
#1068=ADVANCED_FACE('',(#49),#1025,.F.);
#1069=ADVANCED_FACE('',(#50),#19,.F.);
#1070=ADVANCED_FACE('',(#51),#1026,.F.);
#1071=ADVANCED_FACE('',(#52),#1027,.F.);
#1072=ADVANCED_FACE('',(#53),#1028,.F.);
#1073=ADVANCED_FACE('',(#54),#1029,.F.);
#1074=ADVANCED_FACE('',(#55),#1030,.F.);
#1075=ADVANCED_FACE('',(#56),#1031,.F.);
#1076=ADVANCED_FACE('',(#57),#1032,.F.);
#1077=ADVANCED_FACE('',(#58),#20,.F.);
#1078=ADVANCED_FACE('',(#59),#1033,.F.);
#1079=ADVANCED_FACE('',(#60),#21,.F.);
#1080=ADVANCED_FACE('',(#61),#1034,.F.);
#1081=ADVANCED_FACE('',(#62),#1035,.F.);
#1082=ADVANCED_FACE('',(#63),#1036,.F.);
#1083=ADVANCED_FACE('',(#64),#1037,.F.);
#1084=ADVANCED_FACE('',(#65),#22,.F.);
#1085=ADVANCED_FACE('',(#66),#1038,.F.);
#1086=ADVANCED_FACE('',(#67),#1039,.F.);
#1087=ADVANCED_FACE('',(#68),#1040,.F.);
#1088=ADVANCED_FACE('',(#69),#23,.F.);
#1089=ADVANCED_FACE('',(#70),#1041,.F.);
#1090=ADVANCED_FACE('',(#71),#1042,.F.);
#1091=ADVANCED_FACE('',(#72),#1043,.F.);
#1092=ADVANCED_FACE('',(#73),#1044,.F.);
#1093=ADVANCED_FACE('',(#74),#1045,.F.);
#1094=ADVANCED_FACE('',(#75),#1046,.F.);
#1095=ADVANCED_FACE('',(#76),#1047,.F.);
#1096=ADVANCED_FACE('',(#77),#24,.F.);
#1097=ADVANCED_FACE('',(#78),#25,.T.);
#1098=ADVANCED_FACE('',(#79),#1048,.T.);
#1099=ADVANCED_FACE('',(#80),#1049,.T.);
#1100=ADVANCED_FACE('',(#81),#26,.T.);
#1101=ADVANCED_FACE('',(#82),#1050,.T.);
#1102=ADVANCED_FACE('',(#83),#27,.F.);
#1103=ADVANCED_FACE('',(#84),#28,.F.);
#1104=ADVANCED_FACE('',(#85),#29,.F.);
#1105=ADVANCED_FACE('',(#86),#30,.F.);
#1106=ADVANCED_FACE('',(#87),#31,.F.);
#1107=ADVANCED_FACE('',(#88),#1051,.T.);
#1108=ADVANCED_FACE('',(#89),#1052,.T.);
#1109=ADVANCED_FACE('',(#90),#1053,.T.);
#1110=ADVANCED_FACE('',(#91),#1054,.T.);
#1111=ADVANCED_FACE('',(#92),#1055,.T.);
#1112=ADVANCED_FACE('',(#93),#1056,.T.);
#1113=ADVANCED_FACE('',(#94),#1057,.T.);
#1114=ADVANCED_FACE('',(#95),#1058,.F.);
#1115=ADVANCED_FACE('',(#96),#1059,.F.);
#1116=ADVANCED_FACE('',(#97),#1060,.F.);
#1117=ADVANCED_FACE('',(#98),#1061,.F.);
#1118=ADVANCED_FACE('',(#99),#1062,.F.);
#1119=CLOSED_SHELL('',(#1063,#1064,#1065,#1066,#1067,#1068,#1069,#1070,
#1071,#1072,#1073,#1074,#1075,#1076,#1077,#1078,#1079,#1080,#1081,#1082,
#1083,#1084,#1085,#1086,#1087,#1088,#1089,#1090,#1091,#1092,#1093,#1094,
#1095,#1096,#1097,#1098,#1099,#1100,#1101,#1102,#1103,#1104,#1105,#1106,
#1107,#1108,#1109,#1110,#1111,#1112));
#1120=CLOSED_SHELL('',(#1113,#1114,#1115,#1116,#1117,#1118));
#1121=DERIVED_UNIT_ELEMENT(#1123,1.);
#1122=DERIVED_UNIT_ELEMENT(#1842,-3.);
#1123=(
MASS_UNIT()
NAMED_UNIT(*)
SI_UNIT(.KILO.,.GRAM.)
);
#1124=DERIVED_UNIT((#1121,#1122));
#1125=MEASURE_REPRESENTATION_ITEM('density measure',
POSITIVE_RATIO_MEASURE(7850.),#1124);
#1126=PROPERTY_DEFINITION_REPRESENTATION(#1131,#1128);
#1127=PROPERTY_DEFINITION_REPRESENTATION(#1132,#1129);
#1128=REPRESENTATION('material name',(#1130),#1839);
#1129=REPRESENTATION('density',(#1125),#1839);
#1130=DESCRIPTIVE_REPRESENTATION_ITEM('Steel','Steel');
#1131=PROPERTY_DEFINITION('material property','material name',#1849);
#1132=PROPERTY_DEFINITION('material property','density of part',#1849);
#1133=AXIS2_PLACEMENT_3D('',#1520,#1220,#1221);
#1134=AXIS2_PLACEMENT_3D('',#1521,#1222,#1223);
#1135=AXIS2_PLACEMENT_3D('',#1526,#1225,#1226);
#1136=AXIS2_PLACEMENT_3D('',#1530,#1228,#1229);
#1137=AXIS2_PLACEMENT_3D('',#1538,#1233,#1234);
#1138=AXIS2_PLACEMENT_3D('',#1548,#1239,#1240);
#1139=AXIS2_PLACEMENT_3D('',#1558,#1245,#1246);
#1140=AXIS2_PLACEMENT_3D('',#1568,#1251,#1252);
#1141=AXIS2_PLACEMENT_3D('',#1584,#1260,#1261);
#1142=AXIS2_PLACEMENT_3D('',#1588,#1263,#1264);
#1143=AXIS2_PLACEMENT_3D('',#1598,#1269,#1270);
#1144=AXIS2_PLACEMENT_3D('',#1607,#1275,#1276);
#1145=AXIS2_PLACEMENT_3D('',#1609,#1277,#1278);
#1146=AXIS2_PLACEMENT_3D('',#1611,#1279,#1280);
#1147=AXIS2_PLACEMENT_3D('',#1613,#1281,#1282);
#1148=AXIS2_PLACEMENT_3D('',#1615,#1283,#1284);
#1149=AXIS2_PLACEMENT_3D('',#1617,#1285,#1286);
#1150=AXIS2_PLACEMENT_3D('',#1618,#1287,#1288);
#1151=AXIS2_PLACEMENT_3D('',#1622,#1290,#1291);
#1152=AXIS2_PLACEMENT_3D('',#1624,#1293,#1294);
#1153=AXIS2_PLACEMENT_3D('',#1628,#1296,#1297);
#1154=AXIS2_PLACEMENT_3D('',#1630,#1299,#1300);
#1155=AXIS2_PLACEMENT_3D('',#1637,#1303,#1304);
#1156=AXIS2_PLACEMENT_3D('',#1647,#1309,#1310);
#1157=AXIS2_PLACEMENT_3D('',#1664,#1319,#1320);
#1158=AXIS2_PLACEMENT_3D('',#1672,#1325,#1326);
#1159=AXIS2_PLACEMENT_3D('',#1677,#1328,#1329);
#1160=AXIS2_PLACEMENT_3D('',#1687,#1334,#1335);
#1161=AXIS2_PLACEMENT_3D('',#1697,#1340,#1341);
#1162=AXIS2_PLACEMENT_3D('',#1701,#1343,#1344);
#1163=AXIS2_PLACEMENT_3D('',#1712,#1350,#1351);
#1164=AXIS2_PLACEMENT_3D('',#1714,#1352,#1353);
#1165=AXIS2_PLACEMENT_3D('',#1716,#1354,#1355);
#1166=AXIS2_PLACEMENT_3D('',#1718,#1356,#1357);
#1167=AXIS2_PLACEMENT_3D('',#1720,#1358,#1359);
#1168=AXIS2_PLACEMENT_3D('',#1721,#1360,#1361);
#1169=AXIS2_PLACEMENT_3D('',#1723,#1363,#1364);
#1170=AXIS2_PLACEMENT_3D('',#1726,#1367,#1368);
#1171=AXIS2_PLACEMENT_3D('',#1728,#1370,#1371);
#1172=AXIS2_PLACEMENT_3D('',#1729,#1372,#1373);
#1173=AXIS2_PLACEMENT_3D('',#1732,#1376,#1377);
#1174=AXIS2_PLACEMENT_3D('',#1734,#1379,#1380);
#1175=AXIS2_PLACEMENT_3D('',#1736,#1382,#1383);
#1176=AXIS2_PLACEMENT_3D('',#1738,#1385,#1386);
#1177=AXIS2_PLACEMENT_3D('',#1740,#1388,#1389);
#1178=AXIS2_PLACEMENT_3D('',#1742,#1391,#1392);
#1179=AXIS2_PLACEMENT_3D('',#1744,#1394,#1395);
#1180=AXIS2_PLACEMENT_3D('',#1746,#1397,#1398);
#1181=AXIS2_PLACEMENT_3D('',#1748,#1400,#1401);
#1182=AXIS2_PLACEMENT_3D('',#1750,#1403,#1404);
#1183=AXIS2_PLACEMENT_3D('',#1753,#1407,#1408);
#1184=AXIS2_PLACEMENT_3D('',#1755,#1410,#1411);
#1185=AXIS2_PLACEMENT_3D('',#1757,#1413,#1414);
#1186=AXIS2_PLACEMENT_3D('',#1758,#1415,#1416);
#1187=AXIS2_PLACEMENT_3D('',#1760,#1418,#1419);
#1188=AXIS2_PLACEMENT_3D('',#1762,#1421,#1422);
#1189=AXIS2_PLACEMENT_3D('',#1764,#1424,#1425);
#1190=AXIS2_PLACEMENT_3D('',#1766,#1427,#1428);
#1191=AXIS2_PLACEMENT_3D('',#1767,#1429,#1430);
#1192=AXIS2_PLACEMENT_3D('',#1770,#1433,#1434);
#1193=AXIS2_PLACEMENT_3D('',#1772,#1436,#1437);
#1194=AXIS2_PLACEMENT_3D('',#1774,#1439,#1440);
#1195=AXIS2_PLACEMENT_3D('',#1775,#1441,#1442);
#1196=AXIS2_PLACEMENT_3D('',#1777,#1444,#1445);
#1197=AXIS2_PLACEMENT_3D('',#1779,#1447,#1448);
#1198=AXIS2_PLACEMENT_3D('',#1780,#1449,#1450);
#1199=AXIS2_PLACEMENT_3D('',#1783,#1453,#1454);
#1200=AXIS2_PLACEMENT_3D('',#1784,#1455,#1456);
#1201=AXIS2_PLACEMENT_3D('',#1786,#1458,#1459);
#1202=AXIS2_PLACEMENT_3D('',#1789,#1462,#1463);
#1203=AXIS2_PLACEMENT_3D('',#1791,#1465,#1466);
#1204=AXIS2_PLACEMENT_3D('',#1793,#1468,#1469);
#1205=AXIS2_PLACEMENT_3D('',#1795,#1471,#1472);
#1206=AXIS2_PLACEMENT_3D('',#1797,#1474,#1475);
#1207=AXIS2_PLACEMENT_3D('',#1799,#1477,#1478);
#1208=AXIS2_PLACEMENT_3D('',#1801,#1480,#1481);
#1209=AXIS2_PLACEMENT_3D('',#1803,#1483,#1484);
#1210=AXIS2_PLACEMENT_3D('',#1805,#1486,#1487);
#1211=AXIS2_PLACEMENT_3D('',#1807,#1489,#1490);
#1212=AXIS2_PLACEMENT_3D('',#1808,#1491,#1492);
#1213=AXIS2_PLACEMENT_3D('',#1810,#1494,#1495);
#1214=AXIS2_PLACEMENT_3D('',#1811,#1496,#1497);
#1215=AXIS2_PLACEMENT_3D('',#1820,#1502,#1503);
#1216=AXIS2_PLACEMENT_3D('',#1829,#1508,#1509);
#1217=AXIS2_PLACEMENT_3D('',#1832,#1512,#1513);
#1218=AXIS2_PLACEMENT_3D('',#1834,#1515,#1516);
#1219=AXIS2_PLACEMENT_3D('',#1836,#1518,#1519);
#1220=DIRECTION('axis',(0.,0.,1.));
#1221=DIRECTION('refdir',(1.,0.,0.));
#1222=DIRECTION('center_axis',(0.,0.,1.));
#1223=DIRECTION('ref_axis',(1.,0.,0.));
#1224=DIRECTION('',(-0.895334399954823,-0.445394557956803,0.));
#1225=DIRECTION('center_axis',(0.,0.,-1.));
#1226=DIRECTION('ref_axis',(1.,0.,0.));
#1227=DIRECTION('',(0.895334399954823,0.445394557956803,0.));
#1228=DIRECTION('center_axis',(0.,0.,-1.));
#1229=DIRECTION('ref_axis',(0.707106781186548,0.707106781186548,0.));
#1230=DIRECTION('',(-1.,0.,0.));
#1231=DIRECTION('',(0.440073050983984,-0.897961975696994,0.));
#1232=DIRECTION('',(0.969334266292476,0.245745966785272,0.));
#1233=DIRECTION('center_axis',(0.,0.,-1.));
#1234=DIRECTION('ref_axis',(1.,0.,0.));
#1235=DIRECTION('',(-0.969334266292476,-0.245745966785272,0.));
#1236=DIRECTION('',(-0.245745966785272,0.969334266292476,0.));
#1237=DIRECTION('',(0.969334266292476,0.245745966785272,0.));
#1238=DIRECTION('',(-0.440073050983984,0.897961975696994,0.));
#1239=DIRECTION('center_axis',(0.,0.,-1.));
#1240=DIRECTION('ref_axis',(-0.707106781186548,0.707106781186548,0.));
#1241=DIRECTION('',(0.,-1.,0.));
#1242=DIRECTION('',(0.832050341388611,-0.554700125649072,0.));
#1243=DIRECTION('',(-0.832050341388611,-0.554700125649072,0.));
#1244=DIRECTION('',(0.,-1.,0.));
#1245=DIRECTION('center_axis',(0.,0.,-1.));
#1246=DIRECTION('ref_axis',(-0.707106781186547,-0.707106781186548,0.));
#1247=DIRECTION('',(1.,0.,0.));
#1248=DIRECTION('',(0.554700196225229,0.832050294337844,0.));
#1249=DIRECTION('',(0.554700196225229,-0.832050294337844,0.));
#1250=DIRECTION('',(1.,0.,0.));
#1251=DIRECTION('center_axis',(0.,0.,-1.));
#1252=DIRECTION('ref_axis',(0.707106781186548,-0.707106781186547,0.));
#1253=DIRECTION('',(0.,1.,0.));
#1254=DIRECTION('',(-0.93966260416399,-0.342102602059309,0.));
#1255=DIRECTION('',(-0.336872041325863,0.941550438252219,0.));
#1256=DIRECTION('',(0.939662604163944,0.342102602059434,0.));
#1257=DIRECTION('',(-0.342102602059327,0.939662604163983,0.));
#1258=DIRECTION('',(-0.973757228081096,-0.227589236915588,0.));
#1259=DIRECTION('',(-0.227589236915588,0.973757228081096,0.));
#1260=DIRECTION('center_axis',(0.,0.,-1.));
#1261=DIRECTION('ref_axis',(1.,0.,0.));
#1262=DIRECTION('',(0.227589236915588,-0.973757228081096,0.));
#1263=DIRECTION('center_axis',(0.,0.,-1.));
#1264=DIRECTION('ref_axis',(1.,0.,0.));
#1265=DIRECTION('',(0.990612208097564,0.136702059853057,0.));
#1266=DIRECTION('',(-0.158230693526281,0.987402171167449,0.));
#1267=DIRECTION('',(0.987402171167449,0.158230693526281,0.));
#1268=DIRECTION('',(0.158230693526281,-0.987402171167449,0.));
#1269=DIRECTION('center_axis',(0.,0.,-1.));
#1270=DIRECTION('ref_axis',(1.,0.,0.));
#1271=DIRECTION('',(-0.158230693526281,0.987402171167449,0.));
#1272=DIRECTION('',(-0.990612208097564,-0.136702059853057,0.));
#1273=DIRECTION('',(0.136702059853057,-0.990612208097564,0.));
#1274=DIRECTION('',(-0.990612208097564,-0.136702059853057,0.));
#1275=DIRECTION('center_axis',(0.,0.,-1.));
#1276=DIRECTION('ref_axis',(1.,0.,0.));
#1277=DIRECTION('center_axis',(0.,0.,-1.));
#1278=DIRECTION('ref_axis',(1.,0.,0.));
#1279=DIRECTION('center_axis',(0.,0.,-1.));
#1280=DIRECTION('ref_axis',(1.,0.,0.));
#1281=DIRECTION('center_axis',(0.,0.,-1.));
#1282=DIRECTION('ref_axis',(1.,0.,0.));
#1283=DIRECTION('center_axis',(0.,0.,-1.));
#1284=DIRECTION('ref_axis',(1.,0.,0.));
#1285=DIRECTION('center_axis',(0.,0.,-1.));
#1286=DIRECTION('ref_axis',(1.,0.,0.));
#1287=DIRECTION('center_axis',(0.,0.,1.));
#1288=DIRECTION('ref_axis',(0.707106781186548,0.707106781186548,0.));
#1289=DIRECTION('',(0.,0.,-1.));
#1290=DIRECTION('center_axis',(0.,0.,1.));
#1291=DIRECTION('ref_axis',(0.707106781186548,0.707106781186548,0.));
#1292=DIRECTION('',(0.,0.,1.));
#1293=DIRECTION('center_axis',(0.,0.,1.));
#1294=DIRECTION('ref_axis',(-0.707106781186548,0.707106781186548,0.));
#1295=DIRECTION('',(0.,0.,-1.));
#1296=DIRECTION('center_axis',(0.,0.,1.));
#1297=DIRECTION('ref_axis',(-0.707106781186548,0.707106781186548,0.));
#1298=DIRECTION('',(0.,0.,1.));
#1299=DIRECTION('center_axis',(0.,0.,1.));
#1300=DIRECTION('ref_axis',(1.,0.,0.));
#1301=DIRECTION('',(0.895334399954823,0.445394557956803,0.));
#1302=DIRECTION('',(0.,-1.,0.));
#1303=DIRECTION('center_axis',(0.,0.,1.));
#1304=DIRECTION('ref_axis',(0.707106781186548,-0.707106781186547,0.));
#1305=DIRECTION('',(-1.,0.,0.));
#1306=DIRECTION('',(-0.554700196225229,0.832050294337844,0.));
#1307=DIRECTION('',(0.554700196225229,0.832050294337844,0.));
#1308=DIRECTION('',(-1.,0.,0.));
#1309=DIRECTION('center_axis',(0.,0.,1.));
#1310=DIRECTION('ref_axis',(-0.707106781186547,-0.707106781186548,0.));
#1311=DIRECTION('',(0.,1.,0.));
#1312=DIRECTION('',(-0.832050341388611,-0.554700125649072,0.));
#1313=DIRECTION('',(-0.832050341388611,0.554700125649072,0.));
#1314=DIRECTION('',(0.,1.,0.));
#1315=DIRECTION('',(0.440073050983984,-0.897961975696994,0.));
#1316=DIRECTION('',(-0.969334266292476,-0.245745966785272,0.));
#1317=DIRECTION('',(0.245745966785272,-0.969334266292476,0.));
#1318=DIRECTION('',(0.969334266292476,0.245745966785272,0.));
#1319=DIRECTION('center_axis',(0.,0.,1.));
#1320=DIRECTION('ref_axis',(1.,0.,0.));
#1321=DIRECTION('',(-0.969334266292476,-0.245745966785272,0.));
#1322=DIRECTION('',(-0.440073050983984,0.897961975696994,0.));
#1323=DIRECTION('',(1.,0.,0.));
#1324=DIRECTION('',(-0.895334399954823,-0.445394557956803,0.));
#1325=DIRECTION('center_axis',(0.,0.,1.));
#1326=DIRECTION('ref_axis',(1.,0.,0.));
#1327=DIRECTION('',(0.93966260416399,0.342102602059309,0.));
#1328=DIRECTION('center_axis',(0.,0.,1.));
#1329=DIRECTION('ref_axis',(1.,0.,0.));
#1330=DIRECTION('',(0.990612208097564,0.136702059853057,0.));
#1331=DIRECTION('',(-0.136702059853057,0.990612208097564,0.));
#1332=DIRECTION('',(0.990612208097564,0.136702059853057,0.));
#1333=DIRECTION('',(0.158230693526281,-0.987402171167449,0.));
#1334=DIRECTION('center_axis',(0.,0.,1.));
#1335=DIRECTION('ref_axis',(1.,0.,0.));
#1336=DIRECTION('',(-0.158230693526281,0.987402171167449,0.));
#1337=DIRECTION('',(-0.987402171167449,-0.158230693526281,0.));
#1338=DIRECTION('',(0.158230693526281,-0.987402171167449,0.));
#1339=DIRECTION('',(-0.990612208097564,-0.136702059853057,0.));
#1340=DIRECTION('center_axis',(0.,0.,1.));
#1341=DIRECTION('ref_axis',(1.,0.,0.));
#1342=DIRECTION('',(-0.227589236915588,0.973757228081096,0.));
#1343=DIRECTION('center_axis',(0.,0.,1.));
#1344=DIRECTION('ref_axis',(1.,0.,0.));
#1345=DIRECTION('',(0.227589236915588,-0.973757228081096,0.));
#1346=DIRECTION('',(0.973757228081096,0.227589236915588,0.));
#1347=DIRECTION('',(0.342102602059327,-0.939662604163983,0.));
#1348=DIRECTION('',(-0.939662604163944,-0.342102602059434,0.));
#1349=DIRECTION('',(0.336872041325863,-0.941550438252219,0.));
#1350=DIRECTION('center_axis',(0.,0.,-1.));
#1351=DIRECTION('ref_axis',(1.,0.,0.));
#1352=DIRECTION('center_axis',(0.,0.,-1.));
#1353=DIRECTION('ref_axis',(1.,0.,0.));
#1354=DIRECTION('center_axis',(0.,0.,-1.));
#1355=DIRECTION('ref_axis',(1.,0.,0.));
#1356=DIRECTION('center_axis',(0.,0.,-1.));
#1357=DIRECTION('ref_axis',(1.,0.,0.));
#1358=DIRECTION('center_axis',(0.,0.,-1.));
#1359=DIRECTION('ref_axis',(1.,0.,0.));
#1360=DIRECTION('center_axis',(0.,1.,0.));
#1361=DIRECTION('ref_axis',(-1.,0.,0.));
#1362=DIRECTION('',(0.,0.,1.));
#1363=DIRECTION('center_axis',(0.445394557956803,-0.895334399954824,0.));
#1364=DIRECTION('ref_axis',(0.895334399954824,0.445394557956803,0.));
#1365=DIRECTION('',(0.,0.,1.));
#1366=DIRECTION('',(0.,0.,1.));
#1367=DIRECTION('center_axis',(0.,0.,1.));
#1368=DIRECTION('ref_axis',(-0.895334399954823,-0.445394557956804,0.));
#1369=DIRECTION('',(0.,0.,1.));
#1370=DIRECTION('center_axis',(-0.445394557956803,0.895334399954824,0.));
#1371=DIRECTION('ref_axis',(-0.895334399954824,-0.445394557956803,0.));
#1372=DIRECTION('center_axis',(0.342102602059309,-0.93966260416399,0.));
#1373=DIRECTION('ref_axis',(0.93966260416399,0.342102602059309,0.));
#1374=DIRECTION('',(0.,0.,1.));
#1375=DIRECTION('',(0.,0.,1.));
#1376=DIRECTION('center_axis',(-0.941550438252219,-0.336872041325863,0.));
#1377=DIRECTION('ref_axis',(0.336872041325863,-0.941550438252219,0.));
#1378=DIRECTION('',(0.,0.,1.));
#1379=DIRECTION('center_axis',(-0.342102602059434,0.939662604163944,0.));
#1380=DIRECTION('ref_axis',(-0.939662604163944,-0.342102602059434,0.));
#1381=DIRECTION('',(0.,0.,1.));
#1382=DIRECTION('center_axis',(-0.939662604163983,-0.342102602059327,0.));
#1383=DIRECTION('ref_axis',(0.342102602059327,-0.939662604163983,0.));
#1384=DIRECTION('',(0.,0.,1.));
#1385=DIRECTION('center_axis',(0.227589236915589,-0.973757228081096,0.));
#1386=DIRECTION('ref_axis',(0.973757228081096,0.227589236915588,0.));
#1387=DIRECTION('',(0.,0.,1.));
#1388=DIRECTION('center_axis',(-0.973757228081096,-0.227589236915588,0.));
#1389=DIRECTION('ref_axis',(0.227589236915588,-0.973757228081096,0.));
#1390=DIRECTION('',(0.,0.,1.));
#1391=DIRECTION('center_axis',(0.,0.,1.));
#1392=DIRECTION('ref_axis',(-0.227589236915588,0.973757228081097,0.));
#1393=DIRECTION('',(0.,0.,1.));
#1394=DIRECTION('center_axis',(0.973757228081096,0.227589236915588,0.));
#1395=DIRECTION('ref_axis',(-0.227589236915588,0.973757228081096,0.));
#1396=DIRECTION('',(0.,0.,1.));
#1397=DIRECTION('center_axis',(0.,0.,1.));
#1398=DIRECTION('ref_axis',(1.,0.,0.));
#1399=DIRECTION('',(0.,0.,1.));
#1400=DIRECTION('center_axis',(-0.136702059853057,0.990612208097564,0.));
#1401=DIRECTION('ref_axis',(-0.990612208097564,-0.136702059853057,0.));
#1402=DIRECTION('',(0.,0.,1.));
#1403=DIRECTION('center_axis',(0.136702059853057,-0.990612208097564,0.));
#1404=DIRECTION('ref_axis',(0.990612208097564,0.136702059853057,0.));
#1405=DIRECTION('',(0.,0.,1.));
#1406=DIRECTION('',(0.,0.,1.));
#1407=DIRECTION('center_axis',(0.990612208097564,0.136702059853057,0.));
#1408=DIRECTION('ref_axis',(-0.136702059853057,0.990612208097564,0.));
#1409=DIRECTION('',(0.,0.,1.));
#1410=DIRECTION('center_axis',(0.136702059853057,-0.990612208097564,0.));
#1411=DIRECTION('ref_axis',(0.990612208097564,0.136702059853057,0.));
#1412=DIRECTION('',(0.,0.,1.));
#1413=DIRECTION('center_axis',(0.,0.,1.));
#1414=DIRECTION('ref_axis',(1.,0.,0.));
#1415=DIRECTION('center_axis',(-0.987402171167449,-0.158230693526281,0.));
#1416=DIRECTION('ref_axis',(0.158230693526281,-0.987402171167449,0.));
#1417=DIRECTION('',(0.,0.,1.));
#1418=DIRECTION('center_axis',(-0.158230693526281,0.987402171167449,0.));
#1419=DIRECTION('ref_axis',(-0.987402171167449,-0.158230693526281,0.));
#1420=DIRECTION('',(0.,0.,1.));
#1421=DIRECTION('center_axis',(0.987402171167449,0.158230693526281,0.));
#1422=DIRECTION('ref_axis',(-0.158230693526281,0.987402171167449,0.));
#1423=DIRECTION('',(0.,0.,1.));
#1424=DIRECTION('center_axis',(0.,0.,1.));
#1425=DIRECTION('ref_axis',(1.,0.,0.));
#1426=DIRECTION('',(0.,0.,1.));
#1427=DIRECTION('center_axis',(-0.987402171167449,-0.158230693526281,0.));
#1428=DIRECTION('ref_axis',(0.158230693526281,-0.987402171167449,0.));
#1429=DIRECTION('center_axis',(0.245745966785272,-0.969334266292476,0.));
#1430=DIRECTION('ref_axis',(0.969334266292476,0.245745966785272,0.));
#1431=DIRECTION('',(0.,0.,1.));
#1432=DIRECTION('',(0.,0.,1.));
#1433=DIRECTION('center_axis',(-0.969334266292476,-0.245745966785272,0.));
#1434=DIRECTION('ref_axis',(0.245745966785272,-0.969334266292476,0.));
#1435=DIRECTION('',(0.,0.,1.));
#1436=DIRECTION('center_axis',(-0.245745966785272,0.969334266292476,0.));
#1437=DIRECTION('ref_axis',(-0.969334266292476,-0.245745966785272,0.));
#1438=DIRECTION('',(0.,0.,1.));
#1439=DIRECTION('center_axis',(-0.897961975696994,-0.440073050983984,0.));
#1440=DIRECTION('ref_axis',(0.440073050983984,-0.897961975696994,0.));
#1441=DIRECTION('center_axis',(0.897961975696993,0.440073050983984,0.));
#1442=DIRECTION('ref_axis',(-0.440073050983984,0.897961975696993,0.));
#1443=DIRECTION('',(0.,0.,1.));
#1444=DIRECTION('center_axis',(-0.245745966785272,0.969334266292476,0.));
#1445=DIRECTION('ref_axis',(-0.969334266292476,-0.245745966785272,0.));
#1446=DIRECTION('',(0.,0.,1.));
#1447=DIRECTION('center_axis',(0.,0.,1.));
#1448=DIRECTION('ref_axis',(1.,0.,0.));
#1449=DIRECTION('center_axis',(0.,0.,1.));
#1450=DIRECTION('ref_axis',(0.707106781186548,-0.707106781186547,0.));
#1451=DIRECTION('',(0.,0.,-1.));
#1452=DIRECTION('',(0.,0.,1.));
#1453=DIRECTION('center_axis',(1.,0.,0.));
#1454=DIRECTION('ref_axis',(0.,1.,0.));
#1455=DIRECTION('center_axis',(-1.,0.,0.));
#1456=DIRECTION('ref_axis',(0.,-1.,0.));
#1457=DIRECTION('',(0.,0.,1.));
#1458=DIRECTION('center_axis',(0.,0.,1.));
#1459=DIRECTION('ref_axis',(-0.707106781186547,-0.707106781186548,0.));
#1460=DIRECTION('',(0.,0.,-1.));
#1461=DIRECTION('',(0.,0.,1.));
#1462=DIRECTION('center_axis',(-1.,0.,0.));
#1463=DIRECTION('ref_axis',(0.,-1.,0.));
#1464=DIRECTION('',(0.,0.,1.));
#1465=DIRECTION('center_axis',(0.,0.,1.));
#1466=DIRECTION('ref_axis',(1.,0.,0.));
#1467=DIRECTION('',(0.,0.,-1.));
#1468=DIRECTION('center_axis',(0.,0.,1.));
#1469=DIRECTION('ref_axis',(1.,0.,0.));
#1470=DIRECTION('',(0.,0.,-1.));
#1471=DIRECTION('center_axis',(0.,0.,1.));
#1472=DIRECTION('ref_axis',(1.,0.,0.));
#1473=DIRECTION('',(0.,0.,-1.));
#1474=DIRECTION('center_axis',(0.,0.,1.));
#1475=DIRECTION('ref_axis',(1.,0.,0.));
#1476=DIRECTION('',(0.,0.,-1.));
#1477=DIRECTION('center_axis',(0.,0.,1.));
#1478=DIRECTION('ref_axis',(1.,0.,0.));
#1479=DIRECTION('',(0.,0.,-1.));
#1480=DIRECTION('center_axis',(0.,-1.,0.));
#1481=DIRECTION('ref_axis',(1.,0.,0.));
#1482=DIRECTION('',(0.,0.,1.));
#1483=DIRECTION('center_axis',(-0.832050294337843,-0.554700196225229,0.));
#1484=DIRECTION('ref_axis',(0.554700196225229,-0.832050294337844,0.));
#1485=DIRECTION('',(0.,0.,1.));
#1486=DIRECTION('center_axis',(0.832050294337843,-0.554700196225229,0.));
#1487=DIRECTION('ref_axis',(0.554700196225229,0.832050294337844,0.));
#1488=DIRECTION('',(0.,0.,1.));
#1489=DIRECTION('center_axis',(0.,-1.,0.));
#1490=DIRECTION('ref_axis',(1.,0.,0.));
#1491=DIRECTION('center_axis',(-0.554700125649072,0.832050341388611,0.));
#1492=DIRECTION('ref_axis',(-0.832050341388611,-0.554700125649072,0.));
#1493=DIRECTION('',(0.,0.,1.));
#1494=DIRECTION('center_axis',(-0.554700125649072,-0.832050341388611,0.));
#1495=DIRECTION('ref_axis',(0.832050341388611,-0.554700125649072,0.));
#1496=DIRECTION('center_axis',(0.,0.,1.));
#1497=DIRECTION('ref_axis',(1.,0.,0.));
#1498=DIRECTION('',(0.158230693526281,-0.987402171167449,0.));
#1499=DIRECTION('',(0.990612208097564,0.136702059853057,0.));
#1500=DIRECTION('',(-0.136702059853057,0.990612208097564,0.));
#1501=DIRECTION('',(-0.990612208097564,-0.136702059853057,0.));
#1502=DIRECTION('center_axis',(0.,0.,1.));
#1503=DIRECTION('ref_axis',(1.,0.,0.));
#1504=DIRECTION('',(-0.158230693526281,0.987402171167449,0.));
#1505=DIRECTION('',(0.990612208097564,0.136702059853057,0.));
#1506=DIRECTION('',(0.136702059853057,-0.990612208097564,0.));
#1507=DIRECTION('',(-0.990612208097564,-0.136702059853057,0.));
#1508=DIRECTION('center_axis',(0.136702059853057,-0.990612208097564,0.));
#1509=DIRECTION('ref_axis',(0.990612208097564,0.136702059853057,0.));
#1510=DIRECTION('',(0.,0.,1.));
#1511=DIRECTION('',(0.,0.,1.));
#1512=DIRECTION('center_axis',(-0.990612208097564,-0.136702059853057,0.));
#1513=DIRECTION('ref_axis',(0.136702059853057,-0.990612208097564,0.));
#1514=DIRECTION('',(0.,0.,1.));
#1515=DIRECTION('center_axis',(-0.136702059853057,0.990612208097564,0.));
#1516=DIRECTION('ref_axis',(-0.990612208097564,-0.136702059853057,0.));
#1517=DIRECTION('',(0.,0.,1.));
#1518=DIRECTION('center_axis',(0.987402171167449,0.158230693526281,0.));
#1519=DIRECTION('ref_axis',(-0.158230693526281,0.987402171167449,0.));
#1520=CARTESIAN_POINT('',(0.,0.,0.));
#1521=CARTESIAN_POINT('Origin',(-1.49011611938477E-7,0.,3.));
#1522=CARTESIAN_POINT('',(20.,11.6242621830369,3.));
#1523=CARTESIAN_POINT('',(8.66896370896563,5.98750579314238,3.));
#1524=CARTESIAN_POINT('',(9.37250671404835,6.33749148091248,3.));
#1525=CARTESIAN_POINT('',(6.88738547713841,9.56884339296167,3.));
#1526=CARTESIAN_POINT('Origin',(7.77817459305202,7.77817459305202,3.));
#1527=CARTESIAN_POINT('',(19.1173786337436,15.652796378657,3.));
#1528=CARTESIAN_POINT('',(7.59092848222114,9.91882908073177,3.));
#1529=CARTESIAN_POINT('',(12.,20.,3.));
#1530=CARTESIAN_POINT('Origin',(12.,12.,3.));
#1531=CARTESIAN_POINT('',(-11.5405788895221,20.,3.));
#1532=CARTESIAN_POINT('',(-20.,20.,3.));
#1533=CARTESIAN_POINT('',(-6.36949000339069,9.44847637838118,3.));
#1534=CARTESIAN_POINT('',(-6.33266541321552,9.37333639497616,3.));
#1535=CARTESIAN_POINT('',(-0.491491933570543,10.938668532585,3.));
#1536=CARTESIAN_POINT('',(-1.56343694241348,10.6669086539764,3.));
#1537=CARTESIAN_POINT('',(0.491491933570544,7.06133146741505,3.));
#1538=CARTESIAN_POINT('Origin',(4.41213041805076E-32,9.,3.));
#1539=CARTESIAN_POINT('',(-11.1405192619392,4.11237986599179,3.));
#1540=CARTESIAN_POINT('',(-6.39645867302725,5.31509578809486,3.));
#1541=CARTESIAN_POINT('',(-12.1235031290803,7.98971693116169,3.));
#1542=CARTESIAN_POINT('',(-10.8058122279579,2.79214254347776,3.));
#1543=CARTESIAN_POINT('',(-10.3317320100682,8.44396738037327,3.));
#1544=CARTESIAN_POINT('',(-6.48355698066232,9.41955807787056,3.));
#1545=CARTESIAN_POINT('',(-15.5805107307838,19.1540158587147,3.));
#1546=CARTESIAN_POINT('',(-9.92451331600349,7.61304419104023,3.));
#1547=CARTESIAN_POINT('',(-20.,12.,3.));
#1548=CARTESIAN_POINT('Origin',(-12.,12.,3.));
#1549=CARTESIAN_POINT('',(-20.0000002980232,1.00000001490116,3.));
#1550=CARTESIAN_POINT('',(-20.,-20.,3.));
#1551=CARTESIAN_POINT('',(-18.5,0.,3.));
#1552=CARTESIAN_POINT('',(-18.5,0.,3.));
#1553=CARTESIAN_POINT('',(-20.0000002980232,-1.00000001490116,3.));
#1554=CARTESIAN_POINT('',(-18.5,0.,3.));
#1555=CARTESIAN_POINT('',(-20.,-12.,3.));
#1556=CARTESIAN_POINT('',(-20.,-20.,3.));
#1557=CARTESIAN_POINT('',(-12.,-20.,3.));
#1558=CARTESIAN_POINT('Origin',(-12.,-12.,3.));
#1559=CARTESIAN_POINT('',(-1.,-20.,3.));
#1560=CARTESIAN_POINT('',(20.,-20.,3.));
#1561=CARTESIAN_POINT('',(0.,-18.5,3.));
#1562=CARTESIAN_POINT('',(-1.,-20.,3.));
#1563=CARTESIAN_POINT('',(1.,-20.,3.));
#1564=CARTESIAN_POINT('',(1.,-20.,3.));
#1565=CARTESIAN_POINT('',(12.,-20.,3.));
#1566=CARTESIAN_POINT('',(20.,-20.,3.));
#1567=CARTESIAN_POINT('',(20.,-12.,3.));
#1568=CARTESIAN_POINT('Origin',(12.,-12.,3.));
#1569=CARTESIAN_POINT('',(20.,20.,3.));
#1570=CARTESIAN_POINT('',(0.690209093618971,-12.912613100146,3.));
#1571=CARTESIAN_POINT('',(-10.5857421563489,-17.0178443248577,3.));
#1572=CARTESIAN_POINT('',(-3.17703121118409,-14.3205577870997,3.));
#1573=CARTESIAN_POINT('',(-11.9781681226049,-13.1260423409291,3.));
#1574=CARTESIAN_POINT('',(-13.3801825686607,-9.20744075284748,3.));
#1575=CARTESIAN_POINT('',(-7.76588499556007,-11.5924780466948,3.));
#1576=CARTESIAN_POINT('',(-2.47411467504657,-9.66590526607499,3.));
#1577=CARTESIAN_POINT('',(-7.77426097333101,-11.5694715187196,3.));
#1578=CARTESIAN_POINT('',(-9.17890088168459,-7.71130853997881,3.));
#1579=CARTESIAN_POINT('',(-10.2164436131751,-12.1402652108043,3.));
#1580=CARTESIAN_POINT('',(-4.02756918991969,-10.6937843357604,3.));
#1581=CARTESIAN_POINT('',(-12.9475144561622,-0.455178473831173,3.));
#1582=CARTESIAN_POINT('',(-12.6626317258424,-1.67407011195953,3.));
#1583=CARTESIAN_POINT('',(-9.05248554383782,0.455178473831179,3.));
#1584=CARTESIAN_POINT('Origin',(-11.,1.36314857258864E-15,3.));
#1585=CARTESIAN_POINT('',(-7.78712584219096,-4.95875573632728,3.));
#1586=CARTESIAN_POINT('',(-8.13492296269455,-3.47068026937641,3.));
#1587=CARTESIAN_POINT('',(-6.63736515038504,-4.3827366144838,3.));
#1588=CARTESIAN_POINT('Origin',(-6.36396103067892,-6.36396103067893,3.));
#1589=CARTESIAN_POINT('',(4.95224715544798,-2.78339848584479,3.));
#1590=CARTESIAN_POINT('',(2.71085809113891,-3.09270469014809,3.));
#1591=CARTESIAN_POINT('',(3.90460192840175,3.7541900739048,3.));
#1592=CARTESIAN_POINT('',(4.14899457763142,2.22911407828792,3.));
#1593=CARTESIAN_POINT('',(7.85421061307155,4.38711284800993,3.));
#1594=CARTESIAN_POINT('',(3.6827125828003,3.71863241962185,3.));
#1595=CARTESIAN_POINT('',(9.75297893538692,-7.46171320599946,3.));
#1596=CARTESIAN_POINT('',(9.04798742345891,-3.06237617461165,3.));
#1597=CARTESIAN_POINT('',(5.80337025071713,-8.09463598010459,3.));
#1598=CARTESIAN_POINT('Origin',(7.77817459305202,-7.77817459305202,3.));
#1599=CARTESIAN_POINT('',(5.585319900183,-6.73394302766258,3.));
#1600=CARTESIAN_POINT('',(4.98935356352205,-3.01495247249577,3.));
#1601=CARTESIAN_POINT('',(1.33903464975899,-7.31991999797612,3.));
#1602=CARTESIAN_POINT('',(1.17765595800053,-7.34218986240888,3.));
#1603=CARTESIAN_POINT('',(1.68078979939163,-9.79645051822003,3.));
#1604=CARTESIAN_POINT('',(1.00177351694846,-4.87595539467725,3.));
#1605=CARTESIAN_POINT('',(1.58772368707864,-9.80929341390788,3.));
#1606=CARTESIAN_POINT('',(1.47287805147668,-9.82514183049672,3.));
#1607=CARTESIAN_POINT('Origin',(0.00600388950172885,-11.0332878918175,3.));
#1608=CARTESIAN_POINT('',(-17.1755164835329,-11.4448608340439,3.));
#1609=CARTESIAN_POINT('Origin',(-15.6755164835329,-11.4448608340439,3.));
#1610=CARTESIAN_POINT('',(14.6041869945503,2.73505935302734,3.));
#1611=CARTESIAN_POINT('Origin',(16.1041869945503,2.73505935302734,3.));
#1612=CARTESIAN_POINT('',(-3.82970924864231,15.9974552926998,3.));
#1613=CARTESIAN_POINT('Origin',(-2.32970924864231,15.9974552926998,3.));
#1614=CARTESIAN_POINT('',(-0.5,0.,3.));
#1615=CARTESIAN_POINT('Origin',(0.,0.,3.));
#1616=CARTESIAN_POINT('',(4.50000008940697,-14.0000002086163,3.));
#1617=CARTESIAN_POINT('Origin',(6.00000008940697,-14.0000002086163,3.));
#1618=CARTESIAN_POINT('Origin',(12.,12.,0.));
#1619=CARTESIAN_POINT('',(19.1173786337436,15.652796378657,0.));
#1620=CARTESIAN_POINT('',(19.1173786337436,15.652796378657,0.));
#1621=CARTESIAN_POINT('',(12.,20.,0.));
#1622=CARTESIAN_POINT('Origin',(12.,12.,0.));
#1623=CARTESIAN_POINT('',(12.,20.,0.));
#1624=CARTESIAN_POINT('Origin',(-12.,12.,0.));
#1625=CARTESIAN_POINT('',(-15.5805107307838,19.1540158587147,0.));
#1626=CARTESIAN_POINT('',(-15.5805107307838,19.1540158587147,0.));
#1627=CARTESIAN_POINT('',(-20.,12.,0.));
#1628=CARTESIAN_POINT('Origin',(-12.,12.,0.));
#1629=CARTESIAN_POINT('',(-20.,12.,0.));
#1630=CARTESIAN_POINT('Origin',(-1.49011611938477E-7,0.,0.));
#1631=CARTESIAN_POINT('',(8.66896370896563,5.98750579314238,0.));
#1632=CARTESIAN_POINT('',(20.,11.6242621830369,0.));
#1633=CARTESIAN_POINT('',(9.37250671404835,6.33749148091248,2.77555756156289E-16));
#1634=CARTESIAN_POINT('',(20.,-12.,0.));
#1635=CARTESIAN_POINT('',(20.,20.,0.));
#1636=CARTESIAN_POINT('',(12.,-20.,0.));
#1637=CARTESIAN_POINT('Origin',(12.,-12.,0.));
#1638=CARTESIAN_POINT('',(1.,-20.,0.));
#1639=CARTESIAN_POINT('',(20.,-20.,0.));
#1640=CARTESIAN_POINT('',(0.,-18.5,0.));
#1641=CARTESIAN_POINT('',(1.,-20.,0.));
#1642=CARTESIAN_POINT('',(-1.,-20.,0.));
#1643=CARTESIAN_POINT('',(-1.,-20.,0.));
#1644=CARTESIAN_POINT('',(-12.,-20.,0.));
#1645=CARTESIAN_POINT('',(20.,-20.,0.));
#1646=CARTESIAN_POINT('',(-20.,-12.,0.));
#1647=CARTESIAN_POINT('Origin',(-12.,-12.,0.));
#1648=CARTESIAN_POINT('',(-20.0000002980232,-1.00000001490116,0.));
#1649=CARTESIAN_POINT('',(-20.,-20.,0.));
#1650=CARTESIAN_POINT('',(-18.5,0.,0.));
#1651=CARTESIAN_POINT('',(-18.5,0.,0.));
#1652=CARTESIAN_POINT('',(-20.0000002980232,1.00000001490116,0.));
#1653=CARTESIAN_POINT('',(-18.5,0.,0.));
#1654=CARTESIAN_POINT('',(-20.,-20.,0.));
#1655=CARTESIAN_POINT('',(-10.3317320100682,8.44396738037327,0.));
#1656=CARTESIAN_POINT('',(-9.92451331600349,7.61304419104023,0.));
#1657=CARTESIAN_POINT('',(-12.1235031290803,7.98971693116169,0.));
#1658=CARTESIAN_POINT('',(-6.48355698066232,9.41955807787056,0.));
#1659=CARTESIAN_POINT('',(-11.1405192619392,4.11237986599179,0.));
#1660=CARTESIAN_POINT('',(-10.8058122279579,2.79214254347776,0.));
#1661=CARTESIAN_POINT('',(0.491491933570544,7.06133146741505,0.));
#1662=CARTESIAN_POINT('',(-6.39645867302725,5.31509578809486,0.));
#1663=CARTESIAN_POINT('',(-0.491491933570543,10.938668532585,0.));
#1664=CARTESIAN_POINT('Origin',(4.41213041805076E-32,9.,0.));
#1665=CARTESIAN_POINT('',(-6.36949000339069,9.44847637838118,0.));
#1666=CARTESIAN_POINT('',(-1.56343694241348,10.6669086539764,0.));
#1667=CARTESIAN_POINT('',(-11.5405788895221,20.,0.));
#1668=CARTESIAN_POINT('',(-6.33266541321552,9.37333639497616,-2.77555756156289E-16));
#1669=CARTESIAN_POINT('',(-20.,20.,0.));
#1670=CARTESIAN_POINT('',(6.88738547713841,9.56884339296167,0.));
#1671=CARTESIAN_POINT('',(7.59092848222114,9.91882908073177,0.));
#1672=CARTESIAN_POINT('Origin',(7.77817459305202,7.77817459305202,0.));
#1673=CARTESIAN_POINT('',(-10.5857421563489,-17.0178443248577,0.));
#1674=CARTESIAN_POINT('',(0.690209093618971,-12.912613100146,0.));
#1675=CARTESIAN_POINT('',(-3.17703121118409,-14.3205577870997,0.));
#1676=CARTESIAN_POINT('',(1.58772368707864,-9.80929341390788,0.));
#1677=CARTESIAN_POINT('Origin',(0.00600388950172885,-11.0332878918175,0.));
#1678=CARTESIAN_POINT('',(1.68078979939163,-9.79645051822003,0.));
#1679=CARTESIAN_POINT('',(1.47287805147668,-9.82514183049672,0.));
#1680=CARTESIAN_POINT('',(1.33903464975899,-7.31991999797612,0.));
#1681=CARTESIAN_POINT('',(1.00177351694846,-4.87595539467725,0.));
#1682=CARTESIAN_POINT('',(5.585319900183,-6.73394302766258,0.));
#1683=CARTESIAN_POINT('',(1.17765595800053,-7.34218986240888,0.));
#1684=CARTESIAN_POINT('',(5.80337025071713,-8.09463598010459,0.));
#1685=CARTESIAN_POINT('',(4.98935356352205,-3.01495247249577,0.));
#1686=CARTESIAN_POINT('',(9.75297893538692,-7.46171320599946,0.));
#1687=CARTESIAN_POINT('Origin',(7.77817459305202,-7.77817459305202,0.));
#1688=CARTESIAN_POINT('',(7.85421061307155,4.38711284800993,0.));
#1689=CARTESIAN_POINT('',(9.04798742345891,-3.06237617461165,0.));
#1690=CARTESIAN_POINT('',(3.90460192840175,3.7541900739048,0.));
#1691=CARTESIAN_POINT('',(3.6827125828003,3.71863241962185,0.));
#1692=CARTESIAN_POINT('',(4.95224715544798,-2.78339848584479,0.));
#1693=CARTESIAN_POINT('',(4.14899457763142,2.22911407828792,0.));
#1694=CARTESIAN_POINT('',(-6.63736515038504,-4.3827366144838,0.));
#1695=CARTESIAN_POINT('',(2.71085809113891,-3.09270469014809,0.));
#1696=CARTESIAN_POINT('',(-7.78712584219096,-4.95875573632728,0.));
#1697=CARTESIAN_POINT('Origin',(-6.36396103067892,-6.36396103067893,0.));
#1698=CARTESIAN_POINT('',(-9.05248554383782,0.455178473831179,0.));
#1699=CARTESIAN_POINT('',(-8.13492296269455,-3.47068026937641,0.));
#1700=CARTESIAN_POINT('',(-12.9475144561622,-0.455178473831173,0.));
#1701=CARTESIAN_POINT('Origin',(-11.,1.36314857258864E-15,0.));
#1702=CARTESIAN_POINT('',(-10.2164436131751,-12.1402652108043,0.));
#1703=CARTESIAN_POINT('',(-12.6626317258424,-1.67407011195953,0.));
#1704=CARTESIAN_POINT('',(-7.77426097333101,-11.5694715187196,0.));
#1705=CARTESIAN_POINT('',(-4.02756918991969,-10.6937843357604,0.));
#1706=CARTESIAN_POINT('',(-7.76588499556007,-11.5924780466948,0.));
#1707=CARTESIAN_POINT('',(-9.17890088168459,-7.71130853997881,0.));
#1708=CARTESIAN_POINT('',(-11.9781681226049,-13.1260423409291,0.));
#1709=CARTESIAN_POINT('',(-2.47411467504657,-9.66590526607499,0.));
#1710=CARTESIAN_POINT('',(-13.3801825686607,-9.20744075284748,0.));
#1711=CARTESIAN_POINT('',(-17.1755164835329,-11.4448608340439,0.));
#1712=CARTESIAN_POINT('Origin',(-15.6755164835329,-11.4448608340439,0.));
#1713=CARTESIAN_POINT('',(14.6041869945503,2.73505935302734,0.));
#1714=CARTESIAN_POINT('Origin',(16.1041869945503,2.73505935302734,0.));
#1715=CARTESIAN_POINT('',(-3.82970924864231,15.9974552926998,0.));
#1716=CARTESIAN_POINT('Origin',(-2.32970924864231,15.9974552926998,0.));
#1717=CARTESIAN_POINT('',(-0.5,-6.12323399573677E-17,0.));
#1718=CARTESIAN_POINT('Origin',(0.,0.,0.));
#1719=CARTESIAN_POINT('',(4.50000008940697,-14.0000002086163,0.));
#1720=CARTESIAN_POINT('Origin',(6.00000008940697,-14.0000002086163,0.));
#1721=CARTESIAN_POINT('Origin',(20.,20.,0.));
#1722=CARTESIAN_POINT('',(-11.5405788895221,20.,1.5));
#1723=CARTESIAN_POINT('Origin',(8.66896370896563,5.98750579314238,0.));
#1724=CARTESIAN_POINT('',(8.66896370896563,5.98750579314238,0.));
#1725=CARTESIAN_POINT('',(20.,11.6242621830369,1.5));
#1726=CARTESIAN_POINT('Origin',(7.77817459305202,7.77817459305202,0.));
#1727=CARTESIAN_POINT('',(6.88738547713841,9.56884339296167,0.));
#1728=CARTESIAN_POINT('Origin',(17.6313982765963,14.9135780884433,0.));
#1729=CARTESIAN_POINT('Origin',(-10.5857421563489,-17.0178443248577,0.));
#1730=CARTESIAN_POINT('',(-10.5857421563489,-17.0178443248577,0.));
#1731=CARTESIAN_POINT('',(0.690209093618971,-12.912613100146,0.));
#1732=CARTESIAN_POINT('Origin',(-11.9781681226049,-13.1260423409291,0.));
#1733=CARTESIAN_POINT('',(-11.9781681226049,-13.1260423409291,0.));
#1734=CARTESIAN_POINT('Origin',(-7.76588499556007,-11.5924780466948,0.));
#1735=CARTESIAN_POINT('',(-7.76588499556007,-11.5924780466948,0.));
#1736=CARTESIAN_POINT('Origin',(-7.77426097333101,-11.5694715187196,0.));
#1737=CARTESIAN_POINT('',(-7.77426097333101,-11.5694715187196,0.));
#1738=CARTESIAN_POINT('Origin',(-10.2164436131751,-12.1402652108043,0.));
#1739=CARTESIAN_POINT('',(-10.2164436131751,-12.1402652108043,0.));
#1740=CARTESIAN_POINT('Origin',(-12.9475144561622,-0.455178473831175,0.));
#1741=CARTESIAN_POINT('',(-12.9475144561622,-0.455178473831173,0.));
#1742=CARTESIAN_POINT('Origin',(-11.,1.36314857258864E-15,0.));
#1743=CARTESIAN_POINT('',(-9.05248554383782,0.455178473831179,0.));
#1744=CARTESIAN_POINT('Origin',(-7.78712584219096,-4.95875573632728,0.));
#1745=CARTESIAN_POINT('',(-7.78712584219096,-4.95875573632728,0.));
#1746=CARTESIAN_POINT('Origin',(-6.36396103067892,-6.36396103067893,0.));
#1747=CARTESIAN_POINT('',(-6.63736515038504,-4.3827366144838,0.));
#1748=CARTESIAN_POINT('Origin',(4.95224715544798,-2.7833984858448,0.));
#1749=CARTESIAN_POINT('',(4.95224715544798,-2.78339848584479,0.));
#1750=CARTESIAN_POINT('Origin',(1.33903464975899,-7.31991999797612,0.));
#1751=CARTESIAN_POINT('',(1.33903464975899,-7.31991999797612,0.));
#1752=CARTESIAN_POINT('',(5.585319900183,-6.73394302766258,0.));
#1753=CARTESIAN_POINT('Origin',(1.68078979939163,-9.79645051822003,0.));
#1754=CARTESIAN_POINT('',(1.68078979939163,-9.79645051822003,0.));
#1755=CARTESIAN_POINT('Origin',(1.58772368707864,-9.80929341390788,0.));
#1756=CARTESIAN_POINT('',(1.58772368707864,-9.80929341390788,0.));
#1757=CARTESIAN_POINT('Origin',(0.00600388950172885,-11.0332878918175,0.));
#1758=CARTESIAN_POINT('Origin',(3.90460192840175,3.7541900739048,0.));
#1759=CARTESIAN_POINT('',(3.90460192840175,3.7541900739048,0.));
#1760=CARTESIAN_POINT('Origin',(7.85421061307155,4.38711284800993,0.));
#1761=CARTESIAN_POINT('',(7.85421061307155,4.38711284800993,0.));
#1762=CARTESIAN_POINT('Origin',(9.75297893538692,-7.46171320599946,0.));
#1763=CARTESIAN_POINT('',(9.75297893538692,-7.46171320599946,0.));
#1764=CARTESIAN_POINT('Origin',(7.77817459305202,-7.77817459305202,0.));
#1765=CARTESIAN_POINT('',(5.80337025071713,-8.09463598010459,0.));
#1766=CARTESIAN_POINT('Origin',(5.585319900183,-6.73394302766258,0.));
#1767=CARTESIAN_POINT('Origin',(-11.1405192619392,4.11237986599179,0.));
#1768=CARTESIAN_POINT('',(-11.1405192619392,4.11237986599179,0.));
#1769=CARTESIAN_POINT('',(0.491491933570544,7.06133146741505,0.));
#1770=CARTESIAN_POINT('Origin',(-12.1235031290803,7.98971693116169,0.));
#1771=CARTESIAN_POINT('',(-12.1235031290803,7.98971693116169,0.));
#1772=CARTESIAN_POINT('Origin',(-10.3317320100682,8.44396738037327,0.));
#1773=CARTESIAN_POINT('',(-10.3317320100682,8.44396738037327,0.));
#1774=CARTESIAN_POINT('Origin',(-14.8549751562538,17.673572199448,0.));
#1775=CARTESIAN_POINT('Origin',(-6.36949000339069,9.44847637838118,0.));
#1776=CARTESIAN_POINT('',(-6.36949000339069,9.44847637838118,0.));
#1777=CARTESIAN_POINT('Origin',(-0.491491933570543,10.938668532585,0.));
#1778=CARTESIAN_POINT('',(-0.491491933570543,10.938668532585,0.));
#1779=CARTESIAN_POINT('Origin',(4.41213041805076E-32,9.,0.));
#1780=CARTESIAN_POINT('Origin',(12.,-12.,0.));
#1781=CARTESIAN_POINT('',(12.,-20.,0.));
#1782=CARTESIAN_POINT('',(20.,-12.,0.));
#1783=CARTESIAN_POINT('Origin',(20.,-20.,0.));
#1784=CARTESIAN_POINT('Origin',(-20.,20.,0.));
#1785=CARTESIAN_POINT('',(-20.0000002980232,1.00000001490116,0.));
#1786=CARTESIAN_POINT('Origin',(-12.,-12.,0.));
#1787=CARTESIAN_POINT('',(-20.,-12.,0.));
#1788=CARTESIAN_POINT('',(-12.,-20.,0.));
#1789=CARTESIAN_POINT('Origin',(-20.,-1.00000001490116,0.));
#1790=CARTESIAN_POINT('',(-20.0000002980232,-1.00000001490116,0.));
#1791=CARTESIAN_POINT('Origin',(6.00000008940697,-14.0000002086163,0.));
#1792=CARTESIAN_POINT('',(4.50000008940697,-14.0000002086163,0.));
#1793=CARTESIAN_POINT('Origin',(0.,0.,0.));
#1794=CARTESIAN_POINT('',(-0.5,-6.12323399573677E-17,0.));
#1795=CARTESIAN_POINT('Origin',(-2.32970924864231,15.9974552926998,0.));
#1796=CARTESIAN_POINT('',(-3.82970924864231,15.9974552926998,0.));
#1797=CARTESIAN_POINT('Origin',(16.1041869945503,2.73505935302734,0.));
#1798=CARTESIAN_POINT('',(14.6041869945503,2.73505935302734,0.));
#1799=CARTESIAN_POINT('Origin',(-15.6755164835329,-11.4448608340439,0.));
#1800=CARTESIAN_POINT('',(-17.1755164835329,-11.4448608340439,0.));
#1801=CARTESIAN_POINT('Origin',(1.,-20.,0.));
#1802=CARTESIAN_POINT('',(1.,-20.,0.));
#1803=CARTESIAN_POINT('Origin',(0.,-18.5,0.));
#1804=CARTESIAN_POINT('',(0.,-18.5,0.));
#1805=CARTESIAN_POINT('Origin',(-1.,-20.,0.));
#1806=CARTESIAN_POINT('',(-1.,-20.,0.));
#1807=CARTESIAN_POINT('Origin',(-20.,-20.,0.));
#1808=CARTESIAN_POINT('Origin',(-18.5,0.,0.));
#1809=CARTESIAN_POINT('',(-18.5,0.,0.));
#1810=CARTESIAN_POINT('Origin',(-20.0000002980232,1.00000001490116,0.));
#1811=CARTESIAN_POINT('Origin',(-1.49011611938477E-7,0.,3.));
#1812=CARTESIAN_POINT('',(4.95224715544798,-2.78339848584479,3.));
#1813=CARTESIAN_POINT('',(5.585319900183,-6.73394302766258,3.));
#1814=CARTESIAN_POINT('',(4.98935356352205,-3.01495247249577,3.));
#1815=CARTESIAN_POINT('',(5.79678958619809,-6.70476072863735,3.));
#1816=CARTESIAN_POINT('',(3.40653342622008,-7.0346102277395,3.));
#1817=CARTESIAN_POINT('',(5.24998134678586,-2.7423118962471,3.));
#1818=CARTESIAN_POINT('',(5.01524675886513,-1.0413064490214,3.));
#1819=CARTESIAN_POINT('',(2.71085809113891,-3.09270469014809,3.));
#1820=CARTESIAN_POINT('Origin',(-1.49011611938477E-7,0.,0.));
#1821=CARTESIAN_POINT('',(5.585319900183,-6.73394302766258,0.));
#1822=CARTESIAN_POINT('',(4.95224715544798,-2.78339848584479,0.));
#1823=CARTESIAN_POINT('',(4.98935356352205,-3.01495247249577,0.));
#1824=CARTESIAN_POINT('',(5.24998134678586,-2.7423118962471,0.));
#1825=CARTESIAN_POINT('',(2.71085809113891,-3.09270469014809,0.));
#1826=CARTESIAN_POINT('',(5.79678958619809,-6.70476072863735,0.));
#1827=CARTESIAN_POINT('',(5.01524675886513,-1.0413064490214,0.));
#1828=CARTESIAN_POINT('',(3.40653342622008,-7.0346102277395,0.));
#1829=CARTESIAN_POINT('Origin',(4.95224715544798,-2.7833984858448,0.));
#1830=CARTESIAN_POINT('',(4.95224715544798,-2.78339848584479,0.));
#1831=CARTESIAN_POINT('',(5.24998134678586,-2.7423118962471,0.));
#1832=CARTESIAN_POINT('Origin',(5.24998134678586,-2.7423118962471,0.));
#1833=CARTESIAN_POINT('',(5.79678958619809,-6.70476072863735,0.));
#1834=CARTESIAN_POINT('Origin',(5.79678958619809,-6.70476072863735,0.));
#1835=CARTESIAN_POINT('',(5.585319900183,-6.73394302766258,0.));
#1836=CARTESIAN_POINT('Origin',(5.585319900183,-6.73394302766258,0.));
#1837=UNCERTAINTY_MEASURE_WITH_UNIT(LENGTH_MEASURE(0.01),#1841,
'DISTANCE_ACCURACY_VALUE',
'Maximum model space distance between geometric entities at asserted c
onnectivities');
#1838=UNCERTAINTY_MEASURE_WITH_UNIT(LENGTH_MEASURE(0.01),#1841,
'DISTANCE_ACCURACY_VALUE',
'Maximum model space distance between geometric entities at asserted c
onnectivities');
#1839=(
GEOMETRIC_REPRESENTATION_CONTEXT(3)
GLOBAL_UNCERTAINTY_ASSIGNED_CONTEXT((#1837))
GLOBAL_UNIT_ASSIGNED_CONTEXT((#1841,#1843,#1844))
REPRESENTATION_CONTEXT('','3D')
);
#1840=(
GEOMETRIC_REPRESENTATION_CONTEXT(3)
GLOBAL_UNCERTAINTY_ASSIGNED_CONTEXT((#1838))
GLOBAL_UNIT_ASSIGNED_CONTEXT((#1841,#1843,#1844))
REPRESENTATION_CONTEXT('','3D')
);
#1841=(
LENGTH_UNIT()
NAMED_UNIT(*)
SI_UNIT(.MILLI.,.METRE.)
);
#1842=(
LENGTH_UNIT()
NAMED_UNIT(*)
SI_UNIT($,.METRE.)
);
#1843=(
NAMED_UNIT(*)
PLANE_ANGLE_UNIT()
SI_UNIT($,.RADIAN.)
);
#1844=(
NAMED_UNIT(*)
SI_UNIT($,.STERADIAN.)
SOLID_ANGLE_UNIT()
);
#1845=SHAPE_DEFINITION_REPRESENTATION(#1846,#1847);
#1846=PRODUCT_DEFINITION_SHAPE('',$,#1849);
#1847=SHAPE_REPRESENTATION('',(#1133),#1839);
#1848=PRODUCT_DEFINITION_CONTEXT('part definition',#1853,'design');
#1849=PRODUCT_DEFINITION('BearingPlate2','BearingPlate2 v17',#1850,#1848);
#1850=PRODUCT_DEFINITION_FORMATION('',$,#1855);
#1851=PRODUCT_RELATED_PRODUCT_CATEGORY('BearingPlate2 v17',
'BearingPlate2 v17',(#1855));
#1852=APPLICATION_PROTOCOL_DEFINITION('international standard',
'automotive_design',2009,#1853);
#1853=APPLICATION_CONTEXT(
'Core Data for Automotive Mechanical Design Process');
#1854=PRODUCT_CONTEXT('part definition',#1853,'mechanical');
#1855=PRODUCT('BearingPlate2','BearingPlate2 v17',$,(#1854));
#1856=PRESENTATION_STYLE_ASSIGNMENT((#1858));
#1857=PRESENTATION_STYLE_ASSIGNMENT((#1859));
#1858=SURFACE_STYLE_USAGE(.BOTH.,#1860);
#1859=SURFACE_STYLE_USAGE(.BOTH.,#1861);
#1860=SURFACE_SIDE_STYLE('',(#1862));
#1861=SURFACE_SIDE_STYLE('',(#1863));
#1862=SURFACE_STYLE_FILL_AREA(#1864);
#1863=SURFACE_STYLE_FILL_AREA(#1865);
#1864=FILL_AREA_STYLE('Steel - Satin',(#1866));
#1865=FILL_AREA_STYLE('Acrylic (Clear)',(#1867));
#1866=FILL_AREA_STYLE_COLOUR('Steel - Satin',#1868);
#1867=FILL_AREA_STYLE_COLOUR('Acrylic (Clear)',#1869);
#1868=COLOUR_RGB('Steel - Satin',0.627450980392157,0.627450980392157,0.627450980392157);
#1869=COLOUR_RGB('Acrylic (Clear)',0.964705882352941,0.964705882352941,
0.952941176470588);
ENDSEC;
END-ISO-10303-21;
