ISO-10303-21;
HEADER;
/* Generated by software containing ST-Developer
 * from STEP Tools, Inc. (www.steptools.com) 
 */

FILE_DESCRIPTION(
/* description */ (''),
/* implementation_level */ '2;1');

FILE_NAME(
/* name */ 'MidPlate_v8.step',
/* time_stamp */ '2026-08-21T09:18:22-04:00',
/* author */ (''),
/* organization */ (''),
/* preprocessor_version */ 'ST-DEVELOPER v20.1',
/* originating_system */ 'Autodesk Translation Framework v15.8.0.0',
/* authorisation */ '');

FILE_SCHEMA (('AUTOMOTIVE_DESIGN { 1 0 10303 214 3 1 1 }'));
ENDSEC;

DATA;
#10=MECHANICAL_DESIGN_GEOMETRIC_PRESENTATION_REPRESENTATION('',(#13),#1767);
#11=SHAPE_REPRESENTATION_RELATIONSHIP('SRR','None',#1774,#12);
#12=ADVANCED_BREP_SHAPE_REPRESENTATION('',(#14),#1766);
#13=STYLED_ITEM('',(#1784),#14);
#14=MANIFOLD_SOLID_BREP('Body1',#1067);
#15=FACE_BOUND('',#152,.T.);
#16=FACE_BOUND('',#153,.T.);
#17=FACE_BOUND('',#154,.T.);
#18=FACE_BOUND('',#155,.T.);
#19=FACE_BOUND('',#156,.T.);
#20=FACE_BOUND('',#157,.T.);
#21=FACE_BOUND('',#158,.T.);
#22=FACE_BOUND('',#159,.T.);
#23=FACE_BOUND('',#160,.T.);
#24=FACE_BOUND('',#161,.T.);
#25=FACE_BOUND('',#162,.T.);
#26=FACE_BOUND('',#163,.T.);
#27=FACE_BOUND('',#164,.T.);
#28=FACE_BOUND('',#165,.T.);
#29=FACE_BOUND('',#166,.T.);
#30=FACE_BOUND('',#167,.T.);
#31=FACE_BOUND('',#168,.T.);
#32=FACE_BOUND('',#169,.T.);
#33=FACE_BOUND('',#170,.T.);
#34=FACE_BOUND('',#171,.T.);
#35=FACE_BOUND('',#172,.T.);
#36=FACE_BOUND('',#204,.T.);
#37=FACE_BOUND('',#205,.T.);
#38=FACE_BOUND('',#206,.T.);
#39=FACE_BOUND('',#207,.T.);
#40=FACE_BOUND('',#208,.T.);
#41=FACE_BOUND('',#209,.T.);
#42=FACE_BOUND('',#210,.T.);
#43=FACE_BOUND('',#211,.T.);
#44=FACE_BOUND('',#212,.T.);
#45=FACE_BOUND('',#213,.T.);
#46=FACE_BOUND('',#214,.T.);
#47=FACE_BOUND('',#215,.T.);
#48=FACE_BOUND('',#216,.T.);
#49=FACE_BOUND('',#217,.T.);
#50=FACE_BOUND('',#218,.T.);
#51=FACE_BOUND('',#219,.T.);
#52=FACE_BOUND('',#220,.T.);
#53=FACE_BOUND('',#221,.T.);
#54=FACE_BOUND('',#222,.T.);
#55=FACE_BOUND('',#223,.T.);
#56=FACE_BOUND('',#224,.T.);
#57=PLANE('',#1084);
#58=PLANE('',#1088);
#59=PLANE('',#1092);
#60=PLANE('',#1096);
#61=PLANE('',#1124);
#62=PLANE('',#1125);
#63=PLANE('',#1139);
#64=PLANE('',#1142);
#65=PLANE('',#1161);
#66=PLANE('',#1162);
#67=PLANE('',#1163);
#68=PLANE('',#1164);
#69=PLANE('',#1165);
#70=PLANE('',#1166);
#71=PLANE('',#1167);
#72=PLANE('',#1168);
#73=PLANE('',#1169);
#74=PLANE('',#1170);
#75=PLANE('',#1171);
#76=PLANE('',#1172);
#77=PLANE('',#1173);
#78=PLANE('',#1174);
#79=PLANE('',#1175);
#80=PLANE('',#1176);
#81=PLANE('',#1177);
#82=PLANE('',#1178);
#83=FACE_OUTER_BOUND('',#133,.T.);
#84=FACE_OUTER_BOUND('',#134,.T.);
#85=FACE_OUTER_BOUND('',#135,.T.);
#86=FACE_OUTER_BOUND('',#136,.T.);
#87=FACE_OUTER_BOUND('',#137,.T.);
#88=FACE_OUTER_BOUND('',#138,.T.);
#89=FACE_OUTER_BOUND('',#139,.T.);
#90=FACE_OUTER_BOUND('',#140,.T.);
#91=FACE_OUTER_BOUND('',#141,.T.);
#92=FACE_OUTER_BOUND('',#142,.T.);
#93=FACE_OUTER_BOUND('',#143,.T.);
#94=FACE_OUTER_BOUND('',#144,.T.);
#95=FACE_OUTER_BOUND('',#145,.T.);
#96=FACE_OUTER_BOUND('',#146,.T.);
#97=FACE_OUTER_BOUND('',#147,.T.);
#98=FACE_OUTER_BOUND('',#148,.T.);
#99=FACE_OUTER_BOUND('',#149,.T.);
#100=FACE_OUTER_BOUND('',#150,.T.);
#101=FACE_OUTER_BOUND('',#151,.T.);
#102=FACE_OUTER_BOUND('',#173,.T.);
#103=FACE_OUTER_BOUND('',#174,.T.);
#104=FACE_OUTER_BOUND('',#175,.T.);
#105=FACE_OUTER_BOUND('',#176,.T.);
#106=FACE_OUTER_BOUND('',#177,.T.);
#107=FACE_OUTER_BOUND('',#178,.T.);
#108=FACE_OUTER_BOUND('',#179,.T.);
#109=FACE_OUTER_BOUND('',#180,.T.);
#110=FACE_OUTER_BOUND('',#181,.T.);
#111=FACE_OUTER_BOUND('',#182,.T.);
#112=FACE_OUTER_BOUND('',#183,.T.);
#113=FACE_OUTER_BOUND('',#184,.T.);
#114=FACE_OUTER_BOUND('',#185,.T.);
#115=FACE_OUTER_BOUND('',#186,.T.);
#116=FACE_OUTER_BOUND('',#187,.T.);
#117=FACE_OUTER_BOUND('',#188,.T.);
#118=FACE_OUTER_BOUND('',#189,.T.);
#119=FACE_OUTER_BOUND('',#190,.T.);
#120=FACE_OUTER_BOUND('',#191,.T.);
#121=FACE_OUTER_BOUND('',#192,.T.);
#122=FACE_OUTER_BOUND('',#193,.T.);
#123=FACE_OUTER_BOUND('',#194,.T.);
#124=FACE_OUTER_BOUND('',#195,.T.);
#125=FACE_OUTER_BOUND('',#196,.T.);
#126=FACE_OUTER_BOUND('',#197,.T.);
#127=FACE_OUTER_BOUND('',#198,.T.);
#128=FACE_OUTER_BOUND('',#199,.T.);
#129=FACE_OUTER_BOUND('',#200,.T.);
#130=FACE_OUTER_BOUND('',#201,.T.);
#131=FACE_OUTER_BOUND('',#202,.T.);
#132=FACE_OUTER_BOUND('',#203,.T.);
#133=EDGE_LOOP('',(#705,#706,#707,#708));
#134=EDGE_LOOP('',(#709,#710,#711,#712));
#135=EDGE_LOOP('',(#713,#714,#715,#716));
#136=EDGE_LOOP('',(#717,#718,#719,#720));
#137=EDGE_LOOP('',(#721,#722,#723,#724));
#138=EDGE_LOOP('',(#725,#726,#727,#728));
#139=EDGE_LOOP('',(#729,#730,#731,#732));
#140=EDGE_LOOP('',(#733,#734,#735,#736));
#141=EDGE_LOOP('',(#737,#738,#739,#740));
#142=EDGE_LOOP('',(#741,#742,#743,#744));
#143=EDGE_LOOP('',(#745,#746,#747,#748));
#144=EDGE_LOOP('',(#749,#750,#751,#752));
#145=EDGE_LOOP('',(#753,#754,#755,#756));
#146=EDGE_LOOP('',(#757,#758,#759,#760));
#147=EDGE_LOOP('',(#761,#762,#763,#764));
#148=EDGE_LOOP('',(#765,#766,#767,#768));
#149=EDGE_LOOP('',(#769,#770,#771,#772));
#150=EDGE_LOOP('',(#773,#774,#775,#776));
#151=EDGE_LOOP('',(#777,#778,#779,#780,#781,#782,#783,#784));
#152=EDGE_LOOP('',(#785));
#153=EDGE_LOOP('',(#786));
#154=EDGE_LOOP('',(#787));
#155=EDGE_LOOP('',(#788));
#156=EDGE_LOOP('',(#789));
#157=EDGE_LOOP('',(#790));
#158=EDGE_LOOP('',(#791));
#159=EDGE_LOOP('',(#792));
#160=EDGE_LOOP('',(#793,#794,#795,#796));
#161=EDGE_LOOP('',(#797,#798,#799,#800));
#162=EDGE_LOOP('',(#801,#802,#803,#804));
#163=EDGE_LOOP('',(#805,#806,#807,#808));
#164=EDGE_LOOP('',(#809));
#165=EDGE_LOOP('',(#810));
#166=EDGE_LOOP('',(#811));
#167=EDGE_LOOP('',(#812));
#168=EDGE_LOOP('',(#813));
#169=EDGE_LOOP('',(#814));
#170=EDGE_LOOP('',(#815));
#171=EDGE_LOOP('',(#816));
#172=EDGE_LOOP('',(#817,#818,#819,#820,#821,#822,#823,#824));
#173=EDGE_LOOP('',(#825,#826,#827,#828));
#174=EDGE_LOOP('',(#829,#830,#831,#832));
#175=EDGE_LOOP('',(#833,#834,#835,#836));
#176=EDGE_LOOP('',(#837,#838,#839,#840));
#177=EDGE_LOOP('',(#841,#842,#843,#844));
#178=EDGE_LOOP('',(#845,#846,#847,#848));
#179=EDGE_LOOP('',(#849,#850,#851,#852));
#180=EDGE_LOOP('',(#853,#854,#855,#856));
#181=EDGE_LOOP('',(#857,#858,#859,#860));
#182=EDGE_LOOP('',(#861,#862,#863,#864));
#183=EDGE_LOOP('',(#865,#866,#867,#868));
#184=EDGE_LOOP('',(#869,#870,#871,#872));
#185=EDGE_LOOP('',(#873,#874,#875,#876));
#186=EDGE_LOOP('',(#877,#878,#879,#880));
#187=EDGE_LOOP('',(#881,#882,#883,#884));
#188=EDGE_LOOP('',(#885,#886,#887,#888));
#189=EDGE_LOOP('',(#889,#890,#891,#892));
#190=EDGE_LOOP('',(#893,#894,#895,#896));
#191=EDGE_LOOP('',(#897,#898,#899,#900));
#192=EDGE_LOOP('',(#901,#902,#903,#904));
#193=EDGE_LOOP('',(#905,#906,#907,#908));
#194=EDGE_LOOP('',(#909,#910,#911,#912));
#195=EDGE_LOOP('',(#913,#914,#915,#916));
#196=EDGE_LOOP('',(#917,#918,#919,#920));
#197=EDGE_LOOP('',(#921,#922,#923,#924));
#198=EDGE_LOOP('',(#925,#926,#927,#928));
#199=EDGE_LOOP('',(#929,#930,#931,#932));
#200=EDGE_LOOP('',(#933,#934,#935,#936));
#201=EDGE_LOOP('',(#937,#938,#939,#940));
#202=EDGE_LOOP('',(#941,#942,#943,#944));
#203=EDGE_LOOP('',(#945,#946,#947,#948,#949,#950,#951,#952));
#204=EDGE_LOOP('',(#953));
#205=EDGE_LOOP('',(#954));
#206=EDGE_LOOP('',(#955));
#207=EDGE_LOOP('',(#956));
#208=EDGE_LOOP('',(#957));
#209=EDGE_LOOP('',(#958));
#210=EDGE_LOOP('',(#959));
#211=EDGE_LOOP('',(#960));
#212=EDGE_LOOP('',(#961,#962,#963,#964));
#213=EDGE_LOOP('',(#965,#966,#967,#968));
#214=EDGE_LOOP('',(#969,#970,#971,#972));
#215=EDGE_LOOP('',(#973,#974,#975,#976));
#216=EDGE_LOOP('',(#977));
#217=EDGE_LOOP('',(#978));
#218=EDGE_LOOP('',(#979));
#219=EDGE_LOOP('',(#980));
#220=EDGE_LOOP('',(#981));
#221=EDGE_LOOP('',(#982));
#222=EDGE_LOOP('',(#983));
#223=EDGE_LOOP('',(#984));
#224=EDGE_LOOP('',(#985,#986,#987,#988,#989,#990,#991,#992));
#225=LINE('',#1479,#321);
#226=LINE('',#1482,#322);
#227=LINE('',#1485,#323);
#228=LINE('',#1487,#324);
#229=LINE('',#1488,#325);
#230=LINE('',#1493,#326);
#231=LINE('',#1497,#327);
#232=LINE('',#1499,#328);
#233=LINE('',#1500,#329);
#234=LINE('',#1506,#330);
#235=LINE('',#1509,#331);
#236=LINE('',#1511,#332);
#237=LINE('',#1512,#333);
#238=LINE('',#1517,#334);
#239=LINE('',#1520,#335);
#240=LINE('',#1521,#336);
#241=LINE('',#1526,#337);
#242=LINE('',#1532,#338);
#243=LINE('',#1538,#339);
#244=LINE('',#1544,#340);
#245=LINE('',#1550,#341);
#246=LINE('',#1556,#342);
#247=LINE('',#1562,#343);
#248=LINE('',#1568,#344);
#249=LINE('',#1575,#345);
#250=LINE('',#1578,#346);
#251=LINE('',#1581,#347);
#252=LINE('',#1583,#348);
#253=LINE('',#1584,#349);
#254=LINE('',#1587,#350);
#255=LINE('',#1591,#351);
#256=LINE('',#1595,#352);
#257=LINE('',#1599,#353);
#258=LINE('',#1601,#354);
#259=LINE('',#1603,#355);
#260=LINE('',#1604,#356);
#261=LINE('',#1607,#357);
#262=LINE('',#1609,#358);
#263=LINE('',#1611,#359);
#264=LINE('',#1612,#360);
#265=LINE('',#1615,#361);
#266=LINE('',#1617,#362);
#267=LINE('',#1619,#363);
#268=LINE('',#1620,#364);
#269=LINE('',#1623,#365);
#270=LINE('',#1625,#366);
#271=LINE('',#1627,#367);
#272=LINE('',#1628,#368);
#273=LINE('',#1648,#369);
#274=LINE('',#1651,#370);
#275=LINE('',#1652,#371);
#276=LINE('',#1656,#372);
#277=LINE('',#1659,#373);
#278=LINE('',#1660,#374);
#279=LINE('',#1664,#375);
#280=LINE('',#1667,#376);
#281=LINE('',#1671,#377);
#282=LINE('',#1675,#378);
#283=LINE('',#1679,#379);
#284=LINE('',#1683,#380);
#285=LINE('',#1687,#381);
#286=LINE('',#1691,#382);
#287=LINE('',#1695,#383);
#288=LINE('',#1699,#384);
#289=LINE('',#1701,#385);
#290=LINE('',#1702,#386);
#291=LINE('',#1705,#387);
#292=LINE('',#1706,#388);
#293=LINE('',#1709,#389);
#294=LINE('',#1710,#390);
#295=LINE('',#1712,#391);
#296=LINE('',#1715,#392);
#297=LINE('',#1717,#393);
#298=LINE('',#1718,#394);
#299=LINE('',#1721,#395);
#300=LINE('',#1722,#396);
#301=LINE('',#1725,#397);
#302=LINE('',#1726,#398);
#303=LINE('',#1728,#399);
#304=LINE('',#1731,#400);
#305=LINE('',#1733,#401);
#306=LINE('',#1734,#402);
#307=LINE('',#1737,#403);
#308=LINE('',#1738,#404);
#309=LINE('',#1741,#405);
#310=LINE('',#1742,#406);
#311=LINE('',#1744,#407);
#312=LINE('',#1747,#408);
#313=LINE('',#1749,#409);
#314=LINE('',#1750,#410);
#315=LINE('',#1753,#411);
#316=LINE('',#1754,#412);
#317=LINE('',#1757,#413);
#318=LINE('',#1758,#414);
#319=LINE('',#1760,#415);
#320=LINE('',#1762,#416);
#321=VECTOR('',#1185,10.);
#322=VECTOR('',#1188,10.);
#323=VECTOR('',#1191,10.);
#324=VECTOR('',#1192,10.);
#325=VECTOR('',#1193,10.);
#326=VECTOR('',#1198,10.);
#327=VECTOR('',#1203,10.);
#328=VECTOR('',#1204,10.);
#329=VECTOR('',#1205,10.);
#330=VECTOR('',#1210,10.);
#331=VECTOR('',#1213,10.);
#332=VECTOR('',#1216,10.);
#333=VECTOR('',#1217,10.);
#334=VECTOR('',#1222,10.);
#335=VECTOR('',#1227,10.);
#336=VECTOR('',#1228,10.);
#337=VECTOR('',#1233,3.);
#338=VECTOR('',#1240,3.);
#339=VECTOR('',#1247,3.);
#340=VECTOR('',#1254,3.);
#341=VECTOR('',#1261,3.);
#342=VECTOR('',#1268,3.);
#343=VECTOR('',#1275,3.);
#344=VECTOR('',#1282,3.);
#345=VECTOR('',#1289,10.);
#346=VECTOR('',#1292,10.);
#347=VECTOR('',#1295,10.);
#348=VECTOR('',#1296,10.);
#349=VECTOR('',#1297,10.);
#350=VECTOR('',#1300,10.);
#351=VECTOR('',#1303,10.);
#352=VECTOR('',#1306,10.);
#353=VECTOR('',#1309,10.);
#354=VECTOR('',#1310,10.);
#355=VECTOR('',#1311,10.);
#356=VECTOR('',#1312,10.);
#357=VECTOR('',#1313,10.);
#358=VECTOR('',#1314,10.);
#359=VECTOR('',#1315,10.);
#360=VECTOR('',#1316,10.);
#361=VECTOR('',#1317,10.);
#362=VECTOR('',#1318,10.);
#363=VECTOR('',#1319,10.);
#364=VECTOR('',#1320,10.);
#365=VECTOR('',#1321,10.);
#366=VECTOR('',#1322,10.);
#367=VECTOR('',#1323,10.);
#368=VECTOR('',#1324,10.);
#369=VECTOR('',#1345,10.);
#370=VECTOR('',#1348,10.);
#371=VECTOR('',#1349,10.);
#372=VECTOR('',#1354,10.);
#373=VECTOR('',#1357,10.);
#374=VECTOR('',#1358,10.);
#375=VECTOR('',#1363,10.);
#376=VECTOR('',#1366,1.25);
#377=VECTOR('',#1371,1.25);
#378=VECTOR('',#1376,1.25);
#379=VECTOR('',#1381,1.25);
#380=VECTOR('',#1386,1.25);
#381=VECTOR('',#1391,1.25);
#382=VECTOR('',#1396,1.25);
#383=VECTOR('',#1401,1.25);
#384=VECTOR('',#1406,10.);
#385=VECTOR('',#1407,10.);
#386=VECTOR('',#1408,10.);
#387=VECTOR('',#1411,10.);
#388=VECTOR('',#1412,10.);
#389=VECTOR('',#1415,10.);
#390=VECTOR('',#1416,10.);
#391=VECTOR('',#1419,10.);
#392=VECTOR('',#1422,10.);
#393=VECTOR('',#1423,10.);
#394=VECTOR('',#1424,10.);
#395=VECTOR('',#1427,10.);
#396=VECTOR('',#1428,10.);
#397=VECTOR('',#1431,10.);
#398=VECTOR('',#1432,10.);
#399=VECTOR('',#1435,10.);
#400=VECTOR('',#1438,10.);
#401=VECTOR('',#1439,10.);
#402=VECTOR('',#1440,10.);
#403=VECTOR('',#1443,10.);
#404=VECTOR('',#1444,10.);
#405=VECTOR('',#1447,10.);
#406=VECTOR('',#1448,10.);
#407=VECTOR('',#1451,10.);
#408=VECTOR('',#1454,10.);
#409=VECTOR('',#1455,10.);
#410=VECTOR('',#1456,10.);
#411=VECTOR('',#1459,10.);
#412=VECTOR('',#1460,10.);
#413=VECTOR('',#1463,10.);
#414=VECTOR('',#1464,10.);
#415=VECTOR('',#1467,10.);
#416=VECTOR('',#1470,10.);
#417=CIRCLE('',#1082,8.);
#418=CIRCLE('',#1083,8.);
#419=CIRCLE('',#1086,8.);
#420=CIRCLE('',#1087,8.);
#421=CIRCLE('',#1090,8.);
#422=CIRCLE('',#1091,8.);
#423=CIRCLE('',#1094,8.);
#424=CIRCLE('',#1095,8.);
#425=CIRCLE('',#1098,3.);
#426=CIRCLE('',#1099,3.);
#427=CIRCLE('',#1101,3.);
#428=CIRCLE('',#1102,3.);
#429=CIRCLE('',#1104,3.);
#430=CIRCLE('',#1105,3.);
#431=CIRCLE('',#1107,3.);
#432=CIRCLE('',#1108,3.);
#433=CIRCLE('',#1110,3.);
#434=CIRCLE('',#1111,3.);
#435=CIRCLE('',#1113,3.);
#436=CIRCLE('',#1114,3.);
#437=CIRCLE('',#1116,3.);
#438=CIRCLE('',#1117,3.);
#439=CIRCLE('',#1119,3.);
#440=CIRCLE('',#1120,3.);
#441=CIRCLE('',#1122,40.);
#442=CIRCLE('',#1123,40.);
#443=CIRCLE('',#1126,40.);
#444=CIRCLE('',#1127,40.);
#445=CIRCLE('',#1128,40.);
#446=CIRCLE('',#1129,1.25);
#447=CIRCLE('',#1130,1.25);
#448=CIRCLE('',#1131,1.25);
#449=CIRCLE('',#1132,1.25);
#450=CIRCLE('',#1133,1.25);
#451=CIRCLE('',#1134,1.25);
#452=CIRCLE('',#1135,1.25);
#453=CIRCLE('',#1136,1.25);
#454=CIRCLE('',#1138,40.);
#455=CIRCLE('',#1141,40.);
#456=CIRCLE('',#1144,40.);
#457=CIRCLE('',#1146,1.25);
#458=CIRCLE('',#1148,1.25);
#459=CIRCLE('',#1150,1.25);
#460=CIRCLE('',#1152,1.25);
#461=CIRCLE('',#1154,1.25);
#462=CIRCLE('',#1156,1.25);
#463=CIRCLE('',#1158,1.25);
#464=CIRCLE('',#1160,1.25);
#465=VERTEX_POINT('',#1475);
#466=VERTEX_POINT('',#1476);
#467=VERTEX_POINT('',#1478);
#468=VERTEX_POINT('',#1480);
#469=VERTEX_POINT('',#1484);
#470=VERTEX_POINT('',#1486);
#471=VERTEX_POINT('',#1490);
#472=VERTEX_POINT('',#1492);
#473=VERTEX_POINT('',#1496);
#474=VERTEX_POINT('',#1498);
#475=VERTEX_POINT('',#1502);
#476=VERTEX_POINT('',#1503);
#477=VERTEX_POINT('',#1505);
#478=VERTEX_POINT('',#1507);
#479=VERTEX_POINT('',#1514);
#480=VERTEX_POINT('',#1516);
#481=VERTEX_POINT('',#1523);
#482=VERTEX_POINT('',#1525);
#483=VERTEX_POINT('',#1529);
#484=VERTEX_POINT('',#1531);
#485=VERTEX_POINT('',#1535);
#486=VERTEX_POINT('',#1537);
#487=VERTEX_POINT('',#1541);
#488=VERTEX_POINT('',#1543);
#489=VERTEX_POINT('',#1547);
#490=VERTEX_POINT('',#1549);
#491=VERTEX_POINT('',#1553);
#492=VERTEX_POINT('',#1555);
#493=VERTEX_POINT('',#1559);
#494=VERTEX_POINT('',#1561);
#495=VERTEX_POINT('',#1565);
#496=VERTEX_POINT('',#1567);
#497=VERTEX_POINT('',#1571);
#498=VERTEX_POINT('',#1572);
#499=VERTEX_POINT('',#1574);
#500=VERTEX_POINT('',#1576);
#501=VERTEX_POINT('',#1580);
#502=VERTEX_POINT('',#1582);
#503=VERTEX_POINT('',#1586);
#504=VERTEX_POINT('',#1588);
#505=VERTEX_POINT('',#1590);
#506=VERTEX_POINT('',#1592);
#507=VERTEX_POINT('',#1594);
#508=VERTEX_POINT('',#1597);
#509=VERTEX_POINT('',#1598);
#510=VERTEX_POINT('',#1600);
#511=VERTEX_POINT('',#1602);
#512=VERTEX_POINT('',#1605);
#513=VERTEX_POINT('',#1606);
#514=VERTEX_POINT('',#1608);
#515=VERTEX_POINT('',#1610);
#516=VERTEX_POINT('',#1613);
#517=VERTEX_POINT('',#1614);
#518=VERTEX_POINT('',#1616);
#519=VERTEX_POINT('',#1618);
#520=VERTEX_POINT('',#1621);
#521=VERTEX_POINT('',#1622);
#522=VERTEX_POINT('',#1624);
#523=VERTEX_POINT('',#1626);
#524=VERTEX_POINT('',#1629);
#525=VERTEX_POINT('',#1631);
#526=VERTEX_POINT('',#1633);
#527=VERTEX_POINT('',#1635);
#528=VERTEX_POINT('',#1637);
#529=VERTEX_POINT('',#1639);
#530=VERTEX_POINT('',#1641);
#531=VERTEX_POINT('',#1643);
#532=VERTEX_POINT('',#1646);
#533=VERTEX_POINT('',#1650);
#534=VERTEX_POINT('',#1654);
#535=VERTEX_POINT('',#1658);
#536=VERTEX_POINT('',#1662);
#537=VERTEX_POINT('',#1666);
#538=VERTEX_POINT('',#1670);
#539=VERTEX_POINT('',#1674);
#540=VERTEX_POINT('',#1678);
#541=VERTEX_POINT('',#1682);
#542=VERTEX_POINT('',#1686);
#543=VERTEX_POINT('',#1690);
#544=VERTEX_POINT('',#1694);
#545=VERTEX_POINT('',#1698);
#546=VERTEX_POINT('',#1700);
#547=VERTEX_POINT('',#1704);
#548=VERTEX_POINT('',#1708);
#549=VERTEX_POINT('',#1714);
#550=VERTEX_POINT('',#1716);
#551=VERTEX_POINT('',#1720);
#552=VERTEX_POINT('',#1724);
#553=VERTEX_POINT('',#1730);
#554=VERTEX_POINT('',#1732);
#555=VERTEX_POINT('',#1736);
#556=VERTEX_POINT('',#1740);
#557=VERTEX_POINT('',#1746);
#558=VERTEX_POINT('',#1748);
#559=VERTEX_POINT('',#1752);
#560=VERTEX_POINT('',#1756);
#561=EDGE_CURVE('',#465,#466,#417,.T.);
#562=EDGE_CURVE('',#466,#467,#225,.T.);
#563=EDGE_CURVE('',#467,#468,#418,.T.);
#564=EDGE_CURVE('',#468,#465,#226,.T.);
#565=EDGE_CURVE('',#469,#466,#227,.T.);
#566=EDGE_CURVE('',#470,#469,#228,.T.);
#567=EDGE_CURVE('',#467,#470,#229,.T.);
#568=EDGE_CURVE('',#469,#471,#419,.T.);
#569=EDGE_CURVE('',#471,#472,#230,.T.);
#570=EDGE_CURVE('',#472,#470,#420,.T.);
#571=EDGE_CURVE('',#473,#471,#231,.T.);
#572=EDGE_CURVE('',#474,#473,#232,.T.);
#573=EDGE_CURVE('',#472,#474,#233,.T.);
#574=EDGE_CURVE('',#475,#476,#421,.T.);
#575=EDGE_CURVE('',#476,#477,#234,.T.);
#576=EDGE_CURVE('',#477,#478,#422,.T.);
#577=EDGE_CURVE('',#478,#475,#235,.T.);
#578=EDGE_CURVE('',#477,#468,#236,.T.);
#579=EDGE_CURVE('',#465,#476,#237,.T.);
#580=EDGE_CURVE('',#473,#479,#423,.T.);
#581=EDGE_CURVE('',#479,#480,#238,.T.);
#582=EDGE_CURVE('',#480,#474,#424,.T.);
#583=EDGE_CURVE('',#480,#478,#239,.T.);
#584=EDGE_CURVE('',#475,#479,#240,.T.);
#585=EDGE_CURVE('',#481,#481,#425,.T.);
#586=EDGE_CURVE('',#481,#482,#241,.T.);
#587=EDGE_CURVE('',#482,#482,#426,.T.);
#588=EDGE_CURVE('',#483,#483,#427,.T.);
#589=EDGE_CURVE('',#483,#484,#242,.T.);
#590=EDGE_CURVE('',#484,#484,#428,.T.);
#591=EDGE_CURVE('',#485,#485,#429,.T.);
#592=EDGE_CURVE('',#485,#486,#243,.T.);
#593=EDGE_CURVE('',#486,#486,#430,.T.);
#594=EDGE_CURVE('',#487,#487,#431,.T.);
#595=EDGE_CURVE('',#487,#488,#244,.T.);
#596=EDGE_CURVE('',#488,#488,#432,.T.);
#597=EDGE_CURVE('',#489,#489,#433,.T.);
#598=EDGE_CURVE('',#489,#490,#245,.T.);
#599=EDGE_CURVE('',#490,#490,#434,.T.);
#600=EDGE_CURVE('',#491,#491,#435,.T.);
#601=EDGE_CURVE('',#491,#492,#246,.T.);
#602=EDGE_CURVE('',#492,#492,#436,.T.);
#603=EDGE_CURVE('',#493,#493,#437,.T.);
#604=EDGE_CURVE('',#493,#494,#247,.T.);
#605=EDGE_CURVE('',#494,#494,#438,.T.);
#606=EDGE_CURVE('',#495,#495,#439,.T.);
#607=EDGE_CURVE('',#495,#496,#248,.T.);
#608=EDGE_CURVE('',#496,#496,#440,.T.);
#609=EDGE_CURVE('',#497,#498,#441,.T.);
#610=EDGE_CURVE('',#498,#499,#249,.T.);
#611=EDGE_CURVE('',#499,#500,#442,.T.);
#612=EDGE_CURVE('',#500,#497,#250,.T.);
#613=EDGE_CURVE('',#501,#500,#251,.T.);
#614=EDGE_CURVE('',#502,#501,#252,.T.);
#615=EDGE_CURVE('',#497,#502,#253,.T.);
#616=EDGE_CURVE('',#499,#503,#254,.T.);
#617=EDGE_CURVE('',#504,#503,#443,.T.);
#618=EDGE_CURVE('',#504,#505,#255,.T.);
#619=EDGE_CURVE('',#506,#505,#444,.T.);
#620=EDGE_CURVE('',#506,#507,#256,.T.);
#621=EDGE_CURVE('',#501,#507,#445,.T.);
#622=EDGE_CURVE('',#508,#509,#257,.T.);
#623=EDGE_CURVE('',#510,#508,#258,.T.);
#624=EDGE_CURVE('',#511,#510,#259,.T.);
#625=EDGE_CURVE('',#509,#511,#260,.T.);
#626=EDGE_CURVE('',#512,#513,#261,.T.);
#627=EDGE_CURVE('',#514,#512,#262,.T.);
#628=EDGE_CURVE('',#515,#514,#263,.T.);
#629=EDGE_CURVE('',#513,#515,#264,.T.);
#630=EDGE_CURVE('',#516,#517,#265,.T.);
#631=EDGE_CURVE('',#518,#516,#266,.T.);
#632=EDGE_CURVE('',#519,#518,#267,.T.);
#633=EDGE_CURVE('',#517,#519,#268,.T.);
#634=EDGE_CURVE('',#520,#521,#269,.T.);
#635=EDGE_CURVE('',#522,#520,#270,.T.);
#636=EDGE_CURVE('',#523,#522,#271,.T.);
#637=EDGE_CURVE('',#521,#523,#272,.T.);
#638=EDGE_CURVE('',#524,#524,#446,.T.);
#639=EDGE_CURVE('',#525,#525,#447,.T.);
#640=EDGE_CURVE('',#526,#526,#448,.T.);
#641=EDGE_CURVE('',#527,#527,#449,.T.);
#642=EDGE_CURVE('',#528,#528,#450,.T.);
#643=EDGE_CURVE('',#529,#529,#451,.T.);
#644=EDGE_CURVE('',#530,#530,#452,.T.);
#645=EDGE_CURVE('',#531,#531,#453,.T.);
#646=EDGE_CURVE('',#532,#502,#454,.T.);
#647=EDGE_CURVE('',#507,#532,#273,.T.);
#648=EDGE_CURVE('',#533,#506,#274,.T.);
#649=EDGE_CURVE('',#532,#533,#275,.T.);
#650=EDGE_CURVE('',#534,#533,#455,.T.);
#651=EDGE_CURVE('',#505,#534,#276,.T.);
#652=EDGE_CURVE('',#535,#504,#277,.T.);
#653=EDGE_CURVE('',#534,#535,#278,.T.);
#654=EDGE_CURVE('',#536,#535,#456,.T.);
#655=EDGE_CURVE('',#503,#536,#279,.T.);
#656=EDGE_CURVE('',#531,#537,#280,.T.);
#657=EDGE_CURVE('',#537,#537,#457,.T.);
#658=EDGE_CURVE('',#530,#538,#281,.T.);
#659=EDGE_CURVE('',#538,#538,#458,.T.);
#660=EDGE_CURVE('',#529,#539,#282,.T.);
#661=EDGE_CURVE('',#539,#539,#459,.T.);
#662=EDGE_CURVE('',#528,#540,#283,.T.);
#663=EDGE_CURVE('',#540,#540,#460,.T.);
#664=EDGE_CURVE('',#527,#541,#284,.T.);
#665=EDGE_CURVE('',#541,#541,#461,.T.);
#666=EDGE_CURVE('',#526,#542,#285,.T.);
#667=EDGE_CURVE('',#542,#542,#462,.T.);
#668=EDGE_CURVE('',#525,#543,#286,.T.);
#669=EDGE_CURVE('',#543,#543,#463,.T.);
#670=EDGE_CURVE('',#524,#544,#287,.T.);
#671=EDGE_CURVE('',#544,#544,#464,.T.);
#672=EDGE_CURVE('',#508,#545,#288,.T.);
#673=EDGE_CURVE('',#546,#545,#289,.T.);
#674=EDGE_CURVE('',#510,#546,#290,.T.);
#675=EDGE_CURVE('',#547,#546,#291,.T.);
#676=EDGE_CURVE('',#511,#547,#292,.T.);
#677=EDGE_CURVE('',#548,#547,#293,.T.);
#678=EDGE_CURVE('',#509,#548,#294,.T.);
#679=EDGE_CURVE('',#545,#548,#295,.T.);
#680=EDGE_CURVE('',#512,#549,#296,.T.);
#681=EDGE_CURVE('',#550,#549,#297,.T.);
#682=EDGE_CURVE('',#514,#550,#298,.T.);
#683=EDGE_CURVE('',#551,#550,#299,.T.);
#684=EDGE_CURVE('',#515,#551,#300,.T.);
#685=EDGE_CURVE('',#552,#551,#301,.T.);
#686=EDGE_CURVE('',#513,#552,#302,.T.);
#687=EDGE_CURVE('',#549,#552,#303,.T.);
#688=EDGE_CURVE('',#516,#553,#304,.T.);
#689=EDGE_CURVE('',#554,#553,#305,.T.);
#690=EDGE_CURVE('',#518,#554,#306,.T.);
#691=EDGE_CURVE('',#555,#554,#307,.T.);
#692=EDGE_CURVE('',#519,#555,#308,.T.);
#693=EDGE_CURVE('',#556,#555,#309,.T.);
#694=EDGE_CURVE('',#517,#556,#310,.T.);
#695=EDGE_CURVE('',#553,#556,#311,.T.);
#696=EDGE_CURVE('',#520,#557,#312,.T.);
#697=EDGE_CURVE('',#558,#557,#313,.T.);
#698=EDGE_CURVE('',#522,#558,#314,.T.);
#699=EDGE_CURVE('',#559,#558,#315,.T.);
#700=EDGE_CURVE('',#523,#559,#316,.T.);
#701=EDGE_CURVE('',#560,#559,#317,.T.);
#702=EDGE_CURVE('',#521,#560,#318,.T.);
#703=EDGE_CURVE('',#557,#560,#319,.T.);
#704=EDGE_CURVE('',#536,#498,#320,.T.);
#705=ORIENTED_EDGE('',*,*,#561,.T.);
#706=ORIENTED_EDGE('',*,*,#562,.T.);
#707=ORIENTED_EDGE('',*,*,#563,.T.);
#708=ORIENTED_EDGE('',*,*,#564,.T.);
#709=ORIENTED_EDGE('',*,*,#562,.F.);
#710=ORIENTED_EDGE('',*,*,#565,.F.);
#711=ORIENTED_EDGE('',*,*,#566,.F.);
#712=ORIENTED_EDGE('',*,*,#567,.F.);
#713=ORIENTED_EDGE('',*,*,#568,.T.);
#714=ORIENTED_EDGE('',*,*,#569,.T.);
#715=ORIENTED_EDGE('',*,*,#570,.T.);
#716=ORIENTED_EDGE('',*,*,#566,.T.);
#717=ORIENTED_EDGE('',*,*,#569,.F.);
#718=ORIENTED_EDGE('',*,*,#571,.F.);
#719=ORIENTED_EDGE('',*,*,#572,.F.);
#720=ORIENTED_EDGE('',*,*,#573,.F.);
#721=ORIENTED_EDGE('',*,*,#574,.T.);
#722=ORIENTED_EDGE('',*,*,#575,.T.);
#723=ORIENTED_EDGE('',*,*,#576,.T.);
#724=ORIENTED_EDGE('',*,*,#577,.T.);
#725=ORIENTED_EDGE('',*,*,#564,.F.);
#726=ORIENTED_EDGE('',*,*,#578,.F.);
#727=ORIENTED_EDGE('',*,*,#575,.F.);
#728=ORIENTED_EDGE('',*,*,#579,.F.);
#729=ORIENTED_EDGE('',*,*,#580,.T.);
#730=ORIENTED_EDGE('',*,*,#581,.T.);
#731=ORIENTED_EDGE('',*,*,#582,.T.);
#732=ORIENTED_EDGE('',*,*,#572,.T.);
#733=ORIENTED_EDGE('',*,*,#577,.F.);
#734=ORIENTED_EDGE('',*,*,#583,.F.);
#735=ORIENTED_EDGE('',*,*,#581,.F.);
#736=ORIENTED_EDGE('',*,*,#584,.F.);
#737=ORIENTED_EDGE('',*,*,#585,.F.);
#738=ORIENTED_EDGE('',*,*,#586,.T.);
#739=ORIENTED_EDGE('',*,*,#587,.F.);
#740=ORIENTED_EDGE('',*,*,#586,.F.);
#741=ORIENTED_EDGE('',*,*,#588,.F.);
#742=ORIENTED_EDGE('',*,*,#589,.T.);
#743=ORIENTED_EDGE('',*,*,#590,.F.);
#744=ORIENTED_EDGE('',*,*,#589,.F.);
#745=ORIENTED_EDGE('',*,*,#591,.F.);
#746=ORIENTED_EDGE('',*,*,#592,.T.);
#747=ORIENTED_EDGE('',*,*,#593,.F.);
#748=ORIENTED_EDGE('',*,*,#592,.F.);
#749=ORIENTED_EDGE('',*,*,#594,.F.);
#750=ORIENTED_EDGE('',*,*,#595,.T.);
#751=ORIENTED_EDGE('',*,*,#596,.F.);
#752=ORIENTED_EDGE('',*,*,#595,.F.);
#753=ORIENTED_EDGE('',*,*,#597,.F.);
#754=ORIENTED_EDGE('',*,*,#598,.T.);
#755=ORIENTED_EDGE('',*,*,#599,.F.);
#756=ORIENTED_EDGE('',*,*,#598,.F.);
#757=ORIENTED_EDGE('',*,*,#600,.F.);
#758=ORIENTED_EDGE('',*,*,#601,.T.);
#759=ORIENTED_EDGE('',*,*,#602,.F.);
#760=ORIENTED_EDGE('',*,*,#601,.F.);
#761=ORIENTED_EDGE('',*,*,#603,.F.);
#762=ORIENTED_EDGE('',*,*,#604,.T.);
#763=ORIENTED_EDGE('',*,*,#605,.F.);
#764=ORIENTED_EDGE('',*,*,#604,.F.);
#765=ORIENTED_EDGE('',*,*,#606,.F.);
#766=ORIENTED_EDGE('',*,*,#607,.T.);
#767=ORIENTED_EDGE('',*,*,#608,.F.);
#768=ORIENTED_EDGE('',*,*,#607,.F.);
#769=ORIENTED_EDGE('',*,*,#609,.T.);
#770=ORIENTED_EDGE('',*,*,#610,.T.);
#771=ORIENTED_EDGE('',*,*,#611,.T.);
#772=ORIENTED_EDGE('',*,*,#612,.T.);
#773=ORIENTED_EDGE('',*,*,#612,.F.);
#774=ORIENTED_EDGE('',*,*,#613,.F.);
#775=ORIENTED_EDGE('',*,*,#614,.F.);
#776=ORIENTED_EDGE('',*,*,#615,.F.);
#777=ORIENTED_EDGE('',*,*,#611,.F.);
#778=ORIENTED_EDGE('',*,*,#616,.T.);
#779=ORIENTED_EDGE('',*,*,#617,.F.);
#780=ORIENTED_EDGE('',*,*,#618,.T.);
#781=ORIENTED_EDGE('',*,*,#619,.F.);
#782=ORIENTED_EDGE('',*,*,#620,.T.);
#783=ORIENTED_EDGE('',*,*,#621,.F.);
#784=ORIENTED_EDGE('',*,*,#613,.T.);
#785=ORIENTED_EDGE('',*,*,#585,.T.);
#786=ORIENTED_EDGE('',*,*,#588,.T.);
#787=ORIENTED_EDGE('',*,*,#591,.T.);
#788=ORIENTED_EDGE('',*,*,#594,.T.);
#789=ORIENTED_EDGE('',*,*,#597,.T.);
#790=ORIENTED_EDGE('',*,*,#600,.T.);
#791=ORIENTED_EDGE('',*,*,#603,.T.);
#792=ORIENTED_EDGE('',*,*,#606,.T.);
#793=ORIENTED_EDGE('',*,*,#622,.F.);
#794=ORIENTED_EDGE('',*,*,#623,.F.);
#795=ORIENTED_EDGE('',*,*,#624,.F.);
#796=ORIENTED_EDGE('',*,*,#625,.F.);
#797=ORIENTED_EDGE('',*,*,#626,.F.);
#798=ORIENTED_EDGE('',*,*,#627,.F.);
#799=ORIENTED_EDGE('',*,*,#628,.F.);
#800=ORIENTED_EDGE('',*,*,#629,.F.);
#801=ORIENTED_EDGE('',*,*,#630,.F.);
#802=ORIENTED_EDGE('',*,*,#631,.F.);
#803=ORIENTED_EDGE('',*,*,#632,.F.);
#804=ORIENTED_EDGE('',*,*,#633,.F.);
#805=ORIENTED_EDGE('',*,*,#634,.F.);
#806=ORIENTED_EDGE('',*,*,#635,.F.);
#807=ORIENTED_EDGE('',*,*,#636,.F.);
#808=ORIENTED_EDGE('',*,*,#637,.F.);
#809=ORIENTED_EDGE('',*,*,#638,.T.);
#810=ORIENTED_EDGE('',*,*,#639,.T.);
#811=ORIENTED_EDGE('',*,*,#640,.T.);
#812=ORIENTED_EDGE('',*,*,#641,.T.);
#813=ORIENTED_EDGE('',*,*,#642,.T.);
#814=ORIENTED_EDGE('',*,*,#643,.T.);
#815=ORIENTED_EDGE('',*,*,#644,.T.);
#816=ORIENTED_EDGE('',*,*,#645,.T.);
#817=ORIENTED_EDGE('',*,*,#579,.T.);
#818=ORIENTED_EDGE('',*,*,#574,.F.);
#819=ORIENTED_EDGE('',*,*,#584,.T.);
#820=ORIENTED_EDGE('',*,*,#580,.F.);
#821=ORIENTED_EDGE('',*,*,#571,.T.);
#822=ORIENTED_EDGE('',*,*,#568,.F.);
#823=ORIENTED_EDGE('',*,*,#565,.T.);
#824=ORIENTED_EDGE('',*,*,#561,.F.);
#825=ORIENTED_EDGE('',*,*,#646,.T.);
#826=ORIENTED_EDGE('',*,*,#614,.T.);
#827=ORIENTED_EDGE('',*,*,#621,.T.);
#828=ORIENTED_EDGE('',*,*,#647,.T.);
#829=ORIENTED_EDGE('',*,*,#647,.F.);
#830=ORIENTED_EDGE('',*,*,#620,.F.);
#831=ORIENTED_EDGE('',*,*,#648,.F.);
#832=ORIENTED_EDGE('',*,*,#649,.F.);
#833=ORIENTED_EDGE('',*,*,#650,.T.);
#834=ORIENTED_EDGE('',*,*,#648,.T.);
#835=ORIENTED_EDGE('',*,*,#619,.T.);
#836=ORIENTED_EDGE('',*,*,#651,.T.);
#837=ORIENTED_EDGE('',*,*,#651,.F.);
#838=ORIENTED_EDGE('',*,*,#618,.F.);
#839=ORIENTED_EDGE('',*,*,#652,.F.);
#840=ORIENTED_EDGE('',*,*,#653,.F.);
#841=ORIENTED_EDGE('',*,*,#654,.T.);
#842=ORIENTED_EDGE('',*,*,#652,.T.);
#843=ORIENTED_EDGE('',*,*,#617,.T.);
#844=ORIENTED_EDGE('',*,*,#655,.T.);
#845=ORIENTED_EDGE('',*,*,#645,.F.);
#846=ORIENTED_EDGE('',*,*,#656,.T.);
#847=ORIENTED_EDGE('',*,*,#657,.F.);
#848=ORIENTED_EDGE('',*,*,#656,.F.);
#849=ORIENTED_EDGE('',*,*,#644,.F.);
#850=ORIENTED_EDGE('',*,*,#658,.T.);
#851=ORIENTED_EDGE('',*,*,#659,.F.);
#852=ORIENTED_EDGE('',*,*,#658,.F.);
#853=ORIENTED_EDGE('',*,*,#643,.F.);
#854=ORIENTED_EDGE('',*,*,#660,.T.);
#855=ORIENTED_EDGE('',*,*,#661,.F.);
#856=ORIENTED_EDGE('',*,*,#660,.F.);
#857=ORIENTED_EDGE('',*,*,#642,.F.);
#858=ORIENTED_EDGE('',*,*,#662,.T.);
#859=ORIENTED_EDGE('',*,*,#663,.F.);
#860=ORIENTED_EDGE('',*,*,#662,.F.);
#861=ORIENTED_EDGE('',*,*,#641,.F.);
#862=ORIENTED_EDGE('',*,*,#664,.T.);
#863=ORIENTED_EDGE('',*,*,#665,.F.);
#864=ORIENTED_EDGE('',*,*,#664,.F.);
#865=ORIENTED_EDGE('',*,*,#640,.F.);
#866=ORIENTED_EDGE('',*,*,#666,.T.);
#867=ORIENTED_EDGE('',*,*,#667,.F.);
#868=ORIENTED_EDGE('',*,*,#666,.F.);
#869=ORIENTED_EDGE('',*,*,#639,.F.);
#870=ORIENTED_EDGE('',*,*,#668,.T.);
#871=ORIENTED_EDGE('',*,*,#669,.F.);
#872=ORIENTED_EDGE('',*,*,#668,.F.);
#873=ORIENTED_EDGE('',*,*,#638,.F.);
#874=ORIENTED_EDGE('',*,*,#670,.T.);
#875=ORIENTED_EDGE('',*,*,#671,.F.);
#876=ORIENTED_EDGE('',*,*,#670,.F.);
#877=ORIENTED_EDGE('',*,*,#623,.T.);
#878=ORIENTED_EDGE('',*,*,#672,.T.);
#879=ORIENTED_EDGE('',*,*,#673,.F.);
#880=ORIENTED_EDGE('',*,*,#674,.F.);
#881=ORIENTED_EDGE('',*,*,#624,.T.);
#882=ORIENTED_EDGE('',*,*,#674,.T.);
#883=ORIENTED_EDGE('',*,*,#675,.F.);
#884=ORIENTED_EDGE('',*,*,#676,.F.);
#885=ORIENTED_EDGE('',*,*,#625,.T.);
#886=ORIENTED_EDGE('',*,*,#676,.T.);
#887=ORIENTED_EDGE('',*,*,#677,.F.);
#888=ORIENTED_EDGE('',*,*,#678,.F.);
#889=ORIENTED_EDGE('',*,*,#622,.T.);
#890=ORIENTED_EDGE('',*,*,#678,.T.);
#891=ORIENTED_EDGE('',*,*,#679,.F.);
#892=ORIENTED_EDGE('',*,*,#672,.F.);
#893=ORIENTED_EDGE('',*,*,#627,.T.);
#894=ORIENTED_EDGE('',*,*,#680,.T.);
#895=ORIENTED_EDGE('',*,*,#681,.F.);
#896=ORIENTED_EDGE('',*,*,#682,.F.);
#897=ORIENTED_EDGE('',*,*,#628,.T.);
#898=ORIENTED_EDGE('',*,*,#682,.T.);
#899=ORIENTED_EDGE('',*,*,#683,.F.);
#900=ORIENTED_EDGE('',*,*,#684,.F.);
#901=ORIENTED_EDGE('',*,*,#629,.T.);
#902=ORIENTED_EDGE('',*,*,#684,.T.);
#903=ORIENTED_EDGE('',*,*,#685,.F.);
#904=ORIENTED_EDGE('',*,*,#686,.F.);
#905=ORIENTED_EDGE('',*,*,#626,.T.);
#906=ORIENTED_EDGE('',*,*,#686,.T.);
#907=ORIENTED_EDGE('',*,*,#687,.F.);
#908=ORIENTED_EDGE('',*,*,#680,.F.);
#909=ORIENTED_EDGE('',*,*,#631,.T.);
#910=ORIENTED_EDGE('',*,*,#688,.T.);
#911=ORIENTED_EDGE('',*,*,#689,.F.);
#912=ORIENTED_EDGE('',*,*,#690,.F.);
#913=ORIENTED_EDGE('',*,*,#632,.T.);
#914=ORIENTED_EDGE('',*,*,#690,.T.);
#915=ORIENTED_EDGE('',*,*,#691,.F.);
#916=ORIENTED_EDGE('',*,*,#692,.F.);
#917=ORIENTED_EDGE('',*,*,#633,.T.);
#918=ORIENTED_EDGE('',*,*,#692,.T.);
#919=ORIENTED_EDGE('',*,*,#693,.F.);
#920=ORIENTED_EDGE('',*,*,#694,.F.);
#921=ORIENTED_EDGE('',*,*,#630,.T.);
#922=ORIENTED_EDGE('',*,*,#694,.T.);
#923=ORIENTED_EDGE('',*,*,#695,.F.);
#924=ORIENTED_EDGE('',*,*,#688,.F.);
#925=ORIENTED_EDGE('',*,*,#635,.T.);
#926=ORIENTED_EDGE('',*,*,#696,.T.);
#927=ORIENTED_EDGE('',*,*,#697,.F.);
#928=ORIENTED_EDGE('',*,*,#698,.F.);
#929=ORIENTED_EDGE('',*,*,#636,.T.);
#930=ORIENTED_EDGE('',*,*,#698,.T.);
#931=ORIENTED_EDGE('',*,*,#699,.F.);
#932=ORIENTED_EDGE('',*,*,#700,.F.);
#933=ORIENTED_EDGE('',*,*,#637,.T.);
#934=ORIENTED_EDGE('',*,*,#700,.T.);
#935=ORIENTED_EDGE('',*,*,#701,.F.);
#936=ORIENTED_EDGE('',*,*,#702,.F.);
#937=ORIENTED_EDGE('',*,*,#634,.T.);
#938=ORIENTED_EDGE('',*,*,#702,.T.);
#939=ORIENTED_EDGE('',*,*,#703,.F.);
#940=ORIENTED_EDGE('',*,*,#696,.F.);
#941=ORIENTED_EDGE('',*,*,#610,.F.);
#942=ORIENTED_EDGE('',*,*,#704,.F.);
#943=ORIENTED_EDGE('',*,*,#655,.F.);
#944=ORIENTED_EDGE('',*,*,#616,.F.);
#945=ORIENTED_EDGE('',*,*,#609,.F.);
#946=ORIENTED_EDGE('',*,*,#615,.T.);
#947=ORIENTED_EDGE('',*,*,#646,.F.);
#948=ORIENTED_EDGE('',*,*,#649,.T.);
#949=ORIENTED_EDGE('',*,*,#650,.F.);
#950=ORIENTED_EDGE('',*,*,#653,.T.);
#951=ORIENTED_EDGE('',*,*,#654,.F.);
#952=ORIENTED_EDGE('',*,*,#704,.T.);
#953=ORIENTED_EDGE('',*,*,#587,.T.);
#954=ORIENTED_EDGE('',*,*,#590,.T.);
#955=ORIENTED_EDGE('',*,*,#593,.T.);
#956=ORIENTED_EDGE('',*,*,#596,.T.);
#957=ORIENTED_EDGE('',*,*,#599,.T.);
#958=ORIENTED_EDGE('',*,*,#602,.T.);
#959=ORIENTED_EDGE('',*,*,#605,.T.);
#960=ORIENTED_EDGE('',*,*,#608,.T.);
#961=ORIENTED_EDGE('',*,*,#679,.T.);
#962=ORIENTED_EDGE('',*,*,#677,.T.);
#963=ORIENTED_EDGE('',*,*,#675,.T.);
#964=ORIENTED_EDGE('',*,*,#673,.T.);
#965=ORIENTED_EDGE('',*,*,#687,.T.);
#966=ORIENTED_EDGE('',*,*,#685,.T.);
#967=ORIENTED_EDGE('',*,*,#683,.T.);
#968=ORIENTED_EDGE('',*,*,#681,.T.);
#969=ORIENTED_EDGE('',*,*,#695,.T.);
#970=ORIENTED_EDGE('',*,*,#693,.T.);
#971=ORIENTED_EDGE('',*,*,#691,.T.);
#972=ORIENTED_EDGE('',*,*,#689,.T.);
#973=ORIENTED_EDGE('',*,*,#703,.T.);
#974=ORIENTED_EDGE('',*,*,#701,.T.);
#975=ORIENTED_EDGE('',*,*,#699,.T.);
#976=ORIENTED_EDGE('',*,*,#697,.T.);
#977=ORIENTED_EDGE('',*,*,#671,.T.);
#978=ORIENTED_EDGE('',*,*,#669,.T.);
#979=ORIENTED_EDGE('',*,*,#667,.T.);
#980=ORIENTED_EDGE('',*,*,#665,.T.);
#981=ORIENTED_EDGE('',*,*,#663,.T.);
#982=ORIENTED_EDGE('',*,*,#661,.T.);
#983=ORIENTED_EDGE('',*,*,#659,.T.);
#984=ORIENTED_EDGE('',*,*,#657,.T.);
#985=ORIENTED_EDGE('',*,*,#578,.T.);
#986=ORIENTED_EDGE('',*,*,#563,.F.);
#987=ORIENTED_EDGE('',*,*,#567,.T.);
#988=ORIENTED_EDGE('',*,*,#570,.F.);
#989=ORIENTED_EDGE('',*,*,#573,.T.);
#990=ORIENTED_EDGE('',*,*,#582,.F.);
#991=ORIENTED_EDGE('',*,*,#583,.T.);
#992=ORIENTED_EDGE('',*,*,#576,.F.);
#993=CYLINDRICAL_SURFACE('',#1081,8.);
#994=CYLINDRICAL_SURFACE('',#1085,8.);
#995=CYLINDRICAL_SURFACE('',#1089,8.);
#996=CYLINDRICAL_SURFACE('',#1093,8.);
#997=CYLINDRICAL_SURFACE('',#1097,3.);
#998=CYLINDRICAL_SURFACE('',#1100,3.);
#999=CYLINDRICAL_SURFACE('',#1103,3.);
#1000=CYLINDRICAL_SURFACE('',#1106,3.);
#1001=CYLINDRICAL_SURFACE('',#1109,3.);
#1002=CYLINDRICAL_SURFACE('',#1112,3.);
#1003=CYLINDRICAL_SURFACE('',#1115,3.);
#1004=CYLINDRICAL_SURFACE('',#1118,3.);
#1005=CYLINDRICAL_SURFACE('',#1121,40.);
#1006=CYLINDRICAL_SURFACE('',#1137,40.);
#1007=CYLINDRICAL_SURFACE('',#1140,40.);
#1008=CYLINDRICAL_SURFACE('',#1143,40.);
#1009=CYLINDRICAL_SURFACE('',#1145,1.25);
#1010=CYLINDRICAL_SURFACE('',#1147,1.25);
#1011=CYLINDRICAL_SURFACE('',#1149,1.25);
#1012=CYLINDRICAL_SURFACE('',#1151,1.25);
#1013=CYLINDRICAL_SURFACE('',#1153,1.25);
#1014=CYLINDRICAL_SURFACE('',#1155,1.25);
#1015=CYLINDRICAL_SURFACE('',#1157,1.25);
#1016=CYLINDRICAL_SURFACE('',#1159,1.25);
#1017=ADVANCED_FACE('',(#83),#993,.F.);
#1018=ADVANCED_FACE('',(#84),#57,.F.);
#1019=ADVANCED_FACE('',(#85),#994,.F.);
#1020=ADVANCED_FACE('',(#86),#58,.F.);
#1021=ADVANCED_FACE('',(#87),#995,.F.);
#1022=ADVANCED_FACE('',(#88),#59,.F.);
#1023=ADVANCED_FACE('',(#89),#996,.F.);
#1024=ADVANCED_FACE('',(#90),#60,.F.);
#1025=ADVANCED_FACE('',(#91),#997,.F.);
#1026=ADVANCED_FACE('',(#92),#998,.F.);
#1027=ADVANCED_FACE('',(#93),#999,.F.);
#1028=ADVANCED_FACE('',(#94),#1000,.F.);
#1029=ADVANCED_FACE('',(#95),#1001,.F.);
#1030=ADVANCED_FACE('',(#96),#1002,.F.);
#1031=ADVANCED_FACE('',(#97),#1003,.F.);
#1032=ADVANCED_FACE('',(#98),#1004,.F.);
#1033=ADVANCED_FACE('',(#99),#1005,.T.);
#1034=ADVANCED_FACE('',(#100),#61,.T.);
#1035=ADVANCED_FACE('',(#101,#15,#16,#17,#18,#19,#20,#21,#22,#23,#24,#25,
#26,#27,#28,#29,#30,#31,#32,#33,#34,#35),#62,.F.);
#1036=ADVANCED_FACE('',(#102),#1006,.T.);
#1037=ADVANCED_FACE('',(#103),#63,.T.);
#1038=ADVANCED_FACE('',(#104),#1007,.T.);
#1039=ADVANCED_FACE('',(#105),#64,.T.);
#1040=ADVANCED_FACE('',(#106),#1008,.T.);
#1041=ADVANCED_FACE('',(#107),#1009,.F.);
#1042=ADVANCED_FACE('',(#108),#1010,.F.);
#1043=ADVANCED_FACE('',(#109),#1011,.F.);
#1044=ADVANCED_FACE('',(#110),#1012,.F.);
#1045=ADVANCED_FACE('',(#111),#1013,.F.);
#1046=ADVANCED_FACE('',(#112),#1014,.F.);
#1047=ADVANCED_FACE('',(#113),#1015,.F.);
#1048=ADVANCED_FACE('',(#114),#1016,.F.);
#1049=ADVANCED_FACE('',(#115),#65,.T.);
#1050=ADVANCED_FACE('',(#116),#66,.T.);
#1051=ADVANCED_FACE('',(#117),#67,.T.);
#1052=ADVANCED_FACE('',(#118),#68,.T.);
#1053=ADVANCED_FACE('',(#119),#69,.T.);
#1054=ADVANCED_FACE('',(#120),#70,.T.);
#1055=ADVANCED_FACE('',(#121),#71,.T.);
#1056=ADVANCED_FACE('',(#122),#72,.T.);
#1057=ADVANCED_FACE('',(#123),#73,.T.);
#1058=ADVANCED_FACE('',(#124),#74,.T.);
#1059=ADVANCED_FACE('',(#125),#75,.T.);
#1060=ADVANCED_FACE('',(#126),#76,.T.);
#1061=ADVANCED_FACE('',(#127),#77,.T.);
#1062=ADVANCED_FACE('',(#128),#78,.T.);
#1063=ADVANCED_FACE('',(#129),#79,.T.);
#1064=ADVANCED_FACE('',(#130),#80,.T.);
#1065=ADVANCED_FACE('',(#131),#81,.T.);
#1066=ADVANCED_FACE('',(#132,#36,#37,#38,#39,#40,#41,#42,#43,#44,#45,#46,
#47,#48,#49,#50,#51,#52,#53,#54,#55,#56),#82,.T.);
#1067=CLOSED_SHELL('',(#1017,#1018,#1019,#1020,#1021,#1022,#1023,#1024,
#1025,#1026,#1027,#1028,#1029,#1030,#1031,#1032,#1033,#1034,#1035,#1036,
#1037,#1038,#1039,#1040,#1041,#1042,#1043,#1044,#1045,#1046,#1047,#1048,
#1049,#1050,#1051,#1052,#1053,#1054,#1055,#1056,#1057,#1058,#1059,#1060,
#1061,#1062,#1063,#1064,#1065,#1066));
#1068=DERIVED_UNIT_ELEMENT(#1070,1.);
#1069=DERIVED_UNIT_ELEMENT(#1769,-3.);
#1070=(
MASS_UNIT()
NAMED_UNIT(*)
SI_UNIT(.KILO.,.GRAM.)
);
#1071=DERIVED_UNIT((#1068,#1069));
#1072=MEASURE_REPRESENTATION_ITEM('density measure',
POSITIVE_RATIO_MEASURE(7850.),#1071);
#1073=PROPERTY_DEFINITION_REPRESENTATION(#1078,#1075);
#1074=PROPERTY_DEFINITION_REPRESENTATION(#1079,#1076);
#1075=REPRESENTATION('material name',(#1077),#1766);
#1076=REPRESENTATION('density',(#1072),#1766);
#1077=DESCRIPTIVE_REPRESENTATION_ITEM('Steel','Steel');
#1078=PROPERTY_DEFINITION('material property','material name',#1776);
#1079=PROPERTY_DEFINITION('material property','density of part',#1776);
#1080=AXIS2_PLACEMENT_3D('',#1473,#1179,#1180);
#1081=AXIS2_PLACEMENT_3D('',#1474,#1181,#1182);
#1082=AXIS2_PLACEMENT_3D('',#1477,#1183,#1184);
#1083=AXIS2_PLACEMENT_3D('',#1481,#1186,#1187);
#1084=AXIS2_PLACEMENT_3D('',#1483,#1189,#1190);
#1085=AXIS2_PLACEMENT_3D('',#1489,#1194,#1195);
#1086=AXIS2_PLACEMENT_3D('',#1491,#1196,#1197);
#1087=AXIS2_PLACEMENT_3D('',#1494,#1199,#1200);
#1088=AXIS2_PLACEMENT_3D('',#1495,#1201,#1202);
#1089=AXIS2_PLACEMENT_3D('',#1501,#1206,#1207);
#1090=AXIS2_PLACEMENT_3D('',#1504,#1208,#1209);
#1091=AXIS2_PLACEMENT_3D('',#1508,#1211,#1212);
#1092=AXIS2_PLACEMENT_3D('',#1510,#1214,#1215);
#1093=AXIS2_PLACEMENT_3D('',#1513,#1218,#1219);
#1094=AXIS2_PLACEMENT_3D('',#1515,#1220,#1221);
#1095=AXIS2_PLACEMENT_3D('',#1518,#1223,#1224);
#1096=AXIS2_PLACEMENT_3D('',#1519,#1225,#1226);
#1097=AXIS2_PLACEMENT_3D('',#1522,#1229,#1230);
#1098=AXIS2_PLACEMENT_3D('',#1524,#1231,#1232);
#1099=AXIS2_PLACEMENT_3D('',#1527,#1234,#1235);
#1100=AXIS2_PLACEMENT_3D('',#1528,#1236,#1237);
#1101=AXIS2_PLACEMENT_3D('',#1530,#1238,#1239);
#1102=AXIS2_PLACEMENT_3D('',#1533,#1241,#1242);
#1103=AXIS2_PLACEMENT_3D('',#1534,#1243,#1244);
#1104=AXIS2_PLACEMENT_3D('',#1536,#1245,#1246);
#1105=AXIS2_PLACEMENT_3D('',#1539,#1248,#1249);
#1106=AXIS2_PLACEMENT_3D('',#1540,#1250,#1251);
#1107=AXIS2_PLACEMENT_3D('',#1542,#1252,#1253);
#1108=AXIS2_PLACEMENT_3D('',#1545,#1255,#1256);
#1109=AXIS2_PLACEMENT_3D('',#1546,#1257,#1258);
#1110=AXIS2_PLACEMENT_3D('',#1548,#1259,#1260);
#1111=AXIS2_PLACEMENT_3D('',#1551,#1262,#1263);
#1112=AXIS2_PLACEMENT_3D('',#1552,#1264,#1265);
#1113=AXIS2_PLACEMENT_3D('',#1554,#1266,#1267);
#1114=AXIS2_PLACEMENT_3D('',#1557,#1269,#1270);
#1115=AXIS2_PLACEMENT_3D('',#1558,#1271,#1272);
#1116=AXIS2_PLACEMENT_3D('',#1560,#1273,#1274);
#1117=AXIS2_PLACEMENT_3D('',#1563,#1276,#1277);
#1118=AXIS2_PLACEMENT_3D('',#1564,#1278,#1279);
#1119=AXIS2_PLACEMENT_3D('',#1566,#1280,#1281);
#1120=AXIS2_PLACEMENT_3D('',#1569,#1283,#1284);
#1121=AXIS2_PLACEMENT_3D('',#1570,#1285,#1286);
#1122=AXIS2_PLACEMENT_3D('',#1573,#1287,#1288);
#1123=AXIS2_PLACEMENT_3D('',#1577,#1290,#1291);
#1124=AXIS2_PLACEMENT_3D('',#1579,#1293,#1294);
#1125=AXIS2_PLACEMENT_3D('',#1585,#1298,#1299);
#1126=AXIS2_PLACEMENT_3D('',#1589,#1301,#1302);
#1127=AXIS2_PLACEMENT_3D('',#1593,#1304,#1305);
#1128=AXIS2_PLACEMENT_3D('',#1596,#1307,#1308);
#1129=AXIS2_PLACEMENT_3D('',#1630,#1325,#1326);
#1130=AXIS2_PLACEMENT_3D('',#1632,#1327,#1328);
#1131=AXIS2_PLACEMENT_3D('',#1634,#1329,#1330);
#1132=AXIS2_PLACEMENT_3D('',#1636,#1331,#1332);
#1133=AXIS2_PLACEMENT_3D('',#1638,#1333,#1334);
#1134=AXIS2_PLACEMENT_3D('',#1640,#1335,#1336);
#1135=AXIS2_PLACEMENT_3D('',#1642,#1337,#1338);
#1136=AXIS2_PLACEMENT_3D('',#1644,#1339,#1340);
#1137=AXIS2_PLACEMENT_3D('',#1645,#1341,#1342);
#1138=AXIS2_PLACEMENT_3D('',#1647,#1343,#1344);
#1139=AXIS2_PLACEMENT_3D('',#1649,#1346,#1347);
#1140=AXIS2_PLACEMENT_3D('',#1653,#1350,#1351);
#1141=AXIS2_PLACEMENT_3D('',#1655,#1352,#1353);
#1142=AXIS2_PLACEMENT_3D('',#1657,#1355,#1356);
#1143=AXIS2_PLACEMENT_3D('',#1661,#1359,#1360);
#1144=AXIS2_PLACEMENT_3D('',#1663,#1361,#1362);
#1145=AXIS2_PLACEMENT_3D('',#1665,#1364,#1365);
#1146=AXIS2_PLACEMENT_3D('',#1668,#1367,#1368);
#1147=AXIS2_PLACEMENT_3D('',#1669,#1369,#1370);
#1148=AXIS2_PLACEMENT_3D('',#1672,#1372,#1373);
#1149=AXIS2_PLACEMENT_3D('',#1673,#1374,#1375);
#1150=AXIS2_PLACEMENT_3D('',#1676,#1377,#1378);
#1151=AXIS2_PLACEMENT_3D('',#1677,#1379,#1380);
#1152=AXIS2_PLACEMENT_3D('',#1680,#1382,#1383);
#1153=AXIS2_PLACEMENT_3D('',#1681,#1384,#1385);
#1154=AXIS2_PLACEMENT_3D('',#1684,#1387,#1388);
#1155=AXIS2_PLACEMENT_3D('',#1685,#1389,#1390);
#1156=AXIS2_PLACEMENT_3D('',#1688,#1392,#1393);
#1157=AXIS2_PLACEMENT_3D('',#1689,#1394,#1395);
#1158=AXIS2_PLACEMENT_3D('',#1692,#1397,#1398);
#1159=AXIS2_PLACEMENT_3D('',#1693,#1399,#1400);
#1160=AXIS2_PLACEMENT_3D('',#1696,#1402,#1403);
#1161=AXIS2_PLACEMENT_3D('',#1697,#1404,#1405);
#1162=AXIS2_PLACEMENT_3D('',#1703,#1409,#1410);
#1163=AXIS2_PLACEMENT_3D('',#1707,#1413,#1414);
#1164=AXIS2_PLACEMENT_3D('',#1711,#1417,#1418);
#1165=AXIS2_PLACEMENT_3D('',#1713,#1420,#1421);
#1166=AXIS2_PLACEMENT_3D('',#1719,#1425,#1426);
#1167=AXIS2_PLACEMENT_3D('',#1723,#1429,#1430);
#1168=AXIS2_PLACEMENT_3D('',#1727,#1433,#1434);
#1169=AXIS2_PLACEMENT_3D('',#1729,#1436,#1437);
#1170=AXIS2_PLACEMENT_3D('',#1735,#1441,#1442);
#1171=AXIS2_PLACEMENT_3D('',#1739,#1445,#1446);
#1172=AXIS2_PLACEMENT_3D('',#1743,#1449,#1450);
#1173=AXIS2_PLACEMENT_3D('',#1745,#1452,#1453);
#1174=AXIS2_PLACEMENT_3D('',#1751,#1457,#1458);
#1175=AXIS2_PLACEMENT_3D('',#1755,#1461,#1462);
#1176=AXIS2_PLACEMENT_3D('',#1759,#1465,#1466);
#1177=AXIS2_PLACEMENT_3D('',#1761,#1468,#1469);
#1178=AXIS2_PLACEMENT_3D('',#1763,#1471,#1472);
#1179=DIRECTION('axis',(0.,0.,1.));
#1180=DIRECTION('refdir',(1.,0.,0.));
#1181=DIRECTION('center_axis',(0.,0.,1.));
#1182=DIRECTION('ref_axis',(0.707106781186547,-0.707106781186548,0.));
#1183=DIRECTION('center_axis',(0.,0.,-1.));
#1184=DIRECTION('ref_axis',(0.707106781186547,-0.707106781186548,0.));
#1185=DIRECTION('',(0.,0.,1.));
#1186=DIRECTION('center_axis',(0.,0.,1.));
#1187=DIRECTION('ref_axis',(0.707106781186547,-0.707106781186548,0.));
#1188=DIRECTION('',(0.,0.,-1.));
#1189=DIRECTION('center_axis',(0.,-1.,0.));
#1190=DIRECTION('ref_axis',(1.,0.,0.));
#1191=DIRECTION('',(1.,0.,0.));
#1192=DIRECTION('',(0.,0.,-1.));
#1193=DIRECTION('',(-1.,0.,0.));
#1194=DIRECTION('center_axis',(0.,0.,1.));
#1195=DIRECTION('ref_axis',(-0.707106781186548,-0.707106781186547,0.));
#1196=DIRECTION('center_axis',(0.,0.,-1.));
#1197=DIRECTION('ref_axis',(-0.707106781186548,-0.707106781186547,0.));
#1198=DIRECTION('',(0.,0.,1.));
#1199=DIRECTION('center_axis',(0.,0.,1.));
#1200=DIRECTION('ref_axis',(-0.707106781186548,-0.707106781186547,0.));
#1201=DIRECTION('center_axis',(-1.,0.,0.));
#1202=DIRECTION('ref_axis',(0.,-1.,0.));
#1203=DIRECTION('',(0.,-1.,0.));
#1204=DIRECTION('',(0.,0.,-1.));
#1205=DIRECTION('',(0.,1.,0.));
#1206=DIRECTION('center_axis',(0.,0.,1.));
#1207=DIRECTION('ref_axis',(0.707106781186548,0.707106781186547,0.));
#1208=DIRECTION('center_axis',(0.,0.,-1.));
#1209=DIRECTION('ref_axis',(0.707106781186548,0.707106781186547,0.));
#1210=DIRECTION('',(0.,0.,1.));
#1211=DIRECTION('center_axis',(0.,0.,1.));
#1212=DIRECTION('ref_axis',(0.707106781186548,0.707106781186547,0.));
#1213=DIRECTION('',(0.,0.,-1.));
#1214=DIRECTION('center_axis',(1.,0.,0.));
#1215=DIRECTION('ref_axis',(0.,1.,0.));
#1216=DIRECTION('',(0.,-1.,0.));
#1217=DIRECTION('',(0.,1.,0.));
#1218=DIRECTION('center_axis',(0.,0.,1.));
#1219=DIRECTION('ref_axis',(-0.707106781186547,0.707106781186548,0.));
#1220=DIRECTION('center_axis',(0.,0.,-1.));
#1221=DIRECTION('ref_axis',(-0.707106781186547,0.707106781186548,0.));
#1222=DIRECTION('',(0.,0.,1.));
#1223=DIRECTION('center_axis',(0.,0.,1.));
#1224=DIRECTION('ref_axis',(-0.707106781186547,0.707106781186548,0.));
#1225=DIRECTION('center_axis',(0.,1.,0.));
#1226=DIRECTION('ref_axis',(-1.,0.,0.));
#1227=DIRECTION('',(1.,0.,0.));
#1228=DIRECTION('',(-1.,0.,0.));
#1229=DIRECTION('center_axis',(0.,0.,1.));
#1230=DIRECTION('ref_axis',(1.,-2.67189092957886E-24,0.));
#1231=DIRECTION('center_axis',(0.,0.,1.));
#1232=DIRECTION('ref_axis',(1.,-2.67189092957886E-24,0.));
#1233=DIRECTION('',(0.,0.,1.));
#1234=DIRECTION('center_axis',(0.,0.,-1.));
#1235=DIRECTION('ref_axis',(1.,-2.67189092957886E-24,0.));
#1236=DIRECTION('center_axis',(0.,0.,1.));
#1237=DIRECTION('ref_axis',(1.,-2.67189092957886E-24,0.));
#1238=DIRECTION('center_axis',(0.,0.,1.));
#1239=DIRECTION('ref_axis',(1.,-2.67189092957886E-24,0.));
#1240=DIRECTION('',(0.,0.,1.));
#1241=DIRECTION('center_axis',(0.,0.,-1.));
#1242=DIRECTION('ref_axis',(1.,-2.67189092957886E-24,0.));
#1243=DIRECTION('center_axis',(0.,0.,1.));
#1244=DIRECTION('ref_axis',(1.,-2.67189092957886E-24,0.));
#1245=DIRECTION('center_axis',(0.,0.,1.));
#1246=DIRECTION('ref_axis',(1.,-2.67189092957886E-24,0.));
#1247=DIRECTION('',(0.,0.,1.));
#1248=DIRECTION('center_axis',(0.,0.,-1.));
#1249=DIRECTION('ref_axis',(1.,-2.67189092957886E-24,0.));
#1250=DIRECTION('center_axis',(0.,0.,1.));
#1251=DIRECTION('ref_axis',(1.,-2.67189092957886E-24,0.));
#1252=DIRECTION('center_axis',(0.,0.,1.));
#1253=DIRECTION('ref_axis',(1.,-2.67189092957886E-24,0.));
#1254=DIRECTION('',(0.,0.,1.));
#1255=DIRECTION('center_axis',(0.,0.,-1.));
#1256=DIRECTION('ref_axis',(1.,-2.67189092957886E-24,0.));
#1257=DIRECTION('center_axis',(0.,0.,1.));
#1258=DIRECTION('ref_axis',(1.,-2.67189092957886E-24,0.));
#1259=DIRECTION('center_axis',(0.,0.,1.));
#1260=DIRECTION('ref_axis',(1.,-2.67189092957886E-24,0.));
#1261=DIRECTION('',(0.,0.,1.));
#1262=DIRECTION('center_axis',(0.,0.,-1.));
#1263=DIRECTION('ref_axis',(1.,-2.67189092957886E-24,0.));
#1264=DIRECTION('center_axis',(0.,0.,1.));
#1265=DIRECTION('ref_axis',(1.,-2.67189092957886E-24,0.));
#1266=DIRECTION('center_axis',(0.,0.,1.));
#1267=DIRECTION('ref_axis',(1.,-2.67189092957886E-24,0.));
#1268=DIRECTION('',(0.,0.,1.));
#1269=DIRECTION('center_axis',(0.,0.,-1.));
#1270=DIRECTION('ref_axis',(1.,-2.67189092957886E-24,0.));
#1271=DIRECTION('center_axis',(0.,0.,1.));
#1272=DIRECTION('ref_axis',(1.,-2.67189092957886E-24,0.));
#1273=DIRECTION('center_axis',(0.,0.,1.));
#1274=DIRECTION('ref_axis',(1.,-2.67189092957886E-24,0.));
#1275=DIRECTION('',(0.,0.,1.));
#1276=DIRECTION('center_axis',(0.,0.,-1.));
#1277=DIRECTION('ref_axis',(1.,-2.67189092957886E-24,0.));
#1278=DIRECTION('center_axis',(0.,0.,1.));
#1279=DIRECTION('ref_axis',(1.,-2.67189092957886E-24,0.));
#1280=DIRECTION('center_axis',(0.,0.,1.));
#1281=DIRECTION('ref_axis',(1.,-2.67189092957886E-24,0.));
#1282=DIRECTION('',(0.,0.,1.));
#1283=DIRECTION('center_axis',(0.,0.,-1.));
#1284=DIRECTION('ref_axis',(1.,-2.67189092957886E-24,0.));
#1285=DIRECTION('center_axis',(0.,0.,1.));
#1286=DIRECTION('ref_axis',(-0.707106781186547,-0.707106781186548,0.));
#1287=DIRECTION('center_axis',(0.,0.,-1.));
#1288=DIRECTION('ref_axis',(-0.707106781186547,-0.707106781186548,0.));
#1289=DIRECTION('',(0.,0.,-1.));
#1290=DIRECTION('center_axis',(0.,0.,1.));
#1291=DIRECTION('ref_axis',(-0.707106781186547,-0.707106781186548,0.));
#1292=DIRECTION('',(0.,0.,1.));
#1293=DIRECTION('center_axis',(0.,-1.,0.));
#1294=DIRECTION('ref_axis',(1.,0.,0.));
#1295=DIRECTION('',(-1.,0.,0.));
#1296=DIRECTION('',(0.,0.,-1.));
#1297=DIRECTION('',(1.,0.,0.));
#1298=DIRECTION('center_axis',(0.,0.,1.));
#1299=DIRECTION('ref_axis',(1.,0.,0.));
#1300=DIRECTION('',(-8.07434927000114E-17,1.,0.));
#1301=DIRECTION('center_axis',(0.,0.,1.));
#1302=DIRECTION('ref_axis',(-0.707106781186547,0.707106781186548,0.));
#1303=DIRECTION('',(1.,0.,0.));
#1304=DIRECTION('center_axis',(0.,0.,1.));
#1305=DIRECTION('ref_axis',(0.707106781186547,0.707106781186547,0.));
#1306=DIRECTION('',(-8.07434927000114E-17,-1.,0.));
#1307=DIRECTION('center_axis',(0.,0.,1.));
#1308=DIRECTION('ref_axis',(0.707106781186547,-0.707106781186548,0.));
#1309=DIRECTION('',(0.,1.,0.));
#1310=DIRECTION('',(-1.,-8.88178419700125E-16,0.));
#1311=DIRECTION('',(0.,-1.,0.));
#1312=DIRECTION('',(1.,0.,0.));
#1313=DIRECTION('',(0.,-1.,0.));
#1314=DIRECTION('',(1.,0.,0.));
#1315=DIRECTION('',(8.88178419700125E-16,1.,0.));
#1316=DIRECTION('',(-1.,0.,0.));
#1317=DIRECTION('',(0.,-1.,0.));
#1318=DIRECTION('',(1.,0.,0.));
#1319=DIRECTION('',(0.,1.,0.));
#1320=DIRECTION('',(-1.,0.,0.));
#1321=DIRECTION('',(-1.,0.,0.));
#1322=DIRECTION('',(0.,-1.,0.));
#1323=DIRECTION('',(1.,0.,0.));
#1324=DIRECTION('',(0.,1.,0.));
#1325=DIRECTION('center_axis',(0.,0.,1.));
#1326=DIRECTION('ref_axis',(1.,0.,0.));
#1327=DIRECTION('center_axis',(0.,0.,1.));
#1328=DIRECTION('ref_axis',(1.,0.,0.));
#1329=DIRECTION('center_axis',(0.,0.,1.));
#1330=DIRECTION('ref_axis',(1.,0.,0.));
#1331=DIRECTION('center_axis',(0.,0.,1.));
#1332=DIRECTION('ref_axis',(1.,0.,0.));
#1333=DIRECTION('center_axis',(0.,0.,1.));
#1334=DIRECTION('ref_axis',(1.,0.,0.));
#1335=DIRECTION('center_axis',(0.,0.,1.));
#1336=DIRECTION('ref_axis',(1.,0.,0.));
#1337=DIRECTION('center_axis',(0.,0.,1.));
#1338=DIRECTION('ref_axis',(1.,0.,0.));
#1339=DIRECTION('center_axis',(0.,0.,1.));
#1340=DIRECTION('ref_axis',(1.,0.,0.));
#1341=DIRECTION('center_axis',(0.,0.,1.));
#1342=DIRECTION('ref_axis',(0.707106781186547,-0.707106781186548,0.));
#1343=DIRECTION('center_axis',(0.,0.,-1.));
#1344=DIRECTION('ref_axis',(0.707106781186547,-0.707106781186548,0.));
#1345=DIRECTION('',(0.,0.,1.));
#1346=DIRECTION('center_axis',(1.,-8.07434927000114E-17,0.));
#1347=DIRECTION('ref_axis',(8.07434927000114E-17,1.,0.));
#1348=DIRECTION('',(0.,0.,-1.));
#1349=DIRECTION('',(8.07434927000114E-17,1.,0.));
#1350=DIRECTION('center_axis',(0.,0.,1.));
#1351=DIRECTION('ref_axis',(0.707106781186547,0.707106781186547,0.));
#1352=DIRECTION('center_axis',(0.,0.,-1.));
#1353=DIRECTION('ref_axis',(0.707106781186547,0.707106781186547,0.));
#1354=DIRECTION('',(0.,0.,1.));
#1355=DIRECTION('center_axis',(0.,1.,0.));
#1356=DIRECTION('ref_axis',(-1.,0.,0.));
#1357=DIRECTION('',(0.,0.,-1.));
#1358=DIRECTION('',(-1.,0.,0.));
#1359=DIRECTION('center_axis',(0.,0.,1.));
#1360=DIRECTION('ref_axis',(-0.707106781186547,0.707106781186548,0.));
#1361=DIRECTION('center_axis',(0.,0.,-1.));
#1362=DIRECTION('ref_axis',(-0.707106781186547,0.707106781186548,0.));
#1363=DIRECTION('',(0.,0.,1.));
#1364=DIRECTION('center_axis',(0.,0.,1.));
#1365=DIRECTION('ref_axis',(1.,0.,0.));
#1366=DIRECTION('',(0.,0.,1.));
#1367=DIRECTION('center_axis',(0.,0.,-1.));
#1368=DIRECTION('ref_axis',(1.,0.,0.));
#1369=DIRECTION('center_axis',(0.,0.,1.));
#1370=DIRECTION('ref_axis',(1.,0.,0.));
#1371=DIRECTION('',(0.,0.,1.));
#1372=DIRECTION('center_axis',(0.,0.,-1.));
#1373=DIRECTION('ref_axis',(1.,0.,0.));
#1374=DIRECTION('center_axis',(0.,0.,1.));
#1375=DIRECTION('ref_axis',(1.,0.,0.));
#1376=DIRECTION('',(0.,0.,1.));
#1377=DIRECTION('center_axis',(0.,0.,-1.));
#1378=DIRECTION('ref_axis',(1.,0.,0.));
#1379=DIRECTION('center_axis',(0.,0.,1.));
#1380=DIRECTION('ref_axis',(1.,0.,0.));
#1381=DIRECTION('',(0.,0.,1.));
#1382=DIRECTION('center_axis',(0.,0.,-1.));
#1383=DIRECTION('ref_axis',(1.,0.,0.));
#1384=DIRECTION('center_axis',(0.,0.,1.));
#1385=DIRECTION('ref_axis',(1.,0.,0.));
#1386=DIRECTION('',(0.,0.,1.));
#1387=DIRECTION('center_axis',(0.,0.,-1.));
#1388=DIRECTION('ref_axis',(1.,0.,0.));
#1389=DIRECTION('center_axis',(0.,0.,1.));
#1390=DIRECTION('ref_axis',(1.,0.,0.));
#1391=DIRECTION('',(0.,0.,1.));
#1392=DIRECTION('center_axis',(0.,0.,-1.));
#1393=DIRECTION('ref_axis',(1.,0.,0.));
#1394=DIRECTION('center_axis',(0.,0.,1.));
#1395=DIRECTION('ref_axis',(1.,0.,0.));
#1396=DIRECTION('',(0.,0.,1.));
#1397=DIRECTION('center_axis',(0.,0.,-1.));
#1398=DIRECTION('ref_axis',(1.,0.,0.));
#1399=DIRECTION('center_axis',(0.,0.,1.));
#1400=DIRECTION('ref_axis',(1.,0.,0.));
#1401=DIRECTION('',(0.,0.,1.));
#1402=DIRECTION('center_axis',(0.,0.,-1.));
#1403=DIRECTION('ref_axis',(1.,0.,0.));
#1404=DIRECTION('center_axis',(-8.88178419700125E-16,1.,0.));
#1405=DIRECTION('ref_axis',(-1.,-8.88178419700125E-16,0.));
#1406=DIRECTION('',(0.,0.,1.));
#1407=DIRECTION('',(-1.,-8.88178419700125E-16,0.));
#1408=DIRECTION('',(0.,0.,1.));
#1409=DIRECTION('center_axis',(-1.,0.,0.));
#1410=DIRECTION('ref_axis',(0.,-1.,0.));
#1411=DIRECTION('',(0.,-1.,0.));
#1412=DIRECTION('',(0.,0.,1.));
#1413=DIRECTION('center_axis',(0.,-1.,0.));
#1414=DIRECTION('ref_axis',(1.,0.,0.));
#1415=DIRECTION('',(1.,0.,0.));
#1416=DIRECTION('',(0.,0.,1.));
#1417=DIRECTION('center_axis',(1.,0.,0.));
#1418=DIRECTION('ref_axis',(0.,1.,0.));
#1419=DIRECTION('',(0.,1.,0.));
#1420=DIRECTION('center_axis',(0.,-1.,0.));
#1421=DIRECTION('ref_axis',(1.,0.,0.));
#1422=DIRECTION('',(0.,0.,1.));
#1423=DIRECTION('',(1.,0.,0.));
#1424=DIRECTION('',(0.,0.,1.));
#1425=DIRECTION('center_axis',(1.,-8.88178419700125E-16,0.));
#1426=DIRECTION('ref_axis',(8.88178419700125E-16,1.,0.));
#1427=DIRECTION('',(8.88178419700125E-16,1.,0.));
#1428=DIRECTION('',(0.,0.,1.));
#1429=DIRECTION('center_axis',(0.,1.,0.));
#1430=DIRECTION('ref_axis',(-1.,0.,0.));
#1431=DIRECTION('',(-1.,0.,0.));
#1432=DIRECTION('',(0.,0.,1.));
#1433=DIRECTION('center_axis',(-1.,0.,0.));
#1434=DIRECTION('ref_axis',(0.,-1.,0.));
#1435=DIRECTION('',(0.,-1.,0.));
#1436=DIRECTION('center_axis',(0.,-1.,0.));
#1437=DIRECTION('ref_axis',(1.,0.,0.));
#1438=DIRECTION('',(0.,0.,1.));
#1439=DIRECTION('',(1.,0.,0.));
#1440=DIRECTION('',(0.,0.,1.));
#1441=DIRECTION('center_axis',(1.,0.,0.));
#1442=DIRECTION('ref_axis',(0.,1.,0.));
#1443=DIRECTION('',(0.,1.,0.));
#1444=DIRECTION('',(0.,0.,1.));
#1445=DIRECTION('center_axis',(0.,1.,0.));
#1446=DIRECTION('ref_axis',(-1.,0.,0.));
#1447=DIRECTION('',(-1.,0.,0.));
#1448=DIRECTION('',(0.,0.,1.));
#1449=DIRECTION('center_axis',(-1.,0.,0.));
#1450=DIRECTION('ref_axis',(0.,-1.,0.));
#1451=DIRECTION('',(0.,-1.,0.));
#1452=DIRECTION('center_axis',(-1.,0.,0.));
#1453=DIRECTION('ref_axis',(0.,-1.,0.));
#1454=DIRECTION('',(0.,0.,1.));
#1455=DIRECTION('',(0.,-1.,0.));
#1456=DIRECTION('',(0.,0.,1.));
#1457=DIRECTION('center_axis',(0.,-1.,0.));
#1458=DIRECTION('ref_axis',(1.,0.,0.));
#1459=DIRECTION('',(1.,0.,0.));
#1460=DIRECTION('',(0.,0.,1.));
#1461=DIRECTION('center_axis',(1.,0.,0.));
#1462=DIRECTION('ref_axis',(0.,1.,0.));
#1463=DIRECTION('',(0.,1.,0.));
#1464=DIRECTION('',(0.,0.,1.));
#1465=DIRECTION('center_axis',(0.,1.,0.));
#1466=DIRECTION('ref_axis',(-1.,0.,0.));
#1467=DIRECTION('',(-1.,0.,0.));
#1468=DIRECTION('center_axis',(-1.,-8.07434927000114E-17,0.));
#1469=DIRECTION('ref_axis',(8.07434927000114E-17,-1.,0.));
#1470=DIRECTION('',(8.07434927000114E-17,-1.,0.));
#1471=DIRECTION('center_axis',(0.,0.,1.));
#1472=DIRECTION('ref_axis',(1.,0.,0.));
#1473=CARTESIAN_POINT('',(0.,0.,0.));
#1474=CARTESIAN_POINT('Origin',(12.,-12.,0.));
#1475=CARTESIAN_POINT('',(20.,-12.,0.));
#1476=CARTESIAN_POINT('',(12.,-20.,0.));
#1477=CARTESIAN_POINT('Origin',(12.,-12.,0.));
#1478=CARTESIAN_POINT('',(12.,-20.,3.));
#1479=CARTESIAN_POINT('',(12.,-20.,0.));
#1480=CARTESIAN_POINT('',(20.,-12.,3.));
#1481=CARTESIAN_POINT('Origin',(12.,-12.,3.));
#1482=CARTESIAN_POINT('',(20.,-12.,0.));
#1483=CARTESIAN_POINT('Origin',(-20.,-20.,0.));
#1484=CARTESIAN_POINT('',(-12.,-20.,0.));
#1485=CARTESIAN_POINT('',(-10.,-20.,0.));
#1486=CARTESIAN_POINT('',(-12.,-20.,3.));
#1487=CARTESIAN_POINT('',(-12.,-20.,0.));
#1488=CARTESIAN_POINT('',(-10.,-20.,3.));
#1489=CARTESIAN_POINT('Origin',(-12.,-12.,0.));
#1490=CARTESIAN_POINT('',(-20.,-12.,0.));
#1491=CARTESIAN_POINT('Origin',(-12.,-12.,0.));
#1492=CARTESIAN_POINT('',(-20.,-12.,3.));
#1493=CARTESIAN_POINT('',(-20.,-12.,0.));
#1494=CARTESIAN_POINT('Origin',(-12.,-12.,3.));
#1495=CARTESIAN_POINT('Origin',(-20.,20.,0.));
#1496=CARTESIAN_POINT('',(-20.,12.,0.));
#1497=CARTESIAN_POINT('',(-20.,10.,0.));
#1498=CARTESIAN_POINT('',(-20.,12.,3.));
#1499=CARTESIAN_POINT('',(-20.,12.,0.));
#1500=CARTESIAN_POINT('',(-20.,10.,3.));
#1501=CARTESIAN_POINT('Origin',(12.,12.,0.));
#1502=CARTESIAN_POINT('',(12.,20.,0.));
#1503=CARTESIAN_POINT('',(20.,12.,0.));
#1504=CARTESIAN_POINT('Origin',(12.,12.,0.));
#1505=CARTESIAN_POINT('',(20.,12.,3.));
#1506=CARTESIAN_POINT('',(20.,12.,0.));
#1507=CARTESIAN_POINT('',(12.,20.,3.));
#1508=CARTESIAN_POINT('Origin',(12.,12.,3.));
#1509=CARTESIAN_POINT('',(12.,20.,0.));
#1510=CARTESIAN_POINT('Origin',(20.,-20.,0.));
#1511=CARTESIAN_POINT('',(20.,-9.99999999999999,3.));
#1512=CARTESIAN_POINT('',(20.,-9.99999999999999,0.));
#1513=CARTESIAN_POINT('Origin',(-12.,12.,0.));
#1514=CARTESIAN_POINT('',(-12.,20.,0.));
#1515=CARTESIAN_POINT('Origin',(-12.,12.,0.));
#1516=CARTESIAN_POINT('',(-12.,20.,3.));
#1517=CARTESIAN_POINT('',(-12.,20.,0.));
#1518=CARTESIAN_POINT('Origin',(-12.,12.,3.));
#1519=CARTESIAN_POINT('Origin',(20.,20.,0.));
#1520=CARTESIAN_POINT('',(10.,20.,3.));
#1521=CARTESIAN_POINT('',(10.,20.,0.));
#1522=CARTESIAN_POINT('Origin',(1.00000001490116,47.0000007003546,-2.14442305022187E-22));
#1523=CARTESIAN_POINT('',(-1.99999998509884,47.0000007003546,-2.14442305022187E-22));
#1524=CARTESIAN_POINT('Origin',(1.00000001490116,47.0000007003546,0.));
#1525=CARTESIAN_POINT('',(-1.99999998509884,47.0000007003546,3.));
#1526=CARTESIAN_POINT('',(-1.99999998509884,47.0000007003546,-2.14442305022187E-22));
#1527=CARTESIAN_POINT('Origin',(1.00000001490116,47.0000007003546,3.));
#1528=CARTESIAN_POINT('Origin',(-1.00000001490116,-47.0000007003546,2.14442305022187E-22));
#1529=CARTESIAN_POINT('',(-4.00000001490116,-47.0000007003546,2.14442305022187E-22));
#1530=CARTESIAN_POINT('Origin',(-1.00000001490116,-47.0000007003546,0.));
#1531=CARTESIAN_POINT('',(-4.00000001490116,-47.0000007003546,3.));
#1532=CARTESIAN_POINT('',(-4.00000001490116,-47.0000007003546,2.14442305022187E-22));
#1533=CARTESIAN_POINT('Origin',(-1.00000001490116,-47.0000007003546,3.));
#1534=CARTESIAN_POINT('Origin',(47.0000007003546,-27.0000004023313,1.23190260331895E-22));
#1535=CARTESIAN_POINT('',(44.0000007003546,-27.0000004023313,1.23190260331895E-22));
#1536=CARTESIAN_POINT('Origin',(47.0000007003546,-27.0000004023313,0.));
#1537=CARTESIAN_POINT('',(44.0000007003546,-27.0000004023313,3.));
#1538=CARTESIAN_POINT('',(44.0000007003546,-27.0000004023313,1.23190260331895E-22));
#1539=CARTESIAN_POINT('Origin',(47.0000007003546,-27.0000004023313,3.));
#1540=CARTESIAN_POINT('Origin',(-47.0000007003546,27.0000004023314,-1.23190260331895E-22));
#1541=CARTESIAN_POINT('',(-50.0000007003546,27.0000004023314,-1.23190260331895E-22));
#1542=CARTESIAN_POINT('Origin',(-47.0000007003546,27.0000004023314,0.));
#1543=CARTESIAN_POINT('',(-50.0000007003546,27.0000004023314,3.));
#1544=CARTESIAN_POINT('',(-50.0000007003546,27.0000004023314,-1.23190260331895E-22));
#1545=CARTESIAN_POINT('Origin',(-47.0000007003546,27.0000004023314,3.));
#1546=CARTESIAN_POINT('Origin',(27.0000004023313,47.0000007003546,-2.14442305022187E-22));
#1547=CARTESIAN_POINT('',(24.0000004023313,47.0000007003546,-2.14442305022187E-22));
#1548=CARTESIAN_POINT('Origin',(27.0000004023313,47.0000007003546,0.));
#1549=CARTESIAN_POINT('',(24.0000004023313,47.0000007003546,3.));
#1550=CARTESIAN_POINT('',(24.0000004023313,47.0000007003546,-2.14442305022187E-22));
#1551=CARTESIAN_POINT('Origin',(27.0000004023313,47.0000007003546,3.));
#1552=CARTESIAN_POINT('Origin',(-27.0000004023314,-47.0000007003546,2.14442305022187E-22));
#1553=CARTESIAN_POINT('',(-30.0000004023314,-47.0000007003546,2.14442305022187E-22));
#1554=CARTESIAN_POINT('Origin',(-27.0000004023314,-47.0000007003546,0.));
#1555=CARTESIAN_POINT('',(-30.0000004023314,-47.0000007003546,3.));
#1556=CARTESIAN_POINT('',(-30.0000004023314,-47.0000007003546,2.14442305022187E-22));
#1557=CARTESIAN_POINT('Origin',(-27.0000004023314,-47.0000007003546,3.));
#1558=CARTESIAN_POINT('Origin',(47.0000007003546,-1.00000001490115,4.56260223451466E-24));
#1559=CARTESIAN_POINT('',(44.0000007003546,-1.00000001490115,4.56260223451465E-24));
#1560=CARTESIAN_POINT('Origin',(47.0000007003546,-1.00000001490115,0.));
#1561=CARTESIAN_POINT('',(44.0000007003546,-1.00000001490115,3.));
#1562=CARTESIAN_POINT('',(44.0000007003546,-1.00000001490115,4.56260223451466E-24));
#1563=CARTESIAN_POINT('Origin',(47.0000007003546,-1.00000001490115,3.));
#1564=CARTESIAN_POINT('Origin',(-47.0000007003546,1.00000001490117,-4.56260223451476E-24));
#1565=CARTESIAN_POINT('',(-50.0000007003546,1.00000001490117,-4.56260223451476E-24));
#1566=CARTESIAN_POINT('Origin',(-47.0000007003546,1.00000001490117,0.));
#1567=CARTESIAN_POINT('',(-50.0000007003546,1.00000001490117,3.));
#1568=CARTESIAN_POINT('',(-50.0000007003546,1.00000001490117,-4.56260223451476E-24));
#1569=CARTESIAN_POINT('Origin',(-47.0000007003546,1.00000001490117,3.));
#1570=CARTESIAN_POINT('Origin',(-15.,-15.,0.));
#1571=CARTESIAN_POINT('',(-15.,-55.,3.));
#1572=CARTESIAN_POINT('',(-55.,-15.,3.));
#1573=CARTESIAN_POINT('Origin',(-15.,-15.,3.));
#1574=CARTESIAN_POINT('',(-55.,-15.,0.));
#1575=CARTESIAN_POINT('',(-55.,-15.,0.));
#1576=CARTESIAN_POINT('',(-15.,-55.,0.));
#1577=CARTESIAN_POINT('Origin',(-15.,-15.,0.));
#1578=CARTESIAN_POINT('',(-15.,-55.,0.));
#1579=CARTESIAN_POINT('Origin',(-55.,-55.,0.));
#1580=CARTESIAN_POINT('',(15.,-55.,0.));
#1581=CARTESIAN_POINT('',(55.,-55.,0.));
#1582=CARTESIAN_POINT('',(15.,-55.,3.));
#1583=CARTESIAN_POINT('',(15.,-55.,0.));
#1584=CARTESIAN_POINT('',(55.,-55.,3.));
#1585=CARTESIAN_POINT('Origin',(-8.88178419700125E-15,8.88178419700125E-15,
0.));
#1586=CARTESIAN_POINT('',(-55.,15.,0.));
#1587=CARTESIAN_POINT('',(-55.,-55.,0.));
#1588=CARTESIAN_POINT('',(-15.,55.,0.));
#1589=CARTESIAN_POINT('Origin',(-15.,15.,0.));
#1590=CARTESIAN_POINT('',(15.,55.,0.));
#1591=CARTESIAN_POINT('',(-55.,55.,0.));
#1592=CARTESIAN_POINT('',(55.,15.,0.));
#1593=CARTESIAN_POINT('Origin',(15.,15.,0.));
#1594=CARTESIAN_POINT('',(55.,-15.,0.));
#1595=CARTESIAN_POINT('',(55.,55.,0.));
#1596=CARTESIAN_POINT('Origin',(15.,-15.,0.));
#1597=CARTESIAN_POINT('',(-27.4,33.4,0.));
#1598=CARTESIAN_POINT('',(-27.4,36.4,0.));
#1599=CARTESIAN_POINT('',(-27.4,36.4,0.));
#1600=CARTESIAN_POINT('',(-17.4,33.4,0.));
#1601=CARTESIAN_POINT('',(-27.4,33.4,0.));
#1602=CARTESIAN_POINT('',(-17.4,36.4,0.));
#1603=CARTESIAN_POINT('',(-17.4,33.4,0.));
#1604=CARTESIAN_POINT('',(-17.4,36.4,0.));
#1605=CARTESIAN_POINT('',(-33.4,-17.4,0.));
#1606=CARTESIAN_POINT('',(-33.4,-27.4,0.));
#1607=CARTESIAN_POINT('',(-33.4,-27.4,0.));
#1608=CARTESIAN_POINT('',(-36.4,-17.4,0.));
#1609=CARTESIAN_POINT('',(-33.4,-17.4,0.));
#1610=CARTESIAN_POINT('',(-36.4,-27.4,0.));
#1611=CARTESIAN_POINT('',(-36.4,-17.4,0.));
#1612=CARTESIAN_POINT('',(-36.4,-27.4,0.));
#1613=CARTESIAN_POINT('',(27.4,-33.4,0.));
#1614=CARTESIAN_POINT('',(27.4,-36.4,0.));
#1615=CARTESIAN_POINT('',(27.4,-36.4,0.));
#1616=CARTESIAN_POINT('',(17.4,-33.4,0.));
#1617=CARTESIAN_POINT('',(27.4,-33.4,0.));
#1618=CARTESIAN_POINT('',(17.4,-36.4,0.));
#1619=CARTESIAN_POINT('',(17.4,-33.4,0.));
#1620=CARTESIAN_POINT('',(17.4,-36.4,0.));
#1621=CARTESIAN_POINT('',(36.4,17.4,0.));
#1622=CARTESIAN_POINT('',(33.4,17.4,0.));
#1623=CARTESIAN_POINT('',(36.4,17.4,0.));
#1624=CARTESIAN_POINT('',(36.4,27.4,0.));
#1625=CARTESIAN_POINT('',(36.4,27.4,0.));
#1626=CARTESIAN_POINT('',(33.4,27.4,0.));
#1627=CARTESIAN_POINT('',(33.4,27.4,0.));
#1628=CARTESIAN_POINT('',(33.4,17.4,0.));
#1629=CARTESIAN_POINT('',(-39.4,-7.75000000000001,0.));
#1630=CARTESIAN_POINT('Origin',(-38.15,-7.75000000000001,0.));
#1631=CARTESIAN_POINT('',(36.9,7.75,0.));
#1632=CARTESIAN_POINT('Origin',(38.15,7.75,0.));
#1633=CARTESIAN_POINT('',(-39.4,37.75,0.));
#1634=CARTESIAN_POINT('Origin',(-38.15,37.75,0.));
#1635=CARTESIAN_POINT('',(36.9,-37.75,0.));
#1636=CARTESIAN_POINT('Origin',(38.15,-37.75,0.));
#1637=CARTESIAN_POINT('',(-39.,-38.15,0.));
#1638=CARTESIAN_POINT('Origin',(-37.75,-38.15,0.));
#1639=CARTESIAN_POINT('',(36.5,38.15,0.));
#1640=CARTESIAN_POINT('Origin',(37.75,38.15,0.));
#1641=CARTESIAN_POINT('',(-9.,38.15,0.));
#1642=CARTESIAN_POINT('Origin',(-7.75,38.15,0.));
#1643=CARTESIAN_POINT('',(6.50000000000002,-38.15,0.));
#1644=CARTESIAN_POINT('Origin',(7.75000000000002,-38.15,0.));
#1645=CARTESIAN_POINT('Origin',(15.,-15.,0.));
#1646=CARTESIAN_POINT('',(55.,-15.,3.));
#1647=CARTESIAN_POINT('Origin',(15.,-15.,3.));
#1648=CARTESIAN_POINT('',(55.,-15.,0.));
#1649=CARTESIAN_POINT('Origin',(55.,-55.,0.));
#1650=CARTESIAN_POINT('',(55.,15.,3.));
#1651=CARTESIAN_POINT('',(55.,15.,0.));
#1652=CARTESIAN_POINT('',(55.,55.,3.));
#1653=CARTESIAN_POINT('Origin',(15.,15.,0.));
#1654=CARTESIAN_POINT('',(15.,55.,3.));
#1655=CARTESIAN_POINT('Origin',(15.,15.,3.));
#1656=CARTESIAN_POINT('',(15.,55.,0.));
#1657=CARTESIAN_POINT('Origin',(55.,55.,0.));
#1658=CARTESIAN_POINT('',(-15.,55.,3.));
#1659=CARTESIAN_POINT('',(-15.,55.,0.));
#1660=CARTESIAN_POINT('',(-55.,55.,3.));
#1661=CARTESIAN_POINT('Origin',(-15.,15.,0.));
#1662=CARTESIAN_POINT('',(-55.,15.,3.));
#1663=CARTESIAN_POINT('Origin',(-15.,15.,3.));
#1664=CARTESIAN_POINT('',(-55.,15.,0.));
#1665=CARTESIAN_POINT('Origin',(7.75000000000002,-38.15,0.));
#1666=CARTESIAN_POINT('',(6.50000000000002,-38.15,3.));
#1667=CARTESIAN_POINT('',(6.50000000000002,-38.15,0.));
#1668=CARTESIAN_POINT('Origin',(7.75000000000002,-38.15,3.));
#1669=CARTESIAN_POINT('Origin',(-7.75,38.15,0.));
#1670=CARTESIAN_POINT('',(-9.,38.15,3.));
#1671=CARTESIAN_POINT('',(-9.,38.15,0.));
#1672=CARTESIAN_POINT('Origin',(-7.75,38.15,3.));
#1673=CARTESIAN_POINT('Origin',(37.75,38.15,0.));
#1674=CARTESIAN_POINT('',(36.5,38.15,3.));
#1675=CARTESIAN_POINT('',(36.5,38.15,0.));
#1676=CARTESIAN_POINT('Origin',(37.75,38.15,3.));
#1677=CARTESIAN_POINT('Origin',(-37.75,-38.15,0.));
#1678=CARTESIAN_POINT('',(-39.,-38.15,3.));
#1679=CARTESIAN_POINT('',(-39.,-38.15,0.));
#1680=CARTESIAN_POINT('Origin',(-37.75,-38.15,3.));
#1681=CARTESIAN_POINT('Origin',(38.15,-37.75,0.));
#1682=CARTESIAN_POINT('',(36.9,-37.75,3.));
#1683=CARTESIAN_POINT('',(36.9,-37.75,0.));
#1684=CARTESIAN_POINT('Origin',(38.15,-37.75,3.));
#1685=CARTESIAN_POINT('Origin',(-38.15,37.75,0.));
#1686=CARTESIAN_POINT('',(-39.4,37.75,3.));
#1687=CARTESIAN_POINT('',(-39.4,37.75,0.));
#1688=CARTESIAN_POINT('Origin',(-38.15,37.75,3.));
#1689=CARTESIAN_POINT('Origin',(38.15,7.75,0.));
#1690=CARTESIAN_POINT('',(36.9,7.75,3.));
#1691=CARTESIAN_POINT('',(36.9,7.75,0.));
#1692=CARTESIAN_POINT('Origin',(38.15,7.75,3.));
#1693=CARTESIAN_POINT('Origin',(-38.15,-7.75000000000001,0.));
#1694=CARTESIAN_POINT('',(-39.4,-7.75000000000001,3.));
#1695=CARTESIAN_POINT('',(-39.4,-7.75000000000001,0.));
#1696=CARTESIAN_POINT('Origin',(-38.15,-7.75000000000001,3.));
#1697=CARTESIAN_POINT('Origin',(-17.4,33.4,0.));
#1698=CARTESIAN_POINT('',(-27.4,33.4,3.));
#1699=CARTESIAN_POINT('',(-27.4,33.4,0.));
#1700=CARTESIAN_POINT('',(-17.4,33.4,3.));
#1701=CARTESIAN_POINT('',(-27.4,33.4,3.));
#1702=CARTESIAN_POINT('',(-17.4,33.4,0.));
#1703=CARTESIAN_POINT('Origin',(-17.4,36.4,0.));
#1704=CARTESIAN_POINT('',(-17.4,36.4,3.));
#1705=CARTESIAN_POINT('',(-17.4,33.4,3.));
#1706=CARTESIAN_POINT('',(-17.4,36.4,0.));
#1707=CARTESIAN_POINT('Origin',(-27.4,36.4,0.));
#1708=CARTESIAN_POINT('',(-27.4,36.4,3.));
#1709=CARTESIAN_POINT('',(-17.4,36.4,3.));
#1710=CARTESIAN_POINT('',(-27.4,36.4,0.));
#1711=CARTESIAN_POINT('Origin',(-27.4,33.4,0.));
#1712=CARTESIAN_POINT('',(-27.4,36.4,3.));
#1713=CARTESIAN_POINT('Origin',(-36.4,-17.4,0.));
#1714=CARTESIAN_POINT('',(-33.4,-17.4,3.));
#1715=CARTESIAN_POINT('',(-33.4,-17.4,0.));
#1716=CARTESIAN_POINT('',(-36.4,-17.4,3.));
#1717=CARTESIAN_POINT('',(-33.4,-17.4,3.));
#1718=CARTESIAN_POINT('',(-36.4,-17.4,0.));
#1719=CARTESIAN_POINT('Origin',(-36.4,-27.4,0.));
#1720=CARTESIAN_POINT('',(-36.4,-27.4,3.));
#1721=CARTESIAN_POINT('',(-36.4,-17.4,3.));
#1722=CARTESIAN_POINT('',(-36.4,-27.4,0.));
#1723=CARTESIAN_POINT('Origin',(-33.4,-27.4,0.));
#1724=CARTESIAN_POINT('',(-33.4,-27.4,3.));
#1725=CARTESIAN_POINT('',(-36.4,-27.4,3.));
#1726=CARTESIAN_POINT('',(-33.4,-27.4,0.));
#1727=CARTESIAN_POINT('Origin',(-33.4,-17.4,0.));
#1728=CARTESIAN_POINT('',(-33.4,-27.4,3.));
#1729=CARTESIAN_POINT('Origin',(17.4,-33.4,0.));
#1730=CARTESIAN_POINT('',(27.4,-33.4,3.));
#1731=CARTESIAN_POINT('',(27.4,-33.4,0.));
#1732=CARTESIAN_POINT('',(17.4,-33.4,3.));
#1733=CARTESIAN_POINT('',(27.4,-33.4,3.));
#1734=CARTESIAN_POINT('',(17.4,-33.4,0.));
#1735=CARTESIAN_POINT('Origin',(17.4,-36.4,0.));
#1736=CARTESIAN_POINT('',(17.4,-36.4,3.));
#1737=CARTESIAN_POINT('',(17.4,-33.4,3.));
#1738=CARTESIAN_POINT('',(17.4,-36.4,0.));
#1739=CARTESIAN_POINT('Origin',(27.4,-36.4,0.));
#1740=CARTESIAN_POINT('',(27.4,-36.4,3.));
#1741=CARTESIAN_POINT('',(17.4,-36.4,3.));
#1742=CARTESIAN_POINT('',(27.4,-36.4,0.));
#1743=CARTESIAN_POINT('Origin',(27.4,-33.4,0.));
#1744=CARTESIAN_POINT('',(27.4,-36.4,3.));
#1745=CARTESIAN_POINT('Origin',(36.4,27.4,0.));
#1746=CARTESIAN_POINT('',(36.4,17.4,3.));
#1747=CARTESIAN_POINT('',(36.4,17.4,0.));
#1748=CARTESIAN_POINT('',(36.4,27.4,3.));
#1749=CARTESIAN_POINT('',(36.4,27.4,3.));
#1750=CARTESIAN_POINT('',(36.4,27.4,0.));
#1751=CARTESIAN_POINT('Origin',(33.4,27.4,0.));
#1752=CARTESIAN_POINT('',(33.4,27.4,3.));
#1753=CARTESIAN_POINT('',(33.4,27.4,3.));
#1754=CARTESIAN_POINT('',(33.4,27.4,0.));
#1755=CARTESIAN_POINT('Origin',(33.4,17.4,0.));
#1756=CARTESIAN_POINT('',(33.4,17.4,3.));
#1757=CARTESIAN_POINT('',(33.4,17.4,3.));
#1758=CARTESIAN_POINT('',(33.4,17.4,0.));
#1759=CARTESIAN_POINT('Origin',(36.4,17.4,0.));
#1760=CARTESIAN_POINT('',(36.4,17.4,3.));
#1761=CARTESIAN_POINT('Origin',(-55.,55.,0.));
#1762=CARTESIAN_POINT('',(-55.,-55.,3.));
#1763=CARTESIAN_POINT('Origin',(-8.88178419700125E-15,8.88178419700125E-15,
3.));
#1764=UNCERTAINTY_MEASURE_WITH_UNIT(LENGTH_MEASURE(0.01),#1768,
'DISTANCE_ACCURACY_VALUE',
'Maximum model space distance between geometric entities at asserted c
onnectivities');
#1765=UNCERTAINTY_MEASURE_WITH_UNIT(LENGTH_MEASURE(0.01),#1768,
'DISTANCE_ACCURACY_VALUE',
'Maximum model space distance between geometric entities at asserted c
onnectivities');
#1766=(
GEOMETRIC_REPRESENTATION_CONTEXT(3)
GLOBAL_UNCERTAINTY_ASSIGNED_CONTEXT((#1764))
GLOBAL_UNIT_ASSIGNED_CONTEXT((#1768,#1770,#1771))
REPRESENTATION_CONTEXT('','3D')
);
#1767=(
GEOMETRIC_REPRESENTATION_CONTEXT(3)
GLOBAL_UNCERTAINTY_ASSIGNED_CONTEXT((#1765))
GLOBAL_UNIT_ASSIGNED_CONTEXT((#1768,#1770,#1771))
REPRESENTATION_CONTEXT('','3D')
);
#1768=(
LENGTH_UNIT()
NAMED_UNIT(*)
SI_UNIT(.MILLI.,.METRE.)
);
#1769=(
LENGTH_UNIT()
NAMED_UNIT(*)
SI_UNIT($,.METRE.)
);
#1770=(
NAMED_UNIT(*)
PLANE_ANGLE_UNIT()
SI_UNIT($,.RADIAN.)
);
#1771=(
NAMED_UNIT(*)
SI_UNIT($,.STERADIAN.)
SOLID_ANGLE_UNIT()
);
#1772=SHAPE_DEFINITION_REPRESENTATION(#1773,#1774);
#1773=PRODUCT_DEFINITION_SHAPE('',$,#1776);
#1774=SHAPE_REPRESENTATION('',(#1080),#1766);
#1775=PRODUCT_DEFINITION_CONTEXT('part definition',#1780,'design');
#1776=PRODUCT_DEFINITION('MidPlate','MidPlate v8',#1777,#1775);
#1777=PRODUCT_DEFINITION_FORMATION('',$,#1782);
#1778=PRODUCT_RELATED_PRODUCT_CATEGORY('MidPlate v8','MidPlate v8',(#1782));
#1779=APPLICATION_PROTOCOL_DEFINITION('international standard',
'automotive_design',2009,#1780);
#1780=APPLICATION_CONTEXT(
'Core Data for Automotive Mechanical Design Process');
#1781=PRODUCT_CONTEXT('part definition',#1780,'mechanical');
#1782=PRODUCT('MidPlate','MidPlate v8',$,(#1781));
#1783=PRESENTATION_STYLE_ASSIGNMENT((#1785));
#1784=PRESENTATION_STYLE_ASSIGNMENT((#1786));
#1785=SURFACE_STYLE_USAGE(.BOTH.,#1787);
#1786=SURFACE_STYLE_USAGE(.BOTH.,#1788);
#1787=SURFACE_SIDE_STYLE('',(#1789));
#1788=SURFACE_SIDE_STYLE('',(#1790));
#1789=SURFACE_STYLE_FILL_AREA(#1791);
#1790=SURFACE_STYLE_FILL_AREA(#1792);
#1791=FILL_AREA_STYLE('Steel - Satin',(#1793));
#1792=FILL_AREA_STYLE('Acrylic (Clear)',(#1794));
#1793=FILL_AREA_STYLE_COLOUR('Steel - Satin',#1795);
#1794=FILL_AREA_STYLE_COLOUR('Acrylic (Clear)',#1796);
#1795=COLOUR_RGB('Steel - Satin',0.627450980392157,0.627450980392157,0.627450980392157);
#1796=COLOUR_RGB('Acrylic (Clear)',0.964705882352941,0.964705882352941,
0.952941176470588);
ENDSEC;
END-ISO-10303-21;
