ISO-10303-21;
HEADER;
/* Generated by software containing ST-Developer
 * from STEP Tools, Inc. (www.steptools.com) 
 */

FILE_DESCRIPTION(
/* description */ (''),
/* implementation_level */ '2;1');

FILE_NAME(
/* name */ 'ConnectingBracketV2_v6.step',
/* time_stamp */ '2026-08-21T09:20:42-04:00',
/* author */ (''),
/* organization */ (''),
/* preprocessor_version */ 'ST-DEVELOPER v20.1',
/* originating_system */ 'Autodesk Translation Framework v15.8.0.0',
/* authorisation */ '');

FILE_SCHEMA (('AUTOMOTIVE_DESIGN { 1 0 10303 214 3 1 1 }'));
ENDSEC;

DATA;
#10=MECHANICAL_DESIGN_GEOMETRIC_PRESENTATION_REPRESENTATION('',(#13),#946);
#11=SHAPE_REPRESENTATION_RELATIONSHIP('SRR','None',#953,#12);
#12=ADVANCED_BREP_SHAPE_REPRESENTATION('',(#14),#945);
#13=STYLED_ITEM('',(#963),#14);
#14=MANIFOLD_SOLID_BREP('Body2',#492);
#15=CYLINDRICAL_SURFACE('',#521,1.65);
#16=CYLINDRICAL_SURFACE('',#524,0.5);
#17=CYLINDRICAL_SURFACE('',#542,0.5);
#18=CYLINDRICAL_SURFACE('',#549,0.5);
#19=CYLINDRICAL_SURFACE('',#551,3.00000004470348);
#20=CYLINDRICAL_SURFACE('',#556,0.5);
#21=CYLINDRICAL_SURFACE('',#557,3.00000004470348);
#22=CYLINDRICAL_SURFACE('',#558,1.3);
#23=CYLINDRICAL_SURFACE('',#560,1.65);
#24=LINE('',#724,#57);
#25=LINE('',#726,#58);
#26=LINE('',#727,#59);
#27=LINE('',#732,#60);
#28=LINE('',#750,#61);
#29=LINE('',#757,#62);
#30=LINE('',#760,#63);
#31=LINE('',#761,#64);
#32=LINE('',#764,#65);
#33=LINE('',#767,#66);
#34=LINE('',#770,#67);
#35=LINE('',#771,#68);
#36=LINE('',#774,#69);
#37=LINE('',#780,#70);
#38=LINE('',#782,#71);
#39=LINE('',#784,#72);
#40=LINE('',#802,#73);
#41=LINE('',#820,#74);
#42=LINE('',#827,#75);
#43=LINE('',#830,#76);
#44=LINE('',#831,#77);
#45=LINE('',#834,#78);
#46=LINE('',#837,#79);
#47=LINE('',#840,#80);
#48=LINE('',#841,#81);
#49=LINE('',#848,#82);
#50=LINE('',#850,#83);
#51=LINE('',#851,#84);
#52=LINE('',#892,#85);
#53=LINE('',#897,#86);
#54=LINE('',#900,#87);
#55=LINE('',#939,#88);
#56=LINE('',#941,#89);
#57=VECTOR('',#571,10.);
#58=VECTOR('',#572,10.);
#59=VECTOR('',#573,10.);
#60=VECTOR('',#578,10.);
#61=VECTOR('',#585,10.);
#62=VECTOR('',#594,10.);
#63=VECTOR('',#599,10.);
#64=VECTOR('',#600,10.);
#65=VECTOR('',#603,10.);
#66=VECTOR('',#606,10.);
#67=VECTOR('',#609,10.);
#68=VECTOR('',#610,10.);
#69=VECTOR('',#613,10.);
#70=VECTOR('',#620,10.);
#71=VECTOR('',#621,10.);
#72=VECTOR('',#622,10.);
#73=VECTOR('',#633,10.);
#74=VECTOR('',#640,10.);
#75=VECTOR('',#649,10.);
#76=VECTOR('',#654,10.);
#77=VECTOR('',#655,10.);
#78=VECTOR('',#658,10.);
#79=VECTOR('',#661,10.);
#80=VECTOR('',#664,10.);
#81=VECTOR('',#665,10.);
#82=VECTOR('',#674,10.);
#83=VECTOR('',#677,10.);
#84=VECTOR('',#678,10.);
#85=VECTOR('',#685,10.);
#86=VECTOR('',#690,10.);
#87=VECTOR('',#695,10.);
#88=VECTOR('',#700,1.3);
#89=VECTOR('',#703,10.);
#90=PLANE('',#509);
#91=PLANE('',#520);
#92=PLANE('',#523);
#93=PLANE('',#526);
#94=PLANE('',#527);
#95=PLANE('',#541);
#96=PLANE('',#544);
#97=PLANE('',#545);
#98=PLANE('',#546);
#99=PLANE('',#550);
#100=PLANE('',#553);
#101=PLANE('',#559);
#102=FACE_OUTER_BOUND('',#131,.T.);
#103=FACE_OUTER_BOUND('',#132,.T.);
#104=FACE_OUTER_BOUND('',#133,.T.);
#105=FACE_OUTER_BOUND('',#134,.T.);
#106=FACE_OUTER_BOUND('',#135,.T.);
#107=FACE_OUTER_BOUND('',#136,.T.);
#108=FACE_OUTER_BOUND('',#137,.T.);
#109=FACE_OUTER_BOUND('',#138,.T.);
#110=FACE_OUTER_BOUND('',#139,.T.);
#111=FACE_OUTER_BOUND('',#140,.T.);
#112=FACE_OUTER_BOUND('',#141,.T.);
#113=FACE_OUTER_BOUND('',#142,.T.);
#114=FACE_OUTER_BOUND('',#143,.T.);
#115=FACE_OUTER_BOUND('',#144,.T.);
#116=FACE_OUTER_BOUND('',#145,.T.);
#117=FACE_OUTER_BOUND('',#146,.T.);
#118=FACE_OUTER_BOUND('',#147,.T.);
#119=FACE_OUTER_BOUND('',#148,.T.);
#120=FACE_OUTER_BOUND('',#149,.T.);
#121=FACE_OUTER_BOUND('',#150,.T.);
#122=FACE_OUTER_BOUND('',#151,.T.);
#123=FACE_OUTER_BOUND('',#152,.T.);
#124=FACE_OUTER_BOUND('',#153,.T.);
#125=FACE_OUTER_BOUND('',#154,.T.);
#126=FACE_OUTER_BOUND('',#155,.T.);
#127=FACE_OUTER_BOUND('',#156,.T.);
#128=FACE_OUTER_BOUND('',#157,.T.);
#129=FACE_OUTER_BOUND('',#158,.T.);
#130=FACE_OUTER_BOUND('',#159,.T.);
#131=EDGE_LOOP('',(#313,#314,#315,#316));
#132=EDGE_LOOP('',(#317,#318,#319,#320));
#133=EDGE_LOOP('',(#321,#322,#323,#324));
#134=EDGE_LOOP('',(#325,#326,#327,#328,#329,#330));
#135=EDGE_LOOP('',(#331,#332,#333,#334));
#136=EDGE_LOOP('',(#335,#336,#337,#338));
#137=EDGE_LOOP('',(#339,#340,#341,#342));
#138=EDGE_LOOP('',(#343,#344,#345,#346));
#139=EDGE_LOOP('',(#347,#348,#349,#350));
#140=EDGE_LOOP('',(#351,#352,#353,#354,#355,#356));
#141=EDGE_LOOP('',(#357,#358,#359,#360));
#142=EDGE_LOOP('',(#361,#362,#363,#364));
#143=EDGE_LOOP('',(#365,#366,#367,#368));
#144=EDGE_LOOP('',(#369,#370,#371,#372,#373,#374));
#145=EDGE_LOOP('',(#375,#376,#377,#378));
#146=EDGE_LOOP('',(#379,#380,#381,#382));
#147=EDGE_LOOP('',(#383,#384,#385,#386));
#148=EDGE_LOOP('',(#387,#388,#389,#390));
#149=EDGE_LOOP('',(#391,#392,#393,#394,#395,#396));
#150=EDGE_LOOP('',(#397,#398,#399,#400,#401,#402));
#151=EDGE_LOOP('',(#403,#404,#405,#406));
#152=EDGE_LOOP('',(#407,#408,#409,#410));
#153=EDGE_LOOP('',(#411,#412,#413,#414,#415,#416,#417,#418));
#154=EDGE_LOOP('',(#419,#420,#421,#422,#423,#424));
#155=EDGE_LOOP('',(#425,#426,#427,#428));
#156=EDGE_LOOP('',(#429,#430,#431,#432,#433,#434,#435,#436));
#157=EDGE_LOOP('',(#437,#438,#439,#440,#441,#442,#443,#444,#445,#446));
#158=EDGE_LOOP('',(#447,#448,#449,#450));
#159=EDGE_LOOP('',(#451,#452,#453,#454));
#160=B_SPLINE_CURVE_WITH_KNOTS('',3,(#712,#713,#714,#715),.UNSPECIFIED.,
 .F.,.F.,(4,4),(0.,0.0373468225430419),.UNSPECIFIED.);
#161=B_SPLINE_CURVE_WITH_KNOTS('',3,(#718,#719,#720,#721),.UNSPECIFIED.,
 .F.,.F.,(4,4),(0.,0.0373468225430481),.UNSPECIFIED.);
#162=B_SPLINE_CURVE_WITH_KNOTS('',3,(#737,#738,#739,#740,#741,#742,#743,
#744,#745,#746),.UNSPECIFIED.,.F.,.F.,(4,2,2,2,4),(0.719296750722704,0.742006404217546,
0.779935572370472,0.817864740523398,0.84057439401824),.UNSPECIFIED.);
#163=B_SPLINE_CURVE_WITH_KNOTS('',3,(#785,#786,#787,#788),.UNSPECIFIED.,
 .F.,.F.,(4,4),(0.,0.0373468225429708),.UNSPECIFIED.);
#164=B_SPLINE_CURVE_WITH_KNOTS('',3,(#794,#795,#796,#797),.UNSPECIFIED.,
 .F.,.F.,(4,4),(0.,0.037346822543044),.UNSPECIFIED.);
#165=B_SPLINE_CURVE_WITH_KNOTS('',3,(#807,#808,#809,#810,#811,#812,#813,
#814,#815,#816),.UNSPECIFIED.,.F.,.F.,(4,2,2,2,4),(0.112018787551587,0.134728441046429,
0.172657609199355,0.210586777352281,0.233296430847123),.UNSPECIFIED.);
#166=B_SPLINE_CURVE_WITH_KNOTS('',3,(#855,#856,#857,#858,#859,#860,#861,
#862),.UNSPECIFIED.,.F.,.F.,(4,2,2,4),(0.657184571035431,0.695648478936872,
0.74537844370841,0.795108408479947),.UNSPECIFIED.);
#167=B_SPLINE_CURVE_WITH_KNOTS('',3,(#864,#865,#866,#867,#868,#869,#870,
#871,#872,#873,#874,#875,#876,#877,#878,#879,#880,#881),.UNSPECIFIED.,.F.,
 .F.,(4,2,2,2,2,2,2,2,4),(0.,0.0497299647715377,0.0994599295430754,0.149118515831531,
0.198777102119987,0.248435688408443,0.298094274696898,0.347824239468436,
0.397554204239974),.UNSPECIFIED.);
#168=B_SPLINE_CURVE_WITH_KNOTS('',3,(#882,#883,#884,#885,#886,#887,#888,
#889),.UNSPECIFIED.,.F.,.F.,(4,2,2,4),(0.397554204239974,0.447284169011512,
0.497014133783049,0.53547804168449),.UNSPECIFIED.);
#169=B_SPLINE_CURVE_WITH_KNOTS('',3,(#903,#904,#905,#906,#907,#908,#909,
#910),.UNSPECIFIED.,.F.,.F.,(4,2,2,4),(0.397554204239974,0.447284169011511,
0.497014133783049,0.53547804168449),.UNSPECIFIED.);
#170=B_SPLINE_CURVE_WITH_KNOTS('',3,(#912,#913,#914,#915,#916,#917,#918,
#919,#920,#921,#922,#923,#924,#925,#926,#927,#928,#929),.UNSPECIFIED.,.F.,
 .F.,(4,2,2,2,2,2,2,2,4),(0.,0.0497299647715377,0.0994599295430754,0.149118515831531,
0.198777102119987,0.248435688408443,0.298094274696898,0.347824239468436,
0.397554204239974),.UNSPECIFIED.);
#171=B_SPLINE_CURVE_WITH_KNOTS('',3,(#930,#931,#932,#933,#934,#935,#936,
#937),.UNSPECIFIED.,.F.,.F.,(4,2,2,4),(0.657184571035431,0.695648478936872,
0.74537844370841,0.795108408479947),.UNSPECIFIED.);
#172=CIRCLE('',#507,1.9);
#173=CIRCLE('',#508,1.65);
#174=CIRCLE('',#511,0.5);
#175=CIRCLE('',#512,0.25);
#176=CIRCLE('',#514,3.00000004470348);
#177=CIRCLE('',#515,2.75000004470348);
#178=CIRCLE('',#516,3.00000004470348);
#179=CIRCLE('',#518,0.5);
#180=CIRCLE('',#519,0.25);
#181=CIRCLE('',#522,1.65);
#182=CIRCLE('',#525,0.5);
#183=CIRCLE('',#529,1.65);
#184=CIRCLE('',#530,1.9);
#185=CIRCLE('',#532,0.5);
#186=CIRCLE('',#533,0.250000000000001);
#187=CIRCLE('',#535,3.00000004470348);
#188=CIRCLE('',#536,2.75000004470348);
#189=CIRCLE('',#537,3.00000004470348);
#190=CIRCLE('',#539,0.5);
#191=CIRCLE('',#540,0.25);
#192=CIRCLE('',#543,0.5);
#193=CIRCLE('',#547,3.00000004470348);
#194=CIRCLE('',#548,0.5);
#195=CIRCLE('',#552,3.00000004470348);
#196=CIRCLE('',#554,1.65);
#197=CIRCLE('',#555,0.5);
#198=VERTEX_POINT('',#708);
#199=VERTEX_POINT('',#709);
#200=VERTEX_POINT('',#711);
#201=VERTEX_POINT('',#716);
#202=VERTEX_POINT('',#723);
#203=VERTEX_POINT('',#725);
#204=VERTEX_POINT('',#729);
#205=VERTEX_POINT('',#731);
#206=VERTEX_POINT('',#735);
#207=VERTEX_POINT('',#736);
#208=VERTEX_POINT('',#747);
#209=VERTEX_POINT('',#749);
#210=VERTEX_POINT('',#754);
#211=VERTEX_POINT('',#756);
#212=VERTEX_POINT('',#763);
#213=VERTEX_POINT('',#765);
#214=VERTEX_POINT('',#769);
#215=VERTEX_POINT('',#773);
#216=VERTEX_POINT('',#778);
#217=VERTEX_POINT('',#779);
#218=VERTEX_POINT('',#781);
#219=VERTEX_POINT('',#783);
#220=VERTEX_POINT('',#790);
#221=VERTEX_POINT('',#792);
#222=VERTEX_POINT('',#799);
#223=VERTEX_POINT('',#801);
#224=VERTEX_POINT('',#805);
#225=VERTEX_POINT('',#806);
#226=VERTEX_POINT('',#817);
#227=VERTEX_POINT('',#819);
#228=VERTEX_POINT('',#824);
#229=VERTEX_POINT('',#826);
#230=VERTEX_POINT('',#833);
#231=VERTEX_POINT('',#835);
#232=VERTEX_POINT('',#839);
#233=VERTEX_POINT('',#844);
#234=VERTEX_POINT('',#846);
#235=VERTEX_POINT('',#854);
#236=VERTEX_POINT('',#863);
#237=VERTEX_POINT('',#890);
#238=VERTEX_POINT('',#894);
#239=VERTEX_POINT('',#896);
#240=VERTEX_POINT('',#902);
#241=VERTEX_POINT('',#911);
#242=EDGE_CURVE('',#198,#199,#172,.T.);
#243=EDGE_CURVE('',#199,#200,#160,.T.);
#244=EDGE_CURVE('',#200,#201,#173,.T.);
#245=EDGE_CURVE('',#198,#201,#161,.T.);
#246=EDGE_CURVE('',#201,#202,#24,.T.);
#247=EDGE_CURVE('',#202,#203,#25,.T.);
#248=EDGE_CURVE('',#203,#198,#26,.T.);
#249=EDGE_CURVE('',#202,#204,#174,.T.);
#250=EDGE_CURVE('',#204,#205,#27,.T.);
#251=EDGE_CURVE('',#205,#203,#175,.T.);
#252=EDGE_CURVE('',#206,#207,#162,.T.);
#253=EDGE_CURVE('',#206,#208,#176,.T.);
#254=EDGE_CURVE('',#208,#209,#28,.T.);
#255=EDGE_CURVE('',#209,#205,#177,.T.);
#256=EDGE_CURVE('',#204,#207,#178,.T.);
#257=EDGE_CURVE('',#208,#210,#179,.T.);
#258=EDGE_CURVE('',#210,#211,#29,.T.);
#259=EDGE_CURVE('',#211,#209,#180,.T.);
#260=EDGE_CURVE('',#199,#211,#30,.T.);
#261=EDGE_CURVE('',#210,#200,#31,.T.);
#262=EDGE_CURVE('',#212,#200,#32,.T.);
#263=EDGE_CURVE('',#213,#212,#181,.T.);
#264=EDGE_CURVE('',#213,#201,#33,.T.);
#265=EDGE_CURVE('',#214,#210,#34,.T.);
#266=EDGE_CURVE('',#212,#214,#35,.T.);
#267=EDGE_CURVE('',#208,#215,#36,.T.);
#268=EDGE_CURVE('',#215,#214,#182,.T.);
#269=EDGE_CURVE('',#216,#217,#37,.T.);
#270=EDGE_CURVE('',#217,#218,#38,.T.);
#271=EDGE_CURVE('',#218,#219,#39,.T.);
#272=EDGE_CURVE('',#219,#216,#163,.T.);
#273=EDGE_CURVE('',#220,#216,#183,.T.);
#274=EDGE_CURVE('',#219,#221,#184,.T.);
#275=EDGE_CURVE('',#221,#220,#164,.T.);
#276=EDGE_CURVE('',#217,#222,#185,.T.);
#277=EDGE_CURVE('',#222,#223,#40,.T.);
#278=EDGE_CURVE('',#223,#218,#186,.T.);
#279=EDGE_CURVE('',#224,#225,#165,.T.);
#280=EDGE_CURVE('',#224,#226,#187,.T.);
#281=EDGE_CURVE('',#226,#227,#41,.T.);
#282=EDGE_CURVE('',#227,#223,#188,.T.);
#283=EDGE_CURVE('',#222,#225,#189,.T.);
#284=EDGE_CURVE('',#226,#228,#190,.T.);
#285=EDGE_CURVE('',#228,#229,#42,.T.);
#286=EDGE_CURVE('',#229,#227,#191,.T.);
#287=EDGE_CURVE('',#221,#229,#43,.T.);
#288=EDGE_CURVE('',#228,#220,#44,.T.);
#289=EDGE_CURVE('',#217,#230,#45,.T.);
#290=EDGE_CURVE('',#230,#231,#192,.T.);
#291=EDGE_CURVE('',#231,#222,#46,.T.);
#292=EDGE_CURVE('',#232,#216,#47,.T.);
#293=EDGE_CURVE('',#232,#230,#48,.T.);
#294=EDGE_CURVE('',#233,#215,#193,.T.);
#295=EDGE_CURVE('',#234,#233,#194,.T.);
#296=EDGE_CURVE('',#213,#234,#49,.T.);
#297=EDGE_CURVE('',#202,#234,#50,.T.);
#298=EDGE_CURVE('',#233,#204,#51,.T.);
#299=EDGE_CURVE('',#224,#235,#166,.T.);
#300=EDGE_CURVE('',#235,#236,#167,.T.);
#301=EDGE_CURVE('',#236,#225,#168,.T.);
#302=EDGE_CURVE('',#231,#237,#195,.T.);
#303=EDGE_CURVE('',#226,#237,#52,.T.);
#304=EDGE_CURVE('',#232,#238,#196,.T.);
#305=EDGE_CURVE('',#238,#239,#53,.T.);
#306=EDGE_CURVE('',#237,#239,#197,.T.);
#307=EDGE_CURVE('',#239,#228,#54,.T.);
#308=EDGE_CURVE('',#240,#206,#169,.T.);
#309=EDGE_CURVE('',#241,#240,#170,.T.);
#310=EDGE_CURVE('',#207,#241,#171,.T.);
#311=EDGE_CURVE('',#240,#236,#55,.T.);
#312=EDGE_CURVE('',#238,#220,#56,.T.);
#313=ORIENTED_EDGE('',*,*,#242,.T.);
#314=ORIENTED_EDGE('',*,*,#243,.T.);
#315=ORIENTED_EDGE('',*,*,#244,.T.);
#316=ORIENTED_EDGE('',*,*,#245,.F.);
#317=ORIENTED_EDGE('',*,*,#246,.T.);
#318=ORIENTED_EDGE('',*,*,#247,.T.);
#319=ORIENTED_EDGE('',*,*,#248,.T.);
#320=ORIENTED_EDGE('',*,*,#245,.T.);
#321=ORIENTED_EDGE('',*,*,#247,.F.);
#322=ORIENTED_EDGE('',*,*,#249,.T.);
#323=ORIENTED_EDGE('',*,*,#250,.T.);
#324=ORIENTED_EDGE('',*,*,#251,.T.);
#325=ORIENTED_EDGE('',*,*,#252,.F.);
#326=ORIENTED_EDGE('',*,*,#253,.T.);
#327=ORIENTED_EDGE('',*,*,#254,.T.);
#328=ORIENTED_EDGE('',*,*,#255,.T.);
#329=ORIENTED_EDGE('',*,*,#250,.F.);
#330=ORIENTED_EDGE('',*,*,#256,.T.);
#331=ORIENTED_EDGE('',*,*,#254,.F.);
#332=ORIENTED_EDGE('',*,*,#257,.T.);
#333=ORIENTED_EDGE('',*,*,#258,.T.);
#334=ORIENTED_EDGE('',*,*,#259,.T.);
#335=ORIENTED_EDGE('',*,*,#260,.T.);
#336=ORIENTED_EDGE('',*,*,#258,.F.);
#337=ORIENTED_EDGE('',*,*,#261,.T.);
#338=ORIENTED_EDGE('',*,*,#243,.F.);
#339=ORIENTED_EDGE('',*,*,#244,.F.);
#340=ORIENTED_EDGE('',*,*,#262,.F.);
#341=ORIENTED_EDGE('',*,*,#263,.F.);
#342=ORIENTED_EDGE('',*,*,#264,.T.);
#343=ORIENTED_EDGE('',*,*,#261,.F.);
#344=ORIENTED_EDGE('',*,*,#265,.F.);
#345=ORIENTED_EDGE('',*,*,#266,.F.);
#346=ORIENTED_EDGE('',*,*,#262,.T.);
#347=ORIENTED_EDGE('',*,*,#257,.F.);
#348=ORIENTED_EDGE('',*,*,#267,.T.);
#349=ORIENTED_EDGE('',*,*,#268,.T.);
#350=ORIENTED_EDGE('',*,*,#265,.T.);
#351=ORIENTED_EDGE('',*,*,#242,.F.);
#352=ORIENTED_EDGE('',*,*,#248,.F.);
#353=ORIENTED_EDGE('',*,*,#251,.F.);
#354=ORIENTED_EDGE('',*,*,#255,.F.);
#355=ORIENTED_EDGE('',*,*,#259,.F.);
#356=ORIENTED_EDGE('',*,*,#260,.F.);
#357=ORIENTED_EDGE('',*,*,#269,.T.);
#358=ORIENTED_EDGE('',*,*,#270,.T.);
#359=ORIENTED_EDGE('',*,*,#271,.T.);
#360=ORIENTED_EDGE('',*,*,#272,.T.);
#361=ORIENTED_EDGE('',*,*,#273,.T.);
#362=ORIENTED_EDGE('',*,*,#272,.F.);
#363=ORIENTED_EDGE('',*,*,#274,.T.);
#364=ORIENTED_EDGE('',*,*,#275,.T.);
#365=ORIENTED_EDGE('',*,*,#270,.F.);
#366=ORIENTED_EDGE('',*,*,#276,.T.);
#367=ORIENTED_EDGE('',*,*,#277,.T.);
#368=ORIENTED_EDGE('',*,*,#278,.T.);
#369=ORIENTED_EDGE('',*,*,#279,.F.);
#370=ORIENTED_EDGE('',*,*,#280,.T.);
#371=ORIENTED_EDGE('',*,*,#281,.T.);
#372=ORIENTED_EDGE('',*,*,#282,.T.);
#373=ORIENTED_EDGE('',*,*,#277,.F.);
#374=ORIENTED_EDGE('',*,*,#283,.T.);
#375=ORIENTED_EDGE('',*,*,#281,.F.);
#376=ORIENTED_EDGE('',*,*,#284,.T.);
#377=ORIENTED_EDGE('',*,*,#285,.T.);
#378=ORIENTED_EDGE('',*,*,#286,.T.);
#379=ORIENTED_EDGE('',*,*,#287,.T.);
#380=ORIENTED_EDGE('',*,*,#285,.F.);
#381=ORIENTED_EDGE('',*,*,#288,.T.);
#382=ORIENTED_EDGE('',*,*,#275,.F.);
#383=ORIENTED_EDGE('',*,*,#276,.F.);
#384=ORIENTED_EDGE('',*,*,#289,.T.);
#385=ORIENTED_EDGE('',*,*,#290,.T.);
#386=ORIENTED_EDGE('',*,*,#291,.T.);
#387=ORIENTED_EDGE('',*,*,#269,.F.);
#388=ORIENTED_EDGE('',*,*,#292,.F.);
#389=ORIENTED_EDGE('',*,*,#293,.T.);
#390=ORIENTED_EDGE('',*,*,#289,.F.);
#391=ORIENTED_EDGE('',*,*,#271,.F.);
#392=ORIENTED_EDGE('',*,*,#278,.F.);
#393=ORIENTED_EDGE('',*,*,#282,.F.);
#394=ORIENTED_EDGE('',*,*,#286,.F.);
#395=ORIENTED_EDGE('',*,*,#287,.F.);
#396=ORIENTED_EDGE('',*,*,#274,.F.);
#397=ORIENTED_EDGE('',*,*,#268,.F.);
#398=ORIENTED_EDGE('',*,*,#294,.F.);
#399=ORIENTED_EDGE('',*,*,#295,.F.);
#400=ORIENTED_EDGE('',*,*,#296,.F.);
#401=ORIENTED_EDGE('',*,*,#263,.T.);
#402=ORIENTED_EDGE('',*,*,#266,.T.);
#403=ORIENTED_EDGE('',*,*,#249,.F.);
#404=ORIENTED_EDGE('',*,*,#297,.T.);
#405=ORIENTED_EDGE('',*,*,#295,.T.);
#406=ORIENTED_EDGE('',*,*,#298,.T.);
#407=ORIENTED_EDGE('',*,*,#246,.F.);
#408=ORIENTED_EDGE('',*,*,#264,.F.);
#409=ORIENTED_EDGE('',*,*,#296,.T.);
#410=ORIENTED_EDGE('',*,*,#297,.F.);
#411=ORIENTED_EDGE('',*,*,#280,.F.);
#412=ORIENTED_EDGE('',*,*,#299,.T.);
#413=ORIENTED_EDGE('',*,*,#300,.T.);
#414=ORIENTED_EDGE('',*,*,#301,.T.);
#415=ORIENTED_EDGE('',*,*,#283,.F.);
#416=ORIENTED_EDGE('',*,*,#291,.F.);
#417=ORIENTED_EDGE('',*,*,#302,.T.);
#418=ORIENTED_EDGE('',*,*,#303,.F.);
#419=ORIENTED_EDGE('',*,*,#290,.F.);
#420=ORIENTED_EDGE('',*,*,#293,.F.);
#421=ORIENTED_EDGE('',*,*,#304,.T.);
#422=ORIENTED_EDGE('',*,*,#305,.T.);
#423=ORIENTED_EDGE('',*,*,#306,.F.);
#424=ORIENTED_EDGE('',*,*,#302,.F.);
#425=ORIENTED_EDGE('',*,*,#284,.F.);
#426=ORIENTED_EDGE('',*,*,#303,.T.);
#427=ORIENTED_EDGE('',*,*,#306,.T.);
#428=ORIENTED_EDGE('',*,*,#307,.T.);
#429=ORIENTED_EDGE('',*,*,#256,.F.);
#430=ORIENTED_EDGE('',*,*,#298,.F.);
#431=ORIENTED_EDGE('',*,*,#294,.T.);
#432=ORIENTED_EDGE('',*,*,#267,.F.);
#433=ORIENTED_EDGE('',*,*,#253,.F.);
#434=ORIENTED_EDGE('',*,*,#308,.F.);
#435=ORIENTED_EDGE('',*,*,#309,.F.);
#436=ORIENTED_EDGE('',*,*,#310,.F.);
#437=ORIENTED_EDGE('',*,*,#309,.T.);
#438=ORIENTED_EDGE('',*,*,#311,.T.);
#439=ORIENTED_EDGE('',*,*,#300,.F.);
#440=ORIENTED_EDGE('',*,*,#299,.F.);
#441=ORIENTED_EDGE('',*,*,#279,.T.);
#442=ORIENTED_EDGE('',*,*,#301,.F.);
#443=ORIENTED_EDGE('',*,*,#311,.F.);
#444=ORIENTED_EDGE('',*,*,#308,.T.);
#445=ORIENTED_EDGE('',*,*,#252,.T.);
#446=ORIENTED_EDGE('',*,*,#310,.T.);
#447=ORIENTED_EDGE('',*,*,#288,.F.);
#448=ORIENTED_EDGE('',*,*,#307,.F.);
#449=ORIENTED_EDGE('',*,*,#305,.F.);
#450=ORIENTED_EDGE('',*,*,#312,.T.);
#451=ORIENTED_EDGE('',*,*,#273,.F.);
#452=ORIENTED_EDGE('',*,*,#312,.F.);
#453=ORIENTED_EDGE('',*,*,#304,.F.);
#454=ORIENTED_EDGE('',*,*,#292,.T.);
#455=CONICAL_SURFACE('',#506,1.775,0.785398163397447);
#456=CONICAL_SURFACE('',#510,0.375,0.785398163397448);
#457=CONICAL_SURFACE('',#513,2.87500004470348,0.785398163397446);
#458=CONICAL_SURFACE('',#517,0.375,0.785398163397448);
#459=CONICAL_SURFACE('',#528,1.775,0.785398163397448);
#460=CONICAL_SURFACE('',#531,0.375,0.785398163397446);
#461=CONICAL_SURFACE('',#534,2.87500004470348,0.785398163397448);
#462=CONICAL_SURFACE('',#538,0.375,0.785398163397448);
#463=ADVANCED_FACE('',(#102),#455,.F.);
#464=ADVANCED_FACE('',(#103),#90,.T.);
#465=ADVANCED_FACE('',(#104),#456,.T.);
#466=ADVANCED_FACE('',(#105),#457,.T.);
#467=ADVANCED_FACE('',(#106),#458,.T.);
#468=ADVANCED_FACE('',(#107),#91,.T.);
#469=ADVANCED_FACE('',(#108),#15,.F.);
#470=ADVANCED_FACE('',(#109),#92,.T.);
#471=ADVANCED_FACE('',(#110),#16,.T.);
#472=ADVANCED_FACE('',(#111),#93,.T.);
#473=ADVANCED_FACE('',(#112),#94,.T.);
#474=ADVANCED_FACE('',(#113),#459,.F.);
#475=ADVANCED_FACE('',(#114),#460,.T.);
#476=ADVANCED_FACE('',(#115),#461,.T.);
#477=ADVANCED_FACE('',(#116),#462,.T.);
#478=ADVANCED_FACE('',(#117),#95,.T.);
#479=ADVANCED_FACE('',(#118),#17,.T.);
#480=ADVANCED_FACE('',(#119),#96,.T.);
#481=ADVANCED_FACE('',(#120),#97,.T.);
#482=ADVANCED_FACE('',(#121),#98,.F.);
#483=ADVANCED_FACE('',(#122),#18,.T.);
#484=ADVANCED_FACE('',(#123),#99,.T.);
#485=ADVANCED_FACE('',(#124),#19,.T.);
#486=ADVANCED_FACE('',(#125),#100,.F.);
#487=ADVANCED_FACE('',(#126),#20,.T.);
#488=ADVANCED_FACE('',(#127),#21,.T.);
#489=ADVANCED_FACE('',(#128),#22,.T.);
#490=ADVANCED_FACE('',(#129),#101,.T.);
#491=ADVANCED_FACE('',(#130),#23,.F.);
#492=CLOSED_SHELL('',(#463,#464,#465,#466,#467,#468,#469,#470,#471,#472,
#473,#474,#475,#476,#477,#478,#479,#480,#481,#482,#483,#484,#485,#486,#487,
#488,#489,#490,#491));
#493=DERIVED_UNIT_ELEMENT(#495,1.);
#494=DERIVED_UNIT_ELEMENT(#948,-3.);
#495=(
MASS_UNIT()
NAMED_UNIT(*)
SI_UNIT(.KILO.,.GRAM.)
);
#496=DERIVED_UNIT((#493,#494));
#497=MEASURE_REPRESENTATION_ITEM('density measure',
POSITIVE_RATIO_MEASURE(7850.),#496);
#498=PROPERTY_DEFINITION_REPRESENTATION(#503,#500);
#499=PROPERTY_DEFINITION_REPRESENTATION(#504,#501);
#500=REPRESENTATION('material name',(#502),#945);
#501=REPRESENTATION('density',(#497),#945);
#502=DESCRIPTIVE_REPRESENTATION_ITEM('Steel','Steel');
#503=PROPERTY_DEFINITION('material property','material name',#955);
#504=PROPERTY_DEFINITION('material property','density of part',#955);
#505=AXIS2_PLACEMENT_3D('',#706,#561,#562);
#506=AXIS2_PLACEMENT_3D('',#707,#563,#564);
#507=AXIS2_PLACEMENT_3D('',#710,#565,#566);
#508=AXIS2_PLACEMENT_3D('',#717,#567,#568);
#509=AXIS2_PLACEMENT_3D('',#722,#569,#570);
#510=AXIS2_PLACEMENT_3D('',#728,#574,#575);
#511=AXIS2_PLACEMENT_3D('',#730,#576,#577);
#512=AXIS2_PLACEMENT_3D('',#733,#579,#580);
#513=AXIS2_PLACEMENT_3D('',#734,#581,#582);
#514=AXIS2_PLACEMENT_3D('',#748,#583,#584);
#515=AXIS2_PLACEMENT_3D('',#751,#586,#587);
#516=AXIS2_PLACEMENT_3D('',#752,#588,#589);
#517=AXIS2_PLACEMENT_3D('',#753,#590,#591);
#518=AXIS2_PLACEMENT_3D('',#755,#592,#593);
#519=AXIS2_PLACEMENT_3D('',#758,#595,#596);
#520=AXIS2_PLACEMENT_3D('',#759,#597,#598);
#521=AXIS2_PLACEMENT_3D('',#762,#601,#602);
#522=AXIS2_PLACEMENT_3D('',#766,#604,#605);
#523=AXIS2_PLACEMENT_3D('',#768,#607,#608);
#524=AXIS2_PLACEMENT_3D('',#772,#611,#612);
#525=AXIS2_PLACEMENT_3D('',#775,#614,#615);
#526=AXIS2_PLACEMENT_3D('',#776,#616,#617);
#527=AXIS2_PLACEMENT_3D('',#777,#618,#619);
#528=AXIS2_PLACEMENT_3D('',#789,#623,#624);
#529=AXIS2_PLACEMENT_3D('',#791,#625,#626);
#530=AXIS2_PLACEMENT_3D('',#793,#627,#628);
#531=AXIS2_PLACEMENT_3D('',#798,#629,#630);
#532=AXIS2_PLACEMENT_3D('',#800,#631,#632);
#533=AXIS2_PLACEMENT_3D('',#803,#634,#635);
#534=AXIS2_PLACEMENT_3D('',#804,#636,#637);
#535=AXIS2_PLACEMENT_3D('',#818,#638,#639);
#536=AXIS2_PLACEMENT_3D('',#821,#641,#642);
#537=AXIS2_PLACEMENT_3D('',#822,#643,#644);
#538=AXIS2_PLACEMENT_3D('',#823,#645,#646);
#539=AXIS2_PLACEMENT_3D('',#825,#647,#648);
#540=AXIS2_PLACEMENT_3D('',#828,#650,#651);
#541=AXIS2_PLACEMENT_3D('',#829,#652,#653);
#542=AXIS2_PLACEMENT_3D('',#832,#656,#657);
#543=AXIS2_PLACEMENT_3D('',#836,#659,#660);
#544=AXIS2_PLACEMENT_3D('',#838,#662,#663);
#545=AXIS2_PLACEMENT_3D('',#842,#666,#667);
#546=AXIS2_PLACEMENT_3D('',#843,#668,#669);
#547=AXIS2_PLACEMENT_3D('',#845,#670,#671);
#548=AXIS2_PLACEMENT_3D('',#847,#672,#673);
#549=AXIS2_PLACEMENT_3D('',#849,#675,#676);
#550=AXIS2_PLACEMENT_3D('',#852,#679,#680);
#551=AXIS2_PLACEMENT_3D('',#853,#681,#682);
#552=AXIS2_PLACEMENT_3D('',#891,#683,#684);
#553=AXIS2_PLACEMENT_3D('',#893,#686,#687);
#554=AXIS2_PLACEMENT_3D('',#895,#688,#689);
#555=AXIS2_PLACEMENT_3D('',#898,#691,#692);
#556=AXIS2_PLACEMENT_3D('',#899,#693,#694);
#557=AXIS2_PLACEMENT_3D('',#901,#696,#697);
#558=AXIS2_PLACEMENT_3D('',#938,#698,#699);
#559=AXIS2_PLACEMENT_3D('',#940,#701,#702);
#560=AXIS2_PLACEMENT_3D('',#942,#704,#705);
#561=DIRECTION('axis',(0.,0.,1.));
#562=DIRECTION('refdir',(1.,0.,0.));
#563=DIRECTION('center_axis',(0.,0.,1.));
#564=DIRECTION('ref_axis',(-0.965925826289068,0.258819045102521,0.));
#565=DIRECTION('center_axis',(0.,0.,1.));
#566=DIRECTION('ref_axis',(-0.965925826289068,0.258819045102521,0.));
#567=DIRECTION('center_axis',(0.,0.,-1.));
#568=DIRECTION('ref_axis',(-0.965925826289068,0.258819045102521,0.));
#569=DIRECTION('center_axis',(6.58934420591372E-13,-0.707106781186548,0.707106781186548));
#570=DIRECTION('ref_axis',(1.,0.,-9.31873994314775E-13));
#571=DIRECTION('',(1.,9.31873994314775E-13,0.));
#572=DIRECTION('',(-6.59438832647185E-13,0.707106781186547,0.707106781186548));
#573=DIRECTION('',(-1.,-9.31873994314775E-13,0.));
#574=DIRECTION('center_axis',(0.,0.,-1.));
#575=DIRECTION('ref_axis',(0.890413544676665,-0.455152413435693,0.));
#576=DIRECTION('center_axis',(0.,0.,1.));
#577=DIRECTION('ref_axis',(0.890413544676665,-0.455152413435693,0.));
#578=DIRECTION('',(-0.573143808825628,-0.414133039499207,0.707106781186548));
#579=DIRECTION('center_axis',(0.,0.,-1.));
#580=DIRECTION('ref_axis',(0.890413544676665,-0.455152413435693,0.));
#581=DIRECTION('center_axis',(0.,0.,-1.));
#582=DIRECTION('ref_axis',(-0.965925826289068,0.258819045102521,0.));
#583=DIRECTION('center_axis',(0.,0.,1.));
#584=DIRECTION('ref_axis',(-0.965925826289068,0.258819045102521,0.));
#585=DIRECTION('',(-0.289290578715161,0.645221637165592,0.707106781186548));
#586=DIRECTION('center_axis',(0.,0.,-1.));
#587=DIRECTION('ref_axis',(-0.965925826289068,0.258819045102521,0.));
#588=DIRECTION('center_axis',(0.,0.,1.));
#589=DIRECTION('ref_axis',(-0.965925826289068,0.258819045102521,0.));
#590=DIRECTION('center_axis',(0.,0.,-1.));
#591=DIRECTION('ref_axis',(0.998696956281589,-0.0510332197092249,0.));
#592=DIRECTION('center_axis',(0.,0.,1.));
#593=DIRECTION('ref_axis',(0.998696956281589,-0.0510332197092249,0.));
#594=DIRECTION('',(-0.353553390593846,-0.612372435695465,0.707106781186547));
#595=DIRECTION('center_axis',(0.,0.,-1.));
#596=DIRECTION('ref_axis',(0.998696956281589,-0.0510332197092249,0.));
#597=DIRECTION('center_axis',(0.353553390593845,0.612372435695465,0.707106781186547));
#598=DIRECTION('ref_axis',(0.894427190999627,0.,-0.447213595500536));
#599=DIRECTION('',(0.866025403783972,-0.500000000000808,0.));
#600=DIRECTION('',(-0.866025403783972,0.500000000000808,0.));
#601=DIRECTION('center_axis',(0.,0.,1.));
#602=DIRECTION('ref_axis',(-0.965925826289068,0.258819045102521,0.));
#603=DIRECTION('',(0.,0.,1.));
#604=DIRECTION('center_axis',(0.,0.,1.));
#605=DIRECTION('ref_axis',(0.965925826289068,-0.258819045102521,0.));
#606=DIRECTION('',(0.,0.,1.));
#607=DIRECTION('center_axis',(0.500000000000808,0.866025403783972,0.));
#608=DIRECTION('ref_axis',(-0.866025403783972,0.500000000000808,0.));
#609=DIRECTION('',(0.,0.,1.));
#610=DIRECTION('',(0.866025403783972,-0.500000000000808,0.));
#611=DIRECTION('center_axis',(0.,0.,1.));
#612=DIRECTION('ref_axis',(0.998696956281589,-0.0510332197092249,0.));
#613=DIRECTION('',(0.,0.,-1.));
#614=DIRECTION('center_axis',(0.,0.,1.));
#615=DIRECTION('ref_axis',(0.998696956281589,-0.0510332197092249,0.));
#616=DIRECTION('center_axis',(0.,0.,1.));
#617=DIRECTION('ref_axis',(1.,0.,0.));
#618=DIRECTION('center_axis',(-0.298836238730718,0.640856382055509,0.707106781186548));
#619=DIRECTION('ref_axis',(0.921118787038487,0.,0.389281620635686));
#620=DIRECTION('',(-0.906307787036255,-0.422618261741546,0.));
#621=DIRECTION('',(0.298836238730719,-0.64085638205551,0.707106781186547));
#622=DIRECTION('',(0.906307787036255,0.422618261741546,0.));
#623=DIRECTION('center_axis',(0.,0.,1.));
#624=DIRECTION('ref_axis',(0.984807753012208,0.17364817766693,0.));
#625=DIRECTION('center_axis',(0.,0.,-1.));
#626=DIRECTION('ref_axis',(0.984807753012208,0.17364817766693,0.));
#627=DIRECTION('center_axis',(0.,0.,1.));
#628=DIRECTION('ref_axis',(0.984807753012208,0.17364817766693,0.));
#629=DIRECTION('center_axis',(0.,0.,-1.));
#630=DIRECTION('ref_axis',(-0.999344451016645,0.0362031521036614,0.));
#631=DIRECTION('center_axis',(0.,0.,1.));
#632=DIRECTION('ref_axis',(-0.999344451016645,0.0362031521036615,0.));
#633=DIRECTION('',(0.344424511747958,0.61755303878062,0.70710678118655));
#634=DIRECTION('center_axis',(0.,0.,-1.));
#635=DIRECTION('ref_axis',(-0.999344451016645,0.0362031521036615,0.));
#636=DIRECTION('center_axis',(0.,0.,-1.));
#637=DIRECTION('ref_axis',(0.984807753012208,0.17364817766693,0.));
#638=DIRECTION('center_axis',(0.,0.,1.));
#639=DIRECTION('ref_axis',(0.984807753012208,0.17364817766693,0.));
#640=DIRECTION('',(0.5348687509423,-0.462509912613153,0.707106781186546));
#641=DIRECTION('center_axis',(0.,0.,-1.));
#642=DIRECTION('ref_axis',(0.984807753012208,0.17364817766693,0.));
#643=DIRECTION('center_axis',(0.,0.,1.));
#644=DIRECTION('ref_axis',(0.984807753012208,0.17364817766693,0.));
#645=DIRECTION('center_axis',(0.,0.,-1.));
#646=DIRECTION('ref_axis',(-0.926694398972351,-0.375815767249425,0.));
#647=DIRECTION('center_axis',(0.,0.,1.));
#648=DIRECTION('ref_axis',(-0.926694398972351,-0.375815767249425,0.));
#649=DIRECTION('',(0.0616284167168737,0.704416026402702,0.707106781186547));
#650=DIRECTION('center_axis',(0.,0.,-1.));
#651=DIRECTION('ref_axis',(-0.926694398972351,-0.375815767249425,0.));
#652=DIRECTION('center_axis',(-0.0616284167168765,-0.704416026402702,0.707106781186547));
#653=DIRECTION('ref_axis',(0.996223440096535,0.,0.0868265938651665));
#654=DIRECTION('',(-0.996194698091664,0.0871557427485874,0.));
#655=DIRECTION('',(0.996194698091664,-0.0871557427485874,0.));
#656=DIRECTION('center_axis',(0.,0.,1.));
#657=DIRECTION('ref_axis',(-0.999344451016645,0.0362031521036615,0.));
#658=DIRECTION('',(0.,0.,-1.));
#659=DIRECTION('center_axis',(0.,0.,1.));
#660=DIRECTION('ref_axis',(-0.999344451016645,0.0362031521036615,0.));
#661=DIRECTION('',(0.,0.,1.));
#662=DIRECTION('center_axis',(-0.422618261741546,0.906307787036255,0.));
#663=DIRECTION('ref_axis',(-0.906307787036255,-0.422618261741546,0.));
#664=DIRECTION('',(0.,0.,1.));
#665=DIRECTION('',(-0.906307787036255,-0.422618261741546,0.));
#666=DIRECTION('center_axis',(0.,0.,1.));
#667=DIRECTION('ref_axis',(1.,0.,0.));
#668=DIRECTION('center_axis',(0.,0.,1.));
#669=DIRECTION('ref_axis',(1.,0.,0.));
#670=DIRECTION('center_axis',(0.,0.,1.));
#671=DIRECTION('ref_axis',(0.965925826289068,-0.258819045102521,0.));
#672=DIRECTION('center_axis',(0.,0.,1.));
#673=DIRECTION('ref_axis',(0.890413544676665,-0.455152413435693,0.));
#674=DIRECTION('',(1.,9.31873994314775E-13,0.));
#675=DIRECTION('center_axis',(0.,0.,1.));
#676=DIRECTION('ref_axis',(0.890413544676665,-0.455152413435693,0.));
#677=DIRECTION('',(0.,0.,-1.));
#678=DIRECTION('',(0.,0.,1.));
#679=DIRECTION('center_axis',(9.31873994314775E-13,-1.,0.));
#680=DIRECTION('ref_axis',(1.,9.31873994314775E-13,0.));
#681=DIRECTION('center_axis',(0.,0.,1.));
#682=DIRECTION('ref_axis',(0.984807753012208,0.173648177666931,0.));
#683=DIRECTION('center_axis',(0.,0.,1.));
#684=DIRECTION('ref_axis',(-0.984807753012208,-0.17364817766693,0.));
#685=DIRECTION('',(0.,0.,-1.));
#686=DIRECTION('center_axis',(0.,0.,1.));
#687=DIRECTION('ref_axis',(1.,0.,0.));
#688=DIRECTION('center_axis',(0.,0.,1.));
#689=DIRECTION('ref_axis',(-0.984807753012208,-0.17364817766693,0.));
#690=DIRECTION('',(-0.996194698091664,0.0871557427485874,0.));
#691=DIRECTION('center_axis',(0.,0.,1.));
#692=DIRECTION('ref_axis',(-0.926694398972351,-0.375815767249425,0.));
#693=DIRECTION('center_axis',(0.,0.,1.));
#694=DIRECTION('ref_axis',(-0.926694398972351,-0.375815767249425,0.));
#695=DIRECTION('',(0.,0.,1.));
#696=DIRECTION('center_axis',(0.,0.,1.));
#697=DIRECTION('ref_axis',(-0.965925826289068,0.258819045102521,0.));
#698=DIRECTION('center_axis',(1.,-5.17601360131426E-34,0.));
#699=DIRECTION('ref_axis',(5.17601360131426E-34,1.,0.));
#700=DIRECTION('',(-1.,5.17601360131426E-34,0.));
#701=DIRECTION('center_axis',(-0.0871557427485874,-0.996194698091664,0.));
#702=DIRECTION('ref_axis',(0.996194698091664,-0.0871557427485874,0.));
#703=DIRECTION('',(0.,0.,1.));
#704=DIRECTION('center_axis',(0.,0.,1.));
#705=DIRECTION('ref_axis',(0.984807753012208,0.173648177666932,0.));
#706=CARTESIAN_POINT('',(0.,0.,0.));
#707=CARTESIAN_POINT('Origin',(0.,7.7715611723761E-15,2.675));
#708=CARTESIAN_POINT('',(1.46142514612292,1.21418142889751,2.8));
#709=CARTESIAN_POINT('',(0.658540587823082,-1.78222453528998,2.8));
#710=CARTESIAN_POINT('Origin',(0.,7.7715611723761E-15,2.8));
#711=CARTESIAN_POINT('',(0.677495689889951,-1.50449313397586,2.55));
#712=CARTESIAN_POINT('Ctrl Pts',(0.658540587823081,-1.78222453528999,2.8));
#713=CARTESIAN_POINT('Ctrl Pts',(0.666359892707254,-1.6902665556679,2.71645240112453));
#714=CARTESIAN_POINT('Ctrl Pts',(0.672825433857262,-1.5973710487259,2.63276976164036));
#715=CARTESIAN_POINT('Ctrl Pts',(0.677495689889951,-1.50449313397586,2.55));
#716=CARTESIAN_POINT('',(1.3389750453871,0.964181428897401,2.55));
#717=CARTESIAN_POINT('Origin',(0.,7.7715611723761E-15,2.55));
#718=CARTESIAN_POINT('Ctrl Pts',(1.46142514612292,1.21418142889752,2.8));
#719=CARTESIAN_POINT('Ctrl Pts',(1.4222178729815,1.13063383002199,2.71645240112451));
#720=CARTESIAN_POINT('Ctrl Pts',(1.38136944239563,1.0469511905378,2.63276976164036));
#721=CARTESIAN_POINT('Ctrl Pts',(1.3389750453871,0.964181428897401,2.55));
#722=CARTESIAN_POINT('Origin',(0.62969674302866,1.08918142889674,2.675));
#723=CARTESIAN_POINT('',(2.02636940531321,0.964181428898041,2.55));
#724=CARTESIAN_POINT('',(0.629696743028776,0.96418142889674,2.55));
#725=CARTESIAN_POINT('',(2.02636940531298,1.21418142889804,2.8));
#726=CARTESIAN_POINT('',(2.02636940531321,0.964181428898041,2.55));
#727=CARTESIAN_POINT('',(0.629696743028543,1.21418142889674,2.8));
#728=CARTESIAN_POINT('Origin',(2.02636940531275,1.46418142889804,2.675));
#729=CARTESIAN_POINT('',(2.43164327912843,1.75701770944133,2.55));
#730=CARTESIAN_POINT('Origin',(2.02636940531275,1.46418142889804,2.55));
#731=CARTESIAN_POINT('',(2.22900634222059,1.61059956916968,2.8));
#732=CARTESIAN_POINT('',(2.43164327912843,1.75701770944133,2.55));
#733=CARTESIAN_POINT('Origin',(2.02636940531275,1.46418142889804,2.8));
#734=CARTESIAN_POINT('Origin',(0.,7.7715611723761E-15,2.675));
#735=CARTESIAN_POINT('',(-2.93811167325555,-0.606217835188269,2.5499999861521));
#736=CARTESIAN_POINT('',(-2.93811167325556,0.60621783518827,2.5499999861521));
#737=CARTESIAN_POINT('Ctrl Pts',(-2.93811169755221,-0.606217823189827,2.54999997862912));
#738=CARTESIAN_POINT('Ctrl Pts',(-2.91577134522577,-0.53891152536839,2.58548022046436));
#739=CARTESIAN_POINT('Ctrl Pts',(-2.89737731497562,-0.465643546706206,2.61636805459923));
#740=CARTESIAN_POINT('Ctrl Pts',(-2.86039841197736,-0.262237102689285,2.68024025868807));
#741=CARTESIAN_POINT('Ctrl Pts',(-2.85000004470348,-0.12643056050975,2.7));
#742=CARTESIAN_POINT('Ctrl Pts',(-2.85000004470348,0.126430560509755,2.7));
#743=CARTESIAN_POINT('Ctrl Pts',(-2.86039841197736,0.262237102689289,2.68024025868807));
#744=CARTESIAN_POINT('Ctrl Pts',(-2.89737731497562,0.465643546706208,2.61636805459923));
#745=CARTESIAN_POINT('Ctrl Pts',(-2.91577134522577,0.538911525368391,2.58548022046436));
#746=CARTESIAN_POINT('Ctrl Pts',(-2.93811169755221,0.606217823189828,2.54999997862912));
#747=CARTESIAN_POINT('',(1.22735599794626,-2.73744361083954,2.55));
#748=CARTESIAN_POINT('Origin',(0.,7.7715611723761E-15,2.55));
#749=CARTESIAN_POINT('',(1.12507633297482,-2.5093233133355,2.8));
#750=CARTESIAN_POINT('',(1.22735599794626,-2.73744361083954,2.55));
#751=CARTESIAN_POINT('Origin',(0.,7.7715611723761E-15,2.8));
#752=CARTESIAN_POINT('Origin',(0.,7.7715611723761E-15,2.55));
#753=CARTESIAN_POINT('Origin',(1.02279666800338,-2.28120301583146,2.675));
#754=CARTESIAN_POINT('',(1.27279666800379,-1.84819031393948,2.55));
#755=CARTESIAN_POINT('Origin',(1.02279666800338,-2.28120301583146,2.55));
#756=CARTESIAN_POINT('',(1.14779666800359,-2.06469666488547,2.8));
#757=CARTESIAN_POINT('',(1.27279666800379,-1.84819031393948,2.55));
#758=CARTESIAN_POINT('Origin',(1.02279666800338,-2.28120301583146,2.8));
#759=CARTESIAN_POINT('Origin',(0.655684673784992,-1.63623810525382,2.675));
#760=CARTESIAN_POINT('',(0.593184673784891,-1.74449128072682,2.8));
#761=CARTESIAN_POINT('',(0.718184673785093,-1.52798492978083,2.55));
#762=CARTESIAN_POINT('Origin',(0.,7.7715611723761E-15,0.));
#763=CARTESIAN_POINT('',(0.677495689889951,-1.50449313397586,0.));
#764=CARTESIAN_POINT('',(0.677495689889951,-1.50449313397586,0.));
#765=CARTESIAN_POINT('',(1.3389750453871,0.964181428897401,0.));
#766=CARTESIAN_POINT('Origin',(0.,7.7715611723761E-15,0.));
#767=CARTESIAN_POINT('',(1.3389750453871,0.964181428897401,0.));
#768=CARTESIAN_POINT('Origin',(1.97814623151546,-2.2554240743066,0.));
#769=CARTESIAN_POINT('',(1.27279666800379,-1.84819031393948,0.));
#770=CARTESIAN_POINT('',(1.27279666800379,-1.84819031393948,0.));
#771=CARTESIAN_POINT('',(0.513030222633242,-1.4095389521826,0.));
#772=CARTESIAN_POINT('Origin',(1.02279666800338,-2.28120301583146,0.));
#773=CARTESIAN_POINT('',(1.22735599794626,-2.73744361083954,0.));
#774=CARTESIAN_POINT('',(1.22735599794626,-2.73744361083954,0.));
#775=CARTESIAN_POINT('Origin',(1.02279666800338,-2.28120301583146,0.));
#776=CARTESIAN_POINT('Origin',(-0.0795815593286475,7.7715611723761E-15,
2.8));
#777=CARTESIAN_POINT('Origin',(-12.094293785356,-1.24574865261657,2.675));
#778=CARTESIAN_POINT('',(-12.8060428307988,-1.43972044332152,2.55));
#779=CARTESIAN_POINT('',(-13.4290336919646,-1.73022585284443,2.55));
#780=CARTESIAN_POINT('',(-12.1471210680737,-1.13246017923704,2.55));
#781=CARTESIAN_POINT('',(-13.3233791265293,-1.9568027996035,2.8));
#782=CARTESIAN_POINT('',(-13.4290336919646,-1.73022585284443,2.55));
#783=CARTESIAN_POINT('',(-12.8113657451839,-1.71804703880373,2.8));
#784=CARTESIAN_POINT('',(-12.0414665026383,-1.3590371259961,2.8));
#785=CARTESIAN_POINT('Ctrl Pts',(-12.8113657451839,-1.71804703880373,2.8));
#786=CARTESIAN_POINT('Ctrl Pts',(-12.8111406292367,-1.6257574897322,2.71645240112469));
#787=CARTESIAN_POINT('Ctrl Pts',(-12.8094851901452,-1.53265196919874,2.63276976164043));
#788=CARTESIAN_POINT('Ctrl Pts',(-12.8060428307988,-1.43972044332152,2.55));
#789=CARTESIAN_POINT('Origin',(-12.,-4.44089209850063E-15,2.675));
#790=CARTESIAN_POINT('',(-13.2498458925127,1.0772117920674,2.55));
#791=CARTESIAN_POINT('Origin',(-12.,-4.44089209850063E-15,2.55));
#792=CARTESIAN_POINT('',(-13.3500410979596,1.33693269606961,2.8));
#793=CARTESIAN_POINT('Origin',(-12.,-4.44089209850063E-15,2.8));
#794=CARTESIAN_POINT('Ctrl Pts',(-13.3500410979596,1.33693269606961,2.8));
#795=CARTESIAN_POINT('Ctrl Pts',(-13.3182646733643,1.25028588201978,2.71645240112452));
#796=CARTESIAN_POINT('Ctrl Pts',(-13.2848651059886,1.1633615049355,2.63276976164036));
#797=CARTESIAN_POINT('Ctrl Pts',(-13.2498458925127,1.0772117920674,2.55));
#798=CARTESIAN_POINT('Origin',(-13.2177245610939,-2.18337974636256,2.675));
#799=CARTESIAN_POINT('',(-13.4612694689577,-2.6200556878267,2.55));
#800=CARTESIAN_POINT('Origin',(-13.2177245610939,-2.18337974636256,2.55));
#801=CARTESIAN_POINT('',(-13.3394970150258,-2.40171771709463,2.8));
#802=CARTESIAN_POINT('',(-13.4612694689577,-2.6200556878267,2.55));
#803=CARTESIAN_POINT('Origin',(-13.2177245610939,-2.18337974636256,2.8));
#804=CARTESIAN_POINT('Origin',(-12.,-4.44089209850063E-15,2.675));
#805=CARTESIAN_POINT('',(-9.06188832674447,0.606217835188269,2.5499999861521));
#806=CARTESIAN_POINT('',(-9.06188832674446,-0.606217835188269,2.5499999861521));
#807=CARTESIAN_POINT('Ctrl Pts',(-9.06188830244781,0.606217823189828,2.54999997862912));
#808=CARTESIAN_POINT('Ctrl Pts',(-9.08422865477425,0.53891152536839,2.58548022046436));
#809=CARTESIAN_POINT('Ctrl Pts',(-9.10262268502441,0.465643546706205,2.61636805459923));
#810=CARTESIAN_POINT('Ctrl Pts',(-9.13960158802266,0.262237102689284,2.68024025868807));
#811=CARTESIAN_POINT('Ctrl Pts',(-9.14999995529654,0.12643056050975,2.7));
#812=CARTESIAN_POINT('Ctrl Pts',(-9.14999995529654,-0.126430560509755,2.7));
#813=CARTESIAN_POINT('Ctrl Pts',(-9.13960158802266,-0.262237102689289,2.68024025868807));
#814=CARTESIAN_POINT('Ctrl Pts',(-9.1026226850244,-0.465643546706208,2.61636805459923));
#815=CARTESIAN_POINT('Ctrl Pts',(-9.08422865477425,-0.538911525368392,2.58548022046436));
#816=CARTESIAN_POINT('Ctrl Pts',(-9.06188830244781,-0.606217823189828,2.54999997862912));
#817=CARTESIAN_POINT('',(-14.269255958831,1.96226340268855,2.55));
#818=CARTESIAN_POINT('Origin',(-12.,-4.44089209850063E-15,2.55));
#819=CARTESIAN_POINT('',(-14.080151298413,1.79874145490117,2.8));
#820=CARTESIAN_POINT('',(-14.269255958831,1.96226340268855,2.55));
#821=CARTESIAN_POINT('Origin',(-12.,-4.44089209850063E-15,2.8));
#822=CARTESIAN_POINT('Origin',(-12.,-4.44089209850063E-15,2.55));
#823=CARTESIAN_POINT('Origin',(-13.891046637995,1.63521950711379,2.675));
#824=CARTESIAN_POINT('',(-13.9346245093692,1.13712215806795,2.55));
#825=CARTESIAN_POINT('Origin',(-13.891046637995,1.63521950711379,2.55));
#826=CARTESIAN_POINT('',(-13.9128355736821,1.38617083259087,2.8));
#827=CARTESIAN_POINT('',(-13.9346245093692,1.13712215806795,2.55));
#828=CARTESIAN_POINT('Origin',(-13.891046637995,1.63521950711379,2.8));
#829=CARTESIAN_POINT('Origin',(-13.2570654658818,1.20332090258563,2.675));
#830=CARTESIAN_POINT('',(-13.2461709980382,1.32784523984708,2.8));
#831=CARTESIAN_POINT('',(-13.2679599337254,1.07879656532417,2.55));
#832=CARTESIAN_POINT('Origin',(-13.2177245610939,-2.18337974636256,0.));
#833=CARTESIAN_POINT('',(-13.4290336919646,-1.73022585284443,0.));
#834=CARTESIAN_POINT('',(-13.4290336919646,-1.73022585284443,0.));
#835=CARTESIAN_POINT('',(-13.4612694689577,-2.6200556878267,0.));
#836=CARTESIAN_POINT('Origin',(-13.2177245610939,-2.18337974636256,0.));
#837=CARTESIAN_POINT('',(-13.4612694689577,-2.6200556878267,0.));
#838=CARTESIAN_POINT('Origin',(-12.8060428307988,-1.43972044332152,0.));
#839=CARTESIAN_POINT('',(-12.8060428307988,-1.43972044332152,0.));
#840=CARTESIAN_POINT('',(-12.8060428307988,-1.43972044332152,0.));
#841=CARTESIAN_POINT('',(-12.6339274020573,-1.35946170081254,0.));
#842=CARTESIAN_POINT('Origin',(-11.8729963452939,-4.44089209850063E-15,
2.8));
#843=CARTESIAN_POINT('Origin',(-0.0795815593286475,7.7715611723761E-15,
0.));
#844=CARTESIAN_POINT('',(2.43164327912843,1.75701770944133,0.));
#845=CARTESIAN_POINT('Origin',(0.,7.7715611723761E-15,0.));
#846=CARTESIAN_POINT('',(2.02636940531321,0.964181428898041,0.));
#847=CARTESIAN_POINT('Origin',(2.02636940531275,1.46418142889804,0.));
#848=CARTESIAN_POINT('',(1.14906668180088,0.964181428897224,0.));
#849=CARTESIAN_POINT('Origin',(2.02636940531275,1.46418142889804,0.));
#850=CARTESIAN_POINT('',(2.02636940531321,0.964181428898041,0.));
#851=CARTESIAN_POINT('',(2.43164327912843,1.75701770944133,0.));
#852=CARTESIAN_POINT('Origin',(1.3389750453871,0.964181428897401,0.));
#853=CARTESIAN_POINT('Origin',(-12.,-4.44089209850063E-15,0.));
#854=CARTESIAN_POINT('',(-9.29629878347832,1.3,1.4));
#855=CARTESIAN_POINT('Ctrl Pts',(-9.06188832560382,0.606217829659972,2.54999997521841));
#856=CARTESIAN_POINT('Ctrl Pts',(-9.08624833824286,0.724281723563168,2.48776307168317));
#857=CARTESIAN_POINT('Ctrl Pts',(-9.11584846175479,0.830839526286772,2.40763810479825));
#858=CARTESIAN_POINT('Ctrl Pts',(-9.18109389887038,1.03353020662481,2.20494742446022));
#859=CARTESIAN_POINT('Ctrl Pts',(-9.22128202463679,1.1331428219647,2.06026057968825));
#860=CARTESIAN_POINT('Ctrl Pts',(-9.27943630627463,1.26642009592643,1.74078777233281));
#861=CARTESIAN_POINT('Ctrl Pts',(-9.29629878347832,1.3,1.56576654923846));
#862=CARTESIAN_POINT('Ctrl Pts',(-9.29629878347832,1.3,1.4));
#863=CARTESIAN_POINT('',(-9.29629878347832,-1.3,1.4));
#864=CARTESIAN_POINT('Ctrl Pts',(-9.29629878347832,1.3,1.4));
#865=CARTESIAN_POINT('Ctrl Pts',(-9.29629878347832,1.3,1.23423345076154));
#866=CARTESIAN_POINT('Ctrl Pts',(-9.27943630627463,1.26642009592643,1.05921222766719));
#867=CARTESIAN_POINT('Ctrl Pts',(-9.22128202463679,1.1331428219647,0.739739420311753));
#868=CARTESIAN_POINT('Ctrl Pts',(-9.18109389887038,1.03353020662481,0.595052575539782));
#869=CARTESIAN_POINT('Ctrl Pts',(-9.10756668817356,0.805111469340649,0.366633838255626));
#870=CARTESIAN_POINT('Ctrl Pts',(-9.06909484420626,0.660364509257504,0.266897981052435));
#871=CARTESIAN_POINT('Ctrl Pts',(-9.01499679107028,0.340649623049425,0.133524825581651));
#872=CARTESIAN_POINT('Ctrl Pts',(-8.99999995529654,0.165528620961519,0.1));
#873=CARTESIAN_POINT('Ctrl Pts',(-8.99999995529654,-0.165528620961519,0.1));
#874=CARTESIAN_POINT('Ctrl Pts',(-9.01499679107028,-0.340649623049425,0.133524825581651));
#875=CARTESIAN_POINT('Ctrl Pts',(-9.06909484420625,-0.660364509257504,0.266897981052435));
#876=CARTESIAN_POINT('Ctrl Pts',(-9.10756668817356,-0.805111469340649,0.366633838255626));
#877=CARTESIAN_POINT('Ctrl Pts',(-9.18109389887038,-1.03353020662481,0.595052575539783));
#878=CARTESIAN_POINT('Ctrl Pts',(-9.22128202463679,-1.1331428219647,0.739739420311753));
#879=CARTESIAN_POINT('Ctrl Pts',(-9.27943630627463,-1.26642009592643,1.05921222766719));
#880=CARTESIAN_POINT('Ctrl Pts',(-9.29629878347832,-1.3,1.23423345076154));
#881=CARTESIAN_POINT('Ctrl Pts',(-9.29629878347832,-1.3,1.4));
#882=CARTESIAN_POINT('Ctrl Pts',(-9.29629878347832,-1.3,1.4));
#883=CARTESIAN_POINT('Ctrl Pts',(-9.29629878347832,-1.3,1.56576654923846));
#884=CARTESIAN_POINT('Ctrl Pts',(-9.27943630627463,-1.26642009592643,1.74078777233281));
#885=CARTESIAN_POINT('Ctrl Pts',(-9.22128202463679,-1.1331428219647,2.06026057968825));
#886=CARTESIAN_POINT('Ctrl Pts',(-9.18109389887038,-1.03353020662481,2.20494742446022));
#887=CARTESIAN_POINT('Ctrl Pts',(-9.11584846175479,-0.830839526286771,2.40763810479825));
#888=CARTESIAN_POINT('Ctrl Pts',(-9.08624833824285,-0.724281723563167,2.48776307168317));
#889=CARTESIAN_POINT('Ctrl Pts',(-9.06188832560382,-0.606217829659972,2.54999997521842));
#890=CARTESIAN_POINT('',(-14.269255958831,1.96226340268855,0.));
#891=CARTESIAN_POINT('Origin',(-12.,-4.44089209850063E-15,0.));
#892=CARTESIAN_POINT('',(-14.269255958831,1.96226340268855,0.));
#893=CARTESIAN_POINT('Origin',(-11.8729963452939,-4.44089209850063E-15,
0.));
#894=CARTESIAN_POINT('',(-13.2498458925127,1.0772117920674,0.));
#895=CARTESIAN_POINT('Origin',(-12.,-4.44089209850063E-15,0.));
#896=CARTESIAN_POINT('',(-13.9346245093692,1.13712215806795,0.));
#897=CARTESIAN_POINT('',(-13.0606601875849,1.06066018758488,0.));
#898=CARTESIAN_POINT('Origin',(-13.891046637995,1.63521950711379,0.));
#899=CARTESIAN_POINT('Origin',(-13.891046637995,1.63521950711379,0.));
#900=CARTESIAN_POINT('',(-13.9346245093692,1.13712215806795,0.));
#901=CARTESIAN_POINT('Origin',(0.,7.7715611723761E-15,0.));
#902=CARTESIAN_POINT('',(-2.70370121652169,-1.3,1.4));
#903=CARTESIAN_POINT('Ctrl Pts',(-2.70370121652169,-1.3,1.4));
#904=CARTESIAN_POINT('Ctrl Pts',(-2.70370121652169,-1.3,1.56576654923846));
#905=CARTESIAN_POINT('Ctrl Pts',(-2.72056369372539,-1.26642009592643,1.74078777233281));
#906=CARTESIAN_POINT('Ctrl Pts',(-2.77871797536323,-1.1331428219647,2.06026057968825));
#907=CARTESIAN_POINT('Ctrl Pts',(-2.81890610112963,-1.03353020662481,2.20494742446022));
#908=CARTESIAN_POINT('Ctrl Pts',(-2.88415153824523,-0.830839526286772,2.40763810479825));
#909=CARTESIAN_POINT('Ctrl Pts',(-2.91375166175716,-0.724281723563167,2.48776307168317));
#910=CARTESIAN_POINT('Ctrl Pts',(-2.9381116743962,-0.606217829659971,2.54999997521842));
#911=CARTESIAN_POINT('',(-2.7037012165217,1.3,1.4));
#912=CARTESIAN_POINT('Ctrl Pts',(-2.7037012165217,1.3,1.4));
#913=CARTESIAN_POINT('Ctrl Pts',(-2.7037012165217,1.3,1.23423345076154));
#914=CARTESIAN_POINT('Ctrl Pts',(-2.7205636937254,1.26642009592643,1.05921222766719));
#915=CARTESIAN_POINT('Ctrl Pts',(-2.77871797536323,1.1331428219647,0.739739420311753));
#916=CARTESIAN_POINT('Ctrl Pts',(-2.81890610112964,1.03353020662481,0.595052575539782));
#917=CARTESIAN_POINT('Ctrl Pts',(-2.89243331182646,0.805111469340649,0.366633838255625));
#918=CARTESIAN_POINT('Ctrl Pts',(-2.93090515579376,0.660364509257504,0.266897981052435));
#919=CARTESIAN_POINT('Ctrl Pts',(-2.98500320892974,0.340649623049425,0.133524825581651));
#920=CARTESIAN_POINT('Ctrl Pts',(-3.00000004470348,0.165528620961519,0.1));
#921=CARTESIAN_POINT('Ctrl Pts',(-3.00000004470348,-0.165528620961519,0.1));
#922=CARTESIAN_POINT('Ctrl Pts',(-2.98500320892973,-0.340649623049425,0.133524825581651));
#923=CARTESIAN_POINT('Ctrl Pts',(-2.93090515579376,-0.660364509257504,0.266897981052435));
#924=CARTESIAN_POINT('Ctrl Pts',(-2.89243331182646,-0.805111469340649,0.366633838255626));
#925=CARTESIAN_POINT('Ctrl Pts',(-2.81890610112963,-1.03353020662481,0.595052575539782));
#926=CARTESIAN_POINT('Ctrl Pts',(-2.77871797536323,-1.1331428219647,0.739739420311753));
#927=CARTESIAN_POINT('Ctrl Pts',(-2.72056369372539,-1.26642009592643,1.05921222766719));
#928=CARTESIAN_POINT('Ctrl Pts',(-2.70370121652169,-1.3,1.23423345076154));
#929=CARTESIAN_POINT('Ctrl Pts',(-2.70370121652169,-1.3,1.4));
#930=CARTESIAN_POINT('Ctrl Pts',(-2.9381116743962,0.606217829659972,2.54999997521841));
#931=CARTESIAN_POINT('Ctrl Pts',(-2.91375166175717,0.724281723563167,2.48776307168317));
#932=CARTESIAN_POINT('Ctrl Pts',(-2.88415153824523,0.830839526286772,2.40763810479825));
#933=CARTESIAN_POINT('Ctrl Pts',(-2.81890610112964,1.03353020662481,2.20494742446022));
#934=CARTESIAN_POINT('Ctrl Pts',(-2.77871797536323,1.1331428219647,2.06026057968825));
#935=CARTESIAN_POINT('Ctrl Pts',(-2.7205636937254,1.26642009592643,1.74078777233281));
#936=CARTESIAN_POINT('Ctrl Pts',(-2.7037012165217,1.3,1.56576654923846));
#937=CARTESIAN_POINT('Ctrl Pts',(-2.7037012165217,1.3,1.4));
#938=CARTESIAN_POINT('Origin',(-9.51600018626451,6.13665238019382E-33,1.4));
#939=CARTESIAN_POINT('',(-9.51600018626451,-1.3,1.4));
#940=CARTESIAN_POINT('Origin',(-14.7459927352913,1.20810767978204,0.));
#941=CARTESIAN_POINT('',(-13.2498458925127,1.0772117920674,0.));
#942=CARTESIAN_POINT('Origin',(-12.,-4.44089209850063E-15,0.));
#943=UNCERTAINTY_MEASURE_WITH_UNIT(LENGTH_MEASURE(0.01),#947,
'DISTANCE_ACCURACY_VALUE',
'Maximum model space distance between geometric entities at asserted c
onnectivities');
#944=UNCERTAINTY_MEASURE_WITH_UNIT(LENGTH_MEASURE(0.01),#947,
'DISTANCE_ACCURACY_VALUE',
'Maximum model space distance between geometric entities at asserted c
onnectivities');
#945=(
GEOMETRIC_REPRESENTATION_CONTEXT(3)
GLOBAL_UNCERTAINTY_ASSIGNED_CONTEXT((#943))
GLOBAL_UNIT_ASSIGNED_CONTEXT((#947,#949,#950))
REPRESENTATION_CONTEXT('','3D')
);
#946=(
GEOMETRIC_REPRESENTATION_CONTEXT(3)
GLOBAL_UNCERTAINTY_ASSIGNED_CONTEXT((#944))
GLOBAL_UNIT_ASSIGNED_CONTEXT((#947,#949,#950))
REPRESENTATION_CONTEXT('','3D')
);
#947=(
LENGTH_UNIT()
NAMED_UNIT(*)
SI_UNIT(.MILLI.,.METRE.)
);
#948=(
LENGTH_UNIT()
NAMED_UNIT(*)
SI_UNIT($,.METRE.)
);
#949=(
NAMED_UNIT(*)
PLANE_ANGLE_UNIT()
SI_UNIT($,.RADIAN.)
);
#950=(
NAMED_UNIT(*)
SI_UNIT($,.STERADIAN.)
SOLID_ANGLE_UNIT()
);
#951=SHAPE_DEFINITION_REPRESENTATION(#952,#953);
#952=PRODUCT_DEFINITION_SHAPE('',$,#955);
#953=SHAPE_REPRESENTATION('',(#505),#945);
#954=PRODUCT_DEFINITION_CONTEXT('part definition',#959,'design');
#955=PRODUCT_DEFINITION('ConnectingBracketV2','ConnectingBracketV2 v6',
#956,#954);
#956=PRODUCT_DEFINITION_FORMATION('',$,#961);
#957=PRODUCT_RELATED_PRODUCT_CATEGORY('ConnectingBracketV2 v6',
'ConnectingBracketV2 v6',(#961));
#958=APPLICATION_PROTOCOL_DEFINITION('international standard',
'automotive_design',2009,#959);
#959=APPLICATION_CONTEXT(
'Core Data for Automotive Mechanical Design Process');
#960=PRODUCT_CONTEXT('part definition',#959,'mechanical');
#961=PRODUCT('ConnectingBracketV2','ConnectingBracketV2 v6',$,(#960));
#962=PRESENTATION_STYLE_ASSIGNMENT((#964));
#963=PRESENTATION_STYLE_ASSIGNMENT((#965));
#964=SURFACE_STYLE_USAGE(.BOTH.,#966);
#965=SURFACE_STYLE_USAGE(.BOTH.,#967);
#966=SURFACE_SIDE_STYLE('',(#968));
#967=SURFACE_SIDE_STYLE('',(#969));
#968=SURFACE_STYLE_FILL_AREA(#970);
#969=SURFACE_STYLE_FILL_AREA(#971);
#970=FILL_AREA_STYLE('Steel - Satin',(#972));
#971=FILL_AREA_STYLE('ABS (White)',(#973));
#972=FILL_AREA_STYLE_COLOUR('Steel - Satin',#974);
#973=FILL_AREA_STYLE_COLOUR('ABS (White)',#975);
#974=COLOUR_RGB('Steel - Satin',0.627450980392157,0.627450980392157,0.627450980392157);
#975=COLOUR_RGB('ABS (White)',0.964705882352941,0.964705882352941,0.952941176470588);
ENDSEC;
END-ISO-10303-21;
