ISO-10303-21;
HEADER;
/* Generated by software containing ST-Developer
 * from STEP Tools, Inc. (www.steptools.com) 
 */

FILE_DESCRIPTION(
/* description */ (''),
/* implementation_level */ '2;1');

FILE_NAME(
/* name */ 'TopPlate_v60.step',
/* time_stamp */ '2026-08-21T09:14:54-04:00',
/* author */ (''),
/* organization */ (''),
/* preprocessor_version */ 'ST-DEVELOPER v20.1',
/* originating_system */ 'Autodesk Translation Framework v15.8.0.0',
/* authorisation */ '');

FILE_SCHEMA (('AUTOMOTIVE_DESIGN { 1 0 10303 214 3 1 1 }'));
ENDSEC;

DATA;
#10=MECHANICAL_DESIGN_GEOMETRIC_PRESENTATION_REPRESENTATION('',(#13),#1029);
#11=SHAPE_REPRESENTATION_RELATIONSHIP('SRR','None',#1036,#12);
#12=ADVANCED_BREP_SHAPE_REPRESENTATION('',(#14),#1028);
#13=STYLED_ITEM('',(#1046),#14);
#14=MANIFOLD_SOLID_BREP('Body1',#593);
#15=FACE_BOUND('',#110,.T.);
#16=FACE_BOUND('',#111,.T.);
#17=FACE_BOUND('',#112,.T.);
#18=FACE_BOUND('',#113,.T.);
#19=FACE_BOUND('',#114,.T.);
#20=FACE_BOUND('',#115,.T.);
#21=FACE_BOUND('',#116,.T.);
#22=FACE_BOUND('',#117,.T.);
#23=FACE_BOUND('',#118,.T.);
#24=FACE_BOUND('',#119,.T.);
#25=FACE_BOUND('',#120,.T.);
#26=FACE_BOUND('',#121,.T.);
#27=FACE_BOUND('',#122,.T.);
#28=FACE_BOUND('',#123,.T.);
#29=FACE_BOUND('',#124,.T.);
#30=FACE_BOUND('',#125,.T.);
#31=FACE_BOUND('',#126,.T.);
#32=FACE_BOUND('',#127,.T.);
#33=FACE_BOUND('',#129,.T.);
#34=FACE_BOUND('',#130,.T.);
#35=FACE_BOUND('',#131,.T.);
#36=FACE_BOUND('',#132,.T.);
#37=FACE_BOUND('',#133,.T.);
#38=FACE_BOUND('',#134,.T.);
#39=FACE_BOUND('',#135,.T.);
#40=FACE_BOUND('',#136,.T.);
#41=FACE_BOUND('',#137,.T.);
#42=FACE_BOUND('',#138,.T.);
#43=FACE_BOUND('',#139,.T.);
#44=FACE_BOUND('',#140,.T.);
#45=FACE_BOUND('',#141,.T.);
#46=FACE_BOUND('',#142,.T.);
#47=FACE_BOUND('',#143,.T.);
#48=FACE_BOUND('',#144,.T.);
#49=FACE_BOUND('',#145,.T.);
#50=FACE_BOUND('',#146,.T.);
#51=PLANE('',#616);
#52=PLANE('',#626);
#53=PLANE('',#681);
#54=PLANE('',#682);
#55=FACE_OUTER_BOUND('',#83,.T.);
#56=FACE_OUTER_BOUND('',#84,.T.);
#57=FACE_OUTER_BOUND('',#85,.T.);
#58=FACE_OUTER_BOUND('',#86,.T.);
#59=FACE_OUTER_BOUND('',#87,.T.);
#60=FACE_OUTER_BOUND('',#88,.T.);
#61=FACE_OUTER_BOUND('',#89,.T.);
#62=FACE_OUTER_BOUND('',#90,.T.);
#63=FACE_OUTER_BOUND('',#91,.T.);
#64=FACE_OUTER_BOUND('',#92,.T.);
#65=FACE_OUTER_BOUND('',#93,.T.);
#66=FACE_OUTER_BOUND('',#94,.T.);
#67=FACE_OUTER_BOUND('',#95,.T.);
#68=FACE_OUTER_BOUND('',#96,.T.);
#69=FACE_OUTER_BOUND('',#97,.T.);
#70=FACE_OUTER_BOUND('',#98,.T.);
#71=FACE_OUTER_BOUND('',#99,.T.);
#72=FACE_OUTER_BOUND('',#100,.T.);
#73=FACE_OUTER_BOUND('',#101,.T.);
#74=FACE_OUTER_BOUND('',#102,.T.);
#75=FACE_OUTER_BOUND('',#103,.T.);
#76=FACE_OUTER_BOUND('',#104,.T.);
#77=FACE_OUTER_BOUND('',#105,.T.);
#78=FACE_OUTER_BOUND('',#106,.T.);
#79=FACE_OUTER_BOUND('',#107,.T.);
#80=FACE_OUTER_BOUND('',#108,.T.);
#81=FACE_OUTER_BOUND('',#109,.T.);
#82=FACE_OUTER_BOUND('',#128,.T.);
#83=EDGE_LOOP('',(#385,#386,#387,#388));
#84=EDGE_LOOP('',(#389,#390,#391,#392));
#85=EDGE_LOOP('',(#393,#394,#395,#396));
#86=EDGE_LOOP('',(#397,#398,#399,#400));
#87=EDGE_LOOP('',(#401,#402,#403,#404));
#88=EDGE_LOOP('',(#405,#406,#407,#408));
#89=EDGE_LOOP('',(#409,#410,#411,#412));
#90=EDGE_LOOP('',(#413,#414,#415,#416));
#91=EDGE_LOOP('',(#417,#418,#419,#420));
#92=EDGE_LOOP('',(#421,#422,#423,#424));
#93=EDGE_LOOP('',(#425,#426,#427,#428));
#94=EDGE_LOOP('',(#429,#430,#431,#432));
#95=EDGE_LOOP('',(#433,#434,#435,#436));
#96=EDGE_LOOP('',(#437,#438,#439,#440));
#97=EDGE_LOOP('',(#441,#442,#443,#444));
#98=EDGE_LOOP('',(#445,#446,#447,#448));
#99=EDGE_LOOP('',(#449,#450,#451,#452));
#100=EDGE_LOOP('',(#453,#454,#455,#456));
#101=EDGE_LOOP('',(#457,#458,#459,#460));
#102=EDGE_LOOP('',(#461,#462,#463,#464));
#103=EDGE_LOOP('',(#465,#466,#467,#468));
#104=EDGE_LOOP('',(#469,#470,#471,#472));
#105=EDGE_LOOP('',(#473,#474,#475,#476));
#106=EDGE_LOOP('',(#477,#478,#479,#480));
#107=EDGE_LOOP('',(#481,#482,#483,#484));
#108=EDGE_LOOP('',(#485,#486,#487,#488));
#109=EDGE_LOOP('',(#489));
#110=EDGE_LOOP('',(#490));
#111=EDGE_LOOP('',(#491));
#112=EDGE_LOOP('',(#492));
#113=EDGE_LOOP('',(#493));
#114=EDGE_LOOP('',(#494,#495,#496,#497,#498,#499,#500,#501));
#115=EDGE_LOOP('',(#502));
#116=EDGE_LOOP('',(#503));
#117=EDGE_LOOP('',(#504));
#118=EDGE_LOOP('',(#505));
#119=EDGE_LOOP('',(#506));
#120=EDGE_LOOP('',(#507));
#121=EDGE_LOOP('',(#508));
#122=EDGE_LOOP('',(#509));
#123=EDGE_LOOP('',(#510));
#124=EDGE_LOOP('',(#511));
#125=EDGE_LOOP('',(#512));
#126=EDGE_LOOP('',(#513));
#127=EDGE_LOOP('',(#514));
#128=EDGE_LOOP('',(#515));
#129=EDGE_LOOP('',(#516));
#130=EDGE_LOOP('',(#517));
#131=EDGE_LOOP('',(#518));
#132=EDGE_LOOP('',(#519));
#133=EDGE_LOOP('',(#520,#521,#522,#523,#524,#525,#526,#527));
#134=EDGE_LOOP('',(#528));
#135=EDGE_LOOP('',(#529));
#136=EDGE_LOOP('',(#530));
#137=EDGE_LOOP('',(#531));
#138=EDGE_LOOP('',(#532));
#139=EDGE_LOOP('',(#533));
#140=EDGE_LOOP('',(#534));
#141=EDGE_LOOP('',(#535));
#142=EDGE_LOOP('',(#536));
#143=EDGE_LOOP('',(#537));
#144=EDGE_LOOP('',(#538));
#145=EDGE_LOOP('',(#539));
#146=EDGE_LOOP('',(#540));
#147=LINE('',#873,#177);
#148=LINE('',#876,#178);
#149=LINE('',#881,#179);
#150=LINE('',#888,#180);
#151=LINE('',#891,#181);
#152=LINE('',#893,#182);
#153=LINE('',#894,#183);
#154=LINE('',#900,#184);
#155=LINE('',#903,#185);
#156=LINE('',#911,#186);
#157=LINE('',#914,#187);
#158=LINE('',#915,#188);
#159=LINE('',#920,#189);
#160=LINE('',#926,#190);
#161=LINE('',#932,#191);
#162=LINE('',#938,#192);
#163=LINE('',#944,#193);
#164=LINE('',#950,#194);
#165=LINE('',#956,#195);
#166=LINE('',#962,#196);
#167=LINE('',#968,#197);
#168=LINE('',#974,#198);
#169=LINE('',#980,#199);
#170=LINE('',#986,#200);
#171=LINE('',#992,#201);
#172=LINE('',#998,#202);
#173=LINE('',#1004,#203);
#174=LINE('',#1010,#204);
#175=LINE('',#1016,#205);
#176=LINE('',#1022,#206);
#177=VECTOR('',#689,10.);
#178=VECTOR('',#692,10.);
#179=VECTOR('',#697,10.);
#180=VECTOR('',#704,10.);
#181=VECTOR('',#707,10.);
#182=VECTOR('',#710,10.);
#183=VECTOR('',#711,10.);
#184=VECTOR('',#716,10.);
#185=VECTOR('',#719,10.);
#186=VECTOR('',#730,10.);
#187=VECTOR('',#735,10.);
#188=VECTOR('',#736,10.);
#189=VECTOR('',#741,1.);
#190=VECTOR('',#748,1.);
#191=VECTOR('',#755,1.5);
#192=VECTOR('',#762,1.5);
#193=VECTOR('',#769,6.);
#194=VECTOR('',#776,1.);
#195=VECTOR('',#783,1.);
#196=VECTOR('',#790,1.);
#197=VECTOR('',#797,1.);
#198=VECTOR('',#804,1.5);
#199=VECTOR('',#811,1.5);
#200=VECTOR('',#818,1.);
#201=VECTOR('',#825,1.);
#202=VECTOR('',#832,1.75);
#203=VECTOR('',#839,1.75);
#204=VECTOR('',#846,1.75);
#205=VECTOR('',#853,1.75);
#206=VECTOR('',#860,56.);
#207=CIRCLE('',#608,3.);
#208=CIRCLE('',#609,3.);
#209=CIRCLE('',#611,6.);
#210=CIRCLE('',#612,6.);
#211=CIRCLE('',#614,3.);
#212=CIRCLE('',#615,3.);
#213=CIRCLE('',#618,3.);
#214=CIRCLE('',#619,3.);
#215=CIRCLE('',#621,6.);
#216=CIRCLE('',#622,6.);
#217=CIRCLE('',#624,3.);
#218=CIRCLE('',#625,3.);
#219=CIRCLE('',#628,1.);
#220=CIRCLE('',#629,1.);
#221=CIRCLE('',#631,1.);
#222=CIRCLE('',#632,1.);
#223=CIRCLE('',#634,1.5);
#224=CIRCLE('',#635,1.5);
#225=CIRCLE('',#637,1.5);
#226=CIRCLE('',#638,1.5);
#227=CIRCLE('',#640,6.);
#228=CIRCLE('',#641,6.);
#229=CIRCLE('',#643,1.);
#230=CIRCLE('',#644,1.);
#231=CIRCLE('',#646,1.);
#232=CIRCLE('',#647,1.);
#233=CIRCLE('',#649,1.);
#234=CIRCLE('',#650,1.);
#235=CIRCLE('',#652,1.);
#236=CIRCLE('',#653,1.);
#237=CIRCLE('',#655,1.5);
#238=CIRCLE('',#656,1.5);
#239=CIRCLE('',#658,1.5);
#240=CIRCLE('',#659,1.5);
#241=CIRCLE('',#661,1.);
#242=CIRCLE('',#662,1.);
#243=CIRCLE('',#664,1.);
#244=CIRCLE('',#665,1.);
#245=CIRCLE('',#667,1.75);
#246=CIRCLE('',#668,1.75);
#247=CIRCLE('',#670,1.75);
#248=CIRCLE('',#671,1.75);
#249=CIRCLE('',#673,1.75);
#250=CIRCLE('',#674,1.75);
#251=CIRCLE('',#676,1.75);
#252=CIRCLE('',#677,1.75);
#253=CIRCLE('',#679,64.);
#254=CIRCLE('',#680,64.);
#255=VERTEX_POINT('',#869);
#256=VERTEX_POINT('',#870);
#257=VERTEX_POINT('',#872);
#258=VERTEX_POINT('',#874);
#259=VERTEX_POINT('',#878);
#260=VERTEX_POINT('',#880);
#261=VERTEX_POINT('',#884);
#262=VERTEX_POINT('',#885);
#263=VERTEX_POINT('',#887);
#264=VERTEX_POINT('',#889);
#265=VERTEX_POINT('',#896);
#266=VERTEX_POINT('',#897);
#267=VERTEX_POINT('',#899);
#268=VERTEX_POINT('',#901);
#269=VERTEX_POINT('',#908);
#270=VERTEX_POINT('',#910);
#271=VERTEX_POINT('',#917);
#272=VERTEX_POINT('',#919);
#273=VERTEX_POINT('',#923);
#274=VERTEX_POINT('',#925);
#275=VERTEX_POINT('',#929);
#276=VERTEX_POINT('',#931);
#277=VERTEX_POINT('',#935);
#278=VERTEX_POINT('',#937);
#279=VERTEX_POINT('',#941);
#280=VERTEX_POINT('',#943);
#281=VERTEX_POINT('',#947);
#282=VERTEX_POINT('',#949);
#283=VERTEX_POINT('',#953);
#284=VERTEX_POINT('',#955);
#285=VERTEX_POINT('',#959);
#286=VERTEX_POINT('',#961);
#287=VERTEX_POINT('',#965);
#288=VERTEX_POINT('',#967);
#289=VERTEX_POINT('',#971);
#290=VERTEX_POINT('',#973);
#291=VERTEX_POINT('',#977);
#292=VERTEX_POINT('',#979);
#293=VERTEX_POINT('',#983);
#294=VERTEX_POINT('',#985);
#295=VERTEX_POINT('',#989);
#296=VERTEX_POINT('',#991);
#297=VERTEX_POINT('',#995);
#298=VERTEX_POINT('',#997);
#299=VERTEX_POINT('',#1001);
#300=VERTEX_POINT('',#1003);
#301=VERTEX_POINT('',#1007);
#302=VERTEX_POINT('',#1009);
#303=VERTEX_POINT('',#1013);
#304=VERTEX_POINT('',#1015);
#305=VERTEX_POINT('',#1019);
#306=VERTEX_POINT('',#1021);
#307=EDGE_CURVE('',#255,#256,#207,.T.);
#308=EDGE_CURVE('',#256,#257,#147,.T.);
#309=EDGE_CURVE('',#257,#258,#208,.T.);
#310=EDGE_CURVE('',#258,#255,#148,.T.);
#311=EDGE_CURVE('',#259,#256,#209,.T.);
#312=EDGE_CURVE('',#260,#259,#149,.T.);
#313=EDGE_CURVE('',#257,#260,#210,.T.);
#314=EDGE_CURVE('',#261,#262,#211,.T.);
#315=EDGE_CURVE('',#262,#263,#150,.T.);
#316=EDGE_CURVE('',#263,#264,#212,.T.);
#317=EDGE_CURVE('',#264,#261,#151,.T.);
#318=EDGE_CURVE('',#263,#258,#152,.T.);
#319=EDGE_CURVE('',#255,#262,#153,.T.);
#320=EDGE_CURVE('',#265,#266,#213,.T.);
#321=EDGE_CURVE('',#266,#267,#154,.T.);
#322=EDGE_CURVE('',#267,#268,#214,.T.);
#323=EDGE_CURVE('',#268,#265,#155,.T.);
#324=EDGE_CURVE('',#267,#264,#215,.T.);
#325=EDGE_CURVE('',#261,#266,#216,.T.);
#326=EDGE_CURVE('',#259,#269,#217,.T.);
#327=EDGE_CURVE('',#269,#270,#156,.T.);
#328=EDGE_CURVE('',#270,#260,#218,.T.);
#329=EDGE_CURVE('',#270,#268,#157,.T.);
#330=EDGE_CURVE('',#265,#269,#158,.T.);
#331=EDGE_CURVE('',#271,#271,#219,.T.);
#332=EDGE_CURVE('',#271,#272,#159,.T.);
#333=EDGE_CURVE('',#272,#272,#220,.T.);
#334=EDGE_CURVE('',#273,#273,#221,.T.);
#335=EDGE_CURVE('',#273,#274,#160,.T.);
#336=EDGE_CURVE('',#274,#274,#222,.T.);
#337=EDGE_CURVE('',#275,#275,#223,.T.);
#338=EDGE_CURVE('',#275,#276,#161,.T.);
#339=EDGE_CURVE('',#276,#276,#224,.T.);
#340=EDGE_CURVE('',#277,#277,#225,.T.);
#341=EDGE_CURVE('',#277,#278,#162,.T.);
#342=EDGE_CURVE('',#278,#278,#226,.T.);
#343=EDGE_CURVE('',#279,#279,#227,.T.);
#344=EDGE_CURVE('',#279,#280,#163,.T.);
#345=EDGE_CURVE('',#280,#280,#228,.T.);
#346=EDGE_CURVE('',#281,#281,#229,.T.);
#347=EDGE_CURVE('',#281,#282,#164,.T.);
#348=EDGE_CURVE('',#282,#282,#230,.T.);
#349=EDGE_CURVE('',#283,#283,#231,.T.);
#350=EDGE_CURVE('',#283,#284,#165,.T.);
#351=EDGE_CURVE('',#284,#284,#232,.T.);
#352=EDGE_CURVE('',#285,#285,#233,.T.);
#353=EDGE_CURVE('',#285,#286,#166,.T.);
#354=EDGE_CURVE('',#286,#286,#234,.T.);
#355=EDGE_CURVE('',#287,#287,#235,.T.);
#356=EDGE_CURVE('',#287,#288,#167,.T.);
#357=EDGE_CURVE('',#288,#288,#236,.T.);
#358=EDGE_CURVE('',#289,#289,#237,.T.);
#359=EDGE_CURVE('',#289,#290,#168,.T.);
#360=EDGE_CURVE('',#290,#290,#238,.T.);
#361=EDGE_CURVE('',#291,#291,#239,.T.);
#362=EDGE_CURVE('',#291,#292,#169,.T.);
#363=EDGE_CURVE('',#292,#292,#240,.T.);
#364=EDGE_CURVE('',#293,#293,#241,.T.);
#365=EDGE_CURVE('',#293,#294,#170,.T.);
#366=EDGE_CURVE('',#294,#294,#242,.T.);
#367=EDGE_CURVE('',#295,#295,#243,.T.);
#368=EDGE_CURVE('',#295,#296,#171,.T.);
#369=EDGE_CURVE('',#296,#296,#244,.T.);
#370=EDGE_CURVE('',#297,#297,#245,.T.);
#371=EDGE_CURVE('',#297,#298,#172,.T.);
#372=EDGE_CURVE('',#298,#298,#246,.T.);
#373=EDGE_CURVE('',#299,#299,#247,.T.);
#374=EDGE_CURVE('',#299,#300,#173,.T.);
#375=EDGE_CURVE('',#300,#300,#248,.T.);
#376=EDGE_CURVE('',#301,#301,#249,.T.);
#377=EDGE_CURVE('',#301,#302,#174,.T.);
#378=EDGE_CURVE('',#302,#302,#250,.T.);
#379=EDGE_CURVE('',#303,#303,#251,.T.);
#380=EDGE_CURVE('',#303,#304,#175,.T.);
#381=EDGE_CURVE('',#304,#304,#252,.T.);
#382=EDGE_CURVE('',#305,#305,#253,.F.);
#383=EDGE_CURVE('',#305,#306,#176,.T.);
#384=EDGE_CURVE('',#306,#306,#254,.F.);
#385=ORIENTED_EDGE('',*,*,#307,.T.);
#386=ORIENTED_EDGE('',*,*,#308,.T.);
#387=ORIENTED_EDGE('',*,*,#309,.T.);
#388=ORIENTED_EDGE('',*,*,#310,.T.);
#389=ORIENTED_EDGE('',*,*,#308,.F.);
#390=ORIENTED_EDGE('',*,*,#311,.F.);
#391=ORIENTED_EDGE('',*,*,#312,.F.);
#392=ORIENTED_EDGE('',*,*,#313,.F.);
#393=ORIENTED_EDGE('',*,*,#314,.T.);
#394=ORIENTED_EDGE('',*,*,#315,.T.);
#395=ORIENTED_EDGE('',*,*,#316,.T.);
#396=ORIENTED_EDGE('',*,*,#317,.T.);
#397=ORIENTED_EDGE('',*,*,#310,.F.);
#398=ORIENTED_EDGE('',*,*,#318,.F.);
#399=ORIENTED_EDGE('',*,*,#315,.F.);
#400=ORIENTED_EDGE('',*,*,#319,.F.);
#401=ORIENTED_EDGE('',*,*,#320,.T.);
#402=ORIENTED_EDGE('',*,*,#321,.T.);
#403=ORIENTED_EDGE('',*,*,#322,.T.);
#404=ORIENTED_EDGE('',*,*,#323,.T.);
#405=ORIENTED_EDGE('',*,*,#317,.F.);
#406=ORIENTED_EDGE('',*,*,#324,.F.);
#407=ORIENTED_EDGE('',*,*,#321,.F.);
#408=ORIENTED_EDGE('',*,*,#325,.F.);
#409=ORIENTED_EDGE('',*,*,#326,.T.);
#410=ORIENTED_EDGE('',*,*,#327,.T.);
#411=ORIENTED_EDGE('',*,*,#328,.T.);
#412=ORIENTED_EDGE('',*,*,#312,.T.);
#413=ORIENTED_EDGE('',*,*,#323,.F.);
#414=ORIENTED_EDGE('',*,*,#329,.F.);
#415=ORIENTED_EDGE('',*,*,#327,.F.);
#416=ORIENTED_EDGE('',*,*,#330,.F.);
#417=ORIENTED_EDGE('',*,*,#331,.F.);
#418=ORIENTED_EDGE('',*,*,#332,.T.);
#419=ORIENTED_EDGE('',*,*,#333,.F.);
#420=ORIENTED_EDGE('',*,*,#332,.F.);
#421=ORIENTED_EDGE('',*,*,#334,.F.);
#422=ORIENTED_EDGE('',*,*,#335,.T.);
#423=ORIENTED_EDGE('',*,*,#336,.F.);
#424=ORIENTED_EDGE('',*,*,#335,.F.);
#425=ORIENTED_EDGE('',*,*,#337,.F.);
#426=ORIENTED_EDGE('',*,*,#338,.T.);
#427=ORIENTED_EDGE('',*,*,#339,.F.);
#428=ORIENTED_EDGE('',*,*,#338,.F.);
#429=ORIENTED_EDGE('',*,*,#340,.F.);
#430=ORIENTED_EDGE('',*,*,#341,.T.);
#431=ORIENTED_EDGE('',*,*,#342,.F.);
#432=ORIENTED_EDGE('',*,*,#341,.F.);
#433=ORIENTED_EDGE('',*,*,#343,.F.);
#434=ORIENTED_EDGE('',*,*,#344,.T.);
#435=ORIENTED_EDGE('',*,*,#345,.F.);
#436=ORIENTED_EDGE('',*,*,#344,.F.);
#437=ORIENTED_EDGE('',*,*,#346,.F.);
#438=ORIENTED_EDGE('',*,*,#347,.T.);
#439=ORIENTED_EDGE('',*,*,#348,.F.);
#440=ORIENTED_EDGE('',*,*,#347,.F.);
#441=ORIENTED_EDGE('',*,*,#349,.F.);
#442=ORIENTED_EDGE('',*,*,#350,.T.);
#443=ORIENTED_EDGE('',*,*,#351,.F.);
#444=ORIENTED_EDGE('',*,*,#350,.F.);
#445=ORIENTED_EDGE('',*,*,#352,.F.);
#446=ORIENTED_EDGE('',*,*,#353,.T.);
#447=ORIENTED_EDGE('',*,*,#354,.F.);
#448=ORIENTED_EDGE('',*,*,#353,.F.);
#449=ORIENTED_EDGE('',*,*,#355,.F.);
#450=ORIENTED_EDGE('',*,*,#356,.T.);
#451=ORIENTED_EDGE('',*,*,#357,.F.);
#452=ORIENTED_EDGE('',*,*,#356,.F.);
#453=ORIENTED_EDGE('',*,*,#358,.F.);
#454=ORIENTED_EDGE('',*,*,#359,.T.);
#455=ORIENTED_EDGE('',*,*,#360,.F.);
#456=ORIENTED_EDGE('',*,*,#359,.F.);
#457=ORIENTED_EDGE('',*,*,#361,.F.);
#458=ORIENTED_EDGE('',*,*,#362,.T.);
#459=ORIENTED_EDGE('',*,*,#363,.F.);
#460=ORIENTED_EDGE('',*,*,#362,.F.);
#461=ORIENTED_EDGE('',*,*,#364,.F.);
#462=ORIENTED_EDGE('',*,*,#365,.T.);
#463=ORIENTED_EDGE('',*,*,#366,.F.);
#464=ORIENTED_EDGE('',*,*,#365,.F.);
#465=ORIENTED_EDGE('',*,*,#367,.F.);
#466=ORIENTED_EDGE('',*,*,#368,.T.);
#467=ORIENTED_EDGE('',*,*,#369,.F.);
#468=ORIENTED_EDGE('',*,*,#368,.F.);
#469=ORIENTED_EDGE('',*,*,#370,.F.);
#470=ORIENTED_EDGE('',*,*,#371,.T.);
#471=ORIENTED_EDGE('',*,*,#372,.T.);
#472=ORIENTED_EDGE('',*,*,#371,.F.);
#473=ORIENTED_EDGE('',*,*,#373,.F.);
#474=ORIENTED_EDGE('',*,*,#374,.T.);
#475=ORIENTED_EDGE('',*,*,#375,.T.);
#476=ORIENTED_EDGE('',*,*,#374,.F.);
#477=ORIENTED_EDGE('',*,*,#376,.F.);
#478=ORIENTED_EDGE('',*,*,#377,.T.);
#479=ORIENTED_EDGE('',*,*,#378,.T.);
#480=ORIENTED_EDGE('',*,*,#377,.F.);
#481=ORIENTED_EDGE('',*,*,#379,.F.);
#482=ORIENTED_EDGE('',*,*,#380,.T.);
#483=ORIENTED_EDGE('',*,*,#381,.T.);
#484=ORIENTED_EDGE('',*,*,#380,.F.);
#485=ORIENTED_EDGE('',*,*,#382,.F.);
#486=ORIENTED_EDGE('',*,*,#383,.T.);
#487=ORIENTED_EDGE('',*,*,#384,.T.);
#488=ORIENTED_EDGE('',*,*,#383,.F.);
#489=ORIENTED_EDGE('',*,*,#382,.T.);
#490=ORIENTED_EDGE('',*,*,#370,.T.);
#491=ORIENTED_EDGE('',*,*,#373,.T.);
#492=ORIENTED_EDGE('',*,*,#376,.T.);
#493=ORIENTED_EDGE('',*,*,#379,.T.);
#494=ORIENTED_EDGE('',*,*,#330,.T.);
#495=ORIENTED_EDGE('',*,*,#326,.F.);
#496=ORIENTED_EDGE('',*,*,#311,.T.);
#497=ORIENTED_EDGE('',*,*,#307,.F.);
#498=ORIENTED_EDGE('',*,*,#319,.T.);
#499=ORIENTED_EDGE('',*,*,#314,.F.);
#500=ORIENTED_EDGE('',*,*,#325,.T.);
#501=ORIENTED_EDGE('',*,*,#320,.F.);
#502=ORIENTED_EDGE('',*,*,#367,.T.);
#503=ORIENTED_EDGE('',*,*,#364,.T.);
#504=ORIENTED_EDGE('',*,*,#361,.T.);
#505=ORIENTED_EDGE('',*,*,#358,.T.);
#506=ORIENTED_EDGE('',*,*,#355,.T.);
#507=ORIENTED_EDGE('',*,*,#352,.T.);
#508=ORIENTED_EDGE('',*,*,#349,.T.);
#509=ORIENTED_EDGE('',*,*,#346,.T.);
#510=ORIENTED_EDGE('',*,*,#343,.T.);
#511=ORIENTED_EDGE('',*,*,#340,.T.);
#512=ORIENTED_EDGE('',*,*,#337,.T.);
#513=ORIENTED_EDGE('',*,*,#334,.T.);
#514=ORIENTED_EDGE('',*,*,#331,.T.);
#515=ORIENTED_EDGE('',*,*,#384,.F.);
#516=ORIENTED_EDGE('',*,*,#372,.F.);
#517=ORIENTED_EDGE('',*,*,#375,.F.);
#518=ORIENTED_EDGE('',*,*,#378,.F.);
#519=ORIENTED_EDGE('',*,*,#381,.F.);
#520=ORIENTED_EDGE('',*,*,#329,.T.);
#521=ORIENTED_EDGE('',*,*,#322,.F.);
#522=ORIENTED_EDGE('',*,*,#324,.T.);
#523=ORIENTED_EDGE('',*,*,#316,.F.);
#524=ORIENTED_EDGE('',*,*,#318,.T.);
#525=ORIENTED_EDGE('',*,*,#309,.F.);
#526=ORIENTED_EDGE('',*,*,#313,.T.);
#527=ORIENTED_EDGE('',*,*,#328,.F.);
#528=ORIENTED_EDGE('',*,*,#369,.T.);
#529=ORIENTED_EDGE('',*,*,#366,.T.);
#530=ORIENTED_EDGE('',*,*,#363,.T.);
#531=ORIENTED_EDGE('',*,*,#360,.T.);
#532=ORIENTED_EDGE('',*,*,#357,.T.);
#533=ORIENTED_EDGE('',*,*,#354,.T.);
#534=ORIENTED_EDGE('',*,*,#351,.T.);
#535=ORIENTED_EDGE('',*,*,#348,.T.);
#536=ORIENTED_EDGE('',*,*,#345,.T.);
#537=ORIENTED_EDGE('',*,*,#342,.T.);
#538=ORIENTED_EDGE('',*,*,#339,.T.);
#539=ORIENTED_EDGE('',*,*,#336,.T.);
#540=ORIENTED_EDGE('',*,*,#333,.T.);
#541=CYLINDRICAL_SURFACE('',#607,3.);
#542=CYLINDRICAL_SURFACE('',#610,6.);
#543=CYLINDRICAL_SURFACE('',#613,3.);
#544=CYLINDRICAL_SURFACE('',#617,3.);
#545=CYLINDRICAL_SURFACE('',#620,6.);
#546=CYLINDRICAL_SURFACE('',#623,3.);
#547=CYLINDRICAL_SURFACE('',#627,1.);
#548=CYLINDRICAL_SURFACE('',#630,1.);
#549=CYLINDRICAL_SURFACE('',#633,1.5);
#550=CYLINDRICAL_SURFACE('',#636,1.5);
#551=CYLINDRICAL_SURFACE('',#639,6.);
#552=CYLINDRICAL_SURFACE('',#642,1.);
#553=CYLINDRICAL_SURFACE('',#645,1.);
#554=CYLINDRICAL_SURFACE('',#648,1.);
#555=CYLINDRICAL_SURFACE('',#651,1.);
#556=CYLINDRICAL_SURFACE('',#654,1.5);
#557=CYLINDRICAL_SURFACE('',#657,1.5);
#558=CYLINDRICAL_SURFACE('',#660,1.);
#559=CYLINDRICAL_SURFACE('',#663,1.);
#560=CYLINDRICAL_SURFACE('',#666,1.75);
#561=CYLINDRICAL_SURFACE('',#669,1.75);
#562=CYLINDRICAL_SURFACE('',#672,1.75);
#563=CYLINDRICAL_SURFACE('',#675,1.75);
#564=CYLINDRICAL_SURFACE('',#678,64.);
#565=ADVANCED_FACE('',(#55),#541,.F.);
#566=ADVANCED_FACE('',(#56),#542,.F.);
#567=ADVANCED_FACE('',(#57),#543,.F.);
#568=ADVANCED_FACE('',(#58),#51,.F.);
#569=ADVANCED_FACE('',(#59),#544,.F.);
#570=ADVANCED_FACE('',(#60),#545,.F.);
#571=ADVANCED_FACE('',(#61),#546,.F.);
#572=ADVANCED_FACE('',(#62),#52,.F.);
#573=ADVANCED_FACE('',(#63),#547,.F.);
#574=ADVANCED_FACE('',(#64),#548,.F.);
#575=ADVANCED_FACE('',(#65),#549,.F.);
#576=ADVANCED_FACE('',(#66),#550,.F.);
#577=ADVANCED_FACE('',(#67),#551,.F.);
#578=ADVANCED_FACE('',(#68),#552,.F.);
#579=ADVANCED_FACE('',(#69),#553,.F.);
#580=ADVANCED_FACE('',(#70),#554,.F.);
#581=ADVANCED_FACE('',(#71),#555,.F.);
#582=ADVANCED_FACE('',(#72),#556,.F.);
#583=ADVANCED_FACE('',(#73),#557,.F.);
#584=ADVANCED_FACE('',(#74),#558,.F.);
#585=ADVANCED_FACE('',(#75),#559,.F.);
#586=ADVANCED_FACE('',(#76),#560,.F.);
#587=ADVANCED_FACE('',(#77),#561,.F.);
#588=ADVANCED_FACE('',(#78),#562,.F.);
#589=ADVANCED_FACE('',(#79),#563,.F.);
#590=ADVANCED_FACE('',(#80),#564,.T.);
#591=ADVANCED_FACE('',(#81,#15,#16,#17,#18,#19,#20,#21,#22,#23,#24,#25,
#26,#27,#28,#29,#30,#31,#32),#53,.T.);
#592=ADVANCED_FACE('',(#82,#33,#34,#35,#36,#37,#38,#39,#40,#41,#42,#43,
#44,#45,#46,#47,#48,#49,#50),#54,.F.);
#593=CLOSED_SHELL('',(#565,#566,#567,#568,#569,#570,#571,#572,#573,#574,
#575,#576,#577,#578,#579,#580,#581,#582,#583,#584,#585,#586,#587,#588,#589,
#590,#591,#592));
#594=DERIVED_UNIT_ELEMENT(#596,1.);
#595=DERIVED_UNIT_ELEMENT(#1031,-3.);
#596=(
MASS_UNIT()
NAMED_UNIT(*)
SI_UNIT(.KILO.,.GRAM.)
);
#597=DERIVED_UNIT((#594,#595));
#598=MEASURE_REPRESENTATION_ITEM('density measure',
POSITIVE_RATIO_MEASURE(7850.),#597);
#599=PROPERTY_DEFINITION_REPRESENTATION(#604,#601);
#600=PROPERTY_DEFINITION_REPRESENTATION(#605,#602);
#601=REPRESENTATION('material name',(#603),#1028);
#602=REPRESENTATION('density',(#598),#1028);
#603=DESCRIPTIVE_REPRESENTATION_ITEM('Steel','Steel');
#604=PROPERTY_DEFINITION('material property','material name',#1038);
#605=PROPERTY_DEFINITION('material property','density of part',#1038);
#606=AXIS2_PLACEMENT_3D('',#867,#683,#684);
#607=AXIS2_PLACEMENT_3D('',#868,#685,#686);
#608=AXIS2_PLACEMENT_3D('',#871,#687,#688);
#609=AXIS2_PLACEMENT_3D('',#875,#690,#691);
#610=AXIS2_PLACEMENT_3D('',#877,#693,#694);
#611=AXIS2_PLACEMENT_3D('',#879,#695,#696);
#612=AXIS2_PLACEMENT_3D('',#882,#698,#699);
#613=AXIS2_PLACEMENT_3D('',#883,#700,#701);
#614=AXIS2_PLACEMENT_3D('',#886,#702,#703);
#615=AXIS2_PLACEMENT_3D('',#890,#705,#706);
#616=AXIS2_PLACEMENT_3D('',#892,#708,#709);
#617=AXIS2_PLACEMENT_3D('',#895,#712,#713);
#618=AXIS2_PLACEMENT_3D('',#898,#714,#715);
#619=AXIS2_PLACEMENT_3D('',#902,#717,#718);
#620=AXIS2_PLACEMENT_3D('',#904,#720,#721);
#621=AXIS2_PLACEMENT_3D('',#905,#722,#723);
#622=AXIS2_PLACEMENT_3D('',#906,#724,#725);
#623=AXIS2_PLACEMENT_3D('',#907,#726,#727);
#624=AXIS2_PLACEMENT_3D('',#909,#728,#729);
#625=AXIS2_PLACEMENT_3D('',#912,#731,#732);
#626=AXIS2_PLACEMENT_3D('',#913,#733,#734);
#627=AXIS2_PLACEMENT_3D('',#916,#737,#738);
#628=AXIS2_PLACEMENT_3D('',#918,#739,#740);
#629=AXIS2_PLACEMENT_3D('',#921,#742,#743);
#630=AXIS2_PLACEMENT_3D('',#922,#744,#745);
#631=AXIS2_PLACEMENT_3D('',#924,#746,#747);
#632=AXIS2_PLACEMENT_3D('',#927,#749,#750);
#633=AXIS2_PLACEMENT_3D('',#928,#751,#752);
#634=AXIS2_PLACEMENT_3D('',#930,#753,#754);
#635=AXIS2_PLACEMENT_3D('',#933,#756,#757);
#636=AXIS2_PLACEMENT_3D('',#934,#758,#759);
#637=AXIS2_PLACEMENT_3D('',#936,#760,#761);
#638=AXIS2_PLACEMENT_3D('',#939,#763,#764);
#639=AXIS2_PLACEMENT_3D('',#940,#765,#766);
#640=AXIS2_PLACEMENT_3D('',#942,#767,#768);
#641=AXIS2_PLACEMENT_3D('',#945,#770,#771);
#642=AXIS2_PLACEMENT_3D('',#946,#772,#773);
#643=AXIS2_PLACEMENT_3D('',#948,#774,#775);
#644=AXIS2_PLACEMENT_3D('',#951,#777,#778);
#645=AXIS2_PLACEMENT_3D('',#952,#779,#780);
#646=AXIS2_PLACEMENT_3D('',#954,#781,#782);
#647=AXIS2_PLACEMENT_3D('',#957,#784,#785);
#648=AXIS2_PLACEMENT_3D('',#958,#786,#787);
#649=AXIS2_PLACEMENT_3D('',#960,#788,#789);
#650=AXIS2_PLACEMENT_3D('',#963,#791,#792);
#651=AXIS2_PLACEMENT_3D('',#964,#793,#794);
#652=AXIS2_PLACEMENT_3D('',#966,#795,#796);
#653=AXIS2_PLACEMENT_3D('',#969,#798,#799);
#654=AXIS2_PLACEMENT_3D('',#970,#800,#801);
#655=AXIS2_PLACEMENT_3D('',#972,#802,#803);
#656=AXIS2_PLACEMENT_3D('',#975,#805,#806);
#657=AXIS2_PLACEMENT_3D('',#976,#807,#808);
#658=AXIS2_PLACEMENT_3D('',#978,#809,#810);
#659=AXIS2_PLACEMENT_3D('',#981,#812,#813);
#660=AXIS2_PLACEMENT_3D('',#982,#814,#815);
#661=AXIS2_PLACEMENT_3D('',#984,#816,#817);
#662=AXIS2_PLACEMENT_3D('',#987,#819,#820);
#663=AXIS2_PLACEMENT_3D('',#988,#821,#822);
#664=AXIS2_PLACEMENT_3D('',#990,#823,#824);
#665=AXIS2_PLACEMENT_3D('',#993,#826,#827);
#666=AXIS2_PLACEMENT_3D('',#994,#828,#829);
#667=AXIS2_PLACEMENT_3D('',#996,#830,#831);
#668=AXIS2_PLACEMENT_3D('',#999,#833,#834);
#669=AXIS2_PLACEMENT_3D('',#1000,#835,#836);
#670=AXIS2_PLACEMENT_3D('',#1002,#837,#838);
#671=AXIS2_PLACEMENT_3D('',#1005,#840,#841);
#672=AXIS2_PLACEMENT_3D('',#1006,#842,#843);
#673=AXIS2_PLACEMENT_3D('',#1008,#844,#845);
#674=AXIS2_PLACEMENT_3D('',#1011,#847,#848);
#675=AXIS2_PLACEMENT_3D('',#1012,#849,#850);
#676=AXIS2_PLACEMENT_3D('',#1014,#851,#852);
#677=AXIS2_PLACEMENT_3D('',#1017,#854,#855);
#678=AXIS2_PLACEMENT_3D('',#1018,#856,#857);
#679=AXIS2_PLACEMENT_3D('',#1020,#858,#859);
#680=AXIS2_PLACEMENT_3D('',#1023,#861,#862);
#681=AXIS2_PLACEMENT_3D('',#1024,#863,#864);
#682=AXIS2_PLACEMENT_3D('',#1025,#865,#866);
#683=DIRECTION('axis',(0.,0.,1.));
#684=DIRECTION('refdir',(1.,0.,0.));
#685=DIRECTION('center_axis',(0.,0.,-1.));
#686=DIRECTION('ref_axis',(0.921559007333865,0.388238323716014,0.));
#687=DIRECTION('center_axis',(0.,0.,1.));
#688=DIRECTION('ref_axis',(0.921559007333865,0.388238323716014,0.));
#689=DIRECTION('',(0.,0.,-1.));
#690=DIRECTION('center_axis',(0.,0.,-1.));
#691=DIRECTION('ref_axis',(0.921559007333865,0.388238323716014,0.));
#692=DIRECTION('',(0.,0.,1.));
#693=DIRECTION('center_axis',(0.,0.,-1.));
#694=DIRECTION('ref_axis',(1.,0.,0.));
#695=DIRECTION('center_axis',(0.,0.,-1.));
#696=DIRECTION('ref_axis',(1.,0.,0.));
#697=DIRECTION('',(0.,0.,1.));
#698=DIRECTION('center_axis',(0.,0.,1.));
#699=DIRECTION('ref_axis',(1.,0.,0.));
#700=DIRECTION('center_axis',(0.,0.,-1.));
#701=DIRECTION('ref_axis',(0.615812805408773,-0.78789249818397,0.));
#702=DIRECTION('center_axis',(0.,0.,1.));
#703=DIRECTION('ref_axis',(0.615812805408773,-0.78789249818397,0.));
#704=DIRECTION('',(0.,0.,-1.));
#705=DIRECTION('center_axis',(0.,0.,-1.));
#706=DIRECTION('ref_axis',(0.615812805408773,-0.78789249818397,0.));
#707=DIRECTION('',(0.,0.,1.));
#708=DIRECTION('center_axis',(0.967832087817758,-0.251596998770495,0.));
#709=DIRECTION('ref_axis',(-0.251596998770495,-0.967832087817757,0.));
#710=DIRECTION('',(0.251596998770495,0.967832087817757,0.));
#711=DIRECTION('',(-0.251596998770495,-0.967832087817757,0.));
#712=DIRECTION('center_axis',(0.,0.,-1.));
#713=DIRECTION('ref_axis',(-0.921559007333865,-0.388238323716016,0.));
#714=DIRECTION('center_axis',(0.,0.,1.));
#715=DIRECTION('ref_axis',(-0.921559007333865,-0.388238323716016,0.));
#716=DIRECTION('',(0.,0.,-1.));
#717=DIRECTION('center_axis',(0.,0.,-1.));
#718=DIRECTION('ref_axis',(-0.921559007333865,-0.388238323716016,0.));
#719=DIRECTION('',(0.,0.,1.));
#720=DIRECTION('center_axis',(0.,0.,-1.));
#721=DIRECTION('ref_axis',(1.,0.,0.));
#722=DIRECTION('center_axis',(0.,0.,1.));
#723=DIRECTION('ref_axis',(1.,0.,0.));
#724=DIRECTION('center_axis',(0.,0.,-1.));
#725=DIRECTION('ref_axis',(1.,0.,0.));
#726=DIRECTION('center_axis',(0.,0.,-1.));
#727=DIRECTION('ref_axis',(-0.615812805408773,0.787892498183969,0.));
#728=DIRECTION('center_axis',(0.,0.,1.));
#729=DIRECTION('ref_axis',(-0.615812805408773,0.787892498183969,0.));
#730=DIRECTION('',(0.,0.,-1.));
#731=DIRECTION('center_axis',(0.,0.,-1.));
#732=DIRECTION('ref_axis',(-0.615812805408773,0.787892498183969,0.));
#733=DIRECTION('center_axis',(-0.967832087817758,0.251596998770495,0.));
#734=DIRECTION('ref_axis',(0.251596998770495,0.967832087817758,0.));
#735=DIRECTION('',(-0.251596998770495,-0.967832087817758,0.));
#736=DIRECTION('',(0.251596998770495,0.967832087817758,0.));
#737=DIRECTION('center_axis',(0.,0.,-1.));
#738=DIRECTION('ref_axis',(-1.,0.,0.));
#739=DIRECTION('center_axis',(0.,0.,-1.));
#740=DIRECTION('ref_axis',(-1.,0.,0.));
#741=DIRECTION('',(0.,0.,-1.));
#742=DIRECTION('center_axis',(0.,0.,1.));
#743=DIRECTION('ref_axis',(-1.,0.,0.));
#744=DIRECTION('center_axis',(0.,0.,-1.));
#745=DIRECTION('ref_axis',(1.,-1.22464679914735E-16,0.));
#746=DIRECTION('center_axis',(0.,0.,-1.));
#747=DIRECTION('ref_axis',(1.,-1.22464679914735E-16,0.));
#748=DIRECTION('',(0.,0.,-1.));
#749=DIRECTION('center_axis',(0.,0.,1.));
#750=DIRECTION('ref_axis',(1.,-1.22464679914735E-16,0.));
#751=DIRECTION('center_axis',(0.,0.,-1.));
#752=DIRECTION('ref_axis',(-1.,0.,0.));
#753=DIRECTION('center_axis',(0.,0.,-1.));
#754=DIRECTION('ref_axis',(-1.,0.,0.));
#755=DIRECTION('',(0.,0.,-1.));
#756=DIRECTION('center_axis',(0.,0.,1.));
#757=DIRECTION('ref_axis',(-1.,0.,0.));
#758=DIRECTION('center_axis',(0.,0.,-1.));
#759=DIRECTION('ref_axis',(-1.,0.,0.));
#760=DIRECTION('center_axis',(0.,0.,-1.));
#761=DIRECTION('ref_axis',(-1.,0.,0.));
#762=DIRECTION('',(0.,0.,-1.));
#763=DIRECTION('center_axis',(0.,0.,1.));
#764=DIRECTION('ref_axis',(-1.,0.,0.));
#765=DIRECTION('center_axis',(0.,0.,-1.));
#766=DIRECTION('ref_axis',(-1.,0.,0.));
#767=DIRECTION('center_axis',(0.,0.,-1.));
#768=DIRECTION('ref_axis',(-1.,0.,0.));
#769=DIRECTION('',(0.,0.,-1.));
#770=DIRECTION('center_axis',(0.,0.,1.));
#771=DIRECTION('ref_axis',(-1.,0.,0.));
#772=DIRECTION('center_axis',(0.,0.,-1.));
#773=DIRECTION('ref_axis',(-0.707106781186548,-0.707106781186548,0.));
#774=DIRECTION('center_axis',(0.,0.,-1.));
#775=DIRECTION('ref_axis',(-0.707106781186548,-0.707106781186548,0.));
#776=DIRECTION('',(0.,0.,-1.));
#777=DIRECTION('center_axis',(0.,0.,1.));
#778=DIRECTION('ref_axis',(-0.707106781186548,-0.707106781186548,0.));
#779=DIRECTION('center_axis',(0.,0.,-1.));
#780=DIRECTION('ref_axis',(2.22044604925031E-16,-1.,0.));
#781=DIRECTION('center_axis',(0.,0.,-1.));
#782=DIRECTION('ref_axis',(2.22044604925031E-16,-1.,0.));
#783=DIRECTION('',(0.,0.,-1.));
#784=DIRECTION('center_axis',(0.,0.,1.));
#785=DIRECTION('ref_axis',(2.22044604925031E-16,-1.,0.));
#786=DIRECTION('center_axis',(0.,0.,-1.));
#787=DIRECTION('ref_axis',(0.707106781186548,-0.707106781186548,0.));
#788=DIRECTION('center_axis',(0.,0.,-1.));
#789=DIRECTION('ref_axis',(0.707106781186548,-0.707106781186548,0.));
#790=DIRECTION('',(0.,0.,-1.));
#791=DIRECTION('center_axis',(0.,0.,1.));
#792=DIRECTION('ref_axis',(0.707106781186548,-0.707106781186548,0.));
#793=DIRECTION('center_axis',(0.,0.,-1.));
#794=DIRECTION('ref_axis',(0.707106781186548,0.707106781186548,0.));
#795=DIRECTION('center_axis',(0.,0.,-1.));
#796=DIRECTION('ref_axis',(0.707106781186548,0.707106781186548,0.));
#797=DIRECTION('',(0.,0.,-1.));
#798=DIRECTION('center_axis',(0.,0.,1.));
#799=DIRECTION('ref_axis',(0.707106781186548,0.707106781186548,0.));
#800=DIRECTION('center_axis',(0.,0.,-1.));
#801=DIRECTION('ref_axis',(-1.,0.,0.));
#802=DIRECTION('center_axis',(0.,0.,-1.));
#803=DIRECTION('ref_axis',(-1.,0.,0.));
#804=DIRECTION('',(0.,0.,-1.));
#805=DIRECTION('center_axis',(0.,0.,1.));
#806=DIRECTION('ref_axis',(-1.,0.,0.));
#807=DIRECTION('center_axis',(0.,0.,-1.));
#808=DIRECTION('ref_axis',(-1.,0.,0.));
#809=DIRECTION('center_axis',(0.,0.,-1.));
#810=DIRECTION('ref_axis',(-1.,0.,0.));
#811=DIRECTION('',(0.,0.,-1.));
#812=DIRECTION('center_axis',(0.,0.,1.));
#813=DIRECTION('ref_axis',(-1.,0.,0.));
#814=DIRECTION('center_axis',(0.,0.,-1.));
#815=DIRECTION('ref_axis',(2.22044604925031E-16,1.,0.));
#816=DIRECTION('center_axis',(0.,0.,-1.));
#817=DIRECTION('ref_axis',(2.22044604925031E-16,1.,0.));
#818=DIRECTION('',(0.,0.,-1.));
#819=DIRECTION('center_axis',(0.,0.,1.));
#820=DIRECTION('ref_axis',(2.22044604925031E-16,1.,0.));
#821=DIRECTION('center_axis',(0.,0.,-1.));
#822=DIRECTION('ref_axis',(-0.707106781186548,0.707106781186548,0.));
#823=DIRECTION('center_axis',(0.,0.,-1.));
#824=DIRECTION('ref_axis',(-0.707106781186548,0.707106781186548,0.));
#825=DIRECTION('',(0.,0.,-1.));
#826=DIRECTION('center_axis',(0.,0.,1.));
#827=DIRECTION('ref_axis',(-0.707106781186548,0.707106781186548,0.));
#828=DIRECTION('center_axis',(0.,0.,1.));
#829=DIRECTION('ref_axis',(0.,1.,0.));
#830=DIRECTION('center_axis',(0.,0.,-1.));
#831=DIRECTION('ref_axis',(0.,1.,0.));
#832=DIRECTION('',(0.,0.,-1.));
#833=DIRECTION('center_axis',(0.,0.,-1.));
#834=DIRECTION('ref_axis',(0.,1.,0.));
#835=DIRECTION('center_axis',(0.,0.,1.));
#836=DIRECTION('ref_axis',(0.,-1.,0.));
#837=DIRECTION('center_axis',(0.,0.,-1.));
#838=DIRECTION('ref_axis',(0.,-1.,0.));
#839=DIRECTION('',(0.,0.,-1.));
#840=DIRECTION('center_axis',(0.,0.,-1.));
#841=DIRECTION('ref_axis',(0.,-1.,0.));
#842=DIRECTION('center_axis',(0.,0.,1.));
#843=DIRECTION('ref_axis',(1.,0.,0.));
#844=DIRECTION('center_axis',(0.,0.,-1.));
#845=DIRECTION('ref_axis',(1.,0.,0.));
#846=DIRECTION('',(0.,0.,-1.));
#847=DIRECTION('center_axis',(0.,0.,-1.));
#848=DIRECTION('ref_axis',(1.,0.,0.));
#849=DIRECTION('center_axis',(0.,0.,1.));
#850=DIRECTION('ref_axis',(-1.,0.,0.));
#851=DIRECTION('center_axis',(0.,0.,-1.));
#852=DIRECTION('ref_axis',(-1.,0.,0.));
#853=DIRECTION('',(0.,0.,-1.));
#854=DIRECTION('center_axis',(0.,0.,-1.));
#855=DIRECTION('ref_axis',(-1.,0.,0.));
#856=DIRECTION('center_axis',(0.,0.,1.));
#857=DIRECTION('ref_axis',(1.,0.,0.));
#858=DIRECTION('center_axis',(0.,0.,-1.));
#859=DIRECTION('ref_axis',(1.,0.,0.));
#860=DIRECTION('',(0.,0.,-1.));
#861=DIRECTION('center_axis',(0.,0.,-1.));
#862=DIRECTION('ref_axis',(1.,0.,0.));
#863=DIRECTION('center_axis',(0.,0.,1.));
#864=DIRECTION('ref_axis',(1.,0.,0.));
#865=DIRECTION('center_axis',(0.,0.,1.));
#866=DIRECTION('ref_axis',(1.,0.,0.));
#867=CARTESIAN_POINT('',(0.,0.,0.));
#868=CARTESIAN_POINT('Origin',(10.8612260747002,25.7806567979696,3.));
#869=CARTESIAN_POINT('',(13.7647223381535,25.0258658016581,3.));
#870=CARTESIAN_POINT('',(12.3493351097922,28.3855620744965,3.));
#871=CARTESIAN_POINT('Origin',(10.8612260747002,25.7806567979696,3.));
#872=CARTESIAN_POINT('',(12.3493351097922,28.3855620744965,0.));
#873=CARTESIAN_POINT('',(12.3493351097922,28.3855620744965,3.));
#874=CARTESIAN_POINT('',(13.7647223381535,25.0258658016581,-2.77555756156289E-16));
#875=CARTESIAN_POINT('Origin',(10.8612260747002,25.7806567979696,0.));
#876=CARTESIAN_POINT('',(13.7647223381535,25.0258658016581,3.));
#877=CARTESIAN_POINT('Origin',(9.37311703960834,23.1757515214427,3.));
#878=CARTESIAN_POINT('',(9.31091018237739,29.1754290383525,3.));
#879=CARTESIAN_POINT('Origin',(9.37311703960834,23.1757515214427,3.));
#880=CARTESIAN_POINT('',(9.31091018237739,29.1754290383525,0.));
#881=CARTESIAN_POINT('',(9.31091018237739,29.1754290383525,3.));
#882=CARTESIAN_POINT('Origin',(9.37311703960834,23.1757515214427,0.));
#883=CARTESIAN_POINT('Origin',(9.40422046822381,20.1759127629877,3.));
#884=CARTESIAN_POINT('',(9.43532389683929,17.1760740045328,3.));
#885=CARTESIAN_POINT('',(12.3077167316771,19.4211217666762,3.));
#886=CARTESIAN_POINT('Origin',(9.40422046822381,20.1759127629877,3.));
#887=CARTESIAN_POINT('',(12.3077167316771,19.4211217666762,-2.77555756156289E-16));
#888=CARTESIAN_POINT('',(12.3077167316771,19.4211217666762,3.));
#889=CARTESIAN_POINT('',(9.43532389683929,17.1760740045328,0.));
#890=CARTESIAN_POINT('Origin',(9.40422046822381,20.1759127629877,0.));
#891=CARTESIAN_POINT('',(9.43532389683929,17.1760740045328,3.));
#892=CARTESIAN_POINT('Origin',(14.2075619247615,26.7293613273185,3.));
#893=CARTESIAN_POINT('',(10.5035366282707,12.4808823965243,-2.77555756156289E-16));
#894=CARTESIAN_POINT('',(10.5035366282707,12.4808823965243,3.));
#895=CARTESIAN_POINT('Origin',(7.88500800451643,20.5708462449157,3.));
#896=CARTESIAN_POINT('',(4.98151174106315,21.3256372412272,3.));
#897=CARTESIAN_POINT('',(6.39689896942452,17.9659409683888,3.));
#898=CARTESIAN_POINT('Origin',(7.88500800451643,20.5708462449157,3.));
#899=CARTESIAN_POINT('',(6.39689896942452,17.9659409683888,0.));
#900=CARTESIAN_POINT('',(6.39689896942452,17.9659409683888,3.));
#901=CARTESIAN_POINT('',(4.98151174106315,21.3256372412272,0.));
#902=CARTESIAN_POINT('Origin',(7.88500800451643,20.5708462449157,0.));
#903=CARTESIAN_POINT('',(4.98151174106315,21.3256372412272,3.));
#904=CARTESIAN_POINT('Origin',(9.37311703960834,23.1757515214427,3.));
#905=CARTESIAN_POINT('Origin',(9.37311703960834,23.1757515214427,0.));
#906=CARTESIAN_POINT('Origin',(9.37311703960834,23.1757515214427,3.));
#907=CARTESIAN_POINT('Origin',(9.34201361099286,26.1755902798976,3.));
#908=CARTESIAN_POINT('',(6.43851734753959,26.9303812762091,3.));
#909=CARTESIAN_POINT('Origin',(9.34201361099286,26.1755902798976,3.));
#910=CARTESIAN_POINT('',(6.43851734753959,26.9303812762091,0.));
#911=CARTESIAN_POINT('',(6.43851734753959,26.9303812762091,3.));
#912=CARTESIAN_POINT('Origin',(9.34201361099286,26.1755902798976,0.));
#913=CARTESIAN_POINT('Origin',(4.53867215445521,19.6221417155668,3.));
#914=CARTESIAN_POINT('',(2.00598924781062,9.87953032792398,0.));
#915=CARTESIAN_POINT('',(2.00598924781062,9.87953032792398,3.));
#916=CARTESIAN_POINT('Origin',(-8.,0.,3.));
#917=CARTESIAN_POINT('',(-7.,1.22464679914735E-16,3.));
#918=CARTESIAN_POINT('Origin',(-8.,0.,3.));
#919=CARTESIAN_POINT('',(-7.,1.22464679914735E-16,0.));
#920=CARTESIAN_POINT('',(-7.,-1.22464679914735E-16,3.));
#921=CARTESIAN_POINT('Origin',(-8.,0.,0.));
#922=CARTESIAN_POINT('Origin',(8.,-9.79717439317883E-16,3.));
#923=CARTESIAN_POINT('',(7.,-9.79717439317883E-16,3.));
#924=CARTESIAN_POINT('Origin',(8.,-9.79717439317883E-16,3.));
#925=CARTESIAN_POINT('',(7.,-9.79717439317883E-16,0.));
#926=CARTESIAN_POINT('',(7.,-7.34788079488412E-16,3.));
#927=CARTESIAN_POINT('Origin',(8.,-9.79717439317883E-16,0.));
#928=CARTESIAN_POINT('Origin',(-22.7166310350528,17.3624193437683,3.));
#929=CARTESIAN_POINT('',(-21.2166310350528,17.3624193437683,3.));
#930=CARTESIAN_POINT('Origin',(-22.7166310350528,17.3624193437683,3.));
#931=CARTESIAN_POINT('',(-21.2166310350528,17.3624193437683,0.));
#932=CARTESIAN_POINT('',(-21.2166310350528,17.3624193437683,3.));
#933=CARTESIAN_POINT('Origin',(-22.7166310350528,17.3624193437683,0.));
#934=CARTESIAN_POINT('Origin',(22.7166310350528,-17.3624193437683,3.));
#935=CARTESIAN_POINT('',(24.2166310350528,-17.3624193437683,3.));
#936=CARTESIAN_POINT('Origin',(22.7166310350528,-17.3624193437683,3.));
#937=CARTESIAN_POINT('',(24.2166310350528,-17.3624193437683,0.));
#938=CARTESIAN_POINT('',(24.2166310350528,-17.3624193437683,3.));
#939=CARTESIAN_POINT('Origin',(22.7166310350528,-17.3624193437683,0.));
#940=CARTESIAN_POINT('Origin',(0.,0.,3.));
#941=CARTESIAN_POINT('',(6.,7.34788079488412E-16,3.));
#942=CARTESIAN_POINT('Origin',(0.,0.,3.));
#943=CARTESIAN_POINT('',(6.,7.34788079488412E-16,0.));
#944=CARTESIAN_POINT('',(6.,-7.34788079488412E-16,3.));
#945=CARTESIAN_POINT('Origin',(0.,0.,0.));
#946=CARTESIAN_POINT('Origin',(-5.65685424949238,-5.65685424949238,3.));
#947=CARTESIAN_POINT('',(-4.94974746830583,-4.94974746830583,3.));
#948=CARTESIAN_POINT('Origin',(-5.65685424949238,-5.65685424949238,3.));
#949=CARTESIAN_POINT('',(-4.94974746830583,-4.94974746830583,0.));
#950=CARTESIAN_POINT('',(-4.94974746830583,-4.94974746830583,3.));
#951=CARTESIAN_POINT('Origin',(-5.65685424949238,-5.65685424949238,0.));
#952=CARTESIAN_POINT('Origin',(1.77635683940025E-15,-8.,3.));
#953=CARTESIAN_POINT('',(1.43184755456048E-15,-7.,3.));
#954=CARTESIAN_POINT('Origin',(1.77635683940025E-15,-8.,3.));
#955=CARTESIAN_POINT('',(1.43184755456048E-15,-7.,0.));
#956=CARTESIAN_POINT('',(1.67677691438995E-15,-7.,3.));
#957=CARTESIAN_POINT('Origin',(1.77635683940025E-15,-8.,0.));
#958=CARTESIAN_POINT('Origin',(5.65685424949238,-5.65685424949238,3.));
#959=CARTESIAN_POINT('',(4.94974746830583,-4.94974746830583,3.));
#960=CARTESIAN_POINT('Origin',(5.65685424949238,-5.65685424949238,3.));
#961=CARTESIAN_POINT('',(4.94974746830583,-4.94974746830583,0.));
#962=CARTESIAN_POINT('',(4.94974746830583,-4.94974746830583,3.));
#963=CARTESIAN_POINT('Origin',(5.65685424949238,-5.65685424949238,0.));
#964=CARTESIAN_POINT('Origin',(5.65685424949238,5.65685424949238,3.));
#965=CARTESIAN_POINT('',(4.94974746830583,4.94974746830583,3.));
#966=CARTESIAN_POINT('Origin',(5.65685424949238,5.65685424949238,3.));
#967=CARTESIAN_POINT('',(4.94974746830583,4.94974746830583,0.));
#968=CARTESIAN_POINT('',(4.94974746830583,4.94974746830583,3.));
#969=CARTESIAN_POINT('Origin',(5.65685424949238,5.65685424949238,0.));
#970=CARTESIAN_POINT('Origin',(-17.3624193437683,-22.7166310350528,3.));
#971=CARTESIAN_POINT('',(-15.8624193437683,-22.7166310350528,3.));
#972=CARTESIAN_POINT('Origin',(-17.3624193437683,-22.7166310350528,3.));
#973=CARTESIAN_POINT('',(-15.8624193437683,-22.7166310350528,0.));
#974=CARTESIAN_POINT('',(-15.8624193437683,-22.7166310350528,3.));
#975=CARTESIAN_POINT('Origin',(-17.3624193437683,-22.7166310350528,0.));
#976=CARTESIAN_POINT('Origin',(17.3624193437683,22.7166310350528,3.));
#977=CARTESIAN_POINT('',(18.8624193437683,22.7166310350528,3.));
#978=CARTESIAN_POINT('Origin',(17.3624193437683,22.7166310350528,3.));
#979=CARTESIAN_POINT('',(18.8624193437683,22.7166310350528,0.));
#980=CARTESIAN_POINT('',(18.8624193437683,22.7166310350528,3.));
#981=CARTESIAN_POINT('Origin',(17.3624193437683,22.7166310350528,0.));
#982=CARTESIAN_POINT('Origin',(1.77635683940025E-15,8.,3.));
#983=CARTESIAN_POINT('',(1.67677691438995E-15,7.,3.));
#984=CARTESIAN_POINT('Origin',(1.77635683940025E-15,8.,3.));
#985=CARTESIAN_POINT('',(1.67677691438995E-15,7.,0.));
#986=CARTESIAN_POINT('',(1.43184755456048E-15,7.,3.));
#987=CARTESIAN_POINT('Origin',(1.77635683940025E-15,8.,0.));
#988=CARTESIAN_POINT('Origin',(-5.65685424949238,5.65685424949238,3.));
#989=CARTESIAN_POINT('',(-4.94974746830583,4.94974746830583,3.));
#990=CARTESIAN_POINT('Origin',(-5.65685424949238,5.65685424949238,3.));
#991=CARTESIAN_POINT('',(-4.94974746830583,4.94974746830583,0.));
#992=CARTESIAN_POINT('',(-4.94974746830583,4.94974746830583,3.));
#993=CARTESIAN_POINT('Origin',(-5.65685424949238,5.65685424949238,0.));
#994=CARTESIAN_POINT('Origin',(31.4571068970951,-7.95710666529014,0.));
#995=CARTESIAN_POINT('',(31.4571068970951,-9.70710666529014,3.));
#996=CARTESIAN_POINT('Origin',(31.4571068970951,-7.95710666529014,3.));
#997=CARTESIAN_POINT('',(31.4571068970951,-9.70710666529014,0.));
#998=CARTESIAN_POINT('',(31.4571068970951,-9.70710666529014,0.));
#999=CARTESIAN_POINT('Origin',(31.4571068970951,-7.95710666529014,0.));
#1000=CARTESIAN_POINT('Origin',(-31.4571068970951,7.95710666529015,0.));
#1001=CARTESIAN_POINT('',(-31.4571068970951,9.70710666529015,3.));
#1002=CARTESIAN_POINT('Origin',(-31.4571068970951,7.95710666529015,3.));
#1003=CARTESIAN_POINT('',(-31.4571068970951,9.70710666529015,0.));
#1004=CARTESIAN_POINT('',(-31.4571068970951,9.70710666529015,0.));
#1005=CARTESIAN_POINT('Origin',(-31.4571068970951,7.95710666529015,0.));
#1006=CARTESIAN_POINT('Origin',(-7.95710666529014,-31.4571068970951,0.));
#1007=CARTESIAN_POINT('',(-9.70710666529014,-31.4571068970951,3.));
#1008=CARTESIAN_POINT('Origin',(-7.95710666529014,-31.4571068970951,3.));
#1009=CARTESIAN_POINT('',(-9.70710666529014,-31.4571068970951,0.));
#1010=CARTESIAN_POINT('',(-9.70710666529014,-31.4571068970951,0.));
#1011=CARTESIAN_POINT('Origin',(-7.95710666529014,-31.4571068970951,0.));
#1012=CARTESIAN_POINT('Origin',(7.95710666529014,31.4571068970951,0.));
#1013=CARTESIAN_POINT('',(9.70710666529014,31.4571068970951,3.));
#1014=CARTESIAN_POINT('Origin',(7.95710666529014,31.4571068970951,3.));
#1015=CARTESIAN_POINT('',(9.70710666529014,31.4571068970951,0.));
#1016=CARTESIAN_POINT('',(9.70710666529014,31.4571068970951,0.));
#1017=CARTESIAN_POINT('Origin',(7.95710666529014,31.4571068970951,0.));
#1018=CARTESIAN_POINT('Origin',(0.,0.,0.));
#1019=CARTESIAN_POINT('',(-64.,7.83773951454306E-15,3.));
#1020=CARTESIAN_POINT('Origin',(0.,0.,3.));
#1021=CARTESIAN_POINT('',(-64.,7.83773951454306E-15,0.));
#1022=CARTESIAN_POINT('',(-64.,-7.83773951454306E-15,0.));
#1023=CARTESIAN_POINT('Origin',(0.,0.,0.));
#1024=CARTESIAN_POINT('Origin',(0.,0.,3.));
#1025=CARTESIAN_POINT('Origin',(0.,0.,0.));
#1026=UNCERTAINTY_MEASURE_WITH_UNIT(LENGTH_MEASURE(0.01),#1030,
'DISTANCE_ACCURACY_VALUE',
'Maximum model space distance between geometric entities at asserted c
onnectivities');
#1027=UNCERTAINTY_MEASURE_WITH_UNIT(LENGTH_MEASURE(0.01),#1030,
'DISTANCE_ACCURACY_VALUE',
'Maximum model space distance between geometric entities at asserted c
onnectivities');
#1028=(
GEOMETRIC_REPRESENTATION_CONTEXT(3)
GLOBAL_UNCERTAINTY_ASSIGNED_CONTEXT((#1026))
GLOBAL_UNIT_ASSIGNED_CONTEXT((#1030,#1032,#1033))
REPRESENTATION_CONTEXT('','3D')
);
#1029=(
GEOMETRIC_REPRESENTATION_CONTEXT(3)
GLOBAL_UNCERTAINTY_ASSIGNED_CONTEXT((#1027))
GLOBAL_UNIT_ASSIGNED_CONTEXT((#1030,#1032,#1033))
REPRESENTATION_CONTEXT('','3D')
);
#1030=(
LENGTH_UNIT()
NAMED_UNIT(*)
SI_UNIT(.MILLI.,.METRE.)
);
#1031=(
LENGTH_UNIT()
NAMED_UNIT(*)
SI_UNIT($,.METRE.)
);
#1032=(
NAMED_UNIT(*)
PLANE_ANGLE_UNIT()
SI_UNIT($,.RADIAN.)
);
#1033=(
NAMED_UNIT(*)
SI_UNIT($,.STERADIAN.)
SOLID_ANGLE_UNIT()
);
#1034=SHAPE_DEFINITION_REPRESENTATION(#1035,#1036);
#1035=PRODUCT_DEFINITION_SHAPE('',$,#1038);
#1036=SHAPE_REPRESENTATION('',(#606),#1028);
#1037=PRODUCT_DEFINITION_CONTEXT('part definition',#1042,'design');
#1038=PRODUCT_DEFINITION('TopPlate','TopPlate v60',#1039,#1037);
#1039=PRODUCT_DEFINITION_FORMATION('',$,#1044);
#1040=PRODUCT_RELATED_PRODUCT_CATEGORY('TopPlate v60','TopPlate v60',(#1044));
#1041=APPLICATION_PROTOCOL_DEFINITION('international standard',
'automotive_design',2009,#1042);
#1042=APPLICATION_CONTEXT(
'Core Data for Automotive Mechanical Design Process');
#1043=PRODUCT_CONTEXT('part definition',#1042,'mechanical');
#1044=PRODUCT('TopPlate','TopPlate v60',$,(#1043));
#1045=PRESENTATION_STYLE_ASSIGNMENT((#1047));
#1046=PRESENTATION_STYLE_ASSIGNMENT((#1048));
#1047=SURFACE_STYLE_USAGE(.BOTH.,#1049);
#1048=SURFACE_STYLE_USAGE(.BOTH.,#1050);
#1049=SURFACE_SIDE_STYLE('',(#1051));
#1050=SURFACE_SIDE_STYLE('',(#1052));
#1051=SURFACE_STYLE_FILL_AREA(#1053);
#1052=SURFACE_STYLE_FILL_AREA(#1054);
#1053=FILL_AREA_STYLE('Steel - Satin',(#1055));
#1054=FILL_AREA_STYLE('Acrylic (Clear)',(#1056));
#1055=FILL_AREA_STYLE_COLOUR('Steel - Satin',#1057);
#1056=FILL_AREA_STYLE_COLOUR('Acrylic (Clear)',#1058);
#1057=COLOUR_RGB('Steel - Satin',0.627450980392157,0.627450980392157,0.627450980392157);
#1058=COLOUR_RGB('Acrylic (Clear)',0.964705882352941,0.964705882352941,
0.952941176470588);
ENDSEC;
END-ISO-10303-21;
