ISO-10303-21;
HEADER;
/* Generated by software containing ST-Developer
 * from STEP Tools, Inc. (www.steptools.com) 
 */

FILE_DESCRIPTION(
/* description */ (''),
/* implementation_level */ '2;1');

FILE_NAME(
/* name */ 'UpperPlate_v74.step',
/* time_stamp */ '2026-08-21T09:14:56-04:00',
/* author */ (''),
/* organization */ (''),
/* preprocessor_version */ 'ST-DEVELOPER v20.1',
/* originating_system */ 'Autodesk Translation Framework v15.8.0.0',
/* authorisation */ '');

FILE_SCHEMA (('AUTOMOTIVE_DESIGN { 1 0 10303 214 3 1 1 }'));
ENDSEC;

DATA;
#10=MECHANICAL_DESIGN_GEOMETRIC_PRESENTATION_REPRESENTATION('',(#13),#2129);
#11=SHAPE_REPRESENTATION_RELATIONSHIP('SRR','None',#2136,#12);
#12=ADVANCED_BREP_SHAPE_REPRESENTATION('',(#14),#2128);
#13=STYLED_ITEM('',(#2146),#14);
#14=MANIFOLD_SOLID_BREP('Body1',#1253);
#15=FACE_BOUND('',#145,.T.);
#16=FACE_BOUND('',#146,.T.);
#17=FACE_BOUND('',#147,.T.);
#18=FACE_BOUND('',#148,.T.);
#19=FACE_BOUND('',#149,.T.);
#20=FACE_BOUND('',#150,.T.);
#21=FACE_BOUND('',#151,.T.);
#22=FACE_BOUND('',#152,.T.);
#23=FACE_BOUND('',#153,.T.);
#24=FACE_BOUND('',#154,.T.);
#25=FACE_BOUND('',#155,.T.);
#26=FACE_BOUND('',#156,.T.);
#27=FACE_BOUND('',#157,.T.);
#28=FACE_BOUND('',#158,.T.);
#29=FACE_BOUND('',#159,.T.);
#30=FACE_BOUND('',#160,.T.);
#31=FACE_BOUND('',#161,.T.);
#32=FACE_BOUND('',#162,.T.);
#33=FACE_BOUND('',#163,.T.);
#34=FACE_BOUND('',#164,.T.);
#35=FACE_BOUND('',#165,.T.);
#36=FACE_BOUND('',#166,.T.);
#37=FACE_BOUND('',#223,.T.);
#38=FACE_BOUND('',#224,.T.);
#39=FACE_BOUND('',#225,.T.);
#40=FACE_BOUND('',#226,.T.);
#41=FACE_BOUND('',#227,.T.);
#42=FACE_BOUND('',#228,.T.);
#43=FACE_BOUND('',#229,.T.);
#44=FACE_BOUND('',#230,.T.);
#45=FACE_BOUND('',#231,.T.);
#46=FACE_BOUND('',#232,.T.);
#47=FACE_BOUND('',#233,.T.);
#48=FACE_BOUND('',#234,.T.);
#49=FACE_BOUND('',#235,.T.);
#50=FACE_BOUND('',#236,.T.);
#51=FACE_BOUND('',#237,.T.);
#52=FACE_BOUND('',#238,.T.);
#53=FACE_BOUND('',#239,.T.);
#54=FACE_BOUND('',#240,.T.);
#55=FACE_BOUND('',#241,.T.);
#56=FACE_BOUND('',#242,.T.);
#57=FACE_BOUND('',#243,.T.);
#58=FACE_BOUND('',#244,.T.);
#59=PLANE('',#1276);
#60=PLANE('',#1340);
#61=PLANE('',#1341);
#62=PLANE('',#1346);
#63=PLANE('',#1349);
#64=PLANE('',#1380);
#65=PLANE('',#1381);
#66=PLANE('',#1382);
#67=PLANE('',#1383);
#68=PLANE('',#1384);
#69=PLANE('',#1385);
#70=PLANE('',#1386);
#71=PLANE('',#1387);
#72=PLANE('',#1388);
#73=PLANE('',#1389);
#74=PLANE('',#1390);
#75=PLANE('',#1391);
#76=PLANE('',#1396);
#77=PLANE('',#1397);
#78=PLANE('',#1398);
#79=PLANE('',#1399);
#80=PLANE('',#1402);
#81=FACE_OUTER_BOUND('',#141,.T.);
#82=FACE_OUTER_BOUND('',#142,.T.);
#83=FACE_OUTER_BOUND('',#143,.T.);
#84=FACE_OUTER_BOUND('',#144,.T.);
#85=FACE_OUTER_BOUND('',#167,.T.);
#86=FACE_OUTER_BOUND('',#168,.T.);
#87=FACE_OUTER_BOUND('',#169,.T.);
#88=FACE_OUTER_BOUND('',#170,.T.);
#89=FACE_OUTER_BOUND('',#171,.T.);
#90=FACE_OUTER_BOUND('',#172,.T.);
#91=FACE_OUTER_BOUND('',#173,.T.);
#92=FACE_OUTER_BOUND('',#174,.T.);
#93=FACE_OUTER_BOUND('',#175,.T.);
#94=FACE_OUTER_BOUND('',#176,.T.);
#95=FACE_OUTER_BOUND('',#177,.T.);
#96=FACE_OUTER_BOUND('',#178,.T.);
#97=FACE_OUTER_BOUND('',#179,.T.);
#98=FACE_OUTER_BOUND('',#180,.T.);
#99=FACE_OUTER_BOUND('',#181,.T.);
#100=FACE_OUTER_BOUND('',#182,.T.);
#101=FACE_OUTER_BOUND('',#183,.T.);
#102=FACE_OUTER_BOUND('',#184,.T.);
#103=FACE_OUTER_BOUND('',#185,.T.);
#104=FACE_OUTER_BOUND('',#186,.T.);
#105=FACE_OUTER_BOUND('',#187,.T.);
#106=FACE_OUTER_BOUND('',#188,.T.);
#107=FACE_OUTER_BOUND('',#189,.T.);
#108=FACE_OUTER_BOUND('',#190,.T.);
#109=FACE_OUTER_BOUND('',#191,.T.);
#110=FACE_OUTER_BOUND('',#192,.T.);
#111=FACE_OUTER_BOUND('',#193,.T.);
#112=FACE_OUTER_BOUND('',#194,.T.);
#113=FACE_OUTER_BOUND('',#195,.T.);
#114=FACE_OUTER_BOUND('',#196,.T.);
#115=FACE_OUTER_BOUND('',#197,.T.);
#116=FACE_OUTER_BOUND('',#198,.T.);
#117=FACE_OUTER_BOUND('',#199,.T.);
#118=FACE_OUTER_BOUND('',#200,.T.);
#119=FACE_OUTER_BOUND('',#201,.T.);
#120=FACE_OUTER_BOUND('',#202,.T.);
#121=FACE_OUTER_BOUND('',#203,.T.);
#122=FACE_OUTER_BOUND('',#204,.T.);
#123=FACE_OUTER_BOUND('',#205,.T.);
#124=FACE_OUTER_BOUND('',#206,.T.);
#125=FACE_OUTER_BOUND('',#207,.T.);
#126=FACE_OUTER_BOUND('',#208,.T.);
#127=FACE_OUTER_BOUND('',#209,.T.);
#128=FACE_OUTER_BOUND('',#210,.T.);
#129=FACE_OUTER_BOUND('',#211,.T.);
#130=FACE_OUTER_BOUND('',#212,.T.);
#131=FACE_OUTER_BOUND('',#213,.T.);
#132=FACE_OUTER_BOUND('',#214,.T.);
#133=FACE_OUTER_BOUND('',#215,.T.);
#134=FACE_OUTER_BOUND('',#216,.T.);
#135=FACE_OUTER_BOUND('',#217,.T.);
#136=FACE_OUTER_BOUND('',#218,.T.);
#137=FACE_OUTER_BOUND('',#219,.T.);
#138=FACE_OUTER_BOUND('',#220,.T.);
#139=FACE_OUTER_BOUND('',#221,.T.);
#140=FACE_OUTER_BOUND('',#222,.T.);
#141=EDGE_LOOP('',(#807,#808,#809,#810));
#142=EDGE_LOOP('',(#811,#812,#813,#814));
#143=EDGE_LOOP('',(#815,#816,#817,#818));
#144=EDGE_LOOP('',(#819));
#145=EDGE_LOOP('',(#820,#821,#822,#823,#824,#825,#826,#827,#828,#829,#830,
#831,#832,#833,#834,#835,#836,#837,#838,#839,#840,#841,#842,#843));
#146=EDGE_LOOP('',(#844));
#147=EDGE_LOOP('',(#845));
#148=EDGE_LOOP('',(#846,#847,#848,#849));
#149=EDGE_LOOP('',(#850,#851,#852,#853));
#150=EDGE_LOOP('',(#854,#855,#856,#857));
#151=EDGE_LOOP('',(#858));
#152=EDGE_LOOP('',(#859));
#153=EDGE_LOOP('',(#860,#861,#862,#863));
#154=EDGE_LOOP('',(#864));
#155=EDGE_LOOP('',(#865));
#156=EDGE_LOOP('',(#866));
#157=EDGE_LOOP('',(#867));
#158=EDGE_LOOP('',(#868));
#159=EDGE_LOOP('',(#869));
#160=EDGE_LOOP('',(#870));
#161=EDGE_LOOP('',(#871));
#162=EDGE_LOOP('',(#872));
#163=EDGE_LOOP('',(#873));
#164=EDGE_LOOP('',(#874));
#165=EDGE_LOOP('',(#875));
#166=EDGE_LOOP('',(#876));
#167=EDGE_LOOP('',(#877,#878,#879,#880));
#168=EDGE_LOOP('',(#881,#882,#883,#884));
#169=EDGE_LOOP('',(#885,#886,#887,#888));
#170=EDGE_LOOP('',(#889,#890,#891,#892));
#171=EDGE_LOOP('',(#893,#894,#895,#896));
#172=EDGE_LOOP('',(#897,#898,#899,#900));
#173=EDGE_LOOP('',(#901,#902,#903,#904));
#174=EDGE_LOOP('',(#905,#906,#907,#908));
#175=EDGE_LOOP('',(#909,#910,#911,#912));
#176=EDGE_LOOP('',(#913,#914,#915,#916));
#177=EDGE_LOOP('',(#917,#918,#919,#920));
#178=EDGE_LOOP('',(#921,#922,#923,#924));
#179=EDGE_LOOP('',(#925,#926,#927,#928));
#180=EDGE_LOOP('',(#929,#930,#931,#932));
#181=EDGE_LOOP('',(#933,#934,#935,#936));
#182=EDGE_LOOP('',(#937,#938,#939,#940));
#183=EDGE_LOOP('',(#941,#942,#943,#944));
#184=EDGE_LOOP('',(#945,#946,#947,#948));
#185=EDGE_LOOP('',(#949,#950,#951,#952));
#186=EDGE_LOOP('',(#953,#954,#955,#956));
#187=EDGE_LOOP('',(#957,#958,#959,#960));
#188=EDGE_LOOP('',(#961,#962,#963,#964));
#189=EDGE_LOOP('',(#965,#966,#967,#968));
#190=EDGE_LOOP('',(#969,#970,#971,#972));
#191=EDGE_LOOP('',(#973,#974,#975,#976));
#192=EDGE_LOOP('',(#977,#978,#979,#980));
#193=EDGE_LOOP('',(#981,#982,#983,#984));
#194=EDGE_LOOP('',(#985,#986,#987,#988));
#195=EDGE_LOOP('',(#989,#990,#991,#992));
#196=EDGE_LOOP('',(#993,#994,#995,#996));
#197=EDGE_LOOP('',(#997,#998,#999,#1000));
#198=EDGE_LOOP('',(#1001,#1002,#1003,#1004));
#199=EDGE_LOOP('',(#1005,#1006,#1007,#1008));
#200=EDGE_LOOP('',(#1009,#1010,#1011,#1012));
#201=EDGE_LOOP('',(#1013,#1014,#1015,#1016));
#202=EDGE_LOOP('',(#1017,#1018,#1019,#1020));
#203=EDGE_LOOP('',(#1021,#1022,#1023,#1024));
#204=EDGE_LOOP('',(#1025,#1026,#1027,#1028));
#205=EDGE_LOOP('',(#1029,#1030,#1031,#1032));
#206=EDGE_LOOP('',(#1033,#1034,#1035,#1036));
#207=EDGE_LOOP('',(#1037,#1038,#1039,#1040));
#208=EDGE_LOOP('',(#1041,#1042,#1043,#1044));
#209=EDGE_LOOP('',(#1045,#1046,#1047,#1048));
#210=EDGE_LOOP('',(#1049,#1050,#1051,#1052));
#211=EDGE_LOOP('',(#1053,#1054,#1055,#1056));
#212=EDGE_LOOP('',(#1057,#1058,#1059,#1060));
#213=EDGE_LOOP('',(#1061,#1062,#1063,#1064));
#214=EDGE_LOOP('',(#1065,#1066,#1067,#1068));
#215=EDGE_LOOP('',(#1069,#1070,#1071,#1072));
#216=EDGE_LOOP('',(#1073,#1074,#1075,#1076));
#217=EDGE_LOOP('',(#1077,#1078,#1079,#1080));
#218=EDGE_LOOP('',(#1081,#1082,#1083,#1084));
#219=EDGE_LOOP('',(#1085,#1086,#1087,#1088));
#220=EDGE_LOOP('',(#1089,#1090,#1091,#1092));
#221=EDGE_LOOP('',(#1093,#1094,#1095,#1096));
#222=EDGE_LOOP('',(#1097));
#223=EDGE_LOOP('',(#1098));
#224=EDGE_LOOP('',(#1099));
#225=EDGE_LOOP('',(#1100,#1101,#1102,#1103));
#226=EDGE_LOOP('',(#1104,#1105,#1106,#1107));
#227=EDGE_LOOP('',(#1108,#1109,#1110,#1111));
#228=EDGE_LOOP('',(#1112));
#229=EDGE_LOOP('',(#1113));
#230=EDGE_LOOP('',(#1114,#1115,#1116,#1117));
#231=EDGE_LOOP('',(#1118));
#232=EDGE_LOOP('',(#1119));
#233=EDGE_LOOP('',(#1120));
#234=EDGE_LOOP('',(#1121));
#235=EDGE_LOOP('',(#1122));
#236=EDGE_LOOP('',(#1123));
#237=EDGE_LOOP('',(#1124));
#238=EDGE_LOOP('',(#1125));
#239=EDGE_LOOP('',(#1126));
#240=EDGE_LOOP('',(#1127));
#241=EDGE_LOOP('',(#1128));
#242=EDGE_LOOP('',(#1129));
#243=EDGE_LOOP('',(#1130,#1131,#1132,#1133,#1134,#1135,#1136,#1137,#1138,
#1139,#1140,#1141,#1142,#1143,#1144,#1145,#1146,#1147,#1148,#1149,#1150,
#1151,#1152,#1153));
#244=EDGE_LOOP('',(#1154));
#245=LINE('',#1780,#343);
#246=LINE('',#1787,#344);
#247=LINE('',#1790,#345);
#248=LINE('',#1795,#346);
#249=LINE('',#1803,#347);
#250=LINE('',#1815,#348);
#251=LINE('',#1827,#349);
#252=LINE('',#1839,#350);
#253=LINE('',#1849,#351);
#254=LINE('',#1851,#352);
#255=LINE('',#1853,#353);
#256=LINE('',#1854,#354);
#257=LINE('',#1857,#355);
#258=LINE('',#1859,#356);
#259=LINE('',#1861,#357);
#260=LINE('',#1862,#358);
#261=LINE('',#1865,#359);
#262=LINE('',#1867,#360);
#263=LINE('',#1869,#361);
#264=LINE('',#1870,#362);
#265=LINE('',#1877,#363);
#266=LINE('',#1879,#364);
#267=LINE('',#1881,#365);
#268=LINE('',#1882,#366);
#269=LINE('',#1909,#367);
#270=LINE('',#1912,#368);
#271=LINE('',#1915,#369);
#272=LINE('',#1919,#370);
#273=LINE('',#1922,#371);
#274=LINE('',#1925,#372);
#275=LINE('',#1929,#373);
#276=LINE('',#1932,#374);
#277=LINE('',#1935,#375);
#278=LINE('',#1940,#376);
#279=LINE('',#1943,#377);
#280=LINE('',#1948,#378);
#281=LINE('',#1951,#379);
#282=LINE('',#1956,#380);
#283=LINE('',#1959,#381);
#284=LINE('',#1964,#382);
#285=LINE('',#1968,#383);
#286=LINE('',#1970,#384);
#287=LINE('',#1973,#385);
#288=LINE('',#1974,#386);
#289=LINE('',#1979,#387);
#290=LINE('',#1983,#388);
#291=LINE('',#1984,#389);
#292=LINE('',#1989,#390);
#293=LINE('',#1990,#391);
#294=LINE('',#1995,#392);
#295=LINE('',#1999,#393);
#296=LINE('',#2003,#394);
#297=LINE('',#2007,#395);
#298=LINE('',#2011,#396);
#299=LINE('',#2015,#397);
#300=LINE('',#2019,#398);
#301=LINE('',#2023,#399);
#302=LINE('',#2027,#400);
#303=LINE('',#2031,#401);
#304=LINE('',#2035,#402);
#305=LINE('',#2039,#403);
#306=LINE('',#2043,#404);
#307=LINE('',#2047,#405);
#308=LINE('',#2052,#406);
#309=LINE('',#2053,#407);
#310=LINE('',#2054,#408);
#311=LINE('',#2057,#409);
#312=LINE('',#2058,#410);
#313=LINE('',#2061,#411);
#314=LINE('',#2062,#412);
#315=LINE('',#2064,#413);
#316=LINE('',#2068,#414);
#317=LINE('',#2069,#415);
#318=LINE('',#2070,#416);
#319=LINE('',#2073,#417);
#320=LINE('',#2074,#418);
#321=LINE('',#2077,#419);
#322=LINE('',#2078,#420);
#323=LINE('',#2080,#421);
#324=LINE('',#2084,#422);
#325=LINE('',#2085,#423);
#326=LINE('',#2086,#424);
#327=LINE('',#2089,#425);
#328=LINE('',#2090,#426);
#329=LINE('',#2093,#427);
#330=LINE('',#2094,#428);
#331=LINE('',#2096,#429);
#332=LINE('',#2099,#430);
#333=LINE('',#2103,#431);
#334=LINE('',#2108,#432);
#335=LINE('',#2109,#433);
#336=LINE('',#2110,#434);
#337=LINE('',#2113,#435);
#338=LINE('',#2114,#436);
#339=LINE('',#2117,#437);
#340=LINE('',#2118,#438);
#341=LINE('',#2120,#439);
#342=LINE('',#2123,#440);
#343=VECTOR('',#1409,9.125);
#344=VECTOR('',#1416,10.);
#345=VECTOR('',#1419,10.);
#346=VECTOR('',#1424,10.);
#347=VECTOR('',#1433,10.);
#348=VECTOR('',#1444,10.);
#349=VECTOR('',#1455,10.);
#350=VECTOR('',#1466,10.);
#351=VECTOR('',#1475,10.);
#352=VECTOR('',#1476,10.);
#353=VECTOR('',#1477,10.);
#354=VECTOR('',#1478,10.);
#355=VECTOR('',#1479,10.);
#356=VECTOR('',#1480,10.);
#357=VECTOR('',#1481,10.);
#358=VECTOR('',#1482,10.);
#359=VECTOR('',#1483,10.);
#360=VECTOR('',#1484,10.);
#361=VECTOR('',#1485,10.);
#362=VECTOR('',#1486,10.);
#363=VECTOR('',#1491,10.);
#364=VECTOR('',#1492,10.);
#365=VECTOR('',#1493,10.);
#366=VECTOR('',#1494,10.);
#367=VECTOR('',#1521,10.);
#368=VECTOR('',#1524,10.);
#369=VECTOR('',#1527,10.);
#370=VECTOR('',#1532,10.);
#371=VECTOR('',#1535,10.);
#372=VECTOR('',#1538,10.);
#373=VECTOR('',#1543,10.);
#374=VECTOR('',#1546,10.);
#375=VECTOR('',#1549,10.);
#376=VECTOR('',#1556,10.);
#377=VECTOR('',#1559,10.);
#378=VECTOR('',#1566,10.);
#379=VECTOR('',#1569,10.);
#380=VECTOR('',#1576,10.);
#381=VECTOR('',#1579,10.);
#382=VECTOR('',#1586,10.);
#383=VECTOR('',#1591,10.);
#384=VECTOR('',#1594,10.);
#385=VECTOR('',#1597,10.);
#386=VECTOR('',#1598,10.);
#387=VECTOR('',#1605,10.);
#388=VECTOR('',#1610,10.);
#389=VECTOR('',#1611,10.);
#390=VECTOR('',#1618,10.);
#391=VECTOR('',#1619,10.);
#392=VECTOR('',#1626,1.75);
#393=VECTOR('',#1631,3.);
#394=VECTOR('',#1636,3.);
#395=VECTOR('',#1641,3.);
#396=VECTOR('',#1646,3.);
#397=VECTOR('',#1651,1.75);
#398=VECTOR('',#1656,1.75);
#399=VECTOR('',#1661,3.);
#400=VECTOR('',#1666,3.);
#401=VECTOR('',#1671,3.);
#402=VECTOR('',#1676,3.);
#403=VECTOR('',#1681,1.75);
#404=VECTOR('',#1686,1.75);
#405=VECTOR('',#1691,1.75);
#406=VECTOR('',#1696,10.);
#407=VECTOR('',#1697,10.);
#408=VECTOR('',#1698,10.);
#409=VECTOR('',#1701,10.);
#410=VECTOR('',#1702,10.);
#411=VECTOR('',#1705,10.);
#412=VECTOR('',#1706,10.);
#413=VECTOR('',#1709,10.);
#414=VECTOR('',#1712,10.);
#415=VECTOR('',#1713,10.);
#416=VECTOR('',#1714,10.);
#417=VECTOR('',#1717,10.);
#418=VECTOR('',#1718,10.);
#419=VECTOR('',#1721,10.);
#420=VECTOR('',#1722,10.);
#421=VECTOR('',#1725,10.);
#422=VECTOR('',#1728,10.);
#423=VECTOR('',#1729,10.);
#424=VECTOR('',#1730,10.);
#425=VECTOR('',#1733,10.);
#426=VECTOR('',#1734,10.);
#427=VECTOR('',#1737,10.);
#428=VECTOR('',#1738,10.);
#429=VECTOR('',#1741,10.);
#430=VECTOR('',#1744,1.75);
#431=VECTOR('',#1749,1.75);
#432=VECTOR('',#1754,10.);
#433=VECTOR('',#1755,10.);
#434=VECTOR('',#1756,10.);
#435=VECTOR('',#1759,10.);
#436=VECTOR('',#1760,10.);
#437=VECTOR('',#1763,10.);
#438=VECTOR('',#1764,10.);
#439=VECTOR('',#1767,10.);
#440=VECTOR('',#1770,56.);
#441=CIRCLE('',#1268,7.125);
#442=CIRCLE('',#1269,7.125);
#443=CIRCLE('',#1271,1.25);
#444=CIRCLE('',#1272,1.25);
#445=CIRCLE('',#1274,10.25);
#446=CIRCLE('',#1275,10.25);
#447=CIRCLE('',#1277,64.);
#448=CIRCLE('',#1278,3.25);
#449=CIRCLE('',#1279,3.25);
#450=CIRCLE('',#1280,1.25);
#451=CIRCLE('',#1281,10.25);
#452=CIRCLE('',#1282,1.25);
#453=CIRCLE('',#1283,3.25);
#454=CIRCLE('',#1284,3.25);
#455=CIRCLE('',#1285,1.25);
#456=CIRCLE('',#1286,10.25);
#457=CIRCLE('',#1287,1.25);
#458=CIRCLE('',#1288,3.25);
#459=CIRCLE('',#1289,3.25);
#460=CIRCLE('',#1290,1.25);
#461=CIRCLE('',#1291,10.25);
#462=CIRCLE('',#1292,1.25);
#463=CIRCLE('',#1293,3.25);
#464=CIRCLE('',#1294,3.25);
#465=CIRCLE('',#1295,1.25);
#466=CIRCLE('',#1296,1.5);
#467=CIRCLE('',#1297,1.5);
#468=CIRCLE('',#1298,1.5);
#469=CIRCLE('',#1299,1.5);
#470=CIRCLE('',#1300,1.5);
#471=CIRCLE('',#1301,2.);
#472=CIRCLE('',#1302,2.);
#473=CIRCLE('',#1303,2.);
#474=CIRCLE('',#1304,2.);
#475=CIRCLE('',#1305,1.5);
#476=CIRCLE('',#1306,1.5);
#477=CIRCLE('',#1307,2.);
#478=CIRCLE('',#1308,2.);
#479=CIRCLE('',#1309,2.);
#480=CIRCLE('',#1310,2.);
#481=CIRCLE('',#1311,1.5);
#482=CIRCLE('',#1313,1.25);
#483=CIRCLE('',#1315,10.25);
#484=CIRCLE('',#1317,1.25);
#485=CIRCLE('',#1319,10.25);
#486=CIRCLE('',#1321,1.25);
#487=CIRCLE('',#1323,10.25);
#488=CIRCLE('',#1325,1.25);
#489=CIRCLE('',#1327,3.25);
#490=CIRCLE('',#1329,1.25);
#491=CIRCLE('',#1331,3.25);
#492=CIRCLE('',#1333,1.25);
#493=CIRCLE('',#1335,3.25);
#494=CIRCLE('',#1337,1.25);
#495=CIRCLE('',#1339,3.25);
#496=CIRCLE('',#1343,3.25);
#497=CIRCLE('',#1345,3.25);
#498=CIRCLE('',#1348,3.25);
#499=CIRCLE('',#1351,3.25);
#500=CIRCLE('',#1353,1.5);
#501=CIRCLE('',#1355,2.);
#502=CIRCLE('',#1357,2.);
#503=CIRCLE('',#1359,2.);
#504=CIRCLE('',#1361,2.);
#505=CIRCLE('',#1363,1.5);
#506=CIRCLE('',#1365,1.5);
#507=CIRCLE('',#1367,2.);
#508=CIRCLE('',#1369,2.);
#509=CIRCLE('',#1371,2.);
#510=CIRCLE('',#1373,2.);
#511=CIRCLE('',#1375,1.5);
#512=CIRCLE('',#1377,1.5);
#513=CIRCLE('',#1379,1.5);
#514=CIRCLE('',#1393,1.5);
#515=CIRCLE('',#1395,1.5);
#516=CIRCLE('',#1401,64.);
#517=VERTEX_POINT('',#1777);
#518=VERTEX_POINT('',#1779);
#519=VERTEX_POINT('',#1783);
#520=VERTEX_POINT('',#1784);
#521=VERTEX_POINT('',#1786);
#522=VERTEX_POINT('',#1788);
#523=VERTEX_POINT('',#1792);
#524=VERTEX_POINT('',#1794);
#525=VERTEX_POINT('',#1798);
#526=VERTEX_POINT('',#1800);
#527=VERTEX_POINT('',#1802);
#528=VERTEX_POINT('',#1804);
#529=VERTEX_POINT('',#1806);
#530=VERTEX_POINT('',#1808);
#531=VERTEX_POINT('',#1810);
#532=VERTEX_POINT('',#1812);
#533=VERTEX_POINT('',#1814);
#534=VERTEX_POINT('',#1816);
#535=VERTEX_POINT('',#1818);
#536=VERTEX_POINT('',#1820);
#537=VERTEX_POINT('',#1822);
#538=VERTEX_POINT('',#1824);
#539=VERTEX_POINT('',#1826);
#540=VERTEX_POINT('',#1828);
#541=VERTEX_POINT('',#1830);
#542=VERTEX_POINT('',#1832);
#543=VERTEX_POINT('',#1834);
#544=VERTEX_POINT('',#1836);
#545=VERTEX_POINT('',#1838);
#546=VERTEX_POINT('',#1840);
#547=VERTEX_POINT('',#1843);
#548=VERTEX_POINT('',#1845);
#549=VERTEX_POINT('',#1847);
#550=VERTEX_POINT('',#1848);
#551=VERTEX_POINT('',#1850);
#552=VERTEX_POINT('',#1852);
#553=VERTEX_POINT('',#1855);
#554=VERTEX_POINT('',#1856);
#555=VERTEX_POINT('',#1858);
#556=VERTEX_POINT('',#1860);
#557=VERTEX_POINT('',#1863);
#558=VERTEX_POINT('',#1864);
#559=VERTEX_POINT('',#1866);
#560=VERTEX_POINT('',#1868);
#561=VERTEX_POINT('',#1871);
#562=VERTEX_POINT('',#1873);
#563=VERTEX_POINT('',#1875);
#564=VERTEX_POINT('',#1876);
#565=VERTEX_POINT('',#1878);
#566=VERTEX_POINT('',#1880);
#567=VERTEX_POINT('',#1883);
#568=VERTEX_POINT('',#1885);
#569=VERTEX_POINT('',#1887);
#570=VERTEX_POINT('',#1889);
#571=VERTEX_POINT('',#1891);
#572=VERTEX_POINT('',#1893);
#573=VERTEX_POINT('',#1895);
#574=VERTEX_POINT('',#1897);
#575=VERTEX_POINT('',#1899);
#576=VERTEX_POINT('',#1901);
#577=VERTEX_POINT('',#1903);
#578=VERTEX_POINT('',#1905);
#579=VERTEX_POINT('',#1908);
#580=VERTEX_POINT('',#1910);
#581=VERTEX_POINT('',#1914);
#582=VERTEX_POINT('',#1918);
#583=VERTEX_POINT('',#1920);
#584=VERTEX_POINT('',#1924);
#585=VERTEX_POINT('',#1928);
#586=VERTEX_POINT('',#1930);
#587=VERTEX_POINT('',#1934);
#588=VERTEX_POINT('',#1938);
#589=VERTEX_POINT('',#1942);
#590=VERTEX_POINT('',#1946);
#591=VERTEX_POINT('',#1950);
#592=VERTEX_POINT('',#1954);
#593=VERTEX_POINT('',#1958);
#594=VERTEX_POINT('',#1962);
#595=VERTEX_POINT('',#1966);
#596=VERTEX_POINT('',#1972);
#597=VERTEX_POINT('',#1978);
#598=VERTEX_POINT('',#1982);
#599=VERTEX_POINT('',#1988);
#600=VERTEX_POINT('',#1994);
#601=VERTEX_POINT('',#1998);
#602=VERTEX_POINT('',#2002);
#603=VERTEX_POINT('',#2006);
#604=VERTEX_POINT('',#2010);
#605=VERTEX_POINT('',#2014);
#606=VERTEX_POINT('',#2018);
#607=VERTEX_POINT('',#2022);
#608=VERTEX_POINT('',#2026);
#609=VERTEX_POINT('',#2030);
#610=VERTEX_POINT('',#2034);
#611=VERTEX_POINT('',#2038);
#612=VERTEX_POINT('',#2042);
#613=VERTEX_POINT('',#2046);
#614=VERTEX_POINT('',#2050);
#615=VERTEX_POINT('',#2051);
#616=VERTEX_POINT('',#2056);
#617=VERTEX_POINT('',#2060);
#618=VERTEX_POINT('',#2066);
#619=VERTEX_POINT('',#2067);
#620=VERTEX_POINT('',#2072);
#621=VERTEX_POINT('',#2076);
#622=VERTEX_POINT('',#2082);
#623=VERTEX_POINT('',#2083);
#624=VERTEX_POINT('',#2088);
#625=VERTEX_POINT('',#2092);
#626=VERTEX_POINT('',#2098);
#627=VERTEX_POINT('',#2102);
#628=VERTEX_POINT('',#2106);
#629=VERTEX_POINT('',#2107);
#630=VERTEX_POINT('',#2112);
#631=VERTEX_POINT('',#2116);
#632=VERTEX_POINT('',#2122);
#633=EDGE_CURVE('',#517,#517,#441,.F.);
#634=EDGE_CURVE('',#517,#518,#245,.T.);
#635=EDGE_CURVE('',#518,#518,#442,.T.);
#636=EDGE_CURVE('',#519,#520,#443,.T.);
#637=EDGE_CURVE('',#520,#521,#246,.T.);
#638=EDGE_CURVE('',#521,#522,#444,.T.);
#639=EDGE_CURVE('',#522,#519,#247,.T.);
#640=EDGE_CURVE('',#523,#520,#445,.T.);
#641=EDGE_CURVE('',#524,#523,#248,.T.);
#642=EDGE_CURVE('',#521,#524,#446,.F.);
#643=EDGE_CURVE('',#525,#525,#447,.F.);
#644=EDGE_CURVE('',#519,#526,#448,.T.);
#645=EDGE_CURVE('',#526,#527,#249,.T.);
#646=EDGE_CURVE('',#527,#528,#449,.T.);
#647=EDGE_CURVE('',#529,#528,#450,.T.);
#648=EDGE_CURVE('',#529,#530,#451,.T.);
#649=EDGE_CURVE('',#531,#530,#452,.T.);
#650=EDGE_CURVE('',#531,#532,#453,.T.);
#651=EDGE_CURVE('',#532,#533,#250,.T.);
#652=EDGE_CURVE('',#533,#534,#454,.T.);
#653=EDGE_CURVE('',#535,#534,#455,.T.);
#654=EDGE_CURVE('',#535,#536,#456,.T.);
#655=EDGE_CURVE('',#537,#536,#457,.T.);
#656=EDGE_CURVE('',#537,#538,#458,.T.);
#657=EDGE_CURVE('',#538,#539,#251,.T.);
#658=EDGE_CURVE('',#539,#540,#459,.T.);
#659=EDGE_CURVE('',#541,#540,#460,.T.);
#660=EDGE_CURVE('',#541,#542,#461,.T.);
#661=EDGE_CURVE('',#543,#542,#462,.T.);
#662=EDGE_CURVE('',#543,#544,#463,.T.);
#663=EDGE_CURVE('',#544,#545,#252,.T.);
#664=EDGE_CURVE('',#545,#546,#464,.T.);
#665=EDGE_CURVE('',#523,#546,#465,.T.);
#666=EDGE_CURVE('',#547,#547,#466,.F.);
#667=EDGE_CURVE('',#548,#548,#467,.F.);
#668=EDGE_CURVE('',#549,#550,#253,.F.);
#669=EDGE_CURVE('',#550,#551,#254,.F.);
#670=EDGE_CURVE('',#551,#552,#255,.F.);
#671=EDGE_CURVE('',#552,#549,#256,.F.);
#672=EDGE_CURVE('',#553,#554,#257,.F.);
#673=EDGE_CURVE('',#554,#555,#258,.F.);
#674=EDGE_CURVE('',#555,#556,#259,.F.);
#675=EDGE_CURVE('',#556,#553,#260,.F.);
#676=EDGE_CURVE('',#557,#558,#261,.F.);
#677=EDGE_CURVE('',#558,#559,#262,.F.);
#678=EDGE_CURVE('',#559,#560,#263,.F.);
#679=EDGE_CURVE('',#560,#557,#264,.F.);
#680=EDGE_CURVE('',#561,#561,#468,.F.);
#681=EDGE_CURVE('',#562,#562,#469,.F.);
#682=EDGE_CURVE('',#563,#564,#265,.F.);
#683=EDGE_CURVE('',#564,#565,#266,.F.);
#684=EDGE_CURVE('',#565,#566,#267,.F.);
#685=EDGE_CURVE('',#566,#563,#268,.F.);
#686=EDGE_CURVE('',#567,#567,#470,.T.);
#687=EDGE_CURVE('',#568,#568,#471,.T.);
#688=EDGE_CURVE('',#569,#569,#472,.T.);
#689=EDGE_CURVE('',#570,#570,#473,.T.);
#690=EDGE_CURVE('',#571,#571,#474,.T.);
#691=EDGE_CURVE('',#572,#572,#475,.T.);
#692=EDGE_CURVE('',#573,#573,#476,.T.);
#693=EDGE_CURVE('',#574,#574,#477,.T.);
#694=EDGE_CURVE('',#575,#575,#478,.T.);
#695=EDGE_CURVE('',#576,#576,#479,.T.);
#696=EDGE_CURVE('',#577,#577,#480,.T.);
#697=EDGE_CURVE('',#578,#578,#481,.T.);
#698=EDGE_CURVE('',#536,#579,#269,.T.);
#699=EDGE_CURVE('',#579,#580,#482,.T.);
#700=EDGE_CURVE('',#580,#537,#270,.T.);
#701=EDGE_CURVE('',#581,#535,#271,.T.);
#702=EDGE_CURVE('',#579,#581,#483,.F.);
#703=EDGE_CURVE('',#542,#582,#272,.T.);
#704=EDGE_CURVE('',#582,#583,#484,.T.);
#705=EDGE_CURVE('',#583,#543,#273,.T.);
#706=EDGE_CURVE('',#584,#541,#274,.T.);
#707=EDGE_CURVE('',#582,#584,#485,.F.);
#708=EDGE_CURVE('',#530,#585,#275,.T.);
#709=EDGE_CURVE('',#585,#586,#486,.T.);
#710=EDGE_CURVE('',#586,#531,#276,.T.);
#711=EDGE_CURVE('',#587,#529,#277,.T.);
#712=EDGE_CURVE('',#585,#587,#487,.F.);
#713=EDGE_CURVE('',#588,#581,#488,.T.);
#714=EDGE_CURVE('',#534,#588,#278,.T.);
#715=EDGE_CURVE('',#589,#533,#279,.T.);
#716=EDGE_CURVE('',#588,#589,#489,.F.);
#717=EDGE_CURVE('',#590,#524,#490,.T.);
#718=EDGE_CURVE('',#546,#590,#280,.T.);
#719=EDGE_CURVE('',#591,#545,#281,.T.);
#720=EDGE_CURVE('',#590,#591,#491,.F.);
#721=EDGE_CURVE('',#592,#584,#492,.T.);
#722=EDGE_CURVE('',#540,#592,#282,.T.);
#723=EDGE_CURVE('',#593,#539,#283,.F.);
#724=EDGE_CURVE('',#592,#593,#493,.F.);
#725=EDGE_CURVE('',#594,#587,#494,.T.);
#726=EDGE_CURVE('',#528,#594,#284,.T.);
#727=EDGE_CURVE('',#595,#580,#495,.F.);
#728=EDGE_CURVE('',#595,#538,#285,.F.);
#729=EDGE_CURVE('',#593,#595,#286,.F.);
#730=EDGE_CURVE('',#596,#532,#287,.T.);
#731=EDGE_CURVE('',#589,#596,#288,.F.);
#732=EDGE_CURVE('',#596,#586,#496,.F.);
#733=EDGE_CURVE('',#597,#527,#289,.T.);
#734=EDGE_CURVE('',#594,#597,#497,.F.);
#735=EDGE_CURVE('',#598,#526,#290,.T.);
#736=EDGE_CURVE('',#597,#598,#291,.F.);
#737=EDGE_CURVE('',#598,#522,#498,.F.);
#738=EDGE_CURVE('',#599,#544,#292,.T.);
#739=EDGE_CURVE('',#591,#599,#293,.F.);
#740=EDGE_CURVE('',#599,#583,#499,.F.);
#741=EDGE_CURVE('',#578,#600,#294,.T.);
#742=EDGE_CURVE('',#600,#600,#500,.F.);
#743=EDGE_CURVE('',#577,#601,#295,.T.);
#744=EDGE_CURVE('',#601,#601,#501,.F.);
#745=EDGE_CURVE('',#576,#602,#296,.T.);
#746=EDGE_CURVE('',#602,#602,#502,.F.);
#747=EDGE_CURVE('',#575,#603,#297,.T.);
#748=EDGE_CURVE('',#603,#603,#503,.F.);
#749=EDGE_CURVE('',#574,#604,#298,.T.);
#750=EDGE_CURVE('',#604,#604,#504,.F.);
#751=EDGE_CURVE('',#573,#605,#299,.T.);
#752=EDGE_CURVE('',#605,#605,#505,.F.);
#753=EDGE_CURVE('',#572,#606,#300,.T.);
#754=EDGE_CURVE('',#606,#606,#506,.F.);
#755=EDGE_CURVE('',#571,#607,#301,.T.);
#756=EDGE_CURVE('',#607,#607,#507,.F.);
#757=EDGE_CURVE('',#570,#608,#302,.T.);
#758=EDGE_CURVE('',#608,#608,#508,.F.);
#759=EDGE_CURVE('',#569,#609,#303,.T.);
#760=EDGE_CURVE('',#609,#609,#509,.F.);
#761=EDGE_CURVE('',#568,#610,#304,.T.);
#762=EDGE_CURVE('',#610,#610,#510,.F.);
#763=EDGE_CURVE('',#567,#611,#305,.T.);
#764=EDGE_CURVE('',#611,#611,#511,.F.);
#765=EDGE_CURVE('',#547,#612,#306,.T.);
#766=EDGE_CURVE('',#612,#612,#512,.F.);
#767=EDGE_CURVE('',#548,#613,#307,.T.);
#768=EDGE_CURVE('',#613,#613,#513,.F.);
#769=EDGE_CURVE('',#614,#615,#308,.F.);
#770=EDGE_CURVE('',#615,#549,#309,.T.);
#771=EDGE_CURVE('',#614,#552,#310,.F.);
#772=EDGE_CURVE('',#616,#614,#311,.F.);
#773=EDGE_CURVE('',#616,#551,#312,.T.);
#774=EDGE_CURVE('',#617,#616,#313,.F.);
#775=EDGE_CURVE('',#617,#550,#314,.T.);
#776=EDGE_CURVE('',#615,#617,#315,.F.);
#777=EDGE_CURVE('',#618,#619,#316,.F.);
#778=EDGE_CURVE('',#619,#553,#317,.F.);
#779=EDGE_CURVE('',#618,#556,#318,.T.);
#780=EDGE_CURVE('',#620,#618,#319,.F.);
#781=EDGE_CURVE('',#620,#555,#320,.T.);
#782=EDGE_CURVE('',#621,#620,#321,.F.);
#783=EDGE_CURVE('',#621,#554,#322,.T.);
#784=EDGE_CURVE('',#619,#621,#323,.F.);
#785=EDGE_CURVE('',#622,#623,#324,.F.);
#786=EDGE_CURVE('',#623,#557,#325,.F.);
#787=EDGE_CURVE('',#622,#560,#326,.F.);
#788=EDGE_CURVE('',#624,#622,#327,.F.);
#789=EDGE_CURVE('',#624,#559,#328,.T.);
#790=EDGE_CURVE('',#625,#624,#329,.F.);
#791=EDGE_CURVE('',#625,#558,#330,.T.);
#792=EDGE_CURVE('',#623,#625,#331,.F.);
#793=EDGE_CURVE('',#561,#626,#332,.T.);
#794=EDGE_CURVE('',#626,#626,#514,.F.);
#795=EDGE_CURVE('',#562,#627,#333,.T.);
#796=EDGE_CURVE('',#627,#627,#515,.F.);
#797=EDGE_CURVE('',#628,#629,#334,.F.);
#798=EDGE_CURVE('',#629,#563,#335,.T.);
#799=EDGE_CURVE('',#628,#566,#336,.F.);
#800=EDGE_CURVE('',#630,#628,#337,.F.);
#801=EDGE_CURVE('',#630,#565,#338,.T.);
#802=EDGE_CURVE('',#631,#630,#339,.F.);
#803=EDGE_CURVE('',#631,#564,#340,.T.);
#804=EDGE_CURVE('',#629,#631,#341,.F.);
#805=EDGE_CURVE('',#525,#632,#342,.T.);
#806=EDGE_CURVE('',#632,#632,#516,.F.);
#807=ORIENTED_EDGE('',*,*,#633,.F.);
#808=ORIENTED_EDGE('',*,*,#634,.T.);
#809=ORIENTED_EDGE('',*,*,#635,.F.);
#810=ORIENTED_EDGE('',*,*,#634,.F.);
#811=ORIENTED_EDGE('',*,*,#636,.T.);
#812=ORIENTED_EDGE('',*,*,#637,.T.);
#813=ORIENTED_EDGE('',*,*,#638,.T.);
#814=ORIENTED_EDGE('',*,*,#639,.T.);
#815=ORIENTED_EDGE('',*,*,#637,.F.);
#816=ORIENTED_EDGE('',*,*,#640,.F.);
#817=ORIENTED_EDGE('',*,*,#641,.F.);
#818=ORIENTED_EDGE('',*,*,#642,.F.);
#819=ORIENTED_EDGE('',*,*,#643,.T.);
#820=ORIENTED_EDGE('',*,*,#636,.F.);
#821=ORIENTED_EDGE('',*,*,#644,.T.);
#822=ORIENTED_EDGE('',*,*,#645,.T.);
#823=ORIENTED_EDGE('',*,*,#646,.T.);
#824=ORIENTED_EDGE('',*,*,#647,.F.);
#825=ORIENTED_EDGE('',*,*,#648,.T.);
#826=ORIENTED_EDGE('',*,*,#649,.F.);
#827=ORIENTED_EDGE('',*,*,#650,.T.);
#828=ORIENTED_EDGE('',*,*,#651,.T.);
#829=ORIENTED_EDGE('',*,*,#652,.T.);
#830=ORIENTED_EDGE('',*,*,#653,.F.);
#831=ORIENTED_EDGE('',*,*,#654,.T.);
#832=ORIENTED_EDGE('',*,*,#655,.F.);
#833=ORIENTED_EDGE('',*,*,#656,.T.);
#834=ORIENTED_EDGE('',*,*,#657,.T.);
#835=ORIENTED_EDGE('',*,*,#658,.T.);
#836=ORIENTED_EDGE('',*,*,#659,.F.);
#837=ORIENTED_EDGE('',*,*,#660,.T.);
#838=ORIENTED_EDGE('',*,*,#661,.F.);
#839=ORIENTED_EDGE('',*,*,#662,.T.);
#840=ORIENTED_EDGE('',*,*,#663,.T.);
#841=ORIENTED_EDGE('',*,*,#664,.T.);
#842=ORIENTED_EDGE('',*,*,#665,.F.);
#843=ORIENTED_EDGE('',*,*,#640,.T.);
#844=ORIENTED_EDGE('',*,*,#666,.T.);
#845=ORIENTED_EDGE('',*,*,#667,.T.);
#846=ORIENTED_EDGE('',*,*,#668,.T.);
#847=ORIENTED_EDGE('',*,*,#669,.T.);
#848=ORIENTED_EDGE('',*,*,#670,.T.);
#849=ORIENTED_EDGE('',*,*,#671,.T.);
#850=ORIENTED_EDGE('',*,*,#672,.T.);
#851=ORIENTED_EDGE('',*,*,#673,.T.);
#852=ORIENTED_EDGE('',*,*,#674,.T.);
#853=ORIENTED_EDGE('',*,*,#675,.T.);
#854=ORIENTED_EDGE('',*,*,#676,.T.);
#855=ORIENTED_EDGE('',*,*,#677,.T.);
#856=ORIENTED_EDGE('',*,*,#678,.T.);
#857=ORIENTED_EDGE('',*,*,#679,.T.);
#858=ORIENTED_EDGE('',*,*,#680,.T.);
#859=ORIENTED_EDGE('',*,*,#681,.T.);
#860=ORIENTED_EDGE('',*,*,#682,.T.);
#861=ORIENTED_EDGE('',*,*,#683,.T.);
#862=ORIENTED_EDGE('',*,*,#684,.T.);
#863=ORIENTED_EDGE('',*,*,#685,.T.);
#864=ORIENTED_EDGE('',*,*,#686,.T.);
#865=ORIENTED_EDGE('',*,*,#687,.T.);
#866=ORIENTED_EDGE('',*,*,#688,.T.);
#867=ORIENTED_EDGE('',*,*,#689,.T.);
#868=ORIENTED_EDGE('',*,*,#690,.T.);
#869=ORIENTED_EDGE('',*,*,#691,.T.);
#870=ORIENTED_EDGE('',*,*,#692,.T.);
#871=ORIENTED_EDGE('',*,*,#693,.T.);
#872=ORIENTED_EDGE('',*,*,#694,.T.);
#873=ORIENTED_EDGE('',*,*,#695,.T.);
#874=ORIENTED_EDGE('',*,*,#696,.T.);
#875=ORIENTED_EDGE('',*,*,#697,.T.);
#876=ORIENTED_EDGE('',*,*,#635,.T.);
#877=ORIENTED_EDGE('',*,*,#655,.T.);
#878=ORIENTED_EDGE('',*,*,#698,.T.);
#879=ORIENTED_EDGE('',*,*,#699,.T.);
#880=ORIENTED_EDGE('',*,*,#700,.T.);
#881=ORIENTED_EDGE('',*,*,#698,.F.);
#882=ORIENTED_EDGE('',*,*,#654,.F.);
#883=ORIENTED_EDGE('',*,*,#701,.F.);
#884=ORIENTED_EDGE('',*,*,#702,.F.);
#885=ORIENTED_EDGE('',*,*,#661,.T.);
#886=ORIENTED_EDGE('',*,*,#703,.T.);
#887=ORIENTED_EDGE('',*,*,#704,.T.);
#888=ORIENTED_EDGE('',*,*,#705,.T.);
#889=ORIENTED_EDGE('',*,*,#703,.F.);
#890=ORIENTED_EDGE('',*,*,#660,.F.);
#891=ORIENTED_EDGE('',*,*,#706,.F.);
#892=ORIENTED_EDGE('',*,*,#707,.F.);
#893=ORIENTED_EDGE('',*,*,#649,.T.);
#894=ORIENTED_EDGE('',*,*,#708,.T.);
#895=ORIENTED_EDGE('',*,*,#709,.T.);
#896=ORIENTED_EDGE('',*,*,#710,.T.);
#897=ORIENTED_EDGE('',*,*,#708,.F.);
#898=ORIENTED_EDGE('',*,*,#648,.F.);
#899=ORIENTED_EDGE('',*,*,#711,.F.);
#900=ORIENTED_EDGE('',*,*,#712,.F.);
#901=ORIENTED_EDGE('',*,*,#713,.T.);
#902=ORIENTED_EDGE('',*,*,#701,.T.);
#903=ORIENTED_EDGE('',*,*,#653,.T.);
#904=ORIENTED_EDGE('',*,*,#714,.T.);
#905=ORIENTED_EDGE('',*,*,#714,.F.);
#906=ORIENTED_EDGE('',*,*,#652,.F.);
#907=ORIENTED_EDGE('',*,*,#715,.F.);
#908=ORIENTED_EDGE('',*,*,#716,.F.);
#909=ORIENTED_EDGE('',*,*,#717,.T.);
#910=ORIENTED_EDGE('',*,*,#641,.T.);
#911=ORIENTED_EDGE('',*,*,#665,.T.);
#912=ORIENTED_EDGE('',*,*,#718,.T.);
#913=ORIENTED_EDGE('',*,*,#718,.F.);
#914=ORIENTED_EDGE('',*,*,#664,.F.);
#915=ORIENTED_EDGE('',*,*,#719,.F.);
#916=ORIENTED_EDGE('',*,*,#720,.F.);
#917=ORIENTED_EDGE('',*,*,#721,.T.);
#918=ORIENTED_EDGE('',*,*,#706,.T.);
#919=ORIENTED_EDGE('',*,*,#659,.T.);
#920=ORIENTED_EDGE('',*,*,#722,.T.);
#921=ORIENTED_EDGE('',*,*,#722,.F.);
#922=ORIENTED_EDGE('',*,*,#658,.F.);
#923=ORIENTED_EDGE('',*,*,#723,.F.);
#924=ORIENTED_EDGE('',*,*,#724,.F.);
#925=ORIENTED_EDGE('',*,*,#725,.T.);
#926=ORIENTED_EDGE('',*,*,#711,.T.);
#927=ORIENTED_EDGE('',*,*,#647,.T.);
#928=ORIENTED_EDGE('',*,*,#726,.T.);
#929=ORIENTED_EDGE('',*,*,#700,.F.);
#930=ORIENTED_EDGE('',*,*,#727,.F.);
#931=ORIENTED_EDGE('',*,*,#728,.T.);
#932=ORIENTED_EDGE('',*,*,#656,.F.);
#933=ORIENTED_EDGE('',*,*,#657,.F.);
#934=ORIENTED_EDGE('',*,*,#728,.F.);
#935=ORIENTED_EDGE('',*,*,#729,.F.);
#936=ORIENTED_EDGE('',*,*,#723,.T.);
#937=ORIENTED_EDGE('',*,*,#651,.F.);
#938=ORIENTED_EDGE('',*,*,#730,.F.);
#939=ORIENTED_EDGE('',*,*,#731,.F.);
#940=ORIENTED_EDGE('',*,*,#715,.T.);
#941=ORIENTED_EDGE('',*,*,#710,.F.);
#942=ORIENTED_EDGE('',*,*,#732,.F.);
#943=ORIENTED_EDGE('',*,*,#730,.T.);
#944=ORIENTED_EDGE('',*,*,#650,.F.);
#945=ORIENTED_EDGE('',*,*,#726,.F.);
#946=ORIENTED_EDGE('',*,*,#646,.F.);
#947=ORIENTED_EDGE('',*,*,#733,.F.);
#948=ORIENTED_EDGE('',*,*,#734,.F.);
#949=ORIENTED_EDGE('',*,*,#645,.F.);
#950=ORIENTED_EDGE('',*,*,#735,.F.);
#951=ORIENTED_EDGE('',*,*,#736,.F.);
#952=ORIENTED_EDGE('',*,*,#733,.T.);
#953=ORIENTED_EDGE('',*,*,#639,.F.);
#954=ORIENTED_EDGE('',*,*,#737,.F.);
#955=ORIENTED_EDGE('',*,*,#735,.T.);
#956=ORIENTED_EDGE('',*,*,#644,.F.);
#957=ORIENTED_EDGE('',*,*,#663,.F.);
#958=ORIENTED_EDGE('',*,*,#738,.F.);
#959=ORIENTED_EDGE('',*,*,#739,.F.);
#960=ORIENTED_EDGE('',*,*,#719,.T.);
#961=ORIENTED_EDGE('',*,*,#705,.F.);
#962=ORIENTED_EDGE('',*,*,#740,.F.);
#963=ORIENTED_EDGE('',*,*,#738,.T.);
#964=ORIENTED_EDGE('',*,*,#662,.F.);
#965=ORIENTED_EDGE('',*,*,#697,.F.);
#966=ORIENTED_EDGE('',*,*,#741,.T.);
#967=ORIENTED_EDGE('',*,*,#742,.F.);
#968=ORIENTED_EDGE('',*,*,#741,.F.);
#969=ORIENTED_EDGE('',*,*,#696,.F.);
#970=ORIENTED_EDGE('',*,*,#743,.T.);
#971=ORIENTED_EDGE('',*,*,#744,.F.);
#972=ORIENTED_EDGE('',*,*,#743,.F.);
#973=ORIENTED_EDGE('',*,*,#695,.F.);
#974=ORIENTED_EDGE('',*,*,#745,.T.);
#975=ORIENTED_EDGE('',*,*,#746,.F.);
#976=ORIENTED_EDGE('',*,*,#745,.F.);
#977=ORIENTED_EDGE('',*,*,#694,.F.);
#978=ORIENTED_EDGE('',*,*,#747,.T.);
#979=ORIENTED_EDGE('',*,*,#748,.F.);
#980=ORIENTED_EDGE('',*,*,#747,.F.);
#981=ORIENTED_EDGE('',*,*,#693,.F.);
#982=ORIENTED_EDGE('',*,*,#749,.T.);
#983=ORIENTED_EDGE('',*,*,#750,.F.);
#984=ORIENTED_EDGE('',*,*,#749,.F.);
#985=ORIENTED_EDGE('',*,*,#692,.F.);
#986=ORIENTED_EDGE('',*,*,#751,.T.);
#987=ORIENTED_EDGE('',*,*,#752,.F.);
#988=ORIENTED_EDGE('',*,*,#751,.F.);
#989=ORIENTED_EDGE('',*,*,#691,.F.);
#990=ORIENTED_EDGE('',*,*,#753,.T.);
#991=ORIENTED_EDGE('',*,*,#754,.F.);
#992=ORIENTED_EDGE('',*,*,#753,.F.);
#993=ORIENTED_EDGE('',*,*,#690,.F.);
#994=ORIENTED_EDGE('',*,*,#755,.T.);
#995=ORIENTED_EDGE('',*,*,#756,.F.);
#996=ORIENTED_EDGE('',*,*,#755,.F.);
#997=ORIENTED_EDGE('',*,*,#689,.F.);
#998=ORIENTED_EDGE('',*,*,#757,.T.);
#999=ORIENTED_EDGE('',*,*,#758,.F.);
#1000=ORIENTED_EDGE('',*,*,#757,.F.);
#1001=ORIENTED_EDGE('',*,*,#688,.F.);
#1002=ORIENTED_EDGE('',*,*,#759,.T.);
#1003=ORIENTED_EDGE('',*,*,#760,.F.);
#1004=ORIENTED_EDGE('',*,*,#759,.F.);
#1005=ORIENTED_EDGE('',*,*,#687,.F.);
#1006=ORIENTED_EDGE('',*,*,#761,.T.);
#1007=ORIENTED_EDGE('',*,*,#762,.F.);
#1008=ORIENTED_EDGE('',*,*,#761,.F.);
#1009=ORIENTED_EDGE('',*,*,#686,.F.);
#1010=ORIENTED_EDGE('',*,*,#763,.T.);
#1011=ORIENTED_EDGE('',*,*,#764,.F.);
#1012=ORIENTED_EDGE('',*,*,#763,.F.);
#1013=ORIENTED_EDGE('',*,*,#666,.F.);
#1014=ORIENTED_EDGE('',*,*,#765,.T.);
#1015=ORIENTED_EDGE('',*,*,#766,.T.);
#1016=ORIENTED_EDGE('',*,*,#765,.F.);
#1017=ORIENTED_EDGE('',*,*,#667,.F.);
#1018=ORIENTED_EDGE('',*,*,#767,.T.);
#1019=ORIENTED_EDGE('',*,*,#768,.T.);
#1020=ORIENTED_EDGE('',*,*,#767,.F.);
#1021=ORIENTED_EDGE('',*,*,#769,.T.);
#1022=ORIENTED_EDGE('',*,*,#770,.T.);
#1023=ORIENTED_EDGE('',*,*,#671,.F.);
#1024=ORIENTED_EDGE('',*,*,#771,.F.);
#1025=ORIENTED_EDGE('',*,*,#772,.T.);
#1026=ORIENTED_EDGE('',*,*,#771,.T.);
#1027=ORIENTED_EDGE('',*,*,#670,.F.);
#1028=ORIENTED_EDGE('',*,*,#773,.F.);
#1029=ORIENTED_EDGE('',*,*,#774,.T.);
#1030=ORIENTED_EDGE('',*,*,#773,.T.);
#1031=ORIENTED_EDGE('',*,*,#669,.F.);
#1032=ORIENTED_EDGE('',*,*,#775,.F.);
#1033=ORIENTED_EDGE('',*,*,#776,.T.);
#1034=ORIENTED_EDGE('',*,*,#775,.T.);
#1035=ORIENTED_EDGE('',*,*,#668,.F.);
#1036=ORIENTED_EDGE('',*,*,#770,.F.);
#1037=ORIENTED_EDGE('',*,*,#777,.T.);
#1038=ORIENTED_EDGE('',*,*,#778,.T.);
#1039=ORIENTED_EDGE('',*,*,#675,.F.);
#1040=ORIENTED_EDGE('',*,*,#779,.F.);
#1041=ORIENTED_EDGE('',*,*,#780,.T.);
#1042=ORIENTED_EDGE('',*,*,#779,.T.);
#1043=ORIENTED_EDGE('',*,*,#674,.F.);
#1044=ORIENTED_EDGE('',*,*,#781,.F.);
#1045=ORIENTED_EDGE('',*,*,#782,.T.);
#1046=ORIENTED_EDGE('',*,*,#781,.T.);
#1047=ORIENTED_EDGE('',*,*,#673,.F.);
#1048=ORIENTED_EDGE('',*,*,#783,.F.);
#1049=ORIENTED_EDGE('',*,*,#784,.T.);
#1050=ORIENTED_EDGE('',*,*,#783,.T.);
#1051=ORIENTED_EDGE('',*,*,#672,.F.);
#1052=ORIENTED_EDGE('',*,*,#778,.F.);
#1053=ORIENTED_EDGE('',*,*,#785,.T.);
#1054=ORIENTED_EDGE('',*,*,#786,.T.);
#1055=ORIENTED_EDGE('',*,*,#679,.F.);
#1056=ORIENTED_EDGE('',*,*,#787,.F.);
#1057=ORIENTED_EDGE('',*,*,#788,.T.);
#1058=ORIENTED_EDGE('',*,*,#787,.T.);
#1059=ORIENTED_EDGE('',*,*,#678,.F.);
#1060=ORIENTED_EDGE('',*,*,#789,.F.);
#1061=ORIENTED_EDGE('',*,*,#790,.T.);
#1062=ORIENTED_EDGE('',*,*,#789,.T.);
#1063=ORIENTED_EDGE('',*,*,#677,.F.);
#1064=ORIENTED_EDGE('',*,*,#791,.F.);
#1065=ORIENTED_EDGE('',*,*,#792,.T.);
#1066=ORIENTED_EDGE('',*,*,#791,.T.);
#1067=ORIENTED_EDGE('',*,*,#676,.F.);
#1068=ORIENTED_EDGE('',*,*,#786,.F.);
#1069=ORIENTED_EDGE('',*,*,#680,.F.);
#1070=ORIENTED_EDGE('',*,*,#793,.T.);
#1071=ORIENTED_EDGE('',*,*,#794,.T.);
#1072=ORIENTED_EDGE('',*,*,#793,.F.);
#1073=ORIENTED_EDGE('',*,*,#681,.F.);
#1074=ORIENTED_EDGE('',*,*,#795,.T.);
#1075=ORIENTED_EDGE('',*,*,#796,.T.);
#1076=ORIENTED_EDGE('',*,*,#795,.F.);
#1077=ORIENTED_EDGE('',*,*,#797,.T.);
#1078=ORIENTED_EDGE('',*,*,#798,.T.);
#1079=ORIENTED_EDGE('',*,*,#685,.F.);
#1080=ORIENTED_EDGE('',*,*,#799,.F.);
#1081=ORIENTED_EDGE('',*,*,#800,.T.);
#1082=ORIENTED_EDGE('',*,*,#799,.T.);
#1083=ORIENTED_EDGE('',*,*,#684,.F.);
#1084=ORIENTED_EDGE('',*,*,#801,.F.);
#1085=ORIENTED_EDGE('',*,*,#802,.T.);
#1086=ORIENTED_EDGE('',*,*,#801,.T.);
#1087=ORIENTED_EDGE('',*,*,#683,.F.);
#1088=ORIENTED_EDGE('',*,*,#803,.F.);
#1089=ORIENTED_EDGE('',*,*,#804,.T.);
#1090=ORIENTED_EDGE('',*,*,#803,.T.);
#1091=ORIENTED_EDGE('',*,*,#682,.F.);
#1092=ORIENTED_EDGE('',*,*,#798,.F.);
#1093=ORIENTED_EDGE('',*,*,#643,.F.);
#1094=ORIENTED_EDGE('',*,*,#805,.T.);
#1095=ORIENTED_EDGE('',*,*,#806,.T.);
#1096=ORIENTED_EDGE('',*,*,#805,.F.);
#1097=ORIENTED_EDGE('',*,*,#806,.F.);
#1098=ORIENTED_EDGE('',*,*,#766,.F.);
#1099=ORIENTED_EDGE('',*,*,#768,.F.);
#1100=ORIENTED_EDGE('',*,*,#776,.F.);
#1101=ORIENTED_EDGE('',*,*,#769,.F.);
#1102=ORIENTED_EDGE('',*,*,#772,.F.);
#1103=ORIENTED_EDGE('',*,*,#774,.F.);
#1104=ORIENTED_EDGE('',*,*,#784,.F.);
#1105=ORIENTED_EDGE('',*,*,#777,.F.);
#1106=ORIENTED_EDGE('',*,*,#780,.F.);
#1107=ORIENTED_EDGE('',*,*,#782,.F.);
#1108=ORIENTED_EDGE('',*,*,#792,.F.);
#1109=ORIENTED_EDGE('',*,*,#785,.F.);
#1110=ORIENTED_EDGE('',*,*,#788,.F.);
#1111=ORIENTED_EDGE('',*,*,#790,.F.);
#1112=ORIENTED_EDGE('',*,*,#794,.F.);
#1113=ORIENTED_EDGE('',*,*,#796,.F.);
#1114=ORIENTED_EDGE('',*,*,#804,.F.);
#1115=ORIENTED_EDGE('',*,*,#797,.F.);
#1116=ORIENTED_EDGE('',*,*,#800,.F.);
#1117=ORIENTED_EDGE('',*,*,#802,.F.);
#1118=ORIENTED_EDGE('',*,*,#764,.T.);
#1119=ORIENTED_EDGE('',*,*,#762,.T.);
#1120=ORIENTED_EDGE('',*,*,#760,.T.);
#1121=ORIENTED_EDGE('',*,*,#758,.T.);
#1122=ORIENTED_EDGE('',*,*,#756,.T.);
#1123=ORIENTED_EDGE('',*,*,#754,.T.);
#1124=ORIENTED_EDGE('',*,*,#752,.T.);
#1125=ORIENTED_EDGE('',*,*,#750,.T.);
#1126=ORIENTED_EDGE('',*,*,#748,.T.);
#1127=ORIENTED_EDGE('',*,*,#746,.T.);
#1128=ORIENTED_EDGE('',*,*,#744,.T.);
#1129=ORIENTED_EDGE('',*,*,#742,.T.);
#1130=ORIENTED_EDGE('',*,*,#638,.F.);
#1131=ORIENTED_EDGE('',*,*,#642,.T.);
#1132=ORIENTED_EDGE('',*,*,#717,.F.);
#1133=ORIENTED_EDGE('',*,*,#720,.T.);
#1134=ORIENTED_EDGE('',*,*,#739,.T.);
#1135=ORIENTED_EDGE('',*,*,#740,.T.);
#1136=ORIENTED_EDGE('',*,*,#704,.F.);
#1137=ORIENTED_EDGE('',*,*,#707,.T.);
#1138=ORIENTED_EDGE('',*,*,#721,.F.);
#1139=ORIENTED_EDGE('',*,*,#724,.T.);
#1140=ORIENTED_EDGE('',*,*,#729,.T.);
#1141=ORIENTED_EDGE('',*,*,#727,.T.);
#1142=ORIENTED_EDGE('',*,*,#699,.F.);
#1143=ORIENTED_EDGE('',*,*,#702,.T.);
#1144=ORIENTED_EDGE('',*,*,#713,.F.);
#1145=ORIENTED_EDGE('',*,*,#716,.T.);
#1146=ORIENTED_EDGE('',*,*,#731,.T.);
#1147=ORIENTED_EDGE('',*,*,#732,.T.);
#1148=ORIENTED_EDGE('',*,*,#709,.F.);
#1149=ORIENTED_EDGE('',*,*,#712,.T.);
#1150=ORIENTED_EDGE('',*,*,#725,.F.);
#1151=ORIENTED_EDGE('',*,*,#734,.T.);
#1152=ORIENTED_EDGE('',*,*,#736,.T.);
#1153=ORIENTED_EDGE('',*,*,#737,.T.);
#1154=ORIENTED_EDGE('',*,*,#633,.T.);
#1155=CYLINDRICAL_SURFACE('',#1267,7.125);
#1156=CYLINDRICAL_SURFACE('',#1270,1.25);
#1157=CYLINDRICAL_SURFACE('',#1273,10.25);
#1158=CYLINDRICAL_SURFACE('',#1312,1.25);
#1159=CYLINDRICAL_SURFACE('',#1314,10.25);
#1160=CYLINDRICAL_SURFACE('',#1316,1.25);
#1161=CYLINDRICAL_SURFACE('',#1318,10.25);
#1162=CYLINDRICAL_SURFACE('',#1320,1.25);
#1163=CYLINDRICAL_SURFACE('',#1322,10.25);
#1164=CYLINDRICAL_SURFACE('',#1324,1.25);
#1165=CYLINDRICAL_SURFACE('',#1326,3.25);
#1166=CYLINDRICAL_SURFACE('',#1328,1.25);
#1167=CYLINDRICAL_SURFACE('',#1330,3.25);
#1168=CYLINDRICAL_SURFACE('',#1332,1.25);
#1169=CYLINDRICAL_SURFACE('',#1334,3.25);
#1170=CYLINDRICAL_SURFACE('',#1336,1.25);
#1171=CYLINDRICAL_SURFACE('',#1338,3.25);
#1172=CYLINDRICAL_SURFACE('',#1342,3.25);
#1173=CYLINDRICAL_SURFACE('',#1344,3.25);
#1174=CYLINDRICAL_SURFACE('',#1347,3.25);
#1175=CYLINDRICAL_SURFACE('',#1350,3.25);
#1176=CYLINDRICAL_SURFACE('',#1352,1.5);
#1177=CYLINDRICAL_SURFACE('',#1354,2.);
#1178=CYLINDRICAL_SURFACE('',#1356,2.);
#1179=CYLINDRICAL_SURFACE('',#1358,2.);
#1180=CYLINDRICAL_SURFACE('',#1360,2.);
#1181=CYLINDRICAL_SURFACE('',#1362,1.5);
#1182=CYLINDRICAL_SURFACE('',#1364,1.5);
#1183=CYLINDRICAL_SURFACE('',#1366,2.);
#1184=CYLINDRICAL_SURFACE('',#1368,2.);
#1185=CYLINDRICAL_SURFACE('',#1370,2.);
#1186=CYLINDRICAL_SURFACE('',#1372,2.);
#1187=CYLINDRICAL_SURFACE('',#1374,1.5);
#1188=CYLINDRICAL_SURFACE('',#1376,1.5);
#1189=CYLINDRICAL_SURFACE('',#1378,1.5);
#1190=CYLINDRICAL_SURFACE('',#1392,1.5);
#1191=CYLINDRICAL_SURFACE('',#1394,1.5);
#1192=CYLINDRICAL_SURFACE('',#1400,64.);
#1193=ADVANCED_FACE('',(#81),#1155,.F.);
#1194=ADVANCED_FACE('',(#82),#1156,.T.);
#1195=ADVANCED_FACE('',(#83),#1157,.F.);
#1196=ADVANCED_FACE('',(#84,#15,#16,#17,#18,#19,#20,#21,#22,#23,#24,#25,
#26,#27,#28,#29,#30,#31,#32,#33,#34,#35,#36),#59,.T.);
#1197=ADVANCED_FACE('',(#85),#1158,.T.);
#1198=ADVANCED_FACE('',(#86),#1159,.F.);
#1199=ADVANCED_FACE('',(#87),#1160,.T.);
#1200=ADVANCED_FACE('',(#88),#1161,.F.);
#1201=ADVANCED_FACE('',(#89),#1162,.T.);
#1202=ADVANCED_FACE('',(#90),#1163,.F.);
#1203=ADVANCED_FACE('',(#91),#1164,.T.);
#1204=ADVANCED_FACE('',(#92),#1165,.F.);
#1205=ADVANCED_FACE('',(#93),#1166,.T.);
#1206=ADVANCED_FACE('',(#94),#1167,.F.);
#1207=ADVANCED_FACE('',(#95),#1168,.T.);
#1208=ADVANCED_FACE('',(#96),#1169,.F.);
#1209=ADVANCED_FACE('',(#97),#1170,.T.);
#1210=ADVANCED_FACE('',(#98),#1171,.F.);
#1211=ADVANCED_FACE('',(#99),#60,.F.);
#1212=ADVANCED_FACE('',(#100),#61,.F.);
#1213=ADVANCED_FACE('',(#101),#1172,.F.);
#1214=ADVANCED_FACE('',(#102),#1173,.F.);
#1215=ADVANCED_FACE('',(#103),#62,.F.);
#1216=ADVANCED_FACE('',(#104),#1174,.F.);
#1217=ADVANCED_FACE('',(#105),#63,.F.);
#1218=ADVANCED_FACE('',(#106),#1175,.F.);
#1219=ADVANCED_FACE('',(#107),#1176,.F.);
#1220=ADVANCED_FACE('',(#108),#1177,.F.);
#1221=ADVANCED_FACE('',(#109),#1178,.F.);
#1222=ADVANCED_FACE('',(#110),#1179,.F.);
#1223=ADVANCED_FACE('',(#111),#1180,.F.);
#1224=ADVANCED_FACE('',(#112),#1181,.F.);
#1225=ADVANCED_FACE('',(#113),#1182,.F.);
#1226=ADVANCED_FACE('',(#114),#1183,.F.);
#1227=ADVANCED_FACE('',(#115),#1184,.F.);
#1228=ADVANCED_FACE('',(#116),#1185,.F.);
#1229=ADVANCED_FACE('',(#117),#1186,.F.);
#1230=ADVANCED_FACE('',(#118),#1187,.F.);
#1231=ADVANCED_FACE('',(#119),#1188,.F.);
#1232=ADVANCED_FACE('',(#120),#1189,.F.);
#1233=ADVANCED_FACE('',(#121),#64,.T.);
#1234=ADVANCED_FACE('',(#122),#65,.T.);
#1235=ADVANCED_FACE('',(#123),#66,.T.);
#1236=ADVANCED_FACE('',(#124),#67,.T.);
#1237=ADVANCED_FACE('',(#125),#68,.T.);
#1238=ADVANCED_FACE('',(#126),#69,.T.);
#1239=ADVANCED_FACE('',(#127),#70,.T.);
#1240=ADVANCED_FACE('',(#128),#71,.T.);
#1241=ADVANCED_FACE('',(#129),#72,.T.);
#1242=ADVANCED_FACE('',(#130),#73,.T.);
#1243=ADVANCED_FACE('',(#131),#74,.T.);
#1244=ADVANCED_FACE('',(#132),#75,.T.);
#1245=ADVANCED_FACE('',(#133),#1190,.F.);
#1246=ADVANCED_FACE('',(#134),#1191,.F.);
#1247=ADVANCED_FACE('',(#135),#76,.T.);
#1248=ADVANCED_FACE('',(#136),#77,.T.);
#1249=ADVANCED_FACE('',(#137),#78,.T.);
#1250=ADVANCED_FACE('',(#138),#79,.T.);
#1251=ADVANCED_FACE('',(#139),#1192,.T.);
#1252=ADVANCED_FACE('',(#140,#37,#38,#39,#40,#41,#42,#43,#44,#45,#46,#47,
#48,#49,#50,#51,#52,#53,#54,#55,#56,#57,#58),#80,.F.);
#1253=CLOSED_SHELL('',(#1193,#1194,#1195,#1196,#1197,#1198,#1199,#1200,
#1201,#1202,#1203,#1204,#1205,#1206,#1207,#1208,#1209,#1210,#1211,#1212,
#1213,#1214,#1215,#1216,#1217,#1218,#1219,#1220,#1221,#1222,#1223,#1224,
#1225,#1226,#1227,#1228,#1229,#1230,#1231,#1232,#1233,#1234,#1235,#1236,
#1237,#1238,#1239,#1240,#1241,#1242,#1243,#1244,#1245,#1246,#1247,#1248,
#1249,#1250,#1251,#1252));
#1254=DERIVED_UNIT_ELEMENT(#1256,1.);
#1255=DERIVED_UNIT_ELEMENT(#2131,-3.);
#1256=(
MASS_UNIT()
NAMED_UNIT(*)
SI_UNIT(.KILO.,.GRAM.)
);
#1257=DERIVED_UNIT((#1254,#1255));
#1258=MEASURE_REPRESENTATION_ITEM('density measure',
POSITIVE_RATIO_MEASURE(7850.),#1257);
#1259=PROPERTY_DEFINITION_REPRESENTATION(#1264,#1261);
#1260=PROPERTY_DEFINITION_REPRESENTATION(#1265,#1262);
#1261=REPRESENTATION('material name',(#1263),#2128);
#1262=REPRESENTATION('density',(#1258),#2128);
#1263=DESCRIPTIVE_REPRESENTATION_ITEM('Steel','Steel');
#1264=PROPERTY_DEFINITION('material property','material name',#2138);
#1265=PROPERTY_DEFINITION('material property','density of part',#2138);
#1266=AXIS2_PLACEMENT_3D('',#1775,#1403,#1404);
#1267=AXIS2_PLACEMENT_3D('',#1776,#1405,#1406);
#1268=AXIS2_PLACEMENT_3D('',#1778,#1407,#1408);
#1269=AXIS2_PLACEMENT_3D('',#1781,#1410,#1411);
#1270=AXIS2_PLACEMENT_3D('',#1782,#1412,#1413);
#1271=AXIS2_PLACEMENT_3D('',#1785,#1414,#1415);
#1272=AXIS2_PLACEMENT_3D('',#1789,#1417,#1418);
#1273=AXIS2_PLACEMENT_3D('',#1791,#1420,#1421);
#1274=AXIS2_PLACEMENT_3D('',#1793,#1422,#1423);
#1275=AXIS2_PLACEMENT_3D('',#1796,#1425,#1426);
#1276=AXIS2_PLACEMENT_3D('',#1797,#1427,#1428);
#1277=AXIS2_PLACEMENT_3D('',#1799,#1429,#1430);
#1278=AXIS2_PLACEMENT_3D('',#1801,#1431,#1432);
#1279=AXIS2_PLACEMENT_3D('',#1805,#1434,#1435);
#1280=AXIS2_PLACEMENT_3D('',#1807,#1436,#1437);
#1281=AXIS2_PLACEMENT_3D('',#1809,#1438,#1439);
#1282=AXIS2_PLACEMENT_3D('',#1811,#1440,#1441);
#1283=AXIS2_PLACEMENT_3D('',#1813,#1442,#1443);
#1284=AXIS2_PLACEMENT_3D('',#1817,#1445,#1446);
#1285=AXIS2_PLACEMENT_3D('',#1819,#1447,#1448);
#1286=AXIS2_PLACEMENT_3D('',#1821,#1449,#1450);
#1287=AXIS2_PLACEMENT_3D('',#1823,#1451,#1452);
#1288=AXIS2_PLACEMENT_3D('',#1825,#1453,#1454);
#1289=AXIS2_PLACEMENT_3D('',#1829,#1456,#1457);
#1290=AXIS2_PLACEMENT_3D('',#1831,#1458,#1459);
#1291=AXIS2_PLACEMENT_3D('',#1833,#1460,#1461);
#1292=AXIS2_PLACEMENT_3D('',#1835,#1462,#1463);
#1293=AXIS2_PLACEMENT_3D('',#1837,#1464,#1465);
#1294=AXIS2_PLACEMENT_3D('',#1841,#1467,#1468);
#1295=AXIS2_PLACEMENT_3D('',#1842,#1469,#1470);
#1296=AXIS2_PLACEMENT_3D('',#1844,#1471,#1472);
#1297=AXIS2_PLACEMENT_3D('',#1846,#1473,#1474);
#1298=AXIS2_PLACEMENT_3D('',#1872,#1487,#1488);
#1299=AXIS2_PLACEMENT_3D('',#1874,#1489,#1490);
#1300=AXIS2_PLACEMENT_3D('',#1884,#1495,#1496);
#1301=AXIS2_PLACEMENT_3D('',#1886,#1497,#1498);
#1302=AXIS2_PLACEMENT_3D('',#1888,#1499,#1500);
#1303=AXIS2_PLACEMENT_3D('',#1890,#1501,#1502);
#1304=AXIS2_PLACEMENT_3D('',#1892,#1503,#1504);
#1305=AXIS2_PLACEMENT_3D('',#1894,#1505,#1506);
#1306=AXIS2_PLACEMENT_3D('',#1896,#1507,#1508);
#1307=AXIS2_PLACEMENT_3D('',#1898,#1509,#1510);
#1308=AXIS2_PLACEMENT_3D('',#1900,#1511,#1512);
#1309=AXIS2_PLACEMENT_3D('',#1902,#1513,#1514);
#1310=AXIS2_PLACEMENT_3D('',#1904,#1515,#1516);
#1311=AXIS2_PLACEMENT_3D('',#1906,#1517,#1518);
#1312=AXIS2_PLACEMENT_3D('',#1907,#1519,#1520);
#1313=AXIS2_PLACEMENT_3D('',#1911,#1522,#1523);
#1314=AXIS2_PLACEMENT_3D('',#1913,#1525,#1526);
#1315=AXIS2_PLACEMENT_3D('',#1916,#1528,#1529);
#1316=AXIS2_PLACEMENT_3D('',#1917,#1530,#1531);
#1317=AXIS2_PLACEMENT_3D('',#1921,#1533,#1534);
#1318=AXIS2_PLACEMENT_3D('',#1923,#1536,#1537);
#1319=AXIS2_PLACEMENT_3D('',#1926,#1539,#1540);
#1320=AXIS2_PLACEMENT_3D('',#1927,#1541,#1542);
#1321=AXIS2_PLACEMENT_3D('',#1931,#1544,#1545);
#1322=AXIS2_PLACEMENT_3D('',#1933,#1547,#1548);
#1323=AXIS2_PLACEMENT_3D('',#1936,#1550,#1551);
#1324=AXIS2_PLACEMENT_3D('',#1937,#1552,#1553);
#1325=AXIS2_PLACEMENT_3D('',#1939,#1554,#1555);
#1326=AXIS2_PLACEMENT_3D('',#1941,#1557,#1558);
#1327=AXIS2_PLACEMENT_3D('',#1944,#1560,#1561);
#1328=AXIS2_PLACEMENT_3D('',#1945,#1562,#1563);
#1329=AXIS2_PLACEMENT_3D('',#1947,#1564,#1565);
#1330=AXIS2_PLACEMENT_3D('',#1949,#1567,#1568);
#1331=AXIS2_PLACEMENT_3D('',#1952,#1570,#1571);
#1332=AXIS2_PLACEMENT_3D('',#1953,#1572,#1573);
#1333=AXIS2_PLACEMENT_3D('',#1955,#1574,#1575);
#1334=AXIS2_PLACEMENT_3D('',#1957,#1577,#1578);
#1335=AXIS2_PLACEMENT_3D('',#1960,#1580,#1581);
#1336=AXIS2_PLACEMENT_3D('',#1961,#1582,#1583);
#1337=AXIS2_PLACEMENT_3D('',#1963,#1584,#1585);
#1338=AXIS2_PLACEMENT_3D('',#1965,#1587,#1588);
#1339=AXIS2_PLACEMENT_3D('',#1967,#1589,#1590);
#1340=AXIS2_PLACEMENT_3D('',#1969,#1592,#1593);
#1341=AXIS2_PLACEMENT_3D('',#1971,#1595,#1596);
#1342=AXIS2_PLACEMENT_3D('',#1975,#1599,#1600);
#1343=AXIS2_PLACEMENT_3D('',#1976,#1601,#1602);
#1344=AXIS2_PLACEMENT_3D('',#1977,#1603,#1604);
#1345=AXIS2_PLACEMENT_3D('',#1980,#1606,#1607);
#1346=AXIS2_PLACEMENT_3D('',#1981,#1608,#1609);
#1347=AXIS2_PLACEMENT_3D('',#1985,#1612,#1613);
#1348=AXIS2_PLACEMENT_3D('',#1986,#1614,#1615);
#1349=AXIS2_PLACEMENT_3D('',#1987,#1616,#1617);
#1350=AXIS2_PLACEMENT_3D('',#1991,#1620,#1621);
#1351=AXIS2_PLACEMENT_3D('',#1992,#1622,#1623);
#1352=AXIS2_PLACEMENT_3D('',#1993,#1624,#1625);
#1353=AXIS2_PLACEMENT_3D('',#1996,#1627,#1628);
#1354=AXIS2_PLACEMENT_3D('',#1997,#1629,#1630);
#1355=AXIS2_PLACEMENT_3D('',#2000,#1632,#1633);
#1356=AXIS2_PLACEMENT_3D('',#2001,#1634,#1635);
#1357=AXIS2_PLACEMENT_3D('',#2004,#1637,#1638);
#1358=AXIS2_PLACEMENT_3D('',#2005,#1639,#1640);
#1359=AXIS2_PLACEMENT_3D('',#2008,#1642,#1643);
#1360=AXIS2_PLACEMENT_3D('',#2009,#1644,#1645);
#1361=AXIS2_PLACEMENT_3D('',#2012,#1647,#1648);
#1362=AXIS2_PLACEMENT_3D('',#2013,#1649,#1650);
#1363=AXIS2_PLACEMENT_3D('',#2016,#1652,#1653);
#1364=AXIS2_PLACEMENT_3D('',#2017,#1654,#1655);
#1365=AXIS2_PLACEMENT_3D('',#2020,#1657,#1658);
#1366=AXIS2_PLACEMENT_3D('',#2021,#1659,#1660);
#1367=AXIS2_PLACEMENT_3D('',#2024,#1662,#1663);
#1368=AXIS2_PLACEMENT_3D('',#2025,#1664,#1665);
#1369=AXIS2_PLACEMENT_3D('',#2028,#1667,#1668);
#1370=AXIS2_PLACEMENT_3D('',#2029,#1669,#1670);
#1371=AXIS2_PLACEMENT_3D('',#2032,#1672,#1673);
#1372=AXIS2_PLACEMENT_3D('',#2033,#1674,#1675);
#1373=AXIS2_PLACEMENT_3D('',#2036,#1677,#1678);
#1374=AXIS2_PLACEMENT_3D('',#2037,#1679,#1680);
#1375=AXIS2_PLACEMENT_3D('',#2040,#1682,#1683);
#1376=AXIS2_PLACEMENT_3D('',#2041,#1684,#1685);
#1377=AXIS2_PLACEMENT_3D('',#2044,#1687,#1688);
#1378=AXIS2_PLACEMENT_3D('',#2045,#1689,#1690);
#1379=AXIS2_PLACEMENT_3D('',#2048,#1692,#1693);
#1380=AXIS2_PLACEMENT_3D('',#2049,#1694,#1695);
#1381=AXIS2_PLACEMENT_3D('',#2055,#1699,#1700);
#1382=AXIS2_PLACEMENT_3D('',#2059,#1703,#1704);
#1383=AXIS2_PLACEMENT_3D('',#2063,#1707,#1708);
#1384=AXIS2_PLACEMENT_3D('',#2065,#1710,#1711);
#1385=AXIS2_PLACEMENT_3D('',#2071,#1715,#1716);
#1386=AXIS2_PLACEMENT_3D('',#2075,#1719,#1720);
#1387=AXIS2_PLACEMENT_3D('',#2079,#1723,#1724);
#1388=AXIS2_PLACEMENT_3D('',#2081,#1726,#1727);
#1389=AXIS2_PLACEMENT_3D('',#2087,#1731,#1732);
#1390=AXIS2_PLACEMENT_3D('',#2091,#1735,#1736);
#1391=AXIS2_PLACEMENT_3D('',#2095,#1739,#1740);
#1392=AXIS2_PLACEMENT_3D('',#2097,#1742,#1743);
#1393=AXIS2_PLACEMENT_3D('',#2100,#1745,#1746);
#1394=AXIS2_PLACEMENT_3D('',#2101,#1747,#1748);
#1395=AXIS2_PLACEMENT_3D('',#2104,#1750,#1751);
#1396=AXIS2_PLACEMENT_3D('',#2105,#1752,#1753);
#1397=AXIS2_PLACEMENT_3D('',#2111,#1757,#1758);
#1398=AXIS2_PLACEMENT_3D('',#2115,#1761,#1762);
#1399=AXIS2_PLACEMENT_3D('',#2119,#1765,#1766);
#1400=AXIS2_PLACEMENT_3D('',#2121,#1768,#1769);
#1401=AXIS2_PLACEMENT_3D('',#2124,#1771,#1772);
#1402=AXIS2_PLACEMENT_3D('',#2125,#1773,#1774);
#1403=DIRECTION('axis',(0.,0.,1.));
#1404=DIRECTION('refdir',(1.,0.,0.));
#1405=DIRECTION('center_axis',(0.,0.,1.));
#1406=DIRECTION('ref_axis',(-2.433365533425E-16,-1.,0.));
#1407=DIRECTION('center_axis',(0.,0.,-1.));
#1408=DIRECTION('ref_axis',(-2.433365533425E-16,-1.,0.));
#1409=DIRECTION('',(0.,0.,1.));
#1410=DIRECTION('center_axis',(0.,0.,-1.));
#1411=DIRECTION('ref_axis',(-2.433365533425E-16,-1.,0.));
#1412=DIRECTION('center_axis',(0.,0.,1.));
#1413=DIRECTION('ref_axis',(0.367772408668653,0.92991583243972,0.));
#1414=DIRECTION('center_axis',(0.,0.,-1.));
#1415=DIRECTION('ref_axis',(0.367772408668653,0.92991583243972,0.));
#1416=DIRECTION('',(0.,0.,-1.));
#1417=DIRECTION('center_axis',(0.,0.,1.));
#1418=DIRECTION('ref_axis',(0.367772408668653,0.92991583243972,0.));
#1419=DIRECTION('',(0.,0.,1.));
#1420=DIRECTION('center_axis',(0.,0.,-1.));
#1421=DIRECTION('ref_axis',(-1.,0.,0.));
#1422=DIRECTION('center_axis',(0.,0.,-1.));
#1423=DIRECTION('ref_axis',(-1.,0.,0.));
#1424=DIRECTION('',(0.,0.,1.));
#1425=DIRECTION('center_axis',(0.,0.,-1.));
#1426=DIRECTION('ref_axis',(-1.,0.,0.));
#1427=DIRECTION('center_axis',(0.,0.,1.));
#1428=DIRECTION('ref_axis',(1.,0.,0.));
#1429=DIRECTION('center_axis',(0.,0.,-1.));
#1430=DIRECTION('ref_axis',(1.,0.,0.));
#1431=DIRECTION('center_axis',(0.,0.,-1.));
#1432=DIRECTION('ref_axis',(1.,0.,0.));
#1433=DIRECTION('',(0.,1.,0.));
#1434=DIRECTION('center_axis',(0.,0.,-1.));
#1435=DIRECTION('ref_axis',(1.,0.,0.));
#1436=DIRECTION('center_axis',(0.,0.,-1.));
#1437=DIRECTION('ref_axis',(0.440529942165859,-0.897737918356658,0.));
#1438=DIRECTION('center_axis',(0.,0.,-1.));
#1439=DIRECTION('ref_axis',(-1.,0.,0.));
#1440=DIRECTION('center_axis',(0.,0.,-1.));
#1441=DIRECTION('ref_axis',(0.929915832439721,-0.367772408668651,0.));
#1442=DIRECTION('center_axis',(0.,0.,-1.));
#1443=DIRECTION('ref_axis',(1.,0.,0.));
#1444=DIRECTION('',(1.,2.22044604925032E-15,0.));
#1445=DIRECTION('center_axis',(0.,0.,-1.));
#1446=DIRECTION('ref_axis',(1.,0.,0.));
#1447=DIRECTION('center_axis',(0.,0.,-1.));
#1448=DIRECTION('ref_axis',(-0.897737918356657,-0.440529942165861,0.));
#1449=DIRECTION('center_axis',(0.,0.,-1.));
#1450=DIRECTION('ref_axis',(-1.,0.,0.));
#1451=DIRECTION('center_axis',(0.,0.,-1.));
#1452=DIRECTION('ref_axis',(-0.367772408668651,-0.929915832439721,0.));
#1453=DIRECTION('center_axis',(0.,0.,-1.));
#1454=DIRECTION('ref_axis',(1.,0.,0.));
#1455=DIRECTION('',(0.,-1.,0.));
#1456=DIRECTION('center_axis',(0.,0.,-1.));
#1457=DIRECTION('ref_axis',(1.,0.,0.));
#1458=DIRECTION('center_axis',(0.,0.,-1.));
#1459=DIRECTION('ref_axis',(-0.440529942165861,0.897737918356657,0.));
#1460=DIRECTION('center_axis',(0.,0.,-1.));
#1461=DIRECTION('ref_axis',(-1.,0.,0.));
#1462=DIRECTION('center_axis',(0.,0.,-1.));
#1463=DIRECTION('ref_axis',(-0.92991583243972,0.367772408668653,0.));
#1464=DIRECTION('center_axis',(0.,0.,-1.));
#1465=DIRECTION('ref_axis',(1.,0.,0.));
#1466=DIRECTION('',(-1.,0.,0.));
#1467=DIRECTION('center_axis',(0.,0.,-1.));
#1468=DIRECTION('ref_axis',(1.,0.,0.));
#1469=DIRECTION('center_axis',(0.,0.,-1.));
#1470=DIRECTION('ref_axis',(0.897737918356658,0.440529942165859,0.));
#1471=DIRECTION('center_axis',(0.,0.,1.));
#1472=DIRECTION('ref_axis',(0.,1.,0.));
#1473=DIRECTION('center_axis',(0.,0.,1.));
#1474=DIRECTION('ref_axis',(1.,0.,0.));
#1475=DIRECTION('',(-1.,1.11022302462516E-15,0.));
#1476=DIRECTION('',(5.55111512312575E-15,1.,0.));
#1477=DIRECTION('',(1.,-2.22044604925032E-15,0.));
#1478=DIRECTION('',(0.,-1.,0.));
#1479=DIRECTION('',(-5.55111512312575E-15,-1.,0.));
#1480=DIRECTION('',(-1.,2.22044604925032E-15,0.));
#1481=DIRECTION('',(0.,1.,0.));
#1482=DIRECTION('',(1.,-1.11022302462516E-15,0.));
#1483=DIRECTION('',(1.,-5.55111512312575E-15,0.));
#1484=DIRECTION('',(-2.22044604925032E-15,-1.,0.));
#1485=DIRECTION('',(-1.,2.22044604925031E-15,0.));
#1486=DIRECTION('',(1.11022302462516E-15,1.,0.));
#1487=DIRECTION('center_axis',(0.,0.,1.));
#1488=DIRECTION('ref_axis',(0.,-1.,0.));
#1489=DIRECTION('center_axis',(0.,0.,1.));
#1490=DIRECTION('ref_axis',(-1.,0.,0.));
#1491=DIRECTION('',(-1.,5.55111512312574E-15,0.));
#1492=DIRECTION('',(2.22044604925032E-15,1.,0.));
#1493=DIRECTION('',(1.,2.2204460492503E-15,0.));
#1494=DIRECTION('',(-1.11022302462516E-15,-1.,0.));
#1495=DIRECTION('center_axis',(0.,0.,-1.));
#1496=DIRECTION('ref_axis',(-1.,0.,0.));
#1497=DIRECTION('center_axis',(0.,0.,-1.));
#1498=DIRECTION('ref_axis',(0.,-1.,0.));
#1499=DIRECTION('center_axis',(0.,0.,-1.));
#1500=DIRECTION('ref_axis',(0.,1.,0.));
#1501=DIRECTION('center_axis',(0.,0.,-1.));
#1502=DIRECTION('ref_axis',(0.,1.,0.));
#1503=DIRECTION('center_axis',(0.,0.,-1.));
#1504=DIRECTION('ref_axis',(0.,-1.,0.));
#1505=DIRECTION('center_axis',(0.,0.,-1.));
#1506=DIRECTION('ref_axis',(0.,-1.,0.));
#1507=DIRECTION('center_axis',(0.,0.,-1.));
#1508=DIRECTION('ref_axis',(1.,0.,0.));
#1509=DIRECTION('center_axis',(0.,0.,-1.));
#1510=DIRECTION('ref_axis',(-1.,0.,0.));
#1511=DIRECTION('center_axis',(0.,0.,-1.));
#1512=DIRECTION('ref_axis',(1.,0.,0.));
#1513=DIRECTION('center_axis',(0.,0.,-1.));
#1514=DIRECTION('ref_axis',(1.,0.,0.));
#1515=DIRECTION('center_axis',(0.,0.,-1.));
#1516=DIRECTION('ref_axis',(-1.,0.,0.));
#1517=DIRECTION('center_axis',(0.,0.,-1.));
#1518=DIRECTION('ref_axis',(0.,1.,0.));
#1519=DIRECTION('center_axis',(0.,0.,1.));
#1520=DIRECTION('ref_axis',(-0.367772408668651,-0.929915832439721,0.));
#1521=DIRECTION('',(0.,0.,-1.));
#1522=DIRECTION('center_axis',(0.,0.,1.));
#1523=DIRECTION('ref_axis',(-0.367772408668651,-0.929915832439721,0.));
#1524=DIRECTION('',(0.,0.,1.));
#1525=DIRECTION('center_axis',(0.,0.,-1.));
#1526=DIRECTION('ref_axis',(-1.,0.,0.));
#1527=DIRECTION('',(0.,0.,1.));
#1528=DIRECTION('center_axis',(0.,0.,-1.));
#1529=DIRECTION('ref_axis',(-1.,0.,0.));
#1530=DIRECTION('center_axis',(0.,0.,1.));
#1531=DIRECTION('ref_axis',(-0.92991583243972,0.367772408668653,0.));
#1532=DIRECTION('',(0.,0.,-1.));
#1533=DIRECTION('center_axis',(0.,0.,1.));
#1534=DIRECTION('ref_axis',(-0.92991583243972,0.367772408668653,0.));
#1535=DIRECTION('',(0.,0.,1.));
#1536=DIRECTION('center_axis',(0.,0.,-1.));
#1537=DIRECTION('ref_axis',(-1.,0.,0.));
#1538=DIRECTION('',(0.,0.,1.));
#1539=DIRECTION('center_axis',(0.,0.,-1.));
#1540=DIRECTION('ref_axis',(-1.,0.,0.));
#1541=DIRECTION('center_axis',(0.,0.,1.));
#1542=DIRECTION('ref_axis',(0.929915832439721,-0.367772408668651,0.));
#1543=DIRECTION('',(0.,0.,-1.));
#1544=DIRECTION('center_axis',(0.,0.,1.));
#1545=DIRECTION('ref_axis',(0.929915832439721,-0.367772408668651,0.));
#1546=DIRECTION('',(0.,0.,1.));
#1547=DIRECTION('center_axis',(0.,0.,-1.));
#1548=DIRECTION('ref_axis',(-1.,0.,0.));
#1549=DIRECTION('',(0.,0.,1.));
#1550=DIRECTION('center_axis',(0.,0.,-1.));
#1551=DIRECTION('ref_axis',(-1.,0.,0.));
#1552=DIRECTION('center_axis',(0.,0.,-1.));
#1553=DIRECTION('ref_axis',(-0.897737918356657,-0.440529942165861,0.));
#1554=DIRECTION('center_axis',(0.,0.,1.));
#1555=DIRECTION('ref_axis',(-0.897737918356657,-0.440529942165861,0.));
#1556=DIRECTION('',(0.,0.,-1.));
#1557=DIRECTION('center_axis',(0.,0.,1.));
#1558=DIRECTION('ref_axis',(1.,0.,0.));
#1559=DIRECTION('',(0.,0.,1.));
#1560=DIRECTION('center_axis',(0.,0.,-1.));
#1561=DIRECTION('ref_axis',(1.,0.,0.));
#1562=DIRECTION('center_axis',(0.,0.,-1.));
#1563=DIRECTION('ref_axis',(0.897737918356658,0.440529942165859,0.));
#1564=DIRECTION('center_axis',(0.,0.,1.));
#1565=DIRECTION('ref_axis',(0.897737918356658,0.440529942165859,0.));
#1566=DIRECTION('',(0.,0.,-1.));
#1567=DIRECTION('center_axis',(0.,0.,1.));
#1568=DIRECTION('ref_axis',(-0.857077989410077,-0.515186684677293,0.));
#1569=DIRECTION('',(0.,0.,1.));
#1570=DIRECTION('center_axis',(0.,0.,-1.));
#1571=DIRECTION('ref_axis',(1.,0.,0.));
#1572=DIRECTION('center_axis',(0.,0.,-1.));
#1573=DIRECTION('ref_axis',(-0.440529942165861,0.897737918356657,0.));
#1574=DIRECTION('center_axis',(0.,0.,1.));
#1575=DIRECTION('ref_axis',(-0.440529942165861,0.897737918356657,0.));
#1576=DIRECTION('',(0.,0.,-1.));
#1577=DIRECTION('center_axis',(0.,0.,1.));
#1578=DIRECTION('ref_axis',(1.,0.,0.));
#1579=DIRECTION('',(0.,0.,-1.));
#1580=DIRECTION('center_axis',(0.,0.,-1.));
#1581=DIRECTION('ref_axis',(1.,0.,0.));
#1582=DIRECTION('center_axis',(0.,0.,-1.));
#1583=DIRECTION('ref_axis',(0.440529942165859,-0.897737918356658,0.));
#1584=DIRECTION('center_axis',(0.,0.,1.));
#1585=DIRECTION('ref_axis',(0.440529942165859,-0.897737918356658,0.));
#1586=DIRECTION('',(0.,0.,-1.));
#1587=DIRECTION('center_axis',(0.,0.,1.));
#1588=DIRECTION('ref_axis',(1.,0.,0.));
#1589=DIRECTION('center_axis',(0.,0.,-1.));
#1590=DIRECTION('ref_axis',(1.,0.,0.));
#1591=DIRECTION('',(0.,0.,-1.));
#1592=DIRECTION('center_axis',(1.,0.,0.));
#1593=DIRECTION('ref_axis',(0.,1.,0.));
#1594=DIRECTION('',(0.,-1.,0.));
#1595=DIRECTION('center_axis',(-2.22044604925032E-15,1.,0.));
#1596=DIRECTION('ref_axis',(-1.,-2.22044604925032E-15,0.));
#1597=DIRECTION('',(0.,0.,1.));
#1598=DIRECTION('',(1.,2.22044604925032E-15,0.));
#1599=DIRECTION('center_axis',(0.,0.,1.));
#1600=DIRECTION('ref_axis',(-0.87689262286203,0.480686309322567,0.));
#1601=DIRECTION('center_axis',(0.,0.,-1.));
#1602=DIRECTION('ref_axis',(1.,0.,0.));
#1603=DIRECTION('center_axis',(0.,0.,1.));
#1604=DIRECTION('ref_axis',(1.,0.,0.));
#1605=DIRECTION('',(0.,0.,1.));
#1606=DIRECTION('center_axis',(0.,0.,-1.));
#1607=DIRECTION('ref_axis',(1.,0.,0.));
#1608=DIRECTION('center_axis',(-1.,0.,0.));
#1609=DIRECTION('ref_axis',(0.,-1.,0.));
#1610=DIRECTION('',(0.,0.,1.));
#1611=DIRECTION('',(0.,1.,0.));
#1612=DIRECTION('center_axis',(0.,0.,1.));
#1613=DIRECTION('ref_axis',(1.,0.,0.));
#1614=DIRECTION('center_axis',(0.,0.,-1.));
#1615=DIRECTION('ref_axis',(1.,0.,0.));
#1616=DIRECTION('center_axis',(0.,-1.,0.));
#1617=DIRECTION('ref_axis',(1.,0.,0.));
#1618=DIRECTION('',(0.,0.,1.));
#1619=DIRECTION('',(-1.,0.,0.));
#1620=DIRECTION('center_axis',(0.,0.,1.));
#1621=DIRECTION('ref_axis',(1.,0.,0.));
#1622=DIRECTION('center_axis',(0.,0.,-1.));
#1623=DIRECTION('ref_axis',(1.,0.,0.));
#1624=DIRECTION('center_axis',(0.,0.,-1.));
#1625=DIRECTION('ref_axis',(0.,1.,0.));
#1626=DIRECTION('',(0.,0.,-1.));
#1627=DIRECTION('center_axis',(0.,0.,-1.));
#1628=DIRECTION('ref_axis',(0.,1.,0.));
#1629=DIRECTION('center_axis',(0.,0.,-1.));
#1630=DIRECTION('ref_axis',(-1.,0.,0.));
#1631=DIRECTION('',(0.,0.,-1.));
#1632=DIRECTION('center_axis',(0.,0.,-1.));
#1633=DIRECTION('ref_axis',(-1.,0.,0.));
#1634=DIRECTION('center_axis',(0.,0.,-1.));
#1635=DIRECTION('ref_axis',(1.,0.,0.));
#1636=DIRECTION('',(0.,0.,-1.));
#1637=DIRECTION('center_axis',(0.,0.,-1.));
#1638=DIRECTION('ref_axis',(1.,0.,0.));
#1639=DIRECTION('center_axis',(0.,0.,-1.));
#1640=DIRECTION('ref_axis',(1.,0.,0.));
#1641=DIRECTION('',(0.,0.,-1.));
#1642=DIRECTION('center_axis',(0.,0.,-1.));
#1643=DIRECTION('ref_axis',(1.,0.,0.));
#1644=DIRECTION('center_axis',(0.,0.,-1.));
#1645=DIRECTION('ref_axis',(-1.,0.,0.));
#1646=DIRECTION('',(0.,0.,-1.));
#1647=DIRECTION('center_axis',(0.,0.,-1.));
#1648=DIRECTION('ref_axis',(-1.,0.,0.));
#1649=DIRECTION('center_axis',(0.,0.,-1.));
#1650=DIRECTION('ref_axis',(1.,0.,0.));
#1651=DIRECTION('',(0.,0.,-1.));
#1652=DIRECTION('center_axis',(0.,0.,-1.));
#1653=DIRECTION('ref_axis',(1.,0.,0.));
#1654=DIRECTION('center_axis',(0.,0.,-1.));
#1655=DIRECTION('ref_axis',(0.,-1.,0.));
#1656=DIRECTION('',(0.,0.,-1.));
#1657=DIRECTION('center_axis',(0.,0.,-1.));
#1658=DIRECTION('ref_axis',(0.,-1.,0.));
#1659=DIRECTION('center_axis',(0.,0.,-1.));
#1660=DIRECTION('ref_axis',(0.,-1.,0.));
#1661=DIRECTION('',(0.,0.,-1.));
#1662=DIRECTION('center_axis',(0.,0.,-1.));
#1663=DIRECTION('ref_axis',(0.,-1.,0.));
#1664=DIRECTION('center_axis',(0.,0.,-1.));
#1665=DIRECTION('ref_axis',(0.,1.,0.));
#1666=DIRECTION('',(0.,0.,-1.));
#1667=DIRECTION('center_axis',(0.,0.,-1.));
#1668=DIRECTION('ref_axis',(0.,1.,0.));
#1669=DIRECTION('center_axis',(0.,0.,-1.));
#1670=DIRECTION('ref_axis',(0.,1.,0.));
#1671=DIRECTION('',(0.,0.,-1.));
#1672=DIRECTION('center_axis',(0.,0.,-1.));
#1673=DIRECTION('ref_axis',(0.,1.,0.));
#1674=DIRECTION('center_axis',(0.,0.,-1.));
#1675=DIRECTION('ref_axis',(0.,-1.,0.));
#1676=DIRECTION('',(0.,0.,-1.));
#1677=DIRECTION('center_axis',(0.,0.,-1.));
#1678=DIRECTION('ref_axis',(0.,-1.,0.));
#1679=DIRECTION('center_axis',(0.,0.,-1.));
#1680=DIRECTION('ref_axis',(-1.,0.,0.));
#1681=DIRECTION('',(0.,0.,-1.));
#1682=DIRECTION('center_axis',(0.,0.,-1.));
#1683=DIRECTION('ref_axis',(-1.,0.,0.));
#1684=DIRECTION('center_axis',(0.,0.,1.));
#1685=DIRECTION('ref_axis',(0.,1.,0.));
#1686=DIRECTION('',(0.,0.,-1.));
#1687=DIRECTION('center_axis',(0.,0.,1.));
#1688=DIRECTION('ref_axis',(0.,1.,0.));
#1689=DIRECTION('center_axis',(0.,0.,1.));
#1690=DIRECTION('ref_axis',(1.,0.,0.));
#1691=DIRECTION('',(0.,0.,-1.));
#1692=DIRECTION('center_axis',(0.,0.,1.));
#1693=DIRECTION('ref_axis',(1.,0.,0.));
#1694=DIRECTION('center_axis',(1.,0.,0.));
#1695=DIRECTION('ref_axis',(0.,1.,0.));
#1696=DIRECTION('',(0.,-1.,0.));
#1697=DIRECTION('',(0.,0.,1.));
#1698=DIRECTION('',(0.,0.,-1.));
#1699=DIRECTION('center_axis',(2.22044604925032E-15,1.,0.));
#1700=DIRECTION('ref_axis',(-1.,2.22044604925032E-15,0.));
#1701=DIRECTION('',(1.,-2.22044604925032E-15,0.));
#1702=DIRECTION('',(0.,0.,1.));
#1703=DIRECTION('center_axis',(-1.,5.55111512312575E-15,0.));
#1704=DIRECTION('ref_axis',(-5.55111512312575E-15,-1.,0.));
#1705=DIRECTION('',(5.55111512312575E-15,1.,0.));
#1706=DIRECTION('',(0.,0.,1.));
#1707=DIRECTION('center_axis',(-1.11022302462516E-15,-1.,0.));
#1708=DIRECTION('ref_axis',(1.,-1.11022302462516E-15,0.));
#1709=DIRECTION('',(-1.,1.11022302462516E-15,0.));
#1710=DIRECTION('center_axis',(1.11022302462516E-15,1.,0.));
#1711=DIRECTION('ref_axis',(-1.,1.11022302462516E-15,0.));
#1712=DIRECTION('',(1.,-1.11022302462516E-15,0.));
#1713=DIRECTION('',(0.,0.,-1.));
#1714=DIRECTION('',(0.,0.,1.));
#1715=DIRECTION('center_axis',(-1.,0.,0.));
#1716=DIRECTION('ref_axis',(0.,-1.,0.));
#1717=DIRECTION('',(0.,1.,0.));
#1718=DIRECTION('',(0.,0.,1.));
#1719=DIRECTION('center_axis',(-2.22044604925032E-15,-1.,0.));
#1720=DIRECTION('ref_axis',(1.,-2.22044604925032E-15,0.));
#1721=DIRECTION('',(-1.,2.22044604925032E-15,0.));
#1722=DIRECTION('',(0.,0.,1.));
#1723=DIRECTION('center_axis',(1.,-5.55111512312575E-15,0.));
#1724=DIRECTION('ref_axis',(5.55111512312575E-15,1.,0.));
#1725=DIRECTION('',(-5.55111512312575E-15,-1.,0.));
#1726=DIRECTION('center_axis',(-1.,1.11022302462516E-15,0.));
#1727=DIRECTION('ref_axis',(-1.11022302462516E-15,-1.,0.));
#1728=DIRECTION('',(1.11022302462516E-15,1.,0.));
#1729=DIRECTION('',(0.,0.,-1.));
#1730=DIRECTION('',(0.,0.,-1.));
#1731=DIRECTION('center_axis',(-2.22044604925031E-15,-1.,0.));
#1732=DIRECTION('ref_axis',(1.,-2.22044604925031E-15,0.));
#1733=DIRECTION('',(-1.,2.22044604925031E-15,0.));
#1734=DIRECTION('',(0.,0.,1.));
#1735=DIRECTION('center_axis',(1.,-2.22044604925032E-15,0.));
#1736=DIRECTION('ref_axis',(2.22044604925032E-15,1.,0.));
#1737=DIRECTION('',(-2.22044604925032E-15,-1.,0.));
#1738=DIRECTION('',(0.,0.,1.));
#1739=DIRECTION('center_axis',(5.55111512312575E-15,1.,0.));
#1740=DIRECTION('ref_axis',(-1.,5.55111512312575E-15,0.));
#1741=DIRECTION('',(1.,-5.55111512312575E-15,0.));
#1742=DIRECTION('center_axis',(0.,0.,1.));
#1743=DIRECTION('ref_axis',(0.,-1.,0.));
#1744=DIRECTION('',(0.,0.,-1.));
#1745=DIRECTION('center_axis',(0.,0.,1.));
#1746=DIRECTION('ref_axis',(0.,-1.,0.));
#1747=DIRECTION('center_axis',(0.,0.,1.));
#1748=DIRECTION('ref_axis',(-1.,0.,0.));
#1749=DIRECTION('',(0.,0.,-1.));
#1750=DIRECTION('center_axis',(0.,0.,1.));
#1751=DIRECTION('ref_axis',(-1.,0.,0.));
#1752=DIRECTION('center_axis',(1.,-1.11022302462516E-15,0.));
#1753=DIRECTION('ref_axis',(1.11022302462516E-15,1.,0.));
#1754=DIRECTION('',(-1.11022302462516E-15,-1.,0.));
#1755=DIRECTION('',(0.,0.,1.));
#1756=DIRECTION('',(0.,0.,-1.));
#1757=DIRECTION('center_axis',(-2.2204460492503E-15,1.,0.));
#1758=DIRECTION('ref_axis',(-1.,-2.2204460492503E-15,0.));
#1759=DIRECTION('',(1.,2.2204460492503E-15,0.));
#1760=DIRECTION('',(0.,0.,1.));
#1761=DIRECTION('center_axis',(-1.,2.22044604925032E-15,0.));
#1762=DIRECTION('ref_axis',(-2.22044604925032E-15,-1.,0.));
#1763=DIRECTION('',(2.22044604925032E-15,1.,0.));
#1764=DIRECTION('',(0.,0.,1.));
#1765=DIRECTION('center_axis',(-5.55111512312574E-15,-1.,0.));
#1766=DIRECTION('ref_axis',(1.,-5.55111512312574E-15,0.));
#1767=DIRECTION('',(-1.,5.55111512312574E-15,0.));
#1768=DIRECTION('center_axis',(0.,0.,1.));
#1769=DIRECTION('ref_axis',(1.,0.,0.));
#1770=DIRECTION('',(0.,0.,-1.));
#1771=DIRECTION('center_axis',(0.,0.,-1.));
#1772=DIRECTION('ref_axis',(1.,0.,0.));
#1773=DIRECTION('center_axis',(0.,0.,1.));
#1774=DIRECTION('ref_axis',(1.,0.,0.));
#1775=CARTESIAN_POINT('',(0.,0.,0.));
#1776=CARTESIAN_POINT('Origin',(14.4520870201444,41.3531747743609,0.));
#1777=CARTESIAN_POINT('',(14.4520870201444,48.4781747743609,0.));
#1778=CARTESIAN_POINT('Origin',(14.4520870201444,41.3531747743609,0.));
#1779=CARTESIAN_POINT('',(14.4520870201444,48.4781747743609,3.));
#1780=CARTESIAN_POINT('',(14.4520870201444,48.4781747743609,0.));
#1781=CARTESIAN_POINT('Origin',(14.4520870201444,41.3531747743609,3.));
#1782=CARTESIAN_POINT('Origin',(-10.5275488923488,-4.62825175624715,3.));
#1783=CARTESIAN_POINT('',(-11.0182020575208,-3.47857377024119,3.));
#1784=CARTESIAN_POINT('',(-9.38325009970222,-4.12518091317681,3.));
#1785=CARTESIAN_POINT('Origin',(-10.5275488923488,-4.62825175624715,3.));
#1786=CARTESIAN_POINT('',(-9.38325009970222,-4.12518091317681,0.));
#1787=CARTESIAN_POINT('',(-9.38325009970222,-4.12518091317681,3.));
#1788=CARTESIAN_POINT('',(-11.0182020575208,-3.47857377024119,0.));
#1789=CARTESIAN_POINT('Origin',(-10.5275488923488,-4.62825175624715,0.));
#1790=CARTESIAN_POINT('',(-11.0182020575208,-3.47857377024119,3.));
#1791=CARTESIAN_POINT('Origin',(0.,0.,3.));
#1792=CARTESIAN_POINT('',(-3.36622831748303,-9.68147751712389,3.));
#1793=CARTESIAN_POINT('Origin',(0.,0.,3.));
#1794=CARTESIAN_POINT('',(-3.36622831748303,-9.68147751712389,0.));
#1795=CARTESIAN_POINT('',(-3.36622831748303,-9.68147751712389,3.));
#1796=CARTESIAN_POINT('Origin',(0.,0.,0.));
#1797=CARTESIAN_POINT('Origin',(0.,0.,3.));
#1798=CARTESIAN_POINT('',(-64.,7.83773951454306E-15,3.));
#1799=CARTESIAN_POINT('Origin',(0.,0.,3.));
#1800=CARTESIAN_POINT('',(-15.5000002235169,-1.02178605944726,3.));
#1801=CARTESIAN_POINT('Origin',(-12.2939002869678,-0.489411006625655,3.));
#1802=CARTESIAN_POINT('',(-15.5000002235169,0.0429640461959514,3.));
#1803=CARTESIAN_POINT('',(-15.5000002235174,9.71445146547012E-16,3.));
#1804=CARTESIAN_POINT('',(-11.2598551681145,2.59170091801706,3.));
#1805=CARTESIAN_POINT('Origin',(-12.2939002869678,-0.489411006625655,3.));
#1806=CARTESIAN_POINT('',(-9.68147751712389,3.36622831748303,3.));
#1807=CARTESIAN_POINT('Origin',(-10.862145507017,3.77674396595657,3.));
#1808=CARTESIAN_POINT('',(-4.12518091317681,9.38325009970222,3.));
#1809=CARTESIAN_POINT('Origin',(0.,0.,3.));
#1810=CARTESIAN_POINT('',(-3.47857377024119,11.0182020575208,3.));
#1811=CARTESIAN_POINT('Origin',(-4.62825175624716,10.5275488923488,3.));
#1812=CARTESIAN_POINT('',(-1.02178605944726,15.5000002235169,3.));
#1813=CARTESIAN_POINT('Origin',(-0.489411006625656,12.2939002869678,3.));
#1814=CARTESIAN_POINT('',(0.0429640461959323,15.5000002235169,3.));
#1815=CARTESIAN_POINT('',(-1.94289031790945E-14,15.5000002235174,3.));
#1816=CARTESIAN_POINT('',(2.59170091801706,11.2598551681145,3.));
#1817=CARTESIAN_POINT('Origin',(-0.489411006625656,12.2939002869678,3.));
#1818=CARTESIAN_POINT('',(3.36622831748303,9.68147751712389,3.));
#1819=CARTESIAN_POINT('Origin',(3.77674396595657,10.862145507017,3.));
#1820=CARTESIAN_POINT('',(9.38325009970222,4.12518091317681,3.));
#1821=CARTESIAN_POINT('Origin',(0.,0.,3.));
#1822=CARTESIAN_POINT('',(11.0182020575208,3.47857377024119,3.));
#1823=CARTESIAN_POINT('Origin',(10.5275488923488,4.62825175624716,3.));
#1824=CARTESIAN_POINT('',(15.5000002235169,1.02178605944726,3.));
#1825=CARTESIAN_POINT('Origin',(12.2939002869678,0.489411006625657,3.));
#1826=CARTESIAN_POINT('',(15.5000002235169,-0.0429640461959498,3.));
#1827=CARTESIAN_POINT('',(15.5000002235174,0.,3.));
#1828=CARTESIAN_POINT('',(11.2598551681145,-2.59170091801706,3.));
#1829=CARTESIAN_POINT('Origin',(12.2939002869678,0.489411006625657,3.));
#1830=CARTESIAN_POINT('',(9.68147751712389,-3.36622831748303,3.));
#1831=CARTESIAN_POINT('Origin',(10.862145507017,-3.77674396595657,3.));
#1832=CARTESIAN_POINT('',(4.12518091317681,-9.38325009970222,3.));
#1833=CARTESIAN_POINT('Origin',(0.,0.,3.));
#1834=CARTESIAN_POINT('',(3.47857377024118,-11.0182020575208,3.));
#1835=CARTESIAN_POINT('Origin',(4.62825175624715,-10.5275488923488,3.));
#1836=CARTESIAN_POINT('',(1.02178605944727,-15.5000002235169,3.));
#1837=CARTESIAN_POINT('Origin',(0.489411006625655,-12.2939002869678,3.));
#1838=CARTESIAN_POINT('',(-0.0429640461959534,-15.5000002235169,3.));
#1839=CARTESIAN_POINT('',(-1.66533453693773E-15,-15.5000002235174,3.));
#1840=CARTESIAN_POINT('',(-2.59170091801706,-11.2598551681145,3.));
#1841=CARTESIAN_POINT('Origin',(0.489411006625655,-12.2939002869678,3.));
#1842=CARTESIAN_POINT('Origin',(-3.77674396595657,-10.862145507017,3.));
#1843=CARTESIAN_POINT('',(31.4571068970951,-9.45710666529014,3.));
#1844=CARTESIAN_POINT('Origin',(31.4571068970951,-7.95710666529014,3.));
#1845=CARTESIAN_POINT('',(-9.45710666529014,-31.4571068970951,3.));
#1846=CARTESIAN_POINT('Origin',(-7.95710666529014,-31.4571068970951,3.));
#1847=CARTESIAN_POINT('',(-22.9499999997968,-29.5500000000021,3.));
#1848=CARTESIAN_POINT('',(-18.5499999997968,-29.5500000000021,3.));
#1849=CARTESIAN_POINT('',(-11.3749999998984,-29.5500000000021,3.));
#1850=CARTESIAN_POINT('',(-18.5499999997968,-31.9500000000021,3.));
#1851=CARTESIAN_POINT('',(-18.5499999997967,-14.875000000001,3.));
#1852=CARTESIAN_POINT('',(-22.9499999997968,-31.9500000000021,3.));
#1853=CARTESIAN_POINT('',(-9.37499999989842,-31.9500000000021,3.));
#1854=CARTESIAN_POINT('',(-22.9499999997968,-15.875000000001,3.));
#1855=CARTESIAN_POINT('',(18.5499999997968,29.5500000000021,3.));
#1856=CARTESIAN_POINT('',(18.5499999997968,31.9500000000021,3.));
#1857=CARTESIAN_POINT('',(18.5499999997967,14.875000000001,3.));
#1858=CARTESIAN_POINT('',(22.9499999997968,31.9500000000021,3.));
#1859=CARTESIAN_POINT('',(9.37499999989842,31.9500000000021,3.));
#1860=CARTESIAN_POINT('',(22.9499999997968,29.5500000000021,3.));
#1861=CARTESIAN_POINT('',(22.9499999997968,15.875000000001,3.));
#1862=CARTESIAN_POINT('',(11.3749999998984,29.5500000000021,3.));
#1863=CARTESIAN_POINT('',(-29.5500000000021,18.5499999997968,3.));
#1864=CARTESIAN_POINT('',(-31.9500000000021,18.5499999997968,3.));
#1865=CARTESIAN_POINT('',(-14.875000000001,18.5499999997967,3.));
#1866=CARTESIAN_POINT('',(-31.9500000000021,22.9499999997968,3.));
#1867=CARTESIAN_POINT('',(-31.9500000000021,9.37499999989842,3.));
#1868=CARTESIAN_POINT('',(-29.5500000000021,22.9499999997968,3.));
#1869=CARTESIAN_POINT('',(-15.875000000001,22.9499999997967,3.));
#1870=CARTESIAN_POINT('',(-29.5500000000021,11.3749999998984,3.));
#1871=CARTESIAN_POINT('',(-31.4571068970951,9.45710666529015,3.));
#1872=CARTESIAN_POINT('Origin',(-31.4571068970951,7.95710666529015,3.));
#1873=CARTESIAN_POINT('',(9.45710666529014,31.4571068970951,3.));
#1874=CARTESIAN_POINT('Origin',(7.95710666529014,31.4571068970951,3.));
#1875=CARTESIAN_POINT('',(29.5500000000021,-18.5499999997968,3.));
#1876=CARTESIAN_POINT('',(31.9500000000021,-18.5499999997968,3.));
#1877=CARTESIAN_POINT('',(14.875000000001,-18.5499999997967,3.));
#1878=CARTESIAN_POINT('',(31.9500000000021,-22.9499999997968,3.));
#1879=CARTESIAN_POINT('',(31.9500000000021,-9.37499999989842,3.));
#1880=CARTESIAN_POINT('',(29.5500000000021,-22.9499999997968,3.));
#1881=CARTESIAN_POINT('',(15.8750000000011,-22.9499999997968,3.));
#1882=CARTESIAN_POINT('',(29.5500000000021,-11.3749999998984,3.));
#1883=CARTESIAN_POINT('',(-21.2166310350528,17.3624193437683,3.));
#1884=CARTESIAN_POINT('Origin',(-22.7166310350528,17.3624193437683,3.));
#1885=CARTESIAN_POINT('',(49.6937797915313,2.3139468170275,3.));
#1886=CARTESIAN_POINT('Origin',(49.6937797915313,0.313946817027503,3.));
#1887=CARTESIAN_POINT('',(-49.6937797915313,-2.3139468170275,3.));
#1888=CARTESIAN_POINT('Origin',(-49.6937797915313,-0.313946817027497,3.));
#1889=CARTESIAN_POINT('',(-49.6937797915313,-28.6860531829725,3.));
#1890=CARTESIAN_POINT('Origin',(-49.6937797915313,-26.6860531829725,3.));
#1891=CARTESIAN_POINT('',(49.6937797915313,28.6860531829725,3.));
#1892=CARTESIAN_POINT('Origin',(49.6937797915313,26.6860531829725,3.));
#1893=CARTESIAN_POINT('',(-17.3624193437683,-21.2166310350528,3.));
#1894=CARTESIAN_POINT('Origin',(-17.3624193437683,-22.7166310350528,3.));
#1895=CARTESIAN_POINT('',(21.2166310350528,-17.3624193437683,3.));
#1896=CARTESIAN_POINT('Origin',(22.7166310350528,-17.3624193437683,3.));
#1897=CARTESIAN_POINT('',(28.6860531829725,-49.6937797915313,3.));
#1898=CARTESIAN_POINT('Origin',(26.6860531829725,-49.6937797915313,3.));
#1899=CARTESIAN_POINT('',(-28.6860531829725,49.6937797915313,3.));
#1900=CARTESIAN_POINT('Origin',(-26.6860531829725,49.6937797915313,3.));
#1901=CARTESIAN_POINT('',(-2.3139468170275,49.6937797915313,3.));
#1902=CARTESIAN_POINT('Origin',(-0.3139468170275,49.6937797915313,3.));
#1903=CARTESIAN_POINT('',(2.31394681702751,-49.6937797915313,3.));
#1904=CARTESIAN_POINT('Origin',(0.313946817027506,-49.6937797915313,3.));
#1905=CARTESIAN_POINT('',(17.3624193437683,21.2166310350528,3.));
#1906=CARTESIAN_POINT('Origin',(17.3624193437683,22.7166310350528,3.));
#1907=CARTESIAN_POINT('Origin',(10.5275488923488,4.62825175624716,3.));
#1908=CARTESIAN_POINT('',(9.38325009970222,4.12518091317681,0.));
#1909=CARTESIAN_POINT('',(9.38325009970222,4.12518091317681,3.));
#1910=CARTESIAN_POINT('',(11.0182020575208,3.47857377024119,0.));
#1911=CARTESIAN_POINT('Origin',(10.5275488923488,4.62825175624716,0.));
#1912=CARTESIAN_POINT('',(11.0182020575208,3.47857377024119,3.));
#1913=CARTESIAN_POINT('Origin',(0.,0.,3.));
#1914=CARTESIAN_POINT('',(3.36622831748303,9.68147751712389,0.));
#1915=CARTESIAN_POINT('',(3.36622831748303,9.68147751712389,3.));
#1916=CARTESIAN_POINT('Origin',(0.,0.,0.));
#1917=CARTESIAN_POINT('Origin',(4.62825175624715,-10.5275488923488,3.));
#1918=CARTESIAN_POINT('',(4.12518091317681,-9.38325009970222,0.));
#1919=CARTESIAN_POINT('',(4.12518091317681,-9.38325009970222,3.));
#1920=CARTESIAN_POINT('',(3.47857377024118,-11.0182020575208,0.));
#1921=CARTESIAN_POINT('Origin',(4.62825175624715,-10.5275488923488,0.));
#1922=CARTESIAN_POINT('',(3.47857377024118,-11.0182020575208,3.));
#1923=CARTESIAN_POINT('Origin',(0.,0.,3.));
#1924=CARTESIAN_POINT('',(9.68147751712389,-3.36622831748303,0.));
#1925=CARTESIAN_POINT('',(9.68147751712389,-3.36622831748303,3.));
#1926=CARTESIAN_POINT('Origin',(0.,0.,0.));
#1927=CARTESIAN_POINT('Origin',(-4.62825175624716,10.5275488923488,3.));
#1928=CARTESIAN_POINT('',(-4.12518091317681,9.38325009970222,0.));
#1929=CARTESIAN_POINT('',(-4.12518091317681,9.38325009970222,3.));
#1930=CARTESIAN_POINT('',(-3.47857377024119,11.0182020575208,0.));
#1931=CARTESIAN_POINT('Origin',(-4.62825175624716,10.5275488923488,0.));
#1932=CARTESIAN_POINT('',(-3.47857377024119,11.0182020575208,3.));
#1933=CARTESIAN_POINT('Origin',(0.,0.,3.));
#1934=CARTESIAN_POINT('',(-9.68147751712389,3.36622831748303,0.));
#1935=CARTESIAN_POINT('',(-9.68147751712389,3.36622831748303,3.));
#1936=CARTESIAN_POINT('Origin',(0.,0.,0.));
#1937=CARTESIAN_POINT('Origin',(3.77674396595657,10.862145507017,3.));
#1938=CARTESIAN_POINT('',(2.59170091801706,11.2598551681145,0.));
#1939=CARTESIAN_POINT('Origin',(3.77674396595657,10.862145507017,0.));
#1940=CARTESIAN_POINT('',(2.59170091801706,11.2598551681145,3.));
#1941=CARTESIAN_POINT('Origin',(-0.489411006625656,12.2939002869678,0.));
#1942=CARTESIAN_POINT('',(0.0429640461959323,15.5000002235169,0.));
#1943=CARTESIAN_POINT('',(0.0429640461864833,15.5000002235174,0.));
#1944=CARTESIAN_POINT('Origin',(-0.489411006625656,12.2939002869678,0.));
#1945=CARTESIAN_POINT('Origin',(-3.77674396595657,-10.862145507017,3.));
#1946=CARTESIAN_POINT('',(-2.59170091801706,-11.2598551681145,0.));
#1947=CARTESIAN_POINT('Origin',(-3.77674396595657,-10.862145507017,0.));
#1948=CARTESIAN_POINT('',(-2.59170091801706,-11.2598551681145,3.));
#1949=CARTESIAN_POINT('Origin',(0.489411006625655,-12.2939002869678,0.));
#1950=CARTESIAN_POINT('',(-0.0429640461959534,-15.5000002235169,0.));
#1951=CARTESIAN_POINT('',(-0.0429640461865154,-15.5000002235174,0.));
#1952=CARTESIAN_POINT('Origin',(0.489411006625655,-12.2939002869678,0.));
#1953=CARTESIAN_POINT('Origin',(10.862145507017,-3.77674396595657,3.));
#1954=CARTESIAN_POINT('',(11.2598551681145,-2.59170091801706,0.));
#1955=CARTESIAN_POINT('Origin',(10.862145507017,-3.77674396595657,0.));
#1956=CARTESIAN_POINT('',(11.2598551681145,-2.59170091801706,3.));
#1957=CARTESIAN_POINT('Origin',(12.2939002869678,0.489411006625657,0.));
#1958=CARTESIAN_POINT('',(15.5000002235169,-0.0429640461959498,0.));
#1959=CARTESIAN_POINT('',(15.5000002235174,-0.0429640461865104,0.));
#1960=CARTESIAN_POINT('Origin',(12.2939002869678,0.489411006625657,0.));
#1961=CARTESIAN_POINT('Origin',(-10.862145507017,3.77674396595657,3.));
#1962=CARTESIAN_POINT('',(-11.2598551681145,2.59170091801706,0.));
#1963=CARTESIAN_POINT('Origin',(-10.862145507017,3.77674396595657,0.));
#1964=CARTESIAN_POINT('',(-11.2598551681145,2.59170091801706,3.));
#1965=CARTESIAN_POINT('Origin',(12.2939002869678,0.489411006625657,0.));
#1966=CARTESIAN_POINT('',(15.5000002235169,1.02178605944726,0.));
#1967=CARTESIAN_POINT('Origin',(12.2939002869678,0.489411006625657,0.));
#1968=CARTESIAN_POINT('',(15.5000002235174,1.02178605943782,0.));
#1969=CARTESIAN_POINT('Origin',(15.5000002235174,0.,0.));
#1970=CARTESIAN_POINT('',(15.5000002235174,0.,0.));
#1971=CARTESIAN_POINT('Origin',(-4.44089209850063E-15,15.5000002235174,
0.));
#1972=CARTESIAN_POINT('',(-1.02178605944726,15.5000002235169,0.));
#1973=CARTESIAN_POINT('',(-1.02178605943781,15.5000002235174,0.));
#1974=CARTESIAN_POINT('',(-1.94289031790945E-14,15.5000002235174,0.));
#1975=CARTESIAN_POINT('Origin',(-0.489411006625656,12.2939002869678,0.));
#1976=CARTESIAN_POINT('Origin',(-0.489411006625656,12.2939002869678,0.));
#1977=CARTESIAN_POINT('Origin',(-12.2939002869678,-0.489411006625655,0.));
#1978=CARTESIAN_POINT('',(-15.5000002235169,0.0429640461959514,0.));
#1979=CARTESIAN_POINT('',(-15.5000002235174,0.0429640461865146,0.));
#1980=CARTESIAN_POINT('Origin',(-12.2939002869678,-0.489411006625655,0.));
#1981=CARTESIAN_POINT('Origin',(-15.5000002235174,1.94289029309402E-15,
0.));
#1982=CARTESIAN_POINT('',(-15.5000002235169,-1.02178605944726,0.));
#1983=CARTESIAN_POINT('',(-15.5000002235174,-1.02178605943783,0.));
#1984=CARTESIAN_POINT('',(-15.5000002235174,9.71445146547012E-16,0.));
#1985=CARTESIAN_POINT('Origin',(-12.2939002869678,-0.489411006625655,0.));
#1986=CARTESIAN_POINT('Origin',(-12.2939002869678,-0.489411006625655,0.));
#1987=CARTESIAN_POINT('Origin',(-3.33066907387547E-15,-15.5000002235174,
0.));
#1988=CARTESIAN_POINT('',(1.02178605944727,-15.5000002235169,0.));
#1989=CARTESIAN_POINT('',(1.02178605943782,-15.5000002235174,0.));
#1990=CARTESIAN_POINT('',(-1.66533453693773E-15,-15.5000002235174,0.));
#1991=CARTESIAN_POINT('Origin',(0.489411006625655,-12.2939002869678,0.));
#1992=CARTESIAN_POINT('Origin',(0.489411006625655,-12.2939002869678,0.));
#1993=CARTESIAN_POINT('Origin',(17.3624193437683,22.7166310350528,3.));
#1994=CARTESIAN_POINT('',(17.3624193437683,21.2166310350528,0.));
#1995=CARTESIAN_POINT('',(17.3624193437683,21.2166310350528,3.));
#1996=CARTESIAN_POINT('Origin',(17.3624193437683,22.7166310350528,0.));
#1997=CARTESIAN_POINT('Origin',(0.313946817027506,-49.6937797915313,3.));
#1998=CARTESIAN_POINT('',(2.31394681702751,-49.6937797915313,0.));
#1999=CARTESIAN_POINT('',(2.31394681702751,-49.6937797915313,3.));
#2000=CARTESIAN_POINT('Origin',(0.313946817027506,-49.6937797915313,0.));
#2001=CARTESIAN_POINT('Origin',(-0.3139468170275,49.6937797915313,3.));
#2002=CARTESIAN_POINT('',(-2.3139468170275,49.6937797915313,0.));
#2003=CARTESIAN_POINT('',(-2.3139468170275,49.6937797915313,3.));
#2004=CARTESIAN_POINT('Origin',(-0.3139468170275,49.6937797915313,0.));
#2005=CARTESIAN_POINT('Origin',(-26.6860531829725,49.6937797915313,3.));
#2006=CARTESIAN_POINT('',(-28.6860531829725,49.6937797915313,0.));
#2007=CARTESIAN_POINT('',(-28.6860531829725,49.6937797915313,3.));
#2008=CARTESIAN_POINT('Origin',(-26.6860531829725,49.6937797915313,0.));
#2009=CARTESIAN_POINT('Origin',(26.6860531829725,-49.6937797915313,3.));
#2010=CARTESIAN_POINT('',(28.6860531829725,-49.6937797915313,0.));
#2011=CARTESIAN_POINT('',(28.6860531829725,-49.6937797915313,3.));
#2012=CARTESIAN_POINT('Origin',(26.6860531829725,-49.6937797915313,0.));
#2013=CARTESIAN_POINT('Origin',(22.7166310350528,-17.3624193437683,3.));
#2014=CARTESIAN_POINT('',(21.2166310350528,-17.3624193437683,0.));
#2015=CARTESIAN_POINT('',(21.2166310350528,-17.3624193437683,3.));
#2016=CARTESIAN_POINT('Origin',(22.7166310350528,-17.3624193437683,0.));
#2017=CARTESIAN_POINT('Origin',(-17.3624193437683,-22.7166310350528,3.));
#2018=CARTESIAN_POINT('',(-17.3624193437683,-21.2166310350528,0.));
#2019=CARTESIAN_POINT('',(-17.3624193437683,-21.2166310350528,3.));
#2020=CARTESIAN_POINT('Origin',(-17.3624193437683,-22.7166310350528,0.));
#2021=CARTESIAN_POINT('Origin',(49.6937797915313,26.6860531829725,3.));
#2022=CARTESIAN_POINT('',(49.6937797915313,28.6860531829725,0.));
#2023=CARTESIAN_POINT('',(49.6937797915313,28.6860531829725,3.));
#2024=CARTESIAN_POINT('Origin',(49.6937797915313,26.6860531829725,0.));
#2025=CARTESIAN_POINT('Origin',(-49.6937797915313,-26.6860531829725,3.));
#2026=CARTESIAN_POINT('',(-49.6937797915313,-28.6860531829725,0.));
#2027=CARTESIAN_POINT('',(-49.6937797915313,-28.6860531829725,3.));
#2028=CARTESIAN_POINT('Origin',(-49.6937797915313,-26.6860531829725,0.));
#2029=CARTESIAN_POINT('Origin',(-49.6937797915313,-0.313946817027497,3.));
#2030=CARTESIAN_POINT('',(-49.6937797915313,-2.3139468170275,0.));
#2031=CARTESIAN_POINT('',(-49.6937797915313,-2.3139468170275,3.));
#2032=CARTESIAN_POINT('Origin',(-49.6937797915313,-0.313946817027497,0.));
#2033=CARTESIAN_POINT('Origin',(49.6937797915313,0.313946817027503,3.));
#2034=CARTESIAN_POINT('',(49.6937797915313,2.3139468170275,0.));
#2035=CARTESIAN_POINT('',(49.6937797915313,2.3139468170275,3.));
#2036=CARTESIAN_POINT('Origin',(49.6937797915313,0.313946817027503,0.));
#2037=CARTESIAN_POINT('Origin',(-22.7166310350528,17.3624193437683,3.));
#2038=CARTESIAN_POINT('',(-21.2166310350528,17.3624193437683,0.));
#2039=CARTESIAN_POINT('',(-21.2166310350528,17.3624193437683,3.));
#2040=CARTESIAN_POINT('Origin',(-22.7166310350528,17.3624193437683,0.));
#2041=CARTESIAN_POINT('Origin',(31.4571068970951,-7.95710666529014,0.));
#2042=CARTESIAN_POINT('',(31.4571068970951,-9.45710666529014,0.));
#2043=CARTESIAN_POINT('',(31.4571068970951,-9.45710666529014,0.));
#2044=CARTESIAN_POINT('Origin',(31.4571068970951,-7.95710666529014,0.));
#2045=CARTESIAN_POINT('Origin',(-7.95710666529014,-31.4571068970951,0.));
#2046=CARTESIAN_POINT('',(-9.45710666529014,-31.4571068970951,0.));
#2047=CARTESIAN_POINT('',(-9.45710666529014,-31.4571068970951,0.));
#2048=CARTESIAN_POINT('Origin',(-7.95710666529014,-31.4571068970951,0.));
#2049=CARTESIAN_POINT('Origin',(-22.9499999997968,-31.7500000000021,0.));
#2050=CARTESIAN_POINT('',(-22.9499999997968,-31.9500000000021,0.));
#2051=CARTESIAN_POINT('',(-22.9499999997968,-29.5500000000021,0.));
#2052=CARTESIAN_POINT('',(-22.9499999997968,-15.875000000001,0.));
#2053=CARTESIAN_POINT('',(-22.9499999997968,-29.5500000000021,0.));
#2054=CARTESIAN_POINT('',(-22.9499999997968,-31.9500000000021,0.));
#2055=CARTESIAN_POINT('Origin',(-18.7499999997968,-31.9500000000021,0.));
#2056=CARTESIAN_POINT('',(-18.5499999997968,-31.9500000000021,0.));
#2057=CARTESIAN_POINT('',(-9.37499999989842,-31.9500000000021,0.));
#2058=CARTESIAN_POINT('',(-18.5499999997968,-31.9500000000021,0.));
#2059=CARTESIAN_POINT('Origin',(-18.5499999997968,-29.7500000000021,0.));
#2060=CARTESIAN_POINT('',(-18.5499999997968,-29.5500000000021,0.));
#2061=CARTESIAN_POINT('',(-18.5499999997967,-14.875000000001,0.));
#2062=CARTESIAN_POINT('',(-18.5499999997968,-29.5500000000021,0.));
#2063=CARTESIAN_POINT('Origin',(-22.7499999997968,-29.5500000000021,0.));
#2064=CARTESIAN_POINT('',(-11.3749999998984,-29.5500000000021,0.));
#2065=CARTESIAN_POINT('Origin',(22.7499999997968,29.5500000000021,0.));
#2066=CARTESIAN_POINT('',(22.9499999997968,29.5500000000021,0.));
#2067=CARTESIAN_POINT('',(18.5499999997968,29.5500000000021,0.));
#2068=CARTESIAN_POINT('',(11.3749999998984,29.5500000000021,0.));
#2069=CARTESIAN_POINT('',(18.5499999997968,29.5500000000021,0.));
#2070=CARTESIAN_POINT('',(22.9499999997968,29.5500000000021,0.));
#2071=CARTESIAN_POINT('Origin',(22.9499999997968,31.7500000000021,0.));
#2072=CARTESIAN_POINT('',(22.9499999997968,31.9500000000021,0.));
#2073=CARTESIAN_POINT('',(22.9499999997968,15.875000000001,0.));
#2074=CARTESIAN_POINT('',(22.9499999997968,31.9500000000021,0.));
#2075=CARTESIAN_POINT('Origin',(18.7499999997968,31.9500000000021,0.));
#2076=CARTESIAN_POINT('',(18.5499999997968,31.9500000000021,0.));
#2077=CARTESIAN_POINT('',(9.37499999989842,31.9500000000021,0.));
#2078=CARTESIAN_POINT('',(18.5499999997968,31.9500000000021,0.));
#2079=CARTESIAN_POINT('Origin',(18.5499999997968,29.7500000000021,0.));
#2080=CARTESIAN_POINT('',(18.5499999997967,14.875000000001,0.));
#2081=CARTESIAN_POINT('Origin',(-29.5500000000021,22.7499999997968,0.));
#2082=CARTESIAN_POINT('',(-29.5500000000021,22.9499999997968,0.));
#2083=CARTESIAN_POINT('',(-29.5500000000021,18.5499999997968,0.));
#2084=CARTESIAN_POINT('',(-29.5500000000021,11.3749999998984,0.));
#2085=CARTESIAN_POINT('',(-29.5500000000021,18.5499999997968,0.));
#2086=CARTESIAN_POINT('',(-29.5500000000021,22.9499999997968,0.));
#2087=CARTESIAN_POINT('Origin',(-31.7500000000021,22.9499999997968,0.));
#2088=CARTESIAN_POINT('',(-31.9500000000021,22.9499999997968,0.));
#2089=CARTESIAN_POINT('',(-15.875000000001,22.9499999997967,0.));
#2090=CARTESIAN_POINT('',(-31.9500000000021,22.9499999997968,0.));
#2091=CARTESIAN_POINT('Origin',(-31.9500000000021,18.7499999997968,0.));
#2092=CARTESIAN_POINT('',(-31.9500000000021,18.5499999997968,0.));
#2093=CARTESIAN_POINT('',(-31.9500000000021,9.37499999989842,0.));
#2094=CARTESIAN_POINT('',(-31.9500000000021,18.5499999997968,0.));
#2095=CARTESIAN_POINT('Origin',(-29.7500000000021,18.5499999997968,0.));
#2096=CARTESIAN_POINT('',(-14.875000000001,18.5499999997967,0.));
#2097=CARTESIAN_POINT('Origin',(-31.4571068970951,7.95710666529015,0.));
#2098=CARTESIAN_POINT('',(-31.4571068970951,9.45710666529015,0.));
#2099=CARTESIAN_POINT('',(-31.4571068970951,9.45710666529015,0.));
#2100=CARTESIAN_POINT('Origin',(-31.4571068970951,7.95710666529015,0.));
#2101=CARTESIAN_POINT('Origin',(7.95710666529014,31.4571068970951,0.));
#2102=CARTESIAN_POINT('',(9.45710666529014,31.4571068970951,0.));
#2103=CARTESIAN_POINT('',(9.45710666529014,31.4571068970951,0.));
#2104=CARTESIAN_POINT('Origin',(7.95710666529014,31.4571068970951,0.));
#2105=CARTESIAN_POINT('Origin',(29.5500000000021,-22.7499999997968,0.));
#2106=CARTESIAN_POINT('',(29.5500000000021,-22.9499999997968,0.));
#2107=CARTESIAN_POINT('',(29.5500000000021,-18.5499999997968,0.));
#2108=CARTESIAN_POINT('',(29.5500000000021,-11.3749999998984,0.));
#2109=CARTESIAN_POINT('',(29.5500000000021,-18.5499999997967,0.));
#2110=CARTESIAN_POINT('',(29.5500000000021,-22.9499999997968,0.));
#2111=CARTESIAN_POINT('Origin',(31.7500000000021,-22.9499999997968,0.));
#2112=CARTESIAN_POINT('',(31.9500000000021,-22.9499999997968,0.));
#2113=CARTESIAN_POINT('',(15.8750000000011,-22.9499999997968,0.));
#2114=CARTESIAN_POINT('',(31.9500000000021,-22.9499999997968,0.));
#2115=CARTESIAN_POINT('Origin',(31.9500000000021,-18.7499999997968,0.));
#2116=CARTESIAN_POINT('',(31.9500000000021,-18.5499999997968,0.));
#2117=CARTESIAN_POINT('',(31.9500000000021,-9.37499999989842,0.));
#2118=CARTESIAN_POINT('',(31.9500000000021,-18.5499999997968,0.));
#2119=CARTESIAN_POINT('Origin',(29.7500000000021,-18.5499999997968,0.));
#2120=CARTESIAN_POINT('',(14.875000000001,-18.5499999997967,0.));
#2121=CARTESIAN_POINT('Origin',(0.,0.,0.));
#2122=CARTESIAN_POINT('',(-64.,7.83773951454306E-15,0.));
#2123=CARTESIAN_POINT('',(-64.,-7.83773951454306E-15,0.));
#2124=CARTESIAN_POINT('Origin',(0.,0.,0.));
#2125=CARTESIAN_POINT('Origin',(0.,0.,0.));
#2126=UNCERTAINTY_MEASURE_WITH_UNIT(LENGTH_MEASURE(0.01),#2130,
'DISTANCE_ACCURACY_VALUE',
'Maximum model space distance between geometric entities at asserted c
onnectivities');
#2127=UNCERTAINTY_MEASURE_WITH_UNIT(LENGTH_MEASURE(0.01),#2130,
'DISTANCE_ACCURACY_VALUE',
'Maximum model space distance between geometric entities at asserted c
onnectivities');
#2128=(
GEOMETRIC_REPRESENTATION_CONTEXT(3)
GLOBAL_UNCERTAINTY_ASSIGNED_CONTEXT((#2126))
GLOBAL_UNIT_ASSIGNED_CONTEXT((#2130,#2132,#2133))
REPRESENTATION_CONTEXT('','3D')
);
#2129=(
GEOMETRIC_REPRESENTATION_CONTEXT(3)
GLOBAL_UNCERTAINTY_ASSIGNED_CONTEXT((#2127))
GLOBAL_UNIT_ASSIGNED_CONTEXT((#2130,#2132,#2133))
REPRESENTATION_CONTEXT('','3D')
);
#2130=(
LENGTH_UNIT()
NAMED_UNIT(*)
SI_UNIT(.MILLI.,.METRE.)
);
#2131=(
LENGTH_UNIT()
NAMED_UNIT(*)
SI_UNIT($,.METRE.)
);
#2132=(
NAMED_UNIT(*)
PLANE_ANGLE_UNIT()
SI_UNIT($,.RADIAN.)
);
#2133=(
NAMED_UNIT(*)
SI_UNIT($,.STERADIAN.)
SOLID_ANGLE_UNIT()
);
#2134=SHAPE_DEFINITION_REPRESENTATION(#2135,#2136);
#2135=PRODUCT_DEFINITION_SHAPE('',$,#2138);
#2136=SHAPE_REPRESENTATION('',(#1266),#2128);
#2137=PRODUCT_DEFINITION_CONTEXT('part definition',#2142,'design');
#2138=PRODUCT_DEFINITION('UpperPlate','UpperPlate v74',#2139,#2137);
#2139=PRODUCT_DEFINITION_FORMATION('',$,#2144);
#2140=PRODUCT_RELATED_PRODUCT_CATEGORY('UpperPlate v74',
'UpperPlate v74',(#2144));
#2141=APPLICATION_PROTOCOL_DEFINITION('international standard',
'automotive_design',2009,#2142);
#2142=APPLICATION_CONTEXT(
'Core Data for Automotive Mechanical Design Process');
#2143=PRODUCT_CONTEXT('part definition',#2142,'mechanical');
#2144=PRODUCT('UpperPlate','UpperPlate v74',$,(#2143));
#2145=PRESENTATION_STYLE_ASSIGNMENT((#2147));
#2146=PRESENTATION_STYLE_ASSIGNMENT((#2148));
#2147=SURFACE_STYLE_USAGE(.BOTH.,#2149);
#2148=SURFACE_STYLE_USAGE(.BOTH.,#2150);
#2149=SURFACE_SIDE_STYLE('',(#2151));
#2150=SURFACE_SIDE_STYLE('',(#2152));
#2151=SURFACE_STYLE_FILL_AREA(#2153);
#2152=SURFACE_STYLE_FILL_AREA(#2154);
#2153=FILL_AREA_STYLE('Steel - Satin',(#2155));
#2154=FILL_AREA_STYLE('Acrylic (Clear)',(#2156));
#2155=FILL_AREA_STYLE_COLOUR('Steel - Satin',#2157);
#2156=FILL_AREA_STYLE_COLOUR('Acrylic (Clear)',#2158);
#2157=COLOUR_RGB('Steel - Satin',0.627450980392157,0.627450980392157,0.627450980392157);
#2158=COLOUR_RGB('Acrylic (Clear)',0.964705882352941,0.964705882352941,
0.952941176470588);
ENDSEC;
END-ISO-10303-21;
