ISO-10303-21;
HEADER;
/* Generated by software containing ST-Developer
 * from STEP Tools, Inc. (www.steptools.com) 
 */

FILE_DESCRIPTION(
/* description */ (''),
/* implementation_level */ '2;1');

FILE_NAME(
/* name */ 'UpperVertibraeV1_v11.step',
/* time_stamp */ '2026-08-21T09:23:07-04:00',
/* author */ (''),
/* organization */ (''),
/* preprocessor_version */ 'ST-DEVELOPER v20.1',
/* originating_system */ 'Autodesk Translation Framework v15.8.0.0',
/* authorisation */ '');

FILE_SCHEMA (('AUTOMOTIVE_DESIGN { 1 0 10303 214 3 1 1 }'));
ENDSEC;

DATA;
#10=MECHANICAL_DESIGN_GEOMETRIC_PRESENTATION_REPRESENTATION('',(#13),#569);
#11=SHAPE_REPRESENTATION_RELATIONSHIP('SRR','None',#576,#12);
#12=ADVANCED_BREP_SHAPE_REPRESENTATION('',(#14),#568);
#13=STYLED_ITEM('',(#586),#14);
#14=MANIFOLD_SOLID_BREP('Body1',#317);
#15=FACE_BOUND('',#62,.T.);
#16=FACE_BOUND('',#63,.T.);
#17=FACE_BOUND('',#64,.T.);
#18=FACE_BOUND('',#65,.T.);
#19=FACE_BOUND('',#66,.T.);
#20=FACE_BOUND('',#67,.T.);
#21=FACE_BOUND('',#68,.T.);
#22=FACE_BOUND('',#70,.T.);
#23=FACE_BOUND('',#71,.T.);
#24=FACE_BOUND('',#72,.T.);
#25=FACE_BOUND('',#73,.T.);
#26=FACE_BOUND('',#74,.T.);
#27=FACE_BOUND('',#75,.T.);
#28=FACE_BOUND('',#76,.T.);
#29=PLANE('',#373);
#30=PLANE('',#374);
#31=FACE_OUTER_BOUND('',#47,.T.);
#32=FACE_OUTER_BOUND('',#48,.T.);
#33=FACE_OUTER_BOUND('',#49,.T.);
#34=FACE_OUTER_BOUND('',#50,.T.);
#35=FACE_OUTER_BOUND('',#51,.T.);
#36=FACE_OUTER_BOUND('',#52,.T.);
#37=FACE_OUTER_BOUND('',#53,.T.);
#38=FACE_OUTER_BOUND('',#54,.T.);
#39=FACE_OUTER_BOUND('',#55,.T.);
#40=FACE_OUTER_BOUND('',#56,.T.);
#41=FACE_OUTER_BOUND('',#57,.T.);
#42=FACE_OUTER_BOUND('',#58,.T.);
#43=FACE_OUTER_BOUND('',#59,.T.);
#44=FACE_OUTER_BOUND('',#60,.T.);
#45=FACE_OUTER_BOUND('',#61,.T.);
#46=FACE_OUTER_BOUND('',#69,.T.);
#47=EDGE_LOOP('',(#203,#204,#205,#206));
#48=EDGE_LOOP('',(#207,#208,#209,#210));
#49=EDGE_LOOP('',(#211,#212,#213,#214));
#50=EDGE_LOOP('',(#215,#216,#217,#218));
#51=EDGE_LOOP('',(#219,#220,#221,#222));
#52=EDGE_LOOP('',(#223,#224,#225,#226));
#53=EDGE_LOOP('',(#227,#228,#229,#230));
#54=EDGE_LOOP('',(#231,#232,#233,#234));
#55=EDGE_LOOP('',(#235,#236,#237,#238));
#56=EDGE_LOOP('',(#239,#240,#241,#242));
#57=EDGE_LOOP('',(#243,#244,#245,#246));
#58=EDGE_LOOP('',(#247,#248,#249,#250));
#59=EDGE_LOOP('',(#251,#252,#253,#254));
#60=EDGE_LOOP('',(#255,#256,#257,#258));
#61=EDGE_LOOP('',(#259));
#62=EDGE_LOOP('',(#260,#261,#262,#263));
#63=EDGE_LOOP('',(#264));
#64=EDGE_LOOP('',(#265,#266,#267,#268));
#65=EDGE_LOOP('',(#269));
#66=EDGE_LOOP('',(#270));
#67=EDGE_LOOP('',(#271));
#68=EDGE_LOOP('',(#272));
#69=EDGE_LOOP('',(#273));
#70=EDGE_LOOP('',(#274,#275,#276,#277));
#71=EDGE_LOOP('',(#278));
#72=EDGE_LOOP('',(#279,#280,#281,#282));
#73=EDGE_LOOP('',(#283));
#74=EDGE_LOOP('',(#284));
#75=EDGE_LOOP('',(#285));
#76=EDGE_LOOP('',(#286));
#77=LINE('',#484,#91);
#78=LINE('',#490,#92);
#79=LINE('',#496,#93);
#80=LINE('',#502,#94);
#81=LINE('',#509,#95);
#82=LINE('',#512,#96);
#83=LINE('',#518,#97);
#84=LINE('',#524,#98);
#85=LINE('',#532,#99);
#86=LINE('',#539,#100);
#87=LINE('',#542,#101);
#88=LINE('',#548,#102);
#89=LINE('',#554,#103);
#90=LINE('',#562,#104);
#91=VECTOR('',#381,1.);
#92=VECTOR('',#388,1.);
#93=VECTOR('',#395,2.00000002980232);
#94=VECTOR('',#402,1.);
#95=VECTOR('',#409,10.);
#96=VECTOR('',#412,10.);
#97=VECTOR('',#419,10.);
#98=VECTOR('',#426,10.);
#99=VECTOR('',#437,1.);
#100=VECTOR('',#444,10.);
#101=VECTOR('',#447,10.);
#102=VECTOR('',#454,10.);
#103=VECTOR('',#461,10.);
#104=VECTOR('',#472,10.);
#105=CIRCLE('',#332,1.);
#106=CIRCLE('',#333,1.);
#107=CIRCLE('',#335,1.);
#108=CIRCLE('',#336,1.);
#109=CIRCLE('',#338,2.00000002980232);
#110=CIRCLE('',#339,2.00000002980232);
#111=CIRCLE('',#341,1.);
#112=CIRCLE('',#342,1.);
#113=CIRCLE('',#344,8.);
#114=CIRCLE('',#345,8.);
#115=CIRCLE('',#347,2.);
#116=CIRCLE('',#348,2.);
#117=CIRCLE('',#350,4.);
#118=CIRCLE('',#351,4.);
#119=CIRCLE('',#353,2.);
#120=CIRCLE('',#354,2.);
#121=CIRCLE('',#356,1.);
#122=CIRCLE('',#357,1.);
#123=CIRCLE('',#359,2.);
#124=CIRCLE('',#360,2.);
#125=CIRCLE('',#362,4.);
#126=CIRCLE('',#363,4.);
#127=CIRCLE('',#365,2.);
#128=CIRCLE('',#366,2.);
#129=CIRCLE('',#368,8.);
#130=CIRCLE('',#369,8.);
#131=CIRCLE('',#371,10.);
#132=CIRCLE('',#372,10.);
#133=VERTEX_POINT('',#481);
#134=VERTEX_POINT('',#483);
#135=VERTEX_POINT('',#487);
#136=VERTEX_POINT('',#489);
#137=VERTEX_POINT('',#493);
#138=VERTEX_POINT('',#495);
#139=VERTEX_POINT('',#499);
#140=VERTEX_POINT('',#501);
#141=VERTEX_POINT('',#505);
#142=VERTEX_POINT('',#506);
#143=VERTEX_POINT('',#508);
#144=VERTEX_POINT('',#510);
#145=VERTEX_POINT('',#514);
#146=VERTEX_POINT('',#516);
#147=VERTEX_POINT('',#520);
#148=VERTEX_POINT('',#522);
#149=VERTEX_POINT('',#529);
#150=VERTEX_POINT('',#531);
#151=VERTEX_POINT('',#535);
#152=VERTEX_POINT('',#536);
#153=VERTEX_POINT('',#538);
#154=VERTEX_POINT('',#540);
#155=VERTEX_POINT('',#544);
#156=VERTEX_POINT('',#546);
#157=VERTEX_POINT('',#550);
#158=VERTEX_POINT('',#552);
#159=VERTEX_POINT('',#559);
#160=VERTEX_POINT('',#561);
#161=EDGE_CURVE('',#133,#133,#105,.T.);
#162=EDGE_CURVE('',#133,#134,#77,.T.);
#163=EDGE_CURVE('',#134,#134,#106,.T.);
#164=EDGE_CURVE('',#135,#135,#107,.T.);
#165=EDGE_CURVE('',#135,#136,#78,.T.);
#166=EDGE_CURVE('',#136,#136,#108,.T.);
#167=EDGE_CURVE('',#137,#137,#109,.T.);
#168=EDGE_CURVE('',#137,#138,#79,.T.);
#169=EDGE_CURVE('',#138,#138,#110,.T.);
#170=EDGE_CURVE('',#139,#139,#111,.T.);
#171=EDGE_CURVE('',#139,#140,#80,.T.);
#172=EDGE_CURVE('',#140,#140,#112,.T.);
#173=EDGE_CURVE('',#141,#142,#113,.T.);
#174=EDGE_CURVE('',#142,#143,#81,.T.);
#175=EDGE_CURVE('',#144,#143,#114,.T.);
#176=EDGE_CURVE('',#141,#144,#82,.T.);
#177=EDGE_CURVE('',#145,#141,#115,.T.);
#178=EDGE_CURVE('',#146,#144,#116,.T.);
#179=EDGE_CURVE('',#145,#146,#83,.T.);
#180=EDGE_CURVE('',#147,#145,#117,.T.);
#181=EDGE_CURVE('',#148,#146,#118,.T.);
#182=EDGE_CURVE('',#147,#148,#84,.T.);
#183=EDGE_CURVE('',#142,#147,#119,.T.);
#184=EDGE_CURVE('',#143,#148,#120,.T.);
#185=EDGE_CURVE('',#149,#149,#121,.T.);
#186=EDGE_CURVE('',#149,#150,#85,.T.);
#187=EDGE_CURVE('',#150,#150,#122,.T.);
#188=EDGE_CURVE('',#151,#152,#123,.T.);
#189=EDGE_CURVE('',#152,#153,#86,.T.);
#190=EDGE_CURVE('',#154,#153,#124,.T.);
#191=EDGE_CURVE('',#151,#154,#87,.T.);
#192=EDGE_CURVE('',#155,#151,#125,.T.);
#193=EDGE_CURVE('',#156,#154,#126,.T.);
#194=EDGE_CURVE('',#155,#156,#88,.T.);
#195=EDGE_CURVE('',#157,#155,#127,.T.);
#196=EDGE_CURVE('',#158,#156,#128,.T.);
#197=EDGE_CURVE('',#157,#158,#89,.T.);
#198=EDGE_CURVE('',#152,#157,#129,.T.);
#199=EDGE_CURVE('',#153,#158,#130,.T.);
#200=EDGE_CURVE('',#159,#159,#131,.T.);
#201=EDGE_CURVE('',#159,#160,#90,.T.);
#202=EDGE_CURVE('',#160,#160,#132,.T.);
#203=ORIENTED_EDGE('',*,*,#161,.F.);
#204=ORIENTED_EDGE('',*,*,#162,.T.);
#205=ORIENTED_EDGE('',*,*,#163,.T.);
#206=ORIENTED_EDGE('',*,*,#162,.F.);
#207=ORIENTED_EDGE('',*,*,#164,.F.);
#208=ORIENTED_EDGE('',*,*,#165,.T.);
#209=ORIENTED_EDGE('',*,*,#166,.T.);
#210=ORIENTED_EDGE('',*,*,#165,.F.);
#211=ORIENTED_EDGE('',*,*,#167,.F.);
#212=ORIENTED_EDGE('',*,*,#168,.T.);
#213=ORIENTED_EDGE('',*,*,#169,.T.);
#214=ORIENTED_EDGE('',*,*,#168,.F.);
#215=ORIENTED_EDGE('',*,*,#170,.F.);
#216=ORIENTED_EDGE('',*,*,#171,.T.);
#217=ORIENTED_EDGE('',*,*,#172,.T.);
#218=ORIENTED_EDGE('',*,*,#171,.F.);
#219=ORIENTED_EDGE('',*,*,#173,.T.);
#220=ORIENTED_EDGE('',*,*,#174,.T.);
#221=ORIENTED_EDGE('',*,*,#175,.F.);
#222=ORIENTED_EDGE('',*,*,#176,.F.);
#223=ORIENTED_EDGE('',*,*,#177,.T.);
#224=ORIENTED_EDGE('',*,*,#176,.T.);
#225=ORIENTED_EDGE('',*,*,#178,.F.);
#226=ORIENTED_EDGE('',*,*,#179,.F.);
#227=ORIENTED_EDGE('',*,*,#180,.T.);
#228=ORIENTED_EDGE('',*,*,#179,.T.);
#229=ORIENTED_EDGE('',*,*,#181,.F.);
#230=ORIENTED_EDGE('',*,*,#182,.F.);
#231=ORIENTED_EDGE('',*,*,#183,.T.);
#232=ORIENTED_EDGE('',*,*,#182,.T.);
#233=ORIENTED_EDGE('',*,*,#184,.F.);
#234=ORIENTED_EDGE('',*,*,#174,.F.);
#235=ORIENTED_EDGE('',*,*,#185,.F.);
#236=ORIENTED_EDGE('',*,*,#186,.T.);
#237=ORIENTED_EDGE('',*,*,#187,.T.);
#238=ORIENTED_EDGE('',*,*,#186,.F.);
#239=ORIENTED_EDGE('',*,*,#188,.T.);
#240=ORIENTED_EDGE('',*,*,#189,.T.);
#241=ORIENTED_EDGE('',*,*,#190,.F.);
#242=ORIENTED_EDGE('',*,*,#191,.F.);
#243=ORIENTED_EDGE('',*,*,#192,.T.);
#244=ORIENTED_EDGE('',*,*,#191,.T.);
#245=ORIENTED_EDGE('',*,*,#193,.F.);
#246=ORIENTED_EDGE('',*,*,#194,.F.);
#247=ORIENTED_EDGE('',*,*,#195,.T.);
#248=ORIENTED_EDGE('',*,*,#194,.T.);
#249=ORIENTED_EDGE('',*,*,#196,.F.);
#250=ORIENTED_EDGE('',*,*,#197,.F.);
#251=ORIENTED_EDGE('',*,*,#198,.T.);
#252=ORIENTED_EDGE('',*,*,#197,.T.);
#253=ORIENTED_EDGE('',*,*,#199,.F.);
#254=ORIENTED_EDGE('',*,*,#189,.F.);
#255=ORIENTED_EDGE('',*,*,#200,.F.);
#256=ORIENTED_EDGE('',*,*,#201,.T.);
#257=ORIENTED_EDGE('',*,*,#202,.T.);
#258=ORIENTED_EDGE('',*,*,#201,.F.);
#259=ORIENTED_EDGE('',*,*,#200,.T.);
#260=ORIENTED_EDGE('',*,*,#199,.T.);
#261=ORIENTED_EDGE('',*,*,#196,.T.);
#262=ORIENTED_EDGE('',*,*,#193,.T.);
#263=ORIENTED_EDGE('',*,*,#190,.T.);
#264=ORIENTED_EDGE('',*,*,#185,.T.);
#265=ORIENTED_EDGE('',*,*,#184,.T.);
#266=ORIENTED_EDGE('',*,*,#181,.T.);
#267=ORIENTED_EDGE('',*,*,#178,.T.);
#268=ORIENTED_EDGE('',*,*,#175,.T.);
#269=ORIENTED_EDGE('',*,*,#170,.T.);
#270=ORIENTED_EDGE('',*,*,#167,.T.);
#271=ORIENTED_EDGE('',*,*,#164,.T.);
#272=ORIENTED_EDGE('',*,*,#161,.T.);
#273=ORIENTED_EDGE('',*,*,#202,.F.);
#274=ORIENTED_EDGE('',*,*,#198,.F.);
#275=ORIENTED_EDGE('',*,*,#188,.F.);
#276=ORIENTED_EDGE('',*,*,#192,.F.);
#277=ORIENTED_EDGE('',*,*,#195,.F.);
#278=ORIENTED_EDGE('',*,*,#187,.F.);
#279=ORIENTED_EDGE('',*,*,#183,.F.);
#280=ORIENTED_EDGE('',*,*,#173,.F.);
#281=ORIENTED_EDGE('',*,*,#177,.F.);
#282=ORIENTED_EDGE('',*,*,#180,.F.);
#283=ORIENTED_EDGE('',*,*,#172,.F.);
#284=ORIENTED_EDGE('',*,*,#169,.F.);
#285=ORIENTED_EDGE('',*,*,#166,.F.);
#286=ORIENTED_EDGE('',*,*,#163,.F.);
#287=CYLINDRICAL_SURFACE('',#331,1.);
#288=CYLINDRICAL_SURFACE('',#334,1.);
#289=CYLINDRICAL_SURFACE('',#337,2.00000002980232);
#290=CYLINDRICAL_SURFACE('',#340,1.);
#291=CYLINDRICAL_SURFACE('',#343,8.);
#292=CYLINDRICAL_SURFACE('',#346,2.);
#293=CYLINDRICAL_SURFACE('',#349,4.);
#294=CYLINDRICAL_SURFACE('',#352,2.);
#295=CYLINDRICAL_SURFACE('',#355,1.);
#296=CYLINDRICAL_SURFACE('',#358,2.);
#297=CYLINDRICAL_SURFACE('',#361,4.);
#298=CYLINDRICAL_SURFACE('',#364,2.);
#299=CYLINDRICAL_SURFACE('',#367,8.);
#300=CYLINDRICAL_SURFACE('',#370,10.);
#301=ADVANCED_FACE('',(#31),#287,.F.);
#302=ADVANCED_FACE('',(#32),#288,.F.);
#303=ADVANCED_FACE('',(#33),#289,.F.);
#304=ADVANCED_FACE('',(#34),#290,.F.);
#305=ADVANCED_FACE('',(#35),#291,.F.);
#306=ADVANCED_FACE('',(#36),#292,.F.);
#307=ADVANCED_FACE('',(#37),#293,.T.);
#308=ADVANCED_FACE('',(#38),#294,.F.);
#309=ADVANCED_FACE('',(#39),#295,.F.);
#310=ADVANCED_FACE('',(#40),#296,.F.);
#311=ADVANCED_FACE('',(#41),#297,.T.);
#312=ADVANCED_FACE('',(#42),#298,.F.);
#313=ADVANCED_FACE('',(#43),#299,.F.);
#314=ADVANCED_FACE('',(#44),#300,.T.);
#315=ADVANCED_FACE('',(#45,#15,#16,#17,#18,#19,#20,#21),#29,.T.);
#316=ADVANCED_FACE('',(#46,#22,#23,#24,#25,#26,#27,#28),#30,.F.);
#317=CLOSED_SHELL('',(#301,#302,#303,#304,#305,#306,#307,#308,#309,#310,
#311,#312,#313,#314,#315,#316));
#318=DERIVED_UNIT_ELEMENT(#320,1.);
#319=DERIVED_UNIT_ELEMENT(#571,-3.);
#320=(
MASS_UNIT()
NAMED_UNIT(*)
SI_UNIT(.KILO.,.GRAM.)
);
#321=DERIVED_UNIT((#318,#319));
#322=MEASURE_REPRESENTATION_ITEM('density measure',
POSITIVE_RATIO_MEASURE(7850.),#321);
#323=PROPERTY_DEFINITION_REPRESENTATION(#328,#325);
#324=PROPERTY_DEFINITION_REPRESENTATION(#329,#326);
#325=REPRESENTATION('material name',(#327),#568);
#326=REPRESENTATION('density',(#322),#568);
#327=DESCRIPTIVE_REPRESENTATION_ITEM('Steel','Steel');
#328=PROPERTY_DEFINITION('material property','material name',#578);
#329=PROPERTY_DEFINITION('material property','density of part',#578);
#330=AXIS2_PLACEMENT_3D('',#479,#375,#376);
#331=AXIS2_PLACEMENT_3D('',#480,#377,#378);
#332=AXIS2_PLACEMENT_3D('',#482,#379,#380);
#333=AXIS2_PLACEMENT_3D('',#485,#382,#383);
#334=AXIS2_PLACEMENT_3D('',#486,#384,#385);
#335=AXIS2_PLACEMENT_3D('',#488,#386,#387);
#336=AXIS2_PLACEMENT_3D('',#491,#389,#390);
#337=AXIS2_PLACEMENT_3D('',#492,#391,#392);
#338=AXIS2_PLACEMENT_3D('',#494,#393,#394);
#339=AXIS2_PLACEMENT_3D('',#497,#396,#397);
#340=AXIS2_PLACEMENT_3D('',#498,#398,#399);
#341=AXIS2_PLACEMENT_3D('',#500,#400,#401);
#342=AXIS2_PLACEMENT_3D('',#503,#403,#404);
#343=AXIS2_PLACEMENT_3D('',#504,#405,#406);
#344=AXIS2_PLACEMENT_3D('',#507,#407,#408);
#345=AXIS2_PLACEMENT_3D('',#511,#410,#411);
#346=AXIS2_PLACEMENT_3D('',#513,#413,#414);
#347=AXIS2_PLACEMENT_3D('',#515,#415,#416);
#348=AXIS2_PLACEMENT_3D('',#517,#417,#418);
#349=AXIS2_PLACEMENT_3D('',#519,#420,#421);
#350=AXIS2_PLACEMENT_3D('',#521,#422,#423);
#351=AXIS2_PLACEMENT_3D('',#523,#424,#425);
#352=AXIS2_PLACEMENT_3D('',#525,#427,#428);
#353=AXIS2_PLACEMENT_3D('',#526,#429,#430);
#354=AXIS2_PLACEMENT_3D('',#527,#431,#432);
#355=AXIS2_PLACEMENT_3D('',#528,#433,#434);
#356=AXIS2_PLACEMENT_3D('',#530,#435,#436);
#357=AXIS2_PLACEMENT_3D('',#533,#438,#439);
#358=AXIS2_PLACEMENT_3D('',#534,#440,#441);
#359=AXIS2_PLACEMENT_3D('',#537,#442,#443);
#360=AXIS2_PLACEMENT_3D('',#541,#445,#446);
#361=AXIS2_PLACEMENT_3D('',#543,#448,#449);
#362=AXIS2_PLACEMENT_3D('',#545,#450,#451);
#363=AXIS2_PLACEMENT_3D('',#547,#452,#453);
#364=AXIS2_PLACEMENT_3D('',#549,#455,#456);
#365=AXIS2_PLACEMENT_3D('',#551,#457,#458);
#366=AXIS2_PLACEMENT_3D('',#553,#459,#460);
#367=AXIS2_PLACEMENT_3D('',#555,#462,#463);
#368=AXIS2_PLACEMENT_3D('',#556,#464,#465);
#369=AXIS2_PLACEMENT_3D('',#557,#466,#467);
#370=AXIS2_PLACEMENT_3D('',#558,#468,#469);
#371=AXIS2_PLACEMENT_3D('',#560,#470,#471);
#372=AXIS2_PLACEMENT_3D('',#563,#473,#474);
#373=AXIS2_PLACEMENT_3D('',#564,#475,#476);
#374=AXIS2_PLACEMENT_3D('',#565,#477,#478);
#375=DIRECTION('axis',(0.,0.,1.));
#376=DIRECTION('refdir',(1.,0.,0.));
#377=DIRECTION('center_axis',(0.,0.,1.));
#378=DIRECTION('ref_axis',(1.,0.,0.));
#379=DIRECTION('center_axis',(0.,0.,-1.));
#380=DIRECTION('ref_axis',(1.,0.,0.));
#381=DIRECTION('',(0.,0.,-1.));
#382=DIRECTION('center_axis',(0.,0.,-1.));
#383=DIRECTION('ref_axis',(1.,0.,0.));
#384=DIRECTION('center_axis',(0.,0.,1.));
#385=DIRECTION('ref_axis',(1.,0.,0.));
#386=DIRECTION('center_axis',(0.,0.,-1.));
#387=DIRECTION('ref_axis',(1.,0.,0.));
#388=DIRECTION('',(0.,0.,-1.));
#389=DIRECTION('center_axis',(0.,0.,-1.));
#390=DIRECTION('ref_axis',(1.,0.,0.));
#391=DIRECTION('center_axis',(0.,0.,1.));
#392=DIRECTION('ref_axis',(1.,0.,0.));
#393=DIRECTION('center_axis',(0.,0.,-1.));
#394=DIRECTION('ref_axis',(1.,0.,0.));
#395=DIRECTION('',(0.,0.,-1.));
#396=DIRECTION('center_axis',(0.,0.,-1.));
#397=DIRECTION('ref_axis',(1.,0.,0.));
#398=DIRECTION('center_axis',(0.,0.,1.));
#399=DIRECTION('ref_axis',(1.,0.,0.));
#400=DIRECTION('center_axis',(0.,0.,-1.));
#401=DIRECTION('ref_axis',(1.,0.,0.));
#402=DIRECTION('',(0.,0.,-1.));
#403=DIRECTION('center_axis',(0.,0.,-1.));
#404=DIRECTION('ref_axis',(1.,0.,0.));
#405=DIRECTION('center_axis',(0.,0.,1.));
#406=DIRECTION('ref_axis',(1.,0.,0.));
#407=DIRECTION('center_axis',(0.,0.,-1.));
#408=DIRECTION('ref_axis',(1.,0.,0.));
#409=DIRECTION('',(0.,0.,1.));
#410=DIRECTION('center_axis',(0.,0.,-1.));
#411=DIRECTION('ref_axis',(1.,0.,0.));
#412=DIRECTION('',(0.,0.,1.));
#413=DIRECTION('center_axis',(0.,0.,1.));
#414=DIRECTION('ref_axis',(1.,0.,0.));
#415=DIRECTION('center_axis',(0.,0.,-1.));
#416=DIRECTION('ref_axis',(1.,0.,0.));
#417=DIRECTION('center_axis',(0.,0.,-1.));
#418=DIRECTION('ref_axis',(1.,0.,0.));
#419=DIRECTION('',(0.,0.,1.));
#420=DIRECTION('center_axis',(0.,0.,1.));
#421=DIRECTION('ref_axis',(1.,0.,0.));
#422=DIRECTION('center_axis',(0.,0.,1.));
#423=DIRECTION('ref_axis',(1.,0.,0.));
#424=DIRECTION('center_axis',(0.,0.,1.));
#425=DIRECTION('ref_axis',(1.,0.,0.));
#426=DIRECTION('',(0.,0.,1.));
#427=DIRECTION('center_axis',(0.,0.,1.));
#428=DIRECTION('ref_axis',(-0.792641673737399,0.609687770137121,0.));
#429=DIRECTION('center_axis',(0.,0.,-1.));
#430=DIRECTION('ref_axis',(1.,0.,0.));
#431=DIRECTION('center_axis',(0.,0.,-1.));
#432=DIRECTION('ref_axis',(1.,0.,0.));
#433=DIRECTION('center_axis',(0.,0.,1.));
#434=DIRECTION('ref_axis',(1.,0.,0.));
#435=DIRECTION('center_axis',(0.,0.,-1.));
#436=DIRECTION('ref_axis',(1.,0.,0.));
#437=DIRECTION('',(0.,0.,-1.));
#438=DIRECTION('center_axis',(0.,0.,-1.));
#439=DIRECTION('ref_axis',(1.,0.,0.));
#440=DIRECTION('center_axis',(0.,0.,1.));
#441=DIRECTION('ref_axis',(-0.400388259075868,0.916345590917638,0.));
#442=DIRECTION('center_axis',(0.,0.,-1.));
#443=DIRECTION('ref_axis',(1.,0.,0.));
#444=DIRECTION('',(0.,0.,1.));
#445=DIRECTION('center_axis',(0.,0.,-1.));
#446=DIRECTION('ref_axis',(1.,0.,0.));
#447=DIRECTION('',(0.,0.,1.));
#448=DIRECTION('center_axis',(0.,0.,1.));
#449=DIRECTION('ref_axis',(1.,0.,0.));
#450=DIRECTION('center_axis',(0.,0.,1.));
#451=DIRECTION('ref_axis',(1.,0.,0.));
#452=DIRECTION('center_axis',(0.,0.,1.));
#453=DIRECTION('ref_axis',(1.,0.,0.));
#454=DIRECTION('',(0.,0.,1.));
#455=DIRECTION('center_axis',(0.,0.,1.));
#456=DIRECTION('ref_axis',(-0.131684260446735,-0.991291710623365,0.));
#457=DIRECTION('center_axis',(0.,0.,-1.));
#458=DIRECTION('ref_axis',(1.,0.,0.));
#459=DIRECTION('center_axis',(0.,0.,-1.));
#460=DIRECTION('ref_axis',(1.,0.,0.));
#461=DIRECTION('',(0.,0.,1.));
#462=DIRECTION('center_axis',(0.,0.,1.));
#463=DIRECTION('ref_axis',(1.,0.,0.));
#464=DIRECTION('center_axis',(0.,0.,-1.));
#465=DIRECTION('ref_axis',(1.,0.,0.));
#466=DIRECTION('center_axis',(0.,0.,-1.));
#467=DIRECTION('ref_axis',(1.,0.,0.));
#468=DIRECTION('center_axis',(0.,0.,1.));
#469=DIRECTION('ref_axis',(1.,0.,0.));
#470=DIRECTION('center_axis',(0.,0.,1.));
#471=DIRECTION('ref_axis',(1.,0.,0.));
#472=DIRECTION('',(0.,0.,-1.));
#473=DIRECTION('center_axis',(0.,0.,1.));
#474=DIRECTION('ref_axis',(1.,0.,0.));
#475=DIRECTION('center_axis',(0.,0.,1.));
#476=DIRECTION('ref_axis',(1.,0.,0.));
#477=DIRECTION('center_axis',(0.,0.,1.));
#478=DIRECTION('ref_axis',(1.,0.,0.));
#479=CARTESIAN_POINT('',(0.,0.,0.));
#480=CARTESIAN_POINT('Origin',(-6.9315741497301,-0.976360490184553,0.));
#481=CARTESIAN_POINT('',(-7.9315741497301,-0.976360490184553,2.));
#482=CARTESIAN_POINT('Origin',(-6.9315741497301,-0.976360490184553,2.));
#483=CARTESIAN_POINT('',(-7.9315741497301,-0.976360490184553,0.));
#484=CARTESIAN_POINT('',(-7.9315741497301,-0.976360490184553,0.));
#485=CARTESIAN_POINT('Origin',(-6.9315741497301,-0.976360490184553,0.));
#486=CARTESIAN_POINT('Origin',(-2.63571083419911,3.37140129719674,0.));
#487=CARTESIAN_POINT('',(-3.63571083419911,3.37140129719674,2.));
#488=CARTESIAN_POINT('Origin',(-2.63571083419911,3.37140129719674,2.));
#489=CARTESIAN_POINT('',(-3.63571083419911,3.37140129719674,0.));
#490=CARTESIAN_POINT('',(-3.63571083419911,3.37140129719674,0.));
#491=CARTESIAN_POINT('Origin',(-2.63571083419911,3.37140129719674,0.));
#492=CARTESIAN_POINT('Origin',(0.,0.,0.));
#493=CARTESIAN_POINT('',(-2.00000002980232,0.,2.));
#494=CARTESIAN_POINT('Origin',(0.,0.,2.));
#495=CARTESIAN_POINT('',(-2.00000002980232,-2.44929363479203E-16,0.));
#496=CARTESIAN_POINT('',(-2.00000002980232,-2.44929363479203E-16,0.));
#497=CARTESIAN_POINT('Origin',(0.,0.,0.));
#498=CARTESIAN_POINT('Origin',(4.3113400626163,-5.51473905678951,0.));
#499=CARTESIAN_POINT('',(3.3113400626163,-5.51473905678951,2.));
#500=CARTESIAN_POINT('Origin',(4.3113400626163,-5.51473905678951,2.));
#501=CARTESIAN_POINT('',(3.3113400626163,-5.51473905678951,0.));
#502=CARTESIAN_POINT('',(3.3113400626163,-5.51473905678951,0.));
#503=CARTESIAN_POINT('Origin',(4.3113400626163,-5.51473905678951,0.));
#504=CARTESIAN_POINT('Origin',(0.,0.,0.));
#505=CARTESIAN_POINT('',(-0.891411133776755,-7.95018151934788,0.));
#506=CARTESIAN_POINT('',(-4.87750216109697,-6.34113338989919,0.));
#507=CARTESIAN_POINT('Origin',(0.,0.,0.));
#508=CARTESIAN_POINT('',(-4.87750216109696,-6.34113338989919,2.));
#509=CARTESIAN_POINT('',(-4.87750216109697,-6.34113338989919,0.));
#510=CARTESIAN_POINT('',(-0.891411133776755,-7.95018151934788,2.));
#511=CARTESIAN_POINT('Origin',(0.,0.,2.));
#512=CARTESIAN_POINT('',(-0.891411133776755,-7.95018151934788,0.));
#513=CARTESIAN_POINT('Origin',(-0.668558350332567,-5.96263613951094,0.));
#514=CARTESIAN_POINT('',(-0.445705566888383,-3.97509075967399,0.));
#515=CARTESIAN_POINT('Origin',(-0.668558350332567,-5.96263613951094,0.));
#516=CARTESIAN_POINT('',(-0.445705566888384,-3.97509075967399,2.));
#517=CARTESIAN_POINT('Origin',(-0.668558350332567,-5.96263613951094,2.));
#518=CARTESIAN_POINT('',(-0.445705566888383,-3.97509075967399,0.));
#519=CARTESIAN_POINT('Origin',(0.,0.,0.));
#520=CARTESIAN_POINT('',(-2.43875108054848,-3.17056669494959,0.));
#521=CARTESIAN_POINT('Origin',(0.,0.,0.));
#522=CARTESIAN_POINT('',(-2.43875108054848,-3.17056669494959,2.));
#523=CARTESIAN_POINT('Origin',(0.,0.,2.));
#524=CARTESIAN_POINT('',(-2.43875108054848,-3.17056669494959,0.));
#525=CARTESIAN_POINT('Origin',(-3.65812662082272,-4.75585004242439,0.));
#526=CARTESIAN_POINT('Origin',(-3.65812662082272,-4.75585004242439,0.));
#527=CARTESIAN_POINT('Origin',(-3.65812662082272,-4.75585004242439,2.));
#528=CARTESIAN_POINT('Origin',(2.6202340871138,6.49109954697407,0.));
#529=CARTESIAN_POINT('',(1.6202340871138,6.49109954697407,2.));
#530=CARTESIAN_POINT('Origin',(2.6202340871138,6.49109954697407,2.));
#531=CARTESIAN_POINT('',(1.6202340871138,6.49109954697407,0.));
#532=CARTESIAN_POINT('',(1.6202340871138,6.49109954697407,0.));
#533=CARTESIAN_POINT('Origin',(2.6202340871138,6.49109954697407,0.));
#534=CARTESIAN_POINT('Origin',(5.49807354550593,2.40232955445525,0.));
#535=CARTESIAN_POINT('',(3.66538236367055,1.60155303630347,0.));
#536=CARTESIAN_POINT('',(7.33076472734121,3.20310607260699,0.));
#537=CARTESIAN_POINT('Origin',(5.49807354550593,2.40232955445525,0.));
#538=CARTESIAN_POINT('',(7.33076472734121,3.20310607260699,2.));
#539=CARTESIAN_POINT('',(7.33076472734121,3.20310607260699,0.));
#540=CARTESIAN_POINT('',(3.66538236367055,1.60155303630347,2.));
#541=CARTESIAN_POINT('Origin',(5.49807354550593,2.40232955445525,2.));
#542=CARTESIAN_POINT('',(3.66538236367055,1.60155303630347,0.));
#543=CARTESIAN_POINT('Origin',(0.,0.,0.));
#544=CARTESIAN_POINT('',(3.96516684249345,-0.52673704178694,0.));
#545=CARTESIAN_POINT('Origin',(0.,0.,0.));
#546=CARTESIAN_POINT('',(3.96516684249345,-0.52673704178694,2.));
#547=CARTESIAN_POINT('Origin',(0.,0.,2.));
#548=CARTESIAN_POINT('',(3.96516684249345,-0.52673704178694,0.));
#549=CARTESIAN_POINT('Origin',(5.94775026374018,-0.790105562680407,0.));
#550=CARTESIAN_POINT('',(7.93033368498692,-1.05347408357388,0.));
#551=CARTESIAN_POINT('Origin',(5.94775026374018,-0.790105562680407,0.));
#552=CARTESIAN_POINT('',(7.93033368498692,-1.05347408357388,2.));
#553=CARTESIAN_POINT('Origin',(5.94775026374018,-0.790105562680407,2.));
#554=CARTESIAN_POINT('',(7.93033368498692,-1.05347408357388,0.));
#555=CARTESIAN_POINT('Origin',(0.,0.,0.));
#556=CARTESIAN_POINT('Origin',(0.,0.,0.));
#557=CARTESIAN_POINT('Origin',(0.,0.,2.));
#558=CARTESIAN_POINT('Origin',(0.,0.,0.));
#559=CARTESIAN_POINT('',(-10.,-1.11022302462516E-15,2.));
#560=CARTESIAN_POINT('Origin',(0.,0.,2.));
#561=CARTESIAN_POINT('',(-10.,-1.22464679914735E-15,0.));
#562=CARTESIAN_POINT('',(-10.,-1.22464679914735E-15,0.));
#563=CARTESIAN_POINT('Origin',(0.,0.,0.));
#564=CARTESIAN_POINT('Origin',(0.,0.,2.));
#565=CARTESIAN_POINT('Origin',(0.,0.,0.));
#566=UNCERTAINTY_MEASURE_WITH_UNIT(LENGTH_MEASURE(0.01),#570,
'DISTANCE_ACCURACY_VALUE',
'Maximum model space distance between geometric entities at asserted c
onnectivities');
#567=UNCERTAINTY_MEASURE_WITH_UNIT(LENGTH_MEASURE(0.01),#570,
'DISTANCE_ACCURACY_VALUE',
'Maximum model space distance between geometric entities at asserted c
onnectivities');
#568=(
GEOMETRIC_REPRESENTATION_CONTEXT(3)
GLOBAL_UNCERTAINTY_ASSIGNED_CONTEXT((#566))
GLOBAL_UNIT_ASSIGNED_CONTEXT((#570,#572,#573))
REPRESENTATION_CONTEXT('','3D')
);
#569=(
GEOMETRIC_REPRESENTATION_CONTEXT(3)
GLOBAL_UNCERTAINTY_ASSIGNED_CONTEXT((#567))
GLOBAL_UNIT_ASSIGNED_CONTEXT((#570,#572,#573))
REPRESENTATION_CONTEXT('','3D')
);
#570=(
LENGTH_UNIT()
NAMED_UNIT(*)
SI_UNIT(.MILLI.,.METRE.)
);
#571=(
LENGTH_UNIT()
NAMED_UNIT(*)
SI_UNIT($,.METRE.)
);
#572=(
NAMED_UNIT(*)
PLANE_ANGLE_UNIT()
SI_UNIT($,.RADIAN.)
);
#573=(
NAMED_UNIT(*)
SI_UNIT($,.STERADIAN.)
SOLID_ANGLE_UNIT()
);
#574=SHAPE_DEFINITION_REPRESENTATION(#575,#576);
#575=PRODUCT_DEFINITION_SHAPE('',$,#578);
#576=SHAPE_REPRESENTATION('',(#330),#568);
#577=PRODUCT_DEFINITION_CONTEXT('part definition',#582,'design');
#578=PRODUCT_DEFINITION('UpperVertibraeV1','UpperVertibraeV1 v11',#579,
#577);
#579=PRODUCT_DEFINITION_FORMATION('',$,#584);
#580=PRODUCT_RELATED_PRODUCT_CATEGORY('UpperVertibraeV1 v11',
'UpperVertibraeV1 v11',(#584));
#581=APPLICATION_PROTOCOL_DEFINITION('international standard',
'automotive_design',2009,#582);
#582=APPLICATION_CONTEXT(
'Core Data for Automotive Mechanical Design Process');
#583=PRODUCT_CONTEXT('part definition',#582,'mechanical');
#584=PRODUCT('UpperVertibraeV1','UpperVertibraeV1 v11',$,(#583));
#585=PRESENTATION_STYLE_ASSIGNMENT((#587));
#586=PRESENTATION_STYLE_ASSIGNMENT((#588));
#587=SURFACE_STYLE_USAGE(.BOTH.,#589);
#588=SURFACE_STYLE_USAGE(.BOTH.,#590);
#589=SURFACE_SIDE_STYLE('',(#591));
#590=SURFACE_SIDE_STYLE('',(#592));
#591=SURFACE_STYLE_FILL_AREA(#593);
#592=SURFACE_STYLE_FILL_AREA(#594);
#593=FILL_AREA_STYLE('Steel - Satin',(#595));
#594=FILL_AREA_STYLE('Acrylic (Clear)',(#596));
#595=FILL_AREA_STYLE_COLOUR('Steel - Satin',#597);
#596=FILL_AREA_STYLE_COLOUR('Acrylic (Clear)',#598);
#597=COLOUR_RGB('Steel - Satin',0.627450980392157,0.627450980392157,0.627450980392157);
#598=COLOUR_RGB('Acrylic (Clear)',0.964705882352941,0.964705882352941,0.952941176470588);
ENDSEC;
END-ISO-10303-21;
