ISO-10303-21;
HEADER;
/* Generated by software containing ST-Developer
 * from STEP Tools, Inc. (www.steptools.com) 
 */

FILE_DESCRIPTION(
/* description */ (''),
/* implementation_level */ '2;1');

FILE_NAME(
/* name */ 'MidPlate_v4.step',
/* time_stamp */ '2026-08-21T09:17:01-04:00',
/* author */ (''),
/* organization */ (''),
/* preprocessor_version */ 'ST-DEVELOPER v20.1',
/* originating_system */ 'Autodesk Translation Framework v15.8.0.0',
/* authorisation */ '');

FILE_SCHEMA (('AUTOMOTIVE_DESIGN { 1 0 10303 214 3 1 1 }'));
ENDSEC;

DATA;
#10=MECHANICAL_DESIGN_GEOMETRIC_PRESENTATION_REPRESENTATION('',(#13),#710);
#11=SHAPE_REPRESENTATION_RELATIONSHIP('SRR','None',#717,#12);
#12=ADVANCED_BREP_SHAPE_REPRESENTATION('',(#14),#709);
#13=STYLED_ITEM('',(#727),#14);
#14=MANIFOLD_SOLID_BREP('Body2',#410);
#15=FACE_BOUND('',#86,.T.);
#16=FACE_BOUND('',#87,.T.);
#17=FACE_BOUND('',#88,.T.);
#18=FACE_BOUND('',#89,.T.);
#19=FACE_BOUND('',#90,.T.);
#20=FACE_BOUND('',#91,.T.);
#21=FACE_BOUND('',#92,.T.);
#22=FACE_BOUND('',#93,.T.);
#23=FACE_BOUND('',#94,.T.);
#24=FACE_BOUND('',#95,.T.);
#25=FACE_BOUND('',#96,.T.);
#26=FACE_BOUND('',#97,.T.);
#27=FACE_BOUND('',#98,.T.);
#28=FACE_BOUND('',#99,.T.);
#29=FACE_BOUND('',#100,.T.);
#30=FACE_BOUND('',#101,.T.);
#31=FACE_BOUND('',#103,.T.);
#32=FACE_BOUND('',#104,.T.);
#33=FACE_BOUND('',#105,.T.);
#34=FACE_BOUND('',#106,.T.);
#35=FACE_BOUND('',#107,.T.);
#36=FACE_BOUND('',#108,.T.);
#37=FACE_BOUND('',#109,.T.);
#38=FACE_BOUND('',#110,.T.);
#39=FACE_BOUND('',#111,.T.);
#40=FACE_BOUND('',#112,.T.);
#41=FACE_BOUND('',#113,.T.);
#42=FACE_BOUND('',#114,.T.);
#43=FACE_BOUND('',#115,.T.);
#44=FACE_BOUND('',#116,.T.);
#45=FACE_BOUND('',#117,.T.);
#46=FACE_BOUND('',#118,.T.);
#47=PLANE('',#475);
#48=PLANE('',#476);
#49=FACE_OUTER_BOUND('',#68,.T.);
#50=FACE_OUTER_BOUND('',#69,.T.);
#51=FACE_OUTER_BOUND('',#70,.T.);
#52=FACE_OUTER_BOUND('',#71,.T.);
#53=FACE_OUTER_BOUND('',#72,.T.);
#54=FACE_OUTER_BOUND('',#73,.T.);
#55=FACE_OUTER_BOUND('',#74,.T.);
#56=FACE_OUTER_BOUND('',#75,.T.);
#57=FACE_OUTER_BOUND('',#76,.T.);
#58=FACE_OUTER_BOUND('',#77,.T.);
#59=FACE_OUTER_BOUND('',#78,.T.);
#60=FACE_OUTER_BOUND('',#79,.T.);
#61=FACE_OUTER_BOUND('',#80,.T.);
#62=FACE_OUTER_BOUND('',#81,.T.);
#63=FACE_OUTER_BOUND('',#82,.T.);
#64=FACE_OUTER_BOUND('',#83,.T.);
#65=FACE_OUTER_BOUND('',#84,.T.);
#66=FACE_OUTER_BOUND('',#85,.T.);
#67=FACE_OUTER_BOUND('',#102,.T.);
#68=EDGE_LOOP('',(#272,#273,#274,#275));
#69=EDGE_LOOP('',(#276,#277,#278,#279));
#70=EDGE_LOOP('',(#280,#281,#282,#283));
#71=EDGE_LOOP('',(#284,#285,#286,#287));
#72=EDGE_LOOP('',(#288,#289,#290,#291));
#73=EDGE_LOOP('',(#292,#293,#294,#295));
#74=EDGE_LOOP('',(#296,#297,#298,#299));
#75=EDGE_LOOP('',(#300,#301,#302,#303));
#76=EDGE_LOOP('',(#304,#305,#306,#307));
#77=EDGE_LOOP('',(#308,#309,#310,#311));
#78=EDGE_LOOP('',(#312,#313,#314,#315));
#79=EDGE_LOOP('',(#316,#317,#318,#319));
#80=EDGE_LOOP('',(#320,#321,#322,#323));
#81=EDGE_LOOP('',(#324,#325,#326,#327));
#82=EDGE_LOOP('',(#328,#329,#330,#331));
#83=EDGE_LOOP('',(#332,#333,#334,#335));
#84=EDGE_LOOP('',(#336,#337,#338,#339));
#85=EDGE_LOOP('',(#340));
#86=EDGE_LOOP('',(#341));
#87=EDGE_LOOP('',(#342));
#88=EDGE_LOOP('',(#343));
#89=EDGE_LOOP('',(#344));
#90=EDGE_LOOP('',(#345));
#91=EDGE_LOOP('',(#346));
#92=EDGE_LOOP('',(#347));
#93=EDGE_LOOP('',(#348));
#94=EDGE_LOOP('',(#349));
#95=EDGE_LOOP('',(#350));
#96=EDGE_LOOP('',(#351));
#97=EDGE_LOOP('',(#352));
#98=EDGE_LOOP('',(#353));
#99=EDGE_LOOP('',(#354));
#100=EDGE_LOOP('',(#355));
#101=EDGE_LOOP('',(#356));
#102=EDGE_LOOP('',(#357));
#103=EDGE_LOOP('',(#358));
#104=EDGE_LOOP('',(#359));
#105=EDGE_LOOP('',(#360));
#106=EDGE_LOOP('',(#361));
#107=EDGE_LOOP('',(#362));
#108=EDGE_LOOP('',(#363));
#109=EDGE_LOOP('',(#364));
#110=EDGE_LOOP('',(#365));
#111=EDGE_LOOP('',(#366));
#112=EDGE_LOOP('',(#367));
#113=EDGE_LOOP('',(#368));
#114=EDGE_LOOP('',(#369));
#115=EDGE_LOOP('',(#370));
#116=EDGE_LOOP('',(#371));
#117=EDGE_LOOP('',(#372));
#118=EDGE_LOOP('',(#373));
#119=LINE('',#607,#136);
#120=LINE('',#613,#137);
#121=LINE('',#619,#138);
#122=LINE('',#625,#139);
#123=LINE('',#631,#140);
#124=LINE('',#637,#141);
#125=LINE('',#643,#142);
#126=LINE('',#649,#143);
#127=LINE('',#655,#144);
#128=LINE('',#661,#145);
#129=LINE('',#667,#146);
#130=LINE('',#673,#147);
#131=LINE('',#679,#148);
#132=LINE('',#685,#149);
#133=LINE('',#691,#150);
#134=LINE('',#697,#151);
#135=LINE('',#703,#152);
#136=VECTOR('',#483,2.);
#137=VECTOR('',#490,3.);
#138=VECTOR('',#497,3.);
#139=VECTOR('',#504,3.);
#140=VECTOR('',#511,2.);
#141=VECTOR('',#518,2.);
#142=VECTOR('',#525,3.);
#143=VECTOR('',#532,2.);
#144=VECTOR('',#539,2.00000000000001);
#145=VECTOR('',#546,2.);
#146=VECTOR('',#553,3.);
#147=VECTOR('',#560,3.);
#148=VECTOR('',#567,2.00000000000001);
#149=VECTOR('',#574,2.00000000000001);
#150=VECTOR('',#581,3.);
#151=VECTOR('',#588,3.);
#152=VECTOR('',#595,60.);
#153=CIRCLE('',#425,2.);
#154=CIRCLE('',#426,2.);
#155=CIRCLE('',#428,3.);
#156=CIRCLE('',#429,3.);
#157=CIRCLE('',#431,3.);
#158=CIRCLE('',#432,3.);
#159=CIRCLE('',#434,3.);
#160=CIRCLE('',#435,3.);
#161=CIRCLE('',#437,2.);
#162=CIRCLE('',#438,2.);
#163=CIRCLE('',#440,2.);
#164=CIRCLE('',#441,2.);
#165=CIRCLE('',#443,3.);
#166=CIRCLE('',#444,3.);
#167=CIRCLE('',#446,2.);
#168=CIRCLE('',#447,2.);
#169=CIRCLE('',#449,2.00000000000001);
#170=CIRCLE('',#450,2.00000000000001);
#171=CIRCLE('',#452,2.);
#172=CIRCLE('',#453,2.);
#173=CIRCLE('',#455,3.);
#174=CIRCLE('',#456,3.);
#175=CIRCLE('',#458,3.);
#176=CIRCLE('',#459,3.);
#177=CIRCLE('',#461,2.00000000000001);
#178=CIRCLE('',#462,2.00000000000001);
#179=CIRCLE('',#464,2.00000000000001);
#180=CIRCLE('',#465,2.00000000000001);
#181=CIRCLE('',#467,3.);
#182=CIRCLE('',#468,3.);
#183=CIRCLE('',#470,3.);
#184=CIRCLE('',#471,3.);
#185=CIRCLE('',#473,60.);
#186=CIRCLE('',#474,60.);
#187=VERTEX_POINT('',#604);
#188=VERTEX_POINT('',#606);
#189=VERTEX_POINT('',#610);
#190=VERTEX_POINT('',#612);
#191=VERTEX_POINT('',#616);
#192=VERTEX_POINT('',#618);
#193=VERTEX_POINT('',#622);
#194=VERTEX_POINT('',#624);
#195=VERTEX_POINT('',#628);
#196=VERTEX_POINT('',#630);
#197=VERTEX_POINT('',#634);
#198=VERTEX_POINT('',#636);
#199=VERTEX_POINT('',#640);
#200=VERTEX_POINT('',#642);
#201=VERTEX_POINT('',#646);
#202=VERTEX_POINT('',#648);
#203=VERTEX_POINT('',#652);
#204=VERTEX_POINT('',#654);
#205=VERTEX_POINT('',#658);
#206=VERTEX_POINT('',#660);
#207=VERTEX_POINT('',#664);
#208=VERTEX_POINT('',#666);
#209=VERTEX_POINT('',#670);
#210=VERTEX_POINT('',#672);
#211=VERTEX_POINT('',#676);
#212=VERTEX_POINT('',#678);
#213=VERTEX_POINT('',#682);
#214=VERTEX_POINT('',#684);
#215=VERTEX_POINT('',#688);
#216=VERTEX_POINT('',#690);
#217=VERTEX_POINT('',#694);
#218=VERTEX_POINT('',#696);
#219=VERTEX_POINT('',#700);
#220=VERTEX_POINT('',#702);
#221=EDGE_CURVE('',#187,#187,#153,.T.);
#222=EDGE_CURVE('',#187,#188,#119,.T.);
#223=EDGE_CURVE('',#188,#188,#154,.T.);
#224=EDGE_CURVE('',#189,#189,#155,.T.);
#225=EDGE_CURVE('',#189,#190,#120,.T.);
#226=EDGE_CURVE('',#190,#190,#156,.T.);
#227=EDGE_CURVE('',#191,#191,#157,.T.);
#228=EDGE_CURVE('',#191,#192,#121,.T.);
#229=EDGE_CURVE('',#192,#192,#158,.T.);
#230=EDGE_CURVE('',#193,#193,#159,.T.);
#231=EDGE_CURVE('',#193,#194,#122,.T.);
#232=EDGE_CURVE('',#194,#194,#160,.T.);
#233=EDGE_CURVE('',#195,#195,#161,.T.);
#234=EDGE_CURVE('',#195,#196,#123,.T.);
#235=EDGE_CURVE('',#196,#196,#162,.T.);
#236=EDGE_CURVE('',#197,#197,#163,.T.);
#237=EDGE_CURVE('',#197,#198,#124,.T.);
#238=EDGE_CURVE('',#198,#198,#164,.T.);
#239=EDGE_CURVE('',#199,#199,#165,.T.);
#240=EDGE_CURVE('',#199,#200,#125,.T.);
#241=EDGE_CURVE('',#200,#200,#166,.T.);
#242=EDGE_CURVE('',#201,#201,#167,.T.);
#243=EDGE_CURVE('',#201,#202,#126,.T.);
#244=EDGE_CURVE('',#202,#202,#168,.T.);
#245=EDGE_CURVE('',#203,#203,#169,.T.);
#246=EDGE_CURVE('',#203,#204,#127,.T.);
#247=EDGE_CURVE('',#204,#204,#170,.T.);
#248=EDGE_CURVE('',#205,#205,#171,.T.);
#249=EDGE_CURVE('',#205,#206,#128,.T.);
#250=EDGE_CURVE('',#206,#206,#172,.T.);
#251=EDGE_CURVE('',#207,#207,#173,.T.);
#252=EDGE_CURVE('',#207,#208,#129,.T.);
#253=EDGE_CURVE('',#208,#208,#174,.T.);
#254=EDGE_CURVE('',#209,#209,#175,.T.);
#255=EDGE_CURVE('',#209,#210,#130,.T.);
#256=EDGE_CURVE('',#210,#210,#176,.T.);
#257=EDGE_CURVE('',#211,#211,#177,.T.);
#258=EDGE_CURVE('',#211,#212,#131,.T.);
#259=EDGE_CURVE('',#212,#212,#178,.T.);
#260=EDGE_CURVE('',#213,#213,#179,.T.);
#261=EDGE_CURVE('',#213,#214,#132,.T.);
#262=EDGE_CURVE('',#214,#214,#180,.T.);
#263=EDGE_CURVE('',#215,#215,#181,.T.);
#264=EDGE_CURVE('',#215,#216,#133,.T.);
#265=EDGE_CURVE('',#216,#216,#182,.T.);
#266=EDGE_CURVE('',#217,#217,#183,.T.);
#267=EDGE_CURVE('',#217,#218,#134,.T.);
#268=EDGE_CURVE('',#218,#218,#184,.T.);
#269=EDGE_CURVE('',#219,#219,#185,.T.);
#270=EDGE_CURVE('',#219,#220,#135,.T.);
#271=EDGE_CURVE('',#220,#220,#186,.T.);
#272=ORIENTED_EDGE('',*,*,#221,.F.);
#273=ORIENTED_EDGE('',*,*,#222,.T.);
#274=ORIENTED_EDGE('',*,*,#223,.T.);
#275=ORIENTED_EDGE('',*,*,#222,.F.);
#276=ORIENTED_EDGE('',*,*,#224,.F.);
#277=ORIENTED_EDGE('',*,*,#225,.T.);
#278=ORIENTED_EDGE('',*,*,#226,.T.);
#279=ORIENTED_EDGE('',*,*,#225,.F.);
#280=ORIENTED_EDGE('',*,*,#227,.F.);
#281=ORIENTED_EDGE('',*,*,#228,.T.);
#282=ORIENTED_EDGE('',*,*,#229,.T.);
#283=ORIENTED_EDGE('',*,*,#228,.F.);
#284=ORIENTED_EDGE('',*,*,#230,.F.);
#285=ORIENTED_EDGE('',*,*,#231,.T.);
#286=ORIENTED_EDGE('',*,*,#232,.T.);
#287=ORIENTED_EDGE('',*,*,#231,.F.);
#288=ORIENTED_EDGE('',*,*,#233,.F.);
#289=ORIENTED_EDGE('',*,*,#234,.T.);
#290=ORIENTED_EDGE('',*,*,#235,.T.);
#291=ORIENTED_EDGE('',*,*,#234,.F.);
#292=ORIENTED_EDGE('',*,*,#236,.F.);
#293=ORIENTED_EDGE('',*,*,#237,.T.);
#294=ORIENTED_EDGE('',*,*,#238,.T.);
#295=ORIENTED_EDGE('',*,*,#237,.F.);
#296=ORIENTED_EDGE('',*,*,#239,.F.);
#297=ORIENTED_EDGE('',*,*,#240,.T.);
#298=ORIENTED_EDGE('',*,*,#241,.T.);
#299=ORIENTED_EDGE('',*,*,#240,.F.);
#300=ORIENTED_EDGE('',*,*,#242,.F.);
#301=ORIENTED_EDGE('',*,*,#243,.T.);
#302=ORIENTED_EDGE('',*,*,#244,.T.);
#303=ORIENTED_EDGE('',*,*,#243,.F.);
#304=ORIENTED_EDGE('',*,*,#245,.F.);
#305=ORIENTED_EDGE('',*,*,#246,.T.);
#306=ORIENTED_EDGE('',*,*,#247,.T.);
#307=ORIENTED_EDGE('',*,*,#246,.F.);
#308=ORIENTED_EDGE('',*,*,#248,.F.);
#309=ORIENTED_EDGE('',*,*,#249,.T.);
#310=ORIENTED_EDGE('',*,*,#250,.T.);
#311=ORIENTED_EDGE('',*,*,#249,.F.);
#312=ORIENTED_EDGE('',*,*,#251,.F.);
#313=ORIENTED_EDGE('',*,*,#252,.T.);
#314=ORIENTED_EDGE('',*,*,#253,.T.);
#315=ORIENTED_EDGE('',*,*,#252,.F.);
#316=ORIENTED_EDGE('',*,*,#254,.F.);
#317=ORIENTED_EDGE('',*,*,#255,.T.);
#318=ORIENTED_EDGE('',*,*,#256,.T.);
#319=ORIENTED_EDGE('',*,*,#255,.F.);
#320=ORIENTED_EDGE('',*,*,#257,.F.);
#321=ORIENTED_EDGE('',*,*,#258,.T.);
#322=ORIENTED_EDGE('',*,*,#259,.T.);
#323=ORIENTED_EDGE('',*,*,#258,.F.);
#324=ORIENTED_EDGE('',*,*,#260,.F.);
#325=ORIENTED_EDGE('',*,*,#261,.T.);
#326=ORIENTED_EDGE('',*,*,#262,.T.);
#327=ORIENTED_EDGE('',*,*,#261,.F.);
#328=ORIENTED_EDGE('',*,*,#263,.F.);
#329=ORIENTED_EDGE('',*,*,#264,.T.);
#330=ORIENTED_EDGE('',*,*,#265,.T.);
#331=ORIENTED_EDGE('',*,*,#264,.F.);
#332=ORIENTED_EDGE('',*,*,#266,.F.);
#333=ORIENTED_EDGE('',*,*,#267,.T.);
#334=ORIENTED_EDGE('',*,*,#268,.T.);
#335=ORIENTED_EDGE('',*,*,#267,.F.);
#336=ORIENTED_EDGE('',*,*,#269,.F.);
#337=ORIENTED_EDGE('',*,*,#270,.T.);
#338=ORIENTED_EDGE('',*,*,#271,.T.);
#339=ORIENTED_EDGE('',*,*,#270,.F.);
#340=ORIENTED_EDGE('',*,*,#269,.T.);
#341=ORIENTED_EDGE('',*,*,#266,.T.);
#342=ORIENTED_EDGE('',*,*,#263,.T.);
#343=ORIENTED_EDGE('',*,*,#260,.T.);
#344=ORIENTED_EDGE('',*,*,#257,.T.);
#345=ORIENTED_EDGE('',*,*,#254,.T.);
#346=ORIENTED_EDGE('',*,*,#251,.T.);
#347=ORIENTED_EDGE('',*,*,#248,.T.);
#348=ORIENTED_EDGE('',*,*,#245,.T.);
#349=ORIENTED_EDGE('',*,*,#242,.T.);
#350=ORIENTED_EDGE('',*,*,#239,.T.);
#351=ORIENTED_EDGE('',*,*,#236,.T.);
#352=ORIENTED_EDGE('',*,*,#233,.T.);
#353=ORIENTED_EDGE('',*,*,#230,.T.);
#354=ORIENTED_EDGE('',*,*,#227,.T.);
#355=ORIENTED_EDGE('',*,*,#224,.T.);
#356=ORIENTED_EDGE('',*,*,#221,.T.);
#357=ORIENTED_EDGE('',*,*,#271,.F.);
#358=ORIENTED_EDGE('',*,*,#268,.F.);
#359=ORIENTED_EDGE('',*,*,#265,.F.);
#360=ORIENTED_EDGE('',*,*,#262,.F.);
#361=ORIENTED_EDGE('',*,*,#259,.F.);
#362=ORIENTED_EDGE('',*,*,#256,.F.);
#363=ORIENTED_EDGE('',*,*,#253,.F.);
#364=ORIENTED_EDGE('',*,*,#250,.F.);
#365=ORIENTED_EDGE('',*,*,#247,.F.);
#366=ORIENTED_EDGE('',*,*,#244,.F.);
#367=ORIENTED_EDGE('',*,*,#241,.F.);
#368=ORIENTED_EDGE('',*,*,#238,.F.);
#369=ORIENTED_EDGE('',*,*,#235,.F.);
#370=ORIENTED_EDGE('',*,*,#232,.F.);
#371=ORIENTED_EDGE('',*,*,#229,.F.);
#372=ORIENTED_EDGE('',*,*,#226,.F.);
#373=ORIENTED_EDGE('',*,*,#223,.F.);
#374=CYLINDRICAL_SURFACE('',#424,2.);
#375=CYLINDRICAL_SURFACE('',#427,3.);
#376=CYLINDRICAL_SURFACE('',#430,3.);
#377=CYLINDRICAL_SURFACE('',#433,3.);
#378=CYLINDRICAL_SURFACE('',#436,2.);
#379=CYLINDRICAL_SURFACE('',#439,2.);
#380=CYLINDRICAL_SURFACE('',#442,3.);
#381=CYLINDRICAL_SURFACE('',#445,2.);
#382=CYLINDRICAL_SURFACE('',#448,2.00000000000001);
#383=CYLINDRICAL_SURFACE('',#451,2.);
#384=CYLINDRICAL_SURFACE('',#454,3.);
#385=CYLINDRICAL_SURFACE('',#457,3.);
#386=CYLINDRICAL_SURFACE('',#460,2.00000000000001);
#387=CYLINDRICAL_SURFACE('',#463,2.00000000000001);
#388=CYLINDRICAL_SURFACE('',#466,3.);
#389=CYLINDRICAL_SURFACE('',#469,3.);
#390=CYLINDRICAL_SURFACE('',#472,60.);
#391=ADVANCED_FACE('',(#49),#374,.F.);
#392=ADVANCED_FACE('',(#50),#375,.F.);
#393=ADVANCED_FACE('',(#51),#376,.F.);
#394=ADVANCED_FACE('',(#52),#377,.F.);
#395=ADVANCED_FACE('',(#53),#378,.F.);
#396=ADVANCED_FACE('',(#54),#379,.F.);
#397=ADVANCED_FACE('',(#55),#380,.F.);
#398=ADVANCED_FACE('',(#56),#381,.F.);
#399=ADVANCED_FACE('',(#57),#382,.F.);
#400=ADVANCED_FACE('',(#58),#383,.F.);
#401=ADVANCED_FACE('',(#59),#384,.F.);
#402=ADVANCED_FACE('',(#60),#385,.F.);
#403=ADVANCED_FACE('',(#61),#386,.F.);
#404=ADVANCED_FACE('',(#62),#387,.F.);
#405=ADVANCED_FACE('',(#63),#388,.F.);
#406=ADVANCED_FACE('',(#64),#389,.F.);
#407=ADVANCED_FACE('',(#65),#390,.T.);
#408=ADVANCED_FACE('',(#66,#15,#16,#17,#18,#19,#20,#21,#22,#23,#24,#25,
#26,#27,#28,#29,#30),#47,.T.);
#409=ADVANCED_FACE('',(#67,#31,#32,#33,#34,#35,#36,#37,#38,#39,#40,#41,
#42,#43,#44,#45,#46),#48,.F.);
#410=CLOSED_SHELL('',(#391,#392,#393,#394,#395,#396,#397,#398,#399,#400,
#401,#402,#403,#404,#405,#406,#407,#408,#409));
#411=DERIVED_UNIT_ELEMENT(#413,1.);
#412=DERIVED_UNIT_ELEMENT(#712,-3.);
#413=(
MASS_UNIT()
NAMED_UNIT(*)
SI_UNIT(.KILO.,.GRAM.)
);
#414=DERIVED_UNIT((#411,#412));
#415=MEASURE_REPRESENTATION_ITEM('density measure',
POSITIVE_RATIO_MEASURE(7850.),#414);
#416=PROPERTY_DEFINITION_REPRESENTATION(#421,#418);
#417=PROPERTY_DEFINITION_REPRESENTATION(#422,#419);
#418=REPRESENTATION('material name',(#420),#709);
#419=REPRESENTATION('density',(#415),#709);
#420=DESCRIPTIVE_REPRESENTATION_ITEM('Steel','Steel');
#421=PROPERTY_DEFINITION('material property','material name',#719);
#422=PROPERTY_DEFINITION('material property','density of part',#719);
#423=AXIS2_PLACEMENT_3D('',#602,#477,#478);
#424=AXIS2_PLACEMENT_3D('',#603,#479,#480);
#425=AXIS2_PLACEMENT_3D('',#605,#481,#482);
#426=AXIS2_PLACEMENT_3D('',#608,#484,#485);
#427=AXIS2_PLACEMENT_3D('',#609,#486,#487);
#428=AXIS2_PLACEMENT_3D('',#611,#488,#489);
#429=AXIS2_PLACEMENT_3D('',#614,#491,#492);
#430=AXIS2_PLACEMENT_3D('',#615,#493,#494);
#431=AXIS2_PLACEMENT_3D('',#617,#495,#496);
#432=AXIS2_PLACEMENT_3D('',#620,#498,#499);
#433=AXIS2_PLACEMENT_3D('',#621,#500,#501);
#434=AXIS2_PLACEMENT_3D('',#623,#502,#503);
#435=AXIS2_PLACEMENT_3D('',#626,#505,#506);
#436=AXIS2_PLACEMENT_3D('',#627,#507,#508);
#437=AXIS2_PLACEMENT_3D('',#629,#509,#510);
#438=AXIS2_PLACEMENT_3D('',#632,#512,#513);
#439=AXIS2_PLACEMENT_3D('',#633,#514,#515);
#440=AXIS2_PLACEMENT_3D('',#635,#516,#517);
#441=AXIS2_PLACEMENT_3D('',#638,#519,#520);
#442=AXIS2_PLACEMENT_3D('',#639,#521,#522);
#443=AXIS2_PLACEMENT_3D('',#641,#523,#524);
#444=AXIS2_PLACEMENT_3D('',#644,#526,#527);
#445=AXIS2_PLACEMENT_3D('',#645,#528,#529);
#446=AXIS2_PLACEMENT_3D('',#647,#530,#531);
#447=AXIS2_PLACEMENT_3D('',#650,#533,#534);
#448=AXIS2_PLACEMENT_3D('',#651,#535,#536);
#449=AXIS2_PLACEMENT_3D('',#653,#537,#538);
#450=AXIS2_PLACEMENT_3D('',#656,#540,#541);
#451=AXIS2_PLACEMENT_3D('',#657,#542,#543);
#452=AXIS2_PLACEMENT_3D('',#659,#544,#545);
#453=AXIS2_PLACEMENT_3D('',#662,#547,#548);
#454=AXIS2_PLACEMENT_3D('',#663,#549,#550);
#455=AXIS2_PLACEMENT_3D('',#665,#551,#552);
#456=AXIS2_PLACEMENT_3D('',#668,#554,#555);
#457=AXIS2_PLACEMENT_3D('',#669,#556,#557);
#458=AXIS2_PLACEMENT_3D('',#671,#558,#559);
#459=AXIS2_PLACEMENT_3D('',#674,#561,#562);
#460=AXIS2_PLACEMENT_3D('',#675,#563,#564);
#461=AXIS2_PLACEMENT_3D('',#677,#565,#566);
#462=AXIS2_PLACEMENT_3D('',#680,#568,#569);
#463=AXIS2_PLACEMENT_3D('',#681,#570,#571);
#464=AXIS2_PLACEMENT_3D('',#683,#572,#573);
#465=AXIS2_PLACEMENT_3D('',#686,#575,#576);
#466=AXIS2_PLACEMENT_3D('',#687,#577,#578);
#467=AXIS2_PLACEMENT_3D('',#689,#579,#580);
#468=AXIS2_PLACEMENT_3D('',#692,#582,#583);
#469=AXIS2_PLACEMENT_3D('',#693,#584,#585);
#470=AXIS2_PLACEMENT_3D('',#695,#586,#587);
#471=AXIS2_PLACEMENT_3D('',#698,#589,#590);
#472=AXIS2_PLACEMENT_3D('',#699,#591,#592);
#473=AXIS2_PLACEMENT_3D('',#701,#593,#594);
#474=AXIS2_PLACEMENT_3D('',#704,#596,#597);
#475=AXIS2_PLACEMENT_3D('',#705,#598,#599);
#476=AXIS2_PLACEMENT_3D('',#706,#600,#601);
#477=DIRECTION('axis',(0.,0.,1.));
#478=DIRECTION('refdir',(1.,0.,0.));
#479=DIRECTION('center_axis',(0.,0.,1.));
#480=DIRECTION('ref_axis',(1.,0.,0.));
#481=DIRECTION('center_axis',(0.,0.,-1.));
#482=DIRECTION('ref_axis',(1.,0.,0.));
#483=DIRECTION('',(0.,0.,-1.));
#484=DIRECTION('center_axis',(0.,0.,-1.));
#485=DIRECTION('ref_axis',(1.,0.,0.));
#486=DIRECTION('center_axis',(0.,0.,1.));
#487=DIRECTION('ref_axis',(1.,0.,0.));
#488=DIRECTION('center_axis',(0.,0.,-1.));
#489=DIRECTION('ref_axis',(1.,0.,0.));
#490=DIRECTION('',(0.,0.,-1.));
#491=DIRECTION('center_axis',(0.,0.,-1.));
#492=DIRECTION('ref_axis',(1.,0.,0.));
#493=DIRECTION('center_axis',(0.,0.,1.));
#494=DIRECTION('ref_axis',(1.,0.,0.));
#495=DIRECTION('center_axis',(0.,0.,-1.));
#496=DIRECTION('ref_axis',(1.,0.,0.));
#497=DIRECTION('',(0.,0.,-1.));
#498=DIRECTION('center_axis',(0.,0.,-1.));
#499=DIRECTION('ref_axis',(1.,0.,0.));
#500=DIRECTION('center_axis',(0.,0.,1.));
#501=DIRECTION('ref_axis',(1.,0.,0.));
#502=DIRECTION('center_axis',(0.,0.,-1.));
#503=DIRECTION('ref_axis',(1.,0.,0.));
#504=DIRECTION('',(0.,0.,-1.));
#505=DIRECTION('center_axis',(0.,0.,-1.));
#506=DIRECTION('ref_axis',(1.,0.,0.));
#507=DIRECTION('center_axis',(0.,0.,1.));
#508=DIRECTION('ref_axis',(0.,-1.,0.));
#509=DIRECTION('center_axis',(0.,0.,-1.));
#510=DIRECTION('ref_axis',(0.,-1.,0.));
#511=DIRECTION('',(0.,0.,-1.));
#512=DIRECTION('center_axis',(0.,0.,-1.));
#513=DIRECTION('ref_axis',(0.,-1.,0.));
#514=DIRECTION('center_axis',(0.,0.,1.));
#515=DIRECTION('ref_axis',(0.,1.,0.));
#516=DIRECTION('center_axis',(0.,0.,-1.));
#517=DIRECTION('ref_axis',(0.,1.,0.));
#518=DIRECTION('',(0.,0.,-1.));
#519=DIRECTION('center_axis',(0.,0.,-1.));
#520=DIRECTION('ref_axis',(0.,1.,0.));
#521=DIRECTION('center_axis',(0.,0.,1.));
#522=DIRECTION('ref_axis',(1.,0.,0.));
#523=DIRECTION('center_axis',(0.,0.,-1.));
#524=DIRECTION('ref_axis',(1.,0.,0.));
#525=DIRECTION('',(0.,0.,-1.));
#526=DIRECTION('center_axis',(0.,0.,-1.));
#527=DIRECTION('ref_axis',(1.,0.,0.));
#528=DIRECTION('center_axis',(0.,0.,1.));
#529=DIRECTION('ref_axis',(-1.,0.,0.));
#530=DIRECTION('center_axis',(0.,0.,-1.));
#531=DIRECTION('ref_axis',(-1.,0.,0.));
#532=DIRECTION('',(0.,0.,-1.));
#533=DIRECTION('center_axis',(0.,0.,-1.));
#534=DIRECTION('ref_axis',(-1.,0.,0.));
#535=DIRECTION('center_axis',(0.,0.,1.));
#536=DIRECTION('ref_axis',(0.,1.,0.));
#537=DIRECTION('center_axis',(0.,0.,-1.));
#538=DIRECTION('ref_axis',(0.,1.,0.));
#539=DIRECTION('',(0.,0.,-1.));
#540=DIRECTION('center_axis',(0.,0.,-1.));
#541=DIRECTION('ref_axis',(0.,1.,0.));
#542=DIRECTION('center_axis',(0.,0.,1.));
#543=DIRECTION('ref_axis',(1.,0.,0.));
#544=DIRECTION('center_axis',(0.,0.,-1.));
#545=DIRECTION('ref_axis',(1.,0.,0.));
#546=DIRECTION('',(0.,0.,-1.));
#547=DIRECTION('center_axis',(0.,0.,-1.));
#548=DIRECTION('ref_axis',(1.,0.,0.));
#549=DIRECTION('center_axis',(0.,0.,1.));
#550=DIRECTION('ref_axis',(1.,0.,0.));
#551=DIRECTION('center_axis',(0.,0.,-1.));
#552=DIRECTION('ref_axis',(1.,0.,0.));
#553=DIRECTION('',(0.,0.,-1.));
#554=DIRECTION('center_axis',(0.,0.,-1.));
#555=DIRECTION('ref_axis',(1.,0.,0.));
#556=DIRECTION('center_axis',(0.,0.,1.));
#557=DIRECTION('ref_axis',(1.,0.,0.));
#558=DIRECTION('center_axis',(0.,0.,-1.));
#559=DIRECTION('ref_axis',(1.,0.,0.));
#560=DIRECTION('',(0.,0.,-1.));
#561=DIRECTION('center_axis',(0.,0.,-1.));
#562=DIRECTION('ref_axis',(1.,0.,0.));
#563=DIRECTION('center_axis',(0.,0.,1.));
#564=DIRECTION('ref_axis',(0.,-1.,0.));
#565=DIRECTION('center_axis',(0.,0.,-1.));
#566=DIRECTION('ref_axis',(0.,-1.,0.));
#567=DIRECTION('',(0.,0.,-1.));
#568=DIRECTION('center_axis',(0.,0.,-1.));
#569=DIRECTION('ref_axis',(0.,-1.,0.));
#570=DIRECTION('center_axis',(0.,0.,1.));
#571=DIRECTION('ref_axis',(-1.,0.,0.));
#572=DIRECTION('center_axis',(0.,0.,-1.));
#573=DIRECTION('ref_axis',(-1.,0.,0.));
#574=DIRECTION('',(0.,0.,-1.));
#575=DIRECTION('center_axis',(0.,0.,-1.));
#576=DIRECTION('ref_axis',(-1.,0.,0.));
#577=DIRECTION('center_axis',(0.,0.,1.));
#578=DIRECTION('ref_axis',(1.,0.,0.));
#579=DIRECTION('center_axis',(0.,0.,-1.));
#580=DIRECTION('ref_axis',(1.,0.,0.));
#581=DIRECTION('',(0.,0.,-1.));
#582=DIRECTION('center_axis',(0.,0.,-1.));
#583=DIRECTION('ref_axis',(1.,0.,0.));
#584=DIRECTION('center_axis',(0.,0.,1.));
#585=DIRECTION('ref_axis',(1.,0.,0.));
#586=DIRECTION('center_axis',(0.,0.,-1.));
#587=DIRECTION('ref_axis',(1.,0.,0.));
#588=DIRECTION('',(0.,0.,-1.));
#589=DIRECTION('center_axis',(0.,0.,-1.));
#590=DIRECTION('ref_axis',(1.,0.,0.));
#591=DIRECTION('center_axis',(0.,0.,1.));
#592=DIRECTION('ref_axis',(1.,0.,0.));
#593=DIRECTION('center_axis',(0.,0.,1.));
#594=DIRECTION('ref_axis',(1.,0.,0.));
#595=DIRECTION('',(0.,0.,-1.));
#596=DIRECTION('center_axis',(0.,0.,1.));
#597=DIRECTION('ref_axis',(1.,0.,0.));
#598=DIRECTION('center_axis',(0.,0.,1.));
#599=DIRECTION('ref_axis',(1.,0.,0.));
#600=DIRECTION('center_axis',(0.,0.,1.));
#601=DIRECTION('ref_axis',(1.,0.,0.));
#602=CARTESIAN_POINT('',(0.,0.,0.));
#603=CARTESIAN_POINT('Origin',(-24.4191534508875,23.2153176913921,0.));
#604=CARTESIAN_POINT('',(-26.4191534508875,23.2153176913921,3.));
#605=CARTESIAN_POINT('Origin',(-24.4191534508875,23.2153176913921,3.));
#606=CARTESIAN_POINT('',(-26.4191534508875,23.2153176913921,0.));
#607=CARTESIAN_POINT('',(-26.4191534508875,23.2153176913921,0.));
#608=CARTESIAN_POINT('Origin',(-24.4191534508875,23.2153176913921,0.));
#609=CARTESIAN_POINT('Origin',(-50.0000007450581,-4.28468230860789,0.));
#610=CARTESIAN_POINT('',(-53.0000007450581,-4.28468230860789,3.));
#611=CARTESIAN_POINT('Origin',(-50.0000007450581,-4.28468230860789,3.));
#612=CARTESIAN_POINT('',(-53.0000007450581,-4.28468230860789,0.));
#613=CARTESIAN_POINT('',(-53.0000007450581,-4.28468230860789,0.));
#614=CARTESIAN_POINT('Origin',(-50.0000007450581,-4.28468230860789,0.));
#615=CARTESIAN_POINT('Origin',(19.7153176913921,50.0000007450581,0.));
#616=CARTESIAN_POINT('',(16.7153176913921,50.0000007450581,3.));
#617=CARTESIAN_POINT('Origin',(19.7153176913921,50.0000007450581,3.));
#618=CARTESIAN_POINT('',(16.7153176913921,50.0000007450581,0.));
#619=CARTESIAN_POINT('',(16.7153176913921,50.0000007450581,0.));
#620=CARTESIAN_POINT('Origin',(19.7153176913921,50.0000007450581,0.));
#621=CARTESIAN_POINT('Origin',(4.2846823086079,-50.0000007450581,0.));
#622=CARTESIAN_POINT('',(1.2846823086079,-50.0000007450581,3.));
#623=CARTESIAN_POINT('Origin',(4.2846823086079,-50.0000007450581,3.));
#624=CARTESIAN_POINT('',(1.2846823086079,-50.0000007450581,0.));
#625=CARTESIAN_POINT('',(1.2846823086079,-50.0000007450581,0.));
#626=CARTESIAN_POINT('Origin',(4.2846823086079,-50.0000007450581,0.));
#627=CARTESIAN_POINT('Origin',(-7.78468230860789,24.4191534508875,0.));
#628=CARTESIAN_POINT('',(-7.78468230860789,26.4191534508875,3.));
#629=CARTESIAN_POINT('Origin',(-7.78468230860789,24.4191534508875,3.));
#630=CARTESIAN_POINT('',(-7.78468230860789,26.4191534508875,0.));
#631=CARTESIAN_POINT('',(-7.78468230860789,26.4191534508875,0.));
#632=CARTESIAN_POINT('Origin',(-7.78468230860789,24.4191534508875,0.));
#633=CARTESIAN_POINT('Origin',(7.78468230860789,-24.4191534508875,0.));
#634=CARTESIAN_POINT('',(7.78468230860789,-26.4191534508875,3.));
#635=CARTESIAN_POINT('Origin',(7.78468230860789,-24.4191534508875,3.));
#636=CARTESIAN_POINT('',(7.78468230860789,-26.4191534508875,0.));
#637=CARTESIAN_POINT('',(7.78468230860789,-26.4191534508875,0.));
#638=CARTESIAN_POINT('Origin',(7.78468230860789,-24.4191534508875,0.));
#639=CARTESIAN_POINT('Origin',(-19.7153176913921,-50.0000007450581,0.));
#640=CARTESIAN_POINT('',(-22.7153176913921,-50.0000007450581,3.));
#641=CARTESIAN_POINT('Origin',(-19.7153176913921,-50.0000007450581,3.));
#642=CARTESIAN_POINT('',(-22.7153176913921,-50.0000007450581,0.));
#643=CARTESIAN_POINT('',(-22.7153176913921,-50.0000007450581,0.));
#644=CARTESIAN_POINT('Origin',(-19.7153176913921,-50.0000007450581,0.));
#645=CARTESIAN_POINT('Origin',(24.4191534508875,7.78468230860789,0.));
#646=CARTESIAN_POINT('',(26.4191534508875,7.78468230860789,3.));
#647=CARTESIAN_POINT('Origin',(24.4191534508875,7.78468230860789,3.));
#648=CARTESIAN_POINT('',(26.4191534508875,7.78468230860789,0.));
#649=CARTESIAN_POINT('',(26.4191534508875,7.78468230860789,0.));
#650=CARTESIAN_POINT('Origin',(24.4191534508875,7.78468230860789,0.));
#651=CARTESIAN_POINT('Origin',(-23.2153176913921,-24.4191534508875,0.));
#652=CARTESIAN_POINT('',(-23.2153176913921,-26.4191534508875,3.));
#653=CARTESIAN_POINT('Origin',(-23.2153176913921,-24.4191534508875,3.));
#654=CARTESIAN_POINT('',(-23.2153176913921,-26.4191534508875,0.));
#655=CARTESIAN_POINT('',(-23.2153176913921,-26.4191534508875,0.));
#656=CARTESIAN_POINT('Origin',(-23.2153176913921,-24.4191534508875,0.));
#657=CARTESIAN_POINT('Origin',(-24.4191534508875,-7.7846823086079,0.));
#658=CARTESIAN_POINT('',(-26.4191534508875,-7.78468230860789,3.));
#659=CARTESIAN_POINT('Origin',(-24.4191534508875,-7.7846823086079,3.));
#660=CARTESIAN_POINT('',(-26.4191534508875,-7.7846823086079,0.));
#661=CARTESIAN_POINT('',(-26.4191534508875,-7.7846823086079,0.));
#662=CARTESIAN_POINT('Origin',(-24.4191534508875,-7.7846823086079,0.));
#663=CARTESIAN_POINT('Origin',(-4.28468230860788,50.0000007450581,0.));
#664=CARTESIAN_POINT('',(-7.28468230860788,50.0000007450581,3.));
#665=CARTESIAN_POINT('Origin',(-4.28468230860788,50.0000007450581,3.));
#666=CARTESIAN_POINT('',(-7.28468230860788,50.0000007450581,0.));
#667=CARTESIAN_POINT('',(-7.28468230860788,50.0000007450581,0.));
#668=CARTESIAN_POINT('Origin',(-4.28468230860788,50.0000007450581,0.));
#669=CARTESIAN_POINT('Origin',(-50.0000007450581,19.7153176913921,0.));
#670=CARTESIAN_POINT('',(-53.0000007450581,19.7153176913921,3.));
#671=CARTESIAN_POINT('Origin',(-50.0000007450581,19.7153176913921,3.));
#672=CARTESIAN_POINT('',(-53.0000007450581,19.7153176913921,0.));
#673=CARTESIAN_POINT('',(-53.0000007450581,19.7153176913921,0.));
#674=CARTESIAN_POINT('Origin',(-50.0000007450581,19.7153176913921,0.));
#675=CARTESIAN_POINT('Origin',(23.2153176913921,24.4191534508875,0.));
#676=CARTESIAN_POINT('',(23.2153176913921,26.4191534508875,3.));
#677=CARTESIAN_POINT('Origin',(23.2153176913921,24.4191534508875,3.));
#678=CARTESIAN_POINT('',(23.2153176913921,26.4191534508875,0.));
#679=CARTESIAN_POINT('',(23.2153176913921,26.4191534508875,0.));
#680=CARTESIAN_POINT('Origin',(23.2153176913921,24.4191534508875,0.));
#681=CARTESIAN_POINT('Origin',(24.4191534508875,-23.2153176913921,0.));
#682=CARTESIAN_POINT('',(26.4191534508875,-23.2153176913921,3.));
#683=CARTESIAN_POINT('Origin',(24.4191534508875,-23.2153176913921,3.));
#684=CARTESIAN_POINT('',(26.4191534508875,-23.2153176913921,0.));
#685=CARTESIAN_POINT('',(26.4191534508875,-23.2153176913921,0.));
#686=CARTESIAN_POINT('Origin',(24.4191534508875,-23.2153176913921,0.));
#687=CARTESIAN_POINT('Origin',(50.0000007450581,-19.7153176913921,0.));
#688=CARTESIAN_POINT('',(47.0000007450581,-19.7153176913921,3.));
#689=CARTESIAN_POINT('Origin',(50.0000007450581,-19.7153176913921,3.));
#690=CARTESIAN_POINT('',(47.0000007450581,-19.7153176913921,0.));
#691=CARTESIAN_POINT('',(47.0000007450581,-19.7153176913921,0.));
#692=CARTESIAN_POINT('Origin',(50.0000007450581,-19.7153176913921,0.));
#693=CARTESIAN_POINT('Origin',(50.0000007450581,4.28468230860788,0.));
#694=CARTESIAN_POINT('',(47.0000007450581,4.28468230860788,3.));
#695=CARTESIAN_POINT('Origin',(50.0000007450581,4.28468230860788,3.));
#696=CARTESIAN_POINT('',(47.0000007450581,4.28468230860788,0.));
#697=CARTESIAN_POINT('',(47.0000007450581,4.28468230860788,0.));
#698=CARTESIAN_POINT('Origin',(50.0000007450581,4.28468230860788,0.));
#699=CARTESIAN_POINT('Origin',(0.,0.,0.));
#700=CARTESIAN_POINT('',(-60.,-7.21644966006352E-15,3.));
#701=CARTESIAN_POINT('Origin',(0.,0.,3.));
#702=CARTESIAN_POINT('',(-60.,-7.34788079488412E-15,0.));
#703=CARTESIAN_POINT('',(-60.,-7.34788079488412E-15,0.));
#704=CARTESIAN_POINT('Origin',(0.,0.,0.));
#705=CARTESIAN_POINT('Origin',(0.,0.,3.));
#706=CARTESIAN_POINT('Origin',(0.,0.,0.));
#707=UNCERTAINTY_MEASURE_WITH_UNIT(LENGTH_MEASURE(0.01),#711,
'DISTANCE_ACCURACY_VALUE',
'Maximum model space distance between geometric entities at asserted c
onnectivities');
#708=UNCERTAINTY_MEASURE_WITH_UNIT(LENGTH_MEASURE(0.01),#711,
'DISTANCE_ACCURACY_VALUE',
'Maximum model space distance between geometric entities at asserted c
onnectivities');
#709=(
GEOMETRIC_REPRESENTATION_CONTEXT(3)
GLOBAL_UNCERTAINTY_ASSIGNED_CONTEXT((#707))
GLOBAL_UNIT_ASSIGNED_CONTEXT((#711,#713,#714))
REPRESENTATION_CONTEXT('','3D')
);
#710=(
GEOMETRIC_REPRESENTATION_CONTEXT(3)
GLOBAL_UNCERTAINTY_ASSIGNED_CONTEXT((#708))
GLOBAL_UNIT_ASSIGNED_CONTEXT((#711,#713,#714))
REPRESENTATION_CONTEXT('','3D')
);
#711=(
LENGTH_UNIT()
NAMED_UNIT(*)
SI_UNIT(.MILLI.,.METRE.)
);
#712=(
LENGTH_UNIT()
NAMED_UNIT(*)
SI_UNIT($,.METRE.)
);
#713=(
NAMED_UNIT(*)
PLANE_ANGLE_UNIT()
SI_UNIT($,.RADIAN.)
);
#714=(
NAMED_UNIT(*)
SI_UNIT($,.STERADIAN.)
SOLID_ANGLE_UNIT()
);
#715=SHAPE_DEFINITION_REPRESENTATION(#716,#717);
#716=PRODUCT_DEFINITION_SHAPE('',$,#719);
#717=SHAPE_REPRESENTATION('',(#423),#709);
#718=PRODUCT_DEFINITION_CONTEXT('part definition',#723,'design');
#719=PRODUCT_DEFINITION('MidPlate','MidPlate v4',#720,#718);
#720=PRODUCT_DEFINITION_FORMATION('',$,#725);
#721=PRODUCT_RELATED_PRODUCT_CATEGORY('MidPlate v4','MidPlate v4',(#725));
#722=APPLICATION_PROTOCOL_DEFINITION('international standard',
'automotive_design',2009,#723);
#723=APPLICATION_CONTEXT(
'Core Data for Automotive Mechanical Design Process');
#724=PRODUCT_CONTEXT('part definition',#723,'mechanical');
#725=PRODUCT('MidPlate','MidPlate v4',$,(#724));
#726=PRESENTATION_STYLE_ASSIGNMENT((#728));
#727=PRESENTATION_STYLE_ASSIGNMENT((#729));
#728=SURFACE_STYLE_USAGE(.BOTH.,#730);
#729=SURFACE_STYLE_USAGE(.BOTH.,#731);
#730=SURFACE_SIDE_STYLE('',(#732));
#731=SURFACE_SIDE_STYLE('',(#733));
#732=SURFACE_STYLE_FILL_AREA(#734);
#733=SURFACE_STYLE_FILL_AREA(#735);
#734=FILL_AREA_STYLE('Steel - Satin',(#736));
#735=FILL_AREA_STYLE('Acrylic (Clear)',(#737));
#736=FILL_AREA_STYLE_COLOUR('Steel - Satin',#738);
#737=FILL_AREA_STYLE_COLOUR('Acrylic (Clear)',#739);
#738=COLOUR_RGB('Steel - Satin',0.627450980392157,0.627450980392157,0.627450980392157);
#739=COLOUR_RGB('Acrylic (Clear)',0.964705882352941,0.964705882352941,0.952941176470588);
ENDSEC;
END-ISO-10303-21;
