ISO-10303-21;
HEADER;
/* Generated by software containing ST-Developer
 * from STEP Tools, Inc. (www.steptools.com) 
 */

FILE_DESCRIPTION(
/* description */ (''),
/* implementation_level */ '2;1');

FILE_NAME(
/* name */ 'ConnectingBracketV3_v2.step',
/* time_stamp */ '2026-08-21T09:21:32-04:00',
/* author */ (''),
/* organization */ (''),
/* preprocessor_version */ 'ST-DEVELOPER v20.1',
/* originating_system */ 'Autodesk Translation Framework v15.8.0.0',
/* authorisation */ '');

FILE_SCHEMA (('AUTOMOTIVE_DESIGN { 1 0 10303 214 3 1 1 }'));
ENDSEC;

DATA;
#10=MECHANICAL_DESIGN_GEOMETRIC_PRESENTATION_REPRESENTATION('',(#13),#569);
#11=SHAPE_REPRESENTATION_RELATIONSHIP('SRR','None',#576,#12);
#12=ADVANCED_BREP_SHAPE_REPRESENTATION('',(#14),#568);
#13=STYLED_ITEM('',(#586),#14);
#14=MANIFOLD_SOLID_BREP('Body2',#256);
#15=PLANE('',#275);
#16=PLANE('',#279);
#17=PLANE('',#286);
#18=PLANE('',#290);
#19=FACE_BOUND('',#53,.T.);
#20=FACE_BOUND('',#55,.T.);
#21=FACE_BOUND('',#58,.T.);
#22=FACE_BOUND('',#62,.T.);
#23=FACE_BOUND('',#65,.T.);
#24=B_SPLINE_CURVE_WITH_KNOTS('',3,(#396,#397,#398,#399,#400,#401,#402,
#403,#404,#405,#406,#407,#408,#409,#410),.UNSPECIFIED.,.F.,.F.,(4,2,3,2,
2,2,4),(-0.572350654739058,-0.568904745672272,-0.564622143691836,-0.518881543255922,
-0.473140942820008,-0.42735402298969,-0.381567103159372),.UNSPECIFIED.);
#25=B_SPLINE_CURVE_WITH_KNOTS('',3,(#411,#412,#413,#414,#415,#416,#417,
#418,#419,#420,#421,#422,#423,#424,#425,#426,#427,#428,#429,#430,#431,#432,
#433,#434,#435,#436,#437,#438,#439,#440,#441,#442,#443,#444,#445,#446,#447,
#448,#449,#450,#451,#452,#453,#454,#455,#456,#457,#458,#459,#460),
 .UNSPECIFIED.,.F.,.F.,(4,2,2,2,3,2,3,2,2,2,2,2,2,2,2,2,2,2,2,2,2,2,2,4),
(-0.381567103159372,-0.335780183329054,-0.289993263498735,-0.244252663062821,
-0.198512062626907,-0.193351868419966,-0.187094695447003,-0.169107278752584,
-0.127285118078626,-0.0841582634722231,-0.0483406142395996,-0.0258250025010263,
-0.0157886807115735,-0.0107357017810413,-0.00692200569393009,-0.00281481280742746,
0.00372090032464834,0.0238307721886355,0.0642408598613218,0.109638471015857,
0.144328811731711,0.165266112011357,0.172584511226005,0.175326529485243),
 .UNSPECIFIED.);
#26=B_SPLINE_CURVE_WITH_KNOTS('',3,(#479,#480,#481,#482,#483,#484,#485,
#486,#487,#488,#489,#490,#491,#492,#493,#494,#495,#496,#497,#498,#499,#500,
#501,#502,#503,#504,#505,#506,#507,#508,#509,#510,#511),.UNSPECIFIED.,.F.,
 .F.,(4,2,2,2,2,2,2,2,2,2,2,3,2,2,2,4),(-0.191184331159029,-0.190170065358123,
-0.185614013746339,-0.17825696874102,-0.154822936346726,-0.115087791052561,
-0.0691378337060034,-0.0352936595744231,-0.0161600093860171,-0.00950465513693199,
-0.00388594720502761,0.,0.0459160391549648,0.0918320783099296,0.137680156878062,
0.183528235446194),.UNSPECIFIED.);
#27=B_SPLINE_CURVE_WITH_KNOTS('',3,(#514,#515,#516,#517,#518,#519,#520,
#521,#522,#523),.UNSPECIFIED.,.F.,.F.,(4,2,2,2,4),(0.183528235446194,0.229376314014327,
0.275224392582459,0.321140431737424,0.367056470892389),.UNSPECIFIED.);
#28=B_SPLINE_CURVE_WITH_KNOTS('',3,(#524,#525,#526,#527,#528,#529,#530,
#531,#532,#533),.UNSPECIFIED.,.F.,.F.,(4,2,2,2,4),(0.367056470892389,0.412972510047354,
0.458888549202318,0.504736627770451,0.550584706338583),.UNSPECIFIED.);
#29=CYLINDRICAL_SURFACE('',#273,3.);
#30=CYLINDRICAL_SURFACE('',#284,2.75);
#31=CYLINDRICAL_SURFACE('',#294,0.95);
#32=CYLINDRICAL_SURFACE('',#298,0.95);
#33=CYLINDRICAL_SURFACE('',#302,1.2);
#34=FACE_OUTER_BOUND('',#51,.T.);
#35=FACE_OUTER_BOUND('',#52,.T.);
#36=FACE_OUTER_BOUND('',#54,.T.);
#37=FACE_OUTER_BOUND('',#56,.T.);
#38=FACE_OUTER_BOUND('',#57,.T.);
#39=FACE_OUTER_BOUND('',#59,.T.);
#40=FACE_OUTER_BOUND('',#60,.T.);
#41=FACE_OUTER_BOUND('',#61,.T.);
#42=FACE_OUTER_BOUND('',#63,.T.);
#43=FACE_OUTER_BOUND('',#64,.T.);
#44=FACE_OUTER_BOUND('',#66,.T.);
#45=FACE_OUTER_BOUND('',#67,.T.);
#46=FACE_OUTER_BOUND('',#68,.T.);
#47=FACE_OUTER_BOUND('',#69,.T.);
#48=FACE_OUTER_BOUND('',#70,.T.);
#49=FACE_OUTER_BOUND('',#71,.T.);
#50=FACE_OUTER_BOUND('',#72,.T.);
#51=EDGE_LOOP('',(#165,#166,#167,#168));
#52=EDGE_LOOP('',(#169,#170,#171,#172));
#53=EDGE_LOOP('',(#173,#174));
#54=EDGE_LOOP('',(#175));
#55=EDGE_LOOP('',(#176));
#56=EDGE_LOOP('',(#177,#178,#179,#180));
#57=EDGE_LOOP('',(#181));
#58=EDGE_LOOP('',(#182));
#59=EDGE_LOOP('',(#183,#184,#185,#186));
#60=EDGE_LOOP('',(#187,#188,#189,#190,#191));
#61=EDGE_LOOP('',(#192));
#62=EDGE_LOOP('',(#193));
#63=EDGE_LOOP('',(#194,#195,#196,#197));
#64=EDGE_LOOP('',(#198));
#65=EDGE_LOOP('',(#199));
#66=EDGE_LOOP('',(#200,#201,#202,#203));
#67=EDGE_LOOP('',(#204,#205,#206,#207));
#68=EDGE_LOOP('',(#208,#209,#210,#211));
#69=EDGE_LOOP('',(#212,#213,#214,#215));
#70=EDGE_LOOP('',(#216,#217,#218,#219));
#71=EDGE_LOOP('',(#220,#221,#222,#223));
#72=EDGE_LOOP('',(#224,#225,#226,#227,#228,#229,#230));
#73=LINE('',#388,#85);
#74=LINE('',#393,#86);
#75=LINE('',#466,#87);
#76=LINE('',#475,#88);
#77=LINE('',#540,#89);
#78=LINE('',#547,#90);
#79=LINE('',#551,#91);
#80=LINE('',#555,#92);
#81=LINE('',#559,#93);
#82=LINE('',#561,#94);
#83=LINE('',#563,#95);
#84=LINE('',#565,#96);
#85=VECTOR('',#309,2.5);
#86=VECTOR('',#316,3.);
#87=VECTOR('',#323,2.5);
#88=VECTOR('',#334,2.25);
#89=VECTOR('',#349,2.25);
#90=VECTOR('',#358,1.);
#91=VECTOR('',#363,0.95);
#92=VECTOR('',#368,1.);
#93=VECTOR('',#373,0.95);
#94=VECTOR('',#376,1.);
#95=VECTOR('',#379,1.);
#96=VECTOR('',#382,1.2);
#97=CIRCLE('',#271,2.);
#98=CIRCLE('',#272,3.);
#99=CIRCLE('',#274,3.);
#100=CIRCLE('',#276,1.06);
#101=CIRCLE('',#278,2.);
#102=CIRCLE('',#280,1.06);
#103=CIRCLE('',#282,2.75);
#104=CIRCLE('',#283,1.75);
#105=CIRCLE('',#285,2.75);
#106=CIRCLE('',#287,1.05);
#107=CIRCLE('',#289,1.75);
#108=CIRCLE('',#291,1.05);
#109=CIRCLE('',#293,0.95);
#110=CIRCLE('',#295,0.95);
#111=CIRCLE('',#297,0.95);
#112=CIRCLE('',#299,0.95);
#113=VERTEX_POINT('',#385);
#114=VERTEX_POINT('',#387);
#115=VERTEX_POINT('',#391);
#116=VERTEX_POINT('',#394);
#117=VERTEX_POINT('',#395);
#118=VERTEX_POINT('',#462);
#119=VERTEX_POINT('',#465);
#120=VERTEX_POINT('',#469);
#121=VERTEX_POINT('',#472);
#122=VERTEX_POINT('',#474);
#123=VERTEX_POINT('',#478);
#124=VERTEX_POINT('',#513);
#125=VERTEX_POINT('',#535);
#126=VERTEX_POINT('',#538);
#127=VERTEX_POINT('',#542);
#128=VERTEX_POINT('',#545);
#129=VERTEX_POINT('',#549);
#130=VERTEX_POINT('',#553);
#131=VERTEX_POINT('',#557);
#132=EDGE_CURVE('',#113,#113,#97,.T.);
#133=EDGE_CURVE('',#113,#114,#73,.T.);
#134=EDGE_CURVE('',#114,#114,#98,.T.);
#135=EDGE_CURVE('',#115,#115,#99,.T.);
#136=EDGE_CURVE('',#115,#114,#74,.T.);
#137=EDGE_CURVE('',#116,#117,#24,.T.);
#138=EDGE_CURVE('',#117,#116,#25,.T.);
#139=EDGE_CURVE('',#118,#118,#100,.T.);
#140=EDGE_CURVE('',#115,#119,#75,.T.);
#141=EDGE_CURVE('',#119,#119,#101,.T.);
#142=EDGE_CURVE('',#120,#120,#102,.F.);
#143=EDGE_CURVE('',#121,#121,#103,.T.);
#144=EDGE_CURVE('',#121,#122,#76,.T.);
#145=EDGE_CURVE('',#122,#122,#104,.T.);
#146=EDGE_CURVE('',#121,#123,#26,.T.);
#147=EDGE_CURVE('',#123,#123,#105,.T.);
#148=EDGE_CURVE('',#123,#124,#27,.T.);
#149=EDGE_CURVE('',#124,#121,#28,.T.);
#150=EDGE_CURVE('',#125,#125,#106,.T.);
#151=EDGE_CURVE('',#126,#126,#107,.T.);
#152=EDGE_CURVE('',#126,#123,#77,.T.);
#153=EDGE_CURVE('',#127,#127,#108,.T.);
#154=EDGE_CURVE('',#128,#128,#109,.T.);
#155=EDGE_CURVE('',#128,#125,#78,.T.);
#156=EDGE_CURVE('',#129,#129,#110,.T.);
#157=EDGE_CURVE('',#129,#128,#79,.T.);
#158=EDGE_CURVE('',#130,#130,#111,.T.);
#159=EDGE_CURVE('',#130,#118,#80,.T.);
#160=EDGE_CURVE('',#131,#131,#112,.T.);
#161=EDGE_CURVE('',#131,#130,#81,.T.);
#162=EDGE_CURVE('',#127,#129,#82,.T.);
#163=EDGE_CURVE('',#120,#131,#83,.T.);
#164=EDGE_CURVE('',#124,#117,#84,.T.);
#165=ORIENTED_EDGE('',*,*,#132,.T.);
#166=ORIENTED_EDGE('',*,*,#133,.T.);
#167=ORIENTED_EDGE('',*,*,#134,.T.);
#168=ORIENTED_EDGE('',*,*,#133,.F.);
#169=ORIENTED_EDGE('',*,*,#135,.F.);
#170=ORIENTED_EDGE('',*,*,#136,.T.);
#171=ORIENTED_EDGE('',*,*,#134,.F.);
#172=ORIENTED_EDGE('',*,*,#136,.F.);
#173=ORIENTED_EDGE('',*,*,#137,.F.);
#174=ORIENTED_EDGE('',*,*,#138,.F.);
#175=ORIENTED_EDGE('',*,*,#132,.F.);
#176=ORIENTED_EDGE('',*,*,#139,.F.);
#177=ORIENTED_EDGE('',*,*,#135,.T.);
#178=ORIENTED_EDGE('',*,*,#140,.T.);
#179=ORIENTED_EDGE('',*,*,#141,.T.);
#180=ORIENTED_EDGE('',*,*,#140,.F.);
#181=ORIENTED_EDGE('',*,*,#141,.F.);
#182=ORIENTED_EDGE('',*,*,#142,.F.);
#183=ORIENTED_EDGE('',*,*,#143,.T.);
#184=ORIENTED_EDGE('',*,*,#144,.T.);
#185=ORIENTED_EDGE('',*,*,#145,.T.);
#186=ORIENTED_EDGE('',*,*,#144,.F.);
#187=ORIENTED_EDGE('',*,*,#146,.T.);
#188=ORIENTED_EDGE('',*,*,#147,.F.);
#189=ORIENTED_EDGE('',*,*,#148,.T.);
#190=ORIENTED_EDGE('',*,*,#149,.T.);
#191=ORIENTED_EDGE('',*,*,#143,.F.);
#192=ORIENTED_EDGE('',*,*,#145,.F.);
#193=ORIENTED_EDGE('',*,*,#150,.F.);
#194=ORIENTED_EDGE('',*,*,#151,.T.);
#195=ORIENTED_EDGE('',*,*,#152,.T.);
#196=ORIENTED_EDGE('',*,*,#147,.T.);
#197=ORIENTED_EDGE('',*,*,#152,.F.);
#198=ORIENTED_EDGE('',*,*,#151,.F.);
#199=ORIENTED_EDGE('',*,*,#153,.F.);
#200=ORIENTED_EDGE('',*,*,#154,.T.);
#201=ORIENTED_EDGE('',*,*,#155,.T.);
#202=ORIENTED_EDGE('',*,*,#150,.T.);
#203=ORIENTED_EDGE('',*,*,#155,.F.);
#204=ORIENTED_EDGE('',*,*,#156,.F.);
#205=ORIENTED_EDGE('',*,*,#157,.T.);
#206=ORIENTED_EDGE('',*,*,#154,.F.);
#207=ORIENTED_EDGE('',*,*,#157,.F.);
#208=ORIENTED_EDGE('',*,*,#158,.T.);
#209=ORIENTED_EDGE('',*,*,#159,.T.);
#210=ORIENTED_EDGE('',*,*,#139,.T.);
#211=ORIENTED_EDGE('',*,*,#159,.F.);
#212=ORIENTED_EDGE('',*,*,#160,.F.);
#213=ORIENTED_EDGE('',*,*,#161,.T.);
#214=ORIENTED_EDGE('',*,*,#158,.F.);
#215=ORIENTED_EDGE('',*,*,#161,.F.);
#216=ORIENTED_EDGE('',*,*,#153,.T.);
#217=ORIENTED_EDGE('',*,*,#162,.T.);
#218=ORIENTED_EDGE('',*,*,#156,.T.);
#219=ORIENTED_EDGE('',*,*,#162,.F.);
#220=ORIENTED_EDGE('',*,*,#142,.T.);
#221=ORIENTED_EDGE('',*,*,#163,.T.);
#222=ORIENTED_EDGE('',*,*,#160,.T.);
#223=ORIENTED_EDGE('',*,*,#163,.F.);
#224=ORIENTED_EDGE('',*,*,#146,.F.);
#225=ORIENTED_EDGE('',*,*,#149,.F.);
#226=ORIENTED_EDGE('',*,*,#164,.T.);
#227=ORIENTED_EDGE('',*,*,#138,.T.);
#228=ORIENTED_EDGE('',*,*,#137,.T.);
#229=ORIENTED_EDGE('',*,*,#164,.F.);
#230=ORIENTED_EDGE('',*,*,#148,.F.);
#231=CONICAL_SURFACE('',#270,2.5,1.47112767430373);
#232=CONICAL_SURFACE('',#277,2.5,1.47112767430373);
#233=CONICAL_SURFACE('',#281,2.25,1.47112767430373);
#234=CONICAL_SURFACE('',#288,2.25,1.47112767430373);
#235=CONICAL_SURFACE('',#292,1.,0.0996686524911621);
#236=CONICAL_SURFACE('',#296,1.,0.0996686524911621);
#237=CONICAL_SURFACE('',#300,1.,0.0996686524911621);
#238=CONICAL_SURFACE('',#301,1.,0.0996686524911621);
#239=ADVANCED_FACE('',(#34),#231,.T.);
#240=ADVANCED_FACE('',(#35,#19),#29,.T.);
#241=ADVANCED_FACE('',(#36,#20),#15,.F.);
#242=ADVANCED_FACE('',(#37),#232,.T.);
#243=ADVANCED_FACE('',(#38,#21),#16,.T.);
#244=ADVANCED_FACE('',(#39),#233,.T.);
#245=ADVANCED_FACE('',(#40),#30,.T.);
#246=ADVANCED_FACE('',(#41,#22),#17,.F.);
#247=ADVANCED_FACE('',(#42),#234,.T.);
#248=ADVANCED_FACE('',(#43,#23),#18,.T.);
#249=ADVANCED_FACE('',(#44),#235,.F.);
#250=ADVANCED_FACE('',(#45),#31,.F.);
#251=ADVANCED_FACE('',(#46),#236,.F.);
#252=ADVANCED_FACE('',(#47),#32,.F.);
#253=ADVANCED_FACE('',(#48),#237,.F.);
#254=ADVANCED_FACE('',(#49),#238,.F.);
#255=ADVANCED_FACE('',(#50),#33,.T.);
#256=CLOSED_SHELL('',(#239,#240,#241,#242,#243,#244,#245,#246,#247,#248,
#249,#250,#251,#252,#253,#254,#255));
#257=DERIVED_UNIT_ELEMENT(#259,1.);
#258=DERIVED_UNIT_ELEMENT(#571,-3.);
#259=(
MASS_UNIT()
NAMED_UNIT(*)
SI_UNIT(.KILO.,.GRAM.)
);
#260=DERIVED_UNIT((#257,#258));
#261=MEASURE_REPRESENTATION_ITEM('density measure',
POSITIVE_RATIO_MEASURE(7850.),#260);
#262=PROPERTY_DEFINITION_REPRESENTATION(#267,#264);
#263=PROPERTY_DEFINITION_REPRESENTATION(#268,#265);
#264=REPRESENTATION('material name',(#266),#568);
#265=REPRESENTATION('density',(#261),#568);
#266=DESCRIPTIVE_REPRESENTATION_ITEM('Steel','Steel');
#267=PROPERTY_DEFINITION('material property','material name',#578);
#268=PROPERTY_DEFINITION('material property','density of part',#578);
#269=AXIS2_PLACEMENT_3D('',#383,#303,#304);
#270=AXIS2_PLACEMENT_3D('',#384,#305,#306);
#271=AXIS2_PLACEMENT_3D('',#386,#307,#308);
#272=AXIS2_PLACEMENT_3D('',#389,#310,#311);
#273=AXIS2_PLACEMENT_3D('',#390,#312,#313);
#274=AXIS2_PLACEMENT_3D('',#392,#314,#315);
#275=AXIS2_PLACEMENT_3D('',#461,#317,#318);
#276=AXIS2_PLACEMENT_3D('',#463,#319,#320);
#277=AXIS2_PLACEMENT_3D('',#464,#321,#322);
#278=AXIS2_PLACEMENT_3D('',#467,#324,#325);
#279=AXIS2_PLACEMENT_3D('',#468,#326,#327);
#280=AXIS2_PLACEMENT_3D('',#470,#328,#329);
#281=AXIS2_PLACEMENT_3D('',#471,#330,#331);
#282=AXIS2_PLACEMENT_3D('',#473,#332,#333);
#283=AXIS2_PLACEMENT_3D('',#476,#335,#336);
#284=AXIS2_PLACEMENT_3D('',#477,#337,#338);
#285=AXIS2_PLACEMENT_3D('',#512,#339,#340);
#286=AXIS2_PLACEMENT_3D('',#534,#341,#342);
#287=AXIS2_PLACEMENT_3D('',#536,#343,#344);
#288=AXIS2_PLACEMENT_3D('',#537,#345,#346);
#289=AXIS2_PLACEMENT_3D('',#539,#347,#348);
#290=AXIS2_PLACEMENT_3D('',#541,#350,#351);
#291=AXIS2_PLACEMENT_3D('',#543,#352,#353);
#292=AXIS2_PLACEMENT_3D('',#544,#354,#355);
#293=AXIS2_PLACEMENT_3D('',#546,#356,#357);
#294=AXIS2_PLACEMENT_3D('',#548,#359,#360);
#295=AXIS2_PLACEMENT_3D('',#550,#361,#362);
#296=AXIS2_PLACEMENT_3D('',#552,#364,#365);
#297=AXIS2_PLACEMENT_3D('',#554,#366,#367);
#298=AXIS2_PLACEMENT_3D('',#556,#369,#370);
#299=AXIS2_PLACEMENT_3D('',#558,#371,#372);
#300=AXIS2_PLACEMENT_3D('',#560,#374,#375);
#301=AXIS2_PLACEMENT_3D('',#562,#377,#378);
#302=AXIS2_PLACEMENT_3D('',#564,#380,#381);
#303=DIRECTION('axis',(0.,0.,1.));
#304=DIRECTION('refdir',(1.,0.,0.));
#305=DIRECTION('center_axis',(0.,0.,1.));
#306=DIRECTION('ref_axis',(1.,0.,0.));
#307=DIRECTION('center_axis',(0.,0.,1.));
#308=DIRECTION('ref_axis',(1.,0.,0.));
#309=DIRECTION('',(-0.995037190209989,1.21856911002324E-16,0.0995037190209988));
#310=DIRECTION('center_axis',(0.,0.,-1.));
#311=DIRECTION('ref_axis',(1.,0.,0.));
#312=DIRECTION('center_axis',(0.,0.,1.));
#313=DIRECTION('ref_axis',(1.,0.,0.));
#314=DIRECTION('center_axis',(0.,0.,1.));
#315=DIRECTION('ref_axis',(1.,0.,0.));
#316=DIRECTION('',(0.,0.,-1.));
#317=DIRECTION('center_axis',(0.,0.,1.));
#318=DIRECTION('ref_axis',(1.,0.,0.));
#319=DIRECTION('center_axis',(0.,0.,-1.));
#320=DIRECTION('ref_axis',(1.,0.,0.));
#321=DIRECTION('center_axis',(0.,0.,-1.));
#322=DIRECTION('ref_axis',(1.,0.,0.));
#323=DIRECTION('',(0.995037190209989,-1.21856911002324E-16,0.0995037190209989));
#324=DIRECTION('center_axis',(0.,0.,-1.));
#325=DIRECTION('ref_axis',(1.,0.,0.));
#326=DIRECTION('center_axis',(0.,0.,1.));
#327=DIRECTION('ref_axis',(1.,0.,0.));
#328=DIRECTION('center_axis',(0.,0.,-1.));
#329=DIRECTION('ref_axis',(1.,0.,0.));
#330=DIRECTION('center_axis',(0.,0.,1.));
#331=DIRECTION('ref_axis',(1.,0.,0.));
#332=DIRECTION('center_axis',(0.,0.,-1.));
#333=DIRECTION('ref_axis',(1.,0.,0.));
#334=DIRECTION('',(0.995037190209989,1.21856911002324E-16,-0.0995037190209989));
#335=DIRECTION('center_axis',(0.,0.,1.));
#336=DIRECTION('ref_axis',(1.,0.,0.));
#337=DIRECTION('center_axis',(0.,0.,1.));
#338=DIRECTION('ref_axis',(1.,0.,0.));
#339=DIRECTION('center_axis',(0.,0.,1.));
#340=DIRECTION('ref_axis',(1.,0.,0.));
#341=DIRECTION('center_axis',(0.,0.,1.));
#342=DIRECTION('ref_axis',(1.,0.,0.));
#343=DIRECTION('center_axis',(0.,0.,-1.));
#344=DIRECTION('ref_axis',(1.,0.,0.));
#345=DIRECTION('center_axis',(0.,0.,-1.));
#346=DIRECTION('ref_axis',(1.,0.,0.));
#347=DIRECTION('center_axis',(0.,0.,-1.));
#348=DIRECTION('ref_axis',(1.,0.,0.));
#349=DIRECTION('',(-0.995037190209989,-1.21856911002324E-16,-0.099503719020999));
#350=DIRECTION('center_axis',(0.,0.,1.));
#351=DIRECTION('ref_axis',(1.,0.,0.));
#352=DIRECTION('center_axis',(0.,0.,1.));
#353=DIRECTION('ref_axis',(1.,0.,0.));
#354=DIRECTION('center_axis',(0.,0.,-1.));
#355=DIRECTION('ref_axis',(1.,0.,0.));
#356=DIRECTION('center_axis',(0.,0.,1.));
#357=DIRECTION('ref_axis',(1.,0.,0.));
#358=DIRECTION('',(-0.099503719020999,-1.21856911002324E-17,-0.995037190209989));
#359=DIRECTION('center_axis',(0.,0.,1.));
#360=DIRECTION('ref_axis',(1.,0.,0.));
#361=DIRECTION('center_axis',(0.,0.,-1.));
#362=DIRECTION('ref_axis',(1.,0.,0.));
#363=DIRECTION('',(0.,0.,-1.));
#364=DIRECTION('center_axis',(0.,0.,-1.));
#365=DIRECTION('ref_axis',(1.,0.,0.));
#366=DIRECTION('center_axis',(0.,0.,1.));
#367=DIRECTION('ref_axis',(1.,0.,0.));
#368=DIRECTION('',(-0.099503719020999,-1.21856911002324E-17,-0.995037190209989));
#369=DIRECTION('center_axis',(0.,0.,1.));
#370=DIRECTION('ref_axis',(1.,0.,0.));
#371=DIRECTION('center_axis',(0.,0.,-1.));
#372=DIRECTION('ref_axis',(1.,0.,0.));
#373=DIRECTION('',(0.,0.,-1.));
#374=DIRECTION('center_axis',(0.,0.,1.));
#375=DIRECTION('ref_axis',(1.,0.,0.));
#376=DIRECTION('',(0.099503719020999,1.21856911002324E-17,-0.995037190209989));
#377=DIRECTION('center_axis',(0.,0.,1.));
#378=DIRECTION('ref_axis',(1.,0.,0.));
#379=DIRECTION('',(0.099503719020999,1.21856911002324E-17,-0.995037190209989));
#380=DIRECTION('center_axis',(1.,-1.83073307794388E-34,0.));
#381=DIRECTION('ref_axis',(1.83073307794388E-34,1.,0.));
#382=DIRECTION('',(-1.,1.83073307794388E-34,0.));
#383=CARTESIAN_POINT('',(0.,0.,0.));
#384=CARTESIAN_POINT('Origin',(-12.25,3.85185988877447E-32,-0.05));
#385=CARTESIAN_POINT('',(-14.25,-2.44929359829471E-16,-0.1));
#386=CARTESIAN_POINT('Origin',(-12.25,3.85185988877447E-32,-0.1));
#387=CARTESIAN_POINT('',(-15.25,3.67394039744206E-16,0.));
#388=CARTESIAN_POINT('',(-14.75,3.06161699786838E-16,-0.05));
#389=CARTESIAN_POINT('Origin',(-12.25,3.85185988877447E-32,0.));
#390=CARTESIAN_POINT('Origin',(-12.25,3.85185988877447E-32,0.));
#391=CARTESIAN_POINT('',(-15.25,-3.67394039744206E-16,2.6));
#392=CARTESIAN_POINT('Origin',(-12.25,3.85185988877447E-32,2.6));
#393=CARTESIAN_POINT('',(-15.25,-3.67394039744206E-16,0.));
#394=CARTESIAN_POINT('',(-9.25099390916269,0.0772170131559232,2.49751306167377));
#395=CARTESIAN_POINT('',(-9.5004545830265,-1.2,1.3));
#396=CARTESIAN_POINT('Ctrl Pts',(-9.25099390916269,0.0772170131559232,2.49751306167377));
#397=CARTESIAN_POINT('Ctrl Pts',(-9.25069892136061,0.0657600792624511,2.49825181788737));
#398=CARTESIAN_POINT('Ctrl Pts',(-9.25046932931816,0.0542911068146804,2.49882625322943));
#399=CARTESIAN_POINT('Ctrl Pts',(-9.25010191614322,0.0285484230330424,2.4997452777243));
#400=CARTESIAN_POINT('Ctrl Pts',(-9.25,0.0142753399347862,2.5));
#401=CARTESIAN_POINT('Ctrl Pts',(-9.25,-1.92974717961196E-16,2.5));
#402=CARTESIAN_POINT('Ctrl Pts',(-9.25,-0.152468668119714,2.5));
#403=CARTESIAN_POINT('Ctrl Pts',(-9.26273794687555,-0.313972984616458,2.46918314059312));
#404=CARTESIAN_POINT('Ctrl Pts',(-9.30870354064502,-0.60917053841107,2.34617372363719));
#405=CARTESIAN_POINT('Ctrl Pts',(-9.34137854945778,-0.742986481011312,2.2540697938364));
#406=CARTESIAN_POINT('Ctrl Pts',(-9.40365513892292,-0.954176670999423,2.04287960384829));
#407=CARTESIAN_POINT('Ctrl Pts',(-9.43755589079241,-1.04619954668414,1.90910411472569));
#408=CARTESIAN_POINT('Ctrl Pts',(-9.48640249972873,-1.16914692043239,1.61406435886712));
#409=CARTESIAN_POINT('Ctrl Pts',(-9.5004545830265,-1.2,1.45262306610106));
#410=CARTESIAN_POINT('Ctrl Pts',(-9.5004545830265,-1.2,1.3));
#411=CARTESIAN_POINT('Ctrl Pts',(-9.5004545830265,-1.2,1.3));
#412=CARTESIAN_POINT('Ctrl Pts',(-9.5004545830265,-1.2,1.14737693389894));
#413=CARTESIAN_POINT('Ctrl Pts',(-9.48640249972873,-1.16914692043239,0.985935641132885));
#414=CARTESIAN_POINT('Ctrl Pts',(-9.4375558907924,-1.04619954668414,0.690895885274311));
#415=CARTESIAN_POINT('Ctrl Pts',(-9.40365513892292,-0.954176670999423,0.557120396151709));
#416=CARTESIAN_POINT('Ctrl Pts',(-9.34137854945778,-0.742986481011311,0.345930206163597));
#417=CARTESIAN_POINT('Ctrl Pts',(-9.30870354064502,-0.609170538411069,0.253826276362807));
#418=CARTESIAN_POINT('Ctrl Pts',(-9.26273794687555,-0.313972984616457,0.130816859406885));
#419=CARTESIAN_POINT('Ctrl Pts',(-9.25,-0.152468668119714,0.1));
#420=CARTESIAN_POINT('Ctrl Pts',(-9.25,1.56125112837913E-16,0.1));
#421=CARTESIAN_POINT('Ctrl Pts',(-9.25,0.0172006473564714,0.1));
#422=CARTESIAN_POINT('Ctrl Pts',(-9.2501479806072,0.0343973481482231,0.100369808060496));
#423=CARTESIAN_POINT('Ctrl Pts',(-9.25080171251043,0.072414455939425,0.102005407855083));
#424=CARTESIAN_POINT('Ctrl Pts',(-9.25137664729039,0.0932153164043342,0.103444398590425));
#425=CARTESIAN_POINT('Ctrl Pts',(-9.25216539231685,0.113963437019167,0.105423784339075));
#426=CARTESIAN_POINT('Ctrl Pts',(-9.25443278775531,0.173607799215593,0.111113899733646));
#427=CARTESIAN_POINT('Ctrl Pts',(-9.25846512135805,0.232605216688822,0.121247258243588));
#428=CARTESIAN_POINT('Ctrl Pts',(-9.27720258427612,0.425183306175868,0.169300280919477));
#429=CARTESIAN_POINT('Ctrl Pts',(-9.29889248798317,0.551925679527584,0.225691121368462));
#430=CARTESIAN_POINT('Ctrl Pts',(-9.35158023089495,0.78338098149116,0.380073591648754));
#431=CARTESIAN_POINT('Ctrl Pts',(-9.3824669814569,0.885983702183688,0.478480739347113));
#432=CARTESIAN_POINT('Ctrl Pts',(-9.43439771965181,1.03812510842578,0.686815189230493));
#433=CARTESIAN_POINT('Ctrl Pts',(-9.45599675930698,1.09331249790553,0.791406124462428));
#434=CARTESIAN_POINT('Ctrl Pts',(-9.48198025967068,1.15705341395842,0.973259091175057));
#435=CARTESIAN_POINT('Ctrl Pts',(-9.48971527794535,1.17515027167875,1.04577332349734));
#436=CARTESIAN_POINT('Ctrl Pts',(-9.49671552832657,1.19140857963031,1.15282617280068));
#437=CARTESIAN_POINT('Ctrl Pts',(-9.49829633943552,1.19504517205368,1.18604703361397));
#438=CARTESIAN_POINT('Ctrl Pts',(-9.49976596152854,1.19842156782095,1.23620972568748));
#439=CARTESIAN_POINT('Ctrl Pts',(-9.50010498981671,1.19919875160567,1.25303175945995));
#440=CARTESIAN_POINT('Ctrl Pts',(-9.50042873804339,1.19994083049475,1.28257625159737));
#441=CARTESIAN_POINT('Ctrl Pts',(-9.50047993095468,1.20005808128906,1.29528796731579));
#442=CARTESIAN_POINT('Ctrl Pts',(-9.50040311246054,1.19988206335046,1.32169023208117));
#443=CARTESIAN_POINT('Ctrl Pts',(-9.50026101557344,1.19955653895328,1.33537632031803));
#444=CARTESIAN_POINT('Ctrl Pts',(-9.49962882865754,1.19810657430538,1.37081739243004));
#445=CARTESIAN_POINT('Ctrl Pts',(-9.49898281191788,1.19662422323255,1.39254337807882));
#446=CARTESIAN_POINT('Ctrl Pts',(-9.4953164693019,1.18817799033103,1.48088343550378));
#447=CARTESIAN_POINT('Ctrl Pts',(-9.49015163470591,1.17626006257113,1.54668467458381));
#448=CARTESIAN_POINT('Ctrl Pts',(-9.46837777629232,1.12427490052022,1.74038476589882));
#449=CARTESIAN_POINT('Ctrl Pts',(-9.44562215346876,1.06846204100278,1.86201211340494));
#450=CARTESIAN_POINT('Ctrl Pts',(-9.39043684966818,0.911403108639228,2.09460135168795));
#451=CARTESIAN_POINT('Ctrl Pts',(-9.35762604689606,0.806161518874575,2.20121331141952));
#452=CARTESIAN_POINT('Ctrl Pts',(-9.30718444817901,0.590777314127686,2.35065509074034));
#453=CARTESIAN_POINT('Ctrl Pts',(-9.28797422926379,0.488320832818976,2.40214395357754));
#454=CARTESIAN_POINT('Ctrl Pts',(-9.26570855321286,0.313680480702299,2.46034697756871));
#455=CARTESIAN_POINT('Ctrl Pts',(-9.25930844255252,0.246026508531148,2.47657347061726));
#456=CARTESIAN_POINT('Ctrl Pts',(-9.2538084880782,0.153031380345147,2.49045137111983));
#457=CARTESIAN_POINT('Ctrl Pts',(-9.25266894045118,0.128829763362494,2.49331356923735));
#458=CARTESIAN_POINT('Ctrl Pts',(-9.2515047768873,0.0954426759920643,2.49623331153817));
#459=CARTESIAN_POINT('Ctrl Pts',(-9.25122864023768,0.086333655911701,2.49692521011194));
#460=CARTESIAN_POINT('Ctrl Pts',(-9.25099390916269,0.0772170131559232,2.49751306167377));
#461=CARTESIAN_POINT('Origin',(-12.25,0.,-0.1));
#462=CARTESIAN_POINT('',(-13.31,1.29812560709619E-16,-0.1));
#463=CARTESIAN_POINT('Origin',(-12.25,3.85185988877447E-32,-0.1));
#464=CARTESIAN_POINT('Origin',(-12.25,3.85185988877447E-32,2.65));
#465=CARTESIAN_POINT('',(-14.25,2.44929359829471E-16,2.7));
#466=CARTESIAN_POINT('',(-14.75,3.06161699786838E-16,2.65));
#467=CARTESIAN_POINT('Origin',(-12.25,3.85185988877447E-32,2.7));
#468=CARTESIAN_POINT('Origin',(-12.25,0.,2.7));
#469=CARTESIAN_POINT('',(-13.31,1.29812560709619E-16,2.7));
#470=CARTESIAN_POINT('Origin',(-12.25,3.85185988877447E-32,2.7));
#471=CARTESIAN_POINT('Origin',(0.,0.,0.05));
#472=CARTESIAN_POINT('',(-2.75,-3.46944695195361E-16,0.1));
#473=CARTESIAN_POINT('Origin',(0.,0.,0.1));
#474=CARTESIAN_POINT('',(-1.75,-2.14313189850787E-16,0.));
#475=CARTESIAN_POINT('',(-2.25,-2.75545529808155E-16,0.05));
#476=CARTESIAN_POINT('Origin',(0.,0.,0.));
#477=CARTESIAN_POINT('Origin',(0.,0.,0.));
#478=CARTESIAN_POINT('',(-2.75,2.08166817117217E-16,2.5));
#479=CARTESIAN_POINT('Ctrl Pts',(-2.75,-3.15172767628625E-16,0.1));
#480=CARTESIAN_POINT('Ctrl Pts',(-2.75,0.00338068327547595,0.1));
#481=CARTESIAN_POINT('Ctrl Pts',(-2.7499937659137,0.00676143545603355,0.100014286241176));
#482=CARTESIAN_POINT('Ctrl Pts',(-2.74992528939093,0.0253283707130836,0.100171216143737));
#483=CARTESIAN_POINT('Ctrl Pts',(-2.74974347654317,0.0405087273534687,0.10058781532646));
#484=CARTESIAN_POINT('Ctrl Pts',(-2.74894037246511,0.0801681718934039,0.102429868663147));
#485=CARTESIAN_POINT('Ctrl Pts',(-2.74811788815186,0.104606612274315,0.104317119561607));
#486=CARTESIAN_POINT('Ctrl Pts',(-2.74333253268176,0.206538149388609,0.115335305406291));
#487=CARTESIAN_POINT('Ctrl Pts',(-2.73643911296738,0.282792420205585,0.131224408374145));
#488=CARTESIAN_POINT('Ctrl Pts',(-2.71033568258003,0.482282629848777,0.193348751062691));
#489=CARTESIAN_POINT('Ctrl Pts',(-2.68606798285674,0.599420600264713,0.252399714946252));
#490=CARTESIAN_POINT('Ctrl Pts',(-2.62616344827708,0.825530296432719,0.41629885390934));
#491=CARTESIAN_POINT('Ctrl Pts',(-2.58969160058756,0.929277314844233,0.526124199628743));
#492=CARTESIAN_POINT('Ctrl Pts',(-2.53423349270531,1.06970149821468,0.745101459936955));
#493=CARTESIAN_POINT('Ctrl Pts',(-2.51338081412475,1.1165486646609,0.846320101493553));
#494=CARTESIAN_POINT('Ctrl Pts',(-2.49013091365788,1.16711269325902,1.01391401454591));
#495=CARTESIAN_POINT('Ctrl Pts',(-2.48369453250656,1.18061472958239,1.07594680813662));
#496=CARTESIAN_POINT('Ctrl Pts',(-2.47817545318195,1.19212301060415,1.16095737484563));
#497=CARTESIAN_POINT('Ctrl Pts',(-2.47703545612079,1.19448697823065,1.18298592405891));
#498=CARTESIAN_POINT('Ctrl Pts',(-2.47547324574793,1.19772071549365,1.2237415401966));
#499=CARTESIAN_POINT('Ctrl Pts',(-2.47496738957257,1.19876472855949,1.24243424926444));
#500=CARTESIAN_POINT('Ctrl Pts',(-2.47447034635995,1.1997902825449,1.27409592889071));
#501=CARTESIAN_POINT('Ctrl Pts',(-2.47436860633172,1.2,1.28704684264991));
#502=CARTESIAN_POINT('Ctrl Pts',(-2.47436860633172,1.2,1.3));
#503=CARTESIAN_POINT('Ctrl Pts',(-2.47436860633172,1.2,1.45305346384988));
#504=CARTESIAN_POINT('Ctrl Pts',(-2.49007651527959,1.16898927009284,1.61462236045113));
#505=CARTESIAN_POINT('Ctrl Pts',(-2.54420731379803,1.04595685302059,1.90950624083053));
#506=CARTESIAN_POINT('Ctrl Pts',(-2.58159941705386,0.954013921313887,2.04304235353383));
#507=CARTESIAN_POINT('Ctrl Pts',(-2.64998448071877,0.743198483633626,2.25385779121409));
#508=CARTESIAN_POINT('Ctrl Pts',(-2.68575630744296,0.609605339612015,2.34591790968753));
#509=CARTESIAN_POINT('Ctrl Pts',(-2.73605573458444,0.314491073608277,2.46904164278141));
#510=CARTESIAN_POINT('Ctrl Pts',(-2.75,0.152826928560441,2.5));
#511=CARTESIAN_POINT('Ctrl Pts',(-2.75,0.,2.5));
#512=CARTESIAN_POINT('Origin',(0.,0.,2.5));
#513=CARTESIAN_POINT('',(-2.47436860633172,-1.2,1.3));
#514=CARTESIAN_POINT('Ctrl Pts',(-2.75,2.08166817117217E-16,2.5));
#515=CARTESIAN_POINT('Ctrl Pts',(-2.75,-0.152826928560441,2.5));
#516=CARTESIAN_POINT('Ctrl Pts',(-2.73605573458444,-0.314491073608277,2.46904164278141));
#517=CARTESIAN_POINT('Ctrl Pts',(-2.68575630744296,-0.609605339612014,2.34591790968753));
#518=CARTESIAN_POINT('Ctrl Pts',(-2.64998448071877,-0.743198483633626,2.25385779121409));
#519=CARTESIAN_POINT('Ctrl Pts',(-2.58159941705386,-0.954013921313887,2.04304235353383));
#520=CARTESIAN_POINT('Ctrl Pts',(-2.54420731379803,-1.04595685302059,1.90950624083053));
#521=CARTESIAN_POINT('Ctrl Pts',(-2.49007651527959,-1.16898927009284,1.61462236045113));
#522=CARTESIAN_POINT('Ctrl Pts',(-2.47436860633172,-1.2,1.45305346384988));
#523=CARTESIAN_POINT('Ctrl Pts',(-2.47436860633172,-1.2,1.3));
#524=CARTESIAN_POINT('Ctrl Pts',(-2.47436860633172,-1.2,1.3));
#525=CARTESIAN_POINT('Ctrl Pts',(-2.47436860633172,-1.2,1.14694653615012));
#526=CARTESIAN_POINT('Ctrl Pts',(-2.49007651527959,-1.16898927009284,0.985377639548871));
#527=CARTESIAN_POINT('Ctrl Pts',(-2.54420731379803,-1.04595685302059,0.690493759169469));
#528=CARTESIAN_POINT('Ctrl Pts',(-2.58159941705386,-0.954013921313888,0.556957646466174));
#529=CARTESIAN_POINT('Ctrl Pts',(-2.64998448071877,-0.743198483633626,0.346142208785912));
#530=CARTESIAN_POINT('Ctrl Pts',(-2.68575630744296,-0.609605339612014,0.254082090312466));
#531=CARTESIAN_POINT('Ctrl Pts',(-2.73605573458444,-0.314491073608276,0.130958357218591));
#532=CARTESIAN_POINT('Ctrl Pts',(-2.75,-0.152826928560441,0.1));
#533=CARTESIAN_POINT('Ctrl Pts',(-2.75,-2.08166817117217E-16,0.1));
#534=CARTESIAN_POINT('Origin',(0.,0.,0.));
#535=CARTESIAN_POINT('',(-1.05,1.28587913910472E-16,0.));
#536=CARTESIAN_POINT('Origin',(0.,0.,0.));
#537=CARTESIAN_POINT('Origin',(0.,0.,2.55));
#538=CARTESIAN_POINT('',(-1.75,2.14313189850787E-16,2.6));
#539=CARTESIAN_POINT('Origin',(0.,0.,2.6));
#540=CARTESIAN_POINT('',(-2.25,-2.75545529808155E-16,2.55));
#541=CARTESIAN_POINT('Origin',(0.,0.,2.6));
#542=CARTESIAN_POINT('',(-1.05,-1.28587913910472E-16,2.6));
#543=CARTESIAN_POINT('Origin',(0.,0.,2.6));
#544=CARTESIAN_POINT('Origin',(0.,0.,0.5));
#545=CARTESIAN_POINT('',(-0.95,-1.16341445918999E-16,1.));
#546=CARTESIAN_POINT('Origin',(0.,0.,1.));
#547=CARTESIAN_POINT('',(-1.,-1.22464679914735E-16,0.5));
#548=CARTESIAN_POINT('Origin',(0.,0.,0.));
#549=CARTESIAN_POINT('',(-0.95,1.16341445918999E-16,1.6));
#550=CARTESIAN_POINT('Origin',(0.,0.,1.6));
#551=CARTESIAN_POINT('',(-0.95,-1.16341445918999E-16,0.));
#552=CARTESIAN_POINT('Origin',(-12.25,3.85185988877447E-32,0.5));
#553=CARTESIAN_POINT('',(-13.2,-1.16341445918998E-16,1.));
#554=CARTESIAN_POINT('Origin',(-12.25,3.85185988877447E-32,1.));
#555=CARTESIAN_POINT('',(-13.25,-1.22464679914735E-16,0.5));
#556=CARTESIAN_POINT('Origin',(-12.25,3.85185988877447E-32,0.));
#557=CARTESIAN_POINT('',(-13.2,1.16341445918999E-16,1.6));
#558=CARTESIAN_POINT('Origin',(-12.25,3.85185988877447E-32,1.6));
#559=CARTESIAN_POINT('',(-13.2,-1.16341445918998E-16,0.));
#560=CARTESIAN_POINT('Origin',(0.,0.,2.1));
#561=CARTESIAN_POINT('',(-1.,-1.22464679914735E-16,2.1));
#562=CARTESIAN_POINT('Origin',(-12.25,3.85185988877447E-32,2.1));
#563=CARTESIAN_POINT('',(-13.25,-1.22464679914735E-16,2.1));
#564=CARTESIAN_POINT('Origin',(-12.6499997012317,1.12734646571104E-34,1.3));
#565=CARTESIAN_POINT('',(-12.6499997012317,-1.2,1.3));
#566=UNCERTAINTY_MEASURE_WITH_UNIT(LENGTH_MEASURE(0.01),#570,
'DISTANCE_ACCURACY_VALUE',
'Maximum model space distance between geometric entities at asserted c
onnectivities');
#567=UNCERTAINTY_MEASURE_WITH_UNIT(LENGTH_MEASURE(0.01),#570,
'DISTANCE_ACCURACY_VALUE',
'Maximum model space distance between geometric entities at asserted c
onnectivities');
#568=(
GEOMETRIC_REPRESENTATION_CONTEXT(3)
GLOBAL_UNCERTAINTY_ASSIGNED_CONTEXT((#566))
GLOBAL_UNIT_ASSIGNED_CONTEXT((#570,#572,#573))
REPRESENTATION_CONTEXT('','3D')
);
#569=(
GEOMETRIC_REPRESENTATION_CONTEXT(3)
GLOBAL_UNCERTAINTY_ASSIGNED_CONTEXT((#567))
GLOBAL_UNIT_ASSIGNED_CONTEXT((#570,#572,#573))
REPRESENTATION_CONTEXT('','3D')
);
#570=(
LENGTH_UNIT()
NAMED_UNIT(*)
SI_UNIT(.MILLI.,.METRE.)
);
#571=(
LENGTH_UNIT()
NAMED_UNIT(*)
SI_UNIT($,.METRE.)
);
#572=(
NAMED_UNIT(*)
PLANE_ANGLE_UNIT()
SI_UNIT($,.RADIAN.)
);
#573=(
NAMED_UNIT(*)
SI_UNIT($,.STERADIAN.)
SOLID_ANGLE_UNIT()
);
#574=SHAPE_DEFINITION_REPRESENTATION(#575,#576);
#575=PRODUCT_DEFINITION_SHAPE('',$,#578);
#576=SHAPE_REPRESENTATION('',(#269),#568);
#577=PRODUCT_DEFINITION_CONTEXT('part definition',#582,'design');
#578=PRODUCT_DEFINITION('ConnectingBracketV3','ConnectingBracketV3 v2',
#579,#577);
#579=PRODUCT_DEFINITION_FORMATION('',$,#584);
#580=PRODUCT_RELATED_PRODUCT_CATEGORY('ConnectingBracketV3 v2',
'ConnectingBracketV3 v2',(#584));
#581=APPLICATION_PROTOCOL_DEFINITION('international standard',
'automotive_design',2009,#582);
#582=APPLICATION_CONTEXT(
'Core Data for Automotive Mechanical Design Process');
#583=PRODUCT_CONTEXT('part definition',#582,'mechanical');
#584=PRODUCT('ConnectingBracketV3','ConnectingBracketV3 v2',$,(#583));
#585=PRESENTATION_STYLE_ASSIGNMENT((#587));
#586=PRESENTATION_STYLE_ASSIGNMENT((#588));
#587=SURFACE_STYLE_USAGE(.BOTH.,#589);
#588=SURFACE_STYLE_USAGE(.BOTH.,#590);
#589=SURFACE_SIDE_STYLE('',(#591));
#590=SURFACE_SIDE_STYLE('',(#592));
#591=SURFACE_STYLE_FILL_AREA(#593);
#592=SURFACE_STYLE_FILL_AREA(#594);
#593=FILL_AREA_STYLE('Steel - Satin',(#595));
#594=FILL_AREA_STYLE('Glass - Frosted',(#596));
#595=FILL_AREA_STYLE_COLOUR('Steel - Satin',#597);
#596=FILL_AREA_STYLE_COLOUR('Glass - Frosted',#598);
#597=COLOUR_RGB('Steel - Satin',0.627450980392157,0.627450980392157,0.627450980392157);
#598=COLOUR_RGB('Glass - Frosted',0.709803921568627,0.941176470588235,0.886274509803922);
ENDSEC;
END-ISO-10303-21;
