ISO-10303-21;
HEADER;
/* Generated by software containing ST-Developer
 * from STEP Tools, Inc. (www.steptools.com) 
 */

FILE_DESCRIPTION(
/* description */ (''),
/* implementation_level */ '2;1');

FILE_NAME(
/* name */ 'SpoolPin_v8.step',
/* time_stamp */ '2026-08-21T09:13:13-04:00',
/* author */ (''),
/* organization */ (''),
/* preprocessor_version */ 'ST-DEVELOPER v20.1',
/* originating_system */ 'Autodesk Translation Framework v15.8.0.0',
/* authorisation */ '');

FILE_SCHEMA (('AUTOMOTIVE_DESIGN { 1 0 10303 214 3 1 1 }'));
ENDSEC;

DATA;
#10=MECHANICAL_DESIGN_GEOMETRIC_PRESENTATION_REPRESENTATION('',(#13),#1201);
#11=SHAPE_REPRESENTATION_RELATIONSHIP('SRR','None',#1208,#12);
#12=ADVANCED_BREP_SHAPE_REPRESENTATION('',(#14),#1200);
#13=STYLED_ITEM('',(#1217),#14);
#14=MANIFOLD_SOLID_BREP('Body1',#511);
#15=CONICAL_SURFACE('',#543,0.55,0.426627493126876);
#16=CONICAL_SURFACE('',#559,2.235,1.22682720707154);
#17=CONICAL_SURFACE('',#562,2.,0.643501108793284);
#18=CONICAL_SURFACE('',#563,2.235,1.22682720707154);
#19=CONICAL_SURFACE('',#566,2.,0.643501108793284);
#20=ELLIPSE('',#539,0.424264068711929,0.3);
#21=ELLIPSE('',#540,0.424264068711929,0.3);
#22=(
BOUNDED_CURVE()
B_SPLINE_CURVE(3,(#921,#922,#923,#924,#925,#926,#927,#928,#929,#930,#931,
#932),.UNSPECIFIED.,.F.,.F.)
B_SPLINE_CURVE_WITH_KNOTS((4,2,2,2,2,4),(0.0904697233185058,0.0976851939759952,
0.11952240343204,0.13917061820665,0.163129828712202,0.180939446637011),
 .UNSPECIFIED.)
CURVE()
GEOMETRIC_REPRESENTATION_ITEM()
RATIONAL_B_SPLINE_CURVE((1.,1.,1.,1.,1.,1.,1.,1.,1.,1.,1.,1.))
REPRESENTATION_ITEM('')
);
#23=(
BOUNDED_CURVE()
B_SPLINE_CURVE(3,(#975,#976,#977,#978,#979,#980,#981,#982,#983,#984,#985,
#986),.UNSPECIFIED.,.F.,.F.)
B_SPLINE_CURVE_WITH_KNOTS((4,2,2,2,2,4),(0.0904697233185058,0.0976851939759984,
0.119522403432043,0.139170618206655,0.163129828712219,0.180939446637011),
 .UNSPECIFIED.)
CURVE()
GEOMETRIC_REPRESENTATION_ITEM()
RATIONAL_B_SPLINE_CURVE((1.,1.,1.,1.,1.,1.,1.,1.,1.,1.,1.,1.))
REPRESENTATION_ITEM('')
);
#24=(
BOUNDED_CURVE()
B_SPLINE_CURVE(2,(#1127,#1128,#1129,#1130),.UNSPECIFIED.,.F.,.F.)
B_SPLINE_CURVE_WITH_KNOTS((3,1,3),(0.0587177368794322,0.0642696166324842,
0.0887995573755195),.UNSPECIFIED.)
CURVE()
GEOMETRIC_REPRESENTATION_ITEM()
RATIONAL_B_SPLINE_CURVE((2.7119628339141,2.78977685961337,3.20820000165543,
3.5378787878788))
REPRESENTATION_ITEM('')
);
#25=(
BOUNDED_CURVE()
B_SPLINE_CURVE(2,(#1132,#1133,#1134),.UNSPECIFIED.,.F.,.F.)
B_SPLINE_CURVE_WITH_KNOTS((3,3),(0.,0.230251539065498),.UNSPECIFIED.)
CURVE()
GEOMETRIC_REPRESENTATION_ITEM()
RATIONAL_B_SPLINE_CURVE((1.,1.07434333456129,1.01240671116611))
REPRESENTATION_ITEM('')
);
#26=(
BOUNDED_CURVE()
B_SPLINE_CURVE(2,(#1146,#1147,#1148,#1149),.UNSPECIFIED.,.F.,.F.)
B_SPLINE_CURVE_WITH_KNOTS((3,1,3),(0.0587177368794321,0.0642696166324845,
0.0887995573755194),.UNSPECIFIED.)
CURVE()
GEOMETRIC_REPRESENTATION_ITEM()
RATIONAL_B_SPLINE_CURVE((2.71196283391411,2.78977685961339,3.20820000165544,
3.53787878787881))
REPRESENTATION_ITEM('')
);
#27=(
BOUNDED_CURVE()
B_SPLINE_CURVE(2,(#1150,#1151,#1152),.UNSPECIFIED.,.F.,.F.)
B_SPLINE_CURVE_WITH_KNOTS((3,3),(0.,0.230251539065497),.UNSPECIFIED.)
CURVE()
GEOMETRIC_REPRESENTATION_ITEM()
RATIONAL_B_SPLINE_CURVE((1.,1.07434333456124,1.01240671116611))
REPRESENTATION_ITEM('')
);
#28=(
BOUNDED_CURVE()
B_SPLINE_CURVE(2,(#1155,#1156,#1157,#1158,#1159),.UNSPECIFIED.,.F.,.F.)
B_SPLINE_CURVE_WITH_KNOTS((3,2,3),(0.0209617348256867,0.0273515174708099,
0.251213273891185),.UNSPECIFIED.)
CURVE()
GEOMETRIC_REPRESENTATION_ITEM()
RATIONAL_B_SPLINE_CURVE((1.0124067111661,1.01412553381925,1.01573940245231,
1.07228020937696,1.))
REPRESENTATION_ITEM('')
);
#29=(
BOUNDED_CURVE()
B_SPLINE_CURVE(2,(#1161,#1162,#1163,#1164,#1165,#1166),.UNSPECIFIED.,.F.,
 .F.)
B_SPLINE_CURVE_WITH_KNOTS((3,1,2,3),(1.49273511565006,1.52057616314451,
1.52102725011606,1.52281693614615),.UNSPECIFIED.)
CURVE()
GEOMETRIC_REPRESENTATION_ITEM()
RATIONAL_B_SPLINE_CURVE((3.53787878787881,3.16369921519627,2.76837615326217,
2.76206926596039,2.73704671197582,2.71196283391406))
REPRESENTATION_ITEM('')
);
#30=(
BOUNDED_CURVE()
B_SPLINE_CURVE(2,(#1172,#1173,#1174,#1175,#1176),.UNSPECIFIED.,.F.,.F.)
B_SPLINE_CURVE_WITH_KNOTS((3,2,3),(0.0209617348256868,0.0273515174708102,
0.251213273891181),.UNSPECIFIED.)
CURVE()
GEOMETRIC_REPRESENTATION_ITEM()
RATIONAL_B_SPLINE_CURVE((1.0124067111661,1.01412553381925,1.01573940245231,
1.07228020937696,1.))
REPRESENTATION_ITEM('')
);
#31=(
BOUNDED_CURVE()
B_SPLINE_CURVE(2,(#1178,#1179,#1180,#1181,#1182,#1183),.UNSPECIFIED.,.F.,
 .F.)
B_SPLINE_CURVE_WITH_KNOTS((3,1,2,3),(1.49273511565006,1.52057616314451,
1.52102725011606,1.52281693614615),.UNSPECIFIED.)
CURVE()
GEOMETRIC_REPRESENTATION_ITEM()
RATIONAL_B_SPLINE_CURVE((3.53787878787881,3.16369921519627,2.76837615326217,
2.76206926596039,2.73704671197582,2.71196283391406))
REPRESENTATION_ITEM('')
);
#32=B_SPLINE_SURFACE_WITH_KNOTS('',3,3,((#812,#813,#814,#815,#816,#817,
#818,#819,#820,#821,#822,#823,#824,#825,#826,#827,#828,#829,#830,#831,#832,
#833,#834),(#835,#836,#837,#838,#839,#840,#841,#842,#843,#844,#845,#846,
#847,#848,#849,#850,#851,#852,#853,#854,#855,#856,#857),(#858,#859,#860,
#861,#862,#863,#864,#865,#866,#867,#868,#869,#870,#871,#872,#873,#874,#875,
#876,#877,#878,#879,#880),(#881,#882,#883,#884,#885,#886,#887,#888,#889,
#890,#891,#892,#893,#894,#895,#896,#897,#898,#899,#900,#901,#902,#903)),
 .UNSPECIFIED.,.F.,.T.,.F.,(4,4),(4,1,1,1,1,1,1,1,1,1,1,1,1,1,1,1,1,1,1,
1,4),(0.,1.),(0.,0.0129242461883579,0.0258484923767159,0.0323106154708949,
0.0387727385650738,0.0516969847534318,0.0581591078476107,0.0646212309417897,
0.0710833540359687,0.0775454771301477,0.0904697233185056,0.103393969506864,
0.109856092601043,0.116318215695221,0.1227803387894,0.12601140033649,0.127626931110035,
0.129242461883579,0.155090954260295,0.168015200448653,0.180939446637011),
 .UNSPECIFIED.);
#33=B_SPLINE_SURFACE_WITH_KNOTS('',3,3,((#994,#995,#996,#997,#998,#999,
#1000,#1001,#1002,#1003,#1004,#1005,#1006,#1007,#1008,#1009,#1010,#1011,
#1012,#1013,#1014,#1015,#1016),(#1017,#1018,#1019,#1020,#1021,#1022,#1023,
#1024,#1025,#1026,#1027,#1028,#1029,#1030,#1031,#1032,#1033,#1034,#1035,
#1036,#1037,#1038,#1039),(#1040,#1041,#1042,#1043,#1044,#1045,#1046,#1047,
#1048,#1049,#1050,#1051,#1052,#1053,#1054,#1055,#1056,#1057,#1058,#1059,
#1060,#1061,#1062),(#1063,#1064,#1065,#1066,#1067,#1068,#1069,#1070,#1071,
#1072,#1073,#1074,#1075,#1076,#1077,#1078,#1079,#1080,#1081,#1082,#1083,
#1084,#1085)),.UNSPECIFIED.,.F.,.T.,.F.,(4,4),(4,1,1,1,1,1,1,1,1,1,1,1,
1,1,1,1,1,1,1,1,4),(0.,1.),(0.,0.0129242461883579,0.0258484923767159,0.0323106154708949,
0.0387727385650738,0.0516969847534318,0.0581591078476108,0.0646212309417897,
0.0710833540359687,0.0775454771301477,0.0904697233185056,0.103393969506864,
0.109856092601043,0.116318215695221,0.1227803387894,0.12601140033649,0.127626931110035,
0.129242461883579,0.155090954260295,0.168015200448653,0.180939446637011),
 .UNSPECIFIED.);
#34=PLANE('',#535);
#35=PLANE('',#536);
#36=PLANE('',#546);
#37=PLANE('',#547);
#38=PLANE('',#550);
#39=PLANE('',#551);
#40=PLANE('',#552);
#41=PLANE('',#554);
#42=PLANE('',#555);
#43=PLANE('',#556);
#44=PLANE('',#557);
#45=PLANE('',#569);
#46=FACE_BOUND('',#103,.T.);
#47=FACE_BOUND('',#106,.T.);
#48=FACE_BOUND('',#110,.T.);
#49=FACE_BOUND('',#116,.T.);
#50=FACE_BOUND('',#117,.T.);
#51=CIRCLE('',#527,2.5);
#52=CIRCLE('',#528,3.);
#53=CIRCLE('',#531,3.);
#54=CIRCLE('',#532,2.5);
#55=CIRCLE('',#534,3.);
#56=CIRCLE('',#537,0.8);
#57=CIRCLE('',#542,3.);
#58=CIRCLE('',#544,0.3);
#59=CIRCLE('',#548,1.9);
#60=CIRCLE('',#549,1.9);
#61=CIRCLE('',#553,1.25);
#62=CIRCLE('',#558,1.25);
#63=CIRCLE('',#560,1.9);
#64=CIRCLE('',#561,2.57);
#65=CIRCLE('',#564,1.9);
#66=CIRCLE('',#565,2.57);
#67=TOROIDAL_SURFACE('',#526,2.5,0.5);
#68=TOROIDAL_SURFACE('',#530,2.5,0.5);
#69=FACE_OUTER_BOUND('',#98,.T.);
#70=FACE_OUTER_BOUND('',#99,.T.);
#71=FACE_OUTER_BOUND('',#100,.T.);
#72=FACE_OUTER_BOUND('',#101,.T.);
#73=FACE_OUTER_BOUND('',#102,.T.);
#74=FACE_OUTER_BOUND('',#104,.T.);
#75=FACE_OUTER_BOUND('',#105,.T.);
#76=FACE_OUTER_BOUND('',#107,.T.);
#77=FACE_OUTER_BOUND('',#108,.T.);
#78=FACE_OUTER_BOUND('',#109,.T.);
#79=FACE_OUTER_BOUND('',#111,.T.);
#80=FACE_OUTER_BOUND('',#112,.T.);
#81=FACE_OUTER_BOUND('',#113,.T.);
#82=FACE_OUTER_BOUND('',#114,.T.);
#83=FACE_OUTER_BOUND('',#115,.T.);
#84=FACE_OUTER_BOUND('',#118,.T.);
#85=FACE_OUTER_BOUND('',#119,.T.);
#86=FACE_OUTER_BOUND('',#120,.T.);
#87=FACE_OUTER_BOUND('',#121,.T.);
#88=FACE_OUTER_BOUND('',#122,.T.);
#89=FACE_OUTER_BOUND('',#123,.T.);
#90=FACE_OUTER_BOUND('',#124,.T.);
#91=FACE_OUTER_BOUND('',#125,.T.);
#92=FACE_OUTER_BOUND('',#126,.T.);
#93=FACE_OUTER_BOUND('',#127,.T.);
#94=FACE_OUTER_BOUND('',#128,.T.);
#95=FACE_OUTER_BOUND('',#129,.T.);
#96=FACE_OUTER_BOUND('',#130,.T.);
#97=FACE_OUTER_BOUND('',#131,.T.);
#98=EDGE_LOOP('',(#330,#331,#332,#333));
#99=EDGE_LOOP('',(#334,#335,#336,#337));
#100=EDGE_LOOP('',(#338,#339,#340,#341));
#101=EDGE_LOOP('',(#342,#343,#344,#345));
#102=EDGE_LOOP('',(#346,#347,#348,#349));
#103=EDGE_LOOP('',(#350));
#104=EDGE_LOOP('',(#351,#352,#353,#354));
#105=EDGE_LOOP('',(#355,#356,#357,#358));
#106=EDGE_LOOP('',(#359));
#107=EDGE_LOOP('',(#360,#361,#362,#363,#364));
#108=EDGE_LOOP('',(#365,#366,#367,#368,#369,#370,#371,#372,#373,#374));
#109=EDGE_LOOP('',(#375,#376,#377,#378));
#110=EDGE_LOOP('',(#379));
#111=EDGE_LOOP('',(#380,#381,#382,#383,#384));
#112=EDGE_LOOP('',(#385,#386,#387,#388));
#113=EDGE_LOOP('',(#389,#390,#391,#392,#393));
#114=EDGE_LOOP('',(#394,#395,#396,#397));
#115=EDGE_LOOP('',(#398,#399,#400,#401));
#116=EDGE_LOOP('',(#402,#403,#404,#405));
#117=EDGE_LOOP('',(#406,#407,#408,#409));
#118=EDGE_LOOP('',(#410,#411,#412,#413));
#119=EDGE_LOOP('',(#414,#415,#416,#417,#418,#419));
#120=EDGE_LOOP('',(#420,#421,#422,#423));
#121=EDGE_LOOP('',(#424,#425,#426,#427,#428,#429));
#122=EDGE_LOOP('',(#430,#431,#432,#433,#434,#435));
#123=EDGE_LOOP('',(#436,#437,#438,#439,#440,#441));
#124=EDGE_LOOP('',(#442,#443,#444,#445));
#125=EDGE_LOOP('',(#446,#447,#448,#449));
#126=EDGE_LOOP('',(#450,#451,#452,#453));
#127=EDGE_LOOP('',(#454,#455,#456,#457));
#128=EDGE_LOOP('',(#458,#459,#460,#461));
#129=EDGE_LOOP('',(#462,#463,#464,#465));
#130=EDGE_LOOP('',(#466,#467,#468,#469));
#131=EDGE_LOOP('',(#470,#471,#472,#473));
#132=B_SPLINE_CURVE_WITH_KNOTS('',3,(#704,#705,#706,#707,#708,#709,#710,
#711,#712,#713,#714,#715,#716,#717),.UNSPECIFIED.,.F.,.F.,(4,2,2,2,2,2,
4),(-0.0806379043110339,-0.0802953867341867,-0.0690692513034005,-0.0579075501558819,
-0.0378961829478453,-0.0187490097950399,0.),.UNSPECIFIED.);
#133=B_SPLINE_CURVE_WITH_KNOTS('',3,(#720,#721,#722,#723,#724,#725,#726,
#727,#728,#729,#730,#731,#732,#733),.UNSPECIFIED.,.F.,.F.,(4,2,2,2,2,2,
4),(-0.000343124927408023,0.,0.0112460415614804,0.0224275345851244,0.042474385855639,
0.0616555106860768,0.0804377661373506),.UNSPECIFIED.);
#134=B_SPLINE_CURVE_WITH_KNOTS('',3,(#738,#739,#740,#741,#742,#743,#744,
#745,#746,#747,#748,#749,#750,#751),.UNSPECIFIED.,.F.,.F.,(4,2,2,2,2,2,
4),(-0.000343124927635461,0.,0.0112460415642982,0.0224275345912544,0.0424743858677164,
0.0616555107038442,0.0804377661606894),.UNSPECIFIED.);
#135=B_SPLINE_CURVE_WITH_KNOTS('',3,(#757,#758,#759,#760,#761,#762,#763,
#764,#765,#766,#767,#768,#769,#770),.UNSPECIFIED.,.F.,.F.,(4,2,2,2,2,2,
4),(-0.08063790431064,-0.0802953867336682,-0.0690692513033962,-0.0579075501558825,
-0.0378961829478458,-0.0187490097950401,0.),.UNSPECIFIED.);
#136=B_SPLINE_CURVE_WITH_KNOTS('',3,(#782,#783,#784,#785,#786,#787,#788,
#789,#790,#791,#792,#793,#794,#795,#796,#797,#798,#799,#800,#801,#802,#803,
#804),.UNSPECIFIED.,.T.,.F.,(4,1,1,1,1,1,1,1,1,1,1,1,1,1,1,1,1,1,1,1,4),
(-0.180939446637011,-0.168015200448653,-0.155090954260295,-0.129242461883579,
-0.127626931110035,-0.12601140033649,-0.1227803387894,-0.116318215695221,
-0.109856092601043,-0.103393969506864,-0.0904697233185056,-0.0775454771301477,
-0.0710833540359687,-0.0646212309417897,-0.0581591078476108,-0.0516969847534318,
-0.0387727385650738,-0.0323106154708949,-0.0258484923767159,-0.0129242461883579,
0.),.UNSPECIFIED.);
#137=B_SPLINE_CURVE_WITH_KNOTS('',3,(#908,#909,#910,#911,#912,#913,#914,
#915,#916,#917,#918,#919,#920),.UNSPECIFIED.,.F.,.F.,(4,1,1,1,1,1,1,1,1,
1,4),(0.,0.0129242461883579,0.0258484923767159,0.0323106154708949,0.0387727385650738,
0.0516969847534318,0.0581591078476107,0.0646212309417897,0.0710833540359687,
0.0775454771301477,0.0904697233185056),.UNSPECIFIED.);
#138=B_SPLINE_CURVE_WITH_KNOTS('',3,(#933,#934,#935,#936,#937,#938,#939,
#940,#941,#942,#943,#944,#945,#946,#947,#948,#949,#950,#951,#952,#953,#954,
#955),.UNSPECIFIED.,.T.,.F.,(4,1,1,1,1,1,1,1,1,1,1,1,1,1,1,1,1,1,1,1,4),
(-0.180939446637011,-0.168015200448653,-0.155090954260295,-0.129242461883579,
-0.127626931110035,-0.12601140033649,-0.1227803387894,-0.116318215695221,
-0.109856092601043,-0.103393969506864,-0.0904697233185056,-0.0775454771301477,
-0.0710833540359687,-0.0646212309417897,-0.0581591078476107,-0.0516969847534318,
-0.0387727385650738,-0.0323106154708949,-0.0258484923767159,-0.0129242461883579,
0.),.UNSPECIFIED.);
#139=B_SPLINE_CURVE_WITH_KNOTS('',3,(#962,#963,#964,#965,#966,#967,#968,
#969,#970,#971,#972,#973,#974),.UNSPECIFIED.,.F.,.F.,(4,1,1,1,1,1,1,1,1,
1,4),(0.,0.0129242461883579,0.0258484923767159,0.0323106154708949,0.0387727385650738,
0.0516969847534318,0.0581591078476108,0.0646212309417897,0.0710833540359687,
0.0775454771301477,0.0904697233185056),.UNSPECIFIED.);
#140=LINE('',#702,#176);
#141=LINE('',#719,#177);
#142=LINE('',#755,#178);
#143=LINE('',#771,#179);
#144=LINE('',#777,#180);
#145=LINE('',#780,#181);
#146=LINE('',#807,#182);
#147=LINE('',#808,#183);
#148=LINE('',#906,#184);
#149=LINE('',#958,#185);
#150=LINE('',#960,#186);
#151=LINE('',#992,#187);
#152=LINE('',#1086,#188);
#153=LINE('',#1089,#189);
#154=LINE('',#1092,#190);
#155=LINE('',#1096,#191);
#156=LINE('',#1098,#192);
#157=LINE('',#1100,#193);
#158=LINE('',#1101,#194);
#159=LINE('',#1103,#195);
#160=LINE('',#1105,#196);
#161=LINE('',#1107,#197);
#162=LINE('',#1111,#198);
#163=LINE('',#1113,#199);
#164=LINE('',#1115,#200);
#165=LINE('',#1119,#201);
#166=LINE('',#1121,#202);
#167=LINE('',#1122,#203);
#168=LINE('',#1125,#204);
#169=LINE('',#1135,#205);
#170=LINE('',#1138,#206);
#171=LINE('',#1141,#207);
#172=LINE('',#1144,#208);
#173=LINE('',#1167,#209);
#174=LINE('',#1170,#210);
#175=LINE('',#1184,#211);
#176=VECTOR('',#574,10.);
#177=VECTOR('',#575,10.);
#178=VECTOR('',#584,10.);
#179=VECTOR('',#585,10.);
#180=VECTOR('',#594,10.);
#181=VECTOR('',#597,10.);
#182=VECTOR('',#600,10.);
#183=VECTOR('',#601,10.);
#184=VECTOR('',#606,10.);
#185=VECTOR('',#609,0.3);
#186=VECTOR('',#610,0.3);
#187=VECTOR('',#617,10.);
#188=VECTOR('',#620,10.);
#189=VECTOR('',#623,0.55);
#190=VECTOR('',#628,0.3);
#191=VECTOR('',#631,10.);
#192=VECTOR('',#632,10.);
#193=VECTOR('',#633,10.);
#194=VECTOR('',#634,10.);
#195=VECTOR('',#637,10.);
#196=VECTOR('',#638,10.);
#197=VECTOR('',#639,10.);
#198=VECTOR('',#642,10.);
#199=VECTOR('',#643,10.);
#200=VECTOR('',#644,10.);
#201=VECTOR('',#649,10.);
#202=VECTOR('',#650,10.);
#203=VECTOR('',#651,10.);
#204=VECTOR('',#654,10.);
#205=VECTOR('',#655,10.);
#206=VECTOR('',#658,10.);
#207=VECTOR('',#661,10.);
#208=VECTOR('',#664,10.);
#209=VECTOR('',#667,10.);
#210=VECTOR('',#670,10.);
#211=VECTOR('',#671,10.);
#212=VERTEX_POINT('',#700);
#213=VERTEX_POINT('',#701);
#214=VERTEX_POINT('',#703);
#215=VERTEX_POINT('',#718);
#216=VERTEX_POINT('',#735);
#217=VERTEX_POINT('',#737);
#218=VERTEX_POINT('',#754);
#219=VERTEX_POINT('',#756);
#220=VERTEX_POINT('',#776);
#221=VERTEX_POINT('',#778);
#222=VERTEX_POINT('',#781);
#223=VERTEX_POINT('',#806);
#224=VERTEX_POINT('',#810);
#225=VERTEX_POINT('',#904);
#226=VERTEX_POINT('',#905);
#227=VERTEX_POINT('',#907);
#228=VERTEX_POINT('',#957);
#229=VERTEX_POINT('',#959);
#230=VERTEX_POINT('',#961);
#231=VERTEX_POINT('',#987);
#232=VERTEX_POINT('',#991);
#233=VERTEX_POINT('',#1088);
#234=VERTEX_POINT('',#1094);
#235=VERTEX_POINT('',#1095);
#236=VERTEX_POINT('',#1097);
#237=VERTEX_POINT('',#1099);
#238=VERTEX_POINT('',#1104);
#239=VERTEX_POINT('',#1106);
#240=VERTEX_POINT('',#1109);
#241=VERTEX_POINT('',#1110);
#242=VERTEX_POINT('',#1112);
#243=VERTEX_POINT('',#1114);
#244=VERTEX_POINT('',#1118);
#245=VERTEX_POINT('',#1120);
#246=VERTEX_POINT('',#1124);
#247=VERTEX_POINT('',#1126);
#248=VERTEX_POINT('',#1131);
#249=VERTEX_POINT('',#1137);
#250=VERTEX_POINT('',#1139);
#251=VERTEX_POINT('',#1143);
#252=VERTEX_POINT('',#1145);
#253=VERTEX_POINT('',#1154);
#254=VERTEX_POINT('',#1160);
#255=VERTEX_POINT('',#1169);
#256=VERTEX_POINT('',#1171);
#257=VERTEX_POINT('',#1177);
#258=EDGE_CURVE('',#212,#213,#140,.T.);
#259=EDGE_CURVE('',#213,#214,#132,.T.);
#260=EDGE_CURVE('',#214,#215,#141,.T.);
#261=EDGE_CURVE('',#212,#215,#133,.T.);
#262=EDGE_CURVE('',#213,#216,#51,.T.);
#263=EDGE_CURVE('',#216,#217,#134,.T.);
#264=EDGE_CURVE('',#217,#214,#52,.T.);
#265=EDGE_CURVE('',#216,#218,#142,.T.);
#266=EDGE_CURVE('',#218,#219,#135,.T.);
#267=EDGE_CURVE('',#219,#217,#143,.T.);
#268=EDGE_CURVE('',#215,#219,#53,.T.);
#269=EDGE_CURVE('',#218,#212,#54,.T.);
#270=EDGE_CURVE('',#215,#220,#144,.T.);
#271=EDGE_CURVE('',#220,#221,#55,.T.);
#272=EDGE_CURVE('',#221,#219,#145,.T.);
#273=EDGE_CURVE('',#222,#222,#136,.T.);
#274=EDGE_CURVE('',#223,#214,#146,.T.);
#275=EDGE_CURVE('',#220,#223,#147,.T.);
#276=EDGE_CURVE('',#224,#224,#56,.T.);
#277=EDGE_CURVE('',#225,#226,#148,.T.);
#278=EDGE_CURVE('',#226,#227,#137,.T.);
#279=EDGE_CURVE('',#227,#226,#22,.T.);
#280=EDGE_CURVE('',#225,#225,#138,.T.);
#281=EDGE_CURVE('',#227,#228,#149,.T.);
#282=EDGE_CURVE('',#228,#229,#150,.T.);
#283=EDGE_CURVE('',#230,#229,#139,.T.);
#284=EDGE_CURVE('',#229,#230,#23,.T.);
#285=EDGE_CURVE('',#228,#231,#20,.T.);
#286=EDGE_CURVE('',#231,#228,#21,.T.);
#287=EDGE_CURVE('',#217,#232,#151,.T.);
#288=EDGE_CURVE('',#232,#223,#57,.T.);
#289=EDGE_CURVE('',#222,#230,#152,.T.);
#290=EDGE_CURVE('',#224,#233,#153,.T.);
#291=EDGE_CURVE('',#233,#233,#58,.T.);
#292=EDGE_CURVE('',#233,#231,#154,.T.);
#293=EDGE_CURVE('',#234,#235,#155,.T.);
#294=EDGE_CURVE('',#235,#236,#156,.T.);
#295=EDGE_CURVE('',#236,#237,#157,.T.);
#296=EDGE_CURVE('',#237,#234,#158,.T.);
#297=EDGE_CURVE('',#232,#221,#159,.T.);
#298=EDGE_CURVE('',#236,#238,#160,.T.);
#299=EDGE_CURVE('',#239,#235,#161,.T.);
#300=EDGE_CURVE('',#239,#238,#59,.T.);
#301=EDGE_CURVE('',#240,#241,#162,.T.);
#302=EDGE_CURVE('',#242,#240,#163,.T.);
#303=EDGE_CURVE('',#243,#242,#164,.T.);
#304=EDGE_CURVE('',#243,#241,#60,.T.);
#305=EDGE_CURVE('',#244,#242,#165,.T.);
#306=EDGE_CURVE('',#240,#245,#166,.T.);
#307=EDGE_CURVE('',#245,#244,#167,.T.);
#308=EDGE_CURVE('',#246,#238,#168,.T.);
#309=EDGE_CURVE('',#247,#246,#24,.T.);
#310=EDGE_CURVE('',#248,#247,#25,.T.);
#311=EDGE_CURVE('',#237,#248,#169,.T.);
#312=EDGE_CURVE('',#245,#249,#170,.T.);
#313=EDGE_CURVE('',#250,#249,#61,.T.);
#314=EDGE_CURVE('',#250,#244,#171,.T.);
#315=EDGE_CURVE('',#251,#241,#172,.T.);
#316=EDGE_CURVE('',#252,#251,#26,.T.);
#317=EDGE_CURVE('',#249,#252,#27,.T.);
#318=EDGE_CURVE('',#253,#250,#28,.T.);
#319=EDGE_CURVE('',#254,#253,#29,.T.);
#320=EDGE_CURVE('',#243,#254,#173,.T.);
#321=EDGE_CURVE('',#255,#234,#174,.T.);
#322=EDGE_CURVE('',#256,#255,#30,.T.);
#323=EDGE_CURVE('',#257,#256,#31,.T.);
#324=EDGE_CURVE('',#239,#257,#175,.T.);
#325=EDGE_CURVE('',#255,#248,#62,.T.);
#326=EDGE_CURVE('',#251,#254,#63,.T.);
#327=EDGE_CURVE('',#253,#252,#64,.T.);
#328=EDGE_CURVE('',#246,#257,#65,.T.);
#329=EDGE_CURVE('',#256,#247,#66,.T.);
#330=ORIENTED_EDGE('',*,*,#258,.T.);
#331=ORIENTED_EDGE('',*,*,#259,.T.);
#332=ORIENTED_EDGE('',*,*,#260,.T.);
#333=ORIENTED_EDGE('',*,*,#261,.F.);
#334=ORIENTED_EDGE('',*,*,#262,.T.);
#335=ORIENTED_EDGE('',*,*,#263,.T.);
#336=ORIENTED_EDGE('',*,*,#264,.T.);
#337=ORIENTED_EDGE('',*,*,#259,.F.);
#338=ORIENTED_EDGE('',*,*,#265,.T.);
#339=ORIENTED_EDGE('',*,*,#266,.T.);
#340=ORIENTED_EDGE('',*,*,#267,.T.);
#341=ORIENTED_EDGE('',*,*,#263,.F.);
#342=ORIENTED_EDGE('',*,*,#268,.T.);
#343=ORIENTED_EDGE('',*,*,#266,.F.);
#344=ORIENTED_EDGE('',*,*,#269,.T.);
#345=ORIENTED_EDGE('',*,*,#261,.T.);
#346=ORIENTED_EDGE('',*,*,#268,.F.);
#347=ORIENTED_EDGE('',*,*,#270,.T.);
#348=ORIENTED_EDGE('',*,*,#271,.T.);
#349=ORIENTED_EDGE('',*,*,#272,.T.);
#350=ORIENTED_EDGE('',*,*,#273,.F.);
#351=ORIENTED_EDGE('',*,*,#260,.F.);
#352=ORIENTED_EDGE('',*,*,#274,.F.);
#353=ORIENTED_EDGE('',*,*,#275,.F.);
#354=ORIENTED_EDGE('',*,*,#270,.F.);
#355=ORIENTED_EDGE('',*,*,#258,.F.);
#356=ORIENTED_EDGE('',*,*,#269,.F.);
#357=ORIENTED_EDGE('',*,*,#265,.F.);
#358=ORIENTED_EDGE('',*,*,#262,.F.);
#359=ORIENTED_EDGE('',*,*,#276,.F.);
#360=ORIENTED_EDGE('',*,*,#277,.T.);
#361=ORIENTED_EDGE('',*,*,#278,.T.);
#362=ORIENTED_EDGE('',*,*,#279,.T.);
#363=ORIENTED_EDGE('',*,*,#277,.F.);
#364=ORIENTED_EDGE('',*,*,#280,.T.);
#365=ORIENTED_EDGE('',*,*,#278,.F.);
#366=ORIENTED_EDGE('',*,*,#279,.F.);
#367=ORIENTED_EDGE('',*,*,#281,.T.);
#368=ORIENTED_EDGE('',*,*,#282,.T.);
#369=ORIENTED_EDGE('',*,*,#283,.F.);
#370=ORIENTED_EDGE('',*,*,#284,.F.);
#371=ORIENTED_EDGE('',*,*,#282,.F.);
#372=ORIENTED_EDGE('',*,*,#285,.T.);
#373=ORIENTED_EDGE('',*,*,#286,.T.);
#374=ORIENTED_EDGE('',*,*,#281,.F.);
#375=ORIENTED_EDGE('',*,*,#264,.F.);
#376=ORIENTED_EDGE('',*,*,#287,.T.);
#377=ORIENTED_EDGE('',*,*,#288,.T.);
#378=ORIENTED_EDGE('',*,*,#274,.T.);
#379=ORIENTED_EDGE('',*,*,#280,.F.);
#380=ORIENTED_EDGE('',*,*,#289,.T.);
#381=ORIENTED_EDGE('',*,*,#283,.T.);
#382=ORIENTED_EDGE('',*,*,#284,.T.);
#383=ORIENTED_EDGE('',*,*,#289,.F.);
#384=ORIENTED_EDGE('',*,*,#273,.T.);
#385=ORIENTED_EDGE('',*,*,#276,.T.);
#386=ORIENTED_EDGE('',*,*,#290,.T.);
#387=ORIENTED_EDGE('',*,*,#291,.T.);
#388=ORIENTED_EDGE('',*,*,#290,.F.);
#389=ORIENTED_EDGE('',*,*,#291,.F.);
#390=ORIENTED_EDGE('',*,*,#292,.T.);
#391=ORIENTED_EDGE('',*,*,#285,.F.);
#392=ORIENTED_EDGE('',*,*,#286,.F.);
#393=ORIENTED_EDGE('',*,*,#292,.F.);
#394=ORIENTED_EDGE('',*,*,#293,.T.);
#395=ORIENTED_EDGE('',*,*,#294,.T.);
#396=ORIENTED_EDGE('',*,*,#295,.T.);
#397=ORIENTED_EDGE('',*,*,#296,.T.);
#398=ORIENTED_EDGE('',*,*,#275,.T.);
#399=ORIENTED_EDGE('',*,*,#288,.F.);
#400=ORIENTED_EDGE('',*,*,#297,.T.);
#401=ORIENTED_EDGE('',*,*,#271,.F.);
#402=ORIENTED_EDGE('',*,*,#298,.F.);
#403=ORIENTED_EDGE('',*,*,#294,.F.);
#404=ORIENTED_EDGE('',*,*,#299,.F.);
#405=ORIENTED_EDGE('',*,*,#300,.T.);
#406=ORIENTED_EDGE('',*,*,#301,.F.);
#407=ORIENTED_EDGE('',*,*,#302,.F.);
#408=ORIENTED_EDGE('',*,*,#303,.F.);
#409=ORIENTED_EDGE('',*,*,#304,.T.);
#410=ORIENTED_EDGE('',*,*,#305,.T.);
#411=ORIENTED_EDGE('',*,*,#302,.T.);
#412=ORIENTED_EDGE('',*,*,#306,.T.);
#413=ORIENTED_EDGE('',*,*,#307,.T.);
#414=ORIENTED_EDGE('',*,*,#298,.T.);
#415=ORIENTED_EDGE('',*,*,#308,.F.);
#416=ORIENTED_EDGE('',*,*,#309,.F.);
#417=ORIENTED_EDGE('',*,*,#310,.F.);
#418=ORIENTED_EDGE('',*,*,#311,.F.);
#419=ORIENTED_EDGE('',*,*,#295,.F.);
#420=ORIENTED_EDGE('',*,*,#307,.F.);
#421=ORIENTED_EDGE('',*,*,#312,.T.);
#422=ORIENTED_EDGE('',*,*,#313,.F.);
#423=ORIENTED_EDGE('',*,*,#314,.T.);
#424=ORIENTED_EDGE('',*,*,#301,.T.);
#425=ORIENTED_EDGE('',*,*,#315,.F.);
#426=ORIENTED_EDGE('',*,*,#316,.F.);
#427=ORIENTED_EDGE('',*,*,#317,.F.);
#428=ORIENTED_EDGE('',*,*,#312,.F.);
#429=ORIENTED_EDGE('',*,*,#306,.F.);
#430=ORIENTED_EDGE('',*,*,#314,.F.);
#431=ORIENTED_EDGE('',*,*,#318,.F.);
#432=ORIENTED_EDGE('',*,*,#319,.F.);
#433=ORIENTED_EDGE('',*,*,#320,.F.);
#434=ORIENTED_EDGE('',*,*,#303,.T.);
#435=ORIENTED_EDGE('',*,*,#305,.F.);
#436=ORIENTED_EDGE('',*,*,#321,.F.);
#437=ORIENTED_EDGE('',*,*,#322,.F.);
#438=ORIENTED_EDGE('',*,*,#323,.F.);
#439=ORIENTED_EDGE('',*,*,#324,.F.);
#440=ORIENTED_EDGE('',*,*,#299,.T.);
#441=ORIENTED_EDGE('',*,*,#293,.F.);
#442=ORIENTED_EDGE('',*,*,#296,.F.);
#443=ORIENTED_EDGE('',*,*,#311,.T.);
#444=ORIENTED_EDGE('',*,*,#325,.F.);
#445=ORIENTED_EDGE('',*,*,#321,.T.);
#446=ORIENTED_EDGE('',*,*,#316,.T.);
#447=ORIENTED_EDGE('',*,*,#326,.T.);
#448=ORIENTED_EDGE('',*,*,#319,.T.);
#449=ORIENTED_EDGE('',*,*,#327,.T.);
#450=ORIENTED_EDGE('',*,*,#327,.F.);
#451=ORIENTED_EDGE('',*,*,#318,.T.);
#452=ORIENTED_EDGE('',*,*,#313,.T.);
#453=ORIENTED_EDGE('',*,*,#317,.T.);
#454=ORIENTED_EDGE('',*,*,#309,.T.);
#455=ORIENTED_EDGE('',*,*,#328,.T.);
#456=ORIENTED_EDGE('',*,*,#323,.T.);
#457=ORIENTED_EDGE('',*,*,#329,.T.);
#458=ORIENTED_EDGE('',*,*,#329,.F.);
#459=ORIENTED_EDGE('',*,*,#322,.T.);
#460=ORIENTED_EDGE('',*,*,#325,.T.);
#461=ORIENTED_EDGE('',*,*,#310,.T.);
#462=ORIENTED_EDGE('',*,*,#324,.T.);
#463=ORIENTED_EDGE('',*,*,#328,.F.);
#464=ORIENTED_EDGE('',*,*,#308,.T.);
#465=ORIENTED_EDGE('',*,*,#300,.F.);
#466=ORIENTED_EDGE('',*,*,#315,.T.);
#467=ORIENTED_EDGE('',*,*,#304,.F.);
#468=ORIENTED_EDGE('',*,*,#320,.T.);
#469=ORIENTED_EDGE('',*,*,#326,.F.);
#470=ORIENTED_EDGE('',*,*,#267,.F.);
#471=ORIENTED_EDGE('',*,*,#272,.F.);
#472=ORIENTED_EDGE('',*,*,#297,.F.);
#473=ORIENTED_EDGE('',*,*,#287,.F.);
#474=CYLINDRICAL_SURFACE('',#525,0.5);
#475=CYLINDRICAL_SURFACE('',#529,0.5);
#476=CYLINDRICAL_SURFACE('',#533,3.);
#477=CYLINDRICAL_SURFACE('',#538,0.3);
#478=CYLINDRICAL_SURFACE('',#541,3.);
#479=CYLINDRICAL_SURFACE('',#545,0.3);
#480=CYLINDRICAL_SURFACE('',#567,1.9);
#481=CYLINDRICAL_SURFACE('',#568,1.9);
#482=ADVANCED_FACE('',(#69),#474,.T.);
#483=ADVANCED_FACE('',(#70),#67,.T.);
#484=ADVANCED_FACE('',(#71),#475,.T.);
#485=ADVANCED_FACE('',(#72),#68,.T.);
#486=ADVANCED_FACE('',(#73,#46),#476,.T.);
#487=ADVANCED_FACE('',(#74),#34,.F.);
#488=ADVANCED_FACE('',(#75,#47),#35,.T.);
#489=ADVANCED_FACE('',(#76),#32,.T.);
#490=ADVANCED_FACE('',(#77),#477,.F.);
#491=ADVANCED_FACE('',(#78,#48),#478,.T.);
#492=ADVANCED_FACE('',(#79),#33,.T.);
#493=ADVANCED_FACE('',(#80),#15,.F.);
#494=ADVANCED_FACE('',(#81),#479,.F.);
#495=ADVANCED_FACE('',(#82),#36,.T.);
#496=ADVANCED_FACE('',(#83,#49,#50),#37,.F.);
#497=ADVANCED_FACE('',(#84),#38,.T.);
#498=ADVANCED_FACE('',(#85),#39,.F.);
#499=ADVANCED_FACE('',(#86),#40,.F.);
#500=ADVANCED_FACE('',(#87),#41,.F.);
#501=ADVANCED_FACE('',(#88),#42,.F.);
#502=ADVANCED_FACE('',(#89),#43,.F.);
#503=ADVANCED_FACE('',(#90),#44,.F.);
#504=ADVANCED_FACE('',(#91),#16,.T.);
#505=ADVANCED_FACE('',(#92),#17,.T.);
#506=ADVANCED_FACE('',(#93),#18,.T.);
#507=ADVANCED_FACE('',(#94),#19,.T.);
#508=ADVANCED_FACE('',(#95),#480,.T.);
#509=ADVANCED_FACE('',(#96),#481,.T.);
#510=ADVANCED_FACE('',(#97),#45,.F.);
#511=CLOSED_SHELL('',(#482,#483,#484,#485,#486,#487,#488,#489,#490,#491,
#492,#493,#494,#495,#496,#497,#498,#499,#500,#501,#502,#503,#504,#505,#506,
#507,#508,#509,#510));
#512=DERIVED_UNIT_ELEMENT(#514,1.);
#513=DERIVED_UNIT_ELEMENT(#1203,-3.);
#514=(
MASS_UNIT()
NAMED_UNIT(*)
SI_UNIT(.KILO.,.GRAM.)
);
#515=DERIVED_UNIT((#512,#513));
#516=MEASURE_REPRESENTATION_ITEM('density measure',
POSITIVE_RATIO_MEASURE(7850.),#515);
#517=PROPERTY_DEFINITION_REPRESENTATION(#522,#519);
#518=PROPERTY_DEFINITION_REPRESENTATION(#523,#520);
#519=REPRESENTATION('material name',(#521),#1200);
#520=REPRESENTATION('density',(#516),#1200);
#521=DESCRIPTIVE_REPRESENTATION_ITEM('Steel','Steel');
#522=PROPERTY_DEFINITION('material property','material name',#1210);
#523=PROPERTY_DEFINITION('material property','density of part',#1210);
#524=AXIS2_PLACEMENT_3D('',#698,#570,#571);
#525=AXIS2_PLACEMENT_3D('',#699,#572,#573);
#526=AXIS2_PLACEMENT_3D('',#734,#576,#577);
#527=AXIS2_PLACEMENT_3D('',#736,#578,#579);
#528=AXIS2_PLACEMENT_3D('',#752,#580,#581);
#529=AXIS2_PLACEMENT_3D('',#753,#582,#583);
#530=AXIS2_PLACEMENT_3D('',#772,#586,#587);
#531=AXIS2_PLACEMENT_3D('',#773,#588,#589);
#532=AXIS2_PLACEMENT_3D('',#774,#590,#591);
#533=AXIS2_PLACEMENT_3D('',#775,#592,#593);
#534=AXIS2_PLACEMENT_3D('',#779,#595,#596);
#535=AXIS2_PLACEMENT_3D('',#805,#598,#599);
#536=AXIS2_PLACEMENT_3D('',#809,#602,#603);
#537=AXIS2_PLACEMENT_3D('',#811,#604,#605);
#538=AXIS2_PLACEMENT_3D('',#956,#607,#608);
#539=AXIS2_PLACEMENT_3D('',#988,#611,#612);
#540=AXIS2_PLACEMENT_3D('',#989,#613,#614);
#541=AXIS2_PLACEMENT_3D('',#990,#615,#616);
#542=AXIS2_PLACEMENT_3D('',#993,#618,#619);
#543=AXIS2_PLACEMENT_3D('',#1087,#621,#622);
#544=AXIS2_PLACEMENT_3D('',#1090,#624,#625);
#545=AXIS2_PLACEMENT_3D('',#1091,#626,#627);
#546=AXIS2_PLACEMENT_3D('',#1093,#629,#630);
#547=AXIS2_PLACEMENT_3D('',#1102,#635,#636);
#548=AXIS2_PLACEMENT_3D('',#1108,#640,#641);
#549=AXIS2_PLACEMENT_3D('',#1116,#645,#646);
#550=AXIS2_PLACEMENT_3D('',#1117,#647,#648);
#551=AXIS2_PLACEMENT_3D('',#1123,#652,#653);
#552=AXIS2_PLACEMENT_3D('',#1136,#656,#657);
#553=AXIS2_PLACEMENT_3D('',#1140,#659,#660);
#554=AXIS2_PLACEMENT_3D('',#1142,#662,#663);
#555=AXIS2_PLACEMENT_3D('',#1153,#665,#666);
#556=AXIS2_PLACEMENT_3D('',#1168,#668,#669);
#557=AXIS2_PLACEMENT_3D('',#1185,#672,#673);
#558=AXIS2_PLACEMENT_3D('',#1186,#674,#675);
#559=AXIS2_PLACEMENT_3D('',#1187,#676,#677);
#560=AXIS2_PLACEMENT_3D('',#1188,#678,#679);
#561=AXIS2_PLACEMENT_3D('',#1189,#680,#681);
#562=AXIS2_PLACEMENT_3D('',#1190,#682,#683);
#563=AXIS2_PLACEMENT_3D('',#1191,#684,#685);
#564=AXIS2_PLACEMENT_3D('',#1192,#686,#687);
#565=AXIS2_PLACEMENT_3D('',#1193,#688,#689);
#566=AXIS2_PLACEMENT_3D('',#1194,#690,#691);
#567=AXIS2_PLACEMENT_3D('',#1195,#692,#693);
#568=AXIS2_PLACEMENT_3D('',#1196,#694,#695);
#569=AXIS2_PLACEMENT_3D('',#1197,#696,#697);
#570=DIRECTION('axis',(0.,0.,1.));
#571=DIRECTION('refdir',(1.,0.,0.));
#572=DIRECTION('center_axis',(0.,-1.,0.));
#573=DIRECTION('ref_axis',(-0.707106781186548,0.,0.707106781186547));
#574=DIRECTION('',(0.,1.,0.));
#575=DIRECTION('',(0.,-1.,0.));
#576=DIRECTION('center_axis',(0.,0.,1.));
#577=DIRECTION('ref_axis',(1.,0.,0.));
#578=DIRECTION('center_axis',(0.,0.,-1.));
#579=DIRECTION('ref_axis',(6.12323399573677E-17,1.,0.));
#580=DIRECTION('center_axis',(0.,0.,1.));
#581=DIRECTION('ref_axis',(6.12323399573677E-17,1.,0.));
#582=DIRECTION('center_axis',(0.,1.,0.));
#583=DIRECTION('ref_axis',(0.707106781186547,0.,0.707106781186548));
#584=DIRECTION('',(0.,-1.,0.));
#585=DIRECTION('',(0.,1.,0.));
#586=DIRECTION('center_axis',(0.,0.,1.));
#587=DIRECTION('ref_axis',(1.,0.,0.));
#588=DIRECTION('center_axis',(0.,0.,1.));
#589=DIRECTION('ref_axis',(6.12323399573677E-17,-1.,0.));
#590=DIRECTION('center_axis',(0.,0.,-1.));
#591=DIRECTION('ref_axis',(6.12323399573677E-17,-1.,0.));
#592=DIRECTION('center_axis',(0.,0.,1.));
#593=DIRECTION('ref_axis',(1.,0.,0.));
#594=DIRECTION('',(0.,0.,-1.));
#595=DIRECTION('center_axis',(0.,0.,1.));
#596=DIRECTION('ref_axis',(1.,0.,0.));
#597=DIRECTION('',(0.,0.,1.));
#598=DIRECTION('center_axis',(1.,0.,0.));
#599=DIRECTION('ref_axis',(0.,0.,1.));
#600=DIRECTION('',(0.,0.,1.));
#601=DIRECTION('',(0.,1.,0.));
#602=DIRECTION('center_axis',(0.,0.,1.));
#603=DIRECTION('ref_axis',(1.,0.,0.));
#604=DIRECTION('center_axis',(0.,0.,1.));
#605=DIRECTION('ref_axis',(-1.,0.,0.));
#606=DIRECTION('',(-0.0499142756082581,-0.998753505671196,0.));
#607=DIRECTION('center_axis',(0.,-1.,0.));
#608=DIRECTION('ref_axis',(1.,0.,0.));
#609=DIRECTION('',(0.,-1.,0.));
#610=DIRECTION('',(0.,-1.,0.));
#611=DIRECTION('center_axis',(0.,0.707106781186548,0.707106781186548));
#612=DIRECTION('ref_axis',(0.,0.707106781186547,-0.707106781186547));
#613=DIRECTION('center_axis',(0.,-0.707106781186548,0.707106781186548));
#614=DIRECTION('ref_axis',(0.,0.707106781186547,0.707106781186547));
#615=DIRECTION('center_axis',(0.,0.,1.));
#616=DIRECTION('ref_axis',(1.,0.,0.));
#617=DIRECTION('',(0.,0.,-1.));
#618=DIRECTION('center_axis',(0.,0.,1.));
#619=DIRECTION('ref_axis',(1.,0.,0.));
#620=DIRECTION('',(-0.0499142756082581,0.998753505671196,0.));
#621=DIRECTION('center_axis',(0.,0.,1.));
#622=DIRECTION('ref_axis',(-1.,0.,0.));
#623=DIRECTION('',(-0.413802944301184,-5.06762451216195E-17,-0.910366477462605));
#624=DIRECTION('center_axis',(0.,0.,-1.));
#625=DIRECTION('ref_axis',(-1.,0.,0.));
#626=DIRECTION('center_axis',(0.,0.,-1.));
#627=DIRECTION('ref_axis',(-1.,0.,0.));
#628=DIRECTION('',(0.,0.,-1.));
#629=DIRECTION('center_axis',(0.703597544730292,0.703597544730292,-0.0995037190209989));
#630=DIRECTION('ref_axis',(-0.140028008402801,0.,-0.990147542976674));
#631=DIRECTION('',(0.140028008402801,-1.61939915647078E-18,0.990147542976674));
#632=DIRECTION('',(0.707106781186548,-0.707106781186547,0.));
#633=DIRECTION('',(-2.83394852382386E-17,-0.140028008402801,-0.990147542976674));
#634=DIRECTION('',(-0.707106781186548,0.707106781186547,0.));
#635=DIRECTION('center_axis',(0.,0.,1.));
#636=DIRECTION('ref_axis',(1.,0.,0.));
#637=DIRECTION('',(0.,-1.,0.));
#638=DIRECTION('',(-2.02384405530627E-16,-1.,0.));
#639=DIRECTION('',(1.,-1.15648231731787E-17,0.));
#640=DIRECTION('center_axis',(0.,0.,1.));
#641=DIRECTION('ref_axis',(1.,0.,0.));
#642=DIRECTION('',(5.78241158658936E-18,1.,0.));
#643=DIRECTION('',(-0.707106781186548,0.707106781186547,0.));
#644=DIRECTION('',(-1.,0.,0.));
#645=DIRECTION('center_axis',(0.,0.,1.));
#646=DIRECTION('ref_axis',(1.,0.,0.));
#647=DIRECTION('center_axis',(-0.703597544730292,-0.703597544730292,-0.0995037190209989));
#648=DIRECTION('ref_axis',(-0.140028008402801,0.,0.990147542976674));
#649=DIRECTION('',(-0.140028008402801,0.,0.990147542976674));
#650=DIRECTION('',(8.09699578235388E-19,0.140028008402801,-0.990147542976674));
#651=DIRECTION('',(0.707106781186548,-0.707106781186547,0.));
#652=DIRECTION('center_axis',(-1.,2.02384405530627E-16,0.));
#653=DIRECTION('ref_axis',(2.02384405530627E-16,1.,0.));
#654=DIRECTION('',(0.,0.,1.));
#655=DIRECTION('',(-2.02384405530627E-16,-1.,0.));
#656=DIRECTION('center_axis',(0.,0.,1.));
#657=DIRECTION('ref_axis',(1.,0.,0.));
#658=DIRECTION('',(5.78241158658936E-18,1.,0.));
#659=DIRECTION('center_axis',(0.,0.,1.));
#660=DIRECTION('ref_axis',(1.,0.,0.));
#661=DIRECTION('',(-1.,0.,0.));
#662=DIRECTION('center_axis',(1.,-5.78241158658936E-18,0.));
#663=DIRECTION('ref_axis',(-5.78241158658936E-18,-1.,0.));
#664=DIRECTION('',(0.,0.,1.));
#665=DIRECTION('center_axis',(0.,1.,0.));
#666=DIRECTION('ref_axis',(1.,0.,0.));
#667=DIRECTION('',(0.,0.,-1.));
#668=DIRECTION('center_axis',(-1.15648231731787E-17,-1.,0.));
#669=DIRECTION('ref_axis',(-1.,1.15648231731787E-17,0.));
#670=DIRECTION('',(1.,-1.15648231731787E-17,0.));
#671=DIRECTION('',(0.,0.,-1.));
#672=DIRECTION('center_axis',(0.,0.,1.));
#673=DIRECTION('ref_axis',(1.,0.,0.));
#674=DIRECTION('center_axis',(0.,0.,1.));
#675=DIRECTION('ref_axis',(1.,0.,0.));
#676=DIRECTION('center_axis',(0.,6.55696307043481E-16,-1.));
#677=DIRECTION('ref_axis',(1.,-3.5205170847972E-17,0.));
#678=DIRECTION('center_axis',(0.,0.,-1.));
#679=DIRECTION('ref_axis',(1.,0.,0.));
#680=DIRECTION('center_axis',(0.,0.,1.));
#681=DIRECTION('ref_axis',(1.,-6.12323399573676E-17,0.));
#682=DIRECTION('center_axis',(0.,0.,1.));
#683=DIRECTION('ref_axis',(1.,0.,0.));
#684=DIRECTION('center_axis',(0.,6.55696307043481E-16,-1.));
#685=DIRECTION('ref_axis',(-1.,3.5205170847972E-17,0.));
#686=DIRECTION('center_axis',(0.,0.,-1.));
#687=DIRECTION('ref_axis',(1.,0.,0.));
#688=DIRECTION('center_axis',(0.,0.,1.));
#689=DIRECTION('ref_axis',(-1.,6.12323399573676E-17,0.));
#690=DIRECTION('center_axis',(0.,0.,1.));
#691=DIRECTION('ref_axis',(1.,0.,0.));
#692=DIRECTION('center_axis',(0.,0.,-1.));
#693=DIRECTION('ref_axis',(1.,0.,0.));
#694=DIRECTION('center_axis',(0.,0.,-1.));
#695=DIRECTION('ref_axis',(1.,0.,0.));
#696=DIRECTION('center_axis',(-1.,0.,0.));
#697=DIRECTION('ref_axis',(0.,0.,-1.));
#698=CARTESIAN_POINT('',(0.,0.,0.));
#699=CARTESIAN_POINT('Origin',(-1.99999994412065,0.,2.5));
#700=CARTESIAN_POINT('',(-1.99999994412065,-1.5000000745058,3.));
#701=CARTESIAN_POINT('',(-1.99999994412065,1.5000000745058,3.));
#702=CARTESIAN_POINT('',(-1.99999994412065,0.,3.));
#703=CARTESIAN_POINT('',(-2.49999994412065,1.65831247941899,2.5));
#704=CARTESIAN_POINT('Ctrl Pts',(-1.99999994412065,1.5000000745058,3.));
#705=CARTESIAN_POINT('Ctrl Pts',(-2.0010850004065,1.50036175995688,3.));
#706=CARTESIAN_POINT('Ctrl Pts',(-2.0021700941522,1.50072332707684,2.99999646795861));
#707=CARTESIAN_POINT('Ctrl Pts',(-2.03882020457493,1.51293120342176,2.99975785133108));
#708=CARTESIAN_POINT('Ctrl Pts',(-2.07433918816295,1.52462069889832,2.9957317993));
#709=CARTESIAN_POINT('Ctrl Pts',(-2.14386590784924,1.54725354375622,2.98017113098905));
#710=CARTESIAN_POINT('Ctrl Pts',(-2.17773988392788,1.55815512495591,2.96871110862182));
#711=CARTESIAN_POINT('Ctrl Pts',(-2.26845584472924,1.58707301791849,2.9266742350335));
#712=CARTESIAN_POINT('Ctrl Pts',(-2.32147799563756,1.60364199569682,2.88848405774322));
#713=CARTESIAN_POINT('Ctrl Pts',(-2.40857799701486,1.6305678953295,2.79490898001013));
#714=CARTESIAN_POINT('Ctrl Pts',(-2.44253860691938,1.6409107572141,2.74121744420192));
#715=CARTESIAN_POINT('Ctrl Pts',(-2.48828326781785,1.65479024505874,2.62425782246946));
#716=CARTESIAN_POINT('Ctrl Pts',(-2.49999994412065,1.65831247941899,2.5624966993168));
#717=CARTESIAN_POINT('Ctrl Pts',(-2.49999994412065,1.65831247941899,2.5));
#718=CARTESIAN_POINT('',(-2.49999994412065,-1.65831247941899,2.5));
#719=CARTESIAN_POINT('',(-2.49999994412065,0.,2.5));
#720=CARTESIAN_POINT('Ctrl Pts',(-1.99999994412065,-1.5000000745058,3.));
#721=CARTESIAN_POINT('Ctrl Pts',(-2.0010850004065,-1.50036175995688,3.));
#722=CARTESIAN_POINT('Ctrl Pts',(-2.0021700941522,-1.50072332707684,2.99999646795861));
#723=CARTESIAN_POINT('Ctrl Pts',(-2.03882020457493,-1.51293120342176,2.99975785133108));
#724=CARTESIAN_POINT('Ctrl Pts',(-2.07433918816295,-1.52462069889832,2.9957317993));
#725=CARTESIAN_POINT('Ctrl Pts',(-2.14386590784924,-1.54725354375622,2.98017113098905));
#726=CARTESIAN_POINT('Ctrl Pts',(-2.17773988392788,-1.55815512495591,2.96871110862182));
#727=CARTESIAN_POINT('Ctrl Pts',(-2.26845584472924,-1.58707301791849,2.9266742350335));
#728=CARTESIAN_POINT('Ctrl Pts',(-2.32147799563756,-1.60364199569682,2.88848405774322));
#729=CARTESIAN_POINT('Ctrl Pts',(-2.40857799701486,-1.6305678953295,2.79490898001013));
#730=CARTESIAN_POINT('Ctrl Pts',(-2.44253860691938,-1.6409107572141,2.74121744420192));
#731=CARTESIAN_POINT('Ctrl Pts',(-2.48828326781785,-1.65479024505874,2.62425782246946));
#732=CARTESIAN_POINT('Ctrl Pts',(-2.49999994412065,-1.65831247941899,2.5624966993168));
#733=CARTESIAN_POINT('Ctrl Pts',(-2.49999994412065,-1.65831247941899,2.5));
#734=CARTESIAN_POINT('Origin',(0.,0.,2.5));
#735=CARTESIAN_POINT('',(1.99999994412065,1.5000000745058,3.));
#736=CARTESIAN_POINT('Origin',(0.,0.,3.));
#737=CARTESIAN_POINT('',(2.49999994412065,1.65831247941899,2.5));
#738=CARTESIAN_POINT('Ctrl Pts',(1.99999994412065,1.5000000745058,3.));
#739=CARTESIAN_POINT('Ctrl Pts',(2.00108500040722,1.50036175995712,3.));
#740=CARTESIAN_POINT('Ctrl Pts',(2.00217009415147,1.50072332707679,2.99999646795861));
#741=CARTESIAN_POINT('Ctrl Pts',(2.03882020458431,1.51293120342348,2.99975785133102));
#742=CARTESIAN_POINT('Ctrl Pts',(2.0743391881646,1.52462069889886,2.99573179929963));
#743=CARTESIAN_POINT('Ctrl Pts',(2.14386590784927,1.54725354375623,2.98017113098904));
#744=CARTESIAN_POINT('Ctrl Pts',(2.17773988392789,1.55815512495591,2.96871110862182));
#745=CARTESIAN_POINT('Ctrl Pts',(2.26845584472924,1.58707301791849,2.9266742350335));
#746=CARTESIAN_POINT('Ctrl Pts',(2.32147799563756,1.60364199569682,2.88848405774322));
#747=CARTESIAN_POINT('Ctrl Pts',(2.40857799701486,1.6305678953295,2.79490898001014));
#748=CARTESIAN_POINT('Ctrl Pts',(2.44253860691938,1.6409107572141,2.74121744420192));
#749=CARTESIAN_POINT('Ctrl Pts',(2.48828326781785,1.65479024505873,2.62425782246946));
#750=CARTESIAN_POINT('Ctrl Pts',(2.49999994412065,1.65831247941899,2.5624966993168));
#751=CARTESIAN_POINT('Ctrl Pts',(2.49999994412065,1.65831247941899,2.5));
#752=CARTESIAN_POINT('Origin',(0.,0.,2.5));
#753=CARTESIAN_POINT('Origin',(1.99999994412065,0.,2.5));
#754=CARTESIAN_POINT('',(1.99999994412065,-1.5000000745058,3.));
#755=CARTESIAN_POINT('',(1.99999994412065,0.,3.));
#756=CARTESIAN_POINT('',(2.49999994412065,-1.65831247941899,2.5));
#757=CARTESIAN_POINT('Ctrl Pts',(1.99999994412065,-1.5000000745058,3.));
#758=CARTESIAN_POINT('Ctrl Pts',(2.00108500040721,-1.50036175995712,3.));
#759=CARTESIAN_POINT('Ctrl Pts',(2.00217009415147,-1.50072332707679,2.99999646795861));
#760=CARTESIAN_POINT('Ctrl Pts',(2.03882020458426,-1.51293120342347,2.99975785133102));
#761=CARTESIAN_POINT('Ctrl Pts',(2.07433918816459,-1.52462069889885,2.99573179929963));
#762=CARTESIAN_POINT('Ctrl Pts',(2.14386590784927,-1.54725354375623,2.98017113098904));
#763=CARTESIAN_POINT('Ctrl Pts',(2.17773988392789,-1.55815512495591,2.96871110862182));
#764=CARTESIAN_POINT('Ctrl Pts',(2.26845584472924,-1.58707301791849,2.9266742350335));
#765=CARTESIAN_POINT('Ctrl Pts',(2.32147799563756,-1.60364199569682,2.88848405774322));
#766=CARTESIAN_POINT('Ctrl Pts',(2.40857799701486,-1.6305678953295,2.79490898001013));
#767=CARTESIAN_POINT('Ctrl Pts',(2.44253860691938,-1.6409107572141,2.74121744420192));
#768=CARTESIAN_POINT('Ctrl Pts',(2.48828326781785,-1.65479024505874,2.62425782246946));
#769=CARTESIAN_POINT('Ctrl Pts',(2.49999994412065,-1.65831247941899,2.5624966993168));
#770=CARTESIAN_POINT('Ctrl Pts',(2.49999994412065,-1.65831247941899,2.5));
#771=CARTESIAN_POINT('',(2.49999994412065,0.,2.5));
#772=CARTESIAN_POINT('Origin',(0.,0.,2.5));
#773=CARTESIAN_POINT('Origin',(0.,0.,2.5));
#774=CARTESIAN_POINT('Origin',(0.,0.,3.));
#775=CARTESIAN_POINT('Origin',(0.,0.,0.));
#776=CARTESIAN_POINT('',(-2.49999994412065,-1.65831247941899,0.));
#777=CARTESIAN_POINT('',(-2.49999994412065,-1.65831247941899,0.));
#778=CARTESIAN_POINT('',(2.49999994412065,-1.65831247941899,0.));
#779=CARTESIAN_POINT('Origin',(0.,0.,0.));
#780=CARTESIAN_POINT('',(2.49999994412065,-1.65831247941899,0.));
#781=CARTESIAN_POINT('',(0.349705977749929,-2.97954790683519,1.50000002235174));
#782=CARTESIAN_POINT('Ctrl Pts',(0.349705977749929,-2.97954790683519,1.50000002235174));
#783=CARTESIAN_POINT('Ctrl Pts',(0.349705977749929,-2.97954790683519,1.55029690138287));
#784=CARTESIAN_POINT('Ctrl Pts',(0.32551153348427,-2.98238040480211,1.65827938261599));
#785=CARTESIAN_POINT('Ctrl Pts',(0.192619757716126,-2.99595835290644,1.82418417204446));
#786=CARTESIAN_POINT('Ctrl Pts',(0.0173456546082189,-3.00209224829202,1.86672014683681));
#787=CARTESIAN_POINT('Ctrl Pts',(-0.0968410030161494,-2.99855576632541,
1.8365531988384));
#788=CARTESIAN_POINT('Ctrl Pts',(-0.122335404189491,-2.99767162299569,1.8285105197343));
#789=CARTESIAN_POINT('Ctrl Pts',(-0.165404051124054,-2.99572847735924,1.8107529569262));
#790=CARTESIAN_POINT('Ctrl Pts',(-0.221866512851103,-2.99210642066339,1.77435738288465));
#791=CARTESIAN_POINT('Ctrl Pts',(-0.274891154075909,-2.98763729804755,1.72156272174245));
#792=CARTESIAN_POINT('Ctrl Pts',(-0.332820557045606,-2.98177605443022,1.62985045430515));
#793=CARTESIAN_POINT('Ctrl Pts',(-0.361703662519468,-2.97817155199403,1.49995178911479));
#794=CARTESIAN_POINT('Ctrl Pts',(-0.33253659246005,-2.98180027641308,1.36996255926886));
#795=CARTESIAN_POINT('Ctrl Pts',(-0.274749810022436,-2.98763336601162,1.27848392955967));
#796=CARTESIAN_POINT('Ctrl Pts',(-0.221487956099418,-2.99210432027872,1.22555231857556));
#797=CARTESIAN_POINT('Ctrl Pts',(-0.154061703109275,-2.99644268969294,1.18210329602935));
#798=CARTESIAN_POINT('Ctrl Pts',(-0.051629570953362,-3.00040228324891,1.14719690035318));
#799=CARTESIAN_POINT('Ctrl Pts',(0.0500899748131827,-3.00045243066824,1.14637350026309));
#800=CARTESIAN_POINT('Ctrl Pts',(0.153042316496903,-2.99643736914575,1.181862679974));
#801=CARTESIAN_POINT('Ctrl Pts',(0.241527888161649,-2.99078703978566,1.23836004256086));
#802=CARTESIAN_POINT('Ctrl Pts',(0.32512474522844,-2.98260441631542,1.34107778065932));
#803=CARTESIAN_POINT('Ctrl Pts',(0.349705977749929,-2.97954790683519,1.44970314332062));
#804=CARTESIAN_POINT('Ctrl Pts',(0.349705977749929,-2.97954790683519,1.50000002235174));
#805=CARTESIAN_POINT('Origin',(-2.49999994412065,0.,0.));
#806=CARTESIAN_POINT('',(-2.49999994412065,1.65831247941899,0.));
#807=CARTESIAN_POINT('',(-2.49999994412065,1.65831247941899,0.));
#808=CARTESIAN_POINT('',(-2.49999994412065,0.,0.));
#809=CARTESIAN_POINT('Origin',(0.,0.,3.));
#810=CARTESIAN_POINT('',(0.8,9.79717439317883E-17,3.));
#811=CARTESIAN_POINT('Origin',(0.,0.,3.));
#812=CARTESIAN_POINT('Ctrl Pts',(0.349705977749929,2.97954790683519,1.50000002235174));
#813=CARTESIAN_POINT('Ctrl Pts',(0.349705977749929,2.97954790683519,1.55029690138287));
#814=CARTESIAN_POINT('Ctrl Pts',(0.32512474522844,2.98260441631542,1.65892226404416));
#815=CARTESIAN_POINT('Ctrl Pts',(0.241527888161649,2.99078703978566,1.76164000214262));
#816=CARTESIAN_POINT('Ctrl Pts',(0.153042316496902,2.99643736914575,1.81813736472948));
#817=CARTESIAN_POINT('Ctrl Pts',(0.050089974813183,3.00045243066824,1.85362654444039));
#818=CARTESIAN_POINT('Ctrl Pts',(-0.0516295709533614,3.00040228324891,1.8528031443503));
#819=CARTESIAN_POINT('Ctrl Pts',(-0.154061703109275,2.99644268969294,1.81789674867413));
#820=CARTESIAN_POINT('Ctrl Pts',(-0.221487956099418,2.99210432027872,1.77444772612792));
#821=CARTESIAN_POINT('Ctrl Pts',(-0.274749810022436,2.98763336601162,1.72151611514381));
#822=CARTESIAN_POINT('Ctrl Pts',(-0.33253659246005,2.98180027641308,1.63003748543462));
#823=CARTESIAN_POINT('Ctrl Pts',(-0.361703662519468,2.97817155199402,1.50004825558869));
#824=CARTESIAN_POINT('Ctrl Pts',(-0.332820557045606,2.98177605443022,1.37014959039833));
#825=CARTESIAN_POINT('Ctrl Pts',(-0.274891154075909,2.98763729804754,1.27843732296103));
#826=CARTESIAN_POINT('Ctrl Pts',(-0.221866512851102,2.99210642066338,1.22564266181883));
#827=CARTESIAN_POINT('Ctrl Pts',(-0.165404051124053,2.99572847735923,1.18924708777728));
#828=CARTESIAN_POINT('Ctrl Pts',(-0.122335404189491,2.99767162299568,1.17148952496917));
#829=CARTESIAN_POINT('Ctrl Pts',(-0.0968410030161491,2.9985557663254,1.16344684586508));
#830=CARTESIAN_POINT('Ctrl Pts',(0.0173456546082186,3.00209224829201,1.13327989786667));
#831=CARTESIAN_POINT('Ctrl Pts',(0.192619757716126,2.99595835290643,1.17581587265902));
#832=CARTESIAN_POINT('Ctrl Pts',(0.325511533484269,2.98238040480211,1.34172066208749));
#833=CARTESIAN_POINT('Ctrl Pts',(0.349705977749929,2.97954790683519,1.44970314332062));
#834=CARTESIAN_POINT('Ctrl Pts',(0.349705977749929,2.97954790683519,1.50000002235174));
#835=CARTESIAN_POINT('Ctrl Pts',(0.333137318499952,2.64801937499675,1.50000002235174));
#836=CARTESIAN_POINT('Ctrl Pts',(0.333137318499952,2.64801937499675,1.55270242123105));
#837=CARTESIAN_POINT('Ctrl Pts',(0.30313785590517,2.65110800231119,1.66586456155759));
#838=CARTESIAN_POINT('Ctrl Pts',(0.215022488994908,2.65877426334999,1.76009363233093));
#839=CARTESIAN_POINT('Ctrl Pts',(0.132810666238255,2.66369268775269,1.80777068270476));
#840=CARTESIAN_POINT('Ctrl Pts',(0.0419894374659923,2.66707463833581,1.83637257952644));
#841=CARTESIAN_POINT('Ctrl Pts',(-0.0438101200597339,2.66701449044105,1.83561400883509));
#842=CARTESIAN_POINT('Ctrl Pts',(-0.134046597187711,2.66369172680838,1.80757604402477));
#843=CARTESIAN_POINT('Ctrl Pts',(-0.19693567136329,2.6598957126896,1.77083118535403));
#844=CARTESIAN_POINT('Ctrl Pts',(-0.250093467306266,2.65582270674262,1.72339918892454));
#845=CARTESIAN_POINT('Ctrl Pts',(-0.312292578108074,2.6502789639807,1.63604516848542));
#846=CARTESIAN_POINT('Ctrl Pts',(-0.347798343816125,2.6466204551063,1.50015390026586));
#847=CARTESIAN_POINT('Ctrl Pts',(-0.312669953770367,2.6502469443779,1.36424763004655));
#848=CARTESIAN_POINT('Ctrl Pts',(-0.250285637241116,2.65581552497777,1.27672934359439));
#849=CARTESIAN_POINT('Ctrl Pts',(-0.197363033083526,2.65988488859994,1.22941807754248));
#850=CARTESIAN_POINT('Ctrl Pts',(-0.144668130094519,2.66305428286324,1.19862271946845));
#851=CARTESIAN_POINT('Ctrl Pts',(-0.106248116941385,2.66470637247365,1.18412447212792));
#852=CARTESIAN_POINT('Ctrl Pts',(-0.0838024280737733,2.66545540765308,1.17757343275363));
#853=CARTESIAN_POINT('Ctrl Pts',(0.0155070512604098,2.66839587191913,1.15373652556834));
#854=CARTESIAN_POINT('Ctrl Pts',(0.162758514548847,2.66354270500499,1.18353329926694));
#855=CARTESIAN_POINT('Ctrl Pts',(0.303821476427153,2.65094314197088,1.33406644012136));
#856=CARTESIAN_POINT('Ctrl Pts',(0.333137318499952,2.64801937499675,1.44729762347244));
#857=CARTESIAN_POINT('Ctrl Pts',(0.333137318499952,2.64801937499675,1.50000002235174));
#858=CARTESIAN_POINT('Ctrl Pts',(0.316568659249976,2.3164908431583,1.50000002235174));
#859=CARTESIAN_POINT('Ctrl Pts',(0.316568659249976,2.3164908431583,1.55510794107922));
#860=CARTESIAN_POINT('Ctrl Pts',(0.2811509665819,2.31961158830695,1.67280685907102));
#861=CARTESIAN_POINT('Ctrl Pts',(0.188517089828168,2.32676148691433,1.75854726251924));
#862=CARTESIAN_POINT('Ctrl Pts',(0.112579015979608,2.33094800635962,1.79740400068004));
#863=CARTESIAN_POINT('Ctrl Pts',(0.0338889001188016,2.33369684600338,1.81911861461249));
#864=CARTESIAN_POINT('Ctrl Pts',(-0.0359906691661065,2.3336266976332,1.81842487331989));
#865=CARTESIAN_POINT('Ctrl Pts',(-0.114031491266146,2.33094076392381,1.79725533937542));
#866=CARTESIAN_POINT('Ctrl Pts',(-0.172383386627163,2.32768710510047,1.76721464458014));
#867=CARTESIAN_POINT('Ctrl Pts',(-0.225437124590098,2.32401204747363,1.72528226270528));
#868=CARTESIAN_POINT('Ctrl Pts',(-0.292048563756098,2.31875765154833,1.64205285153623));
#869=CARTESIAN_POINT('Ctrl Pts',(-0.333893025112782,2.31506935821857,1.50025954494303));
#870=CARTESIAN_POINT('Ctrl Pts',(-0.292519350495129,2.31871783432559,1.35834566969478));
#871=CARTESIAN_POINT('Ctrl Pts',(-0.225680120406322,2.323993751908,1.27502136422776));
#872=CARTESIAN_POINT('Ctrl Pts',(-0.17285955331595,2.3276633565365,1.23319349326612));
#873=CARTESIAN_POINT('Ctrl Pts',(-0.123932209064984,2.33038008836725,1.20799835115963));
#874=CARTESIAN_POINT('Ctrl Pts',(-0.0901608296932788,2.33174112195162,1.19675941928667));
#875=CARTESIAN_POINT('Ctrl Pts',(-0.0707638531313975,2.33235504898076,1.19170001964219));
#876=CARTESIAN_POINT('Ctrl Pts',(0.0136684479126011,2.33469949554626,1.17419315327));
#877=CARTESIAN_POINT('Ctrl Pts',(0.132897271381568,2.33112705710354,1.19125072587486));
#878=CARTESIAN_POINT('Ctrl Pts',(0.282131419370038,2.31950587913966,1.32641221815524));
#879=CARTESIAN_POINT('Ctrl Pts',(0.316568659249976,2.3164908431583,1.44489210362426));
#880=CARTESIAN_POINT('Ctrl Pts',(0.316568659249976,2.3164908431583,1.50000002235174));
#881=CARTESIAN_POINT('Ctrl Pts',(0.3,1.98496231131986,1.50000002235174));
#882=CARTESIAN_POINT('Ctrl Pts',(0.3,1.98496231131986,1.5575134609274));
#883=CARTESIAN_POINT('Ctrl Pts',(0.259164077258629,1.98811517430272,1.67974915658444));
#884=CARTESIAN_POINT('Ctrl Pts',(0.162011690661427,1.99474871047866,1.75700089270755));
#885=CARTESIAN_POINT('Ctrl Pts',(0.0923473657209599,1.99820332496655,1.78703731865532));
#886=CARTESIAN_POINT('Ctrl Pts',(0.0257883627716108,2.00031905367095,1.80186464969854));
#887=CARTESIAN_POINT('Ctrl Pts',(-0.0281712182724793,2.00023890482534,1.80123573780468));
#888=CARTESIAN_POINT('Ctrl Pts',(-0.0940163853445822,1.99818980103925,1.78693463472606));
#889=CARTESIAN_POINT('Ctrl Pts',(-0.147831101891035,1.99547849751134,1.76359810380625));
#890=CARTESIAN_POINT('Ctrl Pts',(-0.200780781873929,1.99220138820464,1.72716533648601));
#891=CARTESIAN_POINT('Ctrl Pts',(-0.271804549404123,1.98723633911595,1.64806053458703));
#892=CARTESIAN_POINT('Ctrl Pts',(-0.319987706409439,1.98351826133084,1.5003651896202));
#893=CARTESIAN_POINT('Ctrl Pts',(-0.27236874721989,1.98718872427327,1.352443709343));
#894=CARTESIAN_POINT('Ctrl Pts',(-0.201074603571529,1.99217197883822,1.27331338486113));
#895=CARTESIAN_POINT('Ctrl Pts',(-0.148356073548375,1.99544182447307,1.23696890898976));
#896=CARTESIAN_POINT('Ctrl Pts',(-0.10319628803545,1.99770589387126,1.2173739828508));
#897=CARTESIAN_POINT('Ctrl Pts',(-0.074073542445173,1.99877587142959,1.20939436644542));
#898=CARTESIAN_POINT('Ctrl Pts',(-0.0577252781890219,1.99925469030844,1.20582660653075));
#899=CARTESIAN_POINT('Ctrl Pts',(0.0118298445647921,2.00100311917338,1.19464978097166));
#900=CARTESIAN_POINT('Ctrl Pts',(0.103036028214288,1.99871140920209,1.19896815248278));
#901=CARTESIAN_POINT('Ctrl Pts',(0.260441362312922,1.98806861630844,1.31875799618911));
#902=CARTESIAN_POINT('Ctrl Pts',(0.3,1.98496231131986,1.44248658377608));
#903=CARTESIAN_POINT('Ctrl Pts',(0.3,1.98496231131986,1.50000002235174));
#904=CARTESIAN_POINT('',(0.349705977749929,2.97954790683519,1.50000002235174));
#905=CARTESIAN_POINT('',(0.3,1.98496231131986,1.50000002235174));
#906=CARTESIAN_POINT('',(0.349705977749929,2.97954790683519,1.50000002235174));
#907=CARTESIAN_POINT('',(-0.300297920698312,1.98497443227414,1.50011523901891));
#908=CARTESIAN_POINT('Ctrl Pts',(0.3,1.98496231131986,1.50000002235174));
#909=CARTESIAN_POINT('Ctrl Pts',(0.3,1.98496231131986,1.5575134609274));
#910=CARTESIAN_POINT('Ctrl Pts',(0.259164077258629,1.98811517430272,1.67974915658444));
#911=CARTESIAN_POINT('Ctrl Pts',(0.162011690661427,1.99474871047866,1.75700089270755));
#912=CARTESIAN_POINT('Ctrl Pts',(0.0923473657209599,1.99820332496655,1.78703731865532));
#913=CARTESIAN_POINT('Ctrl Pts',(0.0257883627716108,2.00031905367095,1.80186464969854));
#914=CARTESIAN_POINT('Ctrl Pts',(-0.0281712182724793,2.00023890482534,1.80123573780468));
#915=CARTESIAN_POINT('Ctrl Pts',(-0.0940163853445822,1.99818980103925,1.78693463472606));
#916=CARTESIAN_POINT('Ctrl Pts',(-0.147831101891035,1.99547849751134,1.76359810380625));
#917=CARTESIAN_POINT('Ctrl Pts',(-0.200780781873929,1.99220138820464,1.72716533648601));
#918=CARTESIAN_POINT('Ctrl Pts',(-0.271804549404123,1.98723633911595,1.64806053458703));
#919=CARTESIAN_POINT('Ctrl Pts',(-0.300714443607312,1.98500549244488,1.55944332760693));
#920=CARTESIAN_POINT('Ctrl Pts',(-0.300827283170466,1.98499596947635,1.50031996255813));
#921=CARTESIAN_POINT('Ctrl Pts',(-0.3,1.98496231131986,1.50000002235174));
#922=CARTESIAN_POINT('Ctrl Pts',(-0.3,1.98496231131986,1.46704148986593));
#923=CARTESIAN_POINT('Ctrl Pts',(-0.294579269520769,1.98537323047514,1.4344083588573));
#924=CARTESIAN_POINT('Ctrl Pts',(-0.251947308728136,1.98853929381374,1.30919267451774));
#925=CARTESIAN_POINT('Ctrl Pts',(-0.180448579303185,1.99376690518221,1.25155930959827));
#926=CARTESIAN_POINT('Ctrl Pts',(-0.0665711923097021,1.9993964990477,1.20160960541371));
#927=CARTESIAN_POINT('Ctrl Pts',(-0.0219990463106723,2.00039452776157,1.1973306168677));
#928=CARTESIAN_POINT('Ctrl Pts',(0.0792159909154794,1.99921120477916,1.20531947529151));
#929=CARTESIAN_POINT('Ctrl Pts',(0.148327714755252,1.99558239768254,1.22340192923974));
#930=CARTESIAN_POINT('Ctrl Pts',(0.26144673803215,1.98794535158676,1.33768426063071));
#931=CARTESIAN_POINT('Ctrl Pts',(0.3,1.98496231131986,1.42074647428043));
#932=CARTESIAN_POINT('Ctrl Pts',(0.3,1.98496231131986,1.50000002235174));
#933=CARTESIAN_POINT('Ctrl Pts',(0.349705977749929,2.97954790683519,1.50000002235174));
#934=CARTESIAN_POINT('Ctrl Pts',(0.349705977749929,2.97954790683519,1.44970314332062));
#935=CARTESIAN_POINT('Ctrl Pts',(0.325511533484269,2.98238040480211,1.34172066208749));
#936=CARTESIAN_POINT('Ctrl Pts',(0.192619757716126,2.99595835290643,1.17581587265902));
#937=CARTESIAN_POINT('Ctrl Pts',(0.0173456546082186,3.00209224829201,1.13327989786667));
#938=CARTESIAN_POINT('Ctrl Pts',(-0.0968410030161491,2.9985557663254,1.16344684586508));
#939=CARTESIAN_POINT('Ctrl Pts',(-0.122335404189491,2.99767162299568,1.17148952496917));
#940=CARTESIAN_POINT('Ctrl Pts',(-0.165404051124053,2.99572847735923,1.18924708777728));
#941=CARTESIAN_POINT('Ctrl Pts',(-0.221866512851102,2.99210642066338,1.22564266181883));
#942=CARTESIAN_POINT('Ctrl Pts',(-0.274891154075909,2.98763729804754,1.27843732296103));
#943=CARTESIAN_POINT('Ctrl Pts',(-0.332820557045606,2.98177605443022,1.37014959039833));
#944=CARTESIAN_POINT('Ctrl Pts',(-0.361703662519468,2.97817155199402,1.50004825558869));
#945=CARTESIAN_POINT('Ctrl Pts',(-0.33253659246005,2.98180027641308,1.63003748543462));
#946=CARTESIAN_POINT('Ctrl Pts',(-0.274749810022436,2.98763336601162,1.72151611514381));
#947=CARTESIAN_POINT('Ctrl Pts',(-0.221487956099418,2.99210432027872,1.77444772612792));
#948=CARTESIAN_POINT('Ctrl Pts',(-0.154061703109275,2.99644268969294,1.81789674867413));
#949=CARTESIAN_POINT('Ctrl Pts',(-0.0516295709533614,3.00040228324891,1.8528031443503));
#950=CARTESIAN_POINT('Ctrl Pts',(0.050089974813183,3.00045243066824,1.85362654444039));
#951=CARTESIAN_POINT('Ctrl Pts',(0.153042316496902,2.99643736914575,1.81813736472948));
#952=CARTESIAN_POINT('Ctrl Pts',(0.241527888161649,2.99078703978566,1.76164000214262));
#953=CARTESIAN_POINT('Ctrl Pts',(0.32512474522844,2.98260441631542,1.65892226404416));
#954=CARTESIAN_POINT('Ctrl Pts',(0.349705977749929,2.97954790683519,1.55029690138287));
#955=CARTESIAN_POINT('Ctrl Pts',(0.349705977749929,2.97954790683519,1.50000002235174));
#956=CARTESIAN_POINT('Origin',(0.,0.,1.50000002235174));
#957=CARTESIAN_POINT('',(-0.3,0.,1.5));
#958=CARTESIAN_POINT('',(-0.3,0.,1.50000002235174));
#959=CARTESIAN_POINT('',(-0.300297920698314,-1.98497443227414,1.49988480568457));
#960=CARTESIAN_POINT('',(-0.3,0.,1.50000002235174));
#961=CARTESIAN_POINT('',(0.3,-1.98496231131986,1.50000002235174));
#962=CARTESIAN_POINT('Ctrl Pts',(0.3,-1.98496231131986,1.50000002235174));
#963=CARTESIAN_POINT('Ctrl Pts',(0.3,-1.98496231131986,1.44248658377608));
#964=CARTESIAN_POINT('Ctrl Pts',(0.259164077258629,-1.98811517430272,1.32025088811904));
#965=CARTESIAN_POINT('Ctrl Pts',(0.162011690661427,-1.99474871047866,1.24299915199593));
#966=CARTESIAN_POINT('Ctrl Pts',(0.0923473657209601,-1.99820332496655,1.21296272604816));
#967=CARTESIAN_POINT('Ctrl Pts',(0.0257883627716108,-2.00031905367095,1.19813539500494));
#968=CARTESIAN_POINT('Ctrl Pts',(-0.0281712182724795,-2.00023890482534,
1.1987643068988));
#969=CARTESIAN_POINT('Ctrl Pts',(-0.0940163853445826,-1.99818980103924,
1.21306540997742));
#970=CARTESIAN_POINT('Ctrl Pts',(-0.147831101891035,-1.99547849751134,1.23640194089723));
#971=CARTESIAN_POINT('Ctrl Pts',(-0.200780781873929,-1.99220138820464,1.27283470821746));
#972=CARTESIAN_POINT('Ctrl Pts',(-0.271804549404122,-1.98723633911595,1.35193951011645));
#973=CARTESIAN_POINT('Ctrl Pts',(-0.300714443607312,-1.98500549244489,1.44055671709655));
#974=CARTESIAN_POINT('Ctrl Pts',(-0.300827283170466,-1.98499596947635,1.49968008214535));
#975=CARTESIAN_POINT('Ctrl Pts',(-0.3,-1.98496231131986,1.50000002235174));
#976=CARTESIAN_POINT('Ctrl Pts',(-0.3,-1.98496231131986,1.53295855483757));
#977=CARTESIAN_POINT('Ctrl Pts',(-0.294579269520764,-1.98537323047514,1.56559168584621));
#978=CARTESIAN_POINT('Ctrl Pts',(-0.251947308728108,-1.98853929381374,1.69080737018578));
#979=CARTESIAN_POINT('Ctrl Pts',(-0.180448579303155,-1.99376690518221,1.74844073510523));
#980=CARTESIAN_POINT('Ctrl Pts',(-0.0665711923096703,-1.9993964990477,1.79839043928978));
#981=CARTESIAN_POINT('Ctrl Pts',(-0.0219990463106438,-2.00039452776157,
1.80266942783578));
#982=CARTESIAN_POINT('Ctrl Pts',(0.079215990915546,-1.99921120477916,1.79468056941196));
#983=CARTESIAN_POINT('Ctrl Pts',(0.148327714755371,-1.99558239768253,1.77659811546371));
#984=CARTESIAN_POINT('Ctrl Pts',(0.261446738032232,-1.98794535158675,1.66231578407263));
#985=CARTESIAN_POINT('Ctrl Pts',(0.3,-1.98496231131986,1.57925357042297));
#986=CARTESIAN_POINT('Ctrl Pts',(0.3,-1.98496231131986,1.50000002235174));
#987=CARTESIAN_POINT('',(0.3,3.67394039744206E-17,1.5));
#988=CARTESIAN_POINT('Origin',(0.,0.,1.50000002235174));
#989=CARTESIAN_POINT('Origin',(0.,0.,1.50000002235174));
#990=CARTESIAN_POINT('Origin',(0.,0.,0.));
#991=CARTESIAN_POINT('',(2.49999994412065,1.65831247941899,0.));
#992=CARTESIAN_POINT('',(2.49999994412065,1.65831247941899,0.));
#993=CARTESIAN_POINT('Origin',(0.,0.,0.));
#994=CARTESIAN_POINT('Ctrl Pts',(0.349705977749929,-2.97954790683519,1.50000002235174));
#995=CARTESIAN_POINT('Ctrl Pts',(0.349705977749929,-2.97954790683519,1.44970314332062));
#996=CARTESIAN_POINT('Ctrl Pts',(0.32512474522844,-2.98260441631542,1.34107778065932));
#997=CARTESIAN_POINT('Ctrl Pts',(0.241527888161649,-2.99078703978566,1.23836004256086));
#998=CARTESIAN_POINT('Ctrl Pts',(0.153042316496903,-2.99643736914575,1.181862679974));
#999=CARTESIAN_POINT('Ctrl Pts',(0.0500899748131827,-3.00045243066824,1.14637350026309));
#1000=CARTESIAN_POINT('Ctrl Pts',(-0.051629570953362,-3.00040228324891,
1.14719690035318));
#1001=CARTESIAN_POINT('Ctrl Pts',(-0.154061703109275,-2.99644268969294,
1.18210329602935));
#1002=CARTESIAN_POINT('Ctrl Pts',(-0.221487956099418,-2.99210432027872,
1.22555231857556));
#1003=CARTESIAN_POINT('Ctrl Pts',(-0.274749810022436,-2.98763336601162,
1.27848392955967));
#1004=CARTESIAN_POINT('Ctrl Pts',(-0.33253659246005,-2.98180027641308,1.36996255926886));
#1005=CARTESIAN_POINT('Ctrl Pts',(-0.361703662519468,-2.97817155199403,
1.49995178911479));
#1006=CARTESIAN_POINT('Ctrl Pts',(-0.332820557045606,-2.98177605443022,
1.62985045430515));
#1007=CARTESIAN_POINT('Ctrl Pts',(-0.274891154075909,-2.98763729804755,
1.72156272174245));
#1008=CARTESIAN_POINT('Ctrl Pts',(-0.221866512851103,-2.99210642066339,
1.77435738288465));
#1009=CARTESIAN_POINT('Ctrl Pts',(-0.165404051124054,-2.99572847735924,
1.8107529569262));
#1010=CARTESIAN_POINT('Ctrl Pts',(-0.122335404189491,-2.99767162299569,
1.8285105197343));
#1011=CARTESIAN_POINT('Ctrl Pts',(-0.0968410030161494,-2.99855576632541,
1.8365531988384));
#1012=CARTESIAN_POINT('Ctrl Pts',(0.0173456546082189,-3.00209224829202,
1.86672014683681));
#1013=CARTESIAN_POINT('Ctrl Pts',(0.192619757716126,-2.99595835290644,1.82418417204446));
#1014=CARTESIAN_POINT('Ctrl Pts',(0.32551153348427,-2.98238040480211,1.65827938261599));
#1015=CARTESIAN_POINT('Ctrl Pts',(0.349705977749929,-2.97954790683519,1.55029690138287));
#1016=CARTESIAN_POINT('Ctrl Pts',(0.349705977749929,-2.97954790683519,1.50000002235174));
#1017=CARTESIAN_POINT('Ctrl Pts',(0.333137318499952,-2.64801937499675,1.50000002235174));
#1018=CARTESIAN_POINT('Ctrl Pts',(0.333137318499952,-2.64801937499675,1.44729762347244));
#1019=CARTESIAN_POINT('Ctrl Pts',(0.303137855905169,-2.65110800231119,1.33413548314589));
#1020=CARTESIAN_POINT('Ctrl Pts',(0.215022488994908,-2.65877426334999,1.23990641237255));
#1021=CARTESIAN_POINT('Ctrl Pts',(0.132810666238255,-2.66369268775269,1.19222936199872));
#1022=CARTESIAN_POINT('Ctrl Pts',(0.0419894374659923,-2.66707463833581,
1.16362746517704));
#1023=CARTESIAN_POINT('Ctrl Pts',(-0.0438101200597343,-2.66701449044105,
1.16438603586839));
#1024=CARTESIAN_POINT('Ctrl Pts',(-0.134046597187711,-2.66369172680838,
1.1924240006787));
#1025=CARTESIAN_POINT('Ctrl Pts',(-0.19693567136329,-2.6598957126896,1.22916885934945));
#1026=CARTESIAN_POINT('Ctrl Pts',(-0.250093467306267,-2.65582270674263,
1.27660085577894));
#1027=CARTESIAN_POINT('Ctrl Pts',(-0.312292578108074,-2.6502789639807,1.36395487621806));
#1028=CARTESIAN_POINT('Ctrl Pts',(-0.347798343816124,-2.6466204551063,1.49984614443762));
#1029=CARTESIAN_POINT('Ctrl Pts',(-0.312669953770367,-2.65024694437791,
1.63575241465692));
#1030=CARTESIAN_POINT('Ctrl Pts',(-0.250285637241116,-2.65581552497778,
1.72327070110908));
#1031=CARTESIAN_POINT('Ctrl Pts',(-0.197363033083527,-2.65988488859995,
1.770581967161));
#1032=CARTESIAN_POINT('Ctrl Pts',(-0.144668130094519,-2.66305428286325,
1.80137732523502));
#1033=CARTESIAN_POINT('Ctrl Pts',(-0.106248116941385,-2.66470637247366,
1.81587557257556));
#1034=CARTESIAN_POINT('Ctrl Pts',(-0.0838024280737733,-2.66545540765309,
1.82242661194984));
#1035=CARTESIAN_POINT('Ctrl Pts',(0.0155070512604103,-2.66839587191914,
1.84626351913514));
#1036=CARTESIAN_POINT('Ctrl Pts',(0.162758514548847,-2.66354270500499,1.81646674543654));
#1037=CARTESIAN_POINT('Ctrl Pts',(0.303821476427154,-2.65094314197089,1.66593360458212));
#1038=CARTESIAN_POINT('Ctrl Pts',(0.333137318499952,-2.64801937499675,1.55270242123105));
#1039=CARTESIAN_POINT('Ctrl Pts',(0.333137318499952,-2.64801937499675,1.50000002235174));
#1040=CARTESIAN_POINT('Ctrl Pts',(0.316568659249976,-2.3164908431583,1.50000002235174));
#1041=CARTESIAN_POINT('Ctrl Pts',(0.316568659249976,-2.3164908431583,1.44489210362426));
#1042=CARTESIAN_POINT('Ctrl Pts',(0.281150966581899,-2.31961158830695,1.32719318563247));
#1043=CARTESIAN_POINT('Ctrl Pts',(0.188517089828168,-2.32676148691433,1.24145278218424));
#1044=CARTESIAN_POINT('Ctrl Pts',(0.112579015979608,-2.33094800635962,1.20259604402344));
#1045=CARTESIAN_POINT('Ctrl Pts',(0.0338889001188014,-2.33369684600338,
1.18088143009099));
#1046=CARTESIAN_POINT('Ctrl Pts',(-0.0359906691661071,-2.3336266976332,
1.18157517138359));
#1047=CARTESIAN_POINT('Ctrl Pts',(-0.114031491266147,-2.33094076392381,
1.20274470532806));
#1048=CARTESIAN_POINT('Ctrl Pts',(-0.172383386627163,-2.32768710510047,
1.23278540012334));
#1049=CARTESIAN_POINT('Ctrl Pts',(-0.225437124590098,-2.32401204747363,
1.2747177819982));
#1050=CARTESIAN_POINT('Ctrl Pts',(-0.292048563756099,-2.31875765154833,
1.35794719316725));
#1051=CARTESIAN_POINT('Ctrl Pts',(-0.333893025112782,-2.31506935821857,
1.49974049976045));
#1052=CARTESIAN_POINT('Ctrl Pts',(-0.292519350495129,-2.31871783432559,
1.6416543750087));
#1053=CARTESIAN_POINT('Ctrl Pts',(-0.225680120406323,-2.323993751908,1.72497868047572));
#1054=CARTESIAN_POINT('Ctrl Pts',(-0.172859553315951,-2.32766335653651,
1.76680655143736));
#1055=CARTESIAN_POINT('Ctrl Pts',(-0.123932209064985,-2.33038008836726,
1.79200169354385));
#1056=CARTESIAN_POINT('Ctrl Pts',(-0.0901608296932791,-2.33174112195163,
1.80324062541681));
#1057=CARTESIAN_POINT('Ctrl Pts',(-0.0707638531313978,-2.33235504898077,
1.80830002506129));
#1058=CARTESIAN_POINT('Ctrl Pts',(0.0136684479126011,-2.33469949554627,
1.82580689143348));
#1059=CARTESIAN_POINT('Ctrl Pts',(0.132897271381568,-2.33112705710355,1.80874931882862));
#1060=CARTESIAN_POINT('Ctrl Pts',(0.282131419370039,-2.31950587913966,1.67358782654824));
#1061=CARTESIAN_POINT('Ctrl Pts',(0.316568659249976,-2.3164908431583,1.55510794107922));
#1062=CARTESIAN_POINT('Ctrl Pts',(0.316568659249976,-2.3164908431583,1.50000002235174));
#1063=CARTESIAN_POINT('Ctrl Pts',(0.3,-1.98496231131986,1.50000002235174));
#1064=CARTESIAN_POINT('Ctrl Pts',(0.3,-1.98496231131986,1.44248658377608));
#1065=CARTESIAN_POINT('Ctrl Pts',(0.259164077258629,-1.98811517430272,1.32025088811904));
#1066=CARTESIAN_POINT('Ctrl Pts',(0.162011690661427,-1.99474871047866,1.24299915199593));
#1067=CARTESIAN_POINT('Ctrl Pts',(0.0923473657209601,-1.99820332496655,
1.21296272604816));
#1068=CARTESIAN_POINT('Ctrl Pts',(0.0257883627716108,-2.00031905367095,
1.19813539500494));
#1069=CARTESIAN_POINT('Ctrl Pts',(-0.0281712182724795,-2.00023890482534,
1.1987643068988));
#1070=CARTESIAN_POINT('Ctrl Pts',(-0.0940163853445826,-1.99818980103924,
1.21306540997742));
#1071=CARTESIAN_POINT('Ctrl Pts',(-0.147831101891035,-1.99547849751134,
1.23640194089723));
#1072=CARTESIAN_POINT('Ctrl Pts',(-0.200780781873929,-1.99220138820464,
1.27283470821746));
#1073=CARTESIAN_POINT('Ctrl Pts',(-0.271804549404122,-1.98723633911595,
1.35193951011645));
#1074=CARTESIAN_POINT('Ctrl Pts',(-0.319987706409439,-1.98351826133084,
1.49963485508328));
#1075=CARTESIAN_POINT('Ctrl Pts',(-0.272368747219889,-1.98718872427328,
1.64755633536048));
#1076=CARTESIAN_POINT('Ctrl Pts',(-0.201074603571529,-1.99217197883823,
1.72668665984235));
#1077=CARTESIAN_POINT('Ctrl Pts',(-0.148356073548375,-1.99544182447307,
1.76303113571372));
#1078=CARTESIAN_POINT('Ctrl Pts',(-0.10319628803545,-1.99770589387127,1.78262606185268));
#1079=CARTESIAN_POINT('Ctrl Pts',(-0.074073542445173,-1.9987758714296,1.79060567825806));
#1080=CARTESIAN_POINT('Ctrl Pts',(-0.0577252781890218,-1.99925469030845,
1.79417343817273));
#1081=CARTESIAN_POINT('Ctrl Pts',(0.0118298445647924,-2.00100311917339,
1.80535026373182));
#1082=CARTESIAN_POINT('Ctrl Pts',(0.103036028214288,-1.9987114092021,1.8010318922207));
#1083=CARTESIAN_POINT('Ctrl Pts',(0.260441362312924,-1.98806861630844,1.68124204851437));
#1084=CARTESIAN_POINT('Ctrl Pts',(0.3,-1.98496231131986,1.5575134609274));
#1085=CARTESIAN_POINT('Ctrl Pts',(0.3,-1.98496231131986,1.50000002235174));
#1086=CARTESIAN_POINT('',(0.349705977749929,-2.97954790683519,1.50000002235174));
#1087=CARTESIAN_POINT('Origin',(0.,0.,2.45));
#1088=CARTESIAN_POINT('',(0.3,-3.67394039744206E-17,1.9));
#1089=CARTESIAN_POINT('',(0.55,6.73555739531044E-17,2.45));
#1090=CARTESIAN_POINT('Origin',(0.,0.,1.9));
#1091=CARTESIAN_POINT('Origin',(0.,0.,3.));
#1092=CARTESIAN_POINT('',(0.3,-3.67394039744206E-17,3.));
#1093=CARTESIAN_POINT('Origin',(-0.508223304703363,-0.508223304703363,-2.5));
#1094=CARTESIAN_POINT('',(-1.07,-0.3,-5.));
#1095=CARTESIAN_POINT('',(-0.362893218813452,-0.3,0.));
#1096=CARTESIAN_POINT('',(-0.537011908977571,-0.3,-1.23120506546368));
#1097=CARTESIAN_POINT('',(-0.3,-0.362893218813453,0.));
#1098=CARTESIAN_POINT('',(-0.331446609406726,-0.331446609406726,0.));
#1099=CARTESIAN_POINT('',(-0.3,-1.07,-5.));
#1100=CARTESIAN_POINT('',(-0.3,-0.563482497212865,-1.41838038989541));
#1101=CARTESIAN_POINT('',(-0.685,-0.685,-5.));
#1102=CARTESIAN_POINT('Origin',(0.,0.,0.));
#1103=CARTESIAN_POINT('',(2.49999994412065,0.,0.));
#1104=CARTESIAN_POINT('',(-0.3,-1.87616630392937,0.));
#1105=CARTESIAN_POINT('',(-0.299999999999999,3.,0.));
#1106=CARTESIAN_POINT('',(-1.87616630392937,-0.3,0.));
#1107=CARTESIAN_POINT('',(-2.99999999999999,-0.3,0.));
#1108=CARTESIAN_POINT('Origin',(0.,0.,0.));
#1109=CARTESIAN_POINT('',(0.3,0.362893218813452,0.));
#1110=CARTESIAN_POINT('',(0.3,1.87616630392937,0.));
#1111=CARTESIAN_POINT('',(0.3,-3.,0.));
#1112=CARTESIAN_POINT('',(0.362893218813452,0.3,0.));
#1113=CARTESIAN_POINT('',(0.331446609406726,0.331446609406726,0.));
#1114=CARTESIAN_POINT('',(1.87616630392937,0.3,0.));
#1115=CARTESIAN_POINT('',(3.00000000000001,0.3,0.));
#1116=CARTESIAN_POINT('Origin',(0.,0.,0.));
#1117=CARTESIAN_POINT('Origin',(0.508223304703363,0.508223304703363,-2.5));
#1118=CARTESIAN_POINT('',(1.07,0.3,-5.));
#1119=CARTESIAN_POINT('',(0.537011908977571,0.3,-1.23120506546368));
#1120=CARTESIAN_POINT('',(0.3,1.07,-5.));
#1121=CARTESIAN_POINT('',(0.3,0.563482497212865,-1.41838038989541));
#1122=CARTESIAN_POINT('',(0.685,0.685,-5.));
#1123=CARTESIAN_POINT('Origin',(-0.3,-3.,0.));
#1124=CARTESIAN_POINT('',(-0.3,-1.87616630392937,-3.));
#1125=CARTESIAN_POINT('',(-0.3,-1.87616630392937,0.));
#1126=CARTESIAN_POINT('',(-0.3,-2.55243021452106,-3.24));
#1127=CARTESIAN_POINT('Ctrl Pts',(-0.3,-2.55243021452106,-3.24));
#1128=CARTESIAN_POINT('Ctrl Pts',(-0.3,-2.47182752014867,-3.21132478041867));
#1129=CARTESIAN_POINT('Ctrl Pts',(-0.3,-2.10511307238123,-3.08098203532372));
#1130=CARTESIAN_POINT('Ctrl Pts',(-0.3,-1.87616630392937,-3.));
#1131=CARTESIAN_POINT('',(-0.3,-1.21346610995116,-5.));
#1132=CARTESIAN_POINT('Ctrl Pts',(-0.3,-1.21346610995116,-5.));
#1133=CARTESIAN_POINT('Ctrl Pts',(-0.3,-1.6516088143256,-4.43288392204723));
#1134=CARTESIAN_POINT('Ctrl Pts',(-0.3,-2.55243021452106,-3.24));
#1135=CARTESIAN_POINT('',(-0.3,-1.5,-5.));
#1136=CARTESIAN_POINT('Origin',(0.,0.,-5.));
#1137=CARTESIAN_POINT('',(0.3,1.21346610995116,-5.));
#1138=CARTESIAN_POINT('',(0.3,1.5,-5.));
#1139=CARTESIAN_POINT('',(1.21346610995116,0.3,-5.));
#1140=CARTESIAN_POINT('Origin',(0.,0.,-5.));
#1141=CARTESIAN_POINT('',(0.15,0.3,-5.));
#1142=CARTESIAN_POINT('Origin',(0.3,3.,0.));
#1143=CARTESIAN_POINT('',(0.3,1.87616630392937,-3.));
#1144=CARTESIAN_POINT('',(0.3,1.87616630392937,0.));
#1145=CARTESIAN_POINT('',(0.3,2.55243021452106,-3.24));
#1146=CARTESIAN_POINT('Ctrl Pts',(0.3,2.55243021452106,-3.24));
#1147=CARTESIAN_POINT('Ctrl Pts',(0.3,2.47182752014867,-3.21132478041867));
#1148=CARTESIAN_POINT('Ctrl Pts',(0.3,2.10511307238123,-3.08098203532372));
#1149=CARTESIAN_POINT('Ctrl Pts',(0.3,1.87616630392937,-3.));
#1150=CARTESIAN_POINT('Ctrl Pts',(0.3,1.21346610995116,-5.));
#1151=CARTESIAN_POINT('Ctrl Pts',(0.3,1.65160881432561,-4.43288392204721));
#1152=CARTESIAN_POINT('Ctrl Pts',(0.3,2.55243021452106,-3.24));
#1153=CARTESIAN_POINT('Origin',(0.3,0.3,0.));
#1154=CARTESIAN_POINT('',(2.55243021452106,0.3,-3.24));
#1155=CARTESIAN_POINT('Ctrl Pts',(2.55243021452106,0.3,-3.24));
#1156=CARTESIAN_POINT('Ctrl Pts',(2.52594682217117,0.3,-3.27506978511899));
#1157=CARTESIAN_POINT('Ctrl Pts',(2.49999994412065,0.3,-3.30941919077131));
#1158=CARTESIAN_POINT('Ctrl Pts',(1.64026939442235,0.3,-4.44756125725694));
#1159=CARTESIAN_POINT('Ctrl Pts',(1.21346610995116,0.3,-5.));
#1160=CARTESIAN_POINT('',(1.87616630392937,0.3,-3.));
#1161=CARTESIAN_POINT('Ctrl Pts',(1.87616630392937,0.3,-3.));
#1162=CARTESIAN_POINT('Ctrl Pts',(2.13967189707645,0.3,-3.09320602949118));
#1163=CARTESIAN_POINT('Ctrl Pts',(2.49353409366019,0.3,-3.21905044074994));
#1164=CARTESIAN_POINT('Ctrl Pts',(2.49999994412065,0.3,-3.22135006815099));
#1165=CARTESIAN_POINT('Ctrl Pts',(2.52594682217117,0.3,-3.23057826668445));
#1166=CARTESIAN_POINT('Ctrl Pts',(2.55243021452106,0.3,-3.24));
#1167=CARTESIAN_POINT('',(1.87616630392937,0.3,0.));
#1168=CARTESIAN_POINT('Origin',(-0.3,-0.3,0.));
#1169=CARTESIAN_POINT('',(-1.21346610995116,-0.3,-5.));
#1170=CARTESIAN_POINT('',(-0.15,-0.3,-5.));
#1171=CARTESIAN_POINT('',(-2.55243021452106,-0.3,-3.24));
#1172=CARTESIAN_POINT('Ctrl Pts',(-2.55243021452106,-0.3,-3.24));
#1173=CARTESIAN_POINT('Ctrl Pts',(-2.52594682217117,-0.3,-3.275069785119));
#1174=CARTESIAN_POINT('Ctrl Pts',(-2.49999994412065,-0.3,-3.30941919077131));
#1175=CARTESIAN_POINT('Ctrl Pts',(-1.64026939442235,-0.3,-4.44756125725694));
#1176=CARTESIAN_POINT('Ctrl Pts',(-1.21346610995116,-0.3,-5.));
#1177=CARTESIAN_POINT('',(-1.87616630392937,-0.3,-3.));
#1178=CARTESIAN_POINT('Ctrl Pts',(-1.87616630392937,-0.3,-3.));
#1179=CARTESIAN_POINT('Ctrl Pts',(-2.13967189707645,-0.3,-3.09320602949118));
#1180=CARTESIAN_POINT('Ctrl Pts',(-2.49353409366019,-0.3,-3.21905044074994));
#1181=CARTESIAN_POINT('Ctrl Pts',(-2.49999994412065,-0.3,-3.22135006815099));
#1182=CARTESIAN_POINT('Ctrl Pts',(-2.52594682217117,-0.3,-3.23057826668445));
#1183=CARTESIAN_POINT('Ctrl Pts',(-2.55243021452106,-0.3,-3.24));
#1184=CARTESIAN_POINT('',(-1.87616630392937,-0.3,0.));
#1185=CARTESIAN_POINT('Origin',(0.,0.,-5.));
#1186=CARTESIAN_POINT('Origin',(0.,0.,-5.));
#1187=CARTESIAN_POINT('Origin',(0.,7.86835568452174E-17,-3.12));
#1188=CARTESIAN_POINT('Origin',(0.,0.,-3.));
#1189=CARTESIAN_POINT('Origin',(0.,1.57367113690435E-16,-3.24));
#1190=CARTESIAN_POINT('Origin',(0.,0.,-4.));
#1191=CARTESIAN_POINT('Origin',(0.,7.86835568452174E-17,-3.12));
#1192=CARTESIAN_POINT('Origin',(0.,0.,-3.));
#1193=CARTESIAN_POINT('Origin',(0.,1.57367113690435E-16,-3.24));
#1194=CARTESIAN_POINT('Origin',(0.,0.,-4.));
#1195=CARTESIAN_POINT('Origin',(0.,0.,0.));
#1196=CARTESIAN_POINT('Origin',(0.,0.,0.));
#1197=CARTESIAN_POINT('Origin',(2.49999994412065,0.,2.99999993294477));
#1198=UNCERTAINTY_MEASURE_WITH_UNIT(LENGTH_MEASURE(0.01),#1202,
'DISTANCE_ACCURACY_VALUE',
'Maximum model space distance between geometric entities at asserted c
onnectivities');
#1199=UNCERTAINTY_MEASURE_WITH_UNIT(LENGTH_MEASURE(0.01),#1202,
'DISTANCE_ACCURACY_VALUE',
'Maximum model space distance between geometric entities at asserted c
onnectivities');
#1200=(
GEOMETRIC_REPRESENTATION_CONTEXT(3)
GLOBAL_UNCERTAINTY_ASSIGNED_CONTEXT((#1198))
GLOBAL_UNIT_ASSIGNED_CONTEXT((#1202,#1204,#1205))
REPRESENTATION_CONTEXT('','3D')
);
#1201=(
GEOMETRIC_REPRESENTATION_CONTEXT(3)
GLOBAL_UNCERTAINTY_ASSIGNED_CONTEXT((#1199))
GLOBAL_UNIT_ASSIGNED_CONTEXT((#1202,#1204,#1205))
REPRESENTATION_CONTEXT('','3D')
);
#1202=(
LENGTH_UNIT()
NAMED_UNIT(*)
SI_UNIT(.MILLI.,.METRE.)
);
#1203=(
LENGTH_UNIT()
NAMED_UNIT(*)
SI_UNIT($,.METRE.)
);
#1204=(
NAMED_UNIT(*)
PLANE_ANGLE_UNIT()
SI_UNIT($,.RADIAN.)
);
#1205=(
NAMED_UNIT(*)
SI_UNIT($,.STERADIAN.)
SOLID_ANGLE_UNIT()
);
#1206=SHAPE_DEFINITION_REPRESENTATION(#1207,#1208);
#1207=PRODUCT_DEFINITION_SHAPE('',$,#1210);
#1208=SHAPE_REPRESENTATION('',(#524),#1200);
#1209=PRODUCT_DEFINITION_CONTEXT('part definition',#1214,'design');
#1210=PRODUCT_DEFINITION('SpoolPin','SpoolPin v8',#1211,#1209);
#1211=PRODUCT_DEFINITION_FORMATION('',$,#1216);
#1212=PRODUCT_RELATED_PRODUCT_CATEGORY('SpoolPin v8','SpoolPin v8',(#1216));
#1213=APPLICATION_PROTOCOL_DEFINITION('international standard',
'automotive_design',2009,#1214);
#1214=APPLICATION_CONTEXT(
'Core Data for Automotive Mechanical Design Process');
#1215=PRODUCT_CONTEXT('part definition',#1214,'mechanical');
#1216=PRODUCT('SpoolPin','SpoolPin v8',$,(#1215));
#1217=PRESENTATION_STYLE_ASSIGNMENT((#1218));
#1218=SURFACE_STYLE_USAGE(.BOTH.,#1219);
#1219=SURFACE_SIDE_STYLE('',(#1220));
#1220=SURFACE_STYLE_FILL_AREA(#1221);
#1221=FILL_AREA_STYLE('Steel - Satin',(#1222));
#1222=FILL_AREA_STYLE_COLOUR('Steel - Satin',#1223);
#1223=COLOUR_RGB('Steel - Satin',0.627450980392157,0.627450980392157,0.627450980392157);
ENDSEC;
END-ISO-10303-21;
