ISO-10303-21;
HEADER;
/* Generated by software containing ST-Developer
 * from STEP Tools, Inc. (www.steptools.com) 
 */

FILE_DESCRIPTION(
/* description */ (''),
/* implementation_level */ '2;1');

FILE_NAME(
/* name */ 'DriverSupport_v4.step',
/* time_stamp */ '2026-08-21T09:15:14-04:00',
/* author */ (''),
/* organization */ (''),
/* preprocessor_version */ 'ST-DEVELOPER v20.1',
/* originating_system */ 'Autodesk Translation Framework v15.8.0.0',
/* authorisation */ '');

FILE_SCHEMA (('AUTOMOTIVE_DESIGN { 1 0 10303 214 3 1 1 }'));
ENDSEC;

DATA;
#10=MECHANICAL_DESIGN_GEOMETRIC_PRESENTATION_REPRESENTATION('',(#13),#556);
#11=SHAPE_REPRESENTATION_RELATIONSHIP('SRR','None',#563,#12);
#12=ADVANCED_BREP_SHAPE_REPRESENTATION('',(#14),#555);
#13=STYLED_ITEM('',(#573),#14);
#14=MANIFOLD_SOLID_BREP('Body1',#322);
#15=FACE_BOUND('',#52,.T.);
#16=FACE_BOUND('',#56,.T.);
#17=FACE_BOUND('',#59,.T.);
#18=FACE_BOUND('',#61,.T.);
#19=FACE_BOUND('',#63,.T.);
#20=FACE_BOUND('',#65,.T.);
#21=PLANE('',#342);
#22=PLANE('',#343);
#23=PLANE('',#347);
#24=PLANE('',#348);
#25=PLANE('',#349);
#26=PLANE('',#350);
#27=PLANE('',#353);
#28=PLANE('',#356);
#29=PLANE('',#359);
#30=PLANE('',#362);
#31=FACE_OUTER_BOUND('',#48,.T.);
#32=FACE_OUTER_BOUND('',#49,.T.);
#33=FACE_OUTER_BOUND('',#50,.T.);
#34=FACE_OUTER_BOUND('',#51,.T.);
#35=FACE_OUTER_BOUND('',#53,.T.);
#36=FACE_OUTER_BOUND('',#54,.T.);
#37=FACE_OUTER_BOUND('',#55,.T.);
#38=FACE_OUTER_BOUND('',#57,.T.);
#39=FACE_OUTER_BOUND('',#58,.T.);
#40=FACE_OUTER_BOUND('',#60,.T.);
#41=FACE_OUTER_BOUND('',#62,.T.);
#42=FACE_OUTER_BOUND('',#64,.T.);
#43=FACE_OUTER_BOUND('',#66,.T.);
#44=FACE_OUTER_BOUND('',#67,.T.);
#45=FACE_OUTER_BOUND('',#68,.T.);
#46=FACE_OUTER_BOUND('',#69,.T.);
#47=FACE_OUTER_BOUND('',#70,.T.);
#48=EDGE_LOOP('',(#212,#213,#214,#215));
#49=EDGE_LOOP('',(#216,#217,#218,#219));
#50=EDGE_LOOP('',(#220,#221,#222,#223,#224,#225,#226,#227));
#51=EDGE_LOOP('',(#228,#229,#230,#231,#232,#233));
#52=EDGE_LOOP('',(#234));
#53=EDGE_LOOP('',(#235,#236,#237,#238));
#54=EDGE_LOOP('',(#239,#240,#241,#242,#243,#244,#245,#246));
#55=EDGE_LOOP('',(#247,#248,#249,#250,#251,#252));
#56=EDGE_LOOP('',(#253));
#57=EDGE_LOOP('',(#254,#255,#256,#257));
#58=EDGE_LOOP('',(#258,#259,#260,#261));
#59=EDGE_LOOP('',(#262));
#60=EDGE_LOOP('',(#263,#264,#265,#266));
#61=EDGE_LOOP('',(#267));
#62=EDGE_LOOP('',(#268));
#63=EDGE_LOOP('',(#269));
#64=EDGE_LOOP('',(#270));
#65=EDGE_LOOP('',(#271));
#66=EDGE_LOOP('',(#272,#273,#274,#275));
#67=EDGE_LOOP('',(#276,#277,#278,#279));
#68=EDGE_LOOP('',(#280,#281,#282,#283));
#69=EDGE_LOOP('',(#284,#285,#286,#287,#288,#289,#290));
#70=EDGE_LOOP('',(#291,#292,#293,#294,#295,#296,#297));
#71=LINE('',#469,#98);
#72=LINE('',#476,#99);
#73=LINE('',#479,#100);
#74=LINE('',#482,#101);
#75=LINE('',#484,#102);
#76=LINE('',#486,#103);
#77=LINE('',#488,#104);
#78=LINE('',#490,#105);
#79=LINE('',#492,#106);
#80=LINE('',#493,#107);
#81=LINE('',#496,#108);
#82=LINE('',#500,#109);
#83=LINE('',#501,#110);
#84=LINE('',#504,#111);
#85=LINE('',#507,#112);
#86=LINE('',#510,#113);
#87=LINE('',#512,#114);
#88=LINE('',#514,#115);
#89=LINE('',#516,#116);
#90=LINE('',#518,#117);
#91=LINE('',#519,#118);
#92=LINE('',#521,#119);
#93=LINE('',#522,#120);
#94=LINE('',#546,#121);
#95=LINE('',#548,#122);
#96=LINE('',#550,#123);
#97=LINE('',#552,#124);
#98=VECTOR('',#375,1.5);
#99=VECTOR('',#382,10.);
#100=VECTOR('',#385,10.);
#101=VECTOR('',#388,10.);
#102=VECTOR('',#389,10.);
#103=VECTOR('',#390,10.);
#104=VECTOR('',#391,10.);
#105=VECTOR('',#392,10.);
#106=VECTOR('',#393,10.);
#107=VECTOR('',#394,10.);
#108=VECTOR('',#397,10.);
#109=VECTOR('',#400,10.);
#110=VECTOR('',#401,10.);
#111=VECTOR('',#404,10.);
#112=VECTOR('',#407,10.);
#113=VECTOR('',#410,10.);
#114=VECTOR('',#411,10.);
#115=VECTOR('',#412,10.);
#116=VECTOR('',#413,10.);
#117=VECTOR('',#414,10.);
#118=VECTOR('',#415,10.);
#119=VECTOR('',#418,10.);
#120=VECTOR('',#419,10.);
#121=VECTOR('',#454,1.5375);
#122=VECTOR('',#457,1.5375);
#123=VECTOR('',#460,2.5375);
#124=VECTOR('',#463,2.5375);
#125=CIRCLE('',#337,1.5);
#126=CIRCLE('',#338,1.5);
#127=CIRCLE('',#340,2.);
#128=CIRCLE('',#341,2.);
#129=CIRCLE('',#344,2.);
#130=CIRCLE('',#346,2.);
#131=CIRCLE('',#351,2.5375);
#132=CIRCLE('',#352,1.5375);
#133=CIRCLE('',#354,2.5375);
#134=CIRCLE('',#355,1.5375);
#135=CIRCLE('',#357,2.5375);
#136=CIRCLE('',#358,1.5375);
#137=CIRCLE('',#360,2.5375);
#138=CIRCLE('',#361,1.5375);
#139=CIRCLE('',#363,2.5375);
#140=CIRCLE('',#364,2.5375);
#141=VERTEX_POINT('',#466);
#142=VERTEX_POINT('',#468);
#143=VERTEX_POINT('',#472);
#144=VERTEX_POINT('',#473);
#145=VERTEX_POINT('',#475);
#146=VERTEX_POINT('',#477);
#147=VERTEX_POINT('',#481);
#148=VERTEX_POINT('',#483);
#149=VERTEX_POINT('',#485);
#150=VERTEX_POINT('',#487);
#151=VERTEX_POINT('',#489);
#152=VERTEX_POINT('',#491);
#153=VERTEX_POINT('',#495);
#154=VERTEX_POINT('',#497);
#155=VERTEX_POINT('',#499);
#156=VERTEX_POINT('',#503);
#157=VERTEX_POINT('',#505);
#158=VERTEX_POINT('',#509);
#159=VERTEX_POINT('',#511);
#160=VERTEX_POINT('',#513);
#161=VERTEX_POINT('',#515);
#162=VERTEX_POINT('',#517);
#163=VERTEX_POINT('',#526);
#164=VERTEX_POINT('',#530);
#165=VERTEX_POINT('',#533);
#166=VERTEX_POINT('',#535);
#167=VERTEX_POINT('',#538);
#168=VERTEX_POINT('',#540);
#169=EDGE_CURVE('',#141,#141,#125,.T.);
#170=EDGE_CURVE('',#141,#142,#71,.T.);
#171=EDGE_CURVE('',#142,#142,#126,.T.);
#172=EDGE_CURVE('',#143,#144,#127,.T.);
#173=EDGE_CURVE('',#144,#145,#72,.T.);
#174=EDGE_CURVE('',#145,#146,#128,.T.);
#175=EDGE_CURVE('',#146,#143,#73,.T.);
#176=EDGE_CURVE('',#147,#146,#74,.T.);
#177=EDGE_CURVE('',#148,#147,#75,.T.);
#178=EDGE_CURVE('',#149,#148,#76,.T.);
#179=EDGE_CURVE('',#149,#150,#77,.T.);
#180=EDGE_CURVE('',#150,#151,#78,.T.);
#181=EDGE_CURVE('',#152,#151,#79,.T.);
#182=EDGE_CURVE('',#152,#143,#80,.T.);
#183=EDGE_CURVE('',#153,#145,#81,.T.);
#184=EDGE_CURVE('',#154,#153,#129,.T.);
#185=EDGE_CURVE('',#155,#154,#82,.T.);
#186=EDGE_CURVE('',#147,#155,#83,.T.);
#187=EDGE_CURVE('',#153,#156,#84,.T.);
#188=EDGE_CURVE('',#156,#157,#130,.T.);
#189=EDGE_CURVE('',#157,#154,#85,.T.);
#190=EDGE_CURVE('',#158,#157,#86,.T.);
#191=EDGE_CURVE('',#159,#158,#87,.T.);
#192=EDGE_CURVE('',#160,#159,#88,.T.);
#193=EDGE_CURVE('',#161,#160,#89,.T.);
#194=EDGE_CURVE('',#161,#162,#90,.T.);
#195=EDGE_CURVE('',#155,#162,#91,.T.);
#196=EDGE_CURVE('',#158,#152,#92,.T.);
#197=EDGE_CURVE('',#144,#156,#93,.T.);
#198=EDGE_CURVE('',#162,#148,#131,.T.);
#199=EDGE_CURVE('',#163,#163,#132,.T.);
#200=EDGE_CURVE('',#151,#159,#133,.T.);
#201=EDGE_CURVE('',#164,#164,#134,.T.);
#202=EDGE_CURVE('',#165,#165,#135,.T.);
#203=EDGE_CURVE('',#166,#166,#136,.T.);
#204=EDGE_CURVE('',#167,#167,#137,.T.);
#205=EDGE_CURVE('',#168,#168,#138,.T.);
#206=EDGE_CURVE('',#149,#161,#139,.T.);
#207=EDGE_CURVE('',#160,#150,#140,.T.);
#208=EDGE_CURVE('',#163,#166,#94,.T.);
#209=EDGE_CURVE('',#164,#168,#95,.T.);
#210=EDGE_CURVE('',#150,#167,#96,.T.);
#211=EDGE_CURVE('',#149,#165,#97,.T.);
#212=ORIENTED_EDGE('',*,*,#169,.F.);
#213=ORIENTED_EDGE('',*,*,#170,.T.);
#214=ORIENTED_EDGE('',*,*,#171,.F.);
#215=ORIENTED_EDGE('',*,*,#170,.F.);
#216=ORIENTED_EDGE('',*,*,#172,.T.);
#217=ORIENTED_EDGE('',*,*,#173,.T.);
#218=ORIENTED_EDGE('',*,*,#174,.T.);
#219=ORIENTED_EDGE('',*,*,#175,.T.);
#220=ORIENTED_EDGE('',*,*,#175,.F.);
#221=ORIENTED_EDGE('',*,*,#176,.F.);
#222=ORIENTED_EDGE('',*,*,#177,.F.);
#223=ORIENTED_EDGE('',*,*,#178,.F.);
#224=ORIENTED_EDGE('',*,*,#179,.T.);
#225=ORIENTED_EDGE('',*,*,#180,.T.);
#226=ORIENTED_EDGE('',*,*,#181,.F.);
#227=ORIENTED_EDGE('',*,*,#182,.T.);
#228=ORIENTED_EDGE('',*,*,#174,.F.);
#229=ORIENTED_EDGE('',*,*,#183,.F.);
#230=ORIENTED_EDGE('',*,*,#184,.F.);
#231=ORIENTED_EDGE('',*,*,#185,.F.);
#232=ORIENTED_EDGE('',*,*,#186,.F.);
#233=ORIENTED_EDGE('',*,*,#176,.T.);
#234=ORIENTED_EDGE('',*,*,#169,.T.);
#235=ORIENTED_EDGE('',*,*,#184,.T.);
#236=ORIENTED_EDGE('',*,*,#187,.T.);
#237=ORIENTED_EDGE('',*,*,#188,.T.);
#238=ORIENTED_EDGE('',*,*,#189,.T.);
#239=ORIENTED_EDGE('',*,*,#189,.F.);
#240=ORIENTED_EDGE('',*,*,#190,.F.);
#241=ORIENTED_EDGE('',*,*,#191,.F.);
#242=ORIENTED_EDGE('',*,*,#192,.F.);
#243=ORIENTED_EDGE('',*,*,#193,.F.);
#244=ORIENTED_EDGE('',*,*,#194,.T.);
#245=ORIENTED_EDGE('',*,*,#195,.F.);
#246=ORIENTED_EDGE('',*,*,#185,.T.);
#247=ORIENTED_EDGE('',*,*,#172,.F.);
#248=ORIENTED_EDGE('',*,*,#182,.F.);
#249=ORIENTED_EDGE('',*,*,#196,.F.);
#250=ORIENTED_EDGE('',*,*,#190,.T.);
#251=ORIENTED_EDGE('',*,*,#188,.F.);
#252=ORIENTED_EDGE('',*,*,#197,.F.);
#253=ORIENTED_EDGE('',*,*,#171,.T.);
#254=ORIENTED_EDGE('',*,*,#173,.F.);
#255=ORIENTED_EDGE('',*,*,#197,.T.);
#256=ORIENTED_EDGE('',*,*,#187,.F.);
#257=ORIENTED_EDGE('',*,*,#183,.T.);
#258=ORIENTED_EDGE('',*,*,#186,.T.);
#259=ORIENTED_EDGE('',*,*,#195,.T.);
#260=ORIENTED_EDGE('',*,*,#198,.T.);
#261=ORIENTED_EDGE('',*,*,#177,.T.);
#262=ORIENTED_EDGE('',*,*,#199,.T.);
#263=ORIENTED_EDGE('',*,*,#196,.T.);
#264=ORIENTED_EDGE('',*,*,#181,.T.);
#265=ORIENTED_EDGE('',*,*,#200,.T.);
#266=ORIENTED_EDGE('',*,*,#191,.T.);
#267=ORIENTED_EDGE('',*,*,#201,.T.);
#268=ORIENTED_EDGE('',*,*,#202,.T.);
#269=ORIENTED_EDGE('',*,*,#203,.T.);
#270=ORIENTED_EDGE('',*,*,#204,.T.);
#271=ORIENTED_EDGE('',*,*,#205,.T.);
#272=ORIENTED_EDGE('',*,*,#206,.T.);
#273=ORIENTED_EDGE('',*,*,#193,.T.);
#274=ORIENTED_EDGE('',*,*,#207,.T.);
#275=ORIENTED_EDGE('',*,*,#179,.F.);
#276=ORIENTED_EDGE('',*,*,#199,.F.);
#277=ORIENTED_EDGE('',*,*,#208,.T.);
#278=ORIENTED_EDGE('',*,*,#203,.F.);
#279=ORIENTED_EDGE('',*,*,#208,.F.);
#280=ORIENTED_EDGE('',*,*,#201,.F.);
#281=ORIENTED_EDGE('',*,*,#209,.T.);
#282=ORIENTED_EDGE('',*,*,#205,.F.);
#283=ORIENTED_EDGE('',*,*,#209,.F.);
#284=ORIENTED_EDGE('',*,*,#192,.T.);
#285=ORIENTED_EDGE('',*,*,#200,.F.);
#286=ORIENTED_EDGE('',*,*,#180,.F.);
#287=ORIENTED_EDGE('',*,*,#210,.T.);
#288=ORIENTED_EDGE('',*,*,#204,.F.);
#289=ORIENTED_EDGE('',*,*,#210,.F.);
#290=ORIENTED_EDGE('',*,*,#207,.F.);
#291=ORIENTED_EDGE('',*,*,#178,.T.);
#292=ORIENTED_EDGE('',*,*,#198,.F.);
#293=ORIENTED_EDGE('',*,*,#194,.F.);
#294=ORIENTED_EDGE('',*,*,#206,.F.);
#295=ORIENTED_EDGE('',*,*,#211,.T.);
#296=ORIENTED_EDGE('',*,*,#202,.F.);
#297=ORIENTED_EDGE('',*,*,#211,.F.);
#298=CYLINDRICAL_SURFACE('',#336,1.5);
#299=CYLINDRICAL_SURFACE('',#339,2.);
#300=CYLINDRICAL_SURFACE('',#345,2.);
#301=CYLINDRICAL_SURFACE('',#365,1.5375);
#302=CYLINDRICAL_SURFACE('',#366,1.5375);
#303=CYLINDRICAL_SURFACE('',#367,2.5375);
#304=CYLINDRICAL_SURFACE('',#368,2.5375);
#305=ADVANCED_FACE('',(#31),#298,.F.);
#306=ADVANCED_FACE('',(#32),#299,.T.);
#307=ADVANCED_FACE('',(#33),#21,.T.);
#308=ADVANCED_FACE('',(#34,#15),#22,.T.);
#309=ADVANCED_FACE('',(#35),#300,.T.);
#310=ADVANCED_FACE('',(#36),#23,.T.);
#311=ADVANCED_FACE('',(#37,#16),#24,.T.);
#312=ADVANCED_FACE('',(#38),#25,.T.);
#313=ADVANCED_FACE('',(#39,#17),#26,.T.);
#314=ADVANCED_FACE('',(#40,#18),#27,.T.);
#315=ADVANCED_FACE('',(#41,#19),#28,.F.);
#316=ADVANCED_FACE('',(#42,#20),#29,.F.);
#317=ADVANCED_FACE('',(#43),#30,.F.);
#318=ADVANCED_FACE('',(#44),#301,.F.);
#319=ADVANCED_FACE('',(#45),#302,.F.);
#320=ADVANCED_FACE('',(#46),#303,.T.);
#321=ADVANCED_FACE('',(#47),#304,.T.);
#322=CLOSED_SHELL('',(#305,#306,#307,#308,#309,#310,#311,#312,#313,#314,
#315,#316,#317,#318,#319,#320,#321));
#323=DERIVED_UNIT_ELEMENT(#325,1.);
#324=DERIVED_UNIT_ELEMENT(#558,-3.);
#325=(
MASS_UNIT()
NAMED_UNIT(*)
SI_UNIT(.KILO.,.GRAM.)
);
#326=DERIVED_UNIT((#323,#324));
#327=MEASURE_REPRESENTATION_ITEM('density measure',
POSITIVE_RATIO_MEASURE(7850.),#326);
#328=PROPERTY_DEFINITION_REPRESENTATION(#333,#330);
#329=PROPERTY_DEFINITION_REPRESENTATION(#334,#331);
#330=REPRESENTATION('material name',(#332),#555);
#331=REPRESENTATION('density',(#327),#555);
#332=DESCRIPTIVE_REPRESENTATION_ITEM('Steel','Steel');
#333=PROPERTY_DEFINITION('material property','material name',#565);
#334=PROPERTY_DEFINITION('material property','density of part',#565);
#335=AXIS2_PLACEMENT_3D('',#464,#369,#370);
#336=AXIS2_PLACEMENT_3D('',#465,#371,#372);
#337=AXIS2_PLACEMENT_3D('',#467,#373,#374);
#338=AXIS2_PLACEMENT_3D('',#470,#376,#377);
#339=AXIS2_PLACEMENT_3D('',#471,#378,#379);
#340=AXIS2_PLACEMENT_3D('',#474,#380,#381);
#341=AXIS2_PLACEMENT_3D('',#478,#383,#384);
#342=AXIS2_PLACEMENT_3D('',#480,#386,#387);
#343=AXIS2_PLACEMENT_3D('',#494,#395,#396);
#344=AXIS2_PLACEMENT_3D('',#498,#398,#399);
#345=AXIS2_PLACEMENT_3D('',#502,#402,#403);
#346=AXIS2_PLACEMENT_3D('',#506,#405,#406);
#347=AXIS2_PLACEMENT_3D('',#508,#408,#409);
#348=AXIS2_PLACEMENT_3D('',#520,#416,#417);
#349=AXIS2_PLACEMENT_3D('',#523,#420,#421);
#350=AXIS2_PLACEMENT_3D('',#524,#422,#423);
#351=AXIS2_PLACEMENT_3D('',#525,#424,#425);
#352=AXIS2_PLACEMENT_3D('',#527,#426,#427);
#353=AXIS2_PLACEMENT_3D('',#528,#428,#429);
#354=AXIS2_PLACEMENT_3D('',#529,#430,#431);
#355=AXIS2_PLACEMENT_3D('',#531,#432,#433);
#356=AXIS2_PLACEMENT_3D('',#532,#434,#435);
#357=AXIS2_PLACEMENT_3D('',#534,#436,#437);
#358=AXIS2_PLACEMENT_3D('',#536,#438,#439);
#359=AXIS2_PLACEMENT_3D('',#537,#440,#441);
#360=AXIS2_PLACEMENT_3D('',#539,#442,#443);
#361=AXIS2_PLACEMENT_3D('',#541,#444,#445);
#362=AXIS2_PLACEMENT_3D('',#542,#446,#447);
#363=AXIS2_PLACEMENT_3D('',#543,#448,#449);
#364=AXIS2_PLACEMENT_3D('',#544,#450,#451);
#365=AXIS2_PLACEMENT_3D('',#545,#452,#453);
#366=AXIS2_PLACEMENT_3D('',#547,#455,#456);
#367=AXIS2_PLACEMENT_3D('',#549,#458,#459);
#368=AXIS2_PLACEMENT_3D('',#551,#461,#462);
#369=DIRECTION('axis',(0.,0.,1.));
#370=DIRECTION('refdir',(1.,0.,0.));
#371=DIRECTION('center_axis',(0.,-1.,0.));
#372=DIRECTION('ref_axis',(-1.,0.,0.));
#373=DIRECTION('center_axis',(0.,-1.,0.));
#374=DIRECTION('ref_axis',(-1.,0.,0.));
#375=DIRECTION('',(0.,-1.,0.));
#376=DIRECTION('center_axis',(0.,1.,0.));
#377=DIRECTION('ref_axis',(-1.,0.,0.));
#378=DIRECTION('center_axis',(0.,-1.,0.));
#379=DIRECTION('ref_axis',(-0.707106781186548,0.,0.707106781186547));
#380=DIRECTION('center_axis',(0.,1.,0.));
#381=DIRECTION('ref_axis',(-0.707106781186548,0.,0.707106781186547));
#382=DIRECTION('',(0.,1.,0.));
#383=DIRECTION('center_axis',(0.,-1.,0.));
#384=DIRECTION('ref_axis',(-0.707106781186548,0.,0.707106781186547));
#385=DIRECTION('',(0.,-1.,0.));
#386=DIRECTION('center_axis',(-1.,0.,0.));
#387=DIRECTION('ref_axis',(0.,-1.,0.));
#388=DIRECTION('',(0.,0.,1.));
#389=DIRECTION('',(0.,-1.,0.));
#390=DIRECTION('',(0.,0.,1.));
#391=DIRECTION('',(0.,-1.,0.));
#392=DIRECTION('',(0.,0.,1.));
#393=DIRECTION('',(0.,-1.,0.));
#394=DIRECTION('',(0.,0.,1.));
#395=DIRECTION('center_axis',(0.,1.,0.));
#396=DIRECTION('ref_axis',(-1.,0.,0.));
#397=DIRECTION('',(-1.,0.,0.));
#398=DIRECTION('center_axis',(0.,-1.,0.));
#399=DIRECTION('ref_axis',(0.707106781186548,0.,0.707106781186547));
#400=DIRECTION('',(0.,0.,1.));
#401=DIRECTION('',(1.,0.,0.));
#402=DIRECTION('center_axis',(0.,1.,0.));
#403=DIRECTION('ref_axis',(0.707106781186548,0.,0.707106781186547));
#404=DIRECTION('',(0.,-1.,0.));
#405=DIRECTION('center_axis',(0.,1.,0.));
#406=DIRECTION('ref_axis',(0.707106781186548,0.,0.707106781186547));
#407=DIRECTION('',(0.,1.,0.));
#408=DIRECTION('center_axis',(1.,0.,0.));
#409=DIRECTION('ref_axis',(0.,1.,0.));
#410=DIRECTION('',(0.,0.,1.));
#411=DIRECTION('',(0.,1.,0.));
#412=DIRECTION('',(0.,0.,1.));
#413=DIRECTION('',(0.,-1.,0.));
#414=DIRECTION('',(0.,0.,1.));
#415=DIRECTION('',(0.,1.,0.));
#416=DIRECTION('center_axis',(0.,-1.,0.));
#417=DIRECTION('ref_axis',(1.,0.,0.));
#418=DIRECTION('',(-1.,0.,0.));
#419=DIRECTION('',(1.,0.,0.));
#420=DIRECTION('center_axis',(0.,0.,1.));
#421=DIRECTION('ref_axis',(1.,0.,0.));
#422=DIRECTION('center_axis',(0.,0.,1.));
#423=DIRECTION('ref_axis',(1.,0.,0.));
#424=DIRECTION('center_axis',(0.,0.,1.));
#425=DIRECTION('ref_axis',(1.,0.,0.));
#426=DIRECTION('center_axis',(0.,0.,-1.));
#427=DIRECTION('ref_axis',(1.,0.,0.));
#428=DIRECTION('center_axis',(0.,0.,1.));
#429=DIRECTION('ref_axis',(1.,0.,0.));
#430=DIRECTION('center_axis',(0.,0.,1.));
#431=DIRECTION('ref_axis',(1.,0.,0.));
#432=DIRECTION('center_axis',(0.,0.,-1.));
#433=DIRECTION('ref_axis',(1.,0.,0.));
#434=DIRECTION('center_axis',(0.,0.,1.));
#435=DIRECTION('ref_axis',(1.,0.,0.));
#436=DIRECTION('center_axis',(0.,0.,-1.));
#437=DIRECTION('ref_axis',(1.,0.,0.));
#438=DIRECTION('center_axis',(0.,0.,1.));
#439=DIRECTION('ref_axis',(1.,0.,0.));
#440=DIRECTION('center_axis',(0.,0.,1.));
#441=DIRECTION('ref_axis',(1.,0.,0.));
#442=DIRECTION('center_axis',(0.,0.,-1.));
#443=DIRECTION('ref_axis',(1.,0.,0.));
#444=DIRECTION('center_axis',(0.,0.,1.));
#445=DIRECTION('ref_axis',(1.,0.,0.));
#446=DIRECTION('center_axis',(0.,0.,1.));
#447=DIRECTION('ref_axis',(1.,0.,0.));
#448=DIRECTION('center_axis',(0.,0.,1.));
#449=DIRECTION('ref_axis',(1.,0.,0.));
#450=DIRECTION('center_axis',(0.,0.,1.));
#451=DIRECTION('ref_axis',(1.,0.,0.));
#452=DIRECTION('center_axis',(0.,0.,1.));
#453=DIRECTION('ref_axis',(1.,0.,0.));
#454=DIRECTION('',(0.,0.,-1.));
#455=DIRECTION('center_axis',(0.,0.,1.));
#456=DIRECTION('ref_axis',(1.,0.,0.));
#457=DIRECTION('',(0.,0.,-1.));
#458=DIRECTION('center_axis',(0.,0.,1.));
#459=DIRECTION('ref_axis',(1.,0.,0.));
#460=DIRECTION('',(0.,0.,-1.));
#461=DIRECTION('center_axis',(0.,0.,1.));
#462=DIRECTION('ref_axis',(1.,0.,0.));
#463=DIRECTION('',(0.,0.,-1.));
#464=CARTESIAN_POINT('',(0.,0.,0.));
#465=CARTESIAN_POINT('Origin',(3.61247667010636E-16,3.16883963009675,7.5));
#466=CARTESIAN_POINT('',(1.5,3.16883963009675,7.5));
#467=CARTESIAN_POINT('Origin',(3.61247667010636E-16,3.16883963009675,7.5));
#468=CARTESIAN_POINT('',(1.5,0.668839630096747,7.5));
#469=CARTESIAN_POINT('',(1.5,3.16883963009675,7.5));
#470=CARTESIAN_POINT('Origin',(3.61247667010636E-16,0.668839630096747,7.5));
#471=CARTESIAN_POINT('Origin',(-0.537499999999999,5.72816981504837,8.));
#472=CARTESIAN_POINT('',(-2.5375,0.668839630096747,8.));
#473=CARTESIAN_POINT('',(-0.537499999999999,0.668839630096747,10.));
#474=CARTESIAN_POINT('Origin',(-0.537499999999999,0.668839630096747,8.));
#475=CARTESIAN_POINT('',(-0.537499999999999,3.16883963009675,10.));
#476=CARTESIAN_POINT('',(-0.537499999999999,5.72816981504837,10.));
#477=CARTESIAN_POINT('',(-2.5375,3.16883963009675,8.));
#478=CARTESIAN_POINT('Origin',(-0.537499999999999,3.16883963009675,8.));
#479=CARTESIAN_POINT('',(-2.5375,5.72816981504837,8.));
#480=CARTESIAN_POINT('Origin',(-2.5375,9.5375,0.));
#481=CARTESIAN_POINT('',(-2.5375,3.16883963009675,2.));
#482=CARTESIAN_POINT('',(-2.5375,3.16883963009675,2.));
#483=CARTESIAN_POINT('',(-2.5375,9.5375,2.));
#484=CARTESIAN_POINT('',(-2.5375,9.5375,2.));
#485=CARTESIAN_POINT('',(-2.5375,9.5375,0.));
#486=CARTESIAN_POINT('',(-2.5375,9.5375,0.));
#487=CARTESIAN_POINT('',(-2.5375,-9.5375,0.));
#488=CARTESIAN_POINT('',(-2.5375,9.5375,0.));
#489=CARTESIAN_POINT('',(-2.5375,-9.5375,2.));
#490=CARTESIAN_POINT('',(-2.5375,-9.5375,0.));
#491=CARTESIAN_POINT('',(-2.5375,0.668839630096747,2.));
#492=CARTESIAN_POINT('',(-2.5375,9.5375,2.));
#493=CARTESIAN_POINT('',(-2.5375,0.668839630096747,2.));
#494=CARTESIAN_POINT('Origin',(2.5375,3.16883963009675,2.));
#495=CARTESIAN_POINT('',(0.537499999999999,3.16883963009675,10.));
#496=CARTESIAN_POINT('',(-2.5375,3.16883963009675,10.));
#497=CARTESIAN_POINT('',(2.5375,3.16883963009675,8.));
#498=CARTESIAN_POINT('Origin',(0.537499999999999,3.16883963009675,8.));
#499=CARTESIAN_POINT('',(2.5375,3.16883963009675,2.));
#500=CARTESIAN_POINT('',(2.5375,3.16883963009675,2.));
#501=CARTESIAN_POINT('',(1.26875,3.16883963009675,2.));
#502=CARTESIAN_POINT('Origin',(0.537499999999999,-3.80933018495163,8.));
#503=CARTESIAN_POINT('',(0.537499999999999,0.668839630096747,10.));
#504=CARTESIAN_POINT('',(0.537499999999999,-3.80933018495163,10.));
#505=CARTESIAN_POINT('',(2.5375,0.668839630096747,8.));
#506=CARTESIAN_POINT('Origin',(0.537499999999999,0.668839630096747,8.));
#507=CARTESIAN_POINT('',(2.5375,-3.80933018495163,8.));
#508=CARTESIAN_POINT('Origin',(2.5375,-9.5375,0.));
#509=CARTESIAN_POINT('',(2.5375,0.668839630096747,2.));
#510=CARTESIAN_POINT('',(2.5375,0.668839630096747,2.));
#511=CARTESIAN_POINT('',(2.5375,-9.5375,2.));
#512=CARTESIAN_POINT('',(2.5375,9.5375,2.));
#513=CARTESIAN_POINT('',(2.5375,-9.5375,0.));
#514=CARTESIAN_POINT('',(2.5375,-9.5375,0.));
#515=CARTESIAN_POINT('',(2.5375,9.5375,0.));
#516=CARTESIAN_POINT('',(2.5375,9.5375,0.));
#517=CARTESIAN_POINT('',(2.5375,9.5375,2.));
#518=CARTESIAN_POINT('',(2.5375,9.5375,0.));
#519=CARTESIAN_POINT('',(2.5375,9.5375,2.));
#520=CARTESIAN_POINT('Origin',(-2.5375,0.668839630096747,2.));
#521=CARTESIAN_POINT('',(-1.26875,0.668839630096747,2.));
#522=CARTESIAN_POINT('',(-2.5375,0.668839630096747,10.));
#523=CARTESIAN_POINT('Origin',(0.,1.91883963009675,10.));
#524=CARTESIAN_POINT('Origin',(0.,0.,2.));
#525=CARTESIAN_POINT('Origin',(0.,9.5375,2.));
#526=CARTESIAN_POINT('',(-1.5375,9.5375,2.));
#527=CARTESIAN_POINT('Origin',(0.,9.5375,2.));
#528=CARTESIAN_POINT('Origin',(0.,0.,2.));
#529=CARTESIAN_POINT('Origin',(0.,-9.5375,2.));
#530=CARTESIAN_POINT('',(-1.5375,-9.5375,2.));
#531=CARTESIAN_POINT('Origin',(0.,-9.5375,2.));
#532=CARTESIAN_POINT('Origin',(0.,9.5375,-3.));
#533=CARTESIAN_POINT('',(-2.5375,9.5375,-3.));
#534=CARTESIAN_POINT('Origin',(0.,9.5375,-3.));
#535=CARTESIAN_POINT('',(-1.5375,9.5375,-3.));
#536=CARTESIAN_POINT('Origin',(0.,9.5375,-3.));
#537=CARTESIAN_POINT('Origin',(0.,-9.5375,-3.));
#538=CARTESIAN_POINT('',(-2.5375,-9.5375,-3.));
#539=CARTESIAN_POINT('Origin',(0.,-9.5375,-3.));
#540=CARTESIAN_POINT('',(-1.5375,-9.5375,-3.));
#541=CARTESIAN_POINT('Origin',(0.,-9.5375,-3.));
#542=CARTESIAN_POINT('Origin',(0.,0.,0.));
#543=CARTESIAN_POINT('Origin',(0.,9.5375,0.));
#544=CARTESIAN_POINT('Origin',(0.,-9.5375,0.));
#545=CARTESIAN_POINT('Origin',(0.,9.5375,0.));
#546=CARTESIAN_POINT('',(-1.5375,9.5375,0.));
#547=CARTESIAN_POINT('Origin',(0.,-9.5375,0.));
#548=CARTESIAN_POINT('',(-1.5375,-9.5375,0.));
#549=CARTESIAN_POINT('Origin',(0.,-9.5375,0.));
#550=CARTESIAN_POINT('',(-2.5375,-9.5375,0.));
#551=CARTESIAN_POINT('Origin',(0.,9.5375,0.));
#552=CARTESIAN_POINT('',(-2.5375,9.5375,0.));
#553=UNCERTAINTY_MEASURE_WITH_UNIT(LENGTH_MEASURE(0.01),#557,
'DISTANCE_ACCURACY_VALUE',
'Maximum model space distance between geometric entities at asserted c
onnectivities');
#554=UNCERTAINTY_MEASURE_WITH_UNIT(LENGTH_MEASURE(0.01),#557,
'DISTANCE_ACCURACY_VALUE',
'Maximum model space distance between geometric entities at asserted c
onnectivities');
#555=(
GEOMETRIC_REPRESENTATION_CONTEXT(3)
GLOBAL_UNCERTAINTY_ASSIGNED_CONTEXT((#553))
GLOBAL_UNIT_ASSIGNED_CONTEXT((#557,#559,#560))
REPRESENTATION_CONTEXT('','3D')
);
#556=(
GEOMETRIC_REPRESENTATION_CONTEXT(3)
GLOBAL_UNCERTAINTY_ASSIGNED_CONTEXT((#554))
GLOBAL_UNIT_ASSIGNED_CONTEXT((#557,#559,#560))
REPRESENTATION_CONTEXT('','3D')
);
#557=(
LENGTH_UNIT()
NAMED_UNIT(*)
SI_UNIT(.MILLI.,.METRE.)
);
#558=(
LENGTH_UNIT()
NAMED_UNIT(*)
SI_UNIT($,.METRE.)
);
#559=(
NAMED_UNIT(*)
PLANE_ANGLE_UNIT()
SI_UNIT($,.RADIAN.)
);
#560=(
NAMED_UNIT(*)
SI_UNIT($,.STERADIAN.)
SOLID_ANGLE_UNIT()
);
#561=SHAPE_DEFINITION_REPRESENTATION(#562,#563);
#562=PRODUCT_DEFINITION_SHAPE('',$,#565);
#563=SHAPE_REPRESENTATION('',(#335),#555);
#564=PRODUCT_DEFINITION_CONTEXT('part definition',#569,'design');
#565=PRODUCT_DEFINITION('DriverSupport','DriverSupport v4',#566,#564);
#566=PRODUCT_DEFINITION_FORMATION('',$,#571);
#567=PRODUCT_RELATED_PRODUCT_CATEGORY('DriverSupport v4',
'DriverSupport v4',(#571));
#568=APPLICATION_PROTOCOL_DEFINITION('international standard',
'automotive_design',2009,#569);
#569=APPLICATION_CONTEXT(
'Core Data for Automotive Mechanical Design Process');
#570=PRODUCT_CONTEXT('part definition',#569,'mechanical');
#571=PRODUCT('DriverSupport','DriverSupport v4',$,(#570));
#572=PRESENTATION_STYLE_ASSIGNMENT((#574));
#573=PRESENTATION_STYLE_ASSIGNMENT((#575));
#574=SURFACE_STYLE_USAGE(.BOTH.,#576);
#575=SURFACE_STYLE_USAGE(.BOTH.,#577);
#576=SURFACE_SIDE_STYLE('',(#578));
#577=SURFACE_SIDE_STYLE('',(#579));
#578=SURFACE_STYLE_FILL_AREA(#580);
#579=SURFACE_STYLE_FILL_AREA(#581);
#580=FILL_AREA_STYLE('Steel - Satin',(#582));
#581=FILL_AREA_STYLE('Plastic - Matte (White)',(#583));
#582=FILL_AREA_STYLE_COLOUR('Steel - Satin',#584);
#583=FILL_AREA_STYLE_COLOUR('Plastic - Matte (White)',#585);
#584=COLOUR_RGB('Steel - Satin',0.627450980392157,0.627450980392157,0.627450980392157);
#585=COLOUR_RGB('Plastic - Matte (White)',0.964705882352941,0.964705882352941,
0.952941176470588);
ENDSEC;
END-ISO-10303-21;
