ISO-10303-21;
HEADER;
/* Generated by software containing ST-Developer
 * from STEP Tools, Inc. (www.steptools.com) 
 */

FILE_DESCRIPTION(
/* description */ (''),
/* implementation_level */ '2;1');

FILE_NAME(
/* name */ 'ServoMount_v42.step',
/* time_stamp */ '2026-08-21T09:15:27-04:00',
/* author */ (''),
/* organization */ (''),
/* preprocessor_version */ 'ST-DEVELOPER v20.1',
/* originating_system */ 'Autodesk Translation Framework v15.8.0.0',
/* authorisation */ '');

FILE_SCHEMA (('AUTOMOTIVE_DESIGN { 1 0 10303 214 3 1 1 }'));
ENDSEC;

DATA;
#10=MECHANICAL_DESIGN_GEOMETRIC_PRESENTATION_REPRESENTATION('',(#13),#1702);
#11=SHAPE_REPRESENTATION_RELATIONSHIP('SRR','None',#1709,#12);
#12=ADVANCED_BREP_SHAPE_REPRESENTATION('',(#14),#1701);
#13=STYLED_ITEM('',(#1719),#14);
#14=MANIFOLD_SOLID_BREP('Body1',#1022);
#15=ELLIPSE('',#1084,2.53856652971436,2.5);
#16=ELLIPSE('',#1089,2.53856652971436,2.5);
#17=FACE_BOUND('',#123,.T.);
#18=FACE_BOUND('',#126,.T.);
#19=FACE_BOUND('',#129,.T.);
#20=FACE_BOUND('',#132,.T.);
#21=FACE_BOUND('',#134,.T.);
#22=FACE_BOUND('',#135,.T.);
#23=FACE_BOUND('',#137,.T.);
#24=FACE_BOUND('',#138,.T.);
#25=FACE_BOUND('',#144,.T.);
#26=FACE_BOUND('',#149,.T.);
#27=FACE_BOUND('',#151,.T.);
#28=FACE_BOUND('',#152,.T.);
#29=FACE_BOUND('',#155,.T.);
#30=FACE_BOUND('',#158,.T.);
#31=FACE_BOUND('',#174,.T.);
#32=FACE_BOUND('',#175,.T.);
#33=PLANE('',#1039);
#34=PLANE('',#1044);
#35=PLANE('',#1049);
#36=PLANE('',#1054);
#37=PLANE('',#1056);
#38=PLANE('',#1061);
#39=PLANE('',#1066);
#40=PLANE('',#1067);
#41=PLANE('',#1068);
#42=PLANE('',#1072);
#43=PLANE('',#1076);
#44=PLANE('',#1080);
#45=PLANE('',#1081);
#46=PLANE('',#1085);
#47=PLANE('',#1090);
#48=PLANE('',#1091);
#49=PLANE('',#1094);
#50=PLANE('',#1095);
#51=PLANE('',#1096);
#52=PLANE('',#1097);
#53=PLANE('',#1098);
#54=PLANE('',#1099);
#55=PLANE('',#1100);
#56=PLANE('',#1101);
#57=PLANE('',#1103);
#58=PLANE('',#1104);
#59=PLANE('',#1108);
#60=PLANE('',#1109);
#61=PLANE('',#1110);
#62=PLANE('',#1112);
#63=PLANE('',#1114);
#64=PLANE('',#1117);
#65=PLANE('',#1118);
#66=PLANE('',#1123);
#67=PLANE('',#1124);
#68=FACE_OUTER_BOUND('',#121,.T.);
#69=FACE_OUTER_BOUND('',#122,.T.);
#70=FACE_OUTER_BOUND('',#124,.T.);
#71=FACE_OUTER_BOUND('',#125,.T.);
#72=FACE_OUTER_BOUND('',#127,.T.);
#73=FACE_OUTER_BOUND('',#128,.T.);
#74=FACE_OUTER_BOUND('',#130,.T.);
#75=FACE_OUTER_BOUND('',#131,.T.);
#76=FACE_OUTER_BOUND('',#133,.T.);
#77=FACE_OUTER_BOUND('',#136,.T.);
#78=FACE_OUTER_BOUND('',#139,.T.);
#79=FACE_OUTER_BOUND('',#140,.T.);
#80=FACE_OUTER_BOUND('',#141,.T.);
#81=FACE_OUTER_BOUND('',#142,.T.);
#82=FACE_OUTER_BOUND('',#143,.T.);
#83=FACE_OUTER_BOUND('',#145,.T.);
#84=FACE_OUTER_BOUND('',#146,.T.);
#85=FACE_OUTER_BOUND('',#147,.T.);
#86=FACE_OUTER_BOUND('',#148,.T.);
#87=FACE_OUTER_BOUND('',#150,.T.);
#88=FACE_OUTER_BOUND('',#153,.T.);
#89=FACE_OUTER_BOUND('',#154,.T.);
#90=FACE_OUTER_BOUND('',#156,.T.);
#91=FACE_OUTER_BOUND('',#157,.T.);
#92=FACE_OUTER_BOUND('',#159,.T.);
#93=FACE_OUTER_BOUND('',#160,.T.);
#94=FACE_OUTER_BOUND('',#161,.T.);
#95=FACE_OUTER_BOUND('',#162,.T.);
#96=FACE_OUTER_BOUND('',#163,.T.);
#97=FACE_OUTER_BOUND('',#164,.T.);
#98=FACE_OUTER_BOUND('',#165,.T.);
#99=FACE_OUTER_BOUND('',#166,.T.);
#100=FACE_OUTER_BOUND('',#167,.T.);
#101=FACE_OUTER_BOUND('',#168,.T.);
#102=FACE_OUTER_BOUND('',#169,.T.);
#103=FACE_OUTER_BOUND('',#170,.T.);
#104=FACE_OUTER_BOUND('',#171,.T.);
#105=FACE_OUTER_BOUND('',#172,.T.);
#106=FACE_OUTER_BOUND('',#173,.T.);
#107=FACE_OUTER_BOUND('',#176,.T.);
#108=FACE_OUTER_BOUND('',#177,.T.);
#109=FACE_OUTER_BOUND('',#178,.T.);
#110=FACE_OUTER_BOUND('',#179,.T.);
#111=FACE_OUTER_BOUND('',#180,.T.);
#112=FACE_OUTER_BOUND('',#181,.T.);
#113=FACE_OUTER_BOUND('',#182,.T.);
#114=FACE_OUTER_BOUND('',#183,.T.);
#115=FACE_OUTER_BOUND('',#184,.T.);
#116=FACE_OUTER_BOUND('',#185,.T.);
#117=FACE_OUTER_BOUND('',#186,.T.);
#118=FACE_OUTER_BOUND('',#187,.T.);
#119=FACE_OUTER_BOUND('',#188,.T.);
#120=FACE_OUTER_BOUND('',#189,.T.);
#121=EDGE_LOOP('',(#669,#670,#671,#672));
#122=EDGE_LOOP('',(#673));
#123=EDGE_LOOP('',(#674));
#124=EDGE_LOOP('',(#675,#676,#677,#678));
#125=EDGE_LOOP('',(#679));
#126=EDGE_LOOP('',(#680));
#127=EDGE_LOOP('',(#681,#682,#683,#684));
#128=EDGE_LOOP('',(#685));
#129=EDGE_LOOP('',(#686));
#130=EDGE_LOOP('',(#687,#688,#689,#690));
#131=EDGE_LOOP('',(#691));
#132=EDGE_LOOP('',(#692));
#133=EDGE_LOOP('',(#693,#694,#695,#696));
#134=EDGE_LOOP('',(#697));
#135=EDGE_LOOP('',(#698));
#136=EDGE_LOOP('',(#699,#700,#701,#702));
#137=EDGE_LOOP('',(#703));
#138=EDGE_LOOP('',(#704));
#139=EDGE_LOOP('',(#705,#706,#707,#708));
#140=EDGE_LOOP('',(#709,#710,#711,#712,#713,#714));
#141=EDGE_LOOP('',(#715,#716,#717,#718,#719,#720));
#142=EDGE_LOOP('',(#721,#722,#723,#724));
#143=EDGE_LOOP('',(#725));
#144=EDGE_LOOP('',(#726));
#145=EDGE_LOOP('',(#727,#728,#729,#730));
#146=EDGE_LOOP('',(#731,#732,#733,#734));
#147=EDGE_LOOP('',(#735,#736,#737,#738));
#148=EDGE_LOOP('',(#739,#740,#741,#742,#743));
#149=EDGE_LOOP('',(#744));
#150=EDGE_LOOP('',(#745,#746,#747,#748));
#151=EDGE_LOOP('',(#749));
#152=EDGE_LOOP('',(#750));
#153=EDGE_LOOP('',(#751,#752,#753,#754));
#154=EDGE_LOOP('',(#755,#756,#757,#758,#759,#760));
#155=EDGE_LOOP('',(#761));
#156=EDGE_LOOP('',(#762,#763,#764,#765));
#157=EDGE_LOOP('',(#766,#767,#768,#769,#770,#771,#772,#773,#774,#775,#776,
#777,#778,#779,#780,#781,#782,#783,#784,#785,#786,#787,#788));
#158=EDGE_LOOP('',(#789));
#159=EDGE_LOOP('',(#790,#791,#792,#793,#794));
#160=EDGE_LOOP('',(#795,#796,#797,#798));
#161=EDGE_LOOP('',(#799));
#162=EDGE_LOOP('',(#800,#801,#802,#803,#804,#805,#806,#807,#808,#809,#810));
#163=EDGE_LOOP('',(#811,#812,#813,#814));
#164=EDGE_LOOP('',(#815,#816,#817,#818,#819,#820));
#165=EDGE_LOOP('',(#821,#822,#823,#824));
#166=EDGE_LOOP('',(#825,#826,#827,#828));
#167=EDGE_LOOP('',(#829,#830,#831,#832));
#168=EDGE_LOOP('',(#833,#834,#835,#836));
#169=EDGE_LOOP('',(#837,#838,#839,#840));
#170=EDGE_LOOP('',(#841,#842,#843,#844));
#171=EDGE_LOOP('',(#845,#846,#847,#848));
#172=EDGE_LOOP('',(#849,#850,#851,#852));
#173=EDGE_LOOP('',(#853,#854,#855,#856,#857,#858));
#174=EDGE_LOOP('',(#859));
#175=EDGE_LOOP('',(#860));
#176=EDGE_LOOP('',(#861,#862,#863,#864,#865,#866,#867,#868));
#177=EDGE_LOOP('',(#869,#870,#871,#872,#873,#874,#875,#876));
#178=EDGE_LOOP('',(#877,#878,#879,#880));
#179=EDGE_LOOP('',(#881,#882,#883,#884,#885,#886,#887,#888,#889,#890,#891,
#892,#893,#894,#895,#896));
#180=EDGE_LOOP('',(#897,#898,#899,#900));
#181=EDGE_LOOP('',(#901,#902,#903,#904));
#182=EDGE_LOOP('',(#905,#906,#907,#908,#909,#910,#911,#912));
#183=EDGE_LOOP('',(#913,#914,#915,#916,#917,#918,#919,#920,#921,#922,#923,
#924));
#184=EDGE_LOOP('',(#925,#926,#927,#928));
#185=EDGE_LOOP('',(#929,#930,#931,#932));
#186=EDGE_LOOP('',(#933,#934,#935,#936));
#187=EDGE_LOOP('',(#937,#938,#939,#940));
#188=EDGE_LOOP('',(#941,#942,#943,#944));
#189=EDGE_LOOP('',(#945,#946,#947,#948,#949,#950));
#190=LINE('',#1415,#295);
#191=LINE('',#1424,#296);
#192=LINE('',#1433,#297);
#193=LINE('',#1442,#298);
#194=LINE('',#1452,#299);
#195=LINE('',#1455,#300);
#196=LINE('',#1463,#301);
#197=LINE('',#1467,#302);
#198=LINE('',#1476,#303);
#199=LINE('',#1478,#304);
#200=LINE('',#1480,#305);
#201=LINE('',#1481,#306);
#202=LINE('',#1484,#307);
#203=LINE('',#1486,#308);
#204=LINE('',#1488,#309);
#205=LINE('',#1490,#310);
#206=LINE('',#1491,#311);
#207=LINE('',#1494,#312);
#208=LINE('',#1496,#313);
#209=LINE('',#1498,#314);
#210=LINE('',#1500,#315);
#211=LINE('',#1501,#316);
#212=LINE('',#1506,#317);
#213=LINE('',#1514,#318);
#214=LINE('',#1518,#319);
#215=LINE('',#1520,#320);
#216=LINE('',#1522,#321);
#217=LINE('',#1523,#322);
#218=LINE('',#1529,#323);
#219=LINE('',#1532,#324);
#220=LINE('',#1534,#325);
#221=LINE('',#1535,#326);
#222=LINE('',#1539,#327);
#223=LINE('',#1541,#328);
#224=LINE('',#1543,#329);
#225=LINE('',#1544,#330);
#226=LINE('',#1550,#331);
#227=LINE('',#1553,#332);
#228=LINE('',#1557,#333);
#229=LINE('',#1558,#334);
#230=LINE('',#1563,#335);
#231=LINE('',#1566,#336);
#232=LINE('',#1569,#337);
#233=LINE('',#1570,#338);
#234=LINE('',#1572,#339);
#235=LINE('',#1574,#340);
#236=LINE('',#1576,#341);
#237=LINE('',#1578,#342);
#238=LINE('',#1579,#343);
#239=LINE('',#1581,#344);
#240=LINE('',#1583,#345);
#241=LINE('',#1585,#346);
#242=LINE('',#1587,#347);
#243=LINE('',#1589,#348);
#244=LINE('',#1591,#349);
#245=LINE('',#1592,#350);
#246=LINE('',#1593,#351);
#247=LINE('',#1594,#352);
#248=LINE('',#1596,#353);
#249=LINE('',#1599,#354);
#250=LINE('',#1604,#355);
#251=LINE('',#1606,#356);
#252=LINE('',#1608,#357);
#253=LINE('',#1610,#358);
#254=LINE('',#1611,#359);
#255=LINE('',#1613,#360);
#256=LINE('',#1617,#361);
#257=LINE('',#1619,#362);
#258=LINE('',#1620,#363);
#259=LINE('',#1623,#364);
#260=LINE('',#1624,#365);
#261=LINE('',#1627,#366);
#262=LINE('',#1628,#367);
#263=LINE('',#1632,#368);
#264=LINE('',#1634,#369);
#265=LINE('',#1637,#370);
#266=LINE('',#1640,#371);
#267=LINE('',#1641,#372);
#268=LINE('',#1644,#373);
#269=LINE('',#1645,#374);
#270=LINE('',#1650,#375);
#271=LINE('',#1651,#376);
#272=LINE('',#1653,#377);
#273=LINE('',#1654,#378);
#274=LINE('',#1657,#379);
#275=LINE('',#1658,#380);
#276=LINE('',#1660,#381);
#277=LINE('',#1661,#382);
#278=LINE('',#1663,#383);
#279=LINE('',#1664,#384);
#280=LINE('',#1667,#385);
#281=LINE('',#1670,#386);
#282=LINE('',#1671,#387);
#283=LINE('',#1674,#388);
#284=LINE('',#1677,#389);
#285=LINE('',#1679,#390);
#286=LINE('',#1680,#391);
#287=LINE('',#1681,#392);
#288=LINE('',#1683,#393);
#289=LINE('',#1685,#394);
#290=LINE('',#1687,#395);
#291=LINE('',#1690,#396);
#292=LINE('',#1692,#397);
#293=LINE('',#1694,#398);
#294=LINE('',#1696,#399);
#295=VECTOR('',#1131,1.625);
#296=VECTOR('',#1142,1.625);
#297=VECTOR('',#1153,1.625);
#298=VECTOR('',#1164,1.625);
#299=VECTOR('',#1175,10.);
#300=VECTOR('',#1178,10.);
#301=VECTOR('',#1185,10.);
#302=VECTOR('',#1188,10.);
#303=VECTOR('',#1197,10.);
#304=VECTOR('',#1198,10.);
#305=VECTOR('',#1199,10.);
#306=VECTOR('',#1200,10.);
#307=VECTOR('',#1203,10.);
#308=VECTOR('',#1204,10.);
#309=VECTOR('',#1205,10.);
#310=VECTOR('',#1206,10.);
#311=VECTOR('',#1207,10.);
#312=VECTOR('',#1210,10.);
#313=VECTOR('',#1211,10.);
#314=VECTOR('',#1212,10.);
#315=VECTOR('',#1213,10.);
#316=VECTOR('',#1214,10.);
#317=VECTOR('',#1219,1.65);
#318=VECTOR('',#1230,2.1);
#319=VECTOR('',#1233,10.);
#320=VECTOR('',#1234,10.);
#321=VECTOR('',#1235,10.);
#322=VECTOR('',#1236,10.);
#323=VECTOR('',#1243,10.);
#324=VECTOR('',#1246,10.);
#325=VECTOR('',#1247,10.);
#326=VECTOR('',#1248,10.);
#327=VECTOR('',#1251,10.);
#328=VECTOR('',#1252,10.);
#329=VECTOR('',#1253,10.);
#330=VECTOR('',#1254,10.);
#331=VECTOR('',#1261,10.);
#332=VECTOR('',#1264,10.);
#333=VECTOR('',#1267,10.);
#334=VECTOR('',#1268,10.);
#335=VECTOR('',#1273,10.);
#336=VECTOR('',#1276,10.);
#337=VECTOR('',#1279,10.);
#338=VECTOR('',#1280,10.);
#339=VECTOR('',#1281,10.);
#340=VECTOR('',#1282,10.);
#341=VECTOR('',#1283,10.);
#342=VECTOR('',#1284,10.);
#343=VECTOR('',#1285,10.);
#344=VECTOR('',#1286,10.);
#345=VECTOR('',#1287,10.);
#346=VECTOR('',#1288,10.);
#347=VECTOR('',#1289,10.);
#348=VECTOR('',#1290,10.);
#349=VECTOR('',#1291,10.);
#350=VECTOR('',#1292,10.);
#351=VECTOR('',#1293,10.);
#352=VECTOR('',#1294,10.);
#353=VECTOR('',#1297,10.);
#354=VECTOR('',#1300,1.7);
#355=VECTOR('',#1307,10.);
#356=VECTOR('',#1308,10.);
#357=VECTOR('',#1309,10.);
#358=VECTOR('',#1310,10.);
#359=VECTOR('',#1311,10.);
#360=VECTOR('',#1314,10.);
#361=VECTOR('',#1319,10.);
#362=VECTOR('',#1320,10.);
#363=VECTOR('',#1321,10.);
#364=VECTOR('',#1324,10.);
#365=VECTOR('',#1325,10.);
#366=VECTOR('',#1328,10.);
#367=VECTOR('',#1329,10.);
#368=VECTOR('',#1332,10.);
#369=VECTOR('',#1333,10.);
#370=VECTOR('',#1336,10.);
#371=VECTOR('',#1339,10.);
#372=VECTOR('',#1340,10.);
#373=VECTOR('',#1343,10.);
#374=VECTOR('',#1344,10.);
#375=VECTOR('',#1349,10.);
#376=VECTOR('',#1350,10.);
#377=VECTOR('',#1353,10.);
#378=VECTOR('',#1354,10.);
#379=VECTOR('',#1357,10.);
#380=VECTOR('',#1358,10.);
#381=VECTOR('',#1359,10.);
#382=VECTOR('',#1360,10.);
#383=VECTOR('',#1363,10.);
#384=VECTOR('',#1364,10.);
#385=VECTOR('',#1367,10.);
#386=VECTOR('',#1370,10.);
#387=VECTOR('',#1371,10.);
#388=VECTOR('',#1374,10.);
#389=VECTOR('',#1377,10.);
#390=VECTOR('',#1380,10.);
#391=VECTOR('',#1381,10.);
#392=VECTOR('',#1382,10.);
#393=VECTOR('',#1385,10.);
#394=VECTOR('',#1388,10.);
#395=VECTOR('',#1391,10.);
#396=VECTOR('',#1396,2.1);
#397=VECTOR('',#1399,2.1);
#398=VECTOR('',#1402,2.1);
#399=VECTOR('',#1405,2.1);
#400=CIRCLE('',#1037,1.625);
#401=CIRCLE('',#1038,1.625);
#402=CIRCLE('',#1040,2.05);
#403=CIRCLE('',#1042,1.625);
#404=CIRCLE('',#1043,1.625);
#405=CIRCLE('',#1045,2.05);
#406=CIRCLE('',#1047,1.625);
#407=CIRCLE('',#1048,1.625);
#408=CIRCLE('',#1050,2.05);
#409=CIRCLE('',#1052,1.625);
#410=CIRCLE('',#1053,1.625);
#411=CIRCLE('',#1055,2.05);
#412=CIRCLE('',#1057,3.23999999999999);
#413=CIRCLE('',#1058,3.23999999999999);
#414=CIRCLE('',#1059,2.05);
#415=CIRCLE('',#1060,2.05);
#416=CIRCLE('',#1062,3.23999999999999);
#417=CIRCLE('',#1063,3.23999999999999);
#418=CIRCLE('',#1064,2.05);
#419=CIRCLE('',#1065,2.05);
#420=CIRCLE('',#1070,1.65);
#421=CIRCLE('',#1071,1.65);
#422=CIRCLE('',#1073,2.05);
#423=CIRCLE('',#1075,2.05);
#424=CIRCLE('',#1078,3.8);
#425=CIRCLE('',#1079,3.8);
#426=CIRCLE('',#1083,2.5);
#427=CIRCLE('',#1086,2.5);
#428=CIRCLE('',#1087,1.7);
#429=CIRCLE('',#1093,1.7);
#430=CIRCLE('',#1102,3.23999999999999);
#431=CIRCLE('',#1106,3.23999999999999);
#432=CIRCLE('',#1111,3.23999999999999);
#433=CIRCLE('',#1113,3.23999999999999);
#434=VERTEX_POINT('',#1412);
#435=VERTEX_POINT('',#1414);
#436=VERTEX_POINT('',#1418);
#437=VERTEX_POINT('',#1421);
#438=VERTEX_POINT('',#1423);
#439=VERTEX_POINT('',#1427);
#440=VERTEX_POINT('',#1430);
#441=VERTEX_POINT('',#1432);
#442=VERTEX_POINT('',#1436);
#443=VERTEX_POINT('',#1439);
#444=VERTEX_POINT('',#1441);
#445=VERTEX_POINT('',#1445);
#446=VERTEX_POINT('',#1448);
#447=VERTEX_POINT('',#1449);
#448=VERTEX_POINT('',#1451);
#449=VERTEX_POINT('',#1453);
#450=VERTEX_POINT('',#1456);
#451=VERTEX_POINT('',#1458);
#452=VERTEX_POINT('',#1461);
#453=VERTEX_POINT('',#1462);
#454=VERTEX_POINT('',#1464);
#455=VERTEX_POINT('',#1466);
#456=VERTEX_POINT('',#1469);
#457=VERTEX_POINT('',#1471);
#458=VERTEX_POINT('',#1474);
#459=VERTEX_POINT('',#1475);
#460=VERTEX_POINT('',#1477);
#461=VERTEX_POINT('',#1479);
#462=VERTEX_POINT('',#1483);
#463=VERTEX_POINT('',#1485);
#464=VERTEX_POINT('',#1487);
#465=VERTEX_POINT('',#1489);
#466=VERTEX_POINT('',#1493);
#467=VERTEX_POINT('',#1495);
#468=VERTEX_POINT('',#1497);
#469=VERTEX_POINT('',#1499);
#470=VERTEX_POINT('',#1503);
#471=VERTEX_POINT('',#1505);
#472=VERTEX_POINT('',#1509);
#473=VERTEX_POINT('',#1512);
#474=VERTEX_POINT('',#1516);
#475=VERTEX_POINT('',#1517);
#476=VERTEX_POINT('',#1519);
#477=VERTEX_POINT('',#1521);
#478=VERTEX_POINT('',#1525);
#479=VERTEX_POINT('',#1527);
#480=VERTEX_POINT('',#1531);
#481=VERTEX_POINT('',#1533);
#482=VERTEX_POINT('',#1537);
#483=VERTEX_POINT('',#1538);
#484=VERTEX_POINT('',#1540);
#485=VERTEX_POINT('',#1542);
#486=VERTEX_POINT('',#1546);
#487=VERTEX_POINT('',#1548);
#488=VERTEX_POINT('',#1552);
#489=VERTEX_POINT('',#1554);
#490=VERTEX_POINT('',#1556);
#491=VERTEX_POINT('',#1559);
#492=VERTEX_POINT('',#1562);
#493=VERTEX_POINT('',#1564);
#494=VERTEX_POINT('',#1568);
#495=VERTEX_POINT('',#1571);
#496=VERTEX_POINT('',#1573);
#497=VERTEX_POINT('',#1575);
#498=VERTEX_POINT('',#1577);
#499=VERTEX_POINT('',#1580);
#500=VERTEX_POINT('',#1582);
#501=VERTEX_POINT('',#1584);
#502=VERTEX_POINT('',#1586);
#503=VERTEX_POINT('',#1588);
#504=VERTEX_POINT('',#1590);
#505=VERTEX_POINT('',#1598);
#506=VERTEX_POINT('',#1603);
#507=VERTEX_POINT('',#1605);
#508=VERTEX_POINT('',#1607);
#509=VERTEX_POINT('',#1609);
#510=VERTEX_POINT('',#1616);
#511=VERTEX_POINT('',#1618);
#512=VERTEX_POINT('',#1622);
#513=VERTEX_POINT('',#1626);
#514=VERTEX_POINT('',#1630);
#515=VERTEX_POINT('',#1631);
#516=VERTEX_POINT('',#1633);
#517=VERTEX_POINT('',#1635);
#518=VERTEX_POINT('',#1639);
#519=VERTEX_POINT('',#1643);
#520=VERTEX_POINT('',#1647);
#521=VERTEX_POINT('',#1648);
#522=VERTEX_POINT('',#1656);
#523=VERTEX_POINT('',#1659);
#524=VERTEX_POINT('',#1666);
#525=VERTEX_POINT('',#1669);
#526=VERTEX_POINT('',#1673);
#527=VERTEX_POINT('',#1675);
#528=EDGE_CURVE('',#434,#434,#400,.T.);
#529=EDGE_CURVE('',#434,#435,#190,.T.);
#530=EDGE_CURVE('',#435,#435,#401,.T.);
#531=EDGE_CURVE('',#436,#436,#402,.T.);
#532=EDGE_CURVE('',#437,#437,#403,.T.);
#533=EDGE_CURVE('',#437,#438,#191,.T.);
#534=EDGE_CURVE('',#438,#438,#404,.T.);
#535=EDGE_CURVE('',#439,#439,#405,.T.);
#536=EDGE_CURVE('',#440,#440,#406,.T.);
#537=EDGE_CURVE('',#440,#441,#192,.T.);
#538=EDGE_CURVE('',#441,#441,#407,.T.);
#539=EDGE_CURVE('',#442,#442,#408,.T.);
#540=EDGE_CURVE('',#443,#443,#409,.T.);
#541=EDGE_CURVE('',#443,#444,#193,.T.);
#542=EDGE_CURVE('',#444,#444,#410,.T.);
#543=EDGE_CURVE('',#445,#445,#411,.T.);
#544=EDGE_CURVE('',#446,#447,#412,.T.);
#545=EDGE_CURVE('',#447,#448,#194,.T.);
#546=EDGE_CURVE('',#448,#449,#413,.T.);
#547=EDGE_CURVE('',#449,#446,#195,.T.);
#548=EDGE_CURVE('',#450,#450,#414,.T.);
#549=EDGE_CURVE('',#451,#451,#415,.T.);
#550=EDGE_CURVE('',#452,#453,#196,.T.);
#551=EDGE_CURVE('',#453,#454,#416,.T.);
#552=EDGE_CURVE('',#454,#455,#197,.T.);
#553=EDGE_CURVE('',#455,#452,#417,.T.);
#554=EDGE_CURVE('',#456,#456,#418,.T.);
#555=EDGE_CURVE('',#457,#457,#419,.T.);
#556=EDGE_CURVE('',#458,#459,#198,.F.);
#557=EDGE_CURVE('',#459,#460,#199,.T.);
#558=EDGE_CURVE('',#460,#461,#200,.F.);
#559=EDGE_CURVE('',#461,#458,#201,.T.);
#560=EDGE_CURVE('',#462,#459,#202,.T.);
#561=EDGE_CURVE('',#463,#462,#203,.T.);
#562=EDGE_CURVE('',#464,#463,#204,.T.);
#563=EDGE_CURVE('',#464,#465,#205,.T.);
#564=EDGE_CURVE('',#465,#460,#206,.F.);
#565=EDGE_CURVE('',#461,#466,#207,.F.);
#566=EDGE_CURVE('',#466,#467,#208,.T.);
#567=EDGE_CURVE('',#467,#468,#209,.F.);
#568=EDGE_CURVE('',#468,#469,#210,.T.);
#569=EDGE_CURVE('',#469,#458,#211,.T.);
#570=EDGE_CURVE('',#470,#470,#420,.T.);
#571=EDGE_CURVE('',#470,#471,#212,.T.);
#572=EDGE_CURVE('',#471,#471,#421,.T.);
#573=EDGE_CURVE('',#472,#472,#422,.T.);
#574=EDGE_CURVE('',#473,#473,#423,.T.);
#575=EDGE_CURVE('',#473,#472,#213,.T.);
#576=EDGE_CURVE('',#474,#475,#214,.F.);
#577=EDGE_CURVE('',#474,#476,#215,.F.);
#578=EDGE_CURVE('',#477,#476,#216,.T.);
#579=EDGE_CURVE('',#475,#477,#217,.T.);
#580=EDGE_CURVE('',#475,#478,#424,.F.);
#581=EDGE_CURVE('',#479,#477,#425,.T.);
#582=EDGE_CURVE('',#478,#479,#218,.T.);
#583=EDGE_CURVE('',#476,#480,#219,.T.);
#584=EDGE_CURVE('',#481,#480,#220,.T.);
#585=EDGE_CURVE('',#481,#479,#221,.T.);
#586=EDGE_CURVE('',#482,#483,#222,.T.);
#587=EDGE_CURVE('',#483,#484,#223,.T.);
#588=EDGE_CURVE('',#484,#485,#224,.T.);
#589=EDGE_CURVE('',#482,#485,#225,.T.);
#590=EDGE_CURVE('',#486,#464,#426,.T.);
#591=EDGE_CURVE('',#463,#487,#15,.T.);
#592=EDGE_CURVE('',#487,#486,#226,.T.);
#593=EDGE_CURVE('',#488,#486,#227,.T.);
#594=EDGE_CURVE('',#489,#488,#427,.T.);
#595=EDGE_CURVE('',#490,#489,#228,.T.);
#596=EDGE_CURVE('',#490,#465,#229,.F.);
#597=EDGE_CURVE('',#491,#491,#428,.T.);
#598=EDGE_CURVE('',#488,#492,#230,.T.);
#599=EDGE_CURVE('',#492,#493,#16,.T.);
#600=EDGE_CURVE('',#493,#489,#231,.T.);
#601=EDGE_CURVE('',#493,#494,#232,.T.);
#602=EDGE_CURVE('',#469,#494,#233,.T.);
#603=EDGE_CURVE('',#495,#468,#234,.T.);
#604=EDGE_CURVE('',#496,#495,#235,.F.);
#605=EDGE_CURVE('',#496,#497,#236,.F.);
#606=EDGE_CURVE('',#498,#497,#237,.T.);
#607=EDGE_CURVE('',#498,#455,#238,.T.);
#608=EDGE_CURVE('',#499,#454,#239,.T.);
#609=EDGE_CURVE('',#500,#499,#240,.T.);
#610=EDGE_CURVE('',#500,#501,#241,.F.);
#611=EDGE_CURVE('',#502,#501,#242,.T.);
#612=EDGE_CURVE('',#503,#502,#243,.T.);
#613=EDGE_CURVE('',#504,#503,#244,.T.);
#614=EDGE_CURVE('',#504,#474,#245,.F.);
#615=EDGE_CURVE('',#482,#478,#246,.T.);
#616=EDGE_CURVE('',#485,#490,#247,.F.);
#617=EDGE_CURVE('',#494,#462,#248,.F.);
#618=EDGE_CURVE('',#491,#505,#249,.T.);
#619=EDGE_CURVE('',#505,#505,#429,.T.);
#620=EDGE_CURVE('',#484,#506,#250,.F.);
#621=EDGE_CURVE('',#507,#506,#251,.T.);
#622=EDGE_CURVE('',#508,#507,#252,.T.);
#623=EDGE_CURVE('',#509,#508,#253,.T.);
#624=EDGE_CURVE('',#509,#466,#254,.T.);
#625=EDGE_CURVE('',#492,#487,#255,.T.);
#626=EDGE_CURVE('',#503,#510,#256,.T.);
#627=EDGE_CURVE('',#511,#502,#257,.F.);
#628=EDGE_CURVE('',#510,#511,#258,.F.);
#629=EDGE_CURVE('',#512,#504,#259,.T.);
#630=EDGE_CURVE('',#510,#512,#260,.T.);
#631=EDGE_CURVE('',#513,#511,#261,.T.);
#632=EDGE_CURVE('',#501,#513,#262,.F.);
#633=EDGE_CURVE('',#514,#515,#263,.F.);
#634=EDGE_CURVE('',#515,#516,#264,.T.);
#635=EDGE_CURVE('',#516,#517,#430,.T.);
#636=EDGE_CURVE('',#517,#514,#265,.T.);
#637=EDGE_CURVE('',#495,#518,#266,.F.);
#638=EDGE_CURVE('',#518,#467,#267,.F.);
#639=EDGE_CURVE('',#519,#496,#268,.F.);
#640=EDGE_CURVE('',#518,#519,#269,.F.);
#641=EDGE_CURVE('',#520,#521,#431,.T.);
#642=EDGE_CURVE('',#520,#449,#270,.T.);
#643=EDGE_CURVE('',#521,#448,#271,.T.);
#644=EDGE_CURVE('',#516,#447,#272,.T.);
#645=EDGE_CURVE('',#517,#446,#273,.T.);
#646=EDGE_CURVE('',#522,#480,#274,.T.);
#647=EDGE_CURVE('',#522,#509,#275,.T.);
#648=EDGE_CURVE('',#508,#523,#276,.T.);
#649=EDGE_CURVE('',#523,#481,#277,.F.);
#650=EDGE_CURVE('',#523,#515,#278,.F.);
#651=EDGE_CURVE('',#521,#507,#279,.T.);
#652=EDGE_CURVE('',#506,#524,#280,.T.);
#653=EDGE_CURVE('',#524,#498,#432,.T.);
#654=EDGE_CURVE('',#497,#525,#281,.T.);
#655=EDGE_CURVE('',#525,#520,#282,.T.);
#656=EDGE_CURVE('',#526,#500,#283,.F.);
#657=EDGE_CURVE('',#499,#527,#433,.T.);
#658=EDGE_CURVE('',#527,#526,#284,.T.);
#659=EDGE_CURVE('',#519,#525,#285,.T.);
#660=EDGE_CURVE('',#522,#512,#286,.F.);
#661=EDGE_CURVE('',#514,#513,#287,.T.);
#662=EDGE_CURVE('',#524,#452,#288,.T.);
#663=EDGE_CURVE('',#527,#453,#289,.T.);
#664=EDGE_CURVE('',#483,#526,#290,.T.);
#665=EDGE_CURVE('',#456,#439,#291,.T.);
#666=EDGE_CURVE('',#450,#445,#292,.T.);
#667=EDGE_CURVE('',#457,#436,#293,.T.);
#668=EDGE_CURVE('',#451,#442,#294,.T.);
#669=ORIENTED_EDGE('',*,*,#528,.F.);
#670=ORIENTED_EDGE('',*,*,#529,.T.);
#671=ORIENTED_EDGE('',*,*,#530,.F.);
#672=ORIENTED_EDGE('',*,*,#529,.F.);
#673=ORIENTED_EDGE('',*,*,#531,.F.);
#674=ORIENTED_EDGE('',*,*,#528,.T.);
#675=ORIENTED_EDGE('',*,*,#532,.F.);
#676=ORIENTED_EDGE('',*,*,#533,.T.);
#677=ORIENTED_EDGE('',*,*,#534,.F.);
#678=ORIENTED_EDGE('',*,*,#533,.F.);
#679=ORIENTED_EDGE('',*,*,#535,.F.);
#680=ORIENTED_EDGE('',*,*,#532,.T.);
#681=ORIENTED_EDGE('',*,*,#536,.F.);
#682=ORIENTED_EDGE('',*,*,#537,.T.);
#683=ORIENTED_EDGE('',*,*,#538,.F.);
#684=ORIENTED_EDGE('',*,*,#537,.F.);
#685=ORIENTED_EDGE('',*,*,#539,.F.);
#686=ORIENTED_EDGE('',*,*,#536,.T.);
#687=ORIENTED_EDGE('',*,*,#540,.F.);
#688=ORIENTED_EDGE('',*,*,#541,.T.);
#689=ORIENTED_EDGE('',*,*,#542,.F.);
#690=ORIENTED_EDGE('',*,*,#541,.F.);
#691=ORIENTED_EDGE('',*,*,#543,.F.);
#692=ORIENTED_EDGE('',*,*,#540,.T.);
#693=ORIENTED_EDGE('',*,*,#544,.T.);
#694=ORIENTED_EDGE('',*,*,#545,.T.);
#695=ORIENTED_EDGE('',*,*,#546,.T.);
#696=ORIENTED_EDGE('',*,*,#547,.T.);
#697=ORIENTED_EDGE('',*,*,#548,.F.);
#698=ORIENTED_EDGE('',*,*,#549,.F.);
#699=ORIENTED_EDGE('',*,*,#550,.T.);
#700=ORIENTED_EDGE('',*,*,#551,.T.);
#701=ORIENTED_EDGE('',*,*,#552,.T.);
#702=ORIENTED_EDGE('',*,*,#553,.T.);
#703=ORIENTED_EDGE('',*,*,#554,.F.);
#704=ORIENTED_EDGE('',*,*,#555,.F.);
#705=ORIENTED_EDGE('',*,*,#556,.T.);
#706=ORIENTED_EDGE('',*,*,#557,.T.);
#707=ORIENTED_EDGE('',*,*,#558,.T.);
#708=ORIENTED_EDGE('',*,*,#559,.T.);
#709=ORIENTED_EDGE('',*,*,#557,.F.);
#710=ORIENTED_EDGE('',*,*,#560,.F.);
#711=ORIENTED_EDGE('',*,*,#561,.F.);
#712=ORIENTED_EDGE('',*,*,#562,.F.);
#713=ORIENTED_EDGE('',*,*,#563,.T.);
#714=ORIENTED_EDGE('',*,*,#564,.T.);
#715=ORIENTED_EDGE('',*,*,#559,.F.);
#716=ORIENTED_EDGE('',*,*,#565,.T.);
#717=ORIENTED_EDGE('',*,*,#566,.T.);
#718=ORIENTED_EDGE('',*,*,#567,.T.);
#719=ORIENTED_EDGE('',*,*,#568,.T.);
#720=ORIENTED_EDGE('',*,*,#569,.T.);
#721=ORIENTED_EDGE('',*,*,#570,.F.);
#722=ORIENTED_EDGE('',*,*,#571,.T.);
#723=ORIENTED_EDGE('',*,*,#572,.F.);
#724=ORIENTED_EDGE('',*,*,#571,.F.);
#725=ORIENTED_EDGE('',*,*,#573,.F.);
#726=ORIENTED_EDGE('',*,*,#570,.T.);
#727=ORIENTED_EDGE('',*,*,#574,.F.);
#728=ORIENTED_EDGE('',*,*,#575,.T.);
#729=ORIENTED_EDGE('',*,*,#573,.T.);
#730=ORIENTED_EDGE('',*,*,#575,.F.);
#731=ORIENTED_EDGE('',*,*,#576,.F.);
#732=ORIENTED_EDGE('',*,*,#577,.T.);
#733=ORIENTED_EDGE('',*,*,#578,.F.);
#734=ORIENTED_EDGE('',*,*,#579,.F.);
#735=ORIENTED_EDGE('',*,*,#580,.F.);
#736=ORIENTED_EDGE('',*,*,#579,.T.);
#737=ORIENTED_EDGE('',*,*,#581,.F.);
#738=ORIENTED_EDGE('',*,*,#582,.F.);
#739=ORIENTED_EDGE('',*,*,#583,.T.);
#740=ORIENTED_EDGE('',*,*,#584,.F.);
#741=ORIENTED_EDGE('',*,*,#585,.T.);
#742=ORIENTED_EDGE('',*,*,#581,.T.);
#743=ORIENTED_EDGE('',*,*,#578,.T.);
#744=ORIENTED_EDGE('',*,*,#574,.T.);
#745=ORIENTED_EDGE('',*,*,#586,.T.);
#746=ORIENTED_EDGE('',*,*,#587,.T.);
#747=ORIENTED_EDGE('',*,*,#588,.T.);
#748=ORIENTED_EDGE('',*,*,#589,.F.);
#749=ORIENTED_EDGE('',*,*,#530,.T.);
#750=ORIENTED_EDGE('',*,*,#534,.T.);
#751=ORIENTED_EDGE('',*,*,#590,.T.);
#752=ORIENTED_EDGE('',*,*,#562,.T.);
#753=ORIENTED_EDGE('',*,*,#591,.T.);
#754=ORIENTED_EDGE('',*,*,#592,.T.);
#755=ORIENTED_EDGE('',*,*,#590,.F.);
#756=ORIENTED_EDGE('',*,*,#593,.F.);
#757=ORIENTED_EDGE('',*,*,#594,.F.);
#758=ORIENTED_EDGE('',*,*,#595,.F.);
#759=ORIENTED_EDGE('',*,*,#596,.T.);
#760=ORIENTED_EDGE('',*,*,#563,.F.);
#761=ORIENTED_EDGE('',*,*,#597,.T.);
#762=ORIENTED_EDGE('',*,*,#594,.T.);
#763=ORIENTED_EDGE('',*,*,#598,.T.);
#764=ORIENTED_EDGE('',*,*,#599,.T.);
#765=ORIENTED_EDGE('',*,*,#600,.T.);
#766=ORIENTED_EDGE('',*,*,#600,.F.);
#767=ORIENTED_EDGE('',*,*,#601,.T.);
#768=ORIENTED_EDGE('',*,*,#602,.F.);
#769=ORIENTED_EDGE('',*,*,#568,.F.);
#770=ORIENTED_EDGE('',*,*,#603,.F.);
#771=ORIENTED_EDGE('',*,*,#604,.F.);
#772=ORIENTED_EDGE('',*,*,#605,.T.);
#773=ORIENTED_EDGE('',*,*,#606,.F.);
#774=ORIENTED_EDGE('',*,*,#607,.T.);
#775=ORIENTED_EDGE('',*,*,#552,.F.);
#776=ORIENTED_EDGE('',*,*,#608,.F.);
#777=ORIENTED_EDGE('',*,*,#609,.F.);
#778=ORIENTED_EDGE('',*,*,#610,.T.);
#779=ORIENTED_EDGE('',*,*,#611,.F.);
#780=ORIENTED_EDGE('',*,*,#612,.F.);
#781=ORIENTED_EDGE('',*,*,#613,.F.);
#782=ORIENTED_EDGE('',*,*,#614,.T.);
#783=ORIENTED_EDGE('',*,*,#576,.T.);
#784=ORIENTED_EDGE('',*,*,#580,.T.);
#785=ORIENTED_EDGE('',*,*,#615,.F.);
#786=ORIENTED_EDGE('',*,*,#589,.T.);
#787=ORIENTED_EDGE('',*,*,#616,.T.);
#788=ORIENTED_EDGE('',*,*,#595,.T.);
#789=ORIENTED_EDGE('',*,*,#572,.T.);
#790=ORIENTED_EDGE('',*,*,#556,.F.);
#791=ORIENTED_EDGE('',*,*,#569,.F.);
#792=ORIENTED_EDGE('',*,*,#602,.T.);
#793=ORIENTED_EDGE('',*,*,#617,.T.);
#794=ORIENTED_EDGE('',*,*,#560,.T.);
#795=ORIENTED_EDGE('',*,*,#597,.F.);
#796=ORIENTED_EDGE('',*,*,#618,.T.);
#797=ORIENTED_EDGE('',*,*,#619,.T.);
#798=ORIENTED_EDGE('',*,*,#618,.F.);
#799=ORIENTED_EDGE('',*,*,#619,.F.);
#800=ORIENTED_EDGE('',*,*,#564,.F.);
#801=ORIENTED_EDGE('',*,*,#596,.F.);
#802=ORIENTED_EDGE('',*,*,#616,.F.);
#803=ORIENTED_EDGE('',*,*,#588,.F.);
#804=ORIENTED_EDGE('',*,*,#620,.T.);
#805=ORIENTED_EDGE('',*,*,#621,.F.);
#806=ORIENTED_EDGE('',*,*,#622,.F.);
#807=ORIENTED_EDGE('',*,*,#623,.F.);
#808=ORIENTED_EDGE('',*,*,#624,.T.);
#809=ORIENTED_EDGE('',*,*,#565,.F.);
#810=ORIENTED_EDGE('',*,*,#558,.F.);
#811=ORIENTED_EDGE('',*,*,#592,.F.);
#812=ORIENTED_EDGE('',*,*,#625,.F.);
#813=ORIENTED_EDGE('',*,*,#598,.F.);
#814=ORIENTED_EDGE('',*,*,#593,.T.);
#815=ORIENTED_EDGE('',*,*,#591,.F.);
#816=ORIENTED_EDGE('',*,*,#561,.T.);
#817=ORIENTED_EDGE('',*,*,#617,.F.);
#818=ORIENTED_EDGE('',*,*,#601,.F.);
#819=ORIENTED_EDGE('',*,*,#599,.F.);
#820=ORIENTED_EDGE('',*,*,#625,.T.);
#821=ORIENTED_EDGE('',*,*,#626,.F.);
#822=ORIENTED_EDGE('',*,*,#612,.T.);
#823=ORIENTED_EDGE('',*,*,#627,.F.);
#824=ORIENTED_EDGE('',*,*,#628,.F.);
#825=ORIENTED_EDGE('',*,*,#629,.T.);
#826=ORIENTED_EDGE('',*,*,#613,.T.);
#827=ORIENTED_EDGE('',*,*,#626,.T.);
#828=ORIENTED_EDGE('',*,*,#630,.T.);
#829=ORIENTED_EDGE('',*,*,#631,.T.);
#830=ORIENTED_EDGE('',*,*,#627,.T.);
#831=ORIENTED_EDGE('',*,*,#611,.T.);
#832=ORIENTED_EDGE('',*,*,#632,.T.);
#833=ORIENTED_EDGE('',*,*,#633,.T.);
#834=ORIENTED_EDGE('',*,*,#634,.T.);
#835=ORIENTED_EDGE('',*,*,#635,.T.);
#836=ORIENTED_EDGE('',*,*,#636,.T.);
#837=ORIENTED_EDGE('',*,*,#637,.F.);
#838=ORIENTED_EDGE('',*,*,#603,.T.);
#839=ORIENTED_EDGE('',*,*,#567,.F.);
#840=ORIENTED_EDGE('',*,*,#638,.F.);
#841=ORIENTED_EDGE('',*,*,#639,.T.);
#842=ORIENTED_EDGE('',*,*,#604,.T.);
#843=ORIENTED_EDGE('',*,*,#637,.T.);
#844=ORIENTED_EDGE('',*,*,#640,.T.);
#845=ORIENTED_EDGE('',*,*,#641,.F.);
#846=ORIENTED_EDGE('',*,*,#642,.T.);
#847=ORIENTED_EDGE('',*,*,#546,.F.);
#848=ORIENTED_EDGE('',*,*,#643,.F.);
#849=ORIENTED_EDGE('',*,*,#635,.F.);
#850=ORIENTED_EDGE('',*,*,#644,.T.);
#851=ORIENTED_EDGE('',*,*,#544,.F.);
#852=ORIENTED_EDGE('',*,*,#645,.F.);
#853=ORIENTED_EDGE('',*,*,#584,.T.);
#854=ORIENTED_EDGE('',*,*,#646,.F.);
#855=ORIENTED_EDGE('',*,*,#647,.T.);
#856=ORIENTED_EDGE('',*,*,#623,.T.);
#857=ORIENTED_EDGE('',*,*,#648,.T.);
#858=ORIENTED_EDGE('',*,*,#649,.T.);
#859=ORIENTED_EDGE('',*,*,#538,.T.);
#860=ORIENTED_EDGE('',*,*,#542,.T.);
#861=ORIENTED_EDGE('',*,*,#634,.F.);
#862=ORIENTED_EDGE('',*,*,#650,.F.);
#863=ORIENTED_EDGE('',*,*,#648,.F.);
#864=ORIENTED_EDGE('',*,*,#622,.T.);
#865=ORIENTED_EDGE('',*,*,#651,.F.);
#866=ORIENTED_EDGE('',*,*,#643,.T.);
#867=ORIENTED_EDGE('',*,*,#545,.F.);
#868=ORIENTED_EDGE('',*,*,#644,.F.);
#869=ORIENTED_EDGE('',*,*,#641,.T.);
#870=ORIENTED_EDGE('',*,*,#651,.T.);
#871=ORIENTED_EDGE('',*,*,#621,.T.);
#872=ORIENTED_EDGE('',*,*,#652,.T.);
#873=ORIENTED_EDGE('',*,*,#653,.T.);
#874=ORIENTED_EDGE('',*,*,#606,.T.);
#875=ORIENTED_EDGE('',*,*,#654,.T.);
#876=ORIENTED_EDGE('',*,*,#655,.T.);
#877=ORIENTED_EDGE('',*,*,#656,.T.);
#878=ORIENTED_EDGE('',*,*,#609,.T.);
#879=ORIENTED_EDGE('',*,*,#657,.T.);
#880=ORIENTED_EDGE('',*,*,#658,.T.);
#881=ORIENTED_EDGE('',*,*,#655,.F.);
#882=ORIENTED_EDGE('',*,*,#659,.F.);
#883=ORIENTED_EDGE('',*,*,#640,.F.);
#884=ORIENTED_EDGE('',*,*,#638,.T.);
#885=ORIENTED_EDGE('',*,*,#566,.F.);
#886=ORIENTED_EDGE('',*,*,#624,.F.);
#887=ORIENTED_EDGE('',*,*,#647,.F.);
#888=ORIENTED_EDGE('',*,*,#660,.T.);
#889=ORIENTED_EDGE('',*,*,#630,.F.);
#890=ORIENTED_EDGE('',*,*,#628,.T.);
#891=ORIENTED_EDGE('',*,*,#631,.F.);
#892=ORIENTED_EDGE('',*,*,#661,.F.);
#893=ORIENTED_EDGE('',*,*,#636,.F.);
#894=ORIENTED_EDGE('',*,*,#645,.T.);
#895=ORIENTED_EDGE('',*,*,#547,.F.);
#896=ORIENTED_EDGE('',*,*,#642,.F.);
#897=ORIENTED_EDGE('',*,*,#653,.F.);
#898=ORIENTED_EDGE('',*,*,#662,.T.);
#899=ORIENTED_EDGE('',*,*,#553,.F.);
#900=ORIENTED_EDGE('',*,*,#607,.F.);
#901=ORIENTED_EDGE('',*,*,#657,.F.);
#902=ORIENTED_EDGE('',*,*,#608,.T.);
#903=ORIENTED_EDGE('',*,*,#551,.F.);
#904=ORIENTED_EDGE('',*,*,#663,.F.);
#905=ORIENTED_EDGE('',*,*,#652,.F.);
#906=ORIENTED_EDGE('',*,*,#620,.F.);
#907=ORIENTED_EDGE('',*,*,#587,.F.);
#908=ORIENTED_EDGE('',*,*,#664,.T.);
#909=ORIENTED_EDGE('',*,*,#658,.F.);
#910=ORIENTED_EDGE('',*,*,#663,.T.);
#911=ORIENTED_EDGE('',*,*,#550,.F.);
#912=ORIENTED_EDGE('',*,*,#662,.F.);
#913=ORIENTED_EDGE('',*,*,#649,.F.);
#914=ORIENTED_EDGE('',*,*,#650,.T.);
#915=ORIENTED_EDGE('',*,*,#633,.F.);
#916=ORIENTED_EDGE('',*,*,#661,.T.);
#917=ORIENTED_EDGE('',*,*,#632,.F.);
#918=ORIENTED_EDGE('',*,*,#610,.F.);
#919=ORIENTED_EDGE('',*,*,#656,.F.);
#920=ORIENTED_EDGE('',*,*,#664,.F.);
#921=ORIENTED_EDGE('',*,*,#586,.F.);
#922=ORIENTED_EDGE('',*,*,#615,.T.);
#923=ORIENTED_EDGE('',*,*,#582,.T.);
#924=ORIENTED_EDGE('',*,*,#585,.F.);
#925=ORIENTED_EDGE('',*,*,#554,.T.);
#926=ORIENTED_EDGE('',*,*,#665,.T.);
#927=ORIENTED_EDGE('',*,*,#535,.T.);
#928=ORIENTED_EDGE('',*,*,#665,.F.);
#929=ORIENTED_EDGE('',*,*,#548,.T.);
#930=ORIENTED_EDGE('',*,*,#666,.T.);
#931=ORIENTED_EDGE('',*,*,#543,.T.);
#932=ORIENTED_EDGE('',*,*,#666,.F.);
#933=ORIENTED_EDGE('',*,*,#555,.T.);
#934=ORIENTED_EDGE('',*,*,#667,.T.);
#935=ORIENTED_EDGE('',*,*,#531,.T.);
#936=ORIENTED_EDGE('',*,*,#667,.F.);
#937=ORIENTED_EDGE('',*,*,#549,.T.);
#938=ORIENTED_EDGE('',*,*,#668,.T.);
#939=ORIENTED_EDGE('',*,*,#539,.T.);
#940=ORIENTED_EDGE('',*,*,#668,.F.);
#941=ORIENTED_EDGE('',*,*,#639,.F.);
#942=ORIENTED_EDGE('',*,*,#659,.T.);
#943=ORIENTED_EDGE('',*,*,#654,.F.);
#944=ORIENTED_EDGE('',*,*,#605,.F.);
#945=ORIENTED_EDGE('',*,*,#646,.T.);
#946=ORIENTED_EDGE('',*,*,#583,.F.);
#947=ORIENTED_EDGE('',*,*,#577,.F.);
#948=ORIENTED_EDGE('',*,*,#614,.F.);
#949=ORIENTED_EDGE('',*,*,#629,.F.);
#950=ORIENTED_EDGE('',*,*,#660,.F.);
#951=CYLINDRICAL_SURFACE('',#1036,1.625);
#952=CYLINDRICAL_SURFACE('',#1041,1.625);
#953=CYLINDRICAL_SURFACE('',#1046,1.625);
#954=CYLINDRICAL_SURFACE('',#1051,1.625);
#955=CYLINDRICAL_SURFACE('',#1069,1.65);
#956=CYLINDRICAL_SURFACE('',#1074,2.05);
#957=CYLINDRICAL_SURFACE('',#1077,3.8);
#958=CYLINDRICAL_SURFACE('',#1082,2.5);
#959=CYLINDRICAL_SURFACE('',#1088,2.5);
#960=CYLINDRICAL_SURFACE('',#1092,1.7);
#961=CYLINDRICAL_SURFACE('',#1105,3.23999999999999);
#962=CYLINDRICAL_SURFACE('',#1107,3.23999999999999);
#963=CYLINDRICAL_SURFACE('',#1115,3.23999999999999);
#964=CYLINDRICAL_SURFACE('',#1116,3.23999999999999);
#965=CYLINDRICAL_SURFACE('',#1119,2.05);
#966=CYLINDRICAL_SURFACE('',#1120,2.05);
#967=CYLINDRICAL_SURFACE('',#1121,2.05);
#968=CYLINDRICAL_SURFACE('',#1122,2.05);
#969=ADVANCED_FACE('',(#68),#951,.F.);
#970=ADVANCED_FACE('',(#69,#17),#33,.F.);
#971=ADVANCED_FACE('',(#70),#952,.F.);
#972=ADVANCED_FACE('',(#71,#18),#34,.F.);
#973=ADVANCED_FACE('',(#72),#953,.F.);
#974=ADVANCED_FACE('',(#73,#19),#35,.F.);
#975=ADVANCED_FACE('',(#74),#954,.F.);
#976=ADVANCED_FACE('',(#75,#20),#36,.F.);
#977=ADVANCED_FACE('',(#76,#21,#22),#37,.F.);
#978=ADVANCED_FACE('',(#77,#23,#24),#38,.F.);
#979=ADVANCED_FACE('',(#78),#39,.T.);
#980=ADVANCED_FACE('',(#79),#40,.T.);
#981=ADVANCED_FACE('',(#80),#41,.T.);
#982=ADVANCED_FACE('',(#81),#955,.F.);
#983=ADVANCED_FACE('',(#82,#25),#42,.F.);
#984=ADVANCED_FACE('',(#83),#956,.F.);
#985=ADVANCED_FACE('',(#84),#43,.T.);
#986=ADVANCED_FACE('',(#85),#957,.T.);
#987=ADVANCED_FACE('',(#86,#26),#44,.F.);
#988=ADVANCED_FACE('',(#87,#27,#28),#45,.T.);
#989=ADVANCED_FACE('',(#88),#958,.T.);
#990=ADVANCED_FACE('',(#89,#29),#46,.T.);
#991=ADVANCED_FACE('',(#90),#959,.T.);
#992=ADVANCED_FACE('',(#91,#30),#47,.T.);
#993=ADVANCED_FACE('',(#92),#48,.T.);
#994=ADVANCED_FACE('',(#93),#960,.F.);
#995=ADVANCED_FACE('',(#94),#49,.F.);
#996=ADVANCED_FACE('',(#95),#50,.T.);
#997=ADVANCED_FACE('',(#96),#51,.T.);
#998=ADVANCED_FACE('',(#97),#52,.T.);
#999=ADVANCED_FACE('',(#98),#53,.T.);
#1000=ADVANCED_FACE('',(#99),#54,.T.);
#1001=ADVANCED_FACE('',(#100),#55,.T.);
#1002=ADVANCED_FACE('',(#101),#56,.F.);
#1003=ADVANCED_FACE('',(#102),#57,.T.);
#1004=ADVANCED_FACE('',(#103),#58,.F.);
#1005=ADVANCED_FACE('',(#104),#961,.T.);
#1006=ADVANCED_FACE('',(#105),#962,.T.);
#1007=ADVANCED_FACE('',(#106,#31,#32),#59,.T.);
#1008=ADVANCED_FACE('',(#107),#60,.T.);
#1009=ADVANCED_FACE('',(#108),#61,.F.);
#1010=ADVANCED_FACE('',(#109),#62,.F.);
#1011=ADVANCED_FACE('',(#110),#63,.T.);
#1012=ADVANCED_FACE('',(#111),#963,.T.);
#1013=ADVANCED_FACE('',(#112),#964,.T.);
#1014=ADVANCED_FACE('',(#113),#64,.T.);
#1015=ADVANCED_FACE('',(#114),#65,.T.);
#1016=ADVANCED_FACE('',(#115),#965,.F.);
#1017=ADVANCED_FACE('',(#116),#966,.F.);
#1018=ADVANCED_FACE('',(#117),#967,.F.);
#1019=ADVANCED_FACE('',(#118),#968,.F.);
#1020=ADVANCED_FACE('',(#119),#66,.T.);
#1021=ADVANCED_FACE('',(#120),#67,.T.);
#1022=CLOSED_SHELL('',(#969,#970,#971,#972,#973,#974,#975,#976,#977,#978,
#979,#980,#981,#982,#983,#984,#985,#986,#987,#988,#989,#990,#991,#992,#993,
#994,#995,#996,#997,#998,#999,#1000,#1001,#1002,#1003,#1004,#1005,#1006,
#1007,#1008,#1009,#1010,#1011,#1012,#1013,#1014,#1015,#1016,#1017,#1018,
#1019,#1020,#1021));
#1023=DERIVED_UNIT_ELEMENT(#1025,1.);
#1024=DERIVED_UNIT_ELEMENT(#1704,-3.);
#1025=(
MASS_UNIT()
NAMED_UNIT(*)
SI_UNIT(.KILO.,.GRAM.)
);
#1026=DERIVED_UNIT((#1023,#1024));
#1027=MEASURE_REPRESENTATION_ITEM('density measure',
POSITIVE_RATIO_MEASURE(7850.),#1026);
#1028=PROPERTY_DEFINITION_REPRESENTATION(#1033,#1030);
#1029=PROPERTY_DEFINITION_REPRESENTATION(#1034,#1031);
#1030=REPRESENTATION('material name',(#1032),#1701);
#1031=REPRESENTATION('density',(#1027),#1701);
#1032=DESCRIPTIVE_REPRESENTATION_ITEM('Steel','Steel');
#1033=PROPERTY_DEFINITION('material property','material name',#1711);
#1034=PROPERTY_DEFINITION('material property','density of part',#1711);
#1035=AXIS2_PLACEMENT_3D('',#1410,#1125,#1126);
#1036=AXIS2_PLACEMENT_3D('',#1411,#1127,#1128);
#1037=AXIS2_PLACEMENT_3D('',#1413,#1129,#1130);
#1038=AXIS2_PLACEMENT_3D('',#1416,#1132,#1133);
#1039=AXIS2_PLACEMENT_3D('',#1417,#1134,#1135);
#1040=AXIS2_PLACEMENT_3D('',#1419,#1136,#1137);
#1041=AXIS2_PLACEMENT_3D('',#1420,#1138,#1139);
#1042=AXIS2_PLACEMENT_3D('',#1422,#1140,#1141);
#1043=AXIS2_PLACEMENT_3D('',#1425,#1143,#1144);
#1044=AXIS2_PLACEMENT_3D('',#1426,#1145,#1146);
#1045=AXIS2_PLACEMENT_3D('',#1428,#1147,#1148);
#1046=AXIS2_PLACEMENT_3D('',#1429,#1149,#1150);
#1047=AXIS2_PLACEMENT_3D('',#1431,#1151,#1152);
#1048=AXIS2_PLACEMENT_3D('',#1434,#1154,#1155);
#1049=AXIS2_PLACEMENT_3D('',#1435,#1156,#1157);
#1050=AXIS2_PLACEMENT_3D('',#1437,#1158,#1159);
#1051=AXIS2_PLACEMENT_3D('',#1438,#1160,#1161);
#1052=AXIS2_PLACEMENT_3D('',#1440,#1162,#1163);
#1053=AXIS2_PLACEMENT_3D('',#1443,#1165,#1166);
#1054=AXIS2_PLACEMENT_3D('',#1444,#1167,#1168);
#1055=AXIS2_PLACEMENT_3D('',#1446,#1169,#1170);
#1056=AXIS2_PLACEMENT_3D('',#1447,#1171,#1172);
#1057=AXIS2_PLACEMENT_3D('',#1450,#1173,#1174);
#1058=AXIS2_PLACEMENT_3D('',#1454,#1176,#1177);
#1059=AXIS2_PLACEMENT_3D('',#1457,#1179,#1180);
#1060=AXIS2_PLACEMENT_3D('',#1459,#1181,#1182);
#1061=AXIS2_PLACEMENT_3D('',#1460,#1183,#1184);
#1062=AXIS2_PLACEMENT_3D('',#1465,#1186,#1187);
#1063=AXIS2_PLACEMENT_3D('',#1468,#1189,#1190);
#1064=AXIS2_PLACEMENT_3D('',#1470,#1191,#1192);
#1065=AXIS2_PLACEMENT_3D('',#1472,#1193,#1194);
#1066=AXIS2_PLACEMENT_3D('',#1473,#1195,#1196);
#1067=AXIS2_PLACEMENT_3D('',#1482,#1201,#1202);
#1068=AXIS2_PLACEMENT_3D('',#1492,#1208,#1209);
#1069=AXIS2_PLACEMENT_3D('',#1502,#1215,#1216);
#1070=AXIS2_PLACEMENT_3D('',#1504,#1217,#1218);
#1071=AXIS2_PLACEMENT_3D('',#1507,#1220,#1221);
#1072=AXIS2_PLACEMENT_3D('',#1508,#1222,#1223);
#1073=AXIS2_PLACEMENT_3D('',#1510,#1224,#1225);
#1074=AXIS2_PLACEMENT_3D('',#1511,#1226,#1227);
#1075=AXIS2_PLACEMENT_3D('',#1513,#1228,#1229);
#1076=AXIS2_PLACEMENT_3D('',#1515,#1231,#1232);
#1077=AXIS2_PLACEMENT_3D('',#1524,#1237,#1238);
#1078=AXIS2_PLACEMENT_3D('',#1526,#1239,#1240);
#1079=AXIS2_PLACEMENT_3D('',#1528,#1241,#1242);
#1080=AXIS2_PLACEMENT_3D('',#1530,#1244,#1245);
#1081=AXIS2_PLACEMENT_3D('',#1536,#1249,#1250);
#1082=AXIS2_PLACEMENT_3D('',#1545,#1255,#1256);
#1083=AXIS2_PLACEMENT_3D('',#1547,#1257,#1258);
#1084=AXIS2_PLACEMENT_3D('',#1549,#1259,#1260);
#1085=AXIS2_PLACEMENT_3D('',#1551,#1262,#1263);
#1086=AXIS2_PLACEMENT_3D('',#1555,#1265,#1266);
#1087=AXIS2_PLACEMENT_3D('',#1560,#1269,#1270);
#1088=AXIS2_PLACEMENT_3D('',#1561,#1271,#1272);
#1089=AXIS2_PLACEMENT_3D('',#1565,#1274,#1275);
#1090=AXIS2_PLACEMENT_3D('',#1567,#1277,#1278);
#1091=AXIS2_PLACEMENT_3D('',#1595,#1295,#1296);
#1092=AXIS2_PLACEMENT_3D('',#1597,#1298,#1299);
#1093=AXIS2_PLACEMENT_3D('',#1600,#1301,#1302);
#1094=AXIS2_PLACEMENT_3D('',#1601,#1303,#1304);
#1095=AXIS2_PLACEMENT_3D('',#1602,#1305,#1306);
#1096=AXIS2_PLACEMENT_3D('',#1612,#1312,#1313);
#1097=AXIS2_PLACEMENT_3D('',#1614,#1315,#1316);
#1098=AXIS2_PLACEMENT_3D('',#1615,#1317,#1318);
#1099=AXIS2_PLACEMENT_3D('',#1621,#1322,#1323);
#1100=AXIS2_PLACEMENT_3D('',#1625,#1326,#1327);
#1101=AXIS2_PLACEMENT_3D('',#1629,#1330,#1331);
#1102=AXIS2_PLACEMENT_3D('',#1636,#1334,#1335);
#1103=AXIS2_PLACEMENT_3D('',#1638,#1337,#1338);
#1104=AXIS2_PLACEMENT_3D('',#1642,#1341,#1342);
#1105=AXIS2_PLACEMENT_3D('',#1646,#1345,#1346);
#1106=AXIS2_PLACEMENT_3D('',#1649,#1347,#1348);
#1107=AXIS2_PLACEMENT_3D('',#1652,#1351,#1352);
#1108=AXIS2_PLACEMENT_3D('',#1655,#1355,#1356);
#1109=AXIS2_PLACEMENT_3D('',#1662,#1361,#1362);
#1110=AXIS2_PLACEMENT_3D('',#1665,#1365,#1366);
#1111=AXIS2_PLACEMENT_3D('',#1668,#1368,#1369);
#1112=AXIS2_PLACEMENT_3D('',#1672,#1372,#1373);
#1113=AXIS2_PLACEMENT_3D('',#1676,#1375,#1376);
#1114=AXIS2_PLACEMENT_3D('',#1678,#1378,#1379);
#1115=AXIS2_PLACEMENT_3D('',#1682,#1383,#1384);
#1116=AXIS2_PLACEMENT_3D('',#1684,#1386,#1387);
#1117=AXIS2_PLACEMENT_3D('',#1686,#1389,#1390);
#1118=AXIS2_PLACEMENT_3D('',#1688,#1392,#1393);
#1119=AXIS2_PLACEMENT_3D('',#1689,#1394,#1395);
#1120=AXIS2_PLACEMENT_3D('',#1691,#1397,#1398);
#1121=AXIS2_PLACEMENT_3D('',#1693,#1400,#1401);
#1122=AXIS2_PLACEMENT_3D('',#1695,#1403,#1404);
#1123=AXIS2_PLACEMENT_3D('',#1697,#1406,#1407);
#1124=AXIS2_PLACEMENT_3D('',#1698,#1408,#1409);
#1125=DIRECTION('axis',(0.,0.,1.));
#1126=DIRECTION('refdir',(1.,0.,0.));
#1127=DIRECTION('center_axis',(0.,0.,-1.));
#1128=DIRECTION('ref_axis',(-1.,0.,0.));
#1129=DIRECTION('center_axis',(0.,0.,1.));
#1130=DIRECTION('ref_axis',(-1.,0.,0.));
#1131=DIRECTION('',(0.,0.,1.));
#1132=DIRECTION('center_axis',(0.,0.,-1.));
#1133=DIRECTION('ref_axis',(-1.,0.,0.));
#1134=DIRECTION('center_axis',(0.,0.,1.));
#1135=DIRECTION('ref_axis',(-1.,0.,0.));
#1136=DIRECTION('center_axis',(0.,0.,1.));
#1137=DIRECTION('ref_axis',(1.,0.,0.));
#1138=DIRECTION('center_axis',(0.,0.,-1.));
#1139=DIRECTION('ref_axis',(-1.,0.,0.));
#1140=DIRECTION('center_axis',(0.,0.,1.));
#1141=DIRECTION('ref_axis',(-1.,0.,0.));
#1142=DIRECTION('',(0.,0.,1.));
#1143=DIRECTION('center_axis',(0.,0.,-1.));
#1144=DIRECTION('ref_axis',(-1.,0.,0.));
#1145=DIRECTION('center_axis',(0.,0.,1.));
#1146=DIRECTION('ref_axis',(-1.,0.,0.));
#1147=DIRECTION('center_axis',(0.,0.,1.));
#1148=DIRECTION('ref_axis',(1.,0.,0.));
#1149=DIRECTION('center_axis',(0.,0.,-1.));
#1150=DIRECTION('ref_axis',(-1.,0.,0.));
#1151=DIRECTION('center_axis',(0.,0.,1.));
#1152=DIRECTION('ref_axis',(-1.,0.,0.));
#1153=DIRECTION('',(0.,0.,1.));
#1154=DIRECTION('center_axis',(0.,0.,-1.));
#1155=DIRECTION('ref_axis',(-1.,0.,0.));
#1156=DIRECTION('center_axis',(0.,0.,1.));
#1157=DIRECTION('ref_axis',(-1.,0.,0.));
#1158=DIRECTION('center_axis',(0.,0.,1.));
#1159=DIRECTION('ref_axis',(1.,0.,0.));
#1160=DIRECTION('center_axis',(0.,0.,-1.));
#1161=DIRECTION('ref_axis',(-1.,0.,0.));
#1162=DIRECTION('center_axis',(0.,0.,1.));
#1163=DIRECTION('ref_axis',(-1.,0.,0.));
#1164=DIRECTION('',(0.,0.,1.));
#1165=DIRECTION('center_axis',(0.,0.,-1.));
#1166=DIRECTION('ref_axis',(-1.,0.,0.));
#1167=DIRECTION('center_axis',(0.,0.,1.));
#1168=DIRECTION('ref_axis',(-1.,0.,0.));
#1169=DIRECTION('center_axis',(0.,0.,1.));
#1170=DIRECTION('ref_axis',(1.,0.,0.));
#1171=DIRECTION('center_axis',(0.,0.,1.));
#1172=DIRECTION('ref_axis',(1.,0.,0.));
#1173=DIRECTION('center_axis',(0.,0.,-1.));
#1174=DIRECTION('ref_axis',(1.,0.,0.));
#1175=DIRECTION('',(-1.,-2.01858731750028E-16,0.));
#1176=DIRECTION('center_axis',(0.,0.,-1.));
#1177=DIRECTION('ref_axis',(1.,0.,0.));
#1178=DIRECTION('',(1.,-3.17206578464331E-16,0.));
#1179=DIRECTION('center_axis',(0.,0.,-1.));
#1180=DIRECTION('ref_axis',(1.,0.,0.));
#1181=DIRECTION('center_axis',(0.,0.,-1.));
#1182=DIRECTION('ref_axis',(1.,0.,0.));
#1183=DIRECTION('center_axis',(0.,0.,1.));
#1184=DIRECTION('ref_axis',(1.,0.,0.));
#1185=DIRECTION('',(1.,2.01858731750028E-16,0.));
#1186=DIRECTION('center_axis',(0.,0.,-1.));
#1187=DIRECTION('ref_axis',(1.,0.,0.));
#1188=DIRECTION('',(-1.,4.75809867696496E-16,0.));
#1189=DIRECTION('center_axis',(0.,0.,-1.));
#1190=DIRECTION('ref_axis',(1.,0.,0.));
#1191=DIRECTION('center_axis',(0.,0.,-1.));
#1192=DIRECTION('ref_axis',(1.,0.,0.));
#1193=DIRECTION('center_axis',(0.,0.,-1.));
#1194=DIRECTION('ref_axis',(1.,0.,0.));
#1195=DIRECTION('center_axis',(0.,0.707106781186548,0.707106781186548));
#1196=DIRECTION('ref_axis',(1.,0.,0.));
#1197=DIRECTION('',(0.,0.707106781186547,-0.707106781186547));
#1198=DIRECTION('',(1.,0.,0.));
#1199=DIRECTION('',(0.,-0.707106781186547,0.707106781186547));
#1200=DIRECTION('',(-1.,0.,0.));
#1201=DIRECTION('center_axis',(0.,1.,0.));
#1202=DIRECTION('ref_axis',(0.,0.,1.));
#1203=DIRECTION('',(0.,0.,-1.));
#1204=DIRECTION('',(0.984807753012208,0.,-0.17364817766693));
#1205=DIRECTION('',(0.,0.,-1.));
#1206=DIRECTION('',(1.,0.,0.));
#1207=DIRECTION('',(0.,0.,1.));
#1208=DIRECTION('center_axis',(0.,0.,1.));
#1209=DIRECTION('ref_axis',(1.,0.,0.));
#1210=DIRECTION('',(0.,-1.,0.));
#1211=DIRECTION('',(-1.,1.33892896769794E-12,0.));
#1212=DIRECTION('',(0.,1.,0.));
#1213=DIRECTION('',(1.,0.,0.));
#1214=DIRECTION('',(0.,1.,0.));
#1215=DIRECTION('center_axis',(0.,1.,0.));
#1216=DIRECTION('ref_axis',(1.,0.,0.));
#1217=DIRECTION('center_axis',(0.,-1.,0.));
#1218=DIRECTION('ref_axis',(1.,0.,0.));
#1219=DIRECTION('',(0.,-1.,0.));
#1220=DIRECTION('center_axis',(0.,1.,0.));
#1221=DIRECTION('ref_axis',(1.,0.,0.));
#1222=DIRECTION('center_axis',(0.,-1.,0.));
#1223=DIRECTION('ref_axis',(1.,0.,0.));
#1224=DIRECTION('center_axis',(0.,-1.,0.));
#1225=DIRECTION('ref_axis',(1.,0.,0.));
#1226=DIRECTION('center_axis',(0.,1.,0.));
#1227=DIRECTION('ref_axis',(1.,0.,0.));
#1228=DIRECTION('center_axis',(0.,-1.,0.));
#1229=DIRECTION('ref_axis',(1.,0.,0.));
#1230=DIRECTION('',(0.,-1.,0.));
#1231=DIRECTION('center_axis',(-7.86408403497701E-15,0.,-1.));
#1232=DIRECTION('ref_axis',(-1.,0.,7.86408403497701E-15));
#1233=DIRECTION('',(-1.,0.,7.86408403497701E-15));
#1234=DIRECTION('',(0.,-1.,0.));
#1235=DIRECTION('',(-1.,0.,7.86408403497701E-15));
#1236=DIRECTION('',(0.,1.,0.));
#1237=DIRECTION('center_axis',(0.,1.,0.));
#1238=DIRECTION('ref_axis',(1.,0.,0.));
#1239=DIRECTION('center_axis',(0.,1.,0.));
#1240=DIRECTION('ref_axis',(1.,0.,0.));
#1241=DIRECTION('center_axis',(0.,1.,0.));
#1242=DIRECTION('ref_axis',(1.,0.,0.));
#1243=DIRECTION('',(0.,1.,0.));
#1244=DIRECTION('center_axis',(0.,-1.,0.));
#1245=DIRECTION('ref_axis',(1.,0.,0.));
#1246=DIRECTION('',(0.,0.,-1.));
#1247=DIRECTION('',(1.,0.,0.));
#1248=DIRECTION('',(0.,0.,1.));
#1249=DIRECTION('center_axis',(0.,0.,1.));
#1250=DIRECTION('ref_axis',(1.,0.,0.));
#1251=DIRECTION('',(9.71243140902203E-13,1.,0.));
#1252=DIRECTION('',(-1.,-2.01858731750028E-16,0.));
#1253=DIRECTION('',(0.,-1.,0.));
#1254=DIRECTION('',(-1.,0.,0.));
#1255=DIRECTION('center_axis',(0.,0.,1.));
#1256=DIRECTION('ref_axis',(-0.707106781186547,0.707106781186547,0.));
#1257=DIRECTION('center_axis',(0.,0.,-1.));
#1258=DIRECTION('ref_axis',(-0.707106781186547,0.707106781186547,0.));
#1259=DIRECTION('center_axis',(0.17364817766693,0.,0.984807753012208));
#1260=DIRECTION('ref_axis',(-0.984807753012208,0.,0.17364817766693));
#1261=DIRECTION('',(0.,0.,1.));
#1262=DIRECTION('center_axis',(0.,0.,1.));
#1263=DIRECTION('ref_axis',(1.,0.,0.));
#1264=DIRECTION('',(0.,1.,0.));
#1265=DIRECTION('center_axis',(0.,0.,-1.));
#1266=DIRECTION('ref_axis',(-0.707106781186547,-0.707106781186547,0.));
#1267=DIRECTION('',(-1.,0.,0.));
#1268=DIRECTION('',(0.,-1.,0.));
#1269=DIRECTION('center_axis',(0.,0.,-1.));
#1270=DIRECTION('ref_axis',(1.,0.,0.));
#1271=DIRECTION('center_axis',(0.,0.,-1.));
#1272=DIRECTION('ref_axis',(-0.707106781186547,-0.707106781186547,0.));
#1273=DIRECTION('',(0.,0.,-1.));
#1274=DIRECTION('center_axis',(0.17364817766693,0.,0.984807753012208));
#1275=DIRECTION('ref_axis',(-0.984807753012208,0.,0.17364817766693));
#1276=DIRECTION('',(0.,0.,1.));
#1277=DIRECTION('center_axis',(0.,-1.,0.));
#1278=DIRECTION('ref_axis',(-1.,0.,0.));
#1279=DIRECTION('',(0.984807753012208,0.,-0.17364817766693));
#1280=DIRECTION('',(0.,0.,1.));
#1281=DIRECTION('',(0.,0.,1.));
#1282=DIRECTION('',(1.,0.,0.));
#1283=DIRECTION('',(0.,0.,1.));
#1284=DIRECTION('',(-1.,0.,0.));
#1285=DIRECTION('',(0.,0.,-1.));
#1286=DIRECTION('',(0.,0.,-1.));
#1287=DIRECTION('',(-1.,0.,0.));
#1288=DIRECTION('',(0.,0.,1.));
#1289=DIRECTION('',(-1.,9.72555369571637E-13,0.));
#1290=DIRECTION('',(0.,0.,-1.));
#1291=DIRECTION('',(1.,0.,0.));
#1292=DIRECTION('',(0.,0.,-1.));
#1293=DIRECTION('',(0.,0.,1.));
#1294=DIRECTION('',(0.,0.,-1.));
#1295=DIRECTION('center_axis',(-1.,0.,0.));
#1296=DIRECTION('ref_axis',(0.,0.,1.));
#1297=DIRECTION('',(0.,-1.,0.));
#1298=DIRECTION('center_axis',(0.,0.,-1.));
#1299=DIRECTION('ref_axis',(1.,0.,0.));
#1300=DIRECTION('',(0.,0.,-1.));
#1301=DIRECTION('center_axis',(0.,0.,-1.));
#1302=DIRECTION('ref_axis',(1.,0.,0.));
#1303=DIRECTION('center_axis',(0.,0.,-1.));
#1304=DIRECTION('ref_axis',(1.,0.,0.));
#1305=DIRECTION('center_axis',(1.,0.,0.));
#1306=DIRECTION('ref_axis',(0.,-1.,0.));
#1307=DIRECTION('',(0.,0.,1.));
#1308=DIRECTION('',(0.,-1.,0.));
#1309=DIRECTION('',(0.,0.,-1.));
#1310=DIRECTION('',(0.,-1.,0.));
#1311=DIRECTION('',(0.,0.,1.));
#1312=DIRECTION('center_axis',(-1.,0.,0.));
#1313=DIRECTION('ref_axis',(0.,0.,1.));
#1314=DIRECTION('',(0.,1.,0.));
#1315=DIRECTION('center_axis',(-0.17364817766693,0.,-0.984807753012208));
#1316=DIRECTION('ref_axis',(-0.984807753012208,0.,0.17364817766693));
#1317=DIRECTION('center_axis',(1.,0.,0.));
#1318=DIRECTION('ref_axis',(0.,-1.,0.));
#1319=DIRECTION('',(0.,1.,0.));
#1320=DIRECTION('',(0.,1.,0.));
#1321=DIRECTION('',(0.,0.,1.));
#1322=DIRECTION('center_axis',(0.,0.,1.));
#1323=DIRECTION('ref_axis',(1.,0.,0.));
#1324=DIRECTION('',(0.,-1.,0.));
#1325=DIRECTION('',(-1.,1.33892896769794E-12,0.));
#1326=DIRECTION('center_axis',(0.,0.,-1.));
#1327=DIRECTION('ref_axis',(-1.,0.,0.));
#1328=DIRECTION('',(1.,0.,0.));
#1329=DIRECTION('',(-9.71243140902203E-13,-1.,0.));
#1330=DIRECTION('center_axis',(0.,0.,1.));
#1331=DIRECTION('ref_axis',(1.,0.,0.));
#1332=DIRECTION('',(9.71243140902203E-13,1.,0.));
#1333=DIRECTION('',(-1.,-2.01858731750028E-16,0.));
#1334=DIRECTION('center_axis',(0.,0.,1.));
#1335=DIRECTION('ref_axis',(1.,0.,0.));
#1336=DIRECTION('',(1.,-1.33892896769794E-12,0.));
#1337=DIRECTION('center_axis',(-1.,0.,0.));
#1338=DIRECTION('ref_axis',(0.,-1.,0.));
#1339=DIRECTION('',(0.,-1.,0.));
#1340=DIRECTION('',(0.,0.,-1.));
#1341=DIRECTION('center_axis',(0.,0.,1.));
#1342=DIRECTION('ref_axis',(1.,0.,0.));
#1343=DIRECTION('',(1.61604515957105E-16,1.,0.));
#1344=DIRECTION('',(-1.,1.33892896769794E-12,0.));
#1345=DIRECTION('center_axis',(0.,0.,-1.));
#1346=DIRECTION('ref_axis',(-0.9999999999999,-4.46982283308964E-7,0.));
#1347=DIRECTION('center_axis',(0.,0.,1.));
#1348=DIRECTION('ref_axis',(1.,0.,0.));
#1349=DIRECTION('',(0.,0.,-1.));
#1350=DIRECTION('',(0.,0.,-1.));
#1351=DIRECTION('center_axis',(0.,0.,-1.));
#1352=DIRECTION('ref_axis',(1.,0.,0.));
#1353=DIRECTION('',(0.,0.,-1.));
#1354=DIRECTION('',(0.,0.,-1.));
#1355=DIRECTION('center_axis',(0.,0.,1.));
#1356=DIRECTION('ref_axis',(1.,0.,0.));
#1357=DIRECTION('',(0.,-1.,0.));
#1358=DIRECTION('',(-1.,1.33892896769794E-12,0.));
#1359=DIRECTION('',(1.,2.01858731750028E-16,0.));
#1360=DIRECTION('',(9.71243140902203E-13,1.,0.));
#1361=DIRECTION('center_axis',(2.01858731750028E-16,-1.,0.));
#1362=DIRECTION('ref_axis',(-1.,-2.01858731750028E-16,0.));
#1363=DIRECTION('',(0.,0.,1.));
#1364=DIRECTION('',(-1.,-2.01858731750028E-16,0.));
#1365=DIRECTION('center_axis',(0.,0.,1.));
#1366=DIRECTION('ref_axis',(1.,0.,0.));
#1367=DIRECTION('',(1.,2.01858731750028E-16,0.));
#1368=DIRECTION('center_axis',(0.,0.,1.));
#1369=DIRECTION('ref_axis',(1.,0.,0.));
#1370=DIRECTION('',(1.61604515957105E-16,1.,0.));
#1371=DIRECTION('',(1.,-1.33892896769794E-12,0.));
#1372=DIRECTION('center_axis',(0.,0.,1.));
#1373=DIRECTION('ref_axis',(1.,0.,0.));
#1374=DIRECTION('',(9.71243140902203E-13,1.,0.));
#1375=DIRECTION('center_axis',(0.,0.,1.));
#1376=DIRECTION('ref_axis',(1.,0.,0.));
#1377=DIRECTION('',(1.,2.01858731750028E-16,0.));
#1378=DIRECTION('center_axis',(1.33892896769794E-12,1.,0.));
#1379=DIRECTION('ref_axis',(1.,-1.33892896769794E-12,0.));
#1380=DIRECTION('',(0.,0.,-1.));
#1381=DIRECTION('',(0.,0.,1.));
#1382=DIRECTION('',(0.,0.,-1.));
#1383=DIRECTION('center_axis',(0.,0.,-1.));
#1384=DIRECTION('ref_axis',(-0.999999999999879,4.91367841403884E-7,0.));
#1385=DIRECTION('',(0.,0.,-1.));
#1386=DIRECTION('center_axis',(0.,0.,-1.));
#1387=DIRECTION('ref_axis',(1.,0.,0.));
#1388=DIRECTION('',(0.,0.,-1.));
#1389=DIRECTION('center_axis',(-2.01858731750028E-16,1.,0.));
#1390=DIRECTION('ref_axis',(1.,2.01858731750028E-16,0.));
#1391=DIRECTION('',(0.,0.,-1.));
#1392=DIRECTION('center_axis',(-1.,9.71243140902203E-13,0.));
#1393=DIRECTION('ref_axis',(9.71243140902203E-13,1.,0.));
#1394=DIRECTION('center_axis',(0.,0.,-1.));
#1395=DIRECTION('ref_axis',(1.,0.,0.));
#1396=DIRECTION('',(0.,0.,1.));
#1397=DIRECTION('center_axis',(0.,0.,-1.));
#1398=DIRECTION('ref_axis',(1.,0.,0.));
#1399=DIRECTION('',(0.,0.,1.));
#1400=DIRECTION('center_axis',(0.,0.,-1.));
#1401=DIRECTION('ref_axis',(1.,0.,0.));
#1402=DIRECTION('',(0.,0.,1.));
#1403=DIRECTION('center_axis',(0.,0.,-1.));
#1404=DIRECTION('ref_axis',(1.,0.,0.));
#1405=DIRECTION('',(0.,0.,1.));
#1406=DIRECTION('center_axis',(-1.,1.61604515957105E-16,0.));
#1407=DIRECTION('ref_axis',(1.61604515957105E-16,1.,0.));
#1408=DIRECTION('center_axis',(1.,0.,0.));
#1409=DIRECTION('ref_axis',(0.,-1.,0.));
#1410=CARTESIAN_POINT('',(0.,0.,0.));
#1411=CARTESIAN_POINT('Origin',(4.49999999999562,-24.2399999999969,0.));
#1412=CARTESIAN_POINT('',(6.12499999999563,-24.2399999999969,-2.));
#1413=CARTESIAN_POINT('Origin',(4.49999999999562,-24.2399999999969,-2.));
#1414=CARTESIAN_POINT('',(6.12499999999563,-24.2399999999969,0.));
#1415=CARTESIAN_POINT('',(6.12499999999563,-24.2399999999969,0.));
#1416=CARTESIAN_POINT('Origin',(4.49999999999562,-24.2399999999969,0.));
#1417=CARTESIAN_POINT('Origin',(4.49999999999562,-24.2399999999969,-2.));
#1418=CARTESIAN_POINT('',(2.44999999999562,-24.2399999999969,-2.));
#1419=CARTESIAN_POINT('Origin',(4.49999999999562,-24.2399999999969,-2.));
#1420=CARTESIAN_POINT('Origin',(-4.50000000000438,-24.2399999999953,0.));
#1421=CARTESIAN_POINT('',(-2.87500000000438,-24.2399999999953,-2.));
#1422=CARTESIAN_POINT('Origin',(-4.50000000000438,-24.2399999999953,-2.));
#1423=CARTESIAN_POINT('',(-2.87500000000438,-24.2399999999953,0.));
#1424=CARTESIAN_POINT('',(-2.87500000000438,-24.2399999999953,0.));
#1425=CARTESIAN_POINT('Origin',(-4.50000000000438,-24.2399999999953,0.));
#1426=CARTESIAN_POINT('Origin',(-4.50000000000438,-24.2399999999953,-2.));
#1427=CARTESIAN_POINT('',(-6.55000000000438,-24.2399999999953,-2.));
#1428=CARTESIAN_POINT('Origin',(-4.50000000000438,-24.2399999999953,-2.));
#1429=CARTESIAN_POINT('Origin',(4.5,24.2399999999961,0.));
#1430=CARTESIAN_POINT('',(6.125,24.2399999999961,-2.));
#1431=CARTESIAN_POINT('Origin',(4.5,24.2399999999961,-2.));
#1432=CARTESIAN_POINT('',(6.125,24.2399999999961,0.));
#1433=CARTESIAN_POINT('',(6.125,24.2399999999961,0.));
#1434=CARTESIAN_POINT('Origin',(4.5,24.2399999999961,0.));
#1435=CARTESIAN_POINT('Origin',(4.5,24.2399999999961,-2.));
#1436=CARTESIAN_POINT('',(2.45,24.2399999999961,-2.));
#1437=CARTESIAN_POINT('Origin',(4.5,24.2399999999961,-2.));
#1438=CARTESIAN_POINT('Origin',(-4.5,24.2399999999961,0.));
#1439=CARTESIAN_POINT('',(-2.875,24.2399999999961,-2.));
#1440=CARTESIAN_POINT('Origin',(-4.5,24.2399999999961,-2.));
#1441=CARTESIAN_POINT('',(-2.875,24.2399999999961,0.));
#1442=CARTESIAN_POINT('',(-2.875,24.2399999999961,0.));
#1443=CARTESIAN_POINT('Origin',(-4.5,24.2399999999961,0.));
#1444=CARTESIAN_POINT('Origin',(-4.5,24.2399999999961,-2.));
#1445=CARTESIAN_POINT('',(-6.55,24.2399999999961,-2.));
#1446=CARTESIAN_POINT('Origin',(-4.5,24.2399999999961,-2.));
#1447=CARTESIAN_POINT('Origin',(2.22044604925031E-15,24.2399999999961,-8.));
#1448=CARTESIAN_POINT('',(4.50000011995153,27.4799999999961,-8.));
#1449=CARTESIAN_POINT('',(4.50000289387972,20.9999999999974,-8.));
#1450=CARTESIAN_POINT('Origin',(4.5,24.2399999999961,-8.));
#1451=CARTESIAN_POINT('',(-4.4999971035548,20.9999999999974,-8.));
#1452=CARTESIAN_POINT('',(-11.,21.,-8.));
#1453=CARTESIAN_POINT('',(-4.5,27.4799999999961,-8.));
#1454=CARTESIAN_POINT('Origin',(-4.5,24.2399999999961,-8.));
#1455=CARTESIAN_POINT('',(14.,27.4799999999961,-8.));
#1456=CARTESIAN_POINT('',(-6.55,24.2399999999961,-8.));
#1457=CARTESIAN_POINT('Origin',(-4.5,24.2399999999961,-8.));
#1458=CARTESIAN_POINT('',(2.45,24.2399999999961,-8.));
#1459=CARTESIAN_POINT('Origin',(4.5,24.2399999999961,-8.));
#1460=CARTESIAN_POINT('Origin',(-4.37871960912162E-12,-24.2399999999961,
-8.));
#1461=CARTESIAN_POINT('',(-4.49999681594076,-20.9999999999969,-8.));
#1462=CARTESIAN_POINT('',(4.49999743284126,-20.999999999998,-8.));
#1463=CARTESIAN_POINT('',(11.,-21.,-8.));
#1464=CARTESIAN_POINT('',(4.499998670844,-27.4799999999967,-8.));
#1465=CARTESIAN_POINT('Origin',(4.49999999999562,-24.2399999999969,-8.));
#1466=CARTESIAN_POINT('',(-4.50000000000438,-27.4799999999953,-8.));
#1467=CARTESIAN_POINT('',(-14.,-27.4799999999961,-8.));
#1468=CARTESIAN_POINT('Origin',(-4.50000000000438,-24.2399999999953,-8.));
#1469=CARTESIAN_POINT('',(-6.55000000000438,-24.2399999999953,-8.));
#1470=CARTESIAN_POINT('Origin',(-4.50000000000438,-24.2399999999953,-8.));
#1471=CARTESIAN_POINT('',(2.44999999999562,-24.2399999999969,-8.));
#1472=CARTESIAN_POINT('Origin',(4.49999999999562,-24.2399999999969,-8.));
#1473=CARTESIAN_POINT('Origin',(-14.125,-20.2299999999961,4.55));
#1474=CARTESIAN_POINT('',(-13.8,-18.4799999999961,2.8));
#1475=CARTESIAN_POINT('',(-13.8,-21.9799999999961,6.3));
#1476=CARTESIAN_POINT('',(-13.8,-21.6549999999961,5.975));
#1477=CARTESIAN_POINT('',(-10.4,-21.9799999999961,6.3));
#1478=CARTESIAN_POINT('',(-14.125,-21.9799999999961,6.3));
#1479=CARTESIAN_POINT('',(-10.4,-18.4799999999961,2.8));
#1480=CARTESIAN_POINT('',(-10.4,-8.78499999999708,-6.89499999999903));
#1481=CARTESIAN_POINT('',(-14.125,-18.4799999999961,2.8));
#1482=CARTESIAN_POINT('Origin',(-13.75,-21.9799999999961,6.5));
#1483=CARTESIAN_POINT('',(-13.8,-21.9799999999961,6.46473460385831));
#1484=CARTESIAN_POINT('',(-13.8,-21.9799999999961,4.75));
#1485=CARTESIAN_POINT('',(-14.,-21.9799999999961,6.5));
#1486=CARTESIAN_POINT('',(-13.8787692112009,-21.9799999999961,6.47862374104215));
#1487=CARTESIAN_POINT('',(-14.,-21.9799999999961,10.));
#1488=CARTESIAN_POINT('',(-14.,-21.9799999999961,6.72040872588558));
#1489=CARTESIAN_POINT('',(-10.4,-21.9799999999961,10.));
#1490=CARTESIAN_POINT('',(-11.,-21.9799999999961,10.));
#1491=CARTESIAN_POINT('',(-10.4,-21.9799999999961,3.25));
#1492=CARTESIAN_POINT('Origin',(-14.5,4.44089209850063E-15,2.8));
#1493=CARTESIAN_POINT('',(-10.4,27.4800000000141,2.8));
#1494=CARTESIAN_POINT('',(-10.4,10.5,2.8));
#1495=CARTESIAN_POINT('',(-17.8,27.480000000024,2.8));
#1496=CARTESIAN_POINT('',(-14.2499999999816,27.4800000000192,2.8));
#1497=CARTESIAN_POINT('',(-17.8,-27.4799999999961,2.8));
#1498=CARTESIAN_POINT('',(-17.8,13.7399999999981,2.8));
#1499=CARTESIAN_POINT('',(-13.8,-27.4799999999961,2.8));
#1500=CARTESIAN_POINT('',(-0.249999999999999,-27.4799999999961,2.8));
#1501=CARTESIAN_POINT('',(-13.8,-13.7399999999981,2.8));
#1502=CARTESIAN_POINT('Origin',(14.5999999999733,-27.4799999999961,4.09999999999998));
#1503=CARTESIAN_POINT('',(12.9499999999733,-25.4799999999961,4.09999999999998));
#1504=CARTESIAN_POINT('Origin',(14.5999999999733,-25.4799999999961,4.09999999999998));
#1505=CARTESIAN_POINT('',(12.9499999999733,-27.4799999999961,4.09999999999998));
#1506=CARTESIAN_POINT('',(12.9499999999733,-27.4799999999961,4.09999999999998));
#1507=CARTESIAN_POINT('Origin',(14.5999999999733,-27.4799999999961,4.09999999999998));
#1508=CARTESIAN_POINT('Origin',(14.5999999999733,-25.4799999999961,4.09999999999998));
#1509=CARTESIAN_POINT('',(12.5499999999733,-25.4799999999961,4.09999999999998));
#1510=CARTESIAN_POINT('Origin',(14.5999999999733,-25.4799999999961,4.09999999999998));
#1511=CARTESIAN_POINT('Origin',(14.5999999999733,-27.4799999999961,4.09999999999998));
#1512=CARTESIAN_POINT('',(12.5499999999733,-17.4799999999961,4.09999999999998));
#1513=CARTESIAN_POINT('Origin',(14.5999999999733,-17.4799999999961,4.09999999999998));
#1514=CARTESIAN_POINT('',(12.5499999999733,-27.4799999999961,4.09999999999998));
#1515=CARTESIAN_POINT('Origin',(14.5999996736646,-27.4799999999961,0.299999999999995));
#1516=CARTESIAN_POINT('',(13.8,-27.4799999999961,0.300000000000002));
#1517=CARTESIAN_POINT('',(14.5999996736646,-27.4799999999961,0.299999999999995));
#1518=CARTESIAN_POINT('',(14.2999998368323,-27.4799999999961,0.299999999999998));
#1519=CARTESIAN_POINT('',(13.8,-17.4799999999961,0.300000000000002));
#1520=CARTESIAN_POINT('',(13.8,-5.33795230239775E-12,0.300000000000002));
#1521=CARTESIAN_POINT('',(14.5999996736646,-17.4799999999961,0.299999999999995));
#1522=CARTESIAN_POINT('',(14.5999998368189,-17.4799999999961,0.299999999999995));
#1523=CARTESIAN_POINT('',(14.5999996736646,-27.4799999999961,0.299999999999995));
#1524=CARTESIAN_POINT('Origin',(14.5999999999733,-27.4799999999961,4.09999999999998));
#1525=CARTESIAN_POINT('',(10.7999999999733,-27.4799999999961,4.09999999999998));
#1526=CARTESIAN_POINT('Origin',(14.5999999999733,-27.4799999999961,4.09999999999998));
#1527=CARTESIAN_POINT('',(10.7999999999733,-17.4799999999961,4.09999999999998));
#1528=CARTESIAN_POINT('Origin',(14.5999999999733,-17.4799999999961,4.09999999999998));
#1529=CARTESIAN_POINT('',(10.7999999999733,-27.4799999999959,4.09999999999998));
#1530=CARTESIAN_POINT('Origin',(14.5999999999733,-17.4799999999961,3.84999999999999));
#1531=CARTESIAN_POINT('',(13.8,-17.4799999999961,0.));
#1532=CARTESIAN_POINT('',(13.8,-17.4799999999961,1.92499999999999));
#1533=CARTESIAN_POINT('',(10.799999999983,-17.4799999999961,0.));
#1534=CARTESIAN_POINT('',(7.29999999998665,-17.4799999999961,0.));
#1535=CARTESIAN_POINT('',(10.799999999983,-17.4799999999961,1.92499999999999));
#1536=CARTESIAN_POINT('Origin',(4.44089209850063E-15,-6.79900580280446E-12,
0.));
#1537=CARTESIAN_POINT('',(10.7999999999733,-27.4799999999961,0.));
#1538=CARTESIAN_POINT('',(10.7999999999796,-21.,0.));
#1539=CARTESIAN_POINT('',(10.7999999999898,-10.5000000000085,0.));
#1540=CARTESIAN_POINT('',(-10.4,-21.,0.));
#1541=CARTESIAN_POINT('',(11.,-21.,0.));
#1542=CARTESIAN_POINT('',(-10.4,-27.4799999999961,0.));
#1543=CARTESIAN_POINT('',(-10.4,10.4999999999966,0.));
#1544=CARTESIAN_POINT('',(-11.,-27.4799999999961,0.));
#1545=CARTESIAN_POINT('Origin',(-14.,-24.4799999999961,6.72040872588558));
#1546=CARTESIAN_POINT('',(-16.5,-24.4799999999961,10.));
#1547=CARTESIAN_POINT('Origin',(-14.,-24.4799999999961,10.));
#1548=CARTESIAN_POINT('',(-16.5,-24.4799999999961,6.94081745177116));
#1549=CARTESIAN_POINT('Origin',(-14.,-24.4799999999961,6.5));
#1550=CARTESIAN_POINT('',(-16.5,-24.4799999999961,6.72040872588558));
#1551=CARTESIAN_POINT('Origin',(-16.5,-27.4799999999961,10.));
#1552=CARTESIAN_POINT('',(-16.5,-24.9799999999961,10.));
#1553=CARTESIAN_POINT('',(-16.5,-27.4799999999961,10.));
#1554=CARTESIAN_POINT('',(-14.,-27.4799999999961,10.));
#1555=CARTESIAN_POINT('Origin',(-14.,-24.9799999999961,10.));
#1556=CARTESIAN_POINT('',(-10.4,-27.4799999999961,10.));
#1557=CARTESIAN_POINT('',(-11.,-27.4799999999961,10.));
#1558=CARTESIAN_POINT('',(-10.4,-3.23999999999805,10.));
#1559=CARTESIAN_POINT('',(-15.45,-24.7299999999961,10.));
#1560=CARTESIAN_POINT('Origin',(-13.75,-24.7299999999961,10.));
#1561=CARTESIAN_POINT('Origin',(-14.,-24.9799999999961,3.47040872588558));
#1562=CARTESIAN_POINT('',(-16.5,-24.9799999999961,6.94081745177116));
#1563=CARTESIAN_POINT('',(-16.5,-24.9799999999961,3.47040872588558));
#1564=CARTESIAN_POINT('',(-14.,-27.4799999999961,6.5));
#1565=CARTESIAN_POINT('Origin',(-14.,-24.9799999999961,6.5));
#1566=CARTESIAN_POINT('',(-14.,-27.4799999999961,3.47040872588558));
#1567=CARTESIAN_POINT('Origin',(14.,-27.4799999999961,0.));
#1568=CARTESIAN_POINT('',(-13.8,-27.4799999999961,6.46473460385831));
#1569=CARTESIAN_POINT('',(0.133631078405571,-27.4799999999961,4.00785950549742));
#1570=CARTESIAN_POINT('',(-13.8,-27.4799999999961,1.5));
#1571=CARTESIAN_POINT('',(-17.8,-27.4799999999961,0.2));
#1572=CARTESIAN_POINT('',(-17.8,-27.4799999999961,0.));
#1573=CARTESIAN_POINT('',(-13.8,-27.4799999999961,0.2));
#1574=CARTESIAN_POINT('',(-0.249999999999999,-27.4799999999961,0.2));
#1575=CARTESIAN_POINT('',(-13.8,-27.4799999999961,-3.));
#1576=CARTESIAN_POINT('',(-13.8,-27.4799999999961,0.));
#1577=CARTESIAN_POINT('',(-4.50000000000438,-27.4799999999961,-3.));
#1578=CARTESIAN_POINT('',(-11.,-27.4799999999961,-3.));
#1579=CARTESIAN_POINT('',(-4.50000000000438,-27.4799999999953,0.));
#1580=CARTESIAN_POINT('',(4.499998670844,-27.4799999999967,-3.));
#1581=CARTESIAN_POINT('',(4.499998670844,-27.4799999999967,0.));
#1582=CARTESIAN_POINT('',(10.7999999999733,-27.4799999999961,-3.));
#1583=CARTESIAN_POINT('',(-11.,-27.4799999999961,-3.));
#1584=CARTESIAN_POINT('',(10.7999999999733,-27.4800000000066,-6.));
#1585=CARTESIAN_POINT('',(10.7999999999733,-27.4799999999961,0.));
#1586=CARTESIAN_POINT('',(17.6,-27.4800000000132,-6.));
#1587=CARTESIAN_POINT('',(10.9999999999733,-27.4800000000068,-6.));
#1588=CARTESIAN_POINT('',(17.6,-27.4799999999961,-3.4));
#1589=CARTESIAN_POINT('',(17.6,-27.4799999999961,-1.5));
#1590=CARTESIAN_POINT('',(13.8,-27.4799999999961,-3.4));
#1591=CARTESIAN_POINT('',(14.2499999999933,-27.4799999999961,-3.4));
#1592=CARTESIAN_POINT('',(13.8,-27.4799999999961,0.));
#1593=CARTESIAN_POINT('',(10.7999999999733,-27.4799999999961,0.));
#1594=CARTESIAN_POINT('',(-10.4,-27.4799999999961,0.));
#1595=CARTESIAN_POINT('Origin',(-13.8,-27.4799999999961,3.));
#1596=CARTESIAN_POINT('',(-13.8,-27.4799999999961,6.46473460385831));
#1597=CARTESIAN_POINT('Origin',(-13.75,-24.7299999999961,8.75));
#1598=CARTESIAN_POINT('',(-15.45,-24.7299999999961,7.5));
#1599=CARTESIAN_POINT('',(-15.45,-24.7299999999961,8.75));
#1600=CARTESIAN_POINT('Origin',(-13.75,-24.7299999999961,7.5));
#1601=CARTESIAN_POINT('Origin',(-13.75,-24.7299999999961,7.5));
#1602=CARTESIAN_POINT('Origin',(-10.4,21.,0.));
#1603=CARTESIAN_POINT('',(-10.4,-21.,-3.));
#1604=CARTESIAN_POINT('',(-10.4,-21.,0.));
#1605=CARTESIAN_POINT('',(-10.4,21.,-3.));
#1606=CARTESIAN_POINT('',(-10.4,10.4999999999966,-3.));
#1607=CARTESIAN_POINT('',(-10.4,21.,0.));
#1608=CARTESIAN_POINT('',(-10.4,21.,0.));
#1609=CARTESIAN_POINT('',(-10.4,27.4800000000141,0.));
#1610=CARTESIAN_POINT('',(-10.4,10.4999999999966,0.));
#1611=CARTESIAN_POINT('',(-10.4,27.4800000000141,0.));
#1612=CARTESIAN_POINT('Origin',(-16.5,-27.4799999999961,6.94081745177116));
#1613=CARTESIAN_POINT('',(-16.5,-27.4799999999961,6.94081745177116));
#1614=CARTESIAN_POINT('Origin',(-14.,-27.4799999999961,6.5));
#1615=CARTESIAN_POINT('Origin',(17.6,27.4799999999854,-3.));
#1616=CARTESIAN_POINT('',(17.6,27.4799999999766,-3.4));
#1617=CARTESIAN_POINT('',(17.6,13.7399999999867,-3.4));
#1618=CARTESIAN_POINT('',(17.6,27.4799999999854,-6.));
#1619=CARTESIAN_POINT('',(17.6,13.7399999999867,-6.));
#1620=CARTESIAN_POINT('',(17.6,27.4799999999766,-1.5));
#1621=CARTESIAN_POINT('Origin',(14.4999999999867,-1.21369581052022E-11,
-3.4));
#1622=CARTESIAN_POINT('',(13.8,27.4799999999817,-3.4));
#1623=CARTESIAN_POINT('',(13.8,13.7399999999866,-3.4));
#1624=CARTESIAN_POINT('',(0.250000000011735,27.4799999999998,-3.4));
#1625=CARTESIAN_POINT('Origin',(14.4999999999867,-1.21369581052022E-11,
-6.));
#1626=CARTESIAN_POINT('',(10.8000000000267,27.4799999999854,-6.));
#1627=CARTESIAN_POINT('',(18.,27.4799999999854,-6.));
#1628=CARTESIAN_POINT('',(10.7999999999898,-10.5000000000042,-6.));
#1629=CARTESIAN_POINT('Origin',(4.44089209850063E-15,-6.79900580280446E-12,
-3.));
#1630=CARTESIAN_POINT('',(10.8000000000267,27.4799999999857,-3.));
#1631=CARTESIAN_POINT('',(10.8000000000204,21.,-3.));
#1632=CARTESIAN_POINT('',(10.7999999999898,-10.5000000000085,-3.));
#1633=CARTESIAN_POINT('',(4.50000289387972,20.9999999999974,-3.));
#1634=CARTESIAN_POINT('',(-11.,21.,-3.));
#1635=CARTESIAN_POINT('',(4.50000011995153,27.4799999999961,-3.));
#1636=CARTESIAN_POINT('Origin',(4.5,24.2399999999961,-3.));
#1637=CARTESIAN_POINT('',(15.0000000000267,27.4799999999801,-3.));
#1638=CARTESIAN_POINT('Origin',(-17.8,27.4799999999961,0.));
#1639=CARTESIAN_POINT('',(-17.8,27.480000000024,0.2));
#1640=CARTESIAN_POINT('',(-17.8,13.7399999999981,0.2));
#1641=CARTESIAN_POINT('',(-17.8,27.480000000024,0.));
#1642=CARTESIAN_POINT('Origin',(-14.5,4.44089209850063E-15,0.2));
#1643=CARTESIAN_POINT('',(-13.8,27.4800000000186,0.2));
#1644=CARTESIAN_POINT('',(-13.8,-13.7399999999981,0.2));
#1645=CARTESIAN_POINT('',(-14.2499999999816,27.4800000000192,0.2));
#1646=CARTESIAN_POINT('Origin',(-4.5,24.2399999999961,0.));
#1647=CARTESIAN_POINT('',(-4.5,27.4799999999961,-3.));
#1648=CARTESIAN_POINT('',(-4.5,21.,-3.));
#1649=CARTESIAN_POINT('Origin',(-4.5,24.2399999999961,-3.));
#1650=CARTESIAN_POINT('',(-4.5,27.4799999999961,0.));
#1651=CARTESIAN_POINT('',(-4.4999971035548,20.9999999999974,0.));
#1652=CARTESIAN_POINT('Origin',(4.5,24.2399999999961,0.));
#1653=CARTESIAN_POINT('',(4.50000289387972,20.9999999999974,0.));
#1654=CARTESIAN_POINT('',(4.50000011995153,27.4799999999961,0.));
#1655=CARTESIAN_POINT('Origin',(4.44089209850063E-15,-6.79900580280446E-12,
0.));
#1656=CARTESIAN_POINT('',(13.8,27.4799999999817,0.));
#1657=CARTESIAN_POINT('',(13.8,13.7399999999893,0.));
#1658=CARTESIAN_POINT('',(15.0000000000267,27.4799999999801,0.));
#1659=CARTESIAN_POINT('',(10.8000000000204,21.,0.));
#1660=CARTESIAN_POINT('',(-11.,21.,0.));
#1661=CARTESIAN_POINT('',(10.7999999999898,-10.5000000000085,0.));
#1662=CARTESIAN_POINT('Origin',(11.,21.,0.));
#1663=CARTESIAN_POINT('',(10.8000000000204,21.,0.));
#1664=CARTESIAN_POINT('',(-11.,21.,-3.));
#1665=CARTESIAN_POINT('Origin',(4.44089209850063E-15,-6.79900580280446E-12,
-3.));
#1666=CARTESIAN_POINT('',(-4.50000000000438,-21.,-3.));
#1667=CARTESIAN_POINT('',(11.,-21.,-3.));
#1668=CARTESIAN_POINT('Origin',(-4.50000000000438,-24.2399999999953,-3.));
#1669=CARTESIAN_POINT('',(-13.8,27.4800000000186,-3.));
#1670=CARTESIAN_POINT('',(-13.8,-13.7400000000015,-3.));
#1671=CARTESIAN_POINT('',(15.0000000000267,27.4799999999801,-3.));
#1672=CARTESIAN_POINT('Origin',(4.44089209850063E-15,-6.79900580280446E-12,
-3.));
#1673=CARTESIAN_POINT('',(10.7999999999796,-21.,-3.));
#1674=CARTESIAN_POINT('',(10.7999999999898,-10.5000000000085,-3.));
#1675=CARTESIAN_POINT('',(4.49999999999562,-21.,-3.));
#1676=CARTESIAN_POINT('Origin',(4.49999999999562,-24.2399999999969,-3.));
#1677=CARTESIAN_POINT('',(11.,-21.,-3.));
#1678=CARTESIAN_POINT('Origin',(-14.,27.4800000000189,0.));
#1679=CARTESIAN_POINT('',(-13.8,27.4800000000186,0.));
#1680=CARTESIAN_POINT('',(13.8,27.4799999999817,0.));
#1681=CARTESIAN_POINT('',(10.8000000000267,27.4799999999857,0.));
#1682=CARTESIAN_POINT('Origin',(-4.50000000000438,-24.2399999999953,0.));
#1683=CARTESIAN_POINT('',(-4.49999681594076,-20.9999999999969,0.));
#1684=CARTESIAN_POINT('Origin',(4.49999999999562,-24.2399999999969,0.));
#1685=CARTESIAN_POINT('',(4.49999743284126,-20.999999999998,0.));
#1686=CARTESIAN_POINT('Origin',(-11.,-21.,0.));
#1687=CARTESIAN_POINT('',(10.7999999999796,-21.,0.));
#1688=CARTESIAN_POINT('Origin',(10.7999999999796,-20.9999999999998,0.));
#1689=CARTESIAN_POINT('Origin',(-4.50000000000438,-24.2399999999953,0.));
#1690=CARTESIAN_POINT('',(-6.55000000000438,-24.2399999999953,0.));
#1691=CARTESIAN_POINT('Origin',(-4.5,24.2399999999961,0.));
#1692=CARTESIAN_POINT('',(-6.55,24.2399999999961,0.));
#1693=CARTESIAN_POINT('Origin',(4.49999999999562,-24.2399999999969,0.));
#1694=CARTESIAN_POINT('',(2.44999999999562,-24.2399999999969,0.));
#1695=CARTESIAN_POINT('Origin',(4.5,24.2399999999961,0.));
#1696=CARTESIAN_POINT('',(2.45,24.2399999999961,0.));
#1697=CARTESIAN_POINT('Origin',(-13.8,-27.4799999999961,0.));
#1698=CARTESIAN_POINT('Origin',(13.8,27.4799999999854,0.));
#1699=UNCERTAINTY_MEASURE_WITH_UNIT(LENGTH_MEASURE(0.01),#1703,
'DISTANCE_ACCURACY_VALUE',
'Maximum model space distance between geometric entities at asserted c
onnectivities');
#1700=UNCERTAINTY_MEASURE_WITH_UNIT(LENGTH_MEASURE(0.01),#1703,
'DISTANCE_ACCURACY_VALUE',
'Maximum model space distance between geometric entities at asserted c
onnectivities');
#1701=(
GEOMETRIC_REPRESENTATION_CONTEXT(3)
GLOBAL_UNCERTAINTY_ASSIGNED_CONTEXT((#1699))
GLOBAL_UNIT_ASSIGNED_CONTEXT((#1703,#1705,#1706))
REPRESENTATION_CONTEXT('','3D')
);
#1702=(
GEOMETRIC_REPRESENTATION_CONTEXT(3)
GLOBAL_UNCERTAINTY_ASSIGNED_CONTEXT((#1700))
GLOBAL_UNIT_ASSIGNED_CONTEXT((#1703,#1705,#1706))
REPRESENTATION_CONTEXT('','3D')
);
#1703=(
LENGTH_UNIT()
NAMED_UNIT(*)
SI_UNIT(.MILLI.,.METRE.)
);
#1704=(
LENGTH_UNIT()
NAMED_UNIT(*)
SI_UNIT($,.METRE.)
);
#1705=(
NAMED_UNIT(*)
PLANE_ANGLE_UNIT()
SI_UNIT($,.RADIAN.)
);
#1706=(
NAMED_UNIT(*)
SI_UNIT($,.STERADIAN.)
SOLID_ANGLE_UNIT()
);
#1707=SHAPE_DEFINITION_REPRESENTATION(#1708,#1709);
#1708=PRODUCT_DEFINITION_SHAPE('',$,#1711);
#1709=SHAPE_REPRESENTATION('',(#1035),#1701);
#1710=PRODUCT_DEFINITION_CONTEXT('part definition',#1715,'design');
#1711=PRODUCT_DEFINITION('ServoMount','ServoMount v42',#1712,#1710);
#1712=PRODUCT_DEFINITION_FORMATION('',$,#1717);
#1713=PRODUCT_RELATED_PRODUCT_CATEGORY('ServoMount v42',
'ServoMount v42',(#1717));
#1714=APPLICATION_PROTOCOL_DEFINITION('international standard',
'automotive_design',2009,#1715);
#1715=APPLICATION_CONTEXT(
'Core Data for Automotive Mechanical Design Process');
#1716=PRODUCT_CONTEXT('part definition',#1715,'mechanical');
#1717=PRODUCT('ServoMount','ServoMount v42',$,(#1716));
#1718=PRESENTATION_STYLE_ASSIGNMENT((#1720));
#1719=PRESENTATION_STYLE_ASSIGNMENT((#1721));
#1720=SURFACE_STYLE_USAGE(.BOTH.,#1722);
#1721=SURFACE_STYLE_USAGE(.BOTH.,#1723);
#1722=SURFACE_SIDE_STYLE('',(#1724));
#1723=SURFACE_SIDE_STYLE('',(#1725));
#1724=SURFACE_STYLE_FILL_AREA(#1726);
#1725=SURFACE_STYLE_FILL_AREA(#1727);
#1726=FILL_AREA_STYLE('Steel - Satin',(#1728));
#1727=FILL_AREA_STYLE('Plastic - Matte (White)',(#1729));
#1728=FILL_AREA_STYLE_COLOUR('Steel - Satin',#1730);
#1729=FILL_AREA_STYLE_COLOUR('Plastic - Matte (White)',#1731);
#1730=COLOUR_RGB('Steel - Satin',0.627450980392157,0.627450980392157,0.627450980392157);
#1731=COLOUR_RGB('Plastic - Matte (White)',0.964705882352941,0.964705882352941,
0.952941176470588);
ENDSEC;
END-ISO-10303-21;
