ISO-10303-21;
HEADER;
/* Generated by software containing ST-Developer
 * from STEP Tools, Inc. (www.steptools.com) 
 */

FILE_DESCRIPTION(
/* description */ (''),
/* implementation_level */ '2;1');

FILE_NAME(
/* name */ 'ServoSupport_v8.step',
/* time_stamp */ '2026-08-21T09:15:33-04:00',
/* author */ (''),
/* organization */ (''),
/* preprocessor_version */ 'ST-DEVELOPER v20.1',
/* originating_system */ 'Autodesk Translation Framework v15.8.0.0',
/* authorisation */ '');

FILE_SCHEMA (('AUTOMOTIVE_DESIGN { 1 0 10303 214 3 1 1 }'));
ENDSEC;

DATA;
#10=MECHANICAL_DESIGN_GEOMETRIC_PRESENTATION_REPRESENTATION('',(#13,#14),
#1268);
#11=SHAPE_REPRESENTATION_RELATIONSHIP('SRR','None',#1275,#12);
#12=ADVANCED_BREP_SHAPE_REPRESENTATION('',(#15,#16),#1267);
#13=STYLED_ITEM('',(#1285),#15);
#14=STYLED_ITEM('',(#1285),#16);
#15=MANIFOLD_SOLID_BREP('Body1',#739);
#16=MANIFOLD_SOLID_BREP('Body2',#740);
#17=FACE_BOUND('',#104,.T.);
#18=FACE_BOUND('',#105,.T.);
#19=FACE_BOUND('',#107,.T.);
#20=FACE_BOUND('',#108,.T.);
#21=FACE_BOUND('',#112,.T.);
#22=FACE_BOUND('',#115,.T.);
#23=FACE_BOUND('',#120,.T.);
#24=FACE_BOUND('',#121,.T.);
#25=FACE_BOUND('',#130,.T.);
#26=FACE_BOUND('',#131,.T.);
#27=FACE_BOUND('',#135,.T.);
#28=FACE_BOUND('',#136,.T.);
#29=FACE_BOUND('',#138,.T.);
#30=FACE_BOUND('',#139,.T.);
#31=FACE_BOUND('',#143,.T.);
#32=FACE_BOUND('',#146,.T.);
#33=FACE_BOUND('',#151,.T.);
#34=FACE_BOUND('',#152,.T.);
#35=FACE_BOUND('',#161,.T.);
#36=FACE_BOUND('',#162,.T.);
#37=PLANE('',#757);
#38=PLANE('',#758);
#39=PLANE('',#762);
#40=PLANE('',#770);
#41=PLANE('',#775);
#42=PLANE('',#779);
#43=PLANE('',#780);
#44=PLANE('',#787);
#45=PLANE('',#790);
#46=PLANE('',#793);
#47=PLANE('',#794);
#48=PLANE('',#798);
#49=PLANE('',#799);
#50=PLANE('',#803);
#51=PLANE('',#811);
#52=PLANE('',#816);
#53=PLANE('',#820);
#54=PLANE('',#821);
#55=PLANE('',#828);
#56=PLANE('',#831);
#57=PLANE('',#834);
#58=PLANE('',#835);
#59=FACE_OUTER_BOUND('',#101,.T.);
#60=FACE_OUTER_BOUND('',#102,.T.);
#61=FACE_OUTER_BOUND('',#103,.T.);
#62=FACE_OUTER_BOUND('',#106,.T.);
#63=FACE_OUTER_BOUND('',#109,.T.);
#64=FACE_OUTER_BOUND('',#110,.T.);
#65=FACE_OUTER_BOUND('',#111,.T.);
#66=FACE_OUTER_BOUND('',#113,.T.);
#67=FACE_OUTER_BOUND('',#114,.T.);
#68=FACE_OUTER_BOUND('',#116,.T.);
#69=FACE_OUTER_BOUND('',#117,.T.);
#70=FACE_OUTER_BOUND('',#118,.T.);
#71=FACE_OUTER_BOUND('',#119,.T.);
#72=FACE_OUTER_BOUND('',#122,.T.);
#73=FACE_OUTER_BOUND('',#123,.T.);
#74=FACE_OUTER_BOUND('',#124,.T.);
#75=FACE_OUTER_BOUND('',#125,.T.);
#76=FACE_OUTER_BOUND('',#126,.T.);
#77=FACE_OUTER_BOUND('',#127,.T.);
#78=FACE_OUTER_BOUND('',#128,.T.);
#79=FACE_OUTER_BOUND('',#129,.T.);
#80=FACE_OUTER_BOUND('',#132,.T.);
#81=FACE_OUTER_BOUND('',#133,.T.);
#82=FACE_OUTER_BOUND('',#134,.T.);
#83=FACE_OUTER_BOUND('',#137,.T.);
#84=FACE_OUTER_BOUND('',#140,.T.);
#85=FACE_OUTER_BOUND('',#141,.T.);
#86=FACE_OUTER_BOUND('',#142,.T.);
#87=FACE_OUTER_BOUND('',#144,.T.);
#88=FACE_OUTER_BOUND('',#145,.T.);
#89=FACE_OUTER_BOUND('',#147,.T.);
#90=FACE_OUTER_BOUND('',#148,.T.);
#91=FACE_OUTER_BOUND('',#149,.T.);
#92=FACE_OUTER_BOUND('',#150,.T.);
#93=FACE_OUTER_BOUND('',#153,.T.);
#94=FACE_OUTER_BOUND('',#154,.T.);
#95=FACE_OUTER_BOUND('',#155,.T.);
#96=FACE_OUTER_BOUND('',#156,.T.);
#97=FACE_OUTER_BOUND('',#157,.T.);
#98=FACE_OUTER_BOUND('',#158,.T.);
#99=FACE_OUTER_BOUND('',#159,.T.);
#100=FACE_OUTER_BOUND('',#160,.T.);
#101=EDGE_LOOP('',(#481,#482,#483,#484));
#102=EDGE_LOOP('',(#485,#486,#487,#488));
#103=EDGE_LOOP('',(#489,#490,#491,#492,#493,#494));
#104=EDGE_LOOP('',(#495));
#105=EDGE_LOOP('',(#496));
#106=EDGE_LOOP('',(#497,#498,#499,#500,#501,#502));
#107=EDGE_LOOP('',(#503));
#108=EDGE_LOOP('',(#504));
#109=EDGE_LOOP('',(#505,#506,#507,#508));
#110=EDGE_LOOP('',(#509,#510,#511,#512));
#111=EDGE_LOOP('',(#513));
#112=EDGE_LOOP('',(#514));
#113=EDGE_LOOP('',(#515,#516,#517,#518));
#114=EDGE_LOOP('',(#519));
#115=EDGE_LOOP('',(#520));
#116=EDGE_LOOP('',(#521,#522,#523,#524));
#117=EDGE_LOOP('',(#525,#526,#527,#528));
#118=EDGE_LOOP('',(#529,#530,#531,#532));
#119=EDGE_LOOP('',(#533,#534,#535,#536,#537,#538));
#120=EDGE_LOOP('',(#539));
#121=EDGE_LOOP('',(#540));
#122=EDGE_LOOP('',(#541,#542,#543,#544));
#123=EDGE_LOOP('',(#545,#546,#547,#548));
#124=EDGE_LOOP('',(#549,#550,#551,#552));
#125=EDGE_LOOP('',(#553,#554,#555,#556));
#126=EDGE_LOOP('',(#557,#558,#559,#560));
#127=EDGE_LOOP('',(#561,#562,#563,#564));
#128=EDGE_LOOP('',(#565,#566,#567,#568));
#129=EDGE_LOOP('',(#569,#570,#571,#572,#573,#574,#575,#576));
#130=EDGE_LOOP('',(#577));
#131=EDGE_LOOP('',(#578));
#132=EDGE_LOOP('',(#579,#580,#581,#582));
#133=EDGE_LOOP('',(#583,#584,#585,#586));
#134=EDGE_LOOP('',(#587,#588,#589,#590,#591,#592));
#135=EDGE_LOOP('',(#593));
#136=EDGE_LOOP('',(#594));
#137=EDGE_LOOP('',(#595,#596,#597,#598,#599,#600));
#138=EDGE_LOOP('',(#601));
#139=EDGE_LOOP('',(#602));
#140=EDGE_LOOP('',(#603,#604,#605,#606));
#141=EDGE_LOOP('',(#607,#608,#609,#610));
#142=EDGE_LOOP('',(#611));
#143=EDGE_LOOP('',(#612));
#144=EDGE_LOOP('',(#613,#614,#615,#616));
#145=EDGE_LOOP('',(#617));
#146=EDGE_LOOP('',(#618));
#147=EDGE_LOOP('',(#619,#620,#621,#622));
#148=EDGE_LOOP('',(#623,#624,#625,#626));
#149=EDGE_LOOP('',(#627,#628,#629,#630));
#150=EDGE_LOOP('',(#631,#632,#633,#634,#635,#636));
#151=EDGE_LOOP('',(#637));
#152=EDGE_LOOP('',(#638));
#153=EDGE_LOOP('',(#639,#640,#641,#642));
#154=EDGE_LOOP('',(#643,#644,#645,#646));
#155=EDGE_LOOP('',(#647,#648,#649,#650));
#156=EDGE_LOOP('',(#651,#652,#653,#654));
#157=EDGE_LOOP('',(#655,#656,#657,#658));
#158=EDGE_LOOP('',(#659,#660,#661,#662));
#159=EDGE_LOOP('',(#663,#664,#665,#666));
#160=EDGE_LOOP('',(#667,#668,#669,#670,#671,#672,#673,#674));
#161=EDGE_LOOP('',(#675));
#162=EDGE_LOOP('',(#676));
#163=LINE('',#1066,#221);
#164=LINE('',#1069,#222);
#165=LINE('',#1072,#223);
#166=LINE('',#1074,#224);
#167=LINE('',#1075,#225);
#168=LINE('',#1078,#226);
#169=LINE('',#1080,#227);
#170=LINE('',#1082,#228);
#171=LINE('',#1092,#229);
#172=LINE('',#1094,#230);
#173=LINE('',#1095,#231);
#174=LINE('',#1101,#232);
#175=LINE('',#1106,#233);
#176=LINE('',#1115,#234);
#177=LINE('',#1121,#235);
#178=LINE('',#1123,#236);
#179=LINE('',#1125,#237);
#180=LINE('',#1128,#238);
#181=LINE('',#1132,#239);
#182=LINE('',#1135,#240);
#183=LINE('',#1139,#241);
#184=LINE('',#1143,#242);
#185=LINE('',#1146,#243);
#186=LINE('',#1147,#244);
#187=LINE('',#1151,#245);
#188=LINE('',#1154,#246);
#189=LINE('',#1155,#247);
#190=LINE('',#1159,#248);
#191=LINE('',#1161,#249);
#192=LINE('',#1168,#250);
#193=LINE('',#1171,#251);
#194=LINE('',#1174,#252);
#195=LINE('',#1176,#253);
#196=LINE('',#1177,#254);
#197=LINE('',#1182,#255);
#198=LINE('',#1184,#256);
#199=LINE('',#1185,#257);
#200=LINE('',#1192,#258);
#201=LINE('',#1194,#259);
#202=LINE('',#1196,#260);
#203=LINE('',#1203,#261);
#204=LINE('',#1208,#262);
#205=LINE('',#1217,#263);
#206=LINE('',#1223,#264);
#207=LINE('',#1225,#265);
#208=LINE('',#1227,#266);
#209=LINE('',#1230,#267);
#210=LINE('',#1234,#268);
#211=LINE('',#1237,#269);
#212=LINE('',#1241,#270);
#213=LINE('',#1245,#271);
#214=LINE('',#1248,#272);
#215=LINE('',#1249,#273);
#216=LINE('',#1252,#274);
#217=LINE('',#1256,#275);
#218=LINE('',#1257,#276);
#219=LINE('',#1260,#277);
#220=LINE('',#1263,#278);
#221=VECTOR('',#842,10.);
#222=VECTOR('',#845,10.);
#223=VECTOR('',#848,10.);
#224=VECTOR('',#849,10.);
#225=VECTOR('',#850,10.);
#226=VECTOR('',#853,10.);
#227=VECTOR('',#854,10.);
#228=VECTOR('',#855,10.);
#229=VECTOR('',#866,10.);
#230=VECTOR('',#867,10.);
#231=VECTOR('',#868,10.);
#232=VECTOR('',#875,10.);
#233=VECTOR('',#880,1.5);
#234=VECTOR('',#891,1.5);
#235=VECTOR('',#900,1.5);
#236=VECTOR('',#903,1.5);
#237=VECTOR('',#906,10.);
#238=VECTOR('',#909,10.);
#239=VECTOR('',#912,10.);
#240=VECTOR('',#915,10.);
#241=VECTOR('',#920,2.1);
#242=VECTOR('',#925,2.1);
#243=VECTOR('',#928,10.);
#244=VECTOR('',#929,10.);
#245=VECTOR('',#934,10.);
#246=VECTOR('',#937,10.);
#247=VECTOR('',#938,10.);
#248=VECTOR('',#943,10.);
#249=VECTOR('',#946,10.);
#250=VECTOR('',#953,10.);
#251=VECTOR('',#956,10.);
#252=VECTOR('',#959,10.);
#253=VECTOR('',#960,10.);
#254=VECTOR('',#961,10.);
#255=VECTOR('',#966,10.);
#256=VECTOR('',#967,10.);
#257=VECTOR('',#968,10.);
#258=VECTOR('',#975,10.);
#259=VECTOR('',#976,10.);
#260=VECTOR('',#977,10.);
#261=VECTOR('',#986,10.);
#262=VECTOR('',#991,1.5);
#263=VECTOR('',#1002,1.5);
#264=VECTOR('',#1011,1.5);
#265=VECTOR('',#1014,1.5);
#266=VECTOR('',#1017,10.);
#267=VECTOR('',#1020,10.);
#268=VECTOR('',#1023,10.);
#269=VECTOR('',#1026,10.);
#270=VECTOR('',#1031,2.1);
#271=VECTOR('',#1036,2.1);
#272=VECTOR('',#1039,10.);
#273=VECTOR('',#1040,10.);
#274=VECTOR('',#1043,10.);
#275=VECTOR('',#1048,10.);
#276=VECTOR('',#1049,10.);
#277=VECTOR('',#1052,10.);
#278=VECTOR('',#1057,10.);
#279=CIRCLE('',#755,3.);
#280=CIRCLE('',#756,3.);
#281=CIRCLE('',#759,3.);
#282=CIRCLE('',#760,1.5);
#283=CIRCLE('',#761,1.5);
#284=CIRCLE('',#763,3.);
#285=CIRCLE('',#764,1.5);
#286=CIRCLE('',#765,1.5);
#287=CIRCLE('',#768,1.5);
#288=CIRCLE('',#769,1.5);
#289=CIRCLE('',#771,2.1);
#290=CIRCLE('',#773,1.5);
#291=CIRCLE('',#774,1.5);
#292=CIRCLE('',#776,2.1);
#293=CIRCLE('',#781,3.23999999999999);
#294=CIRCLE('',#782,3.23999999999999);
#295=CIRCLE('',#784,2.1);
#296=CIRCLE('',#786,2.1);
#297=CIRCLE('',#789,3.23999999999999);
#298=CIRCLE('',#792,3.23999999999999);
#299=CIRCLE('',#796,3.);
#300=CIRCLE('',#797,3.);
#301=CIRCLE('',#800,3.);
#302=CIRCLE('',#801,1.5);
#303=CIRCLE('',#802,1.5);
#304=CIRCLE('',#804,3.);
#305=CIRCLE('',#805,1.5);
#306=CIRCLE('',#806,1.5);
#307=CIRCLE('',#809,1.5);
#308=CIRCLE('',#810,1.5);
#309=CIRCLE('',#812,2.1);
#310=CIRCLE('',#814,1.5);
#311=CIRCLE('',#815,1.5);
#312=CIRCLE('',#817,2.1);
#313=CIRCLE('',#822,3.23999999999999);
#314=CIRCLE('',#823,3.23999999999999);
#315=CIRCLE('',#825,2.1);
#316=CIRCLE('',#827,2.1);
#317=CIRCLE('',#830,3.23999999999999);
#318=CIRCLE('',#833,3.23999999999999);
#319=VERTEX_POINT('',#1062);
#320=VERTEX_POINT('',#1063);
#321=VERTEX_POINT('',#1065);
#322=VERTEX_POINT('',#1067);
#323=VERTEX_POINT('',#1071);
#324=VERTEX_POINT('',#1073);
#325=VERTEX_POINT('',#1077);
#326=VERTEX_POINT('',#1079);
#327=VERTEX_POINT('',#1081);
#328=VERTEX_POINT('',#1084);
#329=VERTEX_POINT('',#1086);
#330=VERTEX_POINT('',#1089);
#331=VERTEX_POINT('',#1091);
#332=VERTEX_POINT('',#1093);
#333=VERTEX_POINT('',#1096);
#334=VERTEX_POINT('',#1098);
#335=VERTEX_POINT('',#1103);
#336=VERTEX_POINT('',#1105);
#337=VERTEX_POINT('',#1109);
#338=VERTEX_POINT('',#1112);
#339=VERTEX_POINT('',#1114);
#340=VERTEX_POINT('',#1118);
#341=VERTEX_POINT('',#1127);
#342=VERTEX_POINT('',#1129);
#343=VERTEX_POINT('',#1131);
#344=VERTEX_POINT('',#1133);
#345=VERTEX_POINT('',#1137);
#346=VERTEX_POINT('',#1141);
#347=VERTEX_POINT('',#1145);
#348=VERTEX_POINT('',#1149);
#349=VERTEX_POINT('',#1153);
#350=VERTEX_POINT('',#1157);
#351=VERTEX_POINT('',#1164);
#352=VERTEX_POINT('',#1165);
#353=VERTEX_POINT('',#1167);
#354=VERTEX_POINT('',#1169);
#355=VERTEX_POINT('',#1173);
#356=VERTEX_POINT('',#1175);
#357=VERTEX_POINT('',#1179);
#358=VERTEX_POINT('',#1181);
#359=VERTEX_POINT('',#1183);
#360=VERTEX_POINT('',#1186);
#361=VERTEX_POINT('',#1188);
#362=VERTEX_POINT('',#1191);
#363=VERTEX_POINT('',#1193);
#364=VERTEX_POINT('',#1195);
#365=VERTEX_POINT('',#1198);
#366=VERTEX_POINT('',#1200);
#367=VERTEX_POINT('',#1205);
#368=VERTEX_POINT('',#1207);
#369=VERTEX_POINT('',#1211);
#370=VERTEX_POINT('',#1214);
#371=VERTEX_POINT('',#1216);
#372=VERTEX_POINT('',#1220);
#373=VERTEX_POINT('',#1229);
#374=VERTEX_POINT('',#1231);
#375=VERTEX_POINT('',#1233);
#376=VERTEX_POINT('',#1235);
#377=VERTEX_POINT('',#1239);
#378=VERTEX_POINT('',#1243);
#379=VERTEX_POINT('',#1247);
#380=VERTEX_POINT('',#1251);
#381=VERTEX_POINT('',#1255);
#382=VERTEX_POINT('',#1259);
#383=EDGE_CURVE('',#319,#320,#279,.T.);
#384=EDGE_CURVE('',#320,#321,#163,.T.);
#385=EDGE_CURVE('',#321,#322,#280,.T.);
#386=EDGE_CURVE('',#322,#319,#164,.T.);
#387=EDGE_CURVE('',#322,#323,#165,.T.);
#388=EDGE_CURVE('',#324,#323,#166,.T.);
#389=EDGE_CURVE('',#324,#319,#167,.T.);
#390=EDGE_CURVE('',#325,#321,#168,.T.);
#391=EDGE_CURVE('',#325,#326,#169,.T.);
#392=EDGE_CURVE('',#326,#327,#170,.T.);
#393=EDGE_CURVE('',#323,#327,#281,.T.);
#394=EDGE_CURVE('',#328,#328,#282,.T.);
#395=EDGE_CURVE('',#329,#329,#283,.T.);
#396=EDGE_CURVE('',#330,#324,#284,.T.);
#397=EDGE_CURVE('',#331,#330,#171,.T.);
#398=EDGE_CURVE('',#332,#331,#172,.T.);
#399=EDGE_CURVE('',#320,#332,#173,.T.);
#400=EDGE_CURVE('',#333,#333,#285,.T.);
#401=EDGE_CURVE('',#334,#334,#286,.T.);
#402=EDGE_CURVE('',#327,#330,#174,.T.);
#403=EDGE_CURVE('',#335,#335,#287,.T.);
#404=EDGE_CURVE('',#335,#336,#175,.T.);
#405=EDGE_CURVE('',#336,#336,#288,.T.);
#406=EDGE_CURVE('',#337,#337,#289,.T.);
#407=EDGE_CURVE('',#338,#338,#290,.T.);
#408=EDGE_CURVE('',#338,#339,#176,.T.);
#409=EDGE_CURVE('',#339,#339,#291,.T.);
#410=EDGE_CURVE('',#340,#340,#292,.T.);
#411=EDGE_CURVE('',#328,#334,#177,.T.);
#412=EDGE_CURVE('',#329,#333,#178,.T.);
#413=EDGE_CURVE('',#331,#326,#179,.T.);
#414=EDGE_CURVE('',#326,#341,#180,.T.);
#415=EDGE_CURVE('',#341,#342,#293,.T.);
#416=EDGE_CURVE('',#342,#343,#181,.T.);
#417=EDGE_CURVE('',#343,#344,#294,.T.);
#418=EDGE_CURVE('',#344,#331,#182,.T.);
#419=EDGE_CURVE('',#345,#345,#295,.T.);
#420=EDGE_CURVE('',#345,#337,#183,.T.);
#421=EDGE_CURVE('',#346,#346,#296,.T.);
#422=EDGE_CURVE('',#346,#340,#184,.T.);
#423=EDGE_CURVE('',#347,#325,#185,.T.);
#424=EDGE_CURVE('',#347,#341,#186,.T.);
#425=EDGE_CURVE('',#348,#347,#297,.T.);
#426=EDGE_CURVE('',#348,#342,#187,.T.);
#427=EDGE_CURVE('',#349,#348,#188,.T.);
#428=EDGE_CURVE('',#349,#343,#189,.T.);
#429=EDGE_CURVE('',#350,#349,#298,.T.);
#430=EDGE_CURVE('',#350,#344,#190,.T.);
#431=EDGE_CURVE('',#332,#350,#191,.T.);
#432=EDGE_CURVE('',#351,#352,#299,.T.);
#433=EDGE_CURVE('',#353,#351,#192,.T.);
#434=EDGE_CURVE('',#354,#353,#300,.T.);
#435=EDGE_CURVE('',#352,#354,#193,.T.);
#436=EDGE_CURVE('',#355,#351,#194,.T.);
#437=EDGE_CURVE('',#355,#356,#195,.T.);
#438=EDGE_CURVE('',#353,#356,#196,.T.);
#439=EDGE_CURVE('',#356,#357,#301,.T.);
#440=EDGE_CURVE('',#358,#357,#197,.T.);
#441=EDGE_CURVE('',#359,#358,#198,.T.);
#442=EDGE_CURVE('',#359,#354,#199,.T.);
#443=EDGE_CURVE('',#360,#360,#302,.T.);
#444=EDGE_CURVE('',#361,#361,#303,.T.);
#445=EDGE_CURVE('',#352,#362,#200,.T.);
#446=EDGE_CURVE('',#362,#363,#201,.T.);
#447=EDGE_CURVE('',#363,#364,#202,.T.);
#448=EDGE_CURVE('',#364,#355,#304,.T.);
#449=EDGE_CURVE('',#365,#365,#305,.T.);
#450=EDGE_CURVE('',#366,#366,#306,.T.);
#451=EDGE_CURVE('',#357,#364,#203,.T.);
#452=EDGE_CURVE('',#367,#367,#307,.T.);
#453=EDGE_CURVE('',#367,#368,#204,.T.);
#454=EDGE_CURVE('',#368,#368,#308,.T.);
#455=EDGE_CURVE('',#369,#369,#309,.T.);
#456=EDGE_CURVE('',#370,#370,#310,.T.);
#457=EDGE_CURVE('',#370,#371,#205,.T.);
#458=EDGE_CURVE('',#371,#371,#311,.T.);
#459=EDGE_CURVE('',#372,#372,#312,.T.);
#460=EDGE_CURVE('',#360,#366,#206,.T.);
#461=EDGE_CURVE('',#361,#365,#207,.T.);
#462=EDGE_CURVE('',#363,#358,#208,.T.);
#463=EDGE_CURVE('',#373,#363,#209,.T.);
#464=EDGE_CURVE('',#374,#373,#313,.T.);
#465=EDGE_CURVE('',#375,#374,#210,.T.);
#466=EDGE_CURVE('',#376,#375,#314,.T.);
#467=EDGE_CURVE('',#358,#376,#211,.T.);
#468=EDGE_CURVE('',#377,#377,#315,.T.);
#469=EDGE_CURVE('',#377,#369,#212,.T.);
#470=EDGE_CURVE('',#378,#378,#316,.T.);
#471=EDGE_CURVE('',#378,#372,#213,.T.);
#472=EDGE_CURVE('',#379,#376,#214,.T.);
#473=EDGE_CURVE('',#379,#359,#215,.T.);
#474=EDGE_CURVE('',#380,#375,#216,.T.);
#475=EDGE_CURVE('',#380,#379,#317,.T.);
#476=EDGE_CURVE('',#381,#374,#217,.T.);
#477=EDGE_CURVE('',#381,#380,#218,.T.);
#478=EDGE_CURVE('',#382,#373,#219,.T.);
#479=EDGE_CURVE('',#382,#381,#318,.T.);
#480=EDGE_CURVE('',#362,#382,#220,.T.);
#481=ORIENTED_EDGE('',*,*,#383,.T.);
#482=ORIENTED_EDGE('',*,*,#384,.T.);
#483=ORIENTED_EDGE('',*,*,#385,.T.);
#484=ORIENTED_EDGE('',*,*,#386,.T.);
#485=ORIENTED_EDGE('',*,*,#386,.F.);
#486=ORIENTED_EDGE('',*,*,#387,.T.);
#487=ORIENTED_EDGE('',*,*,#388,.F.);
#488=ORIENTED_EDGE('',*,*,#389,.T.);
#489=ORIENTED_EDGE('',*,*,#385,.F.);
#490=ORIENTED_EDGE('',*,*,#390,.F.);
#491=ORIENTED_EDGE('',*,*,#391,.T.);
#492=ORIENTED_EDGE('',*,*,#392,.T.);
#493=ORIENTED_EDGE('',*,*,#393,.F.);
#494=ORIENTED_EDGE('',*,*,#387,.F.);
#495=ORIENTED_EDGE('',*,*,#394,.T.);
#496=ORIENTED_EDGE('',*,*,#395,.T.);
#497=ORIENTED_EDGE('',*,*,#383,.F.);
#498=ORIENTED_EDGE('',*,*,#389,.F.);
#499=ORIENTED_EDGE('',*,*,#396,.F.);
#500=ORIENTED_EDGE('',*,*,#397,.F.);
#501=ORIENTED_EDGE('',*,*,#398,.F.);
#502=ORIENTED_EDGE('',*,*,#399,.F.);
#503=ORIENTED_EDGE('',*,*,#400,.T.);
#504=ORIENTED_EDGE('',*,*,#401,.T.);
#505=ORIENTED_EDGE('',*,*,#396,.T.);
#506=ORIENTED_EDGE('',*,*,#388,.T.);
#507=ORIENTED_EDGE('',*,*,#393,.T.);
#508=ORIENTED_EDGE('',*,*,#402,.T.);
#509=ORIENTED_EDGE('',*,*,#403,.F.);
#510=ORIENTED_EDGE('',*,*,#404,.T.);
#511=ORIENTED_EDGE('',*,*,#405,.F.);
#512=ORIENTED_EDGE('',*,*,#404,.F.);
#513=ORIENTED_EDGE('',*,*,#406,.F.);
#514=ORIENTED_EDGE('',*,*,#403,.T.);
#515=ORIENTED_EDGE('',*,*,#407,.F.);
#516=ORIENTED_EDGE('',*,*,#408,.T.);
#517=ORIENTED_EDGE('',*,*,#409,.F.);
#518=ORIENTED_EDGE('',*,*,#408,.F.);
#519=ORIENTED_EDGE('',*,*,#410,.F.);
#520=ORIENTED_EDGE('',*,*,#407,.T.);
#521=ORIENTED_EDGE('',*,*,#394,.F.);
#522=ORIENTED_EDGE('',*,*,#411,.T.);
#523=ORIENTED_EDGE('',*,*,#401,.F.);
#524=ORIENTED_EDGE('',*,*,#411,.F.);
#525=ORIENTED_EDGE('',*,*,#395,.F.);
#526=ORIENTED_EDGE('',*,*,#412,.T.);
#527=ORIENTED_EDGE('',*,*,#400,.F.);
#528=ORIENTED_EDGE('',*,*,#412,.F.);
#529=ORIENTED_EDGE('',*,*,#402,.F.);
#530=ORIENTED_EDGE('',*,*,#392,.F.);
#531=ORIENTED_EDGE('',*,*,#413,.F.);
#532=ORIENTED_EDGE('',*,*,#397,.T.);
#533=ORIENTED_EDGE('',*,*,#413,.T.);
#534=ORIENTED_EDGE('',*,*,#414,.T.);
#535=ORIENTED_EDGE('',*,*,#415,.T.);
#536=ORIENTED_EDGE('',*,*,#416,.T.);
#537=ORIENTED_EDGE('',*,*,#417,.T.);
#538=ORIENTED_EDGE('',*,*,#418,.T.);
#539=ORIENTED_EDGE('',*,*,#405,.T.);
#540=ORIENTED_EDGE('',*,*,#409,.T.);
#541=ORIENTED_EDGE('',*,*,#419,.F.);
#542=ORIENTED_EDGE('',*,*,#420,.T.);
#543=ORIENTED_EDGE('',*,*,#406,.T.);
#544=ORIENTED_EDGE('',*,*,#420,.F.);
#545=ORIENTED_EDGE('',*,*,#421,.F.);
#546=ORIENTED_EDGE('',*,*,#422,.T.);
#547=ORIENTED_EDGE('',*,*,#410,.T.);
#548=ORIENTED_EDGE('',*,*,#422,.F.);
#549=ORIENTED_EDGE('',*,*,#391,.F.);
#550=ORIENTED_EDGE('',*,*,#423,.F.);
#551=ORIENTED_EDGE('',*,*,#424,.T.);
#552=ORIENTED_EDGE('',*,*,#414,.F.);
#553=ORIENTED_EDGE('',*,*,#424,.F.);
#554=ORIENTED_EDGE('',*,*,#425,.F.);
#555=ORIENTED_EDGE('',*,*,#426,.T.);
#556=ORIENTED_EDGE('',*,*,#415,.F.);
#557=ORIENTED_EDGE('',*,*,#426,.F.);
#558=ORIENTED_EDGE('',*,*,#427,.F.);
#559=ORIENTED_EDGE('',*,*,#428,.T.);
#560=ORIENTED_EDGE('',*,*,#416,.F.);
#561=ORIENTED_EDGE('',*,*,#428,.F.);
#562=ORIENTED_EDGE('',*,*,#429,.F.);
#563=ORIENTED_EDGE('',*,*,#430,.T.);
#564=ORIENTED_EDGE('',*,*,#417,.F.);
#565=ORIENTED_EDGE('',*,*,#430,.F.);
#566=ORIENTED_EDGE('',*,*,#431,.F.);
#567=ORIENTED_EDGE('',*,*,#398,.T.);
#568=ORIENTED_EDGE('',*,*,#418,.F.);
#569=ORIENTED_EDGE('',*,*,#384,.F.);
#570=ORIENTED_EDGE('',*,*,#399,.T.);
#571=ORIENTED_EDGE('',*,*,#431,.T.);
#572=ORIENTED_EDGE('',*,*,#429,.T.);
#573=ORIENTED_EDGE('',*,*,#427,.T.);
#574=ORIENTED_EDGE('',*,*,#425,.T.);
#575=ORIENTED_EDGE('',*,*,#423,.T.);
#576=ORIENTED_EDGE('',*,*,#390,.T.);
#577=ORIENTED_EDGE('',*,*,#421,.T.);
#578=ORIENTED_EDGE('',*,*,#419,.T.);
#579=ORIENTED_EDGE('',*,*,#432,.F.);
#580=ORIENTED_EDGE('',*,*,#433,.F.);
#581=ORIENTED_EDGE('',*,*,#434,.F.);
#582=ORIENTED_EDGE('',*,*,#435,.F.);
#583=ORIENTED_EDGE('',*,*,#433,.T.);
#584=ORIENTED_EDGE('',*,*,#436,.F.);
#585=ORIENTED_EDGE('',*,*,#437,.T.);
#586=ORIENTED_EDGE('',*,*,#438,.F.);
#587=ORIENTED_EDGE('',*,*,#434,.T.);
#588=ORIENTED_EDGE('',*,*,#438,.T.);
#589=ORIENTED_EDGE('',*,*,#439,.T.);
#590=ORIENTED_EDGE('',*,*,#440,.F.);
#591=ORIENTED_EDGE('',*,*,#441,.F.);
#592=ORIENTED_EDGE('',*,*,#442,.T.);
#593=ORIENTED_EDGE('',*,*,#443,.F.);
#594=ORIENTED_EDGE('',*,*,#444,.F.);
#595=ORIENTED_EDGE('',*,*,#432,.T.);
#596=ORIENTED_EDGE('',*,*,#445,.T.);
#597=ORIENTED_EDGE('',*,*,#446,.T.);
#598=ORIENTED_EDGE('',*,*,#447,.T.);
#599=ORIENTED_EDGE('',*,*,#448,.T.);
#600=ORIENTED_EDGE('',*,*,#436,.T.);
#601=ORIENTED_EDGE('',*,*,#449,.F.);
#602=ORIENTED_EDGE('',*,*,#450,.F.);
#603=ORIENTED_EDGE('',*,*,#448,.F.);
#604=ORIENTED_EDGE('',*,*,#451,.F.);
#605=ORIENTED_EDGE('',*,*,#439,.F.);
#606=ORIENTED_EDGE('',*,*,#437,.F.);
#607=ORIENTED_EDGE('',*,*,#452,.T.);
#608=ORIENTED_EDGE('',*,*,#453,.T.);
#609=ORIENTED_EDGE('',*,*,#454,.T.);
#610=ORIENTED_EDGE('',*,*,#453,.F.);
#611=ORIENTED_EDGE('',*,*,#455,.T.);
#612=ORIENTED_EDGE('',*,*,#452,.F.);
#613=ORIENTED_EDGE('',*,*,#456,.T.);
#614=ORIENTED_EDGE('',*,*,#457,.T.);
#615=ORIENTED_EDGE('',*,*,#458,.T.);
#616=ORIENTED_EDGE('',*,*,#457,.F.);
#617=ORIENTED_EDGE('',*,*,#459,.T.);
#618=ORIENTED_EDGE('',*,*,#456,.F.);
#619=ORIENTED_EDGE('',*,*,#443,.T.);
#620=ORIENTED_EDGE('',*,*,#460,.T.);
#621=ORIENTED_EDGE('',*,*,#450,.T.);
#622=ORIENTED_EDGE('',*,*,#460,.F.);
#623=ORIENTED_EDGE('',*,*,#444,.T.);
#624=ORIENTED_EDGE('',*,*,#461,.T.);
#625=ORIENTED_EDGE('',*,*,#449,.T.);
#626=ORIENTED_EDGE('',*,*,#461,.F.);
#627=ORIENTED_EDGE('',*,*,#451,.T.);
#628=ORIENTED_EDGE('',*,*,#447,.F.);
#629=ORIENTED_EDGE('',*,*,#462,.T.);
#630=ORIENTED_EDGE('',*,*,#440,.T.);
#631=ORIENTED_EDGE('',*,*,#462,.F.);
#632=ORIENTED_EDGE('',*,*,#463,.F.);
#633=ORIENTED_EDGE('',*,*,#464,.F.);
#634=ORIENTED_EDGE('',*,*,#465,.F.);
#635=ORIENTED_EDGE('',*,*,#466,.F.);
#636=ORIENTED_EDGE('',*,*,#467,.F.);
#637=ORIENTED_EDGE('',*,*,#454,.F.);
#638=ORIENTED_EDGE('',*,*,#458,.F.);
#639=ORIENTED_EDGE('',*,*,#468,.T.);
#640=ORIENTED_EDGE('',*,*,#469,.T.);
#641=ORIENTED_EDGE('',*,*,#455,.F.);
#642=ORIENTED_EDGE('',*,*,#469,.F.);
#643=ORIENTED_EDGE('',*,*,#470,.T.);
#644=ORIENTED_EDGE('',*,*,#471,.T.);
#645=ORIENTED_EDGE('',*,*,#459,.F.);
#646=ORIENTED_EDGE('',*,*,#471,.F.);
#647=ORIENTED_EDGE('',*,*,#441,.T.);
#648=ORIENTED_EDGE('',*,*,#467,.T.);
#649=ORIENTED_EDGE('',*,*,#472,.F.);
#650=ORIENTED_EDGE('',*,*,#473,.T.);
#651=ORIENTED_EDGE('',*,*,#472,.T.);
#652=ORIENTED_EDGE('',*,*,#466,.T.);
#653=ORIENTED_EDGE('',*,*,#474,.F.);
#654=ORIENTED_EDGE('',*,*,#475,.T.);
#655=ORIENTED_EDGE('',*,*,#474,.T.);
#656=ORIENTED_EDGE('',*,*,#465,.T.);
#657=ORIENTED_EDGE('',*,*,#476,.F.);
#658=ORIENTED_EDGE('',*,*,#477,.T.);
#659=ORIENTED_EDGE('',*,*,#476,.T.);
#660=ORIENTED_EDGE('',*,*,#464,.T.);
#661=ORIENTED_EDGE('',*,*,#478,.F.);
#662=ORIENTED_EDGE('',*,*,#479,.T.);
#663=ORIENTED_EDGE('',*,*,#478,.T.);
#664=ORIENTED_EDGE('',*,*,#463,.T.);
#665=ORIENTED_EDGE('',*,*,#446,.F.);
#666=ORIENTED_EDGE('',*,*,#480,.T.);
#667=ORIENTED_EDGE('',*,*,#435,.T.);
#668=ORIENTED_EDGE('',*,*,#442,.F.);
#669=ORIENTED_EDGE('',*,*,#473,.F.);
#670=ORIENTED_EDGE('',*,*,#475,.F.);
#671=ORIENTED_EDGE('',*,*,#477,.F.);
#672=ORIENTED_EDGE('',*,*,#479,.F.);
#673=ORIENTED_EDGE('',*,*,#480,.F.);
#674=ORIENTED_EDGE('',*,*,#445,.F.);
#675=ORIENTED_EDGE('',*,*,#470,.F.);
#676=ORIENTED_EDGE('',*,*,#468,.F.);
#677=CYLINDRICAL_SURFACE('',#754,3.);
#678=CYLINDRICAL_SURFACE('',#766,3.);
#679=CYLINDRICAL_SURFACE('',#767,1.5);
#680=CYLINDRICAL_SURFACE('',#772,1.5);
#681=CYLINDRICAL_SURFACE('',#777,1.5);
#682=CYLINDRICAL_SURFACE('',#778,1.5);
#683=CYLINDRICAL_SURFACE('',#783,2.1);
#684=CYLINDRICAL_SURFACE('',#785,2.1);
#685=CYLINDRICAL_SURFACE('',#788,3.23999999999999);
#686=CYLINDRICAL_SURFACE('',#791,3.23999999999999);
#687=CYLINDRICAL_SURFACE('',#795,3.);
#688=CYLINDRICAL_SURFACE('',#807,3.);
#689=CYLINDRICAL_SURFACE('',#808,1.5);
#690=CYLINDRICAL_SURFACE('',#813,1.5);
#691=CYLINDRICAL_SURFACE('',#818,1.5);
#692=CYLINDRICAL_SURFACE('',#819,1.5);
#693=CYLINDRICAL_SURFACE('',#824,2.1);
#694=CYLINDRICAL_SURFACE('',#826,2.1);
#695=CYLINDRICAL_SURFACE('',#829,3.23999999999999);
#696=CYLINDRICAL_SURFACE('',#832,3.23999999999999);
#697=ADVANCED_FACE('',(#59),#677,.T.);
#698=ADVANCED_FACE('',(#60),#37,.T.);
#699=ADVANCED_FACE('',(#61,#17,#18),#38,.T.);
#700=ADVANCED_FACE('',(#62,#19,#20),#39,.T.);
#701=ADVANCED_FACE('',(#63),#678,.T.);
#702=ADVANCED_FACE('',(#64),#679,.F.);
#703=ADVANCED_FACE('',(#65,#21),#40,.F.);
#704=ADVANCED_FACE('',(#66),#680,.F.);
#705=ADVANCED_FACE('',(#67,#22),#41,.F.);
#706=ADVANCED_FACE('',(#68),#681,.F.);
#707=ADVANCED_FACE('',(#69),#682,.F.);
#708=ADVANCED_FACE('',(#70),#42,.T.);
#709=ADVANCED_FACE('',(#71,#23,#24),#43,.T.);
#710=ADVANCED_FACE('',(#72),#683,.F.);
#711=ADVANCED_FACE('',(#73),#684,.F.);
#712=ADVANCED_FACE('',(#74),#44,.T.);
#713=ADVANCED_FACE('',(#75),#685,.T.);
#714=ADVANCED_FACE('',(#76),#45,.T.);
#715=ADVANCED_FACE('',(#77),#686,.T.);
#716=ADVANCED_FACE('',(#78),#46,.T.);
#717=ADVANCED_FACE('',(#79,#25,#26),#47,.F.);
#718=ADVANCED_FACE('',(#80),#687,.T.);
#719=ADVANCED_FACE('',(#81),#48,.F.);
#720=ADVANCED_FACE('',(#82,#27,#28),#49,.F.);
#721=ADVANCED_FACE('',(#83,#29,#30),#50,.F.);
#722=ADVANCED_FACE('',(#84),#688,.T.);
#723=ADVANCED_FACE('',(#85),#689,.F.);
#724=ADVANCED_FACE('',(#86,#31),#51,.T.);
#725=ADVANCED_FACE('',(#87),#690,.F.);
#726=ADVANCED_FACE('',(#88,#32),#52,.T.);
#727=ADVANCED_FACE('',(#89),#691,.F.);
#728=ADVANCED_FACE('',(#90),#692,.F.);
#729=ADVANCED_FACE('',(#91),#53,.F.);
#730=ADVANCED_FACE('',(#92,#33,#34),#54,.F.);
#731=ADVANCED_FACE('',(#93),#693,.F.);
#732=ADVANCED_FACE('',(#94),#694,.F.);
#733=ADVANCED_FACE('',(#95),#55,.F.);
#734=ADVANCED_FACE('',(#96),#695,.T.);
#735=ADVANCED_FACE('',(#97),#56,.F.);
#736=ADVANCED_FACE('',(#98),#696,.T.);
#737=ADVANCED_FACE('',(#99),#57,.F.);
#738=ADVANCED_FACE('',(#100,#35,#36),#58,.T.);
#739=CLOSED_SHELL('',(#697,#698,#699,#700,#701,#702,#703,#704,#705,#706,
#707,#708,#709,#710,#711,#712,#713,#714,#715,#716,#717));
#740=CLOSED_SHELL('',(#718,#719,#720,#721,#722,#723,#724,#725,#726,#727,
#728,#729,#730,#731,#732,#733,#734,#735,#736,#737,#738));
#741=DERIVED_UNIT_ELEMENT(#743,1.);
#742=DERIVED_UNIT_ELEMENT(#1270,-3.);
#743=(
MASS_UNIT()
NAMED_UNIT(*)
SI_UNIT(.KILO.,.GRAM.)
);
#744=DERIVED_UNIT((#741,#742));
#745=MEASURE_REPRESENTATION_ITEM('density measure',
POSITIVE_RATIO_MEASURE(7850.),#744);
#746=PROPERTY_DEFINITION_REPRESENTATION(#751,#748);
#747=PROPERTY_DEFINITION_REPRESENTATION(#752,#749);
#748=REPRESENTATION('material name',(#750),#1267);
#749=REPRESENTATION('density',(#745),#1267);
#750=DESCRIPTIVE_REPRESENTATION_ITEM('Steel','Steel');
#751=PROPERTY_DEFINITION('material property','material name',#1277);
#752=PROPERTY_DEFINITION('material property','density of part',#1277);
#753=AXIS2_PLACEMENT_3D('',#1060,#836,#837);
#754=AXIS2_PLACEMENT_3D('',#1061,#838,#839);
#755=AXIS2_PLACEMENT_3D('',#1064,#840,#841);
#756=AXIS2_PLACEMENT_3D('',#1068,#843,#844);
#757=AXIS2_PLACEMENT_3D('',#1070,#846,#847);
#758=AXIS2_PLACEMENT_3D('',#1076,#851,#852);
#759=AXIS2_PLACEMENT_3D('',#1083,#856,#857);
#760=AXIS2_PLACEMENT_3D('',#1085,#858,#859);
#761=AXIS2_PLACEMENT_3D('',#1087,#860,#861);
#762=AXIS2_PLACEMENT_3D('',#1088,#862,#863);
#763=AXIS2_PLACEMENT_3D('',#1090,#864,#865);
#764=AXIS2_PLACEMENT_3D('',#1097,#869,#870);
#765=AXIS2_PLACEMENT_3D('',#1099,#871,#872);
#766=AXIS2_PLACEMENT_3D('',#1100,#873,#874);
#767=AXIS2_PLACEMENT_3D('',#1102,#876,#877);
#768=AXIS2_PLACEMENT_3D('',#1104,#878,#879);
#769=AXIS2_PLACEMENT_3D('',#1107,#881,#882);
#770=AXIS2_PLACEMENT_3D('',#1108,#883,#884);
#771=AXIS2_PLACEMENT_3D('',#1110,#885,#886);
#772=AXIS2_PLACEMENT_3D('',#1111,#887,#888);
#773=AXIS2_PLACEMENT_3D('',#1113,#889,#890);
#774=AXIS2_PLACEMENT_3D('',#1116,#892,#893);
#775=AXIS2_PLACEMENT_3D('',#1117,#894,#895);
#776=AXIS2_PLACEMENT_3D('',#1119,#896,#897);
#777=AXIS2_PLACEMENT_3D('',#1120,#898,#899);
#778=AXIS2_PLACEMENT_3D('',#1122,#901,#902);
#779=AXIS2_PLACEMENT_3D('',#1124,#904,#905);
#780=AXIS2_PLACEMENT_3D('',#1126,#907,#908);
#781=AXIS2_PLACEMENT_3D('',#1130,#910,#911);
#782=AXIS2_PLACEMENT_3D('',#1134,#913,#914);
#783=AXIS2_PLACEMENT_3D('',#1136,#916,#917);
#784=AXIS2_PLACEMENT_3D('',#1138,#918,#919);
#785=AXIS2_PLACEMENT_3D('',#1140,#921,#922);
#786=AXIS2_PLACEMENT_3D('',#1142,#923,#924);
#787=AXIS2_PLACEMENT_3D('',#1144,#926,#927);
#788=AXIS2_PLACEMENT_3D('',#1148,#930,#931);
#789=AXIS2_PLACEMENT_3D('',#1150,#932,#933);
#790=AXIS2_PLACEMENT_3D('',#1152,#935,#936);
#791=AXIS2_PLACEMENT_3D('',#1156,#939,#940);
#792=AXIS2_PLACEMENT_3D('',#1158,#941,#942);
#793=AXIS2_PLACEMENT_3D('',#1160,#944,#945);
#794=AXIS2_PLACEMENT_3D('',#1162,#947,#948);
#795=AXIS2_PLACEMENT_3D('',#1163,#949,#950);
#796=AXIS2_PLACEMENT_3D('',#1166,#951,#952);
#797=AXIS2_PLACEMENT_3D('',#1170,#954,#955);
#798=AXIS2_PLACEMENT_3D('',#1172,#957,#958);
#799=AXIS2_PLACEMENT_3D('',#1178,#962,#963);
#800=AXIS2_PLACEMENT_3D('',#1180,#964,#965);
#801=AXIS2_PLACEMENT_3D('',#1187,#969,#970);
#802=AXIS2_PLACEMENT_3D('',#1189,#971,#972);
#803=AXIS2_PLACEMENT_3D('',#1190,#973,#974);
#804=AXIS2_PLACEMENT_3D('',#1197,#978,#979);
#805=AXIS2_PLACEMENT_3D('',#1199,#980,#981);
#806=AXIS2_PLACEMENT_3D('',#1201,#982,#983);
#807=AXIS2_PLACEMENT_3D('',#1202,#984,#985);
#808=AXIS2_PLACEMENT_3D('',#1204,#987,#988);
#809=AXIS2_PLACEMENT_3D('',#1206,#989,#990);
#810=AXIS2_PLACEMENT_3D('',#1209,#992,#993);
#811=AXIS2_PLACEMENT_3D('',#1210,#994,#995);
#812=AXIS2_PLACEMENT_3D('',#1212,#996,#997);
#813=AXIS2_PLACEMENT_3D('',#1213,#998,#999);
#814=AXIS2_PLACEMENT_3D('',#1215,#1000,#1001);
#815=AXIS2_PLACEMENT_3D('',#1218,#1003,#1004);
#816=AXIS2_PLACEMENT_3D('',#1219,#1005,#1006);
#817=AXIS2_PLACEMENT_3D('',#1221,#1007,#1008);
#818=AXIS2_PLACEMENT_3D('',#1222,#1009,#1010);
#819=AXIS2_PLACEMENT_3D('',#1224,#1012,#1013);
#820=AXIS2_PLACEMENT_3D('',#1226,#1015,#1016);
#821=AXIS2_PLACEMENT_3D('',#1228,#1018,#1019);
#822=AXIS2_PLACEMENT_3D('',#1232,#1021,#1022);
#823=AXIS2_PLACEMENT_3D('',#1236,#1024,#1025);
#824=AXIS2_PLACEMENT_3D('',#1238,#1027,#1028);
#825=AXIS2_PLACEMENT_3D('',#1240,#1029,#1030);
#826=AXIS2_PLACEMENT_3D('',#1242,#1032,#1033);
#827=AXIS2_PLACEMENT_3D('',#1244,#1034,#1035);
#828=AXIS2_PLACEMENT_3D('',#1246,#1037,#1038);
#829=AXIS2_PLACEMENT_3D('',#1250,#1041,#1042);
#830=AXIS2_PLACEMENT_3D('',#1253,#1044,#1045);
#831=AXIS2_PLACEMENT_3D('',#1254,#1046,#1047);
#832=AXIS2_PLACEMENT_3D('',#1258,#1050,#1051);
#833=AXIS2_PLACEMENT_3D('',#1261,#1053,#1054);
#834=AXIS2_PLACEMENT_3D('',#1262,#1055,#1056);
#835=AXIS2_PLACEMENT_3D('',#1264,#1058,#1059);
#836=DIRECTION('axis',(0.,0.,1.));
#837=DIRECTION('refdir',(1.,0.,0.));
#838=DIRECTION('center_axis',(0.,1.,1.77635683940025E-15));
#839=DIRECTION('ref_axis',(-0.707106781186548,-1.24298986312465E-15,0.707106781186548));
#840=DIRECTION('center_axis',(0.,-1.,-1.48029736616687E-15));
#841=DIRECTION('ref_axis',(-0.707106781186548,-1.24298986312465E-15,0.707106781186548));
#842=DIRECTION('',(0.,-1.,-1.77635683940025E-15));
#843=DIRECTION('center_axis',(0.,1.,1.48029736616687E-15));
#844=DIRECTION('ref_axis',(-0.707106781186548,-1.24298986312465E-15,0.707106781186548));
#845=DIRECTION('',(0.,1.,1.77635683940025E-15));
#846=DIRECTION('center_axis',(0.,-1.77635683940025E-15,1.));
#847=DIRECTION('ref_axis',(0.,1.,1.77635683940025E-15));
#848=DIRECTION('',(1.,0.,0.));
#849=DIRECTION('',(0.,-1.,-1.77635683940025E-15));
#850=DIRECTION('',(-1.,0.,0.));
#851=DIRECTION('center_axis',(0.,-1.,-1.48029736616687E-15));
#852=DIRECTION('ref_axis',(0.,-1.48029736616687E-15,1.));
#853=DIRECTION('',(0.,-1.48029736616687E-15,1.));
#854=DIRECTION('',(1.,0.,0.));
#855=DIRECTION('',(1.,0.,0.));
#856=DIRECTION('center_axis',(0.,1.,1.48029736616687E-15));
#857=DIRECTION('ref_axis',(0.707106781186548,1.04672830578918E-15,-0.707106781186547));
#858=DIRECTION('center_axis',(0.,1.,1.48029736616687E-15));
#859=DIRECTION('ref_axis',(1.,0.,0.));
#860=DIRECTION('center_axis',(0.,1.,1.48029736616687E-15));
#861=DIRECTION('ref_axis',(1.,0.,0.));
#862=DIRECTION('center_axis',(0.,1.,1.48029736616687E-15));
#863=DIRECTION('ref_axis',(0.,1.48029736616687E-15,-1.));
#864=DIRECTION('center_axis',(0.,-1.,-1.48029736616687E-15));
#865=DIRECTION('ref_axis',(0.707106781186548,-1.30841038223648E-15,0.707106781186547));
#866=DIRECTION('',(1.,0.,0.));
#867=DIRECTION('',(1.,0.,0.));
#868=DIRECTION('',(0.,1.48029736616687E-15,-1.));
#869=DIRECTION('center_axis',(0.,-1.,-1.48029736616687E-15));
#870=DIRECTION('ref_axis',(1.,0.,0.));
#871=DIRECTION('center_axis',(0.,-1.,-1.48029736616687E-15));
#872=DIRECTION('ref_axis',(1.,0.,0.));
#873=DIRECTION('center_axis',(0.,1.,1.48029736616688E-15));
#874=DIRECTION('ref_axis',(0.707106781186548,1.04672830578918E-15,-0.707106781186547));
#875=DIRECTION('',(0.,1.,1.48029736616688E-15));
#876=DIRECTION('center_axis',(-1.,0.,0.));
#877=DIRECTION('ref_axis',(0.,1.,0.));
#878=DIRECTION('center_axis',(1.,0.,0.));
#879=DIRECTION('ref_axis',(0.,1.,0.));
#880=DIRECTION('',(1.,0.,0.));
#881=DIRECTION('center_axis',(-1.,0.,0.));
#882=DIRECTION('ref_axis',(0.,1.,0.));
#883=DIRECTION('center_axis',(1.,0.,0.));
#884=DIRECTION('ref_axis',(0.,1.,0.));
#885=DIRECTION('center_axis',(1.,0.,0.));
#886=DIRECTION('ref_axis',(0.,1.,0.));
#887=DIRECTION('center_axis',(-1.,0.,0.));
#888=DIRECTION('ref_axis',(0.,1.,0.));
#889=DIRECTION('center_axis',(1.,0.,0.));
#890=DIRECTION('ref_axis',(0.,1.,0.));
#891=DIRECTION('',(1.,0.,0.));
#892=DIRECTION('center_axis',(-1.,0.,0.));
#893=DIRECTION('ref_axis',(0.,1.,0.));
#894=DIRECTION('center_axis',(1.,0.,0.));
#895=DIRECTION('ref_axis',(0.,1.,0.));
#896=DIRECTION('center_axis',(1.,0.,0.));
#897=DIRECTION('ref_axis',(0.,1.,0.));
#898=DIRECTION('center_axis',(0.,1.,1.38777878078145E-15));
#899=DIRECTION('ref_axis',(1.,0.,0.));
#900=DIRECTION('',(0.,1.,1.38777878078145E-15));
#901=DIRECTION('center_axis',(0.,1.,1.38777878078145E-15));
#902=DIRECTION('ref_axis',(1.,0.,0.));
#903=DIRECTION('',(0.,1.,1.38777878078145E-15));
#904=DIRECTION('center_axis',(0.,1.48029736616688E-15,-1.));
#905=DIRECTION('ref_axis',(0.,1.,1.48029736616688E-15));
#906=DIRECTION('',(0.,-1.,-1.48029736616688E-15));
#907=DIRECTION('center_axis',(1.,0.,0.));
#908=DIRECTION('ref_axis',(0.,1.,0.));
#909=DIRECTION('',(0.,-1.,-1.48029736616688E-15));
#910=DIRECTION('center_axis',(1.,0.,0.));
#911=DIRECTION('ref_axis',(0.,1.,0.));
#912=DIRECTION('',(0.,1.,1.48029736616688E-15));
#913=DIRECTION('center_axis',(1.,0.,0.));
#914=DIRECTION('ref_axis',(0.,1.,0.));
#915=DIRECTION('',(0.,-1.,-1.48029736616688E-15));
#916=DIRECTION('center_axis',(-1.,0.,0.));
#917=DIRECTION('ref_axis',(0.,1.,0.));
#918=DIRECTION('center_axis',(1.,0.,0.));
#919=DIRECTION('ref_axis',(0.,1.,0.));
#920=DIRECTION('',(1.,0.,0.));
#921=DIRECTION('center_axis',(-1.,0.,0.));
#922=DIRECTION('ref_axis',(0.,1.,0.));
#923=DIRECTION('center_axis',(1.,0.,0.));
#924=DIRECTION('ref_axis',(0.,1.,0.));
#925=DIRECTION('',(1.,0.,0.));
#926=DIRECTION('center_axis',(0.,-1.48029736616688E-15,1.));
#927=DIRECTION('ref_axis',(0.,1.,1.48029736616688E-15));
#928=DIRECTION('',(0.,1.,1.48029736616688E-15));
#929=DIRECTION('',(1.,0.,0.));
#930=DIRECTION('center_axis',(-1.,0.,0.));
#931=DIRECTION('ref_axis',(0.,-1.,-1.65389215948551E-15));
#932=DIRECTION('center_axis',(-1.,0.,0.));
#933=DIRECTION('ref_axis',(0.,1.,0.));
#934=DIRECTION('',(1.,0.,0.));
#935=DIRECTION('center_axis',(0.,1.48029736616688E-15,-1.));
#936=DIRECTION('ref_axis',(0.,-1.,-1.48029736616688E-15));
#937=DIRECTION('',(0.,-1.,-1.48029736616688E-15));
#938=DIRECTION('',(1.,0.,0.));
#939=DIRECTION('center_axis',(-1.,0.,0.));
#940=DIRECTION('ref_axis',(0.,1.,0.));
#941=DIRECTION('center_axis',(-1.,0.,0.));
#942=DIRECTION('ref_axis',(0.,1.,0.));
#943=DIRECTION('',(1.,0.,0.));
#944=DIRECTION('center_axis',(0.,-1.48029736616688E-15,1.));
#945=DIRECTION('ref_axis',(0.,1.,1.48029736616688E-15));
#946=DIRECTION('',(0.,1.,1.48029736616688E-15));
#947=DIRECTION('center_axis',(1.,0.,0.));
#948=DIRECTION('ref_axis',(0.,1.,0.));
#949=DIRECTION('center_axis',(0.,-1.,-1.77635683940025E-15));
#950=DIRECTION('ref_axis',(0.707106781186548,-1.24298986312465E-15,0.707106781186548));
#951=DIRECTION('center_axis',(0.,1.,1.48029736616687E-15));
#952=DIRECTION('ref_axis',(0.707106781186548,-1.24298986312465E-15,0.707106781186548));
#953=DIRECTION('',(0.,1.,1.77635683940025E-15));
#954=DIRECTION('center_axis',(0.,-1.,-1.48029736616687E-15));
#955=DIRECTION('ref_axis',(0.707106781186548,-1.24298986312465E-15,0.707106781186548));
#956=DIRECTION('',(0.,-1.,-1.77635683940025E-15));
#957=DIRECTION('center_axis',(0.,1.77635683940025E-15,-1.));
#958=DIRECTION('ref_axis',(0.,1.,1.77635683940025E-15));
#959=DIRECTION('',(1.,0.,0.));
#960=DIRECTION('',(0.,-1.,-1.77635683940025E-15));
#961=DIRECTION('',(-1.,0.,0.));
#962=DIRECTION('center_axis',(0.,1.,1.48029736616687E-15));
#963=DIRECTION('ref_axis',(0.,-1.48029736616687E-15,1.));
#964=DIRECTION('center_axis',(0.,-1.,-1.48029736616687E-15));
#965=DIRECTION('ref_axis',(-0.707106781186548,1.04672830578918E-15,-0.707106781186547));
#966=DIRECTION('',(-1.,0.,0.));
#967=DIRECTION('',(-1.,0.,0.));
#968=DIRECTION('',(0.,-1.48029736616687E-15,1.));
#969=DIRECTION('center_axis',(0.,-1.,-1.48029736616687E-15));
#970=DIRECTION('ref_axis',(-1.,0.,0.));
#971=DIRECTION('center_axis',(0.,-1.,-1.48029736616687E-15));
#972=DIRECTION('ref_axis',(-1.,0.,0.));
#973=DIRECTION('center_axis',(0.,-1.,-1.48029736616687E-15));
#974=DIRECTION('ref_axis',(0.,1.48029736616687E-15,-1.));
#975=DIRECTION('',(0.,1.48029736616687E-15,-1.));
#976=DIRECTION('',(-1.,0.,0.));
#977=DIRECTION('',(-1.,0.,0.));
#978=DIRECTION('center_axis',(0.,1.,1.48029736616687E-15));
#979=DIRECTION('ref_axis',(-0.707106781186548,-1.30841038223648E-15,0.707106781186547));
#980=DIRECTION('center_axis',(0.,1.,1.48029736616687E-15));
#981=DIRECTION('ref_axis',(-1.,0.,0.));
#982=DIRECTION('center_axis',(0.,1.,1.48029736616687E-15));
#983=DIRECTION('ref_axis',(-1.,0.,0.));
#984=DIRECTION('center_axis',(0.,-1.,-1.48029736616688E-15));
#985=DIRECTION('ref_axis',(-0.707106781186548,1.04672830578918E-15,-0.707106781186547));
#986=DIRECTION('',(0.,1.,1.48029736616688E-15));
#987=DIRECTION('center_axis',(-1.,0.,0.));
#988=DIRECTION('ref_axis',(0.,1.,0.));
#989=DIRECTION('center_axis',(1.,0.,0.));
#990=DIRECTION('ref_axis',(0.,1.,0.));
#991=DIRECTION('',(-1.,0.,0.));
#992=DIRECTION('center_axis',(-1.,0.,0.));
#993=DIRECTION('ref_axis',(0.,1.,0.));
#994=DIRECTION('center_axis',(1.,0.,0.));
#995=DIRECTION('ref_axis',(0.,1.,0.));
#996=DIRECTION('center_axis',(1.,0.,0.));
#997=DIRECTION('ref_axis',(0.,1.,0.));
#998=DIRECTION('center_axis',(-1.,0.,0.));
#999=DIRECTION('ref_axis',(0.,1.,0.));
#1000=DIRECTION('center_axis',(1.,0.,0.));
#1001=DIRECTION('ref_axis',(0.,1.,0.));
#1002=DIRECTION('',(-1.,0.,0.));
#1003=DIRECTION('center_axis',(-1.,0.,0.));
#1004=DIRECTION('ref_axis',(0.,1.,0.));
#1005=DIRECTION('center_axis',(1.,0.,0.));
#1006=DIRECTION('ref_axis',(0.,1.,0.));
#1007=DIRECTION('center_axis',(1.,0.,0.));
#1008=DIRECTION('ref_axis',(0.,1.,0.));
#1009=DIRECTION('center_axis',(0.,-1.,-1.38777878078145E-15));
#1010=DIRECTION('ref_axis',(-1.,0.,0.));
#1011=DIRECTION('',(0.,1.,1.38777878078145E-15));
#1012=DIRECTION('center_axis',(0.,-1.,-1.38777878078145E-15));
#1013=DIRECTION('ref_axis',(-1.,0.,0.));
#1014=DIRECTION('',(0.,1.,1.38777878078145E-15));
#1015=DIRECTION('center_axis',(0.,-1.48029736616688E-15,1.));
#1016=DIRECTION('ref_axis',(0.,1.,1.48029736616688E-15));
#1017=DIRECTION('',(0.,-1.,-1.48029736616688E-15));
#1018=DIRECTION('center_axis',(1.,0.,0.));
#1019=DIRECTION('ref_axis',(0.,1.,0.));
#1020=DIRECTION('',(0.,-1.,-1.48029736616688E-15));
#1021=DIRECTION('center_axis',(1.,0.,0.));
#1022=DIRECTION('ref_axis',(0.,1.,0.));
#1023=DIRECTION('',(0.,1.,1.48029736616688E-15));
#1024=DIRECTION('center_axis',(1.,0.,0.));
#1025=DIRECTION('ref_axis',(0.,1.,0.));
#1026=DIRECTION('',(0.,-1.,-1.48029736616688E-15));
#1027=DIRECTION('center_axis',(-1.,0.,0.));
#1028=DIRECTION('ref_axis',(0.,1.,0.));
#1029=DIRECTION('center_axis',(1.,0.,0.));
#1030=DIRECTION('ref_axis',(0.,1.,0.));
#1031=DIRECTION('',(-1.,0.,0.));
#1032=DIRECTION('center_axis',(-1.,0.,0.));
#1033=DIRECTION('ref_axis',(0.,1.,0.));
#1034=DIRECTION('center_axis',(1.,0.,0.));
#1035=DIRECTION('ref_axis',(0.,1.,0.));
#1036=DIRECTION('',(-1.,0.,0.));
#1037=DIRECTION('center_axis',(0.,1.48029736616688E-15,-1.));
#1038=DIRECTION('ref_axis',(0.,1.,1.48029736616688E-15));
#1039=DIRECTION('',(-1.,0.,0.));
#1040=DIRECTION('',(0.,1.,1.48029736616688E-15));
#1041=DIRECTION('center_axis',(-1.,0.,0.));
#1042=DIRECTION('ref_axis',(0.,-1.,-1.65389215948551E-15));
#1043=DIRECTION('',(-1.,0.,0.));
#1044=DIRECTION('center_axis',(-1.,0.,0.));
#1045=DIRECTION('ref_axis',(0.,1.,0.));
#1046=DIRECTION('center_axis',(0.,-1.48029736616688E-15,1.));
#1047=DIRECTION('ref_axis',(0.,-1.,-1.48029736616688E-15));
#1048=DIRECTION('',(-1.,0.,0.));
#1049=DIRECTION('',(0.,-1.,-1.48029736616688E-15));
#1050=DIRECTION('center_axis',(-1.,0.,0.));
#1051=DIRECTION('ref_axis',(0.,1.,0.));
#1052=DIRECTION('',(-1.,0.,0.));
#1053=DIRECTION('center_axis',(-1.,0.,0.));
#1054=DIRECTION('ref_axis',(0.,1.,0.));
#1055=DIRECTION('center_axis',(0.,1.48029736616688E-15,-1.));
#1056=DIRECTION('ref_axis',(0.,1.,1.48029736616688E-15));
#1057=DIRECTION('',(0.,1.,1.48029736616688E-15));
#1058=DIRECTION('center_axis',(1.,0.,0.));
#1059=DIRECTION('ref_axis',(0.,1.,0.));
#1060=CARTESIAN_POINT('',(0.,0.,0.));
#1061=CARTESIAN_POINT('Origin',(2.,0.698693071587368,6.24000000000001));
#1062=CARTESIAN_POINT('',(2.,3.89738614317474,9.24000000000002));
#1063=CARTESIAN_POINT('',(-1.,3.89738614317474,6.24000000000002));
#1064=CARTESIAN_POINT('Origin',(2.,3.89738614317474,6.24000000000002));
#1065=CARTESIAN_POINT('',(-1.,1.39738614317474,6.24000000000001));
#1066=CARTESIAN_POINT('',(-1.,0.698693071587368,6.24000000000001));
#1067=CARTESIAN_POINT('',(2.,1.39738614317474,9.24000000000001));
#1068=CARTESIAN_POINT('Origin',(2.,1.39738614317474,6.24000000000001));
#1069=CARTESIAN_POINT('',(2.,0.698693071587363,9.24000000000001));
#1070=CARTESIAN_POINT('Origin',(0.,1.39738614317474,9.24000000000001));
#1071=CARTESIAN_POINT('',(9.,1.39738614317474,9.24000000000001));
#1072=CARTESIAN_POINT('',(0.,1.39738614317474,9.24000000000001));
#1073=CARTESIAN_POINT('',(9.,3.89738614317474,9.24000000000002));
#1074=CARTESIAN_POINT('',(9.,2.02238614317474,9.24000000000002));
#1075=CARTESIAN_POINT('',(0.,3.89738614317474,9.24000000000002));
#1076=CARTESIAN_POINT('Origin',(0.,1.39738614317475,3.23999999999999));
#1077=CARTESIAN_POINT('',(-1.,1.39738614317475,3.23999999999999));
#1078=CARTESIAN_POINT('',(-1.,1.39738614317474,9.24000000000001));
#1079=CARTESIAN_POINT('',(6.,1.39738614317475,3.23999999999999));
#1080=CARTESIAN_POINT('',(0.,1.39738614317475,3.23999999999999));
#1081=CARTESIAN_POINT('',(9.,1.39738614317475,3.23999999999999));
#1082=CARTESIAN_POINT('',(0.,1.39738614317475,3.23999999999999));
#1083=CARTESIAN_POINT('Origin',(9.,1.39738614317474,6.24));
#1084=CARTESIAN_POINT('',(0.5,1.39738614317474,6.24));
#1085=CARTESIAN_POINT('Origin',(2.,1.39738614317474,6.24));
#1086=CARTESIAN_POINT('',(7.5,1.39738614317474,6.24));
#1087=CARTESIAN_POINT('Origin',(9.,1.39738614317474,6.24));
#1088=CARTESIAN_POINT('Origin',(0.,3.89738614317474,9.24000000000002));
#1089=CARTESIAN_POINT('',(9.,3.89738614317475,3.24));
#1090=CARTESIAN_POINT('Origin',(9.,3.89738614317474,6.24000000000002));
#1091=CARTESIAN_POINT('',(6.,3.89738614317475,3.24));
#1092=CARTESIAN_POINT('',(0.,3.89738614317475,3.24));
#1093=CARTESIAN_POINT('',(-1.,3.89738614317475,3.24));
#1094=CARTESIAN_POINT('',(0.,3.89738614317475,3.24));
#1095=CARTESIAN_POINT('',(-1.,3.89738614317474,9.24000000000002));
#1096=CARTESIAN_POINT('',(7.5,3.89738614317474,6.24));
#1097=CARTESIAN_POINT('Origin',(9.,3.89738614317474,6.24));
#1098=CARTESIAN_POINT('',(0.5,3.89738614317474,6.24));
#1099=CARTESIAN_POINT('Origin',(2.,3.89738614317474,6.24));
#1100=CARTESIAN_POINT('Origin',(9.,2.02238614317474,6.24));
#1101=CARTESIAN_POINT('',(9.,2.02238614317475,3.24));
#1102=CARTESIAN_POINT('Origin',(6.,4.5,6.66133814775094E-15));
#1103=CARTESIAN_POINT('',(5.,3.,6.47764112787884E-15));
#1104=CARTESIAN_POINT('Origin',(5.,4.5,6.66133814775094E-15));
#1105=CARTESIAN_POINT('',(6.,3.,6.47764112787884E-15));
#1106=CARTESIAN_POINT('',(6.,3.,6.84503516762304E-15));
#1107=CARTESIAN_POINT('Origin',(6.,4.5,6.66133814775094E-15));
#1108=CARTESIAN_POINT('Origin',(5.,4.5,6.66133814775094E-15));
#1109=CARTESIAN_POINT('',(5.,2.4,6.40416231993E-15));
#1110=CARTESIAN_POINT('Origin',(5.,4.5,6.66133814775094E-15));
#1111=CARTESIAN_POINT('Origin',(6.,-4.5,-6.66133814775094E-15));
#1112=CARTESIAN_POINT('',(5.,-6.,-6.84503516762304E-15));
#1113=CARTESIAN_POINT('Origin',(5.,-4.5,-6.66133814775094E-15));
#1114=CARTESIAN_POINT('',(6.,-6.,-6.84503516762304E-15));
#1115=CARTESIAN_POINT('',(6.,-6.,-6.47764112787884E-15));
#1116=CARTESIAN_POINT('Origin',(6.,-4.5,-6.66133814775094E-15));
#1117=CARTESIAN_POINT('Origin',(5.,-4.5,-6.66133814775094E-15));
#1118=CARTESIAN_POINT('',(5.,-6.6,-6.91851397557188E-15));
#1119=CARTESIAN_POINT('Origin',(5.,-4.5,-6.66133814775094E-15));
#1120=CARTESIAN_POINT('Origin',(2.,1.39738614317474,6.24));
#1121=CARTESIAN_POINT('',(0.5,1.39738614317474,6.24));
#1122=CARTESIAN_POINT('Origin',(9.,1.39738614317474,6.24));
#1123=CARTESIAN_POINT('',(7.5,1.39738614317474,6.24));
#1124=CARTESIAN_POINT('Origin',(0.,1.39738614317475,3.24));
#1125=CARTESIAN_POINT('',(6.,0.698693071587372,3.24));
#1126=CARTESIAN_POINT('Origin',(6.,0.,3.00000000000001));
#1127=CARTESIAN_POINT('',(6.,-4.5,3.23999999999999));
#1128=CARTESIAN_POINT('',(6.,-4.5,3.23999999999999));
#1129=CARTESIAN_POINT('',(6.,-4.49999999999999,-3.24));
#1130=CARTESIAN_POINT('Origin',(6.,-4.5,-6.66133814775094E-15));
#1131=CARTESIAN_POINT('',(6.,4.5,-3.23999999999999));
#1132=CARTESIAN_POINT('',(6.,4.5,-3.23999999999999));
#1133=CARTESIAN_POINT('',(6.,4.49999999999999,3.24));
#1134=CARTESIAN_POINT('Origin',(6.,4.5,6.66133814775094E-15));
#1135=CARTESIAN_POINT('',(6.,-4.5,3.23999999999999));
#1136=CARTESIAN_POINT('Origin',(0.,4.5,6.66133814775094E-15));
#1137=CARTESIAN_POINT('',(-1.,2.4,6.40416231993E-15));
#1138=CARTESIAN_POINT('Origin',(-1.,4.5,6.66133814775094E-15));
#1139=CARTESIAN_POINT('',(0.,2.4,6.91851397557188E-15));
#1140=CARTESIAN_POINT('Origin',(0.,-4.5,-6.66133814775094E-15));
#1141=CARTESIAN_POINT('',(-1.,-6.6,-6.91851397557188E-15));
#1142=CARTESIAN_POINT('Origin',(-1.,-4.5,-6.66133814775094E-15));
#1143=CARTESIAN_POINT('',(0.,-6.6,-6.40416231993E-15));
#1144=CARTESIAN_POINT('Origin',(0.,-4.5,3.23999999999999));
#1145=CARTESIAN_POINT('',(-1.,-4.5,3.23999999999999));
#1146=CARTESIAN_POINT('',(-1.,-4.5,3.23999999999999));
#1147=CARTESIAN_POINT('',(0.,-4.5,3.23999999999999));
#1148=CARTESIAN_POINT('Origin',(0.,-4.5,-6.66133814775094E-15));
#1149=CARTESIAN_POINT('',(-1.,-4.49999999999999,-3.24));
#1150=CARTESIAN_POINT('Origin',(-1.,-4.5,-6.66133814775094E-15));
#1151=CARTESIAN_POINT('',(0.,-4.49999999999999,-3.24));
#1152=CARTESIAN_POINT('Origin',(0.,4.5,-3.23999999999999));
#1153=CARTESIAN_POINT('',(-1.,4.5,-3.23999999999999));
#1154=CARTESIAN_POINT('',(-1.,4.5,-3.23999999999999));
#1155=CARTESIAN_POINT('',(0.,4.5,-3.23999999999999));
#1156=CARTESIAN_POINT('Origin',(0.,4.5,6.66133814775094E-15));
#1157=CARTESIAN_POINT('',(-1.,4.49999999999999,3.24));
#1158=CARTESIAN_POINT('Origin',(-1.,4.5,6.66133814775094E-15));
#1159=CARTESIAN_POINT('',(0.,4.49999999999999,3.24));
#1160=CARTESIAN_POINT('Origin',(0.,3.89738614317475,3.24));
#1161=CARTESIAN_POINT('',(-1.,-4.5,3.23999999999999));
#1162=CARTESIAN_POINT('Origin',(-1.,0.,3.00000000000001));
#1163=CARTESIAN_POINT('Origin',(-2.,0.698693071587368,6.24000000000001));
#1164=CARTESIAN_POINT('',(-2.,3.89738614317474,9.24000000000002));
#1165=CARTESIAN_POINT('',(1.,3.89738614317474,6.24000000000002));
#1166=CARTESIAN_POINT('Origin',(-2.,3.89738614317474,6.24000000000002));
#1167=CARTESIAN_POINT('',(-2.,1.39738614317474,9.24000000000001));
#1168=CARTESIAN_POINT('',(-2.,0.698693071587363,9.24000000000001));
#1169=CARTESIAN_POINT('',(1.,1.39738614317474,6.24000000000001));
#1170=CARTESIAN_POINT('Origin',(-2.,1.39738614317474,6.24000000000001));
#1171=CARTESIAN_POINT('',(1.,0.698693071587368,6.24000000000001));
#1172=CARTESIAN_POINT('Origin',(0.,1.39738614317474,9.24000000000001));
#1173=CARTESIAN_POINT('',(-9.,3.89738614317474,9.24000000000002));
#1174=CARTESIAN_POINT('',(0.,3.89738614317474,9.24000000000002));
#1175=CARTESIAN_POINT('',(-9.,1.39738614317474,9.24000000000001));
#1176=CARTESIAN_POINT('',(-9.,2.02238614317474,9.24000000000002));
#1177=CARTESIAN_POINT('',(0.,1.39738614317474,9.24000000000001));
#1178=CARTESIAN_POINT('Origin',(0.,1.39738614317475,3.23999999999999));
#1179=CARTESIAN_POINT('',(-9.,1.39738614317475,3.23999999999999));
#1180=CARTESIAN_POINT('Origin',(-9.,1.39738614317474,6.24));
#1181=CARTESIAN_POINT('',(-6.,1.39738614317475,3.23999999999999));
#1182=CARTESIAN_POINT('',(0.,1.39738614317475,3.23999999999999));
#1183=CARTESIAN_POINT('',(1.,1.39738614317475,3.23999999999999));
#1184=CARTESIAN_POINT('',(0.,1.39738614317475,3.23999999999999));
#1185=CARTESIAN_POINT('',(1.,1.39738614317474,9.24000000000001));
#1186=CARTESIAN_POINT('',(-0.5,1.39738614317474,6.24));
#1187=CARTESIAN_POINT('Origin',(-2.,1.39738614317474,6.24));
#1188=CARTESIAN_POINT('',(-7.5,1.39738614317474,6.24));
#1189=CARTESIAN_POINT('Origin',(-9.,1.39738614317474,6.24));
#1190=CARTESIAN_POINT('Origin',(0.,3.89738614317474,9.24000000000002));
#1191=CARTESIAN_POINT('',(1.,3.89738614317475,3.24));
#1192=CARTESIAN_POINT('',(1.,3.89738614317474,9.24000000000002));
#1193=CARTESIAN_POINT('',(-6.,3.89738614317475,3.24));
#1194=CARTESIAN_POINT('',(0.,3.89738614317475,3.24));
#1195=CARTESIAN_POINT('',(-9.,3.89738614317475,3.24));
#1196=CARTESIAN_POINT('',(0.,3.89738614317475,3.24));
#1197=CARTESIAN_POINT('Origin',(-9.,3.89738614317474,6.24000000000002));
#1198=CARTESIAN_POINT('',(-7.5,3.89738614317474,6.24));
#1199=CARTESIAN_POINT('Origin',(-9.,3.89738614317474,6.24));
#1200=CARTESIAN_POINT('',(-0.5,3.89738614317474,6.24));
#1201=CARTESIAN_POINT('Origin',(-2.,3.89738614317474,6.24));
#1202=CARTESIAN_POINT('Origin',(-9.,2.02238614317474,6.24));
#1203=CARTESIAN_POINT('',(-9.,2.02238614317475,3.24));
#1204=CARTESIAN_POINT('Origin',(-6.,4.5,6.66133814775094E-15));
#1205=CARTESIAN_POINT('',(-5.,3.,6.47764112787884E-15));
#1206=CARTESIAN_POINT('Origin',(-5.,4.5,6.66133814775094E-15));
#1207=CARTESIAN_POINT('',(-6.,3.,6.47764112787884E-15));
#1208=CARTESIAN_POINT('',(-6.,3.,6.84503516762304E-15));
#1209=CARTESIAN_POINT('Origin',(-6.,4.5,6.66133814775094E-15));
#1210=CARTESIAN_POINT('Origin',(-5.,4.5,6.66133814775094E-15));
#1211=CARTESIAN_POINT('',(-5.,2.4,6.40416231993E-15));
#1212=CARTESIAN_POINT('Origin',(-5.,4.5,6.66133814775094E-15));
#1213=CARTESIAN_POINT('Origin',(-6.,-4.5,-6.66133814775094E-15));
#1214=CARTESIAN_POINT('',(-5.,-6.,-6.84503516762304E-15));
#1215=CARTESIAN_POINT('Origin',(-5.,-4.5,-6.66133814775094E-15));
#1216=CARTESIAN_POINT('',(-6.,-6.,-6.84503516762304E-15));
#1217=CARTESIAN_POINT('',(-6.,-6.,-6.47764112787884E-15));
#1218=CARTESIAN_POINT('Origin',(-6.,-4.5,-6.66133814775094E-15));
#1219=CARTESIAN_POINT('Origin',(-5.,-4.5,-6.66133814775094E-15));
#1220=CARTESIAN_POINT('',(-5.,-6.6,-6.91851397557188E-15));
#1221=CARTESIAN_POINT('Origin',(-5.,-4.5,-6.66133814775094E-15));
#1222=CARTESIAN_POINT('Origin',(-2.,1.39738614317474,6.24));
#1223=CARTESIAN_POINT('',(-0.5,1.39738614317474,6.24));
#1224=CARTESIAN_POINT('Origin',(-9.,1.39738614317474,6.24));
#1225=CARTESIAN_POINT('',(-7.5,1.39738614317474,6.24));
#1226=CARTESIAN_POINT('Origin',(0.,1.39738614317475,3.24));
#1227=CARTESIAN_POINT('',(-6.,0.698693071587372,3.24));
#1228=CARTESIAN_POINT('Origin',(-6.,0.,3.00000000000001));
#1229=CARTESIAN_POINT('',(-6.,4.49999999999999,3.24));
#1230=CARTESIAN_POINT('',(-6.,-4.5,3.23999999999999));
#1231=CARTESIAN_POINT('',(-6.,4.5,-3.23999999999999));
#1232=CARTESIAN_POINT('Origin',(-6.,4.5,6.66133814775094E-15));
#1233=CARTESIAN_POINT('',(-6.,-4.49999999999999,-3.24));
#1234=CARTESIAN_POINT('',(-6.,4.5,-3.23999999999999));
#1235=CARTESIAN_POINT('',(-6.,-4.5,3.23999999999999));
#1236=CARTESIAN_POINT('Origin',(-6.,-4.5,-6.66133814775094E-15));
#1237=CARTESIAN_POINT('',(-6.,-4.5,3.23999999999999));
#1238=CARTESIAN_POINT('Origin',(0.,4.5,6.66133814775094E-15));
#1239=CARTESIAN_POINT('',(1.,2.4,6.40416231993E-15));
#1240=CARTESIAN_POINT('Origin',(1.,4.5,6.66133814775094E-15));
#1241=CARTESIAN_POINT('',(0.,2.4,6.91851397557188E-15));
#1242=CARTESIAN_POINT('Origin',(0.,-4.5,-6.66133814775094E-15));
#1243=CARTESIAN_POINT('',(1.,-6.6,-6.91851397557188E-15));
#1244=CARTESIAN_POINT('Origin',(1.,-4.5,-6.66133814775094E-15));
#1245=CARTESIAN_POINT('',(0.,-6.6,-6.40416231993E-15));
#1246=CARTESIAN_POINT('Origin',(0.,-4.5,3.23999999999999));
#1247=CARTESIAN_POINT('',(1.,-4.5,3.23999999999999));
#1248=CARTESIAN_POINT('',(0.,-4.5,3.23999999999999));
#1249=CARTESIAN_POINT('',(1.,-4.5,3.23999999999999));
#1250=CARTESIAN_POINT('Origin',(0.,-4.5,-6.66133814775094E-15));
#1251=CARTESIAN_POINT('',(1.,-4.49999999999999,-3.24));
#1252=CARTESIAN_POINT('',(0.,-4.49999999999999,-3.24));
#1253=CARTESIAN_POINT('Origin',(1.,-4.5,-6.66133814775094E-15));
#1254=CARTESIAN_POINT('Origin',(0.,4.5,-3.23999999999999));
#1255=CARTESIAN_POINT('',(1.,4.5,-3.23999999999999));
#1256=CARTESIAN_POINT('',(0.,4.5,-3.23999999999999));
#1257=CARTESIAN_POINT('',(1.,4.5,-3.23999999999999));
#1258=CARTESIAN_POINT('Origin',(0.,4.5,6.66133814775094E-15));
#1259=CARTESIAN_POINT('',(1.,4.49999999999999,3.24));
#1260=CARTESIAN_POINT('',(0.,4.49999999999999,3.24));
#1261=CARTESIAN_POINT('Origin',(1.,4.5,6.66133814775094E-15));
#1262=CARTESIAN_POINT('Origin',(0.,3.89738614317475,3.24));
#1263=CARTESIAN_POINT('',(1.,-4.5,3.23999999999999));
#1264=CARTESIAN_POINT('Origin',(1.,0.,3.00000000000001));
#1265=UNCERTAINTY_MEASURE_WITH_UNIT(LENGTH_MEASURE(0.01),#1269,
'DISTANCE_ACCURACY_VALUE',
'Maximum model space distance between geometric entities at asserted c
onnectivities');
#1266=UNCERTAINTY_MEASURE_WITH_UNIT(LENGTH_MEASURE(0.01),#1269,
'DISTANCE_ACCURACY_VALUE',
'Maximum model space distance between geometric entities at asserted c
onnectivities');
#1267=(
GEOMETRIC_REPRESENTATION_CONTEXT(3)
GLOBAL_UNCERTAINTY_ASSIGNED_CONTEXT((#1265))
GLOBAL_UNIT_ASSIGNED_CONTEXT((#1269,#1271,#1272))
REPRESENTATION_CONTEXT('','3D')
);
#1268=(
GEOMETRIC_REPRESENTATION_CONTEXT(3)
GLOBAL_UNCERTAINTY_ASSIGNED_CONTEXT((#1266))
GLOBAL_UNIT_ASSIGNED_CONTEXT((#1269,#1271,#1272))
REPRESENTATION_CONTEXT('','3D')
);
#1269=(
LENGTH_UNIT()
NAMED_UNIT(*)
SI_UNIT(.MILLI.,.METRE.)
);
#1270=(
LENGTH_UNIT()
NAMED_UNIT(*)
SI_UNIT($,.METRE.)
);
#1271=(
NAMED_UNIT(*)
PLANE_ANGLE_UNIT()
SI_UNIT($,.RADIAN.)
);
#1272=(
NAMED_UNIT(*)
SI_UNIT($,.STERADIAN.)
SOLID_ANGLE_UNIT()
);
#1273=SHAPE_DEFINITION_REPRESENTATION(#1274,#1275);
#1274=PRODUCT_DEFINITION_SHAPE('',$,#1277);
#1275=SHAPE_REPRESENTATION('',(#753),#1267);
#1276=PRODUCT_DEFINITION_CONTEXT('part definition',#1281,'design');
#1277=PRODUCT_DEFINITION('ServoSupport','ServoSupport v8',#1278,#1276);
#1278=PRODUCT_DEFINITION_FORMATION('',$,#1283);
#1279=PRODUCT_RELATED_PRODUCT_CATEGORY('ServoSupport v8',
'ServoSupport v8',(#1283));
#1280=APPLICATION_PROTOCOL_DEFINITION('international standard',
'automotive_design',2009,#1281);
#1281=APPLICATION_CONTEXT(
'Core Data for Automotive Mechanical Design Process');
#1282=PRODUCT_CONTEXT('part definition',#1281,'mechanical');
#1283=PRODUCT('ServoSupport','ServoSupport v8',$,(#1282));
#1284=PRESENTATION_STYLE_ASSIGNMENT((#1286));
#1285=PRESENTATION_STYLE_ASSIGNMENT((#1287));
#1286=SURFACE_STYLE_USAGE(.BOTH.,#1288);
#1287=SURFACE_STYLE_USAGE(.BOTH.,#1289);
#1288=SURFACE_SIDE_STYLE('',(#1290));
#1289=SURFACE_SIDE_STYLE('',(#1291));
#1290=SURFACE_STYLE_FILL_AREA(#1292);
#1291=SURFACE_STYLE_FILL_AREA(#1293);
#1292=FILL_AREA_STYLE('Steel - Satin',(#1294));
#1293=FILL_AREA_STYLE('Plastic - Matte (White)',(#1295));
#1294=FILL_AREA_STYLE_COLOUR('Steel - Satin',#1296);
#1295=FILL_AREA_STYLE_COLOUR('Plastic - Matte (White)',#1297);
#1296=COLOUR_RGB('Steel - Satin',0.627450980392157,0.627450980392157,0.627450980392157);
#1297=COLOUR_RGB('Plastic - Matte (White)',0.964705882352941,0.964705882352941,
0.952941176470588);
ENDSEC;
END-ISO-10303-21;
