ISO-10303-21;
HEADER;
/* Generated by software containing ST-Developer
 * from STEP Tools, Inc. (www.steptools.com) 
 */

FILE_DESCRIPTION(
/* description */ (''),
/* implementation_level */ '2;1');

FILE_NAME(
/* name */ 'OuterShellBase_v22.step',
/* time_stamp */ '2026-08-21T09:14:43-04:00',
/* author */ (''),
/* organization */ (''),
/* preprocessor_version */ 'ST-DEVELOPER v20.1',
/* originating_system */ 'Autodesk Translation Framework v15.8.0.0',
/* authorisation */ '');

FILE_SCHEMA (('AUTOMOTIVE_DESIGN { 1 0 10303 214 3 1 1 }'));
ENDSEC;

DATA;
#10=MECHANICAL_DESIGN_GEOMETRIC_PRESENTATION_REPRESENTATION('',(#13),#1120);
#11=SHAPE_REPRESENTATION_RELATIONSHIP('SRR','None',#1127,#12);
#12=ADVANCED_BREP_SHAPE_REPRESENTATION('',(#14),#1119);
#13=STYLED_ITEM('',(#1136),#14);
#14=MANIFOLD_SOLID_BREP('Body1',#457);
#15=PLANE('',#487);
#16=PLANE('',#488);
#17=PLANE('',#492);
#18=PLANE('',#496);
#19=PLANE('',#497);
#20=PLANE('',#498);
#21=PLANE('',#501);
#22=PLANE('',#502);
#23=PLANE('',#503);
#24=PLANE('',#506);
#25=PLANE('',#507);
#26=PLANE('',#516);
#27=PLANE('',#517);
#28=FACE_BOUND('',#121,.T.);
#29=FACE_BOUND('',#124,.T.);
#30=FACE_BOUND('',#134,.T.);
#31=FACE_BOUND('',#138,.T.);
#32=FACE_BOUND('',#147,.T.);
#33=FACE_BOUND('',#148,.T.);
#34=FACE_BOUND('',#149,.T.);
#35=(
BOUNDED_CURVE()
B_SPLINE_CURVE(2,(#790,#791,#792),.UNSPECIFIED.,.F.,.F.)
B_SPLINE_CURVE_WITH_KNOTS((3,3),(4.66137605857464,5.45342641073802),
 .UNSPECIFIED.)
CURVE()
GEOMETRIC_REPRESENTATION_ITEM()
RATIONAL_B_SPLINE_CURVE((1.01992457144728,1.01907285712718,1.01735643731282))
REPRESENTATION_ITEM('')
);
#36=(
BOUNDED_CURVE()
B_SPLINE_CURVE(2,(#819,#820,#821),.UNSPECIFIED.,.F.,.F.)
B_SPLINE_CURVE_WITH_KNOTS((3,3),(2.30902423579699,3.10107458796141),
 .UNSPECIFIED.)
CURVE()
GEOMETRIC_REPRESENTATION_ITEM()
RATIONAL_B_SPLINE_CURVE((1.01735643731125,1.01907285712544,1.01992457144545))
REPRESENTATION_ITEM('')
);
#37=(
BOUNDED_CURVE()
B_SPLINE_CURVE(2,(#947,#948,#949),.UNSPECIFIED.,.F.,.F.)
B_SPLINE_CURVE_WITH_KNOTS((3,3),(0.0619340272022462,1.3241969698475),
 .UNSPECIFIED.)
CURVE()
GEOMETRIC_REPRESENTATION_ITEM()
RATIONAL_B_SPLINE_CURVE((1.00008964166277,1.00095830372718,1.))
REPRESENTATION_ITEM('')
);
#38=(
BOUNDED_CURVE()
B_SPLINE_CURVE(2,(#976,#977,#978),.UNSPECIFIED.,.F.,.F.)
B_SPLINE_CURVE_WITH_KNOTS((3,3),(0.,1.26226294274723),.UNSPECIFIED.)
CURVE()
GEOMETRIC_REPRESENTATION_ITEM()
RATIONAL_B_SPLINE_CURVE((1.,1.00095830376776,1.00008964166642))
REPRESENTATION_ITEM('')
);
#39=(
BOUNDED_CURVE()
B_SPLINE_CURVE(2,(#982,#983,#984),.UNSPECIFIED.,.F.,.F.)
B_SPLINE_CURVE_WITH_KNOTS((3,3),(0.0619340272025621,1.3241969698475),
 .UNSPECIFIED.)
CURVE()
GEOMETRIC_REPRESENTATION_ITEM()
RATIONAL_B_SPLINE_CURVE((1.00008964166257,1.00095830372503,1.))
REPRESENTATION_ITEM('')
);
#40=(
BOUNDED_CURVE()
B_SPLINE_CURVE(2,(#1016,#1017,#1018),.UNSPECIFIED.,.F.,.F.)
B_SPLINE_CURVE_WITH_KNOTS((3,3),(0.,1.26226294263481),.UNSPECIFIED.)
CURVE()
GEOMETRIC_REPRESENTATION_ITEM()
RATIONAL_B_SPLINE_CURVE((1.,1.00095830355448,1.00008964164663))
REPRESENTATION_ITEM('')
);
#41=(
BOUNDED_CURVE()
B_SPLINE_CURVE(2,(#1023,#1024,#1025),.UNSPECIFIED.,.F.,.F.)
B_SPLINE_CURVE_WITH_KNOTS((3,3),(4.66137605854325,5.45342641070916),
 .UNSPECIFIED.)
CURVE()
GEOMETRIC_REPRESENTATION_ITEM()
RATIONAL_B_SPLINE_CURVE((1.01992457144271,1.01907285712284,1.0173564373089))
REPRESENTATION_ITEM('')
);
#42=(
BOUNDED_CURVE()
B_SPLINE_CURVE(2,(#1052,#1053,#1054),.UNSPECIFIED.,.F.,.F.)
B_SPLINE_CURVE_WITH_KNOTS((3,3),(2.30902423582884,3.10107458799584),
 .UNSPECIFIED.)
CURVE()
GEOMETRIC_REPRESENTATION_ITEM()
RATIONAL_B_SPLINE_CURVE((1.01735643730666,1.01907285712036,1.0199245714401))
REPRESENTATION_ITEM('')
);
#43=CONICAL_SURFACE('',#473,52.1430466182295,0.380506377112365);
#44=CONICAL_SURFACE('',#477,54.,0.380506377112365);
#45=CONICAL_SURFACE('',#484,52.1430466182295,0.380506377112365);
#46=LINE('',#786,#66);
#47=LINE('',#1000,#67);
#48=LINE('',#1058,#68);
#49=LINE('',#1059,#69);
#50=LINE('',#1062,#70);
#51=LINE('',#1063,#71);
#52=LINE('',#1067,#72);
#53=LINE('',#1074,#73);
#54=LINE('',#1076,#74);
#55=LINE('',#1078,#75);
#56=LINE('',#1081,#76);
#57=LINE('',#1083,#77);
#58=LINE('',#1088,#78);
#59=LINE('',#1090,#79);
#60=LINE('',#1093,#80);
#61=LINE('',#1095,#81);
#62=LINE('',#1100,#82);
#63=LINE('',#1102,#83);
#64=LINE('',#1106,#84);
#65=LINE('',#1110,#85);
#66=VECTOR('',#524,7.5);
#67=VECTOR('',#541,54.);
#68=VECTOR('',#556,10.);
#69=VECTOR('',#557,10.);
#70=VECTOR('',#560,10.);
#71=VECTOR('',#561,10.);
#72=VECTOR('',#566,10.);
#73=VECTOR('',#577,10.);
#74=VECTOR('',#580,10.);
#75=VECTOR('',#583,10.);
#76=VECTOR('',#586,10.);
#77=VECTOR('',#587,10.);
#78=VECTOR('',#594,10.);
#79=VECTOR('',#597,10.);
#80=VECTOR('',#600,10.);
#81=VECTOR('',#601,10.);
#82=VECTOR('',#608,10.);
#83=VECTOR('',#611,10.);
#84=VECTOR('',#616,2.1);
#85=VECTOR('',#621,2.1);
#86=CYLINDRICAL_SURFACE('',#472,7.5);
#87=CYLINDRICAL_SURFACE('',#489,5.6);
#88=CYLINDRICAL_SURFACE('',#494,5.6);
#89=CYLINDRICAL_SURFACE('',#508,1.75);
#90=CYLINDRICAL_SURFACE('',#510,1.75);
#91=CYLINDRICAL_SURFACE('',#512,3.6);
#92=CYLINDRICAL_SURFACE('',#514,3.6);
#93=FACE_OUTER_BOUND('',#118,.T.);
#94=FACE_OUTER_BOUND('',#119,.T.);
#95=FACE_OUTER_BOUND('',#120,.T.);
#96=FACE_OUTER_BOUND('',#122,.T.);
#97=FACE_OUTER_BOUND('',#123,.T.);
#98=FACE_OUTER_BOUND('',#125,.T.);
#99=FACE_OUTER_BOUND('',#126,.T.);
#100=FACE_OUTER_BOUND('',#127,.T.);
#101=FACE_OUTER_BOUND('',#128,.T.);
#102=FACE_OUTER_BOUND('',#129,.T.);
#103=FACE_OUTER_BOUND('',#130,.T.);
#104=FACE_OUTER_BOUND('',#131,.T.);
#105=FACE_OUTER_BOUND('',#132,.T.);
#106=FACE_OUTER_BOUND('',#133,.T.);
#107=FACE_OUTER_BOUND('',#135,.T.);
#108=FACE_OUTER_BOUND('',#136,.T.);
#109=FACE_OUTER_BOUND('',#137,.T.);
#110=FACE_OUTER_BOUND('',#139,.T.);
#111=FACE_OUTER_BOUND('',#140,.T.);
#112=FACE_OUTER_BOUND('',#141,.T.);
#113=FACE_OUTER_BOUND('',#142,.T.);
#114=FACE_OUTER_BOUND('',#143,.T.);
#115=FACE_OUTER_BOUND('',#144,.T.);
#116=FACE_OUTER_BOUND('',#145,.T.);
#117=FACE_OUTER_BOUND('',#146,.T.);
#118=EDGE_LOOP('',(#298,#299,#300,#301,#302));
#119=EDGE_LOOP('',(#303,#304,#305,#306,#307,#308));
#120=EDGE_LOOP('',(#309,#310,#311,#312,#313,#314));
#121=EDGE_LOOP('',(#315));
#122=EDGE_LOOP('',(#316,#317,#318,#319,#320));
#123=EDGE_LOOP('',(#321,#322,#323,#324,#325,#326,#327,#328,#329,#330,#331,
#332,#333,#334,#335,#336));
#124=EDGE_LOOP('',(#337));
#125=EDGE_LOOP('',(#338,#339,#340,#341,#342,#343));
#126=EDGE_LOOP('',(#344,#345,#346));
#127=EDGE_LOOP('',(#347,#348,#349));
#128=EDGE_LOOP('',(#350,#351,#352,#353,#354,#355));
#129=EDGE_LOOP('',(#356,#357,#358,#359));
#130=EDGE_LOOP('',(#360,#361,#362,#363,#364,#365));
#131=EDGE_LOOP('',(#366,#367,#368));
#132=EDGE_LOOP('',(#369,#370,#371));
#133=EDGE_LOOP('',(#372,#373,#374,#375));
#134=EDGE_LOOP('',(#376));
#135=EDGE_LOOP('',(#377,#378,#379));
#136=EDGE_LOOP('',(#380,#381,#382));
#137=EDGE_LOOP('',(#383,#384,#385,#386));
#138=EDGE_LOOP('',(#387));
#139=EDGE_LOOP('',(#388,#389,#390));
#140=EDGE_LOOP('',(#391,#392,#393));
#141=EDGE_LOOP('',(#394,#395,#396,#397));
#142=EDGE_LOOP('',(#398,#399,#400,#401));
#143=EDGE_LOOP('',(#402,#403,#404,#405,#406,#407));
#144=EDGE_LOOP('',(#408,#409,#410,#411,#412,#413));
#145=EDGE_LOOP('',(#414,#415,#416,#417,#418));
#146=EDGE_LOOP('',(#419));
#147=EDGE_LOOP('',(#420,#421,#422,#423,#424,#425,#426,#427));
#148=EDGE_LOOP('',(#428));
#149=EDGE_LOOP('',(#429));
#150=B_SPLINE_CURVE_WITH_KNOTS('',3,(#724,#725,#726,#727,#728,#729,#730,
#731,#732,#733,#734,#735,#736,#737),.UNSPECIFIED.,.F.,.F.,(4,1,1,1,1,1,
1,1,1,1,1,4),(0.,0.323324378687036,0.646648757374072,0.969973136061108,
1.29329751474814,1.93994627212222,2.15549585791357,2.31715804725709,2.58659502949629,
2.90991940818332,3.23324378687036,3.43356728418812),.UNSPECIFIED.);
#151=B_SPLINE_CURVE_WITH_KNOTS('',3,(#738,#739,#740,#741,#742,#743,#744),
 .UNSPECIFIED.,.F.,.F.,(4,1,1,1,4),(3.43356728418812,3.5565681655574,3.87989254424443,
4.20321692293147,4.5265413016185),.UNSPECIFIED.);
#152=B_SPLINE_CURVE_WITH_KNOTS('',3,(#745,#746,#747,#748,#749,#750,#751,
#752,#753,#754,#755,#756,#757,#758,#759,#760,#761),.UNSPECIFIED.,.T.,.F.,
(4,1,1,1,1,1,1,1,1,1,1,1,1,1,4),(-4.5265413016185,-4.20321692293147,-3.87989254424443,
-3.5565681655574,-3.23324378687036,-2.90991940818332,-2.58659502949629,
-2.31715804725709,-2.15549585791357,-1.93994627212222,-1.29329751474814,
-0.969973136061108,-0.646648757374072,-0.323324378687036,0.),
 .UNSPECIFIED.);
#153=B_SPLINE_CURVE_WITH_KNOTS('',3,(#765,#766,#767,#768,#769,#770,#771,
#772,#773,#774),.UNSPECIFIED.,.F.,.F.,(4,1,1,1,1,1,1,4),(3.35541934775398,
3.67871280662126,4.00200626548853,4.3252997243558,4.64859318322308,5.29518010095763,
5.56459131668036,5.61847405135863),.UNSPECIFIED.);
#154=B_SPLINE_CURVE_WITH_KNOTS('',3,(#775,#776,#777,#778,#779,#780,#781,
#782,#783,#784,#785),.UNSPECIFIED.,.F.,.F.,(4,1,1,1,1,1,1,1,4),(5.61847405135863,
5.726238046114,5.94176701869218,6.26506047755945,6.58835393642673,6.911647395294,
7.23494085416128,7.55823431302855,7.88152777189583),.UNSPECIFIED.);
#155=B_SPLINE_CURVE_WITH_KNOTS('',3,(#794,#795,#796,#797,#798,#799,#800,
#801,#802,#803),.UNSPECIFIED.,.F.,.F.,(4,2,2,2,4),(9.75259589577045,9.9098713257706,
10.4810943583832,10.7667058746895,10.7951966872649),.UNSPECIFIED.);
#156=B_SPLINE_CURVE_WITH_KNOTS('',3,(#807,#808,#809,#810,#811,#812,#813,
#814,#815,#816,#817),.UNSPECIFIED.,.F.,.F.,(4,2,2,3,4),(5.59610945340093,
5.62460026597628,5.91021178228258,6.48143481489519,6.63871024489533),
 .UNSPECIFIED.);
#157=B_SPLINE_CURVE_WITH_KNOTS('',3,(#927,#928,#929,#930,#931,#932,#933,
#934,#935,#936,#937,#938,#939,#940,#941,#942,#943),.UNSPECIFIED.,.T.,.F.,
(4,1,1,1,1,1,1,1,1,1,1,1,1,1,4),(-7.88152777189583,-7.55823431302855,-7.23494085416128,
-6.911647395294,-6.58835393642673,-6.26506047755945,-5.94176701869218,-5.726238046114,
-5.56459131668036,-5.29518010095763,-4.64859318322308,-4.3252997243558,
-4.00200626548853,-3.67871280662126,-3.35541934775398),.UNSPECIFIED.);
#158=B_SPLINE_CURVE_WITH_KNOTS('',3,(#951,#952,#953,#954,#955,#956,#957,
#958,#959,#960,#961),.UNSPECIFIED.,.F.,.F.,(4,3,2,2,4),(-0.065480229961675,
0.,0.374966192205025,0.562449288307538,0.584040724163374),.UNSPECIFIED.);
#159=B_SPLINE_CURVE_WITH_KNOTS('',3,(#965,#966,#967,#968,#969,#970,#971,
#972,#973,#974),.UNSPECIFIED.,.F.,.F.,(4,2,2,2,4),(1.42322256858238,1.44481400443822,
1.63229710054073,2.00726329274576,2.07274352270743),.UNSPECIFIED.);
#160=B_SPLINE_CURVE_WITH_KNOTS('',3,(#986,#987,#988,#989,#990,#991,#992,
#993,#994,#995,#996),.UNSPECIFIED.,.F.,.F.,(4,3,2,2,4),(-0.0654802299616747,
0.,0.374966192205026,0.562449288307539,0.584040724163378),.UNSPECIFIED.);
#161=B_SPLINE_CURVE_WITH_KNOTS('',3,(#1005,#1006,#1007,#1008,#1009,#1010,
#1011,#1012,#1013,#1014),.UNSPECIFIED.,.F.,.F.,(4,2,2,2,4),(1.42322256858238,
1.44481400443822,1.63229710054073,2.00726329274575,2.07274352270743),
 .UNSPECIFIED.);
#162=B_SPLINE_CURVE_WITH_KNOTS('',3,(#1027,#1028,#1029,#1030,#1031,#1032,
#1033,#1034,#1035,#1036),.UNSPECIFIED.,.F.,.F.,(4,2,2,2,4),(9.75259589577046,
9.90987132577061,10.4810943583832,10.7667058746895,10.7951966872649),
 .UNSPECIFIED.);
#163=B_SPLINE_CURVE_WITH_KNOTS('',3,(#1040,#1041,#1042,#1043,#1044,#1045,
#1046,#1047,#1048,#1049,#1050),.UNSPECIFIED.,.F.,.F.,(4,2,2,3,4),(5.59610945340093,
5.62460026597628,5.91021178228258,6.48143481489518,6.63871024489533),
 .UNSPECIFIED.);
#164=CIRCLE('',#471,0.5);
#165=CIRCLE('',#474,48.6459340771462);
#166=CIRCLE('',#475,55.8459340771462);
#167=CIRCLE('',#476,0.499999999999999);
#168=CIRCLE('',#478,50.);
#169=CIRCLE('',#479,57.2);
#170=CIRCLE('',#480,50.);
#171=CIRCLE('',#481,58.);
#172=CIRCLE('',#482,50.);
#173=CIRCLE('',#483,57.2);
#174=CIRCLE('',#485,48.6459340771462);
#175=CIRCLE('',#486,55.8459340771462);
#176=CIRCLE('',#490,5.6);
#177=CIRCLE('',#491,5.6);
#178=CIRCLE('',#493,5.6);
#179=CIRCLE('',#495,5.6);
#180=CIRCLE('',#499,3.6);
#181=CIRCLE('',#500,1.75);
#182=CIRCLE('',#504,3.6);
#183=CIRCLE('',#505,1.75);
#184=CIRCLE('',#509,1.75);
#185=CIRCLE('',#511,1.75);
#186=CIRCLE('',#513,3.6);
#187=CIRCLE('',#515,3.6);
#188=VERTEX_POINT('',#720);
#189=VERTEX_POINT('',#721);
#190=VERTEX_POINT('',#723);
#191=VERTEX_POINT('',#763);
#192=VERTEX_POINT('',#764);
#193=VERTEX_POINT('',#788);
#194=VERTEX_POINT('',#789);
#195=VERTEX_POINT('',#793);
#196=VERTEX_POINT('',#804);
#197=VERTEX_POINT('',#806);
#198=VERTEX_POINT('',#818);
#199=VERTEX_POINT('',#925);
#200=VERTEX_POINT('',#945);
#201=VERTEX_POINT('',#946);
#202=VERTEX_POINT('',#950);
#203=VERTEX_POINT('',#962);
#204=VERTEX_POINT('',#964);
#205=VERTEX_POINT('',#975);
#206=VERTEX_POINT('',#979);
#207=VERTEX_POINT('',#981);
#208=VERTEX_POINT('',#985);
#209=VERTEX_POINT('',#997);
#210=VERTEX_POINT('',#999);
#211=VERTEX_POINT('',#1002);
#212=VERTEX_POINT('',#1004);
#213=VERTEX_POINT('',#1015);
#214=VERTEX_POINT('',#1021);
#215=VERTEX_POINT('',#1022);
#216=VERTEX_POINT('',#1026);
#217=VERTEX_POINT('',#1037);
#218=VERTEX_POINT('',#1039);
#219=VERTEX_POINT('',#1051);
#220=VERTEX_POINT('',#1057);
#221=VERTEX_POINT('',#1061);
#222=VERTEX_POINT('',#1066);
#223=VERTEX_POINT('',#1072);
#224=VERTEX_POINT('',#1080);
#225=VERTEX_POINT('',#1082);
#226=VERTEX_POINT('',#1085);
#227=VERTEX_POINT('',#1092);
#228=VERTEX_POINT('',#1094);
#229=VERTEX_POINT('',#1097);
#230=VERTEX_POINT('',#1104);
#231=VERTEX_POINT('',#1108);
#232=EDGE_CURVE('',#188,#189,#164,.T.);
#233=EDGE_CURVE('',#189,#190,#150,.T.);
#234=EDGE_CURVE('',#190,#189,#151,.T.);
#235=EDGE_CURVE('',#188,#188,#152,.T.);
#236=EDGE_CURVE('',#191,#192,#153,.T.);
#237=EDGE_CURVE('',#192,#191,#154,.T.);
#238=EDGE_CURVE('',#192,#190,#46,.T.);
#239=EDGE_CURVE('',#193,#194,#35,.T.);
#240=EDGE_CURVE('',#195,#193,#155,.F.);
#241=EDGE_CURVE('',#196,#195,#165,.T.);
#242=EDGE_CURVE('',#197,#196,#156,.F.);
#243=EDGE_CURVE('',#198,#197,#36,.T.);
#244=EDGE_CURVE('',#194,#198,#166,.T.);
#245=EDGE_CURVE('',#199,#191,#167,.T.);
#246=EDGE_CURVE('',#199,#199,#157,.T.);
#247=EDGE_CURVE('',#200,#201,#37,.T.);
#248=EDGE_CURVE('',#201,#202,#158,.T.);
#249=EDGE_CURVE('',#202,#203,#168,.T.);
#250=EDGE_CURVE('',#203,#204,#159,.T.);
#251=EDGE_CURVE('',#204,#205,#38,.T.);
#252=EDGE_CURVE('',#205,#206,#169,.T.);
#253=EDGE_CURVE('',#206,#207,#39,.T.);
#254=EDGE_CURVE('',#207,#208,#160,.T.);
#255=EDGE_CURVE('',#208,#209,#170,.T.);
#256=EDGE_CURVE('',#209,#210,#47,.T.);
#257=EDGE_CURVE('',#210,#210,#171,.T.);
#258=EDGE_CURVE('',#209,#211,#172,.T.);
#259=EDGE_CURVE('',#211,#212,#161,.T.);
#260=EDGE_CURVE('',#212,#213,#40,.T.);
#261=EDGE_CURVE('',#213,#200,#173,.T.);
#262=EDGE_CURVE('',#214,#215,#41,.T.);
#263=EDGE_CURVE('',#216,#214,#162,.F.);
#264=EDGE_CURVE('',#217,#216,#174,.T.);
#265=EDGE_CURVE('',#218,#217,#163,.F.);
#266=EDGE_CURVE('',#219,#218,#42,.T.);
#267=EDGE_CURVE('',#215,#219,#175,.T.);
#268=EDGE_CURVE('',#220,#194,#48,.T.);
#269=EDGE_CURVE('',#220,#193,#49,.T.);
#270=EDGE_CURVE('',#198,#221,#50,.T.);
#271=EDGE_CURVE('',#221,#197,#51,.T.);
#272=EDGE_CURVE('',#196,#216,#176,.F.);
#273=EDGE_CURVE('',#222,#214,#52,.T.);
#274=EDGE_CURVE('',#221,#222,#177,.T.);
#275=EDGE_CURVE('',#217,#195,#178,.F.);
#276=EDGE_CURVE('',#223,#220,#179,.T.);
#277=EDGE_CURVE('',#223,#218,#53,.T.);
#278=EDGE_CURVE('',#219,#223,#54,.T.);
#279=EDGE_CURVE('',#222,#215,#55,.T.);
#280=EDGE_CURVE('',#224,#200,#56,.T.);
#281=EDGE_CURVE('',#225,#213,#57,.T.);
#282=EDGE_CURVE('',#224,#225,#180,.T.);
#283=EDGE_CURVE('',#226,#226,#181,.F.);
#284=EDGE_CURVE('',#225,#212,#58,.T.);
#285=EDGE_CURVE('',#224,#201,#59,.T.);
#286=EDGE_CURVE('',#227,#206,#60,.T.);
#287=EDGE_CURVE('',#228,#205,#61,.T.);
#288=EDGE_CURVE('',#227,#228,#182,.T.);
#289=EDGE_CURVE('',#229,#229,#183,.F.);
#290=EDGE_CURVE('',#228,#204,#62,.T.);
#291=EDGE_CURVE('',#227,#207,#63,.T.);
#292=EDGE_CURVE('',#230,#230,#184,.T.);
#293=EDGE_CURVE('',#230,#226,#64,.T.);
#294=EDGE_CURVE('',#231,#231,#185,.T.);
#295=EDGE_CURVE('',#231,#229,#65,.T.);
#296=EDGE_CURVE('',#208,#203,#186,.T.);
#297=EDGE_CURVE('',#202,#211,#187,.T.);
#298=ORIENTED_EDGE('',*,*,#232,.T.);
#299=ORIENTED_EDGE('',*,*,#233,.T.);
#300=ORIENTED_EDGE('',*,*,#234,.T.);
#301=ORIENTED_EDGE('',*,*,#232,.F.);
#302=ORIENTED_EDGE('',*,*,#235,.T.);
#303=ORIENTED_EDGE('',*,*,#236,.F.);
#304=ORIENTED_EDGE('',*,*,#237,.F.);
#305=ORIENTED_EDGE('',*,*,#238,.T.);
#306=ORIENTED_EDGE('',*,*,#233,.F.);
#307=ORIENTED_EDGE('',*,*,#234,.F.);
#308=ORIENTED_EDGE('',*,*,#238,.F.);
#309=ORIENTED_EDGE('',*,*,#239,.F.);
#310=ORIENTED_EDGE('',*,*,#240,.F.);
#311=ORIENTED_EDGE('',*,*,#241,.F.);
#312=ORIENTED_EDGE('',*,*,#242,.F.);
#313=ORIENTED_EDGE('',*,*,#243,.F.);
#314=ORIENTED_EDGE('',*,*,#244,.F.);
#315=ORIENTED_EDGE('',*,*,#235,.F.);
#316=ORIENTED_EDGE('',*,*,#245,.T.);
#317=ORIENTED_EDGE('',*,*,#236,.T.);
#318=ORIENTED_EDGE('',*,*,#237,.T.);
#319=ORIENTED_EDGE('',*,*,#245,.F.);
#320=ORIENTED_EDGE('',*,*,#246,.T.);
#321=ORIENTED_EDGE('',*,*,#247,.T.);
#322=ORIENTED_EDGE('',*,*,#248,.T.);
#323=ORIENTED_EDGE('',*,*,#249,.T.);
#324=ORIENTED_EDGE('',*,*,#250,.T.);
#325=ORIENTED_EDGE('',*,*,#251,.T.);
#326=ORIENTED_EDGE('',*,*,#252,.T.);
#327=ORIENTED_EDGE('',*,*,#253,.T.);
#328=ORIENTED_EDGE('',*,*,#254,.T.);
#329=ORIENTED_EDGE('',*,*,#255,.T.);
#330=ORIENTED_EDGE('',*,*,#256,.T.);
#331=ORIENTED_EDGE('',*,*,#257,.F.);
#332=ORIENTED_EDGE('',*,*,#256,.F.);
#333=ORIENTED_EDGE('',*,*,#258,.T.);
#334=ORIENTED_EDGE('',*,*,#259,.T.);
#335=ORIENTED_EDGE('',*,*,#260,.T.);
#336=ORIENTED_EDGE('',*,*,#261,.T.);
#337=ORIENTED_EDGE('',*,*,#246,.F.);
#338=ORIENTED_EDGE('',*,*,#262,.F.);
#339=ORIENTED_EDGE('',*,*,#263,.F.);
#340=ORIENTED_EDGE('',*,*,#264,.F.);
#341=ORIENTED_EDGE('',*,*,#265,.F.);
#342=ORIENTED_EDGE('',*,*,#266,.F.);
#343=ORIENTED_EDGE('',*,*,#267,.F.);
#344=ORIENTED_EDGE('',*,*,#268,.F.);
#345=ORIENTED_EDGE('',*,*,#269,.T.);
#346=ORIENTED_EDGE('',*,*,#239,.T.);
#347=ORIENTED_EDGE('',*,*,#270,.F.);
#348=ORIENTED_EDGE('',*,*,#243,.T.);
#349=ORIENTED_EDGE('',*,*,#271,.F.);
#350=ORIENTED_EDGE('',*,*,#242,.T.);
#351=ORIENTED_EDGE('',*,*,#272,.T.);
#352=ORIENTED_EDGE('',*,*,#263,.T.);
#353=ORIENTED_EDGE('',*,*,#273,.F.);
#354=ORIENTED_EDGE('',*,*,#274,.F.);
#355=ORIENTED_EDGE('',*,*,#271,.T.);
#356=ORIENTED_EDGE('',*,*,#272,.F.);
#357=ORIENTED_EDGE('',*,*,#241,.T.);
#358=ORIENTED_EDGE('',*,*,#275,.F.);
#359=ORIENTED_EDGE('',*,*,#264,.T.);
#360=ORIENTED_EDGE('',*,*,#265,.T.);
#361=ORIENTED_EDGE('',*,*,#275,.T.);
#362=ORIENTED_EDGE('',*,*,#240,.T.);
#363=ORIENTED_EDGE('',*,*,#269,.F.);
#364=ORIENTED_EDGE('',*,*,#276,.F.);
#365=ORIENTED_EDGE('',*,*,#277,.T.);
#366=ORIENTED_EDGE('',*,*,#278,.F.);
#367=ORIENTED_EDGE('',*,*,#266,.T.);
#368=ORIENTED_EDGE('',*,*,#277,.F.);
#369=ORIENTED_EDGE('',*,*,#279,.F.);
#370=ORIENTED_EDGE('',*,*,#273,.T.);
#371=ORIENTED_EDGE('',*,*,#262,.T.);
#372=ORIENTED_EDGE('',*,*,#280,.T.);
#373=ORIENTED_EDGE('',*,*,#261,.F.);
#374=ORIENTED_EDGE('',*,*,#281,.F.);
#375=ORIENTED_EDGE('',*,*,#282,.F.);
#376=ORIENTED_EDGE('',*,*,#283,.T.);
#377=ORIENTED_EDGE('',*,*,#281,.T.);
#378=ORIENTED_EDGE('',*,*,#260,.F.);
#379=ORIENTED_EDGE('',*,*,#284,.F.);
#380=ORIENTED_EDGE('',*,*,#280,.F.);
#381=ORIENTED_EDGE('',*,*,#285,.T.);
#382=ORIENTED_EDGE('',*,*,#247,.F.);
#383=ORIENTED_EDGE('',*,*,#286,.T.);
#384=ORIENTED_EDGE('',*,*,#252,.F.);
#385=ORIENTED_EDGE('',*,*,#287,.F.);
#386=ORIENTED_EDGE('',*,*,#288,.F.);
#387=ORIENTED_EDGE('',*,*,#289,.T.);
#388=ORIENTED_EDGE('',*,*,#287,.T.);
#389=ORIENTED_EDGE('',*,*,#251,.F.);
#390=ORIENTED_EDGE('',*,*,#290,.F.);
#391=ORIENTED_EDGE('',*,*,#286,.F.);
#392=ORIENTED_EDGE('',*,*,#291,.T.);
#393=ORIENTED_EDGE('',*,*,#253,.F.);
#394=ORIENTED_EDGE('',*,*,#292,.F.);
#395=ORIENTED_EDGE('',*,*,#293,.T.);
#396=ORIENTED_EDGE('',*,*,#283,.F.);
#397=ORIENTED_EDGE('',*,*,#293,.F.);
#398=ORIENTED_EDGE('',*,*,#294,.F.);
#399=ORIENTED_EDGE('',*,*,#295,.T.);
#400=ORIENTED_EDGE('',*,*,#289,.F.);
#401=ORIENTED_EDGE('',*,*,#295,.F.);
#402=ORIENTED_EDGE('',*,*,#254,.F.);
#403=ORIENTED_EDGE('',*,*,#291,.F.);
#404=ORIENTED_EDGE('',*,*,#288,.T.);
#405=ORIENTED_EDGE('',*,*,#290,.T.);
#406=ORIENTED_EDGE('',*,*,#250,.F.);
#407=ORIENTED_EDGE('',*,*,#296,.F.);
#408=ORIENTED_EDGE('',*,*,#248,.F.);
#409=ORIENTED_EDGE('',*,*,#285,.F.);
#410=ORIENTED_EDGE('',*,*,#282,.T.);
#411=ORIENTED_EDGE('',*,*,#284,.T.);
#412=ORIENTED_EDGE('',*,*,#259,.F.);
#413=ORIENTED_EDGE('',*,*,#297,.F.);
#414=ORIENTED_EDGE('',*,*,#296,.T.);
#415=ORIENTED_EDGE('',*,*,#249,.F.);
#416=ORIENTED_EDGE('',*,*,#297,.T.);
#417=ORIENTED_EDGE('',*,*,#258,.F.);
#418=ORIENTED_EDGE('',*,*,#255,.F.);
#419=ORIENTED_EDGE('',*,*,#257,.T.);
#420=ORIENTED_EDGE('',*,*,#268,.T.);
#421=ORIENTED_EDGE('',*,*,#244,.T.);
#422=ORIENTED_EDGE('',*,*,#270,.T.);
#423=ORIENTED_EDGE('',*,*,#274,.T.);
#424=ORIENTED_EDGE('',*,*,#279,.T.);
#425=ORIENTED_EDGE('',*,*,#267,.T.);
#426=ORIENTED_EDGE('',*,*,#278,.T.);
#427=ORIENTED_EDGE('',*,*,#276,.T.);
#428=ORIENTED_EDGE('',*,*,#292,.T.);
#429=ORIENTED_EDGE('',*,*,#294,.T.);
#430=B_SPLINE_SURFACE_WITH_KNOTS('',3,3,((#635,#636,#637,#638,#639,#640,
#641,#642,#643,#644,#645,#646,#647,#648,#649,#650,#651),(#652,#653,#654,
#655,#656,#657,#658,#659,#660,#661,#662,#663,#664,#665,#666,#667,#668),
(#669,#670,#671,#672,#673,#674,#675,#676,#677,#678,#679,#680,#681,#682,
#683,#684,#685),(#686,#687,#688,#689,#690,#691,#692,#693,#694,#695,#696,
#697,#698,#699,#700,#701,#702),(#703,#704,#705,#706,#707,#708,#709,#710,
#711,#712,#713,#714,#715,#716,#717,#718,#719)),.UNSPECIFIED.,.F.,.T.,.F.,
(4,1,4),(4,1,1,1,1,1,1,1,1,1,1,1,1,1,4),(0.,0.5,1.),(0.,0.323324378687036,
0.646648757374072,0.969973136061108,1.29329751474814,1.93994627212222,2.15549585791357,
2.31715804725709,2.58659502949629,2.90991940818332,3.23324378687036,3.5565681655574,
3.87989254424443,4.20321692293147,4.5265413016185),.UNSPECIFIED.);
#431=B_SPLINE_SURFACE_WITH_KNOTS('',3,3,((#823,#824,#825,#826,#827,#828,
#829,#830,#831,#832,#833,#834,#835,#836,#837,#838,#839),(#840,#841,#842,
#843,#844,#845,#846,#847,#848,#849,#850,#851,#852,#853,#854,#855,#856),
(#857,#858,#859,#860,#861,#862,#863,#864,#865,#866,#867,#868,#869,#870,
#871,#872,#873),(#874,#875,#876,#877,#878,#879,#880,#881,#882,#883,#884,
#885,#886,#887,#888,#889,#890),(#891,#892,#893,#894,#895,#896,#897,#898,
#899,#900,#901,#902,#903,#904,#905,#906,#907),(#908,#909,#910,#911,#912,
#913,#914,#915,#916,#917,#918,#919,#920,#921,#922,#923,#924)),
 .UNSPECIFIED.,.F.,.T.,.F.,(4,1,1,4),(4,1,1,1,1,1,1,1,1,1,1,1,1,1,4),(0.,
0.285714285714286,0.571428571428571,1.),(3.35541934775398,3.67871280662126,
4.00200626548853,4.3252997243558,4.64859318322308,5.29518010095763,5.56459131668036,
5.726238046114,5.94176701869218,6.26506047755945,6.58835393642673,6.911647395294,
7.23494085416128,7.55823431302855,7.88152777189583),.UNSPECIFIED.);
#432=ADVANCED_FACE('',(#93),#430,.F.);
#433=ADVANCED_FACE('',(#94),#86,.F.);
#434=ADVANCED_FACE('',(#95,#28),#43,.F.);
#435=ADVANCED_FACE('',(#96),#431,.F.);
#436=ADVANCED_FACE('',(#97,#29),#44,.T.);
#437=ADVANCED_FACE('',(#98),#45,.F.);
#438=ADVANCED_FACE('',(#99),#15,.T.);
#439=ADVANCED_FACE('',(#100),#16,.T.);
#440=ADVANCED_FACE('',(#101),#87,.T.);
#441=ADVANCED_FACE('',(#102),#17,.T.);
#442=ADVANCED_FACE('',(#103),#88,.T.);
#443=ADVANCED_FACE('',(#104),#18,.T.);
#444=ADVANCED_FACE('',(#105),#19,.T.);
#445=ADVANCED_FACE('',(#106,#30),#20,.F.);
#446=ADVANCED_FACE('',(#107),#21,.F.);
#447=ADVANCED_FACE('',(#108),#22,.F.);
#448=ADVANCED_FACE('',(#109,#31),#23,.F.);
#449=ADVANCED_FACE('',(#110),#24,.F.);
#450=ADVANCED_FACE('',(#111),#25,.F.);
#451=ADVANCED_FACE('',(#112),#89,.F.);
#452=ADVANCED_FACE('',(#113),#90,.F.);
#453=ADVANCED_FACE('',(#114),#91,.F.);
#454=ADVANCED_FACE('',(#115),#92,.F.);
#455=ADVANCED_FACE('',(#116),#26,.F.);
#456=ADVANCED_FACE('',(#117,#32,#33,#34),#27,.T.);
#457=CLOSED_SHELL('',(#432,#433,#434,#435,#436,#437,#438,#439,#440,#441,
#442,#443,#444,#445,#446,#447,#448,#449,#450,#451,#452,#453,#454,#455,#456));
#458=DERIVED_UNIT_ELEMENT(#460,1.);
#459=DERIVED_UNIT_ELEMENT(#1122,-3.);
#460=(
MASS_UNIT()
NAMED_UNIT(*)
SI_UNIT(.KILO.,.GRAM.)
);
#461=DERIVED_UNIT((#458,#459));
#462=MEASURE_REPRESENTATION_ITEM('density measure',
POSITIVE_RATIO_MEASURE(7850.),#461);
#463=PROPERTY_DEFINITION_REPRESENTATION(#468,#465);
#464=PROPERTY_DEFINITION_REPRESENTATION(#469,#466);
#465=REPRESENTATION('material name',(#467),#1119);
#466=REPRESENTATION('density',(#462),#1119);
#467=DESCRIPTIVE_REPRESENTATION_ITEM('Steel','Steel');
#468=PROPERTY_DEFINITION('material property','material name',#1129);
#469=PROPERTY_DEFINITION('material property','density of part',#1129);
#470=AXIS2_PLACEMENT_3D('',#634,#518,#519);
#471=AXIS2_PLACEMENT_3D('',#722,#520,#521);
#472=AXIS2_PLACEMENT_3D('',#762,#522,#523);
#473=AXIS2_PLACEMENT_3D('',#787,#525,#526);
#474=AXIS2_PLACEMENT_3D('',#805,#527,#528);
#475=AXIS2_PLACEMENT_3D('',#822,#529,#530);
#476=AXIS2_PLACEMENT_3D('',#926,#531,#532);
#477=AXIS2_PLACEMENT_3D('',#944,#533,#534);
#478=AXIS2_PLACEMENT_3D('',#963,#535,#536);
#479=AXIS2_PLACEMENT_3D('',#980,#537,#538);
#480=AXIS2_PLACEMENT_3D('',#998,#539,#540);
#481=AXIS2_PLACEMENT_3D('',#1001,#542,#543);
#482=AXIS2_PLACEMENT_3D('',#1003,#544,#545);
#483=AXIS2_PLACEMENT_3D('',#1019,#546,#547);
#484=AXIS2_PLACEMENT_3D('',#1020,#548,#549);
#485=AXIS2_PLACEMENT_3D('',#1038,#550,#551);
#486=AXIS2_PLACEMENT_3D('',#1055,#552,#553);
#487=AXIS2_PLACEMENT_3D('',#1056,#554,#555);
#488=AXIS2_PLACEMENT_3D('',#1060,#558,#559);
#489=AXIS2_PLACEMENT_3D('',#1064,#562,#563);
#490=AXIS2_PLACEMENT_3D('',#1065,#564,#565);
#491=AXIS2_PLACEMENT_3D('',#1068,#567,#568);
#492=AXIS2_PLACEMENT_3D('',#1069,#569,#570);
#493=AXIS2_PLACEMENT_3D('',#1070,#571,#572);
#494=AXIS2_PLACEMENT_3D('',#1071,#573,#574);
#495=AXIS2_PLACEMENT_3D('',#1073,#575,#576);
#496=AXIS2_PLACEMENT_3D('',#1075,#578,#579);
#497=AXIS2_PLACEMENT_3D('',#1077,#581,#582);
#498=AXIS2_PLACEMENT_3D('',#1079,#584,#585);
#499=AXIS2_PLACEMENT_3D('',#1084,#588,#589);
#500=AXIS2_PLACEMENT_3D('',#1086,#590,#591);
#501=AXIS2_PLACEMENT_3D('',#1087,#592,#593);
#502=AXIS2_PLACEMENT_3D('',#1089,#595,#596);
#503=AXIS2_PLACEMENT_3D('',#1091,#598,#599);
#504=AXIS2_PLACEMENT_3D('',#1096,#602,#603);
#505=AXIS2_PLACEMENT_3D('',#1098,#604,#605);
#506=AXIS2_PLACEMENT_3D('',#1099,#606,#607);
#507=AXIS2_PLACEMENT_3D('',#1101,#609,#610);
#508=AXIS2_PLACEMENT_3D('',#1103,#612,#613);
#509=AXIS2_PLACEMENT_3D('',#1105,#614,#615);
#510=AXIS2_PLACEMENT_3D('',#1107,#617,#618);
#511=AXIS2_PLACEMENT_3D('',#1109,#619,#620);
#512=AXIS2_PLACEMENT_3D('',#1111,#622,#623);
#513=AXIS2_PLACEMENT_3D('',#1112,#624,#625);
#514=AXIS2_PLACEMENT_3D('',#1113,#626,#627);
#515=AXIS2_PLACEMENT_3D('',#1114,#628,#629);
#516=AXIS2_PLACEMENT_3D('',#1115,#630,#631);
#517=AXIS2_PLACEMENT_3D('',#1116,#632,#633);
#518=DIRECTION('axis',(0.,0.,1.));
#519=DIRECTION('refdir',(1.,0.,0.));
#520=DIRECTION('center_axis',(-0.053750917840102,0.367492678277175,0.928471846769742));
#521=DIRECTION('ref_axis',(0.142358176060486,-0.917498291674689,0.371390676354104));
#522=DIRECTION('center_axis',(-5.6852800378778E-17,-0.928476690885259,0.371390676354104));
#523=DIRECTION('ref_axis',(0.,0.371390676354104,0.928476690885259));
#524=DIRECTION('',(-5.6852800378778E-17,-0.928476690885259,0.371390676354104));
#525=DIRECTION('center_axis',(0.,0.,1.));
#526=DIRECTION('ref_axis',(-0.766044443118978,0.64278760968654,0.));
#527=DIRECTION('center_axis',(0.,0.,1.));
#528=DIRECTION('ref_axis',(1.,0.,0.));
#529=DIRECTION('center_axis',(0.,0.,-1.));
#530=DIRECTION('ref_axis',(1.,0.,0.));
#531=DIRECTION('center_axis',(-1.,-6.1848972002916E-16,1.44314268006802E-15));
#532=DIRECTION('ref_axis',(-1.11022302462516E-15,0.92847669088526,-0.371390676354102));
#533=DIRECTION('center_axis',(0.,0.,1.));
#534=DIRECTION('ref_axis',(1.,0.,0.));
#535=DIRECTION('center_axis',(0.,0.,1.));
#536=DIRECTION('ref_axis',(1.,0.,0.));
#537=DIRECTION('center_axis',(0.,0.,1.));
#538=DIRECTION('ref_axis',(1.,0.,0.));
#539=DIRECTION('center_axis',(0.,0.,1.));
#540=DIRECTION('ref_axis',(1.,0.,0.));
#541=DIRECTION('',(-0.371390676354104,4.54822403030224E-17,0.928476690885259));
#542=DIRECTION('center_axis',(0.,0.,1.));
#543=DIRECTION('ref_axis',(1.,0.,0.));
#544=DIRECTION('center_axis',(0.,0.,1.));
#545=DIRECTION('ref_axis',(1.,0.,0.));
#546=DIRECTION('center_axis',(0.,0.,1.));
#547=DIRECTION('ref_axis',(1.,0.,0.));
#548=DIRECTION('center_axis',(0.,0.,1.));
#549=DIRECTION('ref_axis',(1.,0.,0.));
#550=DIRECTION('center_axis',(0.,0.,1.));
#551=DIRECTION('ref_axis',(1.,0.,0.));
#552=DIRECTION('center_axis',(0.,0.,-1.));
#553=DIRECTION('ref_axis',(1.,0.,0.));
#554=DIRECTION('center_axis',(-0.766044443118976,0.642787609686542,0.));
#555=DIRECTION('ref_axis',(0.642787609686542,0.766044443118976,0.));
#556=DIRECTION('',(-0.642787609686542,-0.766044443118976,0.));
#557=DIRECTION('',(0.,0.,-1.));
#558=DIRECTION('center_axis',(-0.76604444311898,0.642787609686536,0.));
#559=DIRECTION('ref_axis',(0.642787609686536,0.76604444311898,0.));
#560=DIRECTION('',(-0.642787609686536,-0.76604444311898,0.));
#561=DIRECTION('',(0.,0.,-1.));
#562=DIRECTION('center_axis',(0.,0.,-1.));
#563=DIRECTION('ref_axis',(0.,-1.,0.));
#564=DIRECTION('center_axis',(0.,0.,-1.));
#565=DIRECTION('ref_axis',(0.,-1.,0.));
#566=DIRECTION('',(0.,0.,-1.));
#567=DIRECTION('center_axis',(0.,0.,1.));
#568=DIRECTION('ref_axis',(0.,-1.,0.));
#569=DIRECTION('center_axis',(0.,0.,1.));
#570=DIRECTION('ref_axis',(1.,0.,0.));
#571=DIRECTION('center_axis',(0.,0.,-1.));
#572=DIRECTION('ref_axis',(0.,1.,0.));
#573=DIRECTION('center_axis',(0.,0.,-1.));
#574=DIRECTION('ref_axis',(0.,1.,0.));
#575=DIRECTION('center_axis',(0.,0.,1.));
#576=DIRECTION('ref_axis',(0.,1.,0.));
#577=DIRECTION('',(0.,0.,-1.));
#578=DIRECTION('center_axis',(0.76604444311898,-0.642787609686536,0.));
#579=DIRECTION('ref_axis',(-0.642787609686536,-0.76604444311898,0.));
#580=DIRECTION('',(0.642787609686536,0.76604444311898,0.));
#581=DIRECTION('center_axis',(0.766044443118976,-0.642787609686542,0.));
#582=DIRECTION('ref_axis',(-0.642787609686542,-0.766044443118976,0.));
#583=DIRECTION('',(0.642787609686542,0.766044443118976,0.));
#584=DIRECTION('center_axis',(0.,0.,1.));
#585=DIRECTION('ref_axis',(-1.,0.,0.));
#586=DIRECTION('',(-0.642787609686536,-0.76604444311898,0.));
#587=DIRECTION('',(-0.642787609686542,-0.766044443118976,0.));
#588=DIRECTION('center_axis',(0.,0.,1.));
#589=DIRECTION('ref_axis',(0.,1.,0.));
#590=DIRECTION('center_axis',(0.,0.,-1.));
#591=DIRECTION('ref_axis',(0.,1.,0.));
#592=DIRECTION('center_axis',(-0.766044443118976,0.642787609686542,0.));
#593=DIRECTION('ref_axis',(0.642787609686542,0.766044443118976,0.));
#594=DIRECTION('',(0.,0.,-1.));
#595=DIRECTION('center_axis',(0.76604444311898,-0.642787609686536,0.));
#596=DIRECTION('ref_axis',(-0.642787609686536,-0.76604444311898,0.));
#597=DIRECTION('',(0.,0.,-1.));
#598=DIRECTION('center_axis',(0.,0.,1.));
#599=DIRECTION('ref_axis',(-1.,0.,0.));
#600=DIRECTION('',(0.642787609686536,0.76604444311898,0.));
#601=DIRECTION('',(0.642787609686542,0.766044443118976,0.));
#602=DIRECTION('center_axis',(0.,0.,1.));
#603=DIRECTION('ref_axis',(0.,-1.,0.));
#604=DIRECTION('center_axis',(0.,0.,-1.));
#605=DIRECTION('ref_axis',(0.,-1.,0.));
#606=DIRECTION('center_axis',(0.766044443118976,-0.642787609686542,0.));
#607=DIRECTION('ref_axis',(-0.642787609686542,-0.766044443118976,0.));
#608=DIRECTION('',(0.,0.,-1.));
#609=DIRECTION('center_axis',(-0.76604444311898,0.642787609686536,0.));
#610=DIRECTION('ref_axis',(0.642787609686536,0.76604444311898,0.));
#611=DIRECTION('',(0.,0.,-1.));
#612=DIRECTION('center_axis',(0.,0.,-1.));
#613=DIRECTION('ref_axis',(0.,1.,0.));
#614=DIRECTION('center_axis',(0.,0.,-1.));
#615=DIRECTION('ref_axis',(0.,1.,0.));
#616=DIRECTION('',(0.,0.,-1.));
#617=DIRECTION('center_axis',(0.,0.,-1.));
#618=DIRECTION('ref_axis',(0.,-1.,0.));
#619=DIRECTION('center_axis',(0.,0.,-1.));
#620=DIRECTION('ref_axis',(0.,-1.,0.));
#621=DIRECTION('',(0.,0.,-1.));
#622=DIRECTION('center_axis',(0.,0.,-1.));
#623=DIRECTION('ref_axis',(0.,-1.,0.));
#624=DIRECTION('center_axis',(0.,0.,1.));
#625=DIRECTION('ref_axis',(0.,-1.,0.));
#626=DIRECTION('center_axis',(0.,0.,-1.));
#627=DIRECTION('ref_axis',(0.,1.,0.));
#628=DIRECTION('center_axis',(0.,0.,1.));
#629=DIRECTION('ref_axis',(0.,1.,0.));
#630=DIRECTION('center_axis',(0.,0.,1.));
#631=DIRECTION('ref_axis',(1.,0.,0.));
#632=DIRECTION('center_axis',(0.,0.,1.));
#633=DIRECTION('ref_axis',(1.,0.,0.));
#634=CARTESIAN_POINT('',(0.,0.,0.));
#635=CARTESIAN_POINT('Ctrl Pts',(-7.48915766676241,51.4954353457011,-10.6824047339112));
#636=CARTESIAN_POINT('Ctrl Pts',(-7.54954047180544,51.9080184090735,-9.63927570604108));
#637=CARTESIAN_POINT('Ctrl Pts',(-7.15858843312736,52.8185289194673,-7.56061361881464));
#638=CARTESIAN_POINT('Ctrl Pts',(-5.15297065156973,54.112558894575,-5.05031349235591));
#639=CARTESIAN_POINT('Ctrl Pts',(-2.13873343274691,54.9344907878646,-3.59929153042978));
#640=CARTESIAN_POINT('Ctrl Pts',(2.48661873746348,55.0775165939741,-3.36274892782449));
#641=CARTESIAN_POINT('Ctrl Pts',(6.16406136850563,53.7491485810998,-5.64945874461502));
#642=CARTESIAN_POINT('Ctrl Pts',(7.38788544898298,52.3038842541065,-8.72620528750257));
#643=CARTESIAN_POINT('Ctrl Pts',(7.59794283744006,51.4311228626575,-10.7974960696702));
#644=CARTESIAN_POINT('Ctrl Pts',(7.04465690270905,50.5291739705001,-13.2517516087843));
#645=CARTESIAN_POINT('Ctrl Pts',(5.15410315007393,49.782840421769,-15.8036802166807));
#646=CARTESIAN_POINT('Ctrl Pts',(2.13288935911701,49.3981788778375,-17.441944540348));
#647=CARTESIAN_POINT('Ctrl Pts',(-1.32071328879156,49.3594342867249,-17.6261687007061));
#648=CARTESIAN_POINT('Ctrl Pts',(-4.50537704632396,49.6559770767635,-16.3122024464472));
#649=CARTESIAN_POINT('Ctrl Pts',(-6.79486189333322,50.3455265607979,-13.8151901558094));
#650=CARTESIAN_POINT('Ctrl Pts',(-7.42877486171938,51.0828522823287,-11.7255337617814));
#651=CARTESIAN_POINT('Ctrl Pts',(-7.48915766676241,51.4954353457011,-10.6824047339112));
#652=CARTESIAN_POINT('Ctrl Pts',(-7.48913452939512,51.3847923977688,-10.6386104960307));
#653=CARTESIAN_POINT('Ctrl Pts',(-7.54971497480425,51.7983146144129,-9.59321536811804));
#654=CARTESIAN_POINT('Ctrl Pts',(-7.15638522431674,52.7094399145478,-7.50913283054796));
#655=CARTESIAN_POINT('Ctrl Pts',(-5.14500293580235,53.9983917983661,-4.99720960726864));
#656=CARTESIAN_POINT('Ctrl Pts',(-2.13255090948352,54.8131223010808,-3.55071480614449));
#657=CARTESIAN_POINT('Ctrl Pts',(2.47860789739078,54.9550155523506,-3.31459825693807));
#658=CARTESIAN_POINT('Ctrl Pts',(6.15703202384527,53.6382289123733,-5.59465964644141));
#659=CARTESIAN_POINT('Ctrl Pts',(7.38734124879127,52.1944830468792,-8.67785120112364));
#660=CARTESIAN_POINT('Ctrl Pts',(7.59832027958291,51.3207227557812,-10.7539992247806));
#661=CARTESIAN_POINT('Ctrl Pts',(7.04267837583939,50.4153470449417,-13.213453907144));
#662=CARTESIAN_POINT('Ctrl Pts',(5.14580666163374,49.6642078554465,-15.763991108194));
#663=CARTESIAN_POINT('Ctrl Pts',(2.12629132192649,49.2767591687215,-17.3936232941912));
#664=CARTESIAN_POINT('Ctrl Pts',(-1.31643777835747,49.237712790448,-17.5764232759835));
#665=CARTESIAN_POINT('Ctrl Pts',(-4.49618665808456,49.5364051579474,-16.270724892555));
#666=CARTESIAN_POINT('Ctrl Pts',(-6.79154954054168,50.2306311902715,-13.7777338689342));
#667=CARTESIAN_POINT('Ctrl Pts',(-7.42855408398599,50.9712701811248,-11.6840056239433));
#668=CARTESIAN_POINT('Ctrl Pts',(-7.48913452939512,51.3847923977688,-10.6386104960307));
#669=CARTESIAN_POINT('Ctrl Pts',(-7.57775509329477,51.1623795385796,-10.5557090478872));
#670=CARTESIAN_POINT('Ctrl Pts',(-7.63939860906287,51.5828370500541,-9.49313308946342));
#671=CARTESIAN_POINT('Ctrl Pts',(-7.23972450940103,52.5050046374612,-7.37371413515216));
#672=CARTESIAN_POINT('Ctrl Pts',(-5.19987142232748,53.7991413275412,-4.82065377258106));
#673=CARTESIAN_POINT('Ctrl Pts',(-2.15254760811436,54.6116919089228,-3.35361986583568));
#674=CARTESIAN_POINT('Ctrl Pts',(2.50109467617122,54.7530848702051,-3.11395392931156));
#675=CARTESIAN_POINT('Ctrl Pts',(6.22465306710611,53.4406640236277,-5.42660592160861));
#676=CARTESIAN_POINT('Ctrl Pts',(7.47470340380129,51.9838834887224,-8.56240453041538));
#677=CARTESIAN_POINT('Ctrl Pts',(7.68864525553069,51.0980876099111,-10.6733009653173));
#678=CARTESIAN_POINT('Ctrl Pts',(7.12402420837978,50.1743891973046,-13.1719169052178));
#679=CARTESIAN_POINT('Ctrl Pts',(5.19876341025059,49.3997514816465,-15.7550584663607));
#680=CARTESIAN_POINT('Ctrl Pts',(2.14518630559464,48.9949098638713,-17.3978494307571));
#681=CARTESIAN_POINT('Ctrl Pts',(-1.32779477097511,48.9538372811823,-17.5814459039248));
#682=CARTESIAN_POINT('Ctrl Pts',(-4.54087286216032,49.2667421174678,-16.2666553386611));
#683=CARTESIAN_POINT('Ctrl Pts',(-6.8686438427754,49.9849971674099,-13.7443118158093));
#684=CARTESIAN_POINT('Ctrl Pts',(-7.51611157752668,50.7419220271051,-11.618285006311));
#685=CARTESIAN_POINT('Ctrl Pts',(-7.57775509329477,51.1623795385796,-10.5557090478872));
#686=CARTESIAN_POINT('Ctrl Pts',(-7.79964654150653,51.0448085107989,-10.5220196872529));
#687=CARTESIAN_POINT('Ctrl Pts',(-7.86315809681759,51.478521983645,-9.42619245136196));
#688=CARTESIAN_POINT('Ctrl Pts',(-7.45533613057466,52.4290294960809,-7.24007449122728));
#689=CARTESIAN_POINT('Ctrl Pts',(-5.3629853428976,53.7648317461317,-4.59850359803307));
#690=CARTESIAN_POINT('Ctrl Pts',(-2.2240630621838,54.6067297267899,-3.07314975701501));
#691=CARTESIAN_POINT('Ctrl Pts',(2.58529646094629,54.752973190843,-2.82413175780505));
#692=CARTESIAN_POINT('Ctrl Pts',(6.41688864484433,53.3936038266629,-5.22890266991201));
#693=CARTESIAN_POINT('Ctrl Pts',(7.69472825842188,51.8920495255299,-8.46608642780143));
#694=CARTESIAN_POINT('Ctrl Pts',(7.91318753940069,50.9786893248522,-10.6434073075647));
#695=CARTESIAN_POINT('Ctrl Pts',(7.33416728605689,50.0252867001712,-13.2199414849031));
#696=CARTESIAN_POINT('Ctrl Pts',(5.36016844529632,49.2214318196987,-15.8903034900022));
#697=CARTESIAN_POINT('Ctrl Pts',(2.21564225846861,48.7978549982667,-17.5973652979199));
#698=CARTESIAN_POINT('Ctrl Pts',(-1.37177787059162,48.754641700102,-17.7888767150054));
#699=CARTESIAN_POINT('Ctrl Pts',(-4.68399266053685,49.0826748889044,-16.420941824813));
#700=CARTESIAN_POINT('Ctrl Pts',(-7.07285221326855,49.8293209804161,-13.8106434466648));
#701=CARTESIAN_POINT('Ctrl Pts',(-7.73613498619547,50.6110950379529,-11.6178469231438));
#702=CARTESIAN_POINT('Ctrl Pts',(-7.79964654150653,51.0448085107989,-10.5220196872529));
#703=CARTESIAN_POINT('Ctrl Pts',(-7.91725575651633,51.0267048396919,-10.5216627961638));
#704=CARTESIAN_POINT('Ctrl Pts',(-7.98169816328393,51.4670564599296,-9.40909915603971));
#705=CARTESIAN_POINT('Ctrl Pts',(-7.56960784260052,52.4329303068617,-7.19004245436592));
#706=CARTESIAN_POINT('Ctrl Pts',(-5.44981313189208,53.7940076071846,-4.50572439017721));
#707=CARTESIAN_POINT('Ctrl Pts',(-2.2622015648399,54.6548117087384,-2.95241537542107));
#708=CARTESIAN_POINT('Ctrl Pts',(2.63022959952694,54.8041774328799,-2.69899042080147));
#709=CARTESIAN_POINT('Ctrl Pts',(6.5190195116795,53.4145303096511,-5.1476575377035));
#710=CARTESIAN_POINT('Ctrl Pts',(7.81131354677582,51.8872407843403,-8.43445306183732));
#711=CARTESIAN_POINT('Ctrl Pts',(8.03220615343728,50.9593217996781,-10.6448470243927));
#712=CARTESIAN_POINT('Ctrl Pts',(7.44582109862281,49.9920645956566,-13.2608861897124));
#713=CARTESIAN_POINT('Ctrl Pts',(5.44641940475287,49.1777667439455,-15.9766344543553));
#714=CARTESIAN_POINT('Ctrl Pts',(2.25352646720223,48.7493744132931,-17.7178946941857));
#715=CARTESIAN_POINT('Ctrl Pts',(-1.39539132593723,48.7057057305821,-17.9135971302223));
#716=CARTESIAN_POINT('Ctrl Pts',(-4.76068276354035,49.0373399854937,-16.5172984983613));
#717=CARTESIAN_POINT('Ctrl Pts',(-7.18144954506783,49.7934241153537,-13.860928041962));
#718=CARTESIAN_POINT('Ctrl Pts',(-7.85281334974873,50.5863532194542,-11.6342264362879));
#719=CARTESIAN_POINT('Ctrl Pts',(-7.91725575651633,51.0267048396919,-10.5216627961638));
#720=CARTESIAN_POINT('',(-7.91725575651633,51.0267048396919,-10.5216627961638));
#721=CARTESIAN_POINT('',(-7.48915766676241,51.4954353457011,-10.6824047339112));
#722=CARTESIAN_POINT('Origin',(-7.98843484454657,51.4854539855292,-10.7073581343409));
#723=CARTESIAN_POINT('',(-0.000181333235850234,49.390638542259,-17.4833550491525));
#724=CARTESIAN_POINT('Ctrl Pts',(-7.48915766676241,51.4954353457011,-10.6824047339112));
#725=CARTESIAN_POINT('Ctrl Pts',(-7.54954047180544,51.9080184090735,-9.63927570604108));
#726=CARTESIAN_POINT('Ctrl Pts',(-7.15858843312736,52.8185289194673,-7.56061361881464));
#727=CARTESIAN_POINT('Ctrl Pts',(-5.15297065156973,54.112558894575,-5.05031349235591));
#728=CARTESIAN_POINT('Ctrl Pts',(-2.13873343274691,54.9344907878646,-3.59929153042978));
#729=CARTESIAN_POINT('Ctrl Pts',(2.48661873746348,55.0775165939741,-3.36274892782449));
#730=CARTESIAN_POINT('Ctrl Pts',(6.16406136850563,53.7491485810998,-5.64945874461502));
#731=CARTESIAN_POINT('Ctrl Pts',(7.38788544898298,52.3038842541065,-8.72620528750257));
#732=CARTESIAN_POINT('Ctrl Pts',(7.59794283744006,51.4311228626575,-10.7974960696702));
#733=CARTESIAN_POINT('Ctrl Pts',(7.04465690270905,50.5291739705001,-13.2517516087843));
#734=CARTESIAN_POINT('Ctrl Pts',(5.15410315007393,49.782840421769,-15.8036802166807));
#735=CARTESIAN_POINT('Ctrl Pts',(2.5160050818903,49.4469572482619,-17.2341986263269));
#736=CARTESIAN_POINT('Ctrl Pts',(0.695950759273445,49.3905191688571,-17.4829659158483));
#737=CARTESIAN_POINT('Ctrl Pts',(-0.000181333235849818,49.390638542259,
-17.4833550491525));
#738=CARTESIAN_POINT('Ctrl Pts',(-0.000181333235849818,49.390638542259,
-17.4833550491525));
#739=CARTESIAN_POINT('Ctrl Pts',(-0.427614270832109,49.3907118388709,-17.4835939813798));
#740=CARTESIAN_POINT('Ctrl Pts',(-1.97842529953925,49.4206777238846,-17.3548020972149));
#741=CARTESIAN_POINT('Ctrl Pts',(-4.50537704632396,49.6559770767635,-16.3122024464472));
#742=CARTESIAN_POINT('Ctrl Pts',(-6.79486189333322,50.3455265607979,-13.8151901558094));
#743=CARTESIAN_POINT('Ctrl Pts',(-7.42877486171938,51.0828522823287,-11.7255337617814));
#744=CARTESIAN_POINT('Ctrl Pts',(-7.48915766676241,51.4954353457011,-10.6824047339112));
#745=CARTESIAN_POINT('Ctrl Pts',(-7.91725575651633,51.0267048396919,-10.5216627961638));
#746=CARTESIAN_POINT('Ctrl Pts',(-7.85281334974873,50.5863532194542,-11.6342264362879));
#747=CARTESIAN_POINT('Ctrl Pts',(-7.18144954506783,49.7934241153537,-13.860928041962));
#748=CARTESIAN_POINT('Ctrl Pts',(-4.76068276354035,49.0373399854937,-16.5172984983613));
#749=CARTESIAN_POINT('Ctrl Pts',(-1.39539132593723,48.7057057305821,-17.9135971302223));
#750=CARTESIAN_POINT('Ctrl Pts',(2.25352646720223,48.7493744132931,-17.7178946941857));
#751=CARTESIAN_POINT('Ctrl Pts',(5.44641940475287,49.1777667439455,-15.9766344543553));
#752=CARTESIAN_POINT('Ctrl Pts',(7.44582109862281,49.9920645956566,-13.2608861897124));
#753=CARTESIAN_POINT('Ctrl Pts',(8.03220615343728,50.9593217996781,-10.6448470243927));
#754=CARTESIAN_POINT('Ctrl Pts',(7.81131354677582,51.8872407843403,-8.43445306183732));
#755=CARTESIAN_POINT('Ctrl Pts',(6.5190195116795,53.4145303096511,-5.1476575377035));
#756=CARTESIAN_POINT('Ctrl Pts',(2.63022959952694,54.8041774328799,-2.69899042080147));
#757=CARTESIAN_POINT('Ctrl Pts',(-2.2622015648399,54.6548117087384,-2.95241537542107));
#758=CARTESIAN_POINT('Ctrl Pts',(-5.44981313189208,53.7940076071846,-4.50572439017721));
#759=CARTESIAN_POINT('Ctrl Pts',(-7.56960784260052,52.4329303068617,-7.19004245436592));
#760=CARTESIAN_POINT('Ctrl Pts',(-7.98169816328393,51.4670564599296,-9.40909915603971));
#761=CARTESIAN_POINT('Ctrl Pts',(-7.91725575651633,51.0267048396919,-10.5216627961638));
#762=CARTESIAN_POINT('Origin',(3.10959383184098E-15,50.783521159015,-9.96344989176073));
#763=CARTESIAN_POINT('',(3.60822483003176E-15,55.8901429588839,-3.92835140100654));
#764=CARTESIAN_POINT('',(0.000982489219284177,50.3198528766865,-17.8548830287166));
#765=CARTESIAN_POINT('Ctrl Pts',(3.60822483003176E-15,55.8901429588839,
-3.92835140100654));
#766=CARTESIAN_POINT('Ctrl Pts',(-1.12333296125261,55.8901429588839,-3.92835140100654));
#767=CARTESIAN_POINT('Ctrl Pts',(-3.36699932587266,55.63022977756,-4.37569042781931));
#768=CARTESIAN_POINT('Ctrl Pts',(-6.06635381902849,54.5853881879938,-6.27925020796661));
#769=CARTESIAN_POINT('Ctrl Pts',(-7.55443687024949,53.2295232704812,-9.07225903451693));
#770=CARTESIAN_POINT('Ctrl Pts',(-7.57741202281459,51.4818600276036,-13.3626211632046));
#771=CARTESIAN_POINT('Ctrl Pts',(-4.64424727049843,50.5130052822919,-16.9540422651216));
#772=CARTESIAN_POINT('Ctrl Pts',(-1.30848650284989,50.3299947027578,-17.8128103400055));
#773=CARTESIAN_POINT('Ctrl Pts',(-0.185986801234081,50.3200152764722,-17.8547330388742));
#774=CARTESIAN_POINT('Ctrl Pts',(0.000982489219284368,50.3198528766865,
-17.8548830287166));
#775=CARTESIAN_POINT('Ctrl Pts',(0.000982489219284368,50.3198528766865,
-17.8548830287166));
#776=CARTESIAN_POINT('Ctrl Pts',(0.374915953363908,50.3195280815596,-17.8551830042966));
#777=CARTESIAN_POINT('Ctrl Pts',(1.49533480647013,50.3365634619702,-17.7740387726052));
#778=CARTESIAN_POINT('Ctrl Pts',(3.66893276914918,50.4907155917955,-17.1122790343146));
#779=CARTESIAN_POINT('Ctrl Pts',(6.0609134075012,50.9673444996587,-15.2477936397267));
#780=CARTESIAN_POINT('Ctrl Pts',(7.56215700065,51.9247886277894,-12.2823636378694));
#781=CARTESIAN_POINT('Ctrl Pts',(7.56137134602117,53.2251107133209,-9.07809008854642));
#782=CARTESIAN_POINT('Ctrl Pts',(6.06347413674144,54.5874681481159,-6.27584232756432));
#783=CARTESIAN_POINT('Ctrl Pts',(3.36862168054858,55.6290830465454,-4.377325296582));
#784=CARTESIAN_POINT('Ctrl Pts',(1.12333296125263,55.8901429588839,-3.92835140100654));
#785=CARTESIAN_POINT('Ctrl Pts',(3.60822483003176E-15,55.8901429588839,
-3.92835140100654));
#786=CARTESIAN_POINT('',(4.0280789312015E-15,47.9980910863592,-16.9270250734002));
#787=CARTESIAN_POINT('Origin',(0.,0.,-9.25721864729179));
#788=CARTESIAN_POINT('',(-37.9719196290524,-36.5411182051557,-7.86886751271353));
#789=CARTESIAN_POINT('',(-40.0059903216171,-38.9652292606579,-4.37700345734232E-14));
#790=CARTESIAN_POINT('Ctrl Pts',(-37.971919629022,-36.5411182051672,-7.86886751270968));
#791=CARTESIAN_POINT('Ctrl Pts',(-38.9594631831691,-37.7180267836653,-4.04975252529437));
#792=CARTESIAN_POINT('Ctrl Pts',(-40.005990321617,-38.9652292606579,-9.49415559776807E-14));
#793=CARTESIAN_POINT('',(-34.2275423252931,-34.5673581375309,-18.));
#794=CARTESIAN_POINT('Ctrl Pts',(-37.9719196290221,-36.5411182051673,-7.86886751270929));
#795=CARTESIAN_POINT('Ctrl Pts',(-37.8402611301584,-36.3842137161526,-8.37802879892949));
#796=CARTESIAN_POINT('Ctrl Pts',(-37.7030354466574,-36.2381973596898,-8.87831988029741));
#797=CARTESIAN_POINT('Ctrl Pts',(-37.0528192226898,-35.6132433322098,-11.132966019903));
#798=CARTESIAN_POINT('Ctrl Pts',(-36.4007960368481,-35.1753358545064,-13.0692013652261));
#799=CARTESIAN_POINT('Ctrl Pts',(-35.2349447985254,-34.7444102981286,-15.9053288554214));
#800=CARTESIAN_POINT('Ctrl Pts',(-34.8157541958765,-34.6378117474612,-16.8387307713144));
#801=CARTESIAN_POINT('Ctrl Pts',(-34.3187152467902,-34.5768500394789,-17.8226970516141));
#802=CARTESIAN_POINT('Ctrl Pts',(-34.2732990017371,-34.5718363909821,-17.9115578720411));
#803=CARTESIAN_POINT('Ctrl Pts',(-34.2275423252931,-34.5673581375309,-18.));
#804=CARTESIAN_POINT('',(28.0986519441853,39.7101077958445,-18.));
#805=CARTESIAN_POINT('Origin',(0.,0.,-18.));
#806=CARTESIAN_POINT('',(29.3922218660728,43.7403394336844,-7.86886751271349));
#807=CARTESIAN_POINT('Ctrl Pts',(28.0986519441853,39.7101077958445,-18.));
#808=CARTESIAN_POINT('Ctrl Pts',(28.0951165994234,39.7559469661096,-17.9115578720411));
#809=CARTESIAN_POINT('Ctrl Pts',(28.092167631144,39.8015438472755,-17.8226970516141));
#810=CARTESIAN_POINT('Ctrl Pts',(28.0658932860634,40.3016175473833,-16.8387307713144));
#811=CARTESIAN_POINT('Ctrl Pts',(28.0980806809755,40.7329503469272,-15.9053288554214));
#812=CARTESIAN_POINT('Ctrl Pts',(28.320011566902,41.9559191228613,-13.069201365226));
#813=CARTESIAN_POINT('Ctrl Pts',(28.6380436080283,42.6740784469119,-11.132966019903));
#814=CARTESIAN_POINT('Ctrl Pts',(29.0320987157038,43.2612672509906,-9.365075116311));
#815=CARTESIAN_POINT('Ctrl Pts',(29.1405943171854,43.422938553407,-8.87831988029736));
#816=CARTESIAN_POINT('Ctrl Pts',(29.2605633672275,43.5834349446405,-8.37802879892945));
#817=CARTESIAN_POINT('Ctrl Pts',(29.3922218660895,43.7403394336566,-7.86886751270925));
#818=CARTESIAN_POINT('',(31.4262925586845,46.1644504891473,7.58652400160524E-15));
#819=CARTESIAN_POINT('Ctrl Pts',(31.4262925586845,46.1644504891472,-1.11310789767108E-13));
#820=CARTESIAN_POINT('Ctrl Pts',(30.3797654202373,44.9172480121555,-4.04975252529151));
#821=CARTESIAN_POINT('Ctrl Pts',(29.3922218660894,43.7403394336564,-7.86886751270964));
#822=CARTESIAN_POINT('Origin',(0.,0.,0.));
#823=CARTESIAN_POINT('Ctrl Pts',(3.60822483003176E-15,55.8901429588839,
-3.92835140100654));
#824=CARTESIAN_POINT('Ctrl Pts',(-1.12333296125261,55.8901429588839,-3.92835140100654));
#825=CARTESIAN_POINT('Ctrl Pts',(-3.36699932587266,55.63022977756,-4.37569042781931));
#826=CARTESIAN_POINT('Ctrl Pts',(-6.06635381902849,54.5853881879938,-6.27925020796661));
#827=CARTESIAN_POINT('Ctrl Pts',(-7.55443687024949,53.2295232704812,-9.07225903451693));
#828=CARTESIAN_POINT('Ctrl Pts',(-7.57741202281459,51.4818600276036,-13.3626211632046));
#829=CARTESIAN_POINT('Ctrl Pts',(-4.64424727049843,50.5130052822919,-16.9540422651216));
#830=CARTESIAN_POINT('Ctrl Pts',(-0.937848295952301,50.3096602969756,-17.9082285314126));
#831=CARTESIAN_POINT('Ctrl Pts',(1.31419985285159,50.3237173241997,-17.8291859624536));
#832=CARTESIAN_POINT('Ctrl Pts',(3.66893276914918,50.4907155917955,-17.1122790343146));
#833=CARTESIAN_POINT('Ctrl Pts',(6.0609134075012,50.9673444996587,-15.2477936397267));
#834=CARTESIAN_POINT('Ctrl Pts',(7.56215700065,51.9247886277894,-12.2823636378694));
#835=CARTESIAN_POINT('Ctrl Pts',(7.56137134602117,53.2251107133209,-9.07809008854642));
#836=CARTESIAN_POINT('Ctrl Pts',(6.06347413674144,54.5874681481159,-6.27584232756432));
#837=CARTESIAN_POINT('Ctrl Pts',(3.36862168054858,55.6290830465454,-4.377325296582));
#838=CARTESIAN_POINT('Ctrl Pts',(1.12333296125263,55.8901429588839,-3.92835140100654));
#839=CARTESIAN_POINT('Ctrl Pts',(3.60822483003176E-15,55.8901429588839,
-3.92835140100654));
#840=CARTESIAN_POINT('Ctrl Pts',(3.61377249520524E-15,55.9595928529581,
-3.9561313586362));
#841=CARTESIAN_POINT('Ctrl Pts',(-1.12480544387523,55.9595928529581,-3.9561313586362));
#842=CARTESIAN_POINT('Ctrl Pts',(-3.37135639210784,55.6997902941947,-4.40526108122688));
#843=CARTESIAN_POINT('Ctrl Pts',(-6.07036006070258,54.65644187752,-6.31292009923716));
#844=CARTESIAN_POINT('Ctrl Pts',(-7.5542165411732,53.3036977985493,-9.10605206660122));
#845=CARTESIAN_POINT('Ctrl Pts',(-7.57742176897439,51.5599350387746,-13.3878400413207));
#846=CARTESIAN_POINT('Ctrl Pts',(-4.65110296633297,50.5853465054563,-16.978875040727));
#847=CARTESIAN_POINT('Ctrl Pts',(-0.939169304992381,50.3788765307058,-17.9363278717116));
#848=CARTESIAN_POINT('Ctrl Pts',(1.31612013713884,50.3932970688375,-17.8567693395718));
#849=CARTESIAN_POINT('Ctrl Pts',(3.67376541099809,50.5621343436859,-17.1385716540563));
#850=CARTESIAN_POINT('Ctrl Pts',(6.06482635249443,51.0426579706503,-15.2722074595936));
#851=CARTESIAN_POINT('Ctrl Pts',(7.56185952510927,52.001740912727,-12.310125187727));
#852=CARTESIAN_POINT('Ctrl Pts',(7.56134179499617,53.299413778473,-9.11153754094161));
#853=CARTESIAN_POINT('Ctrl Pts',(6.06737778297877,54.6584535899435,-6.30970273692989));
#854=CARTESIAN_POINT('Ctrl Pts',(3.37303190386484,55.6986789133055,-4.40679915947275));
#855=CARTESIAN_POINT('Ctrl Pts',(1.12480544387525,55.9595928529581,-3.9561313586362));
#856=CARTESIAN_POINT('Ctrl Pts',(3.61247226118021E-15,55.9595928529581,
-3.9561313586362));
#857=CARTESIAN_POINT('Ctrl Pts',(3.66284134967018E-15,56.1109432620817,
-3.97981313126809));
#858=CARTESIAN_POINT('Ctrl Pts',(-1.13289780076019,56.1109432620817,-3.97981313126809));
#859=CARTESIAN_POINT('Ctrl Pts',(-3.39546845099774,55.8508369969764,-4.43378751310379));
#860=CARTESIAN_POINT('Ctrl Pts',(-6.1087005566129,54.8074390248066,-6.35710123803555));
#861=CARTESIAN_POINT('Ctrl Pts',(-7.59482819434131,53.4553702155733,-9.1642533553899));
#862=CARTESIAN_POINT('Ctrl Pts',(-7.6187862465156,51.7095424564952,-13.4535383672808));
#863=CARTESIAN_POINT('Ctrl Pts',(-4.68605908370883,50.7177001185195,-17.058517912538));
#864=CARTESIAN_POINT('Ctrl Pts',(-0.94612356167044,50.5043313389852,-18.0242117334278));
#865=CARTESIAN_POINT('Ctrl Pts',(1.32597259513663,50.5194704346064,-17.9436323915291));
#866=CARTESIAN_POINT('Ctrl Pts',(3.70054236081917,50.6927687187684,-17.2208412804318));
#867=CARTESIAN_POINT('Ctrl Pts',(6.10343152161252,51.1835670626252,-15.3443743868768));
#868=CARTESIAN_POINT('Ctrl Pts',(7.6026273150325,52.1516798685887,-12.3744781695564));
#869=CARTESIAN_POINT('Ctrl Pts',(7.60227869503615,53.4512401288527,-9.16930990844623));
#870=CARTESIAN_POINT('Ctrl Pts',(6.10554453950432,54.8093662098742,-6.35413024863721));
#871=CARTESIAN_POINT('Ctrl Pts',(3.39723350305108,55.8497686060353,-4.43520288797331));
#872=CARTESIAN_POINT('Ctrl Pts',(1.1328978007602,56.1109432620817,-3.97981313126808));
#873=CARTESIAN_POINT('Ctrl Pts',(3.63044982980547E-15,56.1109432620817,
-3.97981313126808));
#874=CARTESIAN_POINT('Ctrl Pts',(3.86414745639981E-15,56.3683140960329,
-3.9026035255207));
#875=CARTESIAN_POINT('Ctrl Pts',(-1.16212585386179,56.3683140960329,-3.9026035255207));
#876=CARTESIAN_POINT('Ctrl Pts',(-3.48305898939408,56.1048084765584,-4.3678014141256));
#877=CARTESIAN_POINT('Ctrl Pts',(-6.2669273539233,55.046739566591,-6.33788888932925));
#878=CARTESIAN_POINT('Ctrl Pts',(-7.79232244343609,53.6723785393612,-9.21079691072012));
#879=CARTESIAN_POINT('Ctrl Pts',(-7.81813233945349,51.8891371386917,-13.5950647695393));
#880=CARTESIAN_POINT('Ctrl Pts',(-4.80902662631223,50.8603554554859,-17.27370010022));
#881=CARTESIAN_POINT('Ctrl Pts',(-0.970913677867102,50.636899842644,-18.2586915374061));
#882=CARTESIAN_POINT('Ctrl Pts',(1.36073113292191,50.6528885104123,-18.176515103779));
#883=CARTESIAN_POINT('Ctrl Pts',(3.79757962795175,50.8336933218755,-17.4392041713034));
#884=CARTESIAN_POINT('Ctrl Pts',(6.26337267924769,51.343789744493,-15.5245402649846));
#885=CARTESIAN_POINT('Ctrl Pts',(7.80120814918836,52.3406886997715,-12.4921106060286));
#886=CARTESIAN_POINT('Ctrl Pts',(7.79999977867891,53.6681907868852,-9.21596841206264));
#887=CARTESIAN_POINT('Ctrl Pts',(6.2636721283685,55.0487018190627,-6.33486147437408));
#888=CARTESIAN_POINT('Ctrl Pts',(3.4848790623554,56.1037236351183,-4.36924657468258));
#889=CARTESIAN_POINT('Ctrl Pts',(1.1621258538618,56.3683140960329,-3.90260352552069));
#890=CARTESIAN_POINT('Ctrl Pts',(3.68881824214416E-15,56.3683140960329,
-3.90260352552069));
#891=CARTESIAN_POINT('Ctrl Pts',(4.0758530203417E-15,56.4984067060591,-3.75398323485219));
#892=CARTESIAN_POINT('Ctrl Pts',(-1.19132643735638,56.4984067060591,-3.75398323485219));
#893=CARTESIAN_POINT('Ctrl Pts',(-3.5707435557854,56.2292968654204,-4.22804775608377));
#894=CARTESIAN_POINT('Ctrl Pts',(-6.43103184482851,55.1465802428234,-6.2407374597563));
#895=CARTESIAN_POINT('Ctrl Pts',(-8.00539157766011,53.7363430354649,-9.1841870458507));
#896=CARTESIAN_POINT('Ctrl Pts',(-8.03242275618311,51.9037632708528,-13.688786101885));
#897=CARTESIAN_POINT('Ctrl Pts',(-4.93035250352185,50.854467768616,-17.4542784234965));
#898=CARTESIAN_POINT('Ctrl Pts',(-0.995522018040508,50.6285529740715,-18.4567405756557));
#899=CARTESIAN_POINT('Ctrl Pts',(1.39510200680297,50.6445532261938,-18.3735188002669));
#900=CARTESIAN_POINT('Ctrl Pts',(3.89429865126759,50.8281374096967,-17.6211652952993));
#901=CARTESIAN_POINT('Ctrl Pts',(6.42901693621778,51.347227884383,-15.6648858956542));
#902=CARTESIAN_POINT('Ctrl Pts',(8.01529610249904,52.3679927606014,-12.5549054702215));
#903=CARTESIAN_POINT('Ctrl Pts',(8.01296363113036,53.7319216214554,-9.19000820305783));
#904=CARTESIAN_POINT('Ctrl Pts',(6.42786195775851,55.1486672640834,-6.23732778868732));
#905=CARTESIAN_POINT('Ctrl Pts',(3.57252473864375,56.2281474982063,-4.22967942233266));
#906=CARTESIAN_POINT('Ctrl Pts',(1.19132643735639,56.4984067060591,-3.75398323485219));
#907=CARTESIAN_POINT('Ctrl Pts',(3.74425301092612E-15,56.4984067060591,
-3.75398323485219));
#908=CARTESIAN_POINT('Ctrl Pts',(4.20041975241344E-15,56.5400766425036,
-3.64980839374096));
#909=CARTESIAN_POINT('Ctrl Pts',(-1.20814161493821,56.5400766425036,-3.64980839374096));
#910=CARTESIAN_POINT('Ctrl Pts',(-3.6211897934271,56.2668255897351,-4.12883157568835));
#911=CARTESIAN_POINT('Ctrl Pts',(-6.52521560665481,55.166220170498,-6.16581069008702));
#912=CARTESIAN_POINT('Ctrl Pts',(-8.12737960069418,53.7315663582184,-9.15050657373822));
#913=CARTESIAN_POINT('Ctrl Pts',(-8.15482523553633,51.8686879994014,-13.7276174050603));
#914=CARTESIAN_POINT('Ctrl Pts',(-4.99975431272883,50.8124808474888,-17.5477145414624));
#915=CARTESIAN_POINT('Ctrl Pts',(-1.00961916443808,50.5870145050865,-18.5614136962832));
#916=CARTESIAN_POINT('Ctrl Pts',(1.41478932420817,50.6028461472015,-18.4775053008961));
#917=CARTESIAN_POINT('Ctrl Pts',(3.94963826213757,50.78675755696,-17.7155577845285));
#918=CARTESIAN_POINT('Ctrl Pts',(6.52368943856778,51.3081943974792,-15.7329610705306));
#919=CARTESIAN_POINT('Ctrl Pts',(8.13766994632059,52.3406902776093,-12.5750938472303));
#920=CARTESIAN_POINT('Ctrl Pts',(8.13488834474361,53.7269510956247,-9.15677418391101));
#921=CARTESIAN_POINT('Ctrl Pts',(6.52209156269248,55.1684093094425,-6.16215913931397));
#922=CARTESIAN_POINT('Ctrl Pts',(3.6229486761037,56.2656236447835,-4.13058676405843));
#923=CARTESIAN_POINT('Ctrl Pts',(1.20814161493822,56.5400766425036,-3.64980839374096));
#924=CARTESIAN_POINT('Ctrl Pts',(3.77539469394406E-15,56.5400766425036,
-3.64980839374096));
#925=CARTESIAN_POINT('',(3.88578058618805E-15,56.5400766425036,-3.64980839374096));
#926=CARTESIAN_POINT('Origin',(4.16333634234434E-15,56.075838297061,-3.46411305556391));
#927=CARTESIAN_POINT('Ctrl Pts',(3.77539469394406E-15,56.5400766425036,
-3.64980839374096));
#928=CARTESIAN_POINT('Ctrl Pts',(1.20814161493822,56.5400766425036,-3.64980839374096));
#929=CARTESIAN_POINT('Ctrl Pts',(3.6229486761037,56.2656236447835,-4.13058676405843));
#930=CARTESIAN_POINT('Ctrl Pts',(6.52209156269248,55.1684093094425,-6.16215913931397));
#931=CARTESIAN_POINT('Ctrl Pts',(8.13488834474361,53.7269510956247,-9.15677418391101));
#932=CARTESIAN_POINT('Ctrl Pts',(8.13766994632059,52.3406902776093,-12.5750938472303));
#933=CARTESIAN_POINT('Ctrl Pts',(6.52368943856778,51.3081943974792,-15.7329610705306));
#934=CARTESIAN_POINT('Ctrl Pts',(3.94963826213757,50.78675755696,-17.7155577845285));
#935=CARTESIAN_POINT('Ctrl Pts',(1.41478932420817,50.6028461472015,-18.4775053008961));
#936=CARTESIAN_POINT('Ctrl Pts',(-1.00961916443808,50.5870145050865,-18.5614136962832));
#937=CARTESIAN_POINT('Ctrl Pts',(-4.99975431272883,50.8124808474888,-17.5477145414624));
#938=CARTESIAN_POINT('Ctrl Pts',(-8.15482523553633,51.8686879994014,-13.7276174050603));
#939=CARTESIAN_POINT('Ctrl Pts',(-8.12737960069418,53.7315663582184,-9.15050657373822));
#940=CARTESIAN_POINT('Ctrl Pts',(-6.52521560665481,55.166220170498,-6.16581069008702));
#941=CARTESIAN_POINT('Ctrl Pts',(-3.6211897934271,56.2668255897351,-4.12883157568835));
#942=CARTESIAN_POINT('Ctrl Pts',(-1.20814161493821,56.5400766425036,-3.64980839374096));
#943=CARTESIAN_POINT('Ctrl Pts',(4.20041975241344E-15,56.5400766425036,
-3.64980839374096));
#944=CARTESIAN_POINT('Origin',(0.,0.,-10.));
#945=CARTESIAN_POINT('',(-33.9367997293739,-46.044908775329,-1.99999999999999));
#946=CARTESIAN_POINT('',(-30.9243107523464,-42.454764214306,-13.6912036457573));
#947=CARTESIAN_POINT('Ctrl Pts',(-33.9367997293738,-46.0449087753289,-1.99999999999995));
#948=CARTESIAN_POINT('Ctrl Pts',(-32.3663582007665,-44.173329441652,-8.09582427132415));
#949=CARTESIAN_POINT('Ctrl Pts',(-30.9243107523464,-42.454764214306,-13.6912036457573));
#950=CARTESIAN_POINT('',(-30.0880209420688,-39.9338327210103,-20.));
#951=CARTESIAN_POINT('Ctrl Pts',(-30.9243107523464,-42.454764214306,-13.6912036457573));
#952=CARTESIAN_POINT('Ctrl Pts',(-30.8703756271612,-42.3904868350995,-13.9004807311607));
#953=CARTESIAN_POINT('Ctrl Pts',(-30.8195638493509,-42.3253627441112,-14.1068697542529));
#954=CARTESIAN_POINT('Ctrl Pts',(-30.771847239421,-42.2598321988356,-14.3095259783637));
#955=CARTESIAN_POINT('Ctrl Pts',(-30.4986026961314,-41.8845778808604,-15.4700172094716));
#956=CARTESIAN_POINT('Ctrl Pts',(-30.2733578338931,-41.4203498771441,-16.7407222092949));
#957=CARTESIAN_POINT('Ctrl Pts',(-30.1038654456868,-40.620981353712,-18.6004812452793));
#958=CARTESIAN_POINT('Ctrl Pts',(-30.0749838590251,-40.3377981730295,-19.2122897110059));
#959=CARTESIAN_POINT('Ctrl Pts',(-30.0845196713371,-40.0035471312459,-19.8660306997569));
#960=CARTESIAN_POINT('Ctrl Pts',(-30.0860077548541,-39.9688043573659,-19.9332010671435));
#961=CARTESIAN_POINT('Ctrl Pts',(-30.0880209420688,-39.9338327210103,-20.));
#962=CARTESIAN_POINT('',(34.1024180649488,36.5653535758025,-20.));
#963=CARTESIAN_POINT('Origin',(0.,0.,-20.));
#964=CARTESIAN_POINT('',(36.439830742803,37.8266934245629,-13.6912036457573));
#965=CARTESIAN_POINT('Ctrl Pts',(34.1024180649488,36.5653535758025,-20.));
#966=CARTESIAN_POINT('Ctrl Pts',(34.1372079898585,36.5694437343484,-19.9332010671435));
#967=CARTESIAN_POINT('Ctrl Pts',(34.1716813459276,36.574011277535,-19.8660306997569));
#968=CARTESIAN_POINT('Ctrl Pts',(34.5025102397592,36.6226624199279,-19.2122897110059));
#969=CARTESIAN_POINT('Ctrl Pts',(34.776375996726,36.7002794736631,-18.6004812452793));
#970=CARTESIAN_POINT('Ctrl Pts',(35.5341682717754,37.0060057790235,-16.7407222092949));
#971=CARTESIAN_POINT('Ctrl Pts',(35.9522302491441,37.3084410125492,-15.4700172094716));
#972=CARTESIAN_POINT('Ctrl Pts',(36.3305842805254,37.7010675329022,-14.1068697542529));
#973=CARTESIAN_POINT('Ctrl Pts',(36.3858956176178,37.7624160453565,-13.9004807311607));
#974=CARTESIAN_POINT('Ctrl Pts',(36.439830742803,37.8266934245629,-13.6912036457573));
#975=CARTESIAN_POINT('',(39.4523197198304,41.4168379855857,-1.99999999999999));
#976=CARTESIAN_POINT('Ctrl Pts',(36.439830742803,37.8266934245629,-13.6912036457573));
#977=CARTESIAN_POINT('Ctrl Pts',(37.88187818869,39.54525864889,-8.09582428115516));
#978=CARTESIAN_POINT('Ctrl Pts',(39.4523197198304,41.4168379855857,-2.00000000000001));
#979=CARTESIAN_POINT('',(33.9367997293739,46.044908775329,-1.99999999999999));
#980=CARTESIAN_POINT('Origin',(0.,0.,-1.99999999999999));
#981=CARTESIAN_POINT('',(30.9243107523464,42.454764214306,-13.6912036457572));
#982=CARTESIAN_POINT('Ctrl Pts',(33.9367997293738,46.0449087753289,-1.99999999999995));
#983=CARTESIAN_POINT('Ctrl Pts',(32.3663582007712,44.1733294416576,-8.09582427130594));
#984=CARTESIAN_POINT('Ctrl Pts',(30.9243107523464,42.454764214306,-13.6912036457572));
#985=CARTESIAN_POINT('',(30.0880209420688,39.9338327210103,-20.));
#986=CARTESIAN_POINT('Ctrl Pts',(30.9243107523464,42.454764214306,-13.6912036457572));
#987=CARTESIAN_POINT('Ctrl Pts',(30.8703756271612,42.3904868350996,-13.9004807311607));
#988=CARTESIAN_POINT('Ctrl Pts',(30.8195638493509,42.3253627441112,-14.1068697542529));
#989=CARTESIAN_POINT('Ctrl Pts',(30.7718472394209,42.2598321988356,-14.3095259783636));
#990=CARTESIAN_POINT('Ctrl Pts',(30.4986026961314,41.8845778808604,-15.4700172094715));
#991=CARTESIAN_POINT('Ctrl Pts',(30.2733578338931,41.4203498771441,-16.7407222092949));
#992=CARTESIAN_POINT('Ctrl Pts',(30.1038654456868,40.6209813537121,-18.6004812452793));
#993=CARTESIAN_POINT('Ctrl Pts',(30.0749838590251,40.3377981730296,-19.2122897110059));
#994=CARTESIAN_POINT('Ctrl Pts',(30.0845196713371,40.0035471312459,-19.8660306997569));
#995=CARTESIAN_POINT('Ctrl Pts',(30.0860077548541,39.9688043573659,-19.9332010671435));
#996=CARTESIAN_POINT('Ctrl Pts',(30.0880209420688,39.9338327210103,-20.));
#997=CARTESIAN_POINT('',(-50.,6.12323399573677E-15,-20.));
#998=CARTESIAN_POINT('Origin',(0.,0.,-20.));
#999=CARTESIAN_POINT('',(-58.,-7.10295143505465E-15,0.));
#1000=CARTESIAN_POINT('',(-54.,6.61309271539571E-15,-10.));
#1001=CARTESIAN_POINT('Origin',(0.,0.,0.));
#1002=CARTESIAN_POINT('',(-34.1024180649489,-36.5653535758025,-20.));
#1003=CARTESIAN_POINT('Origin',(0.,0.,-20.));
#1004=CARTESIAN_POINT('',(-36.439830742803,-37.8266934245629,-13.6912036457573));
#1005=CARTESIAN_POINT('Ctrl Pts',(-34.1024180649489,-36.5653535758025,-20.));
#1006=CARTESIAN_POINT('Ctrl Pts',(-34.1372079898586,-36.5694437343483,-19.9332010671435));
#1007=CARTESIAN_POINT('Ctrl Pts',(-34.1716813459276,-36.574011277535,-19.8660306997569));
#1008=CARTESIAN_POINT('Ctrl Pts',(-34.5025102397592,-36.6226624199279,-19.2122897110059));
#1009=CARTESIAN_POINT('Ctrl Pts',(-34.776375996726,-36.7002794736631,-18.6004812452793));
#1010=CARTESIAN_POINT('Ctrl Pts',(-35.5341682717754,-37.0060057790235,-16.740722209295));
#1011=CARTESIAN_POINT('Ctrl Pts',(-35.9522302491441,-37.3084410125492,-15.4700172094716));
#1012=CARTESIAN_POINT('Ctrl Pts',(-36.3305842805255,-37.7010675329022,-14.106869754253));
#1013=CARTESIAN_POINT('Ctrl Pts',(-36.3858956176178,-37.7624160453564,-13.9004807311607));
#1014=CARTESIAN_POINT('Ctrl Pts',(-36.439830742803,-37.8266934245629,-13.6912036457573));
#1015=CARTESIAN_POINT('',(-39.4523197198304,-41.4168379855858,-1.99999999999999));
#1016=CARTESIAN_POINT('Ctrl Pts',(-36.439830742803,-37.8266934245629,-13.6912036457573));
#1017=CARTESIAN_POINT('Ctrl Pts',(-37.8818781912181,-39.5452586519029,-8.09582427134375));
#1018=CARTESIAN_POINT('Ctrl Pts',(-39.4523197198304,-41.4168379855858,-2.00000000000001));
#1019=CARTESIAN_POINT('Origin',(0.,0.,-1.99999999999999));
#1020=CARTESIAN_POINT('Origin',(0.,0.,-9.25721864729179));
#1021=CARTESIAN_POINT('',(37.9719196290523,36.5411182051557,-7.86886751271349));
#1022=CARTESIAN_POINT('',(40.0059903216171,38.965229260658,-6.7778244131273E-14));
#1023=CARTESIAN_POINT('Ctrl Pts',(37.971919629022,36.5411182051672,-7.86886751270967));
#1024=CARTESIAN_POINT('Ctrl Pts',(38.959463183171,37.7180267836675,-4.04975252528736));
#1025=CARTESIAN_POINT('Ctrl Pts',(40.0059903216171,38.965229260658,-1.4295797509338E-13));
#1026=CARTESIAN_POINT('',(34.227542325293,34.567358137531,-18.));
#1027=CARTESIAN_POINT('Ctrl Pts',(37.9719196290221,36.5411182051673,-7.86886751270925));
#1028=CARTESIAN_POINT('Ctrl Pts',(37.8402611301584,36.3842137161527,-8.37802879892945));
#1029=CARTESIAN_POINT('Ctrl Pts',(37.7030354466574,36.2381973596898,-8.87831988029737));
#1030=CARTESIAN_POINT('Ctrl Pts',(37.0528192226898,35.6132433322098,-11.132966019903));
#1031=CARTESIAN_POINT('Ctrl Pts',(36.4007960368481,35.1753358545064,-13.069201365226));
#1032=CARTESIAN_POINT('Ctrl Pts',(35.2349447985254,34.7444102981287,-15.9053288554214));
#1033=CARTESIAN_POINT('Ctrl Pts',(34.8157541958765,34.6378117474612,-16.8387307713144));
#1034=CARTESIAN_POINT('Ctrl Pts',(34.3187152467902,34.576850039479,-17.8226970516141));
#1035=CARTESIAN_POINT('Ctrl Pts',(34.2732990017371,34.5718363909822,-17.9115578720411));
#1036=CARTESIAN_POINT('Ctrl Pts',(34.227542325293,34.567358137531,-18.));
#1037=CARTESIAN_POINT('',(-28.0986519441853,-39.7101077958445,-18.));
#1038=CARTESIAN_POINT('Origin',(0.,0.,-18.));
#1039=CARTESIAN_POINT('',(-29.3922218660728,-43.7403394336843,-7.86886751271354));
#1040=CARTESIAN_POINT('Ctrl Pts',(-28.0986519441853,-39.7101077958445,-18.));
#1041=CARTESIAN_POINT('Ctrl Pts',(-28.0951165994234,-39.7559469661096,-17.9115578720411));
#1042=CARTESIAN_POINT('Ctrl Pts',(-28.092167631144,-39.8015438472755,-17.8226970516141));
#1043=CARTESIAN_POINT('Ctrl Pts',(-28.0658932860634,-40.3016175473833,-16.8387307713144));
#1044=CARTESIAN_POINT('Ctrl Pts',(-28.0980806809755,-40.7329503469272,-15.9053288554214));
#1045=CARTESIAN_POINT('Ctrl Pts',(-28.320011566902,-41.9559191228613,-13.0692013652261));
#1046=CARTESIAN_POINT('Ctrl Pts',(-28.6380436080283,-42.6740784469119,-11.132966019903));
#1047=CARTESIAN_POINT('Ctrl Pts',(-29.0320987157038,-43.2612672509905,-9.36507511631106));
#1048=CARTESIAN_POINT('Ctrl Pts',(-29.1405943171854,-43.422938553407,-8.87831988029741));
#1049=CARTESIAN_POINT('Ctrl Pts',(-29.2605633672275,-43.5834349446405,-8.3780287989295));
#1050=CARTESIAN_POINT('Ctrl Pts',(-29.3922218660895,-43.7403394336565,-7.8688675127093));
#1051=CARTESIAN_POINT('',(-31.4262925586846,-46.1644504891473,-8.14192722892252E-14));
#1052=CARTESIAN_POINT('Ctrl Pts',(-31.4262925586846,-46.1644504891473,-1.70240031409285E-13));
#1053=CARTESIAN_POINT('Ctrl Pts',(-30.3797654202394,-44.9172480121579,-4.04975252528375));
#1054=CARTESIAN_POINT('Ctrl Pts',(-29.3922218660895,-43.7403394336565,-7.86886751270973));
#1055=CARTESIAN_POINT('Origin',(0.,0.,0.));
#1056=CARTESIAN_POINT('Origin',(-40.2114983092074,-39.2101441431756,-1.99999999999999));
#1057=CARTESIAN_POINT('',(-37.9719196290409,-36.5411182051898,7.21644966006352E-15));
#1058=CARTESIAN_POINT('',(-22.2506735953368,-17.8052667644655,0.));
#1059=CARTESIAN_POINT('',(-37.9719196290409,-36.5411182051898,-1.99999999999999));
#1060=CARTESIAN_POINT('Origin',(29.3922218661084,43.7403394336791,-1.99999999999999));
#1061=CARTESIAN_POINT('',(29.3922218661084,43.7403394336791,7.21644966006352E-15));
#1062=CARTESIAN_POINT('',(12.5511864923211,23.6699750239618,1.38777878078145E-16));
#1063=CARTESIAN_POINT('',(29.3922218661084,43.7403394336791,-1.99999999999999));
#1064=CARTESIAN_POINT('Origin',(33.6820707475747,40.1407288194345,-1.99999999999999));
#1065=CARTESIAN_POINT('Origin',(33.6820707475747,40.1407288194345,-18.));
#1066=CARTESIAN_POINT('',(37.9719196290409,36.5411182051898,7.21644966006352E-15));
#1067=CARTESIAN_POINT('',(37.9719196290409,36.5411182051898,-1.99999999999999));
#1068=CARTESIAN_POINT('Origin',(33.6820707475747,40.1407288194345,0.));
#1069=CARTESIAN_POINT('Origin',(0.,0.,-18.));
#1070=CARTESIAN_POINT('Origin',(-33.6820707475747,-40.1407288194344,-18.));
#1071=CARTESIAN_POINT('Origin',(-33.6820707475747,-40.1407288194344,-1.99999999999999));
#1072=CARTESIAN_POINT('',(-29.3922218661084,-43.740339433679,7.21644966006352E-15));
#1073=CARTESIAN_POINT('Origin',(-33.6820707475747,-40.1407288194344,0.));
#1074=CARTESIAN_POINT('',(-29.3922218661084,-43.740339433679,-1.99999999999999));
#1075=CARTESIAN_POINT('Origin',(-29.3922218661084,-43.740339433679,-1.99999999999999));
#1076=CARTESIAN_POINT('',(-12.5511864923211,-23.6699750239617,1.38777878078145E-16));
#1077=CARTESIAN_POINT('Origin',(40.2114983092074,39.2101441431756,-1.99999999999999));
#1078=CARTESIAN_POINT('',(22.2506735953368,17.8052667644655,0.));
#1079=CARTESIAN_POINT('Origin',(-34.3807400852721,-40.8322594858631,-1.99999999999999));
#1080=CARTESIAN_POINT('',(-30.9243107523464,-42.454764214306,-1.99999999999999));
#1081=CARTESIAN_POINT('',(-30.9243107523464,-42.454764214306,-1.99999999999999));
#1082=CARTESIAN_POINT('',(-36.439830742803,-37.8266934245629,-1.99999999999999));
#1083=CARTESIAN_POINT('',(-36.439830742803,-37.8266934245629,-1.99999999999999));
#1084=CARTESIAN_POINT('Origin',(-33.6820707475747,-40.1407288194344,-1.99999999999999));
#1085=CARTESIAN_POINT('',(-33.6820707475747,-41.8907288194344,-1.99999999999999));
#1086=CARTESIAN_POINT('Origin',(-33.6820707475747,-40.1407288194344,-1.99999999999999));
#1087=CARTESIAN_POINT('Origin',(-38.6794094229695,-40.4957193625487,-1.99999999999999));
#1088=CARTESIAN_POINT('',(-36.439830742803,-37.8266934245629,-1.99999999999999));
#1089=CARTESIAN_POINT('Origin',(-30.9243107523464,-42.454764214306,-1.99999999999999));
#1090=CARTESIAN_POINT('',(-30.9243107523464,-42.454764214306,-1.99999999999999));
#1091=CARTESIAN_POINT('Origin',(34.3807400852721,40.8322594858631,-1.99999999999999));
#1092=CARTESIAN_POINT('',(30.9243107523464,42.454764214306,-1.99999999999999));
#1093=CARTESIAN_POINT('',(30.9243107523464,42.454764214306,-1.99999999999999));
#1094=CARTESIAN_POINT('',(36.439830742803,37.8266934245629,-1.99999999999999));
#1095=CARTESIAN_POINT('',(36.439830742803,37.8266934245629,-1.99999999999999));
#1096=CARTESIAN_POINT('Origin',(33.6820707475747,40.1407288194345,-1.99999999999999));
#1097=CARTESIAN_POINT('',(33.6820707475747,41.8907288194345,-1.99999999999999));
#1098=CARTESIAN_POINT('Origin',(33.6820707475747,40.1407288194345,-1.99999999999999));
#1099=CARTESIAN_POINT('Origin',(38.6794094229695,40.4957193625487,-1.99999999999999));
#1100=CARTESIAN_POINT('',(36.439830742803,37.8266934245629,-1.99999999999999));
#1101=CARTESIAN_POINT('Origin',(30.9243107523464,42.454764214306,-1.99999999999999));
#1102=CARTESIAN_POINT('',(30.9243107523464,42.454764214306,-1.99999999999999));
#1103=CARTESIAN_POINT('Origin',(-33.6820707475747,-40.1407288194344,63.));
#1104=CARTESIAN_POINT('',(-33.6820707475747,-41.8907288194344,0.));
#1105=CARTESIAN_POINT('Origin',(-33.6820707475747,-40.1407288194344,0.));
#1106=CARTESIAN_POINT('',(-33.6820707475747,-41.8907288194344,63.));
#1107=CARTESIAN_POINT('Origin',(33.6820707475747,40.1407288194345,63.));
#1108=CARTESIAN_POINT('',(33.6820707475747,41.8907288194345,0.));
#1109=CARTESIAN_POINT('Origin',(33.6820707475747,40.1407288194345,0.));
#1110=CARTESIAN_POINT('',(33.6820707475747,41.8907288194345,63.));
#1111=CARTESIAN_POINT('Origin',(33.6820707475747,40.1407288194345,-1.99999999999999));
#1112=CARTESIAN_POINT('Origin',(33.6820707475747,40.1407288194345,-20.));
#1113=CARTESIAN_POINT('Origin',(-33.6820707475747,-40.1407288194344,-1.99999999999999));
#1114=CARTESIAN_POINT('Origin',(-33.6820707475747,-40.1407288194344,-20.));
#1115=CARTESIAN_POINT('Origin',(0.,0.,-20.));
#1116=CARTESIAN_POINT('Origin',(0.,0.,0.));
#1117=UNCERTAINTY_MEASURE_WITH_UNIT(LENGTH_MEASURE(0.01),#1121,
'DISTANCE_ACCURACY_VALUE',
'Maximum model space distance between geometric entities at asserted c
onnectivities');
#1118=UNCERTAINTY_MEASURE_WITH_UNIT(LENGTH_MEASURE(0.01),#1121,
'DISTANCE_ACCURACY_VALUE',
'Maximum model space distance between geometric entities at asserted c
onnectivities');
#1119=(
GEOMETRIC_REPRESENTATION_CONTEXT(3)
GLOBAL_UNCERTAINTY_ASSIGNED_CONTEXT((#1117))
GLOBAL_UNIT_ASSIGNED_CONTEXT((#1121,#1123,#1124))
REPRESENTATION_CONTEXT('','3D')
);
#1120=(
GEOMETRIC_REPRESENTATION_CONTEXT(3)
GLOBAL_UNCERTAINTY_ASSIGNED_CONTEXT((#1118))
GLOBAL_UNIT_ASSIGNED_CONTEXT((#1121,#1123,#1124))
REPRESENTATION_CONTEXT('','3D')
);
#1121=(
LENGTH_UNIT()
NAMED_UNIT(*)
SI_UNIT(.MILLI.,.METRE.)
);
#1122=(
LENGTH_UNIT()
NAMED_UNIT(*)
SI_UNIT($,.METRE.)
);
#1123=(
NAMED_UNIT(*)
PLANE_ANGLE_UNIT()
SI_UNIT($,.RADIAN.)
);
#1124=(
NAMED_UNIT(*)
SI_UNIT($,.STERADIAN.)
SOLID_ANGLE_UNIT()
);
#1125=SHAPE_DEFINITION_REPRESENTATION(#1126,#1127);
#1126=PRODUCT_DEFINITION_SHAPE('',$,#1129);
#1127=SHAPE_REPRESENTATION('',(#470),#1119);
#1128=PRODUCT_DEFINITION_CONTEXT('part definition',#1133,'design');
#1129=PRODUCT_DEFINITION('OuterShellBase','OuterShellBase v22',#1130,#1128);
#1130=PRODUCT_DEFINITION_FORMATION('',$,#1135);
#1131=PRODUCT_RELATED_PRODUCT_CATEGORY('OuterShellBase v22',
'OuterShellBase v22',(#1135));
#1132=APPLICATION_PROTOCOL_DEFINITION('international standard',
'automotive_design',2009,#1133);
#1133=APPLICATION_CONTEXT(
'Core Data for Automotive Mechanical Design Process');
#1134=PRODUCT_CONTEXT('part definition',#1133,'mechanical');
#1135=PRODUCT('OuterShellBase','OuterShellBase v22',$,(#1134));
#1136=PRESENTATION_STYLE_ASSIGNMENT((#1137));
#1137=SURFACE_STYLE_USAGE(.BOTH.,#1138);
#1138=SURFACE_SIDE_STYLE('',(#1139));
#1139=SURFACE_STYLE_FILL_AREA(#1140);
#1140=FILL_AREA_STYLE('Steel - Satin',(#1141));
#1141=FILL_AREA_STYLE_COLOUR('Steel - Satin',#1142);
#1142=COLOUR_RGB('Steel - Satin',0.627450980392157,0.627450980392157,0.627450980392157);
ENDSEC;
END-ISO-10303-21;
