ISO-10303-21;
HEADER;
/* Generated by software containing ST-Developer
 * from STEP Tools, Inc. (www.steptools.com) 
 */

FILE_DESCRIPTION(
/* description */ (''),
/* implementation_level */ '2;1');

FILE_NAME(
/* name */ 'OutShellBase2_v3.step',
/* time_stamp */ '2026-08-21T09:14:47-04:00',
/* author */ (''),
/* organization */ (''),
/* preprocessor_version */ 'ST-DEVELOPER v20.1',
/* originating_system */ 'Autodesk Translation Framework v15.8.0.0',
/* authorisation */ '');

FILE_SCHEMA (('AUTOMOTIVE_DESIGN { 1 0 10303 214 3 1 1 }'));
ENDSEC;

DATA;
#10=MECHANICAL_DESIGN_GEOMETRIC_PRESENTATION_REPRESENTATION('',(#13),#689);
#11=SHAPE_REPRESENTATION_RELATIONSHIP('SRR','None',#696,#12);
#12=ADVANCED_BREP_SHAPE_REPRESENTATION('',(#14),#688);
#13=STYLED_ITEM('',(#705),#14);
#14=MANIFOLD_SOLID_BREP('Body1',#391);
#15=FACE_BOUND('',#76,.T.);
#16=PLANE('',#408);
#17=PLANE('',#413);
#18=PLANE('',#418);
#19=PLANE('',#422);
#20=PLANE('',#425);
#21=PLANE('',#426);
#22=PLANE('',#436);
#23=PLANE('',#439);
#24=PLANE('',#440);
#25=PLANE('',#441);
#26=PLANE('',#442);
#27=PLANE('',#443);
#28=PLANE('',#444);
#29=PLANE('',#448);
#30=PLANE('',#449);
#31=FACE_OUTER_BOUND('',#54,.T.);
#32=FACE_OUTER_BOUND('',#55,.T.);
#33=FACE_OUTER_BOUND('',#56,.T.);
#34=FACE_OUTER_BOUND('',#57,.T.);
#35=FACE_OUTER_BOUND('',#58,.T.);
#36=FACE_OUTER_BOUND('',#59,.T.);
#37=FACE_OUTER_BOUND('',#60,.T.);
#38=FACE_OUTER_BOUND('',#61,.T.);
#39=FACE_OUTER_BOUND('',#62,.T.);
#40=FACE_OUTER_BOUND('',#63,.T.);
#41=FACE_OUTER_BOUND('',#64,.T.);
#42=FACE_OUTER_BOUND('',#65,.T.);
#43=FACE_OUTER_BOUND('',#66,.T.);
#44=FACE_OUTER_BOUND('',#67,.T.);
#45=FACE_OUTER_BOUND('',#68,.T.);
#46=FACE_OUTER_BOUND('',#69,.T.);
#47=FACE_OUTER_BOUND('',#70,.T.);
#48=FACE_OUTER_BOUND('',#71,.T.);
#49=FACE_OUTER_BOUND('',#72,.T.);
#50=FACE_OUTER_BOUND('',#73,.T.);
#51=FACE_OUTER_BOUND('',#74,.T.);
#52=FACE_OUTER_BOUND('',#75,.T.);
#53=FACE_OUTER_BOUND('',#77,.T.);
#54=EDGE_LOOP('',(#252,#253,#254,#255));
#55=EDGE_LOOP('',(#256,#257));
#56=EDGE_LOOP('',(#258,#259,#260,#261));
#57=EDGE_LOOP('',(#262,#263));
#58=EDGE_LOOP('',(#264,#265,#266,#267));
#59=EDGE_LOOP('',(#268,#269));
#60=EDGE_LOOP('',(#270,#271,#272,#273));
#61=EDGE_LOOP('',(#274,#275,#276,#277,#278));
#62=EDGE_LOOP('',(#279,#280,#281,#282));
#63=EDGE_LOOP('',(#283,#284,#285,#286,#287));
#64=EDGE_LOOP('',(#288,#289,#290,#291));
#65=EDGE_LOOP('',(#292,#293,#294,#295,#296,#297,#298,#299,#300,#301,#302,
#303,#304,#305,#306,#307));
#66=EDGE_LOOP('',(#308,#309,#310,#311,#312));
#67=EDGE_LOOP('',(#313,#314,#315,#316));
#68=EDGE_LOOP('',(#317,#318,#319,#320,#321));
#69=EDGE_LOOP('',(#322,#323,#324,#325));
#70=EDGE_LOOP('',(#326,#327,#328,#329,#330));
#71=EDGE_LOOP('',(#331,#332,#333,#334,#335));
#72=EDGE_LOOP('',(#336,#337,#338,#339));
#73=EDGE_LOOP('',(#340));
#74=EDGE_LOOP('',(#341,#342,#343,#344));
#75=EDGE_LOOP('',(#345));
#76=EDGE_LOOP('',(#346,#347,#348,#349,#350,#351,#352,#353,#354,#355,#356,
#357,#358));
#77=EDGE_LOOP('',(#359));
#78=CIRCLE('',#406,5.1);
#79=CIRCLE('',#407,5.1);
#80=CIRCLE('',#409,5.1);
#81=CIRCLE('',#411,5.1);
#82=CIRCLE('',#412,5.1);
#83=CIRCLE('',#414,5.1);
#84=CIRCLE('',#416,5.1);
#85=CIRCLE('',#417,5.1);
#86=CIRCLE('',#419,5.1);
#87=CIRCLE('',#421,5.1);
#88=CIRCLE('',#424,5.1);
#89=CIRCLE('',#427,64.);
#90=CIRCLE('',#429,64.);
#91=CIRCLE('',#430,64.);
#92=CIRCLE('',#431,64.);
#93=CIRCLE('',#432,64.);
#94=CIRCLE('',#433,64.);
#95=CIRCLE('',#434,64.);
#96=CIRCLE('',#435,64.);
#97=CIRCLE('',#438,5.1);
#98=CIRCLE('',#446,66.);
#99=CIRCLE('',#447,66.);
#100=LINE('',#578,#132);
#101=LINE('',#582,#133);
#102=LINE('',#589,#134);
#103=LINE('',#593,#135);
#104=LINE('',#600,#136);
#105=LINE('',#604,#137);
#106=LINE('',#610,#138);
#107=LINE('',#613,#139);
#108=LINE('',#616,#140);
#109=LINE('',#618,#141);
#110=LINE('',#620,#142);
#111=LINE('',#621,#143);
#112=LINE('',#625,#144);
#113=LINE('',#628,#145);
#114=LINE('',#630,#146);
#115=LINE('',#631,#147);
#116=LINE('',#638,#148);
#117=LINE('',#642,#149);
#118=LINE('',#646,#150);
#119=LINE('',#650,#151);
#120=LINE('',#654,#152);
#121=LINE('',#658,#153);
#122=LINE('',#660,#154);
#123=LINE('',#661,#155);
#124=LINE('',#665,#156);
#125=LINE('',#667,#157);
#126=LINE('',#668,#158);
#127=LINE('',#671,#159);
#128=LINE('',#672,#160);
#129=LINE('',#674,#161);
#130=LINE('',#675,#162);
#131=LINE('',#682,#163);
#132=VECTOR('',#454,10.);
#133=VECTOR('',#457,10.);
#134=VECTOR('',#466,10.);
#135=VECTOR('',#469,10.);
#136=VECTOR('',#478,10.);
#137=VECTOR('',#481,10.);
#138=VECTOR('',#490,10.);
#139=VECTOR('',#493,10.);
#140=VECTOR('',#496,10.);
#141=VECTOR('',#497,10.);
#142=VECTOR('',#498,10.);
#143=VECTOR('',#499,10.);
#144=VECTOR('',#504,10.);
#145=VECTOR('',#507,10.);
#146=VECTOR('',#508,10.);
#147=VECTOR('',#509,10.);
#148=VECTOR('',#518,10.);
#149=VECTOR('',#521,10.);
#150=VECTOR('',#524,10.);
#151=VECTOR('',#527,10.);
#152=VECTOR('',#530,66.);
#153=VECTOR('',#537,10.);
#154=VECTOR('',#538,10.);
#155=VECTOR('',#539,10.);
#156=VECTOR('',#544,10.);
#157=VECTOR('',#547,10.);
#158=VECTOR('',#548,10.);
#159=VECTOR('',#553,10.);
#160=VECTOR('',#554,10.);
#161=VECTOR('',#557,10.);
#162=VECTOR('',#558,10.);
#163=VECTOR('',#567,66.);
#164=VERTEX_POINT('',#576);
#165=VERTEX_POINT('',#577);
#166=VERTEX_POINT('',#579);
#167=VERTEX_POINT('',#581);
#168=VERTEX_POINT('',#587);
#169=VERTEX_POINT('',#588);
#170=VERTEX_POINT('',#590);
#171=VERTEX_POINT('',#592);
#172=VERTEX_POINT('',#598);
#173=VERTEX_POINT('',#599);
#174=VERTEX_POINT('',#601);
#175=VERTEX_POINT('',#603);
#176=VERTEX_POINT('',#609);
#177=VERTEX_POINT('',#611);
#178=VERTEX_POINT('',#615);
#179=VERTEX_POINT('',#617);
#180=VERTEX_POINT('',#619);
#181=VERTEX_POINT('',#623);
#182=VERTEX_POINT('',#627);
#183=VERTEX_POINT('',#629);
#184=VERTEX_POINT('',#635);
#185=VERTEX_POINT('',#637);
#186=VERTEX_POINT('',#639);
#187=VERTEX_POINT('',#641);
#188=VERTEX_POINT('',#643);
#189=VERTEX_POINT('',#645);
#190=VERTEX_POINT('',#647);
#191=VERTEX_POINT('',#649);
#192=VERTEX_POINT('',#651);
#193=VERTEX_POINT('',#653);
#194=VERTEX_POINT('',#659);
#195=VERTEX_POINT('',#663);
#196=VERTEX_POINT('',#679);
#197=VERTEX_POINT('',#681);
#198=EDGE_CURVE('',#164,#165,#100,.T.);
#199=EDGE_CURVE('',#166,#164,#78,.T.);
#200=EDGE_CURVE('',#166,#167,#101,.T.);
#201=EDGE_CURVE('',#167,#165,#79,.T.);
#202=EDGE_CURVE('',#165,#167,#80,.T.);
#203=EDGE_CURVE('',#168,#169,#102,.T.);
#204=EDGE_CURVE('',#169,#170,#81,.T.);
#205=EDGE_CURVE('',#171,#170,#103,.T.);
#206=EDGE_CURVE('',#168,#171,#82,.T.);
#207=EDGE_CURVE('',#170,#169,#83,.T.);
#208=EDGE_CURVE('',#172,#173,#104,.T.);
#209=EDGE_CURVE('',#173,#174,#84,.T.);
#210=EDGE_CURVE('',#175,#174,#105,.T.);
#211=EDGE_CURVE('',#172,#175,#85,.T.);
#212=EDGE_CURVE('',#174,#173,#86,.T.);
#213=EDGE_CURVE('',#167,#176,#106,.T.);
#214=EDGE_CURVE('',#177,#176,#87,.T.);
#215=EDGE_CURVE('',#165,#177,#107,.T.);
#216=EDGE_CURVE('',#172,#178,#108,.T.);
#217=EDGE_CURVE('',#179,#178,#109,.T.);
#218=EDGE_CURVE('',#180,#179,#110,.T.);
#219=EDGE_CURVE('',#173,#180,#111,.T.);
#220=EDGE_CURVE('',#181,#180,#88,.T.);
#221=EDGE_CURVE('',#174,#181,#112,.T.);
#222=EDGE_CURVE('',#175,#182,#113,.T.);
#223=EDGE_CURVE('',#183,#181,#114,.T.);
#224=EDGE_CURVE('',#182,#183,#115,.T.);
#225=EDGE_CURVE('',#183,#179,#89,.T.);
#226=EDGE_CURVE('',#184,#178,#90,.T.);
#227=EDGE_CURVE('',#184,#185,#116,.T.);
#228=EDGE_CURVE('',#185,#186,#91,.T.);
#229=EDGE_CURVE('',#186,#187,#117,.T.);
#230=EDGE_CURVE('',#188,#187,#92,.T.);
#231=EDGE_CURVE('',#188,#189,#118,.T.);
#232=EDGE_CURVE('',#189,#190,#93,.T.);
#233=EDGE_CURVE('',#190,#191,#119,.T.);
#234=EDGE_CURVE('',#192,#191,#94,.T.);
#235=EDGE_CURVE('',#192,#193,#120,.T.);
#236=EDGE_CURVE('',#193,#193,#95,.T.);
#237=EDGE_CURVE('',#182,#192,#96,.T.);
#238=EDGE_CURVE('',#168,#187,#121,.T.);
#239=EDGE_CURVE('',#194,#186,#122,.T.);
#240=EDGE_CURVE('',#169,#194,#123,.T.);
#241=EDGE_CURVE('',#195,#194,#97,.T.);
#242=EDGE_CURVE('',#170,#195,#124,.T.);
#243=EDGE_CURVE('',#171,#184,#125,.T.);
#244=EDGE_CURVE('',#185,#195,#126,.T.);
#245=EDGE_CURVE('',#164,#188,#127,.T.);
#246=EDGE_CURVE('',#189,#177,#128,.T.);
#247=EDGE_CURVE('',#166,#191,#129,.T.);
#248=EDGE_CURVE('',#176,#190,#130,.T.);
#249=EDGE_CURVE('',#196,#196,#98,.T.);
#250=EDGE_CURVE('',#196,#197,#131,.T.);
#251=EDGE_CURVE('',#197,#197,#99,.T.);
#252=ORIENTED_EDGE('',*,*,#198,.F.);
#253=ORIENTED_EDGE('',*,*,#199,.F.);
#254=ORIENTED_EDGE('',*,*,#200,.T.);
#255=ORIENTED_EDGE('',*,*,#201,.T.);
#256=ORIENTED_EDGE('',*,*,#201,.F.);
#257=ORIENTED_EDGE('',*,*,#202,.F.);
#258=ORIENTED_EDGE('',*,*,#203,.T.);
#259=ORIENTED_EDGE('',*,*,#204,.T.);
#260=ORIENTED_EDGE('',*,*,#205,.F.);
#261=ORIENTED_EDGE('',*,*,#206,.F.);
#262=ORIENTED_EDGE('',*,*,#204,.F.);
#263=ORIENTED_EDGE('',*,*,#207,.F.);
#264=ORIENTED_EDGE('',*,*,#208,.T.);
#265=ORIENTED_EDGE('',*,*,#209,.T.);
#266=ORIENTED_EDGE('',*,*,#210,.F.);
#267=ORIENTED_EDGE('',*,*,#211,.F.);
#268=ORIENTED_EDGE('',*,*,#212,.F.);
#269=ORIENTED_EDGE('',*,*,#209,.F.);
#270=ORIENTED_EDGE('',*,*,#202,.T.);
#271=ORIENTED_EDGE('',*,*,#213,.T.);
#272=ORIENTED_EDGE('',*,*,#214,.F.);
#273=ORIENTED_EDGE('',*,*,#215,.F.);
#274=ORIENTED_EDGE('',*,*,#216,.T.);
#275=ORIENTED_EDGE('',*,*,#217,.F.);
#276=ORIENTED_EDGE('',*,*,#218,.F.);
#277=ORIENTED_EDGE('',*,*,#219,.F.);
#278=ORIENTED_EDGE('',*,*,#208,.F.);
#279=ORIENTED_EDGE('',*,*,#212,.T.);
#280=ORIENTED_EDGE('',*,*,#219,.T.);
#281=ORIENTED_EDGE('',*,*,#220,.F.);
#282=ORIENTED_EDGE('',*,*,#221,.F.);
#283=ORIENTED_EDGE('',*,*,#222,.F.);
#284=ORIENTED_EDGE('',*,*,#210,.T.);
#285=ORIENTED_EDGE('',*,*,#221,.T.);
#286=ORIENTED_EDGE('',*,*,#223,.F.);
#287=ORIENTED_EDGE('',*,*,#224,.F.);
#288=ORIENTED_EDGE('',*,*,#223,.T.);
#289=ORIENTED_EDGE('',*,*,#220,.T.);
#290=ORIENTED_EDGE('',*,*,#218,.T.);
#291=ORIENTED_EDGE('',*,*,#225,.F.);
#292=ORIENTED_EDGE('',*,*,#224,.T.);
#293=ORIENTED_EDGE('',*,*,#225,.T.);
#294=ORIENTED_EDGE('',*,*,#217,.T.);
#295=ORIENTED_EDGE('',*,*,#226,.F.);
#296=ORIENTED_EDGE('',*,*,#227,.T.);
#297=ORIENTED_EDGE('',*,*,#228,.T.);
#298=ORIENTED_EDGE('',*,*,#229,.T.);
#299=ORIENTED_EDGE('',*,*,#230,.F.);
#300=ORIENTED_EDGE('',*,*,#231,.T.);
#301=ORIENTED_EDGE('',*,*,#232,.T.);
#302=ORIENTED_EDGE('',*,*,#233,.T.);
#303=ORIENTED_EDGE('',*,*,#234,.F.);
#304=ORIENTED_EDGE('',*,*,#235,.T.);
#305=ORIENTED_EDGE('',*,*,#236,.T.);
#306=ORIENTED_EDGE('',*,*,#235,.F.);
#307=ORIENTED_EDGE('',*,*,#237,.F.);
#308=ORIENTED_EDGE('',*,*,#238,.T.);
#309=ORIENTED_EDGE('',*,*,#229,.F.);
#310=ORIENTED_EDGE('',*,*,#239,.F.);
#311=ORIENTED_EDGE('',*,*,#240,.F.);
#312=ORIENTED_EDGE('',*,*,#203,.F.);
#313=ORIENTED_EDGE('',*,*,#207,.T.);
#314=ORIENTED_EDGE('',*,*,#240,.T.);
#315=ORIENTED_EDGE('',*,*,#241,.F.);
#316=ORIENTED_EDGE('',*,*,#242,.F.);
#317=ORIENTED_EDGE('',*,*,#243,.F.);
#318=ORIENTED_EDGE('',*,*,#205,.T.);
#319=ORIENTED_EDGE('',*,*,#242,.T.);
#320=ORIENTED_EDGE('',*,*,#244,.F.);
#321=ORIENTED_EDGE('',*,*,#227,.F.);
#322=ORIENTED_EDGE('',*,*,#244,.T.);
#323=ORIENTED_EDGE('',*,*,#241,.T.);
#324=ORIENTED_EDGE('',*,*,#239,.T.);
#325=ORIENTED_EDGE('',*,*,#228,.F.);
#326=ORIENTED_EDGE('',*,*,#245,.F.);
#327=ORIENTED_EDGE('',*,*,#198,.T.);
#328=ORIENTED_EDGE('',*,*,#215,.T.);
#329=ORIENTED_EDGE('',*,*,#246,.F.);
#330=ORIENTED_EDGE('',*,*,#231,.F.);
#331=ORIENTED_EDGE('',*,*,#247,.T.);
#332=ORIENTED_EDGE('',*,*,#233,.F.);
#333=ORIENTED_EDGE('',*,*,#248,.F.);
#334=ORIENTED_EDGE('',*,*,#213,.F.);
#335=ORIENTED_EDGE('',*,*,#200,.F.);
#336=ORIENTED_EDGE('',*,*,#214,.T.);
#337=ORIENTED_EDGE('',*,*,#248,.T.);
#338=ORIENTED_EDGE('',*,*,#232,.F.);
#339=ORIENTED_EDGE('',*,*,#246,.T.);
#340=ORIENTED_EDGE('',*,*,#236,.F.);
#341=ORIENTED_EDGE('',*,*,#249,.F.);
#342=ORIENTED_EDGE('',*,*,#250,.T.);
#343=ORIENTED_EDGE('',*,*,#251,.F.);
#344=ORIENTED_EDGE('',*,*,#250,.F.);
#345=ORIENTED_EDGE('',*,*,#251,.T.);
#346=ORIENTED_EDGE('',*,*,#199,.T.);
#347=ORIENTED_EDGE('',*,*,#245,.T.);
#348=ORIENTED_EDGE('',*,*,#230,.T.);
#349=ORIENTED_EDGE('',*,*,#238,.F.);
#350=ORIENTED_EDGE('',*,*,#206,.T.);
#351=ORIENTED_EDGE('',*,*,#243,.T.);
#352=ORIENTED_EDGE('',*,*,#226,.T.);
#353=ORIENTED_EDGE('',*,*,#216,.F.);
#354=ORIENTED_EDGE('',*,*,#211,.T.);
#355=ORIENTED_EDGE('',*,*,#222,.T.);
#356=ORIENTED_EDGE('',*,*,#237,.T.);
#357=ORIENTED_EDGE('',*,*,#234,.T.);
#358=ORIENTED_EDGE('',*,*,#247,.F.);
#359=ORIENTED_EDGE('',*,*,#249,.T.);
#360=CYLINDRICAL_SURFACE('',#405,5.1);
#361=CYLINDRICAL_SURFACE('',#410,5.1);
#362=CYLINDRICAL_SURFACE('',#415,5.1);
#363=CYLINDRICAL_SURFACE('',#420,5.1);
#364=CYLINDRICAL_SURFACE('',#423,5.1);
#365=CYLINDRICAL_SURFACE('',#428,64.);
#366=CYLINDRICAL_SURFACE('',#437,5.1);
#367=CYLINDRICAL_SURFACE('',#445,66.);
#368=ADVANCED_FACE('',(#31),#360,.F.);
#369=ADVANCED_FACE('',(#32),#16,.T.);
#370=ADVANCED_FACE('',(#33),#361,.F.);
#371=ADVANCED_FACE('',(#34),#17,.T.);
#372=ADVANCED_FACE('',(#35),#362,.F.);
#373=ADVANCED_FACE('',(#36),#18,.T.);
#374=ADVANCED_FACE('',(#37),#363,.T.);
#375=ADVANCED_FACE('',(#38),#19,.T.);
#376=ADVANCED_FACE('',(#39),#364,.T.);
#377=ADVANCED_FACE('',(#40),#20,.T.);
#378=ADVANCED_FACE('',(#41),#21,.F.);
#379=ADVANCED_FACE('',(#42),#365,.F.);
#380=ADVANCED_FACE('',(#43),#22,.T.);
#381=ADVANCED_FACE('',(#44),#366,.T.);
#382=ADVANCED_FACE('',(#45),#23,.T.);
#383=ADVANCED_FACE('',(#46),#24,.F.);
#384=ADVANCED_FACE('',(#47),#25,.T.);
#385=ADVANCED_FACE('',(#48),#26,.T.);
#386=ADVANCED_FACE('',(#49),#27,.F.);
#387=ADVANCED_FACE('',(#50),#28,.T.);
#388=ADVANCED_FACE('',(#51),#367,.T.);
#389=ADVANCED_FACE('',(#52,#15),#29,.T.);
#390=ADVANCED_FACE('',(#53),#30,.F.);
#391=CLOSED_SHELL('',(#368,#369,#370,#371,#372,#373,#374,#375,#376,#377,
#378,#379,#380,#381,#382,#383,#384,#385,#386,#387,#388,#389,#390));
#392=DERIVED_UNIT_ELEMENT(#394,1.);
#393=DERIVED_UNIT_ELEMENT(#691,-3.);
#394=(
MASS_UNIT()
NAMED_UNIT(*)
SI_UNIT(.KILO.,.GRAM.)
);
#395=DERIVED_UNIT((#392,#393));
#396=MEASURE_REPRESENTATION_ITEM('density measure',
POSITIVE_RATIO_MEASURE(7850.),#395);
#397=PROPERTY_DEFINITION_REPRESENTATION(#402,#399);
#398=PROPERTY_DEFINITION_REPRESENTATION(#403,#400);
#399=REPRESENTATION('material name',(#401),#688);
#400=REPRESENTATION('density',(#396),#688);
#401=DESCRIPTIVE_REPRESENTATION_ITEM('Steel','Steel');
#402=PROPERTY_DEFINITION('material property','material name',#698);
#403=PROPERTY_DEFINITION('material property','density of part',#698);
#404=AXIS2_PLACEMENT_3D('',#574,#450,#451);
#405=AXIS2_PLACEMENT_3D('',#575,#452,#453);
#406=AXIS2_PLACEMENT_3D('',#580,#455,#456);
#407=AXIS2_PLACEMENT_3D('',#583,#458,#459);
#408=AXIS2_PLACEMENT_3D('',#584,#460,#461);
#409=AXIS2_PLACEMENT_3D('',#585,#462,#463);
#410=AXIS2_PLACEMENT_3D('',#586,#464,#465);
#411=AXIS2_PLACEMENT_3D('',#591,#467,#468);
#412=AXIS2_PLACEMENT_3D('',#594,#470,#471);
#413=AXIS2_PLACEMENT_3D('',#595,#472,#473);
#414=AXIS2_PLACEMENT_3D('',#596,#474,#475);
#415=AXIS2_PLACEMENT_3D('',#597,#476,#477);
#416=AXIS2_PLACEMENT_3D('',#602,#479,#480);
#417=AXIS2_PLACEMENT_3D('',#605,#482,#483);
#418=AXIS2_PLACEMENT_3D('',#606,#484,#485);
#419=AXIS2_PLACEMENT_3D('',#607,#486,#487);
#420=AXIS2_PLACEMENT_3D('',#608,#488,#489);
#421=AXIS2_PLACEMENT_3D('',#612,#491,#492);
#422=AXIS2_PLACEMENT_3D('',#614,#494,#495);
#423=AXIS2_PLACEMENT_3D('',#622,#500,#501);
#424=AXIS2_PLACEMENT_3D('',#624,#502,#503);
#425=AXIS2_PLACEMENT_3D('',#626,#505,#506);
#426=AXIS2_PLACEMENT_3D('',#632,#510,#511);
#427=AXIS2_PLACEMENT_3D('',#633,#512,#513);
#428=AXIS2_PLACEMENT_3D('',#634,#514,#515);
#429=AXIS2_PLACEMENT_3D('',#636,#516,#517);
#430=AXIS2_PLACEMENT_3D('',#640,#519,#520);
#431=AXIS2_PLACEMENT_3D('',#644,#522,#523);
#432=AXIS2_PLACEMENT_3D('',#648,#525,#526);
#433=AXIS2_PLACEMENT_3D('',#652,#528,#529);
#434=AXIS2_PLACEMENT_3D('',#655,#531,#532);
#435=AXIS2_PLACEMENT_3D('',#656,#533,#534);
#436=AXIS2_PLACEMENT_3D('',#657,#535,#536);
#437=AXIS2_PLACEMENT_3D('',#662,#540,#541);
#438=AXIS2_PLACEMENT_3D('',#664,#542,#543);
#439=AXIS2_PLACEMENT_3D('',#666,#545,#546);
#440=AXIS2_PLACEMENT_3D('',#669,#549,#550);
#441=AXIS2_PLACEMENT_3D('',#670,#551,#552);
#442=AXIS2_PLACEMENT_3D('',#673,#555,#556);
#443=AXIS2_PLACEMENT_3D('',#676,#559,#560);
#444=AXIS2_PLACEMENT_3D('',#677,#561,#562);
#445=AXIS2_PLACEMENT_3D('',#678,#563,#564);
#446=AXIS2_PLACEMENT_3D('',#680,#565,#566);
#447=AXIS2_PLACEMENT_3D('',#683,#568,#569);
#448=AXIS2_PLACEMENT_3D('',#684,#570,#571);
#449=AXIS2_PLACEMENT_3D('',#685,#572,#573);
#450=DIRECTION('axis',(0.,0.,1.));
#451=DIRECTION('refdir',(1.,0.,0.));
#452=DIRECTION('center_axis',(0.,0.,-1.));
#453=DIRECTION('ref_axis',(0.771811954624782,0.635850852557637,0.));
#454=DIRECTION('',(0.,0.,-1.));
#455=DIRECTION('center_axis',(0.,0.,-1.));
#456=DIRECTION('ref_axis',(-1.,0.,0.));
#457=DIRECTION('',(0.,0.,-1.));
#458=DIRECTION('center_axis',(0.,0.,-1.));
#459=DIRECTION('ref_axis',(-1.,0.,0.));
#460=DIRECTION('center_axis',(0.,0.,1.));
#461=DIRECTION('ref_axis',(-1.,0.,0.));
#462=DIRECTION('center_axis',(0.,0.,-1.));
#463=DIRECTION('ref_axis',(-1.,0.,0.));
#464=DIRECTION('center_axis',(0.,0.,-1.));
#465=DIRECTION('ref_axis',(0.654884073435149,-0.755729349940166,0.));
#466=DIRECTION('',(0.,0.,-1.));
#467=DIRECTION('center_axis',(0.,0.,-1.));
#468=DIRECTION('ref_axis',(-1.,0.,0.));
#469=DIRECTION('',(0.,0.,-1.));
#470=DIRECTION('center_axis',(0.,0.,-1.));
#471=DIRECTION('ref_axis',(-1.,0.,0.));
#472=DIRECTION('center_axis',(0.,0.,1.));
#473=DIRECTION('ref_axis',(-1.,0.,0.));
#474=DIRECTION('center_axis',(0.,0.,-1.));
#475=DIRECTION('ref_axis',(-1.,0.,0.));
#476=DIRECTION('center_axis',(0.,0.,-1.));
#477=DIRECTION('ref_axis',(-1.,0.,0.));
#478=DIRECTION('',(0.,0.,-1.));
#479=DIRECTION('center_axis',(0.,0.,-1.));
#480=DIRECTION('ref_axis',(-1.,0.,0.));
#481=DIRECTION('',(0.,0.,-1.));
#482=DIRECTION('center_axis',(0.,0.,-1.));
#483=DIRECTION('ref_axis',(-1.,0.,0.));
#484=DIRECTION('center_axis',(0.,0.,1.));
#485=DIRECTION('ref_axis',(-1.,0.,0.));
#486=DIRECTION('center_axis',(0.,0.,-1.));
#487=DIRECTION('ref_axis',(-1.,0.,0.));
#488=DIRECTION('center_axis',(0.,0.,-1.));
#489=DIRECTION('ref_axis',(-1.,0.,0.));
#490=DIRECTION('',(0.,0.,-1.));
#491=DIRECTION('center_axis',(0.,0.,-1.));
#492=DIRECTION('ref_axis',(-1.,0.,0.));
#493=DIRECTION('',(0.,0.,-1.));
#494=DIRECTION('center_axis',(0.93124277970573,-0.364399348580573,0.));
#495=DIRECTION('ref_axis',(-0.364399348580573,-0.93124277970573,0.));
#496=DIRECTION('',(-0.364399348580573,-0.93124277970573,0.));
#497=DIRECTION('',(0.,0.,1.));
#498=DIRECTION('',(-0.364399348580573,-0.93124277970573,0.));
#499=DIRECTION('',(0.,0.,-1.));
#500=DIRECTION('center_axis',(0.,0.,-1.));
#501=DIRECTION('ref_axis',(0.364399348580546,0.93124277970574,0.));
#502=DIRECTION('center_axis',(0.,0.,-1.));
#503=DIRECTION('ref_axis',(-1.,0.,0.));
#504=DIRECTION('',(0.,0.,-1.));
#505=DIRECTION('center_axis',(-0.93124277970575,0.36439934858052,0.));
#506=DIRECTION('ref_axis',(0.36439934858052,0.93124277970575,0.));
#507=DIRECTION('',(-0.36439934858052,-0.93124277970575,0.));
#508=DIRECTION('',(0.36439934858052,0.93124277970575,0.));
#509=DIRECTION('',(0.,0.,-1.));
#510=DIRECTION('center_axis',(0.,0.,1.));
#511=DIRECTION('ref_axis',(-1.,0.,0.));
#512=DIRECTION('center_axis',(0.,0.,1.));
#513=DIRECTION('ref_axis',(1.,0.,0.));
#514=DIRECTION('center_axis',(0.,0.,-1.));
#515=DIRECTION('ref_axis',(1.,0.,0.));
#516=DIRECTION('center_axis',(0.,0.,-1.));
#517=DIRECTION('ref_axis',(1.,0.,0.));
#518=DIRECTION('',(0.,0.,-1.));
#519=DIRECTION('center_axis',(0.,0.,1.));
#520=DIRECTION('ref_axis',(1.,0.,0.));
#521=DIRECTION('',(0.,0.,1.));
#522=DIRECTION('center_axis',(0.,0.,-1.));
#523=DIRECTION('ref_axis',(1.,0.,0.));
#524=DIRECTION('',(0.,0.,-1.));
#525=DIRECTION('center_axis',(0.,0.,1.));
#526=DIRECTION('ref_axis',(1.,0.,0.));
#527=DIRECTION('',(0.,0.,1.));
#528=DIRECTION('center_axis',(0.,0.,-1.));
#529=DIRECTION('ref_axis',(1.,0.,0.));
#530=DIRECTION('',(0.,0.,-1.));
#531=DIRECTION('center_axis',(0.,0.,-1.));
#532=DIRECTION('ref_axis',(1.,0.,0.));
#533=DIRECTION('center_axis',(0.,0.,-1.));
#534=DIRECTION('ref_axis',(1.,0.,0.));
#535=DIRECTION('center_axis',(0.755729349940166,0.654884073435149,0.));
#536=DIRECTION('ref_axis',(0.654884073435149,-0.755729349940166,0.));
#537=DIRECTION('',(0.654884073435149,-0.755729349940166,0.));
#538=DIRECTION('',(0.654884073435149,-0.755729349940166,0.));
#539=DIRECTION('',(0.,0.,-1.));
#540=DIRECTION('center_axis',(0.,0.,-1.));
#541=DIRECTION('ref_axis',(-1.,0.,0.));
#542=DIRECTION('center_axis',(0.,0.,-1.));
#543=DIRECTION('ref_axis',(-1.,0.,0.));
#544=DIRECTION('',(0.,0.,-1.));
#545=DIRECTION('center_axis',(-0.755729349940167,-0.654884073435148,0.));
#546=DIRECTION('ref_axis',(-0.654884073435148,0.755729349940167,0.));
#547=DIRECTION('',(0.654884073435148,-0.755729349940167,0.));
#548=DIRECTION('',(-0.654884073435148,0.755729349940167,0.));
#549=DIRECTION('center_axis',(0.,0.,1.));
#550=DIRECTION('ref_axis',(-1.,0.,0.));
#551=DIRECTION('center_axis',(0.635852761648289,-0.77181038183238,0.));
#552=DIRECTION('ref_axis',(-0.77181038183238,-0.635852761648289,0.));
#553=DIRECTION('',(0.77181038183238,0.635852761648289,0.));
#554=DIRECTION('',(-0.77181038183238,-0.635852761648289,0.));
#555=DIRECTION('center_axis',(-0.63585276164829,0.771810381832379,0.));
#556=DIRECTION('ref_axis',(0.771810381832379,0.63585276164829,0.));
#557=DIRECTION('',(0.771810381832379,0.63585276164829,0.));
#558=DIRECTION('',(0.771810381832379,0.63585276164829,0.));
#559=DIRECTION('center_axis',(0.,0.,1.));
#560=DIRECTION('ref_axis',(-1.,0.,0.));
#561=DIRECTION('center_axis',(0.,0.,1.));
#562=DIRECTION('ref_axis',(1.,0.,0.));
#563=DIRECTION('center_axis',(0.,0.,-1.));
#564=DIRECTION('ref_axis',(1.,0.,0.));
#565=DIRECTION('center_axis',(0.,0.,-1.));
#566=DIRECTION('ref_axis',(1.,0.,0.));
#567=DIRECTION('',(0.,0.,1.));
#568=DIRECTION('center_axis',(0.,0.,1.));
#569=DIRECTION('ref_axis',(1.,0.,0.));
#570=DIRECTION('center_axis',(0.,0.,1.));
#571=DIRECTION('ref_axis',(1.,0.,0.));
#572=DIRECTION('center_axis',(0.,0.,1.));
#573=DIRECTION('ref_axis',(1.,0.,0.));
#574=CARTESIAN_POINT('',(0.,0.,0.));
#575=CARTESIAN_POINT('Origin',(38.9287555033491,32.0708838248799,0.));
#576=CARTESIAN_POINT('',(42.1715851150136,28.134634835073,0.));
#577=CARTESIAN_POINT('',(42.1716045877184,28.1346508775796,-2.75));
#578=CARTESIAN_POINT('',(42.1715851150136,28.134634835073,0.));
#579=CARTESIAN_POINT('',(35.6859258916845,36.0071328146869,0.));
#580=CARTESIAN_POINT('Origin',(38.9287555033491,32.0708838248799,0.));
#581=CARTESIAN_POINT('',(35.6859064189797,36.0071167721803,-2.75));
#582=CARTESIAN_POINT('',(35.6859258916845,36.0071328146869,0.));
#583=CARTESIAN_POINT('Origin',(38.9287555033491,32.0708838248799,-2.75));
#584=CARTESIAN_POINT('Origin',(38.9287555033491,32.0708838248799,-2.75));
#585=CARTESIAN_POINT('Origin',(38.9287555033491,32.0708838248799,-2.75));
#586=CARTESIAN_POINT('Origin',(32.7653204230538,-37.8108360064552,0.));
#587=CARTESIAN_POINT('',(36.6195401077486,-34.4709272319359,0.));
#588=CARTESIAN_POINT('',(36.6195401077486,-34.4709272319359,-2.75));
#589=CARTESIAN_POINT('',(36.6195401077486,-34.4709272319359,0.));
#590=CARTESIAN_POINT('',(28.9111007383589,-41.1507447809744,-2.75));
#591=CARTESIAN_POINT('Origin',(32.7653204230538,-37.8108360064552,-2.75));
#592=CARTESIAN_POINT('',(28.9111007383589,-41.1507447809744,0.));
#593=CARTESIAN_POINT('',(28.9111007383589,-41.1507447809744,0.));
#594=CARTESIAN_POINT('Origin',(32.7653204230538,-37.8108360064552,0.));
#595=CARTESIAN_POINT('Origin',(32.7653204230538,-37.8108360064552,-2.75));
#596=CARTESIAN_POINT('Origin',(32.7653204230538,-37.8108360064552,-2.75));
#597=CARTESIAN_POINT('Origin',(-18.0000002682209,-46.0000006854534,0.));
#598=CARTESIAN_POINT('',(-13.2506620917216,-47.8584373632141,0.));
#599=CARTESIAN_POINT('',(-13.2506620917217,-47.8584373632143,-2.75));
#600=CARTESIAN_POINT('',(-13.2506620917216,-47.8584373632141,0.));
#601=CARTESIAN_POINT('',(-22.7493384447202,-44.1415640076928,-2.75));
#602=CARTESIAN_POINT('Origin',(-18.0000002682209,-46.0000006854534,-2.75));
#603=CARTESIAN_POINT('',(-22.7493384447202,-44.1415640076928,0.));
#604=CARTESIAN_POINT('',(-22.7493384447202,-44.1415640076928,0.));
#605=CARTESIAN_POINT('Origin',(-18.0000002682209,-46.0000006854534,0.));
#606=CARTESIAN_POINT('Origin',(-18.0000002682209,-46.0000006854534,-2.75));
#607=CARTESIAN_POINT('Origin',(-18.0000002682209,-46.0000006854534,-2.75));
#608=CARTESIAN_POINT('Origin',(38.9287555033491,32.0708838248799,0.));
#609=CARTESIAN_POINT('',(35.6859258916845,36.0071328146869,-5.));
#610=CARTESIAN_POINT('',(35.6859258916845,36.0071328146869,0.));
#611=CARTESIAN_POINT('',(42.1715851150136,28.134634835073,-5.));
#612=CARTESIAN_POINT('Origin',(38.9287555033491,32.0708838248799,-5.));
#613=CARTESIAN_POINT('',(42.1715851150136,28.134634835073,0.));
#614=CARTESIAN_POINT('Origin',(-13.2506620917216,-47.8584373632141,0.));
#615=CARTESIAN_POINT('',(-18.4980551199977,-61.2684417688059,0.));
#616=CARTESIAN_POINT('',(-13.2506620917216,-47.8584373632141,0.));
#617=CARTESIAN_POINT('',(-18.4980551199977,-61.2684417688059,-5.));
#618=CARTESIAN_POINT('',(-18.4980551199976,-61.2684417688057,0.));
#619=CARTESIAN_POINT('',(-13.2506620917216,-47.8584373632141,-5.));
#620=CARTESIAN_POINT('',(-13.2506620917216,-47.8584373632141,-5.));
#621=CARTESIAN_POINT('',(-13.2506620917216,-47.8584373632141,0.));
#622=CARTESIAN_POINT('Origin',(-18.0000002682209,-46.0000006854534,0.));
#623=CARTESIAN_POINT('',(-22.7493384447202,-44.1415640076928,-5.));
#624=CARTESIAN_POINT('Origin',(-18.0000002682209,-46.0000006854534,-5.));
#625=CARTESIAN_POINT('',(-22.7493384447202,-44.1415640076928,0.));
#626=CARTESIAN_POINT('Origin',(-27.9967314729956,-57.5515684132849,0.));
#627=CARTESIAN_POINT('',(-27.9967314729956,-57.5515684132849,0.));
#628=CARTESIAN_POINT('',(-22.7493384447202,-44.1415640076928,0.));
#629=CARTESIAN_POINT('',(-27.9967314729956,-57.5515684132849,-5.));
#630=CARTESIAN_POINT('',(-22.7493384447202,-44.1415640076928,-5.));
#631=CARTESIAN_POINT('',(-27.9967314729955,-57.5515684132847,0.));
#632=CARTESIAN_POINT('Origin',(-20.4483658706082,-51.0842212271297,-5.));
#633=CARTESIAN_POINT('Origin',(0.,0.,-5.));
#634=CARTESIAN_POINT('Origin',(0.,0.,0.));
#635=CARTESIAN_POINT('',(37.9250745924863,-51.5527760373231,0.));
#636=CARTESIAN_POINT('Origin',(0.,0.,0.));
#637=CARTESIAN_POINT('',(37.9250745924863,-51.5527760373231,-5.));
#638=CARTESIAN_POINT('',(37.9250745924861,-51.5527760373228,0.));
#639=CARTESIAN_POINT('',(45.633513961876,-44.8729584882845,-5.));
#640=CARTESIAN_POINT('Origin',(0.,0.,-5.));
#641=CARTESIAN_POINT('',(45.633513961876,-44.8729584882845,0.));
#642=CARTESIAN_POINT('',(45.6335139618758,-44.8729584882843,0.));
#643=CARTESIAN_POINT('',(52.4818106724785,36.628671127208,0.));
#644=CARTESIAN_POINT('Origin',(0.,0.,0.));
#645=CARTESIAN_POINT('',(52.4818106724785,36.628671127208,-5.));
#646=CARTESIAN_POINT('',(52.4818106724359,36.6286711271729,0.));
#647=CARTESIAN_POINT('',(45.9961514491493,44.5011691068218,-5.));
#648=CARTESIAN_POINT('Origin',(0.,0.,-5.));
#649=CARTESIAN_POINT('',(45.9961514491493,44.5011691068218,0.));
#650=CARTESIAN_POINT('',(45.9961514491068,44.5011691067868,0.));
#651=CARTESIAN_POINT('',(-64.,7.83773951454306E-15,0.));
#652=CARTESIAN_POINT('Origin',(0.,0.,0.));
#653=CARTESIAN_POINT('',(-64.,7.83773951454306E-15,-35.));
#654=CARTESIAN_POINT('',(-64.,7.83773951454306E-15,0.));
#655=CARTESIAN_POINT('Origin',(0.,0.,-35.));
#656=CARTESIAN_POINT('Origin',(0.,0.,0.));
#657=CARTESIAN_POINT('Origin',(36.6195401077486,-34.4709272319359,0.));
#658=CARTESIAN_POINT('',(36.6195401077486,-34.4709272319359,0.));
#659=CARTESIAN_POINT('',(36.6195401077486,-34.4709272319359,-5.));
#660=CARTESIAN_POINT('',(36.6195401077486,-34.4709272319359,-5.));
#661=CARTESIAN_POINT('',(36.6195401077486,-34.4709272319359,0.));
#662=CARTESIAN_POINT('Origin',(32.7653204230538,-37.8108360064552,0.));
#663=CARTESIAN_POINT('',(28.9111007383589,-41.1507447809744,-5.));
#664=CARTESIAN_POINT('Origin',(32.7653204230538,-37.8108360064552,-5.));
#665=CARTESIAN_POINT('',(28.9111007383589,-41.1507447809744,0.));
#666=CARTESIAN_POINT('Origin',(37.9250745924863,-51.5527760373231,0.));
#667=CARTESIAN_POINT('',(28.9111007383589,-41.1507447809744,0.));
#668=CARTESIAN_POINT('',(28.9111007383589,-41.1507447809744,-5.));
#669=CARTESIAN_POINT('Origin',(36.6494171924649,-42.1318060218891,-5.));
#670=CARTESIAN_POINT('Origin',(52.4818106724785,36.628671127208,0.));
#671=CARTESIAN_POINT('',(42.1715851150136,28.134634835073,0.));
#672=CARTESIAN_POINT('',(42.1715851150136,28.134634835073,-5.));
#673=CARTESIAN_POINT('Origin',(35.6859258916845,36.0071328146869,0.));
#674=CARTESIAN_POINT('',(35.6859258916845,36.0071328146869,0.));
#675=CARTESIAN_POINT('',(35.6859258916845,36.0071328146869,-5.));
#676=CARTESIAN_POINT('Origin',(43.1552830879138,35.7360264658509,-5.));
#677=CARTESIAN_POINT('Origin',(0.,0.,-35.));
#678=CARTESIAN_POINT('Origin',(0.,0.,0.));
#679=CARTESIAN_POINT('',(-66.,-8.08266887437253E-15,-37.));
#680=CARTESIAN_POINT('Origin',(0.,0.,-37.));
#681=CARTESIAN_POINT('',(-66.,-8.08266887437253E-15,0.));
#682=CARTESIAN_POINT('',(-66.,8.08266887437253E-15,0.));
#683=CARTESIAN_POINT('Origin',(0.,0.,0.));
#684=CARTESIAN_POINT('Origin',(0.,0.,0.));
#685=CARTESIAN_POINT('Origin',(0.,0.,-37.));
#686=UNCERTAINTY_MEASURE_WITH_UNIT(LENGTH_MEASURE(0.01),#690,
'DISTANCE_ACCURACY_VALUE',
'Maximum model space distance between geometric entities at asserted c
onnectivities');
#687=UNCERTAINTY_MEASURE_WITH_UNIT(LENGTH_MEASURE(0.01),#690,
'DISTANCE_ACCURACY_VALUE',
'Maximum model space distance between geometric entities at asserted c
onnectivities');
#688=(
GEOMETRIC_REPRESENTATION_CONTEXT(3)
GLOBAL_UNCERTAINTY_ASSIGNED_CONTEXT((#686))
GLOBAL_UNIT_ASSIGNED_CONTEXT((#690,#692,#693))
REPRESENTATION_CONTEXT('','3D')
);
#689=(
GEOMETRIC_REPRESENTATION_CONTEXT(3)
GLOBAL_UNCERTAINTY_ASSIGNED_CONTEXT((#687))
GLOBAL_UNIT_ASSIGNED_CONTEXT((#690,#692,#693))
REPRESENTATION_CONTEXT('','3D')
);
#690=(
LENGTH_UNIT()
NAMED_UNIT(*)
SI_UNIT(.MILLI.,.METRE.)
);
#691=(
LENGTH_UNIT()
NAMED_UNIT(*)
SI_UNIT($,.METRE.)
);
#692=(
NAMED_UNIT(*)
PLANE_ANGLE_UNIT()
SI_UNIT($,.RADIAN.)
);
#693=(
NAMED_UNIT(*)
SI_UNIT($,.STERADIAN.)
SOLID_ANGLE_UNIT()
);
#694=SHAPE_DEFINITION_REPRESENTATION(#695,#696);
#695=PRODUCT_DEFINITION_SHAPE('',$,#698);
#696=SHAPE_REPRESENTATION('',(#404),#688);
#697=PRODUCT_DEFINITION_CONTEXT('part definition',#702,'design');
#698=PRODUCT_DEFINITION('OutShellBase2','OutShellBase2 v3',#699,#697);
#699=PRODUCT_DEFINITION_FORMATION('',$,#704);
#700=PRODUCT_RELATED_PRODUCT_CATEGORY('OutShellBase2 v3',
'OutShellBase2 v3',(#704));
#701=APPLICATION_PROTOCOL_DEFINITION('international standard',
'automotive_design',2009,#702);
#702=APPLICATION_CONTEXT(
'Core Data for Automotive Mechanical Design Process');
#703=PRODUCT_CONTEXT('part definition',#702,'mechanical');
#704=PRODUCT('OutShellBase2','OutShellBase2 v3',$,(#703));
#705=PRESENTATION_STYLE_ASSIGNMENT((#706));
#706=SURFACE_STYLE_USAGE(.BOTH.,#707);
#707=SURFACE_SIDE_STYLE('',(#708));
#708=SURFACE_STYLE_FILL_AREA(#709);
#709=FILL_AREA_STYLE('Steel - Satin',(#710));
#710=FILL_AREA_STYLE_COLOUR('Steel - Satin',#711);
#711=COLOUR_RGB('Steel - Satin',0.627450980392157,0.627450980392157,0.627450980392157);
ENDSEC;
END-ISO-10303-21;
