ISO-10303-21;
HEADER;
/* Generated by software containing ST-Developer
 * from STEP Tools, Inc. (www.steptools.com) 
 */

FILE_DESCRIPTION(
/* description */ (''),
/* implementation_level */ '2;1');

FILE_NAME(
/* name */ 'MotorMount_v1.step',
/* time_stamp */ '2026-08-21T09:22:03-04:00',
/* author */ (''),
/* organization */ (''),
/* preprocessor_version */ 'ST-DEVELOPER v20.1',
/* originating_system */ 'Autodesk Translation Framework v15.8.0.0',
/* authorisation */ '');

FILE_SCHEMA (('AUTOMOTIVE_DESIGN { 1 0 10303 214 3 1 1 }'));
ENDSEC;

DATA;
#10=MECHANICAL_DESIGN_GEOMETRIC_PRESENTATION_REPRESENTATION('',(#13),#337);
#11=SHAPE_REPRESENTATION_RELATIONSHIP('SRR','None',#344,#12);
#12=ADVANCED_BREP_SHAPE_REPRESENTATION('',(#14),#336);
#13=STYLED_ITEM('',(#353),#14);
#14=MANIFOLD_SOLID_BREP('Body1',#193);
#15=FACE_BOUND('',#45,.T.);
#16=FACE_BOUND('',#46,.T.);
#17=FACE_BOUND('',#47,.T.);
#18=FACE_BOUND('',#49,.T.);
#19=FACE_BOUND('',#50,.T.);
#20=FACE_BOUND('',#51,.T.);
#21=PLANE('',#216);
#22=PLANE('',#217);
#23=PLANE('',#221);
#24=PLANE('',#225);
#25=PLANE('',#226);
#26=FACE_OUTER_BOUND('',#36,.T.);
#27=FACE_OUTER_BOUND('',#37,.T.);
#28=FACE_OUTER_BOUND('',#38,.T.);
#29=FACE_OUTER_BOUND('',#39,.T.);
#30=FACE_OUTER_BOUND('',#40,.T.);
#31=FACE_OUTER_BOUND('',#41,.T.);
#32=FACE_OUTER_BOUND('',#42,.T.);
#33=FACE_OUTER_BOUND('',#43,.T.);
#34=FACE_OUTER_BOUND('',#44,.T.);
#35=FACE_OUTER_BOUND('',#48,.T.);
#36=EDGE_LOOP('',(#130,#131,#132,#133));
#37=EDGE_LOOP('',(#134,#135,#136,#137));
#38=EDGE_LOOP('',(#138,#139,#140,#141));
#39=EDGE_LOOP('',(#142,#143,#144,#145));
#40=EDGE_LOOP('',(#146,#147,#148,#149));
#41=EDGE_LOOP('',(#150,#151,#152,#153));
#42=EDGE_LOOP('',(#154,#155,#156,#157));
#43=EDGE_LOOP('',(#158,#159,#160,#161));
#44=EDGE_LOOP('',(#162,#163,#164,#165,#166));
#45=EDGE_LOOP('',(#167));
#46=EDGE_LOOP('',(#168));
#47=EDGE_LOOP('',(#169));
#48=EDGE_LOOP('',(#170,#171,#172,#173,#174));
#49=EDGE_LOOP('',(#175));
#50=EDGE_LOOP('',(#176));
#51=EDGE_LOOP('',(#177));
#52=LINE('',#288,#66);
#53=LINE('',#294,#67);
#54=LINE('',#300,#68);
#55=LINE('',#305,#69);
#56=LINE('',#307,#70);
#57=LINE('',#309,#71);
#58=LINE('',#310,#72);
#59=LINE('',#313,#73);
#60=LINE('',#315,#74);
#61=LINE('',#316,#75);
#62=LINE('',#322,#76);
#63=LINE('',#325,#77);
#64=LINE('',#327,#78);
#65=LINE('',#328,#79);
#66=VECTOR('',#233,2.);
#67=VECTOR('',#240,2.);
#68=VECTOR('',#247,2.);
#69=VECTOR('',#252,10.);
#70=VECTOR('',#253,10.);
#71=VECTOR('',#254,10.);
#72=VECTOR('',#255,10.);
#73=VECTOR('',#258,10.);
#74=VECTOR('',#259,10.);
#75=VECTOR('',#260,10.);
#76=VECTOR('',#267,10.);
#77=VECTOR('',#270,10.);
#78=VECTOR('',#271,10.);
#79=VECTOR('',#272,10.);
#80=CIRCLE('',#208,2.);
#81=CIRCLE('',#209,2.);
#82=CIRCLE('',#211,2.);
#83=CIRCLE('',#212,2.);
#84=CIRCLE('',#214,2.);
#85=CIRCLE('',#215,2.);
#86=CIRCLE('',#219,2.);
#87=CIRCLE('',#220,2.);
#88=CIRCLE('',#223,16.5160943949593);
#89=CIRCLE('',#224,16.5160943949593);
#90=VERTEX_POINT('',#285);
#91=VERTEX_POINT('',#287);
#92=VERTEX_POINT('',#291);
#93=VERTEX_POINT('',#293);
#94=VERTEX_POINT('',#297);
#95=VERTEX_POINT('',#299);
#96=VERTEX_POINT('',#303);
#97=VERTEX_POINT('',#304);
#98=VERTEX_POINT('',#306);
#99=VERTEX_POINT('',#308);
#100=VERTEX_POINT('',#312);
#101=VERTEX_POINT('',#314);
#102=VERTEX_POINT('',#318);
#103=VERTEX_POINT('',#320);
#104=VERTEX_POINT('',#324);
#105=VERTEX_POINT('',#326);
#106=EDGE_CURVE('',#90,#90,#80,.T.);
#107=EDGE_CURVE('',#90,#91,#52,.T.);
#108=EDGE_CURVE('',#91,#91,#81,.T.);
#109=EDGE_CURVE('',#92,#92,#82,.T.);
#110=EDGE_CURVE('',#92,#93,#53,.T.);
#111=EDGE_CURVE('',#93,#93,#83,.T.);
#112=EDGE_CURVE('',#94,#94,#84,.T.);
#113=EDGE_CURVE('',#94,#95,#54,.T.);
#114=EDGE_CURVE('',#95,#95,#85,.T.);
#115=EDGE_CURVE('',#96,#97,#55,.T.);
#116=EDGE_CURVE('',#97,#98,#56,.T.);
#117=EDGE_CURVE('',#99,#98,#57,.T.);
#118=EDGE_CURVE('',#96,#99,#58,.T.);
#119=EDGE_CURVE('',#96,#100,#59,.T.);
#120=EDGE_CURVE('',#101,#99,#60,.T.);
#121=EDGE_CURVE('',#100,#101,#61,.T.);
#122=EDGE_CURVE('',#100,#102,#86,.T.);
#123=EDGE_CURVE('',#103,#101,#87,.T.);
#124=EDGE_CURVE('',#102,#103,#62,.T.);
#125=EDGE_CURVE('',#102,#104,#63,.T.);
#126=EDGE_CURVE('',#105,#103,#64,.T.);
#127=EDGE_CURVE('',#104,#105,#65,.T.);
#128=EDGE_CURVE('',#97,#104,#88,.T.);
#129=EDGE_CURVE('',#98,#105,#89,.T.);
#130=ORIENTED_EDGE('',*,*,#106,.F.);
#131=ORIENTED_EDGE('',*,*,#107,.T.);
#132=ORIENTED_EDGE('',*,*,#108,.T.);
#133=ORIENTED_EDGE('',*,*,#107,.F.);
#134=ORIENTED_EDGE('',*,*,#109,.F.);
#135=ORIENTED_EDGE('',*,*,#110,.T.);
#136=ORIENTED_EDGE('',*,*,#111,.T.);
#137=ORIENTED_EDGE('',*,*,#110,.F.);
#138=ORIENTED_EDGE('',*,*,#112,.F.);
#139=ORIENTED_EDGE('',*,*,#113,.T.);
#140=ORIENTED_EDGE('',*,*,#114,.T.);
#141=ORIENTED_EDGE('',*,*,#113,.F.);
#142=ORIENTED_EDGE('',*,*,#115,.T.);
#143=ORIENTED_EDGE('',*,*,#116,.T.);
#144=ORIENTED_EDGE('',*,*,#117,.F.);
#145=ORIENTED_EDGE('',*,*,#118,.F.);
#146=ORIENTED_EDGE('',*,*,#119,.F.);
#147=ORIENTED_EDGE('',*,*,#118,.T.);
#148=ORIENTED_EDGE('',*,*,#120,.F.);
#149=ORIENTED_EDGE('',*,*,#121,.F.);
#150=ORIENTED_EDGE('',*,*,#122,.F.);
#151=ORIENTED_EDGE('',*,*,#121,.T.);
#152=ORIENTED_EDGE('',*,*,#123,.F.);
#153=ORIENTED_EDGE('',*,*,#124,.F.);
#154=ORIENTED_EDGE('',*,*,#125,.F.);
#155=ORIENTED_EDGE('',*,*,#124,.T.);
#156=ORIENTED_EDGE('',*,*,#126,.F.);
#157=ORIENTED_EDGE('',*,*,#127,.F.);
#158=ORIENTED_EDGE('',*,*,#128,.T.);
#159=ORIENTED_EDGE('',*,*,#127,.T.);
#160=ORIENTED_EDGE('',*,*,#129,.F.);
#161=ORIENTED_EDGE('',*,*,#116,.F.);
#162=ORIENTED_EDGE('',*,*,#129,.T.);
#163=ORIENTED_EDGE('',*,*,#126,.T.);
#164=ORIENTED_EDGE('',*,*,#123,.T.);
#165=ORIENTED_EDGE('',*,*,#120,.T.);
#166=ORIENTED_EDGE('',*,*,#117,.T.);
#167=ORIENTED_EDGE('',*,*,#112,.T.);
#168=ORIENTED_EDGE('',*,*,#109,.T.);
#169=ORIENTED_EDGE('',*,*,#106,.T.);
#170=ORIENTED_EDGE('',*,*,#128,.F.);
#171=ORIENTED_EDGE('',*,*,#115,.F.);
#172=ORIENTED_EDGE('',*,*,#119,.T.);
#173=ORIENTED_EDGE('',*,*,#122,.T.);
#174=ORIENTED_EDGE('',*,*,#125,.T.);
#175=ORIENTED_EDGE('',*,*,#114,.F.);
#176=ORIENTED_EDGE('',*,*,#111,.F.);
#177=ORIENTED_EDGE('',*,*,#108,.F.);
#178=CYLINDRICAL_SURFACE('',#207,2.);
#179=CYLINDRICAL_SURFACE('',#210,2.);
#180=CYLINDRICAL_SURFACE('',#213,2.);
#181=CYLINDRICAL_SURFACE('',#218,2.);
#182=CYLINDRICAL_SURFACE('',#222,16.5160943949593);
#183=ADVANCED_FACE('',(#26),#178,.F.);
#184=ADVANCED_FACE('',(#27),#179,.F.);
#185=ADVANCED_FACE('',(#28),#180,.F.);
#186=ADVANCED_FACE('',(#29),#21,.T.);
#187=ADVANCED_FACE('',(#30),#22,.T.);
#188=ADVANCED_FACE('',(#31),#181,.F.);
#189=ADVANCED_FACE('',(#32),#23,.T.);
#190=ADVANCED_FACE('',(#33),#182,.T.);
#191=ADVANCED_FACE('',(#34,#15,#16,#17),#24,.T.);
#192=ADVANCED_FACE('',(#35,#18,#19,#20),#25,.F.);
#193=CLOSED_SHELL('',(#183,#184,#185,#186,#187,#188,#189,#190,#191,#192));
#194=DERIVED_UNIT_ELEMENT(#196,1.);
#195=DERIVED_UNIT_ELEMENT(#339,-3.);
#196=(
MASS_UNIT()
NAMED_UNIT(*)
SI_UNIT(.KILO.,.GRAM.)
);
#197=DERIVED_UNIT((#194,#195));
#198=MEASURE_REPRESENTATION_ITEM('density measure',
POSITIVE_RATIO_MEASURE(7850.),#197);
#199=PROPERTY_DEFINITION_REPRESENTATION(#204,#201);
#200=PROPERTY_DEFINITION_REPRESENTATION(#205,#202);
#201=REPRESENTATION('material name',(#203),#336);
#202=REPRESENTATION('density',(#198),#336);
#203=DESCRIPTIVE_REPRESENTATION_ITEM('Steel','Steel');
#204=PROPERTY_DEFINITION('material property','material name',#346);
#205=PROPERTY_DEFINITION('material property','density of part',#346);
#206=AXIS2_PLACEMENT_3D('',#283,#227,#228);
#207=AXIS2_PLACEMENT_3D('',#284,#229,#230);
#208=AXIS2_PLACEMENT_3D('',#286,#231,#232);
#209=AXIS2_PLACEMENT_3D('',#289,#234,#235);
#210=AXIS2_PLACEMENT_3D('',#290,#236,#237);
#211=AXIS2_PLACEMENT_3D('',#292,#238,#239);
#212=AXIS2_PLACEMENT_3D('',#295,#241,#242);
#213=AXIS2_PLACEMENT_3D('',#296,#243,#244);
#214=AXIS2_PLACEMENT_3D('',#298,#245,#246);
#215=AXIS2_PLACEMENT_3D('',#301,#248,#249);
#216=AXIS2_PLACEMENT_3D('',#302,#250,#251);
#217=AXIS2_PLACEMENT_3D('',#311,#256,#257);
#218=AXIS2_PLACEMENT_3D('',#317,#261,#262);
#219=AXIS2_PLACEMENT_3D('',#319,#263,#264);
#220=AXIS2_PLACEMENT_3D('',#321,#265,#266);
#221=AXIS2_PLACEMENT_3D('',#323,#268,#269);
#222=AXIS2_PLACEMENT_3D('',#329,#273,#274);
#223=AXIS2_PLACEMENT_3D('',#330,#275,#276);
#224=AXIS2_PLACEMENT_3D('',#331,#277,#278);
#225=AXIS2_PLACEMENT_3D('',#332,#279,#280);
#226=AXIS2_PLACEMENT_3D('',#333,#281,#282);
#227=DIRECTION('axis',(0.,0.,1.));
#228=DIRECTION('refdir',(1.,0.,0.));
#229=DIRECTION('center_axis',(0.,0.,1.));
#230=DIRECTION('ref_axis',(-1.,0.,0.));
#231=DIRECTION('center_axis',(0.,0.,-1.));
#232=DIRECTION('ref_axis',(-1.,0.,0.));
#233=DIRECTION('',(0.,0.,-1.));
#234=DIRECTION('center_axis',(0.,0.,-1.));
#235=DIRECTION('ref_axis',(-1.,0.,0.));
#236=DIRECTION('center_axis',(0.,0.,1.));
#237=DIRECTION('ref_axis',(-1.,0.,0.));
#238=DIRECTION('center_axis',(0.,0.,-1.));
#239=DIRECTION('ref_axis',(-1.,0.,0.));
#240=DIRECTION('',(0.,0.,-1.));
#241=DIRECTION('center_axis',(0.,0.,-1.));
#242=DIRECTION('ref_axis',(-1.,0.,0.));
#243=DIRECTION('center_axis',(0.,0.,1.));
#244=DIRECTION('ref_axis',(-1.,0.,0.));
#245=DIRECTION('center_axis',(0.,0.,-1.));
#246=DIRECTION('ref_axis',(-1.,0.,0.));
#247=DIRECTION('',(0.,0.,-1.));
#248=DIRECTION('center_axis',(0.,0.,-1.));
#249=DIRECTION('ref_axis',(-1.,0.,0.));
#250=DIRECTION('center_axis',(0.809016994374947,0.587785252292474,0.));
#251=DIRECTION('ref_axis',(-0.587785252292474,0.809016994374947,0.));
#252=DIRECTION('',(-0.587785252292474,0.809016994374947,0.));
#253=DIRECTION('',(0.,0.,1.));
#254=DIRECTION('',(-0.587785252292474,0.809016994374947,0.));
#255=DIRECTION('',(0.,0.,1.));
#256=DIRECTION('center_axis',(-0.292371704722736,0.956304755963036,0.));
#257=DIRECTION('ref_axis',(-0.956304755963036,-0.292371704722736,0.));
#258=DIRECTION('',(0.956304755963036,0.292371704722736,0.));
#259=DIRECTION('',(-0.956304755963036,-0.292371704722736,0.));
#260=DIRECTION('',(0.,0.,1.));
#261=DIRECTION('center_axis',(0.,0.,1.));
#262=DIRECTION('ref_axis',(0.292371704722736,-0.956304755963036,0.));
#263=DIRECTION('center_axis',(0.,0.,1.));
#264=DIRECTION('ref_axis',(-1.,0.,0.));
#265=DIRECTION('center_axis',(0.,0.,-1.));
#266=DIRECTION('ref_axis',(-1.,0.,0.));
#267=DIRECTION('',(0.,0.,1.));
#268=DIRECTION('center_axis',(-0.292371704722736,0.956304755963036,0.));
#269=DIRECTION('ref_axis',(-0.956304755963036,-0.292371704722736,0.));
#270=DIRECTION('',(0.956304755963036,0.292371704722736,0.));
#271=DIRECTION('',(-0.956304755963036,-0.292371704722736,0.));
#272=DIRECTION('',(0.,0.,1.));
#273=DIRECTION('center_axis',(0.,0.,1.));
#274=DIRECTION('ref_axis',(-0.317304656405092,-0.948323655206199,0.));
#275=DIRECTION('center_axis',(0.,0.,1.));
#276=DIRECTION('ref_axis',(-1.,0.,0.));
#277=DIRECTION('center_axis',(0.,0.,1.));
#278=DIRECTION('ref_axis',(-1.,0.,0.));
#279=DIRECTION('center_axis',(0.,0.,1.));
#280=DIRECTION('ref_axis',(-1.,0.,0.));
#281=DIRECTION('center_axis',(0.,0.,1.));
#282=DIRECTION('ref_axis',(-1.,0.,0.));
#283=CARTESIAN_POINT('',(0.,0.,0.));
#284=CARTESIAN_POINT('Origin',(-5.99999991059303,-8.25829139976891,6.75));
#285=CARTESIAN_POINT('',(-3.99999991059303,-8.25829139976891,10.75));
#286=CARTESIAN_POINT('Origin',(-5.99999991059303,-8.25829139976891,10.75));
#287=CARTESIAN_POINT('',(-3.99999991059303,-8.25829139976891,6.75));
#288=CARTESIAN_POINT('',(-3.99999991059303,-8.25829139976891,6.75));
#289=CARTESIAN_POINT('Origin',(-5.99999991059303,-8.25829139976891,6.75));
#290=CARTESIAN_POINT('Origin',(5.99999991059303,-8.25829139976891,6.75));
#291=CARTESIAN_POINT('',(7.99999991059303,-8.25829139976891,10.75));
#292=CARTESIAN_POINT('Origin',(5.99999991059303,-8.25829139976891,10.75));
#293=CARTESIAN_POINT('',(7.99999991059303,-8.25829139976891,6.75));
#294=CARTESIAN_POINT('',(7.99999991059303,-8.25829139976891,6.75));
#295=CARTESIAN_POINT('Origin',(5.99999991059303,-8.25829139976891,6.75));
#296=CARTESIAN_POINT('Origin',(-9.70820378783586,3.15438662571078,6.75));
#297=CARTESIAN_POINT('',(-7.70820378783585,3.15438662571078,10.75));
#298=CARTESIAN_POINT('Origin',(-9.70820378783586,3.15438662571078,10.75));
#299=CARTESIAN_POINT('',(-7.70820378783585,3.15438662571078,6.75));
#300=CARTESIAN_POINT('',(-7.70820378783585,3.15438662571078,6.75));
#301=CARTESIAN_POINT('Origin',(-9.70820378783586,3.15438662571078,6.75));
#302=CARTESIAN_POINT('Origin',(0.,0.,6.75));
#303=CARTESIAN_POINT('',(0.,0.,6.75));
#304=CARTESIAN_POINT('',(-9.70791671082749,13.3618010462229,6.75));
#305=CARTESIAN_POINT('',(0.,0.,6.75));
#306=CARTESIAN_POINT('',(-9.70791671082749,13.3618010462229,10.75));
#307=CARTESIAN_POINT('',(-9.70791671082749,13.3618010462229,6.75));
#308=CARTESIAN_POINT('',(0.,0.,10.75));
#309=CARTESIAN_POINT('',(0.,0.,10.75));
#310=CARTESIAN_POINT('',(0.,0.,6.75));
#311=CARTESIAN_POINT('Origin',(7.85528338577019,2.40160114258241,6.75));
#312=CARTESIAN_POINT('',(7.85528338577019,2.40160114258241,6.75));
#313=CARTESIAN_POINT('',(0.,0.,6.75));
#314=CARTESIAN_POINT('',(7.85528338577019,2.40160114258241,10.75));
#315=CARTESIAN_POINT('',(0.,0.,10.75));
#316=CARTESIAN_POINT('',(7.85528338577019,2.40160114258241,6.75));
#317=CARTESIAN_POINT('Origin',(9.70820378783586,3.15438662571078,6.75));
#318=CARTESIAN_POINT('',(11.6652967201033,3.56643911565464,6.75));
#319=CARTESIAN_POINT('Origin',(9.70820378783586,3.15438662571078,6.75));
#320=CARTESIAN_POINT('',(11.6652967201033,3.56643911565464,10.75));
#321=CARTESIAN_POINT('Origin',(9.70820378783586,3.15438662571078,10.75));
#322=CARTESIAN_POINT('',(11.6652967201033,3.56643911565464,6.75));
#323=CARTESIAN_POINT('Origin',(15.7944196198341,4.8288386736159,6.75));
#324=CARTESIAN_POINT('',(15.7944196198341,4.8288386736159,6.75));
#325=CARTESIAN_POINT('',(0.,0.,6.75));
#326=CARTESIAN_POINT('',(15.7944196198341,4.8288386736159,10.75));
#327=CARTESIAN_POINT('',(0.,0.,10.75));
#328=CARTESIAN_POINT('',(15.7944196198341,4.8288386736159,6.75));
#329=CARTESIAN_POINT('Origin',(0.,0.,6.75));
#330=CARTESIAN_POINT('Origin',(0.,0.,6.75));
#331=CARTESIAN_POINT('Origin',(0.,0.,10.75));
#332=CARTESIAN_POINT('Origin',(0.,-1.57714667436821,10.75));
#333=CARTESIAN_POINT('Origin',(0.,-1.57714667436821,6.75));
#334=UNCERTAINTY_MEASURE_WITH_UNIT(LENGTH_MEASURE(0.01),#338,
'DISTANCE_ACCURACY_VALUE',
'Maximum model space distance between geometric entities at asserted c
onnectivities');
#335=UNCERTAINTY_MEASURE_WITH_UNIT(LENGTH_MEASURE(0.01),#338,
'DISTANCE_ACCURACY_VALUE',
'Maximum model space distance between geometric entities at asserted c
onnectivities');
#336=(
GEOMETRIC_REPRESENTATION_CONTEXT(3)
GLOBAL_UNCERTAINTY_ASSIGNED_CONTEXT((#334))
GLOBAL_UNIT_ASSIGNED_CONTEXT((#338,#340,#341))
REPRESENTATION_CONTEXT('','3D')
);
#337=(
GEOMETRIC_REPRESENTATION_CONTEXT(3)
GLOBAL_UNCERTAINTY_ASSIGNED_CONTEXT((#335))
GLOBAL_UNIT_ASSIGNED_CONTEXT((#338,#340,#341))
REPRESENTATION_CONTEXT('','3D')
);
#338=(
LENGTH_UNIT()
NAMED_UNIT(*)
SI_UNIT(.MILLI.,.METRE.)
);
#339=(
LENGTH_UNIT()
NAMED_UNIT(*)
SI_UNIT($,.METRE.)
);
#340=(
NAMED_UNIT(*)
PLANE_ANGLE_UNIT()
SI_UNIT($,.RADIAN.)
);
#341=(
NAMED_UNIT(*)
SI_UNIT($,.STERADIAN.)
SOLID_ANGLE_UNIT()
);
#342=SHAPE_DEFINITION_REPRESENTATION(#343,#344);
#343=PRODUCT_DEFINITION_SHAPE('',$,#346);
#344=SHAPE_REPRESENTATION('',(#206),#336);
#345=PRODUCT_DEFINITION_CONTEXT('part definition',#350,'design');
#346=PRODUCT_DEFINITION('MotorMount','MotorMount v1',#347,#345);
#347=PRODUCT_DEFINITION_FORMATION('',$,#352);
#348=PRODUCT_RELATED_PRODUCT_CATEGORY('MotorMount v1','MotorMount v1',(#352));
#349=APPLICATION_PROTOCOL_DEFINITION('international standard',
'automotive_design',2009,#350);
#350=APPLICATION_CONTEXT(
'Core Data for Automotive Mechanical Design Process');
#351=PRODUCT_CONTEXT('part definition',#350,'mechanical');
#352=PRODUCT('MotorMount','MotorMount v1',$,(#351));
#353=PRESENTATION_STYLE_ASSIGNMENT((#354));
#354=SURFACE_STYLE_USAGE(.BOTH.,#355);
#355=SURFACE_SIDE_STYLE('',(#356));
#356=SURFACE_STYLE_FILL_AREA(#357);
#357=FILL_AREA_STYLE('Steel - Satin',(#358));
#358=FILL_AREA_STYLE_COLOUR('Steel - Satin',#359);
#359=COLOUR_RGB('Steel - Satin',0.627450980392157,0.627450980392157,0.627450980392157);
ENDSEC;
END-ISO-10303-21;
