ISO-10303-21;
HEADER;
/* Generated by software containing ST-Developer
 * from STEP Tools, Inc. (www.steptools.com) 
 */

FILE_DESCRIPTION(
/* description */ (''),
/* implementation_level */ '2;1');

FILE_NAME(
/* name */ 'MotorMount_v4.step',
/* time_stamp */ '2026-08-21T09:22:04-04:00',
/* author */ (''),
/* organization */ (''),
/* preprocessor_version */ 'ST-DEVELOPER v20.1',
/* originating_system */ 'Autodesk Translation Framework v15.8.0.0',
/* authorisation */ '');

FILE_SCHEMA (('AUTOMOTIVE_DESIGN { 1 0 10303 214 3 1 1 }'));
ENDSEC;

DATA;
#10=MECHANICAL_DESIGN_GEOMETRIC_PRESENTATION_REPRESENTATION('',(#13),#650);
#11=SHAPE_REPRESENTATION_RELATIONSHIP('SRR','None',#657,#12);
#12=ADVANCED_BREP_SHAPE_REPRESENTATION('',(#14),#649);
#13=STYLED_ITEM('',(#666),#14);
#14=MANIFOLD_SOLID_BREP('Body1',#374);
#15=FACE_BOUND('',#53,.T.);
#16=FACE_BOUND('',#54,.T.);
#17=FACE_BOUND('',#55,.T.);
#18=FACE_BOUND('',#56,.T.);
#19=FACE_BOUND('',#73,.T.);
#20=FACE_BOUND('',#74,.T.);
#21=FACE_BOUND('',#75,.T.);
#22=FACE_BOUND('',#76,.T.);
#23=PLANE('',#391);
#24=PLANE('',#392);
#25=PLANE('',#405);
#26=PLANE('',#412);
#27=PLANE('',#421);
#28=PLANE('',#424);
#29=PLANE('',#425);
#30=PLANE('',#428);
#31=FACE_OUTER_BOUND('',#50,.T.);
#32=FACE_OUTER_BOUND('',#51,.T.);
#33=FACE_OUTER_BOUND('',#52,.T.);
#34=FACE_OUTER_BOUND('',#57,.T.);
#35=FACE_OUTER_BOUND('',#58,.T.);
#36=FACE_OUTER_BOUND('',#59,.T.);
#37=FACE_OUTER_BOUND('',#60,.T.);
#38=FACE_OUTER_BOUND('',#61,.T.);
#39=FACE_OUTER_BOUND('',#62,.T.);
#40=FACE_OUTER_BOUND('',#63,.T.);
#41=FACE_OUTER_BOUND('',#64,.T.);
#42=FACE_OUTER_BOUND('',#65,.T.);
#43=FACE_OUTER_BOUND('',#66,.T.);
#44=FACE_OUTER_BOUND('',#67,.T.);
#45=FACE_OUTER_BOUND('',#68,.T.);
#46=FACE_OUTER_BOUND('',#69,.T.);
#47=FACE_OUTER_BOUND('',#70,.T.);
#48=FACE_OUTER_BOUND('',#71,.T.);
#49=FACE_OUTER_BOUND('',#72,.T.);
#50=EDGE_LOOP('',(#242,#243,#244,#245));
#51=EDGE_LOOP('',(#246,#247,#248,#249));
#52=EDGE_LOOP('',(#250,#251,#252,#253,#254,#255,#256,#257,#258,#259,#260,
#261,#262));
#53=EDGE_LOOP('',(#263));
#54=EDGE_LOOP('',(#264));
#55=EDGE_LOOP('',(#265));
#56=EDGE_LOOP('',(#266));
#57=EDGE_LOOP('',(#267,#268,#269,#270));
#58=EDGE_LOOP('',(#271,#272,#273,#274));
#59=EDGE_LOOP('',(#275,#276,#277,#278));
#60=EDGE_LOOP('',(#279,#280,#281,#282));
#61=EDGE_LOOP('',(#283,#284,#285,#286));
#62=EDGE_LOOP('',(#287,#288,#289,#290));
#63=EDGE_LOOP('',(#291,#292,#293,#294));
#64=EDGE_LOOP('',(#295,#296,#297,#298));
#65=EDGE_LOOP('',(#299,#300,#301,#302));
#66=EDGE_LOOP('',(#303,#304,#305,#306));
#67=EDGE_LOOP('',(#307,#308,#309,#310));
#68=EDGE_LOOP('',(#311,#312,#313,#314));
#69=EDGE_LOOP('',(#315,#316,#317,#318));
#70=EDGE_LOOP('',(#319,#320,#321,#322));
#71=EDGE_LOOP('',(#323,#324,#325,#326));
#72=EDGE_LOOP('',(#327,#328,#329,#330,#331,#332,#333,#334,#335,#336,#337,
#338,#339));
#73=EDGE_LOOP('',(#340));
#74=EDGE_LOOP('',(#341));
#75=EDGE_LOOP('',(#342));
#76=EDGE_LOOP('',(#343));
#77=LINE('',#548,#106);
#78=LINE('',#551,#107);
#79=LINE('',#554,#108);
#80=LINE('',#556,#109);
#81=LINE('',#557,#110);
#82=LINE('',#560,#111);
#83=LINE('',#564,#112);
#84=LINE('',#568,#113);
#85=LINE('',#572,#114);
#86=LINE('',#576,#115);
#87=LINE('',#590,#116);
#88=LINE('',#593,#117);
#89=LINE('',#596,#118);
#90=LINE('',#597,#119);
#91=LINE('',#601,#120);
#92=LINE('',#604,#121);
#93=LINE('',#608,#122);
#94=LINE('',#611,#123);
#95=LINE('',#614,#124);
#96=LINE('',#618,#125);
#97=LINE('',#622,#126);
#98=LINE('',#626,#127);
#99=LINE('',#631,#128);
#100=LINE('',#632,#129);
#101=LINE('',#633,#130);
#102=LINE('',#637,#131);
#103=LINE('',#639,#132);
#104=LINE('',#642,#133);
#105=LINE('',#643,#134);
#106=VECTOR('',#435,10.);
#107=VECTOR('',#438,10.);
#108=VECTOR('',#441,10.);
#109=VECTOR('',#442,4.);
#110=VECTOR('',#443,10.);
#111=VECTOR('',#446,10.);
#112=VECTOR('',#449,10.);
#113=VECTOR('',#452,10.);
#114=VECTOR('',#455,10.);
#115=VECTOR('',#458,10.);
#116=VECTOR('',#473,10.);
#117=VECTOR('',#476,10.);
#118=VECTOR('',#479,10.);
#119=VECTOR('',#480,10.);
#120=VECTOR('',#485,10.);
#121=VECTOR('',#488,4.);
#122=VECTOR('',#493,10.);
#123=VECTOR('',#498,10.);
#124=VECTOR('',#501,2.);
#125=VECTOR('',#506,2.);
#126=VECTOR('',#511,2.);
#127=VECTOR('',#516,4.);
#128=VECTOR('',#521,10.);
#129=VECTOR('',#522,10.);
#130=VECTOR('',#523,10.);
#131=VECTOR('',#528,10.);
#132=VECTOR('',#531,10.);
#133=VECTOR('',#534,10.);
#134=VECTOR('',#535,10.);
#135=CIRCLE('',#389,1.);
#136=CIRCLE('',#390,1.);
#137=CIRCLE('',#393,1.);
#138=CIRCLE('',#394,13.5);
#139=CIRCLE('',#395,3.);
#140=CIRCLE('',#396,3.);
#141=CIRCLE('',#397,4.5);
#142=CIRCLE('',#398,4.);
#143=CIRCLE('',#399,2.);
#144=CIRCLE('',#400,2.);
#145=CIRCLE('',#401,2.);
#146=CIRCLE('',#402,3.5);
#147=CIRCLE('',#404,1.);
#148=CIRCLE('',#407,13.5);
#149=CIRCLE('',#409,4.);
#150=CIRCLE('',#411,4.5);
#151=CIRCLE('',#414,2.);
#152=CIRCLE('',#416,2.);
#153=CIRCLE('',#418,2.);
#154=CIRCLE('',#420,3.5);
#155=CIRCLE('',#423,3.);
#156=CIRCLE('',#427,3.);
#157=VERTEX_POINT('',#544);
#158=VERTEX_POINT('',#545);
#159=VERTEX_POINT('',#547);
#160=VERTEX_POINT('',#549);
#161=VERTEX_POINT('',#553);
#162=VERTEX_POINT('',#555);
#163=VERTEX_POINT('',#559);
#164=VERTEX_POINT('',#561);
#165=VERTEX_POINT('',#563);
#166=VERTEX_POINT('',#565);
#167=VERTEX_POINT('',#567);
#168=VERTEX_POINT('',#569);
#169=VERTEX_POINT('',#571);
#170=VERTEX_POINT('',#573);
#171=VERTEX_POINT('',#575);
#172=VERTEX_POINT('',#577);
#173=VERTEX_POINT('',#580);
#174=VERTEX_POINT('',#582);
#175=VERTEX_POINT('',#584);
#176=VERTEX_POINT('',#586);
#177=VERTEX_POINT('',#589);
#178=VERTEX_POINT('',#591);
#179=VERTEX_POINT('',#595);
#180=VERTEX_POINT('',#599);
#181=VERTEX_POINT('',#603);
#182=VERTEX_POINT('',#607);
#183=VERTEX_POINT('',#613);
#184=VERTEX_POINT('',#617);
#185=VERTEX_POINT('',#621);
#186=VERTEX_POINT('',#625);
#187=VERTEX_POINT('',#629);
#188=VERTEX_POINT('',#630);
#189=VERTEX_POINT('',#635);
#190=VERTEX_POINT('',#641);
#191=EDGE_CURVE('',#157,#158,#135,.T.);
#192=EDGE_CURVE('',#158,#159,#77,.T.);
#193=EDGE_CURVE('',#159,#160,#136,.T.);
#194=EDGE_CURVE('',#160,#157,#78,.T.);
#195=EDGE_CURVE('',#161,#158,#79,.T.);
#196=EDGE_CURVE('',#162,#161,#80,.T.);
#197=EDGE_CURVE('',#159,#162,#81,.T.);
#198=EDGE_CURVE('',#157,#163,#82,.T.);
#199=EDGE_CURVE('',#164,#163,#137,.T.);
#200=EDGE_CURVE('',#164,#165,#83,.T.);
#201=EDGE_CURVE('',#166,#165,#138,.T.);
#202=EDGE_CURVE('',#166,#167,#84,.T.);
#203=EDGE_CURVE('',#167,#168,#139,.T.);
#204=EDGE_CURVE('',#168,#169,#85,.T.);
#205=EDGE_CURVE('',#169,#170,#140,.T.);
#206=EDGE_CURVE('',#170,#171,#86,.T.);
#207=EDGE_CURVE('',#172,#171,#141,.T.);
#208=EDGE_CURVE('',#161,#172,#142,.T.);
#209=EDGE_CURVE('',#173,#173,#143,.T.);
#210=EDGE_CURVE('',#174,#174,#144,.T.);
#211=EDGE_CURVE('',#175,#175,#145,.T.);
#212=EDGE_CURVE('',#176,#176,#146,.F.);
#213=EDGE_CURVE('',#163,#177,#87,.T.);
#214=EDGE_CURVE('',#177,#178,#147,.T.);
#215=EDGE_CURVE('',#178,#164,#88,.T.);
#216=EDGE_CURVE('',#179,#178,#89,.T.);
#217=EDGE_CURVE('',#165,#179,#90,.T.);
#218=EDGE_CURVE('',#179,#180,#148,.T.);
#219=EDGE_CURVE('',#180,#166,#91,.T.);
#220=EDGE_CURVE('',#172,#181,#92,.T.);
#221=EDGE_CURVE('',#181,#162,#149,.T.);
#222=EDGE_CURVE('',#171,#182,#93,.T.);
#223=EDGE_CURVE('',#182,#181,#150,.T.);
#224=EDGE_CURVE('',#177,#160,#94,.T.);
#225=EDGE_CURVE('',#173,#183,#95,.T.);
#226=EDGE_CURVE('',#183,#183,#151,.T.);
#227=EDGE_CURVE('',#174,#184,#96,.T.);
#228=EDGE_CURVE('',#184,#184,#152,.T.);
#229=EDGE_CURVE('',#175,#185,#97,.T.);
#230=EDGE_CURVE('',#185,#185,#153,.T.);
#231=EDGE_CURVE('',#176,#186,#98,.T.);
#232=EDGE_CURVE('',#186,#186,#154,.F.);
#233=EDGE_CURVE('',#187,#188,#99,.T.);
#234=EDGE_CURVE('',#187,#169,#100,.T.);
#235=EDGE_CURVE('',#188,#168,#101,.T.);
#236=EDGE_CURVE('',#189,#188,#155,.T.);
#237=EDGE_CURVE('',#189,#167,#102,.T.);
#238=EDGE_CURVE('',#189,#180,#103,.T.);
#239=EDGE_CURVE('',#190,#170,#104,.T.);
#240=EDGE_CURVE('',#182,#190,#105,.T.);
#241=EDGE_CURVE('',#187,#190,#156,.T.);
#242=ORIENTED_EDGE('',*,*,#191,.T.);
#243=ORIENTED_EDGE('',*,*,#192,.T.);
#244=ORIENTED_EDGE('',*,*,#193,.T.);
#245=ORIENTED_EDGE('',*,*,#194,.T.);
#246=ORIENTED_EDGE('',*,*,#192,.F.);
#247=ORIENTED_EDGE('',*,*,#195,.F.);
#248=ORIENTED_EDGE('',*,*,#196,.F.);
#249=ORIENTED_EDGE('',*,*,#197,.F.);
#250=ORIENTED_EDGE('',*,*,#191,.F.);
#251=ORIENTED_EDGE('',*,*,#198,.T.);
#252=ORIENTED_EDGE('',*,*,#199,.F.);
#253=ORIENTED_EDGE('',*,*,#200,.T.);
#254=ORIENTED_EDGE('',*,*,#201,.F.);
#255=ORIENTED_EDGE('',*,*,#202,.T.);
#256=ORIENTED_EDGE('',*,*,#203,.T.);
#257=ORIENTED_EDGE('',*,*,#204,.T.);
#258=ORIENTED_EDGE('',*,*,#205,.T.);
#259=ORIENTED_EDGE('',*,*,#206,.T.);
#260=ORIENTED_EDGE('',*,*,#207,.F.);
#261=ORIENTED_EDGE('',*,*,#208,.F.);
#262=ORIENTED_EDGE('',*,*,#195,.T.);
#263=ORIENTED_EDGE('',*,*,#209,.T.);
#264=ORIENTED_EDGE('',*,*,#210,.T.);
#265=ORIENTED_EDGE('',*,*,#211,.T.);
#266=ORIENTED_EDGE('',*,*,#212,.T.);
#267=ORIENTED_EDGE('',*,*,#199,.T.);
#268=ORIENTED_EDGE('',*,*,#213,.T.);
#269=ORIENTED_EDGE('',*,*,#214,.T.);
#270=ORIENTED_EDGE('',*,*,#215,.T.);
#271=ORIENTED_EDGE('',*,*,#215,.F.);
#272=ORIENTED_EDGE('',*,*,#216,.F.);
#273=ORIENTED_EDGE('',*,*,#217,.F.);
#274=ORIENTED_EDGE('',*,*,#200,.F.);
#275=ORIENTED_EDGE('',*,*,#201,.T.);
#276=ORIENTED_EDGE('',*,*,#217,.T.);
#277=ORIENTED_EDGE('',*,*,#218,.T.);
#278=ORIENTED_EDGE('',*,*,#219,.T.);
#279=ORIENTED_EDGE('',*,*,#208,.T.);
#280=ORIENTED_EDGE('',*,*,#220,.T.);
#281=ORIENTED_EDGE('',*,*,#221,.T.);
#282=ORIENTED_EDGE('',*,*,#196,.T.);
#283=ORIENTED_EDGE('',*,*,#220,.F.);
#284=ORIENTED_EDGE('',*,*,#207,.T.);
#285=ORIENTED_EDGE('',*,*,#222,.T.);
#286=ORIENTED_EDGE('',*,*,#223,.T.);
#287=ORIENTED_EDGE('',*,*,#194,.F.);
#288=ORIENTED_EDGE('',*,*,#224,.F.);
#289=ORIENTED_EDGE('',*,*,#213,.F.);
#290=ORIENTED_EDGE('',*,*,#198,.F.);
#291=ORIENTED_EDGE('',*,*,#209,.F.);
#292=ORIENTED_EDGE('',*,*,#225,.T.);
#293=ORIENTED_EDGE('',*,*,#226,.T.);
#294=ORIENTED_EDGE('',*,*,#225,.F.);
#295=ORIENTED_EDGE('',*,*,#210,.F.);
#296=ORIENTED_EDGE('',*,*,#227,.T.);
#297=ORIENTED_EDGE('',*,*,#228,.T.);
#298=ORIENTED_EDGE('',*,*,#227,.F.);
#299=ORIENTED_EDGE('',*,*,#211,.F.);
#300=ORIENTED_EDGE('',*,*,#229,.T.);
#301=ORIENTED_EDGE('',*,*,#230,.T.);
#302=ORIENTED_EDGE('',*,*,#229,.F.);
#303=ORIENTED_EDGE('',*,*,#212,.F.);
#304=ORIENTED_EDGE('',*,*,#231,.T.);
#305=ORIENTED_EDGE('',*,*,#232,.T.);
#306=ORIENTED_EDGE('',*,*,#231,.F.);
#307=ORIENTED_EDGE('',*,*,#233,.F.);
#308=ORIENTED_EDGE('',*,*,#234,.T.);
#309=ORIENTED_EDGE('',*,*,#204,.F.);
#310=ORIENTED_EDGE('',*,*,#235,.F.);
#311=ORIENTED_EDGE('',*,*,#236,.T.);
#312=ORIENTED_EDGE('',*,*,#235,.T.);
#313=ORIENTED_EDGE('',*,*,#203,.F.);
#314=ORIENTED_EDGE('',*,*,#237,.F.);
#315=ORIENTED_EDGE('',*,*,#219,.F.);
#316=ORIENTED_EDGE('',*,*,#238,.F.);
#317=ORIENTED_EDGE('',*,*,#237,.T.);
#318=ORIENTED_EDGE('',*,*,#202,.F.);
#319=ORIENTED_EDGE('',*,*,#222,.F.);
#320=ORIENTED_EDGE('',*,*,#206,.F.);
#321=ORIENTED_EDGE('',*,*,#239,.F.);
#322=ORIENTED_EDGE('',*,*,#240,.F.);
#323=ORIENTED_EDGE('',*,*,#241,.T.);
#324=ORIENTED_EDGE('',*,*,#239,.T.);
#325=ORIENTED_EDGE('',*,*,#205,.F.);
#326=ORIENTED_EDGE('',*,*,#234,.F.);
#327=ORIENTED_EDGE('',*,*,#193,.F.);
#328=ORIENTED_EDGE('',*,*,#197,.T.);
#329=ORIENTED_EDGE('',*,*,#221,.F.);
#330=ORIENTED_EDGE('',*,*,#223,.F.);
#331=ORIENTED_EDGE('',*,*,#240,.T.);
#332=ORIENTED_EDGE('',*,*,#241,.F.);
#333=ORIENTED_EDGE('',*,*,#233,.T.);
#334=ORIENTED_EDGE('',*,*,#236,.F.);
#335=ORIENTED_EDGE('',*,*,#238,.T.);
#336=ORIENTED_EDGE('',*,*,#218,.F.);
#337=ORIENTED_EDGE('',*,*,#216,.T.);
#338=ORIENTED_EDGE('',*,*,#214,.F.);
#339=ORIENTED_EDGE('',*,*,#224,.T.);
#340=ORIENTED_EDGE('',*,*,#232,.F.);
#341=ORIENTED_EDGE('',*,*,#230,.F.);
#342=ORIENTED_EDGE('',*,*,#228,.F.);
#343=ORIENTED_EDGE('',*,*,#226,.F.);
#344=CYLINDRICAL_SURFACE('',#388,1.);
#345=CYLINDRICAL_SURFACE('',#403,1.);
#346=CYLINDRICAL_SURFACE('',#406,13.5);
#347=CYLINDRICAL_SURFACE('',#408,4.);
#348=CYLINDRICAL_SURFACE('',#410,4.5);
#349=CYLINDRICAL_SURFACE('',#413,2.);
#350=CYLINDRICAL_SURFACE('',#415,2.);
#351=CYLINDRICAL_SURFACE('',#417,2.);
#352=CYLINDRICAL_SURFACE('',#419,3.5);
#353=CYLINDRICAL_SURFACE('',#422,3.);
#354=CYLINDRICAL_SURFACE('',#426,3.);
#355=ADVANCED_FACE('',(#31),#344,.T.);
#356=ADVANCED_FACE('',(#32),#23,.T.);
#357=ADVANCED_FACE('',(#33,#15,#16,#17,#18),#24,.T.);
#358=ADVANCED_FACE('',(#34),#345,.T.);
#359=ADVANCED_FACE('',(#35),#25,.T.);
#360=ADVANCED_FACE('',(#36),#346,.F.);
#361=ADVANCED_FACE('',(#37),#347,.T.);
#362=ADVANCED_FACE('',(#38),#348,.F.);
#363=ADVANCED_FACE('',(#39),#26,.T.);
#364=ADVANCED_FACE('',(#40),#349,.F.);
#365=ADVANCED_FACE('',(#41),#350,.F.);
#366=ADVANCED_FACE('',(#42),#351,.F.);
#367=ADVANCED_FACE('',(#43),#352,.F.);
#368=ADVANCED_FACE('',(#44),#27,.T.);
#369=ADVANCED_FACE('',(#45),#353,.T.);
#370=ADVANCED_FACE('',(#46),#28,.T.);
#371=ADVANCED_FACE('',(#47),#29,.T.);
#372=ADVANCED_FACE('',(#48),#354,.T.);
#373=ADVANCED_FACE('',(#49,#19,#20,#21,#22),#30,.F.);
#374=CLOSED_SHELL('',(#355,#356,#357,#358,#359,#360,#361,#362,#363,#364,
#365,#366,#367,#368,#369,#370,#371,#372,#373));
#375=DERIVED_UNIT_ELEMENT(#377,1.);
#376=DERIVED_UNIT_ELEMENT(#652,-3.);
#377=(
MASS_UNIT()
NAMED_UNIT(*)
SI_UNIT(.KILO.,.GRAM.)
);
#378=DERIVED_UNIT((#375,#376));
#379=MEASURE_REPRESENTATION_ITEM('density measure',
POSITIVE_RATIO_MEASURE(7850.),#378);
#380=PROPERTY_DEFINITION_REPRESENTATION(#385,#382);
#381=PROPERTY_DEFINITION_REPRESENTATION(#386,#383);
#382=REPRESENTATION('material name',(#384),#649);
#383=REPRESENTATION('density',(#379),#649);
#384=DESCRIPTIVE_REPRESENTATION_ITEM('Steel','Steel');
#385=PROPERTY_DEFINITION('material property','material name',#659);
#386=PROPERTY_DEFINITION('material property','density of part',#659);
#387=AXIS2_PLACEMENT_3D('',#542,#429,#430);
#388=AXIS2_PLACEMENT_3D('',#543,#431,#432);
#389=AXIS2_PLACEMENT_3D('',#546,#433,#434);
#390=AXIS2_PLACEMENT_3D('',#550,#436,#437);
#391=AXIS2_PLACEMENT_3D('',#552,#439,#440);
#392=AXIS2_PLACEMENT_3D('',#558,#444,#445);
#393=AXIS2_PLACEMENT_3D('',#562,#447,#448);
#394=AXIS2_PLACEMENT_3D('',#566,#450,#451);
#395=AXIS2_PLACEMENT_3D('',#570,#453,#454);
#396=AXIS2_PLACEMENT_3D('',#574,#456,#457);
#397=AXIS2_PLACEMENT_3D('',#578,#459,#460);
#398=AXIS2_PLACEMENT_3D('',#579,#461,#462);
#399=AXIS2_PLACEMENT_3D('',#581,#463,#464);
#400=AXIS2_PLACEMENT_3D('',#583,#465,#466);
#401=AXIS2_PLACEMENT_3D('',#585,#467,#468);
#402=AXIS2_PLACEMENT_3D('',#587,#469,#470);
#403=AXIS2_PLACEMENT_3D('',#588,#471,#472);
#404=AXIS2_PLACEMENT_3D('',#592,#474,#475);
#405=AXIS2_PLACEMENT_3D('',#594,#477,#478);
#406=AXIS2_PLACEMENT_3D('',#598,#481,#482);
#407=AXIS2_PLACEMENT_3D('',#600,#483,#484);
#408=AXIS2_PLACEMENT_3D('',#602,#486,#487);
#409=AXIS2_PLACEMENT_3D('',#605,#489,#490);
#410=AXIS2_PLACEMENT_3D('',#606,#491,#492);
#411=AXIS2_PLACEMENT_3D('',#609,#494,#495);
#412=AXIS2_PLACEMENT_3D('',#610,#496,#497);
#413=AXIS2_PLACEMENT_3D('',#612,#499,#500);
#414=AXIS2_PLACEMENT_3D('',#615,#502,#503);
#415=AXIS2_PLACEMENT_3D('',#616,#504,#505);
#416=AXIS2_PLACEMENT_3D('',#619,#507,#508);
#417=AXIS2_PLACEMENT_3D('',#620,#509,#510);
#418=AXIS2_PLACEMENT_3D('',#623,#512,#513);
#419=AXIS2_PLACEMENT_3D('',#624,#514,#515);
#420=AXIS2_PLACEMENT_3D('',#627,#517,#518);
#421=AXIS2_PLACEMENT_3D('',#628,#519,#520);
#422=AXIS2_PLACEMENT_3D('',#634,#524,#525);
#423=AXIS2_PLACEMENT_3D('',#636,#526,#527);
#424=AXIS2_PLACEMENT_3D('',#638,#529,#530);
#425=AXIS2_PLACEMENT_3D('',#640,#532,#533);
#426=AXIS2_PLACEMENT_3D('',#644,#536,#537);
#427=AXIS2_PLACEMENT_3D('',#645,#538,#539);
#428=AXIS2_PLACEMENT_3D('',#646,#540,#541);
#429=DIRECTION('axis',(0.,0.,1.));
#430=DIRECTION('refdir',(1.,0.,0.));
#431=DIRECTION('center_axis',(0.,0.,1.));
#432=DIRECTION('ref_axis',(-0.70710678118655,0.707106781186545,0.));
#433=DIRECTION('center_axis',(0.,0.,-1.));
#434=DIRECTION('ref_axis',(-0.70710678118655,0.707106781186545,0.));
#435=DIRECTION('',(0.,0.,-1.));
#436=DIRECTION('center_axis',(0.,0.,1.));
#437=DIRECTION('ref_axis',(-0.70710678118655,0.707106781186545,0.));
#438=DIRECTION('',(0.,0.,1.));
#439=DIRECTION('center_axis',(0.,1.,0.));
#440=DIRECTION('ref_axis',(-1.,0.,0.));
#441=DIRECTION('',(-1.,0.,0.));
#442=DIRECTION('',(0.,0.,1.));
#443=DIRECTION('',(1.,0.,0.));
#444=DIRECTION('center_axis',(0.,0.,1.));
#445=DIRECTION('ref_axis',(1.,0.,0.));
#446=DIRECTION('',(0.,-1.,0.));
#447=DIRECTION('center_axis',(0.,0.,-1.));
#448=DIRECTION('ref_axis',(-0.707106781186546,-0.707106781186549,0.));
#449=DIRECTION('',(1.,0.,0.));
#450=DIRECTION('center_axis',(0.,0.,1.));
#451=DIRECTION('ref_axis',(0.309030742807249,0.951052049048841,0.));
#452=DIRECTION('',(0.809,-0.587808642331839,0.));
#453=DIRECTION('center_axis',(0.,0.,1.));
#454=DIRECTION('ref_axis',(1.,0.,0.));
#455=DIRECTION('',(0.809,0.587808642331839,0.));
#456=DIRECTION('center_axis',(0.,0.,1.));
#457=DIRECTION('ref_axis',(1.,0.,0.));
#458=DIRECTION('',(-0.872020232303476,0.489469829972586,0.));
#459=DIRECTION('center_axis',(0.,0.,1.));
#460=DIRECTION('ref_axis',(-0.862980251793917,-0.505237652015076,0.));
#461=DIRECTION('center_axis',(0.,0.,-1.));
#462=DIRECTION('ref_axis',(0.,-1.,0.));
#463=DIRECTION('center_axis',(0.,0.,-1.));
#464=DIRECTION('ref_axis',(1.,0.,0.));
#465=DIRECTION('center_axis',(0.,0.,-1.));
#466=DIRECTION('ref_axis',(1.,0.,0.));
#467=DIRECTION('center_axis',(0.,0.,-1.));
#468=DIRECTION('ref_axis',(1.,0.,0.));
#469=DIRECTION('center_axis',(0.,0.,1.));
#470=DIRECTION('ref_axis',(1.,0.,0.));
#471=DIRECTION('center_axis',(0.,0.,1.));
#472=DIRECTION('ref_axis',(-0.707106781186546,-0.707106781186549,0.));
#473=DIRECTION('',(0.,0.,-1.));
#474=DIRECTION('center_axis',(0.,0.,1.));
#475=DIRECTION('ref_axis',(-0.707106781186546,-0.707106781186549,0.));
#476=DIRECTION('',(0.,0.,1.));
#477=DIRECTION('center_axis',(0.,-1.,0.));
#478=DIRECTION('ref_axis',(1.,0.,0.));
#479=DIRECTION('',(-1.,0.,0.));
#480=DIRECTION('',(0.,0.,-1.));
#481=DIRECTION('center_axis',(0.,0.,-1.));
#482=DIRECTION('ref_axis',(0.309030742807249,0.951052049048841,0.));
#483=DIRECTION('center_axis',(0.,0.,-1.));
#484=DIRECTION('ref_axis',(0.309030742807249,0.951052049048841,0.));
#485=DIRECTION('',(0.,0.,1.));
#486=DIRECTION('center_axis',(0.,0.,-1.));
#487=DIRECTION('ref_axis',(0.,-1.,0.));
#488=DIRECTION('',(0.,0.,-1.));
#489=DIRECTION('center_axis',(0.,0.,1.));
#490=DIRECTION('ref_axis',(0.,-1.,0.));
#491=DIRECTION('center_axis',(0.,0.,1.));
#492=DIRECTION('ref_axis',(-0.862980251793917,-0.505237652015076,0.));
#493=DIRECTION('',(0.,0.,-1.));
#494=DIRECTION('center_axis',(0.,0.,-1.));
#495=DIRECTION('ref_axis',(-0.862980251793917,-0.505237652015076,0.));
#496=DIRECTION('center_axis',(-1.,0.,0.));
#497=DIRECTION('ref_axis',(0.,-1.,0.));
#498=DIRECTION('',(0.,1.,0.));
#499=DIRECTION('center_axis',(0.,0.,1.));
#500=DIRECTION('ref_axis',(1.,0.,0.));
#501=DIRECTION('',(0.,0.,-1.));
#502=DIRECTION('center_axis',(0.,0.,-1.));
#503=DIRECTION('ref_axis',(1.,0.,0.));
#504=DIRECTION('center_axis',(0.,0.,1.));
#505=DIRECTION('ref_axis',(1.,0.,0.));
#506=DIRECTION('',(0.,0.,-1.));
#507=DIRECTION('center_axis',(0.,0.,-1.));
#508=DIRECTION('ref_axis',(1.,0.,0.));
#509=DIRECTION('center_axis',(0.,0.,1.));
#510=DIRECTION('ref_axis',(1.,0.,0.));
#511=DIRECTION('',(0.,0.,-1.));
#512=DIRECTION('center_axis',(0.,0.,-1.));
#513=DIRECTION('ref_axis',(1.,0.,0.));
#514=DIRECTION('center_axis',(0.,0.,1.));
#515=DIRECTION('ref_axis',(1.,0.,0.));
#516=DIRECTION('',(0.,0.,-1.));
#517=DIRECTION('center_axis',(0.,0.,1.));
#518=DIRECTION('ref_axis',(1.,0.,0.));
#519=DIRECTION('center_axis',(0.587808642331839,-0.809,0.));
#520=DIRECTION('ref_axis',(0.809,0.587808642331839,0.));
#521=DIRECTION('',(-0.809,-0.587808642331839,0.));
#522=DIRECTION('',(0.,0.,1.));
#523=DIRECTION('',(0.,0.,1.));
#524=DIRECTION('center_axis',(0.,0.,1.));
#525=DIRECTION('ref_axis',(1.,0.,0.));
#526=DIRECTION('center_axis',(0.,0.,1.));
#527=DIRECTION('ref_axis',(1.,0.,0.));
#528=DIRECTION('',(0.,0.,1.));
#529=DIRECTION('center_axis',(-0.587808642331839,-0.809,0.));
#530=DIRECTION('ref_axis',(0.809,-0.587808642331839,0.));
#531=DIRECTION('',(-0.809,0.587808642331839,0.));
#532=DIRECTION('center_axis',(0.489469829972586,0.872020232303476,0.));
#533=DIRECTION('ref_axis',(-0.872020232303476,0.489469829972586,0.));
#534=DIRECTION('',(0.,0.,1.));
#535=DIRECTION('',(0.872020232303476,-0.489469829972586,0.));
#536=DIRECTION('center_axis',(0.,0.,1.));
#537=DIRECTION('ref_axis',(1.,0.,0.));
#538=DIRECTION('center_axis',(0.,0.,1.));
#539=DIRECTION('ref_axis',(1.,0.,0.));
#540=DIRECTION('center_axis',(0.,0.,1.));
#541=DIRECTION('ref_axis',(1.,0.,0.));
#542=CARTESIAN_POINT('',(0.,0.,0.));
#543=CARTESIAN_POINT('Origin',(-27.4068738994567,8.2999997921288,0.));
#544=CARTESIAN_POINT('',(-28.4068738994567,8.2999997921288,3.));
#545=CARTESIAN_POINT('',(-27.4068738994567,9.2999997921288,3.));
#546=CARTESIAN_POINT('Origin',(-27.4068738994567,8.2999997921288,3.));
#547=CARTESIAN_POINT('',(-27.4068738994567,9.2999997921288,0.));
#548=CARTESIAN_POINT('',(-27.4068738994567,9.2999997921288,0.));
#549=CARTESIAN_POINT('',(-28.4068738994567,8.2999997921288,0.));
#550=CARTESIAN_POINT('Origin',(-27.4068738994567,8.2999997921288,0.));
#551=CARTESIAN_POINT('',(-28.4068738994567,8.2999997921288,0.));
#552=CARTESIAN_POINT('Origin',(4.00000005960464,9.2999997921288,0.));
#553=CARTESIAN_POINT('',(0.988718684502121,9.2999997921288,3.));
#554=CARTESIAN_POINT('',(-28.4068738994567,9.2999997921288,3.));
#555=CARTESIAN_POINT('',(0.988718684502121,9.2999997921288,0.));
#556=CARTESIAN_POINT('',(0.988718684502123,9.2999997921288,0.));
#557=CARTESIAN_POINT('',(-28.4068738994567,9.2999997921288,0.));
#558=CARTESIAN_POINT('Origin',(0.,-0.949036909201882,3.));
#559=CARTESIAN_POINT('',(-28.4068738994567,-1.7314107915455,3.));
#560=CARTESIAN_POINT('',(-28.4068738994567,-2.7314107915455,3.));
#561=CARTESIAN_POINT('',(-27.4068738994567,-2.7314107915455,3.));
#562=CARTESIAN_POINT('Origin',(-27.4068738994567,-1.7314107915455,3.));
#563=CARTESIAN_POINT('',(-15.4390975494945,-2.7314107915455,3.));
#564=CARTESIAN_POINT('',(-11.0524658903017,-2.7314107915455,3.));
#565=CARTESIAN_POINT('',(-7.50368087801466,-5.30991079154551,3.));
#566=CARTESIAN_POINT('Origin',(-15.4390975494945,-16.2314107915455,3.));
#567=CARTESIAN_POINT('',(-1.76342592699552,-9.48070370798207,3.));
#568=CARTESIAN_POINT('',(-1.76342592699552,-9.48070370798207,3.));
#569=CARTESIAN_POINT('',(1.76342592699551,-9.48070370798207,3.));
#570=CARTESIAN_POINT('Origin',(-3.33066907387547E-15,-7.05370370798207,
3.));
#571=CARTESIAN_POINT('',(11.4714259269955,-2.427,3.));
#572=CARTESIAN_POINT('',(11.4714259269955,-2.427,3.));
#573=CARTESIAN_POINT('',(11.1764094899178,2.61606069691043,3.));
#574=CARTESIAN_POINT('Origin',(9.708,0.,3.));
#575=CARTESIAN_POINT('',(6.29738582472801,5.35468394825896,3.));
#576=CARTESIAN_POINT('',(2.44734914986293,7.51573105109568,3.));
#577=CARTESIAN_POINT('',(4.52343933160919,7.17236459283271,3.));
#578=CARTESIAN_POINT('Origin',(8.50000005960464,9.27877499362461,3.));
#579=CARTESIAN_POINT('Origin',(0.988718684502122,5.2999997921288,3.));
#580=CARTESIAN_POINT('',(7.708,0.,3.));
#581=CARTESIAN_POINT('Origin',(9.708,0.,3.));
#582=CARTESIAN_POINT('',(-2.,-7.05370370798207,3.));
#583=CARTESIAN_POINT('Origin',(-3.33066907387547E-15,-7.05370370798207,
3.));
#584=CARTESIAN_POINT('',(-11.708,0.,3.));
#585=CARTESIAN_POINT('Origin',(-9.708,0.,3.));
#586=CARTESIAN_POINT('',(-3.5,3.15562988957831,3.));
#587=CARTESIAN_POINT('Origin',(5.89805981832114E-16,3.15562988957831,3.));
#588=CARTESIAN_POINT('Origin',(-27.4068738994567,-1.7314107915455,0.));
#589=CARTESIAN_POINT('',(-28.4068738994567,-1.7314107915455,0.));
#590=CARTESIAN_POINT('',(-28.4068738994567,-1.7314107915455,0.));
#591=CARTESIAN_POINT('',(-27.4068738994567,-2.7314107915455,0.));
#592=CARTESIAN_POINT('Origin',(-27.4068738994567,-1.7314107915455,0.));
#593=CARTESIAN_POINT('',(-27.4068738994567,-2.7314107915455,0.));
#594=CARTESIAN_POINT('Origin',(-28.4068738994567,-2.7314107915455,0.));
#595=CARTESIAN_POINT('',(-15.4390975494945,-2.7314107915455,0.));
#596=CARTESIAN_POINT('',(-11.0524658903017,-2.7314107915455,0.));
#597=CARTESIAN_POINT('',(-15.4390975494945,-2.7314107915455,0.));
#598=CARTESIAN_POINT('Origin',(-15.4390975494945,-16.2314107915455,0.));
#599=CARTESIAN_POINT('',(-7.50368087801466,-5.30991079154551,0.));
#600=CARTESIAN_POINT('Origin',(-15.4390975494945,-16.2314107915455,0.));
#601=CARTESIAN_POINT('',(-7.50368087801466,-5.30991079154551,0.));
#602=CARTESIAN_POINT('Origin',(0.988718684502122,5.2999997921288,0.));
#603=CARTESIAN_POINT('',(4.52343933160919,7.17236459283271,0.));
#604=CARTESIAN_POINT('',(4.52343933160919,7.17236459283271,0.));
#605=CARTESIAN_POINT('Origin',(0.988718684502122,5.2999997921288,0.));
#606=CARTESIAN_POINT('Origin',(8.50000005960464,9.27877499362461,0.));
#607=CARTESIAN_POINT('',(6.29738582472801,5.35468394825896,0.));
#608=CARTESIAN_POINT('',(6.29738582472801,5.35468394825896,0.));
#609=CARTESIAN_POINT('Origin',(8.50000005960464,9.27877499362461,0.));
#610=CARTESIAN_POINT('Origin',(-28.4068738994567,9.2999997921288,0.));
#611=CARTESIAN_POINT('',(-28.4068738994567,-2.7314107915455,0.));
#612=CARTESIAN_POINT('Origin',(9.708,0.,0.));
#613=CARTESIAN_POINT('',(7.708,-2.44929359829471E-16,0.));
#614=CARTESIAN_POINT('',(7.708,-2.44929359829471E-16,0.));
#615=CARTESIAN_POINT('Origin',(9.708,0.,0.));
#616=CARTESIAN_POINT('Origin',(-3.33066907387547E-15,-7.05370370798207,
0.));
#617=CARTESIAN_POINT('',(-2.,-7.05370370798207,0.));
#618=CARTESIAN_POINT('',(-2.,-7.05370370798207,0.));
#619=CARTESIAN_POINT('Origin',(-3.33066907387547E-15,-7.05370370798207,
0.));
#620=CARTESIAN_POINT('Origin',(-9.708,0.,0.));
#621=CARTESIAN_POINT('',(-11.708,-2.44929359829471E-16,0.));
#622=CARTESIAN_POINT('',(-11.708,-2.44929359829471E-16,0.));
#623=CARTESIAN_POINT('Origin',(-9.708,0.,0.));
#624=CARTESIAN_POINT('Origin',(5.89805981832114E-16,3.15562988957831,0.));
#625=CARTESIAN_POINT('',(-3.5,3.15562988957831,0.));
#626=CARTESIAN_POINT('',(-3.5,3.15562988957831,0.));
#627=CARTESIAN_POINT('Origin',(5.89805981832114E-16,3.15562988957831,0.));
#628=CARTESIAN_POINT('Origin',(1.76342592699551,-9.48070370798207,0.));
#629=CARTESIAN_POINT('',(11.4714259269955,-2.427,0.));
#630=CARTESIAN_POINT('',(1.76342592699551,-9.48070370798207,0.));
#631=CARTESIAN_POINT('',(11.4714259269955,-2.427,0.));
#632=CARTESIAN_POINT('',(11.4714259269955,-2.427,0.));
#633=CARTESIAN_POINT('',(1.76342592699551,-9.48070370798207,0.));
#634=CARTESIAN_POINT('Origin',(-3.33066907387547E-15,-7.05370370798207,
0.));
#635=CARTESIAN_POINT('',(-1.76342592699552,-9.48070370798207,0.));
#636=CARTESIAN_POINT('Origin',(-3.33066907387547E-15,-7.05370370798207,
0.));
#637=CARTESIAN_POINT('',(-1.76342592699552,-9.48070370798207,0.));
#638=CARTESIAN_POINT('Origin',(-11.4714259269955,-2.427,0.));
#639=CARTESIAN_POINT('',(-1.76342592699552,-9.48070370798207,0.));
#640=CARTESIAN_POINT('Origin',(11.1764094899178,2.61606069691043,0.));
#641=CARTESIAN_POINT('',(11.1764094899178,2.61606069691043,0.));
#642=CARTESIAN_POINT('',(11.1764094899178,2.61606069691043,0.));
#643=CARTESIAN_POINT('',(2.44734914986293,7.51573105109568,0.));
#644=CARTESIAN_POINT('Origin',(9.708,0.,0.));
#645=CARTESIAN_POINT('Origin',(9.708,0.,0.));
#646=CARTESIAN_POINT('Origin',(0.,-0.949036909201882,0.));
#647=UNCERTAINTY_MEASURE_WITH_UNIT(LENGTH_MEASURE(0.01),#651,
'DISTANCE_ACCURACY_VALUE',
'Maximum model space distance between geometric entities at asserted c
onnectivities');
#648=UNCERTAINTY_MEASURE_WITH_UNIT(LENGTH_MEASURE(0.01),#651,
'DISTANCE_ACCURACY_VALUE',
'Maximum model space distance between geometric entities at asserted c
onnectivities');
#649=(
GEOMETRIC_REPRESENTATION_CONTEXT(3)
GLOBAL_UNCERTAINTY_ASSIGNED_CONTEXT((#647))
GLOBAL_UNIT_ASSIGNED_CONTEXT((#651,#653,#654))
REPRESENTATION_CONTEXT('','3D')
);
#650=(
GEOMETRIC_REPRESENTATION_CONTEXT(3)
GLOBAL_UNCERTAINTY_ASSIGNED_CONTEXT((#648))
GLOBAL_UNIT_ASSIGNED_CONTEXT((#651,#653,#654))
REPRESENTATION_CONTEXT('','3D')
);
#651=(
LENGTH_UNIT()
NAMED_UNIT(*)
SI_UNIT(.MILLI.,.METRE.)
);
#652=(
LENGTH_UNIT()
NAMED_UNIT(*)
SI_UNIT($,.METRE.)
);
#653=(
NAMED_UNIT(*)
PLANE_ANGLE_UNIT()
SI_UNIT($,.RADIAN.)
);
#654=(
NAMED_UNIT(*)
SI_UNIT($,.STERADIAN.)
SOLID_ANGLE_UNIT()
);
#655=SHAPE_DEFINITION_REPRESENTATION(#656,#657);
#656=PRODUCT_DEFINITION_SHAPE('',$,#659);
#657=SHAPE_REPRESENTATION('',(#387),#649);
#658=PRODUCT_DEFINITION_CONTEXT('part definition',#663,'design');
#659=PRODUCT_DEFINITION('MotorMount','MotorMount v4',#660,#658);
#660=PRODUCT_DEFINITION_FORMATION('',$,#665);
#661=PRODUCT_RELATED_PRODUCT_CATEGORY('MotorMount v4','MotorMount v4',(#665));
#662=APPLICATION_PROTOCOL_DEFINITION('international standard',
'automotive_design',2009,#663);
#663=APPLICATION_CONTEXT(
'Core Data for Automotive Mechanical Design Process');
#664=PRODUCT_CONTEXT('part definition',#663,'mechanical');
#665=PRODUCT('MotorMount','MotorMount v4',$,(#664));
#666=PRESENTATION_STYLE_ASSIGNMENT((#667));
#667=SURFACE_STYLE_USAGE(.BOTH.,#668);
#668=SURFACE_SIDE_STYLE('',(#669));
#669=SURFACE_STYLE_FILL_AREA(#670);
#670=FILL_AREA_STYLE('Steel - Satin',(#671));
#671=FILL_AREA_STYLE_COLOUR('Steel - Satin',#672);
#672=COLOUR_RGB('Steel - Satin',0.627450980392157,0.627450980392157,0.627450980392157);
ENDSEC;
END-ISO-10303-21;
