ISO-10303-21;
HEADER;
/* Generated by software containing ST-Developer
 * from STEP Tools, Inc. (www.steptools.com) 
 */

FILE_DESCRIPTION(
/* description */ (''),
/* implementation_level */ '2;1');

FILE_NAME(
/* name */ 'InnerSupport_v5.step',
/* time_stamp */ '2026-08-21T09:14:03-04:00',
/* author */ (''),
/* organization */ (''),
/* preprocessor_version */ 'ST-DEVELOPER v20.1',
/* originating_system */ 'Autodesk Translation Framework v15.8.0.0',
/* authorisation */ '');

FILE_SCHEMA (('AUTOMOTIVE_DESIGN { 1 0 10303 214 3 1 1 }'));
ENDSEC;

DATA;
#10=MECHANICAL_DESIGN_GEOMETRIC_PRESENTATION_REPRESENTATION('',(#13),#1511);
#11=SHAPE_REPRESENTATION_RELATIONSHIP('SRR','None',#1518,#12);
#12=ADVANCED_BREP_SHAPE_REPRESENTATION('',(#14),#1510);
#13=STYLED_ITEM('',(#1528),#14);
#14=MANIFOLD_SOLID_BREP('Body1',#939);
#15=CYLINDRICAL_SURFACE('',#998,1.5);
#16=CYLINDRICAL_SURFACE('',#1001,1.5);
#17=CYLINDRICAL_SURFACE('',#1002,1.5);
#18=CYLINDRICAL_SURFACE('',#1003,1.5);
#19=CIRCLE('',#957,1.5);
#20=CIRCLE('',#963,1.5);
#21=CIRCLE('',#969,1.5);
#22=CIRCLE('',#975,1.5);
#23=CIRCLE('',#981,1.5);
#24=CIRCLE('',#987,1.5);
#25=CIRCLE('',#992,1.5);
#26=CIRCLE('',#997,1.5);
#27=FACE_OUTER_BOUND('',#73,.T.);
#28=FACE_OUTER_BOUND('',#74,.T.);
#29=FACE_OUTER_BOUND('',#75,.T.);
#30=FACE_OUTER_BOUND('',#76,.T.);
#31=FACE_OUTER_BOUND('',#77,.T.);
#32=FACE_OUTER_BOUND('',#78,.T.);
#33=FACE_OUTER_BOUND('',#79,.T.);
#34=FACE_OUTER_BOUND('',#80,.T.);
#35=FACE_OUTER_BOUND('',#81,.T.);
#36=FACE_OUTER_BOUND('',#82,.T.);
#37=FACE_OUTER_BOUND('',#83,.T.);
#38=FACE_OUTER_BOUND('',#84,.T.);
#39=FACE_OUTER_BOUND('',#85,.T.);
#40=FACE_OUTER_BOUND('',#86,.T.);
#41=FACE_OUTER_BOUND('',#87,.T.);
#42=FACE_OUTER_BOUND('',#88,.T.);
#43=FACE_OUTER_BOUND('',#89,.T.);
#44=FACE_OUTER_BOUND('',#90,.T.);
#45=FACE_OUTER_BOUND('',#91,.T.);
#46=FACE_OUTER_BOUND('',#92,.T.);
#47=FACE_OUTER_BOUND('',#93,.T.);
#48=FACE_OUTER_BOUND('',#94,.T.);
#49=FACE_OUTER_BOUND('',#95,.T.);
#50=FACE_OUTER_BOUND('',#96,.T.);
#51=FACE_OUTER_BOUND('',#97,.T.);
#52=FACE_OUTER_BOUND('',#98,.T.);
#53=FACE_OUTER_BOUND('',#99,.T.);
#54=FACE_OUTER_BOUND('',#100,.T.);
#55=FACE_OUTER_BOUND('',#101,.T.);
#56=FACE_OUTER_BOUND('',#102,.T.);
#57=FACE_OUTER_BOUND('',#103,.T.);
#58=FACE_OUTER_BOUND('',#104,.T.);
#59=FACE_OUTER_BOUND('',#105,.T.);
#60=FACE_OUTER_BOUND('',#106,.T.);
#61=FACE_OUTER_BOUND('',#107,.T.);
#62=FACE_OUTER_BOUND('',#108,.T.);
#63=FACE_OUTER_BOUND('',#109,.T.);
#64=FACE_OUTER_BOUND('',#110,.T.);
#65=FACE_OUTER_BOUND('',#111,.T.);
#66=FACE_OUTER_BOUND('',#112,.T.);
#67=FACE_OUTER_BOUND('',#113,.T.);
#68=FACE_OUTER_BOUND('',#114,.T.);
#69=FACE_OUTER_BOUND('',#115,.T.);
#70=FACE_OUTER_BOUND('',#116,.T.);
#71=FACE_OUTER_BOUND('',#117,.T.);
#72=FACE_OUTER_BOUND('',#118,.T.);
#73=EDGE_LOOP('',(#587,#588,#589,#590));
#74=EDGE_LOOP('',(#591,#592,#593,#594));
#75=EDGE_LOOP('',(#595,#596,#597,#598));
#76=EDGE_LOOP('',(#599,#600,#601,#602));
#77=EDGE_LOOP('',(#603,#604,#605,#606,#607,#608,#609,#610,#611,#612,#613,
#614));
#78=EDGE_LOOP('',(#615,#616,#617,#618));
#79=EDGE_LOOP('',(#619,#620,#621,#622));
#80=EDGE_LOOP('',(#623,#624,#625,#626));
#81=EDGE_LOOP('',(#627,#628,#629,#630));
#82=EDGE_LOOP('',(#631,#632,#633,#634,#635,#636,#637,#638,#639,#640,#641,
#642));
#83=EDGE_LOOP('',(#643,#644,#645,#646));
#84=EDGE_LOOP('',(#647,#648,#649,#650));
#85=EDGE_LOOP('',(#651,#652,#653,#654));
#86=EDGE_LOOP('',(#655,#656,#657,#658));
#87=EDGE_LOOP('',(#659,#660,#661,#662,#663,#664,#665,#666,#667,#668,#669,
#670));
#88=EDGE_LOOP('',(#671,#672,#673,#674));
#89=EDGE_LOOP('',(#675,#676,#677,#678));
#90=EDGE_LOOP('',(#679,#680,#681,#682));
#91=EDGE_LOOP('',(#683,#684,#685,#686));
#92=EDGE_LOOP('',(#687,#688,#689,#690,#691,#692,#693,#694,#695,#696,#697,
#698));
#93=EDGE_LOOP('',(#699,#700,#701,#702));
#94=EDGE_LOOP('',(#703,#704,#705,#706));
#95=EDGE_LOOP('',(#707,#708,#709,#710));
#96=EDGE_LOOP('',(#711,#712,#713,#714));
#97=EDGE_LOOP('',(#715,#716,#717,#718,#719,#720,#721,#722,#723,#724,#725,
#726));
#98=EDGE_LOOP('',(#727,#728,#729,#730));
#99=EDGE_LOOP('',(#731,#732,#733,#734));
#100=EDGE_LOOP('',(#735,#736,#737,#738));
#101=EDGE_LOOP('',(#739,#740,#741,#742));
#102=EDGE_LOOP('',(#743,#744,#745,#746));
#103=EDGE_LOOP('',(#747,#748,#749,#750));
#104=EDGE_LOOP('',(#751,#752,#753,#754));
#105=EDGE_LOOP('',(#755,#756,#757,#758));
#106=EDGE_LOOP('',(#759,#760,#761,#762));
#107=EDGE_LOOP('',(#763,#764,#765,#766));
#108=EDGE_LOOP('',(#767,#768,#769,#770));
#109=EDGE_LOOP('',(#771,#772,#773,#774));
#110=EDGE_LOOP('',(#775,#776,#777,#778));
#111=EDGE_LOOP('',(#779,#780,#781,#782,#783,#784,#785,#786,#787,#788,#789,
#790));
#112=EDGE_LOOP('',(#791,#792,#793,#794,#795,#796,#797,#798,#799,#800,#801,
#802));
#113=EDGE_LOOP('',(#803,#804,#805,#806));
#114=EDGE_LOOP('',(#807,#808,#809,#810));
#115=EDGE_LOOP('',(#811,#812,#813,#814));
#116=EDGE_LOOP('',(#815,#816,#817,#818,#819,#820,#821,#822,#823,#824,#825,
#826));
#117=EDGE_LOOP('',(#827,#828,#829,#830,#831,#832,#833,#834,#835,#836,#837,
#838));
#118=EDGE_LOOP('',(#839,#840,#841,#842,#843,#844,#845,#846,#847,#848,#849,
#850));
#119=LINE('',#1245,#243);
#120=LINE('',#1247,#244);
#121=LINE('',#1249,#245);
#122=LINE('',#1250,#246);
#123=LINE('',#1254,#247);
#124=LINE('',#1256,#248);
#125=LINE('',#1258,#249);
#126=LINE('',#1259,#250);
#127=LINE('',#1261,#251);
#128=LINE('',#1262,#252);
#129=LINE('',#1265,#253);
#130=LINE('',#1268,#254);
#131=LINE('',#1272,#255);
#132=LINE('',#1274,#256);
#133=LINE('',#1275,#257);
#134=LINE('',#1277,#258);
#135=LINE('',#1279,#259);
#136=LINE('',#1281,#260);
#137=LINE('',#1283,#261);
#138=LINE('',#1284,#262);
#139=LINE('',#1288,#263);
#140=LINE('',#1290,#264);
#141=LINE('',#1292,#265);
#142=LINE('',#1293,#266);
#143=LINE('',#1297,#267);
#144=LINE('',#1299,#268);
#145=LINE('',#1301,#269);
#146=LINE('',#1302,#270);
#147=LINE('',#1304,#271);
#148=LINE('',#1305,#272);
#149=LINE('',#1308,#273);
#150=LINE('',#1311,#274);
#151=LINE('',#1315,#275);
#152=LINE('',#1317,#276);
#153=LINE('',#1318,#277);
#154=LINE('',#1320,#278);
#155=LINE('',#1322,#279);
#156=LINE('',#1324,#280);
#157=LINE('',#1326,#281);
#158=LINE('',#1327,#282);
#159=LINE('',#1331,#283);
#160=LINE('',#1333,#284);
#161=LINE('',#1335,#285);
#162=LINE('',#1336,#286);
#163=LINE('',#1340,#287);
#164=LINE('',#1342,#288);
#165=LINE('',#1344,#289);
#166=LINE('',#1345,#290);
#167=LINE('',#1347,#291);
#168=LINE('',#1348,#292);
#169=LINE('',#1351,#293);
#170=LINE('',#1354,#294);
#171=LINE('',#1358,#295);
#172=LINE('',#1360,#296);
#173=LINE('',#1361,#297);
#174=LINE('',#1363,#298);
#175=LINE('',#1365,#299);
#176=LINE('',#1367,#300);
#177=LINE('',#1369,#301);
#178=LINE('',#1370,#302);
#179=LINE('',#1374,#303);
#180=LINE('',#1376,#304);
#181=LINE('',#1378,#305);
#182=LINE('',#1379,#306);
#183=LINE('',#1383,#307);
#184=LINE('',#1385,#308);
#185=LINE('',#1387,#309);
#186=LINE('',#1388,#310);
#187=LINE('',#1390,#311);
#188=LINE('',#1391,#312);
#189=LINE('',#1394,#313);
#190=LINE('',#1397,#314);
#191=LINE('',#1401,#315);
#192=LINE('',#1403,#316);
#193=LINE('',#1404,#317);
#194=LINE('',#1406,#318);
#195=LINE('',#1408,#319);
#196=LINE('',#1410,#320);
#197=LINE('',#1412,#321);
#198=LINE('',#1413,#322);
#199=LINE('',#1416,#323);
#200=LINE('',#1418,#324);
#201=LINE('',#1419,#325);
#202=LINE('',#1422,#326);
#203=LINE('',#1424,#327);
#204=LINE('',#1425,#328);
#205=LINE('',#1427,#329);
#206=LINE('',#1431,#330);
#207=LINE('',#1433,#331);
#208=LINE('',#1435,#332);
#209=LINE('',#1436,#333);
#210=LINE('',#1438,#334);
#211=LINE('',#1439,#335);
#212=LINE('',#1441,#336);
#213=LINE('',#1442,#337);
#214=LINE('',#1445,#338);
#215=LINE('',#1447,#339);
#216=LINE('',#1448,#340);
#217=LINE('',#1451,#341);
#218=LINE('',#1452,#342);
#219=LINE('',#1454,#343);
#220=LINE('',#1458,#344);
#221=LINE('',#1461,#345);
#222=LINE('',#1463,#346);
#223=LINE('',#1464,#347);
#224=LINE('',#1467,#348);
#225=LINE('',#1468,#349);
#226=LINE('',#1470,#350);
#227=LINE('',#1474,#351);
#228=LINE('',#1477,#352);
#229=LINE('',#1479,#353);
#230=LINE('',#1480,#354);
#231=LINE('',#1483,#355);
#232=LINE('',#1484,#356);
#233=LINE('',#1486,#357);
#234=LINE('',#1490,#358);
#235=LINE('',#1492,#359);
#236=LINE('',#1494,#360);
#237=LINE('',#1496,#361);
#238=LINE('',#1497,#362);
#239=LINE('',#1498,#363);
#240=LINE('',#1500,#364);
#241=LINE('',#1502,#365);
#242=LINE('',#1504,#366);
#243=VECTOR('',#1011,10.);
#244=VECTOR('',#1012,10.);
#245=VECTOR('',#1013,10.);
#246=VECTOR('',#1014,10.);
#247=VECTOR('',#1017,10.);
#248=VECTOR('',#1018,10.);
#249=VECTOR('',#1019,10.);
#250=VECTOR('',#1020,10.);
#251=VECTOR('',#1023,10.);
#252=VECTOR('',#1024,10.);
#253=VECTOR('',#1027,10.);
#254=VECTOR('',#1030,10.);
#255=VECTOR('',#1033,10.);
#256=VECTOR('',#1034,10.);
#257=VECTOR('',#1035,10.);
#258=VECTOR('',#1036,10.);
#259=VECTOR('',#1037,10.);
#260=VECTOR('',#1038,10.);
#261=VECTOR('',#1039,10.);
#262=VECTOR('',#1040,10.);
#263=VECTOR('',#1043,10.);
#264=VECTOR('',#1044,10.);
#265=VECTOR('',#1045,10.);
#266=VECTOR('',#1046,10.);
#267=VECTOR('',#1049,10.);
#268=VECTOR('',#1050,10.);
#269=VECTOR('',#1051,10.);
#270=VECTOR('',#1052,10.);
#271=VECTOR('',#1055,10.);
#272=VECTOR('',#1056,10.);
#273=VECTOR('',#1059,10.);
#274=VECTOR('',#1062,10.);
#275=VECTOR('',#1065,10.);
#276=VECTOR('',#1066,10.);
#277=VECTOR('',#1067,10.);
#278=VECTOR('',#1068,10.);
#279=VECTOR('',#1069,10.);
#280=VECTOR('',#1070,10.);
#281=VECTOR('',#1071,10.);
#282=VECTOR('',#1072,10.);
#283=VECTOR('',#1075,10.);
#284=VECTOR('',#1076,10.);
#285=VECTOR('',#1077,10.);
#286=VECTOR('',#1078,10.);
#287=VECTOR('',#1081,10.);
#288=VECTOR('',#1082,10.);
#289=VECTOR('',#1083,10.);
#290=VECTOR('',#1084,10.);
#291=VECTOR('',#1087,10.);
#292=VECTOR('',#1088,10.);
#293=VECTOR('',#1091,10.);
#294=VECTOR('',#1094,10.);
#295=VECTOR('',#1097,10.);
#296=VECTOR('',#1098,10.);
#297=VECTOR('',#1099,10.);
#298=VECTOR('',#1100,10.);
#299=VECTOR('',#1101,10.);
#300=VECTOR('',#1102,10.);
#301=VECTOR('',#1103,10.);
#302=VECTOR('',#1104,10.);
#303=VECTOR('',#1107,10.);
#304=VECTOR('',#1108,10.);
#305=VECTOR('',#1109,10.);
#306=VECTOR('',#1110,10.);
#307=VECTOR('',#1113,10.);
#308=VECTOR('',#1114,10.);
#309=VECTOR('',#1115,10.);
#310=VECTOR('',#1116,10.);
#311=VECTOR('',#1119,10.);
#312=VECTOR('',#1120,10.);
#313=VECTOR('',#1123,10.);
#314=VECTOR('',#1126,10.);
#315=VECTOR('',#1129,10.);
#316=VECTOR('',#1130,10.);
#317=VECTOR('',#1131,10.);
#318=VECTOR('',#1132,10.);
#319=VECTOR('',#1133,10.);
#320=VECTOR('',#1134,10.);
#321=VECTOR('',#1135,10.);
#322=VECTOR('',#1136,10.);
#323=VECTOR('',#1139,10.);
#324=VECTOR('',#1140,10.);
#325=VECTOR('',#1141,10.);
#326=VECTOR('',#1144,10.);
#327=VECTOR('',#1145,10.);
#328=VECTOR('',#1146,10.);
#329=VECTOR('',#1149,10.);
#330=VECTOR('',#1154,10.);
#331=VECTOR('',#1157,10.);
#332=VECTOR('',#1158,10.);
#333=VECTOR('',#1159,10.);
#334=VECTOR('',#1160,10.);
#335=VECTOR('',#1161,10.);
#336=VECTOR('',#1162,10.);
#337=VECTOR('',#1163,10.);
#338=VECTOR('',#1166,10.);
#339=VECTOR('',#1167,10.);
#340=VECTOR('',#1168,10.);
#341=VECTOR('',#1171,10.);
#342=VECTOR('',#1172,10.);
#343=VECTOR('',#1175,10.);
#344=VECTOR('',#1180,10.);
#345=VECTOR('',#1183,10.);
#346=VECTOR('',#1184,10.);
#347=VECTOR('',#1185,10.);
#348=VECTOR('',#1188,10.);
#349=VECTOR('',#1189,10.);
#350=VECTOR('',#1192,10.);
#351=VECTOR('',#1197,10.);
#352=VECTOR('',#1200,10.);
#353=VECTOR('',#1201,10.);
#354=VECTOR('',#1202,10.);
#355=VECTOR('',#1205,10.);
#356=VECTOR('',#1206,10.);
#357=VECTOR('',#1209,10.);
#358=VECTOR('',#1214,10.);
#359=VECTOR('',#1217,10.);
#360=VECTOR('',#1220,10.);
#361=VECTOR('',#1223,10.);
#362=VECTOR('',#1224,10.);
#363=VECTOR('',#1225,10.);
#364=VECTOR('',#1228,10.);
#365=VECTOR('',#1231,10.);
#366=VECTOR('',#1234,10.);
#367=VERTEX_POINT('',#1243);
#368=VERTEX_POINT('',#1244);
#369=VERTEX_POINT('',#1246);
#370=VERTEX_POINT('',#1248);
#371=VERTEX_POINT('',#1252);
#372=VERTEX_POINT('',#1253);
#373=VERTEX_POINT('',#1255);
#374=VERTEX_POINT('',#1257);
#375=VERTEX_POINT('',#1264);
#376=VERTEX_POINT('',#1266);
#377=VERTEX_POINT('',#1270);
#378=VERTEX_POINT('',#1271);
#379=VERTEX_POINT('',#1273);
#380=VERTEX_POINT('',#1276);
#381=VERTEX_POINT('',#1278);
#382=VERTEX_POINT('',#1280);
#383=VERTEX_POINT('',#1282);
#384=VERTEX_POINT('',#1286);
#385=VERTEX_POINT('',#1287);
#386=VERTEX_POINT('',#1289);
#387=VERTEX_POINT('',#1291);
#388=VERTEX_POINT('',#1295);
#389=VERTEX_POINT('',#1296);
#390=VERTEX_POINT('',#1298);
#391=VERTEX_POINT('',#1300);
#392=VERTEX_POINT('',#1307);
#393=VERTEX_POINT('',#1309);
#394=VERTEX_POINT('',#1313);
#395=VERTEX_POINT('',#1314);
#396=VERTEX_POINT('',#1316);
#397=VERTEX_POINT('',#1319);
#398=VERTEX_POINT('',#1321);
#399=VERTEX_POINT('',#1323);
#400=VERTEX_POINT('',#1325);
#401=VERTEX_POINT('',#1329);
#402=VERTEX_POINT('',#1330);
#403=VERTEX_POINT('',#1332);
#404=VERTEX_POINT('',#1334);
#405=VERTEX_POINT('',#1338);
#406=VERTEX_POINT('',#1339);
#407=VERTEX_POINT('',#1341);
#408=VERTEX_POINT('',#1343);
#409=VERTEX_POINT('',#1350);
#410=VERTEX_POINT('',#1352);
#411=VERTEX_POINT('',#1356);
#412=VERTEX_POINT('',#1357);
#413=VERTEX_POINT('',#1359);
#414=VERTEX_POINT('',#1362);
#415=VERTEX_POINT('',#1364);
#416=VERTEX_POINT('',#1366);
#417=VERTEX_POINT('',#1368);
#418=VERTEX_POINT('',#1372);
#419=VERTEX_POINT('',#1373);
#420=VERTEX_POINT('',#1375);
#421=VERTEX_POINT('',#1377);
#422=VERTEX_POINT('',#1381);
#423=VERTEX_POINT('',#1382);
#424=VERTEX_POINT('',#1384);
#425=VERTEX_POINT('',#1386);
#426=VERTEX_POINT('',#1393);
#427=VERTEX_POINT('',#1395);
#428=VERTEX_POINT('',#1399);
#429=VERTEX_POINT('',#1400);
#430=VERTEX_POINT('',#1402);
#431=VERTEX_POINT('',#1405);
#432=VERTEX_POINT('',#1407);
#433=VERTEX_POINT('',#1409);
#434=VERTEX_POINT('',#1411);
#435=VERTEX_POINT('',#1415);
#436=VERTEX_POINT('',#1417);
#437=VERTEX_POINT('',#1421);
#438=VERTEX_POINT('',#1423);
#439=VERTEX_POINT('',#1429);
#440=VERTEX_POINT('',#1434);
#441=VERTEX_POINT('',#1437);
#442=VERTEX_POINT('',#1440);
#443=VERTEX_POINT('',#1444);
#444=VERTEX_POINT('',#1446);
#445=VERTEX_POINT('',#1450);
#446=VERTEX_POINT('',#1456);
#447=VERTEX_POINT('',#1460);
#448=VERTEX_POINT('',#1462);
#449=VERTEX_POINT('',#1466);
#450=VERTEX_POINT('',#1472);
#451=VERTEX_POINT('',#1476);
#452=VERTEX_POINT('',#1478);
#453=VERTEX_POINT('',#1482);
#454=VERTEX_POINT('',#1488);
#455=EDGE_CURVE('',#367,#368,#119,.T.);
#456=EDGE_CURVE('',#367,#369,#120,.T.);
#457=EDGE_CURVE('',#370,#369,#121,.T.);
#458=EDGE_CURVE('',#368,#370,#122,.T.);
#459=EDGE_CURVE('',#371,#372,#123,.T.);
#460=EDGE_CURVE('',#371,#373,#124,.T.);
#461=EDGE_CURVE('',#374,#373,#125,.T.);
#462=EDGE_CURVE('',#372,#374,#126,.T.);
#463=EDGE_CURVE('',#369,#374,#127,.T.);
#464=EDGE_CURVE('',#373,#370,#128,.T.);
#465=EDGE_CURVE('',#375,#372,#129,.F.);
#466=EDGE_CURVE('',#376,#375,#19,.T.);
#467=EDGE_CURVE('',#371,#376,#130,.F.);
#468=EDGE_CURVE('',#377,#378,#131,.F.);
#469=EDGE_CURVE('',#379,#377,#132,.F.);
#470=EDGE_CURVE('',#379,#368,#133,.F.);
#471=EDGE_CURVE('',#380,#376,#134,.T.);
#472=EDGE_CURVE('',#381,#380,#135,.F.);
#473=EDGE_CURVE('',#381,#382,#136,.T.);
#474=EDGE_CURVE('',#383,#382,#137,.T.);
#475=EDGE_CURVE('',#378,#383,#138,.T.);
#476=EDGE_CURVE('',#384,#385,#139,.T.);
#477=EDGE_CURVE('',#384,#386,#140,.T.);
#478=EDGE_CURVE('',#387,#386,#141,.T.);
#479=EDGE_CURVE('',#385,#387,#142,.T.);
#480=EDGE_CURVE('',#388,#389,#143,.T.);
#481=EDGE_CURVE('',#388,#390,#144,.T.);
#482=EDGE_CURVE('',#391,#390,#145,.T.);
#483=EDGE_CURVE('',#389,#391,#146,.T.);
#484=EDGE_CURVE('',#386,#391,#147,.T.);
#485=EDGE_CURVE('',#390,#387,#148,.T.);
#486=EDGE_CURVE('',#392,#389,#149,.F.);
#487=EDGE_CURVE('',#393,#392,#20,.T.);
#488=EDGE_CURVE('',#388,#393,#150,.F.);
#489=EDGE_CURVE('',#394,#395,#151,.F.);
#490=EDGE_CURVE('',#396,#394,#152,.F.);
#491=EDGE_CURVE('',#396,#385,#153,.F.);
#492=EDGE_CURVE('',#397,#393,#154,.T.);
#493=EDGE_CURVE('',#398,#397,#155,.F.);
#494=EDGE_CURVE('',#398,#399,#156,.T.);
#495=EDGE_CURVE('',#400,#399,#157,.T.);
#496=EDGE_CURVE('',#395,#400,#158,.T.);
#497=EDGE_CURVE('',#401,#402,#159,.T.);
#498=EDGE_CURVE('',#401,#403,#160,.T.);
#499=EDGE_CURVE('',#404,#403,#161,.T.);
#500=EDGE_CURVE('',#402,#404,#162,.T.);
#501=EDGE_CURVE('',#405,#406,#163,.T.);
#502=EDGE_CURVE('',#405,#407,#164,.T.);
#503=EDGE_CURVE('',#408,#407,#165,.T.);
#504=EDGE_CURVE('',#406,#408,#166,.T.);
#505=EDGE_CURVE('',#403,#408,#167,.T.);
#506=EDGE_CURVE('',#407,#404,#168,.T.);
#507=EDGE_CURVE('',#409,#406,#169,.F.);
#508=EDGE_CURVE('',#410,#409,#21,.T.);
#509=EDGE_CURVE('',#405,#410,#170,.F.);
#510=EDGE_CURVE('',#411,#412,#171,.F.);
#511=EDGE_CURVE('',#413,#411,#172,.F.);
#512=EDGE_CURVE('',#413,#402,#173,.F.);
#513=EDGE_CURVE('',#414,#410,#174,.T.);
#514=EDGE_CURVE('',#415,#414,#175,.F.);
#515=EDGE_CURVE('',#415,#416,#176,.T.);
#516=EDGE_CURVE('',#417,#416,#177,.T.);
#517=EDGE_CURVE('',#412,#417,#178,.T.);
#518=EDGE_CURVE('',#418,#419,#179,.T.);
#519=EDGE_CURVE('',#418,#420,#180,.T.);
#520=EDGE_CURVE('',#421,#420,#181,.T.);
#521=EDGE_CURVE('',#419,#421,#182,.T.);
#522=EDGE_CURVE('',#422,#423,#183,.T.);
#523=EDGE_CURVE('',#422,#424,#184,.T.);
#524=EDGE_CURVE('',#425,#424,#185,.T.);
#525=EDGE_CURVE('',#423,#425,#186,.T.);
#526=EDGE_CURVE('',#420,#425,#187,.T.);
#527=EDGE_CURVE('',#424,#421,#188,.T.);
#528=EDGE_CURVE('',#426,#423,#189,.F.);
#529=EDGE_CURVE('',#427,#426,#22,.T.);
#530=EDGE_CURVE('',#422,#427,#190,.F.);
#531=EDGE_CURVE('',#428,#429,#191,.F.);
#532=EDGE_CURVE('',#430,#428,#192,.F.);
#533=EDGE_CURVE('',#430,#419,#193,.F.);
#534=EDGE_CURVE('',#431,#427,#194,.T.);
#535=EDGE_CURVE('',#432,#431,#195,.F.);
#536=EDGE_CURVE('',#432,#433,#196,.T.);
#537=EDGE_CURVE('',#434,#433,#197,.T.);
#538=EDGE_CURVE('',#429,#434,#198,.T.);
#539=EDGE_CURVE('',#435,#381,#199,.T.);
#540=EDGE_CURVE('',#435,#436,#200,.T.);
#541=EDGE_CURVE('',#382,#436,#201,.T.);
#542=EDGE_CURVE('',#378,#437,#202,.T.);
#543=EDGE_CURVE('',#438,#383,#203,.T.);
#544=EDGE_CURVE('',#437,#438,#204,.T.);
#545=EDGE_CURVE('',#436,#438,#205,.T.);
#546=EDGE_CURVE('',#439,#380,#23,.T.);
#547=EDGE_CURVE('',#439,#435,#206,.F.);
#548=EDGE_CURVE('',#437,#411,#207,.F.);
#549=EDGE_CURVE('',#412,#440,#208,.T.);
#550=EDGE_CURVE('',#440,#428,#209,.F.);
#551=EDGE_CURVE('',#429,#441,#210,.T.);
#552=EDGE_CURVE('',#441,#394,#211,.F.);
#553=EDGE_CURVE('',#395,#442,#212,.T.);
#554=EDGE_CURVE('',#442,#377,#213,.F.);
#555=EDGE_CURVE('',#443,#415,#214,.T.);
#556=EDGE_CURVE('',#443,#444,#215,.T.);
#557=EDGE_CURVE('',#416,#444,#216,.T.);
#558=EDGE_CURVE('',#445,#417,#217,.T.);
#559=EDGE_CURVE('',#440,#445,#218,.T.);
#560=EDGE_CURVE('',#444,#445,#219,.T.);
#561=EDGE_CURVE('',#446,#414,#24,.T.);
#562=EDGE_CURVE('',#446,#443,#220,.F.);
#563=EDGE_CURVE('',#447,#398,#221,.T.);
#564=EDGE_CURVE('',#447,#448,#222,.T.);
#565=EDGE_CURVE('',#399,#448,#223,.T.);
#566=EDGE_CURVE('',#449,#400,#224,.T.);
#567=EDGE_CURVE('',#442,#449,#225,.T.);
#568=EDGE_CURVE('',#448,#449,#226,.T.);
#569=EDGE_CURVE('',#450,#397,#25,.T.);
#570=EDGE_CURVE('',#450,#447,#227,.F.);
#571=EDGE_CURVE('',#451,#432,#228,.T.);
#572=EDGE_CURVE('',#451,#452,#229,.T.);
#573=EDGE_CURVE('',#433,#452,#230,.T.);
#574=EDGE_CURVE('',#453,#434,#231,.T.);
#575=EDGE_CURVE('',#441,#453,#232,.T.);
#576=EDGE_CURVE('',#452,#453,#233,.T.);
#577=EDGE_CURVE('',#454,#431,#26,.T.);
#578=EDGE_CURVE('',#454,#451,#234,.F.);
#579=EDGE_CURVE('',#375,#439,#235,.T.);
#580=EDGE_CURVE('',#367,#413,#236,.F.);
#581=EDGE_CURVE('',#384,#379,#237,.F.);
#582=EDGE_CURVE('',#418,#396,#238,.F.);
#583=EDGE_CURVE('',#401,#430,#239,.F.);
#584=EDGE_CURVE('',#409,#446,#240,.T.);
#585=EDGE_CURVE('',#392,#450,#241,.T.);
#586=EDGE_CURVE('',#426,#454,#242,.T.);
#587=ORIENTED_EDGE('',*,*,#455,.F.);
#588=ORIENTED_EDGE('',*,*,#456,.T.);
#589=ORIENTED_EDGE('',*,*,#457,.F.);
#590=ORIENTED_EDGE('',*,*,#458,.F.);
#591=ORIENTED_EDGE('',*,*,#459,.F.);
#592=ORIENTED_EDGE('',*,*,#460,.T.);
#593=ORIENTED_EDGE('',*,*,#461,.F.);
#594=ORIENTED_EDGE('',*,*,#462,.F.);
#595=ORIENTED_EDGE('',*,*,#463,.T.);
#596=ORIENTED_EDGE('',*,*,#461,.T.);
#597=ORIENTED_EDGE('',*,*,#464,.T.);
#598=ORIENTED_EDGE('',*,*,#457,.T.);
#599=ORIENTED_EDGE('',*,*,#459,.T.);
#600=ORIENTED_EDGE('',*,*,#465,.F.);
#601=ORIENTED_EDGE('',*,*,#466,.F.);
#602=ORIENTED_EDGE('',*,*,#467,.F.);
#603=ORIENTED_EDGE('',*,*,#468,.F.);
#604=ORIENTED_EDGE('',*,*,#469,.F.);
#605=ORIENTED_EDGE('',*,*,#470,.T.);
#606=ORIENTED_EDGE('',*,*,#458,.T.);
#607=ORIENTED_EDGE('',*,*,#464,.F.);
#608=ORIENTED_EDGE('',*,*,#460,.F.);
#609=ORIENTED_EDGE('',*,*,#467,.T.);
#610=ORIENTED_EDGE('',*,*,#471,.F.);
#611=ORIENTED_EDGE('',*,*,#472,.F.);
#612=ORIENTED_EDGE('',*,*,#473,.T.);
#613=ORIENTED_EDGE('',*,*,#474,.F.);
#614=ORIENTED_EDGE('',*,*,#475,.F.);
#615=ORIENTED_EDGE('',*,*,#476,.F.);
#616=ORIENTED_EDGE('',*,*,#477,.T.);
#617=ORIENTED_EDGE('',*,*,#478,.F.);
#618=ORIENTED_EDGE('',*,*,#479,.F.);
#619=ORIENTED_EDGE('',*,*,#480,.F.);
#620=ORIENTED_EDGE('',*,*,#481,.T.);
#621=ORIENTED_EDGE('',*,*,#482,.F.);
#622=ORIENTED_EDGE('',*,*,#483,.F.);
#623=ORIENTED_EDGE('',*,*,#484,.T.);
#624=ORIENTED_EDGE('',*,*,#482,.T.);
#625=ORIENTED_EDGE('',*,*,#485,.T.);
#626=ORIENTED_EDGE('',*,*,#478,.T.);
#627=ORIENTED_EDGE('',*,*,#480,.T.);
#628=ORIENTED_EDGE('',*,*,#486,.F.);
#629=ORIENTED_EDGE('',*,*,#487,.F.);
#630=ORIENTED_EDGE('',*,*,#488,.F.);
#631=ORIENTED_EDGE('',*,*,#489,.F.);
#632=ORIENTED_EDGE('',*,*,#490,.F.);
#633=ORIENTED_EDGE('',*,*,#491,.T.);
#634=ORIENTED_EDGE('',*,*,#479,.T.);
#635=ORIENTED_EDGE('',*,*,#485,.F.);
#636=ORIENTED_EDGE('',*,*,#481,.F.);
#637=ORIENTED_EDGE('',*,*,#488,.T.);
#638=ORIENTED_EDGE('',*,*,#492,.F.);
#639=ORIENTED_EDGE('',*,*,#493,.F.);
#640=ORIENTED_EDGE('',*,*,#494,.T.);
#641=ORIENTED_EDGE('',*,*,#495,.F.);
#642=ORIENTED_EDGE('',*,*,#496,.F.);
#643=ORIENTED_EDGE('',*,*,#497,.F.);
#644=ORIENTED_EDGE('',*,*,#498,.T.);
#645=ORIENTED_EDGE('',*,*,#499,.F.);
#646=ORIENTED_EDGE('',*,*,#500,.F.);
#647=ORIENTED_EDGE('',*,*,#501,.F.);
#648=ORIENTED_EDGE('',*,*,#502,.T.);
#649=ORIENTED_EDGE('',*,*,#503,.F.);
#650=ORIENTED_EDGE('',*,*,#504,.F.);
#651=ORIENTED_EDGE('',*,*,#505,.T.);
#652=ORIENTED_EDGE('',*,*,#503,.T.);
#653=ORIENTED_EDGE('',*,*,#506,.T.);
#654=ORIENTED_EDGE('',*,*,#499,.T.);
#655=ORIENTED_EDGE('',*,*,#501,.T.);
#656=ORIENTED_EDGE('',*,*,#507,.F.);
#657=ORIENTED_EDGE('',*,*,#508,.F.);
#658=ORIENTED_EDGE('',*,*,#509,.F.);
#659=ORIENTED_EDGE('',*,*,#510,.F.);
#660=ORIENTED_EDGE('',*,*,#511,.F.);
#661=ORIENTED_EDGE('',*,*,#512,.T.);
#662=ORIENTED_EDGE('',*,*,#500,.T.);
#663=ORIENTED_EDGE('',*,*,#506,.F.);
#664=ORIENTED_EDGE('',*,*,#502,.F.);
#665=ORIENTED_EDGE('',*,*,#509,.T.);
#666=ORIENTED_EDGE('',*,*,#513,.F.);
#667=ORIENTED_EDGE('',*,*,#514,.F.);
#668=ORIENTED_EDGE('',*,*,#515,.T.);
#669=ORIENTED_EDGE('',*,*,#516,.F.);
#670=ORIENTED_EDGE('',*,*,#517,.F.);
#671=ORIENTED_EDGE('',*,*,#518,.F.);
#672=ORIENTED_EDGE('',*,*,#519,.T.);
#673=ORIENTED_EDGE('',*,*,#520,.F.);
#674=ORIENTED_EDGE('',*,*,#521,.F.);
#675=ORIENTED_EDGE('',*,*,#522,.F.);
#676=ORIENTED_EDGE('',*,*,#523,.T.);
#677=ORIENTED_EDGE('',*,*,#524,.F.);
#678=ORIENTED_EDGE('',*,*,#525,.F.);
#679=ORIENTED_EDGE('',*,*,#526,.T.);
#680=ORIENTED_EDGE('',*,*,#524,.T.);
#681=ORIENTED_EDGE('',*,*,#527,.T.);
#682=ORIENTED_EDGE('',*,*,#520,.T.);
#683=ORIENTED_EDGE('',*,*,#522,.T.);
#684=ORIENTED_EDGE('',*,*,#528,.F.);
#685=ORIENTED_EDGE('',*,*,#529,.F.);
#686=ORIENTED_EDGE('',*,*,#530,.F.);
#687=ORIENTED_EDGE('',*,*,#531,.F.);
#688=ORIENTED_EDGE('',*,*,#532,.F.);
#689=ORIENTED_EDGE('',*,*,#533,.T.);
#690=ORIENTED_EDGE('',*,*,#521,.T.);
#691=ORIENTED_EDGE('',*,*,#527,.F.);
#692=ORIENTED_EDGE('',*,*,#523,.F.);
#693=ORIENTED_EDGE('',*,*,#530,.T.);
#694=ORIENTED_EDGE('',*,*,#534,.F.);
#695=ORIENTED_EDGE('',*,*,#535,.F.);
#696=ORIENTED_EDGE('',*,*,#536,.T.);
#697=ORIENTED_EDGE('',*,*,#537,.F.);
#698=ORIENTED_EDGE('',*,*,#538,.F.);
#699=ORIENTED_EDGE('',*,*,#539,.F.);
#700=ORIENTED_EDGE('',*,*,#540,.T.);
#701=ORIENTED_EDGE('',*,*,#541,.F.);
#702=ORIENTED_EDGE('',*,*,#473,.F.);
#703=ORIENTED_EDGE('',*,*,#542,.F.);
#704=ORIENTED_EDGE('',*,*,#475,.T.);
#705=ORIENTED_EDGE('',*,*,#543,.F.);
#706=ORIENTED_EDGE('',*,*,#544,.F.);
#707=ORIENTED_EDGE('',*,*,#545,.T.);
#708=ORIENTED_EDGE('',*,*,#543,.T.);
#709=ORIENTED_EDGE('',*,*,#474,.T.);
#710=ORIENTED_EDGE('',*,*,#541,.T.);
#711=ORIENTED_EDGE('',*,*,#539,.T.);
#712=ORIENTED_EDGE('',*,*,#472,.T.);
#713=ORIENTED_EDGE('',*,*,#546,.F.);
#714=ORIENTED_EDGE('',*,*,#547,.T.);
#715=ORIENTED_EDGE('',*,*,#542,.T.);
#716=ORIENTED_EDGE('',*,*,#548,.T.);
#717=ORIENTED_EDGE('',*,*,#510,.T.);
#718=ORIENTED_EDGE('',*,*,#549,.T.);
#719=ORIENTED_EDGE('',*,*,#550,.T.);
#720=ORIENTED_EDGE('',*,*,#531,.T.);
#721=ORIENTED_EDGE('',*,*,#551,.T.);
#722=ORIENTED_EDGE('',*,*,#552,.T.);
#723=ORIENTED_EDGE('',*,*,#489,.T.);
#724=ORIENTED_EDGE('',*,*,#553,.T.);
#725=ORIENTED_EDGE('',*,*,#554,.T.);
#726=ORIENTED_EDGE('',*,*,#468,.T.);
#727=ORIENTED_EDGE('',*,*,#555,.F.);
#728=ORIENTED_EDGE('',*,*,#556,.T.);
#729=ORIENTED_EDGE('',*,*,#557,.F.);
#730=ORIENTED_EDGE('',*,*,#515,.F.);
#731=ORIENTED_EDGE('',*,*,#549,.F.);
#732=ORIENTED_EDGE('',*,*,#517,.T.);
#733=ORIENTED_EDGE('',*,*,#558,.F.);
#734=ORIENTED_EDGE('',*,*,#559,.F.);
#735=ORIENTED_EDGE('',*,*,#560,.T.);
#736=ORIENTED_EDGE('',*,*,#558,.T.);
#737=ORIENTED_EDGE('',*,*,#516,.T.);
#738=ORIENTED_EDGE('',*,*,#557,.T.);
#739=ORIENTED_EDGE('',*,*,#555,.T.);
#740=ORIENTED_EDGE('',*,*,#514,.T.);
#741=ORIENTED_EDGE('',*,*,#561,.F.);
#742=ORIENTED_EDGE('',*,*,#562,.T.);
#743=ORIENTED_EDGE('',*,*,#563,.F.);
#744=ORIENTED_EDGE('',*,*,#564,.T.);
#745=ORIENTED_EDGE('',*,*,#565,.F.);
#746=ORIENTED_EDGE('',*,*,#494,.F.);
#747=ORIENTED_EDGE('',*,*,#553,.F.);
#748=ORIENTED_EDGE('',*,*,#496,.T.);
#749=ORIENTED_EDGE('',*,*,#566,.F.);
#750=ORIENTED_EDGE('',*,*,#567,.F.);
#751=ORIENTED_EDGE('',*,*,#568,.T.);
#752=ORIENTED_EDGE('',*,*,#566,.T.);
#753=ORIENTED_EDGE('',*,*,#495,.T.);
#754=ORIENTED_EDGE('',*,*,#565,.T.);
#755=ORIENTED_EDGE('',*,*,#563,.T.);
#756=ORIENTED_EDGE('',*,*,#493,.T.);
#757=ORIENTED_EDGE('',*,*,#569,.F.);
#758=ORIENTED_EDGE('',*,*,#570,.T.);
#759=ORIENTED_EDGE('',*,*,#571,.F.);
#760=ORIENTED_EDGE('',*,*,#572,.T.);
#761=ORIENTED_EDGE('',*,*,#573,.F.);
#762=ORIENTED_EDGE('',*,*,#536,.F.);
#763=ORIENTED_EDGE('',*,*,#551,.F.);
#764=ORIENTED_EDGE('',*,*,#538,.T.);
#765=ORIENTED_EDGE('',*,*,#574,.F.);
#766=ORIENTED_EDGE('',*,*,#575,.F.);
#767=ORIENTED_EDGE('',*,*,#576,.T.);
#768=ORIENTED_EDGE('',*,*,#574,.T.);
#769=ORIENTED_EDGE('',*,*,#537,.T.);
#770=ORIENTED_EDGE('',*,*,#573,.T.);
#771=ORIENTED_EDGE('',*,*,#571,.T.);
#772=ORIENTED_EDGE('',*,*,#535,.T.);
#773=ORIENTED_EDGE('',*,*,#577,.F.);
#774=ORIENTED_EDGE('',*,*,#578,.T.);
#775=ORIENTED_EDGE('',*,*,#546,.T.);
#776=ORIENTED_EDGE('',*,*,#471,.T.);
#777=ORIENTED_EDGE('',*,*,#466,.T.);
#778=ORIENTED_EDGE('',*,*,#579,.T.);
#779=ORIENTED_EDGE('',*,*,#580,.T.);
#780=ORIENTED_EDGE('',*,*,#511,.T.);
#781=ORIENTED_EDGE('',*,*,#548,.F.);
#782=ORIENTED_EDGE('',*,*,#544,.T.);
#783=ORIENTED_EDGE('',*,*,#545,.F.);
#784=ORIENTED_EDGE('',*,*,#540,.F.);
#785=ORIENTED_EDGE('',*,*,#547,.F.);
#786=ORIENTED_EDGE('',*,*,#579,.F.);
#787=ORIENTED_EDGE('',*,*,#465,.T.);
#788=ORIENTED_EDGE('',*,*,#462,.T.);
#789=ORIENTED_EDGE('',*,*,#463,.F.);
#790=ORIENTED_EDGE('',*,*,#456,.F.);
#791=ORIENTED_EDGE('',*,*,#455,.T.);
#792=ORIENTED_EDGE('',*,*,#470,.F.);
#793=ORIENTED_EDGE('',*,*,#581,.F.);
#794=ORIENTED_EDGE('',*,*,#476,.T.);
#795=ORIENTED_EDGE('',*,*,#491,.F.);
#796=ORIENTED_EDGE('',*,*,#582,.F.);
#797=ORIENTED_EDGE('',*,*,#518,.T.);
#798=ORIENTED_EDGE('',*,*,#533,.F.);
#799=ORIENTED_EDGE('',*,*,#583,.F.);
#800=ORIENTED_EDGE('',*,*,#497,.T.);
#801=ORIENTED_EDGE('',*,*,#512,.F.);
#802=ORIENTED_EDGE('',*,*,#580,.F.);
#803=ORIENTED_EDGE('',*,*,#561,.T.);
#804=ORIENTED_EDGE('',*,*,#513,.T.);
#805=ORIENTED_EDGE('',*,*,#508,.T.);
#806=ORIENTED_EDGE('',*,*,#584,.T.);
#807=ORIENTED_EDGE('',*,*,#569,.T.);
#808=ORIENTED_EDGE('',*,*,#492,.T.);
#809=ORIENTED_EDGE('',*,*,#487,.T.);
#810=ORIENTED_EDGE('',*,*,#585,.T.);
#811=ORIENTED_EDGE('',*,*,#577,.T.);
#812=ORIENTED_EDGE('',*,*,#534,.T.);
#813=ORIENTED_EDGE('',*,*,#529,.T.);
#814=ORIENTED_EDGE('',*,*,#586,.T.);
#815=ORIENTED_EDGE('',*,*,#581,.T.);
#816=ORIENTED_EDGE('',*,*,#469,.T.);
#817=ORIENTED_EDGE('',*,*,#554,.F.);
#818=ORIENTED_EDGE('',*,*,#567,.T.);
#819=ORIENTED_EDGE('',*,*,#568,.F.);
#820=ORIENTED_EDGE('',*,*,#564,.F.);
#821=ORIENTED_EDGE('',*,*,#570,.F.);
#822=ORIENTED_EDGE('',*,*,#585,.F.);
#823=ORIENTED_EDGE('',*,*,#486,.T.);
#824=ORIENTED_EDGE('',*,*,#483,.T.);
#825=ORIENTED_EDGE('',*,*,#484,.F.);
#826=ORIENTED_EDGE('',*,*,#477,.F.);
#827=ORIENTED_EDGE('',*,*,#582,.T.);
#828=ORIENTED_EDGE('',*,*,#490,.T.);
#829=ORIENTED_EDGE('',*,*,#552,.F.);
#830=ORIENTED_EDGE('',*,*,#575,.T.);
#831=ORIENTED_EDGE('',*,*,#576,.F.);
#832=ORIENTED_EDGE('',*,*,#572,.F.);
#833=ORIENTED_EDGE('',*,*,#578,.F.);
#834=ORIENTED_EDGE('',*,*,#586,.F.);
#835=ORIENTED_EDGE('',*,*,#528,.T.);
#836=ORIENTED_EDGE('',*,*,#525,.T.);
#837=ORIENTED_EDGE('',*,*,#526,.F.);
#838=ORIENTED_EDGE('',*,*,#519,.F.);
#839=ORIENTED_EDGE('',*,*,#583,.T.);
#840=ORIENTED_EDGE('',*,*,#532,.T.);
#841=ORIENTED_EDGE('',*,*,#550,.F.);
#842=ORIENTED_EDGE('',*,*,#559,.T.);
#843=ORIENTED_EDGE('',*,*,#560,.F.);
#844=ORIENTED_EDGE('',*,*,#556,.F.);
#845=ORIENTED_EDGE('',*,*,#562,.F.);
#846=ORIENTED_EDGE('',*,*,#584,.F.);
#847=ORIENTED_EDGE('',*,*,#507,.T.);
#848=ORIENTED_EDGE('',*,*,#504,.T.);
#849=ORIENTED_EDGE('',*,*,#505,.F.);
#850=ORIENTED_EDGE('',*,*,#498,.F.);
#851=PLANE('',#953);
#852=PLANE('',#954);
#853=PLANE('',#955);
#854=PLANE('',#956);
#855=PLANE('',#958);
#856=PLANE('',#959);
#857=PLANE('',#960);
#858=PLANE('',#961);
#859=PLANE('',#962);
#860=PLANE('',#964);
#861=PLANE('',#965);
#862=PLANE('',#966);
#863=PLANE('',#967);
#864=PLANE('',#968);
#865=PLANE('',#970);
#866=PLANE('',#971);
#867=PLANE('',#972);
#868=PLANE('',#973);
#869=PLANE('',#974);
#870=PLANE('',#976);
#871=PLANE('',#977);
#872=PLANE('',#978);
#873=PLANE('',#979);
#874=PLANE('',#980);
#875=PLANE('',#982);
#876=PLANE('',#983);
#877=PLANE('',#984);
#878=PLANE('',#985);
#879=PLANE('',#986);
#880=PLANE('',#988);
#881=PLANE('',#989);
#882=PLANE('',#990);
#883=PLANE('',#991);
#884=PLANE('',#993);
#885=PLANE('',#994);
#886=PLANE('',#995);
#887=PLANE('',#996);
#888=PLANE('',#999);
#889=PLANE('',#1000);
#890=PLANE('',#1004);
#891=PLANE('',#1005);
#892=PLANE('',#1006);
#893=ADVANCED_FACE('',(#27),#851,.T.);
#894=ADVANCED_FACE('',(#28),#852,.T.);
#895=ADVANCED_FACE('',(#29),#853,.T.);
#896=ADVANCED_FACE('',(#30),#854,.F.);
#897=ADVANCED_FACE('',(#31),#855,.T.);
#898=ADVANCED_FACE('',(#32),#856,.T.);
#899=ADVANCED_FACE('',(#33),#857,.T.);
#900=ADVANCED_FACE('',(#34),#858,.T.);
#901=ADVANCED_FACE('',(#35),#859,.F.);
#902=ADVANCED_FACE('',(#36),#860,.T.);
#903=ADVANCED_FACE('',(#37),#861,.T.);
#904=ADVANCED_FACE('',(#38),#862,.T.);
#905=ADVANCED_FACE('',(#39),#863,.T.);
#906=ADVANCED_FACE('',(#40),#864,.F.);
#907=ADVANCED_FACE('',(#41),#865,.T.);
#908=ADVANCED_FACE('',(#42),#866,.T.);
#909=ADVANCED_FACE('',(#43),#867,.T.);
#910=ADVANCED_FACE('',(#44),#868,.T.);
#911=ADVANCED_FACE('',(#45),#869,.F.);
#912=ADVANCED_FACE('',(#46),#870,.T.);
#913=ADVANCED_FACE('',(#47),#871,.T.);
#914=ADVANCED_FACE('',(#48),#872,.T.);
#915=ADVANCED_FACE('',(#49),#873,.T.);
#916=ADVANCED_FACE('',(#50),#874,.T.);
#917=ADVANCED_FACE('',(#51),#875,.T.);
#918=ADVANCED_FACE('',(#52),#876,.T.);
#919=ADVANCED_FACE('',(#53),#877,.T.);
#920=ADVANCED_FACE('',(#54),#878,.T.);
#921=ADVANCED_FACE('',(#55),#879,.T.);
#922=ADVANCED_FACE('',(#56),#880,.T.);
#923=ADVANCED_FACE('',(#57),#881,.T.);
#924=ADVANCED_FACE('',(#58),#882,.T.);
#925=ADVANCED_FACE('',(#59),#883,.T.);
#926=ADVANCED_FACE('',(#60),#884,.T.);
#927=ADVANCED_FACE('',(#61),#885,.T.);
#928=ADVANCED_FACE('',(#62),#886,.T.);
#929=ADVANCED_FACE('',(#63),#887,.T.);
#930=ADVANCED_FACE('',(#64),#15,.T.);
#931=ADVANCED_FACE('',(#65),#888,.T.);
#932=ADVANCED_FACE('',(#66),#889,.F.);
#933=ADVANCED_FACE('',(#67),#16,.T.);
#934=ADVANCED_FACE('',(#68),#17,.T.);
#935=ADVANCED_FACE('',(#69),#18,.T.);
#936=ADVANCED_FACE('',(#70),#890,.T.);
#937=ADVANCED_FACE('',(#71),#891,.T.);
#938=ADVANCED_FACE('',(#72),#892,.T.);
#939=CLOSED_SHELL('',(#893,#894,#895,#896,#897,#898,#899,#900,#901,#902,
#903,#904,#905,#906,#907,#908,#909,#910,#911,#912,#913,#914,#915,#916,#917,
#918,#919,#920,#921,#922,#923,#924,#925,#926,#927,#928,#929,#930,#931,#932,
#933,#934,#935,#936,#937,#938));
#940=DERIVED_UNIT_ELEMENT(#942,1.);
#941=DERIVED_UNIT_ELEMENT(#1513,-3.);
#942=(
MASS_UNIT()
NAMED_UNIT(*)
SI_UNIT(.KILO.,.GRAM.)
);
#943=DERIVED_UNIT((#940,#941));
#944=MEASURE_REPRESENTATION_ITEM('density measure',
POSITIVE_RATIO_MEASURE(7850.),#943);
#945=PROPERTY_DEFINITION_REPRESENTATION(#950,#947);
#946=PROPERTY_DEFINITION_REPRESENTATION(#951,#948);
#947=REPRESENTATION('material name',(#949),#1510);
#948=REPRESENTATION('density',(#944),#1510);
#949=DESCRIPTIVE_REPRESENTATION_ITEM('Steel','Steel');
#950=PROPERTY_DEFINITION('material property','material name',#1520);
#951=PROPERTY_DEFINITION('material property','density of part',#1520);
#952=AXIS2_PLACEMENT_3D('',#1241,#1007,#1008);
#953=AXIS2_PLACEMENT_3D('',#1242,#1009,#1010);
#954=AXIS2_PLACEMENT_3D('',#1251,#1015,#1016);
#955=AXIS2_PLACEMENT_3D('',#1260,#1021,#1022);
#956=AXIS2_PLACEMENT_3D('',#1263,#1025,#1026);
#957=AXIS2_PLACEMENT_3D('',#1267,#1028,#1029);
#958=AXIS2_PLACEMENT_3D('',#1269,#1031,#1032);
#959=AXIS2_PLACEMENT_3D('',#1285,#1041,#1042);
#960=AXIS2_PLACEMENT_3D('',#1294,#1047,#1048);
#961=AXIS2_PLACEMENT_3D('',#1303,#1053,#1054);
#962=AXIS2_PLACEMENT_3D('',#1306,#1057,#1058);
#963=AXIS2_PLACEMENT_3D('',#1310,#1060,#1061);
#964=AXIS2_PLACEMENT_3D('',#1312,#1063,#1064);
#965=AXIS2_PLACEMENT_3D('',#1328,#1073,#1074);
#966=AXIS2_PLACEMENT_3D('',#1337,#1079,#1080);
#967=AXIS2_PLACEMENT_3D('',#1346,#1085,#1086);
#968=AXIS2_PLACEMENT_3D('',#1349,#1089,#1090);
#969=AXIS2_PLACEMENT_3D('',#1353,#1092,#1093);
#970=AXIS2_PLACEMENT_3D('',#1355,#1095,#1096);
#971=AXIS2_PLACEMENT_3D('',#1371,#1105,#1106);
#972=AXIS2_PLACEMENT_3D('',#1380,#1111,#1112);
#973=AXIS2_PLACEMENT_3D('',#1389,#1117,#1118);
#974=AXIS2_PLACEMENT_3D('',#1392,#1121,#1122);
#975=AXIS2_PLACEMENT_3D('',#1396,#1124,#1125);
#976=AXIS2_PLACEMENT_3D('',#1398,#1127,#1128);
#977=AXIS2_PLACEMENT_3D('',#1414,#1137,#1138);
#978=AXIS2_PLACEMENT_3D('',#1420,#1142,#1143);
#979=AXIS2_PLACEMENT_3D('',#1426,#1147,#1148);
#980=AXIS2_PLACEMENT_3D('',#1428,#1150,#1151);
#981=AXIS2_PLACEMENT_3D('',#1430,#1152,#1153);
#982=AXIS2_PLACEMENT_3D('',#1432,#1155,#1156);
#983=AXIS2_PLACEMENT_3D('',#1443,#1164,#1165);
#984=AXIS2_PLACEMENT_3D('',#1449,#1169,#1170);
#985=AXIS2_PLACEMENT_3D('',#1453,#1173,#1174);
#986=AXIS2_PLACEMENT_3D('',#1455,#1176,#1177);
#987=AXIS2_PLACEMENT_3D('',#1457,#1178,#1179);
#988=AXIS2_PLACEMENT_3D('',#1459,#1181,#1182);
#989=AXIS2_PLACEMENT_3D('',#1465,#1186,#1187);
#990=AXIS2_PLACEMENT_3D('',#1469,#1190,#1191);
#991=AXIS2_PLACEMENT_3D('',#1471,#1193,#1194);
#992=AXIS2_PLACEMENT_3D('',#1473,#1195,#1196);
#993=AXIS2_PLACEMENT_3D('',#1475,#1198,#1199);
#994=AXIS2_PLACEMENT_3D('',#1481,#1203,#1204);
#995=AXIS2_PLACEMENT_3D('',#1485,#1207,#1208);
#996=AXIS2_PLACEMENT_3D('',#1487,#1210,#1211);
#997=AXIS2_PLACEMENT_3D('',#1489,#1212,#1213);
#998=AXIS2_PLACEMENT_3D('',#1491,#1215,#1216);
#999=AXIS2_PLACEMENT_3D('',#1493,#1218,#1219);
#1000=AXIS2_PLACEMENT_3D('',#1495,#1221,#1222);
#1001=AXIS2_PLACEMENT_3D('',#1499,#1226,#1227);
#1002=AXIS2_PLACEMENT_3D('',#1501,#1229,#1230);
#1003=AXIS2_PLACEMENT_3D('',#1503,#1232,#1233);
#1004=AXIS2_PLACEMENT_3D('',#1505,#1235,#1236);
#1005=AXIS2_PLACEMENT_3D('',#1506,#1237,#1238);
#1006=AXIS2_PLACEMENT_3D('',#1507,#1239,#1240);
#1007=DIRECTION('axis',(0.,0.,1.));
#1008=DIRECTION('refdir',(1.,0.,0.));
#1009=DIRECTION('center_axis',(0.,-1.,0.));
#1010=DIRECTION('ref_axis',(-1.,0.,0.));
#1011=DIRECTION('',(1.,0.,0.));
#1012=DIRECTION('',(0.,0.,-1.));
#1013=DIRECTION('',(-1.,0.,0.));
#1014=DIRECTION('',(0.,0.,-1.));
#1015=DIRECTION('center_axis',(0.,1.,0.));
#1016=DIRECTION('ref_axis',(1.,0.,0.));
#1017=DIRECTION('',(-1.,0.,0.));
#1018=DIRECTION('',(0.,0.,-1.));
#1019=DIRECTION('',(1.,0.,0.));
#1020=DIRECTION('',(0.,0.,-1.));
#1021=DIRECTION('center_axis',(0.,0.,-1.));
#1022=DIRECTION('ref_axis',(-1.,0.,0.));
#1023=DIRECTION('',(-1.85037170770859E-16,1.,0.));
#1024=DIRECTION('',(1.2490009027033E-16,-1.,0.));
#1025=DIRECTION('center_axis',(0.,0.,1.));
#1026=DIRECTION('ref_axis',(1.,0.,0.));
#1027=DIRECTION('',(-2.22044604925031E-16,1.,0.));
#1028=DIRECTION('center_axis',(0.,0.,1.));
#1029=DIRECTION('ref_axis',(-0.707106781186547,0.707106781186548,0.));
#1030=DIRECTION('',(2.22044604925031E-16,-1.,0.));
#1031=DIRECTION('center_axis',(1.,2.22044604925031E-16,0.));
#1032=DIRECTION('ref_axis',(-2.22044604925031E-16,1.,0.));
#1033=DIRECTION('',(2.22044604925031E-16,-1.,0.));
#1034=DIRECTION('',(0.,0.,-1.));
#1035=DIRECTION('',(2.22044604925031E-16,-1.,0.));
#1036=DIRECTION('',(0.,0.,-1.));
#1037=DIRECTION('',(2.22044604925031E-16,-1.,0.));
#1038=DIRECTION('',(0.,0.,1.));
#1039=DIRECTION('',(-1.2490009027033E-16,1.,0.));
#1040=DIRECTION('',(0.,0.,1.));
#1041=DIRECTION('center_axis',(-1.,0.,0.));
#1042=DIRECTION('ref_axis',(0.,1.,0.));
#1043=DIRECTION('',(0.,-1.,0.));
#1044=DIRECTION('',(0.,0.,-1.));
#1045=DIRECTION('',(0.,1.,0.));
#1046=DIRECTION('',(0.,0.,-1.));
#1047=DIRECTION('center_axis',(1.,0.,0.));
#1048=DIRECTION('ref_axis',(0.,-1.,0.));
#1049=DIRECTION('',(0.,1.,0.));
#1050=DIRECTION('',(0.,0.,-1.));
#1051=DIRECTION('',(0.,-1.,0.));
#1052=DIRECTION('',(0.,0.,-1.));
#1053=DIRECTION('center_axis',(0.,0.,-1.));
#1054=DIRECTION('ref_axis',(-1.,0.,0.));
#1055=DIRECTION('',(1.,0.,0.));
#1056=DIRECTION('',(-1.,-9.0205620750794E-17,0.));
#1057=DIRECTION('center_axis',(0.,0.,1.));
#1058=DIRECTION('ref_axis',(1.,0.,0.));
#1059=DIRECTION('',(1.,0.,0.));
#1060=DIRECTION('center_axis',(0.,0.,1.));
#1061=DIRECTION('ref_axis',(0.707106781186548,0.707106781186547,0.));
#1062=DIRECTION('',(-1.,0.,0.));
#1063=DIRECTION('center_axis',(0.,-1.,0.));
#1064=DIRECTION('ref_axis',(1.,0.,0.));
#1065=DIRECTION('',(-1.,0.,0.));
#1066=DIRECTION('',(0.,0.,-1.));
#1067=DIRECTION('',(-1.,0.,0.));
#1068=DIRECTION('',(0.,0.,-1.));
#1069=DIRECTION('',(-1.,0.,0.));
#1070=DIRECTION('',(0.,0.,1.));
#1071=DIRECTION('',(1.,9.0205620750794E-17,0.));
#1072=DIRECTION('',(0.,0.,1.));
#1073=DIRECTION('center_axis',(1.,0.,0.));
#1074=DIRECTION('ref_axis',(0.,-1.,0.));
#1075=DIRECTION('',(0.,1.,0.));
#1076=DIRECTION('',(0.,0.,-1.));
#1077=DIRECTION('',(0.,-1.,0.));
#1078=DIRECTION('',(0.,0.,-1.));
#1079=DIRECTION('center_axis',(-1.,0.,0.));
#1080=DIRECTION('ref_axis',(0.,1.,0.));
#1081=DIRECTION('',(0.,-1.,0.));
#1082=DIRECTION('',(0.,0.,-1.));
#1083=DIRECTION('',(0.,1.,0.));
#1084=DIRECTION('',(0.,0.,-1.));
#1085=DIRECTION('center_axis',(0.,0.,-1.));
#1086=DIRECTION('ref_axis',(-1.,0.,0.));
#1087=DIRECTION('',(-1.,1.38777878078145E-16,0.));
#1088=DIRECTION('',(1.,-5.20417042793042E-17,0.));
#1089=DIRECTION('center_axis',(0.,0.,1.));
#1090=DIRECTION('ref_axis',(1.,0.,0.));
#1091=DIRECTION('',(-1.,1.33226762955019E-16,0.));
#1092=DIRECTION('center_axis',(0.,0.,1.));
#1093=DIRECTION('ref_axis',(-0.707106781186548,-0.707106781186547,0.));
#1094=DIRECTION('',(1.,-1.22464679914735E-16,0.));
#1095=DIRECTION('center_axis',(1.22464679914735E-16,1.,0.));
#1096=DIRECTION('ref_axis',(-1.,1.22464679914735E-16,0.));
#1097=DIRECTION('',(1.,-1.22464679914735E-16,0.));
#1098=DIRECTION('',(0.,0.,-1.));
#1099=DIRECTION('',(1.,-1.22464679914735E-16,0.));
#1100=DIRECTION('',(0.,0.,-1.));
#1101=DIRECTION('',(1.,-1.22464679914735E-16,0.));
#1102=DIRECTION('',(0.,0.,1.));
#1103=DIRECTION('',(-1.,5.20417042793042E-17,0.));
#1104=DIRECTION('',(0.,0.,1.));
#1105=DIRECTION('center_axis',(0.,1.,0.));
#1106=DIRECTION('ref_axis',(1.,0.,0.));
#1107=DIRECTION('',(-1.,0.,0.));
#1108=DIRECTION('',(0.,0.,-1.));
#1109=DIRECTION('',(1.,0.,0.));
#1110=DIRECTION('',(0.,0.,-1.));
#1111=DIRECTION('center_axis',(0.,-1.,0.));
#1112=DIRECTION('ref_axis',(-1.,0.,0.));
#1113=DIRECTION('',(1.,0.,0.));
#1114=DIRECTION('',(0.,0.,-1.));
#1115=DIRECTION('',(-1.,0.,0.));
#1116=DIRECTION('',(0.,0.,-1.));
#1117=DIRECTION('center_axis',(0.,0.,-1.));
#1118=DIRECTION('ref_axis',(-1.,0.,0.));
#1119=DIRECTION('',(-2.08166817117217E-16,-1.,0.));
#1120=DIRECTION('',(1.70002900645727E-16,1.,0.));
#1121=DIRECTION('center_axis',(0.,0.,1.));
#1122=DIRECTION('ref_axis',(1.,0.,0.));
#1123=DIRECTION('',(-2.22044604925031E-16,-1.,0.));
#1124=DIRECTION('center_axis',(0.,0.,1.));
#1125=DIRECTION('ref_axis',(0.707106781186547,-0.707106781186548,0.));
#1126=DIRECTION('',(2.22044604925031E-16,1.,0.));
#1127=DIRECTION('center_axis',(-1.,2.22044604925031E-16,0.));
#1128=DIRECTION('ref_axis',(-2.22044604925031E-16,-1.,0.));
#1129=DIRECTION('',(2.22044604925031E-16,1.,0.));
#1130=DIRECTION('',(0.,0.,-1.));
#1131=DIRECTION('',(2.22044604925031E-16,1.,0.));
#1132=DIRECTION('',(0.,0.,-1.));
#1133=DIRECTION('',(2.22044604925031E-16,1.,0.));
#1134=DIRECTION('',(0.,0.,1.));
#1135=DIRECTION('',(-1.70002900645727E-16,-1.,0.));
#1136=DIRECTION('',(0.,0.,1.));
#1137=DIRECTION('center_axis',(0.,1.,0.));
#1138=DIRECTION('ref_axis',(-1.,0.,0.));
#1139=DIRECTION('',(1.,0.,0.));
#1140=DIRECTION('',(0.,0.,1.));
#1141=DIRECTION('',(-1.,0.,0.));
#1142=DIRECTION('center_axis',(0.,-1.,0.));
#1143=DIRECTION('ref_axis',(1.,0.,0.));
#1144=DIRECTION('',(-1.,0.,0.));
#1145=DIRECTION('',(1.,0.,0.));
#1146=DIRECTION('',(0.,0.,1.));
#1147=DIRECTION('center_axis',(0.,0.,1.));
#1148=DIRECTION('ref_axis',(1.,0.,0.));
#1149=DIRECTION('',(1.85037170770859E-16,-1.,0.));
#1150=DIRECTION('center_axis',(0.,0.,1.));
#1151=DIRECTION('ref_axis',(1.,0.,0.));
#1152=DIRECTION('center_axis',(0.,0.,-1.));
#1153=DIRECTION('ref_axis',(0.707106781186547,0.707106781186548,0.));
#1154=DIRECTION('',(-2.22044604925031E-16,1.,0.));
#1155=DIRECTION('center_axis',(0.,0.,1.));
#1156=DIRECTION('ref_axis',(1.,0.,0.));
#1157=DIRECTION('',(-2.22044604925031E-16,1.,0.));
#1158=DIRECTION('',(0.,-1.,0.));
#1159=DIRECTION('',(-1.,1.33226762955019E-16,0.));
#1160=DIRECTION('',(1.,0.,0.));
#1161=DIRECTION('',(-2.22044604925031E-16,-1.,0.));
#1162=DIRECTION('',(0.,1.,0.));
#1163=DIRECTION('',(1.,0.,0.));
#1164=DIRECTION('center_axis',(-1.,0.,0.));
#1165=DIRECTION('ref_axis',(0.,-1.,0.));
#1166=DIRECTION('',(0.,1.,0.));
#1167=DIRECTION('',(0.,0.,1.));
#1168=DIRECTION('',(0.,-1.,0.));
#1169=DIRECTION('center_axis',(1.,0.,0.));
#1170=DIRECTION('ref_axis',(0.,1.,0.));
#1171=DIRECTION('',(0.,1.,0.));
#1172=DIRECTION('',(0.,0.,1.));
#1173=DIRECTION('center_axis',(0.,0.,1.));
#1174=DIRECTION('ref_axis',(1.,0.,0.));
#1175=DIRECTION('',(1.,-1.38777878078145E-16,0.));
#1176=DIRECTION('center_axis',(0.,0.,1.));
#1177=DIRECTION('ref_axis',(1.,0.,0.));
#1178=DIRECTION('center_axis',(0.,0.,-1.));
#1179=DIRECTION('ref_axis',(-0.707106781186548,-0.707106781186547,0.));
#1180=DIRECTION('',(-1.,1.33226762955019E-16,0.));
#1181=DIRECTION('center_axis',(1.,0.,0.));
#1182=DIRECTION('ref_axis',(0.,1.,0.));
#1183=DIRECTION('',(0.,-1.,0.));
#1184=DIRECTION('',(0.,0.,1.));
#1185=DIRECTION('',(0.,1.,0.));
#1186=DIRECTION('center_axis',(-1.,0.,0.));
#1187=DIRECTION('ref_axis',(0.,-1.,0.));
#1188=DIRECTION('',(0.,-1.,0.));
#1189=DIRECTION('',(0.,0.,1.));
#1190=DIRECTION('center_axis',(0.,0.,1.));
#1191=DIRECTION('ref_axis',(1.,0.,0.));
#1192=DIRECTION('',(-1.,0.,0.));
#1193=DIRECTION('center_axis',(0.,0.,1.));
#1194=DIRECTION('ref_axis',(1.,0.,0.));
#1195=DIRECTION('center_axis',(0.,0.,-1.));
#1196=DIRECTION('ref_axis',(0.707106781186548,0.707106781186547,0.));
#1197=DIRECTION('',(1.,0.,0.));
#1198=DIRECTION('center_axis',(0.,-1.,0.));
#1199=DIRECTION('ref_axis',(1.,0.,0.));
#1200=DIRECTION('',(-1.,0.,0.));
#1201=DIRECTION('',(0.,0.,1.));
#1202=DIRECTION('',(1.,0.,0.));
#1203=DIRECTION('center_axis',(0.,1.,0.));
#1204=DIRECTION('ref_axis',(-1.,0.,0.));
#1205=DIRECTION('',(-1.,0.,0.));
#1206=DIRECTION('',(0.,0.,1.));
#1207=DIRECTION('center_axis',(0.,0.,1.));
#1208=DIRECTION('ref_axis',(1.,0.,0.));
#1209=DIRECTION('',(2.08166817117217E-16,1.,0.));
#1210=DIRECTION('center_axis',(0.,0.,1.));
#1211=DIRECTION('ref_axis',(1.,0.,0.));
#1212=DIRECTION('center_axis',(0.,0.,-1.));
#1213=DIRECTION('ref_axis',(-0.707106781186549,-0.707106781186546,0.));
#1214=DIRECTION('',(-2.22044604925031E-16,-1.,0.));
#1215=DIRECTION('center_axis',(0.,0.,1.));
#1216=DIRECTION('ref_axis',(-0.707106781186547,0.707106781186548,0.));
#1217=DIRECTION('',(0.,0.,1.));
#1218=DIRECTION('center_axis',(-1.,-2.22044604925031E-16,0.));
#1219=DIRECTION('ref_axis',(2.22044604925031E-16,-1.,0.));
#1220=DIRECTION('',(-2.22044604925031E-16,1.,0.));
#1221=DIRECTION('center_axis',(0.,0.,1.));
#1222=DIRECTION('ref_axis',(1.,0.,0.));
#1223=DIRECTION('',(1.,0.,0.));
#1224=DIRECTION('',(-2.22044604925031E-16,-1.,0.));
#1225=DIRECTION('',(-1.,1.33226762955019E-16,0.));
#1226=DIRECTION('center_axis',(0.,0.,1.));
#1227=DIRECTION('ref_axis',(-0.707106781186548,-0.707106781186547,0.));
#1228=DIRECTION('',(0.,0.,1.));
#1229=DIRECTION('center_axis',(0.,0.,1.));
#1230=DIRECTION('ref_axis',(0.707106781186546,-0.707106781186549,0.));
#1231=DIRECTION('',(0.,0.,1.));
#1232=DIRECTION('center_axis',(0.,0.,1.));
#1233=DIRECTION('ref_axis',(0.707106781186547,-0.707106781186548,0.));
#1234=DIRECTION('',(0.,0.,1.));
#1235=DIRECTION('center_axis',(0.,1.,0.));
#1236=DIRECTION('ref_axis',(-1.,0.,0.));
#1237=DIRECTION('center_axis',(1.,-2.22044604925031E-16,0.));
#1238=DIRECTION('ref_axis',(2.22044604925031E-16,1.,0.));
#1239=DIRECTION('center_axis',(-1.33226762955019E-16,-1.,0.));
#1240=DIRECTION('ref_axis',(1.,-1.33226762955019E-16,0.));
#1241=CARTESIAN_POINT('',(0.,0.,0.));
#1242=CARTESIAN_POINT('Origin',(-0.499999999999995,11.5,72.));
#1243=CARTESIAN_POINT('',(-3.5,11.5,0.));
#1244=CARTESIAN_POINT('',(-0.499999999999995,11.5,0.));
#1245=CARTESIAN_POINT('',(-0.249999999999998,11.5,0.));
#1246=CARTESIAN_POINT('',(-3.5,11.5,-3.));
#1247=CARTESIAN_POINT('',(-3.5,11.5,72.));
#1248=CARTESIAN_POINT('',(-0.499999999999995,11.5,-3.));
#1249=CARTESIAN_POINT('',(-3.5,11.5,-3.));
#1250=CARTESIAN_POINT('',(-0.499999999999995,11.5,72.));
#1251=CARTESIAN_POINT('Origin',(-3.49999999999999,21.5,72.));
#1252=CARTESIAN_POINT('',(-0.499999999999993,21.5,0.));
#1253=CARTESIAN_POINT('',(-3.50000000000001,21.5,0.));
#1254=CARTESIAN_POINT('',(-1.75,21.5,0.));
#1255=CARTESIAN_POINT('',(-0.499999999999993,21.5,-3.));
#1256=CARTESIAN_POINT('',(-0.499999999999993,21.5,72.));
#1257=CARTESIAN_POINT('',(-3.49999999999999,21.5,-3.));
#1258=CARTESIAN_POINT('',(-3.49999999999999,21.5,-3.));
#1259=CARTESIAN_POINT('',(-3.49999999999999,21.5,72.));
#1260=CARTESIAN_POINT('Origin',(-2.,16.5,-3.));
#1261=CARTESIAN_POINT('',(-3.50000000000001,23.5,-3.));
#1262=CARTESIAN_POINT('',(-0.500000000000003,3.5,-3.));
#1263=CARTESIAN_POINT('Origin',(0.,0.,0.));
#1264=CARTESIAN_POINT('',(-3.50000000000001,23.5,0.));
#1265=CARTESIAN_POINT('',(-3.5,12.5,0.));
#1266=CARTESIAN_POINT('',(-0.500000000000005,23.5,0.));
#1267=CARTESIAN_POINT('Origin',(-2.00000000000001,23.5,0.));
#1268=CARTESIAN_POINT('',(-0.5,1.5,0.));
#1269=CARTESIAN_POINT('Origin',(-0.500000000000001,3.,0.));
#1270=CARTESIAN_POINT('',(-0.500000000000002,3.5,72.));
#1271=CARTESIAN_POINT('',(-0.499999999999995,11.5,72.));
#1272=CARTESIAN_POINT('',(-0.5,1.5,72.));
#1273=CARTESIAN_POINT('',(-0.500000000000002,3.5,0.));
#1274=CARTESIAN_POINT('',(-0.5,3.5,0.));
#1275=CARTESIAN_POINT('',(-0.5,1.5,0.));
#1276=CARTESIAN_POINT('',(-0.500000000000005,23.5,72.));
#1277=CARTESIAN_POINT('',(-0.500000000000005,23.5,0.));
#1278=CARTESIAN_POINT('',(-0.499999999999993,21.5,72.));
#1279=CARTESIAN_POINT('',(-0.5,1.5,72.));
#1280=CARTESIAN_POINT('',(-0.499999999999993,21.5,75.));
#1281=CARTESIAN_POINT('',(-0.499999999999993,21.5,72.));
#1282=CARTESIAN_POINT('',(-0.499999999999995,11.5,75.));
#1283=CARTESIAN_POINT('',(-0.500000000000003,3.5,75.));
#1284=CARTESIAN_POINT('',(-0.499999999999995,11.5,72.));
#1285=CARTESIAN_POINT('Origin',(11.5,0.499999999999999,72.));
#1286=CARTESIAN_POINT('',(11.5,3.5,0.));
#1287=CARTESIAN_POINT('',(11.5,0.499999999999999,0.));
#1288=CARTESIAN_POINT('',(11.5,0.25,0.));
#1289=CARTESIAN_POINT('',(11.5,3.5,-3.));
#1290=CARTESIAN_POINT('',(11.5,3.5,72.));
#1291=CARTESIAN_POINT('',(11.5,0.499999999999999,-3.));
#1292=CARTESIAN_POINT('',(11.5,3.5,-3.));
#1293=CARTESIAN_POINT('',(11.5,0.499999999999999,72.));
#1294=CARTESIAN_POINT('Origin',(21.5,3.5,72.));
#1295=CARTESIAN_POINT('',(21.5,0.5,0.));
#1296=CARTESIAN_POINT('',(21.5,3.5,0.));
#1297=CARTESIAN_POINT('',(21.5,1.75,0.));
#1298=CARTESIAN_POINT('',(21.5,0.5,-3.));
#1299=CARTESIAN_POINT('',(21.5,0.5,72.));
#1300=CARTESIAN_POINT('',(21.5,3.5,-3.));
#1301=CARTESIAN_POINT('',(21.5,3.5,-3.));
#1302=CARTESIAN_POINT('',(21.5,3.5,72.));
#1303=CARTESIAN_POINT('Origin',(16.5,2.,-3.));
#1304=CARTESIAN_POINT('',(23.5,3.5,-3.));
#1305=CARTESIAN_POINT('',(3.5,0.499999999999998,-3.));
#1306=CARTESIAN_POINT('Origin',(0.,0.,0.));
#1307=CARTESIAN_POINT('',(23.5,3.5,0.));
#1308=CARTESIAN_POINT('',(12.5,3.5,0.));
#1309=CARTESIAN_POINT('',(23.5,0.5,0.));
#1310=CARTESIAN_POINT('Origin',(23.5,2.,0.));
#1311=CARTESIAN_POINT('',(1.5,0.5,0.));
#1312=CARTESIAN_POINT('Origin',(3.,0.5,0.));
#1313=CARTESIAN_POINT('',(3.5,0.499999999999999,72.));
#1314=CARTESIAN_POINT('',(11.5,0.499999999999999,72.));
#1315=CARTESIAN_POINT('',(1.5,0.5,72.));
#1316=CARTESIAN_POINT('',(3.5,0.499999999999999,0.));
#1317=CARTESIAN_POINT('',(3.5,0.5,0.));
#1318=CARTESIAN_POINT('',(1.5,0.5,0.));
#1319=CARTESIAN_POINT('',(23.5,0.5,72.));
#1320=CARTESIAN_POINT('',(23.5,0.5,0.));
#1321=CARTESIAN_POINT('',(21.5,0.5,72.));
#1322=CARTESIAN_POINT('',(1.5,0.5,72.));
#1323=CARTESIAN_POINT('',(21.5,0.5,75.));
#1324=CARTESIAN_POINT('',(21.5,0.5,72.));
#1325=CARTESIAN_POINT('',(11.5,0.499999999999999,75.));
#1326=CARTESIAN_POINT('',(3.5,0.499999999999998,75.));
#1327=CARTESIAN_POINT('',(11.5,0.499999999999999,72.));
#1328=CARTESIAN_POINT('Origin',(-11.5,-0.499999999999994,72.));
#1329=CARTESIAN_POINT('',(-11.5,-3.49999999999999,0.));
#1330=CARTESIAN_POINT('',(-11.5,-0.499999999999994,0.));
#1331=CARTESIAN_POINT('',(-11.5,-0.249999999999997,0.));
#1332=CARTESIAN_POINT('',(-11.5,-3.49999999999999,-3.));
#1333=CARTESIAN_POINT('',(-11.5,-3.49999999999999,72.));
#1334=CARTESIAN_POINT('',(-11.5,-0.499999999999994,-3.));
#1335=CARTESIAN_POINT('',(-11.5,-3.49999999999999,-3.));
#1336=CARTESIAN_POINT('',(-11.5,-0.499999999999994,72.));
#1337=CARTESIAN_POINT('Origin',(-21.5,-3.49999999999999,72.));
#1338=CARTESIAN_POINT('',(-21.5,-0.49999999999999,0.));
#1339=CARTESIAN_POINT('',(-21.5,-3.49999999999999,0.));
#1340=CARTESIAN_POINT('',(-21.5,-1.75,0.));
#1341=CARTESIAN_POINT('',(-21.5,-0.49999999999999,-3.));
#1342=CARTESIAN_POINT('',(-21.5,-0.49999999999999,72.));
#1343=CARTESIAN_POINT('',(-21.5,-3.49999999999999,-3.));
#1344=CARTESIAN_POINT('',(-21.5,-3.49999999999999,-3.));
#1345=CARTESIAN_POINT('',(-21.5,-3.49999999999999,72.));
#1346=CARTESIAN_POINT('Origin',(-16.5,-1.99999999999999,-3.));
#1347=CARTESIAN_POINT('',(-23.5,-3.5,-3.));
#1348=CARTESIAN_POINT('',(-3.5,-0.499999999999998,-3.));
#1349=CARTESIAN_POINT('Origin',(0.,0.,0.));
#1350=CARTESIAN_POINT('',(-23.5,-3.5,0.));
#1351=CARTESIAN_POINT('',(-12.5,-3.5,0.));
#1352=CARTESIAN_POINT('',(-23.5,-0.499999999999997,0.));
#1353=CARTESIAN_POINT('Origin',(-23.5,-2.,0.));
#1354=CARTESIAN_POINT('',(-1.5,-0.5,0.));
#1355=CARTESIAN_POINT('Origin',(-3.,-0.5,0.));
#1356=CARTESIAN_POINT('',(-3.5,-0.499999999999999,72.));
#1357=CARTESIAN_POINT('',(-11.5,-0.499999999999994,72.));
#1358=CARTESIAN_POINT('',(-1.5,-0.5,72.));
#1359=CARTESIAN_POINT('',(-3.5,-0.499999999999999,0.));
#1360=CARTESIAN_POINT('',(-3.5,-0.5,0.));
#1361=CARTESIAN_POINT('',(-1.5,-0.5,0.));
#1362=CARTESIAN_POINT('',(-23.5,-0.499999999999997,72.));
#1363=CARTESIAN_POINT('',(-23.5,-0.499999999999997,0.));
#1364=CARTESIAN_POINT('',(-21.5,-0.49999999999999,72.));
#1365=CARTESIAN_POINT('',(-1.5,-0.5,72.));
#1366=CARTESIAN_POINT('',(-21.5,-0.49999999999999,75.));
#1367=CARTESIAN_POINT('',(-21.5,-0.49999999999999,72.));
#1368=CARTESIAN_POINT('',(-11.5,-0.499999999999994,75.));
#1369=CARTESIAN_POINT('',(-3.5,-0.499999999999998,75.));
#1370=CARTESIAN_POINT('',(-11.5,-0.499999999999994,72.));
#1371=CARTESIAN_POINT('Origin',(0.499999999999997,-11.5,72.));
#1372=CARTESIAN_POINT('',(3.5,-11.5,0.));
#1373=CARTESIAN_POINT('',(0.499999999999997,-11.5,0.));
#1374=CARTESIAN_POINT('',(0.249999999999999,-11.5,0.));
#1375=CARTESIAN_POINT('',(3.5,-11.5,-3.));
#1376=CARTESIAN_POINT('',(3.5,-11.5,72.));
#1377=CARTESIAN_POINT('',(0.499999999999997,-11.5,-3.));
#1378=CARTESIAN_POINT('',(3.5,-11.5,-3.));
#1379=CARTESIAN_POINT('',(0.499999999999997,-11.5,72.));
#1380=CARTESIAN_POINT('Origin',(3.5,-21.5,72.));
#1381=CARTESIAN_POINT('',(0.499999999999995,-21.5,0.));
#1382=CARTESIAN_POINT('',(3.5,-21.5,0.));
#1383=CARTESIAN_POINT('',(1.75,-21.5,0.));
#1384=CARTESIAN_POINT('',(0.499999999999995,-21.5,-3.));
#1385=CARTESIAN_POINT('',(0.499999999999995,-21.5,72.));
#1386=CARTESIAN_POINT('',(3.5,-21.5,-3.));
#1387=CARTESIAN_POINT('',(3.5,-21.5,-3.));
#1388=CARTESIAN_POINT('',(3.5,-21.5,72.));
#1389=CARTESIAN_POINT('Origin',(2.,-16.5,-3.));
#1390=CARTESIAN_POINT('',(3.5,-23.5,-3.));
#1391=CARTESIAN_POINT('',(0.499999999999998,-3.5,-3.));
#1392=CARTESIAN_POINT('Origin',(0.,0.,0.));
#1393=CARTESIAN_POINT('',(3.5,-23.5,0.));
#1394=CARTESIAN_POINT('',(3.5,-12.5,0.));
#1395=CARTESIAN_POINT('',(0.499999999999995,-23.5,0.));
#1396=CARTESIAN_POINT('Origin',(1.99999999999999,-23.5,0.));
#1397=CARTESIAN_POINT('',(0.5,-1.5,0.));
#1398=CARTESIAN_POINT('Origin',(0.499999999999999,-3.,0.));
#1399=CARTESIAN_POINT('',(0.499999999999999,-3.5,72.));
#1400=CARTESIAN_POINT('',(0.499999999999997,-11.5,72.));
#1401=CARTESIAN_POINT('',(0.5,-1.5,72.));
#1402=CARTESIAN_POINT('',(0.499999999999999,-3.5,0.));
#1403=CARTESIAN_POINT('',(0.499999999999998,-3.5,0.));
#1404=CARTESIAN_POINT('',(0.5,-1.5,0.));
#1405=CARTESIAN_POINT('',(0.499999999999995,-23.5,72.));
#1406=CARTESIAN_POINT('',(0.499999999999995,-23.5,0.));
#1407=CARTESIAN_POINT('',(0.499999999999995,-21.5,72.));
#1408=CARTESIAN_POINT('',(0.5,-1.5,72.));
#1409=CARTESIAN_POINT('',(0.499999999999995,-21.5,75.));
#1410=CARTESIAN_POINT('',(0.499999999999995,-21.5,72.));
#1411=CARTESIAN_POINT('',(0.499999999999997,-11.5,75.));
#1412=CARTESIAN_POINT('',(0.499999999999998,-3.5,75.));
#1413=CARTESIAN_POINT('',(0.499999999999997,-11.5,72.));
#1414=CARTESIAN_POINT('Origin',(-0.499999999999993,21.5,72.));
#1415=CARTESIAN_POINT('',(-3.49999999999999,21.5,72.));
#1416=CARTESIAN_POINT('',(-0.249999999999996,21.5,72.));
#1417=CARTESIAN_POINT('',(-3.49999999999999,21.5,75.));
#1418=CARTESIAN_POINT('',(-3.49999999999999,21.5,72.));
#1419=CARTESIAN_POINT('',(-3.49999999999999,21.5,75.));
#1420=CARTESIAN_POINT('Origin',(-3.5,11.5,72.));
#1421=CARTESIAN_POINT('',(-3.5,11.5,72.));
#1422=CARTESIAN_POINT('',(-1.75,11.5,72.));
#1423=CARTESIAN_POINT('',(-3.5,11.5,75.));
#1424=CARTESIAN_POINT('',(-3.5,11.5,75.));
#1425=CARTESIAN_POINT('',(-3.5,11.5,72.));
#1426=CARTESIAN_POINT('Origin',(-2.,16.5,75.));
#1427=CARTESIAN_POINT('',(-3.50000000000001,23.5,75.));
#1428=CARTESIAN_POINT('Origin',(0.,0.,72.));
#1429=CARTESIAN_POINT('',(-3.50000000000001,23.5,72.));
#1430=CARTESIAN_POINT('Origin',(-2.00000000000001,23.5,72.));
#1431=CARTESIAN_POINT('',(-3.5,12.5,72.));
#1432=CARTESIAN_POINT('Origin',(0.,0.,72.));
#1433=CARTESIAN_POINT('',(-3.5,12.5,72.));
#1434=CARTESIAN_POINT('',(-11.5,-3.49999999999999,72.));
#1435=CARTESIAN_POINT('',(-11.5,-1.75,72.));
#1436=CARTESIAN_POINT('',(-12.5,-3.5,72.));
#1437=CARTESIAN_POINT('',(3.5,-11.5,72.));
#1438=CARTESIAN_POINT('',(1.75,-11.5,72.));
#1439=CARTESIAN_POINT('',(3.5,-12.5,72.));
#1440=CARTESIAN_POINT('',(11.5,3.5,72.));
#1441=CARTESIAN_POINT('',(11.5,1.75,72.));
#1442=CARTESIAN_POINT('',(12.5,3.5,72.));
#1443=CARTESIAN_POINT('Origin',(-21.5,-0.49999999999999,72.));
#1444=CARTESIAN_POINT('',(-21.5,-3.49999999999999,72.));
#1445=CARTESIAN_POINT('',(-21.5,-0.249999999999995,72.));
#1446=CARTESIAN_POINT('',(-21.5,-3.49999999999999,75.));
#1447=CARTESIAN_POINT('',(-21.5,-3.49999999999999,72.));
#1448=CARTESIAN_POINT('',(-21.5,-3.49999999999999,75.));
#1449=CARTESIAN_POINT('Origin',(-11.5,-3.49999999999999,72.));
#1450=CARTESIAN_POINT('',(-11.5,-3.49999999999999,75.));
#1451=CARTESIAN_POINT('',(-11.5,-3.49999999999999,75.));
#1452=CARTESIAN_POINT('',(-11.5,-3.49999999999999,72.));
#1453=CARTESIAN_POINT('Origin',(-16.5,-1.99999999999999,75.));
#1454=CARTESIAN_POINT('',(-23.5,-3.5,75.));
#1455=CARTESIAN_POINT('Origin',(0.,0.,72.));
#1456=CARTESIAN_POINT('',(-23.5,-3.5,72.));
#1457=CARTESIAN_POINT('Origin',(-23.5,-2.,72.));
#1458=CARTESIAN_POINT('',(-12.5,-3.5,72.));
#1459=CARTESIAN_POINT('Origin',(21.5,0.5,72.));
#1460=CARTESIAN_POINT('',(21.5,3.5,72.));
#1461=CARTESIAN_POINT('',(21.5,0.25,72.));
#1462=CARTESIAN_POINT('',(21.5,3.5,75.));
#1463=CARTESIAN_POINT('',(21.5,3.5,72.));
#1464=CARTESIAN_POINT('',(21.5,3.5,75.));
#1465=CARTESIAN_POINT('Origin',(11.5,3.5,72.));
#1466=CARTESIAN_POINT('',(11.5,3.5,75.));
#1467=CARTESIAN_POINT('',(11.5,3.5,75.));
#1468=CARTESIAN_POINT('',(11.5,3.5,72.));
#1469=CARTESIAN_POINT('Origin',(16.5,2.,75.));
#1470=CARTESIAN_POINT('',(23.5,3.5,75.));
#1471=CARTESIAN_POINT('Origin',(0.,0.,72.));
#1472=CARTESIAN_POINT('',(23.5,3.5,72.));
#1473=CARTESIAN_POINT('Origin',(23.5,2.,72.));
#1474=CARTESIAN_POINT('',(12.5,3.5,72.));
#1475=CARTESIAN_POINT('Origin',(0.499999999999995,-21.5,72.));
#1476=CARTESIAN_POINT('',(3.5,-21.5,72.));
#1477=CARTESIAN_POINT('',(0.249999999999998,-21.5,72.));
#1478=CARTESIAN_POINT('',(3.5,-21.5,75.));
#1479=CARTESIAN_POINT('',(3.5,-21.5,72.));
#1480=CARTESIAN_POINT('',(3.5,-21.5,75.));
#1481=CARTESIAN_POINT('Origin',(3.5,-11.5,72.));
#1482=CARTESIAN_POINT('',(3.5,-11.5,75.));
#1483=CARTESIAN_POINT('',(3.5,-11.5,75.));
#1484=CARTESIAN_POINT('',(3.5,-11.5,72.));
#1485=CARTESIAN_POINT('Origin',(2.,-16.5,75.));
#1486=CARTESIAN_POINT('',(3.5,-23.5,75.));
#1487=CARTESIAN_POINT('Origin',(0.,0.,72.));
#1488=CARTESIAN_POINT('',(3.5,-23.5,72.));
#1489=CARTESIAN_POINT('Origin',(2.,-23.5,72.));
#1490=CARTESIAN_POINT('',(3.5,-12.5,72.));
#1491=CARTESIAN_POINT('Origin',(-2.00000000000001,23.5,0.));
#1492=CARTESIAN_POINT('',(-3.50000000000001,23.5,0.));
#1493=CARTESIAN_POINT('Origin',(-3.50000000000001,25.,0.));
#1494=CARTESIAN_POINT('',(-3.5,12.5,0.));
#1495=CARTESIAN_POINT('Origin',(0.,0.,0.));
#1496=CARTESIAN_POINT('',(12.5,3.5,0.));
#1497=CARTESIAN_POINT('',(3.5,-12.5,0.));
#1498=CARTESIAN_POINT('',(-12.5,-3.5,0.));
#1499=CARTESIAN_POINT('Origin',(-23.5,-2.,0.));
#1500=CARTESIAN_POINT('',(-23.5,-3.5,0.));
#1501=CARTESIAN_POINT('Origin',(23.5,2.,0.));
#1502=CARTESIAN_POINT('',(23.5,3.5,0.));
#1503=CARTESIAN_POINT('Origin',(1.99999999999999,-23.5,0.));
#1504=CARTESIAN_POINT('',(3.5,-23.5,0.));
#1505=CARTESIAN_POINT('Origin',(25.,3.5,0.));
#1506=CARTESIAN_POINT('Origin',(3.49999999999999,-25.,0.));
#1507=CARTESIAN_POINT('Origin',(-25.,-3.5,0.));
#1508=UNCERTAINTY_MEASURE_WITH_UNIT(LENGTH_MEASURE(0.01),#1512,
'DISTANCE_ACCURACY_VALUE',
'Maximum model space distance between geometric entities at asserted c
onnectivities');
#1509=UNCERTAINTY_MEASURE_WITH_UNIT(LENGTH_MEASURE(0.01),#1512,
'DISTANCE_ACCURACY_VALUE',
'Maximum model space distance between geometric entities at asserted c
onnectivities');
#1510=(
GEOMETRIC_REPRESENTATION_CONTEXT(3)
GLOBAL_UNCERTAINTY_ASSIGNED_CONTEXT((#1508))
GLOBAL_UNIT_ASSIGNED_CONTEXT((#1512,#1514,#1515))
REPRESENTATION_CONTEXT('','3D')
);
#1511=(
GEOMETRIC_REPRESENTATION_CONTEXT(3)
GLOBAL_UNCERTAINTY_ASSIGNED_CONTEXT((#1509))
GLOBAL_UNIT_ASSIGNED_CONTEXT((#1512,#1514,#1515))
REPRESENTATION_CONTEXT('','3D')
);
#1512=(
LENGTH_UNIT()
NAMED_UNIT(*)
SI_UNIT(.MILLI.,.METRE.)
);
#1513=(
LENGTH_UNIT()
NAMED_UNIT(*)
SI_UNIT($,.METRE.)
);
#1514=(
NAMED_UNIT(*)
PLANE_ANGLE_UNIT()
SI_UNIT($,.RADIAN.)
);
#1515=(
NAMED_UNIT(*)
SI_UNIT($,.STERADIAN.)
SOLID_ANGLE_UNIT()
);
#1516=SHAPE_DEFINITION_REPRESENTATION(#1517,#1518);
#1517=PRODUCT_DEFINITION_SHAPE('',$,#1520);
#1518=SHAPE_REPRESENTATION('',(#952),#1510);
#1519=PRODUCT_DEFINITION_CONTEXT('part definition',#1524,'design');
#1520=PRODUCT_DEFINITION('InnerSupport','InnerSupport v5',#1521,#1519);
#1521=PRODUCT_DEFINITION_FORMATION('',$,#1526);
#1522=PRODUCT_RELATED_PRODUCT_CATEGORY('InnerSupport v5',
'InnerSupport v5',(#1526));
#1523=APPLICATION_PROTOCOL_DEFINITION('international standard',
'automotive_design',2009,#1524);
#1524=APPLICATION_CONTEXT(
'Core Data for Automotive Mechanical Design Process');
#1525=PRODUCT_CONTEXT('part definition',#1524,'mechanical');
#1526=PRODUCT('InnerSupport','InnerSupport v5',$,(#1525));
#1527=PRESENTATION_STYLE_ASSIGNMENT((#1529));
#1528=PRESENTATION_STYLE_ASSIGNMENT((#1530));
#1529=SURFACE_STYLE_USAGE(.BOTH.,#1531);
#1530=SURFACE_STYLE_USAGE(.BOTH.,#1532);
#1531=SURFACE_SIDE_STYLE('',(#1533));
#1532=SURFACE_SIDE_STYLE('',(#1534));
#1533=SURFACE_STYLE_FILL_AREA(#1535);
#1534=SURFACE_STYLE_FILL_AREA(#1536);
#1535=FILL_AREA_STYLE('Steel - Satin',(#1537));
#1536=FILL_AREA_STYLE('Plastic - Matte (White)',(#1538));
#1537=FILL_AREA_STYLE_COLOUR('Steel - Satin',#1539);
#1538=FILL_AREA_STYLE_COLOUR('Plastic - Matte (White)',#1540);
#1539=COLOUR_RGB('Steel - Satin',0.627450980392157,0.627450980392157,0.627450980392157);
#1540=COLOUR_RGB('Plastic - Matte (White)',0.964705882352941,0.964705882352941,
0.952941176470588);
ENDSEC;
END-ISO-10303-21;
