ISO-10303-21;
HEADER;
/* Generated by software containing ST-Developer
 * from STEP Tools, Inc. (www.steptools.com) 
 */

FILE_DESCRIPTION(
/* description */ (''),
/* implementation_level */ '2;1');

FILE_NAME(
/* name */ 'Magnet Holder_v5.step',
/* time_stamp */ '2026-08-21T09:14:05-04:00',
/* author */ (''),
/* organization */ (''),
/* preprocessor_version */ 'ST-DEVELOPER v20.1',
/* originating_system */ 'Autodesk Translation Framework v15.8.0.0',
/* authorisation */ '');

FILE_SCHEMA (('AUTOMOTIVE_DESIGN { 1 0 10303 214 3 1 1 }'));
ENDSEC;

DATA;
#10=MECHANICAL_DESIGN_GEOMETRIC_PRESENTATION_REPRESENTATION('',(#13),#289);
#11=SHAPE_REPRESENTATION_RELATIONSHIP('SRR','None',#296,#12);
#12=ADVANCED_BREP_SHAPE_REPRESENTATION('',(#14),#288);
#13=STYLED_ITEM('',(#305),#14);
#14=MANIFOLD_SOLID_BREP('Body1',#150);
#15=CYLINDRICAL_SURFACE('',#175,5.1);
#16=CYLINDRICAL_SURFACE('',#186,4.1);
#17=TOROIDAL_SURFACE('',#172,4.6,0.5);
#18=TOROIDAL_SURFACE('',#177,4.85,0.25);
#19=TOROIDAL_SURFACE('',#182,4.35,0.25);
#20=FACE_BOUND('',#40,.T.);
#21=FACE_BOUND('',#46,.T.);
#22=PLANE('',#169);
#23=PLANE('',#171);
#24=PLANE('',#180);
#25=PLANE('',#188);
#26=FACE_OUTER_BOUND('',#37,.T.);
#27=FACE_OUTER_BOUND('',#38,.T.);
#28=FACE_OUTER_BOUND('',#39,.T.);
#29=FACE_OUTER_BOUND('',#41,.T.);
#30=FACE_OUTER_BOUND('',#42,.T.);
#31=FACE_OUTER_BOUND('',#43,.T.);
#32=FACE_OUTER_BOUND('',#44,.T.);
#33=FACE_OUTER_BOUND('',#45,.T.);
#34=FACE_OUTER_BOUND('',#47,.T.);
#35=FACE_OUTER_BOUND('',#48,.T.);
#36=FACE_OUTER_BOUND('',#49,.T.);
#37=EDGE_LOOP('',(#101,#102,#103,#104));
#38=EDGE_LOOP('',(#105,#106,#107,#108));
#39=EDGE_LOOP('',(#109));
#40=EDGE_LOOP('',(#110));
#41=EDGE_LOOP('',(#111));
#42=EDGE_LOOP('',(#112,#113,#114,#115));
#43=EDGE_LOOP('',(#116,#117,#118,#119));
#44=EDGE_LOOP('',(#120,#121,#122,#123));
#45=EDGE_LOOP('',(#124));
#46=EDGE_LOOP('',(#125));
#47=EDGE_LOOP('',(#126,#127,#128,#129,#130));
#48=EDGE_LOOP('',(#131,#132,#133,#134,#135));
#49=EDGE_LOOP('',(#136));
#50=LINE('',#250,#54);
#51=LINE('',#255,#55);
#52=LINE('',#267,#56);
#53=LINE('',#283,#57);
#54=VECTOR('',#195,1.70006238305611);
#55=VECTOR('',#202,1.65);
#56=VECTOR('',#219,5.1);
#57=VECTOR('',#240,4.1);
#58=CIRCLE('',#165,1.8);
#59=CIRCLE('',#166,1.60012476611222);
#60=CIRCLE('',#168,1.6);
#61=CIRCLE('',#170,4.6);
#62=CIRCLE('',#173,5.1);
#63=CIRCLE('',#174,0.5);
#64=CIRCLE('',#176,5.1);
#65=CIRCLE('',#178,4.85);
#66=CIRCLE('',#179,0.25);
#67=CIRCLE('',#181,4.35);
#68=CIRCLE('',#183,0.25);
#69=CIRCLE('',#184,4.1);
#70=CIRCLE('',#185,4.1);
#71=CIRCLE('',#187,4.1);
#72=VERTEX_POINT('',#247);
#73=VERTEX_POINT('',#249);
#74=VERTEX_POINT('',#253);
#75=VERTEX_POINT('',#257);
#76=VERTEX_POINT('',#261);
#77=VERTEX_POINT('',#265);
#78=VERTEX_POINT('',#269);
#79=VERTEX_POINT('',#273);
#80=VERTEX_POINT('',#276);
#81=VERTEX_POINT('',#278);
#82=VERTEX_POINT('',#282);
#83=EDGE_CURVE('',#72,#72,#58,.T.);
#84=EDGE_CURVE('',#72,#73,#50,.T.);
#85=EDGE_CURVE('',#73,#73,#59,.T.);
#86=EDGE_CURVE('',#74,#74,#60,.T.);
#87=EDGE_CURVE('',#74,#73,#51,.T.);
#88=EDGE_CURVE('',#75,#75,#61,.T.);
#89=EDGE_CURVE('',#76,#76,#62,.T.);
#90=EDGE_CURVE('',#76,#75,#63,.T.);
#91=EDGE_CURVE('',#77,#77,#64,.T.);
#92=EDGE_CURVE('',#77,#76,#52,.T.);
#93=EDGE_CURVE('',#78,#78,#65,.T.);
#94=EDGE_CURVE('',#78,#77,#66,.T.);
#95=EDGE_CURVE('',#79,#79,#67,.T.);
#96=EDGE_CURVE('',#79,#80,#68,.T.);
#97=EDGE_CURVE('',#80,#81,#69,.T.);
#98=EDGE_CURVE('',#81,#80,#70,.T.);
#99=EDGE_CURVE('',#81,#82,#53,.T.);
#100=EDGE_CURVE('',#82,#82,#71,.T.);
#101=ORIENTED_EDGE('',*,*,#83,.T.);
#102=ORIENTED_EDGE('',*,*,#84,.T.);
#103=ORIENTED_EDGE('',*,*,#85,.T.);
#104=ORIENTED_EDGE('',*,*,#84,.F.);
#105=ORIENTED_EDGE('',*,*,#86,.T.);
#106=ORIENTED_EDGE('',*,*,#87,.T.);
#107=ORIENTED_EDGE('',*,*,#85,.F.);
#108=ORIENTED_EDGE('',*,*,#87,.F.);
#109=ORIENTED_EDGE('',*,*,#88,.F.);
#110=ORIENTED_EDGE('',*,*,#83,.F.);
#111=ORIENTED_EDGE('',*,*,#86,.F.);
#112=ORIENTED_EDGE('',*,*,#89,.T.);
#113=ORIENTED_EDGE('',*,*,#90,.T.);
#114=ORIENTED_EDGE('',*,*,#88,.T.);
#115=ORIENTED_EDGE('',*,*,#90,.F.);
#116=ORIENTED_EDGE('',*,*,#91,.F.);
#117=ORIENTED_EDGE('',*,*,#92,.T.);
#118=ORIENTED_EDGE('',*,*,#89,.F.);
#119=ORIENTED_EDGE('',*,*,#92,.F.);
#120=ORIENTED_EDGE('',*,*,#93,.T.);
#121=ORIENTED_EDGE('',*,*,#94,.T.);
#122=ORIENTED_EDGE('',*,*,#91,.T.);
#123=ORIENTED_EDGE('',*,*,#94,.F.);
#124=ORIENTED_EDGE('',*,*,#93,.F.);
#125=ORIENTED_EDGE('',*,*,#95,.F.);
#126=ORIENTED_EDGE('',*,*,#95,.T.);
#127=ORIENTED_EDGE('',*,*,#96,.T.);
#128=ORIENTED_EDGE('',*,*,#97,.T.);
#129=ORIENTED_EDGE('',*,*,#98,.T.);
#130=ORIENTED_EDGE('',*,*,#96,.F.);
#131=ORIENTED_EDGE('',*,*,#98,.F.);
#132=ORIENTED_EDGE('',*,*,#99,.T.);
#133=ORIENTED_EDGE('',*,*,#100,.F.);
#134=ORIENTED_EDGE('',*,*,#99,.F.);
#135=ORIENTED_EDGE('',*,*,#97,.F.);
#136=ORIENTED_EDGE('',*,*,#100,.T.);
#137=CONICAL_SURFACE('',#164,1.70006238305611,0.0997304946692809);
#138=CONICAL_SURFACE('',#167,1.65,0.0499583957219428);
#139=ADVANCED_FACE('',(#26),#137,.T.);
#140=ADVANCED_FACE('',(#27),#138,.T.);
#141=ADVANCED_FACE('',(#28,#20),#22,.F.);
#142=ADVANCED_FACE('',(#29),#23,.F.);
#143=ADVANCED_FACE('',(#30),#17,.T.);
#144=ADVANCED_FACE('',(#31),#15,.T.);
#145=ADVANCED_FACE('',(#32),#18,.T.);
#146=ADVANCED_FACE('',(#33,#21),#24,.T.);
#147=ADVANCED_FACE('',(#34),#19,.T.);
#148=ADVANCED_FACE('',(#35),#16,.F.);
#149=ADVANCED_FACE('',(#36),#25,.T.);
#150=CLOSED_SHELL('',(#139,#140,#141,#142,#143,#144,#145,#146,#147,#148,
#149));
#151=DERIVED_UNIT_ELEMENT(#153,1.);
#152=DERIVED_UNIT_ELEMENT(#291,-3.);
#153=(
MASS_UNIT()
NAMED_UNIT(*)
SI_UNIT(.KILO.,.GRAM.)
);
#154=DERIVED_UNIT((#151,#152));
#155=MEASURE_REPRESENTATION_ITEM('density measure',
POSITIVE_RATIO_MEASURE(7850.),#154);
#156=PROPERTY_DEFINITION_REPRESENTATION(#161,#158);
#157=PROPERTY_DEFINITION_REPRESENTATION(#162,#159);
#158=REPRESENTATION('material name',(#160),#288);
#159=REPRESENTATION('density',(#155),#288);
#160=DESCRIPTIVE_REPRESENTATION_ITEM('Steel','Steel');
#161=PROPERTY_DEFINITION('material property','material name',#298);
#162=PROPERTY_DEFINITION('material property','density of part',#298);
#163=AXIS2_PLACEMENT_3D('',#245,#189,#190);
#164=AXIS2_PLACEMENT_3D('',#246,#191,#192);
#165=AXIS2_PLACEMENT_3D('',#248,#193,#194);
#166=AXIS2_PLACEMENT_3D('',#251,#196,#197);
#167=AXIS2_PLACEMENT_3D('',#252,#198,#199);
#168=AXIS2_PLACEMENT_3D('',#254,#200,#201);
#169=AXIS2_PLACEMENT_3D('',#256,#203,#204);
#170=AXIS2_PLACEMENT_3D('',#258,#205,#206);
#171=AXIS2_PLACEMENT_3D('',#259,#207,#208);
#172=AXIS2_PLACEMENT_3D('',#260,#209,#210);
#173=AXIS2_PLACEMENT_3D('',#262,#211,#212);
#174=AXIS2_PLACEMENT_3D('',#263,#213,#214);
#175=AXIS2_PLACEMENT_3D('',#264,#215,#216);
#176=AXIS2_PLACEMENT_3D('',#266,#217,#218);
#177=AXIS2_PLACEMENT_3D('',#268,#220,#221);
#178=AXIS2_PLACEMENT_3D('',#270,#222,#223);
#179=AXIS2_PLACEMENT_3D('',#271,#224,#225);
#180=AXIS2_PLACEMENT_3D('',#272,#226,#227);
#181=AXIS2_PLACEMENT_3D('',#274,#228,#229);
#182=AXIS2_PLACEMENT_3D('',#275,#230,#231);
#183=AXIS2_PLACEMENT_3D('',#277,#232,#233);
#184=AXIS2_PLACEMENT_3D('',#279,#234,#235);
#185=AXIS2_PLACEMENT_3D('',#280,#236,#237);
#186=AXIS2_PLACEMENT_3D('',#281,#238,#239);
#187=AXIS2_PLACEMENT_3D('',#284,#241,#242);
#188=AXIS2_PLACEMENT_3D('',#285,#243,#244);
#189=DIRECTION('axis',(0.,0.,1.));
#190=DIRECTION('refdir',(1.,0.,0.));
#191=DIRECTION('center_axis',(0.,-4.90508907157464E-17,1.));
#192=DIRECTION('ref_axis',(1.,-2.88164083357502E-17,0.));
#193=DIRECTION('center_axis',(0.,0.,-1.));
#194=DIRECTION('ref_axis',(1.,0.,0.));
#195=DIRECTION('',(0.0995652540978378,5.81312725013814E-17,-0.99503103478054));
#196=DIRECTION('center_axis',(0.,0.,1.));
#197=DIRECTION('ref_axis',(1.,-6.12323399573676E-17,0.));
#198=DIRECTION('center_axis',(0.,0.,1.));
#199=DIRECTION('ref_axis',(1.,0.,0.));
#200=DIRECTION('center_axis',(0.,0.,1.));
#201=DIRECTION('ref_axis',(1.,0.,0.));
#202=DIRECTION('',(-0.0499376169438923,6.11559427473843E-18,0.998752338877845));
#203=DIRECTION('center_axis',(0.,0.,1.));
#204=DIRECTION('ref_axis',(1.,0.,0.));
#205=DIRECTION('center_axis',(0.,0.,1.));
#206=DIRECTION('ref_axis',(1.,0.,0.));
#207=DIRECTION('center_axis',(0.,0.,1.));
#208=DIRECTION('ref_axis',(1.,0.,0.));
#209=DIRECTION('center_axis',(0.,0.,1.));
#210=DIRECTION('ref_axis',(1.,0.,0.));
#211=DIRECTION('center_axis',(0.,0.,-1.));
#212=DIRECTION('ref_axis',(1.,0.,0.));
#213=DIRECTION('center_axis',(1.22464679914735E-16,-1.,0.));
#214=DIRECTION('ref_axis',(-1.,-1.22464679914735E-16,0.));
#215=DIRECTION('center_axis',(0.,0.,1.));
#216=DIRECTION('ref_axis',(1.,0.,0.));
#217=DIRECTION('center_axis',(0.,0.,1.));
#218=DIRECTION('ref_axis',(1.,0.,0.));
#219=DIRECTION('',(0.,0.,-1.));
#220=DIRECTION('center_axis',(0.,0.,1.));
#221=DIRECTION('ref_axis',(1.,0.,0.));
#222=DIRECTION('center_axis',(0.,0.,-1.));
#223=DIRECTION('ref_axis',(1.,0.,0.));
#224=DIRECTION('center_axis',(1.22464679914735E-16,-1.,0.));
#225=DIRECTION('ref_axis',(-1.,-1.22464679914735E-16,0.));
#226=DIRECTION('center_axis',(0.,0.,1.));
#227=DIRECTION('ref_axis',(1.,0.,0.));
#228=DIRECTION('center_axis',(0.,0.,1.));
#229=DIRECTION('ref_axis',(1.,0.,0.));
#230=DIRECTION('center_axis',(0.,0.,-1.));
#231=DIRECTION('ref_axis',(-1.,0.,0.));
#232=DIRECTION('center_axis',(-1.22464679914735E-16,-1.,0.));
#233=DIRECTION('ref_axis',(1.,-1.22464679914735E-16,0.));
#234=DIRECTION('center_axis',(0.,0.,-1.));
#235=DIRECTION('ref_axis',(1.,0.,0.));
#236=DIRECTION('center_axis',(0.,0.,-1.));
#237=DIRECTION('ref_axis',(1.,0.,0.));
#238=DIRECTION('center_axis',(0.,0.,1.));
#239=DIRECTION('ref_axis',(1.,0.,0.));
#240=DIRECTION('',(0.,0.,-1.));
#241=DIRECTION('center_axis',(0.,0.,1.));
#242=DIRECTION('ref_axis',(1.,0.,0.));
#243=DIRECTION('center_axis',(0.,0.,1.));
#244=DIRECTION('ref_axis',(1.,0.,0.));
#245=CARTESIAN_POINT('',(0.,0.,0.));
#246=CARTESIAN_POINT('Origin',(-2.29999994859099,6.63369258106795E-17,-0.998752338877845));
#247=CARTESIAN_POINT('',(-4.099999948591,2.3778365783081E-16,0.));
#248=CARTESIAN_POINT('Origin',(-2.29999994859099,1.73472339842862E-17,0.));
#249=CARTESIAN_POINT('',(-3.90012471470321,1.73472339842862E-17,-1.99750467775569));
#250=CARTESIAN_POINT('',(-4.0000623316471,-9.28709779389756E-17,-0.998752338877845));
#251=CARTESIAN_POINT('Origin',(-2.29999994859099,1.15326617637073E-16,-1.99750467775569));
#252=CARTESIAN_POINT('Origin',(-2.29999994859099,1.73472339842862E-17,-1.));
#253=CARTESIAN_POINT('',(-3.899999948591,-1.7859625387929E-16,-2.));
#254=CARTESIAN_POINT('Origin',(-2.29999994859099,1.73472339842862E-17,-2.));
#255=CARTESIAN_POINT('',(-3.949999948591,2.194139558436E-16,-1.));
#256=CARTESIAN_POINT('Origin',(0.,0.,0.));
#257=CARTESIAN_POINT('',(-4.6,-5.63337527607783E-16,0.));
#258=CARTESIAN_POINT('Origin',(0.,0.,0.));
#259=CARTESIAN_POINT('Origin',(-2.29999994859099,0.,-2.));
#260=CARTESIAN_POINT('Origin',(0.,0.,0.5));
#261=CARTESIAN_POINT('',(-5.1,6.2456986756515E-16,0.5));
#262=CARTESIAN_POINT('Origin',(0.,0.,0.5));
#263=CARTESIAN_POINT('Origin',(-4.6,-5.63337527607783E-16,0.5));
#264=CARTESIAN_POINT('Origin',(0.,0.,0.));
#265=CARTESIAN_POINT('',(-5.1,-6.2456986756515E-16,2.525));
#266=CARTESIAN_POINT('Origin',(0.,0.,2.525));
#267=CARTESIAN_POINT('',(-5.1,-6.2456986756515E-16,0.));
#268=CARTESIAN_POINT('Origin',(0.,0.,2.525));
#269=CARTESIAN_POINT('',(-4.85,5.93953697586466E-16,2.775));
#270=CARTESIAN_POINT('Origin',(0.,0.,2.775));
#271=CARTESIAN_POINT('Origin',(-4.85,-5.93953697586466E-16,2.525));
#272=CARTESIAN_POINT('Origin',(0.,0.,2.775));
#273=CARTESIAN_POINT('',(4.35,-5.32721357629099E-16,2.775));
#274=CARTESIAN_POINT('Origin',(0.,0.,2.775));
#275=CARTESIAN_POINT('Origin',(0.,0.,2.525));
#276=CARTESIAN_POINT('',(4.1,-5.02105187650415E-16,2.525));
#277=CARTESIAN_POINT('Origin',(4.35,-5.32721357629099E-16,2.525));
#278=CARTESIAN_POINT('',(-4.1,5.02105187650415E-16,2.525));
#279=CARTESIAN_POINT('Origin',(0.,0.,2.525));
#280=CARTESIAN_POINT('Origin',(0.,0.,2.525));
#281=CARTESIAN_POINT('Origin',(0.,0.,0.));
#282=CARTESIAN_POINT('',(-4.1,-5.02105187650415E-16,1.));
#283=CARTESIAN_POINT('',(-4.1,-5.02105187650415E-16,0.));
#284=CARTESIAN_POINT('Origin',(0.,0.,1.));
#285=CARTESIAN_POINT('Origin',(0.,0.,1.));
#286=UNCERTAINTY_MEASURE_WITH_UNIT(LENGTH_MEASURE(0.01),#290,
'DISTANCE_ACCURACY_VALUE',
'Maximum model space distance between geometric entities at asserted c
onnectivities');
#287=UNCERTAINTY_MEASURE_WITH_UNIT(LENGTH_MEASURE(0.01),#290,
'DISTANCE_ACCURACY_VALUE',
'Maximum model space distance between geometric entities at asserted c
onnectivities');
#288=(
GEOMETRIC_REPRESENTATION_CONTEXT(3)
GLOBAL_UNCERTAINTY_ASSIGNED_CONTEXT((#286))
GLOBAL_UNIT_ASSIGNED_CONTEXT((#290,#292,#293))
REPRESENTATION_CONTEXT('','3D')
);
#289=(
GEOMETRIC_REPRESENTATION_CONTEXT(3)
GLOBAL_UNCERTAINTY_ASSIGNED_CONTEXT((#287))
GLOBAL_UNIT_ASSIGNED_CONTEXT((#290,#292,#293))
REPRESENTATION_CONTEXT('','3D')
);
#290=(
LENGTH_UNIT()
NAMED_UNIT(*)
SI_UNIT(.MILLI.,.METRE.)
);
#291=(
LENGTH_UNIT()
NAMED_UNIT(*)
SI_UNIT($,.METRE.)
);
#292=(
NAMED_UNIT(*)
PLANE_ANGLE_UNIT()
SI_UNIT($,.RADIAN.)
);
#293=(
NAMED_UNIT(*)
SI_UNIT($,.STERADIAN.)
SOLID_ANGLE_UNIT()
);
#294=SHAPE_DEFINITION_REPRESENTATION(#295,#296);
#295=PRODUCT_DEFINITION_SHAPE('',$,#298);
#296=SHAPE_REPRESENTATION('',(#163),#288);
#297=PRODUCT_DEFINITION_CONTEXT('part definition',#302,'design');
#298=PRODUCT_DEFINITION('Magnet Holder','Magnet Holder v5',#299,#297);
#299=PRODUCT_DEFINITION_FORMATION('',$,#304);
#300=PRODUCT_RELATED_PRODUCT_CATEGORY('Magnet Holder v5',
'Magnet Holder v5',(#304));
#301=APPLICATION_PROTOCOL_DEFINITION('international standard',
'automotive_design',2009,#302);
#302=APPLICATION_CONTEXT(
'Core Data for Automotive Mechanical Design Process');
#303=PRODUCT_CONTEXT('part definition',#302,'mechanical');
#304=PRODUCT('Magnet Holder','Magnet Holder v5',$,(#303));
#305=PRESENTATION_STYLE_ASSIGNMENT((#306));
#306=SURFACE_STYLE_USAGE(.BOTH.,#307);
#307=SURFACE_SIDE_STYLE('',(#308));
#308=SURFACE_STYLE_FILL_AREA(#309);
#309=FILL_AREA_STYLE('Steel - Satin',(#310));
#310=FILL_AREA_STYLE_COLOUR('Steel - Satin',#311);
#311=COLOUR_RGB('Steel - Satin',0.627450980392157,0.627450980392157,0.627450980392157);
ENDSEC;
END-ISO-10303-21;
