ISO-10303-21;
HEADER;
/* Generated by software containing ST-Developer
 * from STEP Tools, Inc. (www.steptools.com) 
 */

FILE_DESCRIPTION(
/* description */ (''),
/* implementation_level */ '2;1');

FILE_NAME(
/* name */ 'OuterCaseSupport_v3.step',
/* time_stamp */ '2026-08-21T09:14:12-04:00',
/* author */ (''),
/* organization */ (''),
/* preprocessor_version */ 'ST-DEVELOPER v20.1',
/* originating_system */ 'Autodesk Translation Framework v15.8.0.0',
/* authorisation */ '');

FILE_SCHEMA (('AUTOMOTIVE_DESIGN { 1 0 10303 214 3 1 1 }'));
ENDSEC;

DATA;
#10=MECHANICAL_DESIGN_GEOMETRIC_PRESENTATION_REPRESENTATION('',(#13),#534);
#11=SHAPE_REPRESENTATION_RELATIONSHIP('SRR','None',#541,#12);
#12=ADVANCED_BREP_SHAPE_REPRESENTATION('',(#14),#533);
#13=STYLED_ITEM('',(#551),#14);
#14=MANIFOLD_SOLID_BREP('Body1',#251);
#15=B_SPLINE_CURVE_WITH_KNOTS('',3,(#478,#479,#480,#481,#482,#483,#484,
#485,#486,#487,#488,#489,#490,#491),.UNSPECIFIED.,.F.,.F.,(4,2,2,2,2,2,
4),(2.02623659753715,2.10017277661825,2.24577344772159,2.31201833699945,
2.3782632262773,2.43665968561983,2.49505614496235),.UNSPECIFIED.);
#16=B_SPLINE_CURVE_WITH_KNOTS('',3,(#496,#497,#498,#499,#500,#501,#502,
#503,#504,#505,#506,#507,#508,#509),.UNSPECIFIED.,.F.,.F.,(4,2,2,2,2,2,
4),(0.831685381654117,0.890081840996641,0.948478300339166,1.01472318961702,
1.08096807889488,1.22656874999822,1.30050492907932),.UNSPECIFIED.);
#17=FACE_BOUND('',#54,.T.);
#18=FACE_BOUND('',#68,.T.);
#19=ELLIPSE('',#270,6.04152298679729,2.5);
#20=ELLIPSE('',#271,6.04152298679729,2.5);
#21=ELLIPSE('',#275,6.04152298679729,2.5);
#22=ELLIPSE('',#277,6.04152298679729,2.5);
#23=B_SPLINE_SURFACE_WITH_KNOTS('',3,3,((#376,#377,#378,#379,#380,#381,
#382),(#383,#384,#385,#386,#387,#388,#389),(#390,#391,#392,#393,#394,#395,
#396),(#397,#398,#399,#400,#401,#402,#403),(#404,#405,#406,#407,#408,#409,
#410)),.UNSPECIFIED.,.F.,.F.,.F.,(4,1,4),(4,1,1,1,4),(0.,0.571428571428571,
1.),(-1.5707963267949,-0.897597901025655,-0.448798950512828,-0.224399475256414,
5.55111512312578E-17),.UNSPECIFIED.);
#24=B_SPLINE_SURFACE_WITH_KNOTS('',3,3,((#430,#431,#432,#433,#434,#435,
#436),(#437,#438,#439,#440,#441,#442,#443),(#444,#445,#446,#447,#448,#449,
#450),(#451,#452,#453,#454,#455,#456,#457),(#458,#459,#460,#461,#462,#463,
#464)),.UNSPECIFIED.,.F.,.F.,.F.,(4,1,4),(4,1,1,1,4),(0.,0.571428571428571,
1.),(-1.5707963267949,-0.897597901025655,-0.448798950512828,-0.224399475256414,
2.77555756156289E-16),.UNSPECIFIED.);
#25=PLANE('',#268);
#26=PLANE('',#272);
#27=PLANE('',#279);
#28=PLANE('',#282);
#29=PLANE('',#286);
#30=PLANE('',#290);
#31=PLANE('',#291);
#32=PLANE('',#292);
#33=FACE_OUTER_BOUND('',#50,.T.);
#34=FACE_OUTER_BOUND('',#51,.T.);
#35=FACE_OUTER_BOUND('',#52,.T.);
#36=FACE_OUTER_BOUND('',#53,.T.);
#37=FACE_OUTER_BOUND('',#55,.T.);
#38=FACE_OUTER_BOUND('',#56,.T.);
#39=FACE_OUTER_BOUND('',#57,.T.);
#40=FACE_OUTER_BOUND('',#58,.T.);
#41=FACE_OUTER_BOUND('',#59,.T.);
#42=FACE_OUTER_BOUND('',#60,.T.);
#43=FACE_OUTER_BOUND('',#61,.T.);
#44=FACE_OUTER_BOUND('',#62,.T.);
#45=FACE_OUTER_BOUND('',#63,.T.);
#46=FACE_OUTER_BOUND('',#64,.T.);
#47=FACE_OUTER_BOUND('',#65,.T.);
#48=FACE_OUTER_BOUND('',#66,.T.);
#49=FACE_OUTER_BOUND('',#67,.T.);
#50=EDGE_LOOP('',(#163,#164,#165,#166));
#51=EDGE_LOOP('',(#167));
#52=EDGE_LOOP('',(#168,#169,#170));
#53=EDGE_LOOP('',(#171,#172,#173,#174));
#54=EDGE_LOOP('',(#175));
#55=EDGE_LOOP('',(#176,#177,#178));
#56=EDGE_LOOP('',(#179,#180,#181));
#57=EDGE_LOOP('',(#182,#183,#184,#185,#186));
#58=EDGE_LOOP('',(#187,#188,#189,#190));
#59=EDGE_LOOP('',(#191,#192,#193,#194));
#60=EDGE_LOOP('',(#195,#196,#197,#198));
#61=EDGE_LOOP('',(#199,#200,#201,#202));
#62=EDGE_LOOP('',(#203,#204,#205,#206));
#63=EDGE_LOOP('',(#207));
#64=EDGE_LOOP('',(#208,#209,#210,#211,#212,#213));
#65=EDGE_LOOP('',(#214,#215,#216,#217));
#66=EDGE_LOOP('',(#218,#219,#220,#221,#222,#223));
#67=EDGE_LOOP('',(#224,#225));
#68=EDGE_LOOP('',(#226));
#69=LINE('',#373,#86);
#70=LINE('',#422,#87);
#71=LINE('',#424,#88);
#72=LINE('',#425,#89);
#73=LINE('',#428,#90);
#74=LINE('',#469,#91);
#75=LINE('',#470,#92);
#76=LINE('',#473,#93);
#77=LINE('',#474,#94);
#78=LINE('',#477,#95);
#79=LINE('',#494,#96);
#80=LINE('',#510,#97);
#81=LINE('',#512,#98);
#82=LINE('',#517,#99);
#83=LINE('',#524,#100);
#84=LINE('',#526,#101);
#85=LINE('',#529,#102);
#86=VECTOR('',#299,1.75);
#87=VECTOR('',#314,10.);
#88=VECTOR('',#315,10.);
#89=VECTOR('',#316,10.);
#90=VECTOR('',#319,10.);
#91=VECTOR('',#328,10.);
#92=VECTOR('',#329,10.);
#93=VECTOR('',#332,10.);
#94=VECTOR('',#333,10.);
#95=VECTOR('',#336,10.);
#96=VECTOR('',#339,10.);
#97=VECTOR('',#340,10.);
#98=VECTOR('',#343,10.);
#99=VECTOR('',#348,5.1);
#100=VECTOR('',#357,10.);
#101=VECTOR('',#360,10.);
#102=VECTOR('',#365,10.);
#103=CIRCLE('',#266,1.75);
#104=CIRCLE('',#267,1.75);
#105=CIRCLE('',#269,3.);
#106=CIRCLE('',#273,3.);
#107=CIRCLE('',#276,3.);
#108=CIRCLE('',#284,5.1);
#109=CIRCLE('',#285,5.1);
#110=CIRCLE('',#288,6.5);
#111=CIRCLE('',#289,6.5);
#112=VERTEX_POINT('',#370);
#113=VERTEX_POINT('',#372);
#114=VERTEX_POINT('',#411);
#115=VERTEX_POINT('',#412);
#116=VERTEX_POINT('',#414);
#117=VERTEX_POINT('',#418);
#118=VERTEX_POINT('',#419);
#119=VERTEX_POINT('',#421);
#120=VERTEX_POINT('',#423);
#121=VERTEX_POINT('',#427);
#122=VERTEX_POINT('',#465);
#123=VERTEX_POINT('',#472);
#124=VERTEX_POINT('',#476);
#125=VERTEX_POINT('',#493);
#126=VERTEX_POINT('',#495);
#127=VERTEX_POINT('',#514);
#128=VERTEX_POINT('',#516);
#129=VERTEX_POINT('',#521);
#130=VERTEX_POINT('',#522);
#131=EDGE_CURVE('',#112,#112,#103,.T.);
#132=EDGE_CURVE('',#112,#113,#69,.T.);
#133=EDGE_CURVE('',#113,#113,#104,.T.);
#134=EDGE_CURVE('',#114,#115,#105,.T.);
#135=EDGE_CURVE('',#115,#116,#19,.T.);
#136=EDGE_CURVE('',#116,#114,#20,.T.);
#137=EDGE_CURVE('',#117,#118,#106,.T.);
#138=EDGE_CURVE('',#117,#119,#70,.T.);
#139=EDGE_CURVE('',#119,#120,#71,.T.);
#140=EDGE_CURVE('',#120,#118,#72,.T.);
#141=EDGE_CURVE('',#116,#121,#73,.T.);
#142=EDGE_CURVE('',#114,#121,#21,.T.);
#143=EDGE_CURVE('',#122,#114,#107,.T.);
#144=EDGE_CURVE('',#121,#122,#22,.T.);
#145=EDGE_CURVE('',#118,#115,#74,.T.);
#146=EDGE_CURVE('',#122,#117,#75,.T.);
#147=EDGE_CURVE('',#123,#122,#76,.T.);
#148=EDGE_CURVE('',#123,#119,#77,.T.);
#149=EDGE_CURVE('',#121,#124,#78,.T.);
#150=EDGE_CURVE('',#123,#124,#15,.F.);
#151=EDGE_CURVE('',#115,#125,#79,.T.);
#152=EDGE_CURVE('',#125,#126,#16,.T.);
#153=EDGE_CURVE('',#126,#116,#80,.T.);
#154=EDGE_CURVE('',#125,#120,#81,.T.);
#155=EDGE_CURVE('',#127,#127,#108,.T.);
#156=EDGE_CURVE('',#127,#128,#82,.T.);
#157=EDGE_CURVE('',#128,#128,#109,.T.);
#158=EDGE_CURVE('',#129,#130,#110,.T.);
#159=EDGE_CURVE('',#129,#123,#83,.T.);
#160=EDGE_CURVE('',#126,#124,#111,.T.);
#161=EDGE_CURVE('',#130,#125,#84,.T.);
#162=EDGE_CURVE('',#129,#130,#85,.T.);
#163=ORIENTED_EDGE('',*,*,#131,.F.);
#164=ORIENTED_EDGE('',*,*,#132,.T.);
#165=ORIENTED_EDGE('',*,*,#133,.T.);
#166=ORIENTED_EDGE('',*,*,#132,.F.);
#167=ORIENTED_EDGE('',*,*,#133,.F.);
#168=ORIENTED_EDGE('',*,*,#134,.T.);
#169=ORIENTED_EDGE('',*,*,#135,.T.);
#170=ORIENTED_EDGE('',*,*,#136,.T.);
#171=ORIENTED_EDGE('',*,*,#137,.F.);
#172=ORIENTED_EDGE('',*,*,#138,.T.);
#173=ORIENTED_EDGE('',*,*,#139,.T.);
#174=ORIENTED_EDGE('',*,*,#140,.T.);
#175=ORIENTED_EDGE('',*,*,#131,.T.);
#176=ORIENTED_EDGE('',*,*,#136,.F.);
#177=ORIENTED_EDGE('',*,*,#141,.T.);
#178=ORIENTED_EDGE('',*,*,#142,.F.);
#179=ORIENTED_EDGE('',*,*,#143,.T.);
#180=ORIENTED_EDGE('',*,*,#142,.T.);
#181=ORIENTED_EDGE('',*,*,#144,.T.);
#182=ORIENTED_EDGE('',*,*,#137,.T.);
#183=ORIENTED_EDGE('',*,*,#145,.T.);
#184=ORIENTED_EDGE('',*,*,#134,.F.);
#185=ORIENTED_EDGE('',*,*,#143,.F.);
#186=ORIENTED_EDGE('',*,*,#146,.T.);
#187=ORIENTED_EDGE('',*,*,#146,.F.);
#188=ORIENTED_EDGE('',*,*,#147,.F.);
#189=ORIENTED_EDGE('',*,*,#148,.T.);
#190=ORIENTED_EDGE('',*,*,#138,.F.);
#191=ORIENTED_EDGE('',*,*,#144,.F.);
#192=ORIENTED_EDGE('',*,*,#149,.T.);
#193=ORIENTED_EDGE('',*,*,#150,.F.);
#194=ORIENTED_EDGE('',*,*,#147,.T.);
#195=ORIENTED_EDGE('',*,*,#135,.F.);
#196=ORIENTED_EDGE('',*,*,#151,.T.);
#197=ORIENTED_EDGE('',*,*,#152,.T.);
#198=ORIENTED_EDGE('',*,*,#153,.T.);
#199=ORIENTED_EDGE('',*,*,#145,.F.);
#200=ORIENTED_EDGE('',*,*,#140,.F.);
#201=ORIENTED_EDGE('',*,*,#154,.F.);
#202=ORIENTED_EDGE('',*,*,#151,.F.);
#203=ORIENTED_EDGE('',*,*,#155,.F.);
#204=ORIENTED_EDGE('',*,*,#156,.T.);
#205=ORIENTED_EDGE('',*,*,#157,.T.);
#206=ORIENTED_EDGE('',*,*,#156,.F.);
#207=ORIENTED_EDGE('',*,*,#157,.F.);
#208=ORIENTED_EDGE('',*,*,#158,.F.);
#209=ORIENTED_EDGE('',*,*,#159,.T.);
#210=ORIENTED_EDGE('',*,*,#150,.T.);
#211=ORIENTED_EDGE('',*,*,#160,.F.);
#212=ORIENTED_EDGE('',*,*,#152,.F.);
#213=ORIENTED_EDGE('',*,*,#161,.F.);
#214=ORIENTED_EDGE('',*,*,#153,.F.);
#215=ORIENTED_EDGE('',*,*,#160,.T.);
#216=ORIENTED_EDGE('',*,*,#149,.F.);
#217=ORIENTED_EDGE('',*,*,#141,.F.);
#218=ORIENTED_EDGE('',*,*,#162,.T.);
#219=ORIENTED_EDGE('',*,*,#161,.T.);
#220=ORIENTED_EDGE('',*,*,#154,.T.);
#221=ORIENTED_EDGE('',*,*,#139,.F.);
#222=ORIENTED_EDGE('',*,*,#148,.F.);
#223=ORIENTED_EDGE('',*,*,#159,.F.);
#224=ORIENTED_EDGE('',*,*,#162,.F.);
#225=ORIENTED_EDGE('',*,*,#158,.T.);
#226=ORIENTED_EDGE('',*,*,#155,.T.);
#227=CYLINDRICAL_SURFACE('',#265,1.75);
#228=CYLINDRICAL_SURFACE('',#274,2.5);
#229=CYLINDRICAL_SURFACE('',#278,3.);
#230=CYLINDRICAL_SURFACE('',#280,2.5);
#231=CYLINDRICAL_SURFACE('',#281,2.5);
#232=CYLINDRICAL_SURFACE('',#283,5.1);
#233=CYLINDRICAL_SURFACE('',#287,6.5);
#234=ADVANCED_FACE('',(#33),#227,.F.);
#235=ADVANCED_FACE('',(#34),#25,.T.);
#236=ADVANCED_FACE('',(#35),#23,.F.);
#237=ADVANCED_FACE('',(#36,#17),#26,.T.);
#238=ADVANCED_FACE('',(#37),#228,.F.);
#239=ADVANCED_FACE('',(#38),#24,.F.);
#240=ADVANCED_FACE('',(#39),#229,.T.);
#241=ADVANCED_FACE('',(#40),#27,.T.);
#242=ADVANCED_FACE('',(#41),#230,.F.);
#243=ADVANCED_FACE('',(#42),#231,.F.);
#244=ADVANCED_FACE('',(#43),#28,.T.);
#245=ADVANCED_FACE('',(#44),#232,.F.);
#246=ADVANCED_FACE('',(#45),#29,.T.);
#247=ADVANCED_FACE('',(#46),#233,.T.);
#248=ADVANCED_FACE('',(#47),#30,.F.);
#249=ADVANCED_FACE('',(#48),#31,.T.);
#250=ADVANCED_FACE('',(#49,#18),#32,.T.);
#251=CLOSED_SHELL('',(#234,#235,#236,#237,#238,#239,#240,#241,#242,#243,
#244,#245,#246,#247,#248,#249,#250));
#252=DERIVED_UNIT_ELEMENT(#254,1.);
#253=DERIVED_UNIT_ELEMENT(#536,-3.);
#254=(
MASS_UNIT()
NAMED_UNIT(*)
SI_UNIT(.KILO.,.GRAM.)
);
#255=DERIVED_UNIT((#252,#253));
#256=MEASURE_REPRESENTATION_ITEM('density measure',
POSITIVE_RATIO_MEASURE(7850.),#255);
#257=PROPERTY_DEFINITION_REPRESENTATION(#262,#259);
#258=PROPERTY_DEFINITION_REPRESENTATION(#263,#260);
#259=REPRESENTATION('material name',(#261),#533);
#260=REPRESENTATION('density',(#256),#533);
#261=DESCRIPTIVE_REPRESENTATION_ITEM('Steel','Steel');
#262=PROPERTY_DEFINITION('material property','material name',#543);
#263=PROPERTY_DEFINITION('material property','density of part',#543);
#264=AXIS2_PLACEMENT_3D('',#368,#293,#294);
#265=AXIS2_PLACEMENT_3D('',#369,#295,#296);
#266=AXIS2_PLACEMENT_3D('',#371,#297,#298);
#267=AXIS2_PLACEMENT_3D('',#374,#300,#301);
#268=AXIS2_PLACEMENT_3D('',#375,#302,#303);
#269=AXIS2_PLACEMENT_3D('',#413,#304,#305);
#270=AXIS2_PLACEMENT_3D('',#415,#306,#307);
#271=AXIS2_PLACEMENT_3D('',#416,#308,#309);
#272=AXIS2_PLACEMENT_3D('',#417,#310,#311);
#273=AXIS2_PLACEMENT_3D('',#420,#312,#313);
#274=AXIS2_PLACEMENT_3D('',#426,#317,#318);
#275=AXIS2_PLACEMENT_3D('',#429,#320,#321);
#276=AXIS2_PLACEMENT_3D('',#466,#322,#323);
#277=AXIS2_PLACEMENT_3D('',#467,#324,#325);
#278=AXIS2_PLACEMENT_3D('',#468,#326,#327);
#279=AXIS2_PLACEMENT_3D('',#471,#330,#331);
#280=AXIS2_PLACEMENT_3D('',#475,#334,#335);
#281=AXIS2_PLACEMENT_3D('',#492,#337,#338);
#282=AXIS2_PLACEMENT_3D('',#511,#341,#342);
#283=AXIS2_PLACEMENT_3D('',#513,#344,#345);
#284=AXIS2_PLACEMENT_3D('',#515,#346,#347);
#285=AXIS2_PLACEMENT_3D('',#518,#349,#350);
#286=AXIS2_PLACEMENT_3D('',#519,#351,#352);
#287=AXIS2_PLACEMENT_3D('',#520,#353,#354);
#288=AXIS2_PLACEMENT_3D('',#523,#355,#356);
#289=AXIS2_PLACEMENT_3D('',#525,#358,#359);
#290=AXIS2_PLACEMENT_3D('',#527,#361,#362);
#291=AXIS2_PLACEMENT_3D('',#528,#363,#364);
#292=AXIS2_PLACEMENT_3D('',#530,#366,#367);
#293=DIRECTION('axis',(0.,0.,1.));
#294=DIRECTION('refdir',(1.,0.,0.));
#295=DIRECTION('center_axis',(0.,0.,1.));
#296=DIRECTION('ref_axis',(1.,0.,0.));
#297=DIRECTION('center_axis',(0.,0.,1.));
#298=DIRECTION('ref_axis',(1.,0.,0.));
#299=DIRECTION('',(0.,0.,1.));
#300=DIRECTION('center_axis',(0.,0.,1.));
#301=DIRECTION('ref_axis',(1.,0.,0.));
#302=DIRECTION('center_axis',(0.,0.,-1.));
#303=DIRECTION('ref_axis',(1.,0.,0.));
#304=DIRECTION('center_axis',(0.,0.,1.));
#305=DIRECTION('ref_axis',(5.55111512312578E-16,1.,0.));
#306=DIRECTION('center_axis',(-0.910366477462605,-0.413802944301184,0.));
#307=DIRECTION('ref_axis',(0.413802944301184,-0.910366477462605,0.));
#308=DIRECTION('center_axis',(0.413802944301184,0.910366477462605,0.));
#309=DIRECTION('ref_axis',(0.910366477462605,-0.413802944301184,0.));
#310=DIRECTION('center_axis',(0.,0.,-1.));
#311=DIRECTION('ref_axis',(-1.,0.,0.));
#312=DIRECTION('center_axis',(0.,0.,1.));
#313=DIRECTION('ref_axis',(-0.707106781186548,0.707106781186548,0.));
#314=DIRECTION('',(0.,-1.,0.));
#315=DIRECTION('',(-1.,0.,0.));
#316=DIRECTION('',(9.25185853854297E-17,1.,0.));
#317=DIRECTION('center_axis',(1.,-9.25185853854297E-17,0.));
#318=DIRECTION('ref_axis',(0.,-0.707106781186547,0.707106781186547));
#319=DIRECTION('',(1.,-9.25185853854297E-17,0.));
#320=DIRECTION('center_axis',(-0.413802944301184,0.910366477462605,-4.04283929650353E-16));
#321=DIRECTION('ref_axis',(-0.910366477462605,-0.413802944301184,0.));
#322=DIRECTION('center_axis',(0.,0.,1.));
#323=DIRECTION('ref_axis',(1.,0.,0.));
#324=DIRECTION('center_axis',(0.910366477462605,-0.413802944301184,1.83765422568342E-16));
#325=DIRECTION('ref_axis',(-0.413802944301184,-0.910366477462605,0.));
#326=DIRECTION('center_axis',(0.,0.,-1.));
#327=DIRECTION('ref_axis',(0.707106781186548,0.707106781186548,0.));
#328=DIRECTION('',(0.,0.,1.));
#329=DIRECTION('',(0.,0.,-1.));
#330=DIRECTION('center_axis',(1.,0.,0.));
#331=DIRECTION('ref_axis',(0.,-1.,0.));
#332=DIRECTION('',(0.,1.,0.));
#333=DIRECTION('',(0.,0.,-1.));
#334=DIRECTION('center_axis',(0.,-1.,0.));
#335=DIRECTION('ref_axis',(-0.707106781186547,0.,0.707106781186547));
#336=DIRECTION('',(0.,-1.,0.));
#337=DIRECTION('center_axis',(9.25185853854297E-17,1.,0.));
#338=DIRECTION('ref_axis',(0.707106781186547,-6.37850061340284E-17,0.707106781186547));
#339=DIRECTION('',(-9.25185853854297E-17,-1.,0.));
#340=DIRECTION('',(9.25185853854297E-17,1.,0.));
#341=DIRECTION('center_axis',(-1.,9.25185853854297E-17,0.));
#342=DIRECTION('ref_axis',(9.25185853854297E-17,1.,0.));
#343=DIRECTION('',(0.,0.,-1.));
#344=DIRECTION('center_axis',(0.,0.,-1.));
#345=DIRECTION('ref_axis',(1.,0.,0.));
#346=DIRECTION('center_axis',(0.,0.,-1.));
#347=DIRECTION('ref_axis',(1.,0.,0.));
#348=DIRECTION('',(0.,0.,-1.));
#349=DIRECTION('center_axis',(0.,0.,-1.));
#350=DIRECTION('ref_axis',(1.,0.,0.));
#351=DIRECTION('center_axis',(0.,0.,1.));
#352=DIRECTION('ref_axis',(1.,0.,0.));
#353=DIRECTION('center_axis',(0.,0.,-1.));
#354=DIRECTION('ref_axis',(-1.83697019872103E-16,1.,0.));
#355=DIRECTION('center_axis',(0.,0.,1.));
#356=DIRECTION('ref_axis',(1.,0.,0.));
#357=DIRECTION('',(0.,0.,-1.));
#358=DIRECTION('center_axis',(0.,0.,-1.));
#359=DIRECTION('ref_axis',(1.,0.,0.));
#360=DIRECTION('',(0.,0.,-1.));
#361=DIRECTION('center_axis',(0.,0.,1.));
#362=DIRECTION('ref_axis',(1.,0.,0.));
#363=DIRECTION('center_axis',(0.,-1.,0.));
#364=DIRECTION('ref_axis',(-1.,0.,0.));
#365=DIRECTION('',(-1.,0.,0.));
#366=DIRECTION('center_axis',(0.,0.,1.));
#367=DIRECTION('ref_axis',(1.,0.,0.));
#368=CARTESIAN_POINT('',(0.,0.,0.));
#369=CARTESIAN_POINT('Origin',(0.,0.,-28.));
#370=CARTESIAN_POINT('',(-1.75,2.14313189850787E-16,-28.));
#371=CARTESIAN_POINT('Origin',(0.,0.,-28.));
#372=CARTESIAN_POINT('',(-1.75,2.14313189850787E-16,-22.));
#373=CARTESIAN_POINT('',(-1.75,-2.14313189850787E-16,-28.));
#374=CARTESIAN_POINT('Origin',(0.,0.,-22.));
#375=CARTESIAN_POINT('Origin',(0.,0.,-22.));
#376=CARTESIAN_POINT('Ctrl Pts',(-5.5,5.5,-3.));
#377=CARTESIAN_POINT('Ctrl Pts',(-4.26580288608973,4.93900131185897,-3.));
#378=CARTESIAN_POINT('Ctrl Pts',(-2.21534846298424,4.00697657408375,-3.32696137964392));
#379=CARTESIAN_POINT('Ctrl Pts',(-0.639073098409597,3.29048777200436,-4.22888310022969));
#380=CARTESIAN_POINT('Ctrl Pts',(-0.0929404793786868,3.04224567244486,-4.93890699238667));
#381=CARTESIAN_POINT('Ctrl Pts',(5.7794874652573E-16,3.,-5.31300043728632));
#382=CARTESIAN_POINT('Ctrl Pts',(5.55111512312578E-16,3.,-5.5));
#383=CARTESIAN_POINT('Ctrl Pts',(-5.5,5.5,-3.));
#384=CARTESIAN_POINT('Ctrl Pts',(-4.39403115766482,4.81077304028387,-3.));
#385=CARTESIAN_POINT('Ctrl Pts',(-2.55819980382984,3.67503923357766,-3.5072394714821));
#386=CARTESIAN_POINT('Ctrl Pts',(-1.32088834750907,3.11210575496168,-4.57067434368007));
#387=CARTESIAN_POINT('Ctrl Pts',(-0.955758209104534,3.01178662459223,-5.13940106565338));
#388=CARTESIAN_POINT('Ctrl Pts',(-0.897597901025655,3.,-5.38106773302868));
#389=CARTESIAN_POINT('Ctrl Pts',(-0.897597901025655,3.,-5.5));
#390=CARTESIAN_POINT('Ctrl Pts',(-5.5,5.5,-3.));
#391=CARTESIAN_POINT('Ctrl Pts',(-4.61843063292123,4.58637356502746,-3.));
#392=CARTESIAN_POINT('Ctrl Pts',(-3.16123809602786,3.07391397545874,-3.64295221940426));
#393=CARTESIAN_POINT('Ctrl Pts',(-2.51190424879223,2.34797784933479,-4.85850949878901));
#394=CARTESIAN_POINT('Ctrl Pts',(-2.45095561521466,2.25276610205648,-5.31650092810248));
#395=CARTESIAN_POINT('Ctrl Pts',(-2.45300045844995,2.24855730968896,-5.43986209692879));
#396=CARTESIAN_POINT('Ctrl Pts',(-2.45300045844995,2.24855730968896,-5.5));
#397=CARTESIAN_POINT('Ctrl Pts',(-5.5,5.5,-3.));
#398=CARTESIAN_POINT('Ctrl Pts',(-4.84283010817765,4.36197408977104,-3.));
#399=CARTESIAN_POINT('Ctrl Pts',(-3.75872128638571,2.47326280785197,-3.46320282373008));
#400=CARTESIAN_POINT('Ctrl Pts',(-3.15762673702405,1.15143959455373,-4.4838669749273));
#401=CARTESIAN_POINT('Ctrl Pts',(-3.0189099628343,0.739512201488244,-5.08837747447177));
#402=CARTESIAN_POINT('Ctrl Pts',(-3.,0.673198425769242,-5.36334398779947));
#403=CARTESIAN_POINT('Ctrl Pts',(-3.,0.673198425769242,-5.5));
#404=CARTESIAN_POINT('Ctrl Pts',(-5.5,5.5,-3.));
#405=CARTESIAN_POINT('Ctrl Pts',(-4.93900131185897,4.26580288608972,-3.));
#406=CARTESIAN_POINT('Ctrl Pts',(-4.00697657408374,2.21534846298424,-3.32696137964392));
#407=CARTESIAN_POINT('Ctrl Pts',(-3.29048777200436,0.639073098409597,-4.22888310022969));
#408=CARTESIAN_POINT('Ctrl Pts',(-3.04224567244486,0.0929404793786878,-4.93890699238667));
#409=CARTESIAN_POINT('Ctrl Pts',(-3.,6.22941564036091E-17,-5.31300043728632));
#410=CARTESIAN_POINT('Ctrl Pts',(-3.,7.26747174095872E-17,-5.5));
#411=CARTESIAN_POINT('',(1.66533453693773E-15,3.,-5.5));
#412=CARTESIAN_POINT('',(-3.,-1.30104260698261E-16,-5.5));
#413=CARTESIAN_POINT('Origin',(0.,0.,-5.5));
#414=CARTESIAN_POINT('',(-5.5,5.5,-3.));
#415=CARTESIAN_POINT('Origin',(-5.5,5.5,-5.5));
#416=CARTESIAN_POINT('Origin',(-5.5,5.5,-5.5));
#417=CARTESIAN_POINT('Origin',(-5.55111512312578E-16,0.,-28.));
#418=CARTESIAN_POINT('',(3.,0.,-28.));
#419=CARTESIAN_POINT('',(-3.,5.55111512312578E-16,-28.));
#420=CARTESIAN_POINT('Origin',(-1.38777878078145E-16,2.77555756156289E-16,
-28.));
#421=CARTESIAN_POINT('',(3.,-3.,-28.));
#422=CARTESIAN_POINT('',(3.,3.,-28.));
#423=CARTESIAN_POINT('',(-3.,-3.,-28.));
#424=CARTESIAN_POINT('',(3.,-3.,-28.));
#425=CARTESIAN_POINT('',(-3.,-3.,-28.));
#426=CARTESIAN_POINT('Origin',(-1.5,5.5,-5.5));
#427=CARTESIAN_POINT('',(5.5,5.5,-3.));
#428=CARTESIAN_POINT('',(-1.5,5.5,-3.));
#429=CARTESIAN_POINT('Origin',(5.5,5.5,-5.5));
#430=CARTESIAN_POINT('Ctrl Pts',(5.5,5.5,-3.));
#431=CARTESIAN_POINT('Ctrl Pts',(4.93900131185897,4.26580288608973,-3.));
#432=CARTESIAN_POINT('Ctrl Pts',(4.00697657408374,2.21534846298423,-3.32696137964392));
#433=CARTESIAN_POINT('Ctrl Pts',(3.29048777200436,0.639073098409596,-4.22888310022969));
#434=CARTESIAN_POINT('Ctrl Pts',(3.04224567244486,0.0929404793786861,-4.93890699238667));
#435=CARTESIAN_POINT('Ctrl Pts',(3.,-1.24517031770287E-15,-5.31300043728632));
#436=CARTESIAN_POINT('Ctrl Pts',(3.,-1.11022302462516E-15,-5.5));
#437=CARTESIAN_POINT('Ctrl Pts',(5.5,5.5,-3.));
#438=CARTESIAN_POINT('Ctrl Pts',(4.81077304028387,4.39403115766482,-3.));
#439=CARTESIAN_POINT('Ctrl Pts',(3.67503923357766,2.55819980382984,-3.5072394714821));
#440=CARTESIAN_POINT('Ctrl Pts',(3.11210575496168,1.32088834750907,-4.57067434368007));
#441=CARTESIAN_POINT('Ctrl Pts',(3.01178662459223,0.955758209104533,-5.13940106565338));
#442=CARTESIAN_POINT('Ctrl Pts',(3.,0.897597901025654,-5.38106773302868));
#443=CARTESIAN_POINT('Ctrl Pts',(3.,0.897597901025654,-5.5));
#444=CARTESIAN_POINT('Ctrl Pts',(5.5,5.5,-3.));
#445=CARTESIAN_POINT('Ctrl Pts',(4.58637356502746,4.61843063292124,-3.));
#446=CARTESIAN_POINT('Ctrl Pts',(3.07391397545874,3.16123809602786,-3.64295221940426));
#447=CARTESIAN_POINT('Ctrl Pts',(2.34797784933479,2.51190424879223,-4.85850949878901));
#448=CARTESIAN_POINT('Ctrl Pts',(2.25276610205648,2.45095561521466,-5.31650092810249));
#449=CARTESIAN_POINT('Ctrl Pts',(2.24855730968896,2.45300045844995,-5.43986209692879));
#450=CARTESIAN_POINT('Ctrl Pts',(2.24855730968896,2.45300045844995,-5.5));
#451=CARTESIAN_POINT('Ctrl Pts',(5.5,5.5,-3.));
#452=CARTESIAN_POINT('Ctrl Pts',(4.36197408977104,4.84283010817765,-3.));
#453=CARTESIAN_POINT('Ctrl Pts',(2.47326280785197,3.75872128638571,-3.46320282373007));
#454=CARTESIAN_POINT('Ctrl Pts',(1.15143959455373,3.15762673702405,-4.4838669749273));
#455=CARTESIAN_POINT('Ctrl Pts',(0.739512201488244,3.0189099628343,-5.08837747447177));
#456=CARTESIAN_POINT('Ctrl Pts',(0.673198425769242,3.,-5.36334398779947));
#457=CARTESIAN_POINT('Ctrl Pts',(0.673198425769242,3.,-5.5));
#458=CARTESIAN_POINT('Ctrl Pts',(5.5,5.5,-3.));
#459=CARTESIAN_POINT('Ctrl Pts',(4.26580288608972,4.93900131185897,-3.));
#460=CARTESIAN_POINT('Ctrl Pts',(2.21534846298424,4.00697657408374,-3.32696137964392));
#461=CARTESIAN_POINT('Ctrl Pts',(0.639073098409597,3.29048777200436,-4.22888310022969));
#462=CARTESIAN_POINT('Ctrl Pts',(0.0929404793786879,3.04224567244486,-4.93890699238667));
#463=CARTESIAN_POINT('Ctrl Pts',(7.05446667927683E-16,3.,-5.31300043728632));
#464=CARTESIAN_POINT('Ctrl Pts',(8.49830834647197E-16,3.,-5.5));
#465=CARTESIAN_POINT('',(3.,-1.11022302462516E-15,-5.5));
#466=CARTESIAN_POINT('Origin',(0.,-1.11022302462516E-15,-5.5));
#467=CARTESIAN_POINT('Origin',(5.5,5.5,-5.5));
#468=CARTESIAN_POINT('Origin',(0.,1.38777878078145E-16,0.));
#469=CARTESIAN_POINT('',(-3.,5.55111512312578E-16,0.));
#470=CARTESIAN_POINT('',(3.,1.38777878078145E-16,0.));
#471=CARTESIAN_POINT('Origin',(3.,3.,0.));
#472=CARTESIAN_POINT('',(3.,-3.,-5.5));
#473=CARTESIAN_POINT('',(3.,3.06657032433385,-5.5));
#474=CARTESIAN_POINT('',(3.,-3.,0.));
#475=CARTESIAN_POINT('Origin',(5.5,3.06657032433385,-5.5));
#476=CARTESIAN_POINT('',(5.5,-0.697820317802339,-3.));
#477=CARTESIAN_POINT('',(5.5,3.06657032433385,-3.));
#478=CARTESIAN_POINT('Ctrl Pts',(5.49999999999991,-0.697820317802478,-3.));
#479=CARTESIAN_POINT('Ctrl Pts',(5.37037340797096,-0.903630174258111,-3.));
#480=CARTESIAN_POINT('Ctrl Pts',(5.23035302923287,-1.10023898207447,-3.0100376992883));
#481=CARTESIAN_POINT('Ctrl Pts',(4.79004300157812,-1.65241491330507,-3.08469685354121));
#482=CARTESIAN_POINT('Ctrl Pts',(4.46512958933507,-1.97715983277301,-3.18941018971289));
#483=CARTESIAN_POINT('Ctrl Pts',(3.97853308044437,-2.37765802244136,-3.50796238041187));
#484=CARTESIAN_POINT('Ctrl Pts',(3.81595287575447,-2.49872528371004,-3.63969716986942));
#485=CARTESIAN_POINT('Ctrl Pts',(3.52158784337221,-2.69999798097263,-3.95642386401753));
#486=CARTESIAN_POINT('Ctrl Pts',(3.39041365731701,-2.78065033514935,-4.14169877592157));
#487=CARTESIAN_POINT('Ctrl Pts',(3.20290000509878,-2.89073291133645,-4.49572807296049));
#488=CARTESIAN_POINT('Ctrl Pts',(3.12582341980602,-2.93306486089712,-4.68954985579426));
#489=CARTESIAN_POINT('Ctrl Pts',(3.02431795292243,-2.98757127210011,-5.09436162132597));
#490=CARTESIAN_POINT('Ctrl Pts',(3.,-2.99999999999998,-5.30534513552492));
#491=CARTESIAN_POINT('Ctrl Pts',(3.,-2.99999999999998,-5.5));
#492=CARTESIAN_POINT('Origin',(-5.5,0.0665703243338536,-5.5));
#493=CARTESIAN_POINT('',(-3.,-3.,-5.5));
#494=CARTESIAN_POINT('',(-3.,0.0665703243338534,-5.5));
#495=CARTESIAN_POINT('',(-5.5,-0.697820317802342,-3.));
#496=CARTESIAN_POINT('Ctrl Pts',(-3.,-2.99999999999998,-5.5));
#497=CARTESIAN_POINT('Ctrl Pts',(-3.,-2.99999999999998,-5.30534513552492));
#498=CARTESIAN_POINT('Ctrl Pts',(-3.02431795292243,-2.98757127210011,-5.09436162132596));
#499=CARTESIAN_POINT('Ctrl Pts',(-3.12582341980602,-2.93306486089712,-4.68954985579425));
#500=CARTESIAN_POINT('Ctrl Pts',(-3.20290000509878,-2.89073291133645,-4.49572807296049));
#501=CARTESIAN_POINT('Ctrl Pts',(-3.39041365731701,-2.78065033514935,-4.14169877592157));
#502=CARTESIAN_POINT('Ctrl Pts',(-3.52158784337221,-2.69999798097263,-3.95642386401753));
#503=CARTESIAN_POINT('Ctrl Pts',(-3.81595287575447,-2.49872528371004,-3.63969716986942));
#504=CARTESIAN_POINT('Ctrl Pts',(-3.97853308044437,-2.37765802244136,-3.50796238041187));
#505=CARTESIAN_POINT('Ctrl Pts',(-4.46512958933507,-1.97715983277301,-3.18941018971289));
#506=CARTESIAN_POINT('Ctrl Pts',(-4.79004300157812,-1.65241491330507,-3.08469685354121));
#507=CARTESIAN_POINT('Ctrl Pts',(-5.23035302923287,-1.10023898207447,-3.0100376992883));
#508=CARTESIAN_POINT('Ctrl Pts',(-5.37037340797096,-0.903630174258113,-3.));
#509=CARTESIAN_POINT('Ctrl Pts',(-5.49999999999991,-0.697820317802481,-3.));
#510=CARTESIAN_POINT('',(-5.5,0.0665703243338536,-3.));
#511=CARTESIAN_POINT('Origin',(-3.,-3.,0.));
#512=CARTESIAN_POINT('',(-3.,-3.,0.));
#513=CARTESIAN_POINT('Origin',(-9.67047175421319E-16,2.76628129733541,0.));
#514=CARTESIAN_POINT('',(-5.1,2.76628129733541,0.));
#515=CARTESIAN_POINT('Origin',(-9.67047175421319E-16,2.76628129733541,0.));
#516=CARTESIAN_POINT('',(-5.1,2.76628129733541,-2.));
#517=CARTESIAN_POINT('',(-5.1,2.76628129733541,0.));
#518=CARTESIAN_POINT('Origin',(-9.67047175421319E-16,2.76628129733541,-2.));
#519=CARTESIAN_POINT('Origin',(-1.11022302462516E-15,2.76628129733541,-2.));
#520=CARTESIAN_POINT('Origin',(-9.67047257273902E-16,2.76628129733541,0.));
#521=CARTESIAN_POINT('',(3.,-3.,0.));
#522=CARTESIAN_POINT('',(-3.,-3.,0.));
#523=CARTESIAN_POINT('Origin',(-9.67047257273902E-16,2.76628129733541,0.));
#524=CARTESIAN_POINT('',(3.,-3.,0.));
#525=CARTESIAN_POINT('Origin',(-9.67047257273902E-16,2.76628129733541,-3.));
#526=CARTESIAN_POINT('',(-3.,-3.,0.));
#527=CARTESIAN_POINT('Origin',(-1.11022302462516E-15,3.13314064866771,-3.));
#528=CARTESIAN_POINT('Origin',(3.,-3.,0.));
#529=CARTESIAN_POINT('',(3.,-3.,0.));
#530=CARTESIAN_POINT('Origin',(-5.55111512312578E-16,0.,0.));
#531=UNCERTAINTY_MEASURE_WITH_UNIT(LENGTH_MEASURE(0.01),#535,
'DISTANCE_ACCURACY_VALUE',
'Maximum model space distance between geometric entities at asserted c
onnectivities');
#532=UNCERTAINTY_MEASURE_WITH_UNIT(LENGTH_MEASURE(0.01),#535,
'DISTANCE_ACCURACY_VALUE',
'Maximum model space distance between geometric entities at asserted c
onnectivities');
#533=(
GEOMETRIC_REPRESENTATION_CONTEXT(3)
GLOBAL_UNCERTAINTY_ASSIGNED_CONTEXT((#531))
GLOBAL_UNIT_ASSIGNED_CONTEXT((#535,#537,#538))
REPRESENTATION_CONTEXT('','3D')
);
#534=(
GEOMETRIC_REPRESENTATION_CONTEXT(3)
GLOBAL_UNCERTAINTY_ASSIGNED_CONTEXT((#532))
GLOBAL_UNIT_ASSIGNED_CONTEXT((#535,#537,#538))
REPRESENTATION_CONTEXT('','3D')
);
#535=(
LENGTH_UNIT()
NAMED_UNIT(*)
SI_UNIT(.MILLI.,.METRE.)
);
#536=(
LENGTH_UNIT()
NAMED_UNIT(*)
SI_UNIT($,.METRE.)
);
#537=(
NAMED_UNIT(*)
PLANE_ANGLE_UNIT()
SI_UNIT($,.RADIAN.)
);
#538=(
NAMED_UNIT(*)
SI_UNIT($,.STERADIAN.)
SOLID_ANGLE_UNIT()
);
#539=SHAPE_DEFINITION_REPRESENTATION(#540,#541);
#540=PRODUCT_DEFINITION_SHAPE('',$,#543);
#541=SHAPE_REPRESENTATION('',(#264),#533);
#542=PRODUCT_DEFINITION_CONTEXT('part definition',#547,'design');
#543=PRODUCT_DEFINITION('OuterCaseSupport','OuterCaseSupport v3',#544,#542);
#544=PRODUCT_DEFINITION_FORMATION('',$,#549);
#545=PRODUCT_RELATED_PRODUCT_CATEGORY('OuterCaseSupport v3',
'OuterCaseSupport v3',(#549));
#546=APPLICATION_PROTOCOL_DEFINITION('international standard',
'automotive_design',2009,#547);
#547=APPLICATION_CONTEXT(
'Core Data for Automotive Mechanical Design Process');
#548=PRODUCT_CONTEXT('part definition',#547,'mechanical');
#549=PRODUCT('OuterCaseSupport','OuterCaseSupport v3',$,(#548));
#550=PRESENTATION_STYLE_ASSIGNMENT((#552));
#551=PRESENTATION_STYLE_ASSIGNMENT((#553));
#552=SURFACE_STYLE_USAGE(.BOTH.,#554);
#553=SURFACE_STYLE_USAGE(.BOTH.,#555);
#554=SURFACE_SIDE_STYLE('',(#556));
#555=SURFACE_SIDE_STYLE('',(#557));
#556=SURFACE_STYLE_FILL_AREA(#558);
#557=SURFACE_STYLE_FILL_AREA(#559);
#558=FILL_AREA_STYLE('Steel - Satin',(#560));
#559=FILL_AREA_STYLE('Plastic - Matte (White)',(#561));
#560=FILL_AREA_STYLE_COLOUR('Steel - Satin',#562);
#561=FILL_AREA_STYLE_COLOUR('Plastic - Matte (White)',#563);
#562=COLOUR_RGB('Steel - Satin',0.627450980392157,0.627450980392157,0.627450980392157);
#563=COLOUR_RGB('Plastic - Matte (White)',0.964705882352941,0.964705882352941,
0.952941176470588);
ENDSEC;
END-ISO-10303-21;
