ISO-10303-21;
HEADER;
/* Generated by software containing ST-Developer
 * from STEP Tools, Inc. (www.steptools.com) 
 */

FILE_DESCRIPTION(
/* description */ (''),
/* implementation_level */ '2;1');

FILE_NAME(
/* name */ 'ServoDriverBracket_v12.step',
/* time_stamp */ '2026-08-21T09:14:17-04:00',
/* author */ (''),
/* organization */ (''),
/* preprocessor_version */ 'ST-DEVELOPER v20.1',
/* originating_system */ 'Autodesk Translation Framework v15.8.0.0',
/* authorisation */ '');

FILE_SCHEMA (('AUTOMOTIVE_DESIGN { 1 0 10303 214 3 1 1 }'));
ENDSEC;

DATA;
#10=MECHANICAL_DESIGN_GEOMETRIC_PRESENTATION_REPRESENTATION('',(#13),#712);
#11=SHAPE_REPRESENTATION_RELATIONSHIP('SRR','None',#719,#12);
#12=ADVANCED_BREP_SHAPE_REPRESENTATION('',(#14),#711);
#13=STYLED_ITEM('',(#729),#14);
#14=MANIFOLD_SOLID_BREP('Body1',#430);
#15=CYLINDRICAL_SURFACE('',#460,1.5);
#16=CYLINDRICAL_SURFACE('',#462,2.5);
#17=CYLINDRICAL_SURFACE('',#467,2.);
#18=CYLINDRICAL_SURFACE('',#473,1.5);
#19=CYLINDRICAL_SURFACE('',#474,1.5);
#20=FACE_BOUND('',#50,.T.);
#21=FACE_BOUND('',#51,.T.);
#22=FACE_BOUND('',#54,.T.);
#23=FACE_BOUND('',#60,.T.);
#24=FACE_BOUND('',#71,.T.);
#25=FACE_BOUND('',#72,.T.);
#26=FACE_OUTER_BOUND('',#49,.T.);
#27=FACE_OUTER_BOUND('',#52,.T.);
#28=FACE_OUTER_BOUND('',#53,.T.);
#29=FACE_OUTER_BOUND('',#55,.T.);
#30=FACE_OUTER_BOUND('',#56,.T.);
#31=FACE_OUTER_BOUND('',#57,.T.);
#32=FACE_OUTER_BOUND('',#58,.T.);
#33=FACE_OUTER_BOUND('',#59,.T.);
#34=FACE_OUTER_BOUND('',#61,.T.);
#35=FACE_OUTER_BOUND('',#62,.T.);
#36=FACE_OUTER_BOUND('',#63,.T.);
#37=FACE_OUTER_BOUND('',#64,.T.);
#38=FACE_OUTER_BOUND('',#65,.T.);
#39=FACE_OUTER_BOUND('',#66,.T.);
#40=FACE_OUTER_BOUND('',#67,.T.);
#41=FACE_OUTER_BOUND('',#68,.T.);
#42=FACE_OUTER_BOUND('',#69,.T.);
#43=FACE_OUTER_BOUND('',#70,.T.);
#44=FACE_OUTER_BOUND('',#73,.T.);
#45=FACE_OUTER_BOUND('',#74,.T.);
#46=FACE_OUTER_BOUND('',#75,.T.);
#47=FACE_OUTER_BOUND('',#76,.T.);
#48=FACE_OUTER_BOUND('',#77,.T.);
#49=EDGE_LOOP('',(#275,#276,#277,#278,#279,#280,#281));
#50=EDGE_LOOP('',(#282));
#51=EDGE_LOOP('',(#283));
#52=EDGE_LOOP('',(#284,#285,#286,#287));
#53=EDGE_LOOP('',(#288,#289,#290,#291,#292,#293));
#54=EDGE_LOOP('',(#294));
#55=EDGE_LOOP('',(#295,#296,#297,#298));
#56=EDGE_LOOP('',(#299,#300,#301,#302));
#57=EDGE_LOOP('',(#303,#304,#305));
#58=EDGE_LOOP('',(#306,#307,#308,#309));
#59=EDGE_LOOP('',(#310,#311,#312,#313,#314,#315));
#60=EDGE_LOOP('',(#316));
#61=EDGE_LOOP('',(#317,#318,#319,#320));
#62=EDGE_LOOP('',(#321,#322,#323,#324));
#63=EDGE_LOOP('',(#325,#326,#327,#328,#329,#330,#331));
#64=EDGE_LOOP('',(#332,#333,#334,#335));
#65=EDGE_LOOP('',(#336,#337,#338,#339));
#66=EDGE_LOOP('',(#340,#341,#342));
#67=EDGE_LOOP('',(#343,#344,#345,#346,#347));
#68=EDGE_LOOP('',(#348,#349,#350,#351));
#69=EDGE_LOOP('',(#352,#353,#354,#355));
#70=EDGE_LOOP('',(#356,#357,#358,#359,#360,#361,#362));
#71=EDGE_LOOP('',(#363));
#72=EDGE_LOOP('',(#364));
#73=EDGE_LOOP('',(#365,#366,#367,#368));
#74=EDGE_LOOP('',(#369,#370,#371,#372));
#75=EDGE_LOOP('',(#373,#374,#375,#376));
#76=EDGE_LOOP('',(#377,#378,#379,#380));
#77=EDGE_LOOP('',(#381,#382,#383,#384,#385,#386,#387,#388));
#78=CIRCLE('',#445,2.);
#79=CIRCLE('',#446,1.5);
#80=CIRCLE('',#447,1.5);
#81=CIRCLE('',#450,2.5);
#82=CIRCLE('',#451,1.5);
#83=CIRCLE('',#457,2.5);
#84=CIRCLE('',#458,1.5);
#85=CIRCLE('',#468,2.);
#86=CIRCLE('',#470,1.5);
#87=CIRCLE('',#471,1.5);
#88=LINE('',#596,#135);
#89=LINE('',#598,#136);
#90=LINE('',#602,#137);
#91=LINE('',#604,#138);
#92=LINE('',#606,#139);
#93=LINE('',#607,#140);
#94=LINE('',#614,#141);
#95=LINE('',#616,#142);
#96=LINE('',#617,#143);
#97=LINE('',#620,#144);
#98=LINE('',#622,#145);
#99=LINE('',#626,#146);
#100=LINE('',#627,#147);
#101=LINE('',#633,#148);
#102=LINE('',#635,#149);
#103=LINE('',#637,#150);
#104=LINE('',#638,#151);
#105=LINE('',#641,#152);
#106=LINE('',#643,#153);
#107=LINE('',#644,#154);
#108=LINE('',#647,#155);
#109=LINE('',#648,#156);
#110=LINE('',#651,#157);
#111=LINE('',#653,#158);
#112=LINE('',#654,#159);
#113=LINE('',#657,#160);
#114=LINE('',#661,#161);
#115=LINE('',#662,#162);
#116=LINE('',#666,#163);
#117=LINE('',#668,#164);
#118=LINE('',#671,#165);
#119=LINE('',#672,#166);
#120=LINE('',#673,#167);
#121=LINE('',#675,#168);
#122=LINE('',#677,#169);
#123=LINE('',#679,#170);
#124=LINE('',#682,#171);
#125=LINE('',#683,#172);
#126=LINE('',#685,#173);
#127=LINE('',#688,#174);
#128=LINE('',#691,#175);
#129=LINE('',#694,#176);
#130=LINE('',#695,#177);
#131=LINE('',#696,#178);
#132=LINE('',#703,#179);
#133=LINE('',#705,#180);
#134=LINE('',#707,#181);
#135=VECTOR('',#481,10.);
#136=VECTOR('',#482,10.);
#137=VECTOR('',#485,10.);
#138=VECTOR('',#486,10.);
#139=VECTOR('',#487,10.);
#140=VECTOR('',#488,10.);
#141=VECTOR('',#495,10.);
#142=VECTOR('',#496,10.);
#143=VECTOR('',#497,10.);
#144=VECTOR('',#500,10.);
#145=VECTOR('',#501,10.);
#146=VECTOR('',#504,10.);
#147=VECTOR('',#505,10.);
#148=VECTOR('',#510,10.);
#149=VECTOR('',#511,10.);
#150=VECTOR('',#512,10.);
#151=VECTOR('',#513,10.);
#152=VECTOR('',#516,10.);
#153=VECTOR('',#517,10.);
#154=VECTOR('',#518,10.);
#155=VECTOR('',#521,10.);
#156=VECTOR('',#522,10.);
#157=VECTOR('',#525,10.);
#158=VECTOR('',#526,10.);
#159=VECTOR('',#527,10.);
#160=VECTOR('',#530,10.);
#161=VECTOR('',#533,10.);
#162=VECTOR('',#534,10.);
#163=VECTOR('',#539,10.);
#164=VECTOR('',#542,1.5);
#165=VECTOR('',#545,10.);
#166=VECTOR('',#546,10.);
#167=VECTOR('',#547,10.);
#168=VECTOR('',#550,10.);
#169=VECTOR('',#553,10.);
#170=VECTOR('',#556,10.);
#171=VECTOR('',#559,10.);
#172=VECTOR('',#560,10.);
#173=VECTOR('',#563,10.);
#174=VECTOR('',#566,10.);
#175=VECTOR('',#569,10.);
#176=VECTOR('',#572,10.);
#177=VECTOR('',#573,10.);
#178=VECTOR('',#574,10.);
#179=VECTOR('',#583,1.5);
#180=VECTOR('',#586,1.5);
#181=VECTOR('',#589,10.);
#182=VERTEX_POINT('',#594);
#183=VERTEX_POINT('',#595);
#184=VERTEX_POINT('',#597);
#185=VERTEX_POINT('',#599);
#186=VERTEX_POINT('',#601);
#187=VERTEX_POINT('',#603);
#188=VERTEX_POINT('',#605);
#189=VERTEX_POINT('',#608);
#190=VERTEX_POINT('',#610);
#191=VERTEX_POINT('',#613);
#192=VERTEX_POINT('',#615);
#193=VERTEX_POINT('',#619);
#194=VERTEX_POINT('',#621);
#195=VERTEX_POINT('',#623);
#196=VERTEX_POINT('',#625);
#197=VERTEX_POINT('',#628);
#198=VERTEX_POINT('',#631);
#199=VERTEX_POINT('',#632);
#200=VERTEX_POINT('',#634);
#201=VERTEX_POINT('',#636);
#202=VERTEX_POINT('',#640);
#203=VERTEX_POINT('',#642);
#204=VERTEX_POINT('',#646);
#205=VERTEX_POINT('',#650);
#206=VERTEX_POINT('',#652);
#207=VERTEX_POINT('',#656);
#208=VERTEX_POINT('',#658);
#209=VERTEX_POINT('',#660);
#210=VERTEX_POINT('',#663);
#211=VERTEX_POINT('',#670);
#212=VERTEX_POINT('',#681);
#213=VERTEX_POINT('',#687);
#214=VERTEX_POINT('',#689);
#215=VERTEX_POINT('',#693);
#216=VERTEX_POINT('',#697);
#217=VERTEX_POINT('',#699);
#218=EDGE_CURVE('',#182,#183,#88,.T.);
#219=EDGE_CURVE('',#184,#182,#89,.T.);
#220=EDGE_CURVE('',#185,#184,#78,.T.);
#221=EDGE_CURVE('',#185,#186,#90,.T.);
#222=EDGE_CURVE('',#186,#187,#91,.T.);
#223=EDGE_CURVE('',#187,#188,#92,.T.);
#224=EDGE_CURVE('',#183,#188,#93,.T.);
#225=EDGE_CURVE('',#189,#189,#79,.T.);
#226=EDGE_CURVE('',#190,#190,#80,.T.);
#227=EDGE_CURVE('',#183,#191,#94,.T.);
#228=EDGE_CURVE('',#191,#192,#95,.T.);
#229=EDGE_CURVE('',#192,#182,#96,.T.);
#230=EDGE_CURVE('',#187,#193,#97,.T.);
#231=EDGE_CURVE('',#193,#194,#98,.T.);
#232=EDGE_CURVE('',#194,#195,#81,.T.);
#233=EDGE_CURVE('',#195,#196,#99,.T.);
#234=EDGE_CURVE('',#196,#188,#100,.T.);
#235=EDGE_CURVE('',#197,#197,#82,.T.);
#236=EDGE_CURVE('',#198,#199,#101,.T.);
#237=EDGE_CURVE('',#200,#198,#102,.T.);
#238=EDGE_CURVE('',#201,#200,#103,.T.);
#239=EDGE_CURVE('',#199,#201,#104,.T.);
#240=EDGE_CURVE('',#202,#201,#105,.T.);
#241=EDGE_CURVE('',#203,#202,#106,.T.);
#242=EDGE_CURVE('',#203,#199,#107,.T.);
#243=EDGE_CURVE('',#204,#198,#108,.T.);
#244=EDGE_CURVE('',#200,#204,#109,.T.);
#245=EDGE_CURVE('',#204,#205,#110,.F.);
#246=EDGE_CURVE('',#206,#205,#111,.T.);
#247=EDGE_CURVE('',#200,#206,#112,.T.);
#248=EDGE_CURVE('',#207,#198,#113,.T.);
#249=EDGE_CURVE('',#208,#207,#83,.T.);
#250=EDGE_CURVE('',#209,#208,#114,.T.);
#251=EDGE_CURVE('',#205,#209,#115,.F.);
#252=EDGE_CURVE('',#210,#210,#84,.T.);
#253=EDGE_CURVE('',#196,#191,#116,.T.);
#254=EDGE_CURVE('',#197,#210,#117,.T.);
#255=EDGE_CURVE('',#203,#211,#118,.T.);
#256=EDGE_CURVE('',#211,#196,#119,.T.);
#257=EDGE_CURVE('',#207,#195,#120,.T.);
#258=EDGE_CURVE('',#208,#194,#121,.T.);
#259=EDGE_CURVE('',#209,#193,#122,.T.);
#260=EDGE_CURVE('',#211,#202,#123,.F.);
#261=EDGE_CURVE('',#186,#212,#124,.T.);
#262=EDGE_CURVE('',#209,#212,#125,.T.);
#263=EDGE_CURVE('',#212,#206,#126,.T.);
#264=EDGE_CURVE('',#184,#213,#127,.T.);
#265=EDGE_CURVE('',#213,#214,#85,.T.);
#266=EDGE_CURVE('',#214,#185,#128,.T.);
#267=EDGE_CURVE('',#214,#215,#129,.T.);
#268=EDGE_CURVE('',#213,#192,#130,.T.);
#269=EDGE_CURVE('',#215,#211,#131,.T.);
#270=EDGE_CURVE('',#216,#216,#86,.T.);
#271=EDGE_CURVE('',#217,#217,#87,.T.);
#272=EDGE_CURVE('',#189,#216,#132,.T.);
#273=EDGE_CURVE('',#190,#217,#133,.T.);
#274=EDGE_CURVE('',#215,#201,#134,.T.);
#275=ORIENTED_EDGE('',*,*,#218,.F.);
#276=ORIENTED_EDGE('',*,*,#219,.F.);
#277=ORIENTED_EDGE('',*,*,#220,.F.);
#278=ORIENTED_EDGE('',*,*,#221,.T.);
#279=ORIENTED_EDGE('',*,*,#222,.T.);
#280=ORIENTED_EDGE('',*,*,#223,.T.);
#281=ORIENTED_EDGE('',*,*,#224,.F.);
#282=ORIENTED_EDGE('',*,*,#225,.T.);
#283=ORIENTED_EDGE('',*,*,#226,.T.);
#284=ORIENTED_EDGE('',*,*,#218,.T.);
#285=ORIENTED_EDGE('',*,*,#227,.T.);
#286=ORIENTED_EDGE('',*,*,#228,.T.);
#287=ORIENTED_EDGE('',*,*,#229,.T.);
#288=ORIENTED_EDGE('',*,*,#223,.F.);
#289=ORIENTED_EDGE('',*,*,#230,.T.);
#290=ORIENTED_EDGE('',*,*,#231,.T.);
#291=ORIENTED_EDGE('',*,*,#232,.T.);
#292=ORIENTED_EDGE('',*,*,#233,.T.);
#293=ORIENTED_EDGE('',*,*,#234,.T.);
#294=ORIENTED_EDGE('',*,*,#235,.T.);
#295=ORIENTED_EDGE('',*,*,#236,.F.);
#296=ORIENTED_EDGE('',*,*,#237,.F.);
#297=ORIENTED_EDGE('',*,*,#238,.F.);
#298=ORIENTED_EDGE('',*,*,#239,.F.);
#299=ORIENTED_EDGE('',*,*,#239,.T.);
#300=ORIENTED_EDGE('',*,*,#240,.F.);
#301=ORIENTED_EDGE('',*,*,#241,.F.);
#302=ORIENTED_EDGE('',*,*,#242,.T.);
#303=ORIENTED_EDGE('',*,*,#237,.T.);
#304=ORIENTED_EDGE('',*,*,#243,.F.);
#305=ORIENTED_EDGE('',*,*,#244,.F.);
#306=ORIENTED_EDGE('',*,*,#244,.T.);
#307=ORIENTED_EDGE('',*,*,#245,.T.);
#308=ORIENTED_EDGE('',*,*,#246,.F.);
#309=ORIENTED_EDGE('',*,*,#247,.F.);
#310=ORIENTED_EDGE('',*,*,#243,.T.);
#311=ORIENTED_EDGE('',*,*,#248,.F.);
#312=ORIENTED_EDGE('',*,*,#249,.F.);
#313=ORIENTED_EDGE('',*,*,#250,.F.);
#314=ORIENTED_EDGE('',*,*,#251,.F.);
#315=ORIENTED_EDGE('',*,*,#245,.F.);
#316=ORIENTED_EDGE('',*,*,#252,.F.);
#317=ORIENTED_EDGE('',*,*,#224,.T.);
#318=ORIENTED_EDGE('',*,*,#234,.F.);
#319=ORIENTED_EDGE('',*,*,#253,.T.);
#320=ORIENTED_EDGE('',*,*,#227,.F.);
#321=ORIENTED_EDGE('',*,*,#235,.F.);
#322=ORIENTED_EDGE('',*,*,#254,.T.);
#323=ORIENTED_EDGE('',*,*,#252,.T.);
#324=ORIENTED_EDGE('',*,*,#254,.F.);
#325=ORIENTED_EDGE('',*,*,#236,.T.);
#326=ORIENTED_EDGE('',*,*,#242,.F.);
#327=ORIENTED_EDGE('',*,*,#255,.T.);
#328=ORIENTED_EDGE('',*,*,#256,.T.);
#329=ORIENTED_EDGE('',*,*,#233,.F.);
#330=ORIENTED_EDGE('',*,*,#257,.F.);
#331=ORIENTED_EDGE('',*,*,#248,.T.);
#332=ORIENTED_EDGE('',*,*,#249,.T.);
#333=ORIENTED_EDGE('',*,*,#257,.T.);
#334=ORIENTED_EDGE('',*,*,#232,.F.);
#335=ORIENTED_EDGE('',*,*,#258,.F.);
#336=ORIENTED_EDGE('',*,*,#250,.T.);
#337=ORIENTED_EDGE('',*,*,#258,.T.);
#338=ORIENTED_EDGE('',*,*,#231,.F.);
#339=ORIENTED_EDGE('',*,*,#259,.F.);
#340=ORIENTED_EDGE('',*,*,#241,.T.);
#341=ORIENTED_EDGE('',*,*,#260,.F.);
#342=ORIENTED_EDGE('',*,*,#255,.F.);
#343=ORIENTED_EDGE('',*,*,#222,.F.);
#344=ORIENTED_EDGE('',*,*,#261,.T.);
#345=ORIENTED_EDGE('',*,*,#262,.F.);
#346=ORIENTED_EDGE('',*,*,#259,.T.);
#347=ORIENTED_EDGE('',*,*,#230,.F.);
#348=ORIENTED_EDGE('',*,*,#262,.T.);
#349=ORIENTED_EDGE('',*,*,#263,.T.);
#350=ORIENTED_EDGE('',*,*,#246,.T.);
#351=ORIENTED_EDGE('',*,*,#251,.T.);
#352=ORIENTED_EDGE('',*,*,#220,.T.);
#353=ORIENTED_EDGE('',*,*,#264,.T.);
#354=ORIENTED_EDGE('',*,*,#265,.T.);
#355=ORIENTED_EDGE('',*,*,#266,.T.);
#356=ORIENTED_EDGE('',*,*,#267,.F.);
#357=ORIENTED_EDGE('',*,*,#265,.F.);
#358=ORIENTED_EDGE('',*,*,#268,.T.);
#359=ORIENTED_EDGE('',*,*,#228,.F.);
#360=ORIENTED_EDGE('',*,*,#253,.F.);
#361=ORIENTED_EDGE('',*,*,#256,.F.);
#362=ORIENTED_EDGE('',*,*,#269,.F.);
#363=ORIENTED_EDGE('',*,*,#270,.F.);
#364=ORIENTED_EDGE('',*,*,#271,.F.);
#365=ORIENTED_EDGE('',*,*,#264,.F.);
#366=ORIENTED_EDGE('',*,*,#219,.T.);
#367=ORIENTED_EDGE('',*,*,#229,.F.);
#368=ORIENTED_EDGE('',*,*,#268,.F.);
#369=ORIENTED_EDGE('',*,*,#225,.F.);
#370=ORIENTED_EDGE('',*,*,#272,.T.);
#371=ORIENTED_EDGE('',*,*,#270,.T.);
#372=ORIENTED_EDGE('',*,*,#272,.F.);
#373=ORIENTED_EDGE('',*,*,#226,.F.);
#374=ORIENTED_EDGE('',*,*,#273,.T.);
#375=ORIENTED_EDGE('',*,*,#271,.T.);
#376=ORIENTED_EDGE('',*,*,#273,.F.);
#377=ORIENTED_EDGE('',*,*,#240,.T.);
#378=ORIENTED_EDGE('',*,*,#274,.F.);
#379=ORIENTED_EDGE('',*,*,#269,.T.);
#380=ORIENTED_EDGE('',*,*,#260,.T.);
#381=ORIENTED_EDGE('',*,*,#221,.F.);
#382=ORIENTED_EDGE('',*,*,#266,.F.);
#383=ORIENTED_EDGE('',*,*,#267,.T.);
#384=ORIENTED_EDGE('',*,*,#274,.T.);
#385=ORIENTED_EDGE('',*,*,#238,.T.);
#386=ORIENTED_EDGE('',*,*,#247,.T.);
#387=ORIENTED_EDGE('',*,*,#263,.F.);
#388=ORIENTED_EDGE('',*,*,#261,.F.);
#389=PLANE('',#444);
#390=PLANE('',#448);
#391=PLANE('',#449);
#392=PLANE('',#452);
#393=PLANE('',#453);
#394=PLANE('',#454);
#395=PLANE('',#455);
#396=PLANE('',#456);
#397=PLANE('',#459);
#398=PLANE('',#461);
#399=PLANE('',#463);
#400=PLANE('',#464);
#401=PLANE('',#465);
#402=PLANE('',#466);
#403=PLANE('',#469);
#404=PLANE('',#472);
#405=PLANE('',#475);
#406=PLANE('',#476);
#407=ADVANCED_FACE('',(#26,#20,#21),#389,.T.);
#408=ADVANCED_FACE('',(#27),#390,.T.);
#409=ADVANCED_FACE('',(#28,#22),#391,.T.);
#410=ADVANCED_FACE('',(#29),#392,.F.);
#411=ADVANCED_FACE('',(#30),#393,.T.);
#412=ADVANCED_FACE('',(#31),#394,.T.);
#413=ADVANCED_FACE('',(#32),#395,.T.);
#414=ADVANCED_FACE('',(#33,#23),#396,.F.);
#415=ADVANCED_FACE('',(#34),#397,.T.);
#416=ADVANCED_FACE('',(#35),#15,.F.);
#417=ADVANCED_FACE('',(#36),#398,.T.);
#418=ADVANCED_FACE('',(#37),#16,.T.);
#419=ADVANCED_FACE('',(#38),#399,.T.);
#420=ADVANCED_FACE('',(#39),#400,.F.);
#421=ADVANCED_FACE('',(#40),#401,.T.);
#422=ADVANCED_FACE('',(#41),#402,.T.);
#423=ADVANCED_FACE('',(#42),#17,.T.);
#424=ADVANCED_FACE('',(#43,#24,#25),#403,.F.);
#425=ADVANCED_FACE('',(#44),#404,.T.);
#426=ADVANCED_FACE('',(#45),#18,.F.);
#427=ADVANCED_FACE('',(#46),#19,.F.);
#428=ADVANCED_FACE('',(#47),#405,.T.);
#429=ADVANCED_FACE('',(#48),#406,.T.);
#430=CLOSED_SHELL('',(#407,#408,#409,#410,#411,#412,#413,#414,#415,#416,
#417,#418,#419,#420,#421,#422,#423,#424,#425,#426,#427,#428,#429));
#431=DERIVED_UNIT_ELEMENT(#433,1.);
#432=DERIVED_UNIT_ELEMENT(#714,-3.);
#433=(
MASS_UNIT()
NAMED_UNIT(*)
SI_UNIT(.KILO.,.GRAM.)
);
#434=DERIVED_UNIT((#431,#432));
#435=MEASURE_REPRESENTATION_ITEM('density measure',
POSITIVE_RATIO_MEASURE(7850.),#434);
#436=PROPERTY_DEFINITION_REPRESENTATION(#441,#438);
#437=PROPERTY_DEFINITION_REPRESENTATION(#442,#439);
#438=REPRESENTATION('material name',(#440),#711);
#439=REPRESENTATION('density',(#435),#711);
#440=DESCRIPTIVE_REPRESENTATION_ITEM('Steel','Steel');
#441=PROPERTY_DEFINITION('material property','material name',#721);
#442=PROPERTY_DEFINITION('material property','density of part',#721);
#443=AXIS2_PLACEMENT_3D('',#592,#477,#478);
#444=AXIS2_PLACEMENT_3D('',#593,#479,#480);
#445=AXIS2_PLACEMENT_3D('',#600,#483,#484);
#446=AXIS2_PLACEMENT_3D('',#609,#489,#490);
#447=AXIS2_PLACEMENT_3D('',#611,#491,#492);
#448=AXIS2_PLACEMENT_3D('',#612,#493,#494);
#449=AXIS2_PLACEMENT_3D('',#618,#498,#499);
#450=AXIS2_PLACEMENT_3D('',#624,#502,#503);
#451=AXIS2_PLACEMENT_3D('',#629,#506,#507);
#452=AXIS2_PLACEMENT_3D('',#630,#508,#509);
#453=AXIS2_PLACEMENT_3D('',#639,#514,#515);
#454=AXIS2_PLACEMENT_3D('',#645,#519,#520);
#455=AXIS2_PLACEMENT_3D('',#649,#523,#524);
#456=AXIS2_PLACEMENT_3D('',#655,#528,#529);
#457=AXIS2_PLACEMENT_3D('',#659,#531,#532);
#458=AXIS2_PLACEMENT_3D('',#664,#535,#536);
#459=AXIS2_PLACEMENT_3D('',#665,#537,#538);
#460=AXIS2_PLACEMENT_3D('',#667,#540,#541);
#461=AXIS2_PLACEMENT_3D('',#669,#543,#544);
#462=AXIS2_PLACEMENT_3D('',#674,#548,#549);
#463=AXIS2_PLACEMENT_3D('',#676,#551,#552);
#464=AXIS2_PLACEMENT_3D('',#678,#554,#555);
#465=AXIS2_PLACEMENT_3D('',#680,#557,#558);
#466=AXIS2_PLACEMENT_3D('',#684,#561,#562);
#467=AXIS2_PLACEMENT_3D('',#686,#564,#565);
#468=AXIS2_PLACEMENT_3D('',#690,#567,#568);
#469=AXIS2_PLACEMENT_3D('',#692,#570,#571);
#470=AXIS2_PLACEMENT_3D('',#698,#575,#576);
#471=AXIS2_PLACEMENT_3D('',#700,#577,#578);
#472=AXIS2_PLACEMENT_3D('',#701,#579,#580);
#473=AXIS2_PLACEMENT_3D('',#702,#581,#582);
#474=AXIS2_PLACEMENT_3D('',#704,#584,#585);
#475=AXIS2_PLACEMENT_3D('',#706,#587,#588);
#476=AXIS2_PLACEMENT_3D('',#708,#590,#591);
#477=DIRECTION('axis',(0.,0.,1.));
#478=DIRECTION('refdir',(1.,0.,0.));
#479=DIRECTION('center_axis',(0.,1.,0.));
#480=DIRECTION('ref_axis',(1.,0.,0.));
#481=DIRECTION('',(1.,0.,0.));
#482=DIRECTION('',(0.,0.,-1.));
#483=DIRECTION('center_axis',(0.,-1.,0.));
#484=DIRECTION('ref_axis',(-0.707106781186513,0.,0.707106781186582));
#485=DIRECTION('',(1.,0.,0.));
#486=DIRECTION('',(0.,0.,-1.));
#487=DIRECTION('',(1.,0.,0.));
#488=DIRECTION('',(0.,0.,1.));
#489=DIRECTION('center_axis',(0.,-1.,0.));
#490=DIRECTION('ref_axis',(1.,0.,0.));
#491=DIRECTION('center_axis',(0.,-1.,0.));
#492=DIRECTION('ref_axis',(1.,0.,0.));
#493=DIRECTION('center_axis',(0.,0.,-1.));
#494=DIRECTION('ref_axis',(-1.,0.,0.));
#495=DIRECTION('',(0.,-1.,0.));
#496=DIRECTION('',(-1.,0.,0.));
#497=DIRECTION('',(0.,1.,0.));
#498=DIRECTION('center_axis',(0.,0.,-1.));
#499=DIRECTION('ref_axis',(1.,0.,0.));
#500=DIRECTION('',(0.,1.,0.));
#501=DIRECTION('',(0.75902001328863,0.651067292549186,0.));
#502=DIRECTION('center_axis',(0.,0.,-1.));
#503=DIRECTION('ref_axis',(1.,0.,0.));
#504=DIRECTION('',(-0.694481870377429,-0.719510202649739,0.));
#505=DIRECTION('',(0.,1.,0.));
#506=DIRECTION('center_axis',(0.,0.,1.));
#507=DIRECTION('ref_axis',(1.,0.,0.));
#508=DIRECTION('center_axis',(-0.983205687080409,0.,-0.182500895594352));
#509=DIRECTION('ref_axis',(0.182500895594352,0.,-0.983205687080409));
#510=DIRECTION('',(-0.179323590026921,-0.185786207104337,0.966088264761373));
#511=DIRECTION('',(0.182500895594352,0.,-0.983205687080409));
#512=DIRECTION('',(0.,1.,0.));
#513=DIRECTION('',(-0.182500895594352,0.,0.983205687080409));
#514=DIRECTION('center_axis',(0.,-1.,0.));
#515=DIRECTION('ref_axis',(1.,0.,0.));
#516=DIRECTION('',(0.,0.,1.));
#517=DIRECTION('',(-1.,0.,0.));
#518=DIRECTION('',(0.,0.,1.));
#519=DIRECTION('center_axis',(0.,1.,0.));
#520=DIRECTION('ref_axis',(-1.,0.,0.));
#521=DIRECTION('',(1.,0.,0.));
#522=DIRECTION('',(0.,0.,-1.));
#523=DIRECTION('center_axis',(1.,0.,0.));
#524=DIRECTION('ref_axis',(0.,0.,-1.));
#525=DIRECTION('',(0.,-1.,0.));
#526=DIRECTION('',(0.,0.,-1.));
#527=DIRECTION('',(0.,1.,0.));
#528=DIRECTION('center_axis',(0.,0.,-1.));
#529=DIRECTION('ref_axis',(1.,0.,0.));
#530=DIRECTION('',(-0.694481870377429,-0.719510202649739,0.));
#531=DIRECTION('center_axis',(0.,0.,-1.));
#532=DIRECTION('ref_axis',(1.,0.,0.));
#533=DIRECTION('',(0.75902001328863,0.651067292549186,0.));
#534=DIRECTION('',(1.,0.,0.));
#535=DIRECTION('center_axis',(0.,0.,1.));
#536=DIRECTION('ref_axis',(1.,0.,0.));
#537=DIRECTION('center_axis',(1.,0.,0.));
#538=DIRECTION('ref_axis',(0.,-1.,0.));
#539=DIRECTION('',(0.,0.,-1.));
#540=DIRECTION('center_axis',(0.,0.,-1.));
#541=DIRECTION('ref_axis',(1.,0.,0.));
#542=DIRECTION('',(0.,0.,1.));
#543=DIRECTION('center_axis',(0.719510202649739,-0.694481870377429,0.));
#544=DIRECTION('ref_axis',(-0.694481870377429,-0.719510202649739,0.));
#545=DIRECTION('',(-0.694481870377429,-0.719510202649739,0.));
#546=DIRECTION('',(0.,0.,-1.));
#547=DIRECTION('',(0.,0.,-1.));
#548=DIRECTION('center_axis',(0.,0.,-1.));
#549=DIRECTION('ref_axis',(1.,0.,0.));
#550=DIRECTION('',(0.,0.,-1.));
#551=DIRECTION('center_axis',(-0.651067292549186,0.75902001328863,0.));
#552=DIRECTION('ref_axis',(0.75902001328863,0.651067292549186,0.));
#553=DIRECTION('',(0.,0.,-1.));
#554=DIRECTION('center_axis',(0.,0.,-1.));
#555=DIRECTION('ref_axis',(1.,0.,0.));
#556=DIRECTION('',(0.,-1.,0.));
#557=DIRECTION('center_axis',(-1.,0.,-1.00982024412916E-13));
#558=DIRECTION('ref_axis',(-1.00982024412916E-13,0.,1.));
#559=DIRECTION('',(0.,1.,0.));
#560=DIRECTION('',(-1.00982024412916E-13,0.,1.));
#561=DIRECTION('center_axis',(0.,1.,0.));
#562=DIRECTION('ref_axis',(0.,0.,1.));
#563=DIRECTION('',(1.,0.,0.));
#564=DIRECTION('center_axis',(0.,1.,0.));
#565=DIRECTION('ref_axis',(-0.707106781186513,0.,0.707106781186582));
#566=DIRECTION('',(0.,-1.,0.));
#567=DIRECTION('center_axis',(0.,1.,0.));
#568=DIRECTION('ref_axis',(-0.707106781186513,0.,0.707106781186582));
#569=DIRECTION('',(0.,1.,0.));
#570=DIRECTION('center_axis',(0.,1.,0.));
#571=DIRECTION('ref_axis',(1.,0.,0.));
#572=DIRECTION('',(1.,0.,0.));
#573=DIRECTION('',(0.,0.,-1.));
#574=DIRECTION('',(0.,0.,-1.));
#575=DIRECTION('center_axis',(0.,-1.,0.));
#576=DIRECTION('ref_axis',(1.,0.,0.));
#577=DIRECTION('center_axis',(0.,-1.,0.));
#578=DIRECTION('ref_axis',(1.,0.,0.));
#579=DIRECTION('center_axis',(-1.,0.,1.01018227337538E-13));
#580=DIRECTION('ref_axis',(1.01018227337538E-13,0.,1.));
#581=DIRECTION('center_axis',(0.,1.,0.));
#582=DIRECTION('ref_axis',(1.,0.,0.));
#583=DIRECTION('',(0.,-1.,0.));
#584=DIRECTION('center_axis',(0.,1.,0.));
#585=DIRECTION('ref_axis',(1.,0.,0.));
#586=DIRECTION('',(0.,-1.,0.));
#587=DIRECTION('center_axis',(1.,0.,0.));
#588=DIRECTION('ref_axis',(0.,0.,-1.));
#589=DIRECTION('',(0.,1.,0.));
#590=DIRECTION('center_axis',(0.,0.,1.));
#591=DIRECTION('ref_axis',(1.,0.,0.));
#592=CARTESIAN_POINT('',(0.,0.,0.));
#593=CARTESIAN_POINT('Origin',(1.00000001490116,2.,9.49999999999884));
#594=CARTESIAN_POINT('',(-2.00000002980232,2.,-10.0000000298023));
#595=CARTESIAN_POINT('',(4.00000005960464,2.00000002980232,-10.0000000298023));
#596=CARTESIAN_POINT('',(-2.00000002980232,2.,-10.0000000298023));
#597=CARTESIAN_POINT('',(-2.0000000298002,2.,19.0000000298002));
#598=CARTESIAN_POINT('',(-2.00000002980232,2.,-5.00000002980232));
#599=CARTESIAN_POINT('',(-2.98002009180287E-8,2.,21.0000000298));
#600=CARTESIAN_POINT('Origin',(-2.98002009059608E-8,2.,19.0000000298));
#601=CARTESIAN_POINT('',(2.0000000298,2.,21.0000000298));
#602=CARTESIAN_POINT('',(-2.0000000298,2.,21.0000000298));
#603=CARTESIAN_POINT('',(2.00000002980232,2.,-8.00000002980232));
#604=CARTESIAN_POINT('',(2.00000002980232,2.,-5.00000002980232));
#605=CARTESIAN_POINT('',(4.00000005960464,2.00000002980232,-8.00000002980232));
#606=CARTESIAN_POINT('',(3.77986649361373,2.,-8.00000002980232));
#607=CARTESIAN_POINT('',(4.00000005960464,2.,0.749999985098257));
#608=CARTESIAN_POINT('',(-1.5,2.,0.));
#609=CARTESIAN_POINT('Origin',(0.,2.,0.));
#610=CARTESIAN_POINT('',(-1.5,2.,19.));
#611=CARTESIAN_POINT('Origin',(0.,2.,19.));
#612=CARTESIAN_POINT('Origin',(1.00000001490116,1.00000001490116,-10.0000000298023));
#613=CARTESIAN_POINT('',(4.00000005960464,0.,-10.0000000298023));
#614=CARTESIAN_POINT('',(4.00000005960464,0.,-10.0000000298023));
#615=CARTESIAN_POINT('',(-2.00000002980232,0.,-10.0000000298023));
#616=CARTESIAN_POINT('',(4.00000005960464,0.,-10.0000000298023));
#617=CARTESIAN_POINT('',(-2.00000002980232,0.,-10.0000000298023));
#618=CARTESIAN_POINT('Origin',(6.55973297232629,5.44214098456959,-8.00000002980232));
#619=CARTESIAN_POINT('',(2.00000002980232,6.,-8.00000002980232));
#620=CARTESIAN_POINT('',(2.00000002980232,2.,-8.00000002980232));
#621=CARTESIAN_POINT('',(6.9917976834773,10.2818320023608,-8.00000002980232));
#622=CARTESIAN_POINT('',(2.00000002980232,6.,-8.00000002980232));
#623=CARTESIAN_POINT('',(10.3678918881228,6.59738336653579,-8.00000002980232));
#624=CARTESIAN_POINT('Origin',(8.61946591485026,8.38428196913919,-8.00000002980232));
#625=CARTESIAN_POINT('',(4.00000005960464,0.,-8.00000002980232));
#626=CARTESIAN_POINT('',(10.4671217294666,6.70018933786432,-8.00000002980232));
#627=CARTESIAN_POINT('',(4.00000005960464,3.72107050718596,-8.00000002980232));
#628=CARTESIAN_POINT('',(7.11946591485026,8.38428196913919,-8.00000002980232));
#629=CARTESIAN_POINT('Origin',(8.61946591485026,8.38428196913919,-8.00000002980232));
#630=CARTESIAN_POINT('Origin',(4.00000005960464,5.00000007450581,21.0000000298));
#631=CARTESIAN_POINT('',(8.82607395104112,5.00000007450581,-5.00000002980232));
#632=CARTESIAN_POINT('',(6.41303700532288,2.5000000372529,7.99999999999884));
#633=CARTESIAN_POINT('',(6.54772580254607,2.63954286467335,7.27437730656173));
#634=CARTESIAN_POINT('',(4.00000005960464,5.00000007450581,21.0000000298));
#635=CARTESIAN_POINT('',(6.41303700532288,5.00000007450581,7.99999999999884));
#636=CARTESIAN_POINT('',(4.00000005960464,2.5000000372529,21.0000000298));
#637=CARTESIAN_POINT('',(4.00000005960464,0.,21.0000000298));
#638=CARTESIAN_POINT('',(6.3326670047453,2.5000000372529,8.43298550059704));
#639=CARTESIAN_POINT('Origin',(4.00000005960464,2.5000000372529,-5.00000002980232));
#640=CARTESIAN_POINT('',(4.00000005960464,2.5000000372529,-5.00000002980232));
#641=CARTESIAN_POINT('',(4.00000005960464,2.5000000372529,7.99999999999884));
#642=CARTESIAN_POINT('',(6.41303700532288,2.5000000372529,-5.00000002980232));
#643=CARTESIAN_POINT('',(5.27986651596547,2.5000000372529,-5.00000002980232));
#644=CARTESIAN_POINT('',(6.41303700532288,2.5000000372529,-5.00000002980232));
#645=CARTESIAN_POINT('Origin',(8.82607395104112,5.00000007450581,-5.00000002980232));
#646=CARTESIAN_POINT('',(4.00000005960464,5.00000007450581,-5.00000002980232));
#647=CARTESIAN_POINT('',(7.69290346168371,5.00000007450581,-5.00000002980232));
#648=CARTESIAN_POINT('',(4.00000005960464,5.00000007450581,7.99999999999884));
#649=CARTESIAN_POINT('Origin',(4.00000005960464,0.,21.0000000298));
#650=CARTESIAN_POINT('',(4.00000005960464,6.,-5.00000002980232));
#651=CARTESIAN_POINT('',(4.00000005960464,0.,-5.00000002980232));
#652=CARTESIAN_POINT('',(4.00000005960464,6.,21.0000000298));
#653=CARTESIAN_POINT('',(4.00000005960464,6.,21.0000000298));
#654=CARTESIAN_POINT('',(4.00000005960464,0.,21.0000000298));
#655=CARTESIAN_POINT('Origin',(6.55973297232629,5.44214098456959,-5.00000002980232));
#656=CARTESIAN_POINT('',(10.3678918881228,6.59738336653579,-5.00000002980232));
#657=CARTESIAN_POINT('',(10.4671217294666,6.70018933786432,-5.00000002980232));
#658=CARTESIAN_POINT('',(6.9917976834773,10.2818320023608,-5.00000002980232));
#659=CARTESIAN_POINT('Origin',(8.61946591485026,8.38428196913919,-5.00000002980232));
#660=CARTESIAN_POINT('',(2.00000002980263,6.,-5.00000002980232));
#661=CARTESIAN_POINT('',(2.00000002980232,6.,-5.00000002980232));
#662=CARTESIAN_POINT('',(3.50000005215348,6.,-5.00000002980232));
#663=CARTESIAN_POINT('',(7.11946591485026,8.38428196913919,-5.00000002980232));
#664=CARTESIAN_POINT('Origin',(8.61946591485026,8.38428196913919,-5.00000002980232));
#665=CARTESIAN_POINT('Origin',(4.00000005960464,2.00000002980232,-8.00000002980232));
#666=CARTESIAN_POINT('',(4.00000005960464,0.,-8.00000002980232));
#667=CARTESIAN_POINT('Origin',(8.61946591485026,8.38428196913919,-5.00000002980232));
#668=CARTESIAN_POINT('',(7.11946591485026,8.38428196913919,-5.00000002980232));
#669=CARTESIAN_POINT('Origin',(10.3678918881228,6.59738336653579,-5.00000002980232));
#670=CARTESIAN_POINT('',(4.00000005960464,0.,-5.00000002980232));
#671=CARTESIAN_POINT('',(10.4671217294666,6.70018933786432,-5.00000002980232));
#672=CARTESIAN_POINT('',(4.00000005960464,0.,-5.00000002980232));
#673=CARTESIAN_POINT('',(10.3678918881228,6.59738336653579,-5.00000002980232));
#674=CARTESIAN_POINT('Origin',(8.61946591485026,8.38428196913919,-5.00000002980232));
#675=CARTESIAN_POINT('',(6.9917976834773,10.2818320023608,-5.00000002980232));
#676=CARTESIAN_POINT('Origin',(2.00000002980232,6.,-5.00000002980232));
#677=CARTESIAN_POINT('',(2.00000002980232,6.,-5.00000002980232));
#678=CARTESIAN_POINT('Origin',(6.55973297232629,5.44214098456959,-5.00000002980232));
#679=CARTESIAN_POINT('',(4.00000005960464,0.,-5.00000002980232));
#680=CARTESIAN_POINT('Origin',(2.00000002980232,0.,-2.00000002980232));
#681=CARTESIAN_POINT('',(2.0000000298,6.,21.0000000298));
#682=CARTESIAN_POINT('',(2.0000000298,0.,21.0000000298));
#683=CARTESIAN_POINT('',(2.00000002980232,6.,-2.00000002980232));
#684=CARTESIAN_POINT('Origin',(3.00000004470232,6.,9.49999999999884));
#685=CARTESIAN_POINT('',(2.0000000298,6.,21.0000000298));
#686=CARTESIAN_POINT('Origin',(-2.98002009059608E-8,0.,19.0000000298));
#687=CARTESIAN_POINT('',(-2.0000000298002,0.,19.0000000298002));
#688=CARTESIAN_POINT('',(-2.0000000298002,0.,19.0000000298002));
#689=CARTESIAN_POINT('',(-2.98002009180287E-8,0.,21.0000000298));
#690=CARTESIAN_POINT('Origin',(-2.98002009059608E-8,0.,19.0000000298));
#691=CARTESIAN_POINT('',(-2.98002009059608E-8,0.,21.0000000298));
#692=CARTESIAN_POINT('Origin',(1.00000001490116,0.,9.49999999999884));
#693=CARTESIAN_POINT('',(4.00000005960464,0.,21.0000000298));
#694=CARTESIAN_POINT('',(-2.0000000298,0.,21.0000000298));
#695=CARTESIAN_POINT('',(-2.00000002980232,0.,-5.00000002980232));
#696=CARTESIAN_POINT('',(4.00000005960464,0.,21.0000000298));
#697=CARTESIAN_POINT('',(-1.5,0.,1.83697019872103E-16));
#698=CARTESIAN_POINT('Origin',(0.,0.,0.));
#699=CARTESIAN_POINT('',(-1.5,0.,19.));
#700=CARTESIAN_POINT('Origin',(0.,0.,19.));
#701=CARTESIAN_POINT('Origin',(-2.00000002980232,0.,-2.00000002980232));
#702=CARTESIAN_POINT('Origin',(0.,0.,0.));
#703=CARTESIAN_POINT('',(-1.5,0.,1.83697019872103E-16));
#704=CARTESIAN_POINT('Origin',(0.,0.,19.));
#705=CARTESIAN_POINT('',(-1.5,0.,19.));
#706=CARTESIAN_POINT('Origin',(4.00000005960464,0.,21.0000000298));
#707=CARTESIAN_POINT('',(4.00000005960464,0.,21.0000000298));
#708=CARTESIAN_POINT('Origin',(-2.0000000298,0.,21.0000000298));
#709=UNCERTAINTY_MEASURE_WITH_UNIT(LENGTH_MEASURE(0.01),#713,
'DISTANCE_ACCURACY_VALUE',
'Maximum model space distance between geometric entities at asserted c
onnectivities');
#710=UNCERTAINTY_MEASURE_WITH_UNIT(LENGTH_MEASURE(0.01),#713,
'DISTANCE_ACCURACY_VALUE',
'Maximum model space distance between geometric entities at asserted c
onnectivities');
#711=(
GEOMETRIC_REPRESENTATION_CONTEXT(3)
GLOBAL_UNCERTAINTY_ASSIGNED_CONTEXT((#709))
GLOBAL_UNIT_ASSIGNED_CONTEXT((#713,#715,#716))
REPRESENTATION_CONTEXT('','3D')
);
#712=(
GEOMETRIC_REPRESENTATION_CONTEXT(3)
GLOBAL_UNCERTAINTY_ASSIGNED_CONTEXT((#710))
GLOBAL_UNIT_ASSIGNED_CONTEXT((#713,#715,#716))
REPRESENTATION_CONTEXT('','3D')
);
#713=(
LENGTH_UNIT()
NAMED_UNIT(*)
SI_UNIT(.MILLI.,.METRE.)
);
#714=(
LENGTH_UNIT()
NAMED_UNIT(*)
SI_UNIT($,.METRE.)
);
#715=(
NAMED_UNIT(*)
PLANE_ANGLE_UNIT()
SI_UNIT($,.RADIAN.)
);
#716=(
NAMED_UNIT(*)
SI_UNIT($,.STERADIAN.)
SOLID_ANGLE_UNIT()
);
#717=SHAPE_DEFINITION_REPRESENTATION(#718,#719);
#718=PRODUCT_DEFINITION_SHAPE('',$,#721);
#719=SHAPE_REPRESENTATION('',(#443),#711);
#720=PRODUCT_DEFINITION_CONTEXT('part definition',#725,'design');
#721=PRODUCT_DEFINITION('ServoDriverBracket','ServoDriverBracket v12',#722,
#720);
#722=PRODUCT_DEFINITION_FORMATION('',$,#727);
#723=PRODUCT_RELATED_PRODUCT_CATEGORY('ServoDriverBracket v12',
'ServoDriverBracket v12',(#727));
#724=APPLICATION_PROTOCOL_DEFINITION('international standard',
'automotive_design',2009,#725);
#725=APPLICATION_CONTEXT(
'Core Data for Automotive Mechanical Design Process');
#726=PRODUCT_CONTEXT('part definition',#725,'mechanical');
#727=PRODUCT('ServoDriverBracket','ServoDriverBracket v12',$,(#726));
#728=PRESENTATION_STYLE_ASSIGNMENT((#730));
#729=PRESENTATION_STYLE_ASSIGNMENT((#731));
#730=SURFACE_STYLE_USAGE(.BOTH.,#732);
#731=SURFACE_STYLE_USAGE(.BOTH.,#733);
#732=SURFACE_SIDE_STYLE('',(#734));
#733=SURFACE_SIDE_STYLE('',(#735));
#734=SURFACE_STYLE_FILL_AREA(#736);
#735=SURFACE_STYLE_FILL_AREA(#737);
#736=FILL_AREA_STYLE('Steel - Satin',(#738));
#737=FILL_AREA_STYLE('Plastic - Translucent Matte (Blue)',(#739));
#738=FILL_AREA_STYLE_COLOUR('Steel - Satin',#740);
#739=FILL_AREA_STYLE_COLOUR('Plastic - Translucent Matte (Blue)',#741);
#740=COLOUR_RGB('Steel - Satin',0.627450980392157,0.627450980392157,0.627450980392157);
#741=COLOUR_RGB('Plastic - Translucent Matte (Blue)',0.188235294117647,
0.231372549019608,0.588235294117647);
ENDSEC;
END-ISO-10303-21;
