ISO-10303-21;
HEADER;
/* Generated by software containing ST-Developer
 * from STEP Tools, Inc. (www.steptools.com) 
 */

FILE_DESCRIPTION(
/* description */ (''),
/* implementation_level */ '2;1');

FILE_NAME(
/* name */ 'Slopes_v4.step',
/* time_stamp */ '2026-08-21T09:14:21-04:00',
/* author */ (''),
/* organization */ (''),
/* preprocessor_version */ 'ST-DEVELOPER v20.1',
/* originating_system */ 'Autodesk Translation Framework v15.8.0.0',
/* authorisation */ '');

FILE_SCHEMA (('AUTOMOTIVE_DESIGN { 1 0 10303 214 3 1 1 }'));
ENDSEC;

DATA;
#10=MECHANICAL_DESIGN_GEOMETRIC_PRESENTATION_REPRESENTATION('',(#13),#534);
#11=SHAPE_REPRESENTATION_RELATIONSHIP('SRR','None',#541,#12);
#12=ADVANCED_BREP_SHAPE_REPRESENTATION('',(#14),#533);
#13=STYLED_ITEM('',(#550),#14);
#14=MANIFOLD_SOLID_BREP('Body1',#270);
#15=(
BOUNDED_SURFACE()
B_SPLINE_SURFACE(5,1,((#487,#488),(#489,#490),(#491,#492),(#493,#494),(#495,
#496),(#497,#498),(#499,#500),(#501,#502),(#503,#504),(#505,#506)),
 .UNSPECIFIED.,.F.,.F.,.F.)
B_SPLINE_SURFACE_WITH_KNOTS((6,1,1,1,1,6),(2,2),(0.,0.2,0.4,0.6,0.8,1.),
(0.,0.25),.UNSPECIFIED.)
GEOMETRIC_REPRESENTATION_ITEM()
RATIONAL_B_SPLINE_SURFACE(((1.,1.),(1.,1.),(1.,1.),(1.,1.),(1.,1.),(1.,
1.),(1.,1.),(1.,1.),(1.,1.),(1.,1.)))
REPRESENTATION_ITEM('')
SURFACE()
);
#16=(
BOUNDED_SURFACE()
B_SPLINE_SURFACE(5,1,((#508,#509),(#510,#511),(#512,#513),(#514,#515),(#516,
#517),(#518,#519),(#520,#521),(#522,#523),(#524,#525),(#526,#527)),
 .UNSPECIFIED.,.F.,.F.,.F.)
B_SPLINE_SURFACE_WITH_KNOTS((6,1,1,1,1,6),(2,2),(-1.,-0.8,-0.6,-0.4,-0.2,
0.),(0.,0.25),.UNSPECIFIED.)
GEOMETRIC_REPRESENTATION_ITEM()
RATIONAL_B_SPLINE_SURFACE(((1.,1.),(1.,1.),(1.,1.),(1.,1.),(1.,1.),(1.,
1.),(1.,1.),(1.,1.),(1.,1.),(1.,1.)))
REPRESENTATION_ITEM('')
SURFACE()
);
#17=B_SPLINE_CURVE_WITH_KNOTS('',3,(#443,#444,#445,#446,#447,#448,#449,
#450),.UNSPECIFIED.,.F.,.F.,(4,2,2,4),(-0.814665585681789,-0.586240136137764,
-0.380591737594457,-0.231235420568621),.UNSPECIFIED.);
#18=B_SPLINE_CURVE_WITH_KNOTS('',3,(#478,#479,#480,#481,#482,#483,#484,
#485),.UNSPECIFIED.,.F.,.F.,(4,2,2,4),(-0.476777900932724,-0.430375921281093,
-0.170886348181382,0.),.UNSPECIFIED.);
#19=TOROIDAL_SURFACE('',#293,4.5,2.5);
#20=TOROIDAL_SURFACE('',#301,4.5,2.5);
#21=CIRCLE('',#291,2.);
#22=CIRCLE('',#292,2.);
#23=CIRCLE('',#294,4.5);
#24=CIRCLE('',#295,2.5);
#25=CIRCLE('',#296,2.5);
#26=CIRCLE('',#298,2.5);
#27=CIRCLE('',#300,4.5);
#28=CIRCLE('',#302,2.5);
#29=(
BOUNDED_CURVE()
B_SPLINE_CURVE(5,(#410,#411,#412,#413,#414,#415,#416,#417,#418,#419),
 .UNSPECIFIED.,.F.,.F.)
B_SPLINE_CURVE_WITH_KNOTS((6,1,1,1,1,6),(0.,0.2,0.4,0.6,0.8,1.),
 .UNSPECIFIED.)
CURVE()
GEOMETRIC_REPRESENTATION_ITEM()
RATIONAL_B_SPLINE_CURVE((1.,1.,1.,1.,1.,1.,1.,1.,1.,1.))
REPRESENTATION_ITEM('')
);
#30=(
BOUNDED_CURVE()
B_SPLINE_CURVE(5,(#430,#431,#432,#433,#434,#435,#436,#437,#438,#439),
 .UNSPECIFIED.,.F.,.F.)
B_SPLINE_CURVE_WITH_KNOTS((6,1,1,1,1,6),(0.,0.2,0.4,0.6,0.8,1.),
 .UNSPECIFIED.)
CURVE()
GEOMETRIC_REPRESENTATION_ITEM()
RATIONAL_B_SPLINE_CURVE((1.,1.,1.,1.,1.,1.,1.,1.,1.,1.))
REPRESENTATION_ITEM('')
);
#31=(
BOUNDED_CURVE()
B_SPLINE_CURVE(5,(#460,#461,#462,#463,#464,#465,#466),.UNSPECIFIED.,.F.,
 .F.)
B_SPLINE_CURVE_WITH_KNOTS((6,1,6),(-0.382854578016984,-0.2,0.),
 .UNSPECIFIED.)
CURVE()
GEOMETRIC_REPRESENTATION_ITEM()
RATIONAL_B_SPLINE_CURVE((1.,1.,1.,1.,1.,1.,1.))
REPRESENTATION_ITEM('')
);
#32=(
BOUNDED_CURVE()
B_SPLINE_CURVE(5,(#468,#469,#470,#471,#472,#473,#474),.UNSPECIFIED.,.F.,
 .F.)
B_SPLINE_CURVE_WITH_KNOTS((6,1,6),(0.,0.2,0.382854578016204),
 .UNSPECIFIED.)
CURVE()
GEOMETRIC_REPRESENTATION_ITEM()
RATIONAL_B_SPLINE_CURVE((1.,1.,1.,1.,1.,1.,1.))
REPRESENTATION_ITEM('')
);
#33=FACE_OUTER_BOUND('',#48,.T.);
#34=FACE_OUTER_BOUND('',#49,.T.);
#35=FACE_OUTER_BOUND('',#50,.T.);
#36=FACE_OUTER_BOUND('',#51,.T.);
#37=FACE_OUTER_BOUND('',#52,.T.);
#38=FACE_OUTER_BOUND('',#53,.T.);
#39=FACE_OUTER_BOUND('',#54,.T.);
#40=FACE_OUTER_BOUND('',#55,.T.);
#41=FACE_OUTER_BOUND('',#56,.T.);
#42=FACE_OUTER_BOUND('',#57,.T.);
#43=FACE_OUTER_BOUND('',#58,.T.);
#44=FACE_OUTER_BOUND('',#59,.T.);
#45=FACE_OUTER_BOUND('',#60,.T.);
#46=FACE_OUTER_BOUND('',#61,.T.);
#47=FACE_OUTER_BOUND('',#62,.T.);
#48=EDGE_LOOP('',(#170,#171,#172,#173));
#49=EDGE_LOOP('',(#174,#175,#176,#177));
#50=EDGE_LOOP('',(#178,#179,#180,#181));
#51=EDGE_LOOP('',(#182,#183,#184,#185));
#52=EDGE_LOOP('',(#186,#187,#188,#189,#190,#191));
#53=EDGE_LOOP('',(#192,#193,#194,#195));
#54=EDGE_LOOP('',(#196,#197,#198,#199,#200,#201,#202,#203,#204,#205,#206,
#207));
#55=EDGE_LOOP('',(#208,#209,#210,#211,#212));
#56=EDGE_LOOP('',(#213,#214,#215,#216));
#57=EDGE_LOOP('',(#217,#218,#219,#220,#221,#222));
#58=EDGE_LOOP('',(#223,#224,#225,#226,#227));
#59=EDGE_LOOP('',(#228,#229,#230,#231,#232));
#60=EDGE_LOOP('',(#233,#234,#235,#236,#237));
#61=EDGE_LOOP('',(#238,#239,#240));
#62=EDGE_LOOP('',(#241,#242,#243));
#63=LINE('',#376,#86);
#64=LINE('',#378,#87);
#65=LINE('',#380,#88);
#66=LINE('',#381,#89);
#67=LINE('',#384,#90);
#68=LINE('',#386,#91);
#69=LINE('',#387,#92);
#70=LINE('',#390,#93);
#71=LINE('',#392,#94);
#72=LINE('',#393,#95);
#73=LINE('',#395,#96);
#74=LINE('',#396,#97);
#75=LINE('',#399,#98);
#76=LINE('',#401,#99);
#77=LINE('',#403,#100);
#78=LINE('',#405,#101);
#79=LINE('',#406,#102);
#80=LINE('',#421,#103);
#81=LINE('',#425,#104);
#82=LINE('',#429,#105);
#83=LINE('',#457,#106);
#84=LINE('',#507,#107);
#85=LINE('',#528,#108);
#86=VECTOR('',#309,10.);
#87=VECTOR('',#310,10.);
#88=VECTOR('',#311,10.);
#89=VECTOR('',#312,10.);
#90=VECTOR('',#315,10.);
#91=VECTOR('',#316,10.);
#92=VECTOR('',#317,10.);
#93=VECTOR('',#320,10.);
#94=VECTOR('',#321,10.);
#95=VECTOR('',#322,10.);
#96=VECTOR('',#325,10.);
#97=VECTOR('',#326,10.);
#98=VECTOR('',#329,10.);
#99=VECTOR('',#330,10.);
#100=VECTOR('',#331,10.);
#101=VECTOR('',#332,10.);
#102=VECTOR('',#333,10.);
#103=VECTOR('',#338,10.);
#104=VECTOR('',#341,10.);
#105=VECTOR('',#344,10.);
#106=VECTOR('',#355,10.);
#107=VECTOR('',#366,10.);
#108=VECTOR('',#367,10.);
#109=VERTEX_POINT('',#374);
#110=VERTEX_POINT('',#375);
#111=VERTEX_POINT('',#377);
#112=VERTEX_POINT('',#379);
#113=VERTEX_POINT('',#383);
#114=VERTEX_POINT('',#385);
#115=VERTEX_POINT('',#389);
#116=VERTEX_POINT('',#391);
#117=VERTEX_POINT('',#398);
#118=VERTEX_POINT('',#400);
#119=VERTEX_POINT('',#402);
#120=VERTEX_POINT('',#404);
#121=VERTEX_POINT('',#409);
#122=VERTEX_POINT('',#420);
#123=VERTEX_POINT('',#422);
#124=VERTEX_POINT('',#424);
#125=VERTEX_POINT('',#426);
#126=VERTEX_POINT('',#428);
#127=VERTEX_POINT('',#441);
#128=VERTEX_POINT('',#442);
#129=VERTEX_POINT('',#451);
#130=VERTEX_POINT('',#456);
#131=VERTEX_POINT('',#467);
#132=VERTEX_POINT('',#477);
#133=EDGE_CURVE('',#109,#110,#63,.T.);
#134=EDGE_CURVE('',#109,#111,#64,.T.);
#135=EDGE_CURVE('',#111,#112,#65,.T.);
#136=EDGE_CURVE('',#112,#110,#66,.T.);
#137=EDGE_CURVE('',#112,#113,#67,.T.);
#138=EDGE_CURVE('',#113,#114,#68,.T.);
#139=EDGE_CURVE('',#110,#114,#69,.T.);
#140=EDGE_CURVE('',#113,#115,#70,.T.);
#141=EDGE_CURVE('',#115,#116,#71,.T.);
#142=EDGE_CURVE('',#114,#116,#72,.T.);
#143=EDGE_CURVE('',#109,#116,#73,.T.);
#144=EDGE_CURVE('',#115,#111,#74,.T.);
#145=EDGE_CURVE('',#117,#109,#75,.T.);
#146=EDGE_CURVE('',#117,#118,#76,.T.);
#147=EDGE_CURVE('',#119,#118,#77,.T.);
#148=EDGE_CURVE('',#120,#119,#78,.T.);
#149=EDGE_CURVE('',#116,#120,#79,.T.);
#150=EDGE_CURVE('',#120,#121,#29,.T.);
#151=EDGE_CURVE('',#122,#121,#80,.T.);
#152=EDGE_CURVE('',#122,#123,#21,.T.);
#153=EDGE_CURVE('',#124,#123,#81,.T.);
#154=EDGE_CURVE('',#124,#125,#22,.T.);
#155=EDGE_CURVE('',#125,#126,#82,.T.);
#156=EDGE_CURVE('',#117,#126,#30,.T.);
#157=EDGE_CURVE('',#127,#128,#17,.T.);
#158=EDGE_CURVE('',#128,#129,#23,.T.);
#159=EDGE_CURVE('',#129,#123,#24,.T.);
#160=EDGE_CURVE('',#122,#127,#25,.T.);
#161=EDGE_CURVE('',#130,#129,#83,.T.);
#162=EDGE_CURVE('',#124,#130,#26,.T.);
#163=EDGE_CURVE('',#128,#119,#31,.T.);
#164=EDGE_CURVE('',#118,#131,#32,.T.);
#165=EDGE_CURVE('',#130,#131,#27,.T.);
#166=EDGE_CURVE('',#131,#132,#18,.T.);
#167=EDGE_CURVE('',#132,#125,#28,.T.);
#168=EDGE_CURVE('',#126,#132,#84,.T.);
#169=EDGE_CURVE('',#121,#127,#85,.T.);
#170=ORIENTED_EDGE('',*,*,#133,.F.);
#171=ORIENTED_EDGE('',*,*,#134,.T.);
#172=ORIENTED_EDGE('',*,*,#135,.T.);
#173=ORIENTED_EDGE('',*,*,#136,.T.);
#174=ORIENTED_EDGE('',*,*,#137,.T.);
#175=ORIENTED_EDGE('',*,*,#138,.T.);
#176=ORIENTED_EDGE('',*,*,#139,.F.);
#177=ORIENTED_EDGE('',*,*,#136,.F.);
#178=ORIENTED_EDGE('',*,*,#140,.T.);
#179=ORIENTED_EDGE('',*,*,#141,.T.);
#180=ORIENTED_EDGE('',*,*,#142,.F.);
#181=ORIENTED_EDGE('',*,*,#138,.F.);
#182=ORIENTED_EDGE('',*,*,#134,.F.);
#183=ORIENTED_EDGE('',*,*,#143,.T.);
#184=ORIENTED_EDGE('',*,*,#141,.F.);
#185=ORIENTED_EDGE('',*,*,#144,.T.);
#186=ORIENTED_EDGE('',*,*,#143,.F.);
#187=ORIENTED_EDGE('',*,*,#145,.F.);
#188=ORIENTED_EDGE('',*,*,#146,.T.);
#189=ORIENTED_EDGE('',*,*,#147,.F.);
#190=ORIENTED_EDGE('',*,*,#148,.F.);
#191=ORIENTED_EDGE('',*,*,#149,.F.);
#192=ORIENTED_EDGE('',*,*,#135,.F.);
#193=ORIENTED_EDGE('',*,*,#144,.F.);
#194=ORIENTED_EDGE('',*,*,#140,.F.);
#195=ORIENTED_EDGE('',*,*,#137,.F.);
#196=ORIENTED_EDGE('',*,*,#133,.T.);
#197=ORIENTED_EDGE('',*,*,#139,.T.);
#198=ORIENTED_EDGE('',*,*,#142,.T.);
#199=ORIENTED_EDGE('',*,*,#149,.T.);
#200=ORIENTED_EDGE('',*,*,#150,.T.);
#201=ORIENTED_EDGE('',*,*,#151,.F.);
#202=ORIENTED_EDGE('',*,*,#152,.T.);
#203=ORIENTED_EDGE('',*,*,#153,.F.);
#204=ORIENTED_EDGE('',*,*,#154,.T.);
#205=ORIENTED_EDGE('',*,*,#155,.T.);
#206=ORIENTED_EDGE('',*,*,#156,.F.);
#207=ORIENTED_EDGE('',*,*,#145,.T.);
#208=ORIENTED_EDGE('',*,*,#157,.T.);
#209=ORIENTED_EDGE('',*,*,#158,.T.);
#210=ORIENTED_EDGE('',*,*,#159,.T.);
#211=ORIENTED_EDGE('',*,*,#152,.F.);
#212=ORIENTED_EDGE('',*,*,#160,.T.);
#213=ORIENTED_EDGE('',*,*,#159,.F.);
#214=ORIENTED_EDGE('',*,*,#161,.F.);
#215=ORIENTED_EDGE('',*,*,#162,.F.);
#216=ORIENTED_EDGE('',*,*,#153,.T.);
#217=ORIENTED_EDGE('',*,*,#158,.F.);
#218=ORIENTED_EDGE('',*,*,#163,.T.);
#219=ORIENTED_EDGE('',*,*,#147,.T.);
#220=ORIENTED_EDGE('',*,*,#164,.T.);
#221=ORIENTED_EDGE('',*,*,#165,.F.);
#222=ORIENTED_EDGE('',*,*,#161,.T.);
#223=ORIENTED_EDGE('',*,*,#162,.T.);
#224=ORIENTED_EDGE('',*,*,#165,.T.);
#225=ORIENTED_EDGE('',*,*,#166,.T.);
#226=ORIENTED_EDGE('',*,*,#167,.T.);
#227=ORIENTED_EDGE('',*,*,#154,.F.);
#228=ORIENTED_EDGE('',*,*,#166,.F.);
#229=ORIENTED_EDGE('',*,*,#164,.F.);
#230=ORIENTED_EDGE('',*,*,#146,.F.);
#231=ORIENTED_EDGE('',*,*,#156,.T.);
#232=ORIENTED_EDGE('',*,*,#168,.T.);
#233=ORIENTED_EDGE('',*,*,#157,.F.);
#234=ORIENTED_EDGE('',*,*,#169,.F.);
#235=ORIENTED_EDGE('',*,*,#150,.F.);
#236=ORIENTED_EDGE('',*,*,#148,.T.);
#237=ORIENTED_EDGE('',*,*,#163,.F.);
#238=ORIENTED_EDGE('',*,*,#160,.F.);
#239=ORIENTED_EDGE('',*,*,#151,.T.);
#240=ORIENTED_EDGE('',*,*,#169,.T.);
#241=ORIENTED_EDGE('',*,*,#167,.F.);
#242=ORIENTED_EDGE('',*,*,#168,.F.);
#243=ORIENTED_EDGE('',*,*,#155,.F.);
#244=PLANE('',#284);
#245=PLANE('',#285);
#246=PLANE('',#286);
#247=PLANE('',#287);
#248=PLANE('',#288);
#249=PLANE('',#289);
#250=PLANE('',#290);
#251=PLANE('',#297);
#252=PLANE('',#299);
#253=PLANE('',#303);
#254=PLANE('',#304);
#255=ADVANCED_FACE('',(#33),#244,.T.);
#256=ADVANCED_FACE('',(#34),#245,.T.);
#257=ADVANCED_FACE('',(#35),#246,.T.);
#258=ADVANCED_FACE('',(#36),#247,.T.);
#259=ADVANCED_FACE('',(#37),#248,.T.);
#260=ADVANCED_FACE('',(#38),#249,.T.);
#261=ADVANCED_FACE('',(#39),#250,.F.);
#262=ADVANCED_FACE('',(#40),#19,.T.);
#263=ADVANCED_FACE('',(#41),#251,.T.);
#264=ADVANCED_FACE('',(#42),#252,.T.);
#265=ADVANCED_FACE('',(#43),#20,.T.);
#266=ADVANCED_FACE('',(#44),#15,.T.);
#267=ADVANCED_FACE('',(#45),#16,.T.);
#268=ADVANCED_FACE('',(#46),#253,.T.);
#269=ADVANCED_FACE('',(#47),#254,.T.);
#270=CLOSED_SHELL('',(#255,#256,#257,#258,#259,#260,#261,#262,#263,#264,
#265,#266,#267,#268,#269));
#271=DERIVED_UNIT_ELEMENT(#273,1.);
#272=DERIVED_UNIT_ELEMENT(#536,-3.);
#273=(
MASS_UNIT()
NAMED_UNIT(*)
SI_UNIT(.KILO.,.GRAM.)
);
#274=DERIVED_UNIT((#271,#272));
#275=MEASURE_REPRESENTATION_ITEM('density measure',
POSITIVE_RATIO_MEASURE(7850.),#274);
#276=PROPERTY_DEFINITION_REPRESENTATION(#281,#278);
#277=PROPERTY_DEFINITION_REPRESENTATION(#282,#279);
#278=REPRESENTATION('material name',(#280),#533);
#279=REPRESENTATION('density',(#275),#533);
#280=DESCRIPTIVE_REPRESENTATION_ITEM('Steel','Steel');
#281=PROPERTY_DEFINITION('material property','material name',#543);
#282=PROPERTY_DEFINITION('material property','density of part',#543);
#283=AXIS2_PLACEMENT_3D('',#372,#305,#306);
#284=AXIS2_PLACEMENT_3D('',#373,#307,#308);
#285=AXIS2_PLACEMENT_3D('',#382,#313,#314);
#286=AXIS2_PLACEMENT_3D('',#388,#318,#319);
#287=AXIS2_PLACEMENT_3D('',#394,#323,#324);
#288=AXIS2_PLACEMENT_3D('',#397,#327,#328);
#289=AXIS2_PLACEMENT_3D('',#407,#334,#335);
#290=AXIS2_PLACEMENT_3D('',#408,#336,#337);
#291=AXIS2_PLACEMENT_3D('',#423,#339,#340);
#292=AXIS2_PLACEMENT_3D('',#427,#342,#343);
#293=AXIS2_PLACEMENT_3D('',#440,#345,#346);
#294=AXIS2_PLACEMENT_3D('',#452,#347,#348);
#295=AXIS2_PLACEMENT_3D('',#453,#349,#350);
#296=AXIS2_PLACEMENT_3D('',#454,#351,#352);
#297=AXIS2_PLACEMENT_3D('',#455,#353,#354);
#298=AXIS2_PLACEMENT_3D('',#458,#356,#357);
#299=AXIS2_PLACEMENT_3D('',#459,#358,#359);
#300=AXIS2_PLACEMENT_3D('',#475,#360,#361);
#301=AXIS2_PLACEMENT_3D('',#476,#362,#363);
#302=AXIS2_PLACEMENT_3D('',#486,#364,#365);
#303=AXIS2_PLACEMENT_3D('',#529,#368,#369);
#304=AXIS2_PLACEMENT_3D('',#530,#370,#371);
#305=DIRECTION('axis',(0.,0.,1.));
#306=DIRECTION('refdir',(1.,0.,0.));
#307=DIRECTION('center_axis',(-0.998752338877845,0.,-0.0499376169438923));
#308=DIRECTION('ref_axis',(-0.0499376169438923,0.,0.998752338877845));
#309=DIRECTION('',(0.,-1.,0.));
#310=DIRECTION('',(0.0498754668053817,-0.0498754668053817,-0.997509336107633));
#311=DIRECTION('',(0.,-1.,0.));
#312=DIRECTION('',(-0.049875466805382,-0.0498754668053817,0.997509336107633));
#313=DIRECTION('center_axis',(7.49214758459736E-17,-0.998752338877845,-0.0499376169438923));
#314=DIRECTION('ref_axis',(0.,0.0499376169438923,-0.998752338877845));
#315=DIRECTION('',(1.,7.50150692314295E-17,0.));
#316=DIRECTION('',(0.0498754668053817,-0.0498754668053817,0.997509336107633));
#317=DIRECTION('',(1.,7.50150692314295E-17,0.));
#318=DIRECTION('center_axis',(0.998752338877845,0.,-0.0499376169438923));
#319=DIRECTION('ref_axis',(-0.0499376169438923,0.,-0.998752338877845));
#320=DIRECTION('',(0.,1.,0.));
#321=DIRECTION('',(0.0498754668053817,0.0498754668053817,0.997509336107633));
#322=DIRECTION('',(0.,1.,0.));
#323=DIRECTION('center_axis',(3.30996370901615E-16,0.998752338877845,-0.0499376169438923));
#324=DIRECTION('ref_axis',(0.,0.0499376169438923,0.998752338877845));
#325=DIRECTION('',(1.,-3.31409858097062E-16,0.));
#326=DIRECTION('',(-1.,3.31409858097062E-16,0.));
#327=DIRECTION('center_axis',(3.31409858097062E-16,1.,0.));
#328=DIRECTION('ref_axis',(-1.,3.31409858097062E-16,0.));
#329=DIRECTION('',(1.,-3.31409858097062E-16,0.));
#330=DIRECTION('',(0.,0.,1.));
#331=DIRECTION('',(-1.,3.31409858097062E-16,0.));
#332=DIRECTION('',(0.,0.,1.));
#333=DIRECTION('',(1.,-3.31409858097062E-16,0.));
#334=DIRECTION('center_axis',(0.,0.,-1.));
#335=DIRECTION('ref_axis',(-1.,0.,0.));
#336=DIRECTION('center_axis',(0.,0.,1.));
#337=DIRECTION('ref_axis',(1.,0.,0.));
#338=DIRECTION('',(1.,3.17778440823894E-32,0.));
#339=DIRECTION('center_axis',(0.,0.,1.));
#340=DIRECTION('ref_axis',(1.,0.,0.));
#341=DIRECTION('',(1.,0.,0.));
#342=DIRECTION('center_axis',(0.,0.,1.));
#343=DIRECTION('ref_axis',(1.,0.,0.));
#344=DIRECTION('',(-1.,-3.17778440823894E-32,0.));
#345=DIRECTION('center_axis',(0.,0.,-1.));
#346=DIRECTION('ref_axis',(-1.,0.,0.));
#347=DIRECTION('center_axis',(0.,0.,1.));
#348=DIRECTION('ref_axis',(0.,1.,0.));
#349=DIRECTION('center_axis',(0.,1.,0.));
#350=DIRECTION('ref_axis',(-1.,0.,0.));
#351=DIRECTION('center_axis',(-3.17778440823894E-32,1.,0.));
#352=DIRECTION('ref_axis',(1.,3.17778440823894E-32,0.));
#353=DIRECTION('center_axis',(0.,-1.,0.));
#354=DIRECTION('ref_axis',(1.,0.,0.));
#355=DIRECTION('',(1.,0.,0.));
#356=DIRECTION('center_axis',(0.,1.,0.));
#357=DIRECTION('ref_axis',(1.,0.,0.));
#358=DIRECTION('center_axis',(0.,0.,1.));
#359=DIRECTION('ref_axis',(1.,0.,0.));
#360=DIRECTION('center_axis',(0.,0.,1.));
#361=DIRECTION('ref_axis',(0.,1.,0.));
#362=DIRECTION('center_axis',(0.,0.,-1.));
#363=DIRECTION('ref_axis',(-1.,0.,0.));
#364=DIRECTION('center_axis',(-3.17778440823894E-32,1.,0.));
#365=DIRECTION('ref_axis',(-1.,-3.17778440823894E-32,0.));
#366=DIRECTION('',(0.,0.,1.));
#367=DIRECTION('',(0.,0.,1.));
#368=DIRECTION('center_axis',(3.17778440823894E-32,-1.,0.));
#369=DIRECTION('ref_axis',(1.,3.17778440823894E-32,0.));
#370=DIRECTION('center_axis',(3.17778440823894E-32,-1.,0.));
#371=DIRECTION('ref_axis',(1.,3.17778440823894E-32,0.));
#372=CARTESIAN_POINT('',(0.,0.,0.));
#373=CARTESIAN_POINT('Origin',(-3.65000000000004,3.27499999999402,-1.));
#374=CARTESIAN_POINT('',(-3.70000000000004,5.44999999999402,0.));
#375=CARTESIAN_POINT('',(-3.70000000000004,2.54999999999402,0.));
#376=CARTESIAN_POINT('',(-3.70000000000004,2.63749999999627,0.));
#377=CARTESIAN_POINT('',(-3.60000000000004,5.34999999999402,-2.));
#378=CARTESIAN_POINT('',(-3.63865049751248,5.38865049750645,-1.22699004975124));
#379=CARTESIAN_POINT('',(-3.60000000000004,2.64999999999402,-2.));
#380=CARTESIAN_POINT('',(-3.60000000000004,3.27499999999402,-2.));
#381=CARTESIAN_POINT('',(-3.60000000000004,2.64999999999402,-2.));
#382=CARTESIAN_POINT('Origin',(1.84999999999996,2.59999999999402,-1.));
#383=CARTESIAN_POINT('',(3.59999999999996,2.64999999999402,-2.));
#384=CARTESIAN_POINT('',(1.84999999999996,2.64999999999402,-2.));
#385=CARTESIAN_POINT('',(3.69999999999996,2.54999999999402,0.));
#386=CARTESIAN_POINT('',(3.59999999999996,2.64999999999402,-2.));
#387=CARTESIAN_POINT('',(1.84999999999998,2.54999999999402,0.));
#388=CARTESIAN_POINT('Origin',(3.64999999999996,4.72499999999402,-1.));
#389=CARTESIAN_POINT('',(3.59999999999996,5.34999999999401,-2.));
#390=CARTESIAN_POINT('',(3.59999999999996,4.72499999999402,-2.));
#391=CARTESIAN_POINT('',(3.69999999999996,5.44999999999401,0.));
#392=CARTESIAN_POINT('',(3.6487873134328,5.39878731342685,-1.02425373134328));
#393=CARTESIAN_POINT('',(3.69999999999996,4.08749999999627,0.));
#394=CARTESIAN_POINT('Origin',(3.34999999999996,5.39999999999401,-1.));
#395=CARTESIAN_POINT('',(3.34999999999996,5.44999999999401,0.));
#396=CARTESIAN_POINT('',(3.34999999999996,5.34999999999401,-2.));
#397=CARTESIAN_POINT('Origin',(6.69999999999996,5.44999999999401,0.));
#398=CARTESIAN_POINT('',(-6.70000000000004,5.44999999999402,0.));
#399=CARTESIAN_POINT('',(-6.70000000000004,5.44999999999402,0.));
#400=CARTESIAN_POINT('',(-6.70000000000004,5.44999999999402,2.5));
#401=CARTESIAN_POINT('',(-6.70000000000004,5.44999999999402,0.));
#402=CARTESIAN_POINT('',(6.70000000000011,5.44999999999706,2.5));
#403=CARTESIAN_POINT('',(-6.70000000000004,5.44999999999402,2.5));
#404=CARTESIAN_POINT('',(6.70000000000011,5.44999999999706,0.));
#405=CARTESIAN_POINT('',(6.70000000000011,5.44999999999706,0.));
#406=CARTESIAN_POINT('',(-6.70000000000004,5.44999999999402,0.));
#407=CARTESIAN_POINT('Origin',(-3.88578058618805E-14,3.99999999999402,-2.));
#408=CARTESIAN_POINT('Origin',(0.,2.72499999999853,0.));
#409=CARTESIAN_POINT('',(10.5,-2.69630192214213E-32,0.));
#410=CARTESIAN_POINT('Ctrl Pts',(6.70000000000011,5.44999999999706,0.));
#411=CARTESIAN_POINT('Ctrl Pts',(6.89992265769637,5.36550905908392,0.));
#412=CARTESIAN_POINT('Ctrl Pts',(7.29165164501812,5.16150497190846,0.));
#413=CARTESIAN_POINT('Ctrl Pts',(7.85491245941679,4.75052298890133,0.));
#414=CARTESIAN_POINT('Ctrl Pts',(8.55913979892491,4.01830975462243,0.));
#415=CARTESIAN_POINT('Ctrl Pts',(9.35330106003049,2.87566203068483,0.));
#416=CARTESIAN_POINT('Ctrl Pts',(9.89604185791754,1.81614863264208,0.));
#417=CARTESIAN_POINT('Ctrl Pts',(10.2304185575824,0.94126540137434,0.));
#418=CARTESIAN_POINT('Ctrl Pts',(10.416315130006,0.320081142849529,0.));
#419=CARTESIAN_POINT('Ctrl Pts',(10.5,-2.69630192214213E-32,0.));
#420=CARTESIAN_POINT('',(8.5,6.35556881647788E-32,0.));
#421=CARTESIAN_POINT('',(6.5,0.,0.));
#422=CARTESIAN_POINT('',(4.5,0.,0.));
#423=CARTESIAN_POINT('Origin',(6.5,0.,0.));
#424=CARTESIAN_POINT('',(-4.5,0.,0.));
#425=CARTESIAN_POINT('',(-4.5,0.,0.));
#426=CARTESIAN_POINT('',(-8.5,-6.35556881647788E-32,0.));
#427=CARTESIAN_POINT('Origin',(-6.5,0.,0.));
#428=CARTESIAN_POINT('',(-10.5,-1.27111376329558E-31,0.));
#429=CARTESIAN_POINT('',(-6.5,0.,0.));
#430=CARTESIAN_POINT('Ctrl Pts',(-6.70000000000004,5.44999999999402,0.));
#431=CARTESIAN_POINT('Ctrl Pts',(-6.89992265769621,5.36550905908091,0.));
#432=CARTESIAN_POINT('Ctrl Pts',(-7.29165164501781,5.16150497190556,0.));
#433=CARTESIAN_POINT('Ctrl Pts',(-7.85491245941635,4.75052298889871,0.));
#434=CARTESIAN_POINT('Ctrl Pts',(-8.5591397989245,4.01830975462032,0.));
#435=CARTESIAN_POINT('Ctrl Pts',(-9.3533010600303,2.87566203068349,0.));
#436=CARTESIAN_POINT('Ctrl Pts',(-9.89604185791754,1.81614863264135,0.));
#437=CARTESIAN_POINT('Ctrl Pts',(-10.2304185575825,0.94126540137401,0.));
#438=CARTESIAN_POINT('Ctrl Pts',(-10.4163151300061,0.320081142849426,0.));
#439=CARTESIAN_POINT('Ctrl Pts',(-10.5,-1.27111376329558E-31,0.));
#440=CARTESIAN_POINT('Origin',(6.5,0.,0.));
#441=CARTESIAN_POINT('',(10.5,-2.69630192214213E-32,2.44948974278318));
#442=CARTESIAN_POINT('',(8.46546467555286,4.04807961991287,2.5));
#443=CARTESIAN_POINT('Ctrl Pts',(10.5,4.16333634234434E-16,2.44948974278318));
#444=CARTESIAN_POINT('Ctrl Pts',(10.3557963259003,0.551555816627975,2.42005429106828));
#445=CARTESIAN_POINT('Ctrl Pts',(10.173683755838,1.08871235525715,2.39623659544178));
#446=CARTESIAN_POINT('Ctrl Pts',(9.732068641136,2.10571460175112,2.40625622143174));
#447=CARTESIAN_POINT('Ctrl Pts',(9.48807634055164,2.57042368435749,2.43378045110428));
#448=CARTESIAN_POINT('Ctrl Pts',(9.0233764589683,3.31705154305789,2.47789320659351));
#449=CARTESIAN_POINT('Ctrl Pts',(8.77053773173973,3.68503226425019,2.5));
#450=CARTESIAN_POINT('Ctrl Pts',(8.46546467555286,4.04807961991287,2.5));
#451=CARTESIAN_POINT('',(2.,0.,2.5));
#452=CARTESIAN_POINT('Origin',(6.5,0.,2.5));
#453=CARTESIAN_POINT('Origin',(2.,0.,0.));
#454=CARTESIAN_POINT('Origin',(11.,1.43000298370752E-31,0.));
#455=CARTESIAN_POINT('Origin',(-4.5,0.,0.));
#456=CARTESIAN_POINT('',(-2.,0.,2.5));
#457=CARTESIAN_POINT('',(-4.5,0.,2.5));
#458=CARTESIAN_POINT('Origin',(-2.,0.,0.));
#459=CARTESIAN_POINT('Origin',(0.,2.72499999999853,2.5));
#460=CARTESIAN_POINT('Ctrl Pts',(8.46546467555286,4.04807961991287,2.5));
#461=CARTESIAN_POINT('Ctrl Pts',(8.31126849668232,4.23157833884906,2.5));
#462=CARTESIAN_POINT('Ctrl Pts',(7.98070309932636,4.59490676575153,2.5));
#463=CARTESIAN_POINT('Ctrl Pts',(7.63493790276779,4.91087660133076,2.5));
#464=CARTESIAN_POINT('Ctrl Pts',(7.27486074804159,5.17024931231067,2.5));
#465=CARTESIAN_POINT('Ctrl Pts',(6.89992265769637,5.36550905908392,2.5));
#466=CARTESIAN_POINT('Ctrl Pts',(6.70000000000011,5.44999999999706,2.5));
#467=CARTESIAN_POINT('',(-8.4654646755492,4.04807961991465,2.5));
#468=CARTESIAN_POINT('Ctrl Pts',(-6.70000000000004,5.44999999999402,2.5));
#469=CARTESIAN_POINT('Ctrl Pts',(-6.89992265769621,5.36550905908091,2.5));
#470=CARTESIAN_POINT('Ctrl Pts',(-7.27486074804052,5.17024931230816,2.5));
#471=CARTESIAN_POINT('Ctrl Pts',(-7.63493790276593,4.91087660132909,2.5));
#472=CARTESIAN_POINT('Ctrl Pts',(-7.98070309932383,4.59490676575095,2.5));
#473=CARTESIAN_POINT('Ctrl Pts',(-8.31126849667923,4.23157833884976,2.5));
#474=CARTESIAN_POINT('Ctrl Pts',(-8.4654646755492,4.04807961991465,2.5));
#475=CARTESIAN_POINT('Origin',(-6.5,0.,2.5));
#476=CARTESIAN_POINT('Origin',(-6.5,0.,0.));
#477=CARTESIAN_POINT('',(-10.5,-1.27111376329558E-31,2.44948974278318));
#478=CARTESIAN_POINT('Ctrl Pts',(-8.4654646755492,4.04807961991464,2.5));
#479=CARTESIAN_POINT('Ctrl Pts',(-8.55163755018292,3.94553095614017,2.5));
#480=CARTESIAN_POINT('Ctrl Pts',(-8.63507328997016,3.84086832192992,2.49819879287804));
#481=CARTESIAN_POINT('Ctrl Pts',(-9.16694424199698,3.14153865866755,2.4773765756699));
#482=CARTESIAN_POINT('Ctrl Pts',(-9.59097089174806,2.43142070471663,2.40930267812713));
#483=CARTESIAN_POINT('Ctrl Pts',(-10.1744684563533,1.08639550978637,2.39632131569019));
#484=CARTESIAN_POINT('Ctrl Pts',(-10.3561079030108,0.550364084387417,2.42011789147963));
#485=CARTESIAN_POINT('Ctrl Pts',(-10.5,5.55111512312578E-16,2.44948974278318));
#486=CARTESIAN_POINT('Origin',(-11.,-1.43000298370752E-31,0.));
#487=CARTESIAN_POINT('Ctrl Pts',(-6.70000000000004,5.44999999999402,0.));
#488=CARTESIAN_POINT('Ctrl Pts',(-6.70000000000004,5.44999999999402,2.5));
#489=CARTESIAN_POINT('Ctrl Pts',(-6.89992265769621,5.36550905908091,0.));
#490=CARTESIAN_POINT('Ctrl Pts',(-6.89992265769621,5.36550905908091,2.5));
#491=CARTESIAN_POINT('Ctrl Pts',(-7.29165164501781,5.16150497190556,0.));
#492=CARTESIAN_POINT('Ctrl Pts',(-7.29165164501781,5.16150497190556,2.5));
#493=CARTESIAN_POINT('Ctrl Pts',(-7.85491245941635,4.75052298889871,0.));
#494=CARTESIAN_POINT('Ctrl Pts',(-7.85491245941635,4.75052298889871,2.5));
#495=CARTESIAN_POINT('Ctrl Pts',(-8.5591397989245,4.01830975462032,0.));
#496=CARTESIAN_POINT('Ctrl Pts',(-8.5591397989245,4.01830975462032,2.5));
#497=CARTESIAN_POINT('Ctrl Pts',(-9.3533010600303,2.87566203068349,0.));
#498=CARTESIAN_POINT('Ctrl Pts',(-9.3533010600303,2.87566203068349,2.5));
#499=CARTESIAN_POINT('Ctrl Pts',(-9.89604185791754,1.81614863264135,0.));
#500=CARTESIAN_POINT('Ctrl Pts',(-9.89604185791754,1.81614863264135,2.5));
#501=CARTESIAN_POINT('Ctrl Pts',(-10.2304185575825,0.94126540137401,0.));
#502=CARTESIAN_POINT('Ctrl Pts',(-10.2304185575825,0.94126540137401,2.5));
#503=CARTESIAN_POINT('Ctrl Pts',(-10.4163151300061,0.320081142849426,0.));
#504=CARTESIAN_POINT('Ctrl Pts',(-10.4163151300061,0.320081142849426,2.5));
#505=CARTESIAN_POINT('Ctrl Pts',(-10.5,-1.27111376329558E-31,0.));
#506=CARTESIAN_POINT('Ctrl Pts',(-10.5,-1.27111376329558E-31,2.5));
#507=CARTESIAN_POINT('',(-10.5,-1.27111376329558E-31,0.));
#508=CARTESIAN_POINT('Ctrl Pts',(10.5,-2.69630192214213E-32,0.));
#509=CARTESIAN_POINT('Ctrl Pts',(10.5,-2.69630192214213E-32,2.5));
#510=CARTESIAN_POINT('Ctrl Pts',(10.416315130006,0.320081142849529,0.));
#511=CARTESIAN_POINT('Ctrl Pts',(10.416315130006,0.320081142849529,2.5));
#512=CARTESIAN_POINT('Ctrl Pts',(10.2304185575824,0.94126540137434,0.));
#513=CARTESIAN_POINT('Ctrl Pts',(10.2304185575824,0.94126540137434,2.5));
#514=CARTESIAN_POINT('Ctrl Pts',(9.89604185791754,1.81614863264208,0.));
#515=CARTESIAN_POINT('Ctrl Pts',(9.89604185791754,1.81614863264208,2.5));
#516=CARTESIAN_POINT('Ctrl Pts',(9.35330106003049,2.87566203068483,0.));
#517=CARTESIAN_POINT('Ctrl Pts',(9.35330106003049,2.87566203068483,2.5));
#518=CARTESIAN_POINT('Ctrl Pts',(8.55913979892491,4.01830975462243,0.));
#519=CARTESIAN_POINT('Ctrl Pts',(8.55913979892491,4.01830975462243,2.5));
#520=CARTESIAN_POINT('Ctrl Pts',(7.85491245941679,4.75052298890133,0.));
#521=CARTESIAN_POINT('Ctrl Pts',(7.85491245941679,4.75052298890133,2.5));
#522=CARTESIAN_POINT('Ctrl Pts',(7.29165164501812,5.16150497190846,0.));
#523=CARTESIAN_POINT('Ctrl Pts',(7.29165164501812,5.16150497190846,2.5));
#524=CARTESIAN_POINT('Ctrl Pts',(6.89992265769637,5.36550905908392,0.));
#525=CARTESIAN_POINT('Ctrl Pts',(6.89992265769637,5.36550905908392,2.5));
#526=CARTESIAN_POINT('Ctrl Pts',(6.70000000000011,5.44999999999706,0.));
#527=CARTESIAN_POINT('Ctrl Pts',(6.70000000000011,5.44999999999706,2.5));
#528=CARTESIAN_POINT('',(10.5,-2.69630192214213E-32,0.));
#529=CARTESIAN_POINT('Origin',(8.5,6.35556881647788E-32,0.));
#530=CARTESIAN_POINT('Origin',(-10.5,-1.27111376329558E-31,0.));
#531=UNCERTAINTY_MEASURE_WITH_UNIT(LENGTH_MEASURE(0.01),#535,
'DISTANCE_ACCURACY_VALUE',
'Maximum model space distance between geometric entities at asserted c
onnectivities');
#532=UNCERTAINTY_MEASURE_WITH_UNIT(LENGTH_MEASURE(0.01),#535,
'DISTANCE_ACCURACY_VALUE',
'Maximum model space distance between geometric entities at asserted c
onnectivities');
#533=(
GEOMETRIC_REPRESENTATION_CONTEXT(3)
GLOBAL_UNCERTAINTY_ASSIGNED_CONTEXT((#531))
GLOBAL_UNIT_ASSIGNED_CONTEXT((#535,#537,#538))
REPRESENTATION_CONTEXT('','3D')
);
#534=(
GEOMETRIC_REPRESENTATION_CONTEXT(3)
GLOBAL_UNCERTAINTY_ASSIGNED_CONTEXT((#532))
GLOBAL_UNIT_ASSIGNED_CONTEXT((#535,#537,#538))
REPRESENTATION_CONTEXT('','3D')
);
#535=(
LENGTH_UNIT()
NAMED_UNIT(*)
SI_UNIT(.MILLI.,.METRE.)
);
#536=(
LENGTH_UNIT()
NAMED_UNIT(*)
SI_UNIT($,.METRE.)
);
#537=(
NAMED_UNIT(*)
PLANE_ANGLE_UNIT()
SI_UNIT($,.RADIAN.)
);
#538=(
NAMED_UNIT(*)
SI_UNIT($,.STERADIAN.)
SOLID_ANGLE_UNIT()
);
#539=SHAPE_DEFINITION_REPRESENTATION(#540,#541);
#540=PRODUCT_DEFINITION_SHAPE('',$,#543);
#541=SHAPE_REPRESENTATION('',(#283),#533);
#542=PRODUCT_DEFINITION_CONTEXT('part definition',#547,'design');
#543=PRODUCT_DEFINITION('Slopes','Slopes v4',#544,#542);
#544=PRODUCT_DEFINITION_FORMATION('',$,#549);
#545=PRODUCT_RELATED_PRODUCT_CATEGORY('Slopes v4','Slopes v4',(#549));
#546=APPLICATION_PROTOCOL_DEFINITION('international standard',
'automotive_design',2009,#547);
#547=APPLICATION_CONTEXT(
'Core Data for Automotive Mechanical Design Process');
#548=PRODUCT_CONTEXT('part definition',#547,'mechanical');
#549=PRODUCT('Slopes','Slopes v4',$,(#548));
#550=PRESENTATION_STYLE_ASSIGNMENT((#551));
#551=SURFACE_STYLE_USAGE(.BOTH.,#552);
#552=SURFACE_SIDE_STYLE('',(#553));
#553=SURFACE_STYLE_FILL_AREA(#554);
#554=FILL_AREA_STYLE('Steel - Satin',(#555));
#555=FILL_AREA_STYLE_COLOUR('Steel - Satin',#556);
#556=COLOUR_RGB('Steel - Satin',0.627450980392157,0.627450980392157,0.627450980392157);
ENDSEC;
END-ISO-10303-21;
