ISO-10303-21;
HEADER;
/* Generated by software containing ST-Developer
 * from STEP Tools, Inc. (www.steptools.com) 
 */

FILE_DESCRIPTION(
/* description */ (''),
/* implementation_level */ '2;1');

FILE_NAME(
/* name */ 'Standoff 15mm_v6.step',
/* time_stamp */ '2026-08-21T09:14:26-04:00',
/* author */ (''),
/* organization */ (''),
/* preprocessor_version */ 'ST-DEVELOPER v20.1',
/* originating_system */ 'Autodesk Translation Framework v15.8.0.0',
/* authorisation */ '');

FILE_SCHEMA (('AUTOMOTIVE_DESIGN { 1 0 10303 214 3 1 1 }'));
ENDSEC;

DATA;
#10=MECHANICAL_DESIGN_GEOMETRIC_PRESENTATION_REPRESENTATION('',(#13),#339);
#11=SHAPE_REPRESENTATION_RELATIONSHIP('SRR','None',#346,#12);
#12=ADVANCED_BREP_SHAPE_REPRESENTATION('',(#14),#338);
#13=STYLED_ITEM('',(#356),#14);
#14=MANIFOLD_SOLID_BREP('Body2',#199);
#15=FACE_BOUND('',#50,.T.);
#16=FACE_BOUND('',#52,.T.);
#17=PLANE('',#216);
#18=PLANE('',#217);
#19=PLANE('',#221);
#20=PLANE('',#222);
#21=PLANE('',#223);
#22=PLANE('',#224);
#23=PLANE('',#225);
#24=PLANE('',#226);
#25=PLANE('',#227);
#26=PLANE('',#228);
#27=FACE_OUTER_BOUND('',#39,.T.);
#28=FACE_OUTER_BOUND('',#40,.T.);
#29=FACE_OUTER_BOUND('',#41,.T.);
#30=FACE_OUTER_BOUND('',#42,.T.);
#31=FACE_OUTER_BOUND('',#43,.T.);
#32=FACE_OUTER_BOUND('',#44,.T.);
#33=FACE_OUTER_BOUND('',#45,.T.);
#34=FACE_OUTER_BOUND('',#46,.T.);
#35=FACE_OUTER_BOUND('',#47,.T.);
#36=FACE_OUTER_BOUND('',#48,.T.);
#37=FACE_OUTER_BOUND('',#49,.T.);
#38=FACE_OUTER_BOUND('',#51,.T.);
#39=EDGE_LOOP('',(#137,#138,#139,#140));
#40=EDGE_LOOP('',(#141));
#41=EDGE_LOOP('',(#142));
#42=EDGE_LOOP('',(#143,#144,#145,#146));
#43=EDGE_LOOP('',(#147,#148,#149,#150));
#44=EDGE_LOOP('',(#151,#152,#153,#154));
#45=EDGE_LOOP('',(#155,#156,#157,#158));
#46=EDGE_LOOP('',(#159,#160,#161,#162));
#47=EDGE_LOOP('',(#163,#164,#165,#166));
#48=EDGE_LOOP('',(#167,#168,#169,#170));
#49=EDGE_LOOP('',(#171,#172,#173,#174,#175,#176));
#50=EDGE_LOOP('',(#177));
#51=EDGE_LOOP('',(#178,#179,#180,#181,#182,#183));
#52=EDGE_LOOP('',(#184));
#53=LINE('',#288,#73);
#54=LINE('',#296,#74);
#55=LINE('',#301,#75);
#56=LINE('',#303,#76);
#57=LINE('',#305,#77);
#58=LINE('',#306,#78);
#59=LINE('',#309,#79);
#60=LINE('',#311,#80);
#61=LINE('',#312,#81);
#62=LINE('',#315,#82);
#63=LINE('',#317,#83);
#64=LINE('',#318,#84);
#65=LINE('',#321,#85);
#66=LINE('',#323,#86);
#67=LINE('',#324,#87);
#68=LINE('',#327,#88);
#69=LINE('',#329,#89);
#70=LINE('',#330,#90);
#71=LINE('',#332,#91);
#72=LINE('',#333,#92);
#73=VECTOR('',#235,2.1);
#74=VECTOR('',#246,2.1);
#75=VECTOR('',#251,10.);
#76=VECTOR('',#252,10.);
#77=VECTOR('',#253,10.);
#78=VECTOR('',#254,10.);
#79=VECTOR('',#257,10.);
#80=VECTOR('',#258,10.);
#81=VECTOR('',#259,10.);
#82=VECTOR('',#262,10.);
#83=VECTOR('',#263,10.);
#84=VECTOR('',#264,10.);
#85=VECTOR('',#267,10.);
#86=VECTOR('',#268,10.);
#87=VECTOR('',#269,10.);
#88=VECTOR('',#272,10.);
#89=VECTOR('',#273,10.);
#90=VECTOR('',#274,10.);
#91=VECTOR('',#277,10.);
#92=VECTOR('',#278,10.);
#93=CIRCLE('',#214,2.1);
#94=CIRCLE('',#215,2.1);
#95=CIRCLE('',#218,2.1);
#96=CIRCLE('',#220,2.1);
#97=VERTEX_POINT('',#285);
#98=VERTEX_POINT('',#287);
#99=VERTEX_POINT('',#292);
#100=VERTEX_POINT('',#295);
#101=VERTEX_POINT('',#299);
#102=VERTEX_POINT('',#300);
#103=VERTEX_POINT('',#302);
#104=VERTEX_POINT('',#304);
#105=VERTEX_POINT('',#308);
#106=VERTEX_POINT('',#310);
#107=VERTEX_POINT('',#314);
#108=VERTEX_POINT('',#316);
#109=VERTEX_POINT('',#320);
#110=VERTEX_POINT('',#322);
#111=VERTEX_POINT('',#326);
#112=VERTEX_POINT('',#328);
#113=EDGE_CURVE('',#97,#97,#93,.T.);
#114=EDGE_CURVE('',#97,#98,#53,.T.);
#115=EDGE_CURVE('',#98,#98,#94,.T.);
#116=EDGE_CURVE('',#99,#99,#95,.T.);
#117=EDGE_CURVE('',#99,#100,#54,.T.);
#118=EDGE_CURVE('',#100,#100,#96,.F.);
#119=EDGE_CURVE('',#101,#102,#55,.T.);
#120=EDGE_CURVE('',#101,#103,#56,.T.);
#121=EDGE_CURVE('',#104,#103,#57,.T.);
#122=EDGE_CURVE('',#102,#104,#58,.T.);
#123=EDGE_CURVE('',#102,#105,#59,.T.);
#124=EDGE_CURVE('',#106,#104,#60,.T.);
#125=EDGE_CURVE('',#105,#106,#61,.T.);
#126=EDGE_CURVE('',#105,#107,#62,.T.);
#127=EDGE_CURVE('',#108,#106,#63,.T.);
#128=EDGE_CURVE('',#107,#108,#64,.T.);
#129=EDGE_CURVE('',#107,#109,#65,.T.);
#130=EDGE_CURVE('',#110,#108,#66,.T.);
#131=EDGE_CURVE('',#109,#110,#67,.T.);
#132=EDGE_CURVE('',#109,#111,#68,.T.);
#133=EDGE_CURVE('',#112,#110,#69,.T.);
#134=EDGE_CURVE('',#111,#112,#70,.T.);
#135=EDGE_CURVE('',#111,#101,#71,.T.);
#136=EDGE_CURVE('',#103,#112,#72,.T.);
#137=ORIENTED_EDGE('',*,*,#113,.F.);
#138=ORIENTED_EDGE('',*,*,#114,.T.);
#139=ORIENTED_EDGE('',*,*,#115,.T.);
#140=ORIENTED_EDGE('',*,*,#114,.F.);
#141=ORIENTED_EDGE('',*,*,#115,.F.);
#142=ORIENTED_EDGE('',*,*,#116,.F.);
#143=ORIENTED_EDGE('',*,*,#116,.T.);
#144=ORIENTED_EDGE('',*,*,#117,.T.);
#145=ORIENTED_EDGE('',*,*,#118,.F.);
#146=ORIENTED_EDGE('',*,*,#117,.F.);
#147=ORIENTED_EDGE('',*,*,#119,.F.);
#148=ORIENTED_EDGE('',*,*,#120,.T.);
#149=ORIENTED_EDGE('',*,*,#121,.F.);
#150=ORIENTED_EDGE('',*,*,#122,.F.);
#151=ORIENTED_EDGE('',*,*,#123,.F.);
#152=ORIENTED_EDGE('',*,*,#122,.T.);
#153=ORIENTED_EDGE('',*,*,#124,.F.);
#154=ORIENTED_EDGE('',*,*,#125,.F.);
#155=ORIENTED_EDGE('',*,*,#126,.F.);
#156=ORIENTED_EDGE('',*,*,#125,.T.);
#157=ORIENTED_EDGE('',*,*,#127,.F.);
#158=ORIENTED_EDGE('',*,*,#128,.F.);
#159=ORIENTED_EDGE('',*,*,#129,.F.);
#160=ORIENTED_EDGE('',*,*,#128,.T.);
#161=ORIENTED_EDGE('',*,*,#130,.F.);
#162=ORIENTED_EDGE('',*,*,#131,.F.);
#163=ORIENTED_EDGE('',*,*,#132,.F.);
#164=ORIENTED_EDGE('',*,*,#131,.T.);
#165=ORIENTED_EDGE('',*,*,#133,.F.);
#166=ORIENTED_EDGE('',*,*,#134,.F.);
#167=ORIENTED_EDGE('',*,*,#135,.F.);
#168=ORIENTED_EDGE('',*,*,#134,.T.);
#169=ORIENTED_EDGE('',*,*,#136,.F.);
#170=ORIENTED_EDGE('',*,*,#120,.F.);
#171=ORIENTED_EDGE('',*,*,#135,.T.);
#172=ORIENTED_EDGE('',*,*,#119,.T.);
#173=ORIENTED_EDGE('',*,*,#123,.T.);
#174=ORIENTED_EDGE('',*,*,#126,.T.);
#175=ORIENTED_EDGE('',*,*,#129,.T.);
#176=ORIENTED_EDGE('',*,*,#132,.T.);
#177=ORIENTED_EDGE('',*,*,#118,.T.);
#178=ORIENTED_EDGE('',*,*,#136,.T.);
#179=ORIENTED_EDGE('',*,*,#133,.T.);
#180=ORIENTED_EDGE('',*,*,#130,.T.);
#181=ORIENTED_EDGE('',*,*,#127,.T.);
#182=ORIENTED_EDGE('',*,*,#124,.T.);
#183=ORIENTED_EDGE('',*,*,#121,.T.);
#184=ORIENTED_EDGE('',*,*,#113,.T.);
#185=CYLINDRICAL_SURFACE('',#213,2.1);
#186=CYLINDRICAL_SURFACE('',#219,2.1);
#187=ADVANCED_FACE('',(#27),#185,.F.);
#188=ADVANCED_FACE('',(#28),#17,.F.);
#189=ADVANCED_FACE('',(#29),#18,.T.);
#190=ADVANCED_FACE('',(#30),#186,.F.);
#191=ADVANCED_FACE('',(#31),#19,.T.);
#192=ADVANCED_FACE('',(#32),#20,.T.);
#193=ADVANCED_FACE('',(#33),#21,.T.);
#194=ADVANCED_FACE('',(#34),#22,.T.);
#195=ADVANCED_FACE('',(#35),#23,.T.);
#196=ADVANCED_FACE('',(#36),#24,.T.);
#197=ADVANCED_FACE('',(#37,#15),#25,.T.);
#198=ADVANCED_FACE('',(#38,#16),#26,.T.);
#199=CLOSED_SHELL('',(#187,#188,#189,#190,#191,#192,#193,#194,#195,#196,
#197,#198));
#200=DERIVED_UNIT_ELEMENT(#202,1.);
#201=DERIVED_UNIT_ELEMENT(#341,-3.);
#202=(
MASS_UNIT()
NAMED_UNIT(*)
SI_UNIT(.KILO.,.GRAM.)
);
#203=DERIVED_UNIT((#200,#201));
#204=MEASURE_REPRESENTATION_ITEM('density measure',
POSITIVE_RATIO_MEASURE(7850.),#203);
#205=PROPERTY_DEFINITION_REPRESENTATION(#210,#207);
#206=PROPERTY_DEFINITION_REPRESENTATION(#211,#208);
#207=REPRESENTATION('material name',(#209),#338);
#208=REPRESENTATION('density',(#204),#338);
#209=DESCRIPTIVE_REPRESENTATION_ITEM('Steel','Steel');
#210=PROPERTY_DEFINITION('material property','material name',#348);
#211=PROPERTY_DEFINITION('material property','density of part',#348);
#212=AXIS2_PLACEMENT_3D('',#283,#229,#230);
#213=AXIS2_PLACEMENT_3D('',#284,#231,#232);
#214=AXIS2_PLACEMENT_3D('',#286,#233,#234);
#215=AXIS2_PLACEMENT_3D('',#289,#236,#237);
#216=AXIS2_PLACEMENT_3D('',#290,#238,#239);
#217=AXIS2_PLACEMENT_3D('',#291,#240,#241);
#218=AXIS2_PLACEMENT_3D('',#293,#242,#243);
#219=AXIS2_PLACEMENT_3D('',#294,#244,#245);
#220=AXIS2_PLACEMENT_3D('',#297,#247,#248);
#221=AXIS2_PLACEMENT_3D('',#298,#249,#250);
#222=AXIS2_PLACEMENT_3D('',#307,#255,#256);
#223=AXIS2_PLACEMENT_3D('',#313,#260,#261);
#224=AXIS2_PLACEMENT_3D('',#319,#265,#266);
#225=AXIS2_PLACEMENT_3D('',#325,#270,#271);
#226=AXIS2_PLACEMENT_3D('',#331,#275,#276);
#227=AXIS2_PLACEMENT_3D('',#334,#279,#280);
#228=AXIS2_PLACEMENT_3D('',#335,#281,#282);
#229=DIRECTION('axis',(0.,0.,1.));
#230=DIRECTION('refdir',(1.,0.,0.));
#231=DIRECTION('center_axis',(0.,0.,1.));
#232=DIRECTION('ref_axis',(1.,0.,0.));
#233=DIRECTION('center_axis',(0.,0.,1.));
#234=DIRECTION('ref_axis',(1.,0.,0.));
#235=DIRECTION('',(0.,0.,1.));
#236=DIRECTION('center_axis',(0.,0.,1.));
#237=DIRECTION('ref_axis',(1.,0.,0.));
#238=DIRECTION('center_axis',(0.,0.,1.));
#239=DIRECTION('ref_axis',(1.,0.,0.));
#240=DIRECTION('center_axis',(0.,0.,1.));
#241=DIRECTION('ref_axis',(1.,0.,0.));
#242=DIRECTION('center_axis',(0.,0.,-1.));
#243=DIRECTION('ref_axis',(1.,0.,0.));
#244=DIRECTION('center_axis',(0.,0.,1.));
#245=DIRECTION('ref_axis',(1.,0.,0.));
#246=DIRECTION('',(0.,0.,1.));
#247=DIRECTION('center_axis',(0.,0.,1.));
#248=DIRECTION('ref_axis',(1.,0.,0.));
#249=DIRECTION('center_axis',(0.866025403784439,0.5,0.));
#250=DIRECTION('ref_axis',(0.5,-0.866025403784439,0.));
#251=DIRECTION('',(-0.5,0.866025403784439,0.));
#252=DIRECTION('',(0.,0.,-1.));
#253=DIRECTION('',(0.5,-0.866025403784439,0.));
#254=DIRECTION('',(0.,0.,-1.));
#255=DIRECTION('center_axis',(1.38777876010193E-16,1.,0.));
#256=DIRECTION('ref_axis',(1.,-1.38777876010193E-16,0.));
#257=DIRECTION('',(-1.,1.38777876010193E-16,0.));
#258=DIRECTION('',(1.,-1.38777876010193E-16,0.));
#259=DIRECTION('',(0.,0.,-1.));
#260=DIRECTION('center_axis',(-0.866025403784438,0.5,0.));
#261=DIRECTION('ref_axis',(0.5,0.866025403784438,0.));
#262=DIRECTION('',(-0.5,-0.866025403784438,0.));
#263=DIRECTION('',(0.5,0.866025403784438,0.));
#264=DIRECTION('',(0.,0.,-1.));
#265=DIRECTION('center_axis',(-0.866025403784439,-0.5,0.));
#266=DIRECTION('ref_axis',(-0.5,0.866025403784439,0.));
#267=DIRECTION('',(0.5,-0.866025403784439,0.));
#268=DIRECTION('',(-0.5,0.866025403784439,0.));
#269=DIRECTION('',(0.,0.,-1.));
#270=DIRECTION('center_axis',(-5.55111504040772E-16,-1.,0.));
#271=DIRECTION('ref_axis',(-1.,5.55111504040772E-16,0.));
#272=DIRECTION('',(1.,-5.55111504040772E-16,0.));
#273=DIRECTION('',(-1.,5.55111504040772E-16,0.));
#274=DIRECTION('',(0.,0.,-1.));
#275=DIRECTION('center_axis',(0.866025403784439,-0.5,0.));
#276=DIRECTION('ref_axis',(-0.5,-0.866025403784438,0.));
#277=DIRECTION('',(0.5,0.866025403784438,0.));
#278=DIRECTION('',(-0.5,-0.866025403784438,0.));
#279=DIRECTION('center_axis',(0.,0.,1.));
#280=DIRECTION('ref_axis',(1.,0.,0.));
#281=DIRECTION('center_axis',(0.,0.,-1.));
#282=DIRECTION('ref_axis',(-1.,0.,0.));
#283=CARTESIAN_POINT('',(0.,0.,0.));
#284=CARTESIAN_POINT('Origin',(0.,0.,-17.));
#285=CARTESIAN_POINT('',(-2.1,-2.57175827820944E-16,-12.));
#286=CARTESIAN_POINT('Origin',(0.,0.,-12.));
#287=CARTESIAN_POINT('',(-2.1,-2.57175827820944E-16,-8.));
#288=CARTESIAN_POINT('',(-2.1,-2.57175827820944E-16,-17.));
#289=CARTESIAN_POINT('Origin',(0.,0.,-8.));
#290=CARTESIAN_POINT('Origin',(0.,0.,-8.));
#291=CARTESIAN_POINT('Origin',(0.,0.,-3.));
#292=CARTESIAN_POINT('',(-2.1,-2.57175827820944E-16,-3.));
#293=CARTESIAN_POINT('Origin',(0.,0.,-3.));
#294=CARTESIAN_POINT('Origin',(0.,0.,0.));
#295=CARTESIAN_POINT('',(-2.1,-2.57175827820944E-16,3.));
#296=CARTESIAN_POINT('',(-2.1,-2.57175827820944E-16,0.));
#297=CARTESIAN_POINT('Origin',(0.,0.,3.));
#298=CARTESIAN_POINT('Origin',(2.00000002980232,3.46410166675689,0.));
#299=CARTESIAN_POINT('',(4.00000005960464,0.,3.));
#300=CARTESIAN_POINT('',(2.00000002980232,3.46410166675689,3.));
#301=CARTESIAN_POINT('',(2.5000000372529,2.59807625006767,3.));
#302=CARTESIAN_POINT('',(4.00000005960464,0.,-12.));
#303=CARTESIAN_POINT('',(4.00000005960464,0.,0.));
#304=CARTESIAN_POINT('',(2.00000002980232,3.46410166675689,-12.));
#305=CARTESIAN_POINT('',(4.00000005960464,0.,-12.));
#306=CARTESIAN_POINT('',(2.00000002980232,3.46410166675689,0.));
#307=CARTESIAN_POINT('Origin',(-2.00000002980232,3.46410166675689,0.));
#308=CARTESIAN_POINT('',(-2.00000002980232,3.46410166675689,3.));
#309=CARTESIAN_POINT('',(-1.00000001490116,3.46410166675689,3.));
#310=CARTESIAN_POINT('',(-2.00000002980232,3.46410166675689,-12.));
#311=CARTESIAN_POINT('',(2.00000002980232,3.46410166675689,-12.));
#312=CARTESIAN_POINT('',(-2.00000002980232,3.46410166675689,0.));
#313=CARTESIAN_POINT('Origin',(-4.00000005960464,1.11022302462516E-15,0.));
#314=CARTESIAN_POINT('',(-4.00000005960464,1.38777878078145E-15,3.));
#315=CARTESIAN_POINT('',(-3.50000005215406,0.866025416689224,3.));
#316=CARTESIAN_POINT('',(-4.00000005960464,1.11022302462516E-15,-12.));
#317=CARTESIAN_POINT('',(-2.00000002980232,3.46410166675689,-12.));
#318=CARTESIAN_POINT('',(-4.00000005960464,1.38777878078145E-15,0.));
#319=CARTESIAN_POINT('Origin',(-2.00000002980232,-3.46410166675689,0.));
#320=CARTESIAN_POINT('',(-2.00000002980232,-3.46410166675689,3.));
#321=CARTESIAN_POINT('',(-2.5000000372529,-2.59807625006767,3.));
#322=CARTESIAN_POINT('',(-2.00000002980232,-3.46410166675689,-12.));
#323=CARTESIAN_POINT('',(-4.00000005960464,1.38777878078145E-15,-12.));
#324=CARTESIAN_POINT('',(-2.00000002980232,-3.46410166675689,0.));
#325=CARTESIAN_POINT('Origin',(2.00000002980232,-3.46410166675689,0.));
#326=CARTESIAN_POINT('',(2.00000002980232,-3.46410166675689,3.));
#327=CARTESIAN_POINT('',(1.00000001490116,-3.46410166675689,3.));
#328=CARTESIAN_POINT('',(2.00000002980232,-3.46410166675689,-12.));
#329=CARTESIAN_POINT('',(-2.00000002980232,-3.46410166675689,-12.));
#330=CARTESIAN_POINT('',(2.00000002980232,-3.46410166675689,0.));
#331=CARTESIAN_POINT('Origin',(4.00000005960464,0.,0.));
#332=CARTESIAN_POINT('',(3.50000005215406,-0.866025416689223,3.));
#333=CARTESIAN_POINT('',(2.00000002980232,-3.46410166675689,-12.));
#334=CARTESIAN_POINT('Origin',(0.,-5.55111512312578E-16,3.));
#335=CARTESIAN_POINT('Origin',(0.,-5.55111512312578E-16,-12.));
#336=UNCERTAINTY_MEASURE_WITH_UNIT(LENGTH_MEASURE(0.01),#340,
'DISTANCE_ACCURACY_VALUE',
'Maximum model space distance between geometric entities at asserted c
onnectivities');
#337=UNCERTAINTY_MEASURE_WITH_UNIT(LENGTH_MEASURE(0.01),#340,
'DISTANCE_ACCURACY_VALUE',
'Maximum model space distance between geometric entities at asserted c
onnectivities');
#338=(
GEOMETRIC_REPRESENTATION_CONTEXT(3)
GLOBAL_UNCERTAINTY_ASSIGNED_CONTEXT((#336))
GLOBAL_UNIT_ASSIGNED_CONTEXT((#340,#342,#343))
REPRESENTATION_CONTEXT('','3D')
);
#339=(
GEOMETRIC_REPRESENTATION_CONTEXT(3)
GLOBAL_UNCERTAINTY_ASSIGNED_CONTEXT((#337))
GLOBAL_UNIT_ASSIGNED_CONTEXT((#340,#342,#343))
REPRESENTATION_CONTEXT('','3D')
);
#340=(
LENGTH_UNIT()
NAMED_UNIT(*)
SI_UNIT(.MILLI.,.METRE.)
);
#341=(
LENGTH_UNIT()
NAMED_UNIT(*)
SI_UNIT($,.METRE.)
);
#342=(
NAMED_UNIT(*)
PLANE_ANGLE_UNIT()
SI_UNIT($,.RADIAN.)
);
#343=(
NAMED_UNIT(*)
SI_UNIT($,.STERADIAN.)
SOLID_ANGLE_UNIT()
);
#344=SHAPE_DEFINITION_REPRESENTATION(#345,#346);
#345=PRODUCT_DEFINITION_SHAPE('',$,#348);
#346=SHAPE_REPRESENTATION('',(#212),#338);
#347=PRODUCT_DEFINITION_CONTEXT('part definition',#352,'design');
#348=PRODUCT_DEFINITION('Standoff 15mm','Standoff 15mm v6',#349,#347);
#349=PRODUCT_DEFINITION_FORMATION('',$,#354);
#350=PRODUCT_RELATED_PRODUCT_CATEGORY('Standoff 15mm v6',
'Standoff 15mm v6',(#354));
#351=APPLICATION_PROTOCOL_DEFINITION('international standard',
'automotive_design',2009,#352);
#352=APPLICATION_CONTEXT(
'Core Data for Automotive Mechanical Design Process');
#353=PRODUCT_CONTEXT('part definition',#352,'mechanical');
#354=PRODUCT('Standoff 15mm','Standoff 15mm v6',$,(#353));
#355=PRESENTATION_STYLE_ASSIGNMENT((#357));
#356=PRESENTATION_STYLE_ASSIGNMENT((#358));
#357=SURFACE_STYLE_USAGE(.BOTH.,#359);
#358=SURFACE_STYLE_USAGE(.BOTH.,#360);
#359=SURFACE_SIDE_STYLE('',(#361));
#360=SURFACE_SIDE_STYLE('',(#362));
#361=SURFACE_STYLE_FILL_AREA(#363);
#362=SURFACE_STYLE_FILL_AREA(#364);
#363=FILL_AREA_STYLE('Steel - Satin',(#365));
#364=FILL_AREA_STYLE('Plastic - Matte (Black)',(#366));
#365=FILL_AREA_STYLE_COLOUR('Steel - Satin',#367);
#366=FILL_AREA_STYLE_COLOUR('Plastic - Matte (Black)',#368);
#367=COLOUR_RGB('Steel - Satin',0.627450980392157,0.627450980392157,0.627450980392157);
#368=COLOUR_RGB('Plastic - Matte (Black)',0.0980392156862745,0.0980392156862745,
0.0980392156862745);
ENDSEC;
END-ISO-10303-21;
