ISO-10303-21;
HEADER;
/* Generated by software containing ST-Developer
 * from STEP Tools, Inc. (www.steptools.com) 
 */

FILE_DESCRIPTION(
/* description */ (''),
/* implementation_level */ '2;1');

FILE_NAME(
/* name */ 'Untitled_v11.step',
/* time_stamp */ '2026-08-21T09:14:28-04:00',
/* author */ (''),
/* organization */ (''),
/* preprocessor_version */ 'ST-DEVELOPER v20.1',
/* originating_system */ 'Autodesk Translation Framework v15.8.0.0',
/* authorisation */ '');

FILE_SCHEMA (('AUTOMOTIVE_DESIGN { 1 0 10303 214 3 1 1 }'));
ENDSEC;

DATA;
#10=MECHANICAL_DESIGN_GEOMETRIC_PRESENTATION_REPRESENTATION('',(#13),#1299);
#11=SHAPE_REPRESENTATION_RELATIONSHIP('SRR','None',#1306,#12);
#12=ADVANCED_BREP_SHAPE_REPRESENTATION('',(#14),#1298);
#13=STYLED_ITEM('',(#1316),#14);
#14=MANIFOLD_SOLID_BREP('Body1',#551);
#15=CONICAL_SURFACE('',#625,65.5000000000002,0.0307595260704772);
#16=CONICAL_SURFACE('',#633,64.,0.0307595260704692);
#17=(
BOUNDED_SURFACE()
B_SPLINE_SURFACE(2,2,((#1248,#1249,#1250,#1251,#1252,#1253,#1254,#1255,
#1256),(#1257,#1258,#1259,#1260,#1261,#1262,#1263,#1264,#1265),(#1266,#1267,
#1268,#1269,#1270,#1271,#1272,#1273,#1274)),.UNSPECIFIED.,.F.,.T.,.F.)
B_SPLINE_SURFACE_WITH_KNOTS((3,3),(3,2,2,2,3),(-0.0307595260704772,3.99056285311994E-18),
(-3.14159265358979,-1.5707963267949,0.,1.5707963267949,3.14159265358979),
 .UNSPECIFIED.)
GEOMETRIC_REPRESENTATION_ITEM()
RATIONAL_B_SPLINE_SURFACE(((1.,0.707106781186548,1.,0.707106781186548,1.,
0.707106781186548,1.,0.707106781186548,1.),(0.999881733775713,0.707023154337369,
0.999881733775713,0.707023154337369,0.999881733775713,0.707023154337369,
0.999881733775713,0.707023154337369,0.999881733775713),(1.,0.707106781186548,
1.,0.707106781186548,1.,0.707106781186548,1.,0.707106781186548,1.)))
REPRESENTATION_ITEM('')
SURFACE()
);
#18=FACE_BOUND('',#141,.T.);
#19=FACE_BOUND('',#144,.T.);
#20=FACE_BOUND('',#147,.T.);
#21=FACE_BOUND('',#150,.T.);
#22=FACE_BOUND('',#157,.T.);
#23=FACE_BOUND('',#158,.T.);
#24=FACE_BOUND('',#159,.T.);
#25=FACE_BOUND('',#160,.T.);
#26=FACE_BOUND('',#169,.T.);
#27=TOROIDAL_SURFACE('',#581,2064.5,2000.);
#28=PLANE('',#570);
#29=PLANE('',#586);
#30=PLANE('',#592);
#31=PLANE('',#597);
#32=PLANE('',#602);
#33=PLANE('',#607);
#34=PLANE('',#609);
#35=PLANE('',#610);
#36=PLANE('',#611);
#37=PLANE('',#612);
#38=PLANE('',#615);
#39=PLANE('',#628);
#40=PLANE('',#629);
#41=LINE('',#906,#60);
#42=LINE('',#910,#61);
#43=LINE('',#944,#62);
#44=LINE('',#947,#63);
#45=LINE('',#951,#64);
#46=LINE('',#1168,#65);
#47=LINE('',#1169,#66);
#48=LINE('',#1195,#67);
#49=LINE('',#1204,#68);
#50=LINE('',#1213,#69);
#51=LINE('',#1222,#70);
#52=LINE('',#1233,#71);
#53=LINE('',#1243,#72);
#54=LINE('',#1245,#73);
#55=LINE('',#1247,#74);
#56=LINE('',#1281,#75);
#57=LINE('',#1285,#76);
#58=LINE('',#1292,#77);
#59=LINE('',#1295,#78);
#60=VECTOR('',#642,63.);
#61=VECTOR('',#645,10.);
#62=VECTOR('',#646,10.);
#63=VECTOR('',#651,10.);
#64=VECTOR('',#656,6.);
#65=VECTOR('',#673,43.);
#66=VECTOR('',#674,43.);
#67=VECTOR('',#695,5.1);
#68=VECTOR('',#706,5.1);
#69=VECTOR('',#717,5.1);
#70=VECTOR('',#728,5.1);
#71=VECTOR('',#745,6.6);
#72=VECTOR('',#758,6.6);
#73=VECTOR('',#761,6.6);
#74=VECTOR('',#764,6.6);
#75=VECTOR('',#773,65.5000000000002);
#76=VECTOR('',#778,66.5000000000001);
#77=VECTOR('',#787,65.);
#78=VECTOR('',#792,64.);
#79=CYLINDRICAL_SURFACE('',#566,63.);
#80=CYLINDRICAL_SURFACE('',#572,6.);
#81=CYLINDRICAL_SURFACE('',#580,43.);
#82=CYLINDRICAL_SURFACE('',#587,64.5);
#83=CYLINDRICAL_SURFACE('',#589,5.1);
#84=CYLINDRICAL_SURFACE('',#594,5.1);
#85=CYLINDRICAL_SURFACE('',#599,5.1);
#86=CYLINDRICAL_SURFACE('',#604,5.1);
#87=CYLINDRICAL_SURFACE('',#613,6.6);
#88=CYLINDRICAL_SURFACE('',#619,6.6);
#89=CYLINDRICAL_SURFACE('',#620,6.6);
#90=CYLINDRICAL_SURFACE('',#621,6.6);
#91=CYLINDRICAL_SURFACE('',#626,66.5000000000001);
#92=CYLINDRICAL_SURFACE('',#631,65.);
#93=FACE_OUTER_BOUND('',#128,.T.);
#94=FACE_OUTER_BOUND('',#129,.T.);
#95=FACE_OUTER_BOUND('',#130,.T.);
#96=FACE_OUTER_BOUND('',#131,.T.);
#97=FACE_OUTER_BOUND('',#132,.T.);
#98=FACE_OUTER_BOUND('',#133,.T.);
#99=FACE_OUTER_BOUND('',#134,.T.);
#100=FACE_OUTER_BOUND('',#135,.T.);
#101=FACE_OUTER_BOUND('',#136,.T.);
#102=FACE_OUTER_BOUND('',#137,.T.);
#103=FACE_OUTER_BOUND('',#138,.T.);
#104=FACE_OUTER_BOUND('',#139,.T.);
#105=FACE_OUTER_BOUND('',#140,.T.);
#106=FACE_OUTER_BOUND('',#142,.T.);
#107=FACE_OUTER_BOUND('',#143,.T.);
#108=FACE_OUTER_BOUND('',#145,.T.);
#109=FACE_OUTER_BOUND('',#146,.T.);
#110=FACE_OUTER_BOUND('',#148,.T.);
#111=FACE_OUTER_BOUND('',#149,.T.);
#112=FACE_OUTER_BOUND('',#151,.T.);
#113=FACE_OUTER_BOUND('',#152,.T.);
#114=FACE_OUTER_BOUND('',#153,.T.);
#115=FACE_OUTER_BOUND('',#154,.T.);
#116=FACE_OUTER_BOUND('',#155,.T.);
#117=FACE_OUTER_BOUND('',#156,.T.);
#118=FACE_OUTER_BOUND('',#161,.T.);
#119=FACE_OUTER_BOUND('',#162,.T.);
#120=FACE_OUTER_BOUND('',#163,.T.);
#121=FACE_OUTER_BOUND('',#164,.T.);
#122=FACE_OUTER_BOUND('',#165,.T.);
#123=FACE_OUTER_BOUND('',#166,.T.);
#124=FACE_OUTER_BOUND('',#167,.T.);
#125=FACE_OUTER_BOUND('',#168,.T.);
#126=FACE_OUTER_BOUND('',#170,.T.);
#127=FACE_OUTER_BOUND('',#171,.T.);
#128=EDGE_LOOP('',(#358,#359,#360,#361,#362));
#129=EDGE_LOOP('',(#363,#364,#365,#366,#367,#368,#369,#370,#371,#372,#373));
#130=EDGE_LOOP('',(#374,#375,#376,#377,#378,#379,#380));
#131=EDGE_LOOP('',(#381,#382,#383,#384,#385,#386,#387,#388,#389,#390));
#132=EDGE_LOOP('',(#391,#392,#393,#394));
#133=EDGE_LOOP('',(#395,#396,#397,#398,#399,#400,#401));
#134=EDGE_LOOP('',(#402,#403,#404,#405));
#135=EDGE_LOOP('',(#406,#407,#408,#409,#410,#411));
#136=EDGE_LOOP('',(#412,#413,#414,#415,#416,#417,#418,#419,#420,#421));
#137=EDGE_LOOP('',(#422,#423,#424,#425,#426,#427,#428));
#138=EDGE_LOOP('',(#429,#430,#431,#432,#433,#434,#435));
#139=EDGE_LOOP('',(#436,#437,#438,#439));
#140=EDGE_LOOP('',(#440));
#141=EDGE_LOOP('',(#441));
#142=EDGE_LOOP('',(#442,#443,#444,#445));
#143=EDGE_LOOP('',(#446));
#144=EDGE_LOOP('',(#447));
#145=EDGE_LOOP('',(#448,#449,#450,#451));
#146=EDGE_LOOP('',(#452));
#147=EDGE_LOOP('',(#453));
#148=EDGE_LOOP('',(#454,#455,#456,#457));
#149=EDGE_LOOP('',(#458));
#150=EDGE_LOOP('',(#459));
#151=EDGE_LOOP('',(#460));
#152=EDGE_LOOP('',(#461));
#153=EDGE_LOOP('',(#462));
#154=EDGE_LOOP('',(#463));
#155=EDGE_LOOP('',(#464,#465,#466,#467));
#156=EDGE_LOOP('',(#468,#469,#470,#471));
#157=EDGE_LOOP('',(#472));
#158=EDGE_LOOP('',(#473));
#159=EDGE_LOOP('',(#474));
#160=EDGE_LOOP('',(#475));
#161=EDGE_LOOP('',(#476,#477,#478,#479));
#162=EDGE_LOOP('',(#480,#481,#482,#483));
#163=EDGE_LOOP('',(#484,#485,#486,#487));
#164=EDGE_LOOP('',(#488,#489,#490,#491));
#165=EDGE_LOOP('',(#492,#493,#494,#495));
#166=EDGE_LOOP('',(#496,#497,#498,#499));
#167=EDGE_LOOP('',(#500,#501));
#168=EDGE_LOOP('',(#502));
#169=EDGE_LOOP('',(#503));
#170=EDGE_LOOP('',(#504,#505,#506,#507));
#171=EDGE_LOOP('',(#508,#509,#510,#511));
#172=CIRCLE('',#565,8.);
#173=CIRCLE('',#567,63.);
#174=CIRCLE('',#568,63.);
#175=CIRCLE('',#569,63.);
#176=CIRCLE('',#571,6.);
#177=CIRCLE('',#573,6.);
#178=CIRCLE('',#574,43.0000000000001);
#179=CIRCLE('',#575,8.);
#180=CIRCLE('',#576,43.);
#181=CIRCLE('',#577,8.);
#182=CIRCLE('',#578,8.);
#183=CIRCLE('',#579,43.);
#184=CIRCLE('',#582,64.5);
#185=CIRCLE('',#583,2000.);
#186=CIRCLE('',#584,65.4460738466933);
#187=CIRCLE('',#585,64.5);
#188=CIRCLE('',#588,64.5);
#189=CIRCLE('',#590,5.1);
#190=CIRCLE('',#591,5.1);
#191=CIRCLE('',#593,6.6);
#192=CIRCLE('',#595,5.1);
#193=CIRCLE('',#596,5.1);
#194=CIRCLE('',#598,6.6);
#195=CIRCLE('',#600,5.1);
#196=CIRCLE('',#601,5.1);
#197=CIRCLE('',#603,6.6);
#198=CIRCLE('',#605,5.1);
#199=CIRCLE('',#606,5.1);
#200=CIRCLE('',#608,6.6);
#201=CIRCLE('',#614,6.6);
#202=CIRCLE('',#616,6.6);
#203=CIRCLE('',#617,6.6);
#204=CIRCLE('',#618,6.6);
#205=CIRCLE('',#622,66.5000000000005);
#206=CIRCLE('',#623,1000.);
#207=CIRCLE('',#624,66.0269630766538);
#208=CIRCLE('',#627,66.5000000000001);
#209=CIRCLE('',#630,65.);
#210=CIRCLE('',#632,65.);
#211=B_SPLINE_CURVE_WITH_KNOTS('',3,(#848,#849,#850,#851,#852,#853,#854,
#855,#856,#857,#858,#859,#860,#861,#862,#863,#864,#865,#866,#867),
 .UNSPECIFIED.,.F.,.F.,(4,2,2,2,2,2,2,2,2,4),(0.,0.31158047421449,0.473051112621326,
0.602976770549721,0.647288064573727,0.673873566754864,0.697120968403267,
0.726297088992387,0.777705843218212,0.801161817181651),.UNSPECIFIED.);
#212=B_SPLINE_CURVE_WITH_KNOTS('',3,(#869,#870,#871,#872,#873,#874,#875,
#876,#877,#878),.UNSPECIFIED.,.F.,.F.,(4,1,1,1,1,1,1,4),(4.73520493228942,
4.74902632609302,5.36659890793114,5.98417148976926,6.60174407160737,7.21931665344549,
7.52810294436455,7.61800476976529),.UNSPECIFIED.);
#213=B_SPLINE_CURVE_WITH_KNOTS('',3,(#880,#881,#882,#883,#884,#885,#886,
#887,#888,#889),.UNSPECIFIED.,.F.,.F.,(4,2,2,2,4),(-0.000614156300856398,
0.,0.079229281608297,0.154043756916733,0.28640590236202),.UNSPECIFIED.);
#214=B_SPLINE_CURVE_WITH_KNOTS('',3,(#892,#893,#894,#895,#896,#897,#898,
#899,#900,#901),.UNSPECIFIED.,.F.,.F.,(4,2,2,2,4),(0.192454725645502,0.19838336901718,
0.310516472605052,0.429265381513366,0.430183866291326),.UNSPECIFIED.);
#215=B_SPLINE_CURVE_WITH_KNOTS('',3,(#912,#913,#914,#915,#916,#917),
 .UNSPECIFIED.,.F.,.F.,(4,2,4),(2.49083805458676,2.53209096535051,2.76941883387185),
 .UNSPECIFIED.);
#216=B_SPLINE_CURVE_WITH_KNOTS('',3,(#919,#920,#921,#922,#923,#924,#925,
#926,#927,#928),.UNSPECIFIED.,.F.,.F.,(4,2,2,2,4),(2.76941883387185,3.00182000410803,
3.2342211743442,3.45973613889179,3.68525110343938),.UNSPECIFIED.);
#217=B_SPLINE_CURVE_WITH_KNOTS('',3,(#930,#931,#932,#933,#934,#935,#936,
#937,#938,#939,#940,#941,#942,#943),.UNSPECIFIED.,.F.,.F.,(4,2,2,2,2,2,
4),(0.,0.225514964547589,0.451029929095177,0.683431099331349,0.915832269567522,
1.15316013808886,1.19441304885261),.UNSPECIFIED.);
#218=B_SPLINE_CURVE_WITH_KNOTS('',3,(#953,#954,#955,#956,#957,#958,#959,
#960),.UNSPECIFIED.,.F.,.F.,(4,2,2,4),(2.09265210962838,2.26419100118562,
2.49087851273282,2.71756602428001),.UNSPECIFIED.);
#219=B_SPLINE_CURVE_WITH_KNOTS('',3,(#962,#963,#964,#965,#966,#967,#968,
#969,#970,#971,#972,#973,#974,#975),.UNSPECIFIED.,.F.,.F.,(4,2,2,2,2,2,
4),(-3.58427884206325,-3.54147300148688,-3.32949476524768,-3.09601063151778,
-2.8607343724936,-2.64124911480188,-2.5967587656803),.UNSPECIFIED.);
#220=B_SPLINE_CURVE_WITH_KNOTS('',3,(#978,#979,#980,#981),.UNSPECIFIED.,
 .F.,.F.,(4,4),(2.71756602428001,2.85350260035967),.UNSPECIFIED.);
#221=B_SPLINE_CURVE_WITH_KNOTS('',3,(#1036,#1037,#1038,#1039,#1040,#1041,
#1042,#1043,#1044,#1045,#1046,#1047,#1048,#1049),.UNSPECIFIED.,.F.,.F.,
(4,2,2,2,2,2,4),(-0.00201845972960608,0.,0.0507450748432345,0.0904296152583995,
0.169944117938226,0.22528882190259,0.394066816728295),.UNSPECIFIED.);
#222=B_SPLINE_CURVE_WITH_KNOTS('',3,(#1051,#1052,#1053,#1054,#1055,#1056,
#1057,#1058,#1059,#1060),.UNSPECIFIED.,.F.,.F.,(4,1,1,1,1,1,1,4),(-17.2209562558895,
-16.361042614046,-15.4678066948158,-14.5745707755857,-13.6813348563555,
-12.7880989371253,-12.3414809775102,-11.8948630178951),.UNSPECIFIED.);
#223=B_SPLINE_CURVE_WITH_KNOTS('',3,(#1106,#1107,#1108,#1109,#1110,#1111,
#1112,#1113,#1114,#1115,#1116,#1117,#1118,#1119,#1120,#1121,#1122,#1123),
 .UNSPECIFIED.,.F.,.F.,(4,2,2,2,2,2,2,2,4),(0.,0.780998492587885,1.24618103556265,
1.74469822836483,2.02632256858902,2.17449795304227,2.31771798650897,2.56011640755792,
3.10158252023428),.UNSPECIFIED.);
#224=B_SPLINE_CURVE_WITH_KNOTS('',3,(#1125,#1126,#1127,#1128),
 .UNSPECIFIED.,.F.,.F.,(4,4),(-8.28511237531626,-8.21088760224413),
 .UNSPECIFIED.);
#225=B_SPLINE_CURVE_WITH_KNOTS('',3,(#1134,#1135,#1136,#1137),
 .UNSPECIFIED.,.F.,.F.,(4,4),(-13.1173572362741,-12.8018708073072),
 .UNSPECIFIED.);
#226=B_SPLINE_CURVE_WITH_KNOTS('',3,(#1156,#1157,#1158,#1159),
 .UNSPECIFIED.,.F.,.F.,(4,4),(-8.21088760224391,-8.09239309481307),
 .UNSPECIFIED.);
#227=B_SPLINE_CURVE_WITH_KNOTS('',3,(#1162,#1163,#1164,#1165,#1166,#1167),
 .UNSPECIFIED.,.F.,.F.,(4,2,4),(-0.407021959646105,0.,0.0201221501387975),
 .UNSPECIFIED.);
#228=B_SPLINE_CURVE_WITH_KNOTS('',3,(#1172,#1173,#1174,#1175,#1176,#1177),
 .UNSPECIFIED.,.F.,.F.,(4,2,4),(591.54565025431,591.63796288462,592.42424141947),
 .UNSPECIFIED.);
#229=B_SPLINE_CURVE_WITH_KNOTS('',3,(#1178,#1179,#1180,#1181),
 .UNSPECIFIED.,.F.,.F.,(4,4),(592.42424141947,592.640535847462),
 .UNSPECIFIED.);
#230=VERTEX_POINT('',#846);
#231=VERTEX_POINT('',#847);
#232=VERTEX_POINT('',#868);
#233=VERTEX_POINT('',#879);
#234=VERTEX_POINT('',#890);
#235=VERTEX_POINT('',#903);
#236=VERTEX_POINT('',#905);
#237=VERTEX_POINT('',#907);
#238=VERTEX_POINT('',#909);
#239=VERTEX_POINT('',#911);
#240=VERTEX_POINT('',#918);
#241=VERTEX_POINT('',#929);
#242=VERTEX_POINT('',#950);
#243=VERTEX_POINT('',#952);
#244=VERTEX_POINT('',#961);
#245=VERTEX_POINT('',#976);
#246=VERTEX_POINT('',#1034);
#247=VERTEX_POINT('',#1035);
#248=VERTEX_POINT('',#1050);
#249=VERTEX_POINT('',#1061);
#250=VERTEX_POINT('',#1104);
#251=VERTEX_POINT('',#1105);
#252=VERTEX_POINT('',#1124);
#253=VERTEX_POINT('',#1129);
#254=VERTEX_POINT('',#1131);
#255=VERTEX_POINT('',#1154);
#256=VERTEX_POINT('',#1161);
#257=VERTEX_POINT('',#1171);
#258=VERTEX_POINT('',#1182);
#259=VERTEX_POINT('',#1184);
#260=VERTEX_POINT('',#1192);
#261=VERTEX_POINT('',#1194);
#262=VERTEX_POINT('',#1198);
#263=VERTEX_POINT('',#1201);
#264=VERTEX_POINT('',#1203);
#265=VERTEX_POINT('',#1207);
#266=VERTEX_POINT('',#1210);
#267=VERTEX_POINT('',#1212);
#268=VERTEX_POINT('',#1216);
#269=VERTEX_POINT('',#1219);
#270=VERTEX_POINT('',#1221);
#271=VERTEX_POINT('',#1225);
#272=VERTEX_POINT('',#1232);
#273=VERTEX_POINT('',#1236);
#274=VERTEX_POINT('',#1238);
#275=VERTEX_POINT('',#1240);
#276=VERTEX_POINT('',#1275);
#277=VERTEX_POINT('',#1277);
#278=VERTEX_POINT('',#1283);
#279=VERTEX_POINT('',#1288);
#280=VERTEX_POINT('',#1291);
#281=EDGE_CURVE('',#230,#231,#211,.T.);
#282=EDGE_CURVE('',#230,#232,#212,.T.);
#283=EDGE_CURVE('',#232,#233,#213,.F.);
#284=EDGE_CURVE('',#233,#234,#172,.T.);
#285=EDGE_CURVE('',#234,#231,#214,.F.);
#286=EDGE_CURVE('',#235,#235,#173,.T.);
#287=EDGE_CURVE('',#235,#236,#41,.T.);
#288=EDGE_CURVE('',#237,#236,#174,.T.);
#289=EDGE_CURVE('',#238,#237,#42,.T.);
#290=EDGE_CURVE('',#238,#239,#215,.T.);
#291=EDGE_CURVE('',#239,#240,#216,.T.);
#292=EDGE_CURVE('',#240,#241,#217,.T.);
#293=EDGE_CURVE('',#232,#241,#43,.T.);
#294=EDGE_CURVE('',#236,#230,#175,.T.);
#295=EDGE_CURVE('',#231,#237,#44,.T.);
#296=EDGE_CURVE('',#238,#241,#176,.T.);
#297=EDGE_CURVE('',#239,#242,#45,.T.);
#298=EDGE_CURVE('',#242,#243,#218,.F.);
#299=EDGE_CURVE('',#244,#243,#219,.T.);
#300=EDGE_CURVE('',#245,#244,#177,.T.);
#301=EDGE_CURVE('',#245,#242,#220,.F.);
#302=EDGE_CURVE('',#246,#247,#221,.F.);
#303=EDGE_CURVE('',#246,#248,#222,.T.);
#304=EDGE_CURVE('',#248,#249,#178,.T.);
#305=EDGE_CURVE('',#247,#249,#179,.T.);
#306=EDGE_CURVE('',#250,#251,#223,.F.);
#307=EDGE_CURVE('',#250,#252,#224,.T.);
#308=EDGE_CURVE('',#252,#253,#180,.T.);
#309=EDGE_CURVE('',#254,#253,#181,.T.);
#310=EDGE_CURVE('',#249,#254,#182,.T.);
#311=EDGE_CURVE('',#248,#251,#225,.T.);
#312=EDGE_CURVE('',#255,#254,#183,.T.);
#313=EDGE_CURVE('',#252,#255,#226,.T.);
#314=EDGE_CURVE('',#243,#256,#227,.T.);
#315=EDGE_CURVE('',#245,#254,#46,.T.);
#316=EDGE_CURVE('',#255,#256,#47,.T.);
#317=EDGE_CURVE('',#246,#257,#228,.T.);
#318=EDGE_CURVE('',#257,#244,#229,.T.);
#319=EDGE_CURVE('',#256,#258,#184,.T.);
#320=EDGE_CURVE('',#258,#259,#185,.T.);
#321=EDGE_CURVE('',#259,#259,#186,.T.);
#322=EDGE_CURVE('',#258,#248,#187,.T.);
#323=EDGE_CURVE('',#250,#251,#188,.T.);
#324=EDGE_CURVE('',#260,#260,#189,.T.);
#325=EDGE_CURVE('',#260,#261,#48,.T.);
#326=EDGE_CURVE('',#261,#261,#190,.T.);
#327=EDGE_CURVE('',#262,#262,#191,.T.);
#328=EDGE_CURVE('',#263,#263,#192,.T.);
#329=EDGE_CURVE('',#263,#264,#49,.T.);
#330=EDGE_CURVE('',#264,#264,#193,.T.);
#331=EDGE_CURVE('',#265,#265,#194,.T.);
#332=EDGE_CURVE('',#266,#266,#195,.T.);
#333=EDGE_CURVE('',#266,#267,#50,.T.);
#334=EDGE_CURVE('',#267,#267,#196,.T.);
#335=EDGE_CURVE('',#268,#268,#197,.T.);
#336=EDGE_CURVE('',#269,#269,#198,.T.);
#337=EDGE_CURVE('',#269,#270,#51,.T.);
#338=EDGE_CURVE('',#270,#270,#199,.T.);
#339=EDGE_CURVE('',#271,#271,#200,.T.);
#340=EDGE_CURVE('',#265,#272,#52,.T.);
#341=EDGE_CURVE('',#272,#272,#201,.T.);
#342=EDGE_CURVE('',#273,#273,#202,.T.);
#343=EDGE_CURVE('',#274,#274,#203,.T.);
#344=EDGE_CURVE('',#275,#275,#204,.T.);
#345=EDGE_CURVE('',#271,#273,#53,.T.);
#346=EDGE_CURVE('',#268,#275,#54,.T.);
#347=EDGE_CURVE('',#262,#274,#55,.T.);
#348=EDGE_CURVE('',#276,#276,#205,.T.);
#349=EDGE_CURVE('',#276,#277,#206,.T.);
#350=EDGE_CURVE('',#277,#277,#207,.T.);
#351=EDGE_CURVE('',#277,#259,#56,.T.);
#352=EDGE_CURVE('',#278,#278,#208,.T.);
#353=EDGE_CURVE('',#278,#276,#57,.T.);
#354=EDGE_CURVE('',#279,#279,#209,.F.);
#355=EDGE_CURVE('',#279,#280,#58,.T.);
#356=EDGE_CURVE('',#280,#280,#210,.T.);
#357=EDGE_CURVE('',#280,#235,#59,.T.);
#358=ORIENTED_EDGE('',*,*,#281,.F.);
#359=ORIENTED_EDGE('',*,*,#282,.T.);
#360=ORIENTED_EDGE('',*,*,#283,.T.);
#361=ORIENTED_EDGE('',*,*,#284,.T.);
#362=ORIENTED_EDGE('',*,*,#285,.T.);
#363=ORIENTED_EDGE('',*,*,#286,.T.);
#364=ORIENTED_EDGE('',*,*,#287,.T.);
#365=ORIENTED_EDGE('',*,*,#288,.F.);
#366=ORIENTED_EDGE('',*,*,#289,.F.);
#367=ORIENTED_EDGE('',*,*,#290,.T.);
#368=ORIENTED_EDGE('',*,*,#291,.T.);
#369=ORIENTED_EDGE('',*,*,#292,.T.);
#370=ORIENTED_EDGE('',*,*,#293,.F.);
#371=ORIENTED_EDGE('',*,*,#282,.F.);
#372=ORIENTED_EDGE('',*,*,#294,.F.);
#373=ORIENTED_EDGE('',*,*,#287,.F.);
#374=ORIENTED_EDGE('',*,*,#289,.T.);
#375=ORIENTED_EDGE('',*,*,#295,.F.);
#376=ORIENTED_EDGE('',*,*,#285,.F.);
#377=ORIENTED_EDGE('',*,*,#284,.F.);
#378=ORIENTED_EDGE('',*,*,#283,.F.);
#379=ORIENTED_EDGE('',*,*,#293,.T.);
#380=ORIENTED_EDGE('',*,*,#296,.F.);
#381=ORIENTED_EDGE('',*,*,#296,.T.);
#382=ORIENTED_EDGE('',*,*,#292,.F.);
#383=ORIENTED_EDGE('',*,*,#291,.F.);
#384=ORIENTED_EDGE('',*,*,#297,.T.);
#385=ORIENTED_EDGE('',*,*,#298,.T.);
#386=ORIENTED_EDGE('',*,*,#299,.F.);
#387=ORIENTED_EDGE('',*,*,#300,.F.);
#388=ORIENTED_EDGE('',*,*,#301,.T.);
#389=ORIENTED_EDGE('',*,*,#297,.F.);
#390=ORIENTED_EDGE('',*,*,#290,.F.);
#391=ORIENTED_EDGE('',*,*,#302,.F.);
#392=ORIENTED_EDGE('',*,*,#303,.T.);
#393=ORIENTED_EDGE('',*,*,#304,.T.);
#394=ORIENTED_EDGE('',*,*,#305,.F.);
#395=ORIENTED_EDGE('',*,*,#306,.F.);
#396=ORIENTED_EDGE('',*,*,#307,.T.);
#397=ORIENTED_EDGE('',*,*,#308,.T.);
#398=ORIENTED_EDGE('',*,*,#309,.F.);
#399=ORIENTED_EDGE('',*,*,#310,.F.);
#400=ORIENTED_EDGE('',*,*,#304,.F.);
#401=ORIENTED_EDGE('',*,*,#311,.T.);
#402=ORIENTED_EDGE('',*,*,#312,.T.);
#403=ORIENTED_EDGE('',*,*,#309,.T.);
#404=ORIENTED_EDGE('',*,*,#308,.F.);
#405=ORIENTED_EDGE('',*,*,#313,.T.);
#406=ORIENTED_EDGE('',*,*,#314,.F.);
#407=ORIENTED_EDGE('',*,*,#298,.F.);
#408=ORIENTED_EDGE('',*,*,#301,.F.);
#409=ORIENTED_EDGE('',*,*,#315,.T.);
#410=ORIENTED_EDGE('',*,*,#312,.F.);
#411=ORIENTED_EDGE('',*,*,#316,.T.);
#412=ORIENTED_EDGE('',*,*,#303,.F.);
#413=ORIENTED_EDGE('',*,*,#317,.T.);
#414=ORIENTED_EDGE('',*,*,#318,.T.);
#415=ORIENTED_EDGE('',*,*,#299,.T.);
#416=ORIENTED_EDGE('',*,*,#314,.T.);
#417=ORIENTED_EDGE('',*,*,#319,.T.);
#418=ORIENTED_EDGE('',*,*,#320,.T.);
#419=ORIENTED_EDGE('',*,*,#321,.T.);
#420=ORIENTED_EDGE('',*,*,#320,.F.);
#421=ORIENTED_EDGE('',*,*,#322,.T.);
#422=ORIENTED_EDGE('',*,*,#315,.F.);
#423=ORIENTED_EDGE('',*,*,#300,.T.);
#424=ORIENTED_EDGE('',*,*,#318,.F.);
#425=ORIENTED_EDGE('',*,*,#317,.F.);
#426=ORIENTED_EDGE('',*,*,#302,.T.);
#427=ORIENTED_EDGE('',*,*,#305,.T.);
#428=ORIENTED_EDGE('',*,*,#310,.T.);
#429=ORIENTED_EDGE('',*,*,#307,.F.);
#430=ORIENTED_EDGE('',*,*,#323,.T.);
#431=ORIENTED_EDGE('',*,*,#311,.F.);
#432=ORIENTED_EDGE('',*,*,#322,.F.);
#433=ORIENTED_EDGE('',*,*,#319,.F.);
#434=ORIENTED_EDGE('',*,*,#316,.F.);
#435=ORIENTED_EDGE('',*,*,#313,.F.);
#436=ORIENTED_EDGE('',*,*,#324,.F.);
#437=ORIENTED_EDGE('',*,*,#325,.T.);
#438=ORIENTED_EDGE('',*,*,#326,.F.);
#439=ORIENTED_EDGE('',*,*,#325,.F.);
#440=ORIENTED_EDGE('',*,*,#327,.T.);
#441=ORIENTED_EDGE('',*,*,#324,.T.);
#442=ORIENTED_EDGE('',*,*,#328,.F.);
#443=ORIENTED_EDGE('',*,*,#329,.T.);
#444=ORIENTED_EDGE('',*,*,#330,.F.);
#445=ORIENTED_EDGE('',*,*,#329,.F.);
#446=ORIENTED_EDGE('',*,*,#331,.T.);
#447=ORIENTED_EDGE('',*,*,#328,.T.);
#448=ORIENTED_EDGE('',*,*,#332,.F.);
#449=ORIENTED_EDGE('',*,*,#333,.T.);
#450=ORIENTED_EDGE('',*,*,#334,.F.);
#451=ORIENTED_EDGE('',*,*,#333,.F.);
#452=ORIENTED_EDGE('',*,*,#335,.T.);
#453=ORIENTED_EDGE('',*,*,#332,.T.);
#454=ORIENTED_EDGE('',*,*,#336,.F.);
#455=ORIENTED_EDGE('',*,*,#337,.T.);
#456=ORIENTED_EDGE('',*,*,#338,.F.);
#457=ORIENTED_EDGE('',*,*,#337,.F.);
#458=ORIENTED_EDGE('',*,*,#339,.T.);
#459=ORIENTED_EDGE('',*,*,#336,.T.);
#460=ORIENTED_EDGE('',*,*,#334,.T.);
#461=ORIENTED_EDGE('',*,*,#326,.T.);
#462=ORIENTED_EDGE('',*,*,#338,.T.);
#463=ORIENTED_EDGE('',*,*,#330,.T.);
#464=ORIENTED_EDGE('',*,*,#331,.F.);
#465=ORIENTED_EDGE('',*,*,#340,.T.);
#466=ORIENTED_EDGE('',*,*,#341,.F.);
#467=ORIENTED_EDGE('',*,*,#340,.F.);
#468=ORIENTED_EDGE('',*,*,#288,.T.);
#469=ORIENTED_EDGE('',*,*,#294,.T.);
#470=ORIENTED_EDGE('',*,*,#281,.T.);
#471=ORIENTED_EDGE('',*,*,#295,.T.);
#472=ORIENTED_EDGE('',*,*,#342,.T.);
#473=ORIENTED_EDGE('',*,*,#343,.T.);
#474=ORIENTED_EDGE('',*,*,#344,.T.);
#475=ORIENTED_EDGE('',*,*,#341,.T.);
#476=ORIENTED_EDGE('',*,*,#339,.F.);
#477=ORIENTED_EDGE('',*,*,#345,.T.);
#478=ORIENTED_EDGE('',*,*,#342,.F.);
#479=ORIENTED_EDGE('',*,*,#345,.F.);
#480=ORIENTED_EDGE('',*,*,#335,.F.);
#481=ORIENTED_EDGE('',*,*,#346,.T.);
#482=ORIENTED_EDGE('',*,*,#344,.F.);
#483=ORIENTED_EDGE('',*,*,#346,.F.);
#484=ORIENTED_EDGE('',*,*,#327,.F.);
#485=ORIENTED_EDGE('',*,*,#347,.T.);
#486=ORIENTED_EDGE('',*,*,#343,.F.);
#487=ORIENTED_EDGE('',*,*,#347,.F.);
#488=ORIENTED_EDGE('',*,*,#348,.T.);
#489=ORIENTED_EDGE('',*,*,#349,.T.);
#490=ORIENTED_EDGE('',*,*,#350,.T.);
#491=ORIENTED_EDGE('',*,*,#349,.F.);
#492=ORIENTED_EDGE('',*,*,#350,.F.);
#493=ORIENTED_EDGE('',*,*,#351,.T.);
#494=ORIENTED_EDGE('',*,*,#321,.F.);
#495=ORIENTED_EDGE('',*,*,#351,.F.);
#496=ORIENTED_EDGE('',*,*,#352,.F.);
#497=ORIENTED_EDGE('',*,*,#353,.T.);
#498=ORIENTED_EDGE('',*,*,#348,.F.);
#499=ORIENTED_EDGE('',*,*,#353,.F.);
#500=ORIENTED_EDGE('',*,*,#323,.F.);
#501=ORIENTED_EDGE('',*,*,#306,.T.);
#502=ORIENTED_EDGE('',*,*,#352,.T.);
#503=ORIENTED_EDGE('',*,*,#354,.F.);
#504=ORIENTED_EDGE('',*,*,#354,.T.);
#505=ORIENTED_EDGE('',*,*,#355,.T.);
#506=ORIENTED_EDGE('',*,*,#356,.F.);
#507=ORIENTED_EDGE('',*,*,#355,.F.);
#508=ORIENTED_EDGE('',*,*,#356,.T.);
#509=ORIENTED_EDGE('',*,*,#357,.T.);
#510=ORIENTED_EDGE('',*,*,#286,.F.);
#511=ORIENTED_EDGE('',*,*,#357,.F.);
#512=B_SPLINE_SURFACE_WITH_KNOTS('',3,3,((#794,#795,#796,#797,#798,#799,
#800,#801,#802,#803,#804,#805,#806),(#807,#808,#809,#810,#811,#812,#813,
#814,#815,#816,#817,#818,#819),(#820,#821,#822,#823,#824,#825,#826,#827,
#828,#829,#830,#831,#832),(#833,#834,#835,#836,#837,#838,#839,#840,#841,
#842,#843,#844,#845)),.UNSPECIFIED.,.F.,.F.,.F.,(4,4),(4,1,1,1,1,1,1,1,
1,1,4),(0.,1.),(-7.83688923528361,-7.68249608982408,-7.52810294436455,-7.21931665344549,
-6.60174407160737,-5.98417148976926,-5.36659890793114,-4.74902632609302,
-4.13145374425491,-3.82266745333585,-3.51388116241679),.UNSPECIFIED.);
#513=B_SPLINE_SURFACE_WITH_KNOTS('',3,3,((#982,#983,#984,#985,#986,#987,
#988,#989,#990,#991,#992,#993,#994),(#995,#996,#997,#998,#999,#1000,#1001,
#1002,#1003,#1004,#1005,#1006,#1007),(#1008,#1009,#1010,#1011,#1012,#1013,
#1014,#1015,#1016,#1017,#1018,#1019,#1020),(#1021,#1022,#1023,#1024,#1025,
#1026,#1027,#1028,#1029,#1030,#1031,#1032,#1033)),.UNSPECIFIED.,.F.,.F.,
 .F.,(4,4),(4,1,1,1,1,1,1,1,1,1,4),(0.,1.),(-18.1475144525064,-17.9242054726988,
-17.7008964928913,-17.2542785332762,-16.361042614046,-15.4678066948158,
-14.5745707755857,-13.6813348563555,-12.7880989371253,-12.3414809775102,
-11.8948630178951),.UNSPECIFIED.);
#514=B_SPLINE_SURFACE_WITH_KNOTS('',3,3,((#1064,#1065,#1066,#1067,#1068,
#1069,#1070,#1071,#1072,#1073),(#1074,#1075,#1076,#1077,#1078,#1079,#1080,
#1081,#1082,#1083),(#1084,#1085,#1086,#1087,#1088,#1089,#1090,#1091,#1092,
#1093),(#1094,#1095,#1096,#1097,#1098,#1099,#1100,#1101,#1102,#1103)),
 .UNSPECIFIED.,.F.,.F.,.F.,(4,4),(4,1,1,1,1,1,1,4),(0.,1.),(-13.1173572365966,
-12.4164330031177,-11.7155087696388,-10.3136603026809,-9.61273606920198,
-8.91181183572305,-8.56134971898359,-8.21088760224413),.UNSPECIFIED.);
#515=B_SPLINE_SURFACE_WITH_KNOTS('',3,3,((#1138,#1139,#1140,#1141),(#1142,
#1143,#1144,#1145),(#1146,#1147,#1148,#1149),(#1150,#1151,#1152,#1153)),
 .UNSPECIFIED.,.F.,.F.,.F.,(4,4),(4,4),(0.,1.),(-8.21088760224391,-8.09239309481307),
 .UNSPECIFIED.);
#516=ADVANCED_FACE('',(#93),#512,.F.);
#517=ADVANCED_FACE('',(#94),#79,.F.);
#518=ADVANCED_FACE('',(#95),#28,.T.);
#519=ADVANCED_FACE('',(#96),#80,.F.);
#520=ADVANCED_FACE('',(#97),#513,.T.);
#521=ADVANCED_FACE('',(#98),#514,.T.);
#522=ADVANCED_FACE('',(#99),#515,.T.);
#523=ADVANCED_FACE('',(#100),#81,.F.);
#524=ADVANCED_FACE('',(#101),#27,.F.);
#525=ADVANCED_FACE('',(#102),#29,.F.);
#526=ADVANCED_FACE('',(#103),#82,.T.);
#527=ADVANCED_FACE('',(#104),#83,.F.);
#528=ADVANCED_FACE('',(#105,#18),#30,.T.);
#529=ADVANCED_FACE('',(#106),#84,.F.);
#530=ADVANCED_FACE('',(#107,#19),#31,.T.);
#531=ADVANCED_FACE('',(#108),#85,.F.);
#532=ADVANCED_FACE('',(#109,#20),#32,.T.);
#533=ADVANCED_FACE('',(#110),#86,.F.);
#534=ADVANCED_FACE('',(#111,#21),#33,.T.);
#535=ADVANCED_FACE('',(#112),#34,.T.);
#536=ADVANCED_FACE('',(#113),#35,.T.);
#537=ADVANCED_FACE('',(#114),#36,.T.);
#538=ADVANCED_FACE('',(#115),#37,.T.);
#539=ADVANCED_FACE('',(#116),#87,.T.);
#540=ADVANCED_FACE('',(#117,#22,#23,#24,#25),#38,.T.);
#541=ADVANCED_FACE('',(#118),#88,.T.);
#542=ADVANCED_FACE('',(#119),#89,.T.);
#543=ADVANCED_FACE('',(#120),#90,.T.);
#544=ADVANCED_FACE('',(#121),#17,.F.);
#545=ADVANCED_FACE('',(#122),#15,.T.);
#546=ADVANCED_FACE('',(#123),#91,.T.);
#547=ADVANCED_FACE('',(#124),#39,.T.);
#548=ADVANCED_FACE('',(#125,#26),#40,.T.);
#549=ADVANCED_FACE('',(#126),#92,.F.);
#550=ADVANCED_FACE('',(#127),#16,.F.);
#551=CLOSED_SHELL('',(#516,#517,#518,#519,#520,#521,#522,#523,#524,#525,
#526,#527,#528,#529,#530,#531,#532,#533,#534,#535,#536,#537,#538,#539,#540,
#541,#542,#543,#544,#545,#546,#547,#548,#549,#550));
#552=DERIVED_UNIT_ELEMENT(#554,1.);
#553=DERIVED_UNIT_ELEMENT(#1301,-3.);
#554=(
MASS_UNIT()
NAMED_UNIT(*)
SI_UNIT(.KILO.,.GRAM.)
);
#555=DERIVED_UNIT((#552,#553));
#556=MEASURE_REPRESENTATION_ITEM('density measure',
POSITIVE_RATIO_MEASURE(7850.),#555);
#557=PROPERTY_DEFINITION_REPRESENTATION(#562,#559);
#558=PROPERTY_DEFINITION_REPRESENTATION(#563,#560);
#559=REPRESENTATION('material name',(#561),#1298);
#560=REPRESENTATION('density',(#556),#1298);
#561=DESCRIPTIVE_REPRESENTATION_ITEM('Steel','Steel');
#562=PROPERTY_DEFINITION('material property','material name',#1308);
#563=PROPERTY_DEFINITION('material property','density of part',#1308);
#564=AXIS2_PLACEMENT_3D('',#793,#634,#635);
#565=AXIS2_PLACEMENT_3D('',#891,#636,#637);
#566=AXIS2_PLACEMENT_3D('',#902,#638,#639);
#567=AXIS2_PLACEMENT_3D('',#904,#640,#641);
#568=AXIS2_PLACEMENT_3D('',#908,#643,#644);
#569=AXIS2_PLACEMENT_3D('',#945,#647,#648);
#570=AXIS2_PLACEMENT_3D('',#946,#649,#650);
#571=AXIS2_PLACEMENT_3D('',#948,#652,#653);
#572=AXIS2_PLACEMENT_3D('',#949,#654,#655);
#573=AXIS2_PLACEMENT_3D('',#977,#657,#658);
#574=AXIS2_PLACEMENT_3D('',#1062,#659,#660);
#575=AXIS2_PLACEMENT_3D('',#1063,#661,#662);
#576=AXIS2_PLACEMENT_3D('',#1130,#663,#664);
#577=AXIS2_PLACEMENT_3D('',#1132,#665,#666);
#578=AXIS2_PLACEMENT_3D('',#1133,#667,#668);
#579=AXIS2_PLACEMENT_3D('',#1155,#669,#670);
#580=AXIS2_PLACEMENT_3D('',#1160,#671,#672);
#581=AXIS2_PLACEMENT_3D('',#1170,#675,#676);
#582=AXIS2_PLACEMENT_3D('',#1183,#677,#678);
#583=AXIS2_PLACEMENT_3D('',#1185,#679,#680);
#584=AXIS2_PLACEMENT_3D('',#1186,#681,#682);
#585=AXIS2_PLACEMENT_3D('',#1187,#683,#684);
#586=AXIS2_PLACEMENT_3D('',#1188,#685,#686);
#587=AXIS2_PLACEMENT_3D('',#1189,#687,#688);
#588=AXIS2_PLACEMENT_3D('',#1190,#689,#690);
#589=AXIS2_PLACEMENT_3D('',#1191,#691,#692);
#590=AXIS2_PLACEMENT_3D('',#1193,#693,#694);
#591=AXIS2_PLACEMENT_3D('',#1196,#696,#697);
#592=AXIS2_PLACEMENT_3D('',#1197,#698,#699);
#593=AXIS2_PLACEMENT_3D('',#1199,#700,#701);
#594=AXIS2_PLACEMENT_3D('',#1200,#702,#703);
#595=AXIS2_PLACEMENT_3D('',#1202,#704,#705);
#596=AXIS2_PLACEMENT_3D('',#1205,#707,#708);
#597=AXIS2_PLACEMENT_3D('',#1206,#709,#710);
#598=AXIS2_PLACEMENT_3D('',#1208,#711,#712);
#599=AXIS2_PLACEMENT_3D('',#1209,#713,#714);
#600=AXIS2_PLACEMENT_3D('',#1211,#715,#716);
#601=AXIS2_PLACEMENT_3D('',#1214,#718,#719);
#602=AXIS2_PLACEMENT_3D('',#1215,#720,#721);
#603=AXIS2_PLACEMENT_3D('',#1217,#722,#723);
#604=AXIS2_PLACEMENT_3D('',#1218,#724,#725);
#605=AXIS2_PLACEMENT_3D('',#1220,#726,#727);
#606=AXIS2_PLACEMENT_3D('',#1223,#729,#730);
#607=AXIS2_PLACEMENT_3D('',#1224,#731,#732);
#608=AXIS2_PLACEMENT_3D('',#1226,#733,#734);
#609=AXIS2_PLACEMENT_3D('',#1227,#735,#736);
#610=AXIS2_PLACEMENT_3D('',#1228,#737,#738);
#611=AXIS2_PLACEMENT_3D('',#1229,#739,#740);
#612=AXIS2_PLACEMENT_3D('',#1230,#741,#742);
#613=AXIS2_PLACEMENT_3D('',#1231,#743,#744);
#614=AXIS2_PLACEMENT_3D('',#1234,#746,#747);
#615=AXIS2_PLACEMENT_3D('',#1235,#748,#749);
#616=AXIS2_PLACEMENT_3D('',#1237,#750,#751);
#617=AXIS2_PLACEMENT_3D('',#1239,#752,#753);
#618=AXIS2_PLACEMENT_3D('',#1241,#754,#755);
#619=AXIS2_PLACEMENT_3D('',#1242,#756,#757);
#620=AXIS2_PLACEMENT_3D('',#1244,#759,#760);
#621=AXIS2_PLACEMENT_3D('',#1246,#762,#763);
#622=AXIS2_PLACEMENT_3D('',#1276,#765,#766);
#623=AXIS2_PLACEMENT_3D('',#1278,#767,#768);
#624=AXIS2_PLACEMENT_3D('',#1279,#769,#770);
#625=AXIS2_PLACEMENT_3D('',#1280,#771,#772);
#626=AXIS2_PLACEMENT_3D('',#1282,#774,#775);
#627=AXIS2_PLACEMENT_3D('',#1284,#776,#777);
#628=AXIS2_PLACEMENT_3D('',#1286,#779,#780);
#629=AXIS2_PLACEMENT_3D('',#1287,#781,#782);
#630=AXIS2_PLACEMENT_3D('',#1289,#783,#784);
#631=AXIS2_PLACEMENT_3D('',#1290,#785,#786);
#632=AXIS2_PLACEMENT_3D('',#1293,#788,#789);
#633=AXIS2_PLACEMENT_3D('',#1294,#790,#791);
#634=DIRECTION('axis',(0.,0.,1.));
#635=DIRECTION('refdir',(1.,0.,0.));
#636=DIRECTION('center_axis',(0.707106781186548,-0.707106781186548,0.));
#637=DIRECTION('ref_axis',(0.,0.,1.));
#638=DIRECTION('center_axis',(6.00084639566905E-17,0.,1.));
#639=DIRECTION('ref_axis',(1.,0.,0.));
#640=DIRECTION('center_axis',(6.00084639566905E-17,0.,1.));
#641=DIRECTION('ref_axis',(1.,0.,-6.00084639566905E-17));
#642=DIRECTION('',(-6.00084639566905E-17,0.,-1.));
#643=DIRECTION('center_axis',(6.00084639566905E-17,0.,1.));
#644=DIRECTION('ref_axis',(1.,0.,-6.00084639566905E-17));
#645=DIRECTION('',(-6.00084639566905E-17,0.,-1.));
#646=DIRECTION('',(-6.00084639566905E-17,0.,-1.));
#647=DIRECTION('center_axis',(6.00084639566905E-17,0.,1.));
#648=DIRECTION('ref_axis',(1.,0.,-6.00084639566905E-17));
#649=DIRECTION('center_axis',(-0.707106781186548,0.707106781186548,0.));
#650=DIRECTION('ref_axis',(0.,0.,1.));
#651=DIRECTION('',(0.707106781186548,0.707106781186548,-4.24323917923644E-17));
#652=DIRECTION('center_axis',(-0.707106781186548,0.707106781186548,0.));
#653=DIRECTION('ref_axis',(0.,0.,1.));
#654=DIRECTION('center_axis',(0.707106781186548,-0.707106781186548,0.));
#655=DIRECTION('ref_axis',(0.,0.,1.));
#656=DIRECTION('',(0.707106781186548,-0.707106781186548,0.));
#657=DIRECTION('center_axis',(-0.707106781186548,0.707106781186548,0.));
#658=DIRECTION('ref_axis',(0.,0.,1.));
#659=DIRECTION('center_axis',(0.420715764672765,0.103569583357913,-0.901261109090412));
#660=DIRECTION('ref_axis',(-0.239038153167261,0.97101017570898,-6.79684054516717E-11));
#661=DIRECTION('center_axis',(0.707106781186548,-0.707106781186548,0.));
#662=DIRECTION('ref_axis',(0.,0.,1.));
#663=DIRECTION('center_axis',(0.1336883377731,0.0948868392739905,0.986470433452548));
#664=DIRECTION('ref_axis',(-0.578792621476676,0.815474770501305,9.03669903764662E-17));
#665=DIRECTION('center_axis',(0.707106781186548,-0.707106781186548,0.));
#666=DIRECTION('ref_axis',(0.,0.,1.));
#667=DIRECTION('center_axis',(0.707106781186548,-0.707106781186548,0.));
#668=DIRECTION('ref_axis',(0.,0.,1.));
#669=DIRECTION('center_axis',(2.71184128480891E-15,1.81953583227206E-15,
1.));
#670=DIRECTION('ref_axis',(-0.57952807507842,0.814952274796445,8.87532941197436E-17));
#671=DIRECTION('center_axis',(2.19341428268517E-16,2.19341428268517E-16,
-1.));
#672=DIRECTION('ref_axis',(0.707106781186547,-0.707106781186547,0.));
#673=DIRECTION('',(2.19341428268517E-16,2.19341428268517E-16,-1.));
#674=DIRECTION('',(-2.19341428268517E-16,-2.19341428268517E-16,1.));
#675=DIRECTION('center_axis',(6.00084639566905E-17,0.,1.));
#676=DIRECTION('ref_axis',(1.,0.,-6.00386322579922E-17));
#677=DIRECTION('center_axis',(6.00084639566905E-17,0.,1.));
#678=DIRECTION('ref_axis',(-1.,1.22464679914735E-16,6.88510402868314E-17));
#679=DIRECTION('center_axis',(1.22464679914735E-16,-1.,-7.34891733063103E-33));
#680=DIRECTION('ref_axis',(-1.,-1.22464679914735E-16,6.00249746983339E-17));
#681=DIRECTION('center_axis',(-4.07134470028259E-16,-1.3571149000942E-16,
-1.));
#682=DIRECTION('ref_axis',(-1.,-1.50670020914645E-32,4.07134470028259E-16));
#683=DIRECTION('center_axis',(6.00084639566905E-17,0.,1.));
#684=DIRECTION('ref_axis',(-1.,1.22464679914735E-16,6.88510402868314E-17));
#685=DIRECTION('center_axis',(-0.707106781186548,0.707106781186548,0.));
#686=DIRECTION('ref_axis',(0.,0.,1.));
#687=DIRECTION('center_axis',(6.00084639566905E-17,0.,1.));
#688=DIRECTION('ref_axis',(-0.422383237692567,0.906417343455179,8.53550332516751E-17));
#689=DIRECTION('center_axis',(6.00084639566905E-17,0.,1.));
#690=DIRECTION('ref_axis',(1.,0.,-6.00084639566905E-17));
#691=DIRECTION('center_axis',(0.,0.,1.));
#692=DIRECTION('ref_axis',(-1.,0.,0.));
#693=DIRECTION('center_axis',(0.,0.,-1.));
#694=DIRECTION('ref_axis',(-1.,0.,0.));
#695=DIRECTION('',(0.,0.,-1.));
#696=DIRECTION('center_axis',(6.00084639566905E-17,0.,1.));
#697=DIRECTION('ref_axis',(-1.,0.,0.));
#698=DIRECTION('center_axis',(0.,0.,1.));
#699=DIRECTION('ref_axis',(-1.,0.,0.));
#700=DIRECTION('center_axis',(0.,0.,1.));
#701=DIRECTION('ref_axis',(-1.,0.,0.));
#702=DIRECTION('center_axis',(0.,0.,1.));
#703=DIRECTION('ref_axis',(2.22044604925031E-16,-1.,0.));
#704=DIRECTION('center_axis',(0.,0.,-1.));
#705=DIRECTION('ref_axis',(2.22044604925031E-16,-1.,0.));
#706=DIRECTION('',(0.,0.,-1.));
#707=DIRECTION('center_axis',(6.00084639566905E-17,0.,1.));
#708=DIRECTION('ref_axis',(2.22044604925031E-16,-1.,0.));
#709=DIRECTION('center_axis',(0.,0.,1.));
#710=DIRECTION('ref_axis',(-1.,0.,0.));
#711=DIRECTION('center_axis',(0.,0.,1.));
#712=DIRECTION('ref_axis',(-1.,0.,0.));
#713=DIRECTION('center_axis',(0.,0.,1.));
#714=DIRECTION('ref_axis',(1.,-1.22464679914735E-16,0.));
#715=DIRECTION('center_axis',(0.,0.,-1.));
#716=DIRECTION('ref_axis',(1.,-1.22464679914735E-16,0.));
#717=DIRECTION('',(0.,0.,-1.));
#718=DIRECTION('center_axis',(6.00084639566905E-17,0.,1.));
#719=DIRECTION('ref_axis',(1.,-1.22464679914735E-16,0.));
#720=DIRECTION('center_axis',(0.,0.,1.));
#721=DIRECTION('ref_axis',(-1.,0.,0.));
#722=DIRECTION('center_axis',(0.,0.,1.));
#723=DIRECTION('ref_axis',(-1.,0.,0.));
#724=DIRECTION('center_axis',(0.,0.,1.));
#725=DIRECTION('ref_axis',(2.22044604925031E-16,1.,0.));
#726=DIRECTION('center_axis',(0.,0.,-1.));
#727=DIRECTION('ref_axis',(2.22044604925031E-16,1.,0.));
#728=DIRECTION('',(0.,0.,-1.));
#729=DIRECTION('center_axis',(6.00084639566905E-17,0.,1.));
#730=DIRECTION('ref_axis',(2.22044604925031E-16,1.,0.));
#731=DIRECTION('center_axis',(0.,0.,1.));
#732=DIRECTION('ref_axis',(-1.,0.,0.));
#733=DIRECTION('center_axis',(0.,0.,1.));
#734=DIRECTION('ref_axis',(-1.,0.,0.));
#735=DIRECTION('center_axis',(6.00084639566905E-17,0.,1.));
#736=DIRECTION('ref_axis',(1.,0.,-6.00084639566905E-17));
#737=DIRECTION('center_axis',(6.00084639566905E-17,0.,1.));
#738=DIRECTION('ref_axis',(1.,0.,-6.00084639566905E-17));
#739=DIRECTION('center_axis',(6.00084639566905E-17,0.,1.));
#740=DIRECTION('ref_axis',(1.,0.,-6.00084639566905E-17));
#741=DIRECTION('center_axis',(6.00084639566905E-17,0.,1.));
#742=DIRECTION('ref_axis',(1.,0.,-6.00084639566905E-17));
#743=DIRECTION('center_axis',(0.,0.,1.));
#744=DIRECTION('ref_axis',(-1.,0.,0.));
#745=DIRECTION('',(0.,0.,-1.));
#746=DIRECTION('center_axis',(-6.00084639566905E-17,0.,-1.));
#747=DIRECTION('ref_axis',(-1.,0.,0.));
#748=DIRECTION('center_axis',(6.00084639566905E-17,0.,1.));
#749=DIRECTION('ref_axis',(1.,0.,-6.00084639566905E-17));
#750=DIRECTION('center_axis',(-6.00084639566905E-17,0.,-1.));
#751=DIRECTION('ref_axis',(-1.,0.,0.));
#752=DIRECTION('center_axis',(-6.00084639566905E-17,0.,-1.));
#753=DIRECTION('ref_axis',(-1.,0.,0.));
#754=DIRECTION('center_axis',(-6.00084639566905E-17,0.,-1.));
#755=DIRECTION('ref_axis',(-1.,0.,0.));
#756=DIRECTION('center_axis',(0.,0.,1.));
#757=DIRECTION('ref_axis',(-1.,0.,0.));
#758=DIRECTION('',(0.,0.,-1.));
#759=DIRECTION('center_axis',(0.,0.,1.));
#760=DIRECTION('ref_axis',(-1.,0.,0.));
#761=DIRECTION('',(0.,0.,-1.));
#762=DIRECTION('center_axis',(0.,0.,1.));
#763=DIRECTION('ref_axis',(-1.,0.,0.));
#764=DIRECTION('',(0.,0.,-1.));
#765=DIRECTION('center_axis',(-6.00084639566905E-17,0.,-1.));
#766=DIRECTION('ref_axis',(1.,0.,-6.00084639566905E-17));
#767=DIRECTION('center_axis',(1.22464679914735E-16,-1.,-7.34891733063103E-33));
#768=DIRECTION('ref_axis',(-1.,-1.22464679914735E-16,0.));
#769=DIRECTION('center_axis',(6.00084639566905E-17,0.,1.));
#770=DIRECTION('ref_axis',(1.,0.,-6.72587665942622E-17));
#771=DIRECTION('center_axis',(6.00084639566905E-17,0.,1.));
#772=DIRECTION('ref_axis',(1.,0.,0.));
#773=DIRECTION('',(0.0307546757869819,3.7663615261342E-18,-0.999526963076653));
#774=DIRECTION('center_axis',(6.00084639566905E-17,0.,1.));
#775=DIRECTION('ref_axis',(1.,0.,0.));
#776=DIRECTION('center_axis',(6.00084639566905E-17,0.,1.));
#777=DIRECTION('ref_axis',(1.,0.,0.));
#778=DIRECTION('',(-6.00084639566905E-17,0.,-1.));
#779=DIRECTION('center_axis',(-6.00084639566905E-17,0.,-1.));
#780=DIRECTION('ref_axis',(-1.,0.,6.00084639566905E-17));
#781=DIRECTION('center_axis',(6.00084639566905E-17,0.,1.));
#782=DIRECTION('ref_axis',(1.,0.,-6.00084639566905E-17));
#783=DIRECTION('center_axis',(-6.00084639566905E-17,0.,-1.));
#784=DIRECTION('ref_axis',(1.,0.,0.));
#785=DIRECTION('center_axis',(6.00084639566905E-17,0.,1.));
#786=DIRECTION('ref_axis',(1.,0.,0.));
#787=DIRECTION('',(-6.00084639566905E-17,0.,-1.));
#788=DIRECTION('center_axis',(6.00084639566905E-17,0.,1.));
#789=DIRECTION('ref_axis',(1.,0.,-6.00084639566905E-17));
#790=DIRECTION('center_axis',(6.00084639566905E-17,0.,1.));
#791=DIRECTION('ref_axis',(1.,0.,0.));
#792=DIRECTION('',(0.0307546757869739,3.76636152613322E-18,-0.999526963076654));
#793=CARTESIAN_POINT('',(0.,0.,0.));
#794=CARTESIAN_POINT('Ctrl Pts',(27.8040390595096,-57.0487745388818,15.1108290127303));
#795=CARTESIAN_POINT('Ctrl Pts',(27.8040396303979,-57.0487741119878,15.1108250767618));
#796=CARTESIAN_POINT('Ctrl Pts',(27.6958712615069,-57.1569424808788,15.0187649595977));
#797=CARTESIAN_POINT('Ctrl Pts',(27.3101407881364,-57.5426729542493,14.6496938821445));
#798=CARTESIAN_POINT('Ctrl Pts',(26.5465308292073,-58.3062829131784,13.7418599791814));
#799=CARTESIAN_POINT('Ctrl Pts',(25.6624233373734,-59.1903904050123,12.0619726585628));
#800=CARTESIAN_POINT('Ctrl Pts',(25.0730246493446,-59.7797890930411,9.61375889517466));
#801=CARTESIAN_POINT('Ctrl Pts',(25.0741335918807,-59.778680150505,6.95906039311191));
#802=CARTESIAN_POINT('Ctrl Pts',(25.6599333023913,-59.1928804399944,4.50658150242954));
#803=CARTESIAN_POINT('Ctrl Pts',(26.5538211508197,-58.2989925915659,2.82054631046051));
#804=CARTESIAN_POINT('Ctrl Pts',(27.4155306297272,-57.4372831126585,1.79257590192005));
#805=CARTESIAN_POINT('Ctrl Pts',(27.8040396303979,-57.0487741119878,1.45912016120837));
#806=CARTESIAN_POINT('Ctrl Pts',(27.8040390595096,-57.0487745388818,1.45911622523986));
#807=CARTESIAN_POINT('Ctrl Pts',(28.4694617306323,-56.3833520117534,15.6860351666123));
#808=CARTESIAN_POINT('Ctrl Pts',(28.402171347016,-56.4160401517247,15.8281292449633));
#809=CARTESIAN_POINT('Ctrl Pts',(28.1375194098072,-56.5660306218545,16.0045600077601));
#810=CARTESIAN_POINT('Ctrl Pts',(27.3917630313516,-56.9980131603082,16.0244811535456));
#811=CARTESIAN_POINT('Ctrl Pts',(25.949274151912,-57.816392590734,15.453197632437));
#812=CARTESIAN_POINT('Ctrl Pts',(24.1671300705538,-58.7698875306314,13.5650052828342));
#813=CARTESIAN_POINT('Ctrl Pts',(22.928370341321,-59.4037118674701,10.2003696917227));
#814=CARTESIAN_POINT('Ctrl Pts',(22.9297936582307,-59.4031445346104,6.37395923108103));
#815=CARTESIAN_POINT('Ctrl Pts',(24.1641317787656,-58.7717275787101,3.00114813899199));
#816=CARTESIAN_POINT('Ctrl Pts',(25.959040958679,-57.8102116436251,1.1114312035869));
#817=CARTESIAN_POINT('Ctrl Pts',(27.5943405617941,-56.8839566155327,0.463071792112578));
#818=CARTESIAN_POINT('Ctrl Pts',(28.3343221168609,-56.4489997666512,0.598541823540392));
#819=CARTESIAN_POINT('Ctrl Pts',(28.4694617306323,-56.3833520117534,0.883910071357908));
#820=CARTESIAN_POINT('Ctrl Pts',(29.2221044813791,-55.8205471432048,16.2789297079422));
#821=CARTESIAN_POINT('Ctrl Pts',(29.0872620452498,-55.8898407884724,16.5679432689838));
#822=CARTESIAN_POINT('Ctrl Pts',(28.6748976716833,-56.1020620423885,17.0255296785891));
#823=CARTESIAN_POINT('Ctrl Pts',(27.5903880374309,-56.6437948336568,17.4701461608074));
#824=CARTESIAN_POINT('Ctrl Pts',(25.475136815455,-57.6459130410497,17.3090736624453));
#825=CARTESIAN_POINT('Ctrl Pts',(22.690834084713,-58.8097826021147,15.2472758148696));
#826=CARTESIAN_POINT('Ctrl Pts',(20.6884141153636,-59.5466174327818,10.8618235639841));
#827=CARTESIAN_POINT('Ctrl Pts',(20.6904214819454,-59.5462909971209,5.71403202609363));
#828=CARTESIAN_POINT('Ctrl Pts',(22.6875448426139,-58.8120074856383,1.31533249962214));
#829=CARTESIAN_POINT('Ctrl Pts',(25.4867158358153,-57.639842712442,-0.741744402677664));
#830=CARTESIAN_POINT('Ctrl Pts',(27.8897634093944,-56.5026966327406,-0.926458084219546));
#831=CARTESIAN_POINT('Ctrl Pts',(28.9512997428831,-55.9597099173638,-0.289411849262338));
#832=CARTESIAN_POINT('Ctrl Pts',(29.2221044813791,-55.8205471432048,0.291015530027983));
#833=CARTESIAN_POINT('Ctrl Pts',(30.039563710243,-55.37711271002,16.8718598075643));
#834=CARTESIAN_POINT('Ctrl Pts',(29.8383637639102,-55.486254525304,17.307804939071));
#835=CARTESIAN_POINT('Ctrl Pts',(29.2881084212316,-55.7818011816757,18.0465781964905));
#836=CARTESIAN_POINT('Ctrl Pts',(27.8933944202097,-56.498788349501,18.916043799574));
#837=CARTESIAN_POINT('Ctrl Pts',(25.1507848051956,-57.8108480232661,19.1657137687789));
#838=CARTESIAN_POINT('Ctrl Pts',(21.3800525425962,-59.3068052677466,16.930911221811));
#839=CARTESIAN_POINT('Ctrl Pts',(18.6017604071718,-60.1925980002255,11.5239130054428));
#840=CARTESIAN_POINT('Ctrl Pts',(18.6043731851437,-60.1922264829581,5.05347943215473));
#841=CARTESIAN_POINT('Ctrl Pts',(21.3768235563164,-59.3103806344663,-0.371902700175154));
#842=CARTESIAN_POINT('Ctrl Pts',(25.1636164893119,-57.8037886800298,-2.59566902801584));
#843=CARTESIAN_POINT('Ctrl Pts',(28.2832977007717,-56.3128151872812,-2.31612709924655));
#844=CARTESIAN_POINT('Ctrl Pts',(29.6354928523136,-55.5963027632064,-1.17742535629527));
#845=CARTESIAN_POINT('Ctrl Pts',(30.039563710243,-55.37711271002,-0.301914569594066));
#846=CARTESIAN_POINT('',(21.754820864811,-59.1253273723064,-0.00169587751732125));
#847=CARTESIAN_POINT('',(28.6191559769981,-56.2336577653876,1.08431608309488E-9));
#848=CARTESIAN_POINT('Ctrl Pts',(21.7559348113966,-59.1242699784299,-1.12357986821842E-15));
#849=CARTESIAN_POINT('Ctrl Pts',(22.7306421170825,-58.7656073072386,-1.12098942701808E-15));
#850=CARTESIAN_POINT('Ctrl Pts',(23.6845238329244,-58.4588917594889,-3.22575825945868E-15));
#851=CARTESIAN_POINT('Ctrl Pts',(25.0400444042455,-57.9820801878559,-3.38503710262428E-15));
#852=CARTESIAN_POINT('Ctrl Pts',(25.5043822273417,-57.8110075872841,-2.6600144921963E-14));
#853=CARTESIAN_POINT('Ctrl Pts',(26.3274002609916,-57.4720661903627,-2.6681728468386E-14));
#854=CARTESIAN_POINT('Ctrl Pts',(26.6845103329404,-57.3120388456712,-4.40331387254016E-15));
#855=CARTESIAN_POINT('Ctrl Pts',(27.16200180599,-57.0739686543742,-4.45370819538237E-15));
#856=CARTESIAN_POINT('Ctrl Pts',(27.2820727155118,-57.0120147651278,-1.6574023778276E-15));
#857=CARTESIAN_POINT('Ctrl Pts',(27.4736778466477,-56.909766429593,-1.67009360430348E-15));
#858=CARTESIAN_POINT('Ctrl Pts',(27.5450514210869,-56.8709152823042,-1.93832138112732E-15));
#859=CARTESIAN_POINT('Ctrl Pts',(27.6785628582634,-56.7968552299639,-1.94688552819858E-15));
#860=CARTESIAN_POINT('Ctrl Pts',(27.7404708816331,-56.7619481996252,-1.66032306096614E-15));
#861=CARTESIAN_POINT('Ctrl Pts',(27.8798824337148,-56.6821428985777,-1.67162407541985E-15));
#862=CARTESIAN_POINT('Ctrl Pts',(27.9567645088004,-56.6372950056475,-4.99251191420224E-15));
#863=CARTESIAN_POINT('Ctrl Pts',(28.1692786800976,-56.5113334718697,-5.00215603167244E-15));
#864=CARTESIAN_POINT('Ctrl Pts',(28.3012818626508,-56.4308633816312,-2.23188043243939E-15));
#865=CARTESIAN_POINT('Ctrl Pts',(28.4972464618689,-56.309658550272,-2.21522894958684E-15));
#866=CARTESIAN_POINT('Ctrl Pts',(28.5582022743794,-56.2717131173738,9.71445146547012E-16));
#867=CARTESIAN_POINT('Ctrl Pts',(28.6191559768939,-56.2336577652209,9.71445146547012E-16));
#868=CARTESIAN_POINT('',(28.8428622279003,-56.0097258132713,18.299544376081));
#869=CARTESIAN_POINT('Ctrl Pts',(21.7544212895034,-59.1257066620218,-0.00230419284366365));
#870=CARTESIAN_POINT('Ctrl Pts',(21.7268373023316,-59.1358934902871,0.0274235007499677));
#871=CARTESIAN_POINT('Ctrl Pts',(20.4733560910671,-59.5977506237587,1.39608431018621));
#872=CARTESIAN_POINT('Ctrl Pts',(18.6043731851437,-60.1922264829581,5.05347943215473));
#873=CARTESIAN_POINT('Ctrl Pts',(18.6017604071718,-60.1925980002255,11.5239130054428));
#874=CARTESIAN_POINT('Ctrl Pts',(21.3800525425962,-59.3068052677466,16.930911221811));
#875=CARTESIAN_POINT('Ctrl Pts',(25.1507848051956,-57.8108480232661,19.1657137687789));
#876=CARTESIAN_POINT('Ctrl Pts',(27.7297356793544,-56.5770824067229,18.9309422643667));
#877=CARTESIAN_POINT('Ctrl Pts',(28.6456299843966,-56.1112701186321,18.4349685081742));
#878=CARTESIAN_POINT('Ctrl Pts',(28.8428622279003,-56.0097258132713,18.299544376081));
#879=CARTESIAN_POINT('',(27.8040396303979,-57.0487741119878,15.1108250767618));
#880=CARTESIAN_POINT('Ctrl Pts',(27.8040396303979,-57.0487741119878,15.1108250767618));
#881=CARTESIAN_POINT('Ctrl Pts',(27.8052747515774,-57.0475389908083,15.1118927511964));
#882=CARTESIAN_POINT('Ctrl Pts',(27.8065087519243,-57.0463049904614,15.1129630265079));
#883=CARTESIAN_POINT('Ctrl Pts',(27.9667885638192,-56.8860251785665,15.2524399588485));
#884=CARTESIAN_POINT('Ctrl Pts',(28.126641972003,-56.7261717703827,15.4508398080243));
#885=CARTESIAN_POINT('Ctrl Pts',(28.4093939393634,-56.4434198030223,15.9571795394647));
#886=CARTESIAN_POINT('Ctrl Pts',(28.520155979165,-56.3326577632142,16.2335381273302));
#887=CARTESIAN_POINT('Ctrl Pts',(28.7571933840075,-56.0956203583718,17.0370110859368));
#888=CARTESIAN_POINT('Ctrl Pts',(28.8433291639867,-56.009484578399,17.6391263956722));
#889=CARTESIAN_POINT('Ctrl Pts',(28.8433291639867,-56.009484578399,18.3004053073755));
#890=CARTESIAN_POINT('',(27.8040396303979,-57.0487741119878,1.45912016120837));
#891=CARTESIAN_POINT('Origin',(30.7542716742093,-54.0985420681764,8.2849726189851));
#892=CARTESIAN_POINT('Ctrl Pts',(28.6191559772635,-56.2336577651222,1.23549240282905E-9));
#893=CARTESIAN_POINT('Ctrl Pts',(28.6147474436132,-56.2380662987725,0.0154984581950986));
#894=CARTESIAN_POINT('Ctrl Pts',(28.6102800349421,-56.2425337074277,0.0309184116814037));
#895=CARTESIAN_POINT('Ctrl Pts',(28.5201555768343,-56.3326581655355,0.336409005083836));
#896=CARTESIAN_POINT('Ctrl Pts',(28.4093917321121,-56.4434220102736,0.612771466500318));
#897=CARTESIAN_POINT('Ctrl Pts',(28.1266359207363,-56.7261778216494,1.11911434377046));
#898=CARTESIAN_POINT('Ctrl Pts',(27.9667812916173,-56.8860324507684,1.31751361684335));
#899=CARTESIAN_POINT('Ctrl Pts',(27.8065033570694,-57.0463103853163,1.45698689052012));
#900=CARTESIAN_POINT('Ctrl Pts',(27.8052720517044,-57.0475416906813,1.45805482062205));
#901=CARTESIAN_POINT('Ctrl Pts',(27.8040396303979,-57.0487741119878,1.45912016120837));
#902=CARTESIAN_POINT('Origin',(9.60135423307048E-16,0.,16.));
#903=CARTESIAN_POINT('',(-63.,-7.71527483462833E-15,32.));
#904=CARTESIAN_POINT('Origin',(1.9202708466141E-15,0.,32.));
#905=CARTESIAN_POINT('',(-63.,-7.71527483462833E-15,-6.66133814775094E-15));
#906=CARTESIAN_POINT('',(-63.,-7.71527483462833E-15,16.));
#907=CARTESIAN_POINT('',(28.8433291639867,-56.009484578399,1.41236047236029E-15));
#908=CARTESIAN_POINT('Origin',(2.26863992025809E-31,0.,3.7805332292715E-15));
#909=CARTESIAN_POINT('',(28.8433291639867,-56.009484578399,2.92805210013773));
#910=CARTESIAN_POINT('',(28.8433291639867,-56.009484578399,16.));
#911=CARTESIAN_POINT('',(31.3192739441849,-54.6635443381519,2.2849726189851));
#912=CARTESIAN_POINT('Ctrl Pts',(28.8433291639867,-56.009484578399,2.92805210013774));
#913=CARTESIAN_POINT('Ctrl Pts',(28.9603285822808,-55.9492331270733,2.86482244785174));
#914=CARTESIAN_POINT('Ctrl Pts',(29.0792281786173,-55.8875381752371,2.80592578900984));
#915=CARTESIAN_POINT('Ctrl Pts',(29.8916849677685,-55.4625757070574,2.43908557005608));
#916=CARTESIAN_POINT('Ctrl Pts',(30.6328621736243,-55.0568214031683,2.2849726189851));
#917=CARTESIAN_POINT('Ctrl Pts',(31.3192739441849,-54.6635443381519,2.2849726189851));
#918=CARTESIAN_POINT('',(36.4943328658085,-51.353321885537,8.2849726189851));
#919=CARTESIAN_POINT('Ctrl Pts',(31.3192739441849,-54.6635443381519,2.2849726189851));
#920=CARTESIAN_POINT('Ctrl Pts',(31.9914364665893,-54.2784313267458,2.2849726189851));
#921=CARTESIAN_POINT('Ctrl Pts',(32.7023524311557,-53.8529339966767,2.43336854018156));
#922=CARTESIAN_POINT('Ctrl Pts',(33.9972114097797,-53.0449994886298,3.04879787317137));
#923=CARTESIAN_POINT('Ctrl Pts',(34.581484680902,-52.6633090056562,3.51611638245692));
#924=CARTESIAN_POINT('Ctrl Pts',(35.483150514614,-52.0598840373388,4.58977119646983));
#925=CARTESIAN_POINT('Ctrl Pts',(35.8653926974016,-51.7954505874658,5.26033022219673));
#926=CARTESIAN_POINT('Ctrl Pts',(36.3707213083546,-51.441867439241,6.73209029387157));
#927=CARTESIAN_POINT('Ctrl Pts',(36.4943328658085,-51.353321885537,7.53325607049314));
#928=CARTESIAN_POINT('Ctrl Pts',(36.4943328658085,-51.353321885537,8.2849726189851));
#929=CARTESIAN_POINT('',(28.8433291639867,-56.009484578399,13.6418931378325));
#930=CARTESIAN_POINT('Ctrl Pts',(36.4943328658085,-51.353321885537,8.2849726189851));
#931=CARTESIAN_POINT('Ctrl Pts',(36.4943328658085,-51.353321885537,9.03668916747707));
#932=CARTESIAN_POINT('Ctrl Pts',(36.3707213083546,-51.441867439241,9.83785494409863));
#933=CARTESIAN_POINT('Ctrl Pts',(35.8653926974016,-51.7954505874658,11.3096150157735));
#934=CARTESIAN_POINT('Ctrl Pts',(35.483150514614,-52.0598840373388,11.9801740415004));
#935=CARTESIAN_POINT('Ctrl Pts',(34.581484680902,-52.6633090056562,13.0538288555133));
#936=CARTESIAN_POINT('Ctrl Pts',(33.9972114097797,-53.0449994886298,13.5211473647988));
#937=CARTESIAN_POINT('Ctrl Pts',(32.7023524311557,-53.8529339966767,14.1365766977886));
#938=CARTESIAN_POINT('Ctrl Pts',(31.9914364665893,-54.2784313267458,14.2849726189851));
#939=CARTESIAN_POINT('Ctrl Pts',(30.6328621736243,-55.0568214031683,14.2849726189851));
#940=CARTESIAN_POINT('Ctrl Pts',(29.8916849677685,-55.4625757070574,14.1308596679141));
#941=CARTESIAN_POINT('Ctrl Pts',(29.0792281786173,-55.8875381752371,13.7640194489604));
#942=CARTESIAN_POINT('Ctrl Pts',(28.9603285822808,-55.9492331270733,13.7051227901185));
#943=CARTESIAN_POINT('Ctrl Pts',(28.8433291639867,-56.009484578399,13.6418931378325));
#944=CARTESIAN_POINT('',(28.8433291639867,-56.009484578399,16.));
#945=CARTESIAN_POINT('Origin',(2.26863992025809E-31,0.,3.7805332292715E-15));
#946=CARTESIAN_POINT('Origin',(30.7542716742093,-54.0985420681764,8.2849726189851));
#947=CARTESIAN_POINT('',(36.5903392727011,-48.2624744696846,-1.66533453693773E-15));
#948=CARTESIAN_POINT('Origin',(30.7542716742093,-54.0985420681764,8.2849726189851));
#949=CARTESIAN_POINT('Origin',(-11.6721351969835,-11.6721351969835,8.2849726189851));
#950=CARTESIAN_POINT('',(32.8914511013052,-56.2357214952723,2.2849726189851));
#951=CARTESIAN_POINT('',(-11.6721351969835,-11.6721351969835,2.2849726189851));
#952=CARTESIAN_POINT('',(36.9881525325178,-52.8460774155956,5.46055844153261));
#953=CARTESIAN_POINT('Ctrl Pts',(36.9881525325177,-52.8460774155956,5.46055844153254));
#954=CARTESIAN_POINT('Ctrl Pts',(36.7555679380198,-53.0154317515224,4.92787210051043));
#955=CARTESIAN_POINT('Ctrl Pts',(36.4597172563961,-53.2346695713083,4.44490060621755));
#956=CARTESIAN_POINT('Ctrl Pts',(35.7115885510393,-53.8082090240361,3.5103400891577));
#957=CARTESIAN_POINT('Ctrl Pts',(35.1800322648014,-54.2292786552945,3.04893397585859));
#958=CARTESIAN_POINT('Ctrl Pts',(34.0452612073399,-55.1842142657019,2.43621170426078));
#959=CARTESIAN_POINT('Ctrl Pts',(33.4427348864629,-55.7189474759793,2.2849726189851));
#960=CARTESIAN_POINT('Ctrl Pts',(32.8914511013052,-56.2357214952723,2.2849726189851));
#961=CARTESIAN_POINT('',(34.6403594321537,-54.4550949973513,13.7412709929977));
#962=CARTESIAN_POINT('Ctrl Pts',(34.6403594321614,-54.4550949973464,13.7412709929936));
#963=CARTESIAN_POINT('Ctrl Pts',(34.7497514855481,-54.3850770049153,13.6832431908151));
#964=CARTESIAN_POINT('Ctrl Pts',(34.8573319010221,-54.3157154973563,13.6206639467965));
#965=CARTESIAN_POINT('Ctrl Pts',(35.4857575541678,-53.9077571902746,13.2213429304919));
#966=CARTESIAN_POINT('Ctrl Pts',(35.9505035953848,-53.5942434258356,12.7842351540058));
#967=CARTESIAN_POINT('Ctrl Pts',(36.7667507306341,-53.0306385384256,11.6805936977044));
#968=CARTESIAN_POINT('Ctrl Pts',(37.0933980539877,-52.7965271293433,11.0070052383772));
#969=CARTESIAN_POINT('Ctrl Pts',(37.5164718702053,-52.4885617858173,9.53620038282357));
#970=CARTESIAN_POINT('Ctrl Pts',(37.6067738399453,-52.419419384115,8.75349429122032));
#971=CARTESIAN_POINT('Ctrl Pts',(37.5378415847191,-52.4625205289169,7.24121355448083));
#972=CARTESIAN_POINT('Ctrl Pts',(37.3955189385487,-52.5624388747682,6.52511881264032));
#973=CARTESIAN_POINT('Ctrl Pts',(37.0999154415817,-52.7684074864838,5.72312627496874));
#974=CARTESIAN_POINT('Ctrl Pts',(37.0460143936137,-52.8059152158219,5.59046891888205));
#975=CARTESIAN_POINT('Ctrl Pts',(36.9881525325177,-52.8460774155955,5.46055844153263));
#976=CARTESIAN_POINT('',(31.8936764799088,-57.2017779495962,2.44787712952996));
#977=CARTESIAN_POINT('Origin',(32.875592017769,-56.219862411736,8.2849726189851));
#978=CARTESIAN_POINT('Ctrl Pts',(32.8914511013052,-56.2357214952723,2.2849726189851));
#979=CARTESIAN_POINT('Ctrl Pts',(32.560865487254,-56.5456128091349,2.2849726189851));
#980=CARTESIAN_POINT('Ctrl Pts',(32.2219114186506,-56.8735430108544,2.33744584157186));
#981=CARTESIAN_POINT('Ctrl Pts',(31.8936764799136,-57.2017779495914,2.44787712952833));
#982=CARTESIAN_POINT('Ctrl Pts',(31.720937917387,-57.3745184584541,16.1165481739215));
#983=CARTESIAN_POINT('Ctrl Pts',(31.7209350451051,-57.3745193843999,16.1165455485413));
#984=CARTESIAN_POINT('Ctrl Pts',(31.5894609799473,-57.5059934495577,16.0790426658685));
#985=CARTESIAN_POINT('Ctrl Pts',(31.1265952806445,-57.9688591488606,15.9092136227356));
#986=CARTESIAN_POINT('Ctrl Pts',(30.2229333916791,-58.8725210378259,15.4232147778245));
#987=CARTESIAN_POINT('Ctrl Pts',(29.2046924637965,-59.8907619657085,14.4659383169205));
#988=CARTESIAN_POINT('Ctrl Pts',(28.3691812519127,-60.7262731775923,13.2097464180176));
#989=CARTESIAN_POINT('Ctrl Pts',(27.7726802884485,-61.3227741410565,11.8552477267664));
#990=CARTESIAN_POINT('Ctrl Pts',(27.3693927466341,-61.7260616828708,10.3549489069352));
#991=CARTESIAN_POINT('Ctrl Pts',(27.2083630117227,-61.8870914177823,8.913740590712));
#992=CARTESIAN_POINT('Ctrl Pts',(27.2213010464381,-61.8741533830669,7.72597309575605));
#993=CARTESIAN_POINT('Ctrl Pts',(27.2726255252279,-61.8228289042771,7.14629163921458));
#994=CARTESIAN_POINT('Ctrl Pts',(27.3088568192068,-61.7865976102982,6.86267923920115));
#995=CARTESIAN_POINT('Ctrl Pts',(33.4051323953355,-55.6903220341695,16.6131686997978));
#996=CARTESIAN_POINT('Ctrl Pts',(33.3793267405081,-55.7066066350825,16.85921417711));
#997=CARTESIAN_POINT('Ctrl Pts',(33.1923987291025,-55.8412224452309,17.3078062963529));
#998=CARTESIAN_POINT('Ctrl Pts',(32.551828894367,-56.2925480805473,18.0178748264001));
#999=CARTESIAN_POINT('Ctrl Pts',(31.1666440719429,-57.2196065455344,18.7654659635846));
#1000=CARTESIAN_POINT('Ctrl Pts',(29.1649713621769,-58.4187427567483,18.8453506690942));
#1001=CARTESIAN_POINT('Ctrl Pts',(27.0249100093969,-59.5769931488125,17.9091406723567));
#1002=CARTESIAN_POINT('Ctrl Pts',(25.1362530106128,-60.5397662541858,16.0311916580543));
#1003=CARTESIAN_POINT('Ctrl Pts',(23.6088981424711,-61.2792704933736,13.1424794866675));
#1004=CARTESIAN_POINT('Ctrl Pts',(22.9213920850969,-61.5932983797195,9.82544314365957));
#1005=CARTESIAN_POINT('Ctrl Pts',(22.961733685687,-61.5649641294561,7.01727730731037));
#1006=CARTESIAN_POINT('Ctrl Pts',(23.1655004478596,-61.4636981231782,5.6780291655807));
#1007=CARTESIAN_POINT('Ctrl Pts',(23.307555241168,-61.3934950158431,5.04001412654562));
#1008=CARTESIAN_POINT('Ctrl Pts',(35.234805778743,-54.1532748046112,17.1153044673463));
#1009=CARTESIAN_POINT('Ctrl Pts',(35.1851375448199,-54.1888521984869,17.6109994058537));
#1010=CARTESIAN_POINT('Ctrl Pts',(34.9576306148671,-54.3440186306289,18.5537914034147));
#1011=CARTESIAN_POINT('Ctrl Pts',(34.188334519291,-54.8448722873504,20.1675931449564));
#1012=CARTESIAN_POINT('Ctrl Pts',(32.4174911885262,-55.9366186843595,22.2099515851462));
#1013=CARTESIAN_POINT('Ctrl Pts',(29.4922955772346,-57.5406633924256,23.4393582746977));
#1014=CARTESIAN_POINT('Ctrl Pts',(25.9599008582323,-59.2048680664469,22.8925766423966));
#1015=CARTESIAN_POINT('Ctrl Pts',(22.6171113741092,-60.5702170463915,20.4526050536103));
#1016=CARTESIAN_POINT('Ctrl Pts',(19.837922133478,-61.550684671133,16.0621319192941));
#1017=CARTESIAN_POINT('Ctrl Pts',(18.5875523056948,-61.934408437133,10.7738972389484));
#1018=CARTESIAN_POINT('Ctrl Pts',(18.6567718137658,-61.8964214195204,6.27549019579976));
#1019=CARTESIAN_POINT('Ctrl Pts',(19.024381633756,-61.7685982849901,4.13928288051335));
#1020=CARTESIAN_POINT('Ctrl Pts',(19.2811634840766,-61.6791335332779,3.12763831045578));
#1021=CARTESIAN_POINT('Ctrl Pts',(37.1837085300685,-52.7854266387154,17.6157497134439));
#1022=CARTESIAN_POINT('Ctrl Pts',(37.1120099891538,-52.8434089095765,18.3609916307486));
#1023=CARTESIAN_POINT('Ctrl Pts',(36.8564615848718,-53.0386732412411,19.7976376736196));
#1024=CARTESIAN_POINT('Ctrl Pts',(36.0002866109842,-53.6573417599281,22.3141076115988));
#1025=CARTESIAN_POINT('Ctrl Pts',(33.9296450468659,-55.0684592846746,25.6487910498854));
#1026=CARTESIAN_POINT('Ctrl Pts',(30.16391904896,-57.3026525515713,28.0243912133292));
#1027=CARTESIAN_POINT('Ctrl Pts',(25.2348304850286,-59.6322971695744,27.8656517392136));
#1028=CARTESIAN_POINT('Ctrl Pts',(20.3639096771498,-61.4116972373475,24.8649950413991));
#1029=CARTESIAN_POINT('Ctrl Pts',(16.2465715410186,-62.5263383868391,18.9759537432683));
#1030=CARTESIAN_POINT('Ctrl Pts',(14.3951791702709,-62.8956322919662,11.7191692911577));
#1031=CARTESIAN_POINT('Ctrl Pts',(14.4955256785629,-62.8539448437332,5.53219673815567));
#1032=CARTESIAN_POINT('Ctrl Pts',(15.0384171323677,-62.7235904069308,2.5998552719612));
#1033=CARTESIAN_POINT('Ctrl Pts',(15.4179608812454,-62.6301563327473,1.21497697988968));
#1034=CARTESIAN_POINT('',(34.322451514032,-54.7731171560696,24.7123701447578));
#1035=CARTESIAN_POINT('',(31.7209350451051,-57.3745193843999,16.1165455485413));
#1036=CARTESIAN_POINT('Ctrl Pts',(31.7209350451051,-57.3745193843999,16.1165455485413));
#1037=CARTESIAN_POINT('Ctrl Pts',(31.7255924376772,-57.3698619918278,16.1179188846147));
#1038=CARTESIAN_POINT('Ctrl Pts',(31.7302460861065,-57.3652083433985,16.1193503353619));
#1039=CARTESIAN_POINT('Ctrl Pts',(31.8515547190673,-57.2438997104376,16.1581015909787));
#1040=CARTESIAN_POINT('Ctrl Pts',(32.0208038136922,-57.0746506158128,16.2469196768327));
#1041=CARTESIAN_POINT('Ctrl Pts',(32.3812112964475,-56.7142431330575,16.565992500249));
#1042=CARTESIAN_POINT('Ctrl Pts',(32.530089826765,-56.56536460274,16.7349209203969));
#1043=CARTESIAN_POINT('Ctrl Pts',(32.9388169245269,-56.1566375049781,17.2825243413836));
#1044=CARTESIAN_POINT('Ctrl Pts',(33.2084294900885,-55.8870249394165,17.7663303972711));
#1045=CARTESIAN_POINT('Ctrl Pts',(33.6171841321876,-55.4782702973174,18.7974996881088));
#1046=CARTESIAN_POINT('Ctrl Pts',(33.7571406314647,-55.3383137980403,19.2455326406447));
#1047=CARTESIAN_POINT('Ctrl Pts',(34.222776717644,-54.872677711861,21.0992157818538));
#1048=CARTESIAN_POINT('Ctrl Pts',(34.3945911314552,-54.7008632980498,22.7942810237187));
#1049=CARTESIAN_POINT('Ctrl Pts',(34.323303545188,-54.7721508843169,24.7136201576133));
#1050=CARTESIAN_POINT('',(15.4179608811861,-62.6301563327618,1.21497697988917));
#1051=CARTESIAN_POINT('Ctrl Pts',(34.3220479368047,-54.7735748450543,24.7117780575738));
#1052=CARTESIAN_POINT('Ctrl Pts',(33.0640199967954,-55.5818939221967,26.19411070062));
#1053=CARTESIAN_POINT('Ctrl Pts',(30.1026256277204,-57.3316217792608,28.0224172813683));
#1054=CARTESIAN_POINT('Ctrl Pts',(25.2348304850286,-59.6322971695744,27.8656517392136));
#1055=CARTESIAN_POINT('Ctrl Pts',(20.3639096771498,-61.4116972373475,24.8649950413991));
#1056=CARTESIAN_POINT('Ctrl Pts',(16.2465715410186,-62.5263383868391,18.9759537432683));
#1057=CARTESIAN_POINT('Ctrl Pts',(14.3951791702709,-62.8956322919662,11.7191692911577));
#1058=CARTESIAN_POINT('Ctrl Pts',(14.4955256785629,-62.8539448437332,5.53219673815567));
#1059=CARTESIAN_POINT('Ctrl Pts',(15.0384171323677,-62.7235904069308,2.5998552719612));
#1060=CARTESIAN_POINT('Ctrl Pts',(15.4179608812454,-62.6301563327473,1.21497697988968));
#1061=CARTESIAN_POINT('',(27.3088568191286,-61.7865976103764,6.86267923981277));
#1062=CARTESIAN_POINT('Origin',(25.6966014673784,-104.383593888248,1.21497698281181));
#1063=CARTESIAN_POINT('Origin',(32.875592017769,-56.219862411736,8.2849726189851));
#1064=CARTESIAN_POINT('Ctrl Pts',(27.3088568191286,-61.7865976103764,6.86267923981281));
#1065=CARTESIAN_POINT('Ctrl Pts',(27.365157268148,-61.7302971613569,6.42196891120533));
#1066=CARTESIAN_POINT('Ctrl Pts',(27.528223195452,-61.567231234053,5.56981292766332));
#1067=CARTESIAN_POINT('Ctrl Pts',(28.0180061663092,-61.0774482631957,4.04505978689016));
#1068=CARTESIAN_POINT('Ctrl Pts',(28.7515152769927,-60.3439391525123,2.67221513713421));
#1069=CARTESIAN_POINT('Ctrl Pts',(29.8714205873598,-59.2240338421452,1.43881746133666));
#1070=CARTESIAN_POINT('Ctrl Pts',(30.816376072285,-58.27907835722,0.789022113054604));
#1071=CARTESIAN_POINT('Ctrl Pts',(31.6471608053233,-57.4482936241817,0.460047797919156));
#1072=CARTESIAN_POINT('Ctrl Pts',(31.9609469823723,-57.1345074471326,0.390237099764173));
#1073=CARTESIAN_POINT('Ctrl Pts',(31.960950774148,-57.134506187489,0.390236910727645));
#1074=CARTESIAN_POINT('Ctrl Pts',(23.3075552408615,-61.3934950159915,5.04001412790013));
#1075=CARTESIAN_POINT('Ctrl Pts',(23.5284128235799,-61.2864697862923,4.06407785446241));
#1076=CARTESIAN_POINT('Ctrl Pts',(24.1575999005113,-60.9800764852421,2.26483959839531));
#1077=CARTESIAN_POINT('Ctrl Pts',(25.859555983803,-60.1237872585305,-0.44573561190073));
#1078=CARTESIAN_POINT('Ctrl Pts',(27.9906100796881,-59.0053813558348,-1.99352066142323));
#1079=CARTESIAN_POINT('Ctrl Pts',(30.3969985214779,-57.6153205405428,-2.34672525498432));
#1080=CARTESIAN_POINT('Ctrl Pts',(32.0126546587627,-56.589946431477,-1.9410739602417));
#1081=CARTESIAN_POINT('Ctrl Pts',(33.1906912638284,-55.7799187490152,-1.05298348306498));
#1082=CARTESIAN_POINT('Ctrl Pts',(33.5869512372655,-55.4936749610426,-0.375196823788702));
#1083=CARTESIAN_POINT('Ctrl Pts',(33.6204281498885,-55.4750262796165,0.00571852849412594));
#1084=CARTESIAN_POINT('Ctrl Pts',(19.2811634835225,-61.679133533468,3.12763831259418));
#1085=CARTESIAN_POINT('Ctrl Pts',(19.6804880808459,-61.5421637714644,1.58686999800963));
#1086=CARTESIAN_POINT('Ctrl Pts',(20.8189921266536,-61.1442238509714,-1.22049038175055));
#1087=CARTESIAN_POINT('Ctrl Pts',(23.8777736976158,-59.982053536365,-5.21930501294877));
#1088=CARTESIAN_POINT('Ctrl Pts',(27.569487498559,-58.3676377901079,-6.93320331326047));
#1089=CARTESIAN_POINT('Ctrl Pts',(31.2590018123035,-56.4609954414939,-6.28461463298857));
#1090=CARTESIAN_POINT('Ctrl Pts',(33.4641591408867,-55.1888686584563,-4.74163039913012));
#1091=CARTESIAN_POINT('Ctrl Pts',(34.9056866066567,-54.2892054068603,-2.59002305893278));
#1092=CARTESIAN_POINT('Ctrl Pts',(35.3543256209335,-53.9967525022467,-1.15139553100663));
#1093=CARTESIAN_POINT('Ctrl Pts',(35.419038805676,-53.955957033999,-0.384149160578073));
#1094=CARTESIAN_POINT('Ctrl Pts',(15.4179608804272,-62.6301563329489,1.21497698281211));
#1095=CARTESIAN_POINT('Ctrl Pts',(16.0077406298688,-62.4849674712667,-0.890742190919485));
#1096=CARTESIAN_POINT('Ctrl Pts',(17.6896999344123,-62.0507138941729,-4.70644391625633));
#1097=CARTESIAN_POINT('Ctrl Pts',(22.1925337723236,-60.6596965459391,-9.99405727873127));
#1098=CARTESIAN_POINT('Ctrl Pts',(27.5039107857641,-58.4689399267605,-11.873930533983));
#1099=CARTESIAN_POINT('Ctrl Pts',(32.4186384814545,-55.80911576524,-10.222874765946));
#1100=CARTESIAN_POINT('Ctrl Pts',(35.130317617312,-54.1141181348321,-7.54229416531613));
#1101=CARTESIAN_POINT('Ctrl Pts',(36.762456943627,-53.0017983032144,-4.12707845536753));
#1102=CARTESIAN_POINT('Ctrl Pts',(37.2383226206653,-52.6646993684303,-1.92760495659992));
#1103=CARTESIAN_POINT('Ctrl Pts',(37.3321240852456,-52.5981226973342,-0.77402176746565));
#1104=CARTESIAN_POINT('',(37.2541501666498,-52.6533787649065,-1.49999999983866));
#1105=CARTESIAN_POINT('',(16.3559673265938,-62.3917649438722,-1.49999999999996));
#1106=CARTESIAN_POINT('Ctrl Pts',(16.3559673265939,-62.3917649438722,-1.5));
#1107=CARTESIAN_POINT('Ctrl Pts',(18.8742037281991,-61.7316106375731,-1.5));
#1108=CARTESIAN_POINT('Ctrl Pts',(21.2608008720428,-61.2627979828667,-1.49999999999957));
#1109=CARTESIAN_POINT('Ctrl Pts',(24.42722956125,-60.5293258251093,-1.49999999999957));
#1110=CARTESIAN_POINT('Ctrl Pts',(25.5088537627778,-60.2492882000114,-1.5));
#1111=CARTESIAN_POINT('Ctrl Pts',(27.617391987708,-59.5304308859657,-1.5));
#1112=CARTESIAN_POINT('Ctrl Pts',(28.6120744503669,-59.0891781188344,-1.5));
#1113=CARTESIAN_POINT('Ctrl Pts',(30.1721679172505,-58.1605922491095,-1.5));
#1114=CARTESIAN_POINT('Ctrl Pts',(30.7017866858755,-57.7977338995798,-1.49999999998525));
#1115=CARTESIAN_POINT('Ctrl Pts',(31.5037753182092,-57.1985318877633,-1.49999999998525));
#1116=CARTESIAN_POINT('Ctrl Pts',(31.7753772482372,-56.9865079353026,-1.49999999999999));
#1117=CARTESIAN_POINT('Ctrl Pts',(32.3048925833464,-56.5624288167623,-1.49999999999999));
#1118=CARTESIAN_POINT('Ctrl Pts',(32.5653414284084,-56.3486641138248,-1.49999999997532));
#1119=CARTESIAN_POINT('Ctrl Pts',(33.2525154026922,-55.780014434692,-1.49999999997532));
#1120=CARTESIAN_POINT('Ctrl Pts',(33.7095808512463,-55.3967374869137,-1.5));
#1121=CARTESIAN_POINT('Ctrl Pts',(35.2661320995311,-54.1211368094521,-1.5));
#1122=CARTESIAN_POINT('Ctrl Pts',(36.1900026827673,-53.4063012001592,-1.5));
#1123=CARTESIAN_POINT('Ctrl Pts',(37.2541501666066,-52.6533787649371,-1.5));
#1124=CARTESIAN_POINT('',(37.3321240852456,-52.5981226973342,-0.774021767465642));
#1125=CARTESIAN_POINT('Ctrl Pts',(37.2536911398667,-52.653697393062,-1.49907531717881));
#1126=CARTESIAN_POINT('Ctrl Pts',(37.2859263627376,-52.6308974358351,-1.26024386861187));
#1127=CARTESIAN_POINT('Ctrl Pts',(37.3122577656357,-52.6122230467528,-1.01834047223731));
#1128=CARTESIAN_POINT('Ctrl Pts',(37.3321240852456,-52.5981226973342,-0.77402176746565));
#1129=CARTESIAN_POINT('',(31.9609469823723,-57.1345074471326,0.390237099764172));
#1130=CARTESIAN_POINT('Origin',(62.2202068087427,-87.6635378288904,-0.774021767465646));
#1131=CARTESIAN_POINT('',(31.8936764799087,-57.2017779495963,0.406414137066152));
#1132=CARTESIAN_POINT('Origin',(32.875592017769,-56.219862411736,8.2849726189851));
#1133=CARTESIAN_POINT('Origin',(32.875592017769,-56.219862411736,8.2849726189851));
#1134=CARTESIAN_POINT('Ctrl Pts',(15.4179608812413,-62.6301563327485,1.21497697990555));
#1135=CARTESIAN_POINT('Ctrl Pts',(15.6834211096282,-62.5648067366995,0.267191483642948));
#1136=CARTESIAN_POINT('Ctrl Pts',(15.9997720680337,-62.4848831954639,-0.640507759845191));
#1137=CARTESIAN_POINT('Ctrl Pts',(16.3570894676455,-62.3909897399332,-1.4994484519088));
#1138=CARTESIAN_POINT('Ctrl Pts',(31.9609439246944,-57.1345100259934,0.390237090635613));
#1139=CARTESIAN_POINT('Ctrl Pts',(31.9609469823723,-57.1345074471327,0.390237099764178));
#1140=CARTESIAN_POINT('Ctrl Pts',(31.941424142731,-57.154030286774,0.394512423794783));
#1141=CARTESIAN_POINT('Ctrl Pts',(31.8936764799086,-57.2017779495963,0.406414137066157));
#1142=CARTESIAN_POINT('Ctrl Pts',(33.6204281498885,-55.4750262796165,0.0057185284941326));
#1143=CARTESIAN_POINT('Ctrl Pts',(33.6317469507551,-55.4687210174239,0.134508930049417));
#1144=CARTESIAN_POINT('Ctrl Pts',(33.6232710038172,-55.4775125663078,0.268002179058945));
#1145=CARTESIAN_POINT('Ctrl Pts',(33.5887747812903,-55.5066796482147,0.406414137066216));
#1146=CARTESIAN_POINT('Ctrl Pts',(35.419038805676,-53.955957033999,-0.384149160578065));
#1147=CARTESIAN_POINT('Ctrl Pts',(35.4409188296734,-53.9421637733553,-0.124737279310651));
#1148=CARTESIAN_POINT('Ctrl Pts',(35.4442777466259,-53.9406429726576,0.139702698910526));
#1149=CARTESIAN_POINT('Ctrl Pts',(35.4259319798898,-53.9536843955899,0.406414137066276));
#1150=CARTESIAN_POINT('Ctrl Pts',(37.3321240852456,-52.5981226973342,-0.774021767465641));
#1151=CARTESIAN_POINT('Ctrl Pts',(37.3638390797119,-52.5756126143111,-0.383986445272286));
#1152=CARTESIAN_POINT('Ctrl Pts',(37.3795608425581,-52.5644217243707,0.0114013114721707));
#1153=CARTESIAN_POINT('Ctrl Pts',(37.3795608425581,-52.5644217243707,0.406414137066335));
#1154=CARTESIAN_POINT('',(37.3795608425581,-52.5644217243707,0.406414137066129));
#1155=CARTESIAN_POINT('Origin',(62.2992680709302,-87.6073695406179,0.406414137066125));
#1156=CARTESIAN_POINT('Ctrl Pts',(37.3321240852456,-52.5981226973342,-0.774021767465641));
#1157=CARTESIAN_POINT('Ctrl Pts',(37.3638390797119,-52.5756126143111,-0.383986445272286));
#1158=CARTESIAN_POINT('Ctrl Pts',(37.3795608425581,-52.5644217243707,0.0114013114721707));
#1159=CARTESIAN_POINT('Ctrl Pts',(37.3795608425581,-52.5644217243707,0.406414137066335));
#1160=CARTESIAN_POINT('Origin',(62.2992680709303,-87.6073695406178,15.2384642681651));
#1161=CARTESIAN_POINT('',(37.3795608425582,-52.5644217243707,1.21497697988929));
#1162=CARTESIAN_POINT('Ctrl Pts',(36.988152532512,-52.8460774155997,5.46055844153181));
#1163=CARTESIAN_POINT('Ctrl Pts',(37.1120222917257,-52.7558827883144,4.11155621653468));
#1164=CARTESIAN_POINT('Ctrl Pts',(37.2363262723818,-52.6663851300613,2.76298568807931));
#1165=CARTESIAN_POINT('Ctrl Pts',(37.3672245088778,-52.573196778633,1.34826768327897));
#1166=CARTESIAN_POINT('Ctrl Pts',(37.3733920967298,-52.5688084369501,1.28162232862253));
#1167=CARTESIAN_POINT('Ctrl Pts',(37.3795608425581,-52.5644217243706,1.21497697988954));
#1168=CARTESIAN_POINT('',(31.8936764799088,-57.2017779495962,15.2384642681651));
#1169=CARTESIAN_POINT('',(37.3795608425582,-52.5644217243706,15.2384642681651));
#1170=CARTESIAN_POINT('Origin',(7.29089023058953E-17,0.,1.2149769798893));
#1171=CARTESIAN_POINT('',(34.5924538270658,-54.5030006024392,15.9076211780856));
#1172=CARTESIAN_POINT('Ctrl Pts',(34.3233035451877,-54.7721508843173,24.7136201576264));
#1173=CARTESIAN_POINT('Ctrl Pts',(34.334765361067,-54.760689068438,24.4050234872299));
#1174=CARTESIAN_POINT('Ctrl Pts',(34.3460189184129,-54.749435511092,24.0964469930625));
#1175=CARTESIAN_POINT('Ctrl Pts',(34.4511254824571,-54.6443289470479,21.1597407932708));
#1176=CARTESIAN_POINT('Ctrl Pts',(34.5299195358354,-54.5655348936696,18.5330290464591));
#1177=CARTESIAN_POINT('Ctrl Pts',(34.5924538270656,-54.5030006024394,15.9076211780855));
#1178=CARTESIAN_POINT('Ctrl Pts',(34.5924538270654,-54.5030006024396,15.9076211780855));
#1179=CARTESIAN_POINT('Ctrl Pts',(34.6096561518803,-54.4857982776247,15.185407524825));
#1180=CARTESIAN_POINT('Ctrl Pts',(34.6256300305749,-54.4698243989301,14.4632897797385));
#1181=CARTESIAN_POINT('Ctrl Pts',(34.6403594321533,-54.4550949973517,13.7412709929976));
#1182=CARTESIAN_POINT('',(-64.5,-7.89897185450043E-15,1.2149769798893));
#1183=CARTESIAN_POINT('Origin',(7.29089023058953E-17,0.,1.2149769798893));
#1184=CARTESIAN_POINT('',(-65.4460738466933,-8.01483248531142E-15,62.7243285538531));
#1185=CARTESIAN_POINT('Origin',(-2064.5,-2.52828331683971E-13,1.21497697988942));
#1186=CARTESIAN_POINT('Origin',(0.,-8.01483248531142E-15,62.7243285538531));
#1187=CARTESIAN_POINT('Origin',(7.29089023058953E-17,0.,1.2149769798893));
#1188=CARTESIAN_POINT('Origin',(32.875592017769,-56.219862411736,8.2849726189851));
#1189=CARTESIAN_POINT('Origin',(9.14436833791502E-16,0.,15.2384642681651));
#1190=CARTESIAN_POINT('Origin',(-9.00126959350355E-17,0.,-1.5));
#1191=CARTESIAN_POINT('Origin',(-51.618795026618,0.,2.));
#1192=CARTESIAN_POINT('',(-46.518795026618,6.2456986756515E-16,7.));
#1193=CARTESIAN_POINT('Origin',(-51.618795026618,0.,7.));
#1194=CARTESIAN_POINT('',(-46.518795026618,6.2456986756515E-16,5.));
#1195=CARTESIAN_POINT('',(-46.518795026618,6.2456986756515E-16,2.));
#1196=CARTESIAN_POINT('Origin',(-51.618795026618,0.,5.));
#1197=CARTESIAN_POINT('Origin',(-51.618795026618,0.,7.));
#1198=CARTESIAN_POINT('',(-45.018795026618,8.08266887437253E-16,7.));
#1199=CARTESIAN_POINT('Origin',(-51.618795026618,0.,7.));
#1200=CARTESIAN_POINT('Origin',(-3.09579290104189E-15,-51.618795026618,
2.));
#1201=CARTESIAN_POINT('',(-4.8527902537247E-15,-46.518795026618,7.));
#1202=CARTESIAN_POINT('Origin',(-3.09579290104189E-15,-51.618795026618,
7.));
#1203=CARTESIAN_POINT('',(-4.55274793394125E-15,-46.518795026618,5.));
#1204=CARTESIAN_POINT('',(-4.8527902537247E-15,-46.518795026618,2.));
#1205=CARTESIAN_POINT('Origin',(-2.79575058125844E-15,-51.618795026618,
5.));
#1206=CARTESIAN_POINT('Origin',(-3.33066907387547E-15,-51.618795026618,
7.));
#1207=CARTESIAN_POINT('',(6.6,-51.618795026618,7.));
#1208=CARTESIAN_POINT('Origin',(-3.10132546388934E-15,-51.618795026618,
7.));
#1209=CARTESIAN_POINT('Origin',(51.618795026618,-6.19158580208378E-15,2.));
#1210=CARTESIAN_POINT('',(46.518795026618,-6.19158580208378E-15,7.));
#1211=CARTESIAN_POINT('Origin',(51.618795026618,-6.19158580208378E-15,7.));
#1212=CARTESIAN_POINT('',(46.518795026618,-6.19158580208378E-15,5.));
#1213=CARTESIAN_POINT('',(46.518795026618,-6.19158580208378E-15,2.));
#1214=CARTESIAN_POINT('Origin',(51.618795026618,-6.19158580208378E-15,5.));
#1215=CARTESIAN_POINT('Origin',(51.618795026618,-6.66133814775094E-15,7.));
#1216=CARTESIAN_POINT('',(58.218795026618,-5.38331891464652E-15,7.));
#1217=CARTESIAN_POINT('Origin',(51.618795026618,-6.19158580208378E-15,7.));
#1218=CARTESIAN_POINT('Origin',(9.28737870312566E-15,51.618795026618,2.));
#1219=CARTESIAN_POINT('',(8.77952108557315E-15,46.518795026618,7.));
#1220=CARTESIAN_POINT('Origin',(9.28737870312566E-15,51.618795026618,7.));
#1221=CARTESIAN_POINT('',(9.07956340535661E-15,46.518795026618,5.));
#1222=CARTESIAN_POINT('',(8.77952108557315E-15,46.518795026618,2.));
#1223=CARTESIAN_POINT('Origin',(9.58742102290912E-15,51.618795026618,5.));
#1224=CARTESIAN_POINT('Origin',(8.88178419700125E-15,51.618795026618,7.));
#1225=CARTESIAN_POINT('',(6.60000000000001,51.618795026618,7.));
#1226=CARTESIAN_POINT('Origin',(9.30397639166802E-15,51.618795026618,7.));
#1227=CARTESIAN_POINT('Origin',(0.,0.,5.));
#1228=CARTESIAN_POINT('Origin',(0.,0.,5.));
#1229=CARTESIAN_POINT('Origin',(3.00042319783453E-16,0.,5.));
#1230=CARTESIAN_POINT('Origin',(3.00042319783452E-16,0.,5.));
#1231=CARTESIAN_POINT('Origin',(-3.10132546388934E-15,-51.618795026618,
2.66491113428426E-31));
#1232=CARTESIAN_POINT('',(6.6,-51.618795026618,2.66491113428426E-31));
#1233=CARTESIAN_POINT('',(6.6,-51.618795026618,2.66491113428426E-31));
#1234=CARTESIAN_POINT('Origin',(-3.10132546388934E-15,-51.618795026618,
0.));
#1235=CARTESIAN_POINT('Origin',(0.,0.,0.));
#1236=CARTESIAN_POINT('',(6.60000000000001,51.618795026618,2.66491113428426E-31));
#1237=CARTESIAN_POINT('Origin',(9.30397639166802E-15,51.618795026618,0.));
#1238=CARTESIAN_POINT('',(-45.018795026618,8.08266887437253E-16,2.66491113428426E-31));
#1239=CARTESIAN_POINT('Origin',(-51.618795026618,0.,0.));
#1240=CARTESIAN_POINT('',(58.218795026618,-5.38331891464652E-15,2.66491113428426E-31));
#1241=CARTESIAN_POINT('Origin',(51.618795026618,-6.19158580208378E-15,0.));
#1242=CARTESIAN_POINT('Origin',(9.30397639166802E-15,51.618795026618,2.66491113428426E-31));
#1243=CARTESIAN_POINT('',(6.60000000000001,51.618795026618,2.66491113428426E-31));
#1244=CARTESIAN_POINT('Origin',(51.618795026618,-6.19158580208378E-15,2.66491113428426E-31));
#1245=CARTESIAN_POINT('',(58.218795026618,-5.38331891464652E-15,2.66491113428426E-31));
#1246=CARTESIAN_POINT('Origin',(-51.618795026618,0.,2.66491113428426E-31));
#1247=CARTESIAN_POINT('',(-45.018795026618,8.08266887437253E-16,2.66491113428426E-31));
#1248=CARTESIAN_POINT('Ctrl Pts',(-66.0269630766538,0.,81.603228527567));
#1249=CARTESIAN_POINT('Ctrl Pts',(-66.0269630766538,-66.0269630766538,81.603228527567));
#1250=CARTESIAN_POINT('Ctrl Pts',(4.89688439784608E-15,-66.0269630766538,
81.603228527567));
#1251=CARTESIAN_POINT('Ctrl Pts',(66.0269630766538,-66.0269630766538,81.603228527567));
#1252=CARTESIAN_POINT('Ctrl Pts',(66.0269630766539,0.,81.603228527567));
#1253=CARTESIAN_POINT('Ctrl Pts',(66.0269630766538,66.0269630766538,81.603228527567));
#1254=CARTESIAN_POINT('Ctrl Pts',(4.89688439784608E-15,66.0269630766538,
81.603228527567));
#1255=CARTESIAN_POINT('Ctrl Pts',(-66.0269630766538,66.0269630766538,81.603228527567));
#1256=CARTESIAN_POINT('Ctrl Pts',(-66.0269630766538,0.,81.603228527567));
#1257=CARTESIAN_POINT('Ctrl Pts',(-66.5000000000005,0.,96.9769285363279));
#1258=CARTESIAN_POINT('Ctrl Pts',(-66.5000000000004,-66.5000000000005,96.9769285363279));
#1259=CARTESIAN_POINT('Ctrl Pts',(5.81943652070278E-15,-66.5000000000005,
96.9769285363279));
#1260=CARTESIAN_POINT('Ctrl Pts',(66.5000000000005,-66.5000000000005,96.9769285363279));
#1261=CARTESIAN_POINT('Ctrl Pts',(66.5000000000005,0.,96.9769285363279));
#1262=CARTESIAN_POINT('Ctrl Pts',(66.5000000000005,66.5000000000005,96.9769285363279));
#1263=CARTESIAN_POINT('Ctrl Pts',(5.81943652070278E-15,66.5000000000005,
96.9769285363279));
#1264=CARTESIAN_POINT('Ctrl Pts',(-66.5000000000004,66.5000000000005,96.9769285363279));
#1265=CARTESIAN_POINT('Ctrl Pts',(-66.5000000000005,0.,96.9769285363279));
#1266=CARTESIAN_POINT('Ctrl Pts',(-66.5000000000005,0.,112.357904314549));
#1267=CARTESIAN_POINT('Ctrl Pts',(-66.5000000000004,-66.5000000000005,112.357904314549));
#1268=CARTESIAN_POINT('Ctrl Pts',(6.74242525130888E-15,-66.5000000000005,
112.357904314549));
#1269=CARTESIAN_POINT('Ctrl Pts',(66.5000000000005,-66.5000000000005,112.357904314549));
#1270=CARTESIAN_POINT('Ctrl Pts',(66.5000000000005,0.,112.357904314549));
#1271=CARTESIAN_POINT('Ctrl Pts',(66.5000000000005,66.5000000000005,112.357904314549));
#1272=CARTESIAN_POINT('Ctrl Pts',(6.74242525130888E-15,66.5000000000005,
112.357904314549));
#1273=CARTESIAN_POINT('Ctrl Pts',(-66.5000000000004,66.5000000000005,112.357904314549));
#1274=CARTESIAN_POINT('Ctrl Pts',(-66.5000000000005,0.,112.357904314549));
#1275=CARTESIAN_POINT('',(-66.5000000000005,8.14390121432996E-15,112.357904314549));
#1276=CARTESIAN_POINT('Origin',(6.74242525130888E-15,0.,112.357904314549));
#1277=CARTESIAN_POINT('',(-66.0269630766538,-8.08597089892446E-15,81.6032285275669));
#1278=CARTESIAN_POINT('Origin',(933.5,1.14320778700405E-13,112.357904314549));
#1279=CARTESIAN_POINT('Origin',(4.89688439784608E-15,0.,81.6032285275669));
#1280=CARTESIAN_POINT('Origin',(3.86916144211042E-15,0.,64.4769285363293));
#1281=CARTESIAN_POINT('',(-65.5000000000002,-8.02143653441519E-15,64.4769285363293));
#1282=CARTESIAN_POINT('Origin',(6.45021763379614E-15,0.,107.488464268164));
#1283=CARTESIAN_POINT('',(-66.5000000000001,-8.14390121432991E-15,123.));
#1284=CARTESIAN_POINT('Origin',(7.38104106667293E-15,0.,123.));
#1285=CARTESIAN_POINT('',(-66.5000000000001,-8.14390121432991E-15,107.488464268164));
#1286=CARTESIAN_POINT('Origin',(64.5,0.,-1.5));
#1287=CARTESIAN_POINT('Origin',(65.,0.,123.));
#1288=CARTESIAN_POINT('',(-65.,7.9602041944578E-15,123.));
#1289=CARTESIAN_POINT('Origin',(7.38104106667293E-15,0.,123.));
#1290=CARTESIAN_POINT('Origin',(6.45090987534423E-15,0.,107.5));
#1291=CARTESIAN_POINT('',(-65.,-7.9602041944578E-15,97.));
#1292=CARTESIAN_POINT('',(-65.,-7.9602041944578E-15,107.5));
#1293=CARTESIAN_POINT('Origin',(5.82082100379898E-15,0.,97.));
#1294=CARTESIAN_POINT('Origin',(3.87054592520654E-15,0.,64.5));
#1295=CARTESIAN_POINT('',(-64.,-7.83773951454306E-15,64.5));
#1296=UNCERTAINTY_MEASURE_WITH_UNIT(LENGTH_MEASURE(0.01),#1300,
'DISTANCE_ACCURACY_VALUE',
'Maximum model space distance between geometric entities at asserted c
onnectivities');
#1297=UNCERTAINTY_MEASURE_WITH_UNIT(LENGTH_MEASURE(0.01),#1300,
'DISTANCE_ACCURACY_VALUE',
'Maximum model space distance between geometric entities at asserted c
onnectivities');
#1298=(
GEOMETRIC_REPRESENTATION_CONTEXT(3)
GLOBAL_UNCERTAINTY_ASSIGNED_CONTEXT((#1296))
GLOBAL_UNIT_ASSIGNED_CONTEXT((#1300,#1302,#1303))
REPRESENTATION_CONTEXT('','3D')
);
#1299=(
GEOMETRIC_REPRESENTATION_CONTEXT(3)
GLOBAL_UNCERTAINTY_ASSIGNED_CONTEXT((#1297))
GLOBAL_UNIT_ASSIGNED_CONTEXT((#1300,#1302,#1303))
REPRESENTATION_CONTEXT('','3D')
);
#1300=(
LENGTH_UNIT()
NAMED_UNIT(*)
SI_UNIT(.MILLI.,.METRE.)
);
#1301=(
LENGTH_UNIT()
NAMED_UNIT(*)
SI_UNIT($,.METRE.)
);
#1302=(
NAMED_UNIT(*)
PLANE_ANGLE_UNIT()
SI_UNIT($,.RADIAN.)
);
#1303=(
NAMED_UNIT(*)
SI_UNIT($,.STERADIAN.)
SOLID_ANGLE_UNIT()
);
#1304=SHAPE_DEFINITION_REPRESENTATION(#1305,#1306);
#1305=PRODUCT_DEFINITION_SHAPE('',$,#1308);
#1306=SHAPE_REPRESENTATION('',(#564),#1298);
#1307=PRODUCT_DEFINITION_CONTEXT('part definition',#1312,'design');
#1308=PRODUCT_DEFINITION('Untitled','Untitled v11',#1309,#1307);
#1309=PRODUCT_DEFINITION_FORMATION('',$,#1314);
#1310=PRODUCT_RELATED_PRODUCT_CATEGORY('Untitled v11','Untitled v11',(#1314));
#1311=APPLICATION_PROTOCOL_DEFINITION('international standard',
'automotive_design',2009,#1312);
#1312=APPLICATION_CONTEXT(
'Core Data for Automotive Mechanical Design Process');
#1313=PRODUCT_CONTEXT('part definition',#1312,'mechanical');
#1314=PRODUCT('Untitled','Untitled v11',$,(#1313));
#1315=PRESENTATION_STYLE_ASSIGNMENT((#1317));
#1316=PRESENTATION_STYLE_ASSIGNMENT((#1318));
#1317=SURFACE_STYLE_USAGE(.BOTH.,#1319);
#1318=SURFACE_STYLE_USAGE(.BOTH.,#1320);
#1319=SURFACE_SIDE_STYLE('',(#1321));
#1320=SURFACE_SIDE_STYLE('',(#1322));
#1321=SURFACE_STYLE_FILL_AREA(#1323);
#1322=SURFACE_STYLE_FILL_AREA(#1324);
#1323=FILL_AREA_STYLE('Steel - Satin',(#1325));
#1324=FILL_AREA_STYLE('Acrylic (Clear)',(#1326));
#1325=FILL_AREA_STYLE_COLOUR('Steel - Satin',#1327);
#1326=FILL_AREA_STYLE_COLOUR('Acrylic (Clear)',#1328);
#1327=COLOUR_RGB('Steel - Satin',0.627450980392157,0.627450980392157,0.627450980392157);
#1328=COLOUR_RGB('Acrylic (Clear)',0.964705882352941,0.964705882352941,
0.952941176470588);
ENDSEC;
END-ISO-10303-21;
