ISO-10303-21;
HEADER;
/* Generated by software containing ST-Developer
 * from STEP Tools, Inc. (www.steptools.com) 
 */

FILE_DESCRIPTION(
/* description */ (''),
/* implementation_level */ '2;1');

FILE_NAME(
/* name */ 'Bearing_v4.step',
/* time_stamp */ '2026-08-21T09:19:53-04:00',
/* author */ (''),
/* organization */ (''),
/* preprocessor_version */ 'ST-DEVELOPER v20.1',
/* originating_system */ 'Autodesk Translation Framework v15.8.0.0',
/* authorisation */ '');

FILE_SCHEMA (('AUTOMOTIVE_DESIGN { 1 0 10303 214 3 1 1 }'));
ENDSEC;

DATA;
#10=MECHANICAL_DESIGN_GEOMETRIC_PRESENTATION_REPRESENTATION('',(#19,#20,
#21,#22),#484);
#11=ITEM_DEFINED_TRANSFORMATION($,$,#273,#314);
#12=(
REPRESENTATION_RELATIONSHIP($,$,#495,#494)
REPRESENTATION_RELATIONSHIP_WITH_TRANSFORMATION(#11)
SHAPE_REPRESENTATION_RELATIONSHIP()
);
#13=CONTEXT_DEPENDENT_SHAPE_REPRESENTATION(#12,#493);
#14=NEXT_ASSEMBLY_USAGE_OCCURRENCE('BearingSleeve v5:1',
'BearingSleeve v5:1','BearingSleeve v5:1',#497,#498,
'BearingSleeve v5:1');
#15=SHAPE_REPRESENTATION_RELATIONSHIP('SRR','None',#495,#17);
#16=SHAPE_REPRESENTATION_RELATIONSHIP('SRR','None',#494,#18);
#17=ADVANCED_BREP_SHAPE_REPRESENTATION('',(#23),#483);
#18=ADVANCED_BREP_SHAPE_REPRESENTATION('',(#24),#482);
#19=STYLED_ITEM('',(#510),#23);
#20=STYLED_ITEM('',(#510),#246);
#21=STYLED_ITEM('',(#510),#247);
#22=STYLED_ITEM('',(#509),#24);
#23=MANIFOLD_SOLID_BREP('Body1',#258);
#24=MANIFOLD_SOLID_BREP('Body1',#259);
#25=CYLINDRICAL_SURFACE('',#287,4.);
#26=CYLINDRICAL_SURFACE('',#296,2.);
#27=CYLINDRICAL_SURFACE('',#301,1.5);
#28=CYLINDRICAL_SURFACE('',#303,2.);
#29=CYLINDRICAL_SURFACE('',#305,3.4);
#30=CYLINDRICAL_SURFACE('',#310,3.4);
#31=CYLINDRICAL_SURFACE('',#311,4.);
#32=FACE_BOUND('',#85,.T.);
#33=FACE_BOUND('',#89,.T.);
#34=FACE_BOUND('',#91,.T.);
#35=FACE_BOUND('',#94,.T.);
#36=FACE_BOUND('',#98,.T.);
#37=FACE_BOUND('',#101,.T.);
#38=FACE_BOUND('',#105,.T.);
#39=PLANE('',#285);
#40=PLANE('',#290);
#41=PLANE('',#293);
#42=PLANE('',#298);
#43=PLANE('',#304);
#44=PLANE('',#307);
#45=PLANE('',#313);
#46=LINE('',#422,#54);
#47=LINE('',#433,#55);
#48=LINE('',#449,#56);
#49=LINE('',#458,#57);
#50=LINE('',#460,#58);
#51=LINE('',#465,#59);
#52=LINE('',#472,#60);
#53=LINE('',#476,#61);
#54=VECTOR('',#333,5.30000004842877);
#55=VECTOR('',#348,4.1);
#56=VECTOR('',#369,2.);
#57=VECTOR('',#380,1.5);
#58=VECTOR('',#383,2.);
#59=VECTOR('',#390,3.4);
#60=VECTOR('',#399,3.4);
#61=VECTOR('',#404,4.);
#62=CONICAL_SURFACE('',#279,5.30000004842877,1.56454601266646);
#63=FACE_OUTER_BOUND('',#81,.T.);
#64=FACE_OUTER_BOUND('',#82,.T.);
#65=FACE_OUTER_BOUND('',#83,.T.);
#66=FACE_OUTER_BOUND('',#84,.T.);
#67=FACE_OUTER_BOUND('',#86,.T.);
#68=FACE_OUTER_BOUND('',#87,.T.);
#69=FACE_OUTER_BOUND('',#88,.T.);
#70=FACE_OUTER_BOUND('',#90,.T.);
#71=FACE_OUTER_BOUND('',#92,.T.);
#72=FACE_OUTER_BOUND('',#93,.T.);
#73=FACE_OUTER_BOUND('',#95,.T.);
#74=FACE_OUTER_BOUND('',#96,.T.);
#75=FACE_OUTER_BOUND('',#97,.T.);
#76=FACE_OUTER_BOUND('',#99,.T.);
#77=FACE_OUTER_BOUND('',#100,.T.);
#78=FACE_OUTER_BOUND('',#102,.T.);
#79=FACE_OUTER_BOUND('',#103,.T.);
#80=FACE_OUTER_BOUND('',#104,.T.);
#81=EDGE_LOOP('',(#177,#178,#179,#180,#181));
#82=EDGE_LOOP('',(#182,#183,#184,#185,#186));
#83=EDGE_LOOP('',(#187,#188,#189,#190));
#84=EDGE_LOOP('',(#191));
#85=EDGE_LOOP('',(#192));
#86=EDGE_LOOP('',(#193,#194,#195,#196));
#87=EDGE_LOOP('',(#197,#198,#199,#200));
#88=EDGE_LOOP('',(#201));
#89=EDGE_LOOP('',(#202));
#90=EDGE_LOOP('',(#203));
#91=EDGE_LOOP('',(#204));
#92=EDGE_LOOP('',(#205,#206,#207,#208));
#93=EDGE_LOOP('',(#209));
#94=EDGE_LOOP('',(#210));
#95=EDGE_LOOP('',(#211,#212,#213,#214));
#96=EDGE_LOOP('',(#215,#216,#217,#218));
#97=EDGE_LOOP('',(#219));
#98=EDGE_LOOP('',(#220));
#99=EDGE_LOOP('',(#221,#222,#223,#224));
#100=EDGE_LOOP('',(#225));
#101=EDGE_LOOP('',(#226));
#102=EDGE_LOOP('',(#227,#228,#229,#230));
#103=EDGE_LOOP('',(#231,#232,#233,#234));
#104=EDGE_LOOP('',(#235));
#105=EDGE_LOOP('',(#236));
#106=CIRCLE('',#275,5.64320753738456);
#107=CIRCLE('',#276,0.2);
#108=CIRCLE('',#277,5.5232498192604);
#109=CIRCLE('',#278,5.5232498192604);
#110=CIRCLE('',#280,4.);
#111=CIRCLE('',#282,5.53281274528916);
#112=CIRCLE('',#283,0.2);
#113=CIRCLE('',#284,5.6507776254381);
#114=CIRCLE('',#286,4.);
#115=CIRCLE('',#289,2.03830327580119);
#116=CIRCLE('',#291,3.4);
#117=CIRCLE('',#292,2.);
#118=CIRCLE('',#294,3.4);
#119=CIRCLE('',#295,2.);
#120=CIRCLE('',#297,2.);
#121=CIRCLE('',#299,2.);
#122=CIRCLE('',#300,1.5);
#123=CIRCLE('',#302,1.5);
#124=CIRCLE('',#306,3.4);
#125=CIRCLE('',#308,4.);
#126=CIRCLE('',#309,3.4);
#127=CIRCLE('',#312,4.);
#128=VERTEX_POINT('',#412);
#129=VERTEX_POINT('',#414);
#130=VERTEX_POINT('',#416);
#131=VERTEX_POINT('',#420);
#132=VERTEX_POINT('',#424);
#133=VERTEX_POINT('',#426);
#134=VERTEX_POINT('',#430);
#135=VERTEX_POINT('',#437);
#136=VERTEX_POINT('',#439);
#137=VERTEX_POINT('',#442);
#138=VERTEX_POINT('',#444);
#139=VERTEX_POINT('',#447);
#140=VERTEX_POINT('',#451);
#141=VERTEX_POINT('',#453);
#142=VERTEX_POINT('',#456);
#143=VERTEX_POINT('',#463);
#144=VERTEX_POINT('',#467);
#145=VERTEX_POINT('',#469);
#146=VERTEX_POINT('',#474);
#147=EDGE_CURVE('',#128,#128,#106,.T.);
#148=EDGE_CURVE('',#128,#129,#107,.T.);
#149=EDGE_CURVE('',#129,#130,#108,.T.);
#150=EDGE_CURVE('',#130,#129,#109,.T.);
#151=EDGE_CURVE('',#131,#131,#110,.F.);
#152=EDGE_CURVE('',#131,#130,#46,.T.);
#153=EDGE_CURVE('',#132,#132,#111,.T.);
#154=EDGE_CURVE('',#132,#133,#112,.T.);
#155=EDGE_CURVE('',#133,#133,#113,.T.);
#156=EDGE_CURVE('',#134,#134,#114,.T.);
#157=EDGE_CURVE('',#134,#131,#47,.T.);
#158=EDGE_CURVE('',#128,#133,#115,.T.);
#159=EDGE_CURVE('',#135,#135,#116,.T.);
#160=EDGE_CURVE('',#136,#136,#117,.T.);
#161=EDGE_CURVE('',#137,#137,#118,.T.);
#162=EDGE_CURVE('',#138,#138,#119,.T.);
#163=EDGE_CURVE('',#139,#139,#120,.T.);
#164=EDGE_CURVE('',#139,#138,#48,.T.);
#165=EDGE_CURVE('',#140,#140,#121,.T.);
#166=EDGE_CURVE('',#141,#141,#122,.T.);
#167=EDGE_CURVE('',#142,#142,#123,.T.);
#168=EDGE_CURVE('',#142,#141,#49,.T.);
#169=EDGE_CURVE('',#136,#140,#50,.T.);
#170=EDGE_CURVE('',#143,#143,#124,.T.);
#171=EDGE_CURVE('',#143,#137,#51,.T.);
#172=EDGE_CURVE('',#144,#144,#125,.T.);
#173=EDGE_CURVE('',#145,#145,#126,.T.);
#174=EDGE_CURVE('',#135,#145,#52,.T.);
#175=EDGE_CURVE('',#146,#146,#127,.T.);
#176=EDGE_CURVE('',#146,#144,#53,.T.);
#177=ORIENTED_EDGE('',*,*,#147,.T.);
#178=ORIENTED_EDGE('',*,*,#148,.T.);
#179=ORIENTED_EDGE('',*,*,#149,.T.);
#180=ORIENTED_EDGE('',*,*,#150,.T.);
#181=ORIENTED_EDGE('',*,*,#148,.F.);
#182=ORIENTED_EDGE('',*,*,#151,.T.);
#183=ORIENTED_EDGE('',*,*,#152,.T.);
#184=ORIENTED_EDGE('',*,*,#149,.F.);
#185=ORIENTED_EDGE('',*,*,#150,.F.);
#186=ORIENTED_EDGE('',*,*,#152,.F.);
#187=ORIENTED_EDGE('',*,*,#153,.T.);
#188=ORIENTED_EDGE('',*,*,#154,.T.);
#189=ORIENTED_EDGE('',*,*,#155,.T.);
#190=ORIENTED_EDGE('',*,*,#154,.F.);
#191=ORIENTED_EDGE('',*,*,#153,.F.);
#192=ORIENTED_EDGE('',*,*,#156,.F.);
#193=ORIENTED_EDGE('',*,*,#156,.T.);
#194=ORIENTED_EDGE('',*,*,#157,.T.);
#195=ORIENTED_EDGE('',*,*,#151,.F.);
#196=ORIENTED_EDGE('',*,*,#157,.F.);
#197=ORIENTED_EDGE('',*,*,#147,.F.);
#198=ORIENTED_EDGE('',*,*,#158,.T.);
#199=ORIENTED_EDGE('',*,*,#155,.F.);
#200=ORIENTED_EDGE('',*,*,#158,.F.);
#201=ORIENTED_EDGE('',*,*,#159,.F.);
#202=ORIENTED_EDGE('',*,*,#160,.F.);
#203=ORIENTED_EDGE('',*,*,#161,.F.);
#204=ORIENTED_EDGE('',*,*,#162,.F.);
#205=ORIENTED_EDGE('',*,*,#163,.F.);
#206=ORIENTED_EDGE('',*,*,#164,.T.);
#207=ORIENTED_EDGE('',*,*,#162,.T.);
#208=ORIENTED_EDGE('',*,*,#164,.F.);
#209=ORIENTED_EDGE('',*,*,#165,.T.);
#210=ORIENTED_EDGE('',*,*,#166,.T.);
#211=ORIENTED_EDGE('',*,*,#167,.F.);
#212=ORIENTED_EDGE('',*,*,#168,.T.);
#213=ORIENTED_EDGE('',*,*,#166,.F.);
#214=ORIENTED_EDGE('',*,*,#168,.F.);
#215=ORIENTED_EDGE('',*,*,#160,.T.);
#216=ORIENTED_EDGE('',*,*,#169,.T.);
#217=ORIENTED_EDGE('',*,*,#165,.F.);
#218=ORIENTED_EDGE('',*,*,#169,.F.);
#219=ORIENTED_EDGE('',*,*,#163,.T.);
#220=ORIENTED_EDGE('',*,*,#167,.T.);
#221=ORIENTED_EDGE('',*,*,#170,.F.);
#222=ORIENTED_EDGE('',*,*,#171,.T.);
#223=ORIENTED_EDGE('',*,*,#161,.T.);
#224=ORIENTED_EDGE('',*,*,#171,.F.);
#225=ORIENTED_EDGE('',*,*,#172,.T.);
#226=ORIENTED_EDGE('',*,*,#173,.T.);
#227=ORIENTED_EDGE('',*,*,#159,.T.);
#228=ORIENTED_EDGE('',*,*,#174,.T.);
#229=ORIENTED_EDGE('',*,*,#173,.F.);
#230=ORIENTED_EDGE('',*,*,#174,.F.);
#231=ORIENTED_EDGE('',*,*,#175,.F.);
#232=ORIENTED_EDGE('',*,*,#176,.T.);
#233=ORIENTED_EDGE('',*,*,#172,.F.);
#234=ORIENTED_EDGE('',*,*,#176,.F.);
#235=ORIENTED_EDGE('',*,*,#175,.T.);
#236=ORIENTED_EDGE('',*,*,#170,.T.);
#237=TOROIDAL_SURFACE('',#274,5.52449987394685,0.2);
#238=TOROIDAL_SURFACE('',#281,5.53281274528916,0.2);
#239=TOROIDAL_SURFACE('',#288,6.85301863362346,2.03830327580119);
#240=ADVANCED_FACE('',(#63),#237,.T.);
#241=ADVANCED_FACE('',(#64),#62,.F.);
#242=ADVANCED_FACE('',(#65),#238,.T.);
#243=ADVANCED_FACE('',(#66,#32),#39,.T.);
#244=ADVANCED_FACE('',(#67),#25,.F.);
#245=ADVANCED_FACE('',(#68),#239,.F.);
#246=ADVANCED_FACE('',(#69,#33),#40,.F.);
#247=ADVANCED_FACE('',(#70,#34),#41,.T.);
#248=ADVANCED_FACE('',(#71),#26,.T.);
#249=ADVANCED_FACE('',(#72,#35),#42,.F.);
#250=ADVANCED_FACE('',(#73),#27,.F.);
#251=ADVANCED_FACE('',(#74),#28,.T.);
#252=ADVANCED_FACE('',(#75,#36),#43,.T.);
#253=ADVANCED_FACE('',(#76),#29,.F.);
#254=ADVANCED_FACE('',(#77,#37),#44,.F.);
#255=ADVANCED_FACE('',(#78),#30,.F.);
#256=ADVANCED_FACE('',(#79),#31,.T.);
#257=ADVANCED_FACE('',(#80,#38),#45,.T.);
#258=CLOSED_SHELL('',(#240,#241,#242,#243,#244,#245));
#259=CLOSED_SHELL('',(#246,#247,#248,#249,#250,#251,#252,#253,#254,#255,
#256,#257));
#260=DERIVED_UNIT_ELEMENT(#262,1.);
#261=DERIVED_UNIT_ELEMENT(#486,-3.);
#262=(
MASS_UNIT()
NAMED_UNIT(*)
SI_UNIT(.KILO.,.GRAM.)
);
#263=DERIVED_UNIT((#260,#261));
#264=MEASURE_REPRESENTATION_ITEM('density measure',
POSITIVE_RATIO_MEASURE(7850.),#263);
#265=PROPERTY_DEFINITION_REPRESENTATION(#270,#267);
#266=PROPERTY_DEFINITION_REPRESENTATION(#271,#268);
#267=REPRESENTATION('material name',(#269),#483);
#268=REPRESENTATION('density',(#264),#483);
#269=DESCRIPTIVE_REPRESENTATION_ITEM('Steel','Steel');
#270=PROPERTY_DEFINITION('material property','material name',#498);
#271=PROPERTY_DEFINITION('material property','density of part',#498);
#272=AXIS2_PLACEMENT_3D('',#409,#315,#316);
#273=AXIS2_PLACEMENT_3D('',#410,#317,#318);
#274=AXIS2_PLACEMENT_3D('',#411,#319,#320);
#275=AXIS2_PLACEMENT_3D('',#413,#321,#322);
#276=AXIS2_PLACEMENT_3D('',#415,#323,#324);
#277=AXIS2_PLACEMENT_3D('',#417,#325,#326);
#278=AXIS2_PLACEMENT_3D('',#418,#327,#328);
#279=AXIS2_PLACEMENT_3D('',#419,#329,#330);
#280=AXIS2_PLACEMENT_3D('',#421,#331,#332);
#281=AXIS2_PLACEMENT_3D('',#423,#334,#335);
#282=AXIS2_PLACEMENT_3D('',#425,#336,#337);
#283=AXIS2_PLACEMENT_3D('',#427,#338,#339);
#284=AXIS2_PLACEMENT_3D('',#428,#340,#341);
#285=AXIS2_PLACEMENT_3D('',#429,#342,#343);
#286=AXIS2_PLACEMENT_3D('',#431,#344,#345);
#287=AXIS2_PLACEMENT_3D('',#432,#346,#347);
#288=AXIS2_PLACEMENT_3D('',#434,#349,#350);
#289=AXIS2_PLACEMENT_3D('',#435,#351,#352);
#290=AXIS2_PLACEMENT_3D('',#436,#353,#354);
#291=AXIS2_PLACEMENT_3D('',#438,#355,#356);
#292=AXIS2_PLACEMENT_3D('',#440,#357,#358);
#293=AXIS2_PLACEMENT_3D('',#441,#359,#360);
#294=AXIS2_PLACEMENT_3D('',#443,#361,#362);
#295=AXIS2_PLACEMENT_3D('',#445,#363,#364);
#296=AXIS2_PLACEMENT_3D('',#446,#365,#366);
#297=AXIS2_PLACEMENT_3D('',#448,#367,#368);
#298=AXIS2_PLACEMENT_3D('',#450,#370,#371);
#299=AXIS2_PLACEMENT_3D('',#452,#372,#373);
#300=AXIS2_PLACEMENT_3D('',#454,#374,#375);
#301=AXIS2_PLACEMENT_3D('',#455,#376,#377);
#302=AXIS2_PLACEMENT_3D('',#457,#378,#379);
#303=AXIS2_PLACEMENT_3D('',#459,#381,#382);
#304=AXIS2_PLACEMENT_3D('',#461,#384,#385);
#305=AXIS2_PLACEMENT_3D('',#462,#386,#387);
#306=AXIS2_PLACEMENT_3D('',#464,#388,#389);
#307=AXIS2_PLACEMENT_3D('',#466,#391,#392);
#308=AXIS2_PLACEMENT_3D('',#468,#393,#394);
#309=AXIS2_PLACEMENT_3D('',#470,#395,#396);
#310=AXIS2_PLACEMENT_3D('',#471,#397,#398);
#311=AXIS2_PLACEMENT_3D('',#473,#400,#401);
#312=AXIS2_PLACEMENT_3D('',#475,#402,#403);
#313=AXIS2_PLACEMENT_3D('',#477,#405,#406);
#314=AXIS2_PLACEMENT_3D('',#478,#407,#408);
#315=DIRECTION('axis',(0.,0.,1.));
#316=DIRECTION('refdir',(1.,0.,0.));
#317=DIRECTION('axis',(0.,0.,1.));
#318=DIRECTION('refdir',(1.,0.,0.));
#319=DIRECTION('center_axis',(0.,1.,0.));
#320=DIRECTION('ref_axis',(0.,0.,1.));
#321=DIRECTION('center_axis',(0.,-1.,0.));
#322=DIRECTION('ref_axis',(1.,0.,0.));
#323=DIRECTION('center_axis',(-1.,0.,1.22464679914735E-16));
#324=DIRECTION('ref_axis',(-1.22464679914735E-16,0.,-1.));
#325=DIRECTION('center_axis',(0.,1.,0.));
#326=DIRECTION('ref_axis',(1.,0.,-6.12323399573677E-17));
#327=DIRECTION('center_axis',(0.,1.,0.));
#328=DIRECTION('ref_axis',(1.,0.,-6.12323399573677E-17));
#329=DIRECTION('center_axis',(0.,-1.,0.));
#330=DIRECTION('ref_axis',(-1.,0.,0.));
#331=DIRECTION('center_axis',(0.,-1.,0.));
#332=DIRECTION('ref_axis',(-1.,0.,0.));
#333=DIRECTION('',(0.999980466850239,-0.00625027343228999,-1.22462287793802E-16));
#334=DIRECTION('center_axis',(0.,1.,0.));
#335=DIRECTION('ref_axis',(0.,0.,1.));
#336=DIRECTION('center_axis',(0.,-1.,0.));
#337=DIRECTION('ref_axis',(1.,0.,0.));
#338=DIRECTION('center_axis',(-1.,0.,1.22464679914735E-16));
#339=DIRECTION('ref_axis',(-1.22464679914735E-16,0.,-1.));
#340=DIRECTION('center_axis',(0.,1.,0.));
#341=DIRECTION('ref_axis',(1.,0.,0.));
#342=DIRECTION('center_axis',(0.,1.,0.));
#343=DIRECTION('ref_axis',(0.,0.,1.));
#344=DIRECTION('center_axis',(0.,1.,0.));
#345=DIRECTION('ref_axis',(-1.,0.,0.));
#346=DIRECTION('center_axis',(0.,1.,0.));
#347=DIRECTION('ref_axis',(-1.,0.,0.));
#348=DIRECTION('',(0.,-1.,0.));
#349=DIRECTION('center_axis',(0.,1.,0.));
#350=DIRECTION('ref_axis',(0.,0.,1.));
#351=DIRECTION('center_axis',(-1.,0.,1.22464679914735E-16));
#352=DIRECTION('ref_axis',(-1.22464679914735E-16,0.,-1.));
#353=DIRECTION('center_axis',(0.,0.,1.));
#354=DIRECTION('ref_axis',(1.,0.,0.));
#355=DIRECTION('center_axis',(0.,0.,1.));
#356=DIRECTION('ref_axis',(1.,0.,0.));
#357=DIRECTION('center_axis',(0.,0.,-1.));
#358=DIRECTION('ref_axis',(1.,0.,0.));
#359=DIRECTION('center_axis',(0.,0.,1.));
#360=DIRECTION('ref_axis',(1.,0.,0.));
#361=DIRECTION('center_axis',(0.,0.,-1.));
#362=DIRECTION('ref_axis',(1.,0.,0.));
#363=DIRECTION('center_axis',(0.,0.,1.));
#364=DIRECTION('ref_axis',(1.,0.,0.));
#365=DIRECTION('center_axis',(0.,0.,1.));
#366=DIRECTION('ref_axis',(1.,0.,0.));
#367=DIRECTION('center_axis',(0.,0.,1.));
#368=DIRECTION('ref_axis',(1.,0.,0.));
#369=DIRECTION('',(0.,0.,-1.));
#370=DIRECTION('center_axis',(0.,0.,1.));
#371=DIRECTION('ref_axis',(1.,0.,0.));
#372=DIRECTION('center_axis',(0.,0.,-1.));
#373=DIRECTION('ref_axis',(1.,0.,0.));
#374=DIRECTION('center_axis',(0.,0.,1.));
#375=DIRECTION('ref_axis',(1.,0.,0.));
#376=DIRECTION('center_axis',(0.,0.,1.));
#377=DIRECTION('ref_axis',(1.,0.,0.));
#378=DIRECTION('center_axis',(0.,0.,-1.));
#379=DIRECTION('ref_axis',(1.,0.,0.));
#380=DIRECTION('',(0.,0.,-1.));
#381=DIRECTION('center_axis',(0.,0.,1.));
#382=DIRECTION('ref_axis',(1.,0.,0.));
#383=DIRECTION('',(0.,0.,-1.));
#384=DIRECTION('center_axis',(0.,0.,1.));
#385=DIRECTION('ref_axis',(1.,0.,0.));
#386=DIRECTION('center_axis',(0.,0.,1.));
#387=DIRECTION('ref_axis',(1.,0.,0.));
#388=DIRECTION('center_axis',(0.,0.,-1.));
#389=DIRECTION('ref_axis',(1.,0.,0.));
#390=DIRECTION('',(0.,0.,-1.));
#391=DIRECTION('center_axis',(0.,0.,1.));
#392=DIRECTION('ref_axis',(1.,0.,0.));
#393=DIRECTION('center_axis',(0.,0.,-1.));
#394=DIRECTION('ref_axis',(1.,0.,0.));
#395=DIRECTION('center_axis',(0.,0.,1.));
#396=DIRECTION('ref_axis',(1.,0.,0.));
#397=DIRECTION('center_axis',(0.,0.,1.));
#398=DIRECTION('ref_axis',(1.,0.,0.));
#399=DIRECTION('',(0.,0.,-1.));
#400=DIRECTION('center_axis',(0.,0.,1.));
#401=DIRECTION('ref_axis',(1.,0.,0.));
#402=DIRECTION('center_axis',(0.,0.,1.));
#403=DIRECTION('ref_axis',(1.,0.,0.));
#404=DIRECTION('',(0.,0.,-1.));
#405=DIRECTION('center_axis',(0.,0.,1.));
#406=DIRECTION('ref_axis',(1.,0.,0.));
#407=DIRECTION('',(0.,-1.,-3.46944695195361E-16));
#408=DIRECTION('',(0.999999999999999,0.,0.));
#409=CARTESIAN_POINT('',(0.,0.,0.));
#410=CARTESIAN_POINT('',(0.,0.,0.));
#411=CARTESIAN_POINT('Origin',(0.,-1.80889978092723,0.));
#412=CARTESIAN_POINT('',(-6.91093604758222E-16,-1.64793863455594,-5.64320753738456));
#413=CARTESIAN_POINT('Origin',(0.,-1.64793863455594,0.));
#414=CARTESIAN_POINT('',(-6.76403021204844E-16,-2.00889587429728,-5.5232498192604));
#415=CARTESIAN_POINT('Origin',(-6.76556108751897E-16,-1.80889978092723,
-5.52449987394685));
#416=CARTESIAN_POINT('',(5.5232498192604,-2.00889587429728,-6.76403021204844E-16));
#417=CARTESIAN_POINT('Origin',(0.,-2.00889587429728,-3.38201510602422E-16));
#418=CARTESIAN_POINT('Origin',(0.,-2.00889587429728,-3.38201510602422E-16));
#419=CARTESIAN_POINT('Origin',(0.,-2.00750047492934,0.));
#420=CARTESIAN_POINT('',(4.,-1.99937496044778,4.89858719658941E-16));
#421=CARTESIAN_POINT('Origin',(0.,-1.99937496044778,0.));
#422=CARTESIAN_POINT('',(5.30000004842877,-2.00750047492934,-6.49062809478911E-16));
#423=CARTESIAN_POINT('Origin',(0.,1.8,0.));
#424=CARTESIAN_POINT('',(-6.77574141880005E-16,2.,-5.53281274528916));
#425=CARTESIAN_POINT('Origin',(0.,2.,0.));
#426=CARTESIAN_POINT('',(-6.92020673168625E-16,1.63849369346231,-5.6507776254381));
#427=CARTESIAN_POINT('Origin',(-6.77574141880005E-16,1.8,-5.53281274528916));
#428=CARTESIAN_POINT('Origin',(0.,1.63849369346231,0.));
#429=CARTESIAN_POINT('Origin',(-4.1,2.,0.));
#430=CARTESIAN_POINT('',(4.,2.,-4.89858719658941E-16));
#431=CARTESIAN_POINT('Origin',(0.,2.,0.));
#432=CARTESIAN_POINT('Origin',(0.,0.,0.));
#433=CARTESIAN_POINT('',(4.,0.,-4.89858719658941E-16));
#434=CARTESIAN_POINT('Origin',(0.,-0.00750047492934086,0.));
#435=CARTESIAN_POINT('Origin',(-8.39252733416414E-16,-0.00750047492934086,
-6.85301863362346));
#436=CARTESIAN_POINT('Origin',(0.,0.,-1.8));
#437=CARTESIAN_POINT('',(-3.4,-4.163799117101E-16,-1.8));
#438=CARTESIAN_POINT('Origin',(0.,0.,-1.8));
#439=CARTESIAN_POINT('',(-2.,-2.44929359829471E-16,-1.8));
#440=CARTESIAN_POINT('Origin',(0.,0.,-1.8));
#441=CARTESIAN_POINT('Origin',(0.,0.,1.8));
#442=CARTESIAN_POINT('',(-3.4,-4.163799117101E-16,1.8));
#443=CARTESIAN_POINT('Origin',(0.,0.,1.8));
#444=CARTESIAN_POINT('',(-2.,-2.44929359829471E-16,1.8));
#445=CARTESIAN_POINT('Origin',(0.,0.,1.8));
#446=CARTESIAN_POINT('Origin',(0.,0.,0.));
#447=CARTESIAN_POINT('',(-2.,-2.44929359829471E-16,2.));
#448=CARTESIAN_POINT('Origin',(0.,0.,2.));
#449=CARTESIAN_POINT('',(-2.,-2.44929359829471E-16,0.));
#450=CARTESIAN_POINT('Origin',(0.,0.,-2.));
#451=CARTESIAN_POINT('',(-2.,-2.44929359829471E-16,-2.));
#452=CARTESIAN_POINT('Origin',(0.,0.,-2.));
#453=CARTESIAN_POINT('',(-1.5,-1.83697019872103E-16,-2.));
#454=CARTESIAN_POINT('Origin',(0.,0.,-2.));
#455=CARTESIAN_POINT('Origin',(0.,0.,0.));
#456=CARTESIAN_POINT('',(-1.5,-1.83697019872103E-16,2.));
#457=CARTESIAN_POINT('Origin',(0.,0.,2.));
#458=CARTESIAN_POINT('',(-1.5,-1.83697019872103E-16,0.));
#459=CARTESIAN_POINT('Origin',(0.,0.,0.));
#460=CARTESIAN_POINT('',(-2.,-2.44929359829471E-16,0.));
#461=CARTESIAN_POINT('Origin',(0.,0.,2.));
#462=CARTESIAN_POINT('Origin',(0.,0.,0.));
#463=CARTESIAN_POINT('',(-3.4,-4.163799117101E-16,2.));
#464=CARTESIAN_POINT('Origin',(0.,0.,2.));
#465=CARTESIAN_POINT('',(-3.4,-4.163799117101E-16,0.));
#466=CARTESIAN_POINT('Origin',(0.,0.,-2.));
#467=CARTESIAN_POINT('',(-4.,-4.89858719658941E-16,-2.));
#468=CARTESIAN_POINT('Origin',(0.,0.,-2.));
#469=CARTESIAN_POINT('',(-3.4,-4.163799117101E-16,-2.));
#470=CARTESIAN_POINT('Origin',(0.,0.,-2.));
#471=CARTESIAN_POINT('Origin',(0.,0.,0.));
#472=CARTESIAN_POINT('',(-3.4,-4.163799117101E-16,0.));
#473=CARTESIAN_POINT('Origin',(0.,0.,0.));
#474=CARTESIAN_POINT('',(-4.,-4.89858719658941E-16,2.));
#475=CARTESIAN_POINT('Origin',(0.,0.,2.));
#476=CARTESIAN_POINT('',(-4.,-4.89858719658941E-16,0.));
#477=CARTESIAN_POINT('Origin',(0.,0.,2.));
#478=CARTESIAN_POINT('',(0.,0.,0.));
#479=UNCERTAINTY_MEASURE_WITH_UNIT(LENGTH_MEASURE(0.01),#485,
'DISTANCE_ACCURACY_VALUE',
'Maximum model space distance between geometric entities at asserted c
onnectivities');
#480=UNCERTAINTY_MEASURE_WITH_UNIT(LENGTH_MEASURE(0.01),#485,
'DISTANCE_ACCURACY_VALUE',
'Maximum model space distance between geometric entities at asserted c
onnectivities');
#481=UNCERTAINTY_MEASURE_WITH_UNIT(LENGTH_MEASURE(0.01),#485,
'DISTANCE_ACCURACY_VALUE',
'Maximum model space distance between geometric entities at asserted c
onnectivities');
#482=(
GEOMETRIC_REPRESENTATION_CONTEXT(3)
GLOBAL_UNCERTAINTY_ASSIGNED_CONTEXT((#479))
GLOBAL_UNIT_ASSIGNED_CONTEXT((#485,#487,#488))
REPRESENTATION_CONTEXT('','3D')
);
#483=(
GEOMETRIC_REPRESENTATION_CONTEXT(3)
GLOBAL_UNCERTAINTY_ASSIGNED_CONTEXT((#480))
GLOBAL_UNIT_ASSIGNED_CONTEXT((#485,#487,#488))
REPRESENTATION_CONTEXT('','3D')
);
#484=(
GEOMETRIC_REPRESENTATION_CONTEXT(3)
GLOBAL_UNCERTAINTY_ASSIGNED_CONTEXT((#481))
GLOBAL_UNIT_ASSIGNED_CONTEXT((#485,#487,#488))
REPRESENTATION_CONTEXT('','3D')
);
#485=(
LENGTH_UNIT()
NAMED_UNIT(*)
SI_UNIT(.MILLI.,.METRE.)
);
#486=(
LENGTH_UNIT()
NAMED_UNIT(*)
SI_UNIT($,.METRE.)
);
#487=(
NAMED_UNIT(*)
PLANE_ANGLE_UNIT()
SI_UNIT($,.RADIAN.)
);
#488=(
NAMED_UNIT(*)
SI_UNIT($,.STERADIAN.)
SOLID_ANGLE_UNIT()
);
#489=SHAPE_DEFINITION_REPRESENTATION(#491,#494);
#490=SHAPE_DEFINITION_REPRESENTATION(#492,#495);
#491=PRODUCT_DEFINITION_SHAPE('',$,#497);
#492=PRODUCT_DEFINITION_SHAPE('',$,#498);
#493=PRODUCT_DEFINITION_SHAPE($,$,#14);
#494=SHAPE_REPRESENTATION('',(#272,#314),#482);
#495=SHAPE_REPRESENTATION('',(#273),#483);
#496=PRODUCT_DEFINITION_CONTEXT('part definition',#504,'design');
#497=PRODUCT_DEFINITION('Bearing','Bearing v4',#499,#496);
#498=PRODUCT_DEFINITION('BearingSleeve','BearingSleeve v5',#500,#496);
#499=PRODUCT_DEFINITION_FORMATION('',$,#506);
#500=PRODUCT_DEFINITION_FORMATION('',$,#507);
#501=PRODUCT_RELATED_PRODUCT_CATEGORY('Bearing v4','Bearing v4',(#506));
#502=PRODUCT_RELATED_PRODUCT_CATEGORY('BearingSleeve v5',
'BearingSleeve v5',(#507));
#503=APPLICATION_PROTOCOL_DEFINITION('international standard',
'automotive_design',2009,#504);
#504=APPLICATION_CONTEXT(
'Core Data for Automotive Mechanical Design Process');
#505=PRODUCT_CONTEXT('part definition',#504,'mechanical');
#506=PRODUCT('Bearing','Bearing v4',$,(#505));
#507=PRODUCT('BearingSleeve','BearingSleeve v5',$,(#505));
#508=PRESENTATION_STYLE_ASSIGNMENT((#511));
#509=PRESENTATION_STYLE_ASSIGNMENT((#512));
#510=PRESENTATION_STYLE_ASSIGNMENT((#513));
#511=SURFACE_STYLE_USAGE(.BOTH.,#514);
#512=SURFACE_STYLE_USAGE(.BOTH.,#515);
#513=SURFACE_STYLE_USAGE(.BOTH.,#516);
#514=SURFACE_SIDE_STYLE('',(#517));
#515=SURFACE_SIDE_STYLE('',(#518));
#516=SURFACE_SIDE_STYLE('',(#519));
#517=SURFACE_STYLE_FILL_AREA(#520);
#518=SURFACE_STYLE_FILL_AREA(#521);
#519=SURFACE_STYLE_FILL_AREA(#522);
#520=FILL_AREA_STYLE('Steel - Satin',(#523));
#521=FILL_AREA_STYLE('Paint - Metallic (Silver)',(#524));
#522=FILL_AREA_STYLE('Plastic - Matte (Blue)',(#525));
#523=FILL_AREA_STYLE_COLOUR('Steel - Satin',#526);
#524=FILL_AREA_STYLE_COLOUR('Paint - Metallic (Silver)',#527);
#525=FILL_AREA_STYLE_COLOUR('Plastic - Matte (Blue)',#528);
#526=COLOUR_RGB('Steel - Satin',0.627450980392157,0.627450980392157,0.627450980392157);
#527=COLOUR_RGB('Paint - Metallic (Silver)',0.984313725490196,0.980392156862745,
0.96078431372549);
#528=COLOUR_RGB('Plastic - Matte (Blue)',0.188235294117647,0.231372549019608,
0.588235294117647);
ENDSEC;
END-ISO-10303-21;
