ISO-10303-21;
HEADER;
/* Generated by software containing ST-Developer
 * from STEP Tools, Inc. (www.steptools.com) 
 */

FILE_DESCRIPTION(
/* description */ (''),
/* implementation_level */ '2;1');

FILE_NAME(
/* name */ 'ServoHorn_v1.step',
/* time_stamp */ '2026-08-21T09:20:02-04:00',
/* author */ (''),
/* organization */ (''),
/* preprocessor_version */ 'ST-DEVELOPER v20.1',
/* originating_system */ 'Autodesk Translation Framework v15.8.0.0',
/* authorisation */ '');

FILE_SCHEMA (('AUTOMOTIVE_DESIGN { 1 0 10303 214 3 1 1 }'));
ENDSEC;

DATA;
#10=MECHANICAL_DESIGN_GEOMETRIC_PRESENTATION_REPRESENTATION('',(#13),#407);
#11=SHAPE_REPRESENTATION_RELATIONSHIP('SRR','None',#414,#12);
#12=ADVANCED_BREP_SHAPE_REPRESENTATION('',(#14),#406);
#13=STYLED_ITEM('',(#424),#14);
#14=MANIFOLD_SOLID_BREP('Body1',#225);
#15=FACE_BOUND('',#71,.T.);
#16=FACE_BOUND('',#72,.T.);
#17=FACE_BOUND('',#73,.T.);
#18=FACE_BOUND('',#74,.T.);
#19=FACE_BOUND('',#75,.T.);
#20=FACE_BOUND('',#78,.T.);
#21=FACE_BOUND('',#80,.T.);
#22=FACE_BOUND('',#88,.T.);
#23=FACE_BOUND('',#89,.T.);
#24=FACE_BOUND('',#90,.T.);
#25=FACE_BOUND('',#91,.T.);
#26=FACE_BOUND('',#92,.T.);
#27=PLANE('',#246);
#28=PLANE('',#255);
#29=PLANE('',#256);
#30=PLANE('',#270);
#31=LINE('',#357,#39);
#32=LINE('',#373,#40);
#33=LINE('',#382,#41);
#34=LINE('',#386,#42);
#35=LINE('',#390,#43);
#36=LINE('',#394,#44);
#37=LINE('',#398,#45);
#38=LINE('',#402,#46);
#39=VECTOR('',#287,4.5);
#40=VECTOR('',#304,3.);
#41=VECTOR('',#317,1.5);
#42=VECTOR('',#322,1.6);
#43=VECTOR('',#327,1.5);
#44=VECTOR('',#332,1.5);
#45=VECTOR('',#337,1.5);
#46=VECTOR('',#342,10.);
#47=CYLINDRICAL_SURFACE('',#244,4.5);
#48=CYLINDRICAL_SURFACE('',#252,3.);
#49=CYLINDRICAL_SURFACE('',#258,1.2645);
#50=CYLINDRICAL_SURFACE('',#260,1.6);
#51=CYLINDRICAL_SURFACE('',#262,1.2645);
#52=CYLINDRICAL_SURFACE('',#264,1.2645);
#53=CYLINDRICAL_SURFACE('',#266,1.2645);
#54=CYLINDRICAL_SURFACE('',#268,10.);
#55=FACE_OUTER_BOUND('',#68,.T.);
#56=FACE_OUTER_BOUND('',#69,.T.);
#57=FACE_OUTER_BOUND('',#70,.T.);
#58=FACE_OUTER_BOUND('',#76,.T.);
#59=FACE_OUTER_BOUND('',#77,.T.);
#60=FACE_OUTER_BOUND('',#79,.T.);
#61=FACE_OUTER_BOUND('',#81,.T.);
#62=FACE_OUTER_BOUND('',#82,.T.);
#63=FACE_OUTER_BOUND('',#83,.T.);
#64=FACE_OUTER_BOUND('',#84,.T.);
#65=FACE_OUTER_BOUND('',#85,.T.);
#66=FACE_OUTER_BOUND('',#86,.T.);
#67=FACE_OUTER_BOUND('',#87,.T.);
#68=EDGE_LOOP('',(#157,#158,#159,#160,#161));
#69=EDGE_LOOP('',(#162,#163,#164,#165,#166));
#70=EDGE_LOOP('',(#167));
#71=EDGE_LOOP('',(#168));
#72=EDGE_LOOP('',(#169));
#73=EDGE_LOOP('',(#170));
#74=EDGE_LOOP('',(#171));
#75=EDGE_LOOP('',(#172));
#76=EDGE_LOOP('',(#173,#174,#175,#176));
#77=EDGE_LOOP('',(#177));
#78=EDGE_LOOP('',(#178));
#79=EDGE_LOOP('',(#179));
#80=EDGE_LOOP('',(#180));
#81=EDGE_LOOP('',(#181,#182,#183,#184));
#82=EDGE_LOOP('',(#185,#186,#187,#188));
#83=EDGE_LOOP('',(#189,#190,#191,#192));
#84=EDGE_LOOP('',(#193,#194,#195,#196));
#85=EDGE_LOOP('',(#197,#198,#199,#200));
#86=EDGE_LOOP('',(#201,#202,#203,#204));
#87=EDGE_LOOP('',(#205));
#88=EDGE_LOOP('',(#206));
#89=EDGE_LOOP('',(#207));
#90=EDGE_LOOP('',(#208));
#91=EDGE_LOOP('',(#209));
#92=EDGE_LOOP('',(#210));
#93=CIRCLE('',#240,4.5);
#94=CIRCLE('',#241,0.5);
#95=CIRCLE('',#242,5.);
#96=CIRCLE('',#243,4.5);
#97=CIRCLE('',#245,4.5);
#98=CIRCLE('',#247,10.);
#99=CIRCLE('',#248,1.2645);
#100=CIRCLE('',#249,1.2645);
#101=CIRCLE('',#250,1.2645);
#102=CIRCLE('',#251,1.2645);
#103=CIRCLE('',#253,3.);
#104=CIRCLE('',#254,3.);
#105=CIRCLE('',#257,1.6);
#106=CIRCLE('',#259,1.2645);
#107=CIRCLE('',#261,1.6);
#108=CIRCLE('',#263,1.2645);
#109=CIRCLE('',#265,1.2645);
#110=CIRCLE('',#267,1.2645);
#111=CIRCLE('',#269,10.);
#112=VERTEX_POINT('',#347);
#113=VERTEX_POINT('',#348);
#114=VERTEX_POINT('',#350);
#115=VERTEX_POINT('',#355);
#116=VERTEX_POINT('',#359);
#117=VERTEX_POINT('',#361);
#118=VERTEX_POINT('',#363);
#119=VERTEX_POINT('',#365);
#120=VERTEX_POINT('',#367);
#121=VERTEX_POINT('',#370);
#122=VERTEX_POINT('',#372);
#123=VERTEX_POINT('',#377);
#124=VERTEX_POINT('',#380);
#125=VERTEX_POINT('',#384);
#126=VERTEX_POINT('',#388);
#127=VERTEX_POINT('',#392);
#128=VERTEX_POINT('',#396);
#129=VERTEX_POINT('',#400);
#130=EDGE_CURVE('',#112,#113,#93,.T.);
#131=EDGE_CURVE('',#113,#114,#94,.T.);
#132=EDGE_CURVE('',#114,#114,#95,.T.);
#133=EDGE_CURVE('',#113,#112,#96,.T.);
#134=EDGE_CURVE('',#115,#115,#97,.T.);
#135=EDGE_CURVE('',#115,#112,#31,.T.);
#136=EDGE_CURVE('',#116,#116,#98,.T.);
#137=EDGE_CURVE('',#117,#117,#99,.F.);
#138=EDGE_CURVE('',#118,#118,#100,.F.);
#139=EDGE_CURVE('',#119,#119,#101,.F.);
#140=EDGE_CURVE('',#120,#120,#102,.F.);
#141=EDGE_CURVE('',#121,#121,#103,.T.);
#142=EDGE_CURVE('',#121,#122,#32,.T.);
#143=EDGE_CURVE('',#122,#122,#104,.F.);
#144=EDGE_CURVE('',#123,#123,#105,.T.);
#145=EDGE_CURVE('',#124,#124,#106,.T.);
#146=EDGE_CURVE('',#124,#120,#33,.T.);
#147=EDGE_CURVE('',#125,#125,#107,.T.);
#148=EDGE_CURVE('',#125,#123,#34,.T.);
#149=EDGE_CURVE('',#126,#126,#108,.T.);
#150=EDGE_CURVE('',#126,#119,#35,.T.);
#151=EDGE_CURVE('',#127,#127,#109,.T.);
#152=EDGE_CURVE('',#127,#118,#36,.T.);
#153=EDGE_CURVE('',#128,#128,#110,.T.);
#154=EDGE_CURVE('',#128,#117,#37,.T.);
#155=EDGE_CURVE('',#129,#129,#111,.T.);
#156=EDGE_CURVE('',#129,#116,#38,.T.);
#157=ORIENTED_EDGE('',*,*,#130,.T.);
#158=ORIENTED_EDGE('',*,*,#131,.T.);
#159=ORIENTED_EDGE('',*,*,#132,.T.);
#160=ORIENTED_EDGE('',*,*,#131,.F.);
#161=ORIENTED_EDGE('',*,*,#133,.T.);
#162=ORIENTED_EDGE('',*,*,#134,.F.);
#163=ORIENTED_EDGE('',*,*,#135,.T.);
#164=ORIENTED_EDGE('',*,*,#133,.F.);
#165=ORIENTED_EDGE('',*,*,#130,.F.);
#166=ORIENTED_EDGE('',*,*,#135,.F.);
#167=ORIENTED_EDGE('',*,*,#136,.T.);
#168=ORIENTED_EDGE('',*,*,#137,.T.);
#169=ORIENTED_EDGE('',*,*,#138,.T.);
#170=ORIENTED_EDGE('',*,*,#139,.T.);
#171=ORIENTED_EDGE('',*,*,#140,.T.);
#172=ORIENTED_EDGE('',*,*,#132,.F.);
#173=ORIENTED_EDGE('',*,*,#141,.F.);
#174=ORIENTED_EDGE('',*,*,#142,.T.);
#175=ORIENTED_EDGE('',*,*,#143,.F.);
#176=ORIENTED_EDGE('',*,*,#142,.F.);
#177=ORIENTED_EDGE('',*,*,#134,.T.);
#178=ORIENTED_EDGE('',*,*,#141,.T.);
#179=ORIENTED_EDGE('',*,*,#143,.T.);
#180=ORIENTED_EDGE('',*,*,#144,.T.);
#181=ORIENTED_EDGE('',*,*,#145,.F.);
#182=ORIENTED_EDGE('',*,*,#146,.T.);
#183=ORIENTED_EDGE('',*,*,#140,.F.);
#184=ORIENTED_EDGE('',*,*,#146,.F.);
#185=ORIENTED_EDGE('',*,*,#147,.F.);
#186=ORIENTED_EDGE('',*,*,#148,.T.);
#187=ORIENTED_EDGE('',*,*,#144,.F.);
#188=ORIENTED_EDGE('',*,*,#148,.F.);
#189=ORIENTED_EDGE('',*,*,#149,.F.);
#190=ORIENTED_EDGE('',*,*,#150,.T.);
#191=ORIENTED_EDGE('',*,*,#139,.F.);
#192=ORIENTED_EDGE('',*,*,#150,.F.);
#193=ORIENTED_EDGE('',*,*,#151,.F.);
#194=ORIENTED_EDGE('',*,*,#152,.T.);
#195=ORIENTED_EDGE('',*,*,#138,.F.);
#196=ORIENTED_EDGE('',*,*,#152,.F.);
#197=ORIENTED_EDGE('',*,*,#153,.F.);
#198=ORIENTED_EDGE('',*,*,#154,.T.);
#199=ORIENTED_EDGE('',*,*,#137,.F.);
#200=ORIENTED_EDGE('',*,*,#154,.F.);
#201=ORIENTED_EDGE('',*,*,#155,.F.);
#202=ORIENTED_EDGE('',*,*,#156,.T.);
#203=ORIENTED_EDGE('',*,*,#136,.F.);
#204=ORIENTED_EDGE('',*,*,#156,.F.);
#205=ORIENTED_EDGE('',*,*,#155,.T.);
#206=ORIENTED_EDGE('',*,*,#153,.T.);
#207=ORIENTED_EDGE('',*,*,#151,.T.);
#208=ORIENTED_EDGE('',*,*,#149,.T.);
#209=ORIENTED_EDGE('',*,*,#147,.T.);
#210=ORIENTED_EDGE('',*,*,#145,.T.);
#211=TOROIDAL_SURFACE('',#239,5.,0.5);
#212=ADVANCED_FACE('',(#55),#211,.F.);
#213=ADVANCED_FACE('',(#56),#47,.T.);
#214=ADVANCED_FACE('',(#57,#15,#16,#17,#18,#19),#27,.T.);
#215=ADVANCED_FACE('',(#58),#48,.F.);
#216=ADVANCED_FACE('',(#59,#20),#28,.T.);
#217=ADVANCED_FACE('',(#60,#21),#29,.T.);
#218=ADVANCED_FACE('',(#61),#49,.F.);
#219=ADVANCED_FACE('',(#62),#50,.F.);
#220=ADVANCED_FACE('',(#63),#51,.F.);
#221=ADVANCED_FACE('',(#64),#52,.F.);
#222=ADVANCED_FACE('',(#65),#53,.F.);
#223=ADVANCED_FACE('',(#66),#54,.T.);
#224=ADVANCED_FACE('',(#67,#22,#23,#24,#25,#26),#30,.F.);
#225=CLOSED_SHELL('',(#212,#213,#214,#215,#216,#217,#218,#219,#220,#221,
#222,#223,#224));
#226=DERIVED_UNIT_ELEMENT(#228,1.);
#227=DERIVED_UNIT_ELEMENT(#409,-3.);
#228=(
MASS_UNIT()
NAMED_UNIT(*)
SI_UNIT(.KILO.,.GRAM.)
);
#229=DERIVED_UNIT((#226,#227));
#230=MEASURE_REPRESENTATION_ITEM('density measure',
POSITIVE_RATIO_MEASURE(7850.),#229);
#231=PROPERTY_DEFINITION_REPRESENTATION(#236,#233);
#232=PROPERTY_DEFINITION_REPRESENTATION(#237,#234);
#233=REPRESENTATION('material name',(#235),#406);
#234=REPRESENTATION('density',(#230),#406);
#235=DESCRIPTIVE_REPRESENTATION_ITEM('Steel','Steel');
#236=PROPERTY_DEFINITION('material property','material name',#416);
#237=PROPERTY_DEFINITION('material property','density of part',#416);
#238=AXIS2_PLACEMENT_3D('',#345,#271,#272);
#239=AXIS2_PLACEMENT_3D('',#346,#273,#274);
#240=AXIS2_PLACEMENT_3D('',#349,#275,#276);
#241=AXIS2_PLACEMENT_3D('',#351,#277,#278);
#242=AXIS2_PLACEMENT_3D('',#352,#279,#280);
#243=AXIS2_PLACEMENT_3D('',#353,#281,#282);
#244=AXIS2_PLACEMENT_3D('',#354,#283,#284);
#245=AXIS2_PLACEMENT_3D('',#356,#285,#286);
#246=AXIS2_PLACEMENT_3D('',#358,#288,#289);
#247=AXIS2_PLACEMENT_3D('',#360,#290,#291);
#248=AXIS2_PLACEMENT_3D('',#362,#292,#293);
#249=AXIS2_PLACEMENT_3D('',#364,#294,#295);
#250=AXIS2_PLACEMENT_3D('',#366,#296,#297);
#251=AXIS2_PLACEMENT_3D('',#368,#298,#299);
#252=AXIS2_PLACEMENT_3D('',#369,#300,#301);
#253=AXIS2_PLACEMENT_3D('',#371,#302,#303);
#254=AXIS2_PLACEMENT_3D('',#374,#305,#306);
#255=AXIS2_PLACEMENT_3D('',#375,#307,#308);
#256=AXIS2_PLACEMENT_3D('',#376,#309,#310);
#257=AXIS2_PLACEMENT_3D('',#378,#311,#312);
#258=AXIS2_PLACEMENT_3D('',#379,#313,#314);
#259=AXIS2_PLACEMENT_3D('',#381,#315,#316);
#260=AXIS2_PLACEMENT_3D('',#383,#318,#319);
#261=AXIS2_PLACEMENT_3D('',#385,#320,#321);
#262=AXIS2_PLACEMENT_3D('',#387,#323,#324);
#263=AXIS2_PLACEMENT_3D('',#389,#325,#326);
#264=AXIS2_PLACEMENT_3D('',#391,#328,#329);
#265=AXIS2_PLACEMENT_3D('',#393,#330,#331);
#266=AXIS2_PLACEMENT_3D('',#395,#333,#334);
#267=AXIS2_PLACEMENT_3D('',#397,#335,#336);
#268=AXIS2_PLACEMENT_3D('',#399,#338,#339);
#269=AXIS2_PLACEMENT_3D('',#401,#340,#341);
#270=AXIS2_PLACEMENT_3D('',#403,#343,#344);
#271=DIRECTION('axis',(0.,0.,1.));
#272=DIRECTION('refdir',(1.,0.,0.));
#273=DIRECTION('center_axis',(0.,0.,-1.));
#274=DIRECTION('ref_axis',(-1.,0.,0.));
#275=DIRECTION('center_axis',(0.,0.,-1.));
#276=DIRECTION('ref_axis',(1.,0.,0.));
#277=DIRECTION('center_axis',(-1.22464679914735E-16,-1.,0.));
#278=DIRECTION('ref_axis',(1.,-1.22464679914735E-16,0.));
#279=DIRECTION('center_axis',(0.,0.,1.));
#280=DIRECTION('ref_axis',(1.,0.,0.));
#281=DIRECTION('center_axis',(0.,0.,-1.));
#282=DIRECTION('ref_axis',(1.,0.,0.));
#283=DIRECTION('center_axis',(0.,0.,1.));
#284=DIRECTION('ref_axis',(1.,0.,0.));
#285=DIRECTION('center_axis',(0.,0.,1.));
#286=DIRECTION('ref_axis',(1.,0.,0.));
#287=DIRECTION('',(0.,0.,-1.));
#288=DIRECTION('center_axis',(0.,0.,1.));
#289=DIRECTION('ref_axis',(1.,0.,0.));
#290=DIRECTION('center_axis',(0.,0.,1.));
#291=DIRECTION('ref_axis',(1.,0.,0.));
#292=DIRECTION('center_axis',(0.,0.,1.));
#293=DIRECTION('ref_axis',(1.,0.,0.));
#294=DIRECTION('center_axis',(0.,0.,1.));
#295=DIRECTION('ref_axis',(1.,0.,0.));
#296=DIRECTION('center_axis',(0.,0.,1.));
#297=DIRECTION('ref_axis',(1.,0.,0.));
#298=DIRECTION('center_axis',(0.,0.,1.));
#299=DIRECTION('ref_axis',(1.,0.,0.));
#300=DIRECTION('center_axis',(0.,0.,1.));
#301=DIRECTION('ref_axis',(1.,0.,0.));
#302=DIRECTION('center_axis',(0.,0.,-1.));
#303=DIRECTION('ref_axis',(1.,0.,0.));
#304=DIRECTION('',(0.,0.,-1.));
#305=DIRECTION('center_axis',(0.,0.,-1.));
#306=DIRECTION('ref_axis',(1.,0.,0.));
#307=DIRECTION('center_axis',(0.,0.,1.));
#308=DIRECTION('ref_axis',(1.,0.,0.));
#309=DIRECTION('center_axis',(0.,0.,1.));
#310=DIRECTION('ref_axis',(1.,0.,0.));
#311=DIRECTION('center_axis',(0.,0.,-1.));
#312=DIRECTION('ref_axis',(1.,0.,0.));
#313=DIRECTION('center_axis',(0.,0.,-1.));
#314=DIRECTION('ref_axis',(1.,0.,0.));
#315=DIRECTION('center_axis',(0.,0.,1.));
#316=DIRECTION('ref_axis',(1.,0.,0.));
#317=DIRECTION('',(0.,0.,1.));
#318=DIRECTION('center_axis',(0.,0.,-1.));
#319=DIRECTION('ref_axis',(1.,0.,0.));
#320=DIRECTION('center_axis',(0.,0.,1.));
#321=DIRECTION('ref_axis',(1.,0.,0.));
#322=DIRECTION('',(0.,0.,1.));
#323=DIRECTION('center_axis',(0.,0.,-1.));
#324=DIRECTION('ref_axis',(1.,0.,0.));
#325=DIRECTION('center_axis',(0.,0.,1.));
#326=DIRECTION('ref_axis',(1.,0.,0.));
#327=DIRECTION('',(0.,0.,1.));
#328=DIRECTION('center_axis',(0.,0.,-1.));
#329=DIRECTION('ref_axis',(1.,0.,0.));
#330=DIRECTION('center_axis',(0.,0.,1.));
#331=DIRECTION('ref_axis',(1.,0.,0.));
#332=DIRECTION('',(0.,0.,1.));
#333=DIRECTION('center_axis',(0.,0.,-1.));
#334=DIRECTION('ref_axis',(1.,0.,0.));
#335=DIRECTION('center_axis',(0.,0.,1.));
#336=DIRECTION('ref_axis',(1.,0.,0.));
#337=DIRECTION('',(0.,0.,1.));
#338=DIRECTION('center_axis',(0.,0.,-1.));
#339=DIRECTION('ref_axis',(1.,0.,0.));
#340=DIRECTION('center_axis',(0.,0.,-1.));
#341=DIRECTION('ref_axis',(1.,0.,0.));
#342=DIRECTION('',(0.,0.,1.));
#343=DIRECTION('center_axis',(0.,0.,1.));
#344=DIRECTION('ref_axis',(1.,0.,0.));
#345=CARTESIAN_POINT('',(0.,0.,0.));
#346=CARTESIAN_POINT('Origin',(0.,0.,0.5));
#347=CARTESIAN_POINT('',(-4.5,5.51091059616309E-16,0.5));
#348=CARTESIAN_POINT('',(4.5,-5.51091059616309E-16,0.5));
#349=CARTESIAN_POINT('Origin',(0.,0.,0.5));
#350=CARTESIAN_POINT('',(5.,-6.12323399573677E-16,0.));
#351=CARTESIAN_POINT('Origin',(5.,-6.12323399573677E-16,0.5));
#352=CARTESIAN_POINT('Origin',(0.,0.,0.));
#353=CARTESIAN_POINT('Origin',(0.,0.,0.5));
#354=CARTESIAN_POINT('Origin',(0.,0.,0.));
#355=CARTESIAN_POINT('',(-4.5,-5.51091059616309E-16,1.5));
#356=CARTESIAN_POINT('Origin',(0.,0.,1.5));
#357=CARTESIAN_POINT('',(-4.5,-5.51091059616309E-16,0.));
#358=CARTESIAN_POINT('Origin',(0.,0.,0.));
#359=CARTESIAN_POINT('',(-10.,-1.22464679914735E-15,0.));
#360=CARTESIAN_POINT('Origin',(0.,0.,0.));
#361=CARTESIAN_POINT('',(-1.2645,-7.5,0.));
#362=CARTESIAN_POINT('Origin',(-1.83880688453542E-15,-7.5,0.));
#363=CARTESIAN_POINT('',(-1.2645,7.5,0.));
#364=CARTESIAN_POINT('Origin',(9.19403442267708E-16,7.5,0.));
#365=CARTESIAN_POINT('',(-8.7645,-9.0078768242221E-16,0.));
#366=CARTESIAN_POINT('Origin',(-7.5,-7.45931094670027E-16,0.));
#367=CARTESIAN_POINT('',(6.2355,-2.73959456695763E-15,0.));
#368=CARTESIAN_POINT('Origin',(7.5,-2.58473797920544E-15,0.));
#369=CARTESIAN_POINT('Origin',(0.,0.,0.));
#370=CARTESIAN_POINT('',(-3.,-3.67394039744206E-16,1.5));
#371=CARTESIAN_POINT('Origin',(0.,0.,1.5));
#372=CARTESIAN_POINT('',(-3.,3.67394039744206E-16,-2.));
#373=CARTESIAN_POINT('',(-3.,-3.67394039744206E-16,0.));
#374=CARTESIAN_POINT('Origin',(0.,0.,-2.));
#375=CARTESIAN_POINT('Origin',(0.,0.,1.5));
#376=CARTESIAN_POINT('Origin',(0.,0.,-2.));
#377=CARTESIAN_POINT('',(-1.6,1.95943487863577E-16,-2.));
#378=CARTESIAN_POINT('Origin',(0.,0.,-2.));
#379=CARTESIAN_POINT('Origin',(7.5,-2.58473797920544E-15,0.));
#380=CARTESIAN_POINT('',(6.2355,-2.73959456695763E-15,-2.5));
#381=CARTESIAN_POINT('Origin',(7.5,-2.58473797920544E-15,-2.5));
#382=CARTESIAN_POINT('',(6.2355,-2.42988139145326E-15,0.));
#383=CARTESIAN_POINT('Origin',(0.,0.,0.));
#384=CARTESIAN_POINT('',(-1.6,0.,-2.5));
#385=CARTESIAN_POINT('Origin',(0.,0.,-2.5));
#386=CARTESIAN_POINT('',(-1.6,1.95943487863577E-16,0.));
#387=CARTESIAN_POINT('Origin',(-7.5,-7.45931094670027E-16,0.));
#388=CARTESIAN_POINT('',(-8.7645,-9.0078768242221E-16,-2.5));
#389=CARTESIAN_POINT('Origin',(-7.5,-7.45931094670027E-16,-2.5));
#390=CARTESIAN_POINT('',(-8.7645,-5.91074506917844E-16,0.));
#391=CARTESIAN_POINT('Origin',(9.19403442267708E-16,7.5,0.));
#392=CARTESIAN_POINT('',(-1.2645,7.5,-2.5));
#393=CARTESIAN_POINT('Origin',(9.19403442267708E-16,7.5,-2.5));
#394=CARTESIAN_POINT('',(-1.2645,7.5,0.));
#395=CARTESIAN_POINT('Origin',(-1.83880688453542E-15,-7.5,0.));
#396=CARTESIAN_POINT('',(-1.2645,-7.5,-2.5));
#397=CARTESIAN_POINT('Origin',(-1.83880688453542E-15,-7.5,-2.5));
#398=CARTESIAN_POINT('',(-1.2645,-7.5,0.));
#399=CARTESIAN_POINT('Origin',(0.,0.,0.));
#400=CARTESIAN_POINT('',(-10.,-1.11022302462516E-15,-2.5));
#401=CARTESIAN_POINT('Origin',(0.,0.,-2.5));
#402=CARTESIAN_POINT('',(-10.,1.22464679914735E-15,0.));
#403=CARTESIAN_POINT('Origin',(0.,0.,-2.5));
#404=UNCERTAINTY_MEASURE_WITH_UNIT(LENGTH_MEASURE(0.01),#408,
'DISTANCE_ACCURACY_VALUE',
'Maximum model space distance between geometric entities at asserted c
onnectivities');
#405=UNCERTAINTY_MEASURE_WITH_UNIT(LENGTH_MEASURE(0.01),#408,
'DISTANCE_ACCURACY_VALUE',
'Maximum model space distance between geometric entities at asserted c
onnectivities');
#406=(
GEOMETRIC_REPRESENTATION_CONTEXT(3)
GLOBAL_UNCERTAINTY_ASSIGNED_CONTEXT((#404))
GLOBAL_UNIT_ASSIGNED_CONTEXT((#408,#410,#411))
REPRESENTATION_CONTEXT('','3D')
);
#407=(
GEOMETRIC_REPRESENTATION_CONTEXT(3)
GLOBAL_UNCERTAINTY_ASSIGNED_CONTEXT((#405))
GLOBAL_UNIT_ASSIGNED_CONTEXT((#408,#410,#411))
REPRESENTATION_CONTEXT('','3D')
);
#408=(
LENGTH_UNIT()
NAMED_UNIT(*)
SI_UNIT(.MILLI.,.METRE.)
);
#409=(
LENGTH_UNIT()
NAMED_UNIT(*)
SI_UNIT($,.METRE.)
);
#410=(
NAMED_UNIT(*)
PLANE_ANGLE_UNIT()
SI_UNIT($,.RADIAN.)
);
#411=(
NAMED_UNIT(*)
SI_UNIT($,.STERADIAN.)
SOLID_ANGLE_UNIT()
);
#412=SHAPE_DEFINITION_REPRESENTATION(#413,#414);
#413=PRODUCT_DEFINITION_SHAPE('',$,#416);
#414=SHAPE_REPRESENTATION('',(#238),#406);
#415=PRODUCT_DEFINITION_CONTEXT('part definition',#420,'design');
#416=PRODUCT_DEFINITION('ServoHorn','ServoHorn v1',#417,#415);
#417=PRODUCT_DEFINITION_FORMATION('',$,#422);
#418=PRODUCT_RELATED_PRODUCT_CATEGORY('ServoHorn v1','ServoHorn v1',(#422));
#419=APPLICATION_PROTOCOL_DEFINITION('international standard',
'automotive_design',2009,#420);
#420=APPLICATION_CONTEXT(
'Core Data for Automotive Mechanical Design Process');
#421=PRODUCT_CONTEXT('part definition',#420,'mechanical');
#422=PRODUCT('ServoHorn','ServoHorn v1',$,(#421));
#423=PRESENTATION_STYLE_ASSIGNMENT((#425));
#424=PRESENTATION_STYLE_ASSIGNMENT((#426));
#425=SURFACE_STYLE_USAGE(.BOTH.,#427);
#426=SURFACE_STYLE_USAGE(.BOTH.,#428);
#427=SURFACE_SIDE_STYLE('',(#429));
#428=SURFACE_SIDE_STYLE('',(#430));
#429=SURFACE_STYLE_FILL_AREA(#431);
#430=SURFACE_STYLE_FILL_AREA(#432);
#431=FILL_AREA_STYLE('Steel - Satin',(#433));
#432=FILL_AREA_STYLE('Silver - Satin',(#434));
#433=FILL_AREA_STYLE_COLOUR('Steel - Satin',#435);
#434=FILL_AREA_STYLE_COLOUR('Silver - Satin',#436);
#435=COLOUR_RGB('Steel - Satin',0.627450980392157,0.627450980392157,0.627450980392157);
#436=COLOUR_RGB('Silver - Satin',0.984313725490196,0.980392156862745,0.96078431372549);
ENDSEC;
END-ISO-10303-21;
