ISO-10303-21;
HEADER;
/* Generated by software containing ST-Developer
 * from STEP Tools, Inc. (www.steptools.com) 
 */

FILE_DESCRIPTION(
/* description */ (''),
/* implementation_level */ '2;1');

FILE_NAME(
/* name */ 'BarrelJackMount_v1.step',
/* time_stamp */ '2026-08-21T09:18:34-04:00',
/* author */ (''),
/* organization */ (''),
/* preprocessor_version */ 'ST-DEVELOPER v20.1',
/* originating_system */ 'Autodesk Translation Framework v15.8.0.0',
/* authorisation */ '');

FILE_SCHEMA (('AUTOMOTIVE_DESIGN { 1 0 10303 214 3 1 1 }'));
ENDSEC;

DATA;
#10=MECHANICAL_DESIGN_GEOMETRIC_PRESENTATION_REPRESENTATION('',(#13),#554);
#11=SHAPE_REPRESENTATION_RELATIONSHIP('SRR','None',#561,#12);
#12=ADVANCED_BREP_SHAPE_REPRESENTATION('',(#14),#553);
#13=STYLED_ITEM('',(#571),#14);
#14=MANIFOLD_SOLID_BREP('Body1',#338);
#15=FACE_BOUND('',#65,.T.);
#16=FACE_BOUND('',#67,.T.);
#17=PLANE('',#355);
#18=PLANE('',#356);
#19=PLANE('',#357);
#20=PLANE('',#358);
#21=PLANE('',#359);
#22=PLANE('',#360);
#23=PLANE('',#361);
#24=PLANE('',#362);
#25=PLANE('',#363);
#26=PLANE('',#367);
#27=PLANE('',#368);
#28=PLANE('',#369);
#29=PLANE('',#370);
#30=PLANE('',#371);
#31=PLANE('',#372);
#32=FACE_OUTER_BOUND('',#49,.T.);
#33=FACE_OUTER_BOUND('',#50,.T.);
#34=FACE_OUTER_BOUND('',#51,.T.);
#35=FACE_OUTER_BOUND('',#52,.T.);
#36=FACE_OUTER_BOUND('',#53,.T.);
#37=FACE_OUTER_BOUND('',#54,.T.);
#38=FACE_OUTER_BOUND('',#55,.T.);
#39=FACE_OUTER_BOUND('',#56,.T.);
#40=FACE_OUTER_BOUND('',#57,.T.);
#41=FACE_OUTER_BOUND('',#58,.T.);
#42=FACE_OUTER_BOUND('',#59,.T.);
#43=FACE_OUTER_BOUND('',#60,.T.);
#44=FACE_OUTER_BOUND('',#61,.T.);
#45=FACE_OUTER_BOUND('',#62,.T.);
#46=FACE_OUTER_BOUND('',#63,.T.);
#47=FACE_OUTER_BOUND('',#64,.T.);
#48=FACE_OUTER_BOUND('',#66,.T.);
#49=EDGE_LOOP('',(#229,#230,#231,#232));
#50=EDGE_LOOP('',(#233,#234,#235,#236));
#51=EDGE_LOOP('',(#237,#238,#239,#240));
#52=EDGE_LOOP('',(#241,#242,#243,#244));
#53=EDGE_LOOP('',(#245,#246,#247,#248));
#54=EDGE_LOOP('',(#249,#250,#251,#252));
#55=EDGE_LOOP('',(#253,#254,#255,#256));
#56=EDGE_LOOP('',(#257,#258,#259,#260));
#57=EDGE_LOOP('',(#261,#262,#263,#264));
#58=EDGE_LOOP('',(#265,#266,#267,#268));
#59=EDGE_LOOP('',(#269,#270,#271,#272));
#60=EDGE_LOOP('',(#273,#274,#275,#276));
#61=EDGE_LOOP('',(#277,#278,#279,#280));
#62=EDGE_LOOP('',(#281,#282,#283,#284));
#63=EDGE_LOOP('',(#285,#286,#287,#288));
#64=EDGE_LOOP('',(#289,#290,#291,#292,#293,#294,#295,#296,#297,#298,#299,
#300,#301,#302));
#65=EDGE_LOOP('',(#303));
#66=EDGE_LOOP('',(#304,#305,#306,#307,#308,#309,#310,#311,#312,#313,#314,
#315,#316,#317));
#67=EDGE_LOOP('',(#318));
#68=LINE('',#463,#109);
#69=LINE('',#468,#110);
#70=LINE('',#470,#111);
#71=LINE('',#472,#112);
#72=LINE('',#473,#113);
#73=LINE('',#476,#114);
#74=LINE('',#478,#115);
#75=LINE('',#479,#116);
#76=LINE('',#482,#117);
#77=LINE('',#484,#118);
#78=LINE('',#485,#119);
#79=LINE('',#488,#120);
#80=LINE('',#490,#121);
#81=LINE('',#491,#122);
#82=LINE('',#494,#123);
#83=LINE('',#496,#124);
#84=LINE('',#497,#125);
#85=LINE('',#500,#126);
#86=LINE('',#502,#127);
#87=LINE('',#503,#128);
#88=LINE('',#506,#129);
#89=LINE('',#508,#130);
#90=LINE('',#509,#131);
#91=LINE('',#512,#132);
#92=LINE('',#514,#133);
#93=LINE('',#515,#134);
#94=LINE('',#518,#135);
#95=LINE('',#520,#136);
#96=LINE('',#521,#137);
#97=LINE('',#527,#138);
#98=LINE('',#530,#139);
#99=LINE('',#532,#140);
#100=LINE('',#533,#141);
#101=LINE('',#536,#142);
#102=LINE('',#538,#143);
#103=LINE('',#539,#144);
#104=LINE('',#542,#145);
#105=LINE('',#544,#146);
#106=LINE('',#545,#147);
#107=LINE('',#547,#148);
#108=LINE('',#548,#149);
#109=VECTOR('',#379,6.);
#110=VECTOR('',#384,10.);
#111=VECTOR('',#385,10.);
#112=VECTOR('',#386,10.);
#113=VECTOR('',#387,10.);
#114=VECTOR('',#390,10.);
#115=VECTOR('',#391,10.);
#116=VECTOR('',#392,10.);
#117=VECTOR('',#395,10.);
#118=VECTOR('',#396,10.);
#119=VECTOR('',#397,10.);
#120=VECTOR('',#400,10.);
#121=VECTOR('',#401,10.);
#122=VECTOR('',#402,10.);
#123=VECTOR('',#405,10.);
#124=VECTOR('',#406,10.);
#125=VECTOR('',#407,10.);
#126=VECTOR('',#410,10.);
#127=VECTOR('',#411,10.);
#128=VECTOR('',#412,10.);
#129=VECTOR('',#415,10.);
#130=VECTOR('',#416,10.);
#131=VECTOR('',#417,10.);
#132=VECTOR('',#420,10.);
#133=VECTOR('',#421,10.);
#134=VECTOR('',#422,10.);
#135=VECTOR('',#425,10.);
#136=VECTOR('',#426,10.);
#137=VECTOR('',#427,10.);
#138=VECTOR('',#434,10.);
#139=VECTOR('',#437,10.);
#140=VECTOR('',#438,10.);
#141=VECTOR('',#439,10.);
#142=VECTOR('',#442,10.);
#143=VECTOR('',#443,10.);
#144=VECTOR('',#444,10.);
#145=VECTOR('',#447,10.);
#146=VECTOR('',#448,10.);
#147=VECTOR('',#449,10.);
#148=VECTOR('',#452,10.);
#149=VECTOR('',#453,10.);
#150=CIRCLE('',#353,6.);
#151=CIRCLE('',#354,6.);
#152=CIRCLE('',#365,9.);
#153=CIRCLE('',#366,9.);
#154=VERTEX_POINT('',#460);
#155=VERTEX_POINT('',#462);
#156=VERTEX_POINT('',#466);
#157=VERTEX_POINT('',#467);
#158=VERTEX_POINT('',#469);
#159=VERTEX_POINT('',#471);
#160=VERTEX_POINT('',#475);
#161=VERTEX_POINT('',#477);
#162=VERTEX_POINT('',#481);
#163=VERTEX_POINT('',#483);
#164=VERTEX_POINT('',#487);
#165=VERTEX_POINT('',#489);
#166=VERTEX_POINT('',#493);
#167=VERTEX_POINT('',#495);
#168=VERTEX_POINT('',#499);
#169=VERTEX_POINT('',#501);
#170=VERTEX_POINT('',#505);
#171=VERTEX_POINT('',#507);
#172=VERTEX_POINT('',#511);
#173=VERTEX_POINT('',#513);
#174=VERTEX_POINT('',#517);
#175=VERTEX_POINT('',#519);
#176=VERTEX_POINT('',#523);
#177=VERTEX_POINT('',#525);
#178=VERTEX_POINT('',#529);
#179=VERTEX_POINT('',#531);
#180=VERTEX_POINT('',#535);
#181=VERTEX_POINT('',#537);
#182=VERTEX_POINT('',#541);
#183=VERTEX_POINT('',#543);
#184=EDGE_CURVE('',#154,#154,#150,.T.);
#185=EDGE_CURVE('',#154,#155,#68,.T.);
#186=EDGE_CURVE('',#155,#155,#151,.T.);
#187=EDGE_CURVE('',#156,#157,#69,.T.);
#188=EDGE_CURVE('',#156,#158,#70,.T.);
#189=EDGE_CURVE('',#159,#158,#71,.T.);
#190=EDGE_CURVE('',#157,#159,#72,.T.);
#191=EDGE_CURVE('',#157,#160,#73,.T.);
#192=EDGE_CURVE('',#161,#159,#74,.T.);
#193=EDGE_CURVE('',#160,#161,#75,.T.);
#194=EDGE_CURVE('',#162,#160,#76,.T.);
#195=EDGE_CURVE('',#163,#161,#77,.T.);
#196=EDGE_CURVE('',#162,#163,#78,.T.);
#197=EDGE_CURVE('',#164,#162,#79,.T.);
#198=EDGE_CURVE('',#165,#163,#80,.T.);
#199=EDGE_CURVE('',#164,#165,#81,.T.);
#200=EDGE_CURVE('',#166,#164,#82,.T.);
#201=EDGE_CURVE('',#167,#165,#83,.T.);
#202=EDGE_CURVE('',#166,#167,#84,.T.);
#203=EDGE_CURVE('',#166,#168,#85,.T.);
#204=EDGE_CURVE('',#169,#167,#86,.T.);
#205=EDGE_CURVE('',#168,#169,#87,.T.);
#206=EDGE_CURVE('',#170,#168,#88,.T.);
#207=EDGE_CURVE('',#171,#169,#89,.T.);
#208=EDGE_CURVE('',#170,#171,#90,.T.);
#209=EDGE_CURVE('',#172,#170,#91,.T.);
#210=EDGE_CURVE('',#173,#171,#92,.T.);
#211=EDGE_CURVE('',#172,#173,#93,.T.);
#212=EDGE_CURVE('',#174,#172,#94,.T.);
#213=EDGE_CURVE('',#175,#173,#95,.T.);
#214=EDGE_CURVE('',#174,#175,#96,.T.);
#215=EDGE_CURVE('',#176,#174,#152,.T.);
#216=EDGE_CURVE('',#177,#175,#153,.T.);
#217=EDGE_CURVE('',#176,#177,#97,.T.);
#218=EDGE_CURVE('',#178,#176,#98,.T.);
#219=EDGE_CURVE('',#179,#177,#99,.T.);
#220=EDGE_CURVE('',#178,#179,#100,.T.);
#221=EDGE_CURVE('',#180,#178,#101,.T.);
#222=EDGE_CURVE('',#181,#179,#102,.T.);
#223=EDGE_CURVE('',#180,#181,#103,.T.);
#224=EDGE_CURVE('',#182,#180,#104,.T.);
#225=EDGE_CURVE('',#183,#181,#105,.T.);
#226=EDGE_CURVE('',#182,#183,#106,.T.);
#227=EDGE_CURVE('',#156,#182,#107,.T.);
#228=EDGE_CURVE('',#158,#183,#108,.T.);
#229=ORIENTED_EDGE('',*,*,#184,.F.);
#230=ORIENTED_EDGE('',*,*,#185,.T.);
#231=ORIENTED_EDGE('',*,*,#186,.T.);
#232=ORIENTED_EDGE('',*,*,#185,.F.);
#233=ORIENTED_EDGE('',*,*,#187,.F.);
#234=ORIENTED_EDGE('',*,*,#188,.T.);
#235=ORIENTED_EDGE('',*,*,#189,.F.);
#236=ORIENTED_EDGE('',*,*,#190,.F.);
#237=ORIENTED_EDGE('',*,*,#191,.F.);
#238=ORIENTED_EDGE('',*,*,#190,.T.);
#239=ORIENTED_EDGE('',*,*,#192,.F.);
#240=ORIENTED_EDGE('',*,*,#193,.F.);
#241=ORIENTED_EDGE('',*,*,#194,.T.);
#242=ORIENTED_EDGE('',*,*,#193,.T.);
#243=ORIENTED_EDGE('',*,*,#195,.F.);
#244=ORIENTED_EDGE('',*,*,#196,.F.);
#245=ORIENTED_EDGE('',*,*,#197,.T.);
#246=ORIENTED_EDGE('',*,*,#196,.T.);
#247=ORIENTED_EDGE('',*,*,#198,.F.);
#248=ORIENTED_EDGE('',*,*,#199,.F.);
#249=ORIENTED_EDGE('',*,*,#200,.T.);
#250=ORIENTED_EDGE('',*,*,#199,.T.);
#251=ORIENTED_EDGE('',*,*,#201,.F.);
#252=ORIENTED_EDGE('',*,*,#202,.F.);
#253=ORIENTED_EDGE('',*,*,#203,.F.);
#254=ORIENTED_EDGE('',*,*,#202,.T.);
#255=ORIENTED_EDGE('',*,*,#204,.F.);
#256=ORIENTED_EDGE('',*,*,#205,.F.);
#257=ORIENTED_EDGE('',*,*,#206,.T.);
#258=ORIENTED_EDGE('',*,*,#205,.T.);
#259=ORIENTED_EDGE('',*,*,#207,.F.);
#260=ORIENTED_EDGE('',*,*,#208,.F.);
#261=ORIENTED_EDGE('',*,*,#209,.T.);
#262=ORIENTED_EDGE('',*,*,#208,.T.);
#263=ORIENTED_EDGE('',*,*,#210,.F.);
#264=ORIENTED_EDGE('',*,*,#211,.F.);
#265=ORIENTED_EDGE('',*,*,#212,.T.);
#266=ORIENTED_EDGE('',*,*,#211,.T.);
#267=ORIENTED_EDGE('',*,*,#213,.F.);
#268=ORIENTED_EDGE('',*,*,#214,.F.);
#269=ORIENTED_EDGE('',*,*,#215,.T.);
#270=ORIENTED_EDGE('',*,*,#214,.T.);
#271=ORIENTED_EDGE('',*,*,#216,.F.);
#272=ORIENTED_EDGE('',*,*,#217,.F.);
#273=ORIENTED_EDGE('',*,*,#218,.T.);
#274=ORIENTED_EDGE('',*,*,#217,.T.);
#275=ORIENTED_EDGE('',*,*,#219,.F.);
#276=ORIENTED_EDGE('',*,*,#220,.F.);
#277=ORIENTED_EDGE('',*,*,#221,.T.);
#278=ORIENTED_EDGE('',*,*,#220,.T.);
#279=ORIENTED_EDGE('',*,*,#222,.F.);
#280=ORIENTED_EDGE('',*,*,#223,.F.);
#281=ORIENTED_EDGE('',*,*,#224,.T.);
#282=ORIENTED_EDGE('',*,*,#223,.T.);
#283=ORIENTED_EDGE('',*,*,#225,.F.);
#284=ORIENTED_EDGE('',*,*,#226,.F.);
#285=ORIENTED_EDGE('',*,*,#227,.T.);
#286=ORIENTED_EDGE('',*,*,#226,.T.);
#287=ORIENTED_EDGE('',*,*,#228,.F.);
#288=ORIENTED_EDGE('',*,*,#188,.F.);
#289=ORIENTED_EDGE('',*,*,#228,.T.);
#290=ORIENTED_EDGE('',*,*,#225,.T.);
#291=ORIENTED_EDGE('',*,*,#222,.T.);
#292=ORIENTED_EDGE('',*,*,#219,.T.);
#293=ORIENTED_EDGE('',*,*,#216,.T.);
#294=ORIENTED_EDGE('',*,*,#213,.T.);
#295=ORIENTED_EDGE('',*,*,#210,.T.);
#296=ORIENTED_EDGE('',*,*,#207,.T.);
#297=ORIENTED_EDGE('',*,*,#204,.T.);
#298=ORIENTED_EDGE('',*,*,#201,.T.);
#299=ORIENTED_EDGE('',*,*,#198,.T.);
#300=ORIENTED_EDGE('',*,*,#195,.T.);
#301=ORIENTED_EDGE('',*,*,#192,.T.);
#302=ORIENTED_EDGE('',*,*,#189,.T.);
#303=ORIENTED_EDGE('',*,*,#184,.T.);
#304=ORIENTED_EDGE('',*,*,#227,.F.);
#305=ORIENTED_EDGE('',*,*,#187,.T.);
#306=ORIENTED_EDGE('',*,*,#191,.T.);
#307=ORIENTED_EDGE('',*,*,#194,.F.);
#308=ORIENTED_EDGE('',*,*,#197,.F.);
#309=ORIENTED_EDGE('',*,*,#200,.F.);
#310=ORIENTED_EDGE('',*,*,#203,.T.);
#311=ORIENTED_EDGE('',*,*,#206,.F.);
#312=ORIENTED_EDGE('',*,*,#209,.F.);
#313=ORIENTED_EDGE('',*,*,#212,.F.);
#314=ORIENTED_EDGE('',*,*,#215,.F.);
#315=ORIENTED_EDGE('',*,*,#218,.F.);
#316=ORIENTED_EDGE('',*,*,#221,.F.);
#317=ORIENTED_EDGE('',*,*,#224,.F.);
#318=ORIENTED_EDGE('',*,*,#186,.F.);
#319=CYLINDRICAL_SURFACE('',#352,6.);
#320=CYLINDRICAL_SURFACE('',#364,9.);
#321=ADVANCED_FACE('',(#32),#319,.F.);
#322=ADVANCED_FACE('',(#33),#17,.T.);
#323=ADVANCED_FACE('',(#34),#18,.T.);
#324=ADVANCED_FACE('',(#35),#19,.T.);
#325=ADVANCED_FACE('',(#36),#20,.T.);
#326=ADVANCED_FACE('',(#37),#21,.T.);
#327=ADVANCED_FACE('',(#38),#22,.T.);
#328=ADVANCED_FACE('',(#39),#23,.T.);
#329=ADVANCED_FACE('',(#40),#24,.T.);
#330=ADVANCED_FACE('',(#41),#25,.T.);
#331=ADVANCED_FACE('',(#42),#320,.T.);
#332=ADVANCED_FACE('',(#43),#26,.T.);
#333=ADVANCED_FACE('',(#44),#27,.T.);
#334=ADVANCED_FACE('',(#45),#28,.T.);
#335=ADVANCED_FACE('',(#46),#29,.T.);
#336=ADVANCED_FACE('',(#47,#15),#30,.T.);
#337=ADVANCED_FACE('',(#48,#16),#31,.F.);
#338=CLOSED_SHELL('',(#321,#322,#323,#324,#325,#326,#327,#328,#329,#330,
#331,#332,#333,#334,#335,#336,#337));
#339=DERIVED_UNIT_ELEMENT(#341,1.);
#340=DERIVED_UNIT_ELEMENT(#556,-3.);
#341=(
MASS_UNIT()
NAMED_UNIT(*)
SI_UNIT(.KILO.,.GRAM.)
);
#342=DERIVED_UNIT((#339,#340));
#343=MEASURE_REPRESENTATION_ITEM('density measure',
POSITIVE_RATIO_MEASURE(7850.),#342);
#344=PROPERTY_DEFINITION_REPRESENTATION(#349,#346);
#345=PROPERTY_DEFINITION_REPRESENTATION(#350,#347);
#346=REPRESENTATION('material name',(#348),#553);
#347=REPRESENTATION('density',(#343),#553);
#348=DESCRIPTIVE_REPRESENTATION_ITEM('Steel','Steel');
#349=PROPERTY_DEFINITION('material property','material name',#563);
#350=PROPERTY_DEFINITION('material property','density of part',#563);
#351=AXIS2_PLACEMENT_3D('',#458,#373,#374);
#352=AXIS2_PLACEMENT_3D('',#459,#375,#376);
#353=AXIS2_PLACEMENT_3D('',#461,#377,#378);
#354=AXIS2_PLACEMENT_3D('',#464,#380,#381);
#355=AXIS2_PLACEMENT_3D('',#465,#382,#383);
#356=AXIS2_PLACEMENT_3D('',#474,#388,#389);
#357=AXIS2_PLACEMENT_3D('',#480,#393,#394);
#358=AXIS2_PLACEMENT_3D('',#486,#398,#399);
#359=AXIS2_PLACEMENT_3D('',#492,#403,#404);
#360=AXIS2_PLACEMENT_3D('',#498,#408,#409);
#361=AXIS2_PLACEMENT_3D('',#504,#413,#414);
#362=AXIS2_PLACEMENT_3D('',#510,#418,#419);
#363=AXIS2_PLACEMENT_3D('',#516,#423,#424);
#364=AXIS2_PLACEMENT_3D('',#522,#428,#429);
#365=AXIS2_PLACEMENT_3D('',#524,#430,#431);
#366=AXIS2_PLACEMENT_3D('',#526,#432,#433);
#367=AXIS2_PLACEMENT_3D('',#528,#435,#436);
#368=AXIS2_PLACEMENT_3D('',#534,#440,#441);
#369=AXIS2_PLACEMENT_3D('',#540,#445,#446);
#370=AXIS2_PLACEMENT_3D('',#546,#450,#451);
#371=AXIS2_PLACEMENT_3D('',#549,#454,#455);
#372=AXIS2_PLACEMENT_3D('',#550,#456,#457);
#373=DIRECTION('axis',(0.,0.,1.));
#374=DIRECTION('refdir',(1.,0.,0.));
#375=DIRECTION('center_axis',(0.,1.,0.));
#376=DIRECTION('ref_axis',(1.,0.,0.));
#377=DIRECTION('center_axis',(0.,-1.,0.));
#378=DIRECTION('ref_axis',(1.,0.,0.));
#379=DIRECTION('',(0.,-1.,0.));
#380=DIRECTION('center_axis',(0.,-1.,0.));
#381=DIRECTION('ref_axis',(1.,0.,0.));
#382=DIRECTION('center_axis',(0.,0.,1.));
#383=DIRECTION('ref_axis',(1.,0.,0.));
#384=DIRECTION('',(-1.,0.,0.));
#385=DIRECTION('',(0.,1.,0.));
#386=DIRECTION('',(1.,0.,0.));
#387=DIRECTION('',(0.,1.,0.));
#388=DIRECTION('center_axis',(-1.,0.,0.));
#389=DIRECTION('ref_axis',(0.,0.,1.));
#390=DIRECTION('',(0.,0.,-1.));
#391=DIRECTION('',(0.,0.,1.));
#392=DIRECTION('',(0.,1.,0.));
#393=DIRECTION('center_axis',(0.,0.,-1.));
#394=DIRECTION('ref_axis',(-1.,0.,0.));
#395=DIRECTION('',(-1.,0.,0.));
#396=DIRECTION('',(-1.,0.,0.));
#397=DIRECTION('',(0.,1.,0.));
#398=DIRECTION('center_axis',(1.,0.,0.));
#399=DIRECTION('ref_axis',(0.,0.,-1.));
#400=DIRECTION('',(0.,0.,-1.));
#401=DIRECTION('',(0.,0.,-1.));
#402=DIRECTION('',(0.,1.,0.));
#403=DIRECTION('center_axis',(0.,0.,1.));
#404=DIRECTION('ref_axis',(1.,0.,0.));
#405=DIRECTION('',(1.,0.,0.));
#406=DIRECTION('',(1.,0.,0.));
#407=DIRECTION('',(0.,1.,0.));
#408=DIRECTION('center_axis',(1.,0.,-1.8503717077086E-16));
#409=DIRECTION('ref_axis',(-1.8503717077086E-16,0.,-1.));
#410=DIRECTION('',(1.8503717077086E-16,0.,1.));
#411=DIRECTION('',(-1.8503717077086E-16,0.,-1.));
#412=DIRECTION('',(0.,1.,0.));
#413=DIRECTION('center_axis',(-1.94289029309402E-15,0.,-1.));
#414=DIRECTION('ref_axis',(-1.,0.,1.94289029309402E-15));
#415=DIRECTION('',(-1.,0.,1.94289029309402E-15));
#416=DIRECTION('',(-1.,0.,1.94289029309402E-15));
#417=DIRECTION('',(0.,1.,0.));
#418=DIRECTION('center_axis',(1.,0.,0.));
#419=DIRECTION('ref_axis',(0.,0.,-1.));
#420=DIRECTION('',(0.,0.,-1.));
#421=DIRECTION('',(0.,0.,-1.));
#422=DIRECTION('',(0.,1.,0.));
#423=DIRECTION('center_axis',(1.85037170770859E-16,0.,1.));
#424=DIRECTION('ref_axis',(1.,0.,-1.85037170770859E-16));
#425=DIRECTION('',(1.,0.,-1.85037170770859E-16));
#426=DIRECTION('',(1.,0.,-1.85037170770859E-16));
#427=DIRECTION('',(0.,1.,0.));
#428=DIRECTION('center_axis',(0.,1.,0.));
#429=DIRECTION('ref_axis',(1.,0.,0.));
#430=DIRECTION('center_axis',(0.,1.,0.));
#431=DIRECTION('ref_axis',(1.,0.,0.));
#432=DIRECTION('center_axis',(0.,1.,0.));
#433=DIRECTION('ref_axis',(1.,0.,0.));
#434=DIRECTION('',(0.,1.,0.));
#435=DIRECTION('center_axis',(5.55111512312578E-16,0.,1.));
#436=DIRECTION('ref_axis',(1.,0.,-5.55111512312578E-16));
#437=DIRECTION('',(1.,0.,-5.55111512312578E-16));
#438=DIRECTION('',(1.,0.,-5.55111512312578E-16));
#439=DIRECTION('',(0.,1.,0.));
#440=DIRECTION('center_axis',(-1.,0.,0.));
#441=DIRECTION('ref_axis',(0.,0.,1.));
#442=DIRECTION('',(0.,0.,1.));
#443=DIRECTION('',(0.,0.,1.));
#444=DIRECTION('',(0.,1.,0.));
#445=DIRECTION('center_axis',(3.70074341541719E-16,0.,-1.));
#446=DIRECTION('ref_axis',(-1.,0.,-3.70074341541719E-16));
#447=DIRECTION('',(-1.,0.,-3.70074341541719E-16));
#448=DIRECTION('',(-1.,0.,-3.70074341541719E-16));
#449=DIRECTION('',(0.,1.,0.));
#450=DIRECTION('center_axis',(-1.,0.,0.));
#451=DIRECTION('ref_axis',(0.,0.,1.));
#452=DIRECTION('',(0.,0.,1.));
#453=DIRECTION('',(0.,0.,1.));
#454=DIRECTION('center_axis',(0.,1.,0.));
#455=DIRECTION('ref_axis',(1.,0.,0.));
#456=DIRECTION('center_axis',(0.,1.,0.));
#457=DIRECTION('ref_axis',(1.,0.,0.));
#458=CARTESIAN_POINT('',(0.,0.,0.));
#459=CARTESIAN_POINT('Origin',(-4.60940805406093E-16,0.,4.5));
#460=CARTESIAN_POINT('',(-6.,5.,4.5));
#461=CARTESIAN_POINT('Origin',(-4.60940805406093E-16,5.,4.5));
#462=CARTESIAN_POINT('',(-6.,0.,4.5));
#463=CARTESIAN_POINT('',(-6.,0.,4.5));
#464=CARTESIAN_POINT('Origin',(-4.60940805406093E-16,0.,4.5));
#465=CARTESIAN_POINT('Origin',(-12.,0.,-1.5));
#466=CARTESIAN_POINT('',(-9.,0.,-1.5));
#467=CARTESIAN_POINT('',(-12.,0.,-1.5));
#468=CARTESIAN_POINT('',(-9.,0.,-1.5));
#469=CARTESIAN_POINT('',(-9.,5.,-1.5));
#470=CARTESIAN_POINT('',(-9.,0.,-1.5));
#471=CARTESIAN_POINT('',(-12.,5.,-1.5));
#472=CARTESIAN_POINT('',(-9.,5.,-1.5));
#473=CARTESIAN_POINT('',(-12.,0.,-1.5));
#474=CARTESIAN_POINT('Origin',(-12.,0.,-4.5));
#475=CARTESIAN_POINT('',(-12.,0.,-4.5));
#476=CARTESIAN_POINT('',(-12.,0.,-1.5));
#477=CARTESIAN_POINT('',(-12.,5.,-4.5));
#478=CARTESIAN_POINT('',(-12.,5.,-1.5));
#479=CARTESIAN_POINT('',(-12.,0.,-4.5));
#480=CARTESIAN_POINT('Origin',(12.,0.,-4.5));
#481=CARTESIAN_POINT('',(12.,0.,-4.5));
#482=CARTESIAN_POINT('',(12.,0.,-4.5));
#483=CARTESIAN_POINT('',(12.,5.,-4.5));
#484=CARTESIAN_POINT('',(12.,5.,-4.5));
#485=CARTESIAN_POINT('',(12.,0.,-4.5));
#486=CARTESIAN_POINT('Origin',(12.,0.,-1.5));
#487=CARTESIAN_POINT('',(12.,0.,-1.5));
#488=CARTESIAN_POINT('',(12.,0.,-1.5));
#489=CARTESIAN_POINT('',(12.,5.,-1.5));
#490=CARTESIAN_POINT('',(12.,5.,-1.5));
#491=CARTESIAN_POINT('',(12.,0.,-1.5));
#492=CARTESIAN_POINT('Origin',(9.,0.,-1.5));
#493=CARTESIAN_POINT('',(9.,0.,-1.5));
#494=CARTESIAN_POINT('',(9.,0.,-1.5));
#495=CARTESIAN_POINT('',(9.,5.,-1.5));
#496=CARTESIAN_POINT('',(9.,5.,-1.5));
#497=CARTESIAN_POINT('',(9.,0.,-1.5));
#498=CARTESIAN_POINT('Origin',(9.,0.,1.5));
#499=CARTESIAN_POINT('',(9.,0.,1.5));
#500=CARTESIAN_POINT('',(9.,0.,-1.5));
#501=CARTESIAN_POINT('',(9.,5.,1.5));
#502=CARTESIAN_POINT('',(9.,5.,-1.5));
#503=CARTESIAN_POINT('',(9.,0.,1.5));
#504=CARTESIAN_POINT('Origin',(12.,0.,1.49999999999999));
#505=CARTESIAN_POINT('',(12.,0.,1.49999999999999));
#506=CARTESIAN_POINT('',(12.,0.,1.49999999999999));
#507=CARTESIAN_POINT('',(12.,5.,1.49999999999999));
#508=CARTESIAN_POINT('',(12.,5.,1.49999999999999));
#509=CARTESIAN_POINT('',(12.,0.,1.49999999999999));
#510=CARTESIAN_POINT('Origin',(12.,0.,4.49999999999999));
#511=CARTESIAN_POINT('',(12.,0.,4.49999999999999));
#512=CARTESIAN_POINT('',(12.,0.,4.49999999999999));
#513=CARTESIAN_POINT('',(12.,5.,4.49999999999999));
#514=CARTESIAN_POINT('',(12.,5.,4.49999999999999));
#515=CARTESIAN_POINT('',(12.,0.,4.49999999999999));
#516=CARTESIAN_POINT('Origin',(9.,0.,4.49999999999999));
#517=CARTESIAN_POINT('',(9.,0.,4.49999999999999));
#518=CARTESIAN_POINT('',(9.,0.,4.49999999999999));
#519=CARTESIAN_POINT('',(9.,5.,4.49999999999999));
#520=CARTESIAN_POINT('',(9.,5.,4.49999999999999));
#521=CARTESIAN_POINT('',(9.,0.,4.49999999999999));
#522=CARTESIAN_POINT('Origin',(-4.60940805406093E-16,0.,4.5));
#523=CARTESIAN_POINT('',(-9.,0.,4.5));
#524=CARTESIAN_POINT('Origin',(-4.60940805406093E-16,0.,4.5));
#525=CARTESIAN_POINT('',(-9.,5.,4.5));
#526=CARTESIAN_POINT('Origin',(-4.60940805406093E-16,5.,4.5));
#527=CARTESIAN_POINT('',(-9.,0.,4.5));
#528=CARTESIAN_POINT('Origin',(-12.,0.,4.5));
#529=CARTESIAN_POINT('',(-12.,0.,4.5));
#530=CARTESIAN_POINT('',(-12.,0.,4.5));
#531=CARTESIAN_POINT('',(-12.,5.,4.5));
#532=CARTESIAN_POINT('',(-12.,5.,4.5));
#533=CARTESIAN_POINT('',(-12.,0.,4.5));
#534=CARTESIAN_POINT('Origin',(-12.,0.,1.5));
#535=CARTESIAN_POINT('',(-12.,0.,1.5));
#536=CARTESIAN_POINT('',(-12.,0.,1.5));
#537=CARTESIAN_POINT('',(-12.,5.,1.5));
#538=CARTESIAN_POINT('',(-12.,5.,1.5));
#539=CARTESIAN_POINT('',(-12.,0.,1.5));
#540=CARTESIAN_POINT('Origin',(-9.,0.,1.5));
#541=CARTESIAN_POINT('',(-9.,0.,1.5));
#542=CARTESIAN_POINT('',(-9.,0.,1.5));
#543=CARTESIAN_POINT('',(-9.,5.,1.5));
#544=CARTESIAN_POINT('',(-9.,5.,1.5));
#545=CARTESIAN_POINT('',(-9.,0.,1.5));
#546=CARTESIAN_POINT('Origin',(-9.,0.,-1.5));
#547=CARTESIAN_POINT('',(-9.,0.,-1.5));
#548=CARTESIAN_POINT('',(-9.,5.,-1.5));
#549=CARTESIAN_POINT('Origin',(2.22044604925031E-15,5.,4.5));
#550=CARTESIAN_POINT('Origin',(2.22044604925031E-15,0.,4.5));
#551=UNCERTAINTY_MEASURE_WITH_UNIT(LENGTH_MEASURE(0.01),#555,
'DISTANCE_ACCURACY_VALUE',
'Maximum model space distance between geometric entities at asserted c
onnectivities');
#552=UNCERTAINTY_MEASURE_WITH_UNIT(LENGTH_MEASURE(0.01),#555,
'DISTANCE_ACCURACY_VALUE',
'Maximum model space distance between geometric entities at asserted c
onnectivities');
#553=(
GEOMETRIC_REPRESENTATION_CONTEXT(3)
GLOBAL_UNCERTAINTY_ASSIGNED_CONTEXT((#551))
GLOBAL_UNIT_ASSIGNED_CONTEXT((#555,#557,#558))
REPRESENTATION_CONTEXT('','3D')
);
#554=(
GEOMETRIC_REPRESENTATION_CONTEXT(3)
GLOBAL_UNCERTAINTY_ASSIGNED_CONTEXT((#552))
GLOBAL_UNIT_ASSIGNED_CONTEXT((#555,#557,#558))
REPRESENTATION_CONTEXT('','3D')
);
#555=(
LENGTH_UNIT()
NAMED_UNIT(*)
SI_UNIT(.MILLI.,.METRE.)
);
#556=(
LENGTH_UNIT()
NAMED_UNIT(*)
SI_UNIT($,.METRE.)
);
#557=(
NAMED_UNIT(*)
PLANE_ANGLE_UNIT()
SI_UNIT($,.RADIAN.)
);
#558=(
NAMED_UNIT(*)
SI_UNIT($,.STERADIAN.)
SOLID_ANGLE_UNIT()
);
#559=SHAPE_DEFINITION_REPRESENTATION(#560,#561);
#560=PRODUCT_DEFINITION_SHAPE('',$,#563);
#561=SHAPE_REPRESENTATION('',(#351),#553);
#562=PRODUCT_DEFINITION_CONTEXT('part definition',#567,'design');
#563=PRODUCT_DEFINITION('BarrelJackMount','BarrelJackMount v1',#564,#562);
#564=PRODUCT_DEFINITION_FORMATION('',$,#569);
#565=PRODUCT_RELATED_PRODUCT_CATEGORY('BarrelJackMount v1',
'BarrelJackMount v1',(#569));
#566=APPLICATION_PROTOCOL_DEFINITION('international standard',
'automotive_design',2009,#567);
#567=APPLICATION_CONTEXT(
'Core Data for Automotive Mechanical Design Process');
#568=PRODUCT_CONTEXT('part definition',#567,'mechanical');
#569=PRODUCT('BarrelJackMount','BarrelJackMount v1',$,(#568));
#570=PRESENTATION_STYLE_ASSIGNMENT((#572));
#571=PRESENTATION_STYLE_ASSIGNMENT((#573));
#572=SURFACE_STYLE_USAGE(.BOTH.,#574);
#573=SURFACE_STYLE_USAGE(.BOTH.,#575);
#574=SURFACE_SIDE_STYLE('',(#576));
#575=SURFACE_SIDE_STYLE('',(#577));
#576=SURFACE_STYLE_FILL_AREA(#578);
#577=SURFACE_STYLE_FILL_AREA(#579);
#578=FILL_AREA_STYLE('Steel - Satin',(#580));
#579=FILL_AREA_STYLE('Plastic - Matte (Red)',(#581));
#580=FILL_AREA_STYLE_COLOUR('Steel - Satin',#582);
#581=FILL_AREA_STYLE_COLOUR('Plastic - Matte (Red)',#583);
#582=COLOUR_RGB('Steel - Satin',0.627450980392157,0.627450980392157,0.627450980392157);
#583=COLOUR_RGB('Plastic - Matte (Red)',0.768627450980392,0.207843137254902,
0.152941176470588);
ENDSEC;
END-ISO-10303-21;
