ISO-10303-21;
HEADER;
/* Generated by software containing ST-Developer
 * from STEP Tools, Inc. (www.steptools.com) 
 */

FILE_DESCRIPTION(
/* description */ (''),
/* implementation_level */ '2;1');

FILE_NAME(
/* name */ 'BearingSleeve_v8.step',
/* time_stamp */ '2026-08-21T09:18:35-04:00',
/* author */ (''),
/* organization */ (''),
/* preprocessor_version */ 'ST-DEVELOPER v20.1',
/* originating_system */ 'Autodesk Translation Framework v15.8.0.0',
/* authorisation */ '');

FILE_SCHEMA (('AUTOMOTIVE_DESIGN { 1 0 10303 214 3 1 1 }'));
ENDSEC;

DATA;
#10=MECHANICAL_DESIGN_GEOMETRIC_PRESENTATION_REPRESENTATION('',(#13),#308);
#11=SHAPE_REPRESENTATION_RELATIONSHIP('SRR','None',#315,#12);
#12=ADVANCED_BREP_SHAPE_REPRESENTATION('',(#14),#307);
#13=STYLED_ITEM('',(#325),#14);
#14=MANIFOLD_SOLID_BREP('Body1',#114);
#15=FACE_BOUND('',#43,.T.);
#16=FACE_BOUND('',#45,.T.);
#17=FACE_BOUND('',#48,.T.);
#18=FACE_BOUND('',#51,.T.);
#19=PLANE('',#133);
#20=PLANE('',#135);
#21=PLANE('',#139);
#22=PLANE('',#142);
#23=LINE('',#287,#26);
#24=LINE('',#298,#27);
#25=LINE('',#302,#28);
#26=VECTOR('',#153,4.);
#27=VECTOR('',#168,3.);
#28=VECTOR('',#173,4.);
#29=CYLINDRICAL_SURFACE('',#130,4.);
#30=CYLINDRICAL_SURFACE('',#138,3.);
#31=CYLINDRICAL_SURFACE('',#140,4.);
#32=FACE_OUTER_BOUND('',#40,.T.);
#33=FACE_OUTER_BOUND('',#41,.T.);
#34=FACE_OUTER_BOUND('',#42,.T.);
#35=FACE_OUTER_BOUND('',#44,.T.);
#36=FACE_OUTER_BOUND('',#46,.T.);
#37=FACE_OUTER_BOUND('',#47,.T.);
#38=FACE_OUTER_BOUND('',#49,.T.);
#39=FACE_OUTER_BOUND('',#50,.T.);
#40=EDGE_LOOP('',(#81,#82,#83,#84));
#41=EDGE_LOOP('',(#85,#86,#87,#88));
#42=EDGE_LOOP('',(#89));
#43=EDGE_LOOP('',(#90));
#44=EDGE_LOOP('',(#91));
#45=EDGE_LOOP('',(#92));
#46=EDGE_LOOP('',(#93,#94,#95,#96));
#47=EDGE_LOOP('',(#97));
#48=EDGE_LOOP('',(#98));
#49=EDGE_LOOP('',(#99,#100,#101,#102));
#50=EDGE_LOOP('',(#103));
#51=EDGE_LOOP('',(#104));
#52=CIRCLE('',#128,6.);
#53=CIRCLE('',#129,6.);
#54=CIRCLE('',#131,4.);
#55=CIRCLE('',#132,4.);
#56=CIRCLE('',#134,3.);
#57=CIRCLE('',#136,4.);
#58=CIRCLE('',#137,3.);
#59=CIRCLE('',#141,4.);
#60=(
BOUNDED_CURVE()
B_SPLINE_CURVE(5,(#271,#272,#273,#274,#275,#276,#277,#278,#279,#280),
 .UNSPECIFIED.,.F.,.F.)
B_SPLINE_CURVE_WITH_KNOTS((6,1,1,1,1,6),(0.,0.2,0.4,0.6,0.8,1.),
 .UNSPECIFIED.)
CURVE()
GEOMETRIC_REPRESENTATION_ITEM()
RATIONAL_B_SPLINE_CURVE((1.,1.,1.,1.,1.,1.,1.,1.,1.,1.))
REPRESENTATION_ITEM('')
);
#61=VERTEX_POINT('',#269);
#62=VERTEX_POINT('',#270);
#63=VERTEX_POINT('',#284);
#64=VERTEX_POINT('',#286);
#65=VERTEX_POINT('',#290);
#66=VERTEX_POINT('',#293);
#67=VERTEX_POINT('',#295);
#68=VERTEX_POINT('',#301);
#69=EDGE_CURVE('',#61,#62,#60,.T.);
#70=EDGE_CURVE('',#62,#62,#52,.T.);
#71=EDGE_CURVE('',#61,#61,#53,.T.);
#72=EDGE_CURVE('',#63,#63,#54,.T.);
#73=EDGE_CURVE('',#63,#64,#23,.T.);
#74=EDGE_CURVE('',#64,#64,#55,.T.);
#75=EDGE_CURVE('',#65,#65,#56,.T.);
#76=EDGE_CURVE('',#66,#66,#57,.T.);
#77=EDGE_CURVE('',#67,#67,#58,.T.);
#78=EDGE_CURVE('',#65,#67,#24,.T.);
#79=EDGE_CURVE('',#66,#68,#25,.T.);
#80=EDGE_CURVE('',#68,#68,#59,.T.);
#81=ORIENTED_EDGE('',*,*,#69,.T.);
#82=ORIENTED_EDGE('',*,*,#70,.T.);
#83=ORIENTED_EDGE('',*,*,#69,.F.);
#84=ORIENTED_EDGE('',*,*,#71,.F.);
#85=ORIENTED_EDGE('',*,*,#72,.F.);
#86=ORIENTED_EDGE('',*,*,#73,.T.);
#87=ORIENTED_EDGE('',*,*,#74,.F.);
#88=ORIENTED_EDGE('',*,*,#73,.F.);
#89=ORIENTED_EDGE('',*,*,#72,.T.);
#90=ORIENTED_EDGE('',*,*,#75,.F.);
#91=ORIENTED_EDGE('',*,*,#76,.T.);
#92=ORIENTED_EDGE('',*,*,#77,.F.);
#93=ORIENTED_EDGE('',*,*,#75,.T.);
#94=ORIENTED_EDGE('',*,*,#78,.T.);
#95=ORIENTED_EDGE('',*,*,#77,.T.);
#96=ORIENTED_EDGE('',*,*,#78,.F.);
#97=ORIENTED_EDGE('',*,*,#71,.T.);
#98=ORIENTED_EDGE('',*,*,#74,.T.);
#99=ORIENTED_EDGE('',*,*,#76,.F.);
#100=ORIENTED_EDGE('',*,*,#79,.T.);
#101=ORIENTED_EDGE('',*,*,#80,.T.);
#102=ORIENTED_EDGE('',*,*,#79,.F.);
#103=ORIENTED_EDGE('',*,*,#70,.F.);
#104=ORIENTED_EDGE('',*,*,#80,.F.);
#105=(
BOUNDED_SURFACE()
B_SPLINE_SURFACE(5,2,((#179,#180,#181,#182,#183,#184,#185,#186,#187),(#188,
#189,#190,#191,#192,#193,#194,#195,#196),(#197,#198,#199,#200,#201,#202,
#203,#204,#205),(#206,#207,#208,#209,#210,#211,#212,#213,#214),(#215,#216,
#217,#218,#219,#220,#221,#222,#223),(#224,#225,#226,#227,#228,#229,#230,
#231,#232),(#233,#234,#235,#236,#237,#238,#239,#240,#241),(#242,#243,#244,
#245,#246,#247,#248,#249,#250),(#251,#252,#253,#254,#255,#256,#257,#258,
#259),(#260,#261,#262,#263,#264,#265,#266,#267,#268)),.UNSPECIFIED.,.F.,
 .T.,.F.)
B_SPLINE_SURFACE_WITH_KNOTS((6,1,1,1,1,6),(3,2,2,2,3),(-1.,-0.8,-0.6,-0.4,
-0.2,0.),(0.,1.5707963267949,3.14159265358979,4.71238898038469,6.28318530717959),
 .UNSPECIFIED.)
GEOMETRIC_REPRESENTATION_ITEM()
RATIONAL_B_SPLINE_SURFACE(((1.,0.707106781186548,1.,0.707106781186548,1.,
0.707106781186548,1.,0.707106781186548,1.),(1.,0.707106781186548,1.,0.707106781186548,
1.,0.707106781186548,1.,0.707106781186548,1.),(1.,0.707106781186548,1.,
0.707106781186548,1.,0.707106781186548,1.,0.707106781186548,1.),(1.,0.707106781186548,
1.,0.707106781186548,1.,0.707106781186548,1.,0.707106781186548,1.),(1.,
0.707106781186548,1.,0.707106781186548,1.,0.707106781186548,1.,0.707106781186548,
1.),(1.,0.707106781186548,1.,0.707106781186548,1.,0.707106781186548,1.,
0.707106781186548,1.),(1.,0.707106781186548,1.,0.707106781186548,1.,0.707106781186548,
1.,0.707106781186548,1.),(1.,0.707106781186548,1.,0.707106781186548,1.,
0.707106781186548,1.,0.707106781186548,1.),(1.,0.707106781186548,1.,0.707106781186548,
1.,0.707106781186548,1.,0.707106781186548,1.),(1.,0.707106781186548,1.,
0.707106781186548,1.,0.707106781186548,1.,0.707106781186548,1.)))
REPRESENTATION_ITEM('')
SURFACE()
);
#106=ADVANCED_FACE('',(#32),#105,.F.);
#107=ADVANCED_FACE('',(#33),#29,.F.);
#108=ADVANCED_FACE('',(#34,#15),#19,.T.);
#109=ADVANCED_FACE('',(#35,#16),#20,.F.);
#110=ADVANCED_FACE('',(#36),#30,.F.);
#111=ADVANCED_FACE('',(#37,#17),#21,.T.);
#112=ADVANCED_FACE('',(#38),#31,.F.);
#113=ADVANCED_FACE('',(#39,#18),#22,.F.);
#114=CLOSED_SHELL('',(#106,#107,#108,#109,#110,#111,#112,#113));
#115=DERIVED_UNIT_ELEMENT(#117,1.);
#116=DERIVED_UNIT_ELEMENT(#310,-3.);
#117=(
MASS_UNIT()
NAMED_UNIT(*)
SI_UNIT(.KILO.,.GRAM.)
);
#118=DERIVED_UNIT((#115,#116));
#119=MEASURE_REPRESENTATION_ITEM('density measure',
POSITIVE_RATIO_MEASURE(7850.),#118);
#120=PROPERTY_DEFINITION_REPRESENTATION(#125,#122);
#121=PROPERTY_DEFINITION_REPRESENTATION(#126,#123);
#122=REPRESENTATION('material name',(#124),#307);
#123=REPRESENTATION('density',(#119),#307);
#124=DESCRIPTIVE_REPRESENTATION_ITEM('Steel','Steel');
#125=PROPERTY_DEFINITION('material property','material name',#317);
#126=PROPERTY_DEFINITION('material property','density of part',#317);
#127=AXIS2_PLACEMENT_3D('',#178,#143,#144);
#128=AXIS2_PLACEMENT_3D('',#281,#145,#146);
#129=AXIS2_PLACEMENT_3D('',#282,#147,#148);
#130=AXIS2_PLACEMENT_3D('',#283,#149,#150);
#131=AXIS2_PLACEMENT_3D('',#285,#151,#152);
#132=AXIS2_PLACEMENT_3D('',#288,#154,#155);
#133=AXIS2_PLACEMENT_3D('',#289,#156,#157);
#134=AXIS2_PLACEMENT_3D('',#291,#158,#159);
#135=AXIS2_PLACEMENT_3D('',#292,#160,#161);
#136=AXIS2_PLACEMENT_3D('',#294,#162,#163);
#137=AXIS2_PLACEMENT_3D('',#296,#164,#165);
#138=AXIS2_PLACEMENT_3D('',#297,#166,#167);
#139=AXIS2_PLACEMENT_3D('',#299,#169,#170);
#140=AXIS2_PLACEMENT_3D('',#300,#171,#172);
#141=AXIS2_PLACEMENT_3D('',#303,#174,#175);
#142=AXIS2_PLACEMENT_3D('',#304,#176,#177);
#143=DIRECTION('axis',(0.,0.,1.));
#144=DIRECTION('refdir',(1.,0.,0.));
#145=DIRECTION('center_axis',(0.,0.,1.));
#146=DIRECTION('ref_axis',(1.,0.,0.));
#147=DIRECTION('center_axis',(0.,0.,1.));
#148=DIRECTION('ref_axis',(1.,0.,0.));
#149=DIRECTION('center_axis',(0.,0.,1.));
#150=DIRECTION('ref_axis',(1.,0.,0.));
#151=DIRECTION('center_axis',(0.,0.,1.));
#152=DIRECTION('ref_axis',(1.,0.,0.));
#153=DIRECTION('',(0.,0.,1.));
#154=DIRECTION('center_axis',(0.,0.,-1.));
#155=DIRECTION('ref_axis',(1.,0.,0.));
#156=DIRECTION('center_axis',(0.,0.,1.));
#157=DIRECTION('ref_axis',(1.,0.,0.));
#158=DIRECTION('center_axis',(0.,0.,1.));
#159=DIRECTION('ref_axis',(1.,0.,0.));
#160=DIRECTION('center_axis',(0.,0.,1.));
#161=DIRECTION('ref_axis',(1.,0.,0.));
#162=DIRECTION('center_axis',(0.,0.,-1.));
#163=DIRECTION('ref_axis',(1.,0.,0.));
#164=DIRECTION('center_axis',(0.,0.,-1.));
#165=DIRECTION('ref_axis',(1.,0.,0.));
#166=DIRECTION('center_axis',(0.,0.,1.));
#167=DIRECTION('ref_axis',(1.,0.,0.));
#168=DIRECTION('',(0.,0.,-1.));
#169=DIRECTION('center_axis',(0.,0.,1.));
#170=DIRECTION('ref_axis',(1.,0.,0.));
#171=DIRECTION('center_axis',(0.,0.,1.));
#172=DIRECTION('ref_axis',(1.,0.,0.));
#173=DIRECTION('',(0.,0.,-1.));
#174=DIRECTION('center_axis',(0.,0.,-1.));
#175=DIRECTION('ref_axis',(1.,0.,0.));
#176=DIRECTION('center_axis',(0.,0.,1.));
#177=DIRECTION('ref_axis',(1.,0.,0.));
#178=CARTESIAN_POINT('',(0.,0.,0.));
#179=CARTESIAN_POINT('Ctrl Pts',(5.99999986588955,0.,0.499999988824129));
#180=CARTESIAN_POINT('Ctrl Pts',(5.99999986588955,5.99999986588955,0.499999988824129));
#181=CARTESIAN_POINT('Ctrl Pts',(0.,5.99999986588955,0.499999988824129));
#182=CARTESIAN_POINT('Ctrl Pts',(-5.99999986588955,5.99999986588955,0.499999988824129));
#183=CARTESIAN_POINT('Ctrl Pts',(-5.99999986588955,0.,0.499999988824129));
#184=CARTESIAN_POINT('Ctrl Pts',(-5.99999986588955,-5.99999986588955,0.499999988824129));
#185=CARTESIAN_POINT('Ctrl Pts',(0.,-5.99999986588955,0.499999988824129));
#186=CARTESIAN_POINT('Ctrl Pts',(5.99999986588955,-5.99999986588955,0.499999988824129));
#187=CARTESIAN_POINT('Ctrl Pts',(5.99999986588955,0.,0.499999988824129));
#188=CARTESIAN_POINT('Ctrl Pts',(5.9187636609528,0.,0.703090501165995));
#189=CARTESIAN_POINT('Ctrl Pts',(5.9187636609528,5.9187636609528,0.703090501165995));
#190=CARTESIAN_POINT('Ctrl Pts',(0.,5.9187636609528,0.703090501165995));
#191=CARTESIAN_POINT('Ctrl Pts',(-5.9187636609528,5.9187636609528,0.703090501165994));
#192=CARTESIAN_POINT('Ctrl Pts',(-5.9187636609528,0.,0.703090501165994));
#193=CARTESIAN_POINT('Ctrl Pts',(-5.9187636609528,-5.9187636609528,0.703090501165994));
#194=CARTESIAN_POINT('Ctrl Pts',(0.,-5.9187636609528,0.703090501165995));
#195=CARTESIAN_POINT('Ctrl Pts',(5.9187636609528,-5.9187636609528,0.703090501165995));
#196=CARTESIAN_POINT('Ctrl Pts',(5.9187636609528,0.,0.703090501165995));
#197=CARTESIAN_POINT('Ctrl Pts',(5.77788943324172,0.,1.23062022515705));
#198=CARTESIAN_POINT('Ctrl Pts',(5.77788943324172,5.77788943324172,1.23062022515705));
#199=CARTESIAN_POINT('Ctrl Pts',(0.,5.77788943324172,1.23062022515705));
#200=CARTESIAN_POINT('Ctrl Pts',(-5.77788943324172,5.77788943324172,1.23062022515705));
#201=CARTESIAN_POINT('Ctrl Pts',(-5.77788943324172,0.,1.23062022515705));
#202=CARTESIAN_POINT('Ctrl Pts',(-5.77788943324172,-5.77788943324172,1.23062022515705));
#203=CARTESIAN_POINT('Ctrl Pts',(0.,-5.77788943324172,1.23062022515705));
#204=CARTESIAN_POINT('Ctrl Pts',(5.77788943324172,-5.77788943324172,1.23062022515705));
#205=CARTESIAN_POINT('Ctrl Pts',(5.77788943324172,0.,1.23062022515705));
#206=CARTESIAN_POINT('Ctrl Pts',(5.63131635897381,0.,2.38558373760071));
#207=CARTESIAN_POINT('Ctrl Pts',(5.63131635897381,5.63131635897381,2.38558373760071));
#208=CARTESIAN_POINT('Ctrl Pts',(0.,5.63131635897381,2.38558373760071));
#209=CARTESIAN_POINT('Ctrl Pts',(-5.63131635897381,5.63131635897381,2.38558373760071));
#210=CARTESIAN_POINT('Ctrl Pts',(-5.63131635897381,0.,2.38558373760071));
#211=CARTESIAN_POINT('Ctrl Pts',(-5.63131635897381,-5.63131635897381,2.38558373760071));
#212=CARTESIAN_POINT('Ctrl Pts',(0.,-5.63131635897381,2.38558373760071));
#213=CARTESIAN_POINT('Ctrl Pts',(5.63131635897381,-5.63131635897381,2.38558373760071));
#214=CARTESIAN_POINT('Ctrl Pts',(5.63131635897381,0.,2.38558373760071));
#215=CARTESIAN_POINT('Ctrl Pts',(5.54923998552163,0.,4.50953951787756));
#216=CARTESIAN_POINT('Ctrl Pts',(5.54923998552163,5.54923998552163,4.50953951787756));
#217=CARTESIAN_POINT('Ctrl Pts',(0.,5.54923998552163,4.50953951787756));
#218=CARTESIAN_POINT('Ctrl Pts',(-5.54923998552163,5.54923998552163,4.50953951787756));
#219=CARTESIAN_POINT('Ctrl Pts',(-5.54923998552163,0.,4.50953951787756));
#220=CARTESIAN_POINT('Ctrl Pts',(-5.54923998552163,-5.54923998552163,4.50953951787756));
#221=CARTESIAN_POINT('Ctrl Pts',(0.,-5.54923998552163,4.50953951787756));
#222=CARTESIAN_POINT('Ctrl Pts',(5.54923998552163,-5.54923998552163,4.50953951787756));
#223=CARTESIAN_POINT('Ctrl Pts',(5.54923998552163,0.,4.50953951787756));
#224=CARTESIAN_POINT('Ctrl Pts',(5.58470756338753,0.,7.50809634817233));
#225=CARTESIAN_POINT('Ctrl Pts',(5.58470756338753,5.58470756338753,7.50809634817233));
#226=CARTESIAN_POINT('Ctrl Pts',(0.,5.58470756338753,7.50809634817233));
#227=CARTESIAN_POINT('Ctrl Pts',(-5.58470756338753,5.58470756338753,7.50809634817233));
#228=CARTESIAN_POINT('Ctrl Pts',(-5.58470756338753,0.,7.50809634817233));
#229=CARTESIAN_POINT('Ctrl Pts',(-5.58470756338753,-5.58470756338753,7.50809634817233));
#230=CARTESIAN_POINT('Ctrl Pts',(0.,-5.58470756338753,7.50809634817233));
#231=CARTESIAN_POINT('Ctrl Pts',(5.58470756338753,-5.58470756338753,7.50809634817233));
#232=CARTESIAN_POINT('Ctrl Pts',(5.58470756338753,0.,7.50809634817233));
#233=CARTESIAN_POINT('Ctrl Pts',(5.69893628686658,0.,9.62805460599495));
#234=CARTESIAN_POINT('Ctrl Pts',(5.69893628686658,5.69893628686658,9.62805460599495));
#235=CARTESIAN_POINT('Ctrl Pts',(0.,5.69893628686658,9.62805460599495));
#236=CARTESIAN_POINT('Ctrl Pts',(-5.69893628686658,5.69893628686658,9.62805460599495));
#237=CARTESIAN_POINT('Ctrl Pts',(-5.69893628686658,0.,9.62805460599495));
#238=CARTESIAN_POINT('Ctrl Pts',(-5.69893628686658,-5.69893628686658,9.62805460599495));
#239=CARTESIAN_POINT('Ctrl Pts',(0.,-5.69893628686658,9.62805460599495));
#240=CARTESIAN_POINT('Ctrl Pts',(5.69893628686658,-5.69893628686658,9.62805460599495));
#241=CARTESIAN_POINT('Ctrl Pts',(5.69893628686658,0.,9.62805460599495));
#242=CARTESIAN_POINT('Ctrl Pts',(5.83059765788308,0.,10.7773522011499));
#243=CARTESIAN_POINT('Ctrl Pts',(5.83059765788308,5.83059765788308,10.7773522011499));
#244=CARTESIAN_POINT('Ctrl Pts',(0.,5.83059765788308,10.7773522011499));
#245=CARTESIAN_POINT('Ctrl Pts',(-5.83059765788308,5.83059765788308,10.7773522011499));
#246=CARTESIAN_POINT('Ctrl Pts',(-5.83059765788308,0.,10.7773522011499));
#247=CARTESIAN_POINT('Ctrl Pts',(-5.83059765788308,-5.83059765788308,10.7773522011499));
#248=CARTESIAN_POINT('Ctrl Pts',(0.,-5.83059765788308,10.7773522011499));
#249=CARTESIAN_POINT('Ctrl Pts',(5.83059765788308,-5.83059765788308,10.7773522011499));
#250=CARTESIAN_POINT('Ctrl Pts',(5.83059765788308,0.,10.7773522011499));
#251=CARTESIAN_POINT('Ctrl Pts',(5.93993593551513,0.,11.2997866417069));
#252=CARTESIAN_POINT('Ctrl Pts',(5.93993593551513,5.93993593551513,11.2997866417069));
#253=CARTESIAN_POINT('Ctrl Pts',(0.,5.93993593551513,11.2997866417069));
#254=CARTESIAN_POINT('Ctrl Pts',(-5.93993593551513,5.93993593551513,11.2997866417069));
#255=CARTESIAN_POINT('Ctrl Pts',(-5.93993593551513,0.,11.2997866417069));
#256=CARTESIAN_POINT('Ctrl Pts',(-5.93993593551513,-5.93993593551513,11.2997866417069));
#257=CARTESIAN_POINT('Ctrl Pts',(0.,-5.93993593551513,11.2997866417069));
#258=CARTESIAN_POINT('Ctrl Pts',(5.93993593551513,-5.93993593551513,11.2997866417069));
#259=CARTESIAN_POINT('Ctrl Pts',(5.93993593551513,0.,11.2997866417069));
#260=CARTESIAN_POINT('Ctrl Pts',(5.99999986588955,0.,11.499999742955));
#261=CARTESIAN_POINT('Ctrl Pts',(5.99999986588955,5.99999986588955,11.499999742955));
#262=CARTESIAN_POINT('Ctrl Pts',(0.,5.99999986588955,11.499999742955));
#263=CARTESIAN_POINT('Ctrl Pts',(-5.99999986588955,5.99999986588955,11.499999742955));
#264=CARTESIAN_POINT('Ctrl Pts',(-5.99999986588955,0.,11.499999742955));
#265=CARTESIAN_POINT('Ctrl Pts',(-5.99999986588955,-5.99999986588955,11.499999742955));
#266=CARTESIAN_POINT('Ctrl Pts',(0.,-5.99999986588955,11.499999742955));
#267=CARTESIAN_POINT('Ctrl Pts',(5.99999986588955,-5.99999986588955,11.499999742955));
#268=CARTESIAN_POINT('Ctrl Pts',(5.99999986588955,0.,11.499999742955));
#269=CARTESIAN_POINT('',(5.99999986588955,0.,11.499999742955));
#270=CARTESIAN_POINT('',(5.99999986588955,0.,0.499999988824129));
#271=CARTESIAN_POINT('Ctrl Pts',(5.99999986588955,0.,11.499999742955));
#272=CARTESIAN_POINT('Ctrl Pts',(5.93993593551513,0.,11.2997866417069));
#273=CARTESIAN_POINT('Ctrl Pts',(5.83059765788308,0.,10.7773522011499));
#274=CARTESIAN_POINT('Ctrl Pts',(5.69893628686658,0.,9.62805460599495));
#275=CARTESIAN_POINT('Ctrl Pts',(5.58470756338753,0.,7.50809634817233));
#276=CARTESIAN_POINT('Ctrl Pts',(5.54923998552163,0.,4.50953951787756));
#277=CARTESIAN_POINT('Ctrl Pts',(5.63131635897381,0.,2.38558373760071));
#278=CARTESIAN_POINT('Ctrl Pts',(5.77788943324172,0.,1.23062022515705));
#279=CARTESIAN_POINT('Ctrl Pts',(5.9187636609528,0.,0.703090501165995));
#280=CARTESIAN_POINT('Ctrl Pts',(5.99999986588955,0.,0.499999988824129));
#281=CARTESIAN_POINT('Origin',(0.,0.,0.5));
#282=CARTESIAN_POINT('Origin',(0.,0.,11.5));
#283=CARTESIAN_POINT('Origin',(0.,0.,8.));
#284=CARTESIAN_POINT('',(-4.,-4.89858719658941E-16,8.));
#285=CARTESIAN_POINT('Origin',(0.,0.,8.));
#286=CARTESIAN_POINT('',(-4.,4.89858719658941E-16,11.5));
#287=CARTESIAN_POINT('',(-4.,-4.89858719658941E-16,8.));
#288=CARTESIAN_POINT('Origin',(0.,0.,11.5));
#289=CARTESIAN_POINT('Origin',(0.,0.,8.));
#290=CARTESIAN_POINT('',(-3.,-3.67394039744206E-16,8.));
#291=CARTESIAN_POINT('Origin',(0.,0.,8.));
#292=CARTESIAN_POINT('Origin',(0.,0.,4.));
#293=CARTESIAN_POINT('',(-4.,-4.89858719658941E-16,4.));
#294=CARTESIAN_POINT('Origin',(0.,0.,4.));
#295=CARTESIAN_POINT('',(-3.,-3.67394039744206E-16,4.));
#296=CARTESIAN_POINT('Origin',(0.,0.,4.));
#297=CARTESIAN_POINT('Origin',(0.,0.,4.));
#298=CARTESIAN_POINT('',(-3.,-3.67394039744206E-16,4.));
#299=CARTESIAN_POINT('Origin',(0.,0.,11.5));
#300=CARTESIAN_POINT('Origin',(0.,0.,0.));
#301=CARTESIAN_POINT('',(-4.,4.89858719658941E-16,0.5));
#302=CARTESIAN_POINT('',(-4.,-4.89858719658941E-16,0.));
#303=CARTESIAN_POINT('Origin',(0.,0.,0.5));
#304=CARTESIAN_POINT('Origin',(0.,0.,0.5));
#305=UNCERTAINTY_MEASURE_WITH_UNIT(LENGTH_MEASURE(0.01),#309,
'DISTANCE_ACCURACY_VALUE',
'Maximum model space distance between geometric entities at asserted c
onnectivities');
#306=UNCERTAINTY_MEASURE_WITH_UNIT(LENGTH_MEASURE(0.01),#309,
'DISTANCE_ACCURACY_VALUE',
'Maximum model space distance between geometric entities at asserted c
onnectivities');
#307=(
GEOMETRIC_REPRESENTATION_CONTEXT(3)
GLOBAL_UNCERTAINTY_ASSIGNED_CONTEXT((#305))
GLOBAL_UNIT_ASSIGNED_CONTEXT((#309,#311,#312))
REPRESENTATION_CONTEXT('','3D')
);
#308=(
GEOMETRIC_REPRESENTATION_CONTEXT(3)
GLOBAL_UNCERTAINTY_ASSIGNED_CONTEXT((#306))
GLOBAL_UNIT_ASSIGNED_CONTEXT((#309,#311,#312))
REPRESENTATION_CONTEXT('','3D')
);
#309=(
LENGTH_UNIT()
NAMED_UNIT(*)
SI_UNIT(.MILLI.,.METRE.)
);
#310=(
LENGTH_UNIT()
NAMED_UNIT(*)
SI_UNIT($,.METRE.)
);
#311=(
NAMED_UNIT(*)
PLANE_ANGLE_UNIT()
SI_UNIT($,.RADIAN.)
);
#312=(
NAMED_UNIT(*)
SI_UNIT($,.STERADIAN.)
SOLID_ANGLE_UNIT()
);
#313=SHAPE_DEFINITION_REPRESENTATION(#314,#315);
#314=PRODUCT_DEFINITION_SHAPE('',$,#317);
#315=SHAPE_REPRESENTATION('',(#127),#307);
#316=PRODUCT_DEFINITION_CONTEXT('part definition',#321,'design');
#317=PRODUCT_DEFINITION('BearingSleeve','BearingSleeve v8',#318,#316);
#318=PRODUCT_DEFINITION_FORMATION('',$,#323);
#319=PRODUCT_RELATED_PRODUCT_CATEGORY('BearingSleeve v8',
'BearingSleeve v8',(#323));
#320=APPLICATION_PROTOCOL_DEFINITION('international standard',
'automotive_design',2009,#321);
#321=APPLICATION_CONTEXT(
'Core Data for Automotive Mechanical Design Process');
#322=PRODUCT_CONTEXT('part definition',#321,'mechanical');
#323=PRODUCT('BearingSleeve','BearingSleeve v8',$,(#322));
#324=PRESENTATION_STYLE_ASSIGNMENT((#326));
#325=PRESENTATION_STYLE_ASSIGNMENT((#327));
#326=SURFACE_STYLE_USAGE(.BOTH.,#328);
#327=SURFACE_STYLE_USAGE(.BOTH.,#329);
#328=SURFACE_SIDE_STYLE('',(#330));
#329=SURFACE_SIDE_STYLE('',(#331));
#330=SURFACE_STYLE_FILL_AREA(#332);
#331=SURFACE_STYLE_FILL_AREA(#333);
#332=FILL_AREA_STYLE('Steel - Satin',(#334));
#333=FILL_AREA_STYLE('Plastic - Matte (Red)',(#335));
#334=FILL_AREA_STYLE_COLOUR('Steel - Satin',#336);
#335=FILL_AREA_STYLE_COLOUR('Plastic - Matte (Red)',#337);
#336=COLOUR_RGB('Steel - Satin',0.627450980392157,0.627450980392157,0.627450980392157);
#337=COLOUR_RGB('Plastic - Matte (Red)',0.768627450980392,0.207843137254902,
0.152941176470588);
ENDSEC;
END-ISO-10303-21;
