ISO-10303-21;
HEADER;
/* Generated by software containing ST-Developer
 * from STEP Tools, Inc. (www.steptools.com) 
 */

FILE_DESCRIPTION(
/* description */ (''),
/* implementation_level */ '2;1');

FILE_NAME(
/* name */ 'OuterShell_v5.step',
/* time_stamp */ '2026-08-21T09:18:39-04:00',
/* author */ (''),
/* organization */ (''),
/* preprocessor_version */ 'ST-DEVELOPER v20.1',
/* originating_system */ 'Autodesk Translation Framework v15.8.0.0',
/* authorisation */ '');

FILE_SCHEMA (('AUTOMOTIVE_DESIGN { 1 0 10303 214 3 1 1 }'));
ENDSEC;

DATA;
#10=MECHANICAL_DESIGN_GEOMETRIC_PRESENTATION_REPRESENTATION('',(#13),#843);
#11=SHAPE_REPRESENTATION_RELATIONSHIP('SRR','None',#850,#12);
#12=ADVANCED_BREP_SHAPE_REPRESENTATION('',(#14),#842);
#13=STYLED_ITEM('',(#860),#14);
#14=MANIFOLD_SOLID_BREP('Body1',#447);
#15=FACE_BOUND('',#64,.T.);
#16=PLANE('',#466);
#17=PLANE('',#467);
#18=PLANE('',#471);
#19=PLANE('',#472);
#20=PLANE('',#476);
#21=PLANE('',#483);
#22=PLANE('',#487);
#23=PLANE('',#491);
#24=PLANE('',#492);
#25=PLANE('',#500);
#26=PLANE('',#503);
#27=FACE_OUTER_BOUND('',#48,.T.);
#28=FACE_OUTER_BOUND('',#49,.T.);
#29=FACE_OUTER_BOUND('',#50,.T.);
#30=FACE_OUTER_BOUND('',#51,.T.);
#31=FACE_OUTER_BOUND('',#52,.T.);
#32=FACE_OUTER_BOUND('',#53,.T.);
#33=FACE_OUTER_BOUND('',#54,.T.);
#34=FACE_OUTER_BOUND('',#55,.T.);
#35=FACE_OUTER_BOUND('',#56,.T.);
#36=FACE_OUTER_BOUND('',#57,.T.);
#37=FACE_OUTER_BOUND('',#58,.T.);
#38=FACE_OUTER_BOUND('',#59,.T.);
#39=FACE_OUTER_BOUND('',#60,.T.);
#40=FACE_OUTER_BOUND('',#61,.T.);
#41=FACE_OUTER_BOUND('',#62,.T.);
#42=FACE_OUTER_BOUND('',#63,.T.);
#43=FACE_OUTER_BOUND('',#65,.T.);
#44=FACE_OUTER_BOUND('',#66,.T.);
#45=FACE_OUTER_BOUND('',#67,.T.);
#46=FACE_OUTER_BOUND('',#68,.T.);
#47=FACE_OUTER_BOUND('',#69,.T.);
#48=EDGE_LOOP('',(#284,#285,#286,#287,#288,#289,#290,#291));
#49=EDGE_LOOP('',(#292,#293,#294,#295,#296,#297,#298));
#50=EDGE_LOOP('',(#299,#300,#301,#302,#303,#304,#305));
#51=EDGE_LOOP('',(#306,#307,#308,#309,#310,#311,#312,#313));
#52=EDGE_LOOP('',(#314,#315,#316,#317,#318,#319));
#53=EDGE_LOOP('',(#320,#321,#322,#323,#324,#325));
#54=EDGE_LOOP('',(#326,#327,#328,#329,#330,#331,#332));
#55=EDGE_LOOP('',(#333,#334,#335,#336));
#56=EDGE_LOOP('',(#337,#338,#339,#340,#341,#342));
#57=EDGE_LOOP('',(#343,#344,#345,#346));
#58=EDGE_LOOP('',(#347,#348,#349,#350));
#59=EDGE_LOOP('',(#351,#352,#353,#354));
#60=EDGE_LOOP('',(#355,#356,#357,#358,#359,#360,#361,#362));
#61=EDGE_LOOP('',(#363,#364,#365,#366,#367,#368,#369));
#62=EDGE_LOOP('',(#370,#371,#372,#373));
#63=EDGE_LOOP('',(#374,#375,#376,#377,#378,#379,#380,#381));
#64=EDGE_LOOP('',(#382,#383,#384,#385,#386,#387,#388,#389));
#65=EDGE_LOOP('',(#390,#391,#392,#393,#394,#395));
#66=EDGE_LOOP('',(#396,#397,#398,#399));
#67=EDGE_LOOP('',(#400,#401,#402,#403));
#68=EDGE_LOOP('',(#404,#405,#406,#407));
#69=EDGE_LOOP('',(#408,#409,#410,#411,#412,#413,#414,#415));
#70=LINE('',#659,#108);
#71=LINE('',#689,#109);
#72=LINE('',#691,#110);
#73=LINE('',#693,#111);
#74=LINE('',#695,#112);
#75=LINE('',#696,#113);
#76=LINE('',#699,#114);
#77=LINE('',#701,#115);
#78=LINE('',#703,#116);
#79=LINE('',#705,#117);
#80=LINE('',#706,#118);
#81=LINE('',#733,#119);
#82=LINE('',#759,#120);
#83=LINE('',#761,#121);
#84=LINE('',#763,#122);
#85=LINE('',#765,#123);
#86=LINE('',#766,#124);
#87=LINE('',#769,#125);
#88=LINE('',#771,#126);
#89=LINE('',#773,#127);
#90=LINE('',#775,#128);
#91=LINE('',#776,#129);
#92=LINE('',#781,#130);
#93=LINE('',#785,#131);
#94=LINE('',#787,#132);
#95=LINE('',#788,#133);
#96=LINE('',#797,#134);
#97=LINE('',#800,#135);
#98=LINE('',#802,#136);
#99=LINE('',#803,#137);
#100=LINE('',#812,#138);
#101=LINE('',#816,#139);
#102=LINE('',#818,#140);
#103=LINE('',#819,#141);
#104=LINE('',#824,#142);
#105=LINE('',#831,#143);
#106=LINE('',#835,#144);
#107=LINE('',#836,#145);
#108=VECTOR('',#510,10.);
#109=VECTOR('',#519,10.);
#110=VECTOR('',#520,10.);
#111=VECTOR('',#521,10.);
#112=VECTOR('',#522,10.);
#113=VECTOR('',#523,10.);
#114=VECTOR('',#526,10.);
#115=VECTOR('',#527,10.);
#116=VECTOR('',#528,10.);
#117=VECTOR('',#529,10.);
#118=VECTOR('',#530,10.);
#119=VECTOR('',#535,3.);
#120=VECTOR('',#540,10.);
#121=VECTOR('',#541,10.);
#122=VECTOR('',#542,10.);
#123=VECTOR('',#543,10.);
#124=VECTOR('',#544,10.);
#125=VECTOR('',#547,10.);
#126=VECTOR('',#548,10.);
#127=VECTOR('',#549,10.);
#128=VECTOR('',#550,10.);
#129=VECTOR('',#551,10.);
#130=VECTOR('',#556,10.);
#131=VECTOR('',#561,10.);
#132=VECTOR('',#562,10.);
#133=VECTOR('',#563,10.);
#134=VECTOR('',#576,10.);
#135=VECTOR('',#579,10.);
#136=VECTOR('',#580,10.);
#137=VECTOR('',#581,10.);
#138=VECTOR('',#594,10.);
#139=VECTOR('',#599,10.);
#140=VECTOR('',#600,10.);
#141=VECTOR('',#601,10.);
#142=VECTOR('',#606,10.);
#143=VECTOR('',#617,10.);
#144=VECTOR('',#622,10.);
#145=VECTOR('',#623,10.);
#146=CIRCLE('',#462,10.);
#147=CIRCLE('',#463,10.);
#148=CIRCLE('',#464,10.);
#149=CIRCLE('',#465,10.);
#150=CIRCLE('',#469,3.);
#151=CIRCLE('',#470,3.);
#152=CIRCLE('',#474,40.5);
#153=CIRCLE('',#475,40.5);
#154=CIRCLE('',#478,40.5);
#155=CIRCLE('',#479,40.5);
#156=CIRCLE('',#481,40.5);
#157=CIRCLE('',#482,40.5);
#158=CIRCLE('',#485,40.5);
#159=CIRCLE('',#486,40.5);
#160=CIRCLE('',#489,42.);
#161=CIRCLE('',#490,42.);
#162=CIRCLE('',#493,42.);
#163=CIRCLE('',#494,42.);
#164=CIRCLE('',#495,42.);
#165=CIRCLE('',#497,42.);
#166=CIRCLE('',#499,42.);
#167=CIRCLE('',#502,42.);
#168=B_SPLINE_CURVE_WITH_KNOTS('',3,(#634,#635,#636,#637,#638,#639,#640,
#641,#642,#643,#644,#645,#646,#647,#648,#649,#650,#651,#652,#653,#654,#655),
 .UNSPECIFIED.,.F.,.F.,(4,2,2,2,2,2,2,2,2,2,4),(1.18368540018935,1.50917988719742,
1.89155801278829,2.27393613837915,2.65255258930512,3.03116904023108,3.40978549115705,
3.78840194208301,4.17078006767388,4.55315819326474,4.87865268027281),
 .UNSPECIFIED.);
#169=B_SPLINE_CURVE_WITH_KNOTS('',3,(#663,#664,#665,#666,#667,#668,#669,
#670,#671,#672,#673,#674,#675,#676,#677,#678,#679,#680,#681,#682,#683,#684),
 .UNSPECIFIED.,.F.,.F.,(4,2,2,2,2,2,2,2,2,2,4),(1.18382477100398,1.50936544086277,
1.89218874844736,2.27501205603194,2.65379131162269,3.03257056721345,3.4113498228042,
3.79012907839496,4.17295238597954,4.55577569356413,4.88131636342292),
 .UNSPECIFIED.);
#170=B_SPLINE_CURVE_WITH_KNOTS('',3,(#710,#711,#712,#713,#714,#715,#716,
#717,#718,#719),.UNSPECIFIED.,.F.,.F.,(4,2,2,2,4),(0.452189247343846,0.565236509368979,
0.678283771394113,0.791331133099232,0.904378494804352),.UNSPECIFIED.);
#171=B_SPLINE_CURVE_WITH_KNOTS('',3,(#722,#723,#724,#725,#726,#727,#728,
#729,#730,#731),.UNSPECIFIED.,.F.,.F.,(4,2,2,2,4),(0.904378494804352,1.01742585650947,
1.13047321821459,1.24352048023973,1.35656774226486),.UNSPECIFIED.);
#172=B_SPLINE_CURVE_WITH_KNOTS('',3,(#735,#736,#737,#738,#739,#740,#741,
#742,#743,#744),.UNSPECIFIED.,.F.,.F.,(4,2,2,2,4),(0.452201744754397,0.565252123306896,
0.678302501859394,0.791352995746845,0.904403489634295),.UNSPECIFIED.);
#173=B_SPLINE_CURVE_WITH_KNOTS('',3,(#747,#748,#749,#750,#751,#752,#753,
#754,#755,#756),.UNSPECIFIED.,.F.,.F.,(4,2,2,2,4),(0.904403489634295,1.01745398352175,
1.1305044774092,1.24355485596169,1.35660523451419),.UNSPECIFIED.);
#174=VERTEX_POINT('',#632);
#175=VERTEX_POINT('',#633);
#176=VERTEX_POINT('',#656);
#177=VERTEX_POINT('',#658);
#178=VERTEX_POINT('',#660);
#179=VERTEX_POINT('',#662);
#180=VERTEX_POINT('',#688);
#181=VERTEX_POINT('',#690);
#182=VERTEX_POINT('',#692);
#183=VERTEX_POINT('',#694);
#184=VERTEX_POINT('',#698);
#185=VERTEX_POINT('',#700);
#186=VERTEX_POINT('',#702);
#187=VERTEX_POINT('',#704);
#188=VERTEX_POINT('',#708);
#189=VERTEX_POINT('',#709);
#190=VERTEX_POINT('',#720);
#191=VERTEX_POINT('',#732);
#192=VERTEX_POINT('',#734);
#193=VERTEX_POINT('',#745);
#194=VERTEX_POINT('',#758);
#195=VERTEX_POINT('',#760);
#196=VERTEX_POINT('',#762);
#197=VERTEX_POINT('',#764);
#198=VERTEX_POINT('',#768);
#199=VERTEX_POINT('',#770);
#200=VERTEX_POINT('',#772);
#201=VERTEX_POINT('',#774);
#202=VERTEX_POINT('',#778);
#203=VERTEX_POINT('',#780);
#204=VERTEX_POINT('',#784);
#205=VERTEX_POINT('',#786);
#206=VERTEX_POINT('',#793);
#207=VERTEX_POINT('',#795);
#208=VERTEX_POINT('',#799);
#209=VERTEX_POINT('',#801);
#210=VERTEX_POINT('',#809);
#211=VERTEX_POINT('',#811);
#212=VERTEX_POINT('',#815);
#213=VERTEX_POINT('',#817);
#214=VERTEX_POINT('',#821);
#215=VERTEX_POINT('',#823);
#216=VERTEX_POINT('',#830);
#217=VERTEX_POINT('',#834);
#218=EDGE_CURVE('',#174,#175,#168,.T.);
#219=EDGE_CURVE('',#176,#174,#146,.T.);
#220=EDGE_CURVE('',#176,#177,#70,.T.);
#221=EDGE_CURVE('',#178,#177,#147,.T.);
#222=EDGE_CURVE('',#179,#178,#169,.T.);
#223=EDGE_CURVE('',#177,#179,#148,.T.);
#224=EDGE_CURVE('',#175,#176,#149,.T.);
#225=EDGE_CURVE('',#179,#180,#71,.T.);
#226=EDGE_CURVE('',#180,#181,#72,.T.);
#227=EDGE_CURVE('',#181,#182,#73,.T.);
#228=EDGE_CURVE('',#183,#182,#74,.T.);
#229=EDGE_CURVE('',#183,#178,#75,.T.);
#230=EDGE_CURVE('',#184,#174,#76,.T.);
#231=EDGE_CURVE('',#185,#184,#77,.F.);
#232=EDGE_CURVE('',#186,#185,#78,.T.);
#233=EDGE_CURVE('',#187,#186,#79,.T.);
#234=EDGE_CURVE('',#175,#187,#80,.T.);
#235=EDGE_CURVE('',#188,#189,#170,.T.);
#236=EDGE_CURVE('',#190,#188,#150,.T.);
#237=EDGE_CURVE('',#189,#190,#171,.T.);
#238=EDGE_CURVE('',#189,#191,#81,.T.);
#239=EDGE_CURVE('',#192,#191,#172,.T.);
#240=EDGE_CURVE('',#193,#192,#151,.T.);
#241=EDGE_CURVE('',#191,#193,#173,.T.);
#242=EDGE_CURVE('',#192,#194,#82,.T.);
#243=EDGE_CURVE('',#195,#194,#83,.T.);
#244=EDGE_CURVE('',#195,#196,#84,.T.);
#245=EDGE_CURVE('',#196,#197,#85,.T.);
#246=EDGE_CURVE('',#197,#193,#86,.T.);
#247=EDGE_CURVE('',#198,#188,#87,.T.);
#248=EDGE_CURVE('',#199,#198,#88,.T.);
#249=EDGE_CURVE('',#200,#199,#89,.T.);
#250=EDGE_CURVE('',#201,#200,#90,.F.);
#251=EDGE_CURVE('',#190,#201,#91,.T.);
#252=EDGE_CURVE('',#202,#197,#152,.F.);
#253=EDGE_CURVE('',#203,#202,#92,.T.);
#254=EDGE_CURVE('',#194,#203,#153,.T.);
#255=EDGE_CURVE('',#202,#204,#93,.T.);
#256=EDGE_CURVE('',#204,#205,#94,.T.);
#257=EDGE_CURVE('',#203,#205,#95,.T.);
#258=EDGE_CURVE('',#205,#183,#154,.T.);
#259=EDGE_CURVE('',#180,#204,#155,.F.);
#260=EDGE_CURVE('',#182,#206,#156,.T.);
#261=EDGE_CURVE('',#207,#181,#157,.F.);
#262=EDGE_CURVE('',#206,#207,#96,.T.);
#263=EDGE_CURVE('',#207,#208,#97,.T.);
#264=EDGE_CURVE('',#208,#209,#98,.T.);
#265=EDGE_CURVE('',#206,#209,#99,.T.);
#266=EDGE_CURVE('',#196,#208,#158,.F.);
#267=EDGE_CURVE('',#209,#195,#159,.T.);
#268=EDGE_CURVE('',#201,#210,#160,.T.);
#269=EDGE_CURVE('',#210,#211,#100,.T.);
#270=EDGE_CURVE('',#211,#198,#161,.T.);
#271=EDGE_CURVE('',#212,#210,#101,.F.);
#272=EDGE_CURVE('',#213,#212,#102,.T.);
#273=EDGE_CURVE('',#211,#213,#103,.T.);
#274=EDGE_CURVE('',#214,#200,#162,.T.);
#275=EDGE_CURVE('',#214,#215,#104,.F.);
#276=EDGE_CURVE('',#185,#215,#163,.T.);
#277=EDGE_CURVE('',#212,#184,#164,.T.);
#278=EDGE_CURVE('',#187,#213,#165,.T.);
#279=EDGE_CURVE('',#215,#216,#105,.T.);
#280=EDGE_CURVE('',#216,#186,#166,.T.);
#281=EDGE_CURVE('',#217,#214,#106,.T.);
#282=EDGE_CURVE('',#216,#217,#107,.T.);
#283=EDGE_CURVE('',#199,#217,#167,.T.);
#284=ORIENTED_EDGE('',*,*,#218,.F.);
#285=ORIENTED_EDGE('',*,*,#219,.F.);
#286=ORIENTED_EDGE('',*,*,#220,.T.);
#287=ORIENTED_EDGE('',*,*,#221,.F.);
#288=ORIENTED_EDGE('',*,*,#222,.F.);
#289=ORIENTED_EDGE('',*,*,#223,.F.);
#290=ORIENTED_EDGE('',*,*,#220,.F.);
#291=ORIENTED_EDGE('',*,*,#224,.F.);
#292=ORIENTED_EDGE('',*,*,#221,.T.);
#293=ORIENTED_EDGE('',*,*,#223,.T.);
#294=ORIENTED_EDGE('',*,*,#225,.T.);
#295=ORIENTED_EDGE('',*,*,#226,.T.);
#296=ORIENTED_EDGE('',*,*,#227,.T.);
#297=ORIENTED_EDGE('',*,*,#228,.F.);
#298=ORIENTED_EDGE('',*,*,#229,.T.);
#299=ORIENTED_EDGE('',*,*,#224,.T.);
#300=ORIENTED_EDGE('',*,*,#219,.T.);
#301=ORIENTED_EDGE('',*,*,#230,.F.);
#302=ORIENTED_EDGE('',*,*,#231,.F.);
#303=ORIENTED_EDGE('',*,*,#232,.F.);
#304=ORIENTED_EDGE('',*,*,#233,.F.);
#305=ORIENTED_EDGE('',*,*,#234,.F.);
#306=ORIENTED_EDGE('',*,*,#235,.F.);
#307=ORIENTED_EDGE('',*,*,#236,.F.);
#308=ORIENTED_EDGE('',*,*,#237,.F.);
#309=ORIENTED_EDGE('',*,*,#238,.T.);
#310=ORIENTED_EDGE('',*,*,#239,.F.);
#311=ORIENTED_EDGE('',*,*,#240,.F.);
#312=ORIENTED_EDGE('',*,*,#241,.F.);
#313=ORIENTED_EDGE('',*,*,#238,.F.);
#314=ORIENTED_EDGE('',*,*,#240,.T.);
#315=ORIENTED_EDGE('',*,*,#242,.T.);
#316=ORIENTED_EDGE('',*,*,#243,.F.);
#317=ORIENTED_EDGE('',*,*,#244,.T.);
#318=ORIENTED_EDGE('',*,*,#245,.T.);
#319=ORIENTED_EDGE('',*,*,#246,.T.);
#320=ORIENTED_EDGE('',*,*,#236,.T.);
#321=ORIENTED_EDGE('',*,*,#247,.F.);
#322=ORIENTED_EDGE('',*,*,#248,.F.);
#323=ORIENTED_EDGE('',*,*,#249,.F.);
#324=ORIENTED_EDGE('',*,*,#250,.F.);
#325=ORIENTED_EDGE('',*,*,#251,.F.);
#326=ORIENTED_EDGE('',*,*,#239,.T.);
#327=ORIENTED_EDGE('',*,*,#241,.T.);
#328=ORIENTED_EDGE('',*,*,#246,.F.);
#329=ORIENTED_EDGE('',*,*,#252,.F.);
#330=ORIENTED_EDGE('',*,*,#253,.F.);
#331=ORIENTED_EDGE('',*,*,#254,.F.);
#332=ORIENTED_EDGE('',*,*,#242,.F.);
#333=ORIENTED_EDGE('',*,*,#253,.T.);
#334=ORIENTED_EDGE('',*,*,#255,.T.);
#335=ORIENTED_EDGE('',*,*,#256,.T.);
#336=ORIENTED_EDGE('',*,*,#257,.F.);
#337=ORIENTED_EDGE('',*,*,#222,.T.);
#338=ORIENTED_EDGE('',*,*,#229,.F.);
#339=ORIENTED_EDGE('',*,*,#258,.F.);
#340=ORIENTED_EDGE('',*,*,#256,.F.);
#341=ORIENTED_EDGE('',*,*,#259,.F.);
#342=ORIENTED_EDGE('',*,*,#225,.F.);
#343=ORIENTED_EDGE('',*,*,#260,.F.);
#344=ORIENTED_EDGE('',*,*,#227,.F.);
#345=ORIENTED_EDGE('',*,*,#261,.F.);
#346=ORIENTED_EDGE('',*,*,#262,.F.);
#347=ORIENTED_EDGE('',*,*,#262,.T.);
#348=ORIENTED_EDGE('',*,*,#263,.T.);
#349=ORIENTED_EDGE('',*,*,#264,.T.);
#350=ORIENTED_EDGE('',*,*,#265,.F.);
#351=ORIENTED_EDGE('',*,*,#266,.F.);
#352=ORIENTED_EDGE('',*,*,#244,.F.);
#353=ORIENTED_EDGE('',*,*,#267,.F.);
#354=ORIENTED_EDGE('',*,*,#264,.F.);
#355=ORIENTED_EDGE('',*,*,#252,.T.);
#356=ORIENTED_EDGE('',*,*,#245,.F.);
#357=ORIENTED_EDGE('',*,*,#266,.T.);
#358=ORIENTED_EDGE('',*,*,#263,.F.);
#359=ORIENTED_EDGE('',*,*,#261,.T.);
#360=ORIENTED_EDGE('',*,*,#226,.F.);
#361=ORIENTED_EDGE('',*,*,#259,.T.);
#362=ORIENTED_EDGE('',*,*,#255,.F.);
#363=ORIENTED_EDGE('',*,*,#235,.T.);
#364=ORIENTED_EDGE('',*,*,#237,.T.);
#365=ORIENTED_EDGE('',*,*,#251,.T.);
#366=ORIENTED_EDGE('',*,*,#268,.T.);
#367=ORIENTED_EDGE('',*,*,#269,.T.);
#368=ORIENTED_EDGE('',*,*,#270,.T.);
#369=ORIENTED_EDGE('',*,*,#247,.T.);
#370=ORIENTED_EDGE('',*,*,#269,.F.);
#371=ORIENTED_EDGE('',*,*,#271,.F.);
#372=ORIENTED_EDGE('',*,*,#272,.F.);
#373=ORIENTED_EDGE('',*,*,#273,.F.);
#374=ORIENTED_EDGE('',*,*,#268,.F.);
#375=ORIENTED_EDGE('',*,*,#250,.T.);
#376=ORIENTED_EDGE('',*,*,#274,.F.);
#377=ORIENTED_EDGE('',*,*,#275,.T.);
#378=ORIENTED_EDGE('',*,*,#276,.F.);
#379=ORIENTED_EDGE('',*,*,#231,.T.);
#380=ORIENTED_EDGE('',*,*,#277,.F.);
#381=ORIENTED_EDGE('',*,*,#271,.T.);
#382=ORIENTED_EDGE('',*,*,#254,.T.);
#383=ORIENTED_EDGE('',*,*,#257,.T.);
#384=ORIENTED_EDGE('',*,*,#258,.T.);
#385=ORIENTED_EDGE('',*,*,#228,.T.);
#386=ORIENTED_EDGE('',*,*,#260,.T.);
#387=ORIENTED_EDGE('',*,*,#265,.T.);
#388=ORIENTED_EDGE('',*,*,#267,.T.);
#389=ORIENTED_EDGE('',*,*,#243,.T.);
#390=ORIENTED_EDGE('',*,*,#218,.T.);
#391=ORIENTED_EDGE('',*,*,#234,.T.);
#392=ORIENTED_EDGE('',*,*,#278,.T.);
#393=ORIENTED_EDGE('',*,*,#272,.T.);
#394=ORIENTED_EDGE('',*,*,#277,.T.);
#395=ORIENTED_EDGE('',*,*,#230,.T.);
#396=ORIENTED_EDGE('',*,*,#276,.T.);
#397=ORIENTED_EDGE('',*,*,#279,.T.);
#398=ORIENTED_EDGE('',*,*,#280,.T.);
#399=ORIENTED_EDGE('',*,*,#232,.T.);
#400=ORIENTED_EDGE('',*,*,#279,.F.);
#401=ORIENTED_EDGE('',*,*,#275,.F.);
#402=ORIENTED_EDGE('',*,*,#281,.F.);
#403=ORIENTED_EDGE('',*,*,#282,.F.);
#404=ORIENTED_EDGE('',*,*,#283,.T.);
#405=ORIENTED_EDGE('',*,*,#281,.T.);
#406=ORIENTED_EDGE('',*,*,#274,.T.);
#407=ORIENTED_EDGE('',*,*,#249,.T.);
#408=ORIENTED_EDGE('',*,*,#270,.F.);
#409=ORIENTED_EDGE('',*,*,#273,.T.);
#410=ORIENTED_EDGE('',*,*,#278,.F.);
#411=ORIENTED_EDGE('',*,*,#233,.T.);
#412=ORIENTED_EDGE('',*,*,#280,.F.);
#413=ORIENTED_EDGE('',*,*,#282,.T.);
#414=ORIENTED_EDGE('',*,*,#283,.F.);
#415=ORIENTED_EDGE('',*,*,#248,.T.);
#416=CYLINDRICAL_SURFACE('',#461,10.);
#417=CYLINDRICAL_SURFACE('',#468,3.);
#418=CYLINDRICAL_SURFACE('',#473,40.5);
#419=CYLINDRICAL_SURFACE('',#477,40.5);
#420=CYLINDRICAL_SURFACE('',#480,40.5);
#421=CYLINDRICAL_SURFACE('',#484,40.5);
#422=CYLINDRICAL_SURFACE('',#488,42.);
#423=CYLINDRICAL_SURFACE('',#496,42.);
#424=CYLINDRICAL_SURFACE('',#498,42.);
#425=CYLINDRICAL_SURFACE('',#501,42.);
#426=ADVANCED_FACE('',(#27),#416,.F.);
#427=ADVANCED_FACE('',(#28),#16,.F.);
#428=ADVANCED_FACE('',(#29),#17,.T.);
#429=ADVANCED_FACE('',(#30),#417,.F.);
#430=ADVANCED_FACE('',(#31),#18,.F.);
#431=ADVANCED_FACE('',(#32),#19,.T.);
#432=ADVANCED_FACE('',(#33),#418,.F.);
#433=ADVANCED_FACE('',(#34),#20,.F.);
#434=ADVANCED_FACE('',(#35),#419,.F.);
#435=ADVANCED_FACE('',(#36),#420,.F.);
#436=ADVANCED_FACE('',(#37),#21,.F.);
#437=ADVANCED_FACE('',(#38),#421,.F.);
#438=ADVANCED_FACE('',(#39),#22,.T.);
#439=ADVANCED_FACE('',(#40),#422,.T.);
#440=ADVANCED_FACE('',(#41),#23,.T.);
#441=ADVANCED_FACE('',(#42,#15),#24,.T.);
#442=ADVANCED_FACE('',(#43),#423,.T.);
#443=ADVANCED_FACE('',(#44),#424,.T.);
#444=ADVANCED_FACE('',(#45),#25,.T.);
#445=ADVANCED_FACE('',(#46),#425,.T.);
#446=ADVANCED_FACE('',(#47),#26,.F.);
#447=CLOSED_SHELL('',(#426,#427,#428,#429,#430,#431,#432,#433,#434,#435,
#436,#437,#438,#439,#440,#441,#442,#443,#444,#445,#446));
#448=DERIVED_UNIT_ELEMENT(#450,1.);
#449=DERIVED_UNIT_ELEMENT(#845,-3.);
#450=(
MASS_UNIT()
NAMED_UNIT(*)
SI_UNIT(.KILO.,.GRAM.)
);
#451=DERIVED_UNIT((#448,#449));
#452=MEASURE_REPRESENTATION_ITEM('density measure',
POSITIVE_RATIO_MEASURE(7850.),#451);
#453=PROPERTY_DEFINITION_REPRESENTATION(#458,#455);
#454=PROPERTY_DEFINITION_REPRESENTATION(#459,#456);
#455=REPRESENTATION('material name',(#457),#842);
#456=REPRESENTATION('density',(#452),#842);
#457=DESCRIPTIVE_REPRESENTATION_ITEM('Steel','Steel');
#458=PROPERTY_DEFINITION('material property','material name',#852);
#459=PROPERTY_DEFINITION('material property','density of part',#852);
#460=AXIS2_PLACEMENT_3D('',#630,#504,#505);
#461=AXIS2_PLACEMENT_3D('',#631,#506,#507);
#462=AXIS2_PLACEMENT_3D('',#657,#508,#509);
#463=AXIS2_PLACEMENT_3D('',#661,#511,#512);
#464=AXIS2_PLACEMENT_3D('',#685,#513,#514);
#465=AXIS2_PLACEMENT_3D('',#686,#515,#516);
#466=AXIS2_PLACEMENT_3D('',#687,#517,#518);
#467=AXIS2_PLACEMENT_3D('',#697,#524,#525);
#468=AXIS2_PLACEMENT_3D('',#707,#531,#532);
#469=AXIS2_PLACEMENT_3D('',#721,#533,#534);
#470=AXIS2_PLACEMENT_3D('',#746,#536,#537);
#471=AXIS2_PLACEMENT_3D('',#757,#538,#539);
#472=AXIS2_PLACEMENT_3D('',#767,#545,#546);
#473=AXIS2_PLACEMENT_3D('',#777,#552,#553);
#474=AXIS2_PLACEMENT_3D('',#779,#554,#555);
#475=AXIS2_PLACEMENT_3D('',#782,#557,#558);
#476=AXIS2_PLACEMENT_3D('',#783,#559,#560);
#477=AXIS2_PLACEMENT_3D('',#789,#564,#565);
#478=AXIS2_PLACEMENT_3D('',#790,#566,#567);
#479=AXIS2_PLACEMENT_3D('',#791,#568,#569);
#480=AXIS2_PLACEMENT_3D('',#792,#570,#571);
#481=AXIS2_PLACEMENT_3D('',#794,#572,#573);
#482=AXIS2_PLACEMENT_3D('',#796,#574,#575);
#483=AXIS2_PLACEMENT_3D('',#798,#577,#578);
#484=AXIS2_PLACEMENT_3D('',#804,#582,#583);
#485=AXIS2_PLACEMENT_3D('',#805,#584,#585);
#486=AXIS2_PLACEMENT_3D('',#806,#586,#587);
#487=AXIS2_PLACEMENT_3D('',#807,#588,#589);
#488=AXIS2_PLACEMENT_3D('',#808,#590,#591);
#489=AXIS2_PLACEMENT_3D('',#810,#592,#593);
#490=AXIS2_PLACEMENT_3D('',#813,#595,#596);
#491=AXIS2_PLACEMENT_3D('',#814,#597,#598);
#492=AXIS2_PLACEMENT_3D('',#820,#602,#603);
#493=AXIS2_PLACEMENT_3D('',#822,#604,#605);
#494=AXIS2_PLACEMENT_3D('',#825,#607,#608);
#495=AXIS2_PLACEMENT_3D('',#826,#609,#610);
#496=AXIS2_PLACEMENT_3D('',#827,#611,#612);
#497=AXIS2_PLACEMENT_3D('',#828,#613,#614);
#498=AXIS2_PLACEMENT_3D('',#829,#615,#616);
#499=AXIS2_PLACEMENT_3D('',#832,#618,#619);
#500=AXIS2_PLACEMENT_3D('',#833,#620,#621);
#501=AXIS2_PLACEMENT_3D('',#837,#624,#625);
#502=AXIS2_PLACEMENT_3D('',#838,#626,#627);
#503=AXIS2_PLACEMENT_3D('',#839,#628,#629);
#504=DIRECTION('axis',(0.,0.,1.));
#505=DIRECTION('refdir',(1.,0.,0.));
#506=DIRECTION('center_axis',(1.,0.,0.));
#507=DIRECTION('ref_axis',(0.,-1.,8.3985154293172E-25));
#508=DIRECTION('center_axis',(1.,0.,0.));
#509=DIRECTION('ref_axis',(0.,-1.,8.3985154293172E-25));
#510=DIRECTION('',(1.,0.,0.));
#511=DIRECTION('center_axis',(-1.,0.,0.));
#512=DIRECTION('ref_axis',(0.,-1.,8.3985154293172E-25));
#513=DIRECTION('center_axis',(-1.,0.,0.));
#514=DIRECTION('ref_axis',(0.,-1.,8.3985154293172E-25));
#515=DIRECTION('center_axis',(1.,0.,0.));
#516=DIRECTION('ref_axis',(0.,-1.,8.3985154293172E-25));
#517=DIRECTION('center_axis',(-1.,0.,0.));
#518=DIRECTION('ref_axis',(0.,-1.,0.));
#519=DIRECTION('',(0.,0.,-1.));
#520=DIRECTION('',(0.,1.,0.));
#521=DIRECTION('',(0.,0.,1.));
#522=DIRECTION('',(0.,1.,0.));
#523=DIRECTION('',(0.,0.,-1.));
#524=DIRECTION('center_axis',(-1.,0.,0.));
#525=DIRECTION('ref_axis',(0.,-1.,0.));
#526=DIRECTION('',(0.,0.,-1.));
#527=DIRECTION('',(0.,1.,0.));
#528=DIRECTION('',(0.,0.,1.));
#529=DIRECTION('',(0.,1.,0.));
#530=DIRECTION('',(0.,0.,-1.));
#531=DIRECTION('center_axis',(-1.,0.,0.));
#532=DIRECTION('ref_axis',(0.,1.,-8.3985154293172E-25));
#533=DIRECTION('center_axis',(-1.,0.,0.));
#534=DIRECTION('ref_axis',(0.,1.,-8.3985154293172E-25));
#535=DIRECTION('',(-1.,0.,0.));
#536=DIRECTION('center_axis',(1.,0.,0.));
#537=DIRECTION('ref_axis',(0.,1.,-8.3985154293172E-25));
#538=DIRECTION('center_axis',(1.,0.,0.));
#539=DIRECTION('ref_axis',(0.,1.,0.));
#540=DIRECTION('',(0.,0.,1.));
#541=DIRECTION('',(0.,-1.,0.));
#542=DIRECTION('',(0.,0.,-1.));
#543=DIRECTION('',(0.,-1.,0.));
#544=DIRECTION('',(0.,0.,1.));
#545=DIRECTION('center_axis',(1.,0.,0.));
#546=DIRECTION('ref_axis',(0.,1.,0.));
#547=DIRECTION('',(0.,0.,1.));
#548=DIRECTION('',(0.,-1.,0.));
#549=DIRECTION('',(0.,0.,-1.));
#550=DIRECTION('',(0.,-1.,0.));
#551=DIRECTION('',(0.,0.,1.));
#552=DIRECTION('center_axis',(0.,0.,-1.));
#553=DIRECTION('ref_axis',(0.707106781186548,-0.707106781186548,0.));
#554=DIRECTION('center_axis',(0.,0.,-1.));
#555=DIRECTION('ref_axis',(0.707106781186548,-0.707106781186548,0.));
#556=DIRECTION('',(0.,0.,-1.));
#557=DIRECTION('center_axis',(0.,0.,-1.));
#558=DIRECTION('ref_axis',(0.707106781186548,-0.707106781186548,0.));
#559=DIRECTION('center_axis',(0.,-1.,0.));
#560=DIRECTION('ref_axis',(1.,0.,0.));
#561=DIRECTION('',(-1.,0.,0.));
#562=DIRECTION('',(0.,0.,1.));
#563=DIRECTION('',(-1.,0.,0.));
#564=DIRECTION('center_axis',(0.,0.,1.));
#565=DIRECTION('ref_axis',(-0.707106781186548,-0.707106781186548,0.));
#566=DIRECTION('center_axis',(0.,0.,-1.));
#567=DIRECTION('ref_axis',(-0.707106781186548,-0.707106781186548,0.));
#568=DIRECTION('center_axis',(0.,0.,-1.));
#569=DIRECTION('ref_axis',(-0.707106781186548,-0.707106781186548,0.));
#570=DIRECTION('center_axis',(0.,0.,1.));
#571=DIRECTION('ref_axis',(-0.707106781186548,0.707106781186548,0.));
#572=DIRECTION('center_axis',(0.,0.,-1.));
#573=DIRECTION('ref_axis',(-0.707106781186548,0.707106781186548,0.));
#574=DIRECTION('center_axis',(0.,0.,-1.));
#575=DIRECTION('ref_axis',(-0.707106781186548,0.707106781186548,0.));
#576=DIRECTION('',(0.,0.,-1.));
#577=DIRECTION('center_axis',(0.,1.,0.));
#578=DIRECTION('ref_axis',(-1.,0.,0.));
#579=DIRECTION('',(1.,0.,0.));
#580=DIRECTION('',(0.,0.,1.));
#581=DIRECTION('',(1.,0.,0.));
#582=DIRECTION('center_axis',(0.,0.,-1.));
#583=DIRECTION('ref_axis',(0.707106781186548,0.707106781186548,0.));
#584=DIRECTION('center_axis',(0.,0.,-1.));
#585=DIRECTION('ref_axis',(0.707106781186548,0.707106781186548,0.));
#586=DIRECTION('center_axis',(0.,0.,-1.));
#587=DIRECTION('ref_axis',(0.707106781186548,0.707106781186548,0.));
#588=DIRECTION('center_axis',(0.,0.,1.));
#589=DIRECTION('ref_axis',(1.,0.,0.));
#590=DIRECTION('center_axis',(0.,0.,-1.));
#591=DIRECTION('ref_axis',(0.707106781186548,-0.707106781186548,0.));
#592=DIRECTION('center_axis',(0.,0.,-1.));
#593=DIRECTION('ref_axis',(0.707106781186548,-0.707106781186548,0.));
#594=DIRECTION('',(0.,0.,-1.));
#595=DIRECTION('center_axis',(0.,0.,1.));
#596=DIRECTION('ref_axis',(0.707106781186548,-0.707106781186548,0.));
#597=DIRECTION('center_axis',(0.,-1.,0.));
#598=DIRECTION('ref_axis',(1.,0.,0.));
#599=DIRECTION('',(-1.,0.,0.));
#600=DIRECTION('',(0.,0.,1.));
#601=DIRECTION('',(-1.,0.,0.));
#602=DIRECTION('center_axis',(0.,0.,1.));
#603=DIRECTION('ref_axis',(1.,0.,0.));
#604=DIRECTION('center_axis',(0.,0.,-1.));
#605=DIRECTION('ref_axis',(0.707106781186548,0.707106781186548,0.));
#606=DIRECTION('',(1.,0.,0.));
#607=DIRECTION('center_axis',(0.,0.,-1.));
#608=DIRECTION('ref_axis',(-0.707106781186548,0.707106781186548,0.));
#609=DIRECTION('center_axis',(0.,0.,-1.));
#610=DIRECTION('ref_axis',(-0.707106781186548,-0.707106781186548,0.));
#611=DIRECTION('center_axis',(0.,0.,1.));
#612=DIRECTION('ref_axis',(-0.707106781186548,-0.707106781186548,0.));
#613=DIRECTION('center_axis',(0.,0.,1.));
#614=DIRECTION('ref_axis',(-0.707106781186548,-0.707106781186548,0.));
#615=DIRECTION('center_axis',(0.,0.,1.));
#616=DIRECTION('ref_axis',(-0.707106781186548,0.707106781186548,0.));
#617=DIRECTION('',(0.,0.,-1.));
#618=DIRECTION('center_axis',(0.,0.,1.));
#619=DIRECTION('ref_axis',(-0.707106781186548,0.707106781186548,0.));
#620=DIRECTION('center_axis',(0.,1.,0.));
#621=DIRECTION('ref_axis',(-1.,0.,0.));
#622=DIRECTION('',(0.,0.,1.));
#623=DIRECTION('',(1.,0.,0.));
#624=DIRECTION('center_axis',(0.,0.,-1.));
#625=DIRECTION('ref_axis',(0.707106781186548,0.707106781186548,0.));
#626=DIRECTION('center_axis',(0.,0.,1.));
#627=DIRECTION('ref_axis',(0.707106781186548,0.707106781186548,0.));
#628=DIRECTION('center_axis',(0.,0.,1.));
#629=DIRECTION('ref_axis',(1.,0.,0.));
#630=CARTESIAN_POINT('',(0.,0.,0.));
#631=CARTESIAN_POINT('Origin',(-57.,-18.3131918448103,22.5159001612056));
#632=CARTESIAN_POINT('',(-57.,-15.,31.951087483113));
#633=CARTESIAN_POINT('',(-57.,-15.,13.0807128392981));
#634=CARTESIAN_POINT('Ctrl Pts',(-57.,-15.,31.951087483113));
#635=CARTESIAN_POINT('Ctrl Pts',(-57.,-16.0848603405239,32.3320391601016));
#636=CARTESIAN_POINT('Ctrl Pts',(-56.9547039684721,-17.2315913696053,32.5159001612056));
#637=CARTESIAN_POINT('Ctrl Pts',(-56.7685676377398,-19.5838135568666,32.5159001612056));
#638=CARTESIAN_POINT('Ctrl Pts',(-56.5980432708528,-20.9303566021525,32.25940657728));
#639=CARTESIAN_POINT('Ctrl Pts',(-56.171118708552,-23.3967444733288,31.2304259193122));
#640=CARTESIAN_POINT('Ctrl Pts',(-55.9176655821134,-24.517276798274,30.4583662569343));
#641=CARTESIAN_POINT('Ctrl Pts',(-55.4675568296846,-26.2780508905772,28.6887157920574));
#642=CARTESIAN_POINT('Ctrl Pts',(-55.2402313972729,-27.0419323896314,27.573059693636));
#643=CARTESIAN_POINT('Ctrl Pts',(-54.9215258185416,-28.0597145697399,25.1180256550305));
#644=CARTESIAN_POINT('Ctrl Pts',(-54.8341426781508,-28.3131918448103,23.7779549976254));
#645=CARTESIAN_POINT('Ctrl Pts',(-54.8341426781508,-28.3131918448103,21.2538453247857));
#646=CARTESIAN_POINT('Ctrl Pts',(-54.9215258185416,-28.0597145697399,19.9137746673806));
#647=CARTESIAN_POINT('Ctrl Pts',(-55.2402313972729,-27.0419323896314,17.4587406287751));
#648=CARTESIAN_POINT('Ctrl Pts',(-55.4675568296846,-26.2780508905772,16.3430845303537));
#649=CARTESIAN_POINT('Ctrl Pts',(-55.9176655821134,-24.517276798274,14.5734340654768));
#650=CARTESIAN_POINT('Ctrl Pts',(-56.171118708552,-23.3967444733288,13.801374403099));
#651=CARTESIAN_POINT('Ctrl Pts',(-56.5980432708528,-20.9303566021525,12.7723937451311));
#652=CARTESIAN_POINT('Ctrl Pts',(-56.7685676377398,-19.5838135568666,12.5159001612056));
#653=CARTESIAN_POINT('Ctrl Pts',(-56.9547039684721,-17.2315913696053,12.5159001612056));
#654=CARTESIAN_POINT('Ctrl Pts',(-57.,-16.0848603405239,12.6997611623096));
#655=CARTESIAN_POINT('Ctrl Pts',(-57.,-15.,13.0807128392981));
#656=CARTESIAN_POINT('',(-57.,-8.31319184481029,22.5159001612056));
#657=CARTESIAN_POINT('Origin',(-57.,-18.3131918448103,22.5159001612056));
#658=CARTESIAN_POINT('',(-55.5,-8.31319184481029,22.5159001612056));
#659=CARTESIAN_POINT('',(-57.,-8.31319184481029,22.5159001612056));
#660=CARTESIAN_POINT('',(-55.5,-15.,31.951087483113));
#661=CARTESIAN_POINT('Origin',(-55.5,-18.3131918448103,22.5159001612056));
#662=CARTESIAN_POINT('',(-55.5,-15.,13.0807128392981));
#663=CARTESIAN_POINT('Ctrl Pts',(-55.5,-15.,13.0807128392981));
#664=CARTESIAN_POINT('Ctrl Pts',(-55.5,-16.0849141870959,12.6997422539385));
#665=CARTESIAN_POINT('Ctrl Pts',(-55.4530229213425,-17.2316934651432,12.5159001612056));
#666=CARTESIAN_POINT('Ctrl Pts',(-55.259858661818,-19.5849923452857,12.5159001612056));
#667=CARTESIAN_POINT('Ctrl Pts',(-55.0827927127579,-20.9321074167687,12.772833556376));
#668=CARTESIAN_POINT('Ctrl Pts',(-54.6393995325045,-23.3987007812854,13.8024816457894));
#669=CARTESIAN_POINT('Ctrl Pts',(-54.3761069351953,-24.5189159592423,14.57473545383));
#670=CARTESIAN_POINT('Ctrl Pts',(-53.908417673092,-26.2785189864442,16.3438979013206));
#671=CARTESIAN_POINT('Ctrl Pts',(-53.6720566450508,-27.0419428808996,17.4588557706439));
#672=CARTESIAN_POINT('Ctrl Pts',(-53.340392249342,-28.0595055890322,19.9131807588473));
#673=CARTESIAN_POINT('Ctrl Pts',(-53.2492996393826,-28.3131918448103,21.2533026425697));
#674=CARTESIAN_POINT('Ctrl Pts',(-53.2492996393826,-28.3131918448103,23.7784976798414));
#675=CARTESIAN_POINT('Ctrl Pts',(-53.340392249342,-28.0595055890322,25.1186195635638));
#676=CARTESIAN_POINT('Ctrl Pts',(-53.6720566450508,-27.0419428808996,27.5729445517672));
#677=CARTESIAN_POINT('Ctrl Pts',(-53.908417673092,-26.2785189864443,28.6879024210905));
#678=CARTESIAN_POINT('Ctrl Pts',(-54.3761069351953,-24.5189159592423,30.4570648685812));
#679=CARTESIAN_POINT('Ctrl Pts',(-54.6393995325045,-23.3987007812854,31.2293186766217));
#680=CARTESIAN_POINT('Ctrl Pts',(-55.0827927127579,-20.9321074167687,32.2589667660351));
#681=CARTESIAN_POINT('Ctrl Pts',(-55.259858661818,-19.5849923452857,32.5159001612056));
#682=CARTESIAN_POINT('Ctrl Pts',(-55.4530229213425,-17.2316934651432,32.5159001612056));
#683=CARTESIAN_POINT('Ctrl Pts',(-55.5,-16.0849141870959,32.3320580684726));
#684=CARTESIAN_POINT('Ctrl Pts',(-55.5,-15.,31.951087483113));
#685=CARTESIAN_POINT('Origin',(-55.5,-18.3131918448103,22.5159001612056));
#686=CARTESIAN_POINT('Origin',(-57.,-18.3131918448103,22.5159001612056));
#687=CARTESIAN_POINT('Origin',(-55.5,55.,0.));
#688=CARTESIAN_POINT('',(-55.5,-15.,1.5));
#689=CARTESIAN_POINT('',(-55.5,-15.,0.));
#690=CARTESIAN_POINT('',(-55.5,15.,1.5));
#691=CARTESIAN_POINT('',(-55.5,27.5,1.5));
#692=CARTESIAN_POINT('',(-55.5,15.,134.));
#693=CARTESIAN_POINT('',(-55.5,15.,0.));
#694=CARTESIAN_POINT('',(-55.5,-15.,134.));
#695=CARTESIAN_POINT('',(-55.5,27.5,134.));
#696=CARTESIAN_POINT('',(-55.5,-15.,0.));
#697=CARTESIAN_POINT('Origin',(-57.,55.,0.));
#698=CARTESIAN_POINT('',(-57.,-15.,134.));
#699=CARTESIAN_POINT('',(-57.,-15.,0.));
#700=CARTESIAN_POINT('',(-57.,15.,134.));
#701=CARTESIAN_POINT('',(-57.,27.5,134.));
#702=CARTESIAN_POINT('',(-57.,15.,0.));
#703=CARTESIAN_POINT('',(-57.,15.,0.));
#704=CARTESIAN_POINT('',(-57.,-15.,0.));
#705=CARTESIAN_POINT('',(-57.,27.5,0.));
#706=CARTESIAN_POINT('',(-57.,-15.,0.));
#707=CARTESIAN_POINT('Origin',(57.,-15.0000003541098,100.000001252738));
#708=CARTESIAN_POINT('',(57.,-15.,97.0000012527384));
#709=CARTESIAN_POINT('',(56.8927201059485,-18.0000003541098,100.000001252738));
#710=CARTESIAN_POINT('Ctrl Pts',(57.,-15.0000003541098,97.0000012527384));
#711=CARTESIAN_POINT('Ctrl Pts',(56.9999999968229,-15.3768245608602,97.0000012527384));
#712=CARTESIAN_POINT('Ctrl Pts',(56.9944083081173,-15.7786785670488,97.0753359177538));
#713=CARTESIAN_POINT('Ctrl Pts',(56.9741946531391,-16.5177788644921,97.3815369195741));
#714=CARTESIAN_POINT('Ctrl Pts',(56.9598609451813,-16.8550359503534,97.6123961618311));
#715=CARTESIAN_POINT('Ctrl Pts',(56.9329277317729,-17.3876056800345,98.1449658915753));
#716=CARTESIAN_POINT('Ctrl Pts',(56.9185780368513,-17.6184647414025,98.4822228728909));
#717=CARTESIAN_POINT('Ctrl Pts',(56.8983278115851,-17.9246656011346,99.2213228276033));
#718=CARTESIAN_POINT('Ctrl Pts',(56.8927201059485,-18.0000003541098,99.6231767137213));
#719=CARTESIAN_POINT('Ctrl Pts',(56.8927201059485,-18.0000003541098,100.000001252738));
#720=CARTESIAN_POINT('',(57.,-15.,103.000001252738));
#721=CARTESIAN_POINT('Origin',(57.,-15.0000003541098,100.000001252738));
#722=CARTESIAN_POINT('Ctrl Pts',(56.8927201059485,-18.0000003541098,100.000001252738));
#723=CARTESIAN_POINT('Ctrl Pts',(56.8927201059485,-18.0000003541098,100.376825791755));
#724=CARTESIAN_POINT('Ctrl Pts',(56.8983278115851,-17.9246656011346,100.778679677873));
#725=CARTESIAN_POINT('Ctrl Pts',(56.9185780368513,-17.6184647414025,101.517779632586));
#726=CARTESIAN_POINT('Ctrl Pts',(56.9329277317729,-17.3876056800345,101.855036613901));
#727=CARTESIAN_POINT('Ctrl Pts',(56.9598609451813,-16.8550359503534,102.387606343646));
#728=CARTESIAN_POINT('Ctrl Pts',(56.9741946531391,-16.5177788644921,102.618465585903));
#729=CARTESIAN_POINT('Ctrl Pts',(56.9944083081173,-15.7786785670488,102.924666587723));
#730=CARTESIAN_POINT('Ctrl Pts',(56.9999999968229,-15.3768245608602,103.000001252738));
#731=CARTESIAN_POINT('Ctrl Pts',(57.,-15.0000003541098,103.000001252738));
#732=CARTESIAN_POINT('',(55.3887360272062,-18.0000003541098,100.000001252738));
#733=CARTESIAN_POINT('',(57.,-18.0000003541098,100.000001252738));
#734=CARTESIAN_POINT('',(55.5,-15.,103.000001252738));
#735=CARTESIAN_POINT('Ctrl Pts',(55.5,-15.0000003541098,103.000001252738));
#736=CARTESIAN_POINT('Ctrl Pts',(55.4999999967052,-15.3768349492848,103.000001252738));
#737=CARTESIAN_POINT('Ctrl Pts',(55.4942009755054,-15.7786934444821,102.924662526634));
#738=CARTESIAN_POINT('Ctrl Pts',(55.4732379097717,-16.5177909031493,102.618458495879));
#739=CARTESIAN_POINT('Ctrl Pts',(55.458372691201,-16.8550414729585,102.387600821043));
#740=CARTESIAN_POINT('Ctrl Pts',(55.4304398336664,-17.3876001943107,101.855042099623));
#741=CARTESIAN_POINT('Ctrl Pts',(55.4155567813976,-17.6184576594493,101.517791650539));
#742=CARTESIAN_POINT('Ctrl Pts',(55.3945529183686,-17.9246615266914,100.778694588765));
#743=CARTESIAN_POINT('Ctrl Pts',(55.3887360272062,-18.0000003541098,100.376836232363));
#744=CARTESIAN_POINT('Ctrl Pts',(55.3887360272062,-18.0000003541098,100.000001252738));
#745=CARTESIAN_POINT('',(55.5,-15.,97.0000012527384));
#746=CARTESIAN_POINT('Origin',(55.5,-15.0000003541098,100.000001252738));
#747=CARTESIAN_POINT('Ctrl Pts',(55.3887360272062,-18.0000003541098,100.000001252738));
#748=CARTESIAN_POINT('Ctrl Pts',(55.3887360272062,-18.0000003541098,99.6231662731135));
#749=CARTESIAN_POINT('Ctrl Pts',(55.3945529183686,-17.9246615266914,99.221307916712));
#750=CARTESIAN_POINT('Ctrl Pts',(55.4155567813976,-17.6184576594493,98.4822108549381));
#751=CARTESIAN_POINT('Ctrl Pts',(55.4304398336664,-17.3876001943107,98.1449604058539));
#752=CARTESIAN_POINT('Ctrl Pts',(55.458372691201,-16.8550414729585,97.6124016844339));
#753=CARTESIAN_POINT('Ctrl Pts',(55.4732379097717,-16.5177909031493,97.3815440095977));
#754=CARTESIAN_POINT('Ctrl Pts',(55.4942009755054,-15.7786934444821,97.0753399788424));
#755=CARTESIAN_POINT('Ctrl Pts',(55.4999999967052,-15.3768349492848,97.0000012527384));
#756=CARTESIAN_POINT('Ctrl Pts',(55.5,-15.0000003541098,97.0000012527384));
#757=CARTESIAN_POINT('Origin',(55.5,-55.,0.));
#758=CARTESIAN_POINT('',(55.5,-15.,134.));
#759=CARTESIAN_POINT('',(55.5,-15.,0.));
#760=CARTESIAN_POINT('',(55.5,15.,134.));
#761=CARTESIAN_POINT('',(55.5,-27.5,134.));
#762=CARTESIAN_POINT('',(55.5,15.,1.5));
#763=CARTESIAN_POINT('',(55.5,15.,0.));
#764=CARTESIAN_POINT('',(55.5,-15.,1.5));
#765=CARTESIAN_POINT('',(55.5,-27.5,1.5));
#766=CARTESIAN_POINT('',(55.5,-15.,0.));
#767=CARTESIAN_POINT('Origin',(57.,-55.,0.));
#768=CARTESIAN_POINT('',(57.,-15.,0.));
#769=CARTESIAN_POINT('',(57.,-15.,0.));
#770=CARTESIAN_POINT('',(57.,15.,0.));
#771=CARTESIAN_POINT('',(57.,-27.5,0.));
#772=CARTESIAN_POINT('',(57.,15.,134.));
#773=CARTESIAN_POINT('',(57.,15.,0.));
#774=CARTESIAN_POINT('',(57.,-15.,134.));
#775=CARTESIAN_POINT('',(57.,-27.5,134.));
#776=CARTESIAN_POINT('',(57.,-15.,0.));
#777=CARTESIAN_POINT('Origin',(15.,-15.,0.));
#778=CARTESIAN_POINT('',(15.,-55.5,1.5));
#779=CARTESIAN_POINT('Origin',(15.,-15.,1.5));
#780=CARTESIAN_POINT('',(15.,-55.5,134.));
#781=CARTESIAN_POINT('',(15.,-55.5,0.));
#782=CARTESIAN_POINT('Origin',(15.,-15.,134.));
#783=CARTESIAN_POINT('Origin',(-55.,-55.5,0.));
#784=CARTESIAN_POINT('',(-15.,-55.5,1.5));
#785=CARTESIAN_POINT('',(-27.5,-55.5,1.5));
#786=CARTESIAN_POINT('',(-15.,-55.5,134.));
#787=CARTESIAN_POINT('',(-15.,-55.5,0.));
#788=CARTESIAN_POINT('',(-27.5,-55.5,134.));
#789=CARTESIAN_POINT('Origin',(-15.,-15.,0.));
#790=CARTESIAN_POINT('Origin',(-15.,-15.,134.));
#791=CARTESIAN_POINT('Origin',(-15.,-15.,1.5));
#792=CARTESIAN_POINT('Origin',(-15.,15.,0.));
#793=CARTESIAN_POINT('',(-15.,55.5,134.));
#794=CARTESIAN_POINT('Origin',(-15.,15.,134.));
#795=CARTESIAN_POINT('',(-15.,55.5,1.5));
#796=CARTESIAN_POINT('Origin',(-15.,15.,1.5));
#797=CARTESIAN_POINT('',(-15.,55.5,0.));
#798=CARTESIAN_POINT('Origin',(55.,55.5,0.));
#799=CARTESIAN_POINT('',(15.,55.5,1.5));
#800=CARTESIAN_POINT('',(27.5,55.5,1.5));
#801=CARTESIAN_POINT('',(15.,55.5,134.));
#802=CARTESIAN_POINT('',(15.,55.5,0.));
#803=CARTESIAN_POINT('',(27.5,55.5,134.));
#804=CARTESIAN_POINT('Origin',(15.,15.,0.));
#805=CARTESIAN_POINT('Origin',(15.,15.,1.5));
#806=CARTESIAN_POINT('Origin',(15.,15.,134.));
#807=CARTESIAN_POINT('Origin',(0.,0.,1.5));
#808=CARTESIAN_POINT('Origin',(15.,-15.,0.));
#809=CARTESIAN_POINT('',(15.,-57.,134.));
#810=CARTESIAN_POINT('Origin',(15.,-15.,134.));
#811=CARTESIAN_POINT('',(15.,-57.,0.));
#812=CARTESIAN_POINT('',(15.,-57.,0.));
#813=CARTESIAN_POINT('Origin',(15.,-15.,0.));
#814=CARTESIAN_POINT('Origin',(-55.,-57.,0.));
#815=CARTESIAN_POINT('',(-15.,-57.,134.));
#816=CARTESIAN_POINT('',(-27.5,-57.,134.));
#817=CARTESIAN_POINT('',(-15.,-57.,0.));
#818=CARTESIAN_POINT('',(-15.,-57.,0.));
#819=CARTESIAN_POINT('',(-27.5,-57.,0.));
#820=CARTESIAN_POINT('Origin',(0.,0.,134.));
#821=CARTESIAN_POINT('',(15.,57.,134.));
#822=CARTESIAN_POINT('Origin',(15.,15.,134.));
#823=CARTESIAN_POINT('',(-15.,57.,134.));
#824=CARTESIAN_POINT('',(27.5,57.,134.));
#825=CARTESIAN_POINT('Origin',(-15.,15.,134.));
#826=CARTESIAN_POINT('Origin',(-15.,-15.,134.));
#827=CARTESIAN_POINT('Origin',(-15.,-15.,0.));
#828=CARTESIAN_POINT('Origin',(-15.,-15.,0.));
#829=CARTESIAN_POINT('Origin',(-15.,15.,0.));
#830=CARTESIAN_POINT('',(-15.,57.,0.));
#831=CARTESIAN_POINT('',(-15.,57.,0.));
#832=CARTESIAN_POINT('Origin',(-15.,15.,0.));
#833=CARTESIAN_POINT('Origin',(55.,57.,0.));
#834=CARTESIAN_POINT('',(15.,57.,0.));
#835=CARTESIAN_POINT('',(15.,57.,0.));
#836=CARTESIAN_POINT('',(27.5,57.,0.));
#837=CARTESIAN_POINT('Origin',(15.,15.,0.));
#838=CARTESIAN_POINT('Origin',(15.,15.,0.));
#839=CARTESIAN_POINT('Origin',(0.,0.,0.));
#840=UNCERTAINTY_MEASURE_WITH_UNIT(LENGTH_MEASURE(0.01),#844,
'DISTANCE_ACCURACY_VALUE',
'Maximum model space distance between geometric entities at asserted c
onnectivities');
#841=UNCERTAINTY_MEASURE_WITH_UNIT(LENGTH_MEASURE(0.01),#844,
'DISTANCE_ACCURACY_VALUE',
'Maximum model space distance between geometric entities at asserted c
onnectivities');
#842=(
GEOMETRIC_REPRESENTATION_CONTEXT(3)
GLOBAL_UNCERTAINTY_ASSIGNED_CONTEXT((#840))
GLOBAL_UNIT_ASSIGNED_CONTEXT((#844,#846,#847))
REPRESENTATION_CONTEXT('','3D')
);
#843=(
GEOMETRIC_REPRESENTATION_CONTEXT(3)
GLOBAL_UNCERTAINTY_ASSIGNED_CONTEXT((#841))
GLOBAL_UNIT_ASSIGNED_CONTEXT((#844,#846,#847))
REPRESENTATION_CONTEXT('','3D')
);
#844=(
LENGTH_UNIT()
NAMED_UNIT(*)
SI_UNIT(.MILLI.,.METRE.)
);
#845=(
LENGTH_UNIT()
NAMED_UNIT(*)
SI_UNIT($,.METRE.)
);
#846=(
NAMED_UNIT(*)
PLANE_ANGLE_UNIT()
SI_UNIT($,.RADIAN.)
);
#847=(
NAMED_UNIT(*)
SI_UNIT($,.STERADIAN.)
SOLID_ANGLE_UNIT()
);
#848=SHAPE_DEFINITION_REPRESENTATION(#849,#850);
#849=PRODUCT_DEFINITION_SHAPE('',$,#852);
#850=SHAPE_REPRESENTATION('',(#460),#842);
#851=PRODUCT_DEFINITION_CONTEXT('part definition',#856,'design');
#852=PRODUCT_DEFINITION('OuterShell','OuterShell v5',#853,#851);
#853=PRODUCT_DEFINITION_FORMATION('',$,#858);
#854=PRODUCT_RELATED_PRODUCT_CATEGORY('OuterShell v5','OuterShell v5',(#858));
#855=APPLICATION_PROTOCOL_DEFINITION('international standard',
'automotive_design',2009,#856);
#856=APPLICATION_CONTEXT(
'Core Data for Automotive Mechanical Design Process');
#857=PRODUCT_CONTEXT('part definition',#856,'mechanical');
#858=PRODUCT('OuterShell','OuterShell v5',$,(#857));
#859=PRESENTATION_STYLE_ASSIGNMENT((#861));
#860=PRESENTATION_STYLE_ASSIGNMENT((#862));
#861=SURFACE_STYLE_USAGE(.BOTH.,#863);
#862=SURFACE_STYLE_USAGE(.BOTH.,#864);
#863=SURFACE_SIDE_STYLE('',(#865));
#864=SURFACE_SIDE_STYLE('',(#866));
#865=SURFACE_STYLE_FILL_AREA(#867);
#866=SURFACE_STYLE_FILL_AREA(#868);
#867=FILL_AREA_STYLE('Steel - Satin',(#869));
#868=FILL_AREA_STYLE('Plastic - Matte (Red)',(#870));
#869=FILL_AREA_STYLE_COLOUR('Steel - Satin',#871);
#870=FILL_AREA_STYLE_COLOUR('Plastic - Matte (Red)',#872);
#871=COLOUR_RGB('Steel - Satin',0.627450980392157,0.627450980392157,0.627450980392157);
#872=COLOUR_RGB('Plastic - Matte (Red)',0.768627450980392,0.207843137254902,
0.152941176470588);
ENDSEC;
END-ISO-10303-21;
