ISO-10303-21;
HEADER;
/* Generated by software containing ST-Developer
 * from STEP Tools, Inc. (www.steptools.com) 
 */

FILE_DESCRIPTION(
/* description */ (''),
/* implementation_level */ '2;1');

FILE_NAME(
/* name */ 'ServoTensioner_v1.step',
/* time_stamp */ '2026-08-21T09:18:41-04:00',
/* author */ (''),
/* organization */ (''),
/* preprocessor_version */ 'ST-DEVELOPER v20.1',
/* originating_system */ 'Autodesk Translation Framework v15.8.0.0',
/* authorisation */ '');

FILE_SCHEMA (('AUTOMOTIVE_DESIGN { 1 0 10303 214 3 1 1 }'));
ENDSEC;

DATA;
#10=MECHANICAL_DESIGN_GEOMETRIC_PRESENTATION_REPRESENTATION('',(#13),#777);
#11=SHAPE_REPRESENTATION_RELATIONSHIP('SRR','None',#784,#12);
#12=ADVANCED_BREP_SHAPE_REPRESENTATION('',(#14),#776);
#13=STYLED_ITEM('',(#794),#14);
#14=MANIFOLD_SOLID_BREP('Body1',#449);
#15=FACE_BOUND('',#65,.T.);
#16=FACE_BOUND('',#66,.T.);
#17=FACE_BOUND('',#71,.T.);
#18=FACE_BOUND('',#76,.T.);
#19=FACE_BOUND('',#79,.T.);
#20=FACE_BOUND('',#84,.T.);
#21=FACE_BOUND('',#87,.T.);
#22=FACE_BOUND('',#90,.T.);
#23=FACE_BOUND('',#95,.T.);
#24=PLANE('',#466);
#25=PLANE('',#467);
#26=PLANE('',#475);
#27=PLANE('',#478);
#28=PLANE('',#481);
#29=PLANE('',#486);
#30=PLANE('',#491);
#31=PLANE('',#493);
#32=PLANE('',#498);
#33=PLANE('',#501);
#34=PLANE('',#505);
#35=PLANE('',#510);
#36=PLANE('',#511);
#37=FACE_OUTER_BOUND('',#62,.T.);
#38=FACE_OUTER_BOUND('',#63,.T.);
#39=FACE_OUTER_BOUND('',#64,.T.);
#40=FACE_OUTER_BOUND('',#67,.T.);
#41=FACE_OUTER_BOUND('',#68,.T.);
#42=FACE_OUTER_BOUND('',#69,.T.);
#43=FACE_OUTER_BOUND('',#70,.T.);
#44=FACE_OUTER_BOUND('',#72,.T.);
#45=FACE_OUTER_BOUND('',#73,.T.);
#46=FACE_OUTER_BOUND('',#74,.T.);
#47=FACE_OUTER_BOUND('',#75,.T.);
#48=FACE_OUTER_BOUND('',#77,.T.);
#49=FACE_OUTER_BOUND('',#78,.T.);
#50=FACE_OUTER_BOUND('',#80,.T.);
#51=FACE_OUTER_BOUND('',#81,.T.);
#52=FACE_OUTER_BOUND('',#82,.T.);
#53=FACE_OUTER_BOUND('',#83,.T.);
#54=FACE_OUTER_BOUND('',#85,.T.);
#55=FACE_OUTER_BOUND('',#86,.T.);
#56=FACE_OUTER_BOUND('',#88,.T.);
#57=FACE_OUTER_BOUND('',#89,.T.);
#58=FACE_OUTER_BOUND('',#91,.T.);
#59=FACE_OUTER_BOUND('',#92,.T.);
#60=FACE_OUTER_BOUND('',#93,.T.);
#61=FACE_OUTER_BOUND('',#94,.T.);
#62=EDGE_LOOP('',(#292,#293,#294,#295));
#63=EDGE_LOOP('',(#296,#297,#298,#299));
#64=EDGE_LOOP('',(#300,#301,#302,#303,#304,#305,#306,#307));
#65=EDGE_LOOP('',(#308));
#66=EDGE_LOOP('',(#309));
#67=EDGE_LOOP('',(#310,#311,#312,#313));
#68=EDGE_LOOP('',(#314,#315,#316,#317,#318,#319,#320,#321));
#69=EDGE_LOOP('',(#322,#323,#324,#325));
#70=EDGE_LOOP('',(#326,#327,#328,#329,#330,#331));
#71=EDGE_LOOP('',(#332));
#72=EDGE_LOOP('',(#333,#334,#335,#336));
#73=EDGE_LOOP('',(#337,#338,#339,#340));
#74=EDGE_LOOP('',(#341,#342,#343,#344));
#75=EDGE_LOOP('',(#345));
#76=EDGE_LOOP('',(#346));
#77=EDGE_LOOP('',(#347,#348,#349,#350));
#78=EDGE_LOOP('',(#351,#352,#353,#354,#355,#356));
#79=EDGE_LOOP('',(#357));
#80=EDGE_LOOP('',(#358,#359,#360,#361));
#81=EDGE_LOOP('',(#362,#363,#364,#365));
#82=EDGE_LOOP('',(#366,#367,#368,#369));
#83=EDGE_LOOP('',(#370,#371,#372,#373,#374,#375));
#84=EDGE_LOOP('',(#376));
#85=EDGE_LOOP('',(#377,#378,#379,#380));
#86=EDGE_LOOP('',(#381));
#87=EDGE_LOOP('',(#382));
#88=EDGE_LOOP('',(#383,#384,#385,#386));
#89=EDGE_LOOP('',(#387));
#90=EDGE_LOOP('',(#388));
#91=EDGE_LOOP('',(#389,#390,#391,#392));
#92=EDGE_LOOP('',(#393,#394,#395,#396));
#93=EDGE_LOOP('',(#397,#398,#399,#400,#401,#402,#403,#404));
#94=EDGE_LOOP('',(#405,#406,#407,#408,#409,#410));
#95=EDGE_LOOP('',(#411));
#96=LINE('',#654,#132);
#97=LINE('',#657,#133);
#98=LINE('',#660,#134);
#99=LINE('',#662,#135);
#100=LINE('',#663,#136);
#101=LINE('',#666,#137);
#102=LINE('',#670,#138);
#103=LINE('',#674,#139);
#104=LINE('',#683,#140);
#105=LINE('',#686,#141);
#106=LINE('',#688,#142);
#107=LINE('',#690,#143);
#108=LINE('',#692,#144);
#109=LINE('',#694,#145);
#110=LINE('',#695,#146);
#111=LINE('',#699,#147);
#112=LINE('',#702,#148);
#113=LINE('',#706,#149);
#114=LINE('',#707,#150);
#115=LINE('',#711,#151);
#116=LINE('',#713,#152);
#117=LINE('',#718,#153);
#118=LINE('',#728,#154);
#119=LINE('',#731,#155);
#120=LINE('',#734,#156);
#121=LINE('',#736,#157);
#122=LINE('',#739,#158);
#123=LINE('',#740,#159);
#124=LINE('',#745,#160);
#125=LINE('',#749,#161);
#126=LINE('',#750,#162);
#127=LINE('',#754,#163);
#128=LINE('',#761,#164);
#129=LINE('',#766,#165);
#130=LINE('',#770,#166);
#131=LINE('',#772,#167);
#132=VECTOR('',#518,10.);
#133=VECTOR('',#521,10.);
#134=VECTOR('',#524,10.);
#135=VECTOR('',#525,10.);
#136=VECTOR('',#526,10.);
#137=VECTOR('',#529,10.);
#138=VECTOR('',#532,10.);
#139=VECTOR('',#535,10.);
#140=VECTOR('',#546,10.);
#141=VECTOR('',#549,10.);
#142=VECTOR('',#550,10.);
#143=VECTOR('',#551,10.);
#144=VECTOR('',#552,10.);
#145=VECTOR('',#553,10.);
#146=VECTOR('',#554,10.);
#147=VECTOR('',#559,10.);
#148=VECTOR('',#562,10.);
#149=VECTOR('',#565,10.);
#150=VECTOR('',#566,10.);
#151=VECTOR('',#571,10.);
#152=VECTOR('',#574,10.);
#153=VECTOR('',#579,1.6);
#154=VECTOR('',#590,10.);
#155=VECTOR('',#593,10.);
#156=VECTOR('',#596,10.);
#157=VECTOR('',#599,10.);
#158=VECTOR('',#602,10.);
#159=VECTOR('',#603,10.);
#160=VECTOR('',#610,2.1);
#161=VECTOR('',#615,10.);
#162=VECTOR('',#616,10.);
#163=VECTOR('',#621,1.4);
#164=VECTOR('',#630,1.4);
#165=VECTOR('',#637,1.75);
#166=VECTOR('',#642,1.75);
#167=VECTOR('',#645,10.);
#168=CIRCLE('',#464,3.);
#169=CIRCLE('',#465,3.);
#170=CIRCLE('',#468,3.);
#171=CIRCLE('',#469,3.);
#172=CIRCLE('',#470,3.);
#173=CIRCLE('',#471,1.4);
#174=CIRCLE('',#472,1.4);
#175=CIRCLE('',#474,3.);
#176=CIRCLE('',#477,3.);
#177=CIRCLE('',#479,3.);
#178=CIRCLE('',#480,1.75);
#179=CIRCLE('',#484,1.6);
#180=CIRCLE('',#485,1.6);
#181=CIRCLE('',#487,2.1);
#182=CIRCLE('',#489,3.);
#183=CIRCLE('',#490,3.);
#184=CIRCLE('',#492,3.);
#185=CIRCLE('',#495,3.);
#186=CIRCLE('',#497,2.1);
#187=CIRCLE('',#500,1.4);
#188=CIRCLE('',#502,1.75);
#189=CIRCLE('',#504,1.4);
#190=CIRCLE('',#506,1.75);
#191=CIRCLE('',#509,1.75);
#192=VERTEX_POINT('',#650);
#193=VERTEX_POINT('',#651);
#194=VERTEX_POINT('',#653);
#195=VERTEX_POINT('',#655);
#196=VERTEX_POINT('',#659);
#197=VERTEX_POINT('',#661);
#198=VERTEX_POINT('',#665);
#199=VERTEX_POINT('',#667);
#200=VERTEX_POINT('',#669);
#201=VERTEX_POINT('',#671);
#202=VERTEX_POINT('',#673);
#203=VERTEX_POINT('',#676);
#204=VERTEX_POINT('',#678);
#205=VERTEX_POINT('',#681);
#206=VERTEX_POINT('',#685);
#207=VERTEX_POINT('',#687);
#208=VERTEX_POINT('',#689);
#209=VERTEX_POINT('',#691);
#210=VERTEX_POINT('',#693);
#211=VERTEX_POINT('',#697);
#212=VERTEX_POINT('',#701);
#213=VERTEX_POINT('',#703);
#214=VERTEX_POINT('',#705);
#215=VERTEX_POINT('',#708);
#216=VERTEX_POINT('',#715);
#217=VERTEX_POINT('',#717);
#218=VERTEX_POINT('',#721);
#219=VERTEX_POINT('',#724);
#220=VERTEX_POINT('',#725);
#221=VERTEX_POINT('',#727);
#222=VERTEX_POINT('',#729);
#223=VERTEX_POINT('',#733);
#224=VERTEX_POINT('',#738);
#225=VERTEX_POINT('',#744);
#226=VERTEX_POINT('',#748);
#227=VERTEX_POINT('',#752);
#228=VERTEX_POINT('',#756);
#229=VERTEX_POINT('',#759);
#230=VERTEX_POINT('',#763);
#231=VERTEX_POINT('',#768);
#232=EDGE_CURVE('',#192,#193,#168,.T.);
#233=EDGE_CURVE('',#193,#194,#96,.T.);
#234=EDGE_CURVE('',#194,#195,#169,.T.);
#235=EDGE_CURVE('',#195,#192,#97,.T.);
#236=EDGE_CURVE('',#196,#195,#98,.T.);
#237=EDGE_CURVE('',#197,#196,#99,.T.);
#238=EDGE_CURVE('',#192,#197,#100,.T.);
#239=EDGE_CURVE('',#194,#198,#101,.T.);
#240=EDGE_CURVE('',#199,#198,#170,.T.);
#241=EDGE_CURVE('',#199,#200,#102,.T.);
#242=EDGE_CURVE('',#201,#200,#171,.T.);
#243=EDGE_CURVE('',#201,#202,#103,.T.);
#244=EDGE_CURVE('',#196,#202,#172,.T.);
#245=EDGE_CURVE('',#203,#203,#173,.T.);
#246=EDGE_CURVE('',#204,#204,#174,.T.);
#247=EDGE_CURVE('',#205,#197,#175,.T.);
#248=EDGE_CURVE('',#202,#205,#104,.T.);
#249=EDGE_CURVE('',#206,#201,#105,.T.);
#250=EDGE_CURVE('',#207,#206,#106,.T.);
#251=EDGE_CURVE('',#207,#208,#107,.T.);
#252=EDGE_CURVE('',#209,#208,#108,.T.);
#253=EDGE_CURVE('',#210,#209,#109,.T.);
#254=EDGE_CURVE('',#205,#210,#110,.T.);
#255=EDGE_CURVE('',#211,#206,#176,.T.);
#256=EDGE_CURVE('',#200,#211,#111,.T.);
#257=EDGE_CURVE('',#211,#212,#112,.T.);
#258=EDGE_CURVE('',#213,#212,#177,.T.);
#259=EDGE_CURVE('',#213,#214,#113,.T.);
#260=EDGE_CURVE('',#214,#207,#114,.T.);
#261=EDGE_CURVE('',#215,#215,#178,.T.);
#262=EDGE_CURVE('',#212,#199,#115,.T.);
#263=EDGE_CURVE('',#198,#213,#116,.T.);
#264=EDGE_CURVE('',#216,#216,#179,.T.);
#265=EDGE_CURVE('',#216,#217,#117,.T.);
#266=EDGE_CURVE('',#217,#217,#180,.T.);
#267=EDGE_CURVE('',#218,#218,#181,.T.);
#268=EDGE_CURVE('',#219,#220,#182,.T.);
#269=EDGE_CURVE('',#220,#221,#118,.T.);
#270=EDGE_CURVE('',#221,#222,#183,.T.);
#271=EDGE_CURVE('',#222,#219,#119,.T.);
#272=EDGE_CURVE('',#223,#221,#120,.T.);
#273=EDGE_CURVE('',#208,#223,#184,.T.);
#274=EDGE_CURVE('',#214,#222,#121,.T.);
#275=EDGE_CURVE('',#220,#224,#122,.T.);
#276=EDGE_CURVE('',#223,#224,#123,.T.);
#277=EDGE_CURVE('',#224,#209,#185,.T.);
#278=EDGE_CURVE('',#218,#225,#124,.T.);
#279=EDGE_CURVE('',#225,#225,#186,.T.);
#280=EDGE_CURVE('',#226,#219,#125,.T.);
#281=EDGE_CURVE('',#210,#226,#126,.T.);
#282=EDGE_CURVE('',#227,#227,#187,.T.);
#283=EDGE_CURVE('',#227,#204,#127,.T.);
#284=EDGE_CURVE('',#228,#228,#188,.T.);
#285=EDGE_CURVE('',#229,#229,#189,.T.);
#286=EDGE_CURVE('',#229,#203,#128,.T.);
#287=EDGE_CURVE('',#230,#230,#190,.T.);
#288=EDGE_CURVE('',#215,#230,#129,.T.);
#289=EDGE_CURVE('',#231,#231,#191,.T.);
#290=EDGE_CURVE('',#231,#228,#130,.T.);
#291=EDGE_CURVE('',#226,#193,#131,.T.);
#292=ORIENTED_EDGE('',*,*,#232,.T.);
#293=ORIENTED_EDGE('',*,*,#233,.T.);
#294=ORIENTED_EDGE('',*,*,#234,.T.);
#295=ORIENTED_EDGE('',*,*,#235,.T.);
#296=ORIENTED_EDGE('',*,*,#235,.F.);
#297=ORIENTED_EDGE('',*,*,#236,.F.);
#298=ORIENTED_EDGE('',*,*,#237,.F.);
#299=ORIENTED_EDGE('',*,*,#238,.F.);
#300=ORIENTED_EDGE('',*,*,#234,.F.);
#301=ORIENTED_EDGE('',*,*,#239,.T.);
#302=ORIENTED_EDGE('',*,*,#240,.F.);
#303=ORIENTED_EDGE('',*,*,#241,.T.);
#304=ORIENTED_EDGE('',*,*,#242,.F.);
#305=ORIENTED_EDGE('',*,*,#243,.T.);
#306=ORIENTED_EDGE('',*,*,#244,.F.);
#307=ORIENTED_EDGE('',*,*,#236,.T.);
#308=ORIENTED_EDGE('',*,*,#245,.F.);
#309=ORIENTED_EDGE('',*,*,#246,.F.);
#310=ORIENTED_EDGE('',*,*,#247,.T.);
#311=ORIENTED_EDGE('',*,*,#237,.T.);
#312=ORIENTED_EDGE('',*,*,#244,.T.);
#313=ORIENTED_EDGE('',*,*,#248,.T.);
#314=ORIENTED_EDGE('',*,*,#248,.F.);
#315=ORIENTED_EDGE('',*,*,#243,.F.);
#316=ORIENTED_EDGE('',*,*,#249,.F.);
#317=ORIENTED_EDGE('',*,*,#250,.F.);
#318=ORIENTED_EDGE('',*,*,#251,.T.);
#319=ORIENTED_EDGE('',*,*,#252,.F.);
#320=ORIENTED_EDGE('',*,*,#253,.F.);
#321=ORIENTED_EDGE('',*,*,#254,.F.);
#322=ORIENTED_EDGE('',*,*,#255,.T.);
#323=ORIENTED_EDGE('',*,*,#249,.T.);
#324=ORIENTED_EDGE('',*,*,#242,.T.);
#325=ORIENTED_EDGE('',*,*,#256,.T.);
#326=ORIENTED_EDGE('',*,*,#255,.F.);
#327=ORIENTED_EDGE('',*,*,#257,.T.);
#328=ORIENTED_EDGE('',*,*,#258,.F.);
#329=ORIENTED_EDGE('',*,*,#259,.T.);
#330=ORIENTED_EDGE('',*,*,#260,.T.);
#331=ORIENTED_EDGE('',*,*,#250,.T.);
#332=ORIENTED_EDGE('',*,*,#261,.T.);
#333=ORIENTED_EDGE('',*,*,#256,.F.);
#334=ORIENTED_EDGE('',*,*,#241,.F.);
#335=ORIENTED_EDGE('',*,*,#262,.F.);
#336=ORIENTED_EDGE('',*,*,#257,.F.);
#337=ORIENTED_EDGE('',*,*,#258,.T.);
#338=ORIENTED_EDGE('',*,*,#262,.T.);
#339=ORIENTED_EDGE('',*,*,#240,.T.);
#340=ORIENTED_EDGE('',*,*,#263,.T.);
#341=ORIENTED_EDGE('',*,*,#264,.F.);
#342=ORIENTED_EDGE('',*,*,#265,.T.);
#343=ORIENTED_EDGE('',*,*,#266,.F.);
#344=ORIENTED_EDGE('',*,*,#265,.F.);
#345=ORIENTED_EDGE('',*,*,#267,.F.);
#346=ORIENTED_EDGE('',*,*,#264,.T.);
#347=ORIENTED_EDGE('',*,*,#268,.T.);
#348=ORIENTED_EDGE('',*,*,#269,.T.);
#349=ORIENTED_EDGE('',*,*,#270,.T.);
#350=ORIENTED_EDGE('',*,*,#271,.T.);
#351=ORIENTED_EDGE('',*,*,#270,.F.);
#352=ORIENTED_EDGE('',*,*,#272,.F.);
#353=ORIENTED_EDGE('',*,*,#273,.F.);
#354=ORIENTED_EDGE('',*,*,#251,.F.);
#355=ORIENTED_EDGE('',*,*,#260,.F.);
#356=ORIENTED_EDGE('',*,*,#274,.T.);
#357=ORIENTED_EDGE('',*,*,#266,.T.);
#358=ORIENTED_EDGE('',*,*,#269,.F.);
#359=ORIENTED_EDGE('',*,*,#275,.T.);
#360=ORIENTED_EDGE('',*,*,#276,.F.);
#361=ORIENTED_EDGE('',*,*,#272,.T.);
#362=ORIENTED_EDGE('',*,*,#273,.T.);
#363=ORIENTED_EDGE('',*,*,#276,.T.);
#364=ORIENTED_EDGE('',*,*,#277,.T.);
#365=ORIENTED_EDGE('',*,*,#252,.T.);
#366=ORIENTED_EDGE('',*,*,#267,.T.);
#367=ORIENTED_EDGE('',*,*,#278,.T.);
#368=ORIENTED_EDGE('',*,*,#279,.F.);
#369=ORIENTED_EDGE('',*,*,#278,.F.);
#370=ORIENTED_EDGE('',*,*,#268,.F.);
#371=ORIENTED_EDGE('',*,*,#280,.F.);
#372=ORIENTED_EDGE('',*,*,#281,.F.);
#373=ORIENTED_EDGE('',*,*,#253,.T.);
#374=ORIENTED_EDGE('',*,*,#277,.F.);
#375=ORIENTED_EDGE('',*,*,#275,.F.);
#376=ORIENTED_EDGE('',*,*,#279,.T.);
#377=ORIENTED_EDGE('',*,*,#282,.F.);
#378=ORIENTED_EDGE('',*,*,#283,.T.);
#379=ORIENTED_EDGE('',*,*,#246,.T.);
#380=ORIENTED_EDGE('',*,*,#283,.F.);
#381=ORIENTED_EDGE('',*,*,#284,.F.);
#382=ORIENTED_EDGE('',*,*,#282,.T.);
#383=ORIENTED_EDGE('',*,*,#285,.F.);
#384=ORIENTED_EDGE('',*,*,#286,.T.);
#385=ORIENTED_EDGE('',*,*,#245,.T.);
#386=ORIENTED_EDGE('',*,*,#286,.F.);
#387=ORIENTED_EDGE('',*,*,#287,.F.);
#388=ORIENTED_EDGE('',*,*,#285,.T.);
#389=ORIENTED_EDGE('',*,*,#261,.F.);
#390=ORIENTED_EDGE('',*,*,#288,.T.);
#391=ORIENTED_EDGE('',*,*,#287,.T.);
#392=ORIENTED_EDGE('',*,*,#288,.F.);
#393=ORIENTED_EDGE('',*,*,#289,.F.);
#394=ORIENTED_EDGE('',*,*,#290,.T.);
#395=ORIENTED_EDGE('',*,*,#284,.T.);
#396=ORIENTED_EDGE('',*,*,#290,.F.);
#397=ORIENTED_EDGE('',*,*,#233,.F.);
#398=ORIENTED_EDGE('',*,*,#291,.F.);
#399=ORIENTED_EDGE('',*,*,#280,.T.);
#400=ORIENTED_EDGE('',*,*,#271,.F.);
#401=ORIENTED_EDGE('',*,*,#274,.F.);
#402=ORIENTED_EDGE('',*,*,#259,.F.);
#403=ORIENTED_EDGE('',*,*,#263,.F.);
#404=ORIENTED_EDGE('',*,*,#239,.F.);
#405=ORIENTED_EDGE('',*,*,#232,.F.);
#406=ORIENTED_EDGE('',*,*,#238,.T.);
#407=ORIENTED_EDGE('',*,*,#247,.F.);
#408=ORIENTED_EDGE('',*,*,#254,.T.);
#409=ORIENTED_EDGE('',*,*,#281,.T.);
#410=ORIENTED_EDGE('',*,*,#291,.T.);
#411=ORIENTED_EDGE('',*,*,#289,.T.);
#412=CYLINDRICAL_SURFACE('',#463,3.);
#413=CYLINDRICAL_SURFACE('',#473,3.);
#414=CYLINDRICAL_SURFACE('',#476,3.);
#415=CYLINDRICAL_SURFACE('',#482,3.);
#416=CYLINDRICAL_SURFACE('',#483,1.6);
#417=CYLINDRICAL_SURFACE('',#488,3.);
#418=CYLINDRICAL_SURFACE('',#494,3.);
#419=CYLINDRICAL_SURFACE('',#496,2.1);
#420=CYLINDRICAL_SURFACE('',#499,1.4);
#421=CYLINDRICAL_SURFACE('',#503,1.4);
#422=CYLINDRICAL_SURFACE('',#507,1.75);
#423=CYLINDRICAL_SURFACE('',#508,1.75);
#424=ADVANCED_FACE('',(#37),#412,.T.);
#425=ADVANCED_FACE('',(#38),#24,.T.);
#426=ADVANCED_FACE('',(#39,#15,#16),#25,.F.);
#427=ADVANCED_FACE('',(#40),#413,.T.);
#428=ADVANCED_FACE('',(#41),#26,.T.);
#429=ADVANCED_FACE('',(#42),#414,.T.);
#430=ADVANCED_FACE('',(#43,#17),#27,.T.);
#431=ADVANCED_FACE('',(#44),#28,.T.);
#432=ADVANCED_FACE('',(#45),#415,.T.);
#433=ADVANCED_FACE('',(#46),#416,.F.);
#434=ADVANCED_FACE('',(#47,#18),#29,.F.);
#435=ADVANCED_FACE('',(#48),#417,.T.);
#436=ADVANCED_FACE('',(#49,#19),#30,.T.);
#437=ADVANCED_FACE('',(#50),#31,.T.);
#438=ADVANCED_FACE('',(#51),#418,.T.);
#439=ADVANCED_FACE('',(#52),#419,.F.);
#440=ADVANCED_FACE('',(#53,#20),#32,.T.);
#441=ADVANCED_FACE('',(#54),#420,.F.);
#442=ADVANCED_FACE('',(#55,#21),#33,.T.);
#443=ADVANCED_FACE('',(#56),#421,.F.);
#444=ADVANCED_FACE('',(#57,#22),#34,.T.);
#445=ADVANCED_FACE('',(#58),#422,.F.);
#446=ADVANCED_FACE('',(#59),#423,.F.);
#447=ADVANCED_FACE('',(#60),#35,.T.);
#448=ADVANCED_FACE('',(#61,#23),#36,.T.);
#449=CLOSED_SHELL('',(#424,#425,#426,#427,#428,#429,#430,#431,#432,#433,
#434,#435,#436,#437,#438,#439,#440,#441,#442,#443,#444,#445,#446,#447,#448));
#450=DERIVED_UNIT_ELEMENT(#452,1.);
#451=DERIVED_UNIT_ELEMENT(#779,-3.);
#452=(
MASS_UNIT()
NAMED_UNIT(*)
SI_UNIT(.KILO.,.GRAM.)
);
#453=DERIVED_UNIT((#450,#451));
#454=MEASURE_REPRESENTATION_ITEM('density measure',
POSITIVE_RATIO_MEASURE(7850.),#453);
#455=PROPERTY_DEFINITION_REPRESENTATION(#460,#457);
#456=PROPERTY_DEFINITION_REPRESENTATION(#461,#458);
#457=REPRESENTATION('material name',(#459),#776);
#458=REPRESENTATION('density',(#454),#776);
#459=DESCRIPTIVE_REPRESENTATION_ITEM('Steel','Steel');
#460=PROPERTY_DEFINITION('material property','material name',#786);
#461=PROPERTY_DEFINITION('material property','density of part',#786);
#462=AXIS2_PLACEMENT_3D('',#648,#512,#513);
#463=AXIS2_PLACEMENT_3D('',#649,#514,#515);
#464=AXIS2_PLACEMENT_3D('',#652,#516,#517);
#465=AXIS2_PLACEMENT_3D('',#656,#519,#520);
#466=AXIS2_PLACEMENT_3D('',#658,#522,#523);
#467=AXIS2_PLACEMENT_3D('',#664,#527,#528);
#468=AXIS2_PLACEMENT_3D('',#668,#530,#531);
#469=AXIS2_PLACEMENT_3D('',#672,#533,#534);
#470=AXIS2_PLACEMENT_3D('',#675,#536,#537);
#471=AXIS2_PLACEMENT_3D('',#677,#538,#539);
#472=AXIS2_PLACEMENT_3D('',#679,#540,#541);
#473=AXIS2_PLACEMENT_3D('',#680,#542,#543);
#474=AXIS2_PLACEMENT_3D('',#682,#544,#545);
#475=AXIS2_PLACEMENT_3D('',#684,#547,#548);
#476=AXIS2_PLACEMENT_3D('',#696,#555,#556);
#477=AXIS2_PLACEMENT_3D('',#698,#557,#558);
#478=AXIS2_PLACEMENT_3D('',#700,#560,#561);
#479=AXIS2_PLACEMENT_3D('',#704,#563,#564);
#480=AXIS2_PLACEMENT_3D('',#709,#567,#568);
#481=AXIS2_PLACEMENT_3D('',#710,#569,#570);
#482=AXIS2_PLACEMENT_3D('',#712,#572,#573);
#483=AXIS2_PLACEMENT_3D('',#714,#575,#576);
#484=AXIS2_PLACEMENT_3D('',#716,#577,#578);
#485=AXIS2_PLACEMENT_3D('',#719,#580,#581);
#486=AXIS2_PLACEMENT_3D('',#720,#582,#583);
#487=AXIS2_PLACEMENT_3D('',#722,#584,#585);
#488=AXIS2_PLACEMENT_3D('',#723,#586,#587);
#489=AXIS2_PLACEMENT_3D('',#726,#588,#589);
#490=AXIS2_PLACEMENT_3D('',#730,#591,#592);
#491=AXIS2_PLACEMENT_3D('',#732,#594,#595);
#492=AXIS2_PLACEMENT_3D('',#735,#597,#598);
#493=AXIS2_PLACEMENT_3D('',#737,#600,#601);
#494=AXIS2_PLACEMENT_3D('',#741,#604,#605);
#495=AXIS2_PLACEMENT_3D('',#742,#606,#607);
#496=AXIS2_PLACEMENT_3D('',#743,#608,#609);
#497=AXIS2_PLACEMENT_3D('',#746,#611,#612);
#498=AXIS2_PLACEMENT_3D('',#747,#613,#614);
#499=AXIS2_PLACEMENT_3D('',#751,#617,#618);
#500=AXIS2_PLACEMENT_3D('',#753,#619,#620);
#501=AXIS2_PLACEMENT_3D('',#755,#622,#623);
#502=AXIS2_PLACEMENT_3D('',#757,#624,#625);
#503=AXIS2_PLACEMENT_3D('',#758,#626,#627);
#504=AXIS2_PLACEMENT_3D('',#760,#628,#629);
#505=AXIS2_PLACEMENT_3D('',#762,#631,#632);
#506=AXIS2_PLACEMENT_3D('',#764,#633,#634);
#507=AXIS2_PLACEMENT_3D('',#765,#635,#636);
#508=AXIS2_PLACEMENT_3D('',#767,#638,#639);
#509=AXIS2_PLACEMENT_3D('',#769,#640,#641);
#510=AXIS2_PLACEMENT_3D('',#771,#643,#644);
#511=AXIS2_PLACEMENT_3D('',#773,#646,#647);
#512=DIRECTION('axis',(0.,0.,1.));
#513=DIRECTION('refdir',(1.,0.,0.));
#514=DIRECTION('center_axis',(0.,0.,1.));
#515=DIRECTION('ref_axis',(0.707106781186547,0.707106781186548,0.));
#516=DIRECTION('center_axis',(0.,0.,-1.));
#517=DIRECTION('ref_axis',(0.707106781186547,0.707106781186548,0.));
#518=DIRECTION('',(0.,0.,-1.));
#519=DIRECTION('center_axis',(0.,0.,1.));
#520=DIRECTION('ref_axis',(0.707106781186547,0.707106781186548,0.));
#521=DIRECTION('',(0.,0.,1.));
#522=DIRECTION('center_axis',(-5.55111512312578E-16,1.,0.));
#523=DIRECTION('ref_axis',(-1.,-5.55111512312578E-16,0.));
#524=DIRECTION('',(1.,5.55111512312578E-16,0.));
#525=DIRECTION('',(0.,0.,-1.));
#526=DIRECTION('',(-1.,-5.55111512312578E-16,0.));
#527=DIRECTION('center_axis',(0.,0.,1.));
#528=DIRECTION('ref_axis',(1.,0.,0.));
#529=DIRECTION('',(0.,-1.,0.));
#530=DIRECTION('center_axis',(0.,0.,1.));
#531=DIRECTION('ref_axis',(0.707106781186547,-0.707106781186548,0.));
#532=DIRECTION('',(-1.,-2.77555756156289E-16,0.));
#533=DIRECTION('center_axis',(0.,0.,1.));
#534=DIRECTION('ref_axis',(-0.707106781186548,-0.707106781186548,0.));
#535=DIRECTION('',(-1.05735526154777E-16,1.,0.));
#536=DIRECTION('center_axis',(0.,0.,1.));
#537=DIRECTION('ref_axis',(-0.707106781186548,0.707106781186547,0.));
#538=DIRECTION('center_axis',(0.,0.,-1.));
#539=DIRECTION('ref_axis',(1.,0.,0.));
#540=DIRECTION('center_axis',(0.,0.,-1.));
#541=DIRECTION('ref_axis',(1.,0.,0.));
#542=DIRECTION('center_axis',(0.,0.,1.));
#543=DIRECTION('ref_axis',(-0.707106781186548,0.707106781186547,0.));
#544=DIRECTION('center_axis',(0.,0.,-1.));
#545=DIRECTION('ref_axis',(-0.707106781186548,0.707106781186547,0.));
#546=DIRECTION('',(0.,0.,1.));
#547=DIRECTION('center_axis',(-1.,-1.05735526154777E-16,0.));
#548=DIRECTION('ref_axis',(1.05735526154777E-16,-1.,0.));
#549=DIRECTION('',(0.,0.,-1.));
#550=DIRECTION('',(1.05735526154777E-16,-1.,0.));
#551=DIRECTION('',(0.,0.,1.));
#552=DIRECTION('',(1.05735526154777E-16,-1.,0.));
#553=DIRECTION('',(0.,0.,1.));
#554=DIRECTION('',(1.05735526154777E-16,-1.,0.));
#555=DIRECTION('center_axis',(0.,0.,1.));
#556=DIRECTION('ref_axis',(-0.707106781186548,-0.707106781186548,0.));
#557=DIRECTION('center_axis',(0.,0.,-1.));
#558=DIRECTION('ref_axis',(-0.707106781186548,-0.707106781186548,0.));
#559=DIRECTION('',(0.,0.,1.));
#560=DIRECTION('center_axis',(0.,0.,1.));
#561=DIRECTION('ref_axis',(1.,0.,0.));
#562=DIRECTION('',(1.,2.77555756156289E-16,0.));
#563=DIRECTION('center_axis',(0.,0.,-1.));
#564=DIRECTION('ref_axis',(0.707106781186547,-0.707106781186548,0.));
#565=DIRECTION('',(0.,1.,0.));
#566=DIRECTION('',(-1.,1.38777878078145E-16,0.));
#567=DIRECTION('center_axis',(0.,0.,-1.));
#568=DIRECTION('ref_axis',(1.,0.,0.));
#569=DIRECTION('center_axis',(2.77555756156289E-16,-1.,0.));
#570=DIRECTION('ref_axis',(1.,2.77555756156289E-16,0.));
#571=DIRECTION('',(0.,0.,-1.));
#572=DIRECTION('center_axis',(0.,0.,1.));
#573=DIRECTION('ref_axis',(0.707106781186547,-0.707106781186548,0.));
#574=DIRECTION('',(0.,0.,1.));
#575=DIRECTION('center_axis',(0.,1.,0.));
#576=DIRECTION('ref_axis',(1.,0.,0.));
#577=DIRECTION('center_axis',(0.,-1.,0.));
#578=DIRECTION('ref_axis',(1.,0.,0.));
#579=DIRECTION('',(0.,-1.,0.));
#580=DIRECTION('center_axis',(0.,1.,0.));
#581=DIRECTION('ref_axis',(1.,0.,0.));
#582=DIRECTION('center_axis',(0.,-1.,0.));
#583=DIRECTION('ref_axis',(1.,0.,0.));
#584=DIRECTION('center_axis',(0.,-1.,0.));
#585=DIRECTION('ref_axis',(1.,0.,0.));
#586=DIRECTION('center_axis',(0.,1.,0.));
#587=DIRECTION('ref_axis',(0.707106781186548,0.,0.707106781186548));
#588=DIRECTION('center_axis',(-4.16333634234434E-16,-1.,0.));
#589=DIRECTION('ref_axis',(0.707106781186548,0.,0.707106781186548));
#590=DIRECTION('',(0.,-1.,0.));
#591=DIRECTION('center_axis',(1.38777878078145E-16,1.,0.));
#592=DIRECTION('ref_axis',(0.707106781186548,0.,0.707106781186548));
#593=DIRECTION('',(0.,1.,0.));
#594=DIRECTION('center_axis',(-1.38777878078145E-16,-1.,0.));
#595=DIRECTION('ref_axis',(1.,-1.38777878078145E-16,0.));
#596=DIRECTION('',(1.,-1.38777878078145E-16,0.));
#597=DIRECTION('center_axis',(1.38777878078145E-16,1.,0.));
#598=DIRECTION('ref_axis',(-0.707106781186548,0.,0.707106781186548));
#599=DIRECTION('',(0.,0.,1.));
#600=DIRECTION('center_axis',(0.,0.,1.));
#601=DIRECTION('ref_axis',(1.,0.,0.));
#602=DIRECTION('',(-1.,4.16333634234434E-16,0.));
#603=DIRECTION('',(-1.05735526154777E-16,1.,0.));
#604=DIRECTION('center_axis',(1.05735526154777E-16,-1.,0.));
#605=DIRECTION('ref_axis',(-0.707106781186548,0.,0.707106781186548));
#606=DIRECTION('center_axis',(-4.16333634234434E-16,-1.,0.));
#607=DIRECTION('ref_axis',(-0.707106781186548,0.,0.707106781186548));
#608=DIRECTION('center_axis',(0.,1.,0.));
#609=DIRECTION('ref_axis',(1.,0.,0.));
#610=DIRECTION('',(0.,1.,0.));
#611=DIRECTION('center_axis',(-4.16333634234434E-16,-1.,0.));
#612=DIRECTION('ref_axis',(1.,0.,0.));
#613=DIRECTION('center_axis',(4.16333634234434E-16,1.,0.));
#614=DIRECTION('ref_axis',(-1.,4.16333634234434E-16,0.));
#615=DIRECTION('',(0.,0.,1.));
#616=DIRECTION('',(1.,-4.16333634234434E-16,0.));
#617=DIRECTION('center_axis',(0.,0.,1.));
#618=DIRECTION('ref_axis',(1.,0.,0.));
#619=DIRECTION('center_axis',(0.,0.,-1.));
#620=DIRECTION('ref_axis',(1.,0.,0.));
#621=DIRECTION('',(0.,0.,-1.));
#622=DIRECTION('center_axis',(0.,0.,1.));
#623=DIRECTION('ref_axis',(1.,0.,0.));
#624=DIRECTION('center_axis',(0.,0.,-1.));
#625=DIRECTION('ref_axis',(1.,0.,0.));
#626=DIRECTION('center_axis',(0.,0.,1.));
#627=DIRECTION('ref_axis',(1.,0.,0.));
#628=DIRECTION('center_axis',(0.,0.,-1.));
#629=DIRECTION('ref_axis',(1.,0.,0.));
#630=DIRECTION('',(0.,0.,-1.));
#631=DIRECTION('center_axis',(0.,0.,1.));
#632=DIRECTION('ref_axis',(1.,0.,0.));
#633=DIRECTION('center_axis',(0.,0.,-1.));
#634=DIRECTION('ref_axis',(1.,0.,0.));
#635=DIRECTION('center_axis',(0.,0.,1.));
#636=DIRECTION('ref_axis',(1.,0.,0.));
#637=DIRECTION('',(0.,0.,-1.));
#638=DIRECTION('center_axis',(0.,0.,1.));
#639=DIRECTION('ref_axis',(1.,0.,0.));
#640=DIRECTION('center_axis',(0.,0.,-1.));
#641=DIRECTION('ref_axis',(1.,0.,0.));
#642=DIRECTION('',(0.,0.,-1.));
#643=DIRECTION('center_axis',(1.,0.,0.));
#644=DIRECTION('ref_axis',(0.,1.,0.));
#645=DIRECTION('',(0.,1.,0.));
#646=DIRECTION('center_axis',(0.,0.,1.));
#647=DIRECTION('ref_axis',(1.,0.,0.));
#648=CARTESIAN_POINT('',(0.,0.,0.));
#649=CARTESIAN_POINT('Origin',(1.,7.5,0.));
#650=CARTESIAN_POINT('',(0.999999999999998,10.5,3.5));
#651=CARTESIAN_POINT('',(4.,7.5,3.5));
#652=CARTESIAN_POINT('Origin',(1.,7.5,3.5));
#653=CARTESIAN_POINT('',(4.,7.5,0.));
#654=CARTESIAN_POINT('',(4.,7.5,0.));
#655=CARTESIAN_POINT('',(0.999999999999998,10.5,0.));
#656=CARTESIAN_POINT('Origin',(1.,7.5,0.));
#657=CARTESIAN_POINT('',(0.999999999999998,10.5,0.));
#658=CARTESIAN_POINT('Origin',(4.,10.5,0.));
#659=CARTESIAN_POINT('',(-1.,10.5,0.));
#660=CARTESIAN_POINT('',(-4.,10.5,0.));
#661=CARTESIAN_POINT('',(-1.,10.5,3.5));
#662=CARTESIAN_POINT('',(-1.,10.5,0.));
#663=CARTESIAN_POINT('',(-4.,10.5,3.5));
#664=CARTESIAN_POINT('Origin',(-5.55111512312578E-16,0.,0.));
#665=CARTESIAN_POINT('',(4.,-7.5,0.));
#666=CARTESIAN_POINT('',(4.,10.5,0.));
#667=CARTESIAN_POINT('',(1.,-10.5,0.));
#668=CARTESIAN_POINT('Origin',(1.,-7.5,0.));
#669=CARTESIAN_POINT('',(-0.999999999999999,-10.5,0.));
#670=CARTESIAN_POINT('',(4.,-10.5,0.));
#671=CARTESIAN_POINT('',(-4.,-7.50000000000001,0.));
#672=CARTESIAN_POINT('Origin',(-0.999999999999999,-7.50000000000001,0.));
#673=CARTESIAN_POINT('',(-4.,7.5,0.));
#674=CARTESIAN_POINT('',(-4.,-10.5,0.));
#675=CARTESIAN_POINT('Origin',(-1.,7.5,0.));
#676=CARTESIAN_POINT('',(-1.4,-6.5,0.));
#677=CARTESIAN_POINT('Origin',(0.,-6.5,0.));
#678=CARTESIAN_POINT('',(-1.4,6.5,0.));
#679=CARTESIAN_POINT('Origin',(0.,6.5,0.));
#680=CARTESIAN_POINT('Origin',(-1.,7.5,0.));
#681=CARTESIAN_POINT('',(-4.,7.5,3.5));
#682=CARTESIAN_POINT('Origin',(-1.,7.5,3.5));
#683=CARTESIAN_POINT('',(-4.,7.5,0.));
#684=CARTESIAN_POINT('Origin',(-4.,10.5,0.));
#685=CARTESIAN_POINT('',(-4.,-7.50000000000001,3.5));
#686=CARTESIAN_POINT('',(-4.,-7.50000000000001,0.));
#687=CARTESIAN_POINT('',(-4.,-4.5,3.5));
#688=CARTESIAN_POINT('',(-4.,-10.5,3.5));
#689=CARTESIAN_POINT('',(-4.,-4.5,7.));
#690=CARTESIAN_POINT('',(-4.,-4.5,0.));
#691=CARTESIAN_POINT('',(-4.,4.5,7.));
#692=CARTESIAN_POINT('',(-4.,5.25,7.));
#693=CARTESIAN_POINT('',(-4.,4.5,3.5));
#694=CARTESIAN_POINT('',(-4.,4.5,0.));
#695=CARTESIAN_POINT('',(-4.,-10.5,3.5));
#696=CARTESIAN_POINT('Origin',(-0.999999999999999,-7.50000000000001,0.));
#697=CARTESIAN_POINT('',(-0.999999999999999,-10.5,3.5));
#698=CARTESIAN_POINT('Origin',(-0.999999999999999,-7.50000000000001,3.5));
#699=CARTESIAN_POINT('',(-0.999999999999999,-10.5,0.));
#700=CARTESIAN_POINT('Origin',(-5.55111512312578E-16,0.,3.5));
#701=CARTESIAN_POINT('',(1.,-10.5,3.5));
#702=CARTESIAN_POINT('',(4.,-10.5,3.5));
#703=CARTESIAN_POINT('',(4.,-7.5,3.5));
#704=CARTESIAN_POINT('Origin',(1.,-7.5,3.5));
#705=CARTESIAN_POINT('',(4.,-4.5,3.5));
#706=CARTESIAN_POINT('',(4.,10.5,3.5));
#707=CARTESIAN_POINT('',(-2.,-4.5,3.5));
#708=CARTESIAN_POINT('',(-1.75,-6.5,3.5));
#709=CARTESIAN_POINT('Origin',(0.,-6.5,3.5));
#710=CARTESIAN_POINT('Origin',(-4.,-10.5,0.));
#711=CARTESIAN_POINT('',(1.,-10.5,0.));
#712=CARTESIAN_POINT('Origin',(1.,-7.5,0.));
#713=CARTESIAN_POINT('',(4.,-7.5,0.));
#714=CARTESIAN_POINT('Origin',(-8.84158113075934E-14,-4.5,6.));
#715=CARTESIAN_POINT('',(-1.60000000000009,-3.5,6.));
#716=CARTESIAN_POINT('Origin',(-8.84158113075934E-14,-3.5,6.));
#717=CARTESIAN_POINT('',(-1.60000000000009,-4.5,6.));
#718=CARTESIAN_POINT('',(-1.60000000000009,-4.5,6.));
#719=CARTESIAN_POINT('Origin',(-8.84158113075934E-14,-4.5,6.));
#720=CARTESIAN_POINT('Origin',(-8.85402862138562E-14,-3.5,6.));
#721=CARTESIAN_POINT('',(-2.10000000000009,-3.5,6.));
#722=CARTESIAN_POINT('Origin',(-8.84158113075934E-14,-3.5,6.));
#723=CARTESIAN_POINT('Origin',(1.,-5.25,7.));
#724=CARTESIAN_POINT('',(4.,4.5,7.));
#725=CARTESIAN_POINT('',(1.,4.5,10.));
#726=CARTESIAN_POINT('Origin',(1.,4.5,7.));
#727=CARTESIAN_POINT('',(1.,-4.5,10.));
#728=CARTESIAN_POINT('',(1.,-5.25,10.));
#729=CARTESIAN_POINT('',(4.,-4.5,7.));
#730=CARTESIAN_POINT('Origin',(1.,-4.5,7.));
#731=CARTESIAN_POINT('',(4.,-5.25,7.));
#732=CARTESIAN_POINT('Origin',(-4.,-4.5,0.));
#733=CARTESIAN_POINT('',(-1.,-4.5,10.));
#734=CARTESIAN_POINT('',(4.,-4.5,10.));
#735=CARTESIAN_POINT('Origin',(-1.,-4.5,7.));
#736=CARTESIAN_POINT('',(4.,-4.5,0.));
#737=CARTESIAN_POINT('Origin',(-5.55111512312578E-16,1.11022302462516E-15,
10.));
#738=CARTESIAN_POINT('',(-1.,4.5,10.));
#739=CARTESIAN_POINT('',(-4.,4.5,10.));
#740=CARTESIAN_POINT('',(-1.,5.25,10.));
#741=CARTESIAN_POINT('Origin',(-1.,5.25,7.));
#742=CARTESIAN_POINT('Origin',(-1.,4.5,7.));
#743=CARTESIAN_POINT('Origin',(-8.84158113075934E-14,-4.5,6.));
#744=CARTESIAN_POINT('',(-2.10000000000009,4.5,6.));
#745=CARTESIAN_POINT('',(-2.10000000000009,-4.5,6.));
#746=CARTESIAN_POINT('Origin',(-8.84158113075934E-14,4.5,6.));
#747=CARTESIAN_POINT('Origin',(4.,4.5,0.));
#748=CARTESIAN_POINT('',(4.,4.5,3.5));
#749=CARTESIAN_POINT('',(4.,4.5,0.));
#750=CARTESIAN_POINT('',(2.,4.5,3.5));
#751=CARTESIAN_POINT('Origin',(0.,6.5,0.));
#752=CARTESIAN_POINT('',(-1.4,6.5,1.));
#753=CARTESIAN_POINT('Origin',(0.,6.5,1.));
#754=CARTESIAN_POINT('',(-1.4,6.5,0.));
#755=CARTESIAN_POINT('Origin',(0.,6.5,1.));
#756=CARTESIAN_POINT('',(-1.75,6.5,1.));
#757=CARTESIAN_POINT('Origin',(0.,6.5,1.));
#758=CARTESIAN_POINT('Origin',(0.,-6.5,0.));
#759=CARTESIAN_POINT('',(-1.4,-6.5,1.));
#760=CARTESIAN_POINT('Origin',(0.,-6.5,1.));
#761=CARTESIAN_POINT('',(-1.4,-6.5,0.));
#762=CARTESIAN_POINT('Origin',(0.,-6.5,1.));
#763=CARTESIAN_POINT('',(-1.75,-6.5,1.));
#764=CARTESIAN_POINT('Origin',(0.,-6.5,1.));
#765=CARTESIAN_POINT('Origin',(0.,-6.5,0.));
#766=CARTESIAN_POINT('',(-1.75,-6.5,0.));
#767=CARTESIAN_POINT('Origin',(0.,6.5,0.));
#768=CARTESIAN_POINT('',(-1.75,6.5,3.5));
#769=CARTESIAN_POINT('Origin',(0.,6.5,3.5));
#770=CARTESIAN_POINT('',(-1.75,6.5,0.));
#771=CARTESIAN_POINT('Origin',(4.,-10.5,0.));
#772=CARTESIAN_POINT('',(4.,10.5,3.5));
#773=CARTESIAN_POINT('Origin',(-5.55111512312578E-16,0.,3.5));
#774=UNCERTAINTY_MEASURE_WITH_UNIT(LENGTH_MEASURE(0.01),#778,
'DISTANCE_ACCURACY_VALUE',
'Maximum model space distance between geometric entities at asserted c
onnectivities');
#775=UNCERTAINTY_MEASURE_WITH_UNIT(LENGTH_MEASURE(0.01),#778,
'DISTANCE_ACCURACY_VALUE',
'Maximum model space distance between geometric entities at asserted c
onnectivities');
#776=(
GEOMETRIC_REPRESENTATION_CONTEXT(3)
GLOBAL_UNCERTAINTY_ASSIGNED_CONTEXT((#774))
GLOBAL_UNIT_ASSIGNED_CONTEXT((#778,#780,#781))
REPRESENTATION_CONTEXT('','3D')
);
#777=(
GEOMETRIC_REPRESENTATION_CONTEXT(3)
GLOBAL_UNCERTAINTY_ASSIGNED_CONTEXT((#775))
GLOBAL_UNIT_ASSIGNED_CONTEXT((#778,#780,#781))
REPRESENTATION_CONTEXT('','3D')
);
#778=(
LENGTH_UNIT()
NAMED_UNIT(*)
SI_UNIT(.MILLI.,.METRE.)
);
#779=(
LENGTH_UNIT()
NAMED_UNIT(*)
SI_UNIT($,.METRE.)
);
#780=(
NAMED_UNIT(*)
PLANE_ANGLE_UNIT()
SI_UNIT($,.RADIAN.)
);
#781=(
NAMED_UNIT(*)
SI_UNIT($,.STERADIAN.)
SOLID_ANGLE_UNIT()
);
#782=SHAPE_DEFINITION_REPRESENTATION(#783,#784);
#783=PRODUCT_DEFINITION_SHAPE('',$,#786);
#784=SHAPE_REPRESENTATION('',(#462),#776);
#785=PRODUCT_DEFINITION_CONTEXT('part definition',#790,'design');
#786=PRODUCT_DEFINITION('ServoTensioner','ServoTensioner v1',#787,#785);
#787=PRODUCT_DEFINITION_FORMATION('',$,#792);
#788=PRODUCT_RELATED_PRODUCT_CATEGORY('ServoTensioner v1',
'ServoTensioner v1',(#792));
#789=APPLICATION_PROTOCOL_DEFINITION('international standard',
'automotive_design',2009,#790);
#790=APPLICATION_CONTEXT(
'Core Data for Automotive Mechanical Design Process');
#791=PRODUCT_CONTEXT('part definition',#790,'mechanical');
#792=PRODUCT('ServoTensioner','ServoTensioner v1',$,(#791));
#793=PRESENTATION_STYLE_ASSIGNMENT((#795));
#794=PRESENTATION_STYLE_ASSIGNMENT((#796));
#795=SURFACE_STYLE_USAGE(.BOTH.,#797);
#796=SURFACE_STYLE_USAGE(.BOTH.,#798);
#797=SURFACE_SIDE_STYLE('',(#799));
#798=SURFACE_SIDE_STYLE('',(#800));
#799=SURFACE_STYLE_FILL_AREA(#801);
#800=SURFACE_STYLE_FILL_AREA(#802);
#801=FILL_AREA_STYLE('Steel - Satin',(#803));
#802=FILL_AREA_STYLE('Plastic - Matte (Green)',(#804));
#803=FILL_AREA_STYLE_COLOUR('Steel - Satin',#805);
#804=FILL_AREA_STYLE_COLOUR('Plastic - Matte (Green)',#806);
#805=COLOUR_RGB('Steel - Satin',0.627450980392157,0.627450980392157,0.627450980392157);
#806=COLOUR_RGB('Plastic - Matte (Green)',0.266666666666667,0.588235294117647,
0.282352941176471);
ENDSEC;
END-ISO-10303-21;
