ISO-10303-21;
HEADER;
/* Generated by software containing ST-Developer
 * from STEP Tools, Inc. (www.steptools.com) 
 */

FILE_DESCRIPTION(
/* description */ (''),
/* implementation_level */ '2;1');

FILE_NAME(
/* name */ 'SlideSupports_v3.step',
/* time_stamp */ '2026-08-21T09:18:43-04:00',
/* author */ (''),
/* organization */ (''),
/* preprocessor_version */ 'ST-DEVELOPER v20.1',
/* originating_system */ 'Autodesk Translation Framework v15.8.0.0',
/* authorisation */ '');

FILE_SCHEMA (('AUTOMOTIVE_DESIGN { 1 0 10303 214 3 1 1 }'));
ENDSEC;

DATA;
#10=MECHANICAL_DESIGN_GEOMETRIC_PRESENTATION_REPRESENTATION('',(#13),#1491);
#11=SHAPE_REPRESENTATION_RELATIONSHIP('SRR','None',#1498,#12);
#12=ADVANCED_BREP_SHAPE_REPRESENTATION('',(#14),#1490);
#13=STYLED_ITEM('',(#1508),#14);
#14=MANIFOLD_SOLID_BREP('Body1',#885);
#15=FACE_BOUND('',#119,.T.);
#16=FACE_BOUND('',#125,.T.);
#17=FACE_BOUND('',#146,.T.);
#18=FACE_BOUND('',#149,.T.);
#19=PLANE('',#902);
#20=PLANE('',#904);
#21=PLANE('',#908);
#22=PLANE('',#918);
#23=PLANE('',#922);
#24=PLANE('',#923);
#25=PLANE('',#924);
#26=PLANE('',#925);
#27=PLANE('',#926);
#28=PLANE('',#932);
#29=PLANE('',#936);
#30=PLANE('',#937);
#31=PLANE('',#938);
#32=PLANE('',#939);
#33=PLANE('',#940);
#34=PLANE('',#941);
#35=PLANE('',#942);
#36=PLANE('',#944);
#37=PLANE('',#945);
#38=PLANE('',#946);
#39=PLANE('',#947);
#40=PLANE('',#948);
#41=PLANE('',#952);
#42=PLANE('',#956);
#43=PLANE('',#957);
#44=PLANE('',#958);
#45=PLANE('',#970);
#46=PLANE('',#971);
#47=PLANE('',#973);
#48=PLANE('',#974);
#49=PLANE('',#977);
#50=PLANE('',#978);
#51=FACE_OUTER_BOUND('',#99,.T.);
#52=FACE_OUTER_BOUND('',#100,.T.);
#53=FACE_OUTER_BOUND('',#101,.T.);
#54=FACE_OUTER_BOUND('',#102,.T.);
#55=FACE_OUTER_BOUND('',#103,.T.);
#56=FACE_OUTER_BOUND('',#104,.T.);
#57=FACE_OUTER_BOUND('',#105,.T.);
#58=FACE_OUTER_BOUND('',#106,.T.);
#59=FACE_OUTER_BOUND('',#107,.T.);
#60=FACE_OUTER_BOUND('',#108,.T.);
#61=FACE_OUTER_BOUND('',#109,.T.);
#62=FACE_OUTER_BOUND('',#110,.T.);
#63=FACE_OUTER_BOUND('',#111,.T.);
#64=FACE_OUTER_BOUND('',#112,.T.);
#65=FACE_OUTER_BOUND('',#113,.T.);
#66=FACE_OUTER_BOUND('',#114,.T.);
#67=FACE_OUTER_BOUND('',#115,.T.);
#68=FACE_OUTER_BOUND('',#116,.T.);
#69=FACE_OUTER_BOUND('',#117,.T.);
#70=FACE_OUTER_BOUND('',#118,.T.);
#71=FACE_OUTER_BOUND('',#120,.T.);
#72=FACE_OUTER_BOUND('',#121,.T.);
#73=FACE_OUTER_BOUND('',#122,.T.);
#74=FACE_OUTER_BOUND('',#123,.T.);
#75=FACE_OUTER_BOUND('',#124,.T.);
#76=FACE_OUTER_BOUND('',#126,.T.);
#77=FACE_OUTER_BOUND('',#127,.T.);
#78=FACE_OUTER_BOUND('',#128,.T.);
#79=FACE_OUTER_BOUND('',#129,.T.);
#80=FACE_OUTER_BOUND('',#130,.T.);
#81=FACE_OUTER_BOUND('',#131,.T.);
#82=FACE_OUTER_BOUND('',#132,.T.);
#83=FACE_OUTER_BOUND('',#133,.T.);
#84=FACE_OUTER_BOUND('',#134,.T.);
#85=FACE_OUTER_BOUND('',#135,.T.);
#86=FACE_OUTER_BOUND('',#136,.T.);
#87=FACE_OUTER_BOUND('',#137,.T.);
#88=FACE_OUTER_BOUND('',#138,.T.);
#89=FACE_OUTER_BOUND('',#139,.T.);
#90=FACE_OUTER_BOUND('',#140,.T.);
#91=FACE_OUTER_BOUND('',#141,.T.);
#92=FACE_OUTER_BOUND('',#142,.T.);
#93=FACE_OUTER_BOUND('',#143,.T.);
#94=FACE_OUTER_BOUND('',#144,.T.);
#95=FACE_OUTER_BOUND('',#145,.T.);
#96=FACE_OUTER_BOUND('',#147,.T.);
#97=FACE_OUTER_BOUND('',#148,.T.);
#98=FACE_OUTER_BOUND('',#150,.T.);
#99=EDGE_LOOP('',(#573,#574,#575,#576));
#100=EDGE_LOOP('',(#577));
#101=EDGE_LOOP('',(#578));
#102=EDGE_LOOP('',(#579,#580,#581,#582));
#103=EDGE_LOOP('',(#583,#584,#585,#586));
#104=EDGE_LOOP('',(#587,#588,#589,#590));
#105=EDGE_LOOP('',(#591,#592,#593,#594));
#106=EDGE_LOOP('',(#595,#596,#597,#598));
#107=EDGE_LOOP('',(#599,#600,#601,#602));
#108=EDGE_LOOP('',(#603,#604,#605,#606));
#109=EDGE_LOOP('',(#607,#608,#609,#610));
#110=EDGE_LOOP('',(#611,#612,#613,#614));
#111=EDGE_LOOP('',(#615,#616,#617,#618));
#112=EDGE_LOOP('',(#619,#620,#621,#622));
#113=EDGE_LOOP('',(#623,#624,#625,#626));
#114=EDGE_LOOP('',(#627,#628,#629,#630));
#115=EDGE_LOOP('',(#631,#632,#633,#634));
#116=EDGE_LOOP('',(#635,#636,#637,#638));
#117=EDGE_LOOP('',(#639,#640,#641,#642));
#118=EDGE_LOOP('',(#643,#644,#645,#646,#647,#648,#649,#650,#651,#652,#653,
#654,#655,#656,#657,#658));
#119=EDGE_LOOP('',(#659));
#120=EDGE_LOOP('',(#660,#661,#662,#663));
#121=EDGE_LOOP('',(#664,#665,#666,#667));
#122=EDGE_LOOP('',(#668,#669,#670,#671));
#123=EDGE_LOOP('',(#672,#673,#674,#675));
#124=EDGE_LOOP('',(#676,#677,#678,#679,#680,#681,#682,#683,#684,#685,#686,
#687,#688,#689,#690,#691));
#125=EDGE_LOOP('',(#692));
#126=EDGE_LOOP('',(#693));
#127=EDGE_LOOP('',(#694,#695,#696,#697));
#128=EDGE_LOOP('',(#698,#699,#700,#701));
#129=EDGE_LOOP('',(#702,#703,#704,#705));
#130=EDGE_LOOP('',(#706,#707,#708,#709));
#131=EDGE_LOOP('',(#710,#711,#712,#713));
#132=EDGE_LOOP('',(#714,#715,#716,#717));
#133=EDGE_LOOP('',(#718,#719,#720,#721));
#134=EDGE_LOOP('',(#722,#723,#724,#725));
#135=EDGE_LOOP('',(#726,#727,#728,#729,#730,#731,#732,#733,#734,#735));
#136=EDGE_LOOP('',(#736,#737,#738,#739));
#137=EDGE_LOOP('',(#740,#741,#742,#743,#744,#745,#746,#747,#748,#749,#750,
#751));
#138=EDGE_LOOP('',(#752,#753,#754,#755));
#139=EDGE_LOOP('',(#756,#757,#758,#759));
#140=EDGE_LOOP('',(#760,#761,#762,#763));
#141=EDGE_LOOP('',(#764,#765,#766,#767));
#142=EDGE_LOOP('',(#768,#769,#770,#771));
#143=EDGE_LOOP('',(#772,#773,#774,#775,#776,#777,#778,#779,#780,#781,#782,
#783,#784,#785,#786,#787,#788));
#144=EDGE_LOOP('',(#789,#790,#791,#792));
#145=EDGE_LOOP('',(#793,#794,#795,#796,#797,#798,#799,#800,#801,#802,#803,
#804,#805,#806,#807,#808,#809));
#146=EDGE_LOOP('',(#810));
#147=EDGE_LOOP('',(#811,#812,#813,#814));
#148=EDGE_LOOP('',(#815,#816,#817,#818));
#149=EDGE_LOOP('',(#819));
#150=EDGE_LOOP('',(#820));
#151=LINE('',#1238,#243);
#152=LINE('',#1249,#244);
#153=LINE('',#1253,#245);
#154=LINE('',#1255,#246);
#155=LINE('',#1257,#247);
#156=LINE('',#1258,#248);
#157=LINE('',#1263,#249);
#158=LINE('',#1268,#250);
#159=LINE('',#1275,#251);
#160=LINE('',#1279,#252);
#161=LINE('',#1281,#253);
#162=LINE('',#1282,#254);
#163=LINE('',#1288,#255);
#164=LINE('',#1292,#256);
#165=LINE('',#1294,#257);
#166=LINE('',#1296,#258);
#167=LINE('',#1297,#259);
#168=LINE('',#1300,#260);
#169=LINE('',#1302,#261);
#170=LINE('',#1303,#262);
#171=LINE('',#1306,#263);
#172=LINE('',#1308,#264);
#173=LINE('',#1309,#265);
#174=LINE('',#1312,#266);
#175=LINE('',#1314,#267);
#176=LINE('',#1315,#268);
#177=LINE('',#1319,#269);
#178=LINE('',#1320,#270);
#179=LINE('',#1321,#271);
#180=LINE('',#1328,#272);
#181=LINE('',#1331,#273);
#182=LINE('',#1333,#274);
#183=LINE('',#1334,#275);
#184=LINE('',#1339,#276);
#185=LINE('',#1343,#277);
#186=LINE('',#1344,#278);
#187=LINE('',#1347,#279);
#188=LINE('',#1349,#280);
#189=LINE('',#1350,#281);
#190=LINE('',#1353,#282);
#191=LINE('',#1355,#283);
#192=LINE('',#1356,#284);
#193=LINE('',#1360,#285);
#194=LINE('',#1362,#286);
#195=LINE('',#1364,#287);
#196=LINE('',#1365,#288);
#197=LINE('',#1368,#289);
#198=LINE('',#1369,#290);
#199=LINE('',#1370,#291);
#200=LINE('',#1372,#292);
#201=LINE('',#1379,#293);
#202=LINE('',#1380,#294);
#203=LINE('',#1381,#295);
#204=LINE('',#1385,#296);
#205=LINE('',#1387,#297);
#206=LINE('',#1389,#298);
#207=LINE('',#1390,#299);
#208=LINE('',#1393,#300);
#209=LINE('',#1395,#301);
#210=LINE('',#1396,#302);
#211=LINE('',#1399,#303);
#212=LINE('',#1401,#304);
#213=LINE('',#1402,#305);
#214=LINE('',#1406,#306);
#215=LINE('',#1407,#307);
#216=LINE('',#1408,#308);
#217=LINE('',#1414,#309);
#218=LINE('',#1417,#310);
#219=LINE('',#1419,#311);
#220=LINE('',#1420,#312);
#221=LINE('',#1425,#313);
#222=LINE('',#1429,#314);
#223=LINE('',#1430,#315);
#224=LINE('',#1431,#316);
#225=LINE('',#1434,#317);
#226=LINE('',#1435,#318);
#227=LINE('',#1438,#319);
#228=LINE('',#1440,#320);
#229=LINE('',#1441,#321);
#230=LINE('',#1446,#322);
#231=LINE('',#1451,#323);
#232=LINE('',#1458,#324);
#233=LINE('',#1463,#325);
#234=LINE('',#1467,#326);
#235=LINE('',#1468,#327);
#236=LINE('',#1469,#328);
#237=LINE('',#1474,#329);
#238=LINE('',#1475,#330);
#239=LINE('',#1478,#331);
#240=LINE('',#1479,#332);
#241=LINE('',#1483,#333);
#242=LINE('',#1485,#334);
#243=VECTOR('',#985,1.75);
#244=VECTOR('',#1000,1.75);
#245=VECTOR('',#1003,10.);
#246=VECTOR('',#1004,10.);
#247=VECTOR('',#1005,10.);
#248=VECTOR('',#1006,10.);
#249=VECTOR('',#1011,10.);
#250=VECTOR('',#1016,10.);
#251=VECTOR('',#1025,10.);
#252=VECTOR('',#1030,10.);
#253=VECTOR('',#1031,10.);
#254=VECTOR('',#1032,10.);
#255=VECTOR('',#1039,10.);
#256=VECTOR('',#1042,10.);
#257=VECTOR('',#1043,10.);
#258=VECTOR('',#1044,10.);
#259=VECTOR('',#1045,10.);
#260=VECTOR('',#1048,10.);
#261=VECTOR('',#1049,10.);
#262=VECTOR('',#1050,10.);
#263=VECTOR('',#1053,10.);
#264=VECTOR('',#1054,10.);
#265=VECTOR('',#1055,10.);
#266=VECTOR('',#1058,10.);
#267=VECTOR('',#1059,10.);
#268=VECTOR('',#1060,10.);
#269=VECTOR('',#1063,10.);
#270=VECTOR('',#1064,10.);
#271=VECTOR('',#1065,10.);
#272=VECTOR('',#1076,1.75);
#273=VECTOR('',#1079,10.);
#274=VECTOR('',#1080,10.);
#275=VECTOR('',#1081,10.);
#276=VECTOR('',#1086,3.);
#277=VECTOR('',#1091,10.);
#278=VECTOR('',#1092,10.);
#279=VECTOR('',#1095,10.);
#280=VECTOR('',#1096,10.);
#281=VECTOR('',#1097,10.);
#282=VECTOR('',#1100,10.);
#283=VECTOR('',#1101,10.);
#284=VECTOR('',#1102,10.);
#285=VECTOR('',#1105,10.);
#286=VECTOR('',#1106,10.);
#287=VECTOR('',#1107,10.);
#288=VECTOR('',#1108,10.);
#289=VECTOR('',#1111,10.);
#290=VECTOR('',#1112,10.);
#291=VECTOR('',#1113,10.);
#292=VECTOR('',#1116,10.);
#293=VECTOR('',#1123,10.);
#294=VECTOR('',#1124,10.);
#295=VECTOR('',#1125,10.);
#296=VECTOR('',#1128,10.);
#297=VECTOR('',#1129,10.);
#298=VECTOR('',#1130,10.);
#299=VECTOR('',#1131,10.);
#300=VECTOR('',#1134,10.);
#301=VECTOR('',#1135,10.);
#302=VECTOR('',#1136,10.);
#303=VECTOR('',#1139,10.);
#304=VECTOR('',#1140,10.);
#305=VECTOR('',#1141,10.);
#306=VECTOR('',#1144,10.);
#307=VECTOR('',#1145,10.);
#308=VECTOR('',#1146,10.);
#309=VECTOR('',#1153,10.);
#310=VECTOR('',#1156,10.);
#311=VECTOR('',#1157,10.);
#312=VECTOR('',#1158,10.);
#313=VECTOR('',#1163,10.);
#314=VECTOR('',#1168,10.);
#315=VECTOR('',#1169,10.);
#316=VECTOR('',#1170,10.);
#317=VECTOR('',#1173,10.);
#318=VECTOR('',#1174,10.);
#319=VECTOR('',#1177,10.);
#320=VECTOR('',#1178,10.);
#321=VECTOR('',#1179,10.);
#322=VECTOR('',#1184,10.);
#323=VECTOR('',#1189,10.);
#324=VECTOR('',#1198,10.);
#325=VECTOR('',#1205,1.75);
#326=VECTOR('',#1208,10.);
#327=VECTOR('',#1209,10.);
#328=VECTOR('',#1210,10.);
#329=VECTOR('',#1215,10.);
#330=VECTOR('',#1216,10.);
#331=VECTOR('',#1219,10.);
#332=VECTOR('',#1220,10.);
#333=VECTOR('',#1225,10.);
#334=VECTOR('',#1228,10.);
#335=CIRCLE('',#900,1.75);
#336=CIRCLE('',#901,1.75);
#337=CIRCLE('',#903,1.75);
#338=CIRCLE('',#905,1.75);
#339=CIRCLE('',#907,1.75);
#340=CIRCLE('',#910,3.);
#341=CIRCLE('',#911,3.);
#342=CIRCLE('',#913,4.75);
#343=CIRCLE('',#914,4.75);
#344=CIRCLE('',#916,2.5);
#345=CIRCLE('',#917,2.5);
#346=CIRCLE('',#920,3.);
#347=CIRCLE('',#921,3.);
#348=CIRCLE('',#928,1.5);
#349=CIRCLE('',#929,1.5);
#350=CIRCLE('',#931,1.75);
#351=CIRCLE('',#934,3.);
#352=CIRCLE('',#935,3.);
#353=CIRCLE('',#943,1.75);
#354=CIRCLE('',#950,1.5);
#355=CIRCLE('',#951,1.5);
#356=CIRCLE('',#954,2.5);
#357=CIRCLE('',#955,2.5);
#358=CIRCLE('',#960,2.);
#359=CIRCLE('',#961,2.);
#360=CIRCLE('',#963,4.75);
#361=CIRCLE('',#964,4.75);
#362=CIRCLE('',#966,2.);
#363=CIRCLE('',#967,2.);
#364=CIRCLE('',#969,1.75);
#365=CIRCLE('',#972,1.5);
#366=CIRCLE('',#975,1.5);
#367=VERTEX_POINT('',#1235);
#368=VERTEX_POINT('',#1237);
#369=VERTEX_POINT('',#1241);
#370=VERTEX_POINT('',#1244);
#371=VERTEX_POINT('',#1247);
#372=VERTEX_POINT('',#1251);
#373=VERTEX_POINT('',#1252);
#374=VERTEX_POINT('',#1254);
#375=VERTEX_POINT('',#1256);
#376=VERTEX_POINT('',#1260);
#377=VERTEX_POINT('',#1262);
#378=VERTEX_POINT('',#1266);
#379=VERTEX_POINT('',#1267);
#380=VERTEX_POINT('',#1272);
#381=VERTEX_POINT('',#1274);
#382=VERTEX_POINT('',#1278);
#383=VERTEX_POINT('',#1280);
#384=VERTEX_POINT('',#1284);
#385=VERTEX_POINT('',#1286);
#386=VERTEX_POINT('',#1290);
#387=VERTEX_POINT('',#1291);
#388=VERTEX_POINT('',#1293);
#389=VERTEX_POINT('',#1295);
#390=VERTEX_POINT('',#1299);
#391=VERTEX_POINT('',#1301);
#392=VERTEX_POINT('',#1305);
#393=VERTEX_POINT('',#1307);
#394=VERTEX_POINT('',#1311);
#395=VERTEX_POINT('',#1313);
#396=VERTEX_POINT('',#1317);
#397=VERTEX_POINT('',#1318);
#398=VERTEX_POINT('',#1326);
#399=VERTEX_POINT('',#1330);
#400=VERTEX_POINT('',#1332);
#401=VERTEX_POINT('',#1336);
#402=VERTEX_POINT('',#1338);
#403=VERTEX_POINT('',#1342);
#404=VERTEX_POINT('',#1346);
#405=VERTEX_POINT('',#1348);
#406=VERTEX_POINT('',#1352);
#407=VERTEX_POINT('',#1354);
#408=VERTEX_POINT('',#1358);
#409=VERTEX_POINT('',#1359);
#410=VERTEX_POINT('',#1361);
#411=VERTEX_POINT('',#1363);
#412=VERTEX_POINT('',#1367);
#413=VERTEX_POINT('',#1374);
#414=VERTEX_POINT('',#1377);
#415=VERTEX_POINT('',#1378);
#416=VERTEX_POINT('',#1383);
#417=VERTEX_POINT('',#1384);
#418=VERTEX_POINT('',#1386);
#419=VERTEX_POINT('',#1388);
#420=VERTEX_POINT('',#1392);
#421=VERTEX_POINT('',#1394);
#422=VERTEX_POINT('',#1398);
#423=VERTEX_POINT('',#1400);
#424=VERTEX_POINT('',#1404);
#425=VERTEX_POINT('',#1405);
#426=VERTEX_POINT('',#1410);
#427=VERTEX_POINT('',#1412);
#428=VERTEX_POINT('',#1416);
#429=VERTEX_POINT('',#1418);
#430=VERTEX_POINT('',#1422);
#431=VERTEX_POINT('',#1424);
#432=VERTEX_POINT('',#1428);
#433=VERTEX_POINT('',#1433);
#434=VERTEX_POINT('',#1437);
#435=VERTEX_POINT('',#1439);
#436=VERTEX_POINT('',#1443);
#437=VERTEX_POINT('',#1445);
#438=VERTEX_POINT('',#1449);
#439=VERTEX_POINT('',#1450);
#440=VERTEX_POINT('',#1455);
#441=VERTEX_POINT('',#1457);
#442=VERTEX_POINT('',#1461);
#443=VERTEX_POINT('',#1465);
#444=VERTEX_POINT('',#1466);
#445=VERTEX_POINT('',#1471);
#446=VERTEX_POINT('',#1473);
#447=VERTEX_POINT('',#1477);
#448=VERTEX_POINT('',#1481);
#449=EDGE_CURVE('',#367,#367,#335,.T.);
#450=EDGE_CURVE('',#367,#368,#151,.T.);
#451=EDGE_CURVE('',#368,#368,#336,.T.);
#452=EDGE_CURVE('',#369,#369,#337,.T.);
#453=EDGE_CURVE('',#370,#370,#338,.T.);
#454=EDGE_CURVE('',#371,#371,#339,.T.);
#455=EDGE_CURVE('',#371,#369,#152,.T.);
#456=EDGE_CURVE('',#372,#373,#153,.T.);
#457=EDGE_CURVE('',#372,#374,#154,.T.);
#458=EDGE_CURVE('',#375,#374,#155,.T.);
#459=EDGE_CURVE('',#373,#375,#156,.T.);
#460=EDGE_CURVE('',#374,#376,#340,.T.);
#461=EDGE_CURVE('',#376,#377,#157,.T.);
#462=EDGE_CURVE('',#377,#375,#341,.T.);
#463=EDGE_CURVE('',#378,#379,#158,.T.);
#464=EDGE_CURVE('',#377,#378,#342,.T.);
#465=EDGE_CURVE('',#376,#379,#343,.T.);
#466=EDGE_CURVE('',#379,#380,#344,.T.);
#467=EDGE_CURVE('',#380,#381,#159,.T.);
#468=EDGE_CURVE('',#381,#378,#345,.T.);
#469=EDGE_CURVE('',#380,#382,#160,.T.);
#470=EDGE_CURVE('',#383,#382,#161,.T.);
#471=EDGE_CURVE('',#381,#383,#162,.T.);
#472=EDGE_CURVE('',#384,#383,#346,.T.);
#473=EDGE_CURVE('',#382,#385,#347,.T.);
#474=EDGE_CURVE('',#385,#384,#163,.T.);
#475=EDGE_CURVE('',#386,#387,#164,.T.);
#476=EDGE_CURVE('',#386,#388,#165,.F.);
#477=EDGE_CURVE('',#389,#388,#166,.T.);
#478=EDGE_CURVE('',#387,#389,#167,.T.);
#479=EDGE_CURVE('',#390,#386,#168,.T.);
#480=EDGE_CURVE('',#390,#391,#169,.T.);
#481=EDGE_CURVE('',#388,#391,#170,.F.);
#482=EDGE_CURVE('',#390,#392,#171,.F.);
#483=EDGE_CURVE('',#392,#393,#172,.T.);
#484=EDGE_CURVE('',#391,#393,#173,.F.);
#485=EDGE_CURVE('',#392,#394,#174,.F.);
#486=EDGE_CURVE('',#394,#395,#175,.T.);
#487=EDGE_CURVE('',#393,#395,#176,.F.);
#488=EDGE_CURVE('',#396,#397,#177,.T.);
#489=EDGE_CURVE('',#395,#396,#178,.T.);
#490=EDGE_CURVE('',#394,#397,#179,.T.);
#491=EDGE_CURVE('',#373,#396,#348,.T.);
#492=EDGE_CURVE('',#397,#372,#349,.T.);
#493=EDGE_CURVE('',#398,#398,#350,.T.);
#494=EDGE_CURVE('',#398,#370,#180,.T.);
#495=EDGE_CURVE('',#387,#399,#181,.T.);
#496=EDGE_CURVE('',#400,#389,#182,.T.);
#497=EDGE_CURVE('',#399,#400,#183,.T.);
#498=EDGE_CURVE('',#401,#385,#351,.F.);
#499=EDGE_CURVE('',#401,#402,#184,.T.);
#500=EDGE_CURVE('',#402,#384,#352,.T.);
#501=EDGE_CURVE('',#403,#402,#185,.T.);
#502=EDGE_CURVE('',#403,#400,#186,.T.);
#503=EDGE_CURVE('',#403,#404,#187,.T.);
#504=EDGE_CURVE('',#405,#404,#188,.T.);
#505=EDGE_CURVE('',#400,#405,#189,.T.);
#506=EDGE_CURVE('',#404,#406,#190,.T.);
#507=EDGE_CURVE('',#406,#407,#191,.T.);
#508=EDGE_CURVE('',#407,#405,#192,.T.);
#509=EDGE_CURVE('',#408,#409,#193,.T.);
#510=EDGE_CURVE('',#409,#410,#194,.T.);
#511=EDGE_CURVE('',#410,#411,#195,.T.);
#512=EDGE_CURVE('',#411,#408,#196,.T.);
#513=EDGE_CURVE('',#399,#412,#197,.T.);
#514=EDGE_CURVE('',#399,#409,#198,.T.);
#515=EDGE_CURVE('',#412,#408,#199,.T.);
#516=EDGE_CURVE('',#401,#412,#200,.T.);
#517=EDGE_CURVE('',#413,#413,#353,.T.);
#518=EDGE_CURVE('',#414,#415,#201,.T.);
#519=EDGE_CURVE('',#414,#407,#202,.T.);
#520=EDGE_CURVE('',#415,#406,#203,.T.);
#521=EDGE_CURVE('',#416,#417,#204,.T.);
#522=EDGE_CURVE('',#416,#418,#205,.T.);
#523=EDGE_CURVE('',#419,#418,#206,.F.);
#524=EDGE_CURVE('',#417,#419,#207,.T.);
#525=EDGE_CURVE('',#416,#420,#208,.F.);
#526=EDGE_CURVE('',#420,#421,#209,.T.);
#527=EDGE_CURVE('',#418,#421,#210,.F.);
#528=EDGE_CURVE('',#420,#422,#211,.T.);
#529=EDGE_CURVE('',#422,#423,#212,.T.);
#530=EDGE_CURVE('',#421,#423,#213,.T.);
#531=EDGE_CURVE('',#424,#425,#214,.T.);
#532=EDGE_CURVE('',#423,#424,#215,.T.);
#533=EDGE_CURVE('',#422,#425,#216,.T.);
#534=EDGE_CURVE('',#426,#424,#354,.T.);
#535=EDGE_CURVE('',#425,#427,#355,.T.);
#536=EDGE_CURVE('',#427,#426,#217,.T.);
#537=EDGE_CURVE('',#428,#427,#218,.T.);
#538=EDGE_CURVE('',#429,#428,#219,.T.);
#539=EDGE_CURVE('',#426,#429,#220,.T.);
#540=EDGE_CURVE('',#428,#430,#356,.T.);
#541=EDGE_CURVE('',#430,#431,#221,.T.);
#542=EDGE_CURVE('',#431,#429,#357,.T.);
#543=EDGE_CURVE('',#432,#430,#222,.T.);
#544=EDGE_CURVE('',#432,#410,#223,.T.);
#545=EDGE_CURVE('',#431,#414,#224,.T.);
#546=EDGE_CURVE('',#433,#432,#225,.T.);
#547=EDGE_CURVE('',#433,#411,#226,.T.);
#548=EDGE_CURVE('',#433,#434,#227,.T.);
#549=EDGE_CURVE('',#435,#434,#228,.T.);
#550=EDGE_CURVE('',#415,#435,#229,.T.);
#551=EDGE_CURVE('',#434,#436,#358,.T.);
#552=EDGE_CURVE('',#436,#437,#230,.T.);
#553=EDGE_CURVE('',#437,#435,#359,.T.);
#554=EDGE_CURVE('',#438,#439,#231,.T.);
#555=EDGE_CURVE('',#437,#438,#360,.T.);
#556=EDGE_CURVE('',#436,#439,#361,.T.);
#557=EDGE_CURVE('',#439,#440,#362,.T.);
#558=EDGE_CURVE('',#440,#441,#232,.T.);
#559=EDGE_CURVE('',#441,#438,#363,.T.);
#560=EDGE_CURVE('',#442,#442,#364,.T.);
#561=EDGE_CURVE('',#442,#413,#233,.T.);
#562=EDGE_CURVE('',#443,#444,#234,.T.);
#563=EDGE_CURVE('',#441,#443,#235,.T.);
#564=EDGE_CURVE('',#440,#444,#236,.T.);
#565=EDGE_CURVE('',#445,#443,#365,.T.);
#566=EDGE_CURVE('',#445,#446,#237,.T.);
#567=EDGE_CURVE('',#446,#419,#238,.F.);
#568=EDGE_CURVE('',#417,#447,#239,.T.);
#569=EDGE_CURVE('',#447,#446,#240,.F.);
#570=EDGE_CURVE('',#444,#448,#366,.T.);
#571=EDGE_CURVE('',#448,#447,#241,.T.);
#572=EDGE_CURVE('',#448,#445,#242,.T.);
#573=ORIENTED_EDGE('',*,*,#449,.F.);
#574=ORIENTED_EDGE('',*,*,#450,.T.);
#575=ORIENTED_EDGE('',*,*,#451,.T.);
#576=ORIENTED_EDGE('',*,*,#450,.F.);
#577=ORIENTED_EDGE('',*,*,#452,.F.);
#578=ORIENTED_EDGE('',*,*,#453,.F.);
#579=ORIENTED_EDGE('',*,*,#454,.F.);
#580=ORIENTED_EDGE('',*,*,#455,.T.);
#581=ORIENTED_EDGE('',*,*,#452,.T.);
#582=ORIENTED_EDGE('',*,*,#455,.F.);
#583=ORIENTED_EDGE('',*,*,#456,.F.);
#584=ORIENTED_EDGE('',*,*,#457,.T.);
#585=ORIENTED_EDGE('',*,*,#458,.F.);
#586=ORIENTED_EDGE('',*,*,#459,.F.);
#587=ORIENTED_EDGE('',*,*,#460,.T.);
#588=ORIENTED_EDGE('',*,*,#461,.T.);
#589=ORIENTED_EDGE('',*,*,#462,.T.);
#590=ORIENTED_EDGE('',*,*,#458,.T.);
#591=ORIENTED_EDGE('',*,*,#463,.F.);
#592=ORIENTED_EDGE('',*,*,#464,.F.);
#593=ORIENTED_EDGE('',*,*,#461,.F.);
#594=ORIENTED_EDGE('',*,*,#465,.T.);
#595=ORIENTED_EDGE('',*,*,#466,.T.);
#596=ORIENTED_EDGE('',*,*,#467,.T.);
#597=ORIENTED_EDGE('',*,*,#468,.T.);
#598=ORIENTED_EDGE('',*,*,#463,.T.);
#599=ORIENTED_EDGE('',*,*,#467,.F.);
#600=ORIENTED_EDGE('',*,*,#469,.T.);
#601=ORIENTED_EDGE('',*,*,#470,.F.);
#602=ORIENTED_EDGE('',*,*,#471,.F.);
#603=ORIENTED_EDGE('',*,*,#472,.T.);
#604=ORIENTED_EDGE('',*,*,#470,.T.);
#605=ORIENTED_EDGE('',*,*,#473,.T.);
#606=ORIENTED_EDGE('',*,*,#474,.T.);
#607=ORIENTED_EDGE('',*,*,#475,.F.);
#608=ORIENTED_EDGE('',*,*,#476,.T.);
#609=ORIENTED_EDGE('',*,*,#477,.F.);
#610=ORIENTED_EDGE('',*,*,#478,.F.);
#611=ORIENTED_EDGE('',*,*,#479,.F.);
#612=ORIENTED_EDGE('',*,*,#480,.T.);
#613=ORIENTED_EDGE('',*,*,#481,.F.);
#614=ORIENTED_EDGE('',*,*,#476,.F.);
#615=ORIENTED_EDGE('',*,*,#482,.T.);
#616=ORIENTED_EDGE('',*,*,#483,.T.);
#617=ORIENTED_EDGE('',*,*,#484,.F.);
#618=ORIENTED_EDGE('',*,*,#480,.F.);
#619=ORIENTED_EDGE('',*,*,#485,.T.);
#620=ORIENTED_EDGE('',*,*,#486,.T.);
#621=ORIENTED_EDGE('',*,*,#487,.F.);
#622=ORIENTED_EDGE('',*,*,#483,.F.);
#623=ORIENTED_EDGE('',*,*,#488,.F.);
#624=ORIENTED_EDGE('',*,*,#489,.F.);
#625=ORIENTED_EDGE('',*,*,#486,.F.);
#626=ORIENTED_EDGE('',*,*,#490,.T.);
#627=ORIENTED_EDGE('',*,*,#491,.T.);
#628=ORIENTED_EDGE('',*,*,#488,.T.);
#629=ORIENTED_EDGE('',*,*,#492,.T.);
#630=ORIENTED_EDGE('',*,*,#456,.T.);
#631=ORIENTED_EDGE('',*,*,#493,.F.);
#632=ORIENTED_EDGE('',*,*,#494,.T.);
#633=ORIENTED_EDGE('',*,*,#453,.T.);
#634=ORIENTED_EDGE('',*,*,#494,.F.);
#635=ORIENTED_EDGE('',*,*,#495,.F.);
#636=ORIENTED_EDGE('',*,*,#478,.T.);
#637=ORIENTED_EDGE('',*,*,#496,.F.);
#638=ORIENTED_EDGE('',*,*,#497,.F.);
#639=ORIENTED_EDGE('',*,*,#474,.F.);
#640=ORIENTED_EDGE('',*,*,#498,.F.);
#641=ORIENTED_EDGE('',*,*,#499,.T.);
#642=ORIENTED_EDGE('',*,*,#500,.T.);
#643=ORIENTED_EDGE('',*,*,#491,.F.);
#644=ORIENTED_EDGE('',*,*,#459,.T.);
#645=ORIENTED_EDGE('',*,*,#462,.F.);
#646=ORIENTED_EDGE('',*,*,#464,.T.);
#647=ORIENTED_EDGE('',*,*,#468,.F.);
#648=ORIENTED_EDGE('',*,*,#471,.T.);
#649=ORIENTED_EDGE('',*,*,#472,.F.);
#650=ORIENTED_EDGE('',*,*,#500,.F.);
#651=ORIENTED_EDGE('',*,*,#501,.F.);
#652=ORIENTED_EDGE('',*,*,#502,.T.);
#653=ORIENTED_EDGE('',*,*,#496,.T.);
#654=ORIENTED_EDGE('',*,*,#477,.T.);
#655=ORIENTED_EDGE('',*,*,#481,.T.);
#656=ORIENTED_EDGE('',*,*,#484,.T.);
#657=ORIENTED_EDGE('',*,*,#487,.T.);
#658=ORIENTED_EDGE('',*,*,#489,.T.);
#659=ORIENTED_EDGE('',*,*,#454,.T.);
#660=ORIENTED_EDGE('',*,*,#502,.F.);
#661=ORIENTED_EDGE('',*,*,#503,.T.);
#662=ORIENTED_EDGE('',*,*,#504,.F.);
#663=ORIENTED_EDGE('',*,*,#505,.F.);
#664=ORIENTED_EDGE('',*,*,#504,.T.);
#665=ORIENTED_EDGE('',*,*,#506,.T.);
#666=ORIENTED_EDGE('',*,*,#507,.T.);
#667=ORIENTED_EDGE('',*,*,#508,.T.);
#668=ORIENTED_EDGE('',*,*,#509,.T.);
#669=ORIENTED_EDGE('',*,*,#510,.T.);
#670=ORIENTED_EDGE('',*,*,#511,.T.);
#671=ORIENTED_EDGE('',*,*,#512,.T.);
#672=ORIENTED_EDGE('',*,*,#513,.F.);
#673=ORIENTED_EDGE('',*,*,#514,.T.);
#674=ORIENTED_EDGE('',*,*,#509,.F.);
#675=ORIENTED_EDGE('',*,*,#515,.F.);
#676=ORIENTED_EDGE('',*,*,#492,.F.);
#677=ORIENTED_EDGE('',*,*,#490,.F.);
#678=ORIENTED_EDGE('',*,*,#485,.F.);
#679=ORIENTED_EDGE('',*,*,#482,.F.);
#680=ORIENTED_EDGE('',*,*,#479,.T.);
#681=ORIENTED_EDGE('',*,*,#475,.T.);
#682=ORIENTED_EDGE('',*,*,#495,.T.);
#683=ORIENTED_EDGE('',*,*,#513,.T.);
#684=ORIENTED_EDGE('',*,*,#516,.F.);
#685=ORIENTED_EDGE('',*,*,#498,.T.);
#686=ORIENTED_EDGE('',*,*,#473,.F.);
#687=ORIENTED_EDGE('',*,*,#469,.F.);
#688=ORIENTED_EDGE('',*,*,#466,.F.);
#689=ORIENTED_EDGE('',*,*,#465,.F.);
#690=ORIENTED_EDGE('',*,*,#460,.F.);
#691=ORIENTED_EDGE('',*,*,#457,.F.);
#692=ORIENTED_EDGE('',*,*,#493,.T.);
#693=ORIENTED_EDGE('',*,*,#517,.F.);
#694=ORIENTED_EDGE('',*,*,#518,.F.);
#695=ORIENTED_EDGE('',*,*,#519,.T.);
#696=ORIENTED_EDGE('',*,*,#507,.F.);
#697=ORIENTED_EDGE('',*,*,#520,.F.);
#698=ORIENTED_EDGE('',*,*,#521,.F.);
#699=ORIENTED_EDGE('',*,*,#522,.T.);
#700=ORIENTED_EDGE('',*,*,#523,.F.);
#701=ORIENTED_EDGE('',*,*,#524,.F.);
#702=ORIENTED_EDGE('',*,*,#525,.T.);
#703=ORIENTED_EDGE('',*,*,#526,.T.);
#704=ORIENTED_EDGE('',*,*,#527,.F.);
#705=ORIENTED_EDGE('',*,*,#522,.F.);
#706=ORIENTED_EDGE('',*,*,#528,.T.);
#707=ORIENTED_EDGE('',*,*,#529,.T.);
#708=ORIENTED_EDGE('',*,*,#530,.F.);
#709=ORIENTED_EDGE('',*,*,#526,.F.);
#710=ORIENTED_EDGE('',*,*,#531,.F.);
#711=ORIENTED_EDGE('',*,*,#532,.F.);
#712=ORIENTED_EDGE('',*,*,#529,.F.);
#713=ORIENTED_EDGE('',*,*,#533,.T.);
#714=ORIENTED_EDGE('',*,*,#534,.T.);
#715=ORIENTED_EDGE('',*,*,#531,.T.);
#716=ORIENTED_EDGE('',*,*,#535,.T.);
#717=ORIENTED_EDGE('',*,*,#536,.T.);
#718=ORIENTED_EDGE('',*,*,#536,.F.);
#719=ORIENTED_EDGE('',*,*,#537,.F.);
#720=ORIENTED_EDGE('',*,*,#538,.F.);
#721=ORIENTED_EDGE('',*,*,#539,.F.);
#722=ORIENTED_EDGE('',*,*,#540,.T.);
#723=ORIENTED_EDGE('',*,*,#541,.T.);
#724=ORIENTED_EDGE('',*,*,#542,.T.);
#725=ORIENTED_EDGE('',*,*,#538,.T.);
#726=ORIENTED_EDGE('',*,*,#541,.F.);
#727=ORIENTED_EDGE('',*,*,#543,.F.);
#728=ORIENTED_EDGE('',*,*,#544,.T.);
#729=ORIENTED_EDGE('',*,*,#510,.F.);
#730=ORIENTED_EDGE('',*,*,#514,.F.);
#731=ORIENTED_EDGE('',*,*,#497,.T.);
#732=ORIENTED_EDGE('',*,*,#505,.T.);
#733=ORIENTED_EDGE('',*,*,#508,.F.);
#734=ORIENTED_EDGE('',*,*,#519,.F.);
#735=ORIENTED_EDGE('',*,*,#545,.F.);
#736=ORIENTED_EDGE('',*,*,#546,.F.);
#737=ORIENTED_EDGE('',*,*,#547,.T.);
#738=ORIENTED_EDGE('',*,*,#511,.F.);
#739=ORIENTED_EDGE('',*,*,#544,.F.);
#740=ORIENTED_EDGE('',*,*,#516,.T.);
#741=ORIENTED_EDGE('',*,*,#515,.T.);
#742=ORIENTED_EDGE('',*,*,#512,.F.);
#743=ORIENTED_EDGE('',*,*,#547,.F.);
#744=ORIENTED_EDGE('',*,*,#548,.T.);
#745=ORIENTED_EDGE('',*,*,#549,.F.);
#746=ORIENTED_EDGE('',*,*,#550,.F.);
#747=ORIENTED_EDGE('',*,*,#520,.T.);
#748=ORIENTED_EDGE('',*,*,#506,.F.);
#749=ORIENTED_EDGE('',*,*,#503,.F.);
#750=ORIENTED_EDGE('',*,*,#501,.T.);
#751=ORIENTED_EDGE('',*,*,#499,.F.);
#752=ORIENTED_EDGE('',*,*,#551,.T.);
#753=ORIENTED_EDGE('',*,*,#552,.T.);
#754=ORIENTED_EDGE('',*,*,#553,.T.);
#755=ORIENTED_EDGE('',*,*,#549,.T.);
#756=ORIENTED_EDGE('',*,*,#554,.F.);
#757=ORIENTED_EDGE('',*,*,#555,.F.);
#758=ORIENTED_EDGE('',*,*,#552,.F.);
#759=ORIENTED_EDGE('',*,*,#556,.T.);
#760=ORIENTED_EDGE('',*,*,#557,.T.);
#761=ORIENTED_EDGE('',*,*,#558,.T.);
#762=ORIENTED_EDGE('',*,*,#559,.T.);
#763=ORIENTED_EDGE('',*,*,#554,.T.);
#764=ORIENTED_EDGE('',*,*,#560,.F.);
#765=ORIENTED_EDGE('',*,*,#561,.T.);
#766=ORIENTED_EDGE('',*,*,#517,.T.);
#767=ORIENTED_EDGE('',*,*,#561,.F.);
#768=ORIENTED_EDGE('',*,*,#562,.F.);
#769=ORIENTED_EDGE('',*,*,#563,.F.);
#770=ORIENTED_EDGE('',*,*,#558,.F.);
#771=ORIENTED_EDGE('',*,*,#564,.T.);
#772=ORIENTED_EDGE('',*,*,#565,.F.);
#773=ORIENTED_EDGE('',*,*,#566,.T.);
#774=ORIENTED_EDGE('',*,*,#567,.T.);
#775=ORIENTED_EDGE('',*,*,#523,.T.);
#776=ORIENTED_EDGE('',*,*,#527,.T.);
#777=ORIENTED_EDGE('',*,*,#530,.T.);
#778=ORIENTED_EDGE('',*,*,#532,.T.);
#779=ORIENTED_EDGE('',*,*,#534,.F.);
#780=ORIENTED_EDGE('',*,*,#539,.T.);
#781=ORIENTED_EDGE('',*,*,#542,.F.);
#782=ORIENTED_EDGE('',*,*,#545,.T.);
#783=ORIENTED_EDGE('',*,*,#518,.T.);
#784=ORIENTED_EDGE('',*,*,#550,.T.);
#785=ORIENTED_EDGE('',*,*,#553,.F.);
#786=ORIENTED_EDGE('',*,*,#555,.T.);
#787=ORIENTED_EDGE('',*,*,#559,.F.);
#788=ORIENTED_EDGE('',*,*,#563,.T.);
#789=ORIENTED_EDGE('',*,*,#568,.F.);
#790=ORIENTED_EDGE('',*,*,#524,.T.);
#791=ORIENTED_EDGE('',*,*,#567,.F.);
#792=ORIENTED_EDGE('',*,*,#569,.F.);
#793=ORIENTED_EDGE('',*,*,#570,.F.);
#794=ORIENTED_EDGE('',*,*,#564,.F.);
#795=ORIENTED_EDGE('',*,*,#557,.F.);
#796=ORIENTED_EDGE('',*,*,#556,.F.);
#797=ORIENTED_EDGE('',*,*,#551,.F.);
#798=ORIENTED_EDGE('',*,*,#548,.F.);
#799=ORIENTED_EDGE('',*,*,#546,.T.);
#800=ORIENTED_EDGE('',*,*,#543,.T.);
#801=ORIENTED_EDGE('',*,*,#540,.F.);
#802=ORIENTED_EDGE('',*,*,#537,.T.);
#803=ORIENTED_EDGE('',*,*,#535,.F.);
#804=ORIENTED_EDGE('',*,*,#533,.F.);
#805=ORIENTED_EDGE('',*,*,#528,.F.);
#806=ORIENTED_EDGE('',*,*,#525,.F.);
#807=ORIENTED_EDGE('',*,*,#521,.T.);
#808=ORIENTED_EDGE('',*,*,#568,.T.);
#809=ORIENTED_EDGE('',*,*,#571,.F.);
#810=ORIENTED_EDGE('',*,*,#560,.T.);
#811=ORIENTED_EDGE('',*,*,#565,.T.);
#812=ORIENTED_EDGE('',*,*,#562,.T.);
#813=ORIENTED_EDGE('',*,*,#570,.T.);
#814=ORIENTED_EDGE('',*,*,#572,.T.);
#815=ORIENTED_EDGE('',*,*,#572,.F.);
#816=ORIENTED_EDGE('',*,*,#571,.T.);
#817=ORIENTED_EDGE('',*,*,#569,.T.);
#818=ORIENTED_EDGE('',*,*,#566,.F.);
#819=ORIENTED_EDGE('',*,*,#449,.T.);
#820=ORIENTED_EDGE('',*,*,#451,.F.);
#821=CYLINDRICAL_SURFACE('',#899,1.75);
#822=CYLINDRICAL_SURFACE('',#906,1.75);
#823=CYLINDRICAL_SURFACE('',#909,3.);
#824=CYLINDRICAL_SURFACE('',#912,4.75);
#825=CYLINDRICAL_SURFACE('',#915,2.5);
#826=CYLINDRICAL_SURFACE('',#919,3.);
#827=CYLINDRICAL_SURFACE('',#927,1.5);
#828=CYLINDRICAL_SURFACE('',#930,1.75);
#829=CYLINDRICAL_SURFACE('',#933,3.);
#830=CYLINDRICAL_SURFACE('',#949,1.5);
#831=CYLINDRICAL_SURFACE('',#953,2.5);
#832=CYLINDRICAL_SURFACE('',#959,2.);
#833=CYLINDRICAL_SURFACE('',#962,4.75);
#834=CYLINDRICAL_SURFACE('',#965,2.);
#835=CYLINDRICAL_SURFACE('',#968,1.75);
#836=CYLINDRICAL_SURFACE('',#976,1.5);
#837=ADVANCED_FACE('',(#51),#821,.F.);
#838=ADVANCED_FACE('',(#52),#19,.T.);
#839=ADVANCED_FACE('',(#53),#20,.F.);
#840=ADVANCED_FACE('',(#54),#822,.F.);
#841=ADVANCED_FACE('',(#55),#21,.T.);
#842=ADVANCED_FACE('',(#56),#823,.F.);
#843=ADVANCED_FACE('',(#57),#824,.T.);
#844=ADVANCED_FACE('',(#58),#825,.F.);
#845=ADVANCED_FACE('',(#59),#22,.T.);
#846=ADVANCED_FACE('',(#60),#826,.T.);
#847=ADVANCED_FACE('',(#61),#23,.T.);
#848=ADVANCED_FACE('',(#62),#24,.T.);
#849=ADVANCED_FACE('',(#63),#25,.T.);
#850=ADVANCED_FACE('',(#64),#26,.T.);
#851=ADVANCED_FACE('',(#65),#27,.T.);
#852=ADVANCED_FACE('',(#66),#827,.T.);
#853=ADVANCED_FACE('',(#67),#828,.F.);
#854=ADVANCED_FACE('',(#68),#28,.T.);
#855=ADVANCED_FACE('',(#69),#829,.F.);
#856=ADVANCED_FACE('',(#70,#15),#29,.T.);
#857=ADVANCED_FACE('',(#71),#30,.T.);
#858=ADVANCED_FACE('',(#72),#31,.T.);
#859=ADVANCED_FACE('',(#73),#32,.T.);
#860=ADVANCED_FACE('',(#74),#33,.T.);
#861=ADVANCED_FACE('',(#75,#16),#34,.F.);
#862=ADVANCED_FACE('',(#76),#35,.F.);
#863=ADVANCED_FACE('',(#77),#36,.T.);
#864=ADVANCED_FACE('',(#78),#37,.T.);
#865=ADVANCED_FACE('',(#79),#38,.T.);
#866=ADVANCED_FACE('',(#80),#39,.T.);
#867=ADVANCED_FACE('',(#81),#40,.T.);
#868=ADVANCED_FACE('',(#82),#830,.T.);
#869=ADVANCED_FACE('',(#83),#41,.T.);
#870=ADVANCED_FACE('',(#84),#831,.F.);
#871=ADVANCED_FACE('',(#85),#42,.T.);
#872=ADVANCED_FACE('',(#86),#43,.T.);
#873=ADVANCED_FACE('',(#87),#44,.T.);
#874=ADVANCED_FACE('',(#88),#832,.F.);
#875=ADVANCED_FACE('',(#89),#833,.T.);
#876=ADVANCED_FACE('',(#90),#834,.F.);
#877=ADVANCED_FACE('',(#91),#835,.F.);
#878=ADVANCED_FACE('',(#92),#45,.T.);
#879=ADVANCED_FACE('',(#93),#46,.T.);
#880=ADVANCED_FACE('',(#94),#47,.T.);
#881=ADVANCED_FACE('',(#95,#17),#48,.F.);
#882=ADVANCED_FACE('',(#96),#836,.T.);
#883=ADVANCED_FACE('',(#97,#18),#49,.T.);
#884=ADVANCED_FACE('',(#98),#50,.T.);
#885=CLOSED_SHELL('',(#837,#838,#839,#840,#841,#842,#843,#844,#845,#846,
#847,#848,#849,#850,#851,#852,#853,#854,#855,#856,#857,#858,#859,#860,#861,
#862,#863,#864,#865,#866,#867,#868,#869,#870,#871,#872,#873,#874,#875,#876,
#877,#878,#879,#880,#881,#882,#883,#884));
#886=DERIVED_UNIT_ELEMENT(#888,1.);
#887=DERIVED_UNIT_ELEMENT(#1493,-3.);
#888=(
MASS_UNIT()
NAMED_UNIT(*)
SI_UNIT(.KILO.,.GRAM.)
);
#889=DERIVED_UNIT((#886,#887));
#890=MEASURE_REPRESENTATION_ITEM('density measure',
POSITIVE_RATIO_MEASURE(7850.),#889);
#891=PROPERTY_DEFINITION_REPRESENTATION(#896,#893);
#892=PROPERTY_DEFINITION_REPRESENTATION(#897,#894);
#893=REPRESENTATION('material name',(#895),#1490);
#894=REPRESENTATION('density',(#890),#1490);
#895=DESCRIPTIVE_REPRESENTATION_ITEM('Steel','Steel');
#896=PROPERTY_DEFINITION('material property','material name',#1500);
#897=PROPERTY_DEFINITION('material property','density of part',#1500);
#898=AXIS2_PLACEMENT_3D('',#1233,#979,#980);
#899=AXIS2_PLACEMENT_3D('',#1234,#981,#982);
#900=AXIS2_PLACEMENT_3D('',#1236,#983,#984);
#901=AXIS2_PLACEMENT_3D('',#1239,#986,#987);
#902=AXIS2_PLACEMENT_3D('',#1240,#988,#989);
#903=AXIS2_PLACEMENT_3D('',#1242,#990,#991);
#904=AXIS2_PLACEMENT_3D('',#1243,#992,#993);
#905=AXIS2_PLACEMENT_3D('',#1245,#994,#995);
#906=AXIS2_PLACEMENT_3D('',#1246,#996,#997);
#907=AXIS2_PLACEMENT_3D('',#1248,#998,#999);
#908=AXIS2_PLACEMENT_3D('',#1250,#1001,#1002);
#909=AXIS2_PLACEMENT_3D('',#1259,#1007,#1008);
#910=AXIS2_PLACEMENT_3D('',#1261,#1009,#1010);
#911=AXIS2_PLACEMENT_3D('',#1264,#1012,#1013);
#912=AXIS2_PLACEMENT_3D('',#1265,#1014,#1015);
#913=AXIS2_PLACEMENT_3D('',#1269,#1017,#1018);
#914=AXIS2_PLACEMENT_3D('',#1270,#1019,#1020);
#915=AXIS2_PLACEMENT_3D('',#1271,#1021,#1022);
#916=AXIS2_PLACEMENT_3D('',#1273,#1023,#1024);
#917=AXIS2_PLACEMENT_3D('',#1276,#1026,#1027);
#918=AXIS2_PLACEMENT_3D('',#1277,#1028,#1029);
#919=AXIS2_PLACEMENT_3D('',#1283,#1033,#1034);
#920=AXIS2_PLACEMENT_3D('',#1285,#1035,#1036);
#921=AXIS2_PLACEMENT_3D('',#1287,#1037,#1038);
#922=AXIS2_PLACEMENT_3D('',#1289,#1040,#1041);
#923=AXIS2_PLACEMENT_3D('',#1298,#1046,#1047);
#924=AXIS2_PLACEMENT_3D('',#1304,#1051,#1052);
#925=AXIS2_PLACEMENT_3D('',#1310,#1056,#1057);
#926=AXIS2_PLACEMENT_3D('',#1316,#1061,#1062);
#927=AXIS2_PLACEMENT_3D('',#1322,#1066,#1067);
#928=AXIS2_PLACEMENT_3D('',#1323,#1068,#1069);
#929=AXIS2_PLACEMENT_3D('',#1324,#1070,#1071);
#930=AXIS2_PLACEMENT_3D('',#1325,#1072,#1073);
#931=AXIS2_PLACEMENT_3D('',#1327,#1074,#1075);
#932=AXIS2_PLACEMENT_3D('',#1329,#1077,#1078);
#933=AXIS2_PLACEMENT_3D('',#1335,#1082,#1083);
#934=AXIS2_PLACEMENT_3D('',#1337,#1084,#1085);
#935=AXIS2_PLACEMENT_3D('',#1340,#1087,#1088);
#936=AXIS2_PLACEMENT_3D('',#1341,#1089,#1090);
#937=AXIS2_PLACEMENT_3D('',#1345,#1093,#1094);
#938=AXIS2_PLACEMENT_3D('',#1351,#1098,#1099);
#939=AXIS2_PLACEMENT_3D('',#1357,#1103,#1104);
#940=AXIS2_PLACEMENT_3D('',#1366,#1109,#1110);
#941=AXIS2_PLACEMENT_3D('',#1371,#1114,#1115);
#942=AXIS2_PLACEMENT_3D('',#1373,#1117,#1118);
#943=AXIS2_PLACEMENT_3D('',#1375,#1119,#1120);
#944=AXIS2_PLACEMENT_3D('',#1376,#1121,#1122);
#945=AXIS2_PLACEMENT_3D('',#1382,#1126,#1127);
#946=AXIS2_PLACEMENT_3D('',#1391,#1132,#1133);
#947=AXIS2_PLACEMENT_3D('',#1397,#1137,#1138);
#948=AXIS2_PLACEMENT_3D('',#1403,#1142,#1143);
#949=AXIS2_PLACEMENT_3D('',#1409,#1147,#1148);
#950=AXIS2_PLACEMENT_3D('',#1411,#1149,#1150);
#951=AXIS2_PLACEMENT_3D('',#1413,#1151,#1152);
#952=AXIS2_PLACEMENT_3D('',#1415,#1154,#1155);
#953=AXIS2_PLACEMENT_3D('',#1421,#1159,#1160);
#954=AXIS2_PLACEMENT_3D('',#1423,#1161,#1162);
#955=AXIS2_PLACEMENT_3D('',#1426,#1164,#1165);
#956=AXIS2_PLACEMENT_3D('',#1427,#1166,#1167);
#957=AXIS2_PLACEMENT_3D('',#1432,#1171,#1172);
#958=AXIS2_PLACEMENT_3D('',#1436,#1175,#1176);
#959=AXIS2_PLACEMENT_3D('',#1442,#1180,#1181);
#960=AXIS2_PLACEMENT_3D('',#1444,#1182,#1183);
#961=AXIS2_PLACEMENT_3D('',#1447,#1185,#1186);
#962=AXIS2_PLACEMENT_3D('',#1448,#1187,#1188);
#963=AXIS2_PLACEMENT_3D('',#1452,#1190,#1191);
#964=AXIS2_PLACEMENT_3D('',#1453,#1192,#1193);
#965=AXIS2_PLACEMENT_3D('',#1454,#1194,#1195);
#966=AXIS2_PLACEMENT_3D('',#1456,#1196,#1197);
#967=AXIS2_PLACEMENT_3D('',#1459,#1199,#1200);
#968=AXIS2_PLACEMENT_3D('',#1460,#1201,#1202);
#969=AXIS2_PLACEMENT_3D('',#1462,#1203,#1204);
#970=AXIS2_PLACEMENT_3D('',#1464,#1206,#1207);
#971=AXIS2_PLACEMENT_3D('',#1470,#1211,#1212);
#972=AXIS2_PLACEMENT_3D('',#1472,#1213,#1214);
#973=AXIS2_PLACEMENT_3D('',#1476,#1217,#1218);
#974=AXIS2_PLACEMENT_3D('',#1480,#1221,#1222);
#975=AXIS2_PLACEMENT_3D('',#1482,#1223,#1224);
#976=AXIS2_PLACEMENT_3D('',#1484,#1226,#1227);
#977=AXIS2_PLACEMENT_3D('',#1486,#1229,#1230);
#978=AXIS2_PLACEMENT_3D('',#1487,#1231,#1232);
#979=DIRECTION('axis',(0.,0.,1.));
#980=DIRECTION('refdir',(1.,0.,0.));
#981=DIRECTION('center_axis',(-1.,0.,0.));
#982=DIRECTION('ref_axis',(0.,1.,0.));
#983=DIRECTION('center_axis',(-1.,0.,0.));
#984=DIRECTION('ref_axis',(0.,1.,0.));
#985=DIRECTION('',(-1.,0.,0.));
#986=DIRECTION('center_axis',(-1.,0.,0.));
#987=DIRECTION('ref_axis',(0.,1.,0.));
#988=DIRECTION('center_axis',(0.,0.,1.));
#989=DIRECTION('ref_axis',(1.,0.,0.));
#990=DIRECTION('center_axis',(0.,0.,-1.));
#991=DIRECTION('ref_axis',(1.,0.,0.));
#992=DIRECTION('center_axis',(0.,0.,1.));
#993=DIRECTION('ref_axis',(1.,0.,0.));
#994=DIRECTION('center_axis',(0.,0.,1.));
#995=DIRECTION('ref_axis',(1.,0.,0.));
#996=DIRECTION('center_axis',(0.,0.,-1.));
#997=DIRECTION('ref_axis',(1.,0.,0.));
#998=DIRECTION('center_axis',(0.,0.,-1.));
#999=DIRECTION('ref_axis',(1.,0.,0.));
#1000=DIRECTION('',(0.,0.,-1.));
#1001=DIRECTION('center_axis',(0.,-1.,0.));
#1002=DIRECTION('ref_axis',(1.,0.,0.));
#1003=DIRECTION('',(0.,0.,1.));
#1004=DIRECTION('',(1.,0.,0.));
#1005=DIRECTION('',(0.,0.,-1.));
#1006=DIRECTION('',(1.,0.,0.));
#1007=DIRECTION('center_axis',(0.,0.,1.));
#1008=DIRECTION('ref_axis',(0.647576125802734,0.762000762001142,0.));
#1009=DIRECTION('center_axis',(0.,0.,-1.));
#1010=DIRECTION('ref_axis',(0.647576125802734,0.762000762001142,0.));
#1011=DIRECTION('',(0.,0.,1.));
#1012=DIRECTION('center_axis',(0.,0.,1.));
#1013=DIRECTION('ref_axis',(0.647576125802734,0.762000762001142,0.));
#1014=DIRECTION('center_axis',(0.,0.,1.));
#1015=DIRECTION('ref_axis',(1.,0.,0.));
#1016=DIRECTION('',(0.,0.,-1.));
#1017=DIRECTION('center_axis',(0.,0.,1.));
#1018=DIRECTION('ref_axis',(1.,0.,0.));
#1019=DIRECTION('center_axis',(0.,0.,1.));
#1020=DIRECTION('ref_axis',(1.,0.,0.));
#1021=DIRECTION('center_axis',(0.,0.,1.));
#1022=DIRECTION('ref_axis',(-0.491303684440517,0.870988340711386,0.));
#1023=DIRECTION('center_axis',(0.,0.,-1.));
#1024=DIRECTION('ref_axis',(-0.491303684440517,0.870988340711386,0.));
#1025=DIRECTION('',(0.,0.,1.));
#1026=DIRECTION('center_axis',(0.,0.,1.));
#1027=DIRECTION('ref_axis',(-0.491303684440517,0.870988340711386,0.));
#1028=DIRECTION('center_axis',(0.,-1.,0.));
#1029=DIRECTION('ref_axis',(1.,0.,0.));
#1030=DIRECTION('',(1.,0.,0.));
#1031=DIRECTION('',(0.,0.,-1.));
#1032=DIRECTION('',(1.,0.,0.));
#1033=DIRECTION('center_axis',(0.,0.,1.));
#1034=DIRECTION('ref_axis',(0.465474668125632,-0.885061203156783,0.));
#1035=DIRECTION('center_axis',(0.,0.,-1.));
#1036=DIRECTION('ref_axis',(0.465474668125632,-0.885061203156783,0.));
#1037=DIRECTION('center_axis',(0.,0.,1.));
#1038=DIRECTION('ref_axis',(0.465474668125632,-0.885061203156783,0.));
#1039=DIRECTION('',(0.,0.,1.));
#1040=DIRECTION('center_axis',(9.25185853854298E-17,1.,0.));
#1041=DIRECTION('ref_axis',(-1.,9.25185853854298E-17,0.));
#1042=DIRECTION('',(1.,-9.25185853854298E-17,0.));
#1043=DIRECTION('',(0.,0.,-1.));
#1044=DIRECTION('',(-1.,9.25185853854298E-17,0.));
#1045=DIRECTION('',(0.,0.,1.));
#1046=DIRECTION('center_axis',(-1.,0.,0.));
#1047=DIRECTION('ref_axis',(0.,-1.,0.));
#1048=DIRECTION('',(0.,1.,0.));
#1049=DIRECTION('',(0.,0.,1.));
#1050=DIRECTION('',(0.,1.,0.));
#1051=DIRECTION('center_axis',(0.,1.,0.));
#1052=DIRECTION('ref_axis',(-1.,0.,0.));
#1053=DIRECTION('',(1.,0.,0.));
#1054=DIRECTION('',(0.,0.,1.));
#1055=DIRECTION('',(1.,0.,0.));
#1056=DIRECTION('center_axis',(1.,0.,0.));
#1057=DIRECTION('ref_axis',(0.,1.,0.));
#1058=DIRECTION('',(0.,-1.,0.));
#1059=DIRECTION('',(0.,0.,1.));
#1060=DIRECTION('',(0.,-1.,0.));
#1061=DIRECTION('center_axis',(0.,1.,0.));
#1062=DIRECTION('ref_axis',(-1.,0.,0.));
#1063=DIRECTION('',(0.,0.,-1.));
#1064=DIRECTION('',(-1.,0.,0.));
#1065=DIRECTION('',(-1.,0.,0.));
#1066=DIRECTION('center_axis',(0.,0.,1.));
#1067=DIRECTION('ref_axis',(-0.707106781186548,0.707106781186547,0.));
#1068=DIRECTION('center_axis',(0.,0.,-1.));
#1069=DIRECTION('ref_axis',(-0.707106781186548,-0.707106781186547,0.));
#1070=DIRECTION('center_axis',(0.,0.,1.));
#1071=DIRECTION('ref_axis',(-0.707106781186548,-0.707106781186547,0.));
#1072=DIRECTION('center_axis',(0.,0.,1.));
#1073=DIRECTION('ref_axis',(1.,0.,0.));
#1074=DIRECTION('center_axis',(0.,0.,1.));
#1075=DIRECTION('ref_axis',(1.,0.,0.));
#1076=DIRECTION('',(0.,0.,1.));
#1077=DIRECTION('center_axis',(1.,0.,0.));
#1078=DIRECTION('ref_axis',(0.,1.,0.));
#1079=DIRECTION('',(0.,-1.,0.));
#1080=DIRECTION('',(0.,1.,0.));
#1081=DIRECTION('',(0.,0.,1.));
#1082=DIRECTION('center_axis',(0.,0.,-1.));
#1083=DIRECTION('ref_axis',(-0.991071249821234,0.133333333333333,0.));
#1084=DIRECTION('center_axis',(0.,0.,-1.));
#1085=DIRECTION('ref_axis',(-0.991071249821234,0.133333333333333,0.));
#1086=DIRECTION('',(0.,0.,1.));
#1087=DIRECTION('center_axis',(0.,0.,1.));
#1088=DIRECTION('ref_axis',(-0.991071249821234,0.133333333333333,0.));
#1089=DIRECTION('center_axis',(0.,0.,1.));
#1090=DIRECTION('ref_axis',(1.,0.,0.));
#1091=DIRECTION('',(1.,0.,0.));
#1092=DIRECTION('',(0.,1.,0.));
#1093=DIRECTION('center_axis',(-1.,0.,0.));
#1094=DIRECTION('ref_axis',(0.,-1.,0.));
#1095=DIRECTION('',(0.,0.,1.));
#1096=DIRECTION('',(0.,-1.,0.));
#1097=DIRECTION('',(0.,0.,1.));
#1098=DIRECTION('center_axis',(0.,0.,1.));
#1099=DIRECTION('ref_axis',(1.,0.,0.));
#1100=DIRECTION('',(1.,0.,0.));
#1101=DIRECTION('',(-7.40148683083438E-16,1.,0.));
#1102=DIRECTION('',(-1.,0.,0.));
#1103=DIRECTION('center_axis',(0.,0.,-1.));
#1104=DIRECTION('ref_axis',(-1.,0.,0.));
#1105=DIRECTION('',(0.,1.,0.));
#1106=DIRECTION('',(1.,0.,0.));
#1107=DIRECTION('',(7.40148683083438E-16,-1.,0.));
#1108=DIRECTION('',(-1.,0.,0.));
#1109=DIRECTION('center_axis',(-1.,0.,0.));
#1110=DIRECTION('ref_axis',(0.,1.,0.));
#1111=DIRECTION('',(0.,-1.,0.));
#1112=DIRECTION('',(0.,0.,-1.));
#1113=DIRECTION('',(0.,0.,-1.));
#1114=DIRECTION('center_axis',(0.,0.,1.));
#1115=DIRECTION('ref_axis',(1.,0.,0.));
#1116=DIRECTION('',(-1.,0.,0.));
#1117=DIRECTION('center_axis',(0.,0.,1.));
#1118=DIRECTION('ref_axis',(1.,0.,0.));
#1119=DIRECTION('center_axis',(0.,0.,1.));
#1120=DIRECTION('ref_axis',(1.,0.,0.));
#1121=DIRECTION('center_axis',(1.,7.40148683083438E-16,0.));
#1122=DIRECTION('ref_axis',(-7.40148683083438E-16,1.,0.));
#1123=DIRECTION('',(7.40148683083438E-16,-1.,0.));
#1124=DIRECTION('',(0.,0.,1.));
#1125=DIRECTION('',(0.,0.,1.));
#1126=DIRECTION('center_axis',(1.,0.,0.));
#1127=DIRECTION('ref_axis',(0.,1.,0.));
#1128=DIRECTION('',(0.,-1.,0.));
#1129=DIRECTION('',(0.,0.,1.));
#1130=DIRECTION('',(0.,-1.,0.));
#1131=DIRECTION('',(0.,0.,1.));
#1132=DIRECTION('center_axis',(0.,-1.,0.));
#1133=DIRECTION('ref_axis',(1.,0.,0.));
#1134=DIRECTION('',(-1.,0.,0.));
#1135=DIRECTION('',(0.,0.,1.));
#1136=DIRECTION('',(-1.,0.,0.));
#1137=DIRECTION('center_axis',(1.,0.,0.));
#1138=DIRECTION('ref_axis',(0.,1.,0.));
#1139=DIRECTION('',(0.,1.,0.));
#1140=DIRECTION('',(0.,0.,1.));
#1141=DIRECTION('',(0.,1.,0.));
#1142=DIRECTION('center_axis',(0.,1.,0.));
#1143=DIRECTION('ref_axis',(-1.,0.,0.));
#1144=DIRECTION('',(0.,0.,-1.));
#1145=DIRECTION('',(-1.,0.,0.));
#1146=DIRECTION('',(-1.,0.,0.));
#1147=DIRECTION('center_axis',(0.,0.,1.));
#1148=DIRECTION('ref_axis',(-0.707106781186548,0.707106781186548,0.));
#1149=DIRECTION('center_axis',(0.,0.,-1.));
#1150=DIRECTION('ref_axis',(-0.707106781186548,0.707106781186548,0.));
#1151=DIRECTION('center_axis',(0.,0.,1.));
#1152=DIRECTION('ref_axis',(-0.707106781186548,0.707106781186548,0.));
#1153=DIRECTION('',(0.,0.,1.));
#1154=DIRECTION('center_axis',(-1.,0.,0.));
#1155=DIRECTION('ref_axis',(0.,-1.,0.));
#1156=DIRECTION('',(0.,1.,0.));
#1157=DIRECTION('',(0.,0.,-1.));
#1158=DIRECTION('',(0.,-1.,0.));
#1159=DIRECTION('center_axis',(0.,0.,1.));
#1160=DIRECTION('ref_axis',(0.707106781186547,-0.707106781186547,0.));
#1161=DIRECTION('center_axis',(0.,0.,-1.));
#1162=DIRECTION('ref_axis',(0.707106781186547,-0.707106781186547,0.));
#1163=DIRECTION('',(0.,0.,1.));
#1164=DIRECTION('center_axis',(0.,0.,1.));
#1165=DIRECTION('ref_axis',(0.707106781186547,-0.707106781186547,0.));
#1166=DIRECTION('center_axis',(0.,1.,0.));
#1167=DIRECTION('ref_axis',(-1.,0.,0.));
#1168=DIRECTION('',(1.,0.,0.));
#1169=DIRECTION('',(0.,0.,-1.));
#1170=DIRECTION('',(-1.,0.,0.));
#1171=DIRECTION('center_axis',(1.,7.40148683083438E-16,0.));
#1172=DIRECTION('ref_axis',(7.40148683083438E-16,-1.,0.));
#1173=DIRECTION('',(-7.40148683083438E-16,1.,0.));
#1174=DIRECTION('',(0.,0.,-1.));
#1175=DIRECTION('center_axis',(0.,-1.,0.));
#1176=DIRECTION('ref_axis',(1.,0.,0.));
#1177=DIRECTION('',(1.,0.,0.));
#1178=DIRECTION('',(0.,0.,-1.));
#1179=DIRECTION('',(1.,0.,0.));
#1180=DIRECTION('center_axis',(0.,0.,1.));
#1181=DIRECTION('ref_axis',(0.693888666488711,0.720082299823096,0.));
#1182=DIRECTION('center_axis',(0.,0.,-1.));
#1183=DIRECTION('ref_axis',(0.693888666488711,0.720082299823096,0.));
#1184=DIRECTION('',(0.,0.,1.));
#1185=DIRECTION('center_axis',(0.,0.,1.));
#1186=DIRECTION('ref_axis',(0.693888666488711,0.720082299823096,0.));
#1187=DIRECTION('center_axis',(0.,0.,1.));
#1188=DIRECTION('ref_axis',(1.,0.,0.));
#1189=DIRECTION('',(0.,0.,-1.));
#1190=DIRECTION('center_axis',(0.,0.,1.));
#1191=DIRECTION('ref_axis',(1.,0.,0.));
#1192=DIRECTION('center_axis',(0.,0.,1.));
#1193=DIRECTION('ref_axis',(1.,0.,0.));
#1194=DIRECTION('center_axis',(0.,0.,1.));
#1195=DIRECTION('ref_axis',(0.720082299823095,0.693888666488711,0.));
#1196=DIRECTION('center_axis',(0.,0.,-1.));
#1197=DIRECTION('ref_axis',(0.720082299823095,0.693888666488711,0.));
#1198=DIRECTION('',(0.,0.,1.));
#1199=DIRECTION('center_axis',(0.,0.,1.));
#1200=DIRECTION('ref_axis',(0.720082299823095,0.693888666488711,0.));
#1201=DIRECTION('center_axis',(0.,0.,1.));
#1202=DIRECTION('ref_axis',(1.,0.,0.));
#1203=DIRECTION('center_axis',(0.,0.,1.));
#1204=DIRECTION('ref_axis',(1.,0.,0.));
#1205=DIRECTION('',(0.,0.,1.));
#1206=DIRECTION('center_axis',(-1.,0.,0.));
#1207=DIRECTION('ref_axis',(0.,-1.,0.));
#1208=DIRECTION('',(0.,0.,-1.));
#1209=DIRECTION('',(0.,-1.,0.));
#1210=DIRECTION('',(0.,-1.,0.));
#1211=DIRECTION('center_axis',(0.,0.,1.));
#1212=DIRECTION('ref_axis',(1.,0.,0.));
#1213=DIRECTION('center_axis',(0.,0.,-1.));
#1214=DIRECTION('ref_axis',(0.707106781186547,-0.707106781186548,0.));
#1215=DIRECTION('',(0.,1.,0.));
#1216=DIRECTION('',(1.,0.,0.));
#1217=DIRECTION('center_axis',(0.,1.,0.));
#1218=DIRECTION('ref_axis',(-1.,0.,0.));
#1219=DIRECTION('',(1.,0.,0.));
#1220=DIRECTION('',(0.,0.,-1.));
#1221=DIRECTION('center_axis',(0.,0.,1.));
#1222=DIRECTION('ref_axis',(1.,0.,0.));
#1223=DIRECTION('center_axis',(0.,0.,1.));
#1224=DIRECTION('ref_axis',(0.707106781186547,-0.707106781186548,0.));
#1225=DIRECTION('',(0.,1.,0.));
#1226=DIRECTION('center_axis',(0.,0.,1.));
#1227=DIRECTION('ref_axis',(0.707106781186547,-0.707106781186548,0.));
#1228=DIRECTION('',(0.,0.,1.));
#1229=DIRECTION('center_axis',(1.,0.,0.));
#1230=DIRECTION('ref_axis',(0.,1.,0.));
#1231=DIRECTION('center_axis',(1.,0.,0.));
#1232=DIRECTION('ref_axis',(0.,1.,0.));
#1233=CARTESIAN_POINT('',(0.,0.,0.));
#1234=CARTESIAN_POINT('Origin',(3.,-5.7,47.));
#1235=CARTESIAN_POINT('',(3.,-7.45,47.));
#1236=CARTESIAN_POINT('Origin',(3.,-5.7,47.));
#1237=CARTESIAN_POINT('',(-1.,-7.45,47.));
#1238=CARTESIAN_POINT('',(3.,-7.45,47.));
#1239=CARTESIAN_POINT('Origin',(-1.,-5.7,47.));
#1240=CARTESIAN_POINT('Origin',(-32.15,-5.85,66.));
#1241=CARTESIAN_POINT('',(-33.9,-5.85,66.));
#1242=CARTESIAN_POINT('Origin',(-32.15,-5.85,66.));
#1243=CARTESIAN_POINT('Origin',(-32.15,-5.85,6.));
#1244=CARTESIAN_POINT('',(-33.9,-5.85,6.));
#1245=CARTESIAN_POINT('Origin',(-32.15,-5.85,6.));
#1246=CARTESIAN_POINT('Origin',(-32.15,-5.85,72.));
#1247=CARTESIAN_POINT('',(-33.9,-5.85,72.));
#1248=CARTESIAN_POINT('Origin',(-32.15,-5.85,72.));
#1249=CARTESIAN_POINT('',(-33.9,-5.85,72.));
#1250=CARTESIAN_POINT('Origin',(-42.4,-4.1,0.));
#1251=CARTESIAN_POINT('',(-40.9,-4.1,0.));
#1252=CARTESIAN_POINT('',(-40.9,-4.1,72.));
#1253=CARTESIAN_POINT('',(-40.9,-4.1,0.));
#1254=CARTESIAN_POINT('',(-39.7985292703892,-4.1,0.));
#1255=CARTESIAN_POINT('',(-42.4,-4.1,0.));
#1256=CARTESIAN_POINT('',(-39.7985292703892,-4.1,72.));
#1257=CARTESIAN_POINT('',(-39.7985292703892,-4.1,0.));
#1258=CARTESIAN_POINT('',(-42.4,-4.1,72.));
#1259=CARTESIAN_POINT('Origin',(-39.7985292703892,-7.1,0.));
#1260=CARTESIAN_POINT('',(-36.8378082624966,-6.61612903225806,0.));
#1261=CARTESIAN_POINT('Origin',(-39.7985292703892,-7.1,0.));
#1262=CARTESIAN_POINT('',(-36.8378082624966,-6.61612903225806,72.));
#1263=CARTESIAN_POINT('',(-36.8378082624966,-6.61612903225806,0.));
#1264=CARTESIAN_POINT('Origin',(-39.7985292703892,-7.1,72.));
#1265=CARTESIAN_POINT('Origin',(-32.15,-5.85,0.));
#1266=CARTESIAN_POINT('',(-28.0847620814858,-8.30689655172414,72.));
#1267=CARTESIAN_POINT('',(-28.0847620814858,-8.30689655172414,0.));
#1268=CARTESIAN_POINT('',(-28.0847620814858,-8.30689655172414,0.));
#1269=CARTESIAN_POINT('Origin',(-32.15,-5.85,72.));
#1270=CARTESIAN_POINT('Origin',(-32.15,-5.85,0.));
#1271=CARTESIAN_POINT('Origin',(-25.9451631770046,-9.6,0.));
#1272=CARTESIAN_POINT('',(-25.9451631770046,-7.1,0.));
#1273=CARTESIAN_POINT('Origin',(-25.9451631770046,-9.6,0.));
#1274=CARTESIAN_POINT('',(-25.9451631770046,-7.1,72.));
#1275=CARTESIAN_POINT('',(-25.9451631770046,-7.1,0.));
#1276=CARTESIAN_POINT('Origin',(-25.9451631770046,-9.6,72.));
#1277=CARTESIAN_POINT('Origin',(-27.5674243050442,-7.1,0.));
#1278=CARTESIAN_POINT('',(-23.3704690882596,-7.1,0.));
#1279=CARTESIAN_POINT('',(-30.4,-7.1,0.));
#1280=CARTESIAN_POINT('',(-23.3704690882596,-7.1,72.));
#1281=CARTESIAN_POINT('',(-23.3704690882596,-7.1,0.));
#1282=CARTESIAN_POINT('',(-30.4,-7.1,72.));
#1283=CARTESIAN_POINT('Origin',(-23.3704690882596,-4.1,0.));
#1284=CARTESIAN_POINT('',(-20.898627669398,-5.8,72.));
#1285=CARTESIAN_POINT('Origin',(-23.3704690882596,-4.1,72.));
#1286=CARTESIAN_POINT('',(-20.898627669398,-5.8,0.));
#1287=CARTESIAN_POINT('Origin',(-23.3704690882596,-4.1,0.));
#1288=CARTESIAN_POINT('',(-20.898627669398,-5.8,0.));
#1289=CARTESIAN_POINT('Origin',(-21.4,-1.1,0.));
#1290=CARTESIAN_POINT('',(-24.2,-1.1,0.));
#1291=CARTESIAN_POINT('',(-21.4,-1.1,0.));
#1292=CARTESIAN_POINT('',(-24.4,-1.1,0.));
#1293=CARTESIAN_POINT('',(-24.2,-1.1,72.));
#1294=CARTESIAN_POINT('',(-24.2,-1.1,0.));
#1295=CARTESIAN_POINT('',(-21.4,-1.1,72.));
#1296=CARTESIAN_POINT('',(-24.4,-1.1,72.));
#1297=CARTESIAN_POINT('',(-21.4,-1.1,0.));
#1298=CARTESIAN_POINT('Origin',(-24.2,-1.1,0.));
#1299=CARTESIAN_POINT('',(-24.2,-4.3,0.));
#1300=CARTESIAN_POINT('',(-24.2,-3.55,0.));
#1301=CARTESIAN_POINT('',(-24.2,-4.3,72.));
#1302=CARTESIAN_POINT('',(-24.2,-4.3,0.));
#1303=CARTESIAN_POINT('',(-24.2,-3.55,72.));
#1304=CARTESIAN_POINT('Origin',(-24.4,-4.3,0.));
#1305=CARTESIAN_POINT('',(-27.6,-4.3,0.));
#1306=CARTESIAN_POINT('',(-22.05,-4.3,0.));
#1307=CARTESIAN_POINT('',(-27.6,-4.3,72.));
#1308=CARTESIAN_POINT('',(-27.6,-4.3,0.));
#1309=CARTESIAN_POINT('',(-22.05,-4.3,72.));
#1310=CARTESIAN_POINT('Origin',(-27.6,-4.1,0.));
#1311=CARTESIAN_POINT('',(-27.6,-1.1,0.));
#1312=CARTESIAN_POINT('',(-27.6,-5.05,0.));
#1313=CARTESIAN_POINT('',(-27.6,-1.1,72.));
#1314=CARTESIAN_POINT('',(-27.6,-1.1,0.));
#1315=CARTESIAN_POINT('',(-27.6,-5.05,72.));
#1316=CARTESIAN_POINT('Origin',(-27.4,-1.1,0.));
#1317=CARTESIAN_POINT('',(-40.9,-1.1,72.));
#1318=CARTESIAN_POINT('',(-40.9,-1.1,0.));
#1319=CARTESIAN_POINT('',(-40.9,-1.1,0.));
#1320=CARTESIAN_POINT('',(-27.4,-1.1,72.));
#1321=CARTESIAN_POINT('',(-27.4,-1.1,0.));
#1322=CARTESIAN_POINT('Origin',(-40.9,-2.6,0.));
#1323=CARTESIAN_POINT('Origin',(-40.9,-2.6,72.));
#1324=CARTESIAN_POINT('Origin',(-40.9,-2.6,0.));
#1325=CARTESIAN_POINT('Origin',(-32.15,-5.85,0.));
#1326=CARTESIAN_POINT('',(-33.9,-5.85,0.));
#1327=CARTESIAN_POINT('Origin',(-32.15,-5.85,0.));
#1328=CARTESIAN_POINT('',(-33.9,-5.85,0.));
#1329=CARTESIAN_POINT('Origin',(-21.4,-1.5,0.));
#1330=CARTESIAN_POINT('',(-21.4,-1.5,0.));
#1331=CARTESIAN_POINT('',(-21.4,-1.1,0.));
#1332=CARTESIAN_POINT('',(-21.4,-1.5,72.));
#1333=CARTESIAN_POINT('',(-21.4,-1.1,72.));
#1334=CARTESIAN_POINT('',(-21.4,-1.5,0.));
#1335=CARTESIAN_POINT('Origin',(-18.4267862505363,-7.5,0.));
#1336=CARTESIAN_POINT('',(-18.4267862505363,-4.5,0.));
#1337=CARTESIAN_POINT('Origin',(-18.4267862505363,-7.5,0.));
#1338=CARTESIAN_POINT('',(-18.4267862505363,-4.5,72.));
#1339=CARTESIAN_POINT('',(-18.4267862505363,-4.5,0.));
#1340=CARTESIAN_POINT('Origin',(-18.4267862505363,-7.5,72.));
#1341=CARTESIAN_POINT('Origin',(-19.7,-6.,72.));
#1342=CARTESIAN_POINT('',(-21.4,-4.5,72.));
#1343=CARTESIAN_POINT('',(-20.55,-4.5,72.));
#1344=CARTESIAN_POINT('',(-21.4,-3.75,72.));
#1345=CARTESIAN_POINT('Origin',(-21.4,-1.5,0.));
#1346=CARTESIAN_POINT('',(-21.4,-4.5,75.));
#1347=CARTESIAN_POINT('',(-21.4,-4.5,0.));
#1348=CARTESIAN_POINT('',(-21.4,-1.5,75.));
#1349=CARTESIAN_POINT('',(-21.4,-1.5,75.));
#1350=CARTESIAN_POINT('',(-21.4,-1.5,0.));
#1351=CARTESIAN_POINT('Origin',(-16.4,-3.,75.));
#1352=CARTESIAN_POINT('',(-11.4,-4.5,75.));
#1353=CARTESIAN_POINT('',(-21.4,-4.5,75.));
#1354=CARTESIAN_POINT('',(-11.4,-1.5,75.));
#1355=CARTESIAN_POINT('',(-11.4,-4.5,75.));
#1356=CARTESIAN_POINT('',(-11.4,-1.5,75.));
#1357=CARTESIAN_POINT('Origin',(-16.4,-3.,-3.));
#1358=CARTESIAN_POINT('',(-21.4,-4.5,-3.));
#1359=CARTESIAN_POINT('',(-21.4,-1.5,-3.));
#1360=CARTESIAN_POINT('',(-21.4,-1.5,-3.));
#1361=CARTESIAN_POINT('',(-11.4,-1.5,-3.));
#1362=CARTESIAN_POINT('',(-11.4,-1.5,-3.));
#1363=CARTESIAN_POINT('',(-11.4,-4.5,-3.));
#1364=CARTESIAN_POINT('',(-11.4,-4.5,-3.));
#1365=CARTESIAN_POINT('',(-21.4,-4.5,-3.));
#1366=CARTESIAN_POINT('Origin',(-21.4,-4.5,0.));
#1367=CARTESIAN_POINT('',(-21.4,-4.5,0.));
#1368=CARTESIAN_POINT('',(-21.4,-5.25,0.));
#1369=CARTESIAN_POINT('',(-21.4,-1.5,0.));
#1370=CARTESIAN_POINT('',(-21.4,-4.5,0.));
#1371=CARTESIAN_POINT('Origin',(-19.7,-6.,0.));
#1372=CARTESIAN_POINT('',(-20.55,-4.5,0.));
#1373=CARTESIAN_POINT('Origin',(-1.75,-6.25,6.));
#1374=CARTESIAN_POINT('',(-3.5,-6.25,6.));
#1375=CARTESIAN_POINT('Origin',(-1.75,-6.25,6.));
#1376=CARTESIAN_POINT('Origin',(-11.4,-4.5,0.));
#1377=CARTESIAN_POINT('',(-11.4,-1.5,72.));
#1378=CARTESIAN_POINT('',(-11.4,-4.5,72.));
#1379=CARTESIAN_POINT('',(-11.4,-5.25,72.));
#1380=CARTESIAN_POINT('',(-11.4,-1.5,0.));
#1381=CARTESIAN_POINT('',(-11.4,-4.5,0.));
#1382=CARTESIAN_POINT('Origin',(-0.2,-1.5,0.));
#1383=CARTESIAN_POINT('',(-0.2,1.7,0.));
#1384=CARTESIAN_POINT('',(-0.2,-1.7,0.));
#1385=CARTESIAN_POINT('',(-0.2,-3.75,0.));
#1386=CARTESIAN_POINT('',(-0.2,1.7,72.));
#1387=CARTESIAN_POINT('',(-0.2,1.7,0.));
#1388=CARTESIAN_POINT('',(-0.2,-1.7,72.));
#1389=CARTESIAN_POINT('',(-0.2,-3.75,72.));
#1390=CARTESIAN_POINT('',(-0.2,-1.7,0.));
#1391=CARTESIAN_POINT('Origin',(0.,1.7,0.));
#1392=CARTESIAN_POINT('',(3.,1.7,0.));
#1393=CARTESIAN_POINT('',(-9.85,1.7,0.));
#1394=CARTESIAN_POINT('',(3.,1.7,72.));
#1395=CARTESIAN_POINT('',(3.,1.7,0.));
#1396=CARTESIAN_POINT('',(-9.85,1.7,72.));
#1397=CARTESIAN_POINT('Origin',(3.,1.5,0.));
#1398=CARTESIAN_POINT('',(3.,4.5,0.));
#1399=CARTESIAN_POINT('',(3.,1.5,0.));
#1400=CARTESIAN_POINT('',(3.,4.5,72.));
#1401=CARTESIAN_POINT('',(3.,4.5,0.));
#1402=CARTESIAN_POINT('',(3.,1.5,72.));
#1403=CARTESIAN_POINT('Origin',(3.,4.5,0.));
#1404=CARTESIAN_POINT('',(-1.5,4.5,72.));
#1405=CARTESIAN_POINT('',(-1.5,4.5,0.));
#1406=CARTESIAN_POINT('',(-1.5,4.5,0.));
#1407=CARTESIAN_POINT('',(3.,4.5,72.));
#1408=CARTESIAN_POINT('',(3.,4.5,0.));
#1409=CARTESIAN_POINT('Origin',(-1.5,3.,0.));
#1410=CARTESIAN_POINT('',(-3.,3.,72.));
#1411=CARTESIAN_POINT('Origin',(-1.5,3.,72.));
#1412=CARTESIAN_POINT('',(-3.,3.,0.));
#1413=CARTESIAN_POINT('Origin',(-1.5,3.,0.));
#1414=CARTESIAN_POINT('',(-3.,3.,0.));
#1415=CARTESIAN_POINT('Origin',(-3.,4.5,0.));
#1416=CARTESIAN_POINT('',(-3.,1.,0.));
#1417=CARTESIAN_POINT('',(-3.,-4.5,0.));
#1418=CARTESIAN_POINT('',(-3.,1.,72.));
#1419=CARTESIAN_POINT('',(-3.,1.,0.));
#1420=CARTESIAN_POINT('',(-3.,-4.5,72.));
#1421=CARTESIAN_POINT('Origin',(-5.5,1.,0.));
#1422=CARTESIAN_POINT('',(-5.5,-1.5,0.));
#1423=CARTESIAN_POINT('Origin',(-5.5,1.,0.));
#1424=CARTESIAN_POINT('',(-5.5,-1.5,72.));
#1425=CARTESIAN_POINT('',(-5.5,-1.5,0.));
#1426=CARTESIAN_POINT('Origin',(-5.5,1.,72.));
#1427=CARTESIAN_POINT('Origin',(-3.,-1.5,0.));
#1428=CARTESIAN_POINT('',(-11.4,-1.5,0.));
#1429=CARTESIAN_POINT('',(-21.4,-1.5,0.));
#1430=CARTESIAN_POINT('',(-11.4,-1.5,0.));
#1431=CARTESIAN_POINT('',(-21.4,-1.5,72.));
#1432=CARTESIAN_POINT('Origin',(-11.4,-1.5,0.));
#1433=CARTESIAN_POINT('',(-11.4,-4.5,0.));
#1434=CARTESIAN_POINT('',(-11.4,-3.75,0.));
#1435=CARTESIAN_POINT('',(-11.4,-4.5,0.));
#1436=CARTESIAN_POINT('Origin',(-21.4,-4.5,0.));
#1437=CARTESIAN_POINT('',(-8.49536878161602,-4.5,0.));
#1438=CARTESIAN_POINT('',(-21.4,-4.5,0.));
#1439=CARTESIAN_POINT('',(-8.49536878161602,-4.5,72.));
#1440=CARTESIAN_POINT('',(-8.49536878161602,-4.5,0.));
#1441=CARTESIAN_POINT('',(-21.4,-4.5,72.));
#1442=CARTESIAN_POINT('Origin',(-8.49536878161602,-6.5,0.));
#1443=CARTESIAN_POINT('',(-6.49674099447053,-6.42592592592593,0.));
#1444=CARTESIAN_POINT('Origin',(-8.49536878161602,-6.5,0.));
#1445=CARTESIAN_POINT('',(-6.49674099447053,-6.42592592592593,72.));
#1446=CARTESIAN_POINT('',(-6.49674099447053,-6.42592592592593,0.));
#1447=CARTESIAN_POINT('Origin',(-8.49536878161602,-6.5,72.));
#1448=CARTESIAN_POINT('Origin',(-1.75,-6.25,0.));
#1449=CARTESIAN_POINT('',(-1.92592592592593,-10.9967409944705,72.));
#1450=CARTESIAN_POINT('',(-1.92592592592593,-10.9967409944705,0.));
#1451=CARTESIAN_POINT('',(-1.92592592592593,-10.9967409944705,0.));
#1452=CARTESIAN_POINT('Origin',(-1.75,-6.25,72.));
#1453=CARTESIAN_POINT('Origin',(-1.75,-6.25,0.));
#1454=CARTESIAN_POINT('Origin',(-2.,-12.995368781616,0.));
#1455=CARTESIAN_POINT('',(0.,-12.995368781616,0.));
#1456=CARTESIAN_POINT('Origin',(-2.,-12.995368781616,0.));
#1457=CARTESIAN_POINT('',(0.,-12.995368781616,72.));
#1458=CARTESIAN_POINT('',(0.,-12.995368781616,0.));
#1459=CARTESIAN_POINT('Origin',(-2.,-12.995368781616,72.));
#1460=CARTESIAN_POINT('Origin',(-1.75,-6.25,0.));
#1461=CARTESIAN_POINT('',(-3.5,-6.25,0.));
#1462=CARTESIAN_POINT('Origin',(-1.75,-6.25,0.));
#1463=CARTESIAN_POINT('',(-3.5,-6.25,0.));
#1464=CARTESIAN_POINT('Origin',(0.,-10.6658804331639,0.));
#1465=CARTESIAN_POINT('',(0.,-15.,72.));
#1466=CARTESIAN_POINT('',(0.,-15.,0.));
#1467=CARTESIAN_POINT('',(0.,-15.,0.));
#1468=CARTESIAN_POINT('',(0.,-4.5,72.));
#1469=CARTESIAN_POINT('',(0.,-4.5,0.));
#1470=CARTESIAN_POINT('Origin',(-19.7,-6.,72.));
#1471=CARTESIAN_POINT('',(3.,-15.,72.));
#1472=CARTESIAN_POINT('Origin',(1.5,-15.,72.));
#1473=CARTESIAN_POINT('',(3.,-1.7,72.));
#1474=CARTESIAN_POINT('',(3.,-16.5,72.));
#1475=CARTESIAN_POINT('',(-8.35,-1.7,72.));
#1476=CARTESIAN_POINT('Origin',(3.,-1.7,0.));
#1477=CARTESIAN_POINT('',(3.,-1.7,0.));
#1478=CARTESIAN_POINT('',(-8.35,-1.7,0.));
#1479=CARTESIAN_POINT('',(3.,-1.7,0.));
#1480=CARTESIAN_POINT('Origin',(-19.7,-6.,0.));
#1481=CARTESIAN_POINT('',(3.,-15.,0.));
#1482=CARTESIAN_POINT('Origin',(1.5,-15.,0.));
#1483=CARTESIAN_POINT('',(3.,-16.5,0.));
#1484=CARTESIAN_POINT('Origin',(1.5,-15.,0.));
#1485=CARTESIAN_POINT('',(3.,-15.,0.));
#1486=CARTESIAN_POINT('Origin',(3.,-16.5,0.));
#1487=CARTESIAN_POINT('Origin',(-1.,-5.7,47.));
#1488=UNCERTAINTY_MEASURE_WITH_UNIT(LENGTH_MEASURE(0.01),#1492,
'DISTANCE_ACCURACY_VALUE',
'Maximum model space distance between geometric entities at asserted c
onnectivities');
#1489=UNCERTAINTY_MEASURE_WITH_UNIT(LENGTH_MEASURE(0.01),#1492,
'DISTANCE_ACCURACY_VALUE',
'Maximum model space distance between geometric entities at asserted c
onnectivities');
#1490=(
GEOMETRIC_REPRESENTATION_CONTEXT(3)
GLOBAL_UNCERTAINTY_ASSIGNED_CONTEXT((#1488))
GLOBAL_UNIT_ASSIGNED_CONTEXT((#1492,#1494,#1495))
REPRESENTATION_CONTEXT('','3D')
);
#1491=(
GEOMETRIC_REPRESENTATION_CONTEXT(3)
GLOBAL_UNCERTAINTY_ASSIGNED_CONTEXT((#1489))
GLOBAL_UNIT_ASSIGNED_CONTEXT((#1492,#1494,#1495))
REPRESENTATION_CONTEXT('','3D')
);
#1492=(
LENGTH_UNIT()
NAMED_UNIT(*)
SI_UNIT(.MILLI.,.METRE.)
);
#1493=(
LENGTH_UNIT()
NAMED_UNIT(*)
SI_UNIT($,.METRE.)
);
#1494=(
NAMED_UNIT(*)
PLANE_ANGLE_UNIT()
SI_UNIT($,.RADIAN.)
);
#1495=(
NAMED_UNIT(*)
SI_UNIT($,.STERADIAN.)
SOLID_ANGLE_UNIT()
);
#1496=SHAPE_DEFINITION_REPRESENTATION(#1497,#1498);
#1497=PRODUCT_DEFINITION_SHAPE('',$,#1500);
#1498=SHAPE_REPRESENTATION('',(#898),#1490);
#1499=PRODUCT_DEFINITION_CONTEXT('part definition',#1504,'design');
#1500=PRODUCT_DEFINITION('SlideSupports','SlideSupports v3',#1501,#1499);
#1501=PRODUCT_DEFINITION_FORMATION('',$,#1506);
#1502=PRODUCT_RELATED_PRODUCT_CATEGORY('SlideSupports v3',
'SlideSupports v3',(#1506));
#1503=APPLICATION_PROTOCOL_DEFINITION('international standard',
'automotive_design',2009,#1504);
#1504=APPLICATION_CONTEXT(
'Core Data for Automotive Mechanical Design Process');
#1505=PRODUCT_CONTEXT('part definition',#1504,'mechanical');
#1506=PRODUCT('SlideSupports','SlideSupports v3',$,(#1505));
#1507=PRESENTATION_STYLE_ASSIGNMENT((#1509));
#1508=PRESENTATION_STYLE_ASSIGNMENT((#1510));
#1509=SURFACE_STYLE_USAGE(.BOTH.,#1511);
#1510=SURFACE_STYLE_USAGE(.BOTH.,#1512);
#1511=SURFACE_SIDE_STYLE('',(#1513));
#1512=SURFACE_SIDE_STYLE('',(#1514));
#1513=SURFACE_STYLE_FILL_AREA(#1515);
#1514=SURFACE_STYLE_FILL_AREA(#1516);
#1515=FILL_AREA_STYLE('Steel - Satin',(#1517));
#1516=FILL_AREA_STYLE('Plastic - Matte (White)',(#1518));
#1517=FILL_AREA_STYLE_COLOUR('Steel - Satin',#1519);
#1518=FILL_AREA_STYLE_COLOUR('Plastic - Matte (White)',#1520);
#1519=COLOUR_RGB('Steel - Satin',0.627450980392157,0.627450980392157,0.627450980392157);
#1520=COLOUR_RGB('Plastic - Matte (White)',0.964705882352941,0.964705882352941,
0.952941176470588);
ENDSEC;
END-ISO-10303-21;
