ISO-10303-21;
HEADER;
/* Generated by software containing ST-Developer
 * from STEP Tools, Inc. (www.steptools.com) 
 */

FILE_DESCRIPTION(
/* description */ (''),
/* implementation_level */ '2;1');

FILE_NAME(
/* name */ 'SlideSupportsWire_v2.step',
/* time_stamp */ '2026-08-21T09:18:45-04:00',
/* author */ (''),
/* organization */ (''),
/* preprocessor_version */ 'ST-DEVELOPER v20.1',
/* originating_system */ 'Autodesk Translation Framework v15.8.0.0',
/* authorisation */ '');

FILE_SCHEMA (('AUTOMOTIVE_DESIGN { 1 0 10303 214 3 1 1 }'));
ENDSEC;

DATA;
#10=MECHANICAL_DESIGN_GEOMETRIC_PRESENTATION_REPRESENTATION('',(#13),#1848);
#11=SHAPE_REPRESENTATION_RELATIONSHIP('SRR','None',#1855,#12);
#12=ADVANCED_BREP_SHAPE_REPRESENTATION('',(#14),#1847);
#13=STYLED_ITEM('',(#1865),#14);
#14=MANIFOLD_SOLID_BREP('Body1',#1067);
#15=FACE_BOUND('',#376,.T.);
#16=FACE_BOUND('',#382,.T.);
#17=FACE_BOUND('',#398,.T.);
#18=FACE_BOUND('',#401,.T.);
#19=PLANE('',#1108);
#20=PLANE('',#1112);
#21=PLANE('',#1113);
#22=PLANE('',#1119);
#23=PLANE('',#1123);
#24=PLANE('',#1125);
#25=PLANE('',#1129);
#26=PLANE('',#1139);
#27=PLANE('',#1143);
#28=PLANE('',#1144);
#29=PLANE('',#1145);
#30=PLANE('',#1146);
#31=PLANE('',#1147);
#32=PLANE('',#1153);
#33=PLANE('',#1157);
#34=PLANE('',#1158);
#35=PLANE('',#1159);
#36=PLANE('',#1160);
#37=PLANE('',#1161);
#38=PLANE('',#1162);
#39=PLANE('',#1163);
#40=PLANE('',#1165);
#41=PLANE('',#1166);
#42=PLANE('',#1167);
#43=PLANE('',#1168);
#44=PLANE('',#1169);
#45=PLANE('',#1172);
#46=PLANE('',#1173);
#47=PLANE('',#1174);
#48=PLANE('',#1179);
#49=PLANE('',#1180);
#50=PLANE('',#1181);
#51=PLANE('',#1184);
#52=PLANE('',#1185);
#53=B_SPLINE_CURVE_WITH_KNOTS('',3,(#1517,#1518,#1519,#1520,#1521,#1522,
#1523,#1524,#1525,#1526,#1527,#1528),.UNSPECIFIED.,.F.,.F.,(4,2,2,2,2,4),
(0.548225563029004,0.62990851524896,0.664338760556041,0.683124836001978,
0.703905358928071,0.751068078336635),.UNSPECIFIED.);
#54=B_SPLINE_CURVE_WITH_KNOTS('',3,(#1534,#1535,#1536,#1537),
 .UNSPECIFIED.,.F.,.F.,(4,4),(0.0166387236459513,0.0354862083059936),
 .UNSPECIFIED.);
#55=B_SPLINE_CURVE_WITH_KNOTS('',3,(#1540,#1541,#1542,#1543,#1544,#1545,
#1546,#1547),.UNSPECIFIED.,.F.,.F.,(4,2,2,4),(2.3238096647129,2.3695404369903,
2.53555449126643,2.5372235255316),.UNSPECIFIED.);
#56=B_SPLINE_CURVE_WITH_KNOTS('',3,(#1573,#1574,#1575,#1576,#1577,#1578,
#1579,#1580),.UNSPECIFIED.,.F.,.F.,(4,2,2,4),(0.0755049047917543,0.0881420424875327,
0.138424045964889,0.188706049442245),.UNSPECIFIED.);
#57=B_SPLINE_CURVE_WITH_KNOTS('',3,(#1586,#1587,#1588,#1589,#1590,#1591,
#1592,#1593),.UNSPECIFIED.,.F.,.F.,(4,2,2,4),(-0.000598740032402767,0.,
0.0624113488976224,0.0882335708945172),.UNSPECIFIED.);
#58=LINE('',#1513,#159);
#59=LINE('',#1514,#160);
#60=LINE('',#1550,#161);
#61=LINE('',#1552,#162);
#62=LINE('',#1556,#163);
#63=LINE('',#1560,#164);
#64=LINE('',#1567,#165);
#65=LINE('',#1570,#166);
#66=LINE('',#1583,#167);
#67=LINE('',#1597,#168);
#68=LINE('',#1601,#169);
#69=LINE('',#1604,#170);
#70=LINE('',#1607,#171);
#71=LINE('',#1609,#172);
#72=LINE('',#1613,#173);
#73=LINE('',#1616,#174);
#74=LINE('',#1617,#175);
#75=LINE('',#1622,#176);
#76=LINE('',#1626,#177);
#77=LINE('',#1628,#178);
#78=LINE('',#1630,#179);
#79=LINE('',#1632,#180);
#80=LINE('',#1634,#181);
#81=LINE('',#1636,#182);
#82=LINE('',#1639,#183);
#83=LINE('',#1644,#184);
#84=LINE('',#1646,#185);
#85=LINE('',#1648,#186);
#86=LINE('',#1650,#187);
#87=LINE('',#1652,#188);
#88=LINE('',#1654,#189);
#89=LINE('',#1656,#190);
#90=LINE('',#1657,#191);
#91=LINE('',#1662,#192);
#92=LINE('',#1673,#193);
#93=LINE('',#1677,#194);
#94=LINE('',#1679,#195);
#95=LINE('',#1681,#196);
#96=LINE('',#1682,#197);
#97=LINE('',#1687,#198);
#98=LINE('',#1692,#199);
#99=LINE('',#1699,#200);
#100=LINE('',#1703,#201);
#101=LINE('',#1705,#202);
#102=LINE('',#1706,#203);
#103=LINE('',#1712,#204);
#104=LINE('',#1716,#205);
#105=LINE('',#1718,#206);
#106=LINE('',#1720,#207);
#107=LINE('',#1721,#208);
#108=LINE('',#1724,#209);
#109=LINE('',#1726,#210);
#110=LINE('',#1727,#211);
#111=LINE('',#1730,#212);
#112=LINE('',#1732,#213);
#113=LINE('',#1733,#214);
#114=LINE('',#1736,#215);
#115=LINE('',#1738,#216);
#116=LINE('',#1739,#217);
#117=LINE('',#1743,#218);
#118=LINE('',#1744,#219);
#119=LINE('',#1745,#220);
#120=LINE('',#1752,#221);
#121=LINE('',#1754,#222);
#122=LINE('',#1755,#223);
#123=LINE('',#1760,#224);
#124=LINE('',#1764,#225);
#125=LINE('',#1765,#226);
#126=LINE('',#1768,#227);
#127=LINE('',#1769,#228);
#128=LINE('',#1772,#229);
#129=LINE('',#1773,#230);
#130=LINE('',#1776,#231);
#131=LINE('',#1778,#232);
#132=LINE('',#1779,#233);
#133=LINE('',#1782,#234);
#134=LINE('',#1783,#235);
#135=LINE('',#1785,#236);
#136=LINE('',#1790,#237);
#137=LINE('',#1794,#238);
#138=LINE('',#1795,#239);
#139=LINE('',#1796,#240);
#140=LINE('',#1799,#241);
#141=LINE('',#1800,#242);
#142=LINE('',#1803,#243);
#143=LINE('',#1804,#244);
#144=LINE('',#1807,#245);
#145=LINE('',#1808,#246);
#146=LINE('',#1812,#247);
#147=LINE('',#1814,#248);
#148=LINE('',#1817,#249);
#149=LINE('',#1818,#250);
#150=LINE('',#1820,#251);
#151=LINE('',#1824,#252);
#152=LINE('',#1828,#253);
#153=LINE('',#1831,#254);
#154=LINE('',#1832,#255);
#155=LINE('',#1835,#256);
#156=LINE('',#1836,#257);
#157=LINE('',#1840,#258);
#158=LINE('',#1842,#259);
#159=VECTOR('',#1202,10.);
#160=VECTOR('',#1203,10.);
#161=VECTOR('',#1216,10.);
#162=VECTOR('',#1217,10.);
#163=VECTOR('',#1220,10.);
#164=VECTOR('',#1225,10.);
#165=VECTOR('',#1232,10.);
#166=VECTOR('',#1235,10.);
#167=VECTOR('',#1240,10.);
#168=VECTOR('',#1247,10.);
#169=VECTOR('',#1250,10.);
#170=VECTOR('',#1253,10.);
#171=VECTOR('',#1256,10.);
#172=VECTOR('',#1259,10.);
#173=VECTOR('',#1264,10.);
#174=VECTOR('',#1267,10.);
#175=VECTOR('',#1268,2.);
#176=VECTOR('',#1273,10.);
#177=VECTOR('',#1276,10.);
#178=VECTOR('',#1277,10.);
#179=VECTOR('',#1278,10.);
#180=VECTOR('',#1279,10.);
#181=VECTOR('',#1280,10.);
#182=VECTOR('',#1281,10.);
#183=VECTOR('',#1284,10.);
#184=VECTOR('',#1291,10.);
#185=VECTOR('',#1292,10.);
#186=VECTOR('',#1293,10.);
#187=VECTOR('',#1294,10.);
#188=VECTOR('',#1295,10.);
#189=VECTOR('',#1296,10.);
#190=VECTOR('',#1297,10.);
#191=VECTOR('',#1298,10.);
#192=VECTOR('',#1303,1.75);
#193=VECTOR('',#1318,1.75);
#194=VECTOR('',#1321,10.);
#195=VECTOR('',#1322,10.);
#196=VECTOR('',#1323,10.);
#197=VECTOR('',#1324,10.);
#198=VECTOR('',#1329,10.);
#199=VECTOR('',#1334,10.);
#200=VECTOR('',#1343,10.);
#201=VECTOR('',#1348,10.);
#202=VECTOR('',#1349,10.);
#203=VECTOR('',#1350,10.);
#204=VECTOR('',#1357,10.);
#205=VECTOR('',#1360,10.);
#206=VECTOR('',#1361,10.);
#207=VECTOR('',#1362,10.);
#208=VECTOR('',#1363,10.);
#209=VECTOR('',#1366,10.);
#210=VECTOR('',#1367,10.);
#211=VECTOR('',#1368,10.);
#212=VECTOR('',#1371,10.);
#213=VECTOR('',#1372,10.);
#214=VECTOR('',#1373,10.);
#215=VECTOR('',#1376,10.);
#216=VECTOR('',#1377,10.);
#217=VECTOR('',#1378,10.);
#218=VECTOR('',#1381,10.);
#219=VECTOR('',#1382,10.);
#220=VECTOR('',#1383,10.);
#221=VECTOR('',#1394,1.75);
#222=VECTOR('',#1397,10.);
#223=VECTOR('',#1398,10.);
#224=VECTOR('',#1403,3.);
#225=VECTOR('',#1408,10.);
#226=VECTOR('',#1409,10.);
#227=VECTOR('',#1412,10.);
#228=VECTOR('',#1413,10.);
#229=VECTOR('',#1416,10.);
#230=VECTOR('',#1417,10.);
#231=VECTOR('',#1420,10.);
#232=VECTOR('',#1421,10.);
#233=VECTOR('',#1422,10.);
#234=VECTOR('',#1425,10.);
#235=VECTOR('',#1426,10.);
#236=VECTOR('',#1429,10.);
#237=VECTOR('',#1436,10.);
#238=VECTOR('',#1439,10.);
#239=VECTOR('',#1440,10.);
#240=VECTOR('',#1441,10.);
#241=VECTOR('',#1444,10.);
#242=VECTOR('',#1445,10.);
#243=VECTOR('',#1448,10.);
#244=VECTOR('',#1449,10.);
#245=VECTOR('',#1452,10.);
#246=VECTOR('',#1453,10.);
#247=VECTOR('',#1458,10.);
#248=VECTOR('',#1461,10.);
#249=VECTOR('',#1464,10.);
#250=VECTOR('',#1465,10.);
#251=VECTOR('',#1468,10.);
#252=VECTOR('',#1473,10.);
#253=VECTOR('',#1478,1.75);
#254=VECTOR('',#1481,10.);
#255=VECTOR('',#1482,10.);
#256=VECTOR('',#1485,10.);
#257=VECTOR('',#1486,10.);
#258=VECTOR('',#1491,10.);
#259=VECTOR('',#1494,10.);
#260=CYLINDRICAL_SURFACE('',#1086,1.);
#261=CYLINDRICAL_SURFACE('',#1093,4.75);
#262=CYLINDRICAL_SURFACE('',#1096,2.);
#263=CYLINDRICAL_SURFACE('',#1098,1.);
#264=CYLINDRICAL_SURFACE('',#1101,1.);
#265=CYLINDRICAL_SURFACE('',#1105,2.5);
#266=CYLINDRICAL_SURFACE('',#1110,4.);
#267=CYLINDRICAL_SURFACE('',#1118,2.);
#268=CYLINDRICAL_SURFACE('',#1120,1.75);
#269=CYLINDRICAL_SURFACE('',#1127,1.75);
#270=CYLINDRICAL_SURFACE('',#1130,3.);
#271=CYLINDRICAL_SURFACE('',#1133,4.75);
#272=CYLINDRICAL_SURFACE('',#1136,2.5);
#273=CYLINDRICAL_SURFACE('',#1140,3.);
#274=CYLINDRICAL_SURFACE('',#1148,1.5);
#275=CYLINDRICAL_SURFACE('',#1151,1.75);
#276=CYLINDRICAL_SURFACE('',#1154,3.);
#277=CYLINDRICAL_SURFACE('',#1170,1.5);
#278=CYLINDRICAL_SURFACE('',#1175,2.);
#279=CYLINDRICAL_SURFACE('',#1177,1.75);
#280=CYLINDRICAL_SURFACE('',#1183,1.5);
#281=FACE_OUTER_BOUND('',#340,.T.);
#282=FACE_OUTER_BOUND('',#341,.T.);
#283=FACE_OUTER_BOUND('',#342,.T.);
#284=FACE_OUTER_BOUND('',#343,.T.);
#285=FACE_OUTER_BOUND('',#344,.T.);
#286=FACE_OUTER_BOUND('',#345,.T.);
#287=FACE_OUTER_BOUND('',#346,.T.);
#288=FACE_OUTER_BOUND('',#347,.T.);
#289=FACE_OUTER_BOUND('',#348,.T.);
#290=FACE_OUTER_BOUND('',#349,.T.);
#291=FACE_OUTER_BOUND('',#350,.T.);
#292=FACE_OUTER_BOUND('',#351,.T.);
#293=FACE_OUTER_BOUND('',#352,.T.);
#294=FACE_OUTER_BOUND('',#353,.T.);
#295=FACE_OUTER_BOUND('',#354,.T.);
#296=FACE_OUTER_BOUND('',#355,.T.);
#297=FACE_OUTER_BOUND('',#356,.T.);
#298=FACE_OUTER_BOUND('',#357,.T.);
#299=FACE_OUTER_BOUND('',#358,.T.);
#300=FACE_OUTER_BOUND('',#359,.T.);
#301=FACE_OUTER_BOUND('',#360,.T.);
#302=FACE_OUTER_BOUND('',#361,.T.);
#303=FACE_OUTER_BOUND('',#362,.T.);
#304=FACE_OUTER_BOUND('',#363,.T.);
#305=FACE_OUTER_BOUND('',#364,.T.);
#306=FACE_OUTER_BOUND('',#365,.T.);
#307=FACE_OUTER_BOUND('',#366,.T.);
#308=FACE_OUTER_BOUND('',#367,.T.);
#309=FACE_OUTER_BOUND('',#368,.T.);
#310=FACE_OUTER_BOUND('',#369,.T.);
#311=FACE_OUTER_BOUND('',#370,.T.);
#312=FACE_OUTER_BOUND('',#371,.T.);
#313=FACE_OUTER_BOUND('',#372,.T.);
#314=FACE_OUTER_BOUND('',#373,.T.);
#315=FACE_OUTER_BOUND('',#374,.T.);
#316=FACE_OUTER_BOUND('',#375,.T.);
#317=FACE_OUTER_BOUND('',#377,.T.);
#318=FACE_OUTER_BOUND('',#378,.T.);
#319=FACE_OUTER_BOUND('',#379,.T.);
#320=FACE_OUTER_BOUND('',#380,.T.);
#321=FACE_OUTER_BOUND('',#381,.T.);
#322=FACE_OUTER_BOUND('',#383,.T.);
#323=FACE_OUTER_BOUND('',#384,.T.);
#324=FACE_OUTER_BOUND('',#385,.T.);
#325=FACE_OUTER_BOUND('',#386,.T.);
#326=FACE_OUTER_BOUND('',#387,.T.);
#327=FACE_OUTER_BOUND('',#388,.T.);
#328=FACE_OUTER_BOUND('',#389,.T.);
#329=FACE_OUTER_BOUND('',#390,.T.);
#330=FACE_OUTER_BOUND('',#391,.T.);
#331=FACE_OUTER_BOUND('',#392,.T.);
#332=FACE_OUTER_BOUND('',#393,.T.);
#333=FACE_OUTER_BOUND('',#394,.T.);
#334=FACE_OUTER_BOUND('',#395,.T.);
#335=FACE_OUTER_BOUND('',#396,.T.);
#336=FACE_OUTER_BOUND('',#397,.T.);
#337=FACE_OUTER_BOUND('',#399,.T.);
#338=FACE_OUTER_BOUND('',#400,.T.);
#339=FACE_OUTER_BOUND('',#402,.T.);
#340=EDGE_LOOP('',(#700,#701,#702,#703));
#341=EDGE_LOOP('',(#704,#705,#706,#707));
#342=EDGE_LOOP('',(#708,#709,#710,#711));
#343=EDGE_LOOP('',(#712,#713,#714,#715));
#344=EDGE_LOOP('',(#716,#717,#718,#719,#720,#721));
#345=EDGE_LOOP('',(#722,#723,#724,#725,#726));
#346=EDGE_LOOP('',(#727,#728,#729,#730));
#347=EDGE_LOOP('',(#731,#732,#733,#734));
#348=EDGE_LOOP('',(#735,#736,#737));
#349=EDGE_LOOP('',(#738,#739,#740,#741,#742,#743));
#350=EDGE_LOOP('',(#744,#745,#746,#747,#748,#749));
#351=EDGE_LOOP('',(#750,#751,#752,#753));
#352=EDGE_LOOP('',(#754,#755,#756,#757,#758,#759));
#353=EDGE_LOOP('',(#760,#761,#762,#763,#764,#765,#766,#767,#768,#769,#770,
#771,#772,#773,#774,#775));
#354=EDGE_LOOP('',(#776,#777,#778,#779,#780,#781));
#355=EDGE_LOOP('',(#782,#783,#784,#785,#786,#787,#788,#789,#790,#791,#792));
#356=EDGE_LOOP('',(#793,#794,#795,#796));
#357=EDGE_LOOP('',(#797));
#358=EDGE_LOOP('',(#798));
#359=EDGE_LOOP('',(#799,#800,#801,#802));
#360=EDGE_LOOP('',(#803,#804,#805,#806));
#361=EDGE_LOOP('',(#807,#808,#809,#810));
#362=EDGE_LOOP('',(#811,#812,#813,#814));
#363=EDGE_LOOP('',(#815,#816,#817,#818));
#364=EDGE_LOOP('',(#819,#820,#821,#822));
#365=EDGE_LOOP('',(#823,#824,#825,#826));
#366=EDGE_LOOP('',(#827,#828,#829,#830));
#367=EDGE_LOOP('',(#831,#832,#833,#834));
#368=EDGE_LOOP('',(#835,#836,#837,#838));
#369=EDGE_LOOP('',(#839,#840,#841,#842));
#370=EDGE_LOOP('',(#843,#844,#845,#846));
#371=EDGE_LOOP('',(#847,#848,#849,#850));
#372=EDGE_LOOP('',(#851,#852,#853,#854));
#373=EDGE_LOOP('',(#855,#856,#857,#858));
#374=EDGE_LOOP('',(#859,#860,#861,#862));
#375=EDGE_LOOP('',(#863,#864,#865,#866,#867,#868,#869,#870,#871,#872,#873,
#874,#875,#876,#877,#878));
#376=EDGE_LOOP('',(#879));
#377=EDGE_LOOP('',(#880,#881,#882,#883));
#378=EDGE_LOOP('',(#884,#885,#886,#887));
#379=EDGE_LOOP('',(#888,#889,#890,#891));
#380=EDGE_LOOP('',(#892,#893,#894,#895));
#381=EDGE_LOOP('',(#896,#897,#898,#899,#900,#901,#902,#903,#904,#905,#906,
#907,#908,#909,#910,#911));
#382=EDGE_LOOP('',(#912));
#383=EDGE_LOOP('',(#913));
#384=EDGE_LOOP('',(#914,#915,#916,#917,#918,#919));
#385=EDGE_LOOP('',(#920,#921,#922,#923));
#386=EDGE_LOOP('',(#924,#925,#926,#927));
#387=EDGE_LOOP('',(#928,#929,#930,#931));
#388=EDGE_LOOP('',(#932,#933,#934,#935));
#389=EDGE_LOOP('',(#936,#937,#938,#939));
#390=EDGE_LOOP('',(#940,#941,#942,#943));
#391=EDGE_LOOP('',(#944,#945,#946,#947));
#392=EDGE_LOOP('',(#948,#949,#950,#951,#952,#953,#954,#955,#956,#957,#958,
#959));
#393=EDGE_LOOP('',(#960,#961,#962,#963));
#394=EDGE_LOOP('',(#964,#965,#966,#967));
#395=EDGE_LOOP('',(#968,#969,#970,#971));
#396=EDGE_LOOP('',(#972,#973,#974,#975));
#397=EDGE_LOOP('',(#976,#977,#978,#979,#980,#981,#982,#983,#984,#985,#986,
#987,#988,#989,#990,#991,#992));
#398=EDGE_LOOP('',(#993));
#399=EDGE_LOOP('',(#994,#995,#996,#997));
#400=EDGE_LOOP('',(#998,#999,#1000,#1001));
#401=EDGE_LOOP('',(#1002));
#402=EDGE_LOOP('',(#1003));
#403=CIRCLE('',#1082,1.);
#404=CIRCLE('',#1083,3.);
#405=CIRCLE('',#1084,0.999999999999996);
#406=CIRCLE('',#1085,2.);
#407=CIRCLE('',#1087,1.);
#408=CIRCLE('',#1089,2.);
#409=CIRCLE('',#1090,0.999999999999999);
#410=CIRCLE('',#1092,4.75);
#411=CIRCLE('',#1094,4.75);
#412=CIRCLE('',#1095,4.75);
#413=CIRCLE('',#1097,2.);
#414=CIRCLE('',#1099,0.999999999999996);
#415=CIRCLE('',#1100,1.);
#416=CIRCLE('',#1102,0.999999999999996);
#417=CIRCLE('',#1104,2.5);
#418=CIRCLE('',#1106,2.5);
#419=CIRCLE('',#1107,2.5);
#420=CIRCLE('',#1109,2.);
#421=CIRCLE('',#1111,4.);
#422=CIRCLE('',#1114,2.);
#423=CIRCLE('',#1115,1.5);
#424=CIRCLE('',#1116,1.5);
#425=CIRCLE('',#1117,2.);
#426=CIRCLE('',#1121,1.75);
#427=CIRCLE('',#1122,1.75);
#428=CIRCLE('',#1124,1.75);
#429=CIRCLE('',#1126,1.75);
#430=CIRCLE('',#1128,1.75);
#431=CIRCLE('',#1131,3.);
#432=CIRCLE('',#1132,3.);
#433=CIRCLE('',#1134,4.75);
#434=CIRCLE('',#1135,4.75);
#435=CIRCLE('',#1137,2.5);
#436=CIRCLE('',#1138,2.5);
#437=CIRCLE('',#1141,3.);
#438=CIRCLE('',#1142,3.);
#439=CIRCLE('',#1149,1.5);
#440=CIRCLE('',#1150,1.5);
#441=CIRCLE('',#1152,1.75);
#442=CIRCLE('',#1155,3.);
#443=CIRCLE('',#1156,3.);
#444=CIRCLE('',#1164,1.75);
#445=CIRCLE('',#1171,1.5);
#446=CIRCLE('',#1176,2.);
#447=CIRCLE('',#1178,1.75);
#448=CIRCLE('',#1182,1.5);
#449=VERTEX_POINT('',#1501);
#450=VERTEX_POINT('',#1502);
#451=VERTEX_POINT('',#1504);
#452=VERTEX_POINT('',#1506);
#453=VERTEX_POINT('',#1510);
#454=VERTEX_POINT('',#1511);
#455=VERTEX_POINT('',#1516);
#456=VERTEX_POINT('',#1529);
#457=VERTEX_POINT('',#1533);
#458=VERTEX_POINT('',#1538);
#459=VERTEX_POINT('',#1549);
#460=VERTEX_POINT('',#1551);
#461=VERTEX_POINT('',#1553);
#462=VERTEX_POINT('',#1555);
#463=VERTEX_POINT('',#1559);
#464=VERTEX_POINT('',#1563);
#465=VERTEX_POINT('',#1564);
#466=VERTEX_POINT('',#1566);
#467=VERTEX_POINT('',#1568);
#468=VERTEX_POINT('',#1572);
#469=VERTEX_POINT('',#1581);
#470=VERTEX_POINT('',#1585);
#471=VERTEX_POINT('',#1596);
#472=VERTEX_POINT('',#1598);
#473=VERTEX_POINT('',#1600);
#474=VERTEX_POINT('',#1602);
#475=VERTEX_POINT('',#1606);
#476=VERTEX_POINT('',#1611);
#477=VERTEX_POINT('',#1615);
#478=VERTEX_POINT('',#1619);
#479=VERTEX_POINT('',#1621);
#480=VERTEX_POINT('',#1623);
#481=VERTEX_POINT('',#1625);
#482=VERTEX_POINT('',#1627);
#483=VERTEX_POINT('',#1629);
#484=VERTEX_POINT('',#1631);
#485=VERTEX_POINT('',#1633);
#486=VERTEX_POINT('',#1635);
#487=VERTEX_POINT('',#1637);
#488=VERTEX_POINT('',#1643);
#489=VERTEX_POINT('',#1645);
#490=VERTEX_POINT('',#1647);
#491=VERTEX_POINT('',#1649);
#492=VERTEX_POINT('',#1651);
#493=VERTEX_POINT('',#1653);
#494=VERTEX_POINT('',#1655);
#495=VERTEX_POINT('',#1659);
#496=VERTEX_POINT('',#1661);
#497=VERTEX_POINT('',#1665);
#498=VERTEX_POINT('',#1668);
#499=VERTEX_POINT('',#1671);
#500=VERTEX_POINT('',#1675);
#501=VERTEX_POINT('',#1676);
#502=VERTEX_POINT('',#1678);
#503=VERTEX_POINT('',#1680);
#504=VERTEX_POINT('',#1684);
#505=VERTEX_POINT('',#1686);
#506=VERTEX_POINT('',#1690);
#507=VERTEX_POINT('',#1691);
#508=VERTEX_POINT('',#1696);
#509=VERTEX_POINT('',#1698);
#510=VERTEX_POINT('',#1702);
#511=VERTEX_POINT('',#1704);
#512=VERTEX_POINT('',#1708);
#513=VERTEX_POINT('',#1710);
#514=VERTEX_POINT('',#1714);
#515=VERTEX_POINT('',#1715);
#516=VERTEX_POINT('',#1717);
#517=VERTEX_POINT('',#1719);
#518=VERTEX_POINT('',#1723);
#519=VERTEX_POINT('',#1725);
#520=VERTEX_POINT('',#1729);
#521=VERTEX_POINT('',#1731);
#522=VERTEX_POINT('',#1735);
#523=VERTEX_POINT('',#1737);
#524=VERTEX_POINT('',#1741);
#525=VERTEX_POINT('',#1742);
#526=VERTEX_POINT('',#1750);
#527=VERTEX_POINT('',#1757);
#528=VERTEX_POINT('',#1759);
#529=VERTEX_POINT('',#1763);
#530=VERTEX_POINT('',#1767);
#531=VERTEX_POINT('',#1771);
#532=VERTEX_POINT('',#1775);
#533=VERTEX_POINT('',#1777);
#534=VERTEX_POINT('',#1781);
#535=VERTEX_POINT('',#1787);
#536=VERTEX_POINT('',#1792);
#537=VERTEX_POINT('',#1793);
#538=VERTEX_POINT('',#1798);
#539=VERTEX_POINT('',#1802);
#540=VERTEX_POINT('',#1806);
#541=VERTEX_POINT('',#1810);
#542=VERTEX_POINT('',#1816);
#543=VERTEX_POINT('',#1822);
#544=VERTEX_POINT('',#1826);
#545=VERTEX_POINT('',#1830);
#546=VERTEX_POINT('',#1834);
#547=VERTEX_POINT('',#1838);
#548=EDGE_CURVE('',#449,#450,#403,.T.);
#549=EDGE_CURVE('',#450,#451,#404,.T.);
#550=EDGE_CURVE('',#451,#452,#405,.T.);
#551=EDGE_CURVE('',#452,#449,#406,.T.);
#552=EDGE_CURVE('',#453,#454,#407,.F.);
#553=EDGE_CURVE('',#454,#452,#58,.T.);
#554=EDGE_CURVE('',#451,#453,#59,.T.);
#555=EDGE_CURVE('',#455,#450,#53,.F.);
#556=EDGE_CURVE('',#449,#456,#408,.T.);
#557=EDGE_CURVE('',#456,#455,#409,.T.);
#558=EDGE_CURVE('',#457,#455,#54,.F.);
#559=EDGE_CURVE('',#456,#458,#410,.T.);
#560=EDGE_CURVE('',#458,#457,#55,.F.);
#561=EDGE_CURVE('',#459,#458,#60,.T.);
#562=EDGE_CURVE('',#460,#456,#61,.T.);
#563=EDGE_CURVE('',#460,#461,#411,.T.);
#564=EDGE_CURVE('',#462,#461,#62,.T.);
#565=EDGE_CURVE('',#459,#462,#412,.T.);
#566=EDGE_CURVE('',#452,#463,#63,.T.);
#567=EDGE_CURVE('',#463,#460,#413,.T.);
#568=EDGE_CURVE('',#464,#465,#414,.T.);
#569=EDGE_CURVE('',#465,#466,#64,.T.);
#570=EDGE_CURVE('',#466,#467,#415,.F.);
#571=EDGE_CURVE('',#467,#464,#65,.T.);
#572=EDGE_CURVE('',#468,#464,#56,.T.);
#573=EDGE_CURVE('',#468,#469,#416,.T.);
#574=EDGE_CURVE('',#469,#465,#66,.T.);
#575=EDGE_CURVE('',#470,#468,#57,.T.);
#576=EDGE_CURVE('',#470,#469,#417,.T.);
#577=EDGE_CURVE('',#471,#470,#67,.T.);
#578=EDGE_CURVE('',#471,#472,#418,.T.);
#579=EDGE_CURVE('',#472,#473,#68,.T.);
#580=EDGE_CURVE('',#473,#474,#419,.T.);
#581=EDGE_CURVE('',#474,#469,#69,.T.);
#582=EDGE_CURVE('',#475,#450,#70,.T.);
#583=EDGE_CURVE('',#464,#475,#420,.F.);
#584=EDGE_CURVE('',#453,#467,#71,.T.);
#585=EDGE_CURVE('',#459,#476,#421,.T.);
#586=EDGE_CURVE('',#476,#457,#72,.T.);
#587=EDGE_CURVE('',#477,#476,#73,.T.);
#588=EDGE_CURVE('',#475,#477,#74,.T.);
#589=EDGE_CURVE('',#478,#462,#422,.T.);
#590=EDGE_CURVE('',#478,#479,#75,.T.);
#591=EDGE_CURVE('',#480,#479,#423,.T.);
#592=EDGE_CURVE('',#480,#481,#76,.T.);
#593=EDGE_CURVE('',#481,#482,#77,.F.);
#594=EDGE_CURVE('',#482,#483,#78,.F.);
#595=EDGE_CURVE('',#483,#484,#79,.F.);
#596=EDGE_CURVE('',#484,#485,#80,.T.);
#597=EDGE_CURVE('',#485,#486,#81,.T.);
#598=EDGE_CURVE('',#487,#486,#424,.T.);
#599=EDGE_CURVE('',#487,#472,#82,.T.);
#600=EDGE_CURVE('',#477,#471,#425,.T.);
#601=EDGE_CURVE('',#488,#474,#83,.T.);
#602=EDGE_CURVE('',#488,#489,#84,.T.);
#603=EDGE_CURVE('',#490,#489,#85,.T.);
#604=EDGE_CURVE('',#491,#490,#86,.T.);
#605=EDGE_CURVE('',#491,#492,#87,.T.);
#606=EDGE_CURVE('',#492,#493,#88,.T.);
#607=EDGE_CURVE('',#494,#493,#89,.T.);
#608=EDGE_CURVE('',#494,#466,#90,.T.);
#609=EDGE_CURVE('',#495,#495,#426,.T.);
#610=EDGE_CURVE('',#495,#496,#91,.T.);
#611=EDGE_CURVE('',#496,#496,#427,.T.);
#612=EDGE_CURVE('',#497,#497,#428,.T.);
#613=EDGE_CURVE('',#498,#498,#429,.T.);
#614=EDGE_CURVE('',#499,#499,#430,.T.);
#615=EDGE_CURVE('',#499,#497,#92,.T.);
#616=EDGE_CURVE('',#500,#501,#93,.T.);
#617=EDGE_CURVE('',#500,#502,#94,.T.);
#618=EDGE_CURVE('',#503,#502,#95,.T.);
#619=EDGE_CURVE('',#501,#503,#96,.T.);
#620=EDGE_CURVE('',#502,#504,#431,.T.);
#621=EDGE_CURVE('',#504,#505,#97,.T.);
#622=EDGE_CURVE('',#505,#503,#432,.T.);
#623=EDGE_CURVE('',#506,#507,#98,.T.);
#624=EDGE_CURVE('',#505,#506,#433,.T.);
#625=EDGE_CURVE('',#504,#507,#434,.T.);
#626=EDGE_CURVE('',#507,#508,#435,.T.);
#627=EDGE_CURVE('',#508,#509,#99,.T.);
#628=EDGE_CURVE('',#509,#506,#436,.T.);
#629=EDGE_CURVE('',#508,#510,#100,.T.);
#630=EDGE_CURVE('',#511,#510,#101,.T.);
#631=EDGE_CURVE('',#509,#511,#102,.T.);
#632=EDGE_CURVE('',#512,#511,#437,.T.);
#633=EDGE_CURVE('',#510,#513,#438,.T.);
#634=EDGE_CURVE('',#513,#512,#103,.T.);
#635=EDGE_CURVE('',#514,#515,#104,.T.);
#636=EDGE_CURVE('',#514,#516,#105,.F.);
#637=EDGE_CURVE('',#517,#516,#106,.T.);
#638=EDGE_CURVE('',#515,#517,#107,.T.);
#639=EDGE_CURVE('',#518,#514,#108,.T.);
#640=EDGE_CURVE('',#518,#519,#109,.T.);
#641=EDGE_CURVE('',#516,#519,#110,.F.);
#642=EDGE_CURVE('',#518,#520,#111,.F.);
#643=EDGE_CURVE('',#520,#521,#112,.T.);
#644=EDGE_CURVE('',#519,#521,#113,.F.);
#645=EDGE_CURVE('',#520,#522,#114,.F.);
#646=EDGE_CURVE('',#522,#523,#115,.T.);
#647=EDGE_CURVE('',#521,#523,#116,.F.);
#648=EDGE_CURVE('',#524,#525,#117,.T.);
#649=EDGE_CURVE('',#523,#524,#118,.T.);
#650=EDGE_CURVE('',#522,#525,#119,.T.);
#651=EDGE_CURVE('',#501,#524,#439,.T.);
#652=EDGE_CURVE('',#525,#500,#440,.T.);
#653=EDGE_CURVE('',#526,#526,#441,.T.);
#654=EDGE_CURVE('',#526,#498,#120,.T.);
#655=EDGE_CURVE('',#515,#491,#121,.T.);
#656=EDGE_CURVE('',#492,#517,#122,.T.);
#657=EDGE_CURVE('',#527,#513,#442,.F.);
#658=EDGE_CURVE('',#527,#528,#123,.T.);
#659=EDGE_CURVE('',#528,#512,#443,.T.);
#660=EDGE_CURVE('',#529,#528,#124,.T.);
#661=EDGE_CURVE('',#529,#492,#125,.T.);
#662=EDGE_CURVE('',#529,#530,#126,.T.);
#663=EDGE_CURVE('',#493,#530,#127,.T.);
#664=EDGE_CURVE('',#530,#531,#128,.T.);
#665=EDGE_CURVE('',#531,#494,#129,.T.);
#666=EDGE_CURVE('',#532,#490,#130,.T.);
#667=EDGE_CURVE('',#489,#533,#131,.T.);
#668=EDGE_CURVE('',#533,#532,#132,.T.);
#669=EDGE_CURVE('',#491,#534,#133,.T.);
#670=EDGE_CURVE('',#534,#532,#134,.T.);
#671=EDGE_CURVE('',#527,#534,#135,.T.);
#672=EDGE_CURVE('',#535,#535,#444,.T.);
#673=EDGE_CURVE('',#454,#531,#136,.T.);
#674=EDGE_CURVE('',#536,#537,#137,.T.);
#675=EDGE_CURVE('',#536,#483,#138,.T.);
#676=EDGE_CURVE('',#537,#482,#139,.T.);
#677=EDGE_CURVE('',#536,#538,#140,.F.);
#678=EDGE_CURVE('',#538,#484,#141,.T.);
#679=EDGE_CURVE('',#538,#539,#142,.T.);
#680=EDGE_CURVE('',#539,#485,#143,.T.);
#681=EDGE_CURVE('',#486,#540,#144,.T.);
#682=EDGE_CURVE('',#539,#540,#145,.T.);
#683=EDGE_CURVE('',#540,#541,#445,.T.);
#684=EDGE_CURVE('',#541,#487,#146,.T.);
#685=EDGE_CURVE('',#473,#541,#147,.T.);
#686=EDGE_CURVE('',#542,#488,#148,.T.);
#687=EDGE_CURVE('',#542,#533,#149,.T.);
#688=EDGE_CURVE('',#542,#463,#150,.T.);
#689=EDGE_CURVE('',#461,#543,#446,.T.);
#690=EDGE_CURVE('',#543,#478,#151,.T.);
#691=EDGE_CURVE('',#544,#544,#447,.T.);
#692=EDGE_CURVE('',#544,#535,#152,.T.);
#693=EDGE_CURVE('',#479,#545,#153,.T.);
#694=EDGE_CURVE('',#543,#545,#154,.T.);
#695=EDGE_CURVE('',#537,#546,#155,.T.);
#696=EDGE_CURVE('',#546,#481,#156,.F.);
#697=EDGE_CURVE('',#545,#547,#448,.T.);
#698=EDGE_CURVE('',#547,#546,#157,.T.);
#699=EDGE_CURVE('',#547,#480,#158,.T.);
#700=ORIENTED_EDGE('',*,*,#548,.T.);
#701=ORIENTED_EDGE('',*,*,#549,.T.);
#702=ORIENTED_EDGE('',*,*,#550,.T.);
#703=ORIENTED_EDGE('',*,*,#551,.T.);
#704=ORIENTED_EDGE('',*,*,#552,.T.);
#705=ORIENTED_EDGE('',*,*,#553,.T.);
#706=ORIENTED_EDGE('',*,*,#550,.F.);
#707=ORIENTED_EDGE('',*,*,#554,.T.);
#708=ORIENTED_EDGE('',*,*,#555,.T.);
#709=ORIENTED_EDGE('',*,*,#548,.F.);
#710=ORIENTED_EDGE('',*,*,#556,.T.);
#711=ORIENTED_EDGE('',*,*,#557,.T.);
#712=ORIENTED_EDGE('',*,*,#558,.T.);
#713=ORIENTED_EDGE('',*,*,#557,.F.);
#714=ORIENTED_EDGE('',*,*,#559,.T.);
#715=ORIENTED_EDGE('',*,*,#560,.T.);
#716=ORIENTED_EDGE('',*,*,#561,.T.);
#717=ORIENTED_EDGE('',*,*,#559,.F.);
#718=ORIENTED_EDGE('',*,*,#562,.F.);
#719=ORIENTED_EDGE('',*,*,#563,.T.);
#720=ORIENTED_EDGE('',*,*,#564,.F.);
#721=ORIENTED_EDGE('',*,*,#565,.F.);
#722=ORIENTED_EDGE('',*,*,#556,.F.);
#723=ORIENTED_EDGE('',*,*,#551,.F.);
#724=ORIENTED_EDGE('',*,*,#566,.T.);
#725=ORIENTED_EDGE('',*,*,#567,.T.);
#726=ORIENTED_EDGE('',*,*,#562,.T.);
#727=ORIENTED_EDGE('',*,*,#568,.T.);
#728=ORIENTED_EDGE('',*,*,#569,.T.);
#729=ORIENTED_EDGE('',*,*,#570,.T.);
#730=ORIENTED_EDGE('',*,*,#571,.T.);
#731=ORIENTED_EDGE('',*,*,#572,.F.);
#732=ORIENTED_EDGE('',*,*,#573,.T.);
#733=ORIENTED_EDGE('',*,*,#574,.T.);
#734=ORIENTED_EDGE('',*,*,#568,.F.);
#735=ORIENTED_EDGE('',*,*,#575,.F.);
#736=ORIENTED_EDGE('',*,*,#576,.T.);
#737=ORIENTED_EDGE('',*,*,#573,.F.);
#738=ORIENTED_EDGE('',*,*,#576,.F.);
#739=ORIENTED_EDGE('',*,*,#577,.F.);
#740=ORIENTED_EDGE('',*,*,#578,.T.);
#741=ORIENTED_EDGE('',*,*,#579,.T.);
#742=ORIENTED_EDGE('',*,*,#580,.T.);
#743=ORIENTED_EDGE('',*,*,#581,.T.);
#744=ORIENTED_EDGE('',*,*,#549,.F.);
#745=ORIENTED_EDGE('',*,*,#582,.F.);
#746=ORIENTED_EDGE('',*,*,#583,.F.);
#747=ORIENTED_EDGE('',*,*,#571,.F.);
#748=ORIENTED_EDGE('',*,*,#584,.F.);
#749=ORIENTED_EDGE('',*,*,#554,.F.);
#750=ORIENTED_EDGE('',*,*,#585,.T.);
#751=ORIENTED_EDGE('',*,*,#586,.T.);
#752=ORIENTED_EDGE('',*,*,#560,.F.);
#753=ORIENTED_EDGE('',*,*,#561,.F.);
#754=ORIENTED_EDGE('',*,*,#586,.F.);
#755=ORIENTED_EDGE('',*,*,#587,.F.);
#756=ORIENTED_EDGE('',*,*,#588,.F.);
#757=ORIENTED_EDGE('',*,*,#582,.T.);
#758=ORIENTED_EDGE('',*,*,#555,.F.);
#759=ORIENTED_EDGE('',*,*,#558,.F.);
#760=ORIENTED_EDGE('',*,*,#585,.F.);
#761=ORIENTED_EDGE('',*,*,#565,.T.);
#762=ORIENTED_EDGE('',*,*,#589,.F.);
#763=ORIENTED_EDGE('',*,*,#590,.T.);
#764=ORIENTED_EDGE('',*,*,#591,.F.);
#765=ORIENTED_EDGE('',*,*,#592,.T.);
#766=ORIENTED_EDGE('',*,*,#593,.T.);
#767=ORIENTED_EDGE('',*,*,#594,.T.);
#768=ORIENTED_EDGE('',*,*,#595,.T.);
#769=ORIENTED_EDGE('',*,*,#596,.T.);
#770=ORIENTED_EDGE('',*,*,#597,.T.);
#771=ORIENTED_EDGE('',*,*,#598,.F.);
#772=ORIENTED_EDGE('',*,*,#599,.T.);
#773=ORIENTED_EDGE('',*,*,#578,.F.);
#774=ORIENTED_EDGE('',*,*,#600,.F.);
#775=ORIENTED_EDGE('',*,*,#587,.T.);
#776=ORIENTED_EDGE('',*,*,#600,.T.);
#777=ORIENTED_EDGE('',*,*,#577,.T.);
#778=ORIENTED_EDGE('',*,*,#575,.T.);
#779=ORIENTED_EDGE('',*,*,#572,.T.);
#780=ORIENTED_EDGE('',*,*,#583,.T.);
#781=ORIENTED_EDGE('',*,*,#588,.T.);
#782=ORIENTED_EDGE('',*,*,#574,.F.);
#783=ORIENTED_EDGE('',*,*,#581,.F.);
#784=ORIENTED_EDGE('',*,*,#601,.F.);
#785=ORIENTED_EDGE('',*,*,#602,.T.);
#786=ORIENTED_EDGE('',*,*,#603,.F.);
#787=ORIENTED_EDGE('',*,*,#604,.F.);
#788=ORIENTED_EDGE('',*,*,#605,.T.);
#789=ORIENTED_EDGE('',*,*,#606,.T.);
#790=ORIENTED_EDGE('',*,*,#607,.F.);
#791=ORIENTED_EDGE('',*,*,#608,.T.);
#792=ORIENTED_EDGE('',*,*,#569,.F.);
#793=ORIENTED_EDGE('',*,*,#609,.F.);
#794=ORIENTED_EDGE('',*,*,#610,.T.);
#795=ORIENTED_EDGE('',*,*,#611,.T.);
#796=ORIENTED_EDGE('',*,*,#610,.F.);
#797=ORIENTED_EDGE('',*,*,#612,.F.);
#798=ORIENTED_EDGE('',*,*,#613,.F.);
#799=ORIENTED_EDGE('',*,*,#614,.F.);
#800=ORIENTED_EDGE('',*,*,#615,.T.);
#801=ORIENTED_EDGE('',*,*,#612,.T.);
#802=ORIENTED_EDGE('',*,*,#615,.F.);
#803=ORIENTED_EDGE('',*,*,#616,.F.);
#804=ORIENTED_EDGE('',*,*,#617,.T.);
#805=ORIENTED_EDGE('',*,*,#618,.F.);
#806=ORIENTED_EDGE('',*,*,#619,.F.);
#807=ORIENTED_EDGE('',*,*,#620,.T.);
#808=ORIENTED_EDGE('',*,*,#621,.T.);
#809=ORIENTED_EDGE('',*,*,#622,.T.);
#810=ORIENTED_EDGE('',*,*,#618,.T.);
#811=ORIENTED_EDGE('',*,*,#623,.F.);
#812=ORIENTED_EDGE('',*,*,#624,.F.);
#813=ORIENTED_EDGE('',*,*,#621,.F.);
#814=ORIENTED_EDGE('',*,*,#625,.T.);
#815=ORIENTED_EDGE('',*,*,#626,.T.);
#816=ORIENTED_EDGE('',*,*,#627,.T.);
#817=ORIENTED_EDGE('',*,*,#628,.T.);
#818=ORIENTED_EDGE('',*,*,#623,.T.);
#819=ORIENTED_EDGE('',*,*,#627,.F.);
#820=ORIENTED_EDGE('',*,*,#629,.T.);
#821=ORIENTED_EDGE('',*,*,#630,.F.);
#822=ORIENTED_EDGE('',*,*,#631,.F.);
#823=ORIENTED_EDGE('',*,*,#632,.T.);
#824=ORIENTED_EDGE('',*,*,#630,.T.);
#825=ORIENTED_EDGE('',*,*,#633,.T.);
#826=ORIENTED_EDGE('',*,*,#634,.T.);
#827=ORIENTED_EDGE('',*,*,#635,.F.);
#828=ORIENTED_EDGE('',*,*,#636,.T.);
#829=ORIENTED_EDGE('',*,*,#637,.F.);
#830=ORIENTED_EDGE('',*,*,#638,.F.);
#831=ORIENTED_EDGE('',*,*,#639,.F.);
#832=ORIENTED_EDGE('',*,*,#640,.T.);
#833=ORIENTED_EDGE('',*,*,#641,.F.);
#834=ORIENTED_EDGE('',*,*,#636,.F.);
#835=ORIENTED_EDGE('',*,*,#642,.T.);
#836=ORIENTED_EDGE('',*,*,#643,.T.);
#837=ORIENTED_EDGE('',*,*,#644,.F.);
#838=ORIENTED_EDGE('',*,*,#640,.F.);
#839=ORIENTED_EDGE('',*,*,#645,.T.);
#840=ORIENTED_EDGE('',*,*,#646,.T.);
#841=ORIENTED_EDGE('',*,*,#647,.F.);
#842=ORIENTED_EDGE('',*,*,#643,.F.);
#843=ORIENTED_EDGE('',*,*,#648,.F.);
#844=ORIENTED_EDGE('',*,*,#649,.F.);
#845=ORIENTED_EDGE('',*,*,#646,.F.);
#846=ORIENTED_EDGE('',*,*,#650,.T.);
#847=ORIENTED_EDGE('',*,*,#651,.T.);
#848=ORIENTED_EDGE('',*,*,#648,.T.);
#849=ORIENTED_EDGE('',*,*,#652,.T.);
#850=ORIENTED_EDGE('',*,*,#616,.T.);
#851=ORIENTED_EDGE('',*,*,#653,.F.);
#852=ORIENTED_EDGE('',*,*,#654,.T.);
#853=ORIENTED_EDGE('',*,*,#613,.T.);
#854=ORIENTED_EDGE('',*,*,#654,.F.);
#855=ORIENTED_EDGE('',*,*,#655,.F.);
#856=ORIENTED_EDGE('',*,*,#638,.T.);
#857=ORIENTED_EDGE('',*,*,#656,.F.);
#858=ORIENTED_EDGE('',*,*,#605,.F.);
#859=ORIENTED_EDGE('',*,*,#634,.F.);
#860=ORIENTED_EDGE('',*,*,#657,.F.);
#861=ORIENTED_EDGE('',*,*,#658,.T.);
#862=ORIENTED_EDGE('',*,*,#659,.T.);
#863=ORIENTED_EDGE('',*,*,#651,.F.);
#864=ORIENTED_EDGE('',*,*,#619,.T.);
#865=ORIENTED_EDGE('',*,*,#622,.F.);
#866=ORIENTED_EDGE('',*,*,#624,.T.);
#867=ORIENTED_EDGE('',*,*,#628,.F.);
#868=ORIENTED_EDGE('',*,*,#631,.T.);
#869=ORIENTED_EDGE('',*,*,#632,.F.);
#870=ORIENTED_EDGE('',*,*,#659,.F.);
#871=ORIENTED_EDGE('',*,*,#660,.F.);
#872=ORIENTED_EDGE('',*,*,#661,.T.);
#873=ORIENTED_EDGE('',*,*,#656,.T.);
#874=ORIENTED_EDGE('',*,*,#637,.T.);
#875=ORIENTED_EDGE('',*,*,#641,.T.);
#876=ORIENTED_EDGE('',*,*,#644,.T.);
#877=ORIENTED_EDGE('',*,*,#647,.T.);
#878=ORIENTED_EDGE('',*,*,#649,.T.);
#879=ORIENTED_EDGE('',*,*,#614,.T.);
#880=ORIENTED_EDGE('',*,*,#661,.F.);
#881=ORIENTED_EDGE('',*,*,#662,.T.);
#882=ORIENTED_EDGE('',*,*,#663,.F.);
#883=ORIENTED_EDGE('',*,*,#606,.F.);
#884=ORIENTED_EDGE('',*,*,#663,.T.);
#885=ORIENTED_EDGE('',*,*,#664,.T.);
#886=ORIENTED_EDGE('',*,*,#665,.T.);
#887=ORIENTED_EDGE('',*,*,#607,.T.);
#888=ORIENTED_EDGE('',*,*,#666,.T.);
#889=ORIENTED_EDGE('',*,*,#603,.T.);
#890=ORIENTED_EDGE('',*,*,#667,.T.);
#891=ORIENTED_EDGE('',*,*,#668,.T.);
#892=ORIENTED_EDGE('',*,*,#669,.F.);
#893=ORIENTED_EDGE('',*,*,#604,.T.);
#894=ORIENTED_EDGE('',*,*,#666,.F.);
#895=ORIENTED_EDGE('',*,*,#670,.F.);
#896=ORIENTED_EDGE('',*,*,#652,.F.);
#897=ORIENTED_EDGE('',*,*,#650,.F.);
#898=ORIENTED_EDGE('',*,*,#645,.F.);
#899=ORIENTED_EDGE('',*,*,#642,.F.);
#900=ORIENTED_EDGE('',*,*,#639,.T.);
#901=ORIENTED_EDGE('',*,*,#635,.T.);
#902=ORIENTED_EDGE('',*,*,#655,.T.);
#903=ORIENTED_EDGE('',*,*,#669,.T.);
#904=ORIENTED_EDGE('',*,*,#671,.F.);
#905=ORIENTED_EDGE('',*,*,#657,.T.);
#906=ORIENTED_EDGE('',*,*,#633,.F.);
#907=ORIENTED_EDGE('',*,*,#629,.F.);
#908=ORIENTED_EDGE('',*,*,#626,.F.);
#909=ORIENTED_EDGE('',*,*,#625,.F.);
#910=ORIENTED_EDGE('',*,*,#620,.F.);
#911=ORIENTED_EDGE('',*,*,#617,.F.);
#912=ORIENTED_EDGE('',*,*,#653,.T.);
#913=ORIENTED_EDGE('',*,*,#672,.F.);
#914=ORIENTED_EDGE('',*,*,#608,.F.);
#915=ORIENTED_EDGE('',*,*,#665,.F.);
#916=ORIENTED_EDGE('',*,*,#673,.F.);
#917=ORIENTED_EDGE('',*,*,#552,.F.);
#918=ORIENTED_EDGE('',*,*,#584,.T.);
#919=ORIENTED_EDGE('',*,*,#570,.F.);
#920=ORIENTED_EDGE('',*,*,#674,.F.);
#921=ORIENTED_EDGE('',*,*,#675,.T.);
#922=ORIENTED_EDGE('',*,*,#594,.F.);
#923=ORIENTED_EDGE('',*,*,#676,.F.);
#924=ORIENTED_EDGE('',*,*,#677,.T.);
#925=ORIENTED_EDGE('',*,*,#678,.T.);
#926=ORIENTED_EDGE('',*,*,#595,.F.);
#927=ORIENTED_EDGE('',*,*,#675,.F.);
#928=ORIENTED_EDGE('',*,*,#679,.T.);
#929=ORIENTED_EDGE('',*,*,#680,.T.);
#930=ORIENTED_EDGE('',*,*,#596,.F.);
#931=ORIENTED_EDGE('',*,*,#678,.F.);
#932=ORIENTED_EDGE('',*,*,#681,.F.);
#933=ORIENTED_EDGE('',*,*,#597,.F.);
#934=ORIENTED_EDGE('',*,*,#680,.F.);
#935=ORIENTED_EDGE('',*,*,#682,.T.);
#936=ORIENTED_EDGE('',*,*,#598,.T.);
#937=ORIENTED_EDGE('',*,*,#681,.T.);
#938=ORIENTED_EDGE('',*,*,#683,.T.);
#939=ORIENTED_EDGE('',*,*,#684,.T.);
#940=ORIENTED_EDGE('',*,*,#684,.F.);
#941=ORIENTED_EDGE('',*,*,#685,.F.);
#942=ORIENTED_EDGE('',*,*,#579,.F.);
#943=ORIENTED_EDGE('',*,*,#599,.F.);
#944=ORIENTED_EDGE('',*,*,#686,.F.);
#945=ORIENTED_EDGE('',*,*,#687,.T.);
#946=ORIENTED_EDGE('',*,*,#667,.F.);
#947=ORIENTED_EDGE('',*,*,#602,.F.);
#948=ORIENTED_EDGE('',*,*,#673,.T.);
#949=ORIENTED_EDGE('',*,*,#664,.F.);
#950=ORIENTED_EDGE('',*,*,#662,.F.);
#951=ORIENTED_EDGE('',*,*,#660,.T.);
#952=ORIENTED_EDGE('',*,*,#658,.F.);
#953=ORIENTED_EDGE('',*,*,#671,.T.);
#954=ORIENTED_EDGE('',*,*,#670,.T.);
#955=ORIENTED_EDGE('',*,*,#668,.F.);
#956=ORIENTED_EDGE('',*,*,#687,.F.);
#957=ORIENTED_EDGE('',*,*,#688,.T.);
#958=ORIENTED_EDGE('',*,*,#566,.F.);
#959=ORIENTED_EDGE('',*,*,#553,.F.);
#960=ORIENTED_EDGE('',*,*,#689,.T.);
#961=ORIENTED_EDGE('',*,*,#690,.T.);
#962=ORIENTED_EDGE('',*,*,#589,.T.);
#963=ORIENTED_EDGE('',*,*,#564,.T.);
#964=ORIENTED_EDGE('',*,*,#691,.F.);
#965=ORIENTED_EDGE('',*,*,#692,.T.);
#966=ORIENTED_EDGE('',*,*,#672,.T.);
#967=ORIENTED_EDGE('',*,*,#692,.F.);
#968=ORIENTED_EDGE('',*,*,#693,.F.);
#969=ORIENTED_EDGE('',*,*,#590,.F.);
#970=ORIENTED_EDGE('',*,*,#690,.F.);
#971=ORIENTED_EDGE('',*,*,#694,.T.);
#972=ORIENTED_EDGE('',*,*,#695,.F.);
#973=ORIENTED_EDGE('',*,*,#676,.T.);
#974=ORIENTED_EDGE('',*,*,#593,.F.);
#975=ORIENTED_EDGE('',*,*,#696,.F.);
#976=ORIENTED_EDGE('',*,*,#697,.F.);
#977=ORIENTED_EDGE('',*,*,#694,.F.);
#978=ORIENTED_EDGE('',*,*,#689,.F.);
#979=ORIENTED_EDGE('',*,*,#563,.F.);
#980=ORIENTED_EDGE('',*,*,#567,.F.);
#981=ORIENTED_EDGE('',*,*,#688,.F.);
#982=ORIENTED_EDGE('',*,*,#686,.T.);
#983=ORIENTED_EDGE('',*,*,#601,.T.);
#984=ORIENTED_EDGE('',*,*,#580,.F.);
#985=ORIENTED_EDGE('',*,*,#685,.T.);
#986=ORIENTED_EDGE('',*,*,#683,.F.);
#987=ORIENTED_EDGE('',*,*,#682,.F.);
#988=ORIENTED_EDGE('',*,*,#679,.F.);
#989=ORIENTED_EDGE('',*,*,#677,.F.);
#990=ORIENTED_EDGE('',*,*,#674,.T.);
#991=ORIENTED_EDGE('',*,*,#695,.T.);
#992=ORIENTED_EDGE('',*,*,#698,.F.);
#993=ORIENTED_EDGE('',*,*,#691,.T.);
#994=ORIENTED_EDGE('',*,*,#591,.T.);
#995=ORIENTED_EDGE('',*,*,#693,.T.);
#996=ORIENTED_EDGE('',*,*,#697,.T.);
#997=ORIENTED_EDGE('',*,*,#699,.T.);
#998=ORIENTED_EDGE('',*,*,#699,.F.);
#999=ORIENTED_EDGE('',*,*,#698,.T.);
#1000=ORIENTED_EDGE('',*,*,#696,.T.);
#1001=ORIENTED_EDGE('',*,*,#592,.F.);
#1002=ORIENTED_EDGE('',*,*,#609,.T.);
#1003=ORIENTED_EDGE('',*,*,#611,.F.);
#1004=TOROIDAL_SURFACE('',#1081,3.,1.);
#1005=TOROIDAL_SURFACE('',#1088,3.,1.);
#1006=TOROIDAL_SURFACE('',#1091,3.75,1.);
#1007=TOROIDAL_SURFACE('',#1103,3.5,1.);
#1008=ADVANCED_FACE('',(#281),#1004,.T.);
#1009=ADVANCED_FACE('',(#282),#260,.T.);
#1010=ADVANCED_FACE('',(#283),#1005,.T.);
#1011=ADVANCED_FACE('',(#284),#1006,.T.);
#1012=ADVANCED_FACE('',(#285),#261,.T.);
#1013=ADVANCED_FACE('',(#286),#262,.F.);
#1014=ADVANCED_FACE('',(#287),#263,.T.);
#1015=ADVANCED_FACE('',(#288),#264,.T.);
#1016=ADVANCED_FACE('',(#289),#1007,.T.);
#1017=ADVANCED_FACE('',(#290),#265,.F.);
#1018=ADVANCED_FACE('',(#291),#19,.T.);
#1019=ADVANCED_FACE('',(#292),#266,.T.);
#1020=ADVANCED_FACE('',(#293),#20,.F.);
#1021=ADVANCED_FACE('',(#294),#21,.T.);
#1022=ADVANCED_FACE('',(#295),#267,.T.);
#1023=ADVANCED_FACE('',(#296),#22,.T.);
#1024=ADVANCED_FACE('',(#297),#268,.F.);
#1025=ADVANCED_FACE('',(#298),#23,.T.);
#1026=ADVANCED_FACE('',(#299),#24,.F.);
#1027=ADVANCED_FACE('',(#300),#269,.F.);
#1028=ADVANCED_FACE('',(#301),#25,.T.);
#1029=ADVANCED_FACE('',(#302),#270,.F.);
#1030=ADVANCED_FACE('',(#303),#271,.T.);
#1031=ADVANCED_FACE('',(#304),#272,.F.);
#1032=ADVANCED_FACE('',(#305),#26,.T.);
#1033=ADVANCED_FACE('',(#306),#273,.T.);
#1034=ADVANCED_FACE('',(#307),#27,.T.);
#1035=ADVANCED_FACE('',(#308),#28,.T.);
#1036=ADVANCED_FACE('',(#309),#29,.T.);
#1037=ADVANCED_FACE('',(#310),#30,.T.);
#1038=ADVANCED_FACE('',(#311),#31,.T.);
#1039=ADVANCED_FACE('',(#312),#274,.T.);
#1040=ADVANCED_FACE('',(#313),#275,.F.);
#1041=ADVANCED_FACE('',(#314),#32,.T.);
#1042=ADVANCED_FACE('',(#315),#276,.F.);
#1043=ADVANCED_FACE('',(#316,#15),#33,.T.);
#1044=ADVANCED_FACE('',(#317),#34,.T.);
#1045=ADVANCED_FACE('',(#318),#35,.T.);
#1046=ADVANCED_FACE('',(#319),#36,.T.);
#1047=ADVANCED_FACE('',(#320),#37,.T.);
#1048=ADVANCED_FACE('',(#321,#16),#38,.F.);
#1049=ADVANCED_FACE('',(#322),#39,.F.);
#1050=ADVANCED_FACE('',(#323),#40,.T.);
#1051=ADVANCED_FACE('',(#324),#41,.T.);
#1052=ADVANCED_FACE('',(#325),#42,.T.);
#1053=ADVANCED_FACE('',(#326),#43,.T.);
#1054=ADVANCED_FACE('',(#327),#44,.T.);
#1055=ADVANCED_FACE('',(#328),#277,.T.);
#1056=ADVANCED_FACE('',(#329),#45,.T.);
#1057=ADVANCED_FACE('',(#330),#46,.T.);
#1058=ADVANCED_FACE('',(#331),#47,.T.);
#1059=ADVANCED_FACE('',(#332),#278,.F.);
#1060=ADVANCED_FACE('',(#333),#279,.F.);
#1061=ADVANCED_FACE('',(#334),#48,.T.);
#1062=ADVANCED_FACE('',(#335),#49,.T.);
#1063=ADVANCED_FACE('',(#336,#17),#50,.F.);
#1064=ADVANCED_FACE('',(#337),#280,.T.);
#1065=ADVANCED_FACE('',(#338,#18),#51,.T.);
#1066=ADVANCED_FACE('',(#339),#52,.T.);
#1067=CLOSED_SHELL('',(#1008,#1009,#1010,#1011,#1012,#1013,#1014,#1015,
#1016,#1017,#1018,#1019,#1020,#1021,#1022,#1023,#1024,#1025,#1026,#1027,
#1028,#1029,#1030,#1031,#1032,#1033,#1034,#1035,#1036,#1037,#1038,#1039,
#1040,#1041,#1042,#1043,#1044,#1045,#1046,#1047,#1048,#1049,#1050,#1051,
#1052,#1053,#1054,#1055,#1056,#1057,#1058,#1059,#1060,#1061,#1062,#1063,
#1064,#1065,#1066));
#1068=DERIVED_UNIT_ELEMENT(#1070,1.);
#1069=DERIVED_UNIT_ELEMENT(#1850,-3.);
#1070=(
MASS_UNIT()
NAMED_UNIT(*)
SI_UNIT(.KILO.,.GRAM.)
);
#1071=DERIVED_UNIT((#1068,#1069));
#1072=MEASURE_REPRESENTATION_ITEM('density measure',
POSITIVE_RATIO_MEASURE(7850.),#1071);
#1073=PROPERTY_DEFINITION_REPRESENTATION(#1078,#1075);
#1074=PROPERTY_DEFINITION_REPRESENTATION(#1079,#1076);
#1075=REPRESENTATION('material name',(#1077),#1847);
#1076=REPRESENTATION('density',(#1072),#1847);
#1077=DESCRIPTIVE_REPRESENTATION_ITEM('Steel','Steel');
#1078=PROPERTY_DEFINITION('material property','material name',#1857);
#1079=PROPERTY_DEFINITION('material property','density of part',#1857);
#1080=AXIS2_PLACEMENT_3D('',#1499,#1186,#1187);
#1081=AXIS2_PLACEMENT_3D('',#1500,#1188,#1189);
#1082=AXIS2_PLACEMENT_3D('',#1503,#1190,#1191);
#1083=AXIS2_PLACEMENT_3D('',#1505,#1192,#1193);
#1084=AXIS2_PLACEMENT_3D('',#1507,#1194,#1195);
#1085=AXIS2_PLACEMENT_3D('',#1508,#1196,#1197);
#1086=AXIS2_PLACEMENT_3D('',#1509,#1198,#1199);
#1087=AXIS2_PLACEMENT_3D('',#1512,#1200,#1201);
#1088=AXIS2_PLACEMENT_3D('',#1515,#1204,#1205);
#1089=AXIS2_PLACEMENT_3D('',#1530,#1206,#1207);
#1090=AXIS2_PLACEMENT_3D('',#1531,#1208,#1209);
#1091=AXIS2_PLACEMENT_3D('',#1532,#1210,#1211);
#1092=AXIS2_PLACEMENT_3D('',#1539,#1212,#1213);
#1093=AXIS2_PLACEMENT_3D('',#1548,#1214,#1215);
#1094=AXIS2_PLACEMENT_3D('',#1554,#1218,#1219);
#1095=AXIS2_PLACEMENT_3D('',#1557,#1221,#1222);
#1096=AXIS2_PLACEMENT_3D('',#1558,#1223,#1224);
#1097=AXIS2_PLACEMENT_3D('',#1561,#1226,#1227);
#1098=AXIS2_PLACEMENT_3D('',#1562,#1228,#1229);
#1099=AXIS2_PLACEMENT_3D('',#1565,#1230,#1231);
#1100=AXIS2_PLACEMENT_3D('',#1569,#1233,#1234);
#1101=AXIS2_PLACEMENT_3D('',#1571,#1236,#1237);
#1102=AXIS2_PLACEMENT_3D('',#1582,#1238,#1239);
#1103=AXIS2_PLACEMENT_3D('',#1584,#1241,#1242);
#1104=AXIS2_PLACEMENT_3D('',#1594,#1243,#1244);
#1105=AXIS2_PLACEMENT_3D('',#1595,#1245,#1246);
#1106=AXIS2_PLACEMENT_3D('',#1599,#1248,#1249);
#1107=AXIS2_PLACEMENT_3D('',#1603,#1251,#1252);
#1108=AXIS2_PLACEMENT_3D('',#1605,#1254,#1255);
#1109=AXIS2_PLACEMENT_3D('',#1608,#1257,#1258);
#1110=AXIS2_PLACEMENT_3D('',#1610,#1260,#1261);
#1111=AXIS2_PLACEMENT_3D('',#1612,#1262,#1263);
#1112=AXIS2_PLACEMENT_3D('',#1614,#1265,#1266);
#1113=AXIS2_PLACEMENT_3D('',#1618,#1269,#1270);
#1114=AXIS2_PLACEMENT_3D('',#1620,#1271,#1272);
#1115=AXIS2_PLACEMENT_3D('',#1624,#1274,#1275);
#1116=AXIS2_PLACEMENT_3D('',#1638,#1282,#1283);
#1117=AXIS2_PLACEMENT_3D('',#1640,#1285,#1286);
#1118=AXIS2_PLACEMENT_3D('',#1641,#1287,#1288);
#1119=AXIS2_PLACEMENT_3D('',#1642,#1289,#1290);
#1120=AXIS2_PLACEMENT_3D('',#1658,#1299,#1300);
#1121=AXIS2_PLACEMENT_3D('',#1660,#1301,#1302);
#1122=AXIS2_PLACEMENT_3D('',#1663,#1304,#1305);
#1123=AXIS2_PLACEMENT_3D('',#1664,#1306,#1307);
#1124=AXIS2_PLACEMENT_3D('',#1666,#1308,#1309);
#1125=AXIS2_PLACEMENT_3D('',#1667,#1310,#1311);
#1126=AXIS2_PLACEMENT_3D('',#1669,#1312,#1313);
#1127=AXIS2_PLACEMENT_3D('',#1670,#1314,#1315);
#1128=AXIS2_PLACEMENT_3D('',#1672,#1316,#1317);
#1129=AXIS2_PLACEMENT_3D('',#1674,#1319,#1320);
#1130=AXIS2_PLACEMENT_3D('',#1683,#1325,#1326);
#1131=AXIS2_PLACEMENT_3D('',#1685,#1327,#1328);
#1132=AXIS2_PLACEMENT_3D('',#1688,#1330,#1331);
#1133=AXIS2_PLACEMENT_3D('',#1689,#1332,#1333);
#1134=AXIS2_PLACEMENT_3D('',#1693,#1335,#1336);
#1135=AXIS2_PLACEMENT_3D('',#1694,#1337,#1338);
#1136=AXIS2_PLACEMENT_3D('',#1695,#1339,#1340);
#1137=AXIS2_PLACEMENT_3D('',#1697,#1341,#1342);
#1138=AXIS2_PLACEMENT_3D('',#1700,#1344,#1345);
#1139=AXIS2_PLACEMENT_3D('',#1701,#1346,#1347);
#1140=AXIS2_PLACEMENT_3D('',#1707,#1351,#1352);
#1141=AXIS2_PLACEMENT_3D('',#1709,#1353,#1354);
#1142=AXIS2_PLACEMENT_3D('',#1711,#1355,#1356);
#1143=AXIS2_PLACEMENT_3D('',#1713,#1358,#1359);
#1144=AXIS2_PLACEMENT_3D('',#1722,#1364,#1365);
#1145=AXIS2_PLACEMENT_3D('',#1728,#1369,#1370);
#1146=AXIS2_PLACEMENT_3D('',#1734,#1374,#1375);
#1147=AXIS2_PLACEMENT_3D('',#1740,#1379,#1380);
#1148=AXIS2_PLACEMENT_3D('',#1746,#1384,#1385);
#1149=AXIS2_PLACEMENT_3D('',#1747,#1386,#1387);
#1150=AXIS2_PLACEMENT_3D('',#1748,#1388,#1389);
#1151=AXIS2_PLACEMENT_3D('',#1749,#1390,#1391);
#1152=AXIS2_PLACEMENT_3D('',#1751,#1392,#1393);
#1153=AXIS2_PLACEMENT_3D('',#1753,#1395,#1396);
#1154=AXIS2_PLACEMENT_3D('',#1756,#1399,#1400);
#1155=AXIS2_PLACEMENT_3D('',#1758,#1401,#1402);
#1156=AXIS2_PLACEMENT_3D('',#1761,#1404,#1405);
#1157=AXIS2_PLACEMENT_3D('',#1762,#1406,#1407);
#1158=AXIS2_PLACEMENT_3D('',#1766,#1410,#1411);
#1159=AXIS2_PLACEMENT_3D('',#1770,#1414,#1415);
#1160=AXIS2_PLACEMENT_3D('',#1774,#1418,#1419);
#1161=AXIS2_PLACEMENT_3D('',#1780,#1423,#1424);
#1162=AXIS2_PLACEMENT_3D('',#1784,#1427,#1428);
#1163=AXIS2_PLACEMENT_3D('',#1786,#1430,#1431);
#1164=AXIS2_PLACEMENT_3D('',#1788,#1432,#1433);
#1165=AXIS2_PLACEMENT_3D('',#1789,#1434,#1435);
#1166=AXIS2_PLACEMENT_3D('',#1791,#1437,#1438);
#1167=AXIS2_PLACEMENT_3D('',#1797,#1442,#1443);
#1168=AXIS2_PLACEMENT_3D('',#1801,#1446,#1447);
#1169=AXIS2_PLACEMENT_3D('',#1805,#1450,#1451);
#1170=AXIS2_PLACEMENT_3D('',#1809,#1454,#1455);
#1171=AXIS2_PLACEMENT_3D('',#1811,#1456,#1457);
#1172=AXIS2_PLACEMENT_3D('',#1813,#1459,#1460);
#1173=AXIS2_PLACEMENT_3D('',#1815,#1462,#1463);
#1174=AXIS2_PLACEMENT_3D('',#1819,#1466,#1467);
#1175=AXIS2_PLACEMENT_3D('',#1821,#1469,#1470);
#1176=AXIS2_PLACEMENT_3D('',#1823,#1471,#1472);
#1177=AXIS2_PLACEMENT_3D('',#1825,#1474,#1475);
#1178=AXIS2_PLACEMENT_3D('',#1827,#1476,#1477);
#1179=AXIS2_PLACEMENT_3D('',#1829,#1479,#1480);
#1180=AXIS2_PLACEMENT_3D('',#1833,#1483,#1484);
#1181=AXIS2_PLACEMENT_3D('',#1837,#1487,#1488);
#1182=AXIS2_PLACEMENT_3D('',#1839,#1489,#1490);
#1183=AXIS2_PLACEMENT_3D('',#1841,#1492,#1493);
#1184=AXIS2_PLACEMENT_3D('',#1843,#1495,#1496);
#1185=AXIS2_PLACEMENT_3D('',#1844,#1497,#1498);
#1186=DIRECTION('axis',(0.,0.,1.));
#1187=DIRECTION('refdir',(1.,0.,0.));
#1188=DIRECTION('center_axis',(0.,0.,1.));
#1189=DIRECTION('ref_axis',(1.,0.,0.));
#1190=DIRECTION('center_axis',(-0.715652745480889,0.698456260538672,0.));
#1191=DIRECTION('ref_axis',(-0.698456260538672,-0.715652745480889,0.));
#1192=DIRECTION('center_axis',(0.,0.,1.));
#1193=DIRECTION('ref_axis',(0.693888666488711,0.720082299823095,0.));
#1194=DIRECTION('center_axis',(1.,0.,0.));
#1195=DIRECTION('ref_axis',(0.,0.,1.));
#1196=DIRECTION('center_axis',(0.,0.,-1.));
#1197=DIRECTION('ref_axis',(0.693888666488711,0.720082299823095,0.));
#1198=DIRECTION('center_axis',(-1.,0.,0.));
#1199=DIRECTION('ref_axis',(0.,-0.707106781186549,0.707106781186546));
#1200=DIRECTION('center_axis',(-1.,-7.40148683083438E-16,0.));
#1201=DIRECTION('ref_axis',(0.,-0.707106781186549,0.707106781186546));
#1202=DIRECTION('',(1.,0.,0.));
#1203=DIRECTION('',(-1.,0.,0.));
#1204=DIRECTION('center_axis',(0.,0.,1.));
#1205=DIRECTION('ref_axis',(1.,0.,0.));
#1206=DIRECTION('center_axis',(0.,0.,-1.));
#1207=DIRECTION('ref_axis',(0.999313893572744,0.0370370370370371,0.));
#1208=DIRECTION('center_axis',(-0.0370370370370366,0.999313893572744,0.));
#1209=DIRECTION('ref_axis',(-0.999313893572744,-0.0370370370370366,0.));
#1210=DIRECTION('center_axis',(0.,0.,-1.));
#1211=DIRECTION('ref_axis',(-1.,0.,0.));
#1212=DIRECTION('center_axis',(0.,0.,1.));
#1213=DIRECTION('ref_axis',(-0.961143777139474,-0.27604825604605,0.));
#1214=DIRECTION('center_axis',(0.,0.,1.));
#1215=DIRECTION('ref_axis',(1.,0.,0.));
#1216=DIRECTION('',(0.,0.,-1.));
#1217=DIRECTION('',(0.,0.,1.));
#1218=DIRECTION('center_axis',(0.,0.,1.));
#1219=DIRECTION('ref_axis',(1.,0.,0.));
#1220=DIRECTION('',(0.,0.,-1.));
#1221=DIRECTION('center_axis',(0.,0.,1.));
#1222=DIRECTION('ref_axis',(1.,0.,0.));
#1223=DIRECTION('center_axis',(0.,0.,1.));
#1224=DIRECTION('ref_axis',(0.693888666488711,0.720082299823096,0.));
#1225=DIRECTION('',(0.,0.,-1.));
#1226=DIRECTION('center_axis',(0.,0.,-1.));
#1227=DIRECTION('ref_axis',(0.693888666488711,0.720082299823096,0.));
#1228=DIRECTION('center_axis',(-1.,0.,0.));
#1229=DIRECTION('ref_axis',(0.,0.707106781186549,0.707106781186546));
#1230=DIRECTION('center_axis',(-1.,0.,0.));
#1231=DIRECTION('ref_axis',(0.,0.,1.));
#1232=DIRECTION('',(-1.,0.,0.));
#1233=DIRECTION('center_axis',(-1.,-7.40148683083438E-16,0.));
#1234=DIRECTION('ref_axis',(0.,0.707106781186549,0.707106781186546));
#1235=DIRECTION('',(1.,0.,0.));
#1236=DIRECTION('center_axis',(-1.,0.,0.));
#1237=DIRECTION('ref_axis',(0.,0.707106781186549,0.707106781186546));
#1238=DIRECTION('center_axis',(-1.,0.,0.));
#1239=DIRECTION('ref_axis',(0.,0.,1.));
#1240=DIRECTION('',(-1.,0.,0.));
#1241=DIRECTION('center_axis',(0.,0.,-1.));
#1242=DIRECTION('ref_axis',(-1.,0.,0.));
#1243=DIRECTION('center_axis',(0.,0.,-1.));
#1244=DIRECTION('ref_axis',(0.12315985734254,-0.992386844702894,0.));
#1245=DIRECTION('center_axis',(0.,0.,1.));
#1246=DIRECTION('ref_axis',(0.707106781186547,-0.707106781186547,0.));
#1247=DIRECTION('',(0.,0.,-1.));
#1248=DIRECTION('center_axis',(0.,0.,1.));
#1249=DIRECTION('ref_axis',(0.707106781186547,-0.707106781186547,0.));
#1250=DIRECTION('',(0.,0.,-1.));
#1251=DIRECTION('center_axis',(0.,0.,-1.));
#1252=DIRECTION('ref_axis',(0.707106781186547,-0.707106781186547,0.));
#1253=DIRECTION('',(0.,0.,1.));
#1254=DIRECTION('center_axis',(0.,0.,1.));
#1255=DIRECTION('ref_axis',(-1.,0.,0.));
#1256=DIRECTION('',(4.08239874841454E-16,-1.,0.));
#1257=DIRECTION('center_axis',(0.,0.,-1.));
#1258=DIRECTION('ref_axis',(1.,2.77555756156289E-16,0.));
#1259=DIRECTION('',(0.,1.,0.));
#1260=DIRECTION('center_axis',(0.,0.,-1.));
#1261=DIRECTION('ref_axis',(-0.966091783079297,-0.258198889747158,0.));
#1262=DIRECTION('center_axis',(0.,0.,-1.));
#1263=DIRECTION('ref_axis',(-0.966091783079297,-0.258198889747158,0.));
#1264=DIRECTION('',(0.,0.,-1.));
#1265=DIRECTION('center_axis',(1.,4.08239874841454E-16,0.));
#1266=DIRECTION('ref_axis',(4.08239874841454E-16,-1.,0.));
#1267=DIRECTION('',(4.08239874841454E-16,-1.,0.));
#1268=DIRECTION('',(0.,0.,1.));
#1269=DIRECTION('center_axis',(0.,0.,1.));
#1270=DIRECTION('ref_axis',(1.,0.,0.));
#1271=DIRECTION('center_axis',(0.,0.,1.));
#1272=DIRECTION('ref_axis',(0.720082299823095,0.693888666488711,0.));
#1273=DIRECTION('',(0.,-1.,0.));
#1274=DIRECTION('center_axis',(0.,0.,-1.));
#1275=DIRECTION('ref_axis',(0.707106781186547,-0.707106781186548,0.));
#1276=DIRECTION('',(0.,1.,0.));
#1277=DIRECTION('',(1.,0.,0.));
#1278=DIRECTION('',(0.,-1.,0.));
#1279=DIRECTION('',(-1.,0.,0.));
#1280=DIRECTION('',(0.,1.,0.));
#1281=DIRECTION('',(-1.,0.,0.));
#1282=DIRECTION('center_axis',(0.,0.,-1.));
#1283=DIRECTION('ref_axis',(-0.707106781186548,0.707106781186548,0.));
#1284=DIRECTION('',(0.,-1.,0.));
#1285=DIRECTION('center_axis',(0.,0.,-1.));
#1286=DIRECTION('ref_axis',(1.,2.77555756156289E-16,0.));
#1287=DIRECTION('center_axis',(0.,0.,-1.));
#1288=DIRECTION('ref_axis',(1.,2.77555756156289E-16,0.));
#1289=DIRECTION('center_axis',(0.,1.,0.));
#1290=DIRECTION('ref_axis',(-1.,0.,0.));
#1291=DIRECTION('',(1.,0.,0.));
#1292=DIRECTION('',(0.,0.,-1.));
#1293=DIRECTION('',(1.,0.,0.));
#1294=DIRECTION('',(0.,0.,-1.));
#1295=DIRECTION('',(0.,0.,1.));
#1296=DIRECTION('',(0.,0.,1.));
#1297=DIRECTION('',(-1.,0.,0.));
#1298=DIRECTION('',(0.,0.,-1.));
#1299=DIRECTION('center_axis',(-1.,0.,0.));
#1300=DIRECTION('ref_axis',(0.,1.,0.));
#1301=DIRECTION('center_axis',(-1.,0.,0.));
#1302=DIRECTION('ref_axis',(0.,1.,0.));
#1303=DIRECTION('',(-1.,0.,0.));
#1304=DIRECTION('center_axis',(-1.,0.,0.));
#1305=DIRECTION('ref_axis',(0.,1.,0.));
#1306=DIRECTION('center_axis',(0.,0.,1.));
#1307=DIRECTION('ref_axis',(1.,0.,0.));
#1308=DIRECTION('center_axis',(0.,0.,-1.));
#1309=DIRECTION('ref_axis',(1.,0.,0.));
#1310=DIRECTION('center_axis',(0.,0.,1.));
#1311=DIRECTION('ref_axis',(1.,0.,0.));
#1312=DIRECTION('center_axis',(0.,0.,1.));
#1313=DIRECTION('ref_axis',(1.,0.,0.));
#1314=DIRECTION('center_axis',(0.,0.,-1.));
#1315=DIRECTION('ref_axis',(1.,0.,0.));
#1316=DIRECTION('center_axis',(0.,0.,-1.));
#1317=DIRECTION('ref_axis',(1.,0.,0.));
#1318=DIRECTION('',(0.,0.,-1.));
#1319=DIRECTION('center_axis',(0.,-1.,0.));
#1320=DIRECTION('ref_axis',(1.,0.,0.));
#1321=DIRECTION('',(0.,0.,1.));
#1322=DIRECTION('',(1.,0.,0.));
#1323=DIRECTION('',(0.,0.,-1.));
#1324=DIRECTION('',(1.,0.,0.));
#1325=DIRECTION('center_axis',(0.,0.,1.));
#1326=DIRECTION('ref_axis',(0.647576125802734,0.762000762001142,0.));
#1327=DIRECTION('center_axis',(0.,0.,-1.));
#1328=DIRECTION('ref_axis',(0.647576125802734,0.762000762001142,0.));
#1329=DIRECTION('',(0.,0.,1.));
#1330=DIRECTION('center_axis',(0.,0.,1.));
#1331=DIRECTION('ref_axis',(0.647576125802734,0.762000762001142,0.));
#1332=DIRECTION('center_axis',(0.,0.,1.));
#1333=DIRECTION('ref_axis',(1.,0.,0.));
#1334=DIRECTION('',(0.,0.,-1.));
#1335=DIRECTION('center_axis',(0.,0.,1.));
#1336=DIRECTION('ref_axis',(1.,0.,0.));
#1337=DIRECTION('center_axis',(0.,0.,1.));
#1338=DIRECTION('ref_axis',(1.,0.,0.));
#1339=DIRECTION('center_axis',(0.,0.,1.));
#1340=DIRECTION('ref_axis',(-0.491303684440517,0.870988340711386,0.));
#1341=DIRECTION('center_axis',(0.,0.,-1.));
#1342=DIRECTION('ref_axis',(-0.491303684440517,0.870988340711386,0.));
#1343=DIRECTION('',(0.,0.,1.));
#1344=DIRECTION('center_axis',(0.,0.,1.));
#1345=DIRECTION('ref_axis',(-0.491303684440517,0.870988340711386,0.));
#1346=DIRECTION('center_axis',(0.,-1.,0.));
#1347=DIRECTION('ref_axis',(1.,0.,0.));
#1348=DIRECTION('',(1.,0.,0.));
#1349=DIRECTION('',(0.,0.,-1.));
#1350=DIRECTION('',(1.,0.,0.));
#1351=DIRECTION('center_axis',(0.,0.,1.));
#1352=DIRECTION('ref_axis',(0.465474668125632,-0.885061203156783,0.));
#1353=DIRECTION('center_axis',(0.,0.,-1.));
#1354=DIRECTION('ref_axis',(0.465474668125632,-0.885061203156783,0.));
#1355=DIRECTION('center_axis',(0.,0.,1.));
#1356=DIRECTION('ref_axis',(0.465474668125632,-0.885061203156783,0.));
#1357=DIRECTION('',(0.,0.,1.));
#1358=DIRECTION('center_axis',(9.25185853854298E-17,1.,0.));
#1359=DIRECTION('ref_axis',(-1.,9.25185853854298E-17,0.));
#1360=DIRECTION('',(1.,-9.25185853854298E-17,0.));
#1361=DIRECTION('',(0.,0.,-1.));
#1362=DIRECTION('',(-1.,9.25185853854298E-17,0.));
#1363=DIRECTION('',(0.,0.,1.));
#1364=DIRECTION('center_axis',(-1.,0.,0.));
#1365=DIRECTION('ref_axis',(0.,-1.,0.));
#1366=DIRECTION('',(0.,1.,0.));
#1367=DIRECTION('',(0.,0.,1.));
#1368=DIRECTION('',(0.,1.,0.));
#1369=DIRECTION('center_axis',(0.,1.,0.));
#1370=DIRECTION('ref_axis',(-1.,0.,0.));
#1371=DIRECTION('',(1.,0.,0.));
#1372=DIRECTION('',(0.,0.,1.));
#1373=DIRECTION('',(1.,0.,0.));
#1374=DIRECTION('center_axis',(1.,0.,0.));
#1375=DIRECTION('ref_axis',(0.,1.,0.));
#1376=DIRECTION('',(0.,-1.,0.));
#1377=DIRECTION('',(0.,0.,1.));
#1378=DIRECTION('',(0.,-1.,0.));
#1379=DIRECTION('center_axis',(0.,1.,0.));
#1380=DIRECTION('ref_axis',(-1.,0.,0.));
#1381=DIRECTION('',(0.,0.,-1.));
#1382=DIRECTION('',(-1.,0.,0.));
#1383=DIRECTION('',(-1.,0.,0.));
#1384=DIRECTION('center_axis',(0.,0.,1.));
#1385=DIRECTION('ref_axis',(-0.707106781186548,0.707106781186547,0.));
#1386=DIRECTION('center_axis',(0.,0.,-1.));
#1387=DIRECTION('ref_axis',(-0.707106781186548,-0.707106781186547,0.));
#1388=DIRECTION('center_axis',(0.,0.,1.));
#1389=DIRECTION('ref_axis',(-0.707106781186548,-0.707106781186547,0.));
#1390=DIRECTION('center_axis',(0.,0.,1.));
#1391=DIRECTION('ref_axis',(1.,0.,0.));
#1392=DIRECTION('center_axis',(0.,0.,1.));
#1393=DIRECTION('ref_axis',(1.,0.,0.));
#1394=DIRECTION('',(0.,0.,1.));
#1395=DIRECTION('center_axis',(1.,0.,0.));
#1396=DIRECTION('ref_axis',(0.,1.,0.));
#1397=DIRECTION('',(0.,-1.,0.));
#1398=DIRECTION('',(0.,1.,0.));
#1399=DIRECTION('center_axis',(0.,0.,-1.));
#1400=DIRECTION('ref_axis',(-0.991071249821234,0.133333333333333,0.));
#1401=DIRECTION('center_axis',(0.,0.,-1.));
#1402=DIRECTION('ref_axis',(-0.991071249821234,0.133333333333333,0.));
#1403=DIRECTION('',(0.,0.,1.));
#1404=DIRECTION('center_axis',(0.,0.,1.));
#1405=DIRECTION('ref_axis',(-0.991071249821234,0.133333333333333,0.));
#1406=DIRECTION('center_axis',(0.,0.,1.));
#1407=DIRECTION('ref_axis',(1.,0.,0.));
#1408=DIRECTION('',(1.,0.,0.));
#1409=DIRECTION('',(0.,1.,0.));
#1410=DIRECTION('center_axis',(-1.,0.,0.));
#1411=DIRECTION('ref_axis',(0.,-1.,0.));
#1412=DIRECTION('',(0.,0.,1.));
#1413=DIRECTION('',(0.,-1.,0.));
#1414=DIRECTION('center_axis',(0.,0.,1.));
#1415=DIRECTION('ref_axis',(1.,0.,0.));
#1416=DIRECTION('',(1.,0.,0.));
#1417=DIRECTION('',(-7.40148683083438E-16,1.,0.));
#1418=DIRECTION('center_axis',(0.,0.,-1.));
#1419=DIRECTION('ref_axis',(-1.,0.,0.));
#1420=DIRECTION('',(0.,1.,0.));
#1421=DIRECTION('',(7.40148683083438E-16,-1.,0.));
#1422=DIRECTION('',(-1.,0.,0.));
#1423=DIRECTION('center_axis',(-1.,0.,0.));
#1424=DIRECTION('ref_axis',(0.,1.,0.));
#1425=DIRECTION('',(0.,-1.,0.));
#1426=DIRECTION('',(0.,0.,-1.));
#1427=DIRECTION('center_axis',(0.,0.,1.));
#1428=DIRECTION('ref_axis',(1.,0.,0.));
#1429=DIRECTION('',(-1.,0.,0.));
#1430=DIRECTION('center_axis',(0.,0.,1.));
#1431=DIRECTION('ref_axis',(1.,0.,0.));
#1432=DIRECTION('center_axis',(0.,0.,1.));
#1433=DIRECTION('ref_axis',(1.,0.,0.));
#1434=DIRECTION('center_axis',(1.,7.40148683083438E-16,0.));
#1435=DIRECTION('ref_axis',(-7.40148683083438E-16,1.,0.));
#1436=DIRECTION('',(0.,0.,1.));
#1437=DIRECTION('center_axis',(1.,0.,0.));
#1438=DIRECTION('ref_axis',(0.,1.,0.));
#1439=DIRECTION('',(0.,-1.,0.));
#1440=DIRECTION('',(0.,0.,1.));
#1441=DIRECTION('',(0.,0.,1.));
#1442=DIRECTION('center_axis',(0.,-1.,0.));
#1443=DIRECTION('ref_axis',(1.,0.,0.));
#1444=DIRECTION('',(-1.,0.,0.));
#1445=DIRECTION('',(0.,0.,1.));
#1446=DIRECTION('center_axis',(1.,0.,0.));
#1447=DIRECTION('ref_axis',(0.,1.,0.));
#1448=DIRECTION('',(0.,1.,0.));
#1449=DIRECTION('',(0.,0.,1.));
#1450=DIRECTION('center_axis',(0.,1.,0.));
#1451=DIRECTION('ref_axis',(-1.,0.,0.));
#1452=DIRECTION('',(0.,0.,-1.));
#1453=DIRECTION('',(-1.,0.,0.));
#1454=DIRECTION('center_axis',(0.,0.,1.));
#1455=DIRECTION('ref_axis',(-0.707106781186548,0.707106781186548,0.));
#1456=DIRECTION('center_axis',(0.,0.,1.));
#1457=DIRECTION('ref_axis',(-0.707106781186548,0.707106781186548,0.));
#1458=DIRECTION('',(0.,0.,1.));
#1459=DIRECTION('center_axis',(-1.,0.,0.));
#1460=DIRECTION('ref_axis',(0.,-1.,0.));
#1461=DIRECTION('',(0.,1.,0.));
#1462=DIRECTION('center_axis',(1.,7.40148683083438E-16,0.));
#1463=DIRECTION('ref_axis',(7.40148683083438E-16,-1.,0.));
#1464=DIRECTION('',(-7.40148683083438E-16,1.,0.));
#1465=DIRECTION('',(0.,0.,-1.));
#1466=DIRECTION('center_axis',(0.,-1.,0.));
#1467=DIRECTION('ref_axis',(1.,0.,0.));
#1468=DIRECTION('',(1.,0.,0.));
#1469=DIRECTION('center_axis',(0.,0.,1.));
#1470=DIRECTION('ref_axis',(0.720082299823095,0.693888666488711,0.));
#1471=DIRECTION('center_axis',(0.,0.,-1.));
#1472=DIRECTION('ref_axis',(0.720082299823095,0.693888666488711,0.));
#1473=DIRECTION('',(0.,0.,1.));
#1474=DIRECTION('center_axis',(0.,0.,1.));
#1475=DIRECTION('ref_axis',(1.,0.,0.));
#1476=DIRECTION('center_axis',(0.,0.,1.));
#1477=DIRECTION('ref_axis',(1.,0.,0.));
#1478=DIRECTION('',(0.,0.,1.));
#1479=DIRECTION('center_axis',(-1.,0.,0.));
#1480=DIRECTION('ref_axis',(0.,-1.,0.));
#1481=DIRECTION('',(0.,0.,-1.));
#1482=DIRECTION('',(0.,-1.,0.));
#1483=DIRECTION('center_axis',(0.,1.,0.));
#1484=DIRECTION('ref_axis',(-1.,0.,0.));
#1485=DIRECTION('',(1.,0.,0.));
#1486=DIRECTION('',(0.,0.,-1.));
#1487=DIRECTION('center_axis',(0.,0.,1.));
#1488=DIRECTION('ref_axis',(1.,0.,0.));
#1489=DIRECTION('center_axis',(0.,0.,1.));
#1490=DIRECTION('ref_axis',(0.707106781186547,-0.707106781186548,0.));
#1491=DIRECTION('',(0.,1.,0.));
#1492=DIRECTION('center_axis',(0.,0.,1.));
#1493=DIRECTION('ref_axis',(0.707106781186547,-0.707106781186548,0.));
#1494=DIRECTION('',(0.,0.,1.));
#1495=DIRECTION('center_axis',(1.,0.,0.));
#1496=DIRECTION('ref_axis',(0.,1.,0.));
#1497=DIRECTION('center_axis',(1.,0.,0.));
#1498=DIRECTION('ref_axis',(0.,1.,0.));
#1499=CARTESIAN_POINT('',(0.,0.,0.));
#1500=CARTESIAN_POINT('Origin',(-8.49536878161602,-6.5,62.));
#1501=CARTESIAN_POINT('',(-7.09845626053868,-5.06869450903822,62.));
#1502=CARTESIAN_POINT('',(-6.4,-4.35304176355733,63.));
#1503=CARTESIAN_POINT('Origin',(-6.4,-4.35304176355733,62.));
#1504=CARTESIAN_POINT('',(-8.49536878161602,-3.5,63.));
#1505=CARTESIAN_POINT('Origin',(-8.49536878161602,-6.5,63.));
#1506=CARTESIAN_POINT('',(-8.49536878161602,-4.5,62.));
#1507=CARTESIAN_POINT('Origin',(-8.49536878161602,-3.5,62.));
#1508=CARTESIAN_POINT('Origin',(-8.49536878161602,-6.5,62.));
#1509=CARTESIAN_POINT('Origin',(-15.15,-3.5,62.));
#1510=CARTESIAN_POINT('',(-11.4,-3.5,63.));
#1511=CARTESIAN_POINT('',(-11.4,-4.5,62.));
#1512=CARTESIAN_POINT('Origin',(-11.4,-3.5,62.));
#1513=CARTESIAN_POINT('',(-15.15,-4.5,62.));
#1514=CARTESIAN_POINT('',(-15.15,-3.5,63.));
#1515=CARTESIAN_POINT('Origin',(-8.49536878161602,-6.5,62.));
#1516=CARTESIAN_POINT('',(-6.4,-6.42234046612371,62.4292355458099));
#1517=CARTESIAN_POINT('Ctrl Pts',(-6.4,-4.35304176355733,63.));
#1518=CARTESIAN_POINT('Ctrl Pts',(-6.4,-4.62531827095719,63.));
#1519=CARTESIAN_POINT('Ctrl Pts',(-6.4,-4.94461096268464,62.9306757477983));
#1520=CARTESIAN_POINT('Ctrl Pts',(-6.4,-5.31173466825951,62.8081064353257));
#1521=CARTESIAN_POINT('Ctrl Pts',(-6.4,-5.44041428432938,62.759028690078));
#1522=CARTESIAN_POINT('Ctrl Pts',(-6.4,-5.60490813993156,62.6926345615968));
#1523=CARTESIAN_POINT('Ctrl Pts',(-6.4,-5.67433569235956,62.6638859780765));
#1524=CARTESIAN_POINT('Ctrl Pts',(-6.4,-5.79623339757997,62.613531550012));
#1525=CARTESIAN_POINT('Ctrl Pts',(-6.4,-5.87313280525251,62.5819758337482));
#1526=CARTESIAN_POINT('Ctrl Pts',(-6.4,-6.08438677795895,62.5003436988473));
#1527=CARTESIAN_POINT('Ctrl Pts',(-6.4,-6.25968389064504,62.4419118468537));
#1528=CARTESIAN_POINT('Ctrl Pts',(-6.4,-6.42234046612371,62.4292355458099));
#1529=CARTESIAN_POINT('',(-6.49674099447053,-6.42592592592593,62.));
#1530=CARTESIAN_POINT('Origin',(-8.49536878161602,-6.5,62.));
#1531=CARTESIAN_POINT('Origin',(-5.49742710089779,-6.38888888888889,62.));
#1532=CARTESIAN_POINT('Origin',(-1.75,-6.25,62.));
#1533=CARTESIAN_POINT('',(-6.4,-6.62416573859264,62.4033869859172));
#1534=CARTESIAN_POINT('Ctrl Pts',(-6.4,-6.42234046612371,62.4292355458099));
#1535=CARTESIAN_POINT('Ctrl Pts',(-6.4,-6.48909136960204,62.4240334533341));
#1536=CARTESIAN_POINT('Ctrl Pts',(-6.4,-6.55708934795341,62.4155907137031));
#1537=CARTESIAN_POINT('Ctrl Pts',(-6.4,-6.62416573859427,62.4033869859169));
#1538=CARTESIAN_POINT('',(-5.86666666666668,-8.6197163449568,62.));
#1539=CARTESIAN_POINT('Origin',(-1.75,-6.25,62.));
#1540=CARTESIAN_POINT('Ctrl Pts',(-6.4,-6.62416573858521,62.4033869859185));
#1541=CARTESIAN_POINT('Ctrl Pts',(-6.40000000000344,-6.77356010942299,62.3762065097845));
#1542=CARTESIAN_POINT('Ctrl Pts',(-6.39163048052158,-6.92303498929392,62.3484806767109));
#1543=CARTESIAN_POINT('Ctrl Pts',(-6.31400085367071,-7.61223668260234,62.2178722397546));
#1544=CARTESIAN_POINT('Ctrl Pts',(-6.14365909829353,-8.13400590380545,62.1110896306492));
#1545=CARTESIAN_POINT('Ctrl Pts',(-5.87210163710141,-8.61025234258159,62.0021683074879));
#1546=CARTESIAN_POINT('Ctrl Pts',(-5.86938899186469,-8.6149871268703,62.0010841542579));
#1547=CARTESIAN_POINT('Ctrl Pts',(-5.86666666666668,-8.6197163449568,62.));
#1548=CARTESIAN_POINT('Origin',(-1.75,-6.25,0.));
#1549=CARTESIAN_POINT('',(-5.86666666666668,-8.6197163449568,72.));
#1550=CARTESIAN_POINT('',(-5.86666666666668,-8.6197163449568,0.));
#1551=CARTESIAN_POINT('',(-6.49674099447053,-6.42592592592593,0.));
#1552=CARTESIAN_POINT('',(-6.49674099447053,-6.42592592592593,0.));
#1553=CARTESIAN_POINT('',(-1.92592592592593,-10.9967409944705,0.));
#1554=CARTESIAN_POINT('Origin',(-1.75,-6.25,0.));
#1555=CARTESIAN_POINT('',(-1.92592592592593,-10.9967409944705,72.));
#1556=CARTESIAN_POINT('',(-1.92592592592593,-10.9967409944705,0.));
#1557=CARTESIAN_POINT('Origin',(-1.75,-6.25,72.));
#1558=CARTESIAN_POINT('Origin',(-8.49536878161602,-6.5,0.));
#1559=CARTESIAN_POINT('',(-8.49536878161602,-4.5,0.));
#1560=CARTESIAN_POINT('',(-8.49536878161602,-4.5,0.));
#1561=CARTESIAN_POINT('Origin',(-8.49536878161602,-6.5,0.));
#1562=CARTESIAN_POINT('Origin',(-5.95,-2.5,62.));
#1563=CARTESIAN_POINT('',(-6.20399388052732,-2.5,63.));
#1564=CARTESIAN_POINT('',(-6.20399388052732,-1.5,62.));
#1565=CARTESIAN_POINT('Origin',(-6.20399388052732,-2.5,62.));
#1566=CARTESIAN_POINT('',(-11.4,-1.5,62.));
#1567=CARTESIAN_POINT('',(-5.95,-1.5,62.));
#1568=CARTESIAN_POINT('',(-11.4,-2.5,63.));
#1569=CARTESIAN_POINT('Origin',(-11.4,-2.5,62.));
#1570=CARTESIAN_POINT('',(-5.95,-2.5,63.));
#1571=CARTESIAN_POINT('Origin',(-5.95,-2.5,62.));
#1572=CARTESIAN_POINT('',(-5.5,-1.69315553700528,62.5907639228446));
#1573=CARTESIAN_POINT('Ctrl Pts',(-5.50000000000035,-1.69315553700551,62.5907639228449));
#1574=CARTESIAN_POINT('Ctrl Pts',(-5.52902978351629,-1.71227318147141,62.6168741252224));
#1575=CARTESIAN_POINT('Ctrl Pts',(-5.55792841125814,-1.73240207666965,62.641693851966));
#1576=CARTESIAN_POINT('Ctrl Pts',(-5.69847498602971,-1.83593022128788,62.7579498362437));
#1577=CARTESIAN_POINT('Ctrl Pts',(-5.81913001026005,-1.94425105031476,62.8433502132469));
#1578=CARTESIAN_POINT('Ctrl Pts',(-6.03576622210196,-2.20054726646498,62.9645850956117));
#1579=CARTESIAN_POINT('Ctrl Pts',(-6.1316309671575,-2.34881928904366,63.));
#1580=CARTESIAN_POINT('Ctrl Pts',(-6.20399388052732,-2.5,63.));
#1581=CARTESIAN_POINT('',(-5.5,-1.5,62.));
#1582=CARTESIAN_POINT('Origin',(-5.5,-2.5,62.));
#1583=CARTESIAN_POINT('',(-5.95,-1.5,62.));
#1584=CARTESIAN_POINT('Origin',(-5.5,1.,62.));
#1585=CARTESIAN_POINT('',(-4.88888888888889,-1.42415824769683,62.));
#1586=CARTESIAN_POINT('Ctrl Pts',(-4.88888888888889,-1.42415824769683,62.));
#1587=CARTESIAN_POINT('Ctrl Pts',(-4.89029286978873,-1.42451218017153,62.0013736038393));
#1588=CARTESIAN_POINT('Ctrl Pts',(-4.89169646909011,-1.4248676379626,62.0027472103661));
#1589=CARTESIAN_POINT('Ctrl Pts',(-5.03936776318608,-1.46243569386424,62.1473015451637));
#1590=CARTESIAN_POINT('Ctrl Pts',(-5.18478516658521,-1.51705897809551,62.2936699944656));
#1591=CARTESIAN_POINT('Ctrl Pts',(-5.38364442653855,-1.62085654886931,62.4839731283591));
#1592=CARTESIAN_POINT('Ctrl Pts',(-5.44203364667859,-1.65498163422111,62.538627357118));
#1593=CARTESIAN_POINT('Ctrl Pts',(-5.49999999999999,-1.69315553700527,62.5907639228446));
#1594=CARTESIAN_POINT('Origin',(-5.5,1.,62.));
#1595=CARTESIAN_POINT('Origin',(-5.5,1.,0.));
#1596=CARTESIAN_POINT('',(-4.88888888888889,-1.42415824769683,72.));
#1597=CARTESIAN_POINT('',(-4.88888888888889,-1.42415824769683,0.));
#1598=CARTESIAN_POINT('',(-3.,1.,72.));
#1599=CARTESIAN_POINT('Origin',(-5.5,1.,72.));
#1600=CARTESIAN_POINT('',(-3.,1.,0.));
#1601=CARTESIAN_POINT('',(-3.,1.,0.));
#1602=CARTESIAN_POINT('',(-5.5,-1.5,0.));
#1603=CARTESIAN_POINT('Origin',(-5.5,1.,0.));
#1604=CARTESIAN_POINT('',(-5.5,-1.5,0.));
#1605=CARTESIAN_POINT('Origin',(-8.9,-4.35976798574163,63.));
#1606=CARTESIAN_POINT('',(-6.4,-3.36348484585429,63.));
#1607=CARTESIAN_POINT('',(-6.4,-4.5,63.));
#1608=CARTESIAN_POINT('Origin',(-4.4,-3.36348484585429,63.));
#1609=CARTESIAN_POINT('',(-11.4,-4.5,63.));
#1610=CARTESIAN_POINT('Origin',(-2.4,-6.62416573867739,0.));
#1611=CARTESIAN_POINT('',(-6.4,-6.62416573867739,72.));
#1612=CARTESIAN_POINT('Origin',(-2.4,-6.62416573867739,72.));
#1613=CARTESIAN_POINT('',(-6.4,-6.62416573867739,0.));
#1614=CARTESIAN_POINT('Origin',(-6.4,-1.5,72.));
#1615=CARTESIAN_POINT('',(-6.4,-3.36348484585429,72.));
#1616=CARTESIAN_POINT('',(-6.4,-3.75,72.));
#1617=CARTESIAN_POINT('',(-6.4,-3.36348484585429,0.));
#1618=CARTESIAN_POINT('Origin',(-19.7,-6.,72.));
#1619=CARTESIAN_POINT('',(0.,-12.995368781616,72.));
#1620=CARTESIAN_POINT('Origin',(-2.,-12.995368781616,72.));
#1621=CARTESIAN_POINT('',(0.,-15.,72.));
#1622=CARTESIAN_POINT('',(0.,-4.5,72.));
#1623=CARTESIAN_POINT('',(3.,-15.,72.));
#1624=CARTESIAN_POINT('Origin',(1.5,-15.,72.));
#1625=CARTESIAN_POINT('',(3.,-1.7,72.));
#1626=CARTESIAN_POINT('',(3.,-16.5,72.));
#1627=CARTESIAN_POINT('',(-0.2,-1.7,72.));
#1628=CARTESIAN_POINT('',(-8.35,-1.7,72.));
#1629=CARTESIAN_POINT('',(-0.2,1.7,72.));
#1630=CARTESIAN_POINT('',(-0.2,-3.75,72.));
#1631=CARTESIAN_POINT('',(3.,1.7,72.));
#1632=CARTESIAN_POINT('',(-9.85,1.7,72.));
#1633=CARTESIAN_POINT('',(3.,4.5,72.));
#1634=CARTESIAN_POINT('',(3.,1.5,72.));
#1635=CARTESIAN_POINT('',(-1.5,4.5,72.));
#1636=CARTESIAN_POINT('',(3.,4.5,72.));
#1637=CARTESIAN_POINT('',(-3.,3.,72.));
#1638=CARTESIAN_POINT('Origin',(-1.5,3.,72.));
#1639=CARTESIAN_POINT('',(-3.,-4.5,72.));
#1640=CARTESIAN_POINT('Origin',(-4.4,-3.36348484585429,72.));
#1641=CARTESIAN_POINT('Origin',(-4.4,-3.36348484585429,0.));
#1642=CARTESIAN_POINT('Origin',(-3.,-1.5,0.));
#1643=CARTESIAN_POINT('',(-11.4,-1.5,0.));
#1644=CARTESIAN_POINT('',(-21.4,-1.5,0.));
#1645=CARTESIAN_POINT('',(-11.4,-1.5,-3.));
#1646=CARTESIAN_POINT('',(-11.4,-1.5,0.));
#1647=CARTESIAN_POINT('',(-21.4,-1.5,-3.));
#1648=CARTESIAN_POINT('',(-11.4,-1.5,-3.));
#1649=CARTESIAN_POINT('',(-21.4,-1.5,0.));
#1650=CARTESIAN_POINT('',(-21.4,-1.5,0.));
#1651=CARTESIAN_POINT('',(-21.4,-1.5,72.));
#1652=CARTESIAN_POINT('',(-21.4,-1.5,0.));
#1653=CARTESIAN_POINT('',(-21.4,-1.5,75.));
#1654=CARTESIAN_POINT('',(-21.4,-1.5,0.));
#1655=CARTESIAN_POINT('',(-11.4,-1.5,75.));
#1656=CARTESIAN_POINT('',(-11.4,-1.5,75.));
#1657=CARTESIAN_POINT('',(-11.4,-1.5,36.));
#1658=CARTESIAN_POINT('Origin',(3.,-5.7,47.));
#1659=CARTESIAN_POINT('',(3.,-7.45,47.));
#1660=CARTESIAN_POINT('Origin',(3.,-5.7,47.));
#1661=CARTESIAN_POINT('',(-1.,-7.45,47.));
#1662=CARTESIAN_POINT('',(3.,-7.45,47.));
#1663=CARTESIAN_POINT('Origin',(-1.,-5.7,47.));
#1664=CARTESIAN_POINT('Origin',(-32.15,-5.85,66.));
#1665=CARTESIAN_POINT('',(-33.9,-5.85,66.));
#1666=CARTESIAN_POINT('Origin',(-32.15,-5.85,66.));
#1667=CARTESIAN_POINT('Origin',(-32.15,-5.85,6.));
#1668=CARTESIAN_POINT('',(-33.9,-5.85,6.));
#1669=CARTESIAN_POINT('Origin',(-32.15,-5.85,6.));
#1670=CARTESIAN_POINT('Origin',(-32.15,-5.85,72.));
#1671=CARTESIAN_POINT('',(-33.9,-5.85,72.));
#1672=CARTESIAN_POINT('Origin',(-32.15,-5.85,72.));
#1673=CARTESIAN_POINT('',(-33.9,-5.85,72.));
#1674=CARTESIAN_POINT('Origin',(-42.4,-4.1,0.));
#1675=CARTESIAN_POINT('',(-40.9,-4.1,0.));
#1676=CARTESIAN_POINT('',(-40.9,-4.1,72.));
#1677=CARTESIAN_POINT('',(-40.9,-4.1,0.));
#1678=CARTESIAN_POINT('',(-39.7985292703892,-4.1,0.));
#1679=CARTESIAN_POINT('',(-42.4,-4.1,0.));
#1680=CARTESIAN_POINT('',(-39.7985292703892,-4.1,72.));
#1681=CARTESIAN_POINT('',(-39.7985292703892,-4.1,0.));
#1682=CARTESIAN_POINT('',(-42.4,-4.1,72.));
#1683=CARTESIAN_POINT('Origin',(-39.7985292703892,-7.1,0.));
#1684=CARTESIAN_POINT('',(-36.8378082624966,-6.61612903225806,0.));
#1685=CARTESIAN_POINT('Origin',(-39.7985292703892,-7.1,0.));
#1686=CARTESIAN_POINT('',(-36.8378082624966,-6.61612903225806,72.));
#1687=CARTESIAN_POINT('',(-36.8378082624966,-6.61612903225806,0.));
#1688=CARTESIAN_POINT('Origin',(-39.7985292703892,-7.1,72.));
#1689=CARTESIAN_POINT('Origin',(-32.15,-5.85,0.));
#1690=CARTESIAN_POINT('',(-28.0847620814858,-8.30689655172414,72.));
#1691=CARTESIAN_POINT('',(-28.0847620814858,-8.30689655172414,0.));
#1692=CARTESIAN_POINT('',(-28.0847620814858,-8.30689655172414,0.));
#1693=CARTESIAN_POINT('Origin',(-32.15,-5.85,72.));
#1694=CARTESIAN_POINT('Origin',(-32.15,-5.85,0.));
#1695=CARTESIAN_POINT('Origin',(-25.9451631770046,-9.6,0.));
#1696=CARTESIAN_POINT('',(-25.9451631770046,-7.1,0.));
#1697=CARTESIAN_POINT('Origin',(-25.9451631770046,-9.6,0.));
#1698=CARTESIAN_POINT('',(-25.9451631770046,-7.1,72.));
#1699=CARTESIAN_POINT('',(-25.9451631770046,-7.1,0.));
#1700=CARTESIAN_POINT('Origin',(-25.9451631770046,-9.6,72.));
#1701=CARTESIAN_POINT('Origin',(-27.5674243050442,-7.1,0.));
#1702=CARTESIAN_POINT('',(-23.3704690882596,-7.1,0.));
#1703=CARTESIAN_POINT('',(-30.4,-7.1,0.));
#1704=CARTESIAN_POINT('',(-23.3704690882596,-7.1,72.));
#1705=CARTESIAN_POINT('',(-23.3704690882596,-7.1,0.));
#1706=CARTESIAN_POINT('',(-30.4,-7.1,72.));
#1707=CARTESIAN_POINT('Origin',(-23.3704690882596,-4.1,0.));
#1708=CARTESIAN_POINT('',(-20.898627669398,-5.8,72.));
#1709=CARTESIAN_POINT('Origin',(-23.3704690882596,-4.1,72.));
#1710=CARTESIAN_POINT('',(-20.898627669398,-5.8,0.));
#1711=CARTESIAN_POINT('Origin',(-23.3704690882596,-4.1,0.));
#1712=CARTESIAN_POINT('',(-20.898627669398,-5.8,0.));
#1713=CARTESIAN_POINT('Origin',(-21.4,-1.1,0.));
#1714=CARTESIAN_POINT('',(-24.2,-1.1,0.));
#1715=CARTESIAN_POINT('',(-21.4,-1.1,0.));
#1716=CARTESIAN_POINT('',(-24.4,-1.1,0.));
#1717=CARTESIAN_POINT('',(-24.2,-1.1,72.));
#1718=CARTESIAN_POINT('',(-24.2,-1.1,0.));
#1719=CARTESIAN_POINT('',(-21.4,-1.1,72.));
#1720=CARTESIAN_POINT('',(-24.4,-1.1,72.));
#1721=CARTESIAN_POINT('',(-21.4,-1.1,0.));
#1722=CARTESIAN_POINT('Origin',(-24.2,-1.1,0.));
#1723=CARTESIAN_POINT('',(-24.2,-4.3,0.));
#1724=CARTESIAN_POINT('',(-24.2,-3.55,0.));
#1725=CARTESIAN_POINT('',(-24.2,-4.3,72.));
#1726=CARTESIAN_POINT('',(-24.2,-4.3,0.));
#1727=CARTESIAN_POINT('',(-24.2,-3.55,72.));
#1728=CARTESIAN_POINT('Origin',(-24.4,-4.3,0.));
#1729=CARTESIAN_POINT('',(-27.6,-4.3,0.));
#1730=CARTESIAN_POINT('',(-22.05,-4.3,0.));
#1731=CARTESIAN_POINT('',(-27.6,-4.3,72.));
#1732=CARTESIAN_POINT('',(-27.6,-4.3,0.));
#1733=CARTESIAN_POINT('',(-22.05,-4.3,72.));
#1734=CARTESIAN_POINT('Origin',(-27.6,-4.1,0.));
#1735=CARTESIAN_POINT('',(-27.6,-1.1,0.));
#1736=CARTESIAN_POINT('',(-27.6,-5.05,0.));
#1737=CARTESIAN_POINT('',(-27.6,-1.1,72.));
#1738=CARTESIAN_POINT('',(-27.6,-1.1,0.));
#1739=CARTESIAN_POINT('',(-27.6,-5.05,72.));
#1740=CARTESIAN_POINT('Origin',(-27.4,-1.1,0.));
#1741=CARTESIAN_POINT('',(-40.9,-1.1,72.));
#1742=CARTESIAN_POINT('',(-40.9,-1.1,0.));
#1743=CARTESIAN_POINT('',(-40.9,-1.1,0.));
#1744=CARTESIAN_POINT('',(-27.4,-1.1,72.));
#1745=CARTESIAN_POINT('',(-27.4,-1.1,0.));
#1746=CARTESIAN_POINT('Origin',(-40.9,-2.6,0.));
#1747=CARTESIAN_POINT('Origin',(-40.9,-2.6,72.));
#1748=CARTESIAN_POINT('Origin',(-40.9,-2.6,0.));
#1749=CARTESIAN_POINT('Origin',(-32.15,-5.85,0.));
#1750=CARTESIAN_POINT('',(-33.9,-5.85,0.));
#1751=CARTESIAN_POINT('Origin',(-32.15,-5.85,0.));
#1752=CARTESIAN_POINT('',(-33.9,-5.85,0.));
#1753=CARTESIAN_POINT('Origin',(-21.4,-1.5,0.));
#1754=CARTESIAN_POINT('',(-21.4,-1.1,0.));
#1755=CARTESIAN_POINT('',(-21.4,-1.1,72.));
#1756=CARTESIAN_POINT('Origin',(-18.4267862505363,-7.5,0.));
#1757=CARTESIAN_POINT('',(-18.4267862505363,-4.5,0.));
#1758=CARTESIAN_POINT('Origin',(-18.4267862505363,-7.5,0.));
#1759=CARTESIAN_POINT('',(-18.4267862505363,-4.5,72.));
#1760=CARTESIAN_POINT('',(-18.4267862505363,-4.5,0.));
#1761=CARTESIAN_POINT('Origin',(-18.4267862505363,-7.5,72.));
#1762=CARTESIAN_POINT('Origin',(-19.7,-6.,72.));
#1763=CARTESIAN_POINT('',(-21.4,-4.5,72.));
#1764=CARTESIAN_POINT('',(-20.55,-4.5,72.));
#1765=CARTESIAN_POINT('',(-21.4,-3.75,72.));
#1766=CARTESIAN_POINT('Origin',(-21.4,-1.5,0.));
#1767=CARTESIAN_POINT('',(-21.4,-4.5,75.));
#1768=CARTESIAN_POINT('',(-21.4,-4.5,0.));
#1769=CARTESIAN_POINT('',(-21.4,-1.5,75.));
#1770=CARTESIAN_POINT('Origin',(-16.4,-3.,75.));
#1771=CARTESIAN_POINT('',(-11.4,-4.5,75.));
#1772=CARTESIAN_POINT('',(-21.4,-4.5,75.));
#1773=CARTESIAN_POINT('',(-11.4,-4.5,75.));
#1774=CARTESIAN_POINT('Origin',(-16.4,-3.,-3.));
#1775=CARTESIAN_POINT('',(-21.4,-4.5,-3.));
#1776=CARTESIAN_POINT('',(-21.4,-1.5,-3.));
#1777=CARTESIAN_POINT('',(-11.4,-4.5,-3.));
#1778=CARTESIAN_POINT('',(-11.4,-4.5,-3.));
#1779=CARTESIAN_POINT('',(-21.4,-4.5,-3.));
#1780=CARTESIAN_POINT('Origin',(-21.4,-4.5,0.));
#1781=CARTESIAN_POINT('',(-21.4,-4.5,0.));
#1782=CARTESIAN_POINT('',(-21.4,-5.25,0.));
#1783=CARTESIAN_POINT('',(-21.4,-4.5,0.));
#1784=CARTESIAN_POINT('Origin',(-19.7,-6.,0.));
#1785=CARTESIAN_POINT('',(-20.55,-4.5,0.));
#1786=CARTESIAN_POINT('Origin',(-1.75,-6.25,6.));
#1787=CARTESIAN_POINT('',(-3.5,-6.25,6.));
#1788=CARTESIAN_POINT('Origin',(-1.75,-6.25,6.));
#1789=CARTESIAN_POINT('Origin',(-11.4,-4.5,0.));
#1790=CARTESIAN_POINT('',(-11.4,-4.5,36.));
#1791=CARTESIAN_POINT('Origin',(-0.2,-1.5,0.));
#1792=CARTESIAN_POINT('',(-0.2,1.7,0.));
#1793=CARTESIAN_POINT('',(-0.2,-1.7,0.));
#1794=CARTESIAN_POINT('',(-0.2,-3.75,0.));
#1795=CARTESIAN_POINT('',(-0.2,1.7,0.));
#1796=CARTESIAN_POINT('',(-0.2,-1.7,0.));
#1797=CARTESIAN_POINT('Origin',(0.,1.7,0.));
#1798=CARTESIAN_POINT('',(3.,1.7,0.));
#1799=CARTESIAN_POINT('',(-9.85,1.7,0.));
#1800=CARTESIAN_POINT('',(3.,1.7,0.));
#1801=CARTESIAN_POINT('Origin',(3.,1.5,0.));
#1802=CARTESIAN_POINT('',(3.,4.5,0.));
#1803=CARTESIAN_POINT('',(3.,1.5,0.));
#1804=CARTESIAN_POINT('',(3.,4.5,0.));
#1805=CARTESIAN_POINT('Origin',(3.,4.5,0.));
#1806=CARTESIAN_POINT('',(-1.5,4.5,0.));
#1807=CARTESIAN_POINT('',(-1.5,4.5,0.));
#1808=CARTESIAN_POINT('',(3.,4.5,0.));
#1809=CARTESIAN_POINT('Origin',(-1.5,3.,0.));
#1810=CARTESIAN_POINT('',(-3.,3.,0.));
#1811=CARTESIAN_POINT('Origin',(-1.5,3.,0.));
#1812=CARTESIAN_POINT('',(-3.,3.,0.));
#1813=CARTESIAN_POINT('Origin',(-3.,4.5,0.));
#1814=CARTESIAN_POINT('',(-3.,-4.5,0.));
#1815=CARTESIAN_POINT('Origin',(-11.4,-1.5,0.));
#1816=CARTESIAN_POINT('',(-11.4,-4.5,0.));
#1817=CARTESIAN_POINT('',(-11.4,-3.75,0.));
#1818=CARTESIAN_POINT('',(-11.4,-4.5,0.));
#1819=CARTESIAN_POINT('Origin',(-21.4,-4.5,0.));
#1820=CARTESIAN_POINT('',(-21.4,-4.5,0.));
#1821=CARTESIAN_POINT('Origin',(-2.,-12.995368781616,0.));
#1822=CARTESIAN_POINT('',(0.,-12.995368781616,0.));
#1823=CARTESIAN_POINT('Origin',(-2.,-12.995368781616,0.));
#1824=CARTESIAN_POINT('',(0.,-12.995368781616,0.));
#1825=CARTESIAN_POINT('Origin',(-1.75,-6.25,0.));
#1826=CARTESIAN_POINT('',(-3.5,-6.25,0.));
#1827=CARTESIAN_POINT('Origin',(-1.75,-6.25,0.));
#1828=CARTESIAN_POINT('',(-3.5,-6.25,0.));
#1829=CARTESIAN_POINT('Origin',(0.,-10.6658804331639,0.));
#1830=CARTESIAN_POINT('',(0.,-15.,0.));
#1831=CARTESIAN_POINT('',(0.,-15.,0.));
#1832=CARTESIAN_POINT('',(0.,-4.5,0.));
#1833=CARTESIAN_POINT('Origin',(3.,-1.7,0.));
#1834=CARTESIAN_POINT('',(3.,-1.7,0.));
#1835=CARTESIAN_POINT('',(-8.35,-1.7,0.));
#1836=CARTESIAN_POINT('',(3.,-1.7,0.));
#1837=CARTESIAN_POINT('Origin',(-19.7,-6.,0.));
#1838=CARTESIAN_POINT('',(3.,-15.,0.));
#1839=CARTESIAN_POINT('Origin',(1.5,-15.,0.));
#1840=CARTESIAN_POINT('',(3.,-16.5,0.));
#1841=CARTESIAN_POINT('Origin',(1.5,-15.,0.));
#1842=CARTESIAN_POINT('',(3.,-15.,0.));
#1843=CARTESIAN_POINT('Origin',(3.,-16.5,0.));
#1844=CARTESIAN_POINT('Origin',(-1.,-5.7,47.));
#1845=UNCERTAINTY_MEASURE_WITH_UNIT(LENGTH_MEASURE(0.01),#1849,
'DISTANCE_ACCURACY_VALUE',
'Maximum model space distance between geometric entities at asserted c
onnectivities');
#1846=UNCERTAINTY_MEASURE_WITH_UNIT(LENGTH_MEASURE(0.01),#1849,
'DISTANCE_ACCURACY_VALUE',
'Maximum model space distance between geometric entities at asserted c
onnectivities');
#1847=(
GEOMETRIC_REPRESENTATION_CONTEXT(3)
GLOBAL_UNCERTAINTY_ASSIGNED_CONTEXT((#1845))
GLOBAL_UNIT_ASSIGNED_CONTEXT((#1849,#1851,#1852))
REPRESENTATION_CONTEXT('','3D')
);
#1848=(
GEOMETRIC_REPRESENTATION_CONTEXT(3)
GLOBAL_UNCERTAINTY_ASSIGNED_CONTEXT((#1846))
GLOBAL_UNIT_ASSIGNED_CONTEXT((#1849,#1851,#1852))
REPRESENTATION_CONTEXT('','3D')
);
#1849=(
LENGTH_UNIT()
NAMED_UNIT(*)
SI_UNIT(.MILLI.,.METRE.)
);
#1850=(
LENGTH_UNIT()
NAMED_UNIT(*)
SI_UNIT($,.METRE.)
);
#1851=(
NAMED_UNIT(*)
PLANE_ANGLE_UNIT()
SI_UNIT($,.RADIAN.)
);
#1852=(
NAMED_UNIT(*)
SI_UNIT($,.STERADIAN.)
SOLID_ANGLE_UNIT()
);
#1853=SHAPE_DEFINITION_REPRESENTATION(#1854,#1855);
#1854=PRODUCT_DEFINITION_SHAPE('',$,#1857);
#1855=SHAPE_REPRESENTATION('',(#1080),#1847);
#1856=PRODUCT_DEFINITION_CONTEXT('part definition',#1861,'design');
#1857=PRODUCT_DEFINITION('SlideSupportsWire','SlideSupportsWire v2',#1858,
#1856);
#1858=PRODUCT_DEFINITION_FORMATION('',$,#1863);
#1859=PRODUCT_RELATED_PRODUCT_CATEGORY('SlideSupportsWire v2',
'SlideSupportsWire v2',(#1863));
#1860=APPLICATION_PROTOCOL_DEFINITION('international standard',
'automotive_design',2009,#1861);
#1861=APPLICATION_CONTEXT(
'Core Data for Automotive Mechanical Design Process');
#1862=PRODUCT_CONTEXT('part definition',#1861,'mechanical');
#1863=PRODUCT('SlideSupportsWire','SlideSupportsWire v2',$,(#1862));
#1864=PRESENTATION_STYLE_ASSIGNMENT((#1866));
#1865=PRESENTATION_STYLE_ASSIGNMENT((#1867));
#1866=SURFACE_STYLE_USAGE(.BOTH.,#1868);
#1867=SURFACE_STYLE_USAGE(.BOTH.,#1869);
#1868=SURFACE_SIDE_STYLE('',(#1870));
#1869=SURFACE_SIDE_STYLE('',(#1871));
#1870=SURFACE_STYLE_FILL_AREA(#1872);
#1871=SURFACE_STYLE_FILL_AREA(#1873);
#1872=FILL_AREA_STYLE('Steel - Satin',(#1874));
#1873=FILL_AREA_STYLE('Plastic - Matte (White)',(#1875));
#1874=FILL_AREA_STYLE_COLOUR('Steel - Satin',#1876);
#1875=FILL_AREA_STYLE_COLOUR('Plastic - Matte (White)',#1877);
#1876=COLOUR_RGB('Steel - Satin',0.627450980392157,0.627450980392157,0.627450980392157);
#1877=COLOUR_RGB('Plastic - Matte (White)',0.964705882352941,0.964705882352941,
0.952941176470588);
ENDSEC;
END-ISO-10303-21;
