ISO-10303-21;
HEADER;
/* Generated by software containing ST-Developer
 * from STEP Tools, Inc. (www.steptools.com) 
 */

FILE_DESCRIPTION(
/* description */ (''),
/* implementation_level */ '2;1');

FILE_NAME(
/* name */ 'SmallBearingSleeve_v2.step',
/* time_stamp */ '2026-08-21T09:18:46-04:00',
/* author */ (''),
/* organization */ (''),
/* preprocessor_version */ 'ST-DEVELOPER v20.1',
/* originating_system */ 'Autodesk Translation Framework v15.8.0.0',
/* authorisation */ '');

FILE_SCHEMA (('AUTOMOTIVE_DESIGN { 1 0 10303 214 3 1 1 }'));
ENDSEC;

DATA;
#10=MECHANICAL_DESIGN_GEOMETRIC_PRESENTATION_REPRESENTATION('',(#13),#193);
#11=SHAPE_REPRESENTATION_RELATIONSHIP('SRR','None',#200,#12);
#12=ADVANCED_BREP_SHAPE_REPRESENTATION('',(#14),#192);
#13=STYLED_ITEM('',(#210),#14);
#14=MANIFOLD_SOLID_BREP('Body1',#98);
#15=CYLINDRICAL_SURFACE('',#125,4.);
#16=FACE_BOUND('',#33,.T.);
#17=PLANE('',#123);
#18=LINE('',#176,#20);
#19=LINE('',#187,#21);
#20=VECTOR('',#144,5.30000004842877);
#21=VECTOR('',#159,4.1);
#22=CONICAL_SURFACE('',#117,5.30000004842877,1.56454601266646);
#23=FACE_OUTER_BOUND('',#29,.T.);
#24=FACE_OUTER_BOUND('',#30,.T.);
#25=FACE_OUTER_BOUND('',#31,.T.);
#26=FACE_OUTER_BOUND('',#32,.T.);
#27=FACE_OUTER_BOUND('',#34,.T.);
#28=FACE_OUTER_BOUND('',#35,.T.);
#29=EDGE_LOOP('',(#65,#66,#67,#68,#69));
#30=EDGE_LOOP('',(#70,#71,#72,#73,#74));
#31=EDGE_LOOP('',(#75,#76,#77,#78));
#32=EDGE_LOOP('',(#79));
#33=EDGE_LOOP('',(#80));
#34=EDGE_LOOP('',(#81,#82,#83,#84));
#35=EDGE_LOOP('',(#85,#86,#87,#88));
#36=CIRCLE('',#113,5.64320753738456);
#37=CIRCLE('',#114,0.2);
#38=CIRCLE('',#115,5.5232498192604);
#39=CIRCLE('',#116,5.5232498192604);
#40=CIRCLE('',#118,4.);
#41=CIRCLE('',#120,5.53281274528916);
#42=CIRCLE('',#121,0.2);
#43=CIRCLE('',#122,5.6507776254381);
#44=CIRCLE('',#124,4.);
#45=CIRCLE('',#127,2.03830327580119);
#46=VERTEX_POINT('',#166);
#47=VERTEX_POINT('',#168);
#48=VERTEX_POINT('',#170);
#49=VERTEX_POINT('',#174);
#50=VERTEX_POINT('',#178);
#51=VERTEX_POINT('',#180);
#52=VERTEX_POINT('',#184);
#53=EDGE_CURVE('',#46,#46,#36,.T.);
#54=EDGE_CURVE('',#46,#47,#37,.T.);
#55=EDGE_CURVE('',#47,#48,#38,.T.);
#56=EDGE_CURVE('',#48,#47,#39,.T.);
#57=EDGE_CURVE('',#49,#49,#40,.F.);
#58=EDGE_CURVE('',#49,#48,#18,.T.);
#59=EDGE_CURVE('',#50,#50,#41,.T.);
#60=EDGE_CURVE('',#50,#51,#42,.T.);
#61=EDGE_CURVE('',#51,#51,#43,.T.);
#62=EDGE_CURVE('',#52,#52,#44,.T.);
#63=EDGE_CURVE('',#52,#49,#19,.T.);
#64=EDGE_CURVE('',#46,#51,#45,.T.);
#65=ORIENTED_EDGE('',*,*,#53,.T.);
#66=ORIENTED_EDGE('',*,*,#54,.T.);
#67=ORIENTED_EDGE('',*,*,#55,.T.);
#68=ORIENTED_EDGE('',*,*,#56,.T.);
#69=ORIENTED_EDGE('',*,*,#54,.F.);
#70=ORIENTED_EDGE('',*,*,#57,.T.);
#71=ORIENTED_EDGE('',*,*,#58,.T.);
#72=ORIENTED_EDGE('',*,*,#55,.F.);
#73=ORIENTED_EDGE('',*,*,#56,.F.);
#74=ORIENTED_EDGE('',*,*,#58,.F.);
#75=ORIENTED_EDGE('',*,*,#59,.T.);
#76=ORIENTED_EDGE('',*,*,#60,.T.);
#77=ORIENTED_EDGE('',*,*,#61,.T.);
#78=ORIENTED_EDGE('',*,*,#60,.F.);
#79=ORIENTED_EDGE('',*,*,#59,.F.);
#80=ORIENTED_EDGE('',*,*,#62,.F.);
#81=ORIENTED_EDGE('',*,*,#62,.T.);
#82=ORIENTED_EDGE('',*,*,#63,.T.);
#83=ORIENTED_EDGE('',*,*,#57,.F.);
#84=ORIENTED_EDGE('',*,*,#63,.F.);
#85=ORIENTED_EDGE('',*,*,#53,.F.);
#86=ORIENTED_EDGE('',*,*,#64,.T.);
#87=ORIENTED_EDGE('',*,*,#61,.F.);
#88=ORIENTED_EDGE('',*,*,#64,.F.);
#89=TOROIDAL_SURFACE('',#112,5.52449987394685,0.2);
#90=TOROIDAL_SURFACE('',#119,5.53281274528916,0.2);
#91=TOROIDAL_SURFACE('',#126,6.85301863362346,2.03830327580119);
#92=ADVANCED_FACE('',(#23),#89,.T.);
#93=ADVANCED_FACE('',(#24),#22,.F.);
#94=ADVANCED_FACE('',(#25),#90,.T.);
#95=ADVANCED_FACE('',(#26,#16),#17,.T.);
#96=ADVANCED_FACE('',(#27),#15,.F.);
#97=ADVANCED_FACE('',(#28),#91,.F.);
#98=CLOSED_SHELL('',(#92,#93,#94,#95,#96,#97));
#99=DERIVED_UNIT_ELEMENT(#101,1.);
#100=DERIVED_UNIT_ELEMENT(#195,-3.);
#101=(
MASS_UNIT()
NAMED_UNIT(*)
SI_UNIT(.KILO.,.GRAM.)
);
#102=DERIVED_UNIT((#99,#100));
#103=MEASURE_REPRESENTATION_ITEM('density measure',
POSITIVE_RATIO_MEASURE(7850.),#102);
#104=PROPERTY_DEFINITION_REPRESENTATION(#109,#106);
#105=PROPERTY_DEFINITION_REPRESENTATION(#110,#107);
#106=REPRESENTATION('material name',(#108),#192);
#107=REPRESENTATION('density',(#103),#192);
#108=DESCRIPTIVE_REPRESENTATION_ITEM('Steel','Steel');
#109=PROPERTY_DEFINITION('material property','material name',#202);
#110=PROPERTY_DEFINITION('material property','density of part',#202);
#111=AXIS2_PLACEMENT_3D('',#164,#128,#129);
#112=AXIS2_PLACEMENT_3D('',#165,#130,#131);
#113=AXIS2_PLACEMENT_3D('',#167,#132,#133);
#114=AXIS2_PLACEMENT_3D('',#169,#134,#135);
#115=AXIS2_PLACEMENT_3D('',#171,#136,#137);
#116=AXIS2_PLACEMENT_3D('',#172,#138,#139);
#117=AXIS2_PLACEMENT_3D('',#173,#140,#141);
#118=AXIS2_PLACEMENT_3D('',#175,#142,#143);
#119=AXIS2_PLACEMENT_3D('',#177,#145,#146);
#120=AXIS2_PLACEMENT_3D('',#179,#147,#148);
#121=AXIS2_PLACEMENT_3D('',#181,#149,#150);
#122=AXIS2_PLACEMENT_3D('',#182,#151,#152);
#123=AXIS2_PLACEMENT_3D('',#183,#153,#154);
#124=AXIS2_PLACEMENT_3D('',#185,#155,#156);
#125=AXIS2_PLACEMENT_3D('',#186,#157,#158);
#126=AXIS2_PLACEMENT_3D('',#188,#160,#161);
#127=AXIS2_PLACEMENT_3D('',#189,#162,#163);
#128=DIRECTION('axis',(0.,0.,1.));
#129=DIRECTION('refdir',(1.,0.,0.));
#130=DIRECTION('center_axis',(0.,-3.46944695195361E-16,1.));
#131=DIRECTION('ref_axis',(0.,-1.,-3.49096250909243E-16));
#132=DIRECTION('center_axis',(0.,3.46944695195361E-16,-1.));
#133=DIRECTION('ref_axis',(1.,0.,0.));
#134=DIRECTION('center_axis',(-1.,-1.22464679914735E-16,-4.24884710452153E-32));
#135=DIRECTION('ref_axis',(-1.22464679914735E-16,1.,3.39399132828431E-16));
#136=DIRECTION('center_axis',(0.,-3.46944695195361E-16,1.));
#137=DIRECTION('ref_axis',(1.,6.12323399573677E-17,2.12442355226077E-32));
#138=DIRECTION('center_axis',(0.,-3.46944695195361E-16,1.));
#139=DIRECTION('ref_axis',(1.,6.12323399573677E-17,2.12442355226077E-32));
#140=DIRECTION('center_axis',(0.,3.46944695195361E-16,-1.));
#141=DIRECTION('ref_axis',(-1.,0.,0.));
#142=DIRECTION('center_axis',(0.,3.46944695195361E-16,-1.));
#143=DIRECTION('ref_axis',(-1.,0.,0.));
#144=DIRECTION('',(0.999980466850239,1.24630787004656E-16,-0.00625027343228999));
#145=DIRECTION('center_axis',(0.,-3.46944695195361E-16,1.));
#146=DIRECTION('ref_axis',(0.,-1.,-3.48590043511788E-16));
#147=DIRECTION('center_axis',(0.,3.46944695195361E-16,-1.));
#148=DIRECTION('ref_axis',(1.,0.,0.));
#149=DIRECTION('center_axis',(-1.,-1.22464679914735E-16,-4.24884710452153E-32));
#150=DIRECTION('ref_axis',(-1.22464679914735E-16,1.,3.38906986747572E-16));
#151=DIRECTION('center_axis',(0.,-3.46944695195361E-16,1.));
#152=DIRECTION('ref_axis',(1.,0.,0.));
#153=DIRECTION('center_axis',(0.,-3.46944695195361E-16,1.));
#154=DIRECTION('ref_axis',(0.,-1.,-3.46944695195361E-16));
#155=DIRECTION('center_axis',(0.,-3.46944695195361E-16,1.));
#156=DIRECTION('ref_axis',(-1.,0.,0.));
#157=DIRECTION('center_axis',(0.,-3.46944695195361E-16,1.));
#158=DIRECTION('ref_axis',(-1.,0.,0.));
#159=DIRECTION('',(0.,3.46944695195361E-16,-1.));
#160=DIRECTION('center_axis',(0.,-3.46944695195361E-16,1.));
#161=DIRECTION('ref_axis',(0.,-1.,-3.46893113499514E-16));
#162=DIRECTION('center_axis',(-1.,-1.22464679914735E-16,-4.24884710452153E-32));
#163=DIRECTION('ref_axis',(-1.22464679914735E-16,1.,3.46917501373073E-16));
#164=CARTESIAN_POINT('',(0.,0.,0.));
#165=CARTESIAN_POINT('Origin',(0.,6.27588183132754E-16,-1.80889978092723));
#166=CARTESIAN_POINT('',(-6.91093604758222E-16,5.64320753738456,-1.64793863455594));
#167=CARTESIAN_POINT('Origin',(0.,5.7174356726667E-16,-1.64793863455594));
#168=CARTESIAN_POINT('',(-6.76403021204844E-16,5.5232498192604,-2.00889587429728));
#169=CARTESIAN_POINT('Origin',(-6.76556108751897E-16,5.52449987394686,-1.80889978092723));
#170=CARTESIAN_POINT('',(5.5232498192604,1.37337878799213E-15,-2.00889587429728));
#171=CARTESIAN_POINT('Origin',(0.,1.03517727738971E-15,-2.00889587429728));
#172=CARTESIAN_POINT('Origin',(0.,1.03517727738971E-15,-2.00889587429728));
#173=CARTESIAN_POINT('Origin',(0.,6.96491640378903E-16,-2.00750047492934));
#174=CARTESIAN_POINT('',(4.,2.03813816574851E-16,-1.99937496044778));
#175=CARTESIAN_POINT('Origin',(0.,6.93672536233792E-16,-1.99937496044778));
#176=CARTESIAN_POINT('',(5.30000004842877,1.34555444985781E-15,-2.00750047492934));
#177=CARTESIAN_POINT('Origin',(0.,-6.2450045135165E-16,1.8));
#178=CARTESIAN_POINT('',(-6.77574141880005E-16,5.53281274528916,2.));
#179=CARTESIAN_POINT('Origin',(0.,-6.93889390390722E-16,2.));
#180=CARTESIAN_POINT('',(-6.92020673168625E-16,5.6507776254381,1.63849369346231));
#181=CARTESIAN_POINT('Origin',(-6.77574141880005E-16,5.53281274528916,1.8));
#182=CARTESIAN_POINT('Origin',(0.,-5.68466695057802E-16,1.63849369346231));
#183=CARTESIAN_POINT('Origin',(-4.1,-6.93889390390722E-16,2.));
#184=CARTESIAN_POINT('',(4.,-2.04030670731781E-16,2.));
#185=CARTESIAN_POINT('Origin',(0.,-6.93889390390722E-16,2.));
#186=CARTESIAN_POINT('Origin',(0.,0.,0.));
#187=CARTESIAN_POINT('',(4.,4.89858719658941E-16,1.69953884180861E-31));
#188=CARTESIAN_POINT('Origin',(0.,2.60224998818061E-18,-0.00750047492934086));
#189=CARTESIAN_POINT('Origin',(-8.39252733416414E-16,6.85301863362346,-0.00750047492933848));
#190=UNCERTAINTY_MEASURE_WITH_UNIT(LENGTH_MEASURE(0.01),#194,
'DISTANCE_ACCURACY_VALUE',
'Maximum model space distance between geometric entities at asserted c
onnectivities');
#191=UNCERTAINTY_MEASURE_WITH_UNIT(LENGTH_MEASURE(0.01),#194,
'DISTANCE_ACCURACY_VALUE',
'Maximum model space distance between geometric entities at asserted c
onnectivities');
#192=(
GEOMETRIC_REPRESENTATION_CONTEXT(3)
GLOBAL_UNCERTAINTY_ASSIGNED_CONTEXT((#190))
GLOBAL_UNIT_ASSIGNED_CONTEXT((#194,#196,#197))
REPRESENTATION_CONTEXT('','3D')
);
#193=(
GEOMETRIC_REPRESENTATION_CONTEXT(3)
GLOBAL_UNCERTAINTY_ASSIGNED_CONTEXT((#191))
GLOBAL_UNIT_ASSIGNED_CONTEXT((#194,#196,#197))
REPRESENTATION_CONTEXT('','3D')
);
#194=(
LENGTH_UNIT()
NAMED_UNIT(*)
SI_UNIT(.MILLI.,.METRE.)
);
#195=(
LENGTH_UNIT()
NAMED_UNIT(*)
SI_UNIT($,.METRE.)
);
#196=(
NAMED_UNIT(*)
PLANE_ANGLE_UNIT()
SI_UNIT($,.RADIAN.)
);
#197=(
NAMED_UNIT(*)
SI_UNIT($,.STERADIAN.)
SOLID_ANGLE_UNIT()
);
#198=SHAPE_DEFINITION_REPRESENTATION(#199,#200);
#199=PRODUCT_DEFINITION_SHAPE('',$,#202);
#200=SHAPE_REPRESENTATION('',(#111),#192);
#201=PRODUCT_DEFINITION_CONTEXT('part definition',#206,'design');
#202=PRODUCT_DEFINITION('SmallBearingSleeve','SmallBearingSleeve v2',#203,
#201);
#203=PRODUCT_DEFINITION_FORMATION('',$,#208);
#204=PRODUCT_RELATED_PRODUCT_CATEGORY('SmallBearingSleeve v2',
'SmallBearingSleeve v2',(#208));
#205=APPLICATION_PROTOCOL_DEFINITION('international standard',
'automotive_design',2009,#206);
#206=APPLICATION_CONTEXT(
'Core Data for Automotive Mechanical Design Process');
#207=PRODUCT_CONTEXT('part definition',#206,'mechanical');
#208=PRODUCT('SmallBearingSleeve','SmallBearingSleeve v2',$,(#207));
#209=PRESENTATION_STYLE_ASSIGNMENT((#211));
#210=PRESENTATION_STYLE_ASSIGNMENT((#212));
#211=SURFACE_STYLE_USAGE(.BOTH.,#213);
#212=SURFACE_STYLE_USAGE(.BOTH.,#214);
#213=SURFACE_SIDE_STYLE('',(#215));
#214=SURFACE_SIDE_STYLE('',(#216));
#215=SURFACE_STYLE_FILL_AREA(#217);
#216=SURFACE_STYLE_FILL_AREA(#218);
#217=FILL_AREA_STYLE('Steel - Satin',(#219));
#218=FILL_AREA_STYLE('Plastic - Matte (Blue)',(#220));
#219=FILL_AREA_STYLE_COLOUR('Steel - Satin',#221);
#220=FILL_AREA_STYLE_COLOUR('Plastic - Matte (Blue)',#222);
#221=COLOUR_RGB('Steel - Satin',0.627450980392157,0.627450980392157,0.627450980392157);
#222=COLOUR_RGB('Plastic - Matte (Blue)',0.188235294117647,0.231372549019608,
0.588235294117647);
ENDSEC;
END-ISO-10303-21;
