ISO-10303-21;
HEADER;
/* Generated by software containing ST-Developer
 * from STEP Tools, Inc. (www.steptools.com) 
 */

FILE_DESCRIPTION(
/* description */ (''),
/* implementation_level */ '2;1');

FILE_NAME(
/* name */ 'Rollers_v4.step',
/* time_stamp */ '2026-08-21T09:19:06-04:00',
/* author */ (''),
/* organization */ (''),
/* preprocessor_version */ 'ST-DEVELOPER v20.1',
/* originating_system */ 'Autodesk Translation Framework v15.8.0.0',
/* authorisation */ '');

FILE_SCHEMA (('AUTOMOTIVE_DESIGN { 1 0 10303 214 3 1 1 }'));
ENDSEC;

DATA;
#10=MECHANICAL_DESIGN_GEOMETRIC_PRESENTATION_REPRESENTATION('',(#411,#412,
#413,#414,#415,#416,#417),#904);
#11=ITEM_DEFINED_TRANSFORMATION($,$,#454,#520);
#12=ITEM_DEFINED_TRANSFORMATION($,$,#479,#521);
#13=ITEM_DEFINED_TRANSFORMATION($,$,#495,#522);
#14=(
REPRESENTATION_RELATIONSHIP($,$,#921,#920)
REPRESENTATION_RELATIONSHIP_WITH_TRANSFORMATION(#11)
SHAPE_REPRESENTATION_RELATIONSHIP()
);
#15=(
REPRESENTATION_RELATIONSHIP($,$,#922,#920)
REPRESENTATION_RELATIONSHIP_WITH_TRANSFORMATION(#12)
SHAPE_REPRESENTATION_RELATIONSHIP()
);
#16=(
REPRESENTATION_RELATIONSHIP($,$,#923,#920)
REPRESENTATION_RELATIONSHIP_WITH_TRANSFORMATION(#13)
SHAPE_REPRESENTATION_RELATIONSHIP()
);
#17=CONTEXT_DEPENDENT_SHAPE_REPRESENTATION(#14,#917);
#18=CONTEXT_DEPENDENT_SHAPE_REPRESENTATION(#15,#918);
#19=CONTEXT_DEPENDENT_SHAPE_REPRESENTATION(#16,#919);
#20=NEXT_ASSEMBLY_USAGE_OCCURRENCE('Bearing v4:1','Bearing v4:1',
'Bearing v4:1',#925,#926,'Bearing v4:1');
#21=NEXT_ASSEMBLY_USAGE_OCCURRENCE('BearingSleeve v8:1',
'BearingSleeve v8:1','BearingSleeve v8:1',#925,#927,
'BearingSleeve v8:1');
#22=NEXT_ASSEMBLY_USAGE_OCCURRENCE('Bearing v4:2','Bearing v4:2',
'Bearing v4:2',#925,#928,'Bearing v4:2');
#23=(
BOUNDED_CURVE()
B_SPLINE_CURVE(5,(#815,#816,#817,#818,#819,#820,#821,#822,#823,#824),
 .UNSPECIFIED.,.F.,.F.)
B_SPLINE_CURVE_WITH_KNOTS((6,1,1,1,1,6),(0.,0.2,0.4,0.6,0.8,1.),
 .UNSPECIFIED.)
CURVE()
GEOMETRIC_REPRESENTATION_ITEM()
RATIONAL_B_SPLINE_CURVE((1.,1.,1.,1.,1.,1.,1.,1.,1.,1.))
REPRESENTATION_ITEM('')
);
#24=(
BOUNDED_SURFACE()
B_SPLINE_SURFACE(5,2,((#723,#724,#725,#726,#727,#728,#729,#730,#731),(#732,
#733,#734,#735,#736,#737,#738,#739,#740),(#741,#742,#743,#744,#745,#746,
#747,#748,#749),(#750,#751,#752,#753,#754,#755,#756,#757,#758),(#759,#760,
#761,#762,#763,#764,#765,#766,#767),(#768,#769,#770,#771,#772,#773,#774,
#775,#776),(#777,#778,#779,#780,#781,#782,#783,#784,#785),(#786,#787,#788,
#789,#790,#791,#792,#793,#794),(#795,#796,#797,#798,#799,#800,#801,#802,
#803),(#804,#805,#806,#807,#808,#809,#810,#811,#812)),.UNSPECIFIED.,.F.,
 .T.,.F.)
B_SPLINE_SURFACE_WITH_KNOTS((6,1,1,1,1,6),(3,2,2,2,3),(-1.,-0.8,-0.6,-0.4,
-0.2,0.),(0.,1.5707963267949,3.14159265358979,4.71238898038469,6.28318530717959),
 .UNSPECIFIED.)
GEOMETRIC_REPRESENTATION_ITEM()
RATIONAL_B_SPLINE_SURFACE(((1.,0.707106781186548,1.,0.707106781186548,1.,
0.707106781186548,1.,0.707106781186548,1.),(1.,0.707106781186548,1.,0.707106781186548,
1.,0.707106781186548,1.,0.707106781186548,1.),(1.,0.707106781186548,1.,
0.707106781186548,1.,0.707106781186548,1.,0.707106781186548,1.),(1.,0.707106781186548,
1.,0.707106781186548,1.,0.707106781186548,1.,0.707106781186548,1.),(1.,
0.707106781186548,1.,0.707106781186548,1.,0.707106781186548,1.,0.707106781186548,
1.),(1.,0.707106781186548,1.,0.707106781186548,1.,0.707106781186548,1.,
0.707106781186548,1.),(1.,0.707106781186548,1.,0.707106781186548,1.,0.707106781186548,
1.,0.707106781186548,1.),(1.,0.707106781186548,1.,0.707106781186548,1.,
0.707106781186548,1.,0.707106781186548,1.),(1.,0.707106781186548,1.,0.707106781186548,
1.,0.707106781186548,1.,0.707106781186548,1.),(1.,0.707106781186548,1.,
0.707106781186548,1.,0.707106781186548,1.,0.707106781186548,1.)))
REPRESENTATION_ITEM('')
SURFACE()
);
#25=DERIVED_UNIT_ELEMENT(#27,1.);
#26=DERIVED_UNIT_ELEMENT(#906,-3.);
#27=(
MASS_UNIT()
NAMED_UNIT(*)
SI_UNIT(.KILO.,.GRAM.)
);
#28=DERIVED_UNIT((#25,#26));
#29=MEASURE_REPRESENTATION_ITEM('density measure',
POSITIVE_RATIO_MEASURE(7850.),#28);
#30=PROPERTY_DEFINITION_REPRESENTATION(#35,#32);
#31=PROPERTY_DEFINITION_REPRESENTATION(#36,#33);
#32=REPRESENTATION('material name',(#34),#902);
#33=REPRESENTATION('density',(#29),#902);
#34=DESCRIPTIVE_REPRESENTATION_ITEM('Steel','Steel');
#35=PROPERTY_DEFINITION('material property','material name',#927);
#36=PROPERTY_DEFINITION('material property','density of part',#927);
#37=SHAPE_REPRESENTATION_RELATIONSHIP('SRR','None',#921,#40);
#38=SHAPE_REPRESENTATION_RELATIONSHIP('SRR','None',#922,#41);
#39=SHAPE_REPRESENTATION_RELATIONSHIP('SRR','None',#923,#42);
#40=ADVANCED_BREP_SHAPE_REPRESENTATION('',(#43),#901);
#41=ADVANCED_BREP_SHAPE_REPRESENTATION('',(#44),#902);
#42=ADVANCED_BREP_SHAPE_REPRESENTATION('',(#45),#903);
#43=MANIFOLD_SOLID_BREP('Body1',#450);
#44=MANIFOLD_SOLID_BREP('Body1',#451);
#45=MANIFOLD_SOLID_BREP('Body1',#452);
#46=LINE('',#693,#61);
#47=LINE('',#702,#62);
#48=LINE('',#704,#63);
#49=LINE('',#709,#64);
#50=LINE('',#716,#65);
#51=LINE('',#720,#66);
#52=LINE('',#831,#67);
#53=LINE('',#842,#68);
#54=LINE('',#846,#69);
#55=LINE('',#863,#70);
#56=LINE('',#872,#71);
#57=LINE('',#874,#72);
#58=LINE('',#879,#73);
#59=LINE('',#886,#74);
#60=LINE('',#890,#75);
#61=VECTOR('',#543,2.);
#62=VECTOR('',#554,1.5);
#63=VECTOR('',#557,2.);
#64=VECTOR('',#564,3.4);
#65=VECTOR('',#573,3.4);
#66=VECTOR('',#578,4.);
#67=VECTOR('',#591,4.);
#68=VECTOR('',#606,3.);
#69=VECTOR('',#611,4.);
#70=VECTOR('',#634,2.);
#71=VECTOR('',#645,1.5);
#72=VECTOR('',#648,2.);
#73=VECTOR('',#655,3.4);
#74=VECTOR('',#664,3.4);
#75=VECTOR('',#669,4.);
#76=CYLINDRICAL_SURFACE('',#461,2.);
#77=CYLINDRICAL_SURFACE('',#466,1.5);
#78=CYLINDRICAL_SURFACE('',#468,2.);
#79=CYLINDRICAL_SURFACE('',#470,3.4);
#80=CYLINDRICAL_SURFACE('',#475,3.4);
#81=CYLINDRICAL_SURFACE('',#476,4.);
#82=CYLINDRICAL_SURFACE('',#482,4.);
#83=CYLINDRICAL_SURFACE('',#490,3.);
#84=CYLINDRICAL_SURFACE('',#492,4.);
#85=CYLINDRICAL_SURFACE('',#502,2.);
#86=CYLINDRICAL_SURFACE('',#507,1.5);
#87=CYLINDRICAL_SURFACE('',#509,2.);
#88=CYLINDRICAL_SURFACE('',#511,3.4);
#89=CYLINDRICAL_SURFACE('',#516,3.4);
#90=CYLINDRICAL_SURFACE('',#517,4.);
#91=FACE_BOUND('',#140,.T.);
#92=FACE_BOUND('',#142,.T.);
#93=FACE_BOUND('',#145,.T.);
#94=FACE_BOUND('',#149,.T.);
#95=FACE_BOUND('',#152,.T.);
#96=FACE_BOUND('',#156,.T.);
#97=FACE_BOUND('',#160,.T.);
#98=FACE_BOUND('',#162,.T.);
#99=FACE_BOUND('',#165,.T.);
#100=FACE_BOUND('',#168,.T.);
#101=FACE_BOUND('',#170,.T.);
#102=FACE_BOUND('',#172,.T.);
#103=FACE_BOUND('',#175,.T.);
#104=FACE_BOUND('',#179,.T.);
#105=FACE_BOUND('',#182,.T.);
#106=FACE_BOUND('',#186,.T.);
#107=FACE_OUTER_BOUND('',#139,.T.);
#108=FACE_OUTER_BOUND('',#141,.T.);
#109=FACE_OUTER_BOUND('',#143,.T.);
#110=FACE_OUTER_BOUND('',#144,.T.);
#111=FACE_OUTER_BOUND('',#146,.T.);
#112=FACE_OUTER_BOUND('',#147,.T.);
#113=FACE_OUTER_BOUND('',#148,.T.);
#114=FACE_OUTER_BOUND('',#150,.T.);
#115=FACE_OUTER_BOUND('',#151,.T.);
#116=FACE_OUTER_BOUND('',#153,.T.);
#117=FACE_OUTER_BOUND('',#154,.T.);
#118=FACE_OUTER_BOUND('',#155,.T.);
#119=FACE_OUTER_BOUND('',#157,.T.);
#120=FACE_OUTER_BOUND('',#158,.T.);
#121=FACE_OUTER_BOUND('',#159,.T.);
#122=FACE_OUTER_BOUND('',#161,.T.);
#123=FACE_OUTER_BOUND('',#163,.T.);
#124=FACE_OUTER_BOUND('',#164,.T.);
#125=FACE_OUTER_BOUND('',#166,.T.);
#126=FACE_OUTER_BOUND('',#167,.T.);
#127=FACE_OUTER_BOUND('',#169,.T.);
#128=FACE_OUTER_BOUND('',#171,.T.);
#129=FACE_OUTER_BOUND('',#173,.T.);
#130=FACE_OUTER_BOUND('',#174,.T.);
#131=FACE_OUTER_BOUND('',#176,.T.);
#132=FACE_OUTER_BOUND('',#177,.T.);
#133=FACE_OUTER_BOUND('',#178,.T.);
#134=FACE_OUTER_BOUND('',#180,.T.);
#135=FACE_OUTER_BOUND('',#181,.T.);
#136=FACE_OUTER_BOUND('',#183,.T.);
#137=FACE_OUTER_BOUND('',#184,.T.);
#138=FACE_OUTER_BOUND('',#185,.T.);
#139=EDGE_LOOP('',(#299));
#140=EDGE_LOOP('',(#300));
#141=EDGE_LOOP('',(#301));
#142=EDGE_LOOP('',(#302));
#143=EDGE_LOOP('',(#303,#304,#305,#306));
#144=EDGE_LOOP('',(#307));
#145=EDGE_LOOP('',(#308));
#146=EDGE_LOOP('',(#309,#310,#311,#312));
#147=EDGE_LOOP('',(#313,#314,#315,#316));
#148=EDGE_LOOP('',(#317));
#149=EDGE_LOOP('',(#318));
#150=EDGE_LOOP('',(#319,#320,#321,#322));
#151=EDGE_LOOP('',(#323));
#152=EDGE_LOOP('',(#324));
#153=EDGE_LOOP('',(#325,#326,#327,#328));
#154=EDGE_LOOP('',(#329,#330,#331,#332));
#155=EDGE_LOOP('',(#333));
#156=EDGE_LOOP('',(#334));
#157=EDGE_LOOP('',(#335,#336,#337,#338));
#158=EDGE_LOOP('',(#339,#340,#341,#342));
#159=EDGE_LOOP('',(#343));
#160=EDGE_LOOP('',(#344));
#161=EDGE_LOOP('',(#345));
#162=EDGE_LOOP('',(#346));
#163=EDGE_LOOP('',(#347,#348,#349,#350));
#164=EDGE_LOOP('',(#351));
#165=EDGE_LOOP('',(#352));
#166=EDGE_LOOP('',(#353,#354,#355,#356));
#167=EDGE_LOOP('',(#357));
#168=EDGE_LOOP('',(#358));
#169=EDGE_LOOP('',(#359));
#170=EDGE_LOOP('',(#360));
#171=EDGE_LOOP('',(#361));
#172=EDGE_LOOP('',(#362));
#173=EDGE_LOOP('',(#363,#364,#365,#366));
#174=EDGE_LOOP('',(#367));
#175=EDGE_LOOP('',(#368));
#176=EDGE_LOOP('',(#369,#370,#371,#372));
#177=EDGE_LOOP('',(#373,#374,#375,#376));
#178=EDGE_LOOP('',(#377));
#179=EDGE_LOOP('',(#378));
#180=EDGE_LOOP('',(#379,#380,#381,#382));
#181=EDGE_LOOP('',(#383));
#182=EDGE_LOOP('',(#384));
#183=EDGE_LOOP('',(#385,#386,#387,#388));
#184=EDGE_LOOP('',(#389,#390,#391,#392));
#185=EDGE_LOOP('',(#393));
#186=EDGE_LOOP('',(#394));
#187=CIRCLE('',#456,3.4);
#188=CIRCLE('',#457,2.);
#189=CIRCLE('',#459,3.4);
#190=CIRCLE('',#460,2.);
#191=CIRCLE('',#462,2.);
#192=CIRCLE('',#464,2.);
#193=CIRCLE('',#465,1.5);
#194=CIRCLE('',#467,1.5);
#195=CIRCLE('',#471,3.4);
#196=CIRCLE('',#473,4.);
#197=CIRCLE('',#474,3.4);
#198=CIRCLE('',#477,4.);
#199=CIRCLE('',#480,6.);
#200=CIRCLE('',#481,6.);
#201=CIRCLE('',#483,4.);
#202=CIRCLE('',#484,4.);
#203=CIRCLE('',#486,3.);
#204=CIRCLE('',#488,4.);
#205=CIRCLE('',#489,3.);
#206=CIRCLE('',#493,4.);
#207=CIRCLE('',#497,3.4);
#208=CIRCLE('',#498,2.);
#209=CIRCLE('',#500,3.4);
#210=CIRCLE('',#501,2.);
#211=CIRCLE('',#503,2.);
#212=CIRCLE('',#505,2.);
#213=CIRCLE('',#506,1.5);
#214=CIRCLE('',#508,1.5);
#215=CIRCLE('',#512,3.4);
#216=CIRCLE('',#514,4.);
#217=CIRCLE('',#515,3.4);
#218=CIRCLE('',#518,4.);
#219=VERTEX_POINT('',#681);
#220=VERTEX_POINT('',#683);
#221=VERTEX_POINT('',#686);
#222=VERTEX_POINT('',#688);
#223=VERTEX_POINT('',#691);
#224=VERTEX_POINT('',#695);
#225=VERTEX_POINT('',#697);
#226=VERTEX_POINT('',#700);
#227=VERTEX_POINT('',#707);
#228=VERTEX_POINT('',#711);
#229=VERTEX_POINT('',#713);
#230=VERTEX_POINT('',#718);
#231=VERTEX_POINT('',#813);
#232=VERTEX_POINT('',#814);
#233=VERTEX_POINT('',#828);
#234=VERTEX_POINT('',#830);
#235=VERTEX_POINT('',#834);
#236=VERTEX_POINT('',#837);
#237=VERTEX_POINT('',#839);
#238=VERTEX_POINT('',#845);
#239=VERTEX_POINT('',#851);
#240=VERTEX_POINT('',#853);
#241=VERTEX_POINT('',#856);
#242=VERTEX_POINT('',#858);
#243=VERTEX_POINT('',#861);
#244=VERTEX_POINT('',#865);
#245=VERTEX_POINT('',#867);
#246=VERTEX_POINT('',#870);
#247=VERTEX_POINT('',#877);
#248=VERTEX_POINT('',#881);
#249=VERTEX_POINT('',#883);
#250=VERTEX_POINT('',#888);
#251=EDGE_CURVE('',#219,#219,#187,.T.);
#252=EDGE_CURVE('',#220,#220,#188,.T.);
#253=EDGE_CURVE('',#221,#221,#189,.T.);
#254=EDGE_CURVE('',#222,#222,#190,.T.);
#255=EDGE_CURVE('',#223,#223,#191,.T.);
#256=EDGE_CURVE('',#223,#222,#46,.T.);
#257=EDGE_CURVE('',#224,#224,#192,.T.);
#258=EDGE_CURVE('',#225,#225,#193,.T.);
#259=EDGE_CURVE('',#226,#226,#194,.T.);
#260=EDGE_CURVE('',#226,#225,#47,.T.);
#261=EDGE_CURVE('',#220,#224,#48,.T.);
#262=EDGE_CURVE('',#227,#227,#195,.T.);
#263=EDGE_CURVE('',#227,#221,#49,.T.);
#264=EDGE_CURVE('',#228,#228,#196,.T.);
#265=EDGE_CURVE('',#229,#229,#197,.T.);
#266=EDGE_CURVE('',#219,#229,#50,.T.);
#267=EDGE_CURVE('',#230,#230,#198,.T.);
#268=EDGE_CURVE('',#230,#228,#51,.T.);
#269=EDGE_CURVE('',#231,#232,#23,.T.);
#270=EDGE_CURVE('',#232,#232,#199,.T.);
#271=EDGE_CURVE('',#231,#231,#200,.T.);
#272=EDGE_CURVE('',#233,#233,#201,.T.);
#273=EDGE_CURVE('',#233,#234,#52,.T.);
#274=EDGE_CURVE('',#234,#234,#202,.T.);
#275=EDGE_CURVE('',#235,#235,#203,.T.);
#276=EDGE_CURVE('',#236,#236,#204,.T.);
#277=EDGE_CURVE('',#237,#237,#205,.T.);
#278=EDGE_CURVE('',#235,#237,#53,.T.);
#279=EDGE_CURVE('',#236,#238,#54,.T.);
#280=EDGE_CURVE('',#238,#238,#206,.T.);
#281=EDGE_CURVE('',#239,#239,#207,.T.);
#282=EDGE_CURVE('',#240,#240,#208,.T.);
#283=EDGE_CURVE('',#241,#241,#209,.T.);
#284=EDGE_CURVE('',#242,#242,#210,.T.);
#285=EDGE_CURVE('',#243,#243,#211,.T.);
#286=EDGE_CURVE('',#243,#242,#55,.T.);
#287=EDGE_CURVE('',#244,#244,#212,.T.);
#288=EDGE_CURVE('',#245,#245,#213,.T.);
#289=EDGE_CURVE('',#246,#246,#214,.T.);
#290=EDGE_CURVE('',#246,#245,#56,.T.);
#291=EDGE_CURVE('',#240,#244,#57,.T.);
#292=EDGE_CURVE('',#247,#247,#215,.T.);
#293=EDGE_CURVE('',#247,#241,#58,.T.);
#294=EDGE_CURVE('',#248,#248,#216,.T.);
#295=EDGE_CURVE('',#249,#249,#217,.T.);
#296=EDGE_CURVE('',#239,#249,#59,.T.);
#297=EDGE_CURVE('',#250,#250,#218,.T.);
#298=EDGE_CURVE('',#250,#248,#60,.T.);
#299=ORIENTED_EDGE('',*,*,#251,.F.);
#300=ORIENTED_EDGE('',*,*,#252,.F.);
#301=ORIENTED_EDGE('',*,*,#253,.F.);
#302=ORIENTED_EDGE('',*,*,#254,.F.);
#303=ORIENTED_EDGE('',*,*,#255,.F.);
#304=ORIENTED_EDGE('',*,*,#256,.T.);
#305=ORIENTED_EDGE('',*,*,#254,.T.);
#306=ORIENTED_EDGE('',*,*,#256,.F.);
#307=ORIENTED_EDGE('',*,*,#257,.T.);
#308=ORIENTED_EDGE('',*,*,#258,.T.);
#309=ORIENTED_EDGE('',*,*,#259,.F.);
#310=ORIENTED_EDGE('',*,*,#260,.T.);
#311=ORIENTED_EDGE('',*,*,#258,.F.);
#312=ORIENTED_EDGE('',*,*,#260,.F.);
#313=ORIENTED_EDGE('',*,*,#252,.T.);
#314=ORIENTED_EDGE('',*,*,#261,.T.);
#315=ORIENTED_EDGE('',*,*,#257,.F.);
#316=ORIENTED_EDGE('',*,*,#261,.F.);
#317=ORIENTED_EDGE('',*,*,#255,.T.);
#318=ORIENTED_EDGE('',*,*,#259,.T.);
#319=ORIENTED_EDGE('',*,*,#262,.F.);
#320=ORIENTED_EDGE('',*,*,#263,.T.);
#321=ORIENTED_EDGE('',*,*,#253,.T.);
#322=ORIENTED_EDGE('',*,*,#263,.F.);
#323=ORIENTED_EDGE('',*,*,#264,.T.);
#324=ORIENTED_EDGE('',*,*,#265,.T.);
#325=ORIENTED_EDGE('',*,*,#251,.T.);
#326=ORIENTED_EDGE('',*,*,#266,.T.);
#327=ORIENTED_EDGE('',*,*,#265,.F.);
#328=ORIENTED_EDGE('',*,*,#266,.F.);
#329=ORIENTED_EDGE('',*,*,#267,.F.);
#330=ORIENTED_EDGE('',*,*,#268,.T.);
#331=ORIENTED_EDGE('',*,*,#264,.F.);
#332=ORIENTED_EDGE('',*,*,#268,.F.);
#333=ORIENTED_EDGE('',*,*,#267,.T.);
#334=ORIENTED_EDGE('',*,*,#262,.T.);
#335=ORIENTED_EDGE('',*,*,#269,.T.);
#336=ORIENTED_EDGE('',*,*,#270,.T.);
#337=ORIENTED_EDGE('',*,*,#269,.F.);
#338=ORIENTED_EDGE('',*,*,#271,.F.);
#339=ORIENTED_EDGE('',*,*,#272,.F.);
#340=ORIENTED_EDGE('',*,*,#273,.T.);
#341=ORIENTED_EDGE('',*,*,#274,.F.);
#342=ORIENTED_EDGE('',*,*,#273,.F.);
#343=ORIENTED_EDGE('',*,*,#272,.T.);
#344=ORIENTED_EDGE('',*,*,#275,.F.);
#345=ORIENTED_EDGE('',*,*,#276,.T.);
#346=ORIENTED_EDGE('',*,*,#277,.F.);
#347=ORIENTED_EDGE('',*,*,#275,.T.);
#348=ORIENTED_EDGE('',*,*,#278,.T.);
#349=ORIENTED_EDGE('',*,*,#277,.T.);
#350=ORIENTED_EDGE('',*,*,#278,.F.);
#351=ORIENTED_EDGE('',*,*,#271,.T.);
#352=ORIENTED_EDGE('',*,*,#274,.T.);
#353=ORIENTED_EDGE('',*,*,#276,.F.);
#354=ORIENTED_EDGE('',*,*,#279,.T.);
#355=ORIENTED_EDGE('',*,*,#280,.T.);
#356=ORIENTED_EDGE('',*,*,#279,.F.);
#357=ORIENTED_EDGE('',*,*,#270,.F.);
#358=ORIENTED_EDGE('',*,*,#280,.F.);
#359=ORIENTED_EDGE('',*,*,#281,.F.);
#360=ORIENTED_EDGE('',*,*,#282,.F.);
#361=ORIENTED_EDGE('',*,*,#283,.F.);
#362=ORIENTED_EDGE('',*,*,#284,.F.);
#363=ORIENTED_EDGE('',*,*,#285,.F.);
#364=ORIENTED_EDGE('',*,*,#286,.T.);
#365=ORIENTED_EDGE('',*,*,#284,.T.);
#366=ORIENTED_EDGE('',*,*,#286,.F.);
#367=ORIENTED_EDGE('',*,*,#287,.T.);
#368=ORIENTED_EDGE('',*,*,#288,.T.);
#369=ORIENTED_EDGE('',*,*,#289,.F.);
#370=ORIENTED_EDGE('',*,*,#290,.T.);
#371=ORIENTED_EDGE('',*,*,#288,.F.);
#372=ORIENTED_EDGE('',*,*,#290,.F.);
#373=ORIENTED_EDGE('',*,*,#282,.T.);
#374=ORIENTED_EDGE('',*,*,#291,.T.);
#375=ORIENTED_EDGE('',*,*,#287,.F.);
#376=ORIENTED_EDGE('',*,*,#291,.F.);
#377=ORIENTED_EDGE('',*,*,#285,.T.);
#378=ORIENTED_EDGE('',*,*,#289,.T.);
#379=ORIENTED_EDGE('',*,*,#292,.F.);
#380=ORIENTED_EDGE('',*,*,#293,.T.);
#381=ORIENTED_EDGE('',*,*,#283,.T.);
#382=ORIENTED_EDGE('',*,*,#293,.F.);
#383=ORIENTED_EDGE('',*,*,#294,.T.);
#384=ORIENTED_EDGE('',*,*,#295,.T.);
#385=ORIENTED_EDGE('',*,*,#281,.T.);
#386=ORIENTED_EDGE('',*,*,#296,.T.);
#387=ORIENTED_EDGE('',*,*,#295,.F.);
#388=ORIENTED_EDGE('',*,*,#296,.F.);
#389=ORIENTED_EDGE('',*,*,#297,.F.);
#390=ORIENTED_EDGE('',*,*,#298,.T.);
#391=ORIENTED_EDGE('',*,*,#294,.F.);
#392=ORIENTED_EDGE('',*,*,#298,.F.);
#393=ORIENTED_EDGE('',*,*,#297,.T.);
#394=ORIENTED_EDGE('',*,*,#292,.T.);
#395=PLANE('',#455);
#396=PLANE('',#458);
#397=PLANE('',#463);
#398=PLANE('',#469);
#399=PLANE('',#472);
#400=PLANE('',#478);
#401=PLANE('',#485);
#402=PLANE('',#487);
#403=PLANE('',#491);
#404=PLANE('',#494);
#405=PLANE('',#496);
#406=PLANE('',#499);
#407=PLANE('',#504);
#408=PLANE('',#510);
#409=PLANE('',#513);
#410=PLANE('',#519);
#411=STYLED_ITEM('',(#946),#418);
#412=STYLED_ITEM('',(#946),#419);
#413=STYLED_ITEM('',(#945),#43);
#414=STYLED_ITEM('',(#947),#44);
#415=STYLED_ITEM('',(#946),#438);
#416=STYLED_ITEM('',(#946),#439);
#417=STYLED_ITEM('',(#945),#45);
#418=ADVANCED_FACE('',(#107,#91),#395,.F.);
#419=ADVANCED_FACE('',(#108,#92),#396,.T.);
#420=ADVANCED_FACE('',(#109),#76,.T.);
#421=ADVANCED_FACE('',(#110,#93),#397,.F.);
#422=ADVANCED_FACE('',(#111),#77,.F.);
#423=ADVANCED_FACE('',(#112),#78,.T.);
#424=ADVANCED_FACE('',(#113,#94),#398,.T.);
#425=ADVANCED_FACE('',(#114),#79,.F.);
#426=ADVANCED_FACE('',(#115,#95),#399,.F.);
#427=ADVANCED_FACE('',(#116),#80,.F.);
#428=ADVANCED_FACE('',(#117),#81,.T.);
#429=ADVANCED_FACE('',(#118,#96),#400,.T.);
#430=ADVANCED_FACE('',(#119),#24,.F.);
#431=ADVANCED_FACE('',(#120),#82,.F.);
#432=ADVANCED_FACE('',(#121,#97),#401,.T.);
#433=ADVANCED_FACE('',(#122,#98),#402,.F.);
#434=ADVANCED_FACE('',(#123),#83,.F.);
#435=ADVANCED_FACE('',(#124,#99),#403,.T.);
#436=ADVANCED_FACE('',(#125),#84,.F.);
#437=ADVANCED_FACE('',(#126,#100),#404,.F.);
#438=ADVANCED_FACE('',(#127,#101),#405,.F.);
#439=ADVANCED_FACE('',(#128,#102),#406,.T.);
#440=ADVANCED_FACE('',(#129),#85,.T.);
#441=ADVANCED_FACE('',(#130,#103),#407,.F.);
#442=ADVANCED_FACE('',(#131),#86,.F.);
#443=ADVANCED_FACE('',(#132),#87,.T.);
#444=ADVANCED_FACE('',(#133,#104),#408,.T.);
#445=ADVANCED_FACE('',(#134),#88,.F.);
#446=ADVANCED_FACE('',(#135,#105),#409,.F.);
#447=ADVANCED_FACE('',(#136),#89,.F.);
#448=ADVANCED_FACE('',(#137),#90,.T.);
#449=ADVANCED_FACE('',(#138,#106),#410,.T.);
#450=CLOSED_SHELL('',(#418,#419,#420,#421,#422,#423,#424,#425,#426,#427,
#428,#429));
#451=CLOSED_SHELL('',(#430,#431,#432,#433,#434,#435,#436,#437));
#452=CLOSED_SHELL('',(#438,#439,#440,#441,#442,#443,#444,#445,#446,#447,
#448,#449));
#453=AXIS2_PLACEMENT_3D('',#678,#523,#524);
#454=AXIS2_PLACEMENT_3D('',#679,#525,#526);
#455=AXIS2_PLACEMENT_3D('',#680,#527,#528);
#456=AXIS2_PLACEMENT_3D('',#682,#529,#530);
#457=AXIS2_PLACEMENT_3D('',#684,#531,#532);
#458=AXIS2_PLACEMENT_3D('',#685,#533,#534);
#459=AXIS2_PLACEMENT_3D('',#687,#535,#536);
#460=AXIS2_PLACEMENT_3D('',#689,#537,#538);
#461=AXIS2_PLACEMENT_3D('',#690,#539,#540);
#462=AXIS2_PLACEMENT_3D('',#692,#541,#542);
#463=AXIS2_PLACEMENT_3D('',#694,#544,#545);
#464=AXIS2_PLACEMENT_3D('',#696,#546,#547);
#465=AXIS2_PLACEMENT_3D('',#698,#548,#549);
#466=AXIS2_PLACEMENT_3D('',#699,#550,#551);
#467=AXIS2_PLACEMENT_3D('',#701,#552,#553);
#468=AXIS2_PLACEMENT_3D('',#703,#555,#556);
#469=AXIS2_PLACEMENT_3D('',#705,#558,#559);
#470=AXIS2_PLACEMENT_3D('',#706,#560,#561);
#471=AXIS2_PLACEMENT_3D('',#708,#562,#563);
#472=AXIS2_PLACEMENT_3D('',#710,#565,#566);
#473=AXIS2_PLACEMENT_3D('',#712,#567,#568);
#474=AXIS2_PLACEMENT_3D('',#714,#569,#570);
#475=AXIS2_PLACEMENT_3D('',#715,#571,#572);
#476=AXIS2_PLACEMENT_3D('',#717,#574,#575);
#477=AXIS2_PLACEMENT_3D('',#719,#576,#577);
#478=AXIS2_PLACEMENT_3D('',#721,#579,#580);
#479=AXIS2_PLACEMENT_3D('',#722,#581,#582);
#480=AXIS2_PLACEMENT_3D('',#825,#583,#584);
#481=AXIS2_PLACEMENT_3D('',#826,#585,#586);
#482=AXIS2_PLACEMENT_3D('',#827,#587,#588);
#483=AXIS2_PLACEMENT_3D('',#829,#589,#590);
#484=AXIS2_PLACEMENT_3D('',#832,#592,#593);
#485=AXIS2_PLACEMENT_3D('',#833,#594,#595);
#486=AXIS2_PLACEMENT_3D('',#835,#596,#597);
#487=AXIS2_PLACEMENT_3D('',#836,#598,#599);
#488=AXIS2_PLACEMENT_3D('',#838,#600,#601);
#489=AXIS2_PLACEMENT_3D('',#840,#602,#603);
#490=AXIS2_PLACEMENT_3D('',#841,#604,#605);
#491=AXIS2_PLACEMENT_3D('',#843,#607,#608);
#492=AXIS2_PLACEMENT_3D('',#844,#609,#610);
#493=AXIS2_PLACEMENT_3D('',#847,#612,#613);
#494=AXIS2_PLACEMENT_3D('',#848,#614,#615);
#495=AXIS2_PLACEMENT_3D('',#849,#616,#617);
#496=AXIS2_PLACEMENT_3D('',#850,#618,#619);
#497=AXIS2_PLACEMENT_3D('',#852,#620,#621);
#498=AXIS2_PLACEMENT_3D('',#854,#622,#623);
#499=AXIS2_PLACEMENT_3D('',#855,#624,#625);
#500=AXIS2_PLACEMENT_3D('',#857,#626,#627);
#501=AXIS2_PLACEMENT_3D('',#859,#628,#629);
#502=AXIS2_PLACEMENT_3D('',#860,#630,#631);
#503=AXIS2_PLACEMENT_3D('',#862,#632,#633);
#504=AXIS2_PLACEMENT_3D('',#864,#635,#636);
#505=AXIS2_PLACEMENT_3D('',#866,#637,#638);
#506=AXIS2_PLACEMENT_3D('',#868,#639,#640);
#507=AXIS2_PLACEMENT_3D('',#869,#641,#642);
#508=AXIS2_PLACEMENT_3D('',#871,#643,#644);
#509=AXIS2_PLACEMENT_3D('',#873,#646,#647);
#510=AXIS2_PLACEMENT_3D('',#875,#649,#650);
#511=AXIS2_PLACEMENT_3D('',#876,#651,#652);
#512=AXIS2_PLACEMENT_3D('',#878,#653,#654);
#513=AXIS2_PLACEMENT_3D('',#880,#656,#657);
#514=AXIS2_PLACEMENT_3D('',#882,#658,#659);
#515=AXIS2_PLACEMENT_3D('',#884,#660,#661);
#516=AXIS2_PLACEMENT_3D('',#885,#662,#663);
#517=AXIS2_PLACEMENT_3D('',#887,#665,#666);
#518=AXIS2_PLACEMENT_3D('',#889,#667,#668);
#519=AXIS2_PLACEMENT_3D('',#891,#670,#671);
#520=AXIS2_PLACEMENT_3D('',#892,#672,#673);
#521=AXIS2_PLACEMENT_3D('',#893,#674,#675);
#522=AXIS2_PLACEMENT_3D('',#894,#676,#677);
#523=DIRECTION('axis',(0.,0.,1.));
#524=DIRECTION('refdir',(1.,0.,0.));
#525=DIRECTION('axis',(0.,0.,1.));
#526=DIRECTION('refdir',(1.,0.,0.));
#527=DIRECTION('center_axis',(0.,0.,1.));
#528=DIRECTION('ref_axis',(1.,0.,0.));
#529=DIRECTION('center_axis',(0.,0.,1.));
#530=DIRECTION('ref_axis',(1.,0.,0.));
#531=DIRECTION('center_axis',(0.,0.,-1.));
#532=DIRECTION('ref_axis',(1.,0.,0.));
#533=DIRECTION('center_axis',(0.,0.,1.));
#534=DIRECTION('ref_axis',(1.,0.,0.));
#535=DIRECTION('center_axis',(0.,0.,-1.));
#536=DIRECTION('ref_axis',(1.,0.,0.));
#537=DIRECTION('center_axis',(0.,0.,1.));
#538=DIRECTION('ref_axis',(1.,0.,0.));
#539=DIRECTION('center_axis',(0.,0.,1.));
#540=DIRECTION('ref_axis',(1.,0.,0.));
#541=DIRECTION('center_axis',(0.,0.,1.));
#542=DIRECTION('ref_axis',(1.,0.,0.));
#543=DIRECTION('',(0.,0.,-1.));
#544=DIRECTION('center_axis',(0.,0.,1.));
#545=DIRECTION('ref_axis',(1.,0.,0.));
#546=DIRECTION('center_axis',(0.,0.,-1.));
#547=DIRECTION('ref_axis',(1.,0.,0.));
#548=DIRECTION('center_axis',(0.,0.,1.));
#549=DIRECTION('ref_axis',(1.,0.,0.));
#550=DIRECTION('center_axis',(0.,0.,1.));
#551=DIRECTION('ref_axis',(1.,0.,0.));
#552=DIRECTION('center_axis',(0.,0.,-1.));
#553=DIRECTION('ref_axis',(1.,0.,0.));
#554=DIRECTION('',(0.,0.,-1.));
#555=DIRECTION('center_axis',(0.,0.,1.));
#556=DIRECTION('ref_axis',(1.,0.,0.));
#557=DIRECTION('',(0.,0.,-1.));
#558=DIRECTION('center_axis',(0.,0.,1.));
#559=DIRECTION('ref_axis',(1.,0.,0.));
#560=DIRECTION('center_axis',(0.,0.,1.));
#561=DIRECTION('ref_axis',(1.,0.,0.));
#562=DIRECTION('center_axis',(0.,0.,-1.));
#563=DIRECTION('ref_axis',(1.,0.,0.));
#564=DIRECTION('',(0.,0.,-1.));
#565=DIRECTION('center_axis',(0.,0.,1.));
#566=DIRECTION('ref_axis',(1.,0.,0.));
#567=DIRECTION('center_axis',(0.,0.,-1.));
#568=DIRECTION('ref_axis',(1.,0.,0.));
#569=DIRECTION('center_axis',(0.,0.,1.));
#570=DIRECTION('ref_axis',(1.,0.,0.));
#571=DIRECTION('center_axis',(0.,0.,1.));
#572=DIRECTION('ref_axis',(1.,0.,0.));
#573=DIRECTION('',(0.,0.,-1.));
#574=DIRECTION('center_axis',(0.,0.,1.));
#575=DIRECTION('ref_axis',(1.,0.,0.));
#576=DIRECTION('center_axis',(0.,0.,1.));
#577=DIRECTION('ref_axis',(1.,0.,0.));
#578=DIRECTION('',(0.,0.,-1.));
#579=DIRECTION('center_axis',(0.,0.,1.));
#580=DIRECTION('ref_axis',(1.,0.,0.));
#581=DIRECTION('axis',(0.,0.,1.));
#582=DIRECTION('refdir',(1.,0.,0.));
#583=DIRECTION('center_axis',(0.,0.,1.));
#584=DIRECTION('ref_axis',(1.,0.,0.));
#585=DIRECTION('center_axis',(0.,0.,1.));
#586=DIRECTION('ref_axis',(1.,0.,0.));
#587=DIRECTION('center_axis',(0.,0.,1.));
#588=DIRECTION('ref_axis',(1.,0.,0.));
#589=DIRECTION('center_axis',(0.,0.,1.));
#590=DIRECTION('ref_axis',(1.,0.,0.));
#591=DIRECTION('',(0.,0.,1.));
#592=DIRECTION('center_axis',(0.,0.,-1.));
#593=DIRECTION('ref_axis',(1.,0.,0.));
#594=DIRECTION('center_axis',(0.,0.,1.));
#595=DIRECTION('ref_axis',(1.,0.,0.));
#596=DIRECTION('center_axis',(0.,0.,1.));
#597=DIRECTION('ref_axis',(1.,0.,0.));
#598=DIRECTION('center_axis',(0.,0.,1.));
#599=DIRECTION('ref_axis',(1.,0.,0.));
#600=DIRECTION('center_axis',(0.,0.,-1.));
#601=DIRECTION('ref_axis',(1.,0.,0.));
#602=DIRECTION('center_axis',(0.,0.,-1.));
#603=DIRECTION('ref_axis',(1.,0.,0.));
#604=DIRECTION('center_axis',(0.,0.,1.));
#605=DIRECTION('ref_axis',(1.,0.,0.));
#606=DIRECTION('',(0.,0.,-1.));
#607=DIRECTION('center_axis',(0.,0.,1.));
#608=DIRECTION('ref_axis',(1.,0.,0.));
#609=DIRECTION('center_axis',(0.,0.,1.));
#610=DIRECTION('ref_axis',(1.,0.,0.));
#611=DIRECTION('',(0.,0.,-1.));
#612=DIRECTION('center_axis',(0.,0.,-1.));
#613=DIRECTION('ref_axis',(1.,0.,0.));
#614=DIRECTION('center_axis',(0.,0.,1.));
#615=DIRECTION('ref_axis',(1.,0.,0.));
#616=DIRECTION('axis',(0.,0.,1.));
#617=DIRECTION('refdir',(1.,0.,0.));
#618=DIRECTION('center_axis',(0.,0.,1.));
#619=DIRECTION('ref_axis',(1.,0.,0.));
#620=DIRECTION('center_axis',(0.,0.,1.));
#621=DIRECTION('ref_axis',(1.,0.,0.));
#622=DIRECTION('center_axis',(0.,0.,-1.));
#623=DIRECTION('ref_axis',(1.,0.,0.));
#624=DIRECTION('center_axis',(0.,0.,1.));
#625=DIRECTION('ref_axis',(1.,0.,0.));
#626=DIRECTION('center_axis',(0.,0.,-1.));
#627=DIRECTION('ref_axis',(1.,0.,0.));
#628=DIRECTION('center_axis',(0.,0.,1.));
#629=DIRECTION('ref_axis',(1.,0.,0.));
#630=DIRECTION('center_axis',(0.,0.,1.));
#631=DIRECTION('ref_axis',(1.,0.,0.));
#632=DIRECTION('center_axis',(0.,0.,1.));
#633=DIRECTION('ref_axis',(1.,0.,0.));
#634=DIRECTION('',(0.,0.,-1.));
#635=DIRECTION('center_axis',(0.,0.,1.));
#636=DIRECTION('ref_axis',(1.,0.,0.));
#637=DIRECTION('center_axis',(0.,0.,-1.));
#638=DIRECTION('ref_axis',(1.,0.,0.));
#639=DIRECTION('center_axis',(0.,0.,1.));
#640=DIRECTION('ref_axis',(1.,0.,0.));
#641=DIRECTION('center_axis',(0.,0.,1.));
#642=DIRECTION('ref_axis',(1.,0.,0.));
#643=DIRECTION('center_axis',(0.,0.,-1.));
#644=DIRECTION('ref_axis',(1.,0.,0.));
#645=DIRECTION('',(0.,0.,-1.));
#646=DIRECTION('center_axis',(0.,0.,1.));
#647=DIRECTION('ref_axis',(1.,0.,0.));
#648=DIRECTION('',(0.,0.,-1.));
#649=DIRECTION('center_axis',(0.,0.,1.));
#650=DIRECTION('ref_axis',(1.,0.,0.));
#651=DIRECTION('center_axis',(0.,0.,1.));
#652=DIRECTION('ref_axis',(1.,0.,0.));
#653=DIRECTION('center_axis',(0.,0.,-1.));
#654=DIRECTION('ref_axis',(1.,0.,0.));
#655=DIRECTION('',(0.,0.,-1.));
#656=DIRECTION('center_axis',(0.,0.,1.));
#657=DIRECTION('ref_axis',(1.,0.,0.));
#658=DIRECTION('center_axis',(0.,0.,-1.));
#659=DIRECTION('ref_axis',(1.,0.,0.));
#660=DIRECTION('center_axis',(0.,0.,1.));
#661=DIRECTION('ref_axis',(1.,0.,0.));
#662=DIRECTION('center_axis',(0.,0.,1.));
#663=DIRECTION('ref_axis',(1.,0.,0.));
#664=DIRECTION('',(0.,0.,-1.));
#665=DIRECTION('center_axis',(0.,0.,1.));
#666=DIRECTION('ref_axis',(1.,0.,0.));
#667=DIRECTION('center_axis',(0.,0.,1.));
#668=DIRECTION('ref_axis',(1.,0.,0.));
#669=DIRECTION('',(0.,0.,-1.));
#670=DIRECTION('center_axis',(0.,0.,1.));
#671=DIRECTION('ref_axis',(1.,0.,0.));
#672=DIRECTION('',(0.,0.,1.));
#673=DIRECTION('',(1.,0.,0.));
#674=DIRECTION('',(0.,0.,1.));
#675=DIRECTION('',(1.,0.,0.));
#676=DIRECTION('',(1.58296389408867E-16,0.,-0.999999999999997));
#677=DIRECTION('',(1.,-1.52240677886852E-47,6.93889390390726E-17));
#678=CARTESIAN_POINT('',(0.,0.,0.));
#679=CARTESIAN_POINT('',(0.,0.,0.));
#680=CARTESIAN_POINT('Origin',(0.,0.,-1.8));
#681=CARTESIAN_POINT('',(-3.4,-4.163799117101E-16,-1.8));
#682=CARTESIAN_POINT('Origin',(0.,0.,-1.8));
#683=CARTESIAN_POINT('',(-2.,-2.44929359829471E-16,-1.8));
#684=CARTESIAN_POINT('Origin',(0.,0.,-1.8));
#685=CARTESIAN_POINT('Origin',(0.,0.,1.8));
#686=CARTESIAN_POINT('',(-3.4,-4.163799117101E-16,1.8));
#687=CARTESIAN_POINT('Origin',(0.,0.,1.8));
#688=CARTESIAN_POINT('',(-2.,-2.44929359829471E-16,1.8));
#689=CARTESIAN_POINT('Origin',(0.,0.,1.8));
#690=CARTESIAN_POINT('Origin',(0.,0.,0.));
#691=CARTESIAN_POINT('',(-2.,-2.44929359829471E-16,2.));
#692=CARTESIAN_POINT('Origin',(0.,0.,2.));
#693=CARTESIAN_POINT('',(-2.,-2.44929359829471E-16,0.));
#694=CARTESIAN_POINT('Origin',(0.,0.,-2.));
#695=CARTESIAN_POINT('',(-2.,-2.44929359829471E-16,-2.));
#696=CARTESIAN_POINT('Origin',(0.,0.,-2.));
#697=CARTESIAN_POINT('',(-1.5,-1.83697019872103E-16,-2.));
#698=CARTESIAN_POINT('Origin',(0.,0.,-2.));
#699=CARTESIAN_POINT('Origin',(0.,0.,0.));
#700=CARTESIAN_POINT('',(-1.5,-1.83697019872103E-16,2.));
#701=CARTESIAN_POINT('Origin',(0.,0.,2.));
#702=CARTESIAN_POINT('',(-1.5,-1.83697019872103E-16,0.));
#703=CARTESIAN_POINT('Origin',(0.,0.,0.));
#704=CARTESIAN_POINT('',(-2.,-2.44929359829471E-16,0.));
#705=CARTESIAN_POINT('Origin',(0.,0.,2.));
#706=CARTESIAN_POINT('Origin',(0.,0.,0.));
#707=CARTESIAN_POINT('',(-3.4,-4.163799117101E-16,2.));
#708=CARTESIAN_POINT('Origin',(0.,0.,2.));
#709=CARTESIAN_POINT('',(-3.4,-4.163799117101E-16,0.));
#710=CARTESIAN_POINT('Origin',(0.,0.,-2.));
#711=CARTESIAN_POINT('',(-4.,-4.89858719658941E-16,-2.));
#712=CARTESIAN_POINT('Origin',(0.,0.,-2.));
#713=CARTESIAN_POINT('',(-3.4,-4.163799117101E-16,-2.));
#714=CARTESIAN_POINT('Origin',(0.,0.,-2.));
#715=CARTESIAN_POINT('Origin',(0.,0.,0.));
#716=CARTESIAN_POINT('',(-3.4,-4.163799117101E-16,0.));
#717=CARTESIAN_POINT('Origin',(0.,0.,0.));
#718=CARTESIAN_POINT('',(-4.,-4.89858719658941E-16,2.));
#719=CARTESIAN_POINT('Origin',(0.,0.,2.));
#720=CARTESIAN_POINT('',(-4.,-4.89858719658941E-16,0.));
#721=CARTESIAN_POINT('Origin',(0.,0.,2.));
#722=CARTESIAN_POINT('',(0.,0.,0.));
#723=CARTESIAN_POINT('Ctrl Pts',(5.99999986588955,0.,0.499999988824129));
#724=CARTESIAN_POINT('Ctrl Pts',(5.99999986588955,5.99999986588955,0.499999988824129));
#725=CARTESIAN_POINT('Ctrl Pts',(0.,5.99999986588955,0.499999988824129));
#726=CARTESIAN_POINT('Ctrl Pts',(-5.99999986588955,5.99999986588955,0.499999988824129));
#727=CARTESIAN_POINT('Ctrl Pts',(-5.99999986588955,0.,0.499999988824129));
#728=CARTESIAN_POINT('Ctrl Pts',(-5.99999986588955,-5.99999986588955,0.499999988824129));
#729=CARTESIAN_POINT('Ctrl Pts',(0.,-5.99999986588955,0.499999988824129));
#730=CARTESIAN_POINT('Ctrl Pts',(5.99999986588955,-5.99999986588955,0.499999988824129));
#731=CARTESIAN_POINT('Ctrl Pts',(5.99999986588955,0.,0.499999988824129));
#732=CARTESIAN_POINT('Ctrl Pts',(5.9187636609528,0.,0.703090501165995));
#733=CARTESIAN_POINT('Ctrl Pts',(5.9187636609528,5.9187636609528,0.703090501165995));
#734=CARTESIAN_POINT('Ctrl Pts',(0.,5.9187636609528,0.703090501165995));
#735=CARTESIAN_POINT('Ctrl Pts',(-5.9187636609528,5.9187636609528,0.703090501165994));
#736=CARTESIAN_POINT('Ctrl Pts',(-5.9187636609528,0.,0.703090501165994));
#737=CARTESIAN_POINT('Ctrl Pts',(-5.9187636609528,-5.9187636609528,0.703090501165994));
#738=CARTESIAN_POINT('Ctrl Pts',(0.,-5.9187636609528,0.703090501165995));
#739=CARTESIAN_POINT('Ctrl Pts',(5.9187636609528,-5.9187636609528,0.703090501165995));
#740=CARTESIAN_POINT('Ctrl Pts',(5.9187636609528,0.,0.703090501165995));
#741=CARTESIAN_POINT('Ctrl Pts',(5.77788943324172,0.,1.23062022515705));
#742=CARTESIAN_POINT('Ctrl Pts',(5.77788943324172,5.77788943324172,1.23062022515705));
#743=CARTESIAN_POINT('Ctrl Pts',(0.,5.77788943324172,1.23062022515705));
#744=CARTESIAN_POINT('Ctrl Pts',(-5.77788943324172,5.77788943324172,1.23062022515705));
#745=CARTESIAN_POINT('Ctrl Pts',(-5.77788943324172,0.,1.23062022515705));
#746=CARTESIAN_POINT('Ctrl Pts',(-5.77788943324172,-5.77788943324172,1.23062022515705));
#747=CARTESIAN_POINT('Ctrl Pts',(0.,-5.77788943324172,1.23062022515705));
#748=CARTESIAN_POINT('Ctrl Pts',(5.77788943324172,-5.77788943324172,1.23062022515705));
#749=CARTESIAN_POINT('Ctrl Pts',(5.77788943324172,0.,1.23062022515705));
#750=CARTESIAN_POINT('Ctrl Pts',(5.63131635897381,0.,2.38558373760071));
#751=CARTESIAN_POINT('Ctrl Pts',(5.63131635897381,5.63131635897381,2.38558373760071));
#752=CARTESIAN_POINT('Ctrl Pts',(0.,5.63131635897381,2.38558373760071));
#753=CARTESIAN_POINT('Ctrl Pts',(-5.63131635897381,5.63131635897381,2.38558373760071));
#754=CARTESIAN_POINT('Ctrl Pts',(-5.63131635897381,0.,2.38558373760071));
#755=CARTESIAN_POINT('Ctrl Pts',(-5.63131635897381,-5.63131635897381,2.38558373760071));
#756=CARTESIAN_POINT('Ctrl Pts',(0.,-5.63131635897381,2.38558373760071));
#757=CARTESIAN_POINT('Ctrl Pts',(5.63131635897381,-5.63131635897381,2.38558373760071));
#758=CARTESIAN_POINT('Ctrl Pts',(5.63131635897381,0.,2.38558373760071));
#759=CARTESIAN_POINT('Ctrl Pts',(5.54923998552163,0.,4.50953951787756));
#760=CARTESIAN_POINT('Ctrl Pts',(5.54923998552163,5.54923998552163,4.50953951787756));
#761=CARTESIAN_POINT('Ctrl Pts',(0.,5.54923998552163,4.50953951787756));
#762=CARTESIAN_POINT('Ctrl Pts',(-5.54923998552163,5.54923998552163,4.50953951787756));
#763=CARTESIAN_POINT('Ctrl Pts',(-5.54923998552163,0.,4.50953951787756));
#764=CARTESIAN_POINT('Ctrl Pts',(-5.54923998552163,-5.54923998552163,4.50953951787756));
#765=CARTESIAN_POINT('Ctrl Pts',(0.,-5.54923998552163,4.50953951787756));
#766=CARTESIAN_POINT('Ctrl Pts',(5.54923998552163,-5.54923998552163,4.50953951787756));
#767=CARTESIAN_POINT('Ctrl Pts',(5.54923998552163,0.,4.50953951787756));
#768=CARTESIAN_POINT('Ctrl Pts',(5.58470756338753,0.,7.50809634817233));
#769=CARTESIAN_POINT('Ctrl Pts',(5.58470756338753,5.58470756338753,7.50809634817233));
#770=CARTESIAN_POINT('Ctrl Pts',(0.,5.58470756338753,7.50809634817233));
#771=CARTESIAN_POINT('Ctrl Pts',(-5.58470756338753,5.58470756338753,7.50809634817233));
#772=CARTESIAN_POINT('Ctrl Pts',(-5.58470756338753,0.,7.50809634817233));
#773=CARTESIAN_POINT('Ctrl Pts',(-5.58470756338753,-5.58470756338753,7.50809634817233));
#774=CARTESIAN_POINT('Ctrl Pts',(0.,-5.58470756338753,7.50809634817233));
#775=CARTESIAN_POINT('Ctrl Pts',(5.58470756338753,-5.58470756338753,7.50809634817233));
#776=CARTESIAN_POINT('Ctrl Pts',(5.58470756338753,0.,7.50809634817233));
#777=CARTESIAN_POINT('Ctrl Pts',(5.69893628686658,0.,9.62805460599495));
#778=CARTESIAN_POINT('Ctrl Pts',(5.69893628686658,5.69893628686658,9.62805460599495));
#779=CARTESIAN_POINT('Ctrl Pts',(0.,5.69893628686658,9.62805460599495));
#780=CARTESIAN_POINT('Ctrl Pts',(-5.69893628686658,5.69893628686658,9.62805460599495));
#781=CARTESIAN_POINT('Ctrl Pts',(-5.69893628686658,0.,9.62805460599495));
#782=CARTESIAN_POINT('Ctrl Pts',(-5.69893628686658,-5.69893628686658,9.62805460599495));
#783=CARTESIAN_POINT('Ctrl Pts',(0.,-5.69893628686658,9.62805460599495));
#784=CARTESIAN_POINT('Ctrl Pts',(5.69893628686658,-5.69893628686658,9.62805460599495));
#785=CARTESIAN_POINT('Ctrl Pts',(5.69893628686658,0.,9.62805460599495));
#786=CARTESIAN_POINT('Ctrl Pts',(5.83059765788308,0.,10.7773522011499));
#787=CARTESIAN_POINT('Ctrl Pts',(5.83059765788308,5.83059765788308,10.7773522011499));
#788=CARTESIAN_POINT('Ctrl Pts',(0.,5.83059765788308,10.7773522011499));
#789=CARTESIAN_POINT('Ctrl Pts',(-5.83059765788308,5.83059765788308,10.7773522011499));
#790=CARTESIAN_POINT('Ctrl Pts',(-5.83059765788308,0.,10.7773522011499));
#791=CARTESIAN_POINT('Ctrl Pts',(-5.83059765788308,-5.83059765788308,10.7773522011499));
#792=CARTESIAN_POINT('Ctrl Pts',(0.,-5.83059765788308,10.7773522011499));
#793=CARTESIAN_POINT('Ctrl Pts',(5.83059765788308,-5.83059765788308,10.7773522011499));
#794=CARTESIAN_POINT('Ctrl Pts',(5.83059765788308,0.,10.7773522011499));
#795=CARTESIAN_POINT('Ctrl Pts',(5.93993593551513,0.,11.2997866417069));
#796=CARTESIAN_POINT('Ctrl Pts',(5.93993593551513,5.93993593551513,11.2997866417069));
#797=CARTESIAN_POINT('Ctrl Pts',(0.,5.93993593551513,11.2997866417069));
#798=CARTESIAN_POINT('Ctrl Pts',(-5.93993593551513,5.93993593551513,11.2997866417069));
#799=CARTESIAN_POINT('Ctrl Pts',(-5.93993593551513,0.,11.2997866417069));
#800=CARTESIAN_POINT('Ctrl Pts',(-5.93993593551513,-5.93993593551513,11.2997866417069));
#801=CARTESIAN_POINT('Ctrl Pts',(0.,-5.93993593551513,11.2997866417069));
#802=CARTESIAN_POINT('Ctrl Pts',(5.93993593551513,-5.93993593551513,11.2997866417069));
#803=CARTESIAN_POINT('Ctrl Pts',(5.93993593551513,0.,11.2997866417069));
#804=CARTESIAN_POINT('Ctrl Pts',(5.99999986588955,0.,11.499999742955));
#805=CARTESIAN_POINT('Ctrl Pts',(5.99999986588955,5.99999986588955,11.499999742955));
#806=CARTESIAN_POINT('Ctrl Pts',(0.,5.99999986588955,11.499999742955));
#807=CARTESIAN_POINT('Ctrl Pts',(-5.99999986588955,5.99999986588955,11.499999742955));
#808=CARTESIAN_POINT('Ctrl Pts',(-5.99999986588955,0.,11.499999742955));
#809=CARTESIAN_POINT('Ctrl Pts',(-5.99999986588955,-5.99999986588955,11.499999742955));
#810=CARTESIAN_POINT('Ctrl Pts',(0.,-5.99999986588955,11.499999742955));
#811=CARTESIAN_POINT('Ctrl Pts',(5.99999986588955,-5.99999986588955,11.499999742955));
#812=CARTESIAN_POINT('Ctrl Pts',(5.99999986588955,0.,11.499999742955));
#813=CARTESIAN_POINT('',(5.99999986588955,0.,11.499999742955));
#814=CARTESIAN_POINT('',(5.99999986588955,0.,0.499999988824129));
#815=CARTESIAN_POINT('Ctrl Pts',(5.99999986588955,0.,11.499999742955));
#816=CARTESIAN_POINT('Ctrl Pts',(5.93993593551513,0.,11.2997866417069));
#817=CARTESIAN_POINT('Ctrl Pts',(5.83059765788308,0.,10.7773522011499));
#818=CARTESIAN_POINT('Ctrl Pts',(5.69893628686658,0.,9.62805460599495));
#819=CARTESIAN_POINT('Ctrl Pts',(5.58470756338753,0.,7.50809634817233));
#820=CARTESIAN_POINT('Ctrl Pts',(5.54923998552163,0.,4.50953951787756));
#821=CARTESIAN_POINT('Ctrl Pts',(5.63131635897381,0.,2.38558373760071));
#822=CARTESIAN_POINT('Ctrl Pts',(5.77788943324172,0.,1.23062022515705));
#823=CARTESIAN_POINT('Ctrl Pts',(5.9187636609528,0.,0.703090501165995));
#824=CARTESIAN_POINT('Ctrl Pts',(5.99999986588955,0.,0.499999988824129));
#825=CARTESIAN_POINT('Origin',(0.,0.,0.5));
#826=CARTESIAN_POINT('Origin',(0.,0.,11.5));
#827=CARTESIAN_POINT('Origin',(0.,0.,8.));
#828=CARTESIAN_POINT('',(-4.,-4.89858719658941E-16,8.));
#829=CARTESIAN_POINT('Origin',(0.,0.,8.));
#830=CARTESIAN_POINT('',(-4.,4.89858719658941E-16,11.5));
#831=CARTESIAN_POINT('',(-4.,-4.89858719658941E-16,8.));
#832=CARTESIAN_POINT('Origin',(0.,0.,11.5));
#833=CARTESIAN_POINT('Origin',(0.,0.,8.));
#834=CARTESIAN_POINT('',(-3.,-3.67394039744206E-16,8.));
#835=CARTESIAN_POINT('Origin',(0.,0.,8.));
#836=CARTESIAN_POINT('Origin',(0.,0.,4.));
#837=CARTESIAN_POINT('',(-4.,-4.89858719658941E-16,4.));
#838=CARTESIAN_POINT('Origin',(0.,0.,4.));
#839=CARTESIAN_POINT('',(-3.,-3.67394039744206E-16,4.));
#840=CARTESIAN_POINT('Origin',(0.,0.,4.));
#841=CARTESIAN_POINT('Origin',(0.,0.,4.));
#842=CARTESIAN_POINT('',(-3.,-3.67394039744206E-16,4.));
#843=CARTESIAN_POINT('Origin',(0.,0.,11.5));
#844=CARTESIAN_POINT('Origin',(0.,0.,0.));
#845=CARTESIAN_POINT('',(-4.,4.89858719658941E-16,0.5));
#846=CARTESIAN_POINT('',(-4.,-4.89858719658941E-16,0.));
#847=CARTESIAN_POINT('Origin',(0.,0.,0.5));
#848=CARTESIAN_POINT('Origin',(0.,0.,0.5));
#849=CARTESIAN_POINT('',(0.,0.,0.));
#850=CARTESIAN_POINT('Origin',(0.,0.,-1.8));
#851=CARTESIAN_POINT('',(-3.4,-4.163799117101E-16,-1.8));
#852=CARTESIAN_POINT('Origin',(0.,0.,-1.8));
#853=CARTESIAN_POINT('',(-2.,-2.44929359829471E-16,-1.8));
#854=CARTESIAN_POINT('Origin',(0.,0.,-1.8));
#855=CARTESIAN_POINT('Origin',(0.,0.,1.8));
#856=CARTESIAN_POINT('',(-3.4,-4.163799117101E-16,1.8));
#857=CARTESIAN_POINT('Origin',(0.,0.,1.8));
#858=CARTESIAN_POINT('',(-2.,-2.44929359829471E-16,1.8));
#859=CARTESIAN_POINT('Origin',(0.,0.,1.8));
#860=CARTESIAN_POINT('Origin',(0.,0.,0.));
#861=CARTESIAN_POINT('',(-2.,-2.44929359829471E-16,2.));
#862=CARTESIAN_POINT('Origin',(0.,0.,2.));
#863=CARTESIAN_POINT('',(-2.,-2.44929359829471E-16,0.));
#864=CARTESIAN_POINT('Origin',(0.,0.,-2.));
#865=CARTESIAN_POINT('',(-2.,-2.44929359829471E-16,-2.));
#866=CARTESIAN_POINT('Origin',(0.,0.,-2.));
#867=CARTESIAN_POINT('',(-1.5,-1.83697019872103E-16,-2.));
#868=CARTESIAN_POINT('Origin',(0.,0.,-2.));
#869=CARTESIAN_POINT('Origin',(0.,0.,0.));
#870=CARTESIAN_POINT('',(-1.5,-1.83697019872103E-16,2.));
#871=CARTESIAN_POINT('Origin',(0.,0.,2.));
#872=CARTESIAN_POINT('',(-1.5,-1.83697019872103E-16,0.));
#873=CARTESIAN_POINT('Origin',(0.,0.,0.));
#874=CARTESIAN_POINT('',(-2.,-2.44929359829471E-16,0.));
#875=CARTESIAN_POINT('Origin',(0.,0.,2.));
#876=CARTESIAN_POINT('Origin',(0.,0.,0.));
#877=CARTESIAN_POINT('',(-3.4,-4.163799117101E-16,2.));
#878=CARTESIAN_POINT('Origin',(0.,0.,2.));
#879=CARTESIAN_POINT('',(-3.4,-4.163799117101E-16,0.));
#880=CARTESIAN_POINT('Origin',(0.,0.,-2.));
#881=CARTESIAN_POINT('',(-4.,-4.89858719658941E-16,-2.));
#882=CARTESIAN_POINT('Origin',(0.,0.,-2.));
#883=CARTESIAN_POINT('',(-3.4,-4.163799117101E-16,-2.));
#884=CARTESIAN_POINT('Origin',(0.,0.,-2.));
#885=CARTESIAN_POINT('Origin',(0.,0.,0.));
#886=CARTESIAN_POINT('',(-3.4,-4.163799117101E-16,0.));
#887=CARTESIAN_POINT('Origin',(0.,0.,0.));
#888=CARTESIAN_POINT('',(-4.,-4.89858719658941E-16,2.));
#889=CARTESIAN_POINT('Origin',(0.,0.,2.));
#890=CARTESIAN_POINT('',(-4.,-4.89858719658941E-16,0.));
#891=CARTESIAN_POINT('Origin',(0.,0.,2.));
#892=CARTESIAN_POINT('',(1.11022302462516E-15,0.,10.));
#893=CARTESIAN_POINT('',(0.,0.,0.));
#894=CARTESIAN_POINT('',(3.16592778817733E-16,5.39760534693403E-78,2.00000000000001));
#895=UNCERTAINTY_MEASURE_WITH_UNIT(LENGTH_MEASURE(0.01),#905,
'DISTANCE_ACCURACY_VALUE',
'Maximum model space distance between geometric entities at asserted c
onnectivities');
#896=UNCERTAINTY_MEASURE_WITH_UNIT(LENGTH_MEASURE(0.01),#905,
'DISTANCE_ACCURACY_VALUE',
'Maximum model space distance between geometric entities at asserted c
onnectivities');
#897=UNCERTAINTY_MEASURE_WITH_UNIT(LENGTH_MEASURE(0.01),#905,
'DISTANCE_ACCURACY_VALUE',
'Maximum model space distance between geometric entities at asserted c
onnectivities');
#898=UNCERTAINTY_MEASURE_WITH_UNIT(LENGTH_MEASURE(0.01),#905,
'DISTANCE_ACCURACY_VALUE',
'Maximum model space distance between geometric entities at asserted c
onnectivities');
#899=UNCERTAINTY_MEASURE_WITH_UNIT(LENGTH_MEASURE(0.01),#905,
'DISTANCE_ACCURACY_VALUE',
'Maximum model space distance between geometric entities at asserted c
onnectivities');
#900=(
GEOMETRIC_REPRESENTATION_CONTEXT(3)
GLOBAL_UNCERTAINTY_ASSIGNED_CONTEXT((#895))
GLOBAL_UNIT_ASSIGNED_CONTEXT((#905,#907,#908))
REPRESENTATION_CONTEXT('','3D')
);
#901=(
GEOMETRIC_REPRESENTATION_CONTEXT(3)
GLOBAL_UNCERTAINTY_ASSIGNED_CONTEXT((#896))
GLOBAL_UNIT_ASSIGNED_CONTEXT((#905,#907,#908))
REPRESENTATION_CONTEXT('','3D')
);
#902=(
GEOMETRIC_REPRESENTATION_CONTEXT(3)
GLOBAL_UNCERTAINTY_ASSIGNED_CONTEXT((#897))
GLOBAL_UNIT_ASSIGNED_CONTEXT((#905,#907,#908))
REPRESENTATION_CONTEXT('','3D')
);
#903=(
GEOMETRIC_REPRESENTATION_CONTEXT(3)
GLOBAL_UNCERTAINTY_ASSIGNED_CONTEXT((#898))
GLOBAL_UNIT_ASSIGNED_CONTEXT((#905,#907,#908))
REPRESENTATION_CONTEXT('','3D')
);
#904=(
GEOMETRIC_REPRESENTATION_CONTEXT(3)
GLOBAL_UNCERTAINTY_ASSIGNED_CONTEXT((#899))
GLOBAL_UNIT_ASSIGNED_CONTEXT((#905,#907,#908))
REPRESENTATION_CONTEXT('','3D')
);
#905=(
LENGTH_UNIT()
NAMED_UNIT(*)
SI_UNIT(.MILLI.,.METRE.)
);
#906=(
LENGTH_UNIT()
NAMED_UNIT(*)
SI_UNIT($,.METRE.)
);
#907=(
NAMED_UNIT(*)
PLANE_ANGLE_UNIT()
SI_UNIT($,.RADIAN.)
);
#908=(
NAMED_UNIT(*)
SI_UNIT($,.STERADIAN.)
SOLID_ANGLE_UNIT()
);
#909=SHAPE_DEFINITION_REPRESENTATION(#913,#920);
#910=SHAPE_DEFINITION_REPRESENTATION(#914,#921);
#911=SHAPE_DEFINITION_REPRESENTATION(#915,#922);
#912=SHAPE_DEFINITION_REPRESENTATION(#916,#923);
#913=PRODUCT_DEFINITION_SHAPE('',$,#925);
#914=PRODUCT_DEFINITION_SHAPE('',$,#926);
#915=PRODUCT_DEFINITION_SHAPE('',$,#927);
#916=PRODUCT_DEFINITION_SHAPE('',$,#928);
#917=PRODUCT_DEFINITION_SHAPE($,$,#20);
#918=PRODUCT_DEFINITION_SHAPE($,$,#21);
#919=PRODUCT_DEFINITION_SHAPE($,$,#22);
#920=SHAPE_REPRESENTATION('',(#453,#520,#521,#522),#900);
#921=SHAPE_REPRESENTATION('',(#454),#901);
#922=SHAPE_REPRESENTATION('',(#479),#902);
#923=SHAPE_REPRESENTATION('',(#495),#903);
#924=PRODUCT_DEFINITION_CONTEXT('part definition',#938,'design');
#925=PRODUCT_DEFINITION('Rollers','Rollers v4',#929,#924);
#926=PRODUCT_DEFINITION('Bearing','Bearing v4',#930,#924);
#927=PRODUCT_DEFINITION('BearingSleeve','BearingSleeve v8',#931,#924);
#928=PRODUCT_DEFINITION('Bearing_1','Bearing v4',#932,#924);
#929=PRODUCT_DEFINITION_FORMATION('',$,#940);
#930=PRODUCT_DEFINITION_FORMATION('',$,#941);
#931=PRODUCT_DEFINITION_FORMATION('',$,#942);
#932=PRODUCT_DEFINITION_FORMATION('',$,#943);
#933=PRODUCT_RELATED_PRODUCT_CATEGORY('Rollers v4','Rollers v4',(#940));
#934=PRODUCT_RELATED_PRODUCT_CATEGORY('Bearing v4','Bearing v4',(#941));
#935=PRODUCT_RELATED_PRODUCT_CATEGORY('BearingSleeve v8',
'BearingSleeve v8',(#942));
#936=PRODUCT_RELATED_PRODUCT_CATEGORY('Bearing v4','Bearing v4',(#943));
#937=APPLICATION_PROTOCOL_DEFINITION('international standard',
'automotive_design',2009,#938);
#938=APPLICATION_CONTEXT(
'Core Data for Automotive Mechanical Design Process');
#939=PRODUCT_CONTEXT('part definition',#938,'mechanical');
#940=PRODUCT('Rollers','Rollers v4',$,(#939));
#941=PRODUCT('Bearing','Bearing v4',$,(#939));
#942=PRODUCT('BearingSleeve','BearingSleeve v8',$,(#939));
#943=PRODUCT('Bearing_1','Bearing v4',$,(#939));
#944=PRESENTATION_STYLE_ASSIGNMENT((#948));
#945=PRESENTATION_STYLE_ASSIGNMENT((#949));
#946=PRESENTATION_STYLE_ASSIGNMENT((#950));
#947=PRESENTATION_STYLE_ASSIGNMENT((#951));
#948=SURFACE_STYLE_USAGE(.BOTH.,#952);
#949=SURFACE_STYLE_USAGE(.BOTH.,#953);
#950=SURFACE_STYLE_USAGE(.BOTH.,#954);
#951=SURFACE_STYLE_USAGE(.BOTH.,#955);
#952=SURFACE_SIDE_STYLE('',(#956));
#953=SURFACE_SIDE_STYLE('',(#957));
#954=SURFACE_SIDE_STYLE('',(#958));
#955=SURFACE_SIDE_STYLE('',(#959));
#956=SURFACE_STYLE_FILL_AREA(#960);
#957=SURFACE_STYLE_FILL_AREA(#961);
#958=SURFACE_STYLE_FILL_AREA(#962);
#959=SURFACE_STYLE_FILL_AREA(#963);
#960=FILL_AREA_STYLE('Steel - Satin',(#964));
#961=FILL_AREA_STYLE('Paint - Metallic (Silver)',(#965));
#962=FILL_AREA_STYLE('Plastic - Matte (Blue)',(#966));
#963=FILL_AREA_STYLE('Plastic - Matte (Red)',(#967));
#964=FILL_AREA_STYLE_COLOUR('Steel - Satin',#968);
#965=FILL_AREA_STYLE_COLOUR('Paint - Metallic (Silver)',#969);
#966=FILL_AREA_STYLE_COLOUR('Plastic - Matte (Blue)',#970);
#967=FILL_AREA_STYLE_COLOUR('Plastic - Matte (Red)',#971);
#968=COLOUR_RGB('Steel - Satin',0.627450980392157,0.627450980392157,0.627450980392157);
#969=COLOUR_RGB('Paint - Metallic (Silver)',0.984313725490196,0.980392156862745,
0.96078431372549);
#970=COLOUR_RGB('Plastic - Matte (Blue)',0.188235294117647,0.231372549019608,
0.588235294117647);
#971=COLOUR_RGB('Plastic - Matte (Red)',0.768627450980392,0.207843137254902,
0.152941176470588);
ENDSEC;
END-ISO-10303-21;
