ISO-10303-21;
HEADER;
/* Generated by software containing ST-Developer
 * from STEP Tools, Inc. (www.steptools.com) 
 */

FILE_DESCRIPTION(
/* description */ (''),
/* implementation_level */ '2;1');

FILE_NAME(
/* name */ 'SlideSupportAssembly_v5.step',
/* time_stamp */ '2026-08-21T09:19:11-04:00',
/* author */ (''),
/* organization */ (''),
/* preprocessor_version */ 'ST-DEVELOPER v20.1',
/* originating_system */ 'Autodesk Translation Framework v15.8.0.0',
/* authorisation */ '');

FILE_SCHEMA (('AUTOMOTIVE_DESIGN { 1 0 10303 214 3 1 1 }'));
ENDSEC;

DATA;
#10=MECHANICAL_DESIGN_GEOMETRIC_PRESENTATION_REPRESENTATION('',(#45,#46,
#47,#48),#2230);
#11=ITEM_DEFINED_TRANSFORMATION($,$,#1414,#1459);
#12=ITEM_DEFINED_TRANSFORMATION($,$,#1333,#1460);
#13=ITEM_DEFINED_TRANSFORMATION($,$,#1414,#1461);
#14=ITEM_DEFINED_TRANSFORMATION($,$,#1414,#1462);
#15=ITEM_DEFINED_TRANSFORMATION($,$,#1423,#1463);
#16=ITEM_DEFINED_TRANSFORMATION($,$,#1432,#1464);
#17=(
REPRESENTATION_RELATIONSHIP($,$,#2253,#2251)
REPRESENTATION_RELATIONSHIP_WITH_TRANSFORMATION(#11)
SHAPE_REPRESENTATION_RELATIONSHIP()
);
#18=(
REPRESENTATION_RELATIONSHIP($,$,#2252,#2251)
REPRESENTATION_RELATIONSHIP_WITH_TRANSFORMATION(#12)
SHAPE_REPRESENTATION_RELATIONSHIP()
);
#19=(
REPRESENTATION_RELATIONSHIP($,$,#2253,#2251)
REPRESENTATION_RELATIONSHIP_WITH_TRANSFORMATION(#13)
SHAPE_REPRESENTATION_RELATIONSHIP()
);
#20=(
REPRESENTATION_RELATIONSHIP($,$,#2253,#2251)
REPRESENTATION_RELATIONSHIP_WITH_TRANSFORMATION(#14)
SHAPE_REPRESENTATION_RELATIONSHIP()
);
#21=(
REPRESENTATION_RELATIONSHIP($,$,#2254,#2251)
REPRESENTATION_RELATIONSHIP_WITH_TRANSFORMATION(#15)
SHAPE_REPRESENTATION_RELATIONSHIP()
);
#22=(
REPRESENTATION_RELATIONSHIP($,$,#2255,#2251)
REPRESENTATION_RELATIONSHIP_WITH_TRANSFORMATION(#16)
SHAPE_REPRESENTATION_RELATIONSHIP()
);
#23=CONTEXT_DEPENDENT_SHAPE_REPRESENTATION(#17,#2245);
#24=CONTEXT_DEPENDENT_SHAPE_REPRESENTATION(#18,#2246);
#25=CONTEXT_DEPENDENT_SHAPE_REPRESENTATION(#19,#2247);
#26=CONTEXT_DEPENDENT_SHAPE_REPRESENTATION(#20,#2248);
#27=CONTEXT_DEPENDENT_SHAPE_REPRESENTATION(#21,#2249);
#28=CONTEXT_DEPENDENT_SHAPE_REPRESENTATION(#22,#2250);
#29=NEXT_ASSEMBLY_USAGE_OCCURRENCE('HeatSetInsert-M2.5x6 v1:1',
'HeatSetInsert-M2.5x6 v1:1','HeatSetInsert-M2.5x6 v1:1',#2257,#2259,
'HeatSetInsert-M2.5x6 v1:1');
#30=NEXT_ASSEMBLY_USAGE_OCCURRENCE('SlideSupports v3:1',
'SlideSupports v3:1','SlideSupports v3:1',#2257,#2258,
'SlideSupports v3:1');
#31=NEXT_ASSEMBLY_USAGE_OCCURRENCE('HeatSetInsert-M2.5x6 v1:3',
'HeatSetInsert-M2.5x6 v1:3','HeatSetInsert-M2.5x6 v1:3',#2257,#2259,
'HeatSetInsert-M2.5x6 v1:3');
#32=NEXT_ASSEMBLY_USAGE_OCCURRENCE('HeatSetInsert-M2.5x6 v1:4',
'HeatSetInsert-M2.5x6 v1:4','HeatSetInsert-M2.5x6 v1:4',#2257,#2259,
'HeatSetInsert-M2.5x6 v1:4');
#33=NEXT_ASSEMBLY_USAGE_OCCURRENCE('HeatSetInsert-M2.5x4 v1:1',
'HeatSetInsert-M2.5x4 v1:1','HeatSetInsert-M2.5x4 v1:1',#2257,#2260,
'HeatSetInsert-M2.5x4 v1:1');
#34=NEXT_ASSEMBLY_USAGE_OCCURRENCE(
'Broached Hexagon Socket Head Cap Screw ASME B18.3.1M - M2.5x0.45 x 4 
Steel Grade 2 Plain v1:1',
'Broached Hexagon Socket Head Cap Screw ASME B18.3.1M - M2.5x0.45 x 4 
Steel Grade 2 Plain v1:1',
'Broached Hexagon Socket Head Cap Screw ASME B18.3.1M - M2.5x0.45 x 4 
Steel Grade 2 Plain v1:1',#2257,#2261,
'Broached Hexagon Socket Head Cap Screw ASME B18.3.1M - M2.5x0.45 x 4 
Steel Grade 2 Plain v1:1');
#35=TOROIDAL_SURFACE('',#1436,1.99999999999998,0.25);
#36=CONICAL_SURFACE('',#1433,1.12447375,0.828689867018328);
#37=SHAPE_REPRESENTATION_RELATIONSHIP('SRR','None',#2252,#41);
#38=SHAPE_REPRESENTATION_RELATIONSHIP('SRR','None',#2253,#42);
#39=SHAPE_REPRESENTATION_RELATIONSHIP('SRR','None',#2254,#43);
#40=SHAPE_REPRESENTATION_RELATIONSHIP('SRR','None',#2255,#44);
#41=ADVANCED_BREP_SHAPE_REPRESENTATION('',(#49),#2226);
#42=ADVANCED_BREP_SHAPE_REPRESENTATION('',(#50),#2227);
#43=ADVANCED_BREP_SHAPE_REPRESENTATION('',(#51),#2228);
#44=ADVANCED_BREP_SHAPE_REPRESENTATION('',(#52),#2229);
#45=STYLED_ITEM('',(#2281),#49);
#46=STYLED_ITEM('',(#2282),#50);
#47=STYLED_ITEM('',(#2282),#51);
#48=STYLED_ITEM('',(#2280),#52);
#49=MANIFOLD_SOLID_BREP('Body1',#1283);
#50=MANIFOLD_SOLID_BREP('Body1',#1284);
#51=MANIFOLD_SOLID_BREP('Body1',#1285);
#52=MANIFOLD_SOLID_BREP('Body1',#1286);
#53=FACE_BOUND('',#209,.T.);
#54=FACE_BOUND('',#215,.T.);
#55=FACE_BOUND('',#236,.T.);
#56=FACE_BOUND('',#239,.T.);
#57=FACE_BOUND('',#244,.T.);
#58=FACE_BOUND('',#246,.T.);
#59=FACE_BOUND('',#250,.T.);
#60=FACE_BOUND('',#252,.T.);
#61=FACE_BOUND('',#256,.T.);
#62=FACE_BOUND('',#273,.T.);
#63=PLANE('',#1337);
#64=PLANE('',#1339);
#65=PLANE('',#1343);
#66=PLANE('',#1353);
#67=PLANE('',#1357);
#68=PLANE('',#1358);
#69=PLANE('',#1359);
#70=PLANE('',#1360);
#71=PLANE('',#1361);
#72=PLANE('',#1367);
#73=PLANE('',#1371);
#74=PLANE('',#1372);
#75=PLANE('',#1373);
#76=PLANE('',#1374);
#77=PLANE('',#1375);
#78=PLANE('',#1376);
#79=PLANE('',#1377);
#80=PLANE('',#1379);
#81=PLANE('',#1380);
#82=PLANE('',#1381);
#83=PLANE('',#1382);
#84=PLANE('',#1383);
#85=PLANE('',#1387);
#86=PLANE('',#1391);
#87=PLANE('',#1392);
#88=PLANE('',#1393);
#89=PLANE('',#1405);
#90=PLANE('',#1406);
#91=PLANE('',#1408);
#92=PLANE('',#1409);
#93=PLANE('',#1412);
#94=PLANE('',#1413);
#95=PLANE('',#1421);
#96=PLANE('',#1422);
#97=PLANE('',#1430);
#98=PLANE('',#1431);
#99=PLANE('',#1440);
#100=PLANE('',#1443);
#101=PLANE('',#1444);
#102=PLANE('',#1445);
#103=PLANE('',#1446);
#104=PLANE('',#1447);
#105=PLANE('',#1448);
#106=PLANE('',#1449);
#107=PLANE('',#1450);
#108=PLANE('',#1451);
#109=PLANE('',#1452);
#110=PLANE('',#1453);
#111=PLANE('',#1454);
#112=PLANE('',#1457);
#113=PLANE('',#1458);
#114=FACE_OUTER_BOUND('',#189,.T.);
#115=FACE_OUTER_BOUND('',#190,.T.);
#116=FACE_OUTER_BOUND('',#191,.T.);
#117=FACE_OUTER_BOUND('',#192,.T.);
#118=FACE_OUTER_BOUND('',#193,.T.);
#119=FACE_OUTER_BOUND('',#194,.T.);
#120=FACE_OUTER_BOUND('',#195,.T.);
#121=FACE_OUTER_BOUND('',#196,.T.);
#122=FACE_OUTER_BOUND('',#197,.T.);
#123=FACE_OUTER_BOUND('',#198,.T.);
#124=FACE_OUTER_BOUND('',#199,.T.);
#125=FACE_OUTER_BOUND('',#200,.T.);
#126=FACE_OUTER_BOUND('',#201,.T.);
#127=FACE_OUTER_BOUND('',#202,.T.);
#128=FACE_OUTER_BOUND('',#203,.T.);
#129=FACE_OUTER_BOUND('',#204,.T.);
#130=FACE_OUTER_BOUND('',#205,.T.);
#131=FACE_OUTER_BOUND('',#206,.T.);
#132=FACE_OUTER_BOUND('',#207,.T.);
#133=FACE_OUTER_BOUND('',#208,.T.);
#134=FACE_OUTER_BOUND('',#210,.T.);
#135=FACE_OUTER_BOUND('',#211,.T.);
#136=FACE_OUTER_BOUND('',#212,.T.);
#137=FACE_OUTER_BOUND('',#213,.T.);
#138=FACE_OUTER_BOUND('',#214,.T.);
#139=FACE_OUTER_BOUND('',#216,.T.);
#140=FACE_OUTER_BOUND('',#217,.T.);
#141=FACE_OUTER_BOUND('',#218,.T.);
#142=FACE_OUTER_BOUND('',#219,.T.);
#143=FACE_OUTER_BOUND('',#220,.T.);
#144=FACE_OUTER_BOUND('',#221,.T.);
#145=FACE_OUTER_BOUND('',#222,.T.);
#146=FACE_OUTER_BOUND('',#223,.T.);
#147=FACE_OUTER_BOUND('',#224,.T.);
#148=FACE_OUTER_BOUND('',#225,.T.);
#149=FACE_OUTER_BOUND('',#226,.T.);
#150=FACE_OUTER_BOUND('',#227,.T.);
#151=FACE_OUTER_BOUND('',#228,.T.);
#152=FACE_OUTER_BOUND('',#229,.T.);
#153=FACE_OUTER_BOUND('',#230,.T.);
#154=FACE_OUTER_BOUND('',#231,.T.);
#155=FACE_OUTER_BOUND('',#232,.T.);
#156=FACE_OUTER_BOUND('',#233,.T.);
#157=FACE_OUTER_BOUND('',#234,.T.);
#158=FACE_OUTER_BOUND('',#235,.T.);
#159=FACE_OUTER_BOUND('',#237,.T.);
#160=FACE_OUTER_BOUND('',#238,.T.);
#161=FACE_OUTER_BOUND('',#240,.T.);
#162=FACE_OUTER_BOUND('',#241,.T.);
#163=FACE_OUTER_BOUND('',#242,.T.);
#164=FACE_OUTER_BOUND('',#243,.T.);
#165=FACE_OUTER_BOUND('',#245,.T.);
#166=FACE_OUTER_BOUND('',#247,.T.);
#167=FACE_OUTER_BOUND('',#248,.T.);
#168=FACE_OUTER_BOUND('',#249,.T.);
#169=FACE_OUTER_BOUND('',#251,.T.);
#170=FACE_OUTER_BOUND('',#253,.T.);
#171=FACE_OUTER_BOUND('',#254,.T.);
#172=FACE_OUTER_BOUND('',#255,.T.);
#173=FACE_OUTER_BOUND('',#257,.T.);
#174=FACE_OUTER_BOUND('',#258,.T.);
#175=FACE_OUTER_BOUND('',#259,.T.);
#176=FACE_OUTER_BOUND('',#260,.T.);
#177=FACE_OUTER_BOUND('',#261,.T.);
#178=FACE_OUTER_BOUND('',#262,.T.);
#179=FACE_OUTER_BOUND('',#263,.T.);
#180=FACE_OUTER_BOUND('',#264,.T.);
#181=FACE_OUTER_BOUND('',#265,.T.);
#182=FACE_OUTER_BOUND('',#266,.T.);
#183=FACE_OUTER_BOUND('',#267,.T.);
#184=FACE_OUTER_BOUND('',#268,.T.);
#185=FACE_OUTER_BOUND('',#269,.T.);
#186=FACE_OUTER_BOUND('',#270,.T.);
#187=FACE_OUTER_BOUND('',#271,.T.);
#188=FACE_OUTER_BOUND('',#272,.T.);
#189=EDGE_LOOP('',(#846,#847,#848,#849));
#190=EDGE_LOOP('',(#850));
#191=EDGE_LOOP('',(#851));
#192=EDGE_LOOP('',(#852,#853,#854,#855));
#193=EDGE_LOOP('',(#856,#857,#858,#859));
#194=EDGE_LOOP('',(#860,#861,#862,#863));
#195=EDGE_LOOP('',(#864,#865,#866,#867));
#196=EDGE_LOOP('',(#868,#869,#870,#871));
#197=EDGE_LOOP('',(#872,#873,#874,#875));
#198=EDGE_LOOP('',(#876,#877,#878,#879));
#199=EDGE_LOOP('',(#880,#881,#882,#883));
#200=EDGE_LOOP('',(#884,#885,#886,#887));
#201=EDGE_LOOP('',(#888,#889,#890,#891));
#202=EDGE_LOOP('',(#892,#893,#894,#895));
#203=EDGE_LOOP('',(#896,#897,#898,#899));
#204=EDGE_LOOP('',(#900,#901,#902,#903));
#205=EDGE_LOOP('',(#904,#905,#906,#907));
#206=EDGE_LOOP('',(#908,#909,#910,#911));
#207=EDGE_LOOP('',(#912,#913,#914,#915));
#208=EDGE_LOOP('',(#916,#917,#918,#919,#920,#921,#922,#923,#924,#925,#926,
#927,#928,#929,#930,#931));
#209=EDGE_LOOP('',(#932));
#210=EDGE_LOOP('',(#933,#934,#935,#936));
#211=EDGE_LOOP('',(#937,#938,#939,#940));
#212=EDGE_LOOP('',(#941,#942,#943,#944));
#213=EDGE_LOOP('',(#945,#946,#947,#948));
#214=EDGE_LOOP('',(#949,#950,#951,#952,#953,#954,#955,#956,#957,#958,#959,
#960,#961,#962,#963,#964));
#215=EDGE_LOOP('',(#965));
#216=EDGE_LOOP('',(#966));
#217=EDGE_LOOP('',(#967,#968,#969,#970));
#218=EDGE_LOOP('',(#971,#972,#973,#974));
#219=EDGE_LOOP('',(#975,#976,#977,#978));
#220=EDGE_LOOP('',(#979,#980,#981,#982));
#221=EDGE_LOOP('',(#983,#984,#985,#986));
#222=EDGE_LOOP('',(#987,#988,#989,#990));
#223=EDGE_LOOP('',(#991,#992,#993,#994));
#224=EDGE_LOOP('',(#995,#996,#997,#998));
#225=EDGE_LOOP('',(#999,#1000,#1001,#1002,#1003,#1004,#1005,#1006,#1007,
#1008));
#226=EDGE_LOOP('',(#1009,#1010,#1011,#1012));
#227=EDGE_LOOP('',(#1013,#1014,#1015,#1016,#1017,#1018,#1019,#1020,#1021,
#1022,#1023,#1024));
#228=EDGE_LOOP('',(#1025,#1026,#1027,#1028));
#229=EDGE_LOOP('',(#1029,#1030,#1031,#1032));
#230=EDGE_LOOP('',(#1033,#1034,#1035,#1036));
#231=EDGE_LOOP('',(#1037,#1038,#1039,#1040));
#232=EDGE_LOOP('',(#1041,#1042,#1043,#1044));
#233=EDGE_LOOP('',(#1045,#1046,#1047,#1048,#1049,#1050,#1051,#1052,#1053,
#1054,#1055,#1056,#1057,#1058,#1059,#1060,#1061));
#234=EDGE_LOOP('',(#1062,#1063,#1064,#1065));
#235=EDGE_LOOP('',(#1066,#1067,#1068,#1069,#1070,#1071,#1072,#1073,#1074,
#1075,#1076,#1077,#1078,#1079,#1080,#1081,#1082));
#236=EDGE_LOOP('',(#1083));
#237=EDGE_LOOP('',(#1084,#1085,#1086,#1087));
#238=EDGE_LOOP('',(#1088,#1089,#1090,#1091));
#239=EDGE_LOOP('',(#1092));
#240=EDGE_LOOP('',(#1093));
#241=EDGE_LOOP('',(#1094,#1095,#1096,#1097));
#242=EDGE_LOOP('',(#1098,#1099,#1100,#1101));
#243=EDGE_LOOP('',(#1102));
#244=EDGE_LOOP('',(#1103));
#245=EDGE_LOOP('',(#1104));
#246=EDGE_LOOP('',(#1105));
#247=EDGE_LOOP('',(#1106,#1107,#1108,#1109));
#248=EDGE_LOOP('',(#1110,#1111,#1112,#1113));
#249=EDGE_LOOP('',(#1114));
#250=EDGE_LOOP('',(#1115));
#251=EDGE_LOOP('',(#1116));
#252=EDGE_LOOP('',(#1117));
#253=EDGE_LOOP('',(#1118,#1119,#1120,#1121));
#254=EDGE_LOOP('',(#1122,#1123,#1124,#1125));
#255=EDGE_LOOP('',(#1126));
#256=EDGE_LOOP('',(#1127,#1128,#1129,#1130,#1131,#1132));
#257=EDGE_LOOP('',(#1133,#1134,#1135,#1136));
#258=EDGE_LOOP('',(#1137,#1138,#1139));
#259=EDGE_LOOP('',(#1140,#1141,#1142));
#260=EDGE_LOOP('',(#1143,#1144,#1145));
#261=EDGE_LOOP('',(#1146,#1147,#1148));
#262=EDGE_LOOP('',(#1149,#1150,#1151));
#263=EDGE_LOOP('',(#1152,#1153,#1154));
#264=EDGE_LOOP('',(#1155,#1156,#1157,#1158));
#265=EDGE_LOOP('',(#1159,#1160,#1161,#1162));
#266=EDGE_LOOP('',(#1163,#1164,#1165,#1166));
#267=EDGE_LOOP('',(#1167,#1168,#1169,#1170));
#268=EDGE_LOOP('',(#1171,#1172,#1173,#1174));
#269=EDGE_LOOP('',(#1175,#1176,#1177,#1178));
#270=EDGE_LOOP('',(#1179,#1180,#1181,#1182));
#271=EDGE_LOOP('',(#1183));
#272=EDGE_LOOP('',(#1184));
#273=EDGE_LOOP('',(#1185));
#274=LINE('',#1860,#397);
#275=LINE('',#1871,#398);
#276=LINE('',#1875,#399);
#277=LINE('',#1877,#400);
#278=LINE('',#1879,#401);
#279=LINE('',#1880,#402);
#280=LINE('',#1885,#403);
#281=LINE('',#1890,#404);
#282=LINE('',#1897,#405);
#283=LINE('',#1901,#406);
#284=LINE('',#1903,#407);
#285=LINE('',#1904,#408);
#286=LINE('',#1910,#409);
#287=LINE('',#1914,#410);
#288=LINE('',#1916,#411);
#289=LINE('',#1918,#412);
#290=LINE('',#1919,#413);
#291=LINE('',#1922,#414);
#292=LINE('',#1924,#415);
#293=LINE('',#1925,#416);
#294=LINE('',#1928,#417);
#295=LINE('',#1930,#418);
#296=LINE('',#1931,#419);
#297=LINE('',#1934,#420);
#298=LINE('',#1936,#421);
#299=LINE('',#1937,#422);
#300=LINE('',#1941,#423);
#301=LINE('',#1942,#424);
#302=LINE('',#1943,#425);
#303=LINE('',#1950,#426);
#304=LINE('',#1953,#427);
#305=LINE('',#1955,#428);
#306=LINE('',#1956,#429);
#307=LINE('',#1961,#430);
#308=LINE('',#1965,#431);
#309=LINE('',#1966,#432);
#310=LINE('',#1969,#433);
#311=LINE('',#1971,#434);
#312=LINE('',#1972,#435);
#313=LINE('',#1975,#436);
#314=LINE('',#1977,#437);
#315=LINE('',#1978,#438);
#316=LINE('',#1982,#439);
#317=LINE('',#1984,#440);
#318=LINE('',#1986,#441);
#319=LINE('',#1987,#442);
#320=LINE('',#1990,#443);
#321=LINE('',#1991,#444);
#322=LINE('',#1992,#445);
#323=LINE('',#1994,#446);
#324=LINE('',#2001,#447);
#325=LINE('',#2002,#448);
#326=LINE('',#2003,#449);
#327=LINE('',#2007,#450);
#328=LINE('',#2009,#451);
#329=LINE('',#2011,#452);
#330=LINE('',#2012,#453);
#331=LINE('',#2015,#454);
#332=LINE('',#2017,#455);
#333=LINE('',#2018,#456);
#334=LINE('',#2021,#457);
#335=LINE('',#2023,#458);
#336=LINE('',#2024,#459);
#337=LINE('',#2028,#460);
#338=LINE('',#2029,#461);
#339=LINE('',#2030,#462);
#340=LINE('',#2036,#463);
#341=LINE('',#2039,#464);
#342=LINE('',#2041,#465);
#343=LINE('',#2042,#466);
#344=LINE('',#2047,#467);
#345=LINE('',#2051,#468);
#346=LINE('',#2052,#469);
#347=LINE('',#2053,#470);
#348=LINE('',#2056,#471);
#349=LINE('',#2057,#472);
#350=LINE('',#2060,#473);
#351=LINE('',#2062,#474);
#352=LINE('',#2063,#475);
#353=LINE('',#2068,#476);
#354=LINE('',#2073,#477);
#355=LINE('',#2080,#478);
#356=LINE('',#2085,#479);
#357=LINE('',#2089,#480);
#358=LINE('',#2090,#481);
#359=LINE('',#2091,#482);
#360=LINE('',#2096,#483);
#361=LINE('',#2097,#484);
#362=LINE('',#2100,#485);
#363=LINE('',#2101,#486);
#364=LINE('',#2105,#487);
#365=LINE('',#2107,#488);
#366=LINE('',#2115,#489);
#367=LINE('',#2121,#490);
#368=LINE('',#2130,#491);
#369=LINE('',#2136,#492);
#370=LINE('',#2145,#493);
#371=LINE('',#2156,#494);
#372=LINE('',#2158,#495);
#373=LINE('',#2160,#496);
#374=LINE('',#2162,#497);
#375=LINE('',#2164,#498);
#376=LINE('',#2165,#499);
#377=LINE('',#2169,#500);
#378=LINE('',#2173,#501);
#379=LINE('',#2175,#502);
#380=LINE('',#2176,#503);
#381=LINE('',#2179,#504);
#382=LINE('',#2180,#505);
#383=LINE('',#2183,#506);
#384=LINE('',#2184,#507);
#385=LINE('',#2187,#508);
#386=LINE('',#2188,#509);
#387=LINE('',#2191,#510);
#388=LINE('',#2192,#511);
#389=LINE('',#2194,#512);
#390=LINE('',#2196,#513);
#391=LINE('',#2197,#514);
#392=LINE('',#2199,#515);
#393=LINE('',#2201,#516);
#394=LINE('',#2203,#517);
#395=LINE('',#2205,#518);
#396=LINE('',#2209,#519);
#397=VECTOR('',#1473,1.75);
#398=VECTOR('',#1488,1.75);
#399=VECTOR('',#1491,10.);
#400=VECTOR('',#1492,10.);
#401=VECTOR('',#1493,10.);
#402=VECTOR('',#1494,10.);
#403=VECTOR('',#1499,10.);
#404=VECTOR('',#1504,10.);
#405=VECTOR('',#1513,10.);
#406=VECTOR('',#1518,10.);
#407=VECTOR('',#1519,10.);
#408=VECTOR('',#1520,10.);
#409=VECTOR('',#1527,10.);
#410=VECTOR('',#1530,10.);
#411=VECTOR('',#1531,10.);
#412=VECTOR('',#1532,10.);
#413=VECTOR('',#1533,10.);
#414=VECTOR('',#1536,10.);
#415=VECTOR('',#1537,10.);
#416=VECTOR('',#1538,10.);
#417=VECTOR('',#1541,10.);
#418=VECTOR('',#1542,10.);
#419=VECTOR('',#1543,10.);
#420=VECTOR('',#1546,10.);
#421=VECTOR('',#1547,10.);
#422=VECTOR('',#1548,10.);
#423=VECTOR('',#1551,10.);
#424=VECTOR('',#1552,10.);
#425=VECTOR('',#1553,10.);
#426=VECTOR('',#1564,1.75);
#427=VECTOR('',#1567,10.);
#428=VECTOR('',#1568,10.);
#429=VECTOR('',#1569,10.);
#430=VECTOR('',#1574,3.);
#431=VECTOR('',#1579,10.);
#432=VECTOR('',#1580,10.);
#433=VECTOR('',#1583,10.);
#434=VECTOR('',#1584,10.);
#435=VECTOR('',#1585,10.);
#436=VECTOR('',#1588,10.);
#437=VECTOR('',#1589,10.);
#438=VECTOR('',#1590,10.);
#439=VECTOR('',#1593,10.);
#440=VECTOR('',#1594,10.);
#441=VECTOR('',#1595,10.);
#442=VECTOR('',#1596,10.);
#443=VECTOR('',#1599,10.);
#444=VECTOR('',#1600,10.);
#445=VECTOR('',#1601,10.);
#446=VECTOR('',#1604,10.);
#447=VECTOR('',#1611,10.);
#448=VECTOR('',#1612,10.);
#449=VECTOR('',#1613,10.);
#450=VECTOR('',#1616,10.);
#451=VECTOR('',#1617,10.);
#452=VECTOR('',#1618,10.);
#453=VECTOR('',#1619,10.);
#454=VECTOR('',#1622,10.);
#455=VECTOR('',#1623,10.);
#456=VECTOR('',#1624,10.);
#457=VECTOR('',#1627,10.);
#458=VECTOR('',#1628,10.);
#459=VECTOR('',#1629,10.);
#460=VECTOR('',#1632,10.);
#461=VECTOR('',#1633,10.);
#462=VECTOR('',#1634,10.);
#463=VECTOR('',#1641,10.);
#464=VECTOR('',#1644,10.);
#465=VECTOR('',#1645,10.);
#466=VECTOR('',#1646,10.);
#467=VECTOR('',#1651,10.);
#468=VECTOR('',#1656,10.);
#469=VECTOR('',#1657,10.);
#470=VECTOR('',#1658,10.);
#471=VECTOR('',#1661,10.);
#472=VECTOR('',#1662,10.);
#473=VECTOR('',#1665,10.);
#474=VECTOR('',#1666,10.);
#475=VECTOR('',#1667,10.);
#476=VECTOR('',#1672,10.);
#477=VECTOR('',#1677,10.);
#478=VECTOR('',#1686,10.);
#479=VECTOR('',#1693,1.75);
#480=VECTOR('',#1696,10.);
#481=VECTOR('',#1697,10.);
#482=VECTOR('',#1698,10.);
#483=VECTOR('',#1703,10.);
#484=VECTOR('',#1704,10.);
#485=VECTOR('',#1707,10.);
#486=VECTOR('',#1708,10.);
#487=VECTOR('',#1713,10.);
#488=VECTOR('',#1716,10.);
#489=VECTOR('',#1727,1.25);
#490=VECTOR('',#1734,1.75);
#491=VECTOR('',#1747,1.25);
#492=VECTOR('',#1754,1.75);
#493=VECTOR('',#1767,1.12447375);
#494=VECTOR('',#1780,10.);
#495=VECTOR('',#1781,10.);
#496=VECTOR('',#1782,10.);
#497=VECTOR('',#1783,10.);
#498=VECTOR('',#1784,10.);
#499=VECTOR('',#1785,10.);
#500=VECTOR('',#1790,2.24999999999998);
#501=VECTOR('',#1793,10.);
#502=VECTOR('',#1794,10.);
#503=VECTOR('',#1795,10.);
#504=VECTOR('',#1798,10.);
#505=VECTOR('',#1799,10.);
#506=VECTOR('',#1802,10.);
#507=VECTOR('',#1803,10.);
#508=VECTOR('',#1806,10.);
#509=VECTOR('',#1807,10.);
#510=VECTOR('',#1810,10.);
#511=VECTOR('',#1811,10.);
#512=VECTOR('',#1814,10.);
#513=VECTOR('',#1817,10.);
#514=VECTOR('',#1818,10.);
#515=VECTOR('',#1821,10.);
#516=VECTOR('',#1824,10.);
#517=VECTOR('',#1827,10.);
#518=VECTOR('',#1830,10.);
#519=VECTOR('',#1835,1.24999999999999);
#520=CIRCLE('',#1335,1.75);
#521=CIRCLE('',#1336,1.75);
#522=CIRCLE('',#1338,1.75);
#523=CIRCLE('',#1340,1.75);
#524=CIRCLE('',#1342,1.75);
#525=CIRCLE('',#1345,3.);
#526=CIRCLE('',#1346,3.);
#527=CIRCLE('',#1348,4.75);
#528=CIRCLE('',#1349,4.75);
#529=CIRCLE('',#1351,2.5);
#530=CIRCLE('',#1352,2.5);
#531=CIRCLE('',#1355,3.);
#532=CIRCLE('',#1356,3.);
#533=CIRCLE('',#1363,1.5);
#534=CIRCLE('',#1364,1.5);
#535=CIRCLE('',#1366,1.75);
#536=CIRCLE('',#1369,3.);
#537=CIRCLE('',#1370,3.);
#538=CIRCLE('',#1378,1.75);
#539=CIRCLE('',#1385,1.5);
#540=CIRCLE('',#1386,1.5);
#541=CIRCLE('',#1389,2.5);
#542=CIRCLE('',#1390,2.5);
#543=CIRCLE('',#1395,2.);
#544=CIRCLE('',#1396,2.);
#545=CIRCLE('',#1398,4.75);
#546=CIRCLE('',#1399,4.75);
#547=CIRCLE('',#1401,2.);
#548=CIRCLE('',#1402,2.);
#549=CIRCLE('',#1404,1.75);
#550=CIRCLE('',#1407,1.5);
#551=CIRCLE('',#1410,1.5);
#552=CIRCLE('',#1416,1.03775);
#553=CIRCLE('',#1417,1.03775);
#554=CIRCLE('',#1419,1.75);
#555=CIRCLE('',#1420,1.75);
#556=CIRCLE('',#1425,1.03775);
#557=CIRCLE('',#1426,1.03775);
#558=CIRCLE('',#1428,1.75);
#559=CIRCLE('',#1429,1.75);
#560=CIRCLE('',#1434,1.215);
#561=CIRCLE('',#1435,0.9739475);
#562=CIRCLE('',#1437,2.24999999999998);
#563=CIRCLE('',#1438,0.25);
#564=CIRCLE('',#1439,1.99999999999998);
#565=CIRCLE('',#1442,2.24999999999998);
#566=CIRCLE('',#1456,1.215);
#567=VERTEX_POINT('',#1857);
#568=VERTEX_POINT('',#1859);
#569=VERTEX_POINT('',#1863);
#570=VERTEX_POINT('',#1866);
#571=VERTEX_POINT('',#1869);
#572=VERTEX_POINT('',#1873);
#573=VERTEX_POINT('',#1874);
#574=VERTEX_POINT('',#1876);
#575=VERTEX_POINT('',#1878);
#576=VERTEX_POINT('',#1882);
#577=VERTEX_POINT('',#1884);
#578=VERTEX_POINT('',#1888);
#579=VERTEX_POINT('',#1889);
#580=VERTEX_POINT('',#1894);
#581=VERTEX_POINT('',#1896);
#582=VERTEX_POINT('',#1900);
#583=VERTEX_POINT('',#1902);
#584=VERTEX_POINT('',#1906);
#585=VERTEX_POINT('',#1908);
#586=VERTEX_POINT('',#1912);
#587=VERTEX_POINT('',#1913);
#588=VERTEX_POINT('',#1915);
#589=VERTEX_POINT('',#1917);
#590=VERTEX_POINT('',#1921);
#591=VERTEX_POINT('',#1923);
#592=VERTEX_POINT('',#1927);
#593=VERTEX_POINT('',#1929);
#594=VERTEX_POINT('',#1933);
#595=VERTEX_POINT('',#1935);
#596=VERTEX_POINT('',#1939);
#597=VERTEX_POINT('',#1940);
#598=VERTEX_POINT('',#1948);
#599=VERTEX_POINT('',#1952);
#600=VERTEX_POINT('',#1954);
#601=VERTEX_POINT('',#1958);
#602=VERTEX_POINT('',#1960);
#603=VERTEX_POINT('',#1964);
#604=VERTEX_POINT('',#1968);
#605=VERTEX_POINT('',#1970);
#606=VERTEX_POINT('',#1974);
#607=VERTEX_POINT('',#1976);
#608=VERTEX_POINT('',#1980);
#609=VERTEX_POINT('',#1981);
#610=VERTEX_POINT('',#1983);
#611=VERTEX_POINT('',#1985);
#612=VERTEX_POINT('',#1989);
#613=VERTEX_POINT('',#1996);
#614=VERTEX_POINT('',#1999);
#615=VERTEX_POINT('',#2000);
#616=VERTEX_POINT('',#2005);
#617=VERTEX_POINT('',#2006);
#618=VERTEX_POINT('',#2008);
#619=VERTEX_POINT('',#2010);
#620=VERTEX_POINT('',#2014);
#621=VERTEX_POINT('',#2016);
#622=VERTEX_POINT('',#2020);
#623=VERTEX_POINT('',#2022);
#624=VERTEX_POINT('',#2026);
#625=VERTEX_POINT('',#2027);
#626=VERTEX_POINT('',#2032);
#627=VERTEX_POINT('',#2034);
#628=VERTEX_POINT('',#2038);
#629=VERTEX_POINT('',#2040);
#630=VERTEX_POINT('',#2044);
#631=VERTEX_POINT('',#2046);
#632=VERTEX_POINT('',#2050);
#633=VERTEX_POINT('',#2055);
#634=VERTEX_POINT('',#2059);
#635=VERTEX_POINT('',#2061);
#636=VERTEX_POINT('',#2065);
#637=VERTEX_POINT('',#2067);
#638=VERTEX_POINT('',#2071);
#639=VERTEX_POINT('',#2072);
#640=VERTEX_POINT('',#2077);
#641=VERTEX_POINT('',#2079);
#642=VERTEX_POINT('',#2083);
#643=VERTEX_POINT('',#2087);
#644=VERTEX_POINT('',#2088);
#645=VERTEX_POINT('',#2093);
#646=VERTEX_POINT('',#2095);
#647=VERTEX_POINT('',#2099);
#648=VERTEX_POINT('',#2103);
#649=VERTEX_POINT('',#2112);
#650=VERTEX_POINT('',#2114);
#651=VERTEX_POINT('',#2118);
#652=VERTEX_POINT('',#2120);
#653=VERTEX_POINT('',#2127);
#654=VERTEX_POINT('',#2129);
#655=VERTEX_POINT('',#2133);
#656=VERTEX_POINT('',#2135);
#657=VERTEX_POINT('',#2142);
#658=VERTEX_POINT('',#2144);
#659=VERTEX_POINT('',#2148);
#660=VERTEX_POINT('',#2150);
#661=VERTEX_POINT('',#2154);
#662=VERTEX_POINT('',#2155);
#663=VERTEX_POINT('',#2157);
#664=VERTEX_POINT('',#2159);
#665=VERTEX_POINT('',#2161);
#666=VERTEX_POINT('',#2163);
#667=VERTEX_POINT('',#2167);
#668=VERTEX_POINT('',#2171);
#669=VERTEX_POINT('',#2172);
#670=VERTEX_POINT('',#2174);
#671=VERTEX_POINT('',#2178);
#672=VERTEX_POINT('',#2182);
#673=VERTEX_POINT('',#2186);
#674=VERTEX_POINT('',#2190);
#675=VERTEX_POINT('',#2208);
#676=EDGE_CURVE('',#567,#567,#520,.T.);
#677=EDGE_CURVE('',#567,#568,#274,.T.);
#678=EDGE_CURVE('',#568,#568,#521,.T.);
#679=EDGE_CURVE('',#569,#569,#522,.T.);
#680=EDGE_CURVE('',#570,#570,#523,.T.);
#681=EDGE_CURVE('',#571,#571,#524,.T.);
#682=EDGE_CURVE('',#571,#569,#275,.T.);
#683=EDGE_CURVE('',#572,#573,#276,.T.);
#684=EDGE_CURVE('',#572,#574,#277,.T.);
#685=EDGE_CURVE('',#575,#574,#278,.T.);
#686=EDGE_CURVE('',#573,#575,#279,.T.);
#687=EDGE_CURVE('',#574,#576,#525,.T.);
#688=EDGE_CURVE('',#576,#577,#280,.T.);
#689=EDGE_CURVE('',#577,#575,#526,.T.);
#690=EDGE_CURVE('',#578,#579,#281,.T.);
#691=EDGE_CURVE('',#577,#578,#527,.T.);
#692=EDGE_CURVE('',#576,#579,#528,.T.);
#693=EDGE_CURVE('',#579,#580,#529,.T.);
#694=EDGE_CURVE('',#580,#581,#282,.T.);
#695=EDGE_CURVE('',#581,#578,#530,.T.);
#696=EDGE_CURVE('',#580,#582,#283,.T.);
#697=EDGE_CURVE('',#583,#582,#284,.T.);
#698=EDGE_CURVE('',#581,#583,#285,.T.);
#699=EDGE_CURVE('',#584,#583,#531,.T.);
#700=EDGE_CURVE('',#582,#585,#532,.T.);
#701=EDGE_CURVE('',#585,#584,#286,.T.);
#702=EDGE_CURVE('',#586,#587,#287,.T.);
#703=EDGE_CURVE('',#586,#588,#288,.F.);
#704=EDGE_CURVE('',#589,#588,#289,.T.);
#705=EDGE_CURVE('',#587,#589,#290,.T.);
#706=EDGE_CURVE('',#590,#586,#291,.T.);
#707=EDGE_CURVE('',#590,#591,#292,.T.);
#708=EDGE_CURVE('',#588,#591,#293,.F.);
#709=EDGE_CURVE('',#590,#592,#294,.F.);
#710=EDGE_CURVE('',#592,#593,#295,.T.);
#711=EDGE_CURVE('',#591,#593,#296,.F.);
#712=EDGE_CURVE('',#592,#594,#297,.F.);
#713=EDGE_CURVE('',#594,#595,#298,.T.);
#714=EDGE_CURVE('',#593,#595,#299,.F.);
#715=EDGE_CURVE('',#596,#597,#300,.T.);
#716=EDGE_CURVE('',#595,#596,#301,.T.);
#717=EDGE_CURVE('',#594,#597,#302,.T.);
#718=EDGE_CURVE('',#573,#596,#533,.T.);
#719=EDGE_CURVE('',#597,#572,#534,.T.);
#720=EDGE_CURVE('',#598,#598,#535,.T.);
#721=EDGE_CURVE('',#598,#570,#303,.T.);
#722=EDGE_CURVE('',#587,#599,#304,.T.);
#723=EDGE_CURVE('',#600,#589,#305,.T.);
#724=EDGE_CURVE('',#599,#600,#306,.T.);
#725=EDGE_CURVE('',#601,#585,#536,.F.);
#726=EDGE_CURVE('',#601,#602,#307,.T.);
#727=EDGE_CURVE('',#602,#584,#537,.T.);
#728=EDGE_CURVE('',#603,#602,#308,.T.);
#729=EDGE_CURVE('',#603,#600,#309,.T.);
#730=EDGE_CURVE('',#603,#604,#310,.T.);
#731=EDGE_CURVE('',#605,#604,#311,.T.);
#732=EDGE_CURVE('',#600,#605,#312,.T.);
#733=EDGE_CURVE('',#604,#606,#313,.T.);
#734=EDGE_CURVE('',#606,#607,#314,.T.);
#735=EDGE_CURVE('',#607,#605,#315,.T.);
#736=EDGE_CURVE('',#608,#609,#316,.T.);
#737=EDGE_CURVE('',#609,#610,#317,.T.);
#738=EDGE_CURVE('',#610,#611,#318,.T.);
#739=EDGE_CURVE('',#611,#608,#319,.T.);
#740=EDGE_CURVE('',#599,#612,#320,.T.);
#741=EDGE_CURVE('',#599,#609,#321,.T.);
#742=EDGE_CURVE('',#612,#608,#322,.T.);
#743=EDGE_CURVE('',#601,#612,#323,.T.);
#744=EDGE_CURVE('',#613,#613,#538,.T.);
#745=EDGE_CURVE('',#614,#615,#324,.T.);
#746=EDGE_CURVE('',#614,#607,#325,.T.);
#747=EDGE_CURVE('',#615,#606,#326,.T.);
#748=EDGE_CURVE('',#616,#617,#327,.T.);
#749=EDGE_CURVE('',#616,#618,#328,.T.);
#750=EDGE_CURVE('',#619,#618,#329,.F.);
#751=EDGE_CURVE('',#617,#619,#330,.T.);
#752=EDGE_CURVE('',#616,#620,#331,.F.);
#753=EDGE_CURVE('',#620,#621,#332,.T.);
#754=EDGE_CURVE('',#618,#621,#333,.F.);
#755=EDGE_CURVE('',#620,#622,#334,.T.);
#756=EDGE_CURVE('',#622,#623,#335,.T.);
#757=EDGE_CURVE('',#621,#623,#336,.T.);
#758=EDGE_CURVE('',#624,#625,#337,.T.);
#759=EDGE_CURVE('',#623,#624,#338,.T.);
#760=EDGE_CURVE('',#622,#625,#339,.T.);
#761=EDGE_CURVE('',#626,#624,#539,.T.);
#762=EDGE_CURVE('',#625,#627,#540,.T.);
#763=EDGE_CURVE('',#627,#626,#340,.T.);
#764=EDGE_CURVE('',#628,#627,#341,.T.);
#765=EDGE_CURVE('',#629,#628,#342,.T.);
#766=EDGE_CURVE('',#626,#629,#343,.T.);
#767=EDGE_CURVE('',#628,#630,#541,.T.);
#768=EDGE_CURVE('',#630,#631,#344,.T.);
#769=EDGE_CURVE('',#631,#629,#542,.T.);
#770=EDGE_CURVE('',#632,#630,#345,.T.);
#771=EDGE_CURVE('',#632,#610,#346,.T.);
#772=EDGE_CURVE('',#631,#614,#347,.T.);
#773=EDGE_CURVE('',#633,#632,#348,.T.);
#774=EDGE_CURVE('',#633,#611,#349,.T.);
#775=EDGE_CURVE('',#633,#634,#350,.T.);
#776=EDGE_CURVE('',#635,#634,#351,.T.);
#777=EDGE_CURVE('',#615,#635,#352,.T.);
#778=EDGE_CURVE('',#634,#636,#543,.T.);
#779=EDGE_CURVE('',#636,#637,#353,.T.);
#780=EDGE_CURVE('',#637,#635,#544,.T.);
#781=EDGE_CURVE('',#638,#639,#354,.T.);
#782=EDGE_CURVE('',#637,#638,#545,.T.);
#783=EDGE_CURVE('',#636,#639,#546,.T.);
#784=EDGE_CURVE('',#639,#640,#547,.T.);
#785=EDGE_CURVE('',#640,#641,#355,.T.);
#786=EDGE_CURVE('',#641,#638,#548,.T.);
#787=EDGE_CURVE('',#642,#642,#549,.T.);
#788=EDGE_CURVE('',#642,#613,#356,.T.);
#789=EDGE_CURVE('',#643,#644,#357,.T.);
#790=EDGE_CURVE('',#641,#643,#358,.T.);
#791=EDGE_CURVE('',#640,#644,#359,.T.);
#792=EDGE_CURVE('',#645,#643,#550,.T.);
#793=EDGE_CURVE('',#645,#646,#360,.T.);
#794=EDGE_CURVE('',#646,#619,#361,.F.);
#795=EDGE_CURVE('',#617,#647,#362,.T.);
#796=EDGE_CURVE('',#647,#646,#363,.F.);
#797=EDGE_CURVE('',#644,#648,#551,.T.);
#798=EDGE_CURVE('',#648,#647,#364,.T.);
#799=EDGE_CURVE('',#648,#645,#365,.T.);
#800=EDGE_CURVE('',#649,#649,#552,.F.);
#801=EDGE_CURVE('',#649,#650,#366,.T.);
#802=EDGE_CURVE('',#650,#650,#553,.F.);
#803=EDGE_CURVE('',#651,#651,#554,.T.);
#804=EDGE_CURVE('',#651,#652,#367,.T.);
#805=EDGE_CURVE('',#652,#652,#555,.T.);
#806=EDGE_CURVE('',#653,#653,#556,.F.);
#807=EDGE_CURVE('',#653,#654,#368,.T.);
#808=EDGE_CURVE('',#654,#654,#557,.F.);
#809=EDGE_CURVE('',#655,#655,#558,.T.);
#810=EDGE_CURVE('',#655,#656,#369,.T.);
#811=EDGE_CURVE('',#656,#656,#559,.T.);
#812=EDGE_CURVE('',#657,#657,#560,.T.);
#813=EDGE_CURVE('',#657,#658,#370,.T.);
#814=EDGE_CURVE('',#658,#658,#561,.T.);
#815=EDGE_CURVE('',#659,#659,#562,.T.);
#816=EDGE_CURVE('',#659,#660,#563,.T.);
#817=EDGE_CURVE('',#660,#660,#564,.T.);
#818=EDGE_CURVE('',#661,#662,#371,.T.);
#819=EDGE_CURVE('',#662,#663,#372,.T.);
#820=EDGE_CURVE('',#663,#664,#373,.T.);
#821=EDGE_CURVE('',#664,#665,#374,.T.);
#822=EDGE_CURVE('',#665,#666,#375,.T.);
#823=EDGE_CURVE('',#666,#661,#376,.T.);
#824=EDGE_CURVE('',#667,#667,#565,.T.);
#825=EDGE_CURVE('',#667,#659,#377,.T.);
#826=EDGE_CURVE('',#668,#669,#378,.T.);
#827=EDGE_CURVE('',#670,#668,#379,.T.);
#828=EDGE_CURVE('',#670,#669,#380,.T.);
#829=EDGE_CURVE('',#671,#670,#381,.T.);
#830=EDGE_CURVE('',#671,#669,#382,.T.);
#831=EDGE_CURVE('',#672,#671,#383,.T.);
#832=EDGE_CURVE('',#672,#669,#384,.T.);
#833=EDGE_CURVE('',#673,#672,#385,.T.);
#834=EDGE_CURVE('',#673,#669,#386,.T.);
#835=EDGE_CURVE('',#674,#673,#387,.T.);
#836=EDGE_CURVE('',#674,#669,#388,.T.);
#837=EDGE_CURVE('',#668,#674,#389,.T.);
#838=EDGE_CURVE('',#661,#670,#390,.T.);
#839=EDGE_CURVE('',#662,#668,#391,.T.);
#840=EDGE_CURVE('',#666,#671,#392,.T.);
#841=EDGE_CURVE('',#665,#672,#393,.T.);
#842=EDGE_CURVE('',#664,#673,#394,.T.);
#843=EDGE_CURVE('',#663,#674,#395,.T.);
#844=EDGE_CURVE('',#657,#675,#396,.T.);
#845=EDGE_CURVE('',#675,#675,#566,.F.);
#846=ORIENTED_EDGE('',*,*,#676,.F.);
#847=ORIENTED_EDGE('',*,*,#677,.T.);
#848=ORIENTED_EDGE('',*,*,#678,.T.);
#849=ORIENTED_EDGE('',*,*,#677,.F.);
#850=ORIENTED_EDGE('',*,*,#679,.F.);
#851=ORIENTED_EDGE('',*,*,#680,.F.);
#852=ORIENTED_EDGE('',*,*,#681,.F.);
#853=ORIENTED_EDGE('',*,*,#682,.T.);
#854=ORIENTED_EDGE('',*,*,#679,.T.);
#855=ORIENTED_EDGE('',*,*,#682,.F.);
#856=ORIENTED_EDGE('',*,*,#683,.F.);
#857=ORIENTED_EDGE('',*,*,#684,.T.);
#858=ORIENTED_EDGE('',*,*,#685,.F.);
#859=ORIENTED_EDGE('',*,*,#686,.F.);
#860=ORIENTED_EDGE('',*,*,#687,.T.);
#861=ORIENTED_EDGE('',*,*,#688,.T.);
#862=ORIENTED_EDGE('',*,*,#689,.T.);
#863=ORIENTED_EDGE('',*,*,#685,.T.);
#864=ORIENTED_EDGE('',*,*,#690,.F.);
#865=ORIENTED_EDGE('',*,*,#691,.F.);
#866=ORIENTED_EDGE('',*,*,#688,.F.);
#867=ORIENTED_EDGE('',*,*,#692,.T.);
#868=ORIENTED_EDGE('',*,*,#693,.T.);
#869=ORIENTED_EDGE('',*,*,#694,.T.);
#870=ORIENTED_EDGE('',*,*,#695,.T.);
#871=ORIENTED_EDGE('',*,*,#690,.T.);
#872=ORIENTED_EDGE('',*,*,#694,.F.);
#873=ORIENTED_EDGE('',*,*,#696,.T.);
#874=ORIENTED_EDGE('',*,*,#697,.F.);
#875=ORIENTED_EDGE('',*,*,#698,.F.);
#876=ORIENTED_EDGE('',*,*,#699,.T.);
#877=ORIENTED_EDGE('',*,*,#697,.T.);
#878=ORIENTED_EDGE('',*,*,#700,.T.);
#879=ORIENTED_EDGE('',*,*,#701,.T.);
#880=ORIENTED_EDGE('',*,*,#702,.F.);
#881=ORIENTED_EDGE('',*,*,#703,.T.);
#882=ORIENTED_EDGE('',*,*,#704,.F.);
#883=ORIENTED_EDGE('',*,*,#705,.F.);
#884=ORIENTED_EDGE('',*,*,#706,.F.);
#885=ORIENTED_EDGE('',*,*,#707,.T.);
#886=ORIENTED_EDGE('',*,*,#708,.F.);
#887=ORIENTED_EDGE('',*,*,#703,.F.);
#888=ORIENTED_EDGE('',*,*,#709,.T.);
#889=ORIENTED_EDGE('',*,*,#710,.T.);
#890=ORIENTED_EDGE('',*,*,#711,.F.);
#891=ORIENTED_EDGE('',*,*,#707,.F.);
#892=ORIENTED_EDGE('',*,*,#712,.T.);
#893=ORIENTED_EDGE('',*,*,#713,.T.);
#894=ORIENTED_EDGE('',*,*,#714,.F.);
#895=ORIENTED_EDGE('',*,*,#710,.F.);
#896=ORIENTED_EDGE('',*,*,#715,.F.);
#897=ORIENTED_EDGE('',*,*,#716,.F.);
#898=ORIENTED_EDGE('',*,*,#713,.F.);
#899=ORIENTED_EDGE('',*,*,#717,.T.);
#900=ORIENTED_EDGE('',*,*,#718,.T.);
#901=ORIENTED_EDGE('',*,*,#715,.T.);
#902=ORIENTED_EDGE('',*,*,#719,.T.);
#903=ORIENTED_EDGE('',*,*,#683,.T.);
#904=ORIENTED_EDGE('',*,*,#720,.F.);
#905=ORIENTED_EDGE('',*,*,#721,.T.);
#906=ORIENTED_EDGE('',*,*,#680,.T.);
#907=ORIENTED_EDGE('',*,*,#721,.F.);
#908=ORIENTED_EDGE('',*,*,#722,.F.);
#909=ORIENTED_EDGE('',*,*,#705,.T.);
#910=ORIENTED_EDGE('',*,*,#723,.F.);
#911=ORIENTED_EDGE('',*,*,#724,.F.);
#912=ORIENTED_EDGE('',*,*,#701,.F.);
#913=ORIENTED_EDGE('',*,*,#725,.F.);
#914=ORIENTED_EDGE('',*,*,#726,.T.);
#915=ORIENTED_EDGE('',*,*,#727,.T.);
#916=ORIENTED_EDGE('',*,*,#718,.F.);
#917=ORIENTED_EDGE('',*,*,#686,.T.);
#918=ORIENTED_EDGE('',*,*,#689,.F.);
#919=ORIENTED_EDGE('',*,*,#691,.T.);
#920=ORIENTED_EDGE('',*,*,#695,.F.);
#921=ORIENTED_EDGE('',*,*,#698,.T.);
#922=ORIENTED_EDGE('',*,*,#699,.F.);
#923=ORIENTED_EDGE('',*,*,#727,.F.);
#924=ORIENTED_EDGE('',*,*,#728,.F.);
#925=ORIENTED_EDGE('',*,*,#729,.T.);
#926=ORIENTED_EDGE('',*,*,#723,.T.);
#927=ORIENTED_EDGE('',*,*,#704,.T.);
#928=ORIENTED_EDGE('',*,*,#708,.T.);
#929=ORIENTED_EDGE('',*,*,#711,.T.);
#930=ORIENTED_EDGE('',*,*,#714,.T.);
#931=ORIENTED_EDGE('',*,*,#716,.T.);
#932=ORIENTED_EDGE('',*,*,#681,.T.);
#933=ORIENTED_EDGE('',*,*,#729,.F.);
#934=ORIENTED_EDGE('',*,*,#730,.T.);
#935=ORIENTED_EDGE('',*,*,#731,.F.);
#936=ORIENTED_EDGE('',*,*,#732,.F.);
#937=ORIENTED_EDGE('',*,*,#731,.T.);
#938=ORIENTED_EDGE('',*,*,#733,.T.);
#939=ORIENTED_EDGE('',*,*,#734,.T.);
#940=ORIENTED_EDGE('',*,*,#735,.T.);
#941=ORIENTED_EDGE('',*,*,#736,.T.);
#942=ORIENTED_EDGE('',*,*,#737,.T.);
#943=ORIENTED_EDGE('',*,*,#738,.T.);
#944=ORIENTED_EDGE('',*,*,#739,.T.);
#945=ORIENTED_EDGE('',*,*,#740,.F.);
#946=ORIENTED_EDGE('',*,*,#741,.T.);
#947=ORIENTED_EDGE('',*,*,#736,.F.);
#948=ORIENTED_EDGE('',*,*,#742,.F.);
#949=ORIENTED_EDGE('',*,*,#719,.F.);
#950=ORIENTED_EDGE('',*,*,#717,.F.);
#951=ORIENTED_EDGE('',*,*,#712,.F.);
#952=ORIENTED_EDGE('',*,*,#709,.F.);
#953=ORIENTED_EDGE('',*,*,#706,.T.);
#954=ORIENTED_EDGE('',*,*,#702,.T.);
#955=ORIENTED_EDGE('',*,*,#722,.T.);
#956=ORIENTED_EDGE('',*,*,#740,.T.);
#957=ORIENTED_EDGE('',*,*,#743,.F.);
#958=ORIENTED_EDGE('',*,*,#725,.T.);
#959=ORIENTED_EDGE('',*,*,#700,.F.);
#960=ORIENTED_EDGE('',*,*,#696,.F.);
#961=ORIENTED_EDGE('',*,*,#693,.F.);
#962=ORIENTED_EDGE('',*,*,#692,.F.);
#963=ORIENTED_EDGE('',*,*,#687,.F.);
#964=ORIENTED_EDGE('',*,*,#684,.F.);
#965=ORIENTED_EDGE('',*,*,#720,.T.);
#966=ORIENTED_EDGE('',*,*,#744,.F.);
#967=ORIENTED_EDGE('',*,*,#745,.F.);
#968=ORIENTED_EDGE('',*,*,#746,.T.);
#969=ORIENTED_EDGE('',*,*,#734,.F.);
#970=ORIENTED_EDGE('',*,*,#747,.F.);
#971=ORIENTED_EDGE('',*,*,#748,.F.);
#972=ORIENTED_EDGE('',*,*,#749,.T.);
#973=ORIENTED_EDGE('',*,*,#750,.F.);
#974=ORIENTED_EDGE('',*,*,#751,.F.);
#975=ORIENTED_EDGE('',*,*,#752,.T.);
#976=ORIENTED_EDGE('',*,*,#753,.T.);
#977=ORIENTED_EDGE('',*,*,#754,.F.);
#978=ORIENTED_EDGE('',*,*,#749,.F.);
#979=ORIENTED_EDGE('',*,*,#755,.T.);
#980=ORIENTED_EDGE('',*,*,#756,.T.);
#981=ORIENTED_EDGE('',*,*,#757,.F.);
#982=ORIENTED_EDGE('',*,*,#753,.F.);
#983=ORIENTED_EDGE('',*,*,#758,.F.);
#984=ORIENTED_EDGE('',*,*,#759,.F.);
#985=ORIENTED_EDGE('',*,*,#756,.F.);
#986=ORIENTED_EDGE('',*,*,#760,.T.);
#987=ORIENTED_EDGE('',*,*,#761,.T.);
#988=ORIENTED_EDGE('',*,*,#758,.T.);
#989=ORIENTED_EDGE('',*,*,#762,.T.);
#990=ORIENTED_EDGE('',*,*,#763,.T.);
#991=ORIENTED_EDGE('',*,*,#763,.F.);
#992=ORIENTED_EDGE('',*,*,#764,.F.);
#993=ORIENTED_EDGE('',*,*,#765,.F.);
#994=ORIENTED_EDGE('',*,*,#766,.F.);
#995=ORIENTED_EDGE('',*,*,#767,.T.);
#996=ORIENTED_EDGE('',*,*,#768,.T.);
#997=ORIENTED_EDGE('',*,*,#769,.T.);
#998=ORIENTED_EDGE('',*,*,#765,.T.);
#999=ORIENTED_EDGE('',*,*,#768,.F.);
#1000=ORIENTED_EDGE('',*,*,#770,.F.);
#1001=ORIENTED_EDGE('',*,*,#771,.T.);
#1002=ORIENTED_EDGE('',*,*,#737,.F.);
#1003=ORIENTED_EDGE('',*,*,#741,.F.);
#1004=ORIENTED_EDGE('',*,*,#724,.T.);
#1005=ORIENTED_EDGE('',*,*,#732,.T.);
#1006=ORIENTED_EDGE('',*,*,#735,.F.);
#1007=ORIENTED_EDGE('',*,*,#746,.F.);
#1008=ORIENTED_EDGE('',*,*,#772,.F.);
#1009=ORIENTED_EDGE('',*,*,#773,.F.);
#1010=ORIENTED_EDGE('',*,*,#774,.T.);
#1011=ORIENTED_EDGE('',*,*,#738,.F.);
#1012=ORIENTED_EDGE('',*,*,#771,.F.);
#1013=ORIENTED_EDGE('',*,*,#743,.T.);
#1014=ORIENTED_EDGE('',*,*,#742,.T.);
#1015=ORIENTED_EDGE('',*,*,#739,.F.);
#1016=ORIENTED_EDGE('',*,*,#774,.F.);
#1017=ORIENTED_EDGE('',*,*,#775,.T.);
#1018=ORIENTED_EDGE('',*,*,#776,.F.);
#1019=ORIENTED_EDGE('',*,*,#777,.F.);
#1020=ORIENTED_EDGE('',*,*,#747,.T.);
#1021=ORIENTED_EDGE('',*,*,#733,.F.);
#1022=ORIENTED_EDGE('',*,*,#730,.F.);
#1023=ORIENTED_EDGE('',*,*,#728,.T.);
#1024=ORIENTED_EDGE('',*,*,#726,.F.);
#1025=ORIENTED_EDGE('',*,*,#778,.T.);
#1026=ORIENTED_EDGE('',*,*,#779,.T.);
#1027=ORIENTED_EDGE('',*,*,#780,.T.);
#1028=ORIENTED_EDGE('',*,*,#776,.T.);
#1029=ORIENTED_EDGE('',*,*,#781,.F.);
#1030=ORIENTED_EDGE('',*,*,#782,.F.);
#1031=ORIENTED_EDGE('',*,*,#779,.F.);
#1032=ORIENTED_EDGE('',*,*,#783,.T.);
#1033=ORIENTED_EDGE('',*,*,#784,.T.);
#1034=ORIENTED_EDGE('',*,*,#785,.T.);
#1035=ORIENTED_EDGE('',*,*,#786,.T.);
#1036=ORIENTED_EDGE('',*,*,#781,.T.);
#1037=ORIENTED_EDGE('',*,*,#787,.F.);
#1038=ORIENTED_EDGE('',*,*,#788,.T.);
#1039=ORIENTED_EDGE('',*,*,#744,.T.);
#1040=ORIENTED_EDGE('',*,*,#788,.F.);
#1041=ORIENTED_EDGE('',*,*,#789,.F.);
#1042=ORIENTED_EDGE('',*,*,#790,.F.);
#1043=ORIENTED_EDGE('',*,*,#785,.F.);
#1044=ORIENTED_EDGE('',*,*,#791,.T.);
#1045=ORIENTED_EDGE('',*,*,#792,.F.);
#1046=ORIENTED_EDGE('',*,*,#793,.T.);
#1047=ORIENTED_EDGE('',*,*,#794,.T.);
#1048=ORIENTED_EDGE('',*,*,#750,.T.);
#1049=ORIENTED_EDGE('',*,*,#754,.T.);
#1050=ORIENTED_EDGE('',*,*,#757,.T.);
#1051=ORIENTED_EDGE('',*,*,#759,.T.);
#1052=ORIENTED_EDGE('',*,*,#761,.F.);
#1053=ORIENTED_EDGE('',*,*,#766,.T.);
#1054=ORIENTED_EDGE('',*,*,#769,.F.);
#1055=ORIENTED_EDGE('',*,*,#772,.T.);
#1056=ORIENTED_EDGE('',*,*,#745,.T.);
#1057=ORIENTED_EDGE('',*,*,#777,.T.);
#1058=ORIENTED_EDGE('',*,*,#780,.F.);
#1059=ORIENTED_EDGE('',*,*,#782,.T.);
#1060=ORIENTED_EDGE('',*,*,#786,.F.);
#1061=ORIENTED_EDGE('',*,*,#790,.T.);
#1062=ORIENTED_EDGE('',*,*,#795,.F.);
#1063=ORIENTED_EDGE('',*,*,#751,.T.);
#1064=ORIENTED_EDGE('',*,*,#794,.F.);
#1065=ORIENTED_EDGE('',*,*,#796,.F.);
#1066=ORIENTED_EDGE('',*,*,#797,.F.);
#1067=ORIENTED_EDGE('',*,*,#791,.F.);
#1068=ORIENTED_EDGE('',*,*,#784,.F.);
#1069=ORIENTED_EDGE('',*,*,#783,.F.);
#1070=ORIENTED_EDGE('',*,*,#778,.F.);
#1071=ORIENTED_EDGE('',*,*,#775,.F.);
#1072=ORIENTED_EDGE('',*,*,#773,.T.);
#1073=ORIENTED_EDGE('',*,*,#770,.T.);
#1074=ORIENTED_EDGE('',*,*,#767,.F.);
#1075=ORIENTED_EDGE('',*,*,#764,.T.);
#1076=ORIENTED_EDGE('',*,*,#762,.F.);
#1077=ORIENTED_EDGE('',*,*,#760,.F.);
#1078=ORIENTED_EDGE('',*,*,#755,.F.);
#1079=ORIENTED_EDGE('',*,*,#752,.F.);
#1080=ORIENTED_EDGE('',*,*,#748,.T.);
#1081=ORIENTED_EDGE('',*,*,#795,.T.);
#1082=ORIENTED_EDGE('',*,*,#798,.F.);
#1083=ORIENTED_EDGE('',*,*,#787,.T.);
#1084=ORIENTED_EDGE('',*,*,#792,.T.);
#1085=ORIENTED_EDGE('',*,*,#789,.T.);
#1086=ORIENTED_EDGE('',*,*,#797,.T.);
#1087=ORIENTED_EDGE('',*,*,#799,.T.);
#1088=ORIENTED_EDGE('',*,*,#799,.F.);
#1089=ORIENTED_EDGE('',*,*,#798,.T.);
#1090=ORIENTED_EDGE('',*,*,#796,.T.);
#1091=ORIENTED_EDGE('',*,*,#793,.F.);
#1092=ORIENTED_EDGE('',*,*,#676,.T.);
#1093=ORIENTED_EDGE('',*,*,#678,.F.);
#1094=ORIENTED_EDGE('',*,*,#800,.F.);
#1095=ORIENTED_EDGE('',*,*,#801,.T.);
#1096=ORIENTED_EDGE('',*,*,#802,.T.);
#1097=ORIENTED_EDGE('',*,*,#801,.F.);
#1098=ORIENTED_EDGE('',*,*,#803,.F.);
#1099=ORIENTED_EDGE('',*,*,#804,.T.);
#1100=ORIENTED_EDGE('',*,*,#805,.T.);
#1101=ORIENTED_EDGE('',*,*,#804,.F.);
#1102=ORIENTED_EDGE('',*,*,#803,.T.);
#1103=ORIENTED_EDGE('',*,*,#800,.T.);
#1104=ORIENTED_EDGE('',*,*,#805,.F.);
#1105=ORIENTED_EDGE('',*,*,#802,.F.);
#1106=ORIENTED_EDGE('',*,*,#806,.F.);
#1107=ORIENTED_EDGE('',*,*,#807,.T.);
#1108=ORIENTED_EDGE('',*,*,#808,.T.);
#1109=ORIENTED_EDGE('',*,*,#807,.F.);
#1110=ORIENTED_EDGE('',*,*,#809,.F.);
#1111=ORIENTED_EDGE('',*,*,#810,.T.);
#1112=ORIENTED_EDGE('',*,*,#811,.T.);
#1113=ORIENTED_EDGE('',*,*,#810,.F.);
#1114=ORIENTED_EDGE('',*,*,#809,.T.);
#1115=ORIENTED_EDGE('',*,*,#806,.T.);
#1116=ORIENTED_EDGE('',*,*,#811,.F.);
#1117=ORIENTED_EDGE('',*,*,#808,.F.);
#1118=ORIENTED_EDGE('',*,*,#812,.F.);
#1119=ORIENTED_EDGE('',*,*,#813,.T.);
#1120=ORIENTED_EDGE('',*,*,#814,.F.);
#1121=ORIENTED_EDGE('',*,*,#813,.F.);
#1122=ORIENTED_EDGE('',*,*,#815,.T.);
#1123=ORIENTED_EDGE('',*,*,#816,.T.);
#1124=ORIENTED_EDGE('',*,*,#817,.T.);
#1125=ORIENTED_EDGE('',*,*,#816,.F.);
#1126=ORIENTED_EDGE('',*,*,#817,.F.);
#1127=ORIENTED_EDGE('',*,*,#818,.T.);
#1128=ORIENTED_EDGE('',*,*,#819,.T.);
#1129=ORIENTED_EDGE('',*,*,#820,.T.);
#1130=ORIENTED_EDGE('',*,*,#821,.T.);
#1131=ORIENTED_EDGE('',*,*,#822,.T.);
#1132=ORIENTED_EDGE('',*,*,#823,.T.);
#1133=ORIENTED_EDGE('',*,*,#824,.F.);
#1134=ORIENTED_EDGE('',*,*,#825,.T.);
#1135=ORIENTED_EDGE('',*,*,#815,.F.);
#1136=ORIENTED_EDGE('',*,*,#825,.F.);
#1137=ORIENTED_EDGE('',*,*,#826,.F.);
#1138=ORIENTED_EDGE('',*,*,#827,.F.);
#1139=ORIENTED_EDGE('',*,*,#828,.T.);
#1140=ORIENTED_EDGE('',*,*,#828,.F.);
#1141=ORIENTED_EDGE('',*,*,#829,.F.);
#1142=ORIENTED_EDGE('',*,*,#830,.T.);
#1143=ORIENTED_EDGE('',*,*,#830,.F.);
#1144=ORIENTED_EDGE('',*,*,#831,.F.);
#1145=ORIENTED_EDGE('',*,*,#832,.T.);
#1146=ORIENTED_EDGE('',*,*,#832,.F.);
#1147=ORIENTED_EDGE('',*,*,#833,.F.);
#1148=ORIENTED_EDGE('',*,*,#834,.T.);
#1149=ORIENTED_EDGE('',*,*,#834,.F.);
#1150=ORIENTED_EDGE('',*,*,#835,.F.);
#1151=ORIENTED_EDGE('',*,*,#836,.T.);
#1152=ORIENTED_EDGE('',*,*,#836,.F.);
#1153=ORIENTED_EDGE('',*,*,#837,.F.);
#1154=ORIENTED_EDGE('',*,*,#826,.T.);
#1155=ORIENTED_EDGE('',*,*,#818,.F.);
#1156=ORIENTED_EDGE('',*,*,#838,.T.);
#1157=ORIENTED_EDGE('',*,*,#827,.T.);
#1158=ORIENTED_EDGE('',*,*,#839,.F.);
#1159=ORIENTED_EDGE('',*,*,#823,.F.);
#1160=ORIENTED_EDGE('',*,*,#840,.T.);
#1161=ORIENTED_EDGE('',*,*,#829,.T.);
#1162=ORIENTED_EDGE('',*,*,#838,.F.);
#1163=ORIENTED_EDGE('',*,*,#822,.F.);
#1164=ORIENTED_EDGE('',*,*,#841,.T.);
#1165=ORIENTED_EDGE('',*,*,#831,.T.);
#1166=ORIENTED_EDGE('',*,*,#840,.F.);
#1167=ORIENTED_EDGE('',*,*,#821,.F.);
#1168=ORIENTED_EDGE('',*,*,#842,.T.);
#1169=ORIENTED_EDGE('',*,*,#833,.T.);
#1170=ORIENTED_EDGE('',*,*,#841,.F.);
#1171=ORIENTED_EDGE('',*,*,#820,.F.);
#1172=ORIENTED_EDGE('',*,*,#843,.T.);
#1173=ORIENTED_EDGE('',*,*,#835,.T.);
#1174=ORIENTED_EDGE('',*,*,#842,.F.);
#1175=ORIENTED_EDGE('',*,*,#819,.F.);
#1176=ORIENTED_EDGE('',*,*,#839,.T.);
#1177=ORIENTED_EDGE('',*,*,#837,.T.);
#1178=ORIENTED_EDGE('',*,*,#843,.F.);
#1179=ORIENTED_EDGE('',*,*,#812,.T.);
#1180=ORIENTED_EDGE('',*,*,#844,.T.);
#1181=ORIENTED_EDGE('',*,*,#845,.T.);
#1182=ORIENTED_EDGE('',*,*,#844,.F.);
#1183=ORIENTED_EDGE('',*,*,#814,.T.);
#1184=ORIENTED_EDGE('',*,*,#824,.T.);
#1185=ORIENTED_EDGE('',*,*,#845,.F.);
#1186=CYLINDRICAL_SURFACE('',#1334,1.75);
#1187=CYLINDRICAL_SURFACE('',#1341,1.75);
#1188=CYLINDRICAL_SURFACE('',#1344,3.);
#1189=CYLINDRICAL_SURFACE('',#1347,4.75);
#1190=CYLINDRICAL_SURFACE('',#1350,2.5);
#1191=CYLINDRICAL_SURFACE('',#1354,3.);
#1192=CYLINDRICAL_SURFACE('',#1362,1.5);
#1193=CYLINDRICAL_SURFACE('',#1365,1.75);
#1194=CYLINDRICAL_SURFACE('',#1368,3.);
#1195=CYLINDRICAL_SURFACE('',#1384,1.5);
#1196=CYLINDRICAL_SURFACE('',#1388,2.5);
#1197=CYLINDRICAL_SURFACE('',#1394,2.);
#1198=CYLINDRICAL_SURFACE('',#1397,4.75);
#1199=CYLINDRICAL_SURFACE('',#1400,2.);
#1200=CYLINDRICAL_SURFACE('',#1403,1.75);
#1201=CYLINDRICAL_SURFACE('',#1411,1.5);
#1202=CYLINDRICAL_SURFACE('',#1415,1.03775);
#1203=CYLINDRICAL_SURFACE('',#1418,1.75);
#1204=CYLINDRICAL_SURFACE('',#1424,1.03775);
#1205=CYLINDRICAL_SURFACE('',#1427,1.75);
#1206=CYLINDRICAL_SURFACE('',#1441,2.24999999999998);
#1207=CYLINDRICAL_SURFACE('',#1455,1.215);
#1208=ADVANCED_FACE('',(#114),#1186,.F.);
#1209=ADVANCED_FACE('',(#115),#63,.T.);
#1210=ADVANCED_FACE('',(#116),#64,.F.);
#1211=ADVANCED_FACE('',(#117),#1187,.F.);
#1212=ADVANCED_FACE('',(#118),#65,.T.);
#1213=ADVANCED_FACE('',(#119),#1188,.F.);
#1214=ADVANCED_FACE('',(#120),#1189,.T.);
#1215=ADVANCED_FACE('',(#121),#1190,.F.);
#1216=ADVANCED_FACE('',(#122),#66,.T.);
#1217=ADVANCED_FACE('',(#123),#1191,.T.);
#1218=ADVANCED_FACE('',(#124),#67,.T.);
#1219=ADVANCED_FACE('',(#125),#68,.T.);
#1220=ADVANCED_FACE('',(#126),#69,.T.);
#1221=ADVANCED_FACE('',(#127),#70,.T.);
#1222=ADVANCED_FACE('',(#128),#71,.T.);
#1223=ADVANCED_FACE('',(#129),#1192,.T.);
#1224=ADVANCED_FACE('',(#130),#1193,.F.);
#1225=ADVANCED_FACE('',(#131),#72,.T.);
#1226=ADVANCED_FACE('',(#132),#1194,.F.);
#1227=ADVANCED_FACE('',(#133,#53),#73,.T.);
#1228=ADVANCED_FACE('',(#134),#74,.T.);
#1229=ADVANCED_FACE('',(#135),#75,.T.);
#1230=ADVANCED_FACE('',(#136),#76,.T.);
#1231=ADVANCED_FACE('',(#137),#77,.T.);
#1232=ADVANCED_FACE('',(#138,#54),#78,.F.);
#1233=ADVANCED_FACE('',(#139),#79,.F.);
#1234=ADVANCED_FACE('',(#140),#80,.T.);
#1235=ADVANCED_FACE('',(#141),#81,.T.);
#1236=ADVANCED_FACE('',(#142),#82,.T.);
#1237=ADVANCED_FACE('',(#143),#83,.T.);
#1238=ADVANCED_FACE('',(#144),#84,.T.);
#1239=ADVANCED_FACE('',(#145),#1195,.T.);
#1240=ADVANCED_FACE('',(#146),#85,.T.);
#1241=ADVANCED_FACE('',(#147),#1196,.F.);
#1242=ADVANCED_FACE('',(#148),#86,.T.);
#1243=ADVANCED_FACE('',(#149),#87,.T.);
#1244=ADVANCED_FACE('',(#150),#88,.T.);
#1245=ADVANCED_FACE('',(#151),#1197,.F.);
#1246=ADVANCED_FACE('',(#152),#1198,.T.);
#1247=ADVANCED_FACE('',(#153),#1199,.F.);
#1248=ADVANCED_FACE('',(#154),#1200,.F.);
#1249=ADVANCED_FACE('',(#155),#89,.T.);
#1250=ADVANCED_FACE('',(#156),#90,.T.);
#1251=ADVANCED_FACE('',(#157),#91,.T.);
#1252=ADVANCED_FACE('',(#158,#55),#92,.F.);
#1253=ADVANCED_FACE('',(#159),#1201,.T.);
#1254=ADVANCED_FACE('',(#160,#56),#93,.T.);
#1255=ADVANCED_FACE('',(#161),#94,.T.);
#1256=ADVANCED_FACE('',(#162),#1202,.F.);
#1257=ADVANCED_FACE('',(#163),#1203,.T.);
#1258=ADVANCED_FACE('',(#164,#57),#95,.T.);
#1259=ADVANCED_FACE('',(#165,#58),#96,.F.);
#1260=ADVANCED_FACE('',(#166),#1204,.F.);
#1261=ADVANCED_FACE('',(#167),#1205,.T.);
#1262=ADVANCED_FACE('',(#168,#59),#97,.T.);
#1263=ADVANCED_FACE('',(#169,#60),#98,.F.);
#1264=ADVANCED_FACE('',(#170),#36,.T.);
#1265=ADVANCED_FACE('',(#171),#35,.T.);
#1266=ADVANCED_FACE('',(#172,#61),#99,.T.);
#1267=ADVANCED_FACE('',(#173),#1206,.T.);
#1268=ADVANCED_FACE('',(#174),#100,.F.);
#1269=ADVANCED_FACE('',(#175),#101,.F.);
#1270=ADVANCED_FACE('',(#176),#102,.F.);
#1271=ADVANCED_FACE('',(#177),#103,.F.);
#1272=ADVANCED_FACE('',(#178),#104,.F.);
#1273=ADVANCED_FACE('',(#179),#105,.F.);
#1274=ADVANCED_FACE('',(#180),#106,.F.);
#1275=ADVANCED_FACE('',(#181),#107,.F.);
#1276=ADVANCED_FACE('',(#182),#108,.F.);
#1277=ADVANCED_FACE('',(#183),#109,.F.);
#1278=ADVANCED_FACE('',(#184),#110,.F.);
#1279=ADVANCED_FACE('',(#185),#111,.F.);
#1280=ADVANCED_FACE('',(#186),#1207,.T.);
#1281=ADVANCED_FACE('',(#187),#112,.T.);
#1282=ADVANCED_FACE('',(#188,#62),#113,.T.);
#1283=CLOSED_SHELL('',(#1208,#1209,#1210,#1211,#1212,#1213,#1214,#1215,
#1216,#1217,#1218,#1219,#1220,#1221,#1222,#1223,#1224,#1225,#1226,#1227,
#1228,#1229,#1230,#1231,#1232,#1233,#1234,#1235,#1236,#1237,#1238,#1239,
#1240,#1241,#1242,#1243,#1244,#1245,#1246,#1247,#1248,#1249,#1250,#1251,
#1252,#1253,#1254,#1255));
#1284=CLOSED_SHELL('',(#1256,#1257,#1258,#1259));
#1285=CLOSED_SHELL('',(#1260,#1261,#1262,#1263));
#1286=CLOSED_SHELL('',(#1264,#1265,#1266,#1267,#1268,#1269,#1270,#1271,
#1272,#1273,#1274,#1275,#1276,#1277,#1278,#1279,#1280,#1281,#1282));
#1287=DERIVED_UNIT_ELEMENT(#1295,1.);
#1288=DERIVED_UNIT_ELEMENT(#2232,-3.);
#1289=DERIVED_UNIT_ELEMENT(#1295,1.);
#1290=DERIVED_UNIT_ELEMENT(#2232,-3.);
#1291=DERIVED_UNIT_ELEMENT(#1295,1.);
#1292=DERIVED_UNIT_ELEMENT(#2232,-3.);
#1293=DERIVED_UNIT_ELEMENT(#1295,1.);
#1294=DERIVED_UNIT_ELEMENT(#2232,-3.);
#1295=(
MASS_UNIT()
NAMED_UNIT(*)
SI_UNIT(.KILO.,.GRAM.)
);
#1296=DERIVED_UNIT((#1287,#1288));
#1297=DERIVED_UNIT((#1289,#1290));
#1298=DERIVED_UNIT((#1291,#1292));
#1299=DERIVED_UNIT((#1293,#1294));
#1300=MEASURE_REPRESENTATION_ITEM('density measure',
POSITIVE_RATIO_MEASURE(7850.),#1296);
#1301=MEASURE_REPRESENTATION_ITEM('density measure',
POSITIVE_RATIO_MEASURE(7850.),#1297);
#1302=MEASURE_REPRESENTATION_ITEM('density measure',
POSITIVE_RATIO_MEASURE(7850.),#1298);
#1303=MEASURE_REPRESENTATION_ITEM('density measure',
POSITIVE_RATIO_MEASURE(7750.),#1299);
#1304=PROPERTY_DEFINITION_REPRESENTATION(#1324,#1312);
#1305=PROPERTY_DEFINITION_REPRESENTATION(#1325,#1313);
#1306=PROPERTY_DEFINITION_REPRESENTATION(#1326,#1314);
#1307=PROPERTY_DEFINITION_REPRESENTATION(#1327,#1315);
#1308=PROPERTY_DEFINITION_REPRESENTATION(#1328,#1316);
#1309=PROPERTY_DEFINITION_REPRESENTATION(#1329,#1317);
#1310=PROPERTY_DEFINITION_REPRESENTATION(#1330,#1318);
#1311=PROPERTY_DEFINITION_REPRESENTATION(#1331,#1319);
#1312=REPRESENTATION('material name',(#1320),#2226);
#1313=REPRESENTATION('density',(#1300),#2226);
#1314=REPRESENTATION('material name',(#1321),#2227);
#1315=REPRESENTATION('density',(#1301),#2227);
#1316=REPRESENTATION('material name',(#1322),#2228);
#1317=REPRESENTATION('density',(#1302),#2228);
#1318=REPRESENTATION('material name',(#1323),#2229);
#1319=REPRESENTATION('density',(#1303),#2229);
#1320=DESCRIPTIVE_REPRESENTATION_ITEM('Steel','Steel');
#1321=DESCRIPTIVE_REPRESENTATION_ITEM('Steel','Steel');
#1322=DESCRIPTIVE_REPRESENTATION_ITEM('Steel','Steel');
#1323=DESCRIPTIVE_REPRESENTATION_ITEM('Steel Grade 2, Plain',
'Steel Grade 2, Plain');
#1324=PROPERTY_DEFINITION('material property','material name',#2258);
#1325=PROPERTY_DEFINITION('material property','density of part',#2258);
#1326=PROPERTY_DEFINITION('material property','material name',#2259);
#1327=PROPERTY_DEFINITION('material property','density of part',#2259);
#1328=PROPERTY_DEFINITION('material property','material name',#2260);
#1329=PROPERTY_DEFINITION('material property','density of part',#2260);
#1330=PROPERTY_DEFINITION('material property','material name',#2261);
#1331=PROPERTY_DEFINITION('material property','density of part',#2261);
#1332=AXIS2_PLACEMENT_3D('',#1854,#1465,#1466);
#1333=AXIS2_PLACEMENT_3D('',#1855,#1467,#1468);
#1334=AXIS2_PLACEMENT_3D('',#1856,#1469,#1470);
#1335=AXIS2_PLACEMENT_3D('',#1858,#1471,#1472);
#1336=AXIS2_PLACEMENT_3D('',#1861,#1474,#1475);
#1337=AXIS2_PLACEMENT_3D('',#1862,#1476,#1477);
#1338=AXIS2_PLACEMENT_3D('',#1864,#1478,#1479);
#1339=AXIS2_PLACEMENT_3D('',#1865,#1480,#1481);
#1340=AXIS2_PLACEMENT_3D('',#1867,#1482,#1483);
#1341=AXIS2_PLACEMENT_3D('',#1868,#1484,#1485);
#1342=AXIS2_PLACEMENT_3D('',#1870,#1486,#1487);
#1343=AXIS2_PLACEMENT_3D('',#1872,#1489,#1490);
#1344=AXIS2_PLACEMENT_3D('',#1881,#1495,#1496);
#1345=AXIS2_PLACEMENT_3D('',#1883,#1497,#1498);
#1346=AXIS2_PLACEMENT_3D('',#1886,#1500,#1501);
#1347=AXIS2_PLACEMENT_3D('',#1887,#1502,#1503);
#1348=AXIS2_PLACEMENT_3D('',#1891,#1505,#1506);
#1349=AXIS2_PLACEMENT_3D('',#1892,#1507,#1508);
#1350=AXIS2_PLACEMENT_3D('',#1893,#1509,#1510);
#1351=AXIS2_PLACEMENT_3D('',#1895,#1511,#1512);
#1352=AXIS2_PLACEMENT_3D('',#1898,#1514,#1515);
#1353=AXIS2_PLACEMENT_3D('',#1899,#1516,#1517);
#1354=AXIS2_PLACEMENT_3D('',#1905,#1521,#1522);
#1355=AXIS2_PLACEMENT_3D('',#1907,#1523,#1524);
#1356=AXIS2_PLACEMENT_3D('',#1909,#1525,#1526);
#1357=AXIS2_PLACEMENT_3D('',#1911,#1528,#1529);
#1358=AXIS2_PLACEMENT_3D('',#1920,#1534,#1535);
#1359=AXIS2_PLACEMENT_3D('',#1926,#1539,#1540);
#1360=AXIS2_PLACEMENT_3D('',#1932,#1544,#1545);
#1361=AXIS2_PLACEMENT_3D('',#1938,#1549,#1550);
#1362=AXIS2_PLACEMENT_3D('',#1944,#1554,#1555);
#1363=AXIS2_PLACEMENT_3D('',#1945,#1556,#1557);
#1364=AXIS2_PLACEMENT_3D('',#1946,#1558,#1559);
#1365=AXIS2_PLACEMENT_3D('',#1947,#1560,#1561);
#1366=AXIS2_PLACEMENT_3D('',#1949,#1562,#1563);
#1367=AXIS2_PLACEMENT_3D('',#1951,#1565,#1566);
#1368=AXIS2_PLACEMENT_3D('',#1957,#1570,#1571);
#1369=AXIS2_PLACEMENT_3D('',#1959,#1572,#1573);
#1370=AXIS2_PLACEMENT_3D('',#1962,#1575,#1576);
#1371=AXIS2_PLACEMENT_3D('',#1963,#1577,#1578);
#1372=AXIS2_PLACEMENT_3D('',#1967,#1581,#1582);
#1373=AXIS2_PLACEMENT_3D('',#1973,#1586,#1587);
#1374=AXIS2_PLACEMENT_3D('',#1979,#1591,#1592);
#1375=AXIS2_PLACEMENT_3D('',#1988,#1597,#1598);
#1376=AXIS2_PLACEMENT_3D('',#1993,#1602,#1603);
#1377=AXIS2_PLACEMENT_3D('',#1995,#1605,#1606);
#1378=AXIS2_PLACEMENT_3D('',#1997,#1607,#1608);
#1379=AXIS2_PLACEMENT_3D('',#1998,#1609,#1610);
#1380=AXIS2_PLACEMENT_3D('',#2004,#1614,#1615);
#1381=AXIS2_PLACEMENT_3D('',#2013,#1620,#1621);
#1382=AXIS2_PLACEMENT_3D('',#2019,#1625,#1626);
#1383=AXIS2_PLACEMENT_3D('',#2025,#1630,#1631);
#1384=AXIS2_PLACEMENT_3D('',#2031,#1635,#1636);
#1385=AXIS2_PLACEMENT_3D('',#2033,#1637,#1638);
#1386=AXIS2_PLACEMENT_3D('',#2035,#1639,#1640);
#1387=AXIS2_PLACEMENT_3D('',#2037,#1642,#1643);
#1388=AXIS2_PLACEMENT_3D('',#2043,#1647,#1648);
#1389=AXIS2_PLACEMENT_3D('',#2045,#1649,#1650);
#1390=AXIS2_PLACEMENT_3D('',#2048,#1652,#1653);
#1391=AXIS2_PLACEMENT_3D('',#2049,#1654,#1655);
#1392=AXIS2_PLACEMENT_3D('',#2054,#1659,#1660);
#1393=AXIS2_PLACEMENT_3D('',#2058,#1663,#1664);
#1394=AXIS2_PLACEMENT_3D('',#2064,#1668,#1669);
#1395=AXIS2_PLACEMENT_3D('',#2066,#1670,#1671);
#1396=AXIS2_PLACEMENT_3D('',#2069,#1673,#1674);
#1397=AXIS2_PLACEMENT_3D('',#2070,#1675,#1676);
#1398=AXIS2_PLACEMENT_3D('',#2074,#1678,#1679);
#1399=AXIS2_PLACEMENT_3D('',#2075,#1680,#1681);
#1400=AXIS2_PLACEMENT_3D('',#2076,#1682,#1683);
#1401=AXIS2_PLACEMENT_3D('',#2078,#1684,#1685);
#1402=AXIS2_PLACEMENT_3D('',#2081,#1687,#1688);
#1403=AXIS2_PLACEMENT_3D('',#2082,#1689,#1690);
#1404=AXIS2_PLACEMENT_3D('',#2084,#1691,#1692);
#1405=AXIS2_PLACEMENT_3D('',#2086,#1694,#1695);
#1406=AXIS2_PLACEMENT_3D('',#2092,#1699,#1700);
#1407=AXIS2_PLACEMENT_3D('',#2094,#1701,#1702);
#1408=AXIS2_PLACEMENT_3D('',#2098,#1705,#1706);
#1409=AXIS2_PLACEMENT_3D('',#2102,#1709,#1710);
#1410=AXIS2_PLACEMENT_3D('',#2104,#1711,#1712);
#1411=AXIS2_PLACEMENT_3D('',#2106,#1714,#1715);
#1412=AXIS2_PLACEMENT_3D('',#2108,#1717,#1718);
#1413=AXIS2_PLACEMENT_3D('',#2109,#1719,#1720);
#1414=AXIS2_PLACEMENT_3D('',#2110,#1721,#1722);
#1415=AXIS2_PLACEMENT_3D('',#2111,#1723,#1724);
#1416=AXIS2_PLACEMENT_3D('',#2113,#1725,#1726);
#1417=AXIS2_PLACEMENT_3D('',#2116,#1728,#1729);
#1418=AXIS2_PLACEMENT_3D('',#2117,#1730,#1731);
#1419=AXIS2_PLACEMENT_3D('',#2119,#1732,#1733);
#1420=AXIS2_PLACEMENT_3D('',#2122,#1735,#1736);
#1421=AXIS2_PLACEMENT_3D('',#2123,#1737,#1738);
#1422=AXIS2_PLACEMENT_3D('',#2124,#1739,#1740);
#1423=AXIS2_PLACEMENT_3D('',#2125,#1741,#1742);
#1424=AXIS2_PLACEMENT_3D('',#2126,#1743,#1744);
#1425=AXIS2_PLACEMENT_3D('',#2128,#1745,#1746);
#1426=AXIS2_PLACEMENT_3D('',#2131,#1748,#1749);
#1427=AXIS2_PLACEMENT_3D('',#2132,#1750,#1751);
#1428=AXIS2_PLACEMENT_3D('',#2134,#1752,#1753);
#1429=AXIS2_PLACEMENT_3D('',#2137,#1755,#1756);
#1430=AXIS2_PLACEMENT_3D('',#2138,#1757,#1758);
#1431=AXIS2_PLACEMENT_3D('',#2139,#1759,#1760);
#1432=AXIS2_PLACEMENT_3D('',#2140,#1761,#1762);
#1433=AXIS2_PLACEMENT_3D('',#2141,#1763,#1764);
#1434=AXIS2_PLACEMENT_3D('',#2143,#1765,#1766);
#1435=AXIS2_PLACEMENT_3D('',#2146,#1768,#1769);
#1436=AXIS2_PLACEMENT_3D('',#2147,#1770,#1771);
#1437=AXIS2_PLACEMENT_3D('',#2149,#1772,#1773);
#1438=AXIS2_PLACEMENT_3D('',#2151,#1774,#1775);
#1439=AXIS2_PLACEMENT_3D('',#2152,#1776,#1777);
#1440=AXIS2_PLACEMENT_3D('',#2153,#1778,#1779);
#1441=AXIS2_PLACEMENT_3D('',#2166,#1786,#1787);
#1442=AXIS2_PLACEMENT_3D('',#2168,#1788,#1789);
#1443=AXIS2_PLACEMENT_3D('',#2170,#1791,#1792);
#1444=AXIS2_PLACEMENT_3D('',#2177,#1796,#1797);
#1445=AXIS2_PLACEMENT_3D('',#2181,#1800,#1801);
#1446=AXIS2_PLACEMENT_3D('',#2185,#1804,#1805);
#1447=AXIS2_PLACEMENT_3D('',#2189,#1808,#1809);
#1448=AXIS2_PLACEMENT_3D('',#2193,#1812,#1813);
#1449=AXIS2_PLACEMENT_3D('',#2195,#1815,#1816);
#1450=AXIS2_PLACEMENT_3D('',#2198,#1819,#1820);
#1451=AXIS2_PLACEMENT_3D('',#2200,#1822,#1823);
#1452=AXIS2_PLACEMENT_3D('',#2202,#1825,#1826);
#1453=AXIS2_PLACEMENT_3D('',#2204,#1828,#1829);
#1454=AXIS2_PLACEMENT_3D('',#2206,#1831,#1832);
#1455=AXIS2_PLACEMENT_3D('',#2207,#1833,#1834);
#1456=AXIS2_PLACEMENT_3D('',#2210,#1836,#1837);
#1457=AXIS2_PLACEMENT_3D('',#2211,#1838,#1839);
#1458=AXIS2_PLACEMENT_3D('',#2212,#1840,#1841);
#1459=AXIS2_PLACEMENT_3D('',#2213,#1842,#1843);
#1460=AXIS2_PLACEMENT_3D('',#2214,#1844,#1845);
#1461=AXIS2_PLACEMENT_3D('',#2215,#1846,#1847);
#1462=AXIS2_PLACEMENT_3D('',#2216,#1848,#1849);
#1463=AXIS2_PLACEMENT_3D('',#2217,#1850,#1851);
#1464=AXIS2_PLACEMENT_3D('',#2218,#1852,#1853);
#1465=DIRECTION('axis',(0.,0.,1.));
#1466=DIRECTION('refdir',(1.,0.,0.));
#1467=DIRECTION('axis',(0.,0.,1.));
#1468=DIRECTION('refdir',(1.,0.,0.));
#1469=DIRECTION('center_axis',(-1.,0.,0.));
#1470=DIRECTION('ref_axis',(0.,1.,0.));
#1471=DIRECTION('center_axis',(-1.,0.,0.));
#1472=DIRECTION('ref_axis',(0.,1.,0.));
#1473=DIRECTION('',(-1.,0.,0.));
#1474=DIRECTION('center_axis',(-1.,0.,0.));
#1475=DIRECTION('ref_axis',(0.,1.,0.));
#1476=DIRECTION('center_axis',(0.,0.,1.));
#1477=DIRECTION('ref_axis',(1.,0.,0.));
#1478=DIRECTION('center_axis',(0.,0.,-1.));
#1479=DIRECTION('ref_axis',(1.,0.,0.));
#1480=DIRECTION('center_axis',(0.,0.,1.));
#1481=DIRECTION('ref_axis',(1.,0.,0.));
#1482=DIRECTION('center_axis',(0.,0.,1.));
#1483=DIRECTION('ref_axis',(1.,0.,0.));
#1484=DIRECTION('center_axis',(0.,0.,-1.));
#1485=DIRECTION('ref_axis',(1.,0.,0.));
#1486=DIRECTION('center_axis',(0.,0.,-1.));
#1487=DIRECTION('ref_axis',(1.,0.,0.));
#1488=DIRECTION('',(0.,0.,-1.));
#1489=DIRECTION('center_axis',(0.,-1.,0.));
#1490=DIRECTION('ref_axis',(1.,0.,0.));
#1491=DIRECTION('',(0.,0.,1.));
#1492=DIRECTION('',(1.,0.,0.));
#1493=DIRECTION('',(0.,0.,-1.));
#1494=DIRECTION('',(1.,0.,0.));
#1495=DIRECTION('center_axis',(0.,0.,1.));
#1496=DIRECTION('ref_axis',(0.647576125802734,0.762000762001142,0.));
#1497=DIRECTION('center_axis',(0.,0.,-1.));
#1498=DIRECTION('ref_axis',(0.647576125802734,0.762000762001142,0.));
#1499=DIRECTION('',(0.,0.,1.));
#1500=DIRECTION('center_axis',(0.,0.,1.));
#1501=DIRECTION('ref_axis',(0.647576125802734,0.762000762001142,0.));
#1502=DIRECTION('center_axis',(0.,0.,1.));
#1503=DIRECTION('ref_axis',(1.,0.,0.));
#1504=DIRECTION('',(0.,0.,-1.));
#1505=DIRECTION('center_axis',(0.,0.,1.));
#1506=DIRECTION('ref_axis',(1.,0.,0.));
#1507=DIRECTION('center_axis',(0.,0.,1.));
#1508=DIRECTION('ref_axis',(1.,0.,0.));
#1509=DIRECTION('center_axis',(0.,0.,1.));
#1510=DIRECTION('ref_axis',(-0.491303684440517,0.870988340711386,0.));
#1511=DIRECTION('center_axis',(0.,0.,-1.));
#1512=DIRECTION('ref_axis',(-0.491303684440517,0.870988340711386,0.));
#1513=DIRECTION('',(0.,0.,1.));
#1514=DIRECTION('center_axis',(0.,0.,1.));
#1515=DIRECTION('ref_axis',(-0.491303684440517,0.870988340711386,0.));
#1516=DIRECTION('center_axis',(0.,-1.,0.));
#1517=DIRECTION('ref_axis',(1.,0.,0.));
#1518=DIRECTION('',(1.,0.,0.));
#1519=DIRECTION('',(0.,0.,-1.));
#1520=DIRECTION('',(1.,0.,0.));
#1521=DIRECTION('center_axis',(0.,0.,1.));
#1522=DIRECTION('ref_axis',(0.465474668125632,-0.885061203156783,0.));
#1523=DIRECTION('center_axis',(0.,0.,-1.));
#1524=DIRECTION('ref_axis',(0.465474668125632,-0.885061203156783,0.));
#1525=DIRECTION('center_axis',(0.,0.,1.));
#1526=DIRECTION('ref_axis',(0.465474668125632,-0.885061203156783,0.));
#1527=DIRECTION('',(0.,0.,1.));
#1528=DIRECTION('center_axis',(9.25185853854298E-17,1.,0.));
#1529=DIRECTION('ref_axis',(-1.,9.25185853854298E-17,0.));
#1530=DIRECTION('',(1.,-9.25185853854298E-17,0.));
#1531=DIRECTION('',(0.,0.,-1.));
#1532=DIRECTION('',(-1.,9.25185853854298E-17,0.));
#1533=DIRECTION('',(0.,0.,1.));
#1534=DIRECTION('center_axis',(-1.,0.,0.));
#1535=DIRECTION('ref_axis',(0.,-1.,0.));
#1536=DIRECTION('',(0.,1.,0.));
#1537=DIRECTION('',(0.,0.,1.));
#1538=DIRECTION('',(0.,1.,0.));
#1539=DIRECTION('center_axis',(0.,1.,0.));
#1540=DIRECTION('ref_axis',(-1.,0.,0.));
#1541=DIRECTION('',(1.,0.,0.));
#1542=DIRECTION('',(0.,0.,1.));
#1543=DIRECTION('',(1.,0.,0.));
#1544=DIRECTION('center_axis',(1.,0.,0.));
#1545=DIRECTION('ref_axis',(0.,1.,0.));
#1546=DIRECTION('',(0.,-1.,0.));
#1547=DIRECTION('',(0.,0.,1.));
#1548=DIRECTION('',(0.,-1.,0.));
#1549=DIRECTION('center_axis',(0.,1.,0.));
#1550=DIRECTION('ref_axis',(-1.,0.,0.));
#1551=DIRECTION('',(0.,0.,-1.));
#1552=DIRECTION('',(-1.,0.,0.));
#1553=DIRECTION('',(-1.,0.,0.));
#1554=DIRECTION('center_axis',(0.,0.,1.));
#1555=DIRECTION('ref_axis',(-0.707106781186548,0.707106781186547,0.));
#1556=DIRECTION('center_axis',(0.,0.,-1.));
#1557=DIRECTION('ref_axis',(-0.707106781186548,-0.707106781186547,0.));
#1558=DIRECTION('center_axis',(0.,0.,1.));
#1559=DIRECTION('ref_axis',(-0.707106781186548,-0.707106781186547,0.));
#1560=DIRECTION('center_axis',(0.,0.,1.));
#1561=DIRECTION('ref_axis',(1.,0.,0.));
#1562=DIRECTION('center_axis',(0.,0.,1.));
#1563=DIRECTION('ref_axis',(1.,0.,0.));
#1564=DIRECTION('',(0.,0.,1.));
#1565=DIRECTION('center_axis',(1.,0.,0.));
#1566=DIRECTION('ref_axis',(0.,1.,0.));
#1567=DIRECTION('',(0.,-1.,0.));
#1568=DIRECTION('',(0.,1.,0.));
#1569=DIRECTION('',(0.,0.,1.));
#1570=DIRECTION('center_axis',(0.,0.,-1.));
#1571=DIRECTION('ref_axis',(-0.991071249821234,0.133333333333333,0.));
#1572=DIRECTION('center_axis',(0.,0.,-1.));
#1573=DIRECTION('ref_axis',(-0.991071249821234,0.133333333333333,0.));
#1574=DIRECTION('',(0.,0.,1.));
#1575=DIRECTION('center_axis',(0.,0.,1.));
#1576=DIRECTION('ref_axis',(-0.991071249821234,0.133333333333333,0.));
#1577=DIRECTION('center_axis',(0.,0.,1.));
#1578=DIRECTION('ref_axis',(1.,0.,0.));
#1579=DIRECTION('',(1.,0.,0.));
#1580=DIRECTION('',(0.,1.,0.));
#1581=DIRECTION('center_axis',(-1.,0.,0.));
#1582=DIRECTION('ref_axis',(0.,-1.,0.));
#1583=DIRECTION('',(0.,0.,1.));
#1584=DIRECTION('',(0.,-1.,0.));
#1585=DIRECTION('',(0.,0.,1.));
#1586=DIRECTION('center_axis',(0.,0.,1.));
#1587=DIRECTION('ref_axis',(1.,0.,0.));
#1588=DIRECTION('',(1.,0.,0.));
#1589=DIRECTION('',(-7.40148683083438E-16,1.,0.));
#1590=DIRECTION('',(-1.,0.,0.));
#1591=DIRECTION('center_axis',(0.,0.,-1.));
#1592=DIRECTION('ref_axis',(-1.,0.,0.));
#1593=DIRECTION('',(0.,1.,0.));
#1594=DIRECTION('',(1.,0.,0.));
#1595=DIRECTION('',(7.40148683083438E-16,-1.,0.));
#1596=DIRECTION('',(-1.,0.,0.));
#1597=DIRECTION('center_axis',(-1.,0.,0.));
#1598=DIRECTION('ref_axis',(0.,1.,0.));
#1599=DIRECTION('',(0.,-1.,0.));
#1600=DIRECTION('',(0.,0.,-1.));
#1601=DIRECTION('',(0.,0.,-1.));
#1602=DIRECTION('center_axis',(0.,0.,1.));
#1603=DIRECTION('ref_axis',(1.,0.,0.));
#1604=DIRECTION('',(-1.,0.,0.));
#1605=DIRECTION('center_axis',(0.,0.,1.));
#1606=DIRECTION('ref_axis',(1.,0.,0.));
#1607=DIRECTION('center_axis',(0.,0.,1.));
#1608=DIRECTION('ref_axis',(1.,0.,0.));
#1609=DIRECTION('center_axis',(1.,7.40148683083438E-16,0.));
#1610=DIRECTION('ref_axis',(-7.40148683083438E-16,1.,0.));
#1611=DIRECTION('',(7.40148683083438E-16,-1.,0.));
#1612=DIRECTION('',(0.,0.,1.));
#1613=DIRECTION('',(0.,0.,1.));
#1614=DIRECTION('center_axis',(1.,0.,0.));
#1615=DIRECTION('ref_axis',(0.,1.,0.));
#1616=DIRECTION('',(0.,-1.,0.));
#1617=DIRECTION('',(0.,0.,1.));
#1618=DIRECTION('',(0.,-1.,0.));
#1619=DIRECTION('',(0.,0.,1.));
#1620=DIRECTION('center_axis',(0.,-1.,0.));
#1621=DIRECTION('ref_axis',(1.,0.,0.));
#1622=DIRECTION('',(-1.,0.,0.));
#1623=DIRECTION('',(0.,0.,1.));
#1624=DIRECTION('',(-1.,0.,0.));
#1625=DIRECTION('center_axis',(1.,0.,0.));
#1626=DIRECTION('ref_axis',(0.,1.,0.));
#1627=DIRECTION('',(0.,1.,0.));
#1628=DIRECTION('',(0.,0.,1.));
#1629=DIRECTION('',(0.,1.,0.));
#1630=DIRECTION('center_axis',(0.,1.,0.));
#1631=DIRECTION('ref_axis',(-1.,0.,0.));
#1632=DIRECTION('',(0.,0.,-1.));
#1633=DIRECTION('',(-1.,0.,0.));
#1634=DIRECTION('',(-1.,0.,0.));
#1635=DIRECTION('center_axis',(0.,0.,1.));
#1636=DIRECTION('ref_axis',(-0.707106781186548,0.707106781186548,0.));
#1637=DIRECTION('center_axis',(0.,0.,-1.));
#1638=DIRECTION('ref_axis',(-0.707106781186548,0.707106781186548,0.));
#1639=DIRECTION('center_axis',(0.,0.,1.));
#1640=DIRECTION('ref_axis',(-0.707106781186548,0.707106781186548,0.));
#1641=DIRECTION('',(0.,0.,1.));
#1642=DIRECTION('center_axis',(-1.,0.,0.));
#1643=DIRECTION('ref_axis',(0.,-1.,0.));
#1644=DIRECTION('',(0.,1.,0.));
#1645=DIRECTION('',(0.,0.,-1.));
#1646=DIRECTION('',(0.,-1.,0.));
#1647=DIRECTION('center_axis',(0.,0.,1.));
#1648=DIRECTION('ref_axis',(0.707106781186547,-0.707106781186547,0.));
#1649=DIRECTION('center_axis',(0.,0.,-1.));
#1650=DIRECTION('ref_axis',(0.707106781186547,-0.707106781186547,0.));
#1651=DIRECTION('',(0.,0.,1.));
#1652=DIRECTION('center_axis',(0.,0.,1.));
#1653=DIRECTION('ref_axis',(0.707106781186547,-0.707106781186547,0.));
#1654=DIRECTION('center_axis',(0.,1.,0.));
#1655=DIRECTION('ref_axis',(-1.,0.,0.));
#1656=DIRECTION('',(1.,0.,0.));
#1657=DIRECTION('',(0.,0.,-1.));
#1658=DIRECTION('',(-1.,0.,0.));
#1659=DIRECTION('center_axis',(1.,7.40148683083438E-16,0.));
#1660=DIRECTION('ref_axis',(7.40148683083438E-16,-1.,0.));
#1661=DIRECTION('',(-7.40148683083438E-16,1.,0.));
#1662=DIRECTION('',(0.,0.,-1.));
#1663=DIRECTION('center_axis',(0.,-1.,0.));
#1664=DIRECTION('ref_axis',(1.,0.,0.));
#1665=DIRECTION('',(1.,0.,0.));
#1666=DIRECTION('',(0.,0.,-1.));
#1667=DIRECTION('',(1.,0.,0.));
#1668=DIRECTION('center_axis',(0.,0.,1.));
#1669=DIRECTION('ref_axis',(0.693888666488711,0.720082299823096,0.));
#1670=DIRECTION('center_axis',(0.,0.,-1.));
#1671=DIRECTION('ref_axis',(0.693888666488711,0.720082299823096,0.));
#1672=DIRECTION('',(0.,0.,1.));
#1673=DIRECTION('center_axis',(0.,0.,1.));
#1674=DIRECTION('ref_axis',(0.693888666488711,0.720082299823096,0.));
#1675=DIRECTION('center_axis',(0.,0.,1.));
#1676=DIRECTION('ref_axis',(1.,0.,0.));
#1677=DIRECTION('',(0.,0.,-1.));
#1678=DIRECTION('center_axis',(0.,0.,1.));
#1679=DIRECTION('ref_axis',(1.,0.,0.));
#1680=DIRECTION('center_axis',(0.,0.,1.));
#1681=DIRECTION('ref_axis',(1.,0.,0.));
#1682=DIRECTION('center_axis',(0.,0.,1.));
#1683=DIRECTION('ref_axis',(0.720082299823095,0.693888666488711,0.));
#1684=DIRECTION('center_axis',(0.,0.,-1.));
#1685=DIRECTION('ref_axis',(0.720082299823095,0.693888666488711,0.));
#1686=DIRECTION('',(0.,0.,1.));
#1687=DIRECTION('center_axis',(0.,0.,1.));
#1688=DIRECTION('ref_axis',(0.720082299823095,0.693888666488711,0.));
#1689=DIRECTION('center_axis',(0.,0.,1.));
#1690=DIRECTION('ref_axis',(1.,0.,0.));
#1691=DIRECTION('center_axis',(0.,0.,1.));
#1692=DIRECTION('ref_axis',(1.,0.,0.));
#1693=DIRECTION('',(0.,0.,1.));
#1694=DIRECTION('center_axis',(-1.,0.,0.));
#1695=DIRECTION('ref_axis',(0.,-1.,0.));
#1696=DIRECTION('',(0.,0.,-1.));
#1697=DIRECTION('',(0.,-1.,0.));
#1698=DIRECTION('',(0.,-1.,0.));
#1699=DIRECTION('center_axis',(0.,0.,1.));
#1700=DIRECTION('ref_axis',(1.,0.,0.));
#1701=DIRECTION('center_axis',(0.,0.,-1.));
#1702=DIRECTION('ref_axis',(0.707106781186547,-0.707106781186548,0.));
#1703=DIRECTION('',(0.,1.,0.));
#1704=DIRECTION('',(1.,0.,0.));
#1705=DIRECTION('center_axis',(0.,1.,0.));
#1706=DIRECTION('ref_axis',(-1.,0.,0.));
#1707=DIRECTION('',(1.,0.,0.));
#1708=DIRECTION('',(0.,0.,-1.));
#1709=DIRECTION('center_axis',(0.,0.,1.));
#1710=DIRECTION('ref_axis',(1.,0.,0.));
#1711=DIRECTION('center_axis',(0.,0.,1.));
#1712=DIRECTION('ref_axis',(0.707106781186547,-0.707106781186548,0.));
#1713=DIRECTION('',(0.,1.,0.));
#1714=DIRECTION('center_axis',(0.,0.,1.));
#1715=DIRECTION('ref_axis',(0.707106781186547,-0.707106781186548,0.));
#1716=DIRECTION('',(0.,0.,1.));
#1717=DIRECTION('center_axis',(1.,0.,0.));
#1718=DIRECTION('ref_axis',(0.,1.,0.));
#1719=DIRECTION('center_axis',(1.,0.,0.));
#1720=DIRECTION('ref_axis',(0.,1.,0.));
#1721=DIRECTION('axis',(0.,0.,1.));
#1722=DIRECTION('refdir',(1.,0.,0.));
#1723=DIRECTION('center_axis',(0.,0.,1.));
#1724=DIRECTION('ref_axis',(1.,0.,0.));
#1725=DIRECTION('center_axis',(0.,0.,1.));
#1726=DIRECTION('ref_axis',(1.,0.,0.));
#1727=DIRECTION('',(0.,0.,-1.));
#1728=DIRECTION('center_axis',(0.,0.,1.));
#1729=DIRECTION('ref_axis',(1.,0.,0.));
#1730=DIRECTION('center_axis',(0.,0.,1.));
#1731=DIRECTION('ref_axis',(1.,0.,0.));
#1732=DIRECTION('center_axis',(0.,0.,1.));
#1733=DIRECTION('ref_axis',(1.,0.,0.));
#1734=DIRECTION('',(0.,0.,-1.));
#1735=DIRECTION('center_axis',(0.,0.,1.));
#1736=DIRECTION('ref_axis',(1.,0.,0.));
#1737=DIRECTION('center_axis',(0.,0.,1.));
#1738=DIRECTION('ref_axis',(1.,0.,0.));
#1739=DIRECTION('center_axis',(0.,0.,1.));
#1740=DIRECTION('ref_axis',(1.,0.,0.));
#1741=DIRECTION('axis',(0.,0.,1.));
#1742=DIRECTION('refdir',(1.,0.,0.));
#1743=DIRECTION('center_axis',(0.,0.,1.));
#1744=DIRECTION('ref_axis',(1.,0.,0.));
#1745=DIRECTION('center_axis',(0.,0.,1.));
#1746=DIRECTION('ref_axis',(1.,0.,0.));
#1747=DIRECTION('',(0.,0.,-1.));
#1748=DIRECTION('center_axis',(0.,0.,1.));
#1749=DIRECTION('ref_axis',(1.,0.,0.));
#1750=DIRECTION('center_axis',(0.,0.,1.));
#1751=DIRECTION('ref_axis',(1.,0.,0.));
#1752=DIRECTION('center_axis',(0.,0.,1.));
#1753=DIRECTION('ref_axis',(1.,0.,0.));
#1754=DIRECTION('',(0.,0.,-1.));
#1755=DIRECTION('center_axis',(0.,0.,1.));
#1756=DIRECTION('ref_axis',(1.,0.,0.));
#1757=DIRECTION('center_axis',(0.,0.,1.));
#1758=DIRECTION('ref_axis',(1.,0.,0.));
#1759=DIRECTION('center_axis',(0.,0.,1.));
#1760=DIRECTION('ref_axis',(1.,0.,0.));
#1761=DIRECTION('axis',(0.,0.,1.));
#1762=DIRECTION('refdir',(1.,0.,0.));
#1763=DIRECTION('center_axis',(0.,0.,1.));
#1764=DIRECTION('ref_axis',(-1.,0.,0.));
#1765=DIRECTION('center_axis',(-2.98027203775083E-15,0.,1.));
#1766=DIRECTION('ref_axis',(-1.,0.,-3.29571537574345E-15));
#1767=DIRECTION('',(-0.737046561060622,9.02621711825455E-17,-0.675841968827559));
#1768=DIRECTION('center_axis',(2.98027203775083E-15,0.,-1.));
#1769=DIRECTION('ref_axis',(-1.,0.,0.));
#1770=DIRECTION('center_axis',(2.98027203775083E-15,0.,-1.));
#1771=DIRECTION('ref_axis',(-1.,0.,-2.96059473233378E-15));
#1772=DIRECTION('center_axis',(-2.98027203775083E-15,0.,1.));
#1773=DIRECTION('ref_axis',(1.,0.,2.97601449656469E-15));
#1774=DIRECTION('center_axis',(-1.22464679914735E-16,-1.,-3.64978061161992E-31));
#1775=DIRECTION('ref_axis',(1.,-1.22464679914735E-16,2.96059473233378E-15));
#1776=DIRECTION('center_axis',(2.98027203775083E-15,0.,-1.));
#1777=DIRECTION('ref_axis',(1.,0.,2.98027203775083E-15));
#1778=DIRECTION('center_axis',(-2.98027203775083E-15,0.,1.));
#1779=DIRECTION('ref_axis',(1.,0.,2.98027203775083E-15));
#1780=DIRECTION('',(-0.866025403784439,-0.5,-2.58099129488064E-15));
#1781=DIRECTION('',(-0.866025403784438,0.5,-2.58099129488064E-15));
#1782=DIRECTION('',(6.00925839494864E-16,1.,1.79092247620849E-30));
#1783=DIRECTION('',(0.866025403784439,0.5,2.58099129488064E-15));
#1784=DIRECTION('',(0.866025403784439,-0.5,2.58099129488064E-15));
#1785=DIRECTION('',(-1.20185167898973E-16,-1.,-3.58184495241698E-31));
#1786=DIRECTION('center_axis',(2.98027203775083E-15,0.,-1.));
#1787=DIRECTION('ref_axis',(-1.,0.,-3.29571537574345E-15));
#1788=DIRECTION('center_axis',(2.98027203775083E-15,0.,-1.));
#1789=DIRECTION('ref_axis',(1.,0.,2.98027203775083E-15));
#1790=DIRECTION('',(-2.98027203775083E-15,0.,1.));
#1791=DIRECTION('center_axis',(0.0435778713738291,-0.0754790873051733,-0.996194698091746));
#1792=DIRECTION('ref_axis',(-0.866025403784439,-0.5,0.));
#1793=DIRECTION('',(3.18762329165829E-16,0.997141949694316,-0.0755508581011305));
#1794=DIRECTION('',(-0.866025403784439,-0.5,0.));
#1795=DIRECTION('',(-0.863550259614423,0.498570974847158,-0.0755508581011305));
#1796=DIRECTION('center_axis',(0.0871557427476581,-1.0474827575487E-17,
-0.996194698091746));
#1797=DIRECTION('ref_axis',(-1.20185167898973E-16,-1.,0.));
#1798=DIRECTION('',(-1.20185167898973E-16,-1.,0.));
#1799=DIRECTION('',(-0.863550259614423,-0.498570974847158,-0.0755508581011305));
#1800=DIRECTION('center_axis',(0.0435778713738291,0.0754790873051733,-0.996194698091746));
#1801=DIRECTION('ref_axis',(0.866025403784439,-0.5,0.));
#1802=DIRECTION('',(0.866025403784439,-0.5,0.));
#1803=DIRECTION('',(-1.59381164582915E-16,-0.997141949694316,-0.0755508581011305));
#1804=DIRECTION('center_axis',(-0.043577871373829,0.0754790873051733,-0.996194698091746));
#1805=DIRECTION('ref_axis',(0.866025403784439,0.5,0.));
#1806=DIRECTION('',(0.866025403784439,0.5,0.));
#1807=DIRECTION('',(0.863550259614423,-0.498570974847159,-0.0755508581011305));
#1808=DIRECTION('center_axis',(-0.0871557427476581,5.23741378774348E-17,
-0.996194698091746));
#1809=DIRECTION('ref_axis',(6.00925839494864E-16,1.,0.));
#1810=DIRECTION('',(6.00925839494864E-16,1.,0.));
#1811=DIRECTION('',(0.863550259614423,0.498570974847158,-0.0755508581011305));
#1812=DIRECTION('center_axis',(-0.0435778713738291,-0.0754790873051733,
-0.996194698091746));
#1813=DIRECTION('ref_axis',(-0.866025403784439,0.5,0.));
#1814=DIRECTION('',(-0.866025403784439,0.5,0.));
#1815=DIRECTION('center_axis',(0.5,-0.866025403784439,0.));
#1816=DIRECTION('ref_axis',(-0.866025403784439,-0.5,0.));
#1817=DIRECTION('',(0.,0.,-1.));
#1818=DIRECTION('',(0.,0.,-1.));
#1819=DIRECTION('center_axis',(1.,-1.20185167898973E-16,0.));
#1820=DIRECTION('ref_axis',(-1.20185167898973E-16,-1.,0.));
#1821=DIRECTION('',(0.,0.,-1.));
#1822=DIRECTION('center_axis',(0.5,0.866025403784439,0.));
#1823=DIRECTION('ref_axis',(0.866025403784439,-0.5,0.));
#1824=DIRECTION('',(0.,0.,-1.));
#1825=DIRECTION('center_axis',(-0.5,0.866025403784439,0.));
#1826=DIRECTION('ref_axis',(0.866025403784439,0.5,0.));
#1827=DIRECTION('',(0.,0.,-1.));
#1828=DIRECTION('center_axis',(-1.,6.00925839494864E-16,0.));
#1829=DIRECTION('ref_axis',(6.00925839494864E-16,1.,0.));
#1830=DIRECTION('',(0.,0.,-1.));
#1831=DIRECTION('center_axis',(-0.5,-0.866025403784439,0.));
#1832=DIRECTION('ref_axis',(-0.866025403784439,0.5,0.));
#1833=DIRECTION('center_axis',(2.98027203775083E-15,0.,-1.));
#1834=DIRECTION('ref_axis',(-1.,0.,-3.29571537574345E-15));
#1835=DIRECTION('',(-2.98027203775083E-15,0.,1.));
#1836=DIRECTION('center_axis',(-2.98027203775083E-15,0.,1.));
#1837=DIRECTION('ref_axis',(-1.,0.,-3.29571537574345E-15));
#1838=DIRECTION('center_axis',(2.98027203775083E-15,0.,-1.));
#1839=DIRECTION('ref_axis',(-1.,0.,-2.98027203775083E-15));
#1840=DIRECTION('center_axis',(2.98027203775083E-15,0.,-1.));
#1841=DIRECTION('ref_axis',(-1.,0.,-2.98027203775083E-15));
#1842=DIRECTION('',(0.,0.,1.));
#1843=DIRECTION('',(1.,0.,0.));
#1844=DIRECTION('',(0.,0.,1.));
#1845=DIRECTION('',(1.,0.,0.));
#1846=DIRECTION('',(0.,0.,-1.));
#1847=DIRECTION('',(1.,0.,0.));
#1848=DIRECTION('',(0.,0.,-1.));
#1849=DIRECTION('',(1.,0.,0.));
#1850=DIRECTION('',(-1.,0.,0.));
#1851=DIRECTION('',(0.,1.22464679914735E-16,-1.));
#1852=DIRECTION('',(1.,0.,0.));
#1853=DIRECTION('',(0.,0.,1.));
#1854=CARTESIAN_POINT('',(0.,0.,0.));
#1855=CARTESIAN_POINT('',(0.,0.,0.));
#1856=CARTESIAN_POINT('Origin',(3.,-5.7,47.));
#1857=CARTESIAN_POINT('',(3.,-7.45,47.));
#1858=CARTESIAN_POINT('Origin',(3.,-5.7,47.));
#1859=CARTESIAN_POINT('',(-1.,-7.45,47.));
#1860=CARTESIAN_POINT('',(3.,-7.45,47.));
#1861=CARTESIAN_POINT('Origin',(-1.,-5.7,47.));
#1862=CARTESIAN_POINT('Origin',(-32.15,-5.85,66.));
#1863=CARTESIAN_POINT('',(-33.9,-5.85,66.));
#1864=CARTESIAN_POINT('Origin',(-32.15,-5.85,66.));
#1865=CARTESIAN_POINT('Origin',(-32.15,-5.85,6.));
#1866=CARTESIAN_POINT('',(-33.9,-5.85,6.));
#1867=CARTESIAN_POINT('Origin',(-32.15,-5.85,6.));
#1868=CARTESIAN_POINT('Origin',(-32.15,-5.85,72.));
#1869=CARTESIAN_POINT('',(-33.9,-5.85,72.));
#1870=CARTESIAN_POINT('Origin',(-32.15,-5.85,72.));
#1871=CARTESIAN_POINT('',(-33.9,-5.85,72.));
#1872=CARTESIAN_POINT('Origin',(-42.4,-4.1,0.));
#1873=CARTESIAN_POINT('',(-40.9,-4.1,0.));
#1874=CARTESIAN_POINT('',(-40.9,-4.1,72.));
#1875=CARTESIAN_POINT('',(-40.9,-4.1,0.));
#1876=CARTESIAN_POINT('',(-39.7985292703892,-4.1,0.));
#1877=CARTESIAN_POINT('',(-42.4,-4.1,0.));
#1878=CARTESIAN_POINT('',(-39.7985292703892,-4.1,72.));
#1879=CARTESIAN_POINT('',(-39.7985292703892,-4.1,0.));
#1880=CARTESIAN_POINT('',(-42.4,-4.1,72.));
#1881=CARTESIAN_POINT('Origin',(-39.7985292703892,-7.1,0.));
#1882=CARTESIAN_POINT('',(-36.8378082624966,-6.61612903225806,0.));
#1883=CARTESIAN_POINT('Origin',(-39.7985292703892,-7.1,0.));
#1884=CARTESIAN_POINT('',(-36.8378082624966,-6.61612903225806,72.));
#1885=CARTESIAN_POINT('',(-36.8378082624966,-6.61612903225806,0.));
#1886=CARTESIAN_POINT('Origin',(-39.7985292703892,-7.1,72.));
#1887=CARTESIAN_POINT('Origin',(-32.15,-5.85,0.));
#1888=CARTESIAN_POINT('',(-28.0847620814858,-8.30689655172414,72.));
#1889=CARTESIAN_POINT('',(-28.0847620814858,-8.30689655172414,0.));
#1890=CARTESIAN_POINT('',(-28.0847620814858,-8.30689655172414,0.));
#1891=CARTESIAN_POINT('Origin',(-32.15,-5.85,72.));
#1892=CARTESIAN_POINT('Origin',(-32.15,-5.85,0.));
#1893=CARTESIAN_POINT('Origin',(-25.9451631770046,-9.6,0.));
#1894=CARTESIAN_POINT('',(-25.9451631770046,-7.1,0.));
#1895=CARTESIAN_POINT('Origin',(-25.9451631770046,-9.6,0.));
#1896=CARTESIAN_POINT('',(-25.9451631770046,-7.1,72.));
#1897=CARTESIAN_POINT('',(-25.9451631770046,-7.1,0.));
#1898=CARTESIAN_POINT('Origin',(-25.9451631770046,-9.6,72.));
#1899=CARTESIAN_POINT('Origin',(-27.5674243050442,-7.1,0.));
#1900=CARTESIAN_POINT('',(-23.3704690882596,-7.1,0.));
#1901=CARTESIAN_POINT('',(-30.4,-7.1,0.));
#1902=CARTESIAN_POINT('',(-23.3704690882596,-7.1,72.));
#1903=CARTESIAN_POINT('',(-23.3704690882596,-7.1,0.));
#1904=CARTESIAN_POINT('',(-30.4,-7.1,72.));
#1905=CARTESIAN_POINT('Origin',(-23.3704690882596,-4.1,0.));
#1906=CARTESIAN_POINT('',(-20.898627669398,-5.8,72.));
#1907=CARTESIAN_POINT('Origin',(-23.3704690882596,-4.1,72.));
#1908=CARTESIAN_POINT('',(-20.898627669398,-5.8,0.));
#1909=CARTESIAN_POINT('Origin',(-23.3704690882596,-4.1,0.));
#1910=CARTESIAN_POINT('',(-20.898627669398,-5.8,0.));
#1911=CARTESIAN_POINT('Origin',(-21.4,-1.1,0.));
#1912=CARTESIAN_POINT('',(-24.2,-1.1,0.));
#1913=CARTESIAN_POINT('',(-21.4,-1.1,0.));
#1914=CARTESIAN_POINT('',(-24.4,-1.1,0.));
#1915=CARTESIAN_POINT('',(-24.2,-1.1,72.));
#1916=CARTESIAN_POINT('',(-24.2,-1.1,0.));
#1917=CARTESIAN_POINT('',(-21.4,-1.1,72.));
#1918=CARTESIAN_POINT('',(-24.4,-1.1,72.));
#1919=CARTESIAN_POINT('',(-21.4,-1.1,0.));
#1920=CARTESIAN_POINT('Origin',(-24.2,-1.1,0.));
#1921=CARTESIAN_POINT('',(-24.2,-4.3,0.));
#1922=CARTESIAN_POINT('',(-24.2,-3.55,0.));
#1923=CARTESIAN_POINT('',(-24.2,-4.3,72.));
#1924=CARTESIAN_POINT('',(-24.2,-4.3,0.));
#1925=CARTESIAN_POINT('',(-24.2,-3.55,72.));
#1926=CARTESIAN_POINT('Origin',(-24.4,-4.3,0.));
#1927=CARTESIAN_POINT('',(-27.6,-4.3,0.));
#1928=CARTESIAN_POINT('',(-22.05,-4.3,0.));
#1929=CARTESIAN_POINT('',(-27.6,-4.3,72.));
#1930=CARTESIAN_POINT('',(-27.6,-4.3,0.));
#1931=CARTESIAN_POINT('',(-22.05,-4.3,72.));
#1932=CARTESIAN_POINT('Origin',(-27.6,-4.1,0.));
#1933=CARTESIAN_POINT('',(-27.6,-1.1,0.));
#1934=CARTESIAN_POINT('',(-27.6,-5.05,0.));
#1935=CARTESIAN_POINT('',(-27.6,-1.1,72.));
#1936=CARTESIAN_POINT('',(-27.6,-1.1,0.));
#1937=CARTESIAN_POINT('',(-27.6,-5.05,72.));
#1938=CARTESIAN_POINT('Origin',(-27.4,-1.1,0.));
#1939=CARTESIAN_POINT('',(-40.9,-1.1,72.));
#1940=CARTESIAN_POINT('',(-40.9,-1.1,0.));
#1941=CARTESIAN_POINT('',(-40.9,-1.1,0.));
#1942=CARTESIAN_POINT('',(-27.4,-1.1,72.));
#1943=CARTESIAN_POINT('',(-27.4,-1.1,0.));
#1944=CARTESIAN_POINT('Origin',(-40.9,-2.6,0.));
#1945=CARTESIAN_POINT('Origin',(-40.9,-2.6,72.));
#1946=CARTESIAN_POINT('Origin',(-40.9,-2.6,0.));
#1947=CARTESIAN_POINT('Origin',(-32.15,-5.85,0.));
#1948=CARTESIAN_POINT('',(-33.9,-5.85,0.));
#1949=CARTESIAN_POINT('Origin',(-32.15,-5.85,0.));
#1950=CARTESIAN_POINT('',(-33.9,-5.85,0.));
#1951=CARTESIAN_POINT('Origin',(-21.4,-1.5,0.));
#1952=CARTESIAN_POINT('',(-21.4,-1.5,0.));
#1953=CARTESIAN_POINT('',(-21.4,-1.1,0.));
#1954=CARTESIAN_POINT('',(-21.4,-1.5,72.));
#1955=CARTESIAN_POINT('',(-21.4,-1.1,72.));
#1956=CARTESIAN_POINT('',(-21.4,-1.5,0.));
#1957=CARTESIAN_POINT('Origin',(-18.4267862505363,-7.5,0.));
#1958=CARTESIAN_POINT('',(-18.4267862505363,-4.5,0.));
#1959=CARTESIAN_POINT('Origin',(-18.4267862505363,-7.5,0.));
#1960=CARTESIAN_POINT('',(-18.4267862505363,-4.5,72.));
#1961=CARTESIAN_POINT('',(-18.4267862505363,-4.5,0.));
#1962=CARTESIAN_POINT('Origin',(-18.4267862505363,-7.5,72.));
#1963=CARTESIAN_POINT('Origin',(-19.7,-6.,72.));
#1964=CARTESIAN_POINT('',(-21.4,-4.5,72.));
#1965=CARTESIAN_POINT('',(-20.55,-4.5,72.));
#1966=CARTESIAN_POINT('',(-21.4,-3.75,72.));
#1967=CARTESIAN_POINT('Origin',(-21.4,-1.5,0.));
#1968=CARTESIAN_POINT('',(-21.4,-4.5,75.));
#1969=CARTESIAN_POINT('',(-21.4,-4.5,0.));
#1970=CARTESIAN_POINT('',(-21.4,-1.5,75.));
#1971=CARTESIAN_POINT('',(-21.4,-1.5,75.));
#1972=CARTESIAN_POINT('',(-21.4,-1.5,0.));
#1973=CARTESIAN_POINT('Origin',(-16.4,-3.,75.));
#1974=CARTESIAN_POINT('',(-11.4,-4.5,75.));
#1975=CARTESIAN_POINT('',(-21.4,-4.5,75.));
#1976=CARTESIAN_POINT('',(-11.4,-1.5,75.));
#1977=CARTESIAN_POINT('',(-11.4,-4.5,75.));
#1978=CARTESIAN_POINT('',(-11.4,-1.5,75.));
#1979=CARTESIAN_POINT('Origin',(-16.4,-3.,-3.));
#1980=CARTESIAN_POINT('',(-21.4,-4.5,-3.));
#1981=CARTESIAN_POINT('',(-21.4,-1.5,-3.));
#1982=CARTESIAN_POINT('',(-21.4,-1.5,-3.));
#1983=CARTESIAN_POINT('',(-11.4,-1.5,-3.));
#1984=CARTESIAN_POINT('',(-11.4,-1.5,-3.));
#1985=CARTESIAN_POINT('',(-11.4,-4.5,-3.));
#1986=CARTESIAN_POINT('',(-11.4,-4.5,-3.));
#1987=CARTESIAN_POINT('',(-21.4,-4.5,-3.));
#1988=CARTESIAN_POINT('Origin',(-21.4,-4.5,0.));
#1989=CARTESIAN_POINT('',(-21.4,-4.5,0.));
#1990=CARTESIAN_POINT('',(-21.4,-5.25,0.));
#1991=CARTESIAN_POINT('',(-21.4,-1.5,0.));
#1992=CARTESIAN_POINT('',(-21.4,-4.5,0.));
#1993=CARTESIAN_POINT('Origin',(-19.7,-6.,0.));
#1994=CARTESIAN_POINT('',(-20.55,-4.5,0.));
#1995=CARTESIAN_POINT('Origin',(-1.75,-6.25,6.));
#1996=CARTESIAN_POINT('',(-3.5,-6.25,6.));
#1997=CARTESIAN_POINT('Origin',(-1.75,-6.25,6.));
#1998=CARTESIAN_POINT('Origin',(-11.4,-4.5,0.));
#1999=CARTESIAN_POINT('',(-11.4,-1.5,72.));
#2000=CARTESIAN_POINT('',(-11.4,-4.5,72.));
#2001=CARTESIAN_POINT('',(-11.4,-5.25,72.));
#2002=CARTESIAN_POINT('',(-11.4,-1.5,0.));
#2003=CARTESIAN_POINT('',(-11.4,-4.5,0.));
#2004=CARTESIAN_POINT('Origin',(-0.2,-1.5,0.));
#2005=CARTESIAN_POINT('',(-0.2,1.7,0.));
#2006=CARTESIAN_POINT('',(-0.2,-1.7,0.));
#2007=CARTESIAN_POINT('',(-0.2,-3.75,0.));
#2008=CARTESIAN_POINT('',(-0.2,1.7,72.));
#2009=CARTESIAN_POINT('',(-0.2,1.7,0.));
#2010=CARTESIAN_POINT('',(-0.2,-1.7,72.));
#2011=CARTESIAN_POINT('',(-0.2,-3.75,72.));
#2012=CARTESIAN_POINT('',(-0.2,-1.7,0.));
#2013=CARTESIAN_POINT('Origin',(0.,1.7,0.));
#2014=CARTESIAN_POINT('',(3.,1.7,0.));
#2015=CARTESIAN_POINT('',(-9.85,1.7,0.));
#2016=CARTESIAN_POINT('',(3.,1.7,72.));
#2017=CARTESIAN_POINT('',(3.,1.7,0.));
#2018=CARTESIAN_POINT('',(-9.85,1.7,72.));
#2019=CARTESIAN_POINT('Origin',(3.,1.5,0.));
#2020=CARTESIAN_POINT('',(3.,4.5,0.));
#2021=CARTESIAN_POINT('',(3.,1.5,0.));
#2022=CARTESIAN_POINT('',(3.,4.5,72.));
#2023=CARTESIAN_POINT('',(3.,4.5,0.));
#2024=CARTESIAN_POINT('',(3.,1.5,72.));
#2025=CARTESIAN_POINT('Origin',(3.,4.5,0.));
#2026=CARTESIAN_POINT('',(-1.5,4.5,72.));
#2027=CARTESIAN_POINT('',(-1.5,4.5,0.));
#2028=CARTESIAN_POINT('',(-1.5,4.5,0.));
#2029=CARTESIAN_POINT('',(3.,4.5,72.));
#2030=CARTESIAN_POINT('',(3.,4.5,0.));
#2031=CARTESIAN_POINT('Origin',(-1.5,3.,0.));
#2032=CARTESIAN_POINT('',(-3.,3.,72.));
#2033=CARTESIAN_POINT('Origin',(-1.5,3.,72.));
#2034=CARTESIAN_POINT('',(-3.,3.,0.));
#2035=CARTESIAN_POINT('Origin',(-1.5,3.,0.));
#2036=CARTESIAN_POINT('',(-3.,3.,0.));
#2037=CARTESIAN_POINT('Origin',(-3.,4.5,0.));
#2038=CARTESIAN_POINT('',(-3.,1.,0.));
#2039=CARTESIAN_POINT('',(-3.,-4.5,0.));
#2040=CARTESIAN_POINT('',(-3.,1.,72.));
#2041=CARTESIAN_POINT('',(-3.,1.,0.));
#2042=CARTESIAN_POINT('',(-3.,-4.5,72.));
#2043=CARTESIAN_POINT('Origin',(-5.5,1.,0.));
#2044=CARTESIAN_POINT('',(-5.5,-1.5,0.));
#2045=CARTESIAN_POINT('Origin',(-5.5,1.,0.));
#2046=CARTESIAN_POINT('',(-5.5,-1.5,72.));
#2047=CARTESIAN_POINT('',(-5.5,-1.5,0.));
#2048=CARTESIAN_POINT('Origin',(-5.5,1.,72.));
#2049=CARTESIAN_POINT('Origin',(-3.,-1.5,0.));
#2050=CARTESIAN_POINT('',(-11.4,-1.5,0.));
#2051=CARTESIAN_POINT('',(-21.4,-1.5,0.));
#2052=CARTESIAN_POINT('',(-11.4,-1.5,0.));
#2053=CARTESIAN_POINT('',(-21.4,-1.5,72.));
#2054=CARTESIAN_POINT('Origin',(-11.4,-1.5,0.));
#2055=CARTESIAN_POINT('',(-11.4,-4.5,0.));
#2056=CARTESIAN_POINT('',(-11.4,-3.75,0.));
#2057=CARTESIAN_POINT('',(-11.4,-4.5,0.));
#2058=CARTESIAN_POINT('Origin',(-21.4,-4.5,0.));
#2059=CARTESIAN_POINT('',(-8.49536878161602,-4.5,0.));
#2060=CARTESIAN_POINT('',(-21.4,-4.5,0.));
#2061=CARTESIAN_POINT('',(-8.49536878161602,-4.5,72.));
#2062=CARTESIAN_POINT('',(-8.49536878161602,-4.5,0.));
#2063=CARTESIAN_POINT('',(-21.4,-4.5,72.));
#2064=CARTESIAN_POINT('Origin',(-8.49536878161602,-6.5,0.));
#2065=CARTESIAN_POINT('',(-6.49674099447053,-6.42592592592593,0.));
#2066=CARTESIAN_POINT('Origin',(-8.49536878161602,-6.5,0.));
#2067=CARTESIAN_POINT('',(-6.49674099447053,-6.42592592592593,72.));
#2068=CARTESIAN_POINT('',(-6.49674099447053,-6.42592592592593,0.));
#2069=CARTESIAN_POINT('Origin',(-8.49536878161602,-6.5,72.));
#2070=CARTESIAN_POINT('Origin',(-1.75,-6.25,0.));
#2071=CARTESIAN_POINT('',(-1.92592592592593,-10.9967409944705,72.));
#2072=CARTESIAN_POINT('',(-1.92592592592593,-10.9967409944705,0.));
#2073=CARTESIAN_POINT('',(-1.92592592592593,-10.9967409944705,0.));
#2074=CARTESIAN_POINT('Origin',(-1.75,-6.25,72.));
#2075=CARTESIAN_POINT('Origin',(-1.75,-6.25,0.));
#2076=CARTESIAN_POINT('Origin',(-2.,-12.995368781616,0.));
#2077=CARTESIAN_POINT('',(0.,-12.995368781616,0.));
#2078=CARTESIAN_POINT('Origin',(-2.,-12.995368781616,0.));
#2079=CARTESIAN_POINT('',(0.,-12.995368781616,72.));
#2080=CARTESIAN_POINT('',(0.,-12.995368781616,0.));
#2081=CARTESIAN_POINT('Origin',(-2.,-12.995368781616,72.));
#2082=CARTESIAN_POINT('Origin',(-1.75,-6.25,0.));
#2083=CARTESIAN_POINT('',(-3.5,-6.25,0.));
#2084=CARTESIAN_POINT('Origin',(-1.75,-6.25,0.));
#2085=CARTESIAN_POINT('',(-3.5,-6.25,0.));
#2086=CARTESIAN_POINT('Origin',(0.,-10.6658804331639,0.));
#2087=CARTESIAN_POINT('',(0.,-15.,72.));
#2088=CARTESIAN_POINT('',(0.,-15.,0.));
#2089=CARTESIAN_POINT('',(0.,-15.,0.));
#2090=CARTESIAN_POINT('',(0.,-4.5,72.));
#2091=CARTESIAN_POINT('',(0.,-4.5,0.));
#2092=CARTESIAN_POINT('Origin',(-19.7,-6.,72.));
#2093=CARTESIAN_POINT('',(3.,-15.,72.));
#2094=CARTESIAN_POINT('Origin',(1.5,-15.,72.));
#2095=CARTESIAN_POINT('',(3.,-1.7,72.));
#2096=CARTESIAN_POINT('',(3.,-16.5,72.));
#2097=CARTESIAN_POINT('',(-8.35,-1.7,72.));
#2098=CARTESIAN_POINT('Origin',(3.,-1.7,0.));
#2099=CARTESIAN_POINT('',(3.,-1.7,0.));
#2100=CARTESIAN_POINT('',(-8.35,-1.7,0.));
#2101=CARTESIAN_POINT('',(3.,-1.7,0.));
#2102=CARTESIAN_POINT('Origin',(-19.7,-6.,0.));
#2103=CARTESIAN_POINT('',(3.,-15.,0.));
#2104=CARTESIAN_POINT('Origin',(1.5,-15.,0.));
#2105=CARTESIAN_POINT('',(3.,-16.5,0.));
#2106=CARTESIAN_POINT('Origin',(1.5,-15.,0.));
#2107=CARTESIAN_POINT('',(3.,-15.,0.));
#2108=CARTESIAN_POINT('Origin',(3.,-16.5,0.));
#2109=CARTESIAN_POINT('Origin',(-1.,-5.7,47.));
#2110=CARTESIAN_POINT('',(0.,0.,0.));
#2111=CARTESIAN_POINT('Origin',(0.,0.,0.));
#2112=CARTESIAN_POINT('',(-1.03775,-1.27087721581517E-16,6.));
#2113=CARTESIAN_POINT('Origin',(0.,0.,6.));
#2114=CARTESIAN_POINT('',(-1.03775,-1.27087721581517E-16,0.));
#2115=CARTESIAN_POINT('',(-1.03775,-1.27087721581517E-16,0.));
#2116=CARTESIAN_POINT('Origin',(0.,0.,0.));
#2117=CARTESIAN_POINT('Origin',(0.,0.,0.));
#2118=CARTESIAN_POINT('',(-1.75,-2.14313189850787E-16,6.));
#2119=CARTESIAN_POINT('Origin',(0.,0.,6.));
#2120=CARTESIAN_POINT('',(-1.75,-2.14313189850787E-16,0.));
#2121=CARTESIAN_POINT('',(-1.75,-2.14313189850787E-16,0.));
#2122=CARTESIAN_POINT('Origin',(0.,0.,0.));
#2123=CARTESIAN_POINT('Origin',(0.,0.,6.));
#2124=CARTESIAN_POINT('Origin',(0.,0.,0.));
#2125=CARTESIAN_POINT('',(0.,0.,0.));
#2126=CARTESIAN_POINT('Origin',(0.,0.,0.));
#2127=CARTESIAN_POINT('',(-1.03775,-1.27087721581517E-16,4.));
#2128=CARTESIAN_POINT('Origin',(0.,0.,4.));
#2129=CARTESIAN_POINT('',(-1.03775,-1.27087721581517E-16,0.));
#2130=CARTESIAN_POINT('',(-1.03775,-1.27087721581517E-16,0.));
#2131=CARTESIAN_POINT('Origin',(0.,0.,0.));
#2132=CARTESIAN_POINT('Origin',(0.,0.,0.));
#2133=CARTESIAN_POINT('',(-1.75,-2.14313189850787E-16,4.));
#2134=CARTESIAN_POINT('Origin',(0.,0.,4.));
#2135=CARTESIAN_POINT('',(-1.75,-2.14313189850787E-16,0.));
#2136=CARTESIAN_POINT('',(-1.75,-2.14313189850787E-16,0.));
#2137=CARTESIAN_POINT('Origin',(0.,0.,0.));
#2138=CARTESIAN_POINT('Origin',(0.,0.,4.));
#2139=CARTESIAN_POINT('Origin',(0.,0.,0.));
#2140=CARTESIAN_POINT('',(0.,0.,0.));
#2141=CARTESIAN_POINT('Origin',(0.,0.,-3.8619735));
#2142=CARTESIAN_POINT('',(1.215,1.48794586096403E-16,-3.77896457999021));
#2143=CARTESIAN_POINT('Origin',(3.59676036124761E-15,0.,-3.77896457999021));
#2144=CARTESIAN_POINT('',(0.9739475,-1.19274168841257E-16,-4.));
#2145=CARTESIAN_POINT('',(1.12447375,-1.37708317866272E-16,-3.8619735));
#2146=CARTESIAN_POINT('Origin',(0.,0.,-4.));
#2147=CARTESIAN_POINT('Origin',(-1.43711941930864E-14,0.,2.24999999999965));
#2148=CARTESIAN_POINT('',(2.24999999999996,-2.75545529808152E-16,2.24999999999965));
#2149=CARTESIAN_POINT('Origin',(-1.43711941930864E-14,0.,2.24999999999965));
#2150=CARTESIAN_POINT('',(1.99999999999996,-2.44929359829468E-16,2.49999999999965));
#2151=CARTESIAN_POINT('Origin',(1.99999999999996,-2.44929359829468E-16,
2.24999999999965));
#2152=CARTESIAN_POINT('Origin',(-1.51162622025241E-14,0.,2.49999999999965));
#2153=CARTESIAN_POINT('Origin',(-2.24999999999999,0.,2.49999999999964));
#2154=CARTESIAN_POINT('',(1.,-0.577350269189626,2.5));
#2155=CARTESIAN_POINT('',(1.38777878078145E-16,-1.15470053837925,2.5));
#2156=CARTESIAN_POINT('',(-0.0937499999999967,-1.20882712611578,2.49999999999965));
#2157=CARTESIAN_POINT('',(-1.,-0.577350269189625,2.5));
#2158=CARTESIAN_POINT('',(-1.09375,-0.5232236814531,2.49999999999964));
#2159=CARTESIAN_POINT('',(-1.,0.577350269189626,2.5));
#2160=CARTESIAN_POINT('',(-1.,-0.288675134594813,2.49999999999964));
#2161=CARTESIAN_POINT('',(1.73472347597681E-17,1.15470053837925,2.5));
#2162=CARTESIAN_POINT('',(-1.59375,0.234548546858288,2.49999999999964));
#2163=CARTESIAN_POINT('',(1.,0.577350269189626,2.5));
#2164=CARTESIAN_POINT('',(-0.593749999999997,1.49750226071059,2.49999999999965));
#2165=CARTESIAN_POINT('',(1.,0.288675134594813,2.49999999999965));
#2166=CARTESIAN_POINT('Origin',(-1.13909221553355E-14,0.,1.24999999999965));
#2167=CARTESIAN_POINT('',(2.24999999999997,-2.75545529808152E-16,-3.45695694292658E-13));
#2168=CARTESIAN_POINT('Origin',(-7.66558210814699E-15,0.,-3.5259644045509E-13));
#2169=CARTESIAN_POINT('',(2.24999999999997,-2.75545529808152E-16,1.24999999999965));
#2170=CARTESIAN_POINT('Origin',(1.38777878078145E-16,-1.15470053837925,
1.25));
#2171=CARTESIAN_POINT('',(1.38777878078145E-16,-1.15470053837925,1.25));
#2172=CARTESIAN_POINT('',(-4.16515129141798E-16,-5.55111512312578E-16,1.16251133647408));
#2173=CARTESIAN_POINT('',(-6.93889390390723E-16,-0.867673141868932,1.22825267895756));
#2174=CARTESIAN_POINT('',(1.,-0.577350269189626,1.25));
#2175=CARTESIAN_POINT('',(1.83851003704764E-16,-1.15470053837925,1.25));
#2176=CARTESIAN_POINT('',(0.751426983039954,-0.433836570934466,1.22825267895756));
#2177=CARTESIAN_POINT('Origin',(1.,-0.577350269189626,1.25));
#2178=CARTESIAN_POINT('',(1.,0.577350269189626,1.25));
#2179=CARTESIAN_POINT('',(1.,-0.577350269189626,1.25));
#2180=CARTESIAN_POINT('',(0.751426983039954,0.433836570934466,1.22825267895756));
#2181=CARTESIAN_POINT('Origin',(1.,0.577350269189626,1.25));
#2182=CARTESIAN_POINT('',(0.,1.15470053837925,1.25));
#2183=CARTESIAN_POINT('',(1.,0.577350269189626,1.25));
#2184=CARTESIAN_POINT('',(2.08166817117217E-16,0.867673141868932,1.22825267895756));
#2185=CARTESIAN_POINT('Origin',(0.,1.15470053837925,1.25));
#2186=CARTESIAN_POINT('',(-1.,0.577350269189626,1.25));
#2187=CARTESIAN_POINT('',(1.73472347597681E-17,1.15470053837925,1.25));
#2188=CARTESIAN_POINT('',(-0.751426983039954,0.433836570934466,1.22825267895756));
#2189=CARTESIAN_POINT('Origin',(-1.,0.577350269189626,1.25));
#2190=CARTESIAN_POINT('',(-1.,-0.577350269189625,1.25));
#2191=CARTESIAN_POINT('',(-1.,0.577350269189626,1.25));
#2192=CARTESIAN_POINT('',(-0.751426983039955,-0.433836570934465,1.22825267895756));
#2193=CARTESIAN_POINT('Origin',(-1.,-0.577350269189625,1.25));
#2194=CARTESIAN_POINT('',(-1.,-0.577350269189625,1.25));
#2195=CARTESIAN_POINT('Origin',(1.,-0.577350269189626,2.5));
#2196=CARTESIAN_POINT('',(1.,-0.577350269189626,2.5));
#2197=CARTESIAN_POINT('',(1.38777878078145E-16,-1.15470053837925,2.5));
#2198=CARTESIAN_POINT('Origin',(1.,0.577350269189626,2.5));
#2199=CARTESIAN_POINT('',(1.,0.577350269189626,2.5));
#2200=CARTESIAN_POINT('Origin',(0.,1.15470053837925,2.5));
#2201=CARTESIAN_POINT('',(1.73472347597681E-17,1.15470053837925,2.5));
#2202=CARTESIAN_POINT('Origin',(-1.,0.577350269189626,2.5));
#2203=CARTESIAN_POINT('',(-1.,0.577350269189626,2.5));
#2204=CARTESIAN_POINT('Origin',(-1.,-0.577350269189625,2.5));
#2205=CARTESIAN_POINT('',(-1.,-0.577350269189625,2.5));
#2206=CARTESIAN_POINT('Origin',(1.38777878078145E-16,-1.15470053837925,
2.5));
#2207=CARTESIAN_POINT('Origin',(-1.7050380326461E-15,0.,-2.00000000000009));
#2208=CARTESIAN_POINT('',(1.21499999999999,1.48794586096403E-16,-1.85843843029373E-13));
#2209=CARTESIAN_POINT('',(1.215,-1.48794586096403E-16,-2.00000000000009));
#2210=CARTESIAN_POINT('Origin',(-7.66558210814747E-15,0.,-1.89848137210902E-13));
#2211=CARTESIAN_POINT('Origin',(4.30211422042248E-15,0.,-4.));
#2212=CARTESIAN_POINT('Origin',(-1.24999999999999,0.,-1.93470335983093E-13));
#2213=CARTESIAN_POINT('',(-32.15,-5.85,66.));
#2214=CARTESIAN_POINT('',(0.,0.,0.));
#2215=CARTESIAN_POINT('',(-1.75,-6.25,6.));
#2216=CARTESIAN_POINT('',(-32.15,-5.85,6.));
#2217=CARTESIAN_POINT('',(3.,-5.7,47.));
#2218=CARTESIAN_POINT('',(3.,-5.7,47.));
#2219=UNCERTAINTY_MEASURE_WITH_UNIT(LENGTH_MEASURE(0.01),#2231,
'DISTANCE_ACCURACY_VALUE',
'Maximum model space distance between geometric entities at asserted c
onnectivities');
#2220=UNCERTAINTY_MEASURE_WITH_UNIT(LENGTH_MEASURE(0.01),#2231,
'DISTANCE_ACCURACY_VALUE',
'Maximum model space distance between geometric entities at asserted c
onnectivities');
#2221=UNCERTAINTY_MEASURE_WITH_UNIT(LENGTH_MEASURE(0.01),#2231,
'DISTANCE_ACCURACY_VALUE',
'Maximum model space distance between geometric entities at asserted c
onnectivities');
#2222=UNCERTAINTY_MEASURE_WITH_UNIT(LENGTH_MEASURE(0.01),#2231,
'DISTANCE_ACCURACY_VALUE',
'Maximum model space distance between geometric entities at asserted c
onnectivities');
#2223=UNCERTAINTY_MEASURE_WITH_UNIT(LENGTH_MEASURE(0.01),#2231,
'DISTANCE_ACCURACY_VALUE',
'Maximum model space distance between geometric entities at asserted c
onnectivities');
#2224=UNCERTAINTY_MEASURE_WITH_UNIT(LENGTH_MEASURE(0.01),#2231,
'DISTANCE_ACCURACY_VALUE',
'Maximum model space distance between geometric entities at asserted c
onnectivities');
#2225=(
GEOMETRIC_REPRESENTATION_CONTEXT(3)
GLOBAL_UNCERTAINTY_ASSIGNED_CONTEXT((#2219))
GLOBAL_UNIT_ASSIGNED_CONTEXT((#2231,#2233,#2234))
REPRESENTATION_CONTEXT('','3D')
);
#2226=(
GEOMETRIC_REPRESENTATION_CONTEXT(3)
GLOBAL_UNCERTAINTY_ASSIGNED_CONTEXT((#2220))
GLOBAL_UNIT_ASSIGNED_CONTEXT((#2231,#2233,#2234))
REPRESENTATION_CONTEXT('','3D')
);
#2227=(
GEOMETRIC_REPRESENTATION_CONTEXT(3)
GLOBAL_UNCERTAINTY_ASSIGNED_CONTEXT((#2221))
GLOBAL_UNIT_ASSIGNED_CONTEXT((#2231,#2233,#2234))
REPRESENTATION_CONTEXT('','3D')
);
#2228=(
GEOMETRIC_REPRESENTATION_CONTEXT(3)
GLOBAL_UNCERTAINTY_ASSIGNED_CONTEXT((#2222))
GLOBAL_UNIT_ASSIGNED_CONTEXT((#2231,#2233,#2234))
REPRESENTATION_CONTEXT('','3D')
);
#2229=(
GEOMETRIC_REPRESENTATION_CONTEXT(3)
GLOBAL_UNCERTAINTY_ASSIGNED_CONTEXT((#2223))
GLOBAL_UNIT_ASSIGNED_CONTEXT((#2231,#2233,#2234))
REPRESENTATION_CONTEXT('','3D')
);
#2230=(
GEOMETRIC_REPRESENTATION_CONTEXT(3)
GLOBAL_UNCERTAINTY_ASSIGNED_CONTEXT((#2224))
GLOBAL_UNIT_ASSIGNED_CONTEXT((#2231,#2233,#2234))
REPRESENTATION_CONTEXT('','3D')
);
#2231=(
LENGTH_UNIT()
NAMED_UNIT(*)
SI_UNIT(.MILLI.,.METRE.)
);
#2232=(
LENGTH_UNIT()
NAMED_UNIT(*)
SI_UNIT($,.METRE.)
);
#2233=(
NAMED_UNIT(*)
PLANE_ANGLE_UNIT()
SI_UNIT($,.RADIAN.)
);
#2234=(
NAMED_UNIT(*)
SI_UNIT($,.STERADIAN.)
SOLID_ANGLE_UNIT()
);
#2235=SHAPE_DEFINITION_REPRESENTATION(#2240,#2251);
#2236=SHAPE_DEFINITION_REPRESENTATION(#2241,#2252);
#2237=SHAPE_DEFINITION_REPRESENTATION(#2242,#2253);
#2238=SHAPE_DEFINITION_REPRESENTATION(#2243,#2254);
#2239=SHAPE_DEFINITION_REPRESENTATION(#2244,#2255);
#2240=PRODUCT_DEFINITION_SHAPE('',$,#2257);
#2241=PRODUCT_DEFINITION_SHAPE('',$,#2258);
#2242=PRODUCT_DEFINITION_SHAPE('',$,#2259);
#2243=PRODUCT_DEFINITION_SHAPE('',$,#2260);
#2244=PRODUCT_DEFINITION_SHAPE('',$,#2261);
#2245=PRODUCT_DEFINITION_SHAPE($,$,#29);
#2246=PRODUCT_DEFINITION_SHAPE($,$,#30);
#2247=PRODUCT_DEFINITION_SHAPE($,$,#31);
#2248=PRODUCT_DEFINITION_SHAPE($,$,#32);
#2249=PRODUCT_DEFINITION_SHAPE($,$,#33);
#2250=PRODUCT_DEFINITION_SHAPE($,$,#34);
#2251=SHAPE_REPRESENTATION('',(#1332,#1459,#1460,#1461,#1462,#1463,#1464),
#2225);
#2252=SHAPE_REPRESENTATION('',(#1333),#2226);
#2253=SHAPE_REPRESENTATION('',(#1414),#2227);
#2254=SHAPE_REPRESENTATION('',(#1423),#2228);
#2255=SHAPE_REPRESENTATION('',(#1432),#2229);
#2256=PRODUCT_DEFINITION_CONTEXT('part definition',#2273,'design');
#2257=PRODUCT_DEFINITION('SlideSupportAssembly',
'SlideSupportAssembly v5',#2262,#2256);
#2258=PRODUCT_DEFINITION('SlideSupports','SlideSupports v3',#2263,#2256);
#2259=PRODUCT_DEFINITION('HeatSetInsert-M2.5x6',
'HeatSetInsert-M2.5x6 v1',#2264,#2256);
#2260=PRODUCT_DEFINITION('HeatSetInsert-M2.5x4',
'HeatSetInsert-M2.5x4 v1',#2265,#2256);
#2261=PRODUCT_DEFINITION(
'BSHCS ASME B18.3.1M - M2.5x0.45 x 4 Steel Grade 2 Plain',
'Broached Hexagon Socket Head Cap Screw ASME B18.3.1M - M2.5x0.45 x 4 
Steel Grade 2 Plain v1',#2266,#2256);
#2262=PRODUCT_DEFINITION_FORMATION('',$,#2275);
#2263=PRODUCT_DEFINITION_FORMATION('',$,#2276);
#2264=PRODUCT_DEFINITION_FORMATION('',$,#2277);
#2265=PRODUCT_DEFINITION_FORMATION('',$,#2278);
#2266=PRODUCT_DEFINITION_FORMATION('',$,#2279);
#2267=PRODUCT_RELATED_PRODUCT_CATEGORY('SlideSupportAssembly v5',
'SlideSupportAssembly v5',(#2275));
#2268=PRODUCT_RELATED_PRODUCT_CATEGORY('SlideSupports v3',
'SlideSupports v3',(#2276));
#2269=PRODUCT_RELATED_PRODUCT_CATEGORY('HeatSetInsert-M2.5x6 v1',
'HeatSetInsert-M2.5x6 v1',(#2277));
#2270=PRODUCT_RELATED_PRODUCT_CATEGORY('HeatSetInsert-M2.5x4 v1',
'HeatSetInsert-M2.5x4 v1',(#2278));
#2271=PRODUCT_RELATED_PRODUCT_CATEGORY(
'Broached Hexagon Socket Head Cap Screw ASME B18.3.1M - M2.5x0.45 x 4 
Steel Grade 2 Plain v1',
'Broached Hexagon Socket Head Cap Screw ASME B18.3.1M - M2.5x0.45 x 4 
Steel Grade 2 Plain v1',(#2279));
#2272=APPLICATION_PROTOCOL_DEFINITION('international standard',
'automotive_design',2009,#2273);
#2273=APPLICATION_CONTEXT(
'Core Data for Automotive Mechanical Design Process');
#2274=PRODUCT_CONTEXT('part definition',#2273,'mechanical');
#2275=PRODUCT('SlideSupportAssembly','SlideSupportAssembly v5',$,(#2274));
#2276=PRODUCT('SlideSupports','SlideSupports v3',$,(#2274));
#2277=PRODUCT('HeatSetInsert-M2.5x6','HeatSetInsert-M2.5x6 v1',$,(#2274));
#2278=PRODUCT('HeatSetInsert-M2.5x4','HeatSetInsert-M2.5x4 v1',$,(#2274));
#2279=PRODUCT('BSHCS ASME B18.3.1M - M2.5x0.45 x 4 Steel Grade 2 Plain',

'Broached Hexagon Socket Head Cap Screw ASME B18.3.1M - M2.5x0.45 x 4 
Steel Grade 2 Plain v1',
'Broached Hexagon Socket Head Cap Screw ASME B18.3.1M - M2.5x0.45 x 4',
(#2274));
#2280=PRESENTATION_STYLE_ASSIGNMENT((#2283));
#2281=PRESENTATION_STYLE_ASSIGNMENT((#2284));
#2282=PRESENTATION_STYLE_ASSIGNMENT((#2285));
#2283=SURFACE_STYLE_USAGE(.BOTH.,#2286);
#2284=SURFACE_STYLE_USAGE(.BOTH.,#2287);
#2285=SURFACE_STYLE_USAGE(.BOTH.,#2288);
#2286=SURFACE_SIDE_STYLE('',(#2289));
#2287=SURFACE_SIDE_STYLE('',(#2290));
#2288=SURFACE_SIDE_STYLE('',(#2291));
#2289=SURFACE_STYLE_FILL_AREA(#2292);
#2290=SURFACE_STYLE_FILL_AREA(#2293);
#2291=SURFACE_STYLE_FILL_AREA(#2294);
#2292=FILL_AREA_STYLE('Steel - Satin',(#2295));
#2293=FILL_AREA_STYLE('Plastic - Matte (White)',(#2296));
#2294=FILL_AREA_STYLE('Brass - Matte',(#2297));
#2295=FILL_AREA_STYLE_COLOUR('Steel - Satin',#2298);
#2296=FILL_AREA_STYLE_COLOUR('Plastic - Matte (White)',#2299);
#2297=FILL_AREA_STYLE_COLOUR('Brass - Matte',#2300);
#2298=COLOUR_RGB('Steel - Satin',0.627450980392157,0.627450980392157,0.627450980392157);
#2299=COLOUR_RGB('Plastic - Matte (White)',0.964705882352941,0.964705882352941,
0.952941176470588);
#2300=COLOUR_RGB('Brass - Matte',0.952941176470588,0.796078431372549,0.486274509803922);
ENDSEC;
END-ISO-10303-21;
