ISO-10303-21;
HEADER;
/* Generated by software containing ST-Developer
 * from STEP Tools, Inc. (www.steptools.com) 
 */

FILE_DESCRIPTION(
/* description */ (''),
/* implementation_level */ '2;1');

FILE_NAME(
/* name */ 'CenterRingV0_v10.step',
/* time_stamp */ '2026-08-21T09:20:22-04:00',
/* author */ (''),
/* organization */ (''),
/* preprocessor_version */ 'ST-DEVELOPER v20.1',
/* originating_system */ 'Autodesk Translation Framework v15.8.0.0',
/* authorisation */ '');

FILE_SCHEMA (('AUTOMOTIVE_DESIGN { 1 0 10303 214 3 1 1 }'));
ENDSEC;

DATA;
#10=MECHANICAL_DESIGN_GEOMETRIC_PRESENTATION_REPRESENTATION('',(#13),#2110);
#11=SHAPE_REPRESENTATION_RELATIONSHIP('SRR','None',#2117,#12);
#12=ADVANCED_BREP_SHAPE_REPRESENTATION('',(#14),#2109);
#13=STYLED_ITEM('',(#2126),#14);
#14=MANIFOLD_SOLID_BREP('Body5',#1254);
#15=FACE_BOUND('',#144,.T.);
#16=FACE_BOUND('',#147,.T.);
#17=FACE_BOUND('',#150,.T.);
#18=FACE_BOUND('',#153,.T.);
#19=FACE_BOUND('',#156,.T.);
#20=FACE_BOUND('',#162,.T.);
#21=FACE_BOUND('',#165,.T.);
#22=FACE_BOUND('',#167,.T.);
#23=FACE_BOUND('',#171,.T.);
#24=FACE_BOUND('',#172,.T.);
#25=FACE_BOUND('',#173,.T.);
#26=FACE_BOUND('',#175,.T.);
#27=FACE_BOUND('',#176,.T.);
#28=FACE_BOUND('',#177,.T.);
#29=FACE_BOUND('',#183,.T.);
#30=FACE_BOUND('',#186,.T.);
#31=FACE_BOUND('',#193,.T.);
#32=FACE_BOUND('',#195,.T.);
#33=FACE_BOUND('',#197,.T.);
#34=FACE_BOUND('',#203,.T.);
#35=FACE_BOUND('',#205,.T.);
#36=FACE_BOUND('',#207,.T.);
#37=FACE_BOUND('',#209,.T.);
#38=FACE_BOUND('',#215,.T.);
#39=FACE_BOUND('',#217,.T.);
#40=FACE_BOUND('',#219,.T.);
#41=PLANE('',#1271);
#42=PLANE('',#1275);
#43=PLANE('',#1276);
#44=PLANE('',#1280);
#45=PLANE('',#1290);
#46=PLANE('',#1296);
#47=PLANE('',#1302);
#48=PLANE('',#1308);
#49=PLANE('',#1314);
#50=PLANE('',#1327);
#51=PLANE('',#1328);
#52=PLANE('',#1329);
#53=PLANE('',#1330);
#54=PLANE('',#1331);
#55=PLANE('',#1332);
#56=PLANE('',#1333);
#57=PLANE('',#1334);
#58=PLANE('',#1343);
#59=PLANE('',#1344);
#60=PLANE('',#1345);
#61=PLANE('',#1346);
#62=PLANE('',#1357);
#63=PLANE('',#1358);
#64=PLANE('',#1359);
#65=PLANE('',#1372);
#66=PLANE('',#1373);
#67=PLANE('',#1374);
#68=PLANE('',#1375);
#69=PLANE('',#1386);
#70=PLANE('',#1387);
#71=PLANE('',#1388);
#72=FACE_OUTER_BOUND('',#133,.T.);
#73=FACE_OUTER_BOUND('',#134,.T.);
#74=FACE_OUTER_BOUND('',#135,.T.);
#75=FACE_OUTER_BOUND('',#136,.T.);
#76=FACE_OUTER_BOUND('',#137,.T.);
#77=FACE_OUTER_BOUND('',#138,.T.);
#78=FACE_OUTER_BOUND('',#139,.T.);
#79=FACE_OUTER_BOUND('',#140,.T.);
#80=FACE_OUTER_BOUND('',#141,.T.);
#81=FACE_OUTER_BOUND('',#142,.T.);
#82=FACE_OUTER_BOUND('',#143,.T.);
#83=FACE_OUTER_BOUND('',#145,.T.);
#84=FACE_OUTER_BOUND('',#146,.T.);
#85=FACE_OUTER_BOUND('',#148,.T.);
#86=FACE_OUTER_BOUND('',#149,.T.);
#87=FACE_OUTER_BOUND('',#151,.T.);
#88=FACE_OUTER_BOUND('',#152,.T.);
#89=FACE_OUTER_BOUND('',#154,.T.);
#90=FACE_OUTER_BOUND('',#155,.T.);
#91=FACE_OUTER_BOUND('',#157,.T.);
#92=FACE_OUTER_BOUND('',#158,.T.);
#93=FACE_OUTER_BOUND('',#159,.T.);
#94=FACE_OUTER_BOUND('',#160,.T.);
#95=FACE_OUTER_BOUND('',#161,.T.);
#96=FACE_OUTER_BOUND('',#163,.T.);
#97=FACE_OUTER_BOUND('',#164,.T.);
#98=FACE_OUTER_BOUND('',#166,.T.);
#99=FACE_OUTER_BOUND('',#168,.T.);
#100=FACE_OUTER_BOUND('',#169,.T.);
#101=FACE_OUTER_BOUND('',#170,.T.);
#102=FACE_OUTER_BOUND('',#174,.T.);
#103=FACE_OUTER_BOUND('',#178,.T.);
#104=FACE_OUTER_BOUND('',#179,.T.);
#105=FACE_OUTER_BOUND('',#180,.T.);
#106=FACE_OUTER_BOUND('',#181,.T.);
#107=FACE_OUTER_BOUND('',#182,.T.);
#108=FACE_OUTER_BOUND('',#184,.T.);
#109=FACE_OUTER_BOUND('',#185,.T.);
#110=FACE_OUTER_BOUND('',#187,.T.);
#111=FACE_OUTER_BOUND('',#188,.T.);
#112=FACE_OUTER_BOUND('',#189,.T.);
#113=FACE_OUTER_BOUND('',#190,.T.);
#114=FACE_OUTER_BOUND('',#191,.T.);
#115=FACE_OUTER_BOUND('',#192,.T.);
#116=FACE_OUTER_BOUND('',#194,.T.);
#117=FACE_OUTER_BOUND('',#196,.T.);
#118=FACE_OUTER_BOUND('',#198,.T.);
#119=FACE_OUTER_BOUND('',#199,.T.);
#120=FACE_OUTER_BOUND('',#200,.T.);
#121=FACE_OUTER_BOUND('',#201,.T.);
#122=FACE_OUTER_BOUND('',#202,.T.);
#123=FACE_OUTER_BOUND('',#204,.T.);
#124=FACE_OUTER_BOUND('',#206,.T.);
#125=FACE_OUTER_BOUND('',#208,.T.);
#126=FACE_OUTER_BOUND('',#210,.T.);
#127=FACE_OUTER_BOUND('',#211,.T.);
#128=FACE_OUTER_BOUND('',#212,.T.);
#129=FACE_OUTER_BOUND('',#213,.T.);
#130=FACE_OUTER_BOUND('',#214,.T.);
#131=FACE_OUTER_BOUND('',#216,.T.);
#132=FACE_OUTER_BOUND('',#218,.T.);
#133=EDGE_LOOP('',(#809,#810,#811,#812));
#134=EDGE_LOOP('',(#813,#814,#815,#816));
#135=EDGE_LOOP('',(#817,#818,#819,#820));
#136=EDGE_LOOP('',(#821,#822,#823,#824));
#137=EDGE_LOOP('',(#825,#826,#827,#828));
#138=EDGE_LOOP('',(#829,#830,#831,#832));
#139=EDGE_LOOP('',(#833,#834,#835,#836));
#140=EDGE_LOOP('',(#837,#838,#839,#840));
#141=EDGE_LOOP('',(#841,#842,#843,#844));
#142=EDGE_LOOP('',(#845,#846,#847,#848));
#143=EDGE_LOOP('',(#849,#850,#851,#852));
#144=EDGE_LOOP('',(#853));
#145=EDGE_LOOP('',(#854,#855,#856,#857));
#146=EDGE_LOOP('',(#858,#859,#860,#861));
#147=EDGE_LOOP('',(#862));
#148=EDGE_LOOP('',(#863,#864,#865,#866));
#149=EDGE_LOOP('',(#867,#868,#869,#870));
#150=EDGE_LOOP('',(#871));
#151=EDGE_LOOP('',(#872,#873,#874,#875));
#152=EDGE_LOOP('',(#876,#877,#878,#879));
#153=EDGE_LOOP('',(#880));
#154=EDGE_LOOP('',(#881,#882,#883,#884));
#155=EDGE_LOOP('',(#885,#886,#887,#888));
#156=EDGE_LOOP('',(#889));
#157=EDGE_LOOP('',(#890,#891,#892,#893));
#158=EDGE_LOOP('',(#894,#895,#896,#897));
#159=EDGE_LOOP('',(#898,#899,#900,#901));
#160=EDGE_LOOP('',(#902,#903,#904,#905));
#161=EDGE_LOOP('',(#906,#907,#908,#909));
#162=EDGE_LOOP('',(#910));
#163=EDGE_LOOP('',(#911,#912,#913,#914));
#164=EDGE_LOOP('',(#915,#916,#917,#918));
#165=EDGE_LOOP('',(#919));
#166=EDGE_LOOP('',(#920,#921,#922,#923));
#167=EDGE_LOOP('',(#924));
#168=EDGE_LOOP('',(#925,#926,#927,#928));
#169=EDGE_LOOP('',(#929,#930,#931,#932));
#170=EDGE_LOOP('',(#933,#934,#935,#936,#937,#938,#939,#940,#941,#942,#943,
#944,#945,#946,#947,#948,#949,#950,#951,#952,#953,#954,#955,#956,#957,#958,
#959,#960,#961,#962,#963,#964,#965,#966,#967,#968,#969,#970,#971,#972));
#171=EDGE_LOOP('',(#973));
#172=EDGE_LOOP('',(#974,#975,#976,#977));
#173=EDGE_LOOP('',(#978,#979,#980,#981));
#174=EDGE_LOOP('',(#982,#983,#984,#985,#986,#987,#988,#989,#990,#991,#992,
#993,#994,#995,#996,#997,#998,#999,#1000,#1001,#1002,#1003,#1004,#1005,
#1006,#1007,#1008,#1009,#1010,#1011,#1012,#1013,#1014,#1015,#1016,#1017,
#1018,#1019,#1020,#1021));
#175=EDGE_LOOP('',(#1022));
#176=EDGE_LOOP('',(#1023,#1024,#1025,#1026));
#177=EDGE_LOOP('',(#1027,#1028,#1029,#1030));
#178=EDGE_LOOP('',(#1031,#1032,#1033,#1034));
#179=EDGE_LOOP('',(#1035,#1036,#1037,#1038));
#180=EDGE_LOOP('',(#1039,#1040,#1041,#1042));
#181=EDGE_LOOP('',(#1043,#1044,#1045,#1046));
#182=EDGE_LOOP('',(#1047,#1048,#1049,#1050));
#183=EDGE_LOOP('',(#1051));
#184=EDGE_LOOP('',(#1052,#1053,#1054,#1055));
#185=EDGE_LOOP('',(#1056,#1057,#1058,#1059));
#186=EDGE_LOOP('',(#1060));
#187=EDGE_LOOP('',(#1061,#1062,#1063,#1064));
#188=EDGE_LOOP('',(#1065,#1066,#1067,#1068));
#189=EDGE_LOOP('',(#1069,#1070,#1071,#1072));
#190=EDGE_LOOP('',(#1073,#1074,#1075,#1076));
#191=EDGE_LOOP('',(#1077,#1078,#1079,#1080));
#192=EDGE_LOOP('',(#1081,#1082,#1083,#1084));
#193=EDGE_LOOP('',(#1085));
#194=EDGE_LOOP('',(#1086,#1087,#1088,#1089));
#195=EDGE_LOOP('',(#1090));
#196=EDGE_LOOP('',(#1091,#1092,#1093,#1094));
#197=EDGE_LOOP('',(#1095));
#198=EDGE_LOOP('',(#1096,#1097,#1098,#1099));
#199=EDGE_LOOP('',(#1100,#1101,#1102,#1103));
#200=EDGE_LOOP('',(#1104,#1105,#1106,#1107));
#201=EDGE_LOOP('',(#1108,#1109,#1110,#1111));
#202=EDGE_LOOP('',(#1112,#1113,#1114,#1115));
#203=EDGE_LOOP('',(#1116));
#204=EDGE_LOOP('',(#1117,#1118,#1119,#1120));
#205=EDGE_LOOP('',(#1121));
#206=EDGE_LOOP('',(#1122,#1123,#1124,#1125));
#207=EDGE_LOOP('',(#1126));
#208=EDGE_LOOP('',(#1127,#1128,#1129,#1130));
#209=EDGE_LOOP('',(#1131));
#210=EDGE_LOOP('',(#1132,#1133,#1134,#1135));
#211=EDGE_LOOP('',(#1136,#1137,#1138,#1139));
#212=EDGE_LOOP('',(#1140,#1141,#1142,#1143));
#213=EDGE_LOOP('',(#1144,#1145,#1146,#1147));
#214=EDGE_LOOP('',(#1148,#1149,#1150,#1151));
#215=EDGE_LOOP('',(#1152));
#216=EDGE_LOOP('',(#1153,#1154,#1155,#1156));
#217=EDGE_LOOP('',(#1157));
#218=EDGE_LOOP('',(#1158,#1159,#1160,#1161));
#219=EDGE_LOOP('',(#1162));
#220=LINE('',#1755,#337);
#221=LINE('',#1760,#338);
#222=LINE('',#1762,#339);
#223=LINE('',#1764,#340);
#224=LINE('',#1765,#341);
#225=LINE('',#1771,#342);
#226=LINE('',#1774,#343);
#227=LINE('',#1776,#344);
#228=LINE('',#1777,#345);
#229=LINE('',#1781,#346);
#230=LINE('',#1783,#347);
#231=LINE('',#1785,#348);
#232=LINE('',#1786,#349);
#233=LINE('',#1792,#350);
#234=LINE('',#1795,#351);
#235=LINE('',#1797,#352);
#236=LINE('',#1798,#353);
#237=LINE('',#1810,#354);
#238=LINE('',#1813,#355);
#239=LINE('',#1816,#356);
#240=LINE('',#1819,#357);
#241=LINE('',#1827,#358);
#242=LINE('',#1830,#359);
#243=LINE('',#1833,#360);
#244=LINE('',#1836,#361);
#245=LINE('',#1844,#362);
#246=LINE('',#1847,#363);
#247=LINE('',#1850,#364);
#248=LINE('',#1853,#365);
#249=LINE('',#1861,#366);
#250=LINE('',#1864,#367);
#251=LINE('',#1867,#368);
#252=LINE('',#1870,#369);
#253=LINE('',#1878,#370);
#254=LINE('',#1881,#371);
#255=LINE('',#1884,#372);
#256=LINE('',#1887,#373);
#257=LINE('',#1895,#374);
#258=LINE('',#1898,#375);
#259=LINE('',#1903,#376);
#260=LINE('',#1904,#377);
#261=LINE('',#1909,#378);
#262=LINE('',#1913,#379);
#263=LINE('',#1917,#380);
#264=LINE('',#1919,#381);
#265=LINE('',#1920,#382);
#266=LINE('',#1923,#383);
#267=LINE('',#1925,#384);
#268=LINE('',#1926,#385);
#269=LINE('',#1928,#386);
#270=LINE('',#1929,#387);
#271=LINE('',#1931,#388);
#272=LINE('',#1932,#389);
#273=LINE('',#1936,#390);
#274=LINE('',#1938,#391);
#275=LINE('',#1940,#392);
#276=LINE('',#1941,#393);
#277=LINE('',#1945,#394);
#278=LINE('',#1947,#395);
#279=LINE('',#1949,#396);
#280=LINE('',#1950,#397);
#281=LINE('',#1953,#398);
#282=LINE('',#1955,#399);
#283=LINE('',#1957,#400);
#284=LINE('',#1959,#401);
#285=LINE('',#1960,#402);
#286=LINE('',#1962,#403);
#287=LINE('',#1964,#404);
#288=LINE('',#1965,#405);
#289=LINE('',#1967,#406);
#290=LINE('',#1968,#407);
#291=LINE('',#1970,#408);
#292=LINE('',#1972,#409);
#293=LINE('',#1973,#410);
#294=LINE('',#1975,#411);
#295=LINE('',#1976,#412);
#296=LINE('',#1978,#413);
#297=LINE('',#1980,#414);
#298=LINE('',#1982,#415);
#299=LINE('',#1984,#416);
#300=LINE('',#1986,#417);
#301=LINE('',#1988,#418);
#302=LINE('',#1989,#419);
#303=LINE('',#1992,#420);
#304=LINE('',#1993,#421);
#305=LINE('',#1995,#422);
#306=LINE('',#1997,#423);
#307=LINE('',#1998,#424);
#308=LINE('',#2000,#425);
#309=LINE('',#2002,#426);
#310=LINE('',#2004,#427);
#311=LINE('',#2006,#428);
#312=LINE('',#2007,#429);
#313=LINE('',#2009,#430);
#314=LINE('',#2011,#431);
#315=LINE('',#2013,#432);
#316=LINE('',#2015,#433);
#317=LINE('',#2017,#434);
#318=LINE('',#2019,#435);
#319=LINE('',#2020,#436);
#320=LINE('',#2022,#437);
#321=LINE('',#2023,#438);
#322=LINE('',#2025,#439);
#323=LINE('',#2027,#440);
#324=LINE('',#2028,#441);
#325=LINE('',#2036,#442);
#326=LINE('',#2039,#443);
#327=LINE('',#2042,#444);
#328=LINE('',#2044,#445);
#329=LINE('',#2047,#446);
#330=LINE('',#2048,#447);
#331=LINE('',#2057,#448);
#332=LINE('',#2062,#449);
#333=LINE('',#2077,#450);
#334=LINE('',#2083,#451);
#335=LINE('',#2097,#452);
#336=LINE('',#2102,#453);
#337=VECTOR('',#1395,1.);
#338=VECTOR('',#1400,10.);
#339=VECTOR('',#1401,10.);
#340=VECTOR('',#1402,10.);
#341=VECTOR('',#1403,10.);
#342=VECTOR('',#1410,10.);
#343=VECTOR('',#1413,10.);
#344=VECTOR('',#1414,10.);
#345=VECTOR('',#1415,10.);
#346=VECTOR('',#1418,10.);
#347=VECTOR('',#1419,10.);
#348=VECTOR('',#1420,10.);
#349=VECTOR('',#1421,10.);
#350=VECTOR('',#1428,10.);
#351=VECTOR('',#1431,10.);
#352=VECTOR('',#1432,10.);
#353=VECTOR('',#1433,10.);
#354=VECTOR('',#1450,2.);
#355=VECTOR('',#1453,2.);
#356=VECTOR('',#1456,10.);
#357=VECTOR('',#1459,10.);
#358=VECTOR('',#1466,2.);
#359=VECTOR('',#1469,2.);
#360=VECTOR('',#1472,10.);
#361=VECTOR('',#1475,10.);
#362=VECTOR('',#1482,2.);
#363=VECTOR('',#1485,2.);
#364=VECTOR('',#1488,10.);
#365=VECTOR('',#1491,10.);
#366=VECTOR('',#1498,2.);
#367=VECTOR('',#1501,2.);
#368=VECTOR('',#1504,10.);
#369=VECTOR('',#1507,10.);
#370=VECTOR('',#1514,2.);
#371=VECTOR('',#1517,2.);
#372=VECTOR('',#1520,10.);
#373=VECTOR('',#1523,10.);
#374=VECTOR('',#1530,10.);
#375=VECTOR('',#1533,10.);
#376=VECTOR('',#1538,10.);
#377=VECTOR('',#1539,10.);
#378=VECTOR('',#1544,0.925);
#379=VECTOR('',#1549,0.925);
#380=VECTOR('',#1554,10.);
#381=VECTOR('',#1555,10.);
#382=VECTOR('',#1556,10.);
#383=VECTOR('',#1559,10.);
#384=VECTOR('',#1560,10.);
#385=VECTOR('',#1561,10.);
#386=VECTOR('',#1564,10.);
#387=VECTOR('',#1565,10.);
#388=VECTOR('',#1568,10.);
#389=VECTOR('',#1569,10.);
#390=VECTOR('',#1572,10.);
#391=VECTOR('',#1573,10.);
#392=VECTOR('',#1574,10.);
#393=VECTOR('',#1575,10.);
#394=VECTOR('',#1578,10.);
#395=VECTOR('',#1579,10.);
#396=VECTOR('',#1580,10.);
#397=VECTOR('',#1581,10.);
#398=VECTOR('',#1584,10.);
#399=VECTOR('',#1585,10.);
#400=VECTOR('',#1586,10.);
#401=VECTOR('',#1587,10.);
#402=VECTOR('',#1588,10.);
#403=VECTOR('',#1589,10.);
#404=VECTOR('',#1590,10.);
#405=VECTOR('',#1591,10.);
#406=VECTOR('',#1592,10.);
#407=VECTOR('',#1593,10.);
#408=VECTOR('',#1594,10.);
#409=VECTOR('',#1595,10.);
#410=VECTOR('',#1596,10.);
#411=VECTOR('',#1597,10.);
#412=VECTOR('',#1598,10.);
#413=VECTOR('',#1599,10.);
#414=VECTOR('',#1600,10.);
#415=VECTOR('',#1601,10.);
#416=VECTOR('',#1602,10.);
#417=VECTOR('',#1603,10.);
#418=VECTOR('',#1604,10.);
#419=VECTOR('',#1605,10.);
#420=VECTOR('',#1608,10.);
#421=VECTOR('',#1609,10.);
#422=VECTOR('',#1610,10.);
#423=VECTOR('',#1611,10.);
#424=VECTOR('',#1612,10.);
#425=VECTOR('',#1613,10.);
#426=VECTOR('',#1614,10.);
#427=VECTOR('',#1615,10.);
#428=VECTOR('',#1616,10.);
#429=VECTOR('',#1617,10.);
#430=VECTOR('',#1618,10.);
#431=VECTOR('',#1619,10.);
#432=VECTOR('',#1620,10.);
#433=VECTOR('',#1621,10.);
#434=VECTOR('',#1622,10.);
#435=VECTOR('',#1623,10.);
#436=VECTOR('',#1624,10.);
#437=VECTOR('',#1625,10.);
#438=VECTOR('',#1626,10.);
#439=VECTOR('',#1627,10.);
#440=VECTOR('',#1628,10.);
#441=VECTOR('',#1629,10.);
#442=VECTOR('',#1642,0.925);
#443=VECTOR('',#1645,0.925);
#444=VECTOR('',#1650,10.);
#445=VECTOR('',#1653,10.);
#446=VECTOR('',#1658,10.);
#447=VECTOR('',#1659,10.);
#448=VECTOR('',#1674,0.925);
#449=VECTOR('',#1679,0.925);
#450=VECTOR('',#1704,0.925);
#451=VECTOR('',#1711,0.925);
#452=VECTOR('',#1736,0.925);
#453=VECTOR('',#1741,0.925);
#454=CIRCLE('',#1269,1.);
#455=CIRCLE('',#1270,1.);
#456=CIRCLE('',#1273,3.);
#457=CIRCLE('',#1274,3.);
#458=CIRCLE('',#1278,3.);
#459=CIRCLE('',#1279,3.);
#460=CIRCLE('',#1282,5.);
#461=CIRCLE('',#1283,5.);
#462=CIRCLE('',#1285,5.);
#463=CIRCLE('',#1286,5.);
#464=CIRCLE('',#1288,2.);
#465=CIRCLE('',#1289,2.);
#466=CIRCLE('',#1291,3.375);
#467=CIRCLE('',#1292,0.925);
#468=CIRCLE('',#1294,2.);
#469=CIRCLE('',#1295,2.);
#470=CIRCLE('',#1297,3.375);
#471=CIRCLE('',#1298,0.925);
#472=CIRCLE('',#1300,2.);
#473=CIRCLE('',#1301,2.);
#474=CIRCLE('',#1303,3.375);
#475=CIRCLE('',#1304,0.925);
#476=CIRCLE('',#1306,2.);
#477=CIRCLE('',#1307,2.);
#478=CIRCLE('',#1309,3.375);
#479=CIRCLE('',#1310,0.925);
#480=CIRCLE('',#1312,2.);
#481=CIRCLE('',#1313,2.);
#482=CIRCLE('',#1315,3.375);
#483=CIRCLE('',#1316,0.925);
#484=CIRCLE('',#1318,3.375);
#485=CIRCLE('',#1319,3.375);
#486=CIRCLE('',#1321,3.375);
#487=CIRCLE('',#1323,0.925);
#488=CIRCLE('',#1324,0.925);
#489=CIRCLE('',#1326,0.925);
#490=CIRCLE('',#1336,3.375);
#491=CIRCLE('',#1338,3.375);
#492=CIRCLE('',#1340,0.925);
#493=CIRCLE('',#1342,0.925);
#494=CIRCLE('',#1348,3.375);
#495=CIRCLE('',#1350,3.375);
#496=CIRCLE('',#1351,3.375);
#497=CIRCLE('',#1353,0.925);
#498=CIRCLE('',#1355,0.925);
#499=CIRCLE('',#1356,0.925);
#500=CIRCLE('',#1361,3.375);
#501=CIRCLE('',#1362,3.375);
#502=CIRCLE('',#1364,3.375);
#503=CIRCLE('',#1365,3.375);
#504=CIRCLE('',#1367,0.925);
#505=CIRCLE('',#1368,0.925);
#506=CIRCLE('',#1370,0.925);
#507=CIRCLE('',#1371,0.925);
#508=CIRCLE('',#1377,3.375);
#509=CIRCLE('',#1379,3.375);
#510=CIRCLE('',#1380,3.375);
#511=CIRCLE('',#1382,0.925);
#512=CIRCLE('',#1384,0.925);
#513=CIRCLE('',#1385,0.925);
#514=VERTEX_POINT('',#1752);
#515=VERTEX_POINT('',#1754);
#516=VERTEX_POINT('',#1758);
#517=VERTEX_POINT('',#1759);
#518=VERTEX_POINT('',#1761);
#519=VERTEX_POINT('',#1763);
#520=VERTEX_POINT('',#1767);
#521=VERTEX_POINT('',#1769);
#522=VERTEX_POINT('',#1773);
#523=VERTEX_POINT('',#1775);
#524=VERTEX_POINT('',#1779);
#525=VERTEX_POINT('',#1780);
#526=VERTEX_POINT('',#1782);
#527=VERTEX_POINT('',#1784);
#528=VERTEX_POINT('',#1788);
#529=VERTEX_POINT('',#1790);
#530=VERTEX_POINT('',#1794);
#531=VERTEX_POINT('',#1796);
#532=VERTEX_POINT('',#1806);
#533=VERTEX_POINT('',#1807);
#534=VERTEX_POINT('',#1809);
#535=VERTEX_POINT('',#1811);
#536=VERTEX_POINT('',#1815);
#537=VERTEX_POINT('',#1817);
#538=VERTEX_POINT('',#1820);
#539=VERTEX_POINT('',#1823);
#540=VERTEX_POINT('',#1824);
#541=VERTEX_POINT('',#1826);
#542=VERTEX_POINT('',#1828);
#543=VERTEX_POINT('',#1832);
#544=VERTEX_POINT('',#1834);
#545=VERTEX_POINT('',#1837);
#546=VERTEX_POINT('',#1840);
#547=VERTEX_POINT('',#1841);
#548=VERTEX_POINT('',#1843);
#549=VERTEX_POINT('',#1845);
#550=VERTEX_POINT('',#1849);
#551=VERTEX_POINT('',#1851);
#552=VERTEX_POINT('',#1854);
#553=VERTEX_POINT('',#1857);
#554=VERTEX_POINT('',#1858);
#555=VERTEX_POINT('',#1860);
#556=VERTEX_POINT('',#1862);
#557=VERTEX_POINT('',#1866);
#558=VERTEX_POINT('',#1868);
#559=VERTEX_POINT('',#1871);
#560=VERTEX_POINT('',#1874);
#561=VERTEX_POINT('',#1875);
#562=VERTEX_POINT('',#1877);
#563=VERTEX_POINT('',#1879);
#564=VERTEX_POINT('',#1883);
#565=VERTEX_POINT('',#1885);
#566=VERTEX_POINT('',#1888);
#567=VERTEX_POINT('',#1891);
#568=VERTEX_POINT('',#1892);
#569=VERTEX_POINT('',#1894);
#570=VERTEX_POINT('',#1896);
#571=VERTEX_POINT('',#1900);
#572=VERTEX_POINT('',#1901);
#573=VERTEX_POINT('',#1906);
#574=VERTEX_POINT('',#1908);
#575=VERTEX_POINT('',#1912);
#576=VERTEX_POINT('',#1916);
#577=VERTEX_POINT('',#1918);
#578=VERTEX_POINT('',#1922);
#579=VERTEX_POINT('',#1924);
#580=VERTEX_POINT('',#1934);
#581=VERTEX_POINT('',#1935);
#582=VERTEX_POINT('',#1937);
#583=VERTEX_POINT('',#1939);
#584=VERTEX_POINT('',#1943);
#585=VERTEX_POINT('',#1944);
#586=VERTEX_POINT('',#1946);
#587=VERTEX_POINT('',#1948);
#588=VERTEX_POINT('',#1952);
#589=VERTEX_POINT('',#1954);
#590=VERTEX_POINT('',#1956);
#591=VERTEX_POINT('',#1958);
#592=VERTEX_POINT('',#1961);
#593=VERTEX_POINT('',#1963);
#594=VERTEX_POINT('',#1966);
#595=VERTEX_POINT('',#1969);
#596=VERTEX_POINT('',#1971);
#597=VERTEX_POINT('',#1974);
#598=VERTEX_POINT('',#1977);
#599=VERTEX_POINT('',#1979);
#600=VERTEX_POINT('',#1981);
#601=VERTEX_POINT('',#1983);
#602=VERTEX_POINT('',#1985);
#603=VERTEX_POINT('',#1987);
#604=VERTEX_POINT('',#1991);
#605=VERTEX_POINT('',#1994);
#606=VERTEX_POINT('',#1996);
#607=VERTEX_POINT('',#1999);
#608=VERTEX_POINT('',#2001);
#609=VERTEX_POINT('',#2003);
#610=VERTEX_POINT('',#2005);
#611=VERTEX_POINT('',#2008);
#612=VERTEX_POINT('',#2010);
#613=VERTEX_POINT('',#2012);
#614=VERTEX_POINT('',#2014);
#615=VERTEX_POINT('',#2016);
#616=VERTEX_POINT('',#2018);
#617=VERTEX_POINT('',#2021);
#618=VERTEX_POINT('',#2024);
#619=VERTEX_POINT('',#2026);
#620=VERTEX_POINT('',#2034);
#621=VERTEX_POINT('',#2038);
#622=VERTEX_POINT('',#2055);
#623=VERTEX_POINT('',#2059);
#624=VERTEX_POINT('',#2061);
#625=VERTEX_POINT('',#2074);
#626=VERTEX_POINT('',#2076);
#627=VERTEX_POINT('',#2080);
#628=VERTEX_POINT('',#2082);
#629=VERTEX_POINT('',#2095);
#630=VERTEX_POINT('',#2099);
#631=VERTEX_POINT('',#2101);
#632=EDGE_CURVE('',#514,#514,#454,.T.);
#633=EDGE_CURVE('',#514,#515,#220,.T.);
#634=EDGE_CURVE('',#515,#515,#455,.T.);
#635=EDGE_CURVE('',#516,#517,#221,.T.);
#636=EDGE_CURVE('',#518,#516,#222,.T.);
#637=EDGE_CURVE('',#519,#518,#223,.T.);
#638=EDGE_CURVE('',#517,#519,#224,.T.);
#639=EDGE_CURVE('',#517,#520,#456,.T.);
#640=EDGE_CURVE('',#521,#519,#457,.T.);
#641=EDGE_CURVE('',#520,#521,#225,.T.);
#642=EDGE_CURVE('',#520,#522,#226,.T.);
#643=EDGE_CURVE('',#523,#521,#227,.T.);
#644=EDGE_CURVE('',#522,#523,#228,.T.);
#645=EDGE_CURVE('',#524,#525,#229,.T.);
#646=EDGE_CURVE('',#526,#524,#230,.T.);
#647=EDGE_CURVE('',#527,#526,#231,.T.);
#648=EDGE_CURVE('',#525,#527,#232,.T.);
#649=EDGE_CURVE('',#525,#528,#458,.T.);
#650=EDGE_CURVE('',#529,#527,#459,.T.);
#651=EDGE_CURVE('',#528,#529,#233,.T.);
#652=EDGE_CURVE('',#528,#530,#234,.T.);
#653=EDGE_CURVE('',#531,#529,#235,.T.);
#654=EDGE_CURVE('',#530,#531,#236,.T.);
#655=EDGE_CURVE('',#523,#518,#460,.T.);
#656=EDGE_CURVE('',#522,#516,#461,.T.);
#657=EDGE_CURVE('',#530,#524,#462,.T.);
#658=EDGE_CURVE('',#531,#526,#463,.T.);
#659=EDGE_CURVE('',#532,#533,#464,.F.);
#660=EDGE_CURVE('',#532,#534,#237,.T.);
#661=EDGE_CURVE('',#534,#535,#465,.T.);
#662=EDGE_CURVE('',#535,#533,#238,.T.);
#663=EDGE_CURVE('',#536,#535,#239,.T.);
#664=EDGE_CURVE('',#536,#537,#466,.T.);
#665=EDGE_CURVE('',#537,#533,#240,.T.);
#666=EDGE_CURVE('',#538,#538,#467,.T.);
#667=EDGE_CURVE('',#539,#540,#468,.F.);
#668=EDGE_CURVE('',#539,#541,#241,.T.);
#669=EDGE_CURVE('',#541,#542,#469,.T.);
#670=EDGE_CURVE('',#542,#540,#242,.T.);
#671=EDGE_CURVE('',#543,#542,#243,.T.);
#672=EDGE_CURVE('',#543,#544,#470,.T.);
#673=EDGE_CURVE('',#544,#540,#244,.T.);
#674=EDGE_CURVE('',#545,#545,#471,.T.);
#675=EDGE_CURVE('',#546,#547,#472,.F.);
#676=EDGE_CURVE('',#546,#548,#245,.T.);
#677=EDGE_CURVE('',#548,#549,#473,.T.);
#678=EDGE_CURVE('',#549,#547,#246,.T.);
#679=EDGE_CURVE('',#550,#549,#247,.T.);
#680=EDGE_CURVE('',#550,#551,#474,.T.);
#681=EDGE_CURVE('',#547,#551,#248,.T.);
#682=EDGE_CURVE('',#552,#552,#475,.T.);
#683=EDGE_CURVE('',#553,#554,#476,.F.);
#684=EDGE_CURVE('',#553,#555,#249,.T.);
#685=EDGE_CURVE('',#555,#556,#477,.T.);
#686=EDGE_CURVE('',#556,#554,#250,.T.);
#687=EDGE_CURVE('',#557,#556,#251,.T.);
#688=EDGE_CURVE('',#557,#558,#478,.T.);
#689=EDGE_CURVE('',#554,#558,#252,.T.);
#690=EDGE_CURVE('',#559,#559,#479,.T.);
#691=EDGE_CURVE('',#560,#561,#480,.F.);
#692=EDGE_CURVE('',#560,#562,#253,.T.);
#693=EDGE_CURVE('',#562,#563,#481,.T.);
#694=EDGE_CURVE('',#563,#561,#254,.T.);
#695=EDGE_CURVE('',#564,#563,#255,.T.);
#696=EDGE_CURVE('',#564,#565,#482,.T.);
#697=EDGE_CURVE('',#565,#561,#256,.T.);
#698=EDGE_CURVE('',#566,#566,#483,.T.);
#699=EDGE_CURVE('',#567,#568,#484,.T.);
#700=EDGE_CURVE('',#567,#569,#257,.T.);
#701=EDGE_CURVE('',#570,#569,#485,.T.);
#702=EDGE_CURVE('',#568,#570,#258,.T.);
#703=EDGE_CURVE('',#571,#572,#486,.T.);
#704=EDGE_CURVE('',#571,#558,#259,.T.);
#705=EDGE_CURVE('',#572,#557,#260,.T.);
#706=EDGE_CURVE('',#573,#573,#487,.T.);
#707=EDGE_CURVE('',#573,#574,#261,.T.);
#708=EDGE_CURVE('',#574,#574,#488,.T.);
#709=EDGE_CURVE('',#559,#575,#262,.T.);
#710=EDGE_CURVE('',#575,#575,#489,.T.);
#711=EDGE_CURVE('',#576,#569,#263,.T.);
#712=EDGE_CURVE('',#577,#576,#264,.T.);
#713=EDGE_CURVE('',#577,#570,#265,.T.);
#714=EDGE_CURVE('',#578,#576,#266,.T.);
#715=EDGE_CURVE('',#579,#578,#267,.T.);
#716=EDGE_CURVE('',#577,#579,#268,.T.);
#717=EDGE_CURVE('',#579,#572,#269,.T.);
#718=EDGE_CURVE('',#571,#578,#270,.T.);
#719=EDGE_CURVE('',#567,#546,#271,.T.);
#720=EDGE_CURVE('',#568,#548,#272,.T.);
#721=EDGE_CURVE('',#580,#581,#273,.T.);
#722=EDGE_CURVE('',#582,#580,#274,.T.);
#723=EDGE_CURVE('',#583,#582,#275,.T.);
#724=EDGE_CURVE('',#583,#581,#276,.T.);
#725=EDGE_CURVE('',#584,#585,#277,.T.);
#726=EDGE_CURVE('',#586,#584,#278,.T.);
#727=EDGE_CURVE('',#587,#586,#279,.T.);
#728=EDGE_CURVE('',#587,#585,#280,.T.);
#729=EDGE_CURVE('',#588,#551,#281,.T.);
#730=EDGE_CURVE('',#588,#589,#282,.T.);
#731=EDGE_CURVE('',#589,#590,#283,.T.);
#732=EDGE_CURVE('',#590,#591,#284,.T.);
#733=EDGE_CURVE('',#543,#591,#285,.T.);
#734=EDGE_CURVE('',#541,#592,#286,.T.);
#735=EDGE_CURVE('',#593,#592,#287,.T.);
#736=EDGE_CURVE('',#593,#580,#288,.T.);
#737=EDGE_CURVE('',#581,#594,#289,.T.);
#738=EDGE_CURVE('',#536,#594,#290,.T.);
#739=EDGE_CURVE('',#534,#595,#291,.T.);
#740=EDGE_CURVE('',#596,#595,#292,.T.);
#741=EDGE_CURVE('',#596,#584,#293,.T.);
#742=EDGE_CURVE('',#585,#597,#294,.T.);
#743=EDGE_CURVE('',#564,#597,#295,.T.);
#744=EDGE_CURVE('',#562,#598,#296,.T.);
#745=EDGE_CURVE('',#599,#598,#297,.T.);
#746=EDGE_CURVE('',#599,#600,#298,.T.);
#747=EDGE_CURVE('',#600,#601,#299,.T.);
#748=EDGE_CURVE('',#601,#602,#300,.T.);
#749=EDGE_CURVE('',#603,#602,#301,.T.);
#750=EDGE_CURVE('',#603,#553,#302,.T.);
#751=EDGE_CURVE('',#537,#604,#303,.T.);
#752=EDGE_CURVE('',#583,#604,#304,.T.);
#753=EDGE_CURVE('',#582,#605,#305,.T.);
#754=EDGE_CURVE('',#605,#606,#306,.T.);
#755=EDGE_CURVE('',#606,#539,#307,.T.);
#756=EDGE_CURVE('',#544,#607,#308,.T.);
#757=EDGE_CURVE('',#608,#607,#309,.T.);
#758=EDGE_CURVE('',#608,#609,#310,.T.);
#759=EDGE_CURVE('',#609,#610,#311,.T.);
#760=EDGE_CURVE('',#610,#550,#312,.T.);
#761=EDGE_CURVE('',#611,#555,#313,.T.);
#762=EDGE_CURVE('',#611,#612,#314,.T.);
#763=EDGE_CURVE('',#613,#612,#315,.T.);
#764=EDGE_CURVE('',#613,#614,#316,.T.);
#765=EDGE_CURVE('',#614,#615,#317,.T.);
#766=EDGE_CURVE('',#615,#616,#318,.T.);
#767=EDGE_CURVE('',#616,#560,#319,.T.);
#768=EDGE_CURVE('',#565,#617,#320,.T.);
#769=EDGE_CURVE('',#587,#617,#321,.T.);
#770=EDGE_CURVE('',#586,#618,#322,.T.);
#771=EDGE_CURVE('',#618,#619,#323,.T.);
#772=EDGE_CURVE('',#619,#532,#324,.T.);
#773=EDGE_CURVE('',#607,#591,#490,.T.);
#774=EDGE_CURVE('',#588,#610,#491,.T.);
#775=EDGE_CURVE('',#620,#620,#492,.T.);
#776=EDGE_CURVE('',#620,#545,#325,.T.);
#777=EDGE_CURVE('',#552,#621,#326,.T.);
#778=EDGE_CURVE('',#621,#621,#493,.T.);
#779=EDGE_CURVE('',#608,#590,#327,.T.);
#780=EDGE_CURVE('',#609,#589,#328,.T.);
#781=EDGE_CURVE('',#614,#600,#329,.T.);
#782=EDGE_CURVE('',#613,#601,#330,.T.);
#783=EDGE_CURVE('',#617,#597,#494,.T.);
#784=EDGE_CURVE('',#596,#618,#495,.T.);
#785=EDGE_CURVE('',#619,#595,#496,.T.);
#786=EDGE_CURVE('',#622,#622,#497,.T.);
#787=EDGE_CURVE('',#622,#566,#331,.T.);
#788=EDGE_CURVE('',#623,#623,#498,.T.);
#789=EDGE_CURVE('',#623,#624,#332,.T.);
#790=EDGE_CURVE('',#624,#624,#499,.T.);
#791=EDGE_CURVE('',#603,#611,#500,.T.);
#792=EDGE_CURVE('',#612,#602,#501,.T.);
#793=EDGE_CURVE('',#599,#615,#502,.T.);
#794=EDGE_CURVE('',#616,#598,#503,.T.);
#795=EDGE_CURVE('',#625,#625,#504,.T.);
#796=EDGE_CURVE('',#625,#626,#333,.T.);
#797=EDGE_CURVE('',#626,#626,#505,.T.);
#798=EDGE_CURVE('',#627,#627,#506,.T.);
#799=EDGE_CURVE('',#627,#628,#334,.T.);
#800=EDGE_CURVE('',#628,#628,#507,.T.);
#801=EDGE_CURVE('',#604,#594,#508,.T.);
#802=EDGE_CURVE('',#593,#605,#509,.T.);
#803=EDGE_CURVE('',#606,#592,#510,.T.);
#804=EDGE_CURVE('',#629,#629,#511,.T.);
#805=EDGE_CURVE('',#629,#538,#335,.T.);
#806=EDGE_CURVE('',#630,#630,#512,.T.);
#807=EDGE_CURVE('',#630,#631,#336,.T.);
#808=EDGE_CURVE('',#631,#631,#513,.T.);
#809=ORIENTED_EDGE('',*,*,#632,.F.);
#810=ORIENTED_EDGE('',*,*,#633,.T.);
#811=ORIENTED_EDGE('',*,*,#634,.F.);
#812=ORIENTED_EDGE('',*,*,#633,.F.);
#813=ORIENTED_EDGE('',*,*,#635,.F.);
#814=ORIENTED_EDGE('',*,*,#636,.F.);
#815=ORIENTED_EDGE('',*,*,#637,.F.);
#816=ORIENTED_EDGE('',*,*,#638,.F.);
#817=ORIENTED_EDGE('',*,*,#639,.F.);
#818=ORIENTED_EDGE('',*,*,#638,.T.);
#819=ORIENTED_EDGE('',*,*,#640,.F.);
#820=ORIENTED_EDGE('',*,*,#641,.F.);
#821=ORIENTED_EDGE('',*,*,#642,.F.);
#822=ORIENTED_EDGE('',*,*,#641,.T.);
#823=ORIENTED_EDGE('',*,*,#643,.F.);
#824=ORIENTED_EDGE('',*,*,#644,.F.);
#825=ORIENTED_EDGE('',*,*,#645,.F.);
#826=ORIENTED_EDGE('',*,*,#646,.F.);
#827=ORIENTED_EDGE('',*,*,#647,.F.);
#828=ORIENTED_EDGE('',*,*,#648,.F.);
#829=ORIENTED_EDGE('',*,*,#649,.F.);
#830=ORIENTED_EDGE('',*,*,#648,.T.);
#831=ORIENTED_EDGE('',*,*,#650,.F.);
#832=ORIENTED_EDGE('',*,*,#651,.F.);
#833=ORIENTED_EDGE('',*,*,#652,.F.);
#834=ORIENTED_EDGE('',*,*,#651,.T.);
#835=ORIENTED_EDGE('',*,*,#653,.F.);
#836=ORIENTED_EDGE('',*,*,#654,.F.);
#837=ORIENTED_EDGE('',*,*,#644,.T.);
#838=ORIENTED_EDGE('',*,*,#655,.T.);
#839=ORIENTED_EDGE('',*,*,#636,.T.);
#840=ORIENTED_EDGE('',*,*,#656,.F.);
#841=ORIENTED_EDGE('',*,*,#646,.T.);
#842=ORIENTED_EDGE('',*,*,#657,.F.);
#843=ORIENTED_EDGE('',*,*,#654,.T.);
#844=ORIENTED_EDGE('',*,*,#658,.T.);
#845=ORIENTED_EDGE('',*,*,#659,.F.);
#846=ORIENTED_EDGE('',*,*,#660,.T.);
#847=ORIENTED_EDGE('',*,*,#661,.T.);
#848=ORIENTED_EDGE('',*,*,#662,.T.);
#849=ORIENTED_EDGE('',*,*,#662,.F.);
#850=ORIENTED_EDGE('',*,*,#663,.F.);
#851=ORIENTED_EDGE('',*,*,#664,.T.);
#852=ORIENTED_EDGE('',*,*,#665,.T.);
#853=ORIENTED_EDGE('',*,*,#666,.T.);
#854=ORIENTED_EDGE('',*,*,#667,.F.);
#855=ORIENTED_EDGE('',*,*,#668,.T.);
#856=ORIENTED_EDGE('',*,*,#669,.T.);
#857=ORIENTED_EDGE('',*,*,#670,.T.);
#858=ORIENTED_EDGE('',*,*,#670,.F.);
#859=ORIENTED_EDGE('',*,*,#671,.F.);
#860=ORIENTED_EDGE('',*,*,#672,.T.);
#861=ORIENTED_EDGE('',*,*,#673,.T.);
#862=ORIENTED_EDGE('',*,*,#674,.T.);
#863=ORIENTED_EDGE('',*,*,#675,.F.);
#864=ORIENTED_EDGE('',*,*,#676,.T.);
#865=ORIENTED_EDGE('',*,*,#677,.T.);
#866=ORIENTED_EDGE('',*,*,#678,.T.);
#867=ORIENTED_EDGE('',*,*,#678,.F.);
#868=ORIENTED_EDGE('',*,*,#679,.F.);
#869=ORIENTED_EDGE('',*,*,#680,.T.);
#870=ORIENTED_EDGE('',*,*,#681,.F.);
#871=ORIENTED_EDGE('',*,*,#682,.T.);
#872=ORIENTED_EDGE('',*,*,#683,.F.);
#873=ORIENTED_EDGE('',*,*,#684,.T.);
#874=ORIENTED_EDGE('',*,*,#685,.T.);
#875=ORIENTED_EDGE('',*,*,#686,.T.);
#876=ORIENTED_EDGE('',*,*,#686,.F.);
#877=ORIENTED_EDGE('',*,*,#687,.F.);
#878=ORIENTED_EDGE('',*,*,#688,.T.);
#879=ORIENTED_EDGE('',*,*,#689,.F.);
#880=ORIENTED_EDGE('',*,*,#690,.T.);
#881=ORIENTED_EDGE('',*,*,#691,.F.);
#882=ORIENTED_EDGE('',*,*,#692,.T.);
#883=ORIENTED_EDGE('',*,*,#693,.T.);
#884=ORIENTED_EDGE('',*,*,#694,.T.);
#885=ORIENTED_EDGE('',*,*,#694,.F.);
#886=ORIENTED_EDGE('',*,*,#695,.F.);
#887=ORIENTED_EDGE('',*,*,#696,.T.);
#888=ORIENTED_EDGE('',*,*,#697,.T.);
#889=ORIENTED_EDGE('',*,*,#698,.T.);
#890=ORIENTED_EDGE('',*,*,#699,.F.);
#891=ORIENTED_EDGE('',*,*,#700,.T.);
#892=ORIENTED_EDGE('',*,*,#701,.F.);
#893=ORIENTED_EDGE('',*,*,#702,.F.);
#894=ORIENTED_EDGE('',*,*,#703,.F.);
#895=ORIENTED_EDGE('',*,*,#704,.T.);
#896=ORIENTED_EDGE('',*,*,#688,.F.);
#897=ORIENTED_EDGE('',*,*,#705,.F.);
#898=ORIENTED_EDGE('',*,*,#706,.F.);
#899=ORIENTED_EDGE('',*,*,#707,.T.);
#900=ORIENTED_EDGE('',*,*,#708,.F.);
#901=ORIENTED_EDGE('',*,*,#707,.F.);
#902=ORIENTED_EDGE('',*,*,#690,.F.);
#903=ORIENTED_EDGE('',*,*,#709,.T.);
#904=ORIENTED_EDGE('',*,*,#710,.F.);
#905=ORIENTED_EDGE('',*,*,#709,.F.);
#906=ORIENTED_EDGE('',*,*,#701,.T.);
#907=ORIENTED_EDGE('',*,*,#711,.F.);
#908=ORIENTED_EDGE('',*,*,#712,.F.);
#909=ORIENTED_EDGE('',*,*,#713,.T.);
#910=ORIENTED_EDGE('',*,*,#706,.T.);
#911=ORIENTED_EDGE('',*,*,#714,.F.);
#912=ORIENTED_EDGE('',*,*,#715,.F.);
#913=ORIENTED_EDGE('',*,*,#716,.F.);
#914=ORIENTED_EDGE('',*,*,#712,.T.);
#915=ORIENTED_EDGE('',*,*,#703,.T.);
#916=ORIENTED_EDGE('',*,*,#717,.F.);
#917=ORIENTED_EDGE('',*,*,#715,.T.);
#918=ORIENTED_EDGE('',*,*,#718,.F.);
#919=ORIENTED_EDGE('',*,*,#710,.T.);
#920=ORIENTED_EDGE('',*,*,#676,.F.);
#921=ORIENTED_EDGE('',*,*,#719,.F.);
#922=ORIENTED_EDGE('',*,*,#699,.T.);
#923=ORIENTED_EDGE('',*,*,#720,.T.);
#924=ORIENTED_EDGE('',*,*,#708,.T.);
#925=ORIENTED_EDGE('',*,*,#721,.F.);
#926=ORIENTED_EDGE('',*,*,#722,.F.);
#927=ORIENTED_EDGE('',*,*,#723,.F.);
#928=ORIENTED_EDGE('',*,*,#724,.T.);
#929=ORIENTED_EDGE('',*,*,#725,.F.);
#930=ORIENTED_EDGE('',*,*,#726,.F.);
#931=ORIENTED_EDGE('',*,*,#727,.F.);
#932=ORIENTED_EDGE('',*,*,#728,.T.);
#933=ORIENTED_EDGE('',*,*,#683,.T.);
#934=ORIENTED_EDGE('',*,*,#689,.T.);
#935=ORIENTED_EDGE('',*,*,#704,.F.);
#936=ORIENTED_EDGE('',*,*,#718,.T.);
#937=ORIENTED_EDGE('',*,*,#714,.T.);
#938=ORIENTED_EDGE('',*,*,#711,.T.);
#939=ORIENTED_EDGE('',*,*,#700,.F.);
#940=ORIENTED_EDGE('',*,*,#719,.T.);
#941=ORIENTED_EDGE('',*,*,#675,.T.);
#942=ORIENTED_EDGE('',*,*,#681,.T.);
#943=ORIENTED_EDGE('',*,*,#729,.F.);
#944=ORIENTED_EDGE('',*,*,#730,.T.);
#945=ORIENTED_EDGE('',*,*,#731,.T.);
#946=ORIENTED_EDGE('',*,*,#732,.T.);
#947=ORIENTED_EDGE('',*,*,#733,.F.);
#948=ORIENTED_EDGE('',*,*,#671,.T.);
#949=ORIENTED_EDGE('',*,*,#669,.F.);
#950=ORIENTED_EDGE('',*,*,#734,.T.);
#951=ORIENTED_EDGE('',*,*,#735,.F.);
#952=ORIENTED_EDGE('',*,*,#736,.T.);
#953=ORIENTED_EDGE('',*,*,#721,.T.);
#954=ORIENTED_EDGE('',*,*,#737,.T.);
#955=ORIENTED_EDGE('',*,*,#738,.F.);
#956=ORIENTED_EDGE('',*,*,#663,.T.);
#957=ORIENTED_EDGE('',*,*,#661,.F.);
#958=ORIENTED_EDGE('',*,*,#739,.T.);
#959=ORIENTED_EDGE('',*,*,#740,.F.);
#960=ORIENTED_EDGE('',*,*,#741,.T.);
#961=ORIENTED_EDGE('',*,*,#725,.T.);
#962=ORIENTED_EDGE('',*,*,#742,.T.);
#963=ORIENTED_EDGE('',*,*,#743,.F.);
#964=ORIENTED_EDGE('',*,*,#695,.T.);
#965=ORIENTED_EDGE('',*,*,#693,.F.);
#966=ORIENTED_EDGE('',*,*,#744,.T.);
#967=ORIENTED_EDGE('',*,*,#745,.F.);
#968=ORIENTED_EDGE('',*,*,#746,.T.);
#969=ORIENTED_EDGE('',*,*,#747,.T.);
#970=ORIENTED_EDGE('',*,*,#748,.T.);
#971=ORIENTED_EDGE('',*,*,#749,.F.);
#972=ORIENTED_EDGE('',*,*,#750,.T.);
#973=ORIENTED_EDGE('',*,*,#634,.T.);
#974=ORIENTED_EDGE('',*,*,#656,.T.);
#975=ORIENTED_EDGE('',*,*,#635,.T.);
#976=ORIENTED_EDGE('',*,*,#639,.T.);
#977=ORIENTED_EDGE('',*,*,#642,.T.);
#978=ORIENTED_EDGE('',*,*,#645,.T.);
#979=ORIENTED_EDGE('',*,*,#649,.T.);
#980=ORIENTED_EDGE('',*,*,#652,.T.);
#981=ORIENTED_EDGE('',*,*,#657,.T.);
#982=ORIENTED_EDGE('',*,*,#659,.T.);
#983=ORIENTED_EDGE('',*,*,#665,.F.);
#984=ORIENTED_EDGE('',*,*,#751,.T.);
#985=ORIENTED_EDGE('',*,*,#752,.F.);
#986=ORIENTED_EDGE('',*,*,#723,.T.);
#987=ORIENTED_EDGE('',*,*,#753,.T.);
#988=ORIENTED_EDGE('',*,*,#754,.T.);
#989=ORIENTED_EDGE('',*,*,#755,.T.);
#990=ORIENTED_EDGE('',*,*,#667,.T.);
#991=ORIENTED_EDGE('',*,*,#673,.F.);
#992=ORIENTED_EDGE('',*,*,#756,.T.);
#993=ORIENTED_EDGE('',*,*,#757,.F.);
#994=ORIENTED_EDGE('',*,*,#758,.T.);
#995=ORIENTED_EDGE('',*,*,#759,.T.);
#996=ORIENTED_EDGE('',*,*,#760,.T.);
#997=ORIENTED_EDGE('',*,*,#679,.T.);
#998=ORIENTED_EDGE('',*,*,#677,.F.);
#999=ORIENTED_EDGE('',*,*,#720,.F.);
#1000=ORIENTED_EDGE('',*,*,#702,.T.);
#1001=ORIENTED_EDGE('',*,*,#713,.F.);
#1002=ORIENTED_EDGE('',*,*,#716,.T.);
#1003=ORIENTED_EDGE('',*,*,#717,.T.);
#1004=ORIENTED_EDGE('',*,*,#705,.T.);
#1005=ORIENTED_EDGE('',*,*,#687,.T.);
#1006=ORIENTED_EDGE('',*,*,#685,.F.);
#1007=ORIENTED_EDGE('',*,*,#761,.F.);
#1008=ORIENTED_EDGE('',*,*,#762,.T.);
#1009=ORIENTED_EDGE('',*,*,#763,.F.);
#1010=ORIENTED_EDGE('',*,*,#764,.T.);
#1011=ORIENTED_EDGE('',*,*,#765,.T.);
#1012=ORIENTED_EDGE('',*,*,#766,.T.);
#1013=ORIENTED_EDGE('',*,*,#767,.T.);
#1014=ORIENTED_EDGE('',*,*,#691,.T.);
#1015=ORIENTED_EDGE('',*,*,#697,.F.);
#1016=ORIENTED_EDGE('',*,*,#768,.T.);
#1017=ORIENTED_EDGE('',*,*,#769,.F.);
#1018=ORIENTED_EDGE('',*,*,#727,.T.);
#1019=ORIENTED_EDGE('',*,*,#770,.T.);
#1020=ORIENTED_EDGE('',*,*,#771,.T.);
#1021=ORIENTED_EDGE('',*,*,#772,.T.);
#1022=ORIENTED_EDGE('',*,*,#632,.T.);
#1023=ORIENTED_EDGE('',*,*,#658,.F.);
#1024=ORIENTED_EDGE('',*,*,#653,.T.);
#1025=ORIENTED_EDGE('',*,*,#650,.T.);
#1026=ORIENTED_EDGE('',*,*,#647,.T.);
#1027=ORIENTED_EDGE('',*,*,#643,.T.);
#1028=ORIENTED_EDGE('',*,*,#640,.T.);
#1029=ORIENTED_EDGE('',*,*,#637,.T.);
#1030=ORIENTED_EDGE('',*,*,#655,.F.);
#1031=ORIENTED_EDGE('',*,*,#672,.F.);
#1032=ORIENTED_EDGE('',*,*,#733,.T.);
#1033=ORIENTED_EDGE('',*,*,#773,.F.);
#1034=ORIENTED_EDGE('',*,*,#756,.F.);
#1035=ORIENTED_EDGE('',*,*,#774,.F.);
#1036=ORIENTED_EDGE('',*,*,#729,.T.);
#1037=ORIENTED_EDGE('',*,*,#680,.F.);
#1038=ORIENTED_EDGE('',*,*,#760,.F.);
#1039=ORIENTED_EDGE('',*,*,#775,.F.);
#1040=ORIENTED_EDGE('',*,*,#776,.T.);
#1041=ORIENTED_EDGE('',*,*,#674,.F.);
#1042=ORIENTED_EDGE('',*,*,#776,.F.);
#1043=ORIENTED_EDGE('',*,*,#682,.F.);
#1044=ORIENTED_EDGE('',*,*,#777,.T.);
#1045=ORIENTED_EDGE('',*,*,#778,.F.);
#1046=ORIENTED_EDGE('',*,*,#777,.F.);
#1047=ORIENTED_EDGE('',*,*,#773,.T.);
#1048=ORIENTED_EDGE('',*,*,#732,.F.);
#1049=ORIENTED_EDGE('',*,*,#779,.F.);
#1050=ORIENTED_EDGE('',*,*,#757,.T.);
#1051=ORIENTED_EDGE('',*,*,#775,.T.);
#1052=ORIENTED_EDGE('',*,*,#731,.F.);
#1053=ORIENTED_EDGE('',*,*,#780,.F.);
#1054=ORIENTED_EDGE('',*,*,#758,.F.);
#1055=ORIENTED_EDGE('',*,*,#779,.T.);
#1056=ORIENTED_EDGE('',*,*,#774,.T.);
#1057=ORIENTED_EDGE('',*,*,#759,.F.);
#1058=ORIENTED_EDGE('',*,*,#780,.T.);
#1059=ORIENTED_EDGE('',*,*,#730,.F.);
#1060=ORIENTED_EDGE('',*,*,#778,.T.);
#1061=ORIENTED_EDGE('',*,*,#747,.F.);
#1062=ORIENTED_EDGE('',*,*,#781,.F.);
#1063=ORIENTED_EDGE('',*,*,#764,.F.);
#1064=ORIENTED_EDGE('',*,*,#782,.T.);
#1065=ORIENTED_EDGE('',*,*,#696,.F.);
#1066=ORIENTED_EDGE('',*,*,#743,.T.);
#1067=ORIENTED_EDGE('',*,*,#783,.F.);
#1068=ORIENTED_EDGE('',*,*,#768,.F.);
#1069=ORIENTED_EDGE('',*,*,#784,.F.);
#1070=ORIENTED_EDGE('',*,*,#740,.T.);
#1071=ORIENTED_EDGE('',*,*,#785,.F.);
#1072=ORIENTED_EDGE('',*,*,#771,.F.);
#1073=ORIENTED_EDGE('',*,*,#786,.F.);
#1074=ORIENTED_EDGE('',*,*,#787,.T.);
#1075=ORIENTED_EDGE('',*,*,#698,.F.);
#1076=ORIENTED_EDGE('',*,*,#787,.F.);
#1077=ORIENTED_EDGE('',*,*,#788,.F.);
#1078=ORIENTED_EDGE('',*,*,#789,.T.);
#1079=ORIENTED_EDGE('',*,*,#790,.F.);
#1080=ORIENTED_EDGE('',*,*,#789,.F.);
#1081=ORIENTED_EDGE('',*,*,#660,.F.);
#1082=ORIENTED_EDGE('',*,*,#772,.F.);
#1083=ORIENTED_EDGE('',*,*,#785,.T.);
#1084=ORIENTED_EDGE('',*,*,#739,.F.);
#1085=ORIENTED_EDGE('',*,*,#788,.T.);
#1086=ORIENTED_EDGE('',*,*,#783,.T.);
#1087=ORIENTED_EDGE('',*,*,#742,.F.);
#1088=ORIENTED_EDGE('',*,*,#728,.F.);
#1089=ORIENTED_EDGE('',*,*,#769,.T.);
#1090=ORIENTED_EDGE('',*,*,#786,.T.);
#1091=ORIENTED_EDGE('',*,*,#784,.T.);
#1092=ORIENTED_EDGE('',*,*,#770,.F.);
#1093=ORIENTED_EDGE('',*,*,#726,.T.);
#1094=ORIENTED_EDGE('',*,*,#741,.F.);
#1095=ORIENTED_EDGE('',*,*,#790,.T.);
#1096=ORIENTED_EDGE('',*,*,#791,.F.);
#1097=ORIENTED_EDGE('',*,*,#749,.T.);
#1098=ORIENTED_EDGE('',*,*,#792,.F.);
#1099=ORIENTED_EDGE('',*,*,#762,.F.);
#1100=ORIENTED_EDGE('',*,*,#793,.F.);
#1101=ORIENTED_EDGE('',*,*,#745,.T.);
#1102=ORIENTED_EDGE('',*,*,#794,.F.);
#1103=ORIENTED_EDGE('',*,*,#766,.F.);
#1104=ORIENTED_EDGE('',*,*,#795,.F.);
#1105=ORIENTED_EDGE('',*,*,#796,.T.);
#1106=ORIENTED_EDGE('',*,*,#797,.F.);
#1107=ORIENTED_EDGE('',*,*,#796,.F.);
#1108=ORIENTED_EDGE('',*,*,#798,.F.);
#1109=ORIENTED_EDGE('',*,*,#799,.T.);
#1110=ORIENTED_EDGE('',*,*,#800,.F.);
#1111=ORIENTED_EDGE('',*,*,#799,.F.);
#1112=ORIENTED_EDGE('',*,*,#692,.F.);
#1113=ORIENTED_EDGE('',*,*,#767,.F.);
#1114=ORIENTED_EDGE('',*,*,#794,.T.);
#1115=ORIENTED_EDGE('',*,*,#744,.F.);
#1116=ORIENTED_EDGE('',*,*,#798,.T.);
#1117=ORIENTED_EDGE('',*,*,#792,.T.);
#1118=ORIENTED_EDGE('',*,*,#748,.F.);
#1119=ORIENTED_EDGE('',*,*,#782,.F.);
#1120=ORIENTED_EDGE('',*,*,#763,.T.);
#1121=ORIENTED_EDGE('',*,*,#795,.T.);
#1122=ORIENTED_EDGE('',*,*,#793,.T.);
#1123=ORIENTED_EDGE('',*,*,#765,.F.);
#1124=ORIENTED_EDGE('',*,*,#781,.T.);
#1125=ORIENTED_EDGE('',*,*,#746,.F.);
#1126=ORIENTED_EDGE('',*,*,#800,.T.);
#1127=ORIENTED_EDGE('',*,*,#684,.F.);
#1128=ORIENTED_EDGE('',*,*,#750,.F.);
#1129=ORIENTED_EDGE('',*,*,#791,.T.);
#1130=ORIENTED_EDGE('',*,*,#761,.T.);
#1131=ORIENTED_EDGE('',*,*,#797,.T.);
#1132=ORIENTED_EDGE('',*,*,#664,.F.);
#1133=ORIENTED_EDGE('',*,*,#738,.T.);
#1134=ORIENTED_EDGE('',*,*,#801,.F.);
#1135=ORIENTED_EDGE('',*,*,#751,.F.);
#1136=ORIENTED_EDGE('',*,*,#802,.F.);
#1137=ORIENTED_EDGE('',*,*,#735,.T.);
#1138=ORIENTED_EDGE('',*,*,#803,.F.);
#1139=ORIENTED_EDGE('',*,*,#754,.F.);
#1140=ORIENTED_EDGE('',*,*,#804,.F.);
#1141=ORIENTED_EDGE('',*,*,#805,.T.);
#1142=ORIENTED_EDGE('',*,*,#666,.F.);
#1143=ORIENTED_EDGE('',*,*,#805,.F.);
#1144=ORIENTED_EDGE('',*,*,#806,.F.);
#1145=ORIENTED_EDGE('',*,*,#807,.T.);
#1146=ORIENTED_EDGE('',*,*,#808,.F.);
#1147=ORIENTED_EDGE('',*,*,#807,.F.);
#1148=ORIENTED_EDGE('',*,*,#668,.F.);
#1149=ORIENTED_EDGE('',*,*,#755,.F.);
#1150=ORIENTED_EDGE('',*,*,#803,.T.);
#1151=ORIENTED_EDGE('',*,*,#734,.F.);
#1152=ORIENTED_EDGE('',*,*,#806,.T.);
#1153=ORIENTED_EDGE('',*,*,#801,.T.);
#1154=ORIENTED_EDGE('',*,*,#737,.F.);
#1155=ORIENTED_EDGE('',*,*,#724,.F.);
#1156=ORIENTED_EDGE('',*,*,#752,.T.);
#1157=ORIENTED_EDGE('',*,*,#804,.T.);
#1158=ORIENTED_EDGE('',*,*,#802,.T.);
#1159=ORIENTED_EDGE('',*,*,#753,.F.);
#1160=ORIENTED_EDGE('',*,*,#722,.T.);
#1161=ORIENTED_EDGE('',*,*,#736,.F.);
#1162=ORIENTED_EDGE('',*,*,#808,.T.);
#1163=CYLINDRICAL_SURFACE('',#1268,1.);
#1164=CYLINDRICAL_SURFACE('',#1272,3.);
#1165=CYLINDRICAL_SURFACE('',#1277,3.);
#1166=CYLINDRICAL_SURFACE('',#1281,5.);
#1167=CYLINDRICAL_SURFACE('',#1284,5.);
#1168=CYLINDRICAL_SURFACE('',#1287,2.);
#1169=CYLINDRICAL_SURFACE('',#1293,2.);
#1170=CYLINDRICAL_SURFACE('',#1299,2.);
#1171=CYLINDRICAL_SURFACE('',#1305,2.);
#1172=CYLINDRICAL_SURFACE('',#1311,2.);
#1173=CYLINDRICAL_SURFACE('',#1317,3.375);
#1174=CYLINDRICAL_SURFACE('',#1320,3.375);
#1175=CYLINDRICAL_SURFACE('',#1322,0.925);
#1176=CYLINDRICAL_SURFACE('',#1325,0.925);
#1177=CYLINDRICAL_SURFACE('',#1335,3.375);
#1178=CYLINDRICAL_SURFACE('',#1337,3.375);
#1179=CYLINDRICAL_SURFACE('',#1339,0.925);
#1180=CYLINDRICAL_SURFACE('',#1341,0.925);
#1181=CYLINDRICAL_SURFACE('',#1347,3.375);
#1182=CYLINDRICAL_SURFACE('',#1349,3.375);
#1183=CYLINDRICAL_SURFACE('',#1352,0.925);
#1184=CYLINDRICAL_SURFACE('',#1354,0.925);
#1185=CYLINDRICAL_SURFACE('',#1360,3.375);
#1186=CYLINDRICAL_SURFACE('',#1363,3.375);
#1187=CYLINDRICAL_SURFACE('',#1366,0.925);
#1188=CYLINDRICAL_SURFACE('',#1369,0.925);
#1189=CYLINDRICAL_SURFACE('',#1376,3.375);
#1190=CYLINDRICAL_SURFACE('',#1378,3.375);
#1191=CYLINDRICAL_SURFACE('',#1381,0.925);
#1192=CYLINDRICAL_SURFACE('',#1383,0.925);
#1193=ADVANCED_FACE('',(#72),#1163,.F.);
#1194=ADVANCED_FACE('',(#73),#41,.T.);
#1195=ADVANCED_FACE('',(#74),#1164,.T.);
#1196=ADVANCED_FACE('',(#75),#42,.T.);
#1197=ADVANCED_FACE('',(#76),#43,.T.);
#1198=ADVANCED_FACE('',(#77),#1165,.T.);
#1199=ADVANCED_FACE('',(#78),#44,.T.);
#1200=ADVANCED_FACE('',(#79),#1166,.F.);
#1201=ADVANCED_FACE('',(#80),#1167,.F.);
#1202=ADVANCED_FACE('',(#81),#1168,.F.);
#1203=ADVANCED_FACE('',(#82,#15),#45,.T.);
#1204=ADVANCED_FACE('',(#83),#1169,.F.);
#1205=ADVANCED_FACE('',(#84,#16),#46,.T.);
#1206=ADVANCED_FACE('',(#85),#1170,.F.);
#1207=ADVANCED_FACE('',(#86,#17),#47,.T.);
#1208=ADVANCED_FACE('',(#87),#1171,.F.);
#1209=ADVANCED_FACE('',(#88,#18),#48,.T.);
#1210=ADVANCED_FACE('',(#89),#1172,.F.);
#1211=ADVANCED_FACE('',(#90,#19),#49,.T.);
#1212=ADVANCED_FACE('',(#91),#1173,.T.);
#1213=ADVANCED_FACE('',(#92),#1174,.T.);
#1214=ADVANCED_FACE('',(#93),#1175,.F.);
#1215=ADVANCED_FACE('',(#94),#1176,.F.);
#1216=ADVANCED_FACE('',(#95,#20),#50,.T.);
#1217=ADVANCED_FACE('',(#96),#51,.T.);
#1218=ADVANCED_FACE('',(#97,#21),#52,.T.);
#1219=ADVANCED_FACE('',(#98,#22),#53,.T.);
#1220=ADVANCED_FACE('',(#99),#54,.T.);
#1221=ADVANCED_FACE('',(#100),#55,.T.);
#1222=ADVANCED_FACE('',(#101,#23,#24,#25),#56,.T.);
#1223=ADVANCED_FACE('',(#102,#26,#27,#28),#57,.F.);
#1224=ADVANCED_FACE('',(#103),#1177,.T.);
#1225=ADVANCED_FACE('',(#104),#1178,.T.);
#1226=ADVANCED_FACE('',(#105),#1179,.F.);
#1227=ADVANCED_FACE('',(#106),#1180,.F.);
#1228=ADVANCED_FACE('',(#107,#29),#58,.T.);
#1229=ADVANCED_FACE('',(#108),#59,.T.);
#1230=ADVANCED_FACE('',(#109,#30),#60,.T.);
#1231=ADVANCED_FACE('',(#110),#61,.T.);
#1232=ADVANCED_FACE('',(#111),#1181,.T.);
#1233=ADVANCED_FACE('',(#112),#1182,.T.);
#1234=ADVANCED_FACE('',(#113),#1183,.F.);
#1235=ADVANCED_FACE('',(#114),#1184,.F.);
#1236=ADVANCED_FACE('',(#115,#31),#62,.T.);
#1237=ADVANCED_FACE('',(#116,#32),#63,.T.);
#1238=ADVANCED_FACE('',(#117,#33),#64,.T.);
#1239=ADVANCED_FACE('',(#118),#1185,.T.);
#1240=ADVANCED_FACE('',(#119),#1186,.T.);
#1241=ADVANCED_FACE('',(#120),#1187,.F.);
#1242=ADVANCED_FACE('',(#121),#1188,.F.);
#1243=ADVANCED_FACE('',(#122,#34),#65,.T.);
#1244=ADVANCED_FACE('',(#123,#35),#66,.T.);
#1245=ADVANCED_FACE('',(#124,#36),#67,.T.);
#1246=ADVANCED_FACE('',(#125,#37),#68,.T.);
#1247=ADVANCED_FACE('',(#126),#1189,.T.);
#1248=ADVANCED_FACE('',(#127),#1190,.T.);
#1249=ADVANCED_FACE('',(#128),#1191,.F.);
#1250=ADVANCED_FACE('',(#129),#1192,.F.);
#1251=ADVANCED_FACE('',(#130,#38),#69,.T.);
#1252=ADVANCED_FACE('',(#131,#39),#70,.T.);
#1253=ADVANCED_FACE('',(#132,#40),#71,.T.);
#1254=CLOSED_SHELL('',(#1193,#1194,#1195,#1196,#1197,#1198,#1199,#1200,
#1201,#1202,#1203,#1204,#1205,#1206,#1207,#1208,#1209,#1210,#1211,#1212,
#1213,#1214,#1215,#1216,#1217,#1218,#1219,#1220,#1221,#1222,#1223,#1224,
#1225,#1226,#1227,#1228,#1229,#1230,#1231,#1232,#1233,#1234,#1235,#1236,
#1237,#1238,#1239,#1240,#1241,#1242,#1243,#1244,#1245,#1246,#1247,#1248,
#1249,#1250,#1251,#1252,#1253));
#1255=DERIVED_UNIT_ELEMENT(#1257,1.);
#1256=DERIVED_UNIT_ELEMENT(#2112,-3.);
#1257=(
MASS_UNIT()
NAMED_UNIT(*)
SI_UNIT(.KILO.,.GRAM.)
);
#1258=DERIVED_UNIT((#1255,#1256));
#1259=MEASURE_REPRESENTATION_ITEM('density measure',
POSITIVE_RATIO_MEASURE(7850.),#1258);
#1260=PROPERTY_DEFINITION_REPRESENTATION(#1265,#1262);
#1261=PROPERTY_DEFINITION_REPRESENTATION(#1266,#1263);
#1262=REPRESENTATION('material name',(#1264),#2109);
#1263=REPRESENTATION('density',(#1259),#2109);
#1264=DESCRIPTIVE_REPRESENTATION_ITEM('Steel','Steel');
#1265=PROPERTY_DEFINITION('material property','material name',#2119);
#1266=PROPERTY_DEFINITION('material property','density of part',#2119);
#1267=AXIS2_PLACEMENT_3D('',#1750,#1389,#1390);
#1268=AXIS2_PLACEMENT_3D('',#1751,#1391,#1392);
#1269=AXIS2_PLACEMENT_3D('',#1753,#1393,#1394);
#1270=AXIS2_PLACEMENT_3D('',#1756,#1396,#1397);
#1271=AXIS2_PLACEMENT_3D('',#1757,#1398,#1399);
#1272=AXIS2_PLACEMENT_3D('',#1766,#1404,#1405);
#1273=AXIS2_PLACEMENT_3D('',#1768,#1406,#1407);
#1274=AXIS2_PLACEMENT_3D('',#1770,#1408,#1409);
#1275=AXIS2_PLACEMENT_3D('',#1772,#1411,#1412);
#1276=AXIS2_PLACEMENT_3D('',#1778,#1416,#1417);
#1277=AXIS2_PLACEMENT_3D('',#1787,#1422,#1423);
#1278=AXIS2_PLACEMENT_3D('',#1789,#1424,#1425);
#1279=AXIS2_PLACEMENT_3D('',#1791,#1426,#1427);
#1280=AXIS2_PLACEMENT_3D('',#1793,#1429,#1430);
#1281=AXIS2_PLACEMENT_3D('',#1799,#1434,#1435);
#1282=AXIS2_PLACEMENT_3D('',#1800,#1436,#1437);
#1283=AXIS2_PLACEMENT_3D('',#1801,#1438,#1439);
#1284=AXIS2_PLACEMENT_3D('',#1802,#1440,#1441);
#1285=AXIS2_PLACEMENT_3D('',#1803,#1442,#1443);
#1286=AXIS2_PLACEMENT_3D('',#1804,#1444,#1445);
#1287=AXIS2_PLACEMENT_3D('',#1805,#1446,#1447);
#1288=AXIS2_PLACEMENT_3D('',#1808,#1448,#1449);
#1289=AXIS2_PLACEMENT_3D('',#1812,#1451,#1452);
#1290=AXIS2_PLACEMENT_3D('',#1814,#1454,#1455);
#1291=AXIS2_PLACEMENT_3D('',#1818,#1457,#1458);
#1292=AXIS2_PLACEMENT_3D('',#1821,#1460,#1461);
#1293=AXIS2_PLACEMENT_3D('',#1822,#1462,#1463);
#1294=AXIS2_PLACEMENT_3D('',#1825,#1464,#1465);
#1295=AXIS2_PLACEMENT_3D('',#1829,#1467,#1468);
#1296=AXIS2_PLACEMENT_3D('',#1831,#1470,#1471);
#1297=AXIS2_PLACEMENT_3D('',#1835,#1473,#1474);
#1298=AXIS2_PLACEMENT_3D('',#1838,#1476,#1477);
#1299=AXIS2_PLACEMENT_3D('',#1839,#1478,#1479);
#1300=AXIS2_PLACEMENT_3D('',#1842,#1480,#1481);
#1301=AXIS2_PLACEMENT_3D('',#1846,#1483,#1484);
#1302=AXIS2_PLACEMENT_3D('',#1848,#1486,#1487);
#1303=AXIS2_PLACEMENT_3D('',#1852,#1489,#1490);
#1304=AXIS2_PLACEMENT_3D('',#1855,#1492,#1493);
#1305=AXIS2_PLACEMENT_3D('',#1856,#1494,#1495);
#1306=AXIS2_PLACEMENT_3D('',#1859,#1496,#1497);
#1307=AXIS2_PLACEMENT_3D('',#1863,#1499,#1500);
#1308=AXIS2_PLACEMENT_3D('',#1865,#1502,#1503);
#1309=AXIS2_PLACEMENT_3D('',#1869,#1505,#1506);
#1310=AXIS2_PLACEMENT_3D('',#1872,#1508,#1509);
#1311=AXIS2_PLACEMENT_3D('',#1873,#1510,#1511);
#1312=AXIS2_PLACEMENT_3D('',#1876,#1512,#1513);
#1313=AXIS2_PLACEMENT_3D('',#1880,#1515,#1516);
#1314=AXIS2_PLACEMENT_3D('',#1882,#1518,#1519);
#1315=AXIS2_PLACEMENT_3D('',#1886,#1521,#1522);
#1316=AXIS2_PLACEMENT_3D('',#1889,#1524,#1525);
#1317=AXIS2_PLACEMENT_3D('',#1890,#1526,#1527);
#1318=AXIS2_PLACEMENT_3D('',#1893,#1528,#1529);
#1319=AXIS2_PLACEMENT_3D('',#1897,#1531,#1532);
#1320=AXIS2_PLACEMENT_3D('',#1899,#1534,#1535);
#1321=AXIS2_PLACEMENT_3D('',#1902,#1536,#1537);
#1322=AXIS2_PLACEMENT_3D('',#1905,#1540,#1541);
#1323=AXIS2_PLACEMENT_3D('',#1907,#1542,#1543);
#1324=AXIS2_PLACEMENT_3D('',#1910,#1545,#1546);
#1325=AXIS2_PLACEMENT_3D('',#1911,#1547,#1548);
#1326=AXIS2_PLACEMENT_3D('',#1914,#1550,#1551);
#1327=AXIS2_PLACEMENT_3D('',#1915,#1552,#1553);
#1328=AXIS2_PLACEMENT_3D('',#1921,#1557,#1558);
#1329=AXIS2_PLACEMENT_3D('',#1927,#1562,#1563);
#1330=AXIS2_PLACEMENT_3D('',#1930,#1566,#1567);
#1331=AXIS2_PLACEMENT_3D('',#1933,#1570,#1571);
#1332=AXIS2_PLACEMENT_3D('',#1942,#1576,#1577);
#1333=AXIS2_PLACEMENT_3D('',#1951,#1582,#1583);
#1334=AXIS2_PLACEMENT_3D('',#1990,#1606,#1607);
#1335=AXIS2_PLACEMENT_3D('',#2029,#1630,#1631);
#1336=AXIS2_PLACEMENT_3D('',#2030,#1632,#1633);
#1337=AXIS2_PLACEMENT_3D('',#2031,#1634,#1635);
#1338=AXIS2_PLACEMENT_3D('',#2032,#1636,#1637);
#1339=AXIS2_PLACEMENT_3D('',#2033,#1638,#1639);
#1340=AXIS2_PLACEMENT_3D('',#2035,#1640,#1641);
#1341=AXIS2_PLACEMENT_3D('',#2037,#1643,#1644);
#1342=AXIS2_PLACEMENT_3D('',#2040,#1646,#1647);
#1343=AXIS2_PLACEMENT_3D('',#2041,#1648,#1649);
#1344=AXIS2_PLACEMENT_3D('',#2043,#1651,#1652);
#1345=AXIS2_PLACEMENT_3D('',#2045,#1654,#1655);
#1346=AXIS2_PLACEMENT_3D('',#2046,#1656,#1657);
#1347=AXIS2_PLACEMENT_3D('',#2049,#1660,#1661);
#1348=AXIS2_PLACEMENT_3D('',#2050,#1662,#1663);
#1349=AXIS2_PLACEMENT_3D('',#2051,#1664,#1665);
#1350=AXIS2_PLACEMENT_3D('',#2052,#1666,#1667);
#1351=AXIS2_PLACEMENT_3D('',#2053,#1668,#1669);
#1352=AXIS2_PLACEMENT_3D('',#2054,#1670,#1671);
#1353=AXIS2_PLACEMENT_3D('',#2056,#1672,#1673);
#1354=AXIS2_PLACEMENT_3D('',#2058,#1675,#1676);
#1355=AXIS2_PLACEMENT_3D('',#2060,#1677,#1678);
#1356=AXIS2_PLACEMENT_3D('',#2063,#1680,#1681);
#1357=AXIS2_PLACEMENT_3D('',#2064,#1682,#1683);
#1358=AXIS2_PLACEMENT_3D('',#2065,#1684,#1685);
#1359=AXIS2_PLACEMENT_3D('',#2066,#1686,#1687);
#1360=AXIS2_PLACEMENT_3D('',#2067,#1688,#1689);
#1361=AXIS2_PLACEMENT_3D('',#2068,#1690,#1691);
#1362=AXIS2_PLACEMENT_3D('',#2069,#1692,#1693);
#1363=AXIS2_PLACEMENT_3D('',#2070,#1694,#1695);
#1364=AXIS2_PLACEMENT_3D('',#2071,#1696,#1697);
#1365=AXIS2_PLACEMENT_3D('',#2072,#1698,#1699);
#1366=AXIS2_PLACEMENT_3D('',#2073,#1700,#1701);
#1367=AXIS2_PLACEMENT_3D('',#2075,#1702,#1703);
#1368=AXIS2_PLACEMENT_3D('',#2078,#1705,#1706);
#1369=AXIS2_PLACEMENT_3D('',#2079,#1707,#1708);
#1370=AXIS2_PLACEMENT_3D('',#2081,#1709,#1710);
#1371=AXIS2_PLACEMENT_3D('',#2084,#1712,#1713);
#1372=AXIS2_PLACEMENT_3D('',#2085,#1714,#1715);
#1373=AXIS2_PLACEMENT_3D('',#2086,#1716,#1717);
#1374=AXIS2_PLACEMENT_3D('',#2087,#1718,#1719);
#1375=AXIS2_PLACEMENT_3D('',#2088,#1720,#1721);
#1376=AXIS2_PLACEMENT_3D('',#2089,#1722,#1723);
#1377=AXIS2_PLACEMENT_3D('',#2090,#1724,#1725);
#1378=AXIS2_PLACEMENT_3D('',#2091,#1726,#1727);
#1379=AXIS2_PLACEMENT_3D('',#2092,#1728,#1729);
#1380=AXIS2_PLACEMENT_3D('',#2093,#1730,#1731);
#1381=AXIS2_PLACEMENT_3D('',#2094,#1732,#1733);
#1382=AXIS2_PLACEMENT_3D('',#2096,#1734,#1735);
#1383=AXIS2_PLACEMENT_3D('',#2098,#1737,#1738);
#1384=AXIS2_PLACEMENT_3D('',#2100,#1739,#1740);
#1385=AXIS2_PLACEMENT_3D('',#2103,#1742,#1743);
#1386=AXIS2_PLACEMENT_3D('',#2104,#1744,#1745);
#1387=AXIS2_PLACEMENT_3D('',#2105,#1746,#1747);
#1388=AXIS2_PLACEMENT_3D('',#2106,#1748,#1749);
#1389=DIRECTION('axis',(0.,0.,1.));
#1390=DIRECTION('refdir',(1.,0.,0.));
#1391=DIRECTION('center_axis',(0.,0.,1.));
#1392=DIRECTION('ref_axis',(1.,0.,0.));
#1393=DIRECTION('center_axis',(0.,0.,1.));
#1394=DIRECTION('ref_axis',(1.,0.,0.));
#1395=DIRECTION('',(0.,0.,1.));
#1396=DIRECTION('center_axis',(0.,0.,-1.));
#1397=DIRECTION('ref_axis',(1.,0.,0.));
#1398=DIRECTION('center_axis',(-1.,0.,0.));
#1399=DIRECTION('ref_axis',(0.,1.,0.));
#1400=DIRECTION('',(0.,-1.,0.));
#1401=DIRECTION('',(0.,0.,1.));
#1402=DIRECTION('',(0.,1.,0.));
#1403=DIRECTION('',(0.,0.,-1.));
#1404=DIRECTION('center_axis',(0.,0.,-1.));
#1405=DIRECTION('ref_axis',(-1.,0.,0.));
#1406=DIRECTION('center_axis',(0.,0.,1.));
#1407=DIRECTION('ref_axis',(-1.,0.,0.));
#1408=DIRECTION('center_axis',(0.,0.,-1.));
#1409=DIRECTION('ref_axis',(-1.,0.,0.));
#1410=DIRECTION('',(0.,0.,-1.));
#1411=DIRECTION('center_axis',(-1.,0.,0.));
#1412=DIRECTION('ref_axis',(0.,1.,0.));
#1413=DIRECTION('',(0.,-1.,0.));
#1414=DIRECTION('',(0.,1.,0.));
#1415=DIRECTION('',(0.,0.,-1.));
#1416=DIRECTION('center_axis',(1.,0.,0.));
#1417=DIRECTION('ref_axis',(0.,-1.,0.));
#1418=DIRECTION('',(0.,1.,0.));
#1419=DIRECTION('',(0.,0.,1.));
#1420=DIRECTION('',(0.,-1.,0.));
#1421=DIRECTION('',(0.,0.,-1.));
#1422=DIRECTION('center_axis',(0.,0.,-1.));
#1423=DIRECTION('ref_axis',(1.,1.22464679914735E-16,0.));
#1424=DIRECTION('center_axis',(0.,0.,1.));
#1425=DIRECTION('ref_axis',(-1.,0.,0.));
#1426=DIRECTION('center_axis',(0.,0.,-1.));
#1427=DIRECTION('ref_axis',(-1.,0.,0.));
#1428=DIRECTION('',(0.,0.,-1.));
#1429=DIRECTION('center_axis',(1.,0.,0.));
#1430=DIRECTION('ref_axis',(0.,-1.,0.));
#1431=DIRECTION('',(0.,1.,0.));
#1432=DIRECTION('',(0.,-1.,0.));
#1433=DIRECTION('',(0.,0.,-1.));
#1434=DIRECTION('center_axis',(0.,0.,1.));
#1435=DIRECTION('ref_axis',(-1.,1.11022302462516E-16,0.));
#1436=DIRECTION('center_axis',(0.,0.,-1.));
#1437=DIRECTION('ref_axis',(0.309016994374947,-0.951056516295154,0.));
#1438=DIRECTION('center_axis',(0.,0.,-1.));
#1439=DIRECTION('ref_axis',(0.309016994374947,-0.951056516295154,0.));
#1440=DIRECTION('center_axis',(0.,0.,1.));
#1441=DIRECTION('ref_axis',(0.309016994374947,-0.951056516295154,0.));
#1442=DIRECTION('center_axis',(0.,0.,-1.));
#1443=DIRECTION('ref_axis',(0.309016994374947,-0.951056516295154,0.));
#1444=DIRECTION('center_axis',(0.,0.,-1.));
#1445=DIRECTION('ref_axis',(0.309016994374947,-0.951056516295154,0.));
#1446=DIRECTION('center_axis',(0.,0.,-1.));
#1447=DIRECTION('ref_axis',(-0.309016994374947,0.951056516295154,0.));
#1448=DIRECTION('center_axis',(0.,0.,-1.));
#1449=DIRECTION('ref_axis',(-0.309016994374947,0.951056516295154,0.));
#1450=DIRECTION('',(0.,0.,1.));
#1451=DIRECTION('center_axis',(0.,0.,1.));
#1452=DIRECTION('ref_axis',(-0.309016994374947,0.951056516295154,0.));
#1453=DIRECTION('',(0.,0.,-1.));
#1454=DIRECTION('center_axis',(0.309016994374947,-0.951056516295154,0.));
#1455=DIRECTION('ref_axis',(0.951056516295154,0.309016994374947,0.));
#1456=DIRECTION('',(0.951056516295154,0.309016994374947,0.));
#1457=DIRECTION('center_axis',(0.309016994374947,-0.951056516295154,0.));
#1458=DIRECTION('ref_axis',(0.951056516295154,0.309016994374947,0.));
#1459=DIRECTION('',(0.951056516295154,0.309016994374947,0.));
#1460=DIRECTION('center_axis',(-0.309016994374947,0.951056516295154,0.));
#1461=DIRECTION('ref_axis',(0.951056516295154,0.309016994374947,0.));
#1462=DIRECTION('center_axis',(0.,0.,-1.));
#1463=DIRECTION('ref_axis',(0.809016994374948,0.587785252292473,0.));
#1464=DIRECTION('center_axis',(0.,0.,-1.));
#1465=DIRECTION('ref_axis',(0.809016994374948,0.587785252292473,0.));
#1466=DIRECTION('',(0.,0.,1.));
#1467=DIRECTION('center_axis',(0.,0.,1.));
#1468=DIRECTION('ref_axis',(0.809016994374948,0.587785252292473,0.));
#1469=DIRECTION('',(0.,0.,-1.));
#1470=DIRECTION('center_axis',(-0.809016994374948,-0.587785252292473,0.));
#1471=DIRECTION('ref_axis',(0.587785252292473,-0.809016994374947,0.));
#1472=DIRECTION('',(0.587785252292473,-0.809016994374947,0.));
#1473=DIRECTION('center_axis',(-0.809016994374948,-0.587785252292473,0.));
#1474=DIRECTION('ref_axis',(0.587785252292473,-0.809016994374948,0.));
#1475=DIRECTION('',(0.587785252292473,-0.809016994374947,0.));
#1476=DIRECTION('center_axis',(0.809016994374948,0.587785252292473,0.));
#1477=DIRECTION('ref_axis',(0.587785252292473,-0.809016994374947,0.));
#1478=DIRECTION('center_axis',(0.,0.,1.));
#1479=DIRECTION('ref_axis',(-0.809016994374948,-0.587785252292473,0.));
#1480=DIRECTION('center_axis',(0.,0.,1.));
#1481=DIRECTION('ref_axis',(-0.809016994374948,-0.587785252292473,0.));
#1482=DIRECTION('',(0.,0.,-1.));
#1483=DIRECTION('center_axis',(0.,0.,-1.));
#1484=DIRECTION('ref_axis',(-0.809016994374948,-0.587785252292473,0.));
#1485=DIRECTION('',(0.,0.,1.));
#1486=DIRECTION('center_axis',(0.809016994374947,0.587785252292473,0.));
#1487=DIRECTION('ref_axis',(-0.587785252292473,0.809016994374947,0.));
#1488=DIRECTION('',(0.587785252292473,-0.809016994374947,0.));
#1489=DIRECTION('center_axis',(0.809016994374947,0.587785252292473,0.));
#1490=DIRECTION('ref_axis',(0.587785252292473,-0.809016994374948,0.));
#1491=DIRECTION('',(-0.587785252292473,0.809016994374947,0.));
#1492=DIRECTION('center_axis',(-0.809016994374947,-0.587785252292473,0.));
#1493=DIRECTION('ref_axis',(0.587785252292473,-0.809016994374947,0.));
#1494=DIRECTION('center_axis',(0.,0.,1.));
#1495=DIRECTION('ref_axis',(-0.809016994374948,0.587785252292473,0.));
#1496=DIRECTION('center_axis',(0.,0.,1.));
#1497=DIRECTION('ref_axis',(-0.809016994374948,0.587785252292473,0.));
#1498=DIRECTION('',(0.,0.,-1.));
#1499=DIRECTION('center_axis',(0.,0.,-1.));
#1500=DIRECTION('ref_axis',(-0.809016994374948,0.587785252292473,0.));
#1501=DIRECTION('',(0.,0.,1.));
#1502=DIRECTION('center_axis',(0.809016994374947,-0.587785252292473,0.));
#1503=DIRECTION('ref_axis',(0.587785252292473,0.809016994374947,0.));
#1504=DIRECTION('',(-0.587785252292473,-0.809016994374947,0.));
#1505=DIRECTION('center_axis',(0.809016994374947,-0.587785252292473,0.));
#1506=DIRECTION('ref_axis',(-0.587785252292473,-0.809016994374947,0.));
#1507=DIRECTION('',(0.587785252292473,0.809016994374947,0.));
#1508=DIRECTION('center_axis',(-0.809016994374947,0.587785252292473,0.));
#1509=DIRECTION('ref_axis',(-0.587785252292473,-0.809016994374947,0.));
#1510=DIRECTION('center_axis',(0.,0.,-1.));
#1511=DIRECTION('ref_axis',(-1.,0.,0.));
#1512=DIRECTION('center_axis',(0.,0.,-1.));
#1513=DIRECTION('ref_axis',(-1.,0.,0.));
#1514=DIRECTION('',(0.,0.,1.));
#1515=DIRECTION('center_axis',(0.,0.,1.));
#1516=DIRECTION('ref_axis',(-1.,0.,0.));
#1517=DIRECTION('',(0.,0.,-1.));
#1518=DIRECTION('center_axis',(1.,0.,0.));
#1519=DIRECTION('ref_axis',(0.,1.,0.));
#1520=DIRECTION('',(0.,1.,0.));
#1521=DIRECTION('center_axis',(1.,0.,0.));
#1522=DIRECTION('ref_axis',(0.,1.,0.));
#1523=DIRECTION('',(0.,1.,0.));
#1524=DIRECTION('center_axis',(-1.,0.,0.));
#1525=DIRECTION('ref_axis',(0.,1.,0.));
#1526=DIRECTION('center_axis',(-0.809016994374947,0.587785252292473,0.));
#1527=DIRECTION('ref_axis',(0.587785252292473,0.809016994374947,1.22464679914735E-16));
#1528=DIRECTION('center_axis',(-0.809016994374947,0.587785252292473,0.));
#1529=DIRECTION('ref_axis',(-0.587785252292473,-0.809016994374947,0.));
#1530=DIRECTION('',(0.809016994374947,-0.587785252292473,0.));
#1531=DIRECTION('center_axis',(0.809016994374947,-0.587785252292473,0.));
#1532=DIRECTION('ref_axis',(-0.587785252292473,-0.809016994374947,0.));
#1533=DIRECTION('',(0.809016994374947,-0.587785252292473,0.));
#1534=DIRECTION('center_axis',(-0.809016994374947,0.587785252292473,0.));
#1535=DIRECTION('ref_axis',(0.587785252292473,0.809016994374947,1.22464679914735E-16));
#1536=DIRECTION('center_axis',(-0.809016994374947,0.587785252292473,0.));
#1537=DIRECTION('ref_axis',(-0.587785252292473,-0.809016994374947,0.));
#1538=DIRECTION('',(0.809016994374947,-0.587785252292473,0.));
#1539=DIRECTION('',(0.809016994374947,-0.587785252292473,0.));
#1540=DIRECTION('center_axis',(-0.809016994374947,0.587785252292473,0.));
#1541=DIRECTION('ref_axis',(-0.587785252292473,-0.809016994374947,0.));
#1542=DIRECTION('center_axis',(-0.809016994374947,0.587785252292473,0.));
#1543=DIRECTION('ref_axis',(-0.587785252292473,-0.809016994374947,0.));
#1544=DIRECTION('',(-0.809016994374947,0.587785252292473,0.));
#1545=DIRECTION('center_axis',(0.809016994374947,-0.587785252292473,0.));
#1546=DIRECTION('ref_axis',(-0.587785252292473,-0.809016994374947,0.));
#1547=DIRECTION('center_axis',(-0.809016994374947,0.587785252292473,0.));
#1548=DIRECTION('ref_axis',(-0.587785252292473,-0.809016994374947,0.));
#1549=DIRECTION('',(-0.809016994374947,0.587785252292473,0.));
#1550=DIRECTION('center_axis',(0.809016994374947,-0.587785252292473,0.));
#1551=DIRECTION('ref_axis',(-0.587785252292473,-0.809016994374947,0.));
#1552=DIRECTION('center_axis',(0.809016994374947,-0.587785252292473,0.));
#1553=DIRECTION('ref_axis',(0.587785252292473,0.809016994374947,0.));
#1554=DIRECTION('',(0.587785252292473,0.809016994374947,0.));
#1555=DIRECTION('',(0.,0.,1.));
#1556=DIRECTION('',(0.587785252292473,0.809016994374947,0.));
#1557=DIRECTION('center_axis',(0.587785252292473,0.809016994374947,0.));
#1558=DIRECTION('ref_axis',(-0.809016994374947,0.587785252292473,0.));
#1559=DIRECTION('',(-0.809016994374947,0.587785252292473,0.));
#1560=DIRECTION('',(0.,0.,1.));
#1561=DIRECTION('',(0.809016994374947,-0.587785252292473,0.));
#1562=DIRECTION('center_axis',(-0.809016994374947,0.587785252292473,0.));
#1563=DIRECTION('ref_axis',(-0.587785252292473,-0.809016994374947,0.));
#1564=DIRECTION('',(0.587785252292473,0.809016994374947,0.));
#1565=DIRECTION('',(-0.587785252292473,-0.809016994374947,0.));
#1566=DIRECTION('center_axis',(-0.809016994374947,0.587785252292473,0.));
#1567=DIRECTION('ref_axis',(-0.587785252292473,-0.809016994374947,0.));
#1568=DIRECTION('',(-0.587785252292473,-0.809016994374947,0.));
#1569=DIRECTION('',(-0.587785252292473,-0.809016994374947,0.));
#1570=DIRECTION('center_axis',(-0.951056516295154,-0.309016994374947,0.));
#1571=DIRECTION('ref_axis',(0.309016994374947,-0.951056516295154,0.));
#1572=DIRECTION('',(0.309016994374947,-0.951056516295154,0.));
#1573=DIRECTION('',(0.,0.,1.));
#1574=DIRECTION('',(-0.309016994374947,0.951056516295154,0.));
#1575=DIRECTION('',(0.,0.,1.));
#1576=DIRECTION('center_axis',(0.,-1.,0.));
#1577=DIRECTION('ref_axis',(1.,0.,0.));
#1578=DIRECTION('',(1.,0.,0.));
#1579=DIRECTION('',(0.,0.,1.));
#1580=DIRECTION('',(-1.,0.,0.));
#1581=DIRECTION('',(0.,0.,1.));
#1582=DIRECTION('center_axis',(0.,0.,1.));
#1583=DIRECTION('ref_axis',(0.309016994374947,-0.951056516295154,0.));
#1584=DIRECTION('',(0.809016994374947,0.587785252292473,0.));
#1585=DIRECTION('',(0.587785252292473,-0.809016994374947,0.));
#1586=DIRECTION('',(-0.809016994374947,-0.587785252292473,0.));
#1587=DIRECTION('',(-0.587785252292473,0.809016994374947,0.));
#1588=DIRECTION('',(0.809016994374947,0.587785252292473,0.));
#1589=DIRECTION('',(-0.951056516295154,-0.309016994374947,0.));
#1590=DIRECTION('',(-0.309016994374947,0.951056516295154,0.));
#1591=DIRECTION('',(0.951056516295154,0.309016994374947,0.));
#1592=DIRECTION('',(-0.951056516295154,-0.309016994374947,0.));
#1593=DIRECTION('',(-0.309016994374947,0.951056516295154,0.));
#1594=DIRECTION('',(1.40433036354774E-16,-1.,0.));
#1595=DIRECTION('',(-1.,0.,0.));
#1596=DIRECTION('',(0.,1.,0.));
#1597=DIRECTION('',(1.2335811384724E-16,-1.,0.));
#1598=DIRECTION('',(-1.,0.,0.));
#1599=DIRECTION('',(0.951056516295154,-0.309016994374947,0.));
#1600=DIRECTION('',(-0.309016994374948,-0.951056516295154,0.));
#1601=DIRECTION('',(-0.951056516295154,0.309016994374948,0.));
#1602=DIRECTION('',(0.309016994374948,0.951056516295154,0.));
#1603=DIRECTION('',(0.951056516295154,-0.309016994374947,0.));
#1604=DIRECTION('',(-0.309016994374948,-0.951056516295154,0.));
#1605=DIRECTION('',(-0.951056516295154,0.309016994374948,0.));
#1606=DIRECTION('center_axis',(0.,0.,1.));
#1607=DIRECTION('ref_axis',(0.309016994374947,-0.951056516295154,0.));
#1608=DIRECTION('',(-0.309016994374947,0.951056516295154,0.));
#1609=DIRECTION('',(-0.951056516295154,-0.309016994374947,0.));
#1610=DIRECTION('',(-0.951056516295154,-0.309016994374947,0.));
#1611=DIRECTION('',(-0.309016994374947,0.951056516295154,0.));
#1612=DIRECTION('',(0.951056516295154,0.309016994374947,0.));
#1613=DIRECTION('',(0.809016994374947,0.587785252292473,0.));
#1614=DIRECTION('',(-0.587785252292473,0.809016994374947,0.));
#1615=DIRECTION('',(0.809016994374947,0.587785252292473,0.));
#1616=DIRECTION('',(-0.587785252292473,0.809016994374947,0.));
#1617=DIRECTION('',(0.809016994374947,0.587785252292473,0.));
#1618=DIRECTION('',(-0.951056516295154,0.309016994374948,0.));
#1619=DIRECTION('',(-0.309016994374948,-0.951056516295154,0.));
#1620=DIRECTION('',(0.951056516295154,-0.309016994374947,0.));
#1621=DIRECTION('',(-0.309016994374948,-0.951056516295154,0.));
#1622=DIRECTION('',(0.951056516295154,-0.309016994374948,0.));
#1623=DIRECTION('',(-0.309016994374948,-0.951056516295154,0.));
#1624=DIRECTION('',(-0.951056516295154,0.309016994374947,0.));
#1625=DIRECTION('',(-1.,0.,0.));
#1626=DIRECTION('',(1.2335811384724E-16,-1.,0.));
#1627=DIRECTION('',(0.,-1.,0.));
#1628=DIRECTION('',(-1.,0.,0.));
#1629=DIRECTION('',(-1.40433036354774E-16,1.,0.));
#1630=DIRECTION('center_axis',(-0.809016994374948,-0.587785252292473,0.));
#1631=DIRECTION('ref_axis',(-0.587785252292473,0.809016994374948,1.22464679914735E-16));
#1632=DIRECTION('center_axis',(0.809016994374947,0.587785252292473,0.));
#1633=DIRECTION('ref_axis',(0.587785252292473,-0.809016994374948,0.));
#1634=DIRECTION('center_axis',(-0.809016994374948,-0.587785252292473,0.));
#1635=DIRECTION('ref_axis',(-0.587785252292473,0.809016994374948,1.22464679914735E-16));
#1636=DIRECTION('center_axis',(-0.809016994374948,-0.587785252292473,0.));
#1637=DIRECTION('ref_axis',(0.587785252292473,-0.809016994374948,0.));
#1638=DIRECTION('center_axis',(-0.809016994374948,-0.587785252292473,0.));
#1639=DIRECTION('ref_axis',(0.587785252292473,-0.809016994374947,0.));
#1640=DIRECTION('center_axis',(-0.809016994374947,-0.587785252292473,0.));
#1641=DIRECTION('ref_axis',(0.587785252292473,-0.809016994374947,0.));
#1642=DIRECTION('',(-0.809016994374947,-0.587785252292473,0.));
#1643=DIRECTION('center_axis',(-0.809016994374948,-0.587785252292473,0.));
#1644=DIRECTION('ref_axis',(0.587785252292473,-0.809016994374947,0.));
#1645=DIRECTION('',(-0.809016994374947,-0.587785252292473,0.));
#1646=DIRECTION('center_axis',(0.809016994374948,0.587785252292473,0.));
#1647=DIRECTION('ref_axis',(0.587785252292473,-0.809016994374947,0.));
#1648=DIRECTION('center_axis',(0.809016994374947,0.587785252292473,0.));
#1649=DIRECTION('ref_axis',(-0.587785252292473,0.809016994374947,0.));
#1650=DIRECTION('',(0.,0.,1.));
#1651=DIRECTION('center_axis',(-0.587785252292473,0.809016994374948,0.));
#1652=DIRECTION('ref_axis',(-0.809016994374947,-0.587785252292473,0.));
#1653=DIRECTION('',(0.,0.,1.));
#1654=DIRECTION('center_axis',(-0.809016994374948,-0.587785252292473,0.));
#1655=DIRECTION('ref_axis',(0.587785252292473,-0.809016994374947,0.));
#1656=DIRECTION('center_axis',(0.951056516295154,-0.309016994374948,0.));
#1657=DIRECTION('ref_axis',(0.309016994374948,0.951056516295154,0.));
#1658=DIRECTION('',(0.,0.,1.));
#1659=DIRECTION('',(0.,0.,1.));
#1660=DIRECTION('center_axis',(1.,0.,0.));
#1661=DIRECTION('ref_axis',(0.,-1.,1.22464679914735E-16));
#1662=DIRECTION('center_axis',(-1.,-1.2335811384724E-16,0.));
#1663=DIRECTION('ref_axis',(0.,1.,0.));
#1664=DIRECTION('center_axis',(1.,0.,0.));
#1665=DIRECTION('ref_axis',(0.,-1.,1.22464679914735E-16));
#1666=DIRECTION('center_axis',(1.,0.,0.));
#1667=DIRECTION('ref_axis',(0.,1.,0.));
#1668=DIRECTION('center_axis',(-1.,-1.40433036354774E-16,0.));
#1669=DIRECTION('ref_axis',(0.,1.,0.));
#1670=DIRECTION('center_axis',(1.,0.,0.));
#1671=DIRECTION('ref_axis',(0.,1.,0.));
#1672=DIRECTION('center_axis',(1.,1.2335811384724E-16,0.));
#1673=DIRECTION('ref_axis',(0.,1.,0.));
#1674=DIRECTION('',(1.,0.,0.));
#1675=DIRECTION('center_axis',(1.,0.,0.));
#1676=DIRECTION('ref_axis',(0.,1.,0.));
#1677=DIRECTION('center_axis',(1.,1.40433036354774E-16,0.));
#1678=DIRECTION('ref_axis',(0.,1.,0.));
#1679=DIRECTION('',(1.,0.,0.));
#1680=DIRECTION('center_axis',(-1.,0.,0.));
#1681=DIRECTION('ref_axis',(0.,1.,0.));
#1682=DIRECTION('center_axis',(-1.,-1.40433036354774E-16,0.));
#1683=DIRECTION('ref_axis',(1.40433036354774E-16,-1.,0.));
#1684=DIRECTION('center_axis',(-1.,-1.2335811384724E-16,0.));
#1685=DIRECTION('ref_axis',(1.2335811384724E-16,-1.,0.));
#1686=DIRECTION('center_axis',(1.,0.,0.));
#1687=DIRECTION('ref_axis',(0.,1.,0.));
#1688=DIRECTION('center_axis',(0.309016994374948,0.951056516295154,0.));
#1689=DIRECTION('ref_axis',(0.951056516295154,-0.309016994374948,1.22464679914735E-16));
#1690=DIRECTION('center_axis',(0.309016994374948,0.951056516295154,0.));
#1691=DIRECTION('ref_axis',(-0.951056516295154,0.309016994374947,0.));
#1692=DIRECTION('center_axis',(-0.309016994374947,-0.951056516295154,0.));
#1693=DIRECTION('ref_axis',(-0.951056516295154,0.309016994374947,0.));
#1694=DIRECTION('center_axis',(0.309016994374948,0.951056516295154,0.));
#1695=DIRECTION('ref_axis',(0.951056516295154,-0.309016994374948,1.22464679914735E-16));
#1696=DIRECTION('center_axis',(0.309016994374948,0.951056516295154,0.));
#1697=DIRECTION('ref_axis',(-0.951056516295154,0.309016994374947,0.));
#1698=DIRECTION('center_axis',(-0.309016994374947,-0.951056516295154,0.));
#1699=DIRECTION('ref_axis',(-0.951056516295154,0.309016994374947,0.));
#1700=DIRECTION('center_axis',(0.309016994374948,0.951056516295154,0.));
#1701=DIRECTION('ref_axis',(-0.951056516295154,0.309016994374947,0.));
#1702=DIRECTION('center_axis',(0.309016994374947,0.951056516295154,0.));
#1703=DIRECTION('ref_axis',(-0.951056516295154,0.309016994374947,0.));
#1704=DIRECTION('',(0.309016994374947,0.951056516295154,0.));
#1705=DIRECTION('center_axis',(-0.309016994374948,-0.951056516295154,0.));
#1706=DIRECTION('ref_axis',(-0.951056516295154,0.309016994374947,0.));
#1707=DIRECTION('center_axis',(0.309016994374948,0.951056516295154,0.));
#1708=DIRECTION('ref_axis',(-0.951056516295154,0.309016994374947,0.));
#1709=DIRECTION('center_axis',(0.309016994374947,0.951056516295154,0.));
#1710=DIRECTION('ref_axis',(-0.951056516295154,0.309016994374947,0.));
#1711=DIRECTION('',(0.309016994374948,0.951056516295154,0.));
#1712=DIRECTION('center_axis',(-0.309016994374948,-0.951056516295154,0.));
#1713=DIRECTION('ref_axis',(-0.951056516295154,0.309016994374947,0.));
#1714=DIRECTION('center_axis',(-0.309016994374947,-0.951056516295154,0.));
#1715=DIRECTION('ref_axis',(0.951056516295154,-0.309016994374947,0.));
#1716=DIRECTION('center_axis',(-0.309016994374947,-0.951056516295154,0.));
#1717=DIRECTION('ref_axis',(0.951056516295154,-0.309016994374947,0.));
#1718=DIRECTION('center_axis',(0.309016994374948,0.951056516295154,0.));
#1719=DIRECTION('ref_axis',(-0.951056516295154,0.309016994374948,0.));
#1720=DIRECTION('center_axis',(0.309016994374948,0.951056516295154,0.));
#1721=DIRECTION('ref_axis',(-0.951056516295154,0.309016994374948,0.));
#1722=DIRECTION('center_axis',(0.309016994374947,-0.951056516295154,0.));
#1723=DIRECTION('ref_axis',(-0.951056516295154,-0.309016994374947,1.22464679914735E-16));
#1724=DIRECTION('center_axis',(-0.309016994374947,0.951056516295154,0.));
#1725=DIRECTION('ref_axis',(0.951056516295154,0.309016994374947,0.));
#1726=DIRECTION('center_axis',(0.309016994374947,-0.951056516295154,0.));
#1727=DIRECTION('ref_axis',(-0.951056516295154,-0.309016994374947,1.22464679914735E-16));
#1728=DIRECTION('center_axis',(0.309016994374947,-0.951056516295154,0.));
#1729=DIRECTION('ref_axis',(0.951056516295154,0.309016994374947,0.));
#1730=DIRECTION('center_axis',(-0.309016994374947,0.951056516295154,0.));
#1731=DIRECTION('ref_axis',(0.951056516295154,0.309016994374947,0.));
#1732=DIRECTION('center_axis',(0.309016994374947,-0.951056516295154,0.));
#1733=DIRECTION('ref_axis',(0.951056516295154,0.309016994374947,0.));
#1734=DIRECTION('center_axis',(0.309016994374947,-0.951056516295154,0.));
#1735=DIRECTION('ref_axis',(0.951056516295154,0.309016994374947,0.));
#1736=DIRECTION('',(0.309016994374947,-0.951056516295154,0.));
#1737=DIRECTION('center_axis',(0.309016994374947,-0.951056516295154,0.));
#1738=DIRECTION('ref_axis',(0.951056516295154,0.309016994374947,0.));
#1739=DIRECTION('center_axis',(0.309016994374947,-0.951056516295154,0.));
#1740=DIRECTION('ref_axis',(0.951056516295154,0.309016994374947,0.));
#1741=DIRECTION('',(0.309016994374947,-0.951056516295154,0.));
#1742=DIRECTION('center_axis',(-0.309016994374947,0.951056516295154,0.));
#1743=DIRECTION('ref_axis',(0.951056516295154,0.309016994374947,0.));
#1744=DIRECTION('center_axis',(-0.309016994374947,0.951056516295154,0.));
#1745=DIRECTION('ref_axis',(-0.951056516295154,-0.309016994374947,0.));
#1746=DIRECTION('center_axis',(-0.309016994374947,0.951056516295154,0.));
#1747=DIRECTION('ref_axis',(-0.951056516295154,-0.309016994374947,0.));
#1748=DIRECTION('center_axis',(0.309016994374947,-0.951056516295154,0.));
#1749=DIRECTION('ref_axis',(0.951056516295154,0.309016994374947,0.));
#1750=CARTESIAN_POINT('',(0.,0.,0.));
#1751=CARTESIAN_POINT('Origin',(-6.93889390390723E-16,6.50000005960464,
0.));
#1752=CARTESIAN_POINT('',(-1.,6.50000005960464,0.));
#1753=CARTESIAN_POINT('Origin',(-6.93889390390723E-16,6.50000005960464,
0.));
#1754=CARTESIAN_POINT('',(-1.,6.50000005960464,6.75));
#1755=CARTESIAN_POINT('',(-1.,6.50000005960464,0.));
#1756=CARTESIAN_POINT('Origin',(-6.93889390390723E-16,6.50000005960464,
6.75));
#1757=CARTESIAN_POINT('Origin',(-1.25,2.72717802865893,6.75));
#1758=CARTESIAN_POINT('',(-1.25,4.84122918275927,6.75));
#1759=CARTESIAN_POINT('',(-1.25,2.72717802865893,6.75));
#1760=CARTESIAN_POINT('',(-1.25,5.28692054131293,6.75));
#1761=CARTESIAN_POINT('',(-1.25,4.84122918275927,0.));
#1762=CARTESIAN_POINT('',(-1.25,4.84122918275927,0.));
#1763=CARTESIAN_POINT('',(-1.25,2.72717802865893,0.));
#1764=CARTESIAN_POINT('',(-1.25,5.28692054131293,0.));
#1765=CARTESIAN_POINT('',(-1.25,2.72717802865893,6.75));
#1766=CARTESIAN_POINT('Origin',(0.,0.,6.75));
#1767=CARTESIAN_POINT('',(-1.25,-2.72717802865893,6.75));
#1768=CARTESIAN_POINT('Origin',(0.,0.,6.75));
#1769=CARTESIAN_POINT('',(-1.25,-2.72717802865893,0.));
#1770=CARTESIAN_POINT('Origin',(0.,0.,0.));
#1771=CARTESIAN_POINT('',(-1.25,-2.72717802865893,6.75));
#1772=CARTESIAN_POINT('Origin',(-1.25,-4.84122918275927,6.75));
#1773=CARTESIAN_POINT('',(-1.25,-4.84122918275927,6.75));
#1774=CARTESIAN_POINT('',(-1.25,5.28692054131293,6.75));
#1775=CARTESIAN_POINT('',(-1.25,-4.84122918275927,0.));
#1776=CARTESIAN_POINT('',(-1.25,5.28692054131293,0.));
#1777=CARTESIAN_POINT('',(-1.25,-4.84122918275927,0.));
#1778=CARTESIAN_POINT('Origin',(1.25,-2.72717802865893,6.75));
#1779=CARTESIAN_POINT('',(1.25,-4.84122918275927,6.75));
#1780=CARTESIAN_POINT('',(1.25,-2.72717802865893,6.75));
#1781=CARTESIAN_POINT('',(1.25,-5.28692054131293,6.75));
#1782=CARTESIAN_POINT('',(1.25,-4.84122918275927,0.));
#1783=CARTESIAN_POINT('',(1.25,-4.84122918275927,0.));
#1784=CARTESIAN_POINT('',(1.25,-2.72717802865893,0.));
#1785=CARTESIAN_POINT('',(1.25,-5.28692054131293,0.));
#1786=CARTESIAN_POINT('',(1.25,-2.72717802865893,6.75));
#1787=CARTESIAN_POINT('Origin',(0.,0.,6.75));
#1788=CARTESIAN_POINT('',(1.25,2.72717802865893,6.75));
#1789=CARTESIAN_POINT('Origin',(0.,0.,6.75));
#1790=CARTESIAN_POINT('',(1.25,2.72717802865893,0.));
#1791=CARTESIAN_POINT('Origin',(0.,0.,0.));
#1792=CARTESIAN_POINT('',(1.25,2.72717802865893,6.75));
#1793=CARTESIAN_POINT('Origin',(1.25,4.84122918275927,6.75));
#1794=CARTESIAN_POINT('',(1.25,4.84122918275927,6.75));
#1795=CARTESIAN_POINT('',(1.25,-5.28692054131293,6.75));
#1796=CARTESIAN_POINT('',(1.25,4.84122918275927,0.));
#1797=CARTESIAN_POINT('',(1.25,-5.28692054131293,0.));
#1798=CARTESIAN_POINT('',(1.25,4.84122918275927,0.));
#1799=CARTESIAN_POINT('Origin',(0.,0.,0.));
#1800=CARTESIAN_POINT('Origin',(0.,0.,0.));
#1801=CARTESIAN_POINT('Origin',(0.,0.,6.75));
#1802=CARTESIAN_POINT('Origin',(0.,0.,0.));
#1803=CARTESIAN_POINT('Origin',(0.,0.,6.75));
#1804=CARTESIAN_POINT('Origin',(0.,0.,0.));
#1805=CARTESIAN_POINT('Origin',(-5.99999991059303,-8.2582913997689,0.));
#1806=CARTESIAN_POINT('',(-3.99999991059303,-8.2582913997689,0.));
#1807=CARTESIAN_POINT('',(-6.61803389934293,-6.3561783671786,0.));
#1808=CARTESIAN_POINT('Origin',(-5.99999991059303,-8.2582913997689,0.));
#1809=CARTESIAN_POINT('',(-3.99999991059303,-8.2582913997689,6.75));
#1810=CARTESIAN_POINT('',(-3.99999991059303,-8.2582913997689,0.));
#1811=CARTESIAN_POINT('',(-6.61803389934293,-6.3561783671786,6.75));
#1812=CARTESIAN_POINT('Origin',(-5.99999991059303,-8.2582913997689,6.75));
#1813=CARTESIAN_POINT('',(-6.61803389934293,-6.3561783671786,0.));
#1814=CARTESIAN_POINT('Origin',(-12.3164874073344,-8.20771814999253,0.));
#1815=CARTESIAN_POINT('',(-9.10667166483828,-7.16478579397709,6.75));
#1816=CARTESIAN_POINT('',(-12.3164874073344,-8.20771814999253,6.75));
#1817=CARTESIAN_POINT('',(-9.10667166483828,-7.16478579397709,0.));
#1818=CARTESIAN_POINT('Origin',(-9.10667166483828,-7.16478579397709,3.375));
#1819=CARTESIAN_POINT('',(-12.3164874073344,-8.20771814999253,0.));
#1820=CARTESIAN_POINT('',(-9.9863989424113,-7.45062651377391,3.375));
#1821=CARTESIAN_POINT('Origin',(-9.10667166483828,-7.16478579397709,3.375));
#1822=CARTESIAN_POINT('Origin',(-9.70820378783586,3.15438662571078,0.));
#1823=CARTESIAN_POINT('',(-9.09016979908596,1.25227359312047,0.));
#1824=CARTESIAN_POINT('',(-8.09016979908596,4.32995713029572,0.));
#1825=CARTESIAN_POINT('Origin',(-9.70820378783586,3.15438662571078,0.));
#1826=CARTESIAN_POINT('',(-9.09016979908596,1.25227359312047,6.75));
#1827=CARTESIAN_POINT('',(-9.09016979908596,1.25227359312047,0.));
#1828=CARTESIAN_POINT('',(-8.09016979908596,4.32995713029572,6.75));
#1829=CARTESIAN_POINT('Origin',(-9.70820378783586,3.15438662571078,6.75));
#1830=CARTESIAN_POINT('',(-8.09016979908596,4.32995713029572,0.));
#1831=CARTESIAN_POINT('Origin',(-11.6120077503358,9.17735121322521,0.));
#1832=CARTESIAN_POINT('',(-9.62823252384868,6.44691885720976,6.75));
#1833=CARTESIAN_POINT('',(-11.6120077503358,9.17735121322521,6.75));
#1834=CARTESIAN_POINT('',(-9.62823252384868,6.44691885720976,0.));
#1835=CARTESIAN_POINT('Origin',(-9.62823252384868,6.44691885720976,3.375));
#1836=CARTESIAN_POINT('',(-11.6120077503358,9.17735121322521,0.));
#1837=CARTESIAN_POINT('',(-10.1719338822192,7.19525957700658,3.375));
#1838=CARTESIAN_POINT('Origin',(-9.62823252384868,6.44691885720976,3.375));
#1839=CARTESIAN_POINT('Origin',(0.,10.2078095481163,0.));
#1840=CARTESIAN_POINT('',(1.6180339887499,9.03223904353132,6.75));
#1841=CARTESIAN_POINT('',(-1.6180339887499,9.03223904353132,6.75));
#1842=CARTESIAN_POINT('Origin',(0.,10.2078095481163,6.75));
#1843=CARTESIAN_POINT('',(1.6180339887499,9.03223904353132,0.));
#1844=CARTESIAN_POINT('',(1.61803398874989,9.03223904353132,0.));
#1845=CARTESIAN_POINT('',(-1.6180339887499,9.03223904353132,0.));
#1846=CARTESIAN_POINT('Origin',(0.,10.2078095481163,0.));
#1847=CARTESIAN_POINT('',(-1.6180339887499,9.03223904353132,0.));
#1848=CARTESIAN_POINT('Origin',(-0.493011503388313,7.48377843455609,0.));
#1849=CARTESIAN_POINT('',(-3.15609671351261,11.1492007704453,0.));
#1850=CARTESIAN_POINT('',(-5.13987193999971,13.8796331264608,0.));
#1851=CARTESIAN_POINT('',(-3.15609671351261,11.1492007704453,6.75));
#1852=CARTESIAN_POINT('Origin',(-3.15609671351261,11.1492007704454,3.375));
#1853=CARTESIAN_POINT('',(-5.13987193999971,13.8796331264608,6.75));
#1854=CARTESIAN_POINT('',(-3.69979807188315,11.8975414902422,3.375));
#1855=CARTESIAN_POINT('Origin',(-3.15609671351261,11.1492007704454,3.375));
#1856=CARTESIAN_POINT('Origin',(9.70820378783586,3.15438662571078,0.));
#1857=CARTESIAN_POINT('',(9.09016979908596,1.25227359312047,6.75));
#1858=CARTESIAN_POINT('',(8.09016979908596,4.32995713029572,6.75));
#1859=CARTESIAN_POINT('Origin',(9.70820378783586,3.15438662571078,6.75));
#1860=CARTESIAN_POINT('',(9.09016979908596,1.25227359312047,0.));
#1861=CARTESIAN_POINT('',(9.09016979908596,1.25227359312047,0.));
#1862=CARTESIAN_POINT('',(8.09016979908596,4.32995713029572,0.));
#1863=CARTESIAN_POINT('Origin',(9.70820378783586,3.15438662571078,0.));
#1864=CARTESIAN_POINT('',(8.09016979908596,4.32995713029572,0.));
#1865=CARTESIAN_POINT('Origin',(6.96514731372438,2.7814965213205,0.));
#1866=CARTESIAN_POINT('',(9.62823252384868,6.44691885720976,0.));
#1867=CARTESIAN_POINT('',(11.6120077503358,9.17735121322521,0.));
#1868=CARTESIAN_POINT('',(9.62823252384868,6.44691885720976,6.75));
#1869=CARTESIAN_POINT('Origin',(9.62823252384868,6.44691885720975,3.375));
#1870=CARTESIAN_POINT('',(11.6120077503358,9.17735121322521,6.75));
#1871=CARTESIAN_POINT('',(10.1719338822192,7.19525957700658,3.375));
#1872=CARTESIAN_POINT('Origin',(9.62823252384868,6.44691885720975,3.375));
#1873=CARTESIAN_POINT('Origin',(5.99999991059303,-8.25829139976891,0.));
#1874=CARTESIAN_POINT('',(6.61803389934293,-6.3561783671786,0.));
#1875=CARTESIAN_POINT('',(3.99999991059303,-8.25829139976891,0.));
#1876=CARTESIAN_POINT('Origin',(5.99999991059303,-8.25829139976891,0.));
#1877=CARTESIAN_POINT('',(6.61803389934293,-6.3561783671786,6.75));
#1878=CARTESIAN_POINT('',(6.61803389934293,-6.3561783671786,0.));
#1879=CARTESIAN_POINT('',(3.99999991059303,-8.25829139976891,6.75));
#1880=CARTESIAN_POINT('Origin',(5.99999991059303,-8.25829139976891,6.75));
#1881=CARTESIAN_POINT('',(3.99999991059303,-8.25829139976891,0.));
#1882=CARTESIAN_POINT('Origin',(3.99999991059303,-14.25,0.));
#1883=CARTESIAN_POINT('',(3.99999991059303,-10.875,6.75));
#1884=CARTESIAN_POINT('',(3.99999991059303,-14.25,6.75));
#1885=CARTESIAN_POINT('',(3.99999991059303,-10.875,0.));
#1886=CARTESIAN_POINT('Origin',(3.99999991059303,-10.875,3.375));
#1887=CARTESIAN_POINT('',(3.99999991059303,-14.25,0.));
#1888=CARTESIAN_POINT('',(3.99999991059303,-11.8,3.375));
#1889=CARTESIAN_POINT('Origin',(3.99999991059303,-10.875,3.375));
#1890=CARTESIAN_POINT('Origin',(7.60569011024307,7.91638193538884,3.375));
#1891=CARTESIAN_POINT('',(3.15609671351261,11.1492007704453,6.75));
#1892=CARTESIAN_POINT('',(3.15609671351261,11.1492007704453,0.));
#1893=CARTESIAN_POINT('Origin',(3.15609671351261,11.1492007704453,3.375));
#1894=CARTESIAN_POINT('',(5.17863912711822,9.67973769226626,6.75));
#1895=CARTESIAN_POINT('',(7.60569011024307,7.91638193538884,6.75));
#1896=CARTESIAN_POINT('',(5.17863912711822,9.67973769226626,0.));
#1897=CARTESIAN_POINT('Origin',(5.17863912711822,9.67973769226626,3.375));
#1898=CARTESIAN_POINT('',(7.60569011024307,7.91638193538884,0.));
#1899=CARTESIAN_POINT('Origin',(7.60569011024307,7.91638193538884,3.375));
#1900=CARTESIAN_POINT('',(7.60569011024307,7.91638193538884,6.75));
#1901=CARTESIAN_POINT('',(7.60569011024307,7.91638193538884,0.));
#1902=CARTESIAN_POINT('Origin',(7.60569011024307,7.91638193538884,3.375));
#1903=CARTESIAN_POINT('',(7.60569011024307,7.91638193538884,6.75));
#1904=CARTESIAN_POINT('',(7.60569011024307,7.91638193538884,0.));
#1905=CARTESIAN_POINT('Origin',(7.60569011024307,7.91638193538884,3.375));
#1906=CARTESIAN_POINT('',(5.72234048548876,10.4280784120631,3.375));
#1907=CARTESIAN_POINT('Origin',(5.17863912711822,9.67973769226626,3.375));
#1908=CARTESIAN_POINT('',(3.69979807188315,11.8975414902422,3.375));
#1909=CARTESIAN_POINT('',(8.1493914686136,8.66472265518567,3.375));
#1910=CARTESIAN_POINT('Origin',(3.15609671351261,11.1492007704453,3.375));
#1911=CARTESIAN_POINT('Origin',(7.60569011024307,7.91638193538884,3.375));
#1912=CARTESIAN_POINT('',(8.14939146861361,8.66472265518567,3.375));
#1913=CARTESIAN_POINT('',(8.1493914686136,8.66472265518567,3.375));
#1914=CARTESIAN_POINT('Origin',(7.60569011024307,7.91638193538884,3.375));
#1915=CARTESIAN_POINT('Origin',(3.19486390063113,6.94930533625081,0.));
#1916=CARTESIAN_POINT('',(3.19486390063113,6.94930533625081,6.75));
#1917=CARTESIAN_POINT('',(3.19486390063113,6.94930533625081,6.75));
#1918=CARTESIAN_POINT('',(3.19486390063113,6.94930533625081,0.));
#1919=CARTESIAN_POINT('',(3.19486390063113,6.94930533625081,0.));
#1920=CARTESIAN_POINT('',(3.19486390063113,6.94930533625081,0.));
#1921=CARTESIAN_POINT('Origin',(5.62191488375597,5.18594957937339,0.));
#1922=CARTESIAN_POINT('',(5.62191488375597,5.18594957937339,6.75));
#1923=CARTESIAN_POINT('',(3.19486390063113,6.94930533625081,6.75));
#1924=CARTESIAN_POINT('',(5.62191488375597,5.18594957937339,0.));
#1925=CARTESIAN_POINT('',(5.62191488375597,5.18594957937339,0.));
#1926=CARTESIAN_POINT('',(3.19486390063113,6.94930533625081,0.));
#1927=CARTESIAN_POINT('Origin',(9.58946533673016,10.6468142914043,0.));
#1928=CARTESIAN_POINT('',(5.62191488375597,5.18594957937339,0.));
#1929=CARTESIAN_POINT('',(5.62191488375597,5.18594957937339,6.75));
#1930=CARTESIAN_POINT('Origin',(5.13987193999971,13.8796331264608,0.));
#1931=CARTESIAN_POINT('',(5.13987193999971,13.8796331264608,6.75));
#1932=CARTESIAN_POINT('',(5.13987193999971,13.8796331264608,0.));
#1933=CARTESIAN_POINT('Origin',(-7.59644936377607,-0.891042683369374,0.));
#1934=CARTESIAN_POINT('',(-7.59644936377607,-0.891042683369374,6.75));
#1935=CARTESIAN_POINT('',(-6.66939838065123,-3.74421223225484,6.75));
#1936=CARTESIAN_POINT('',(-6.66939838065123,-3.74421223225484,6.75));
#1937=CARTESIAN_POINT('',(-7.59644936377607,-0.891042683369374,0.));
#1938=CARTESIAN_POINT('',(-7.59644936377607,-0.891042683369374,0.));
#1939=CARTESIAN_POINT('',(-6.66939838065123,-3.74421223225484,0.));
#1940=CARTESIAN_POINT('',(-6.66939838065123,-3.74421223225484,0.));
#1941=CARTESIAN_POINT('',(-6.66939838065123,-3.74421223225484,0.));
#1942=CARTESIAN_POINT('Origin',(-1.5,-7.5,0.));
#1943=CARTESIAN_POINT('',(-1.5,-7.5,6.75));
#1944=CARTESIAN_POINT('',(1.5,-7.5,6.75));
#1945=CARTESIAN_POINT('',(1.5,-7.5,6.75));
#1946=CARTESIAN_POINT('',(-1.5,-7.5,0.));
#1947=CARTESIAN_POINT('',(-1.5,-7.5,0.));
#1948=CARTESIAN_POINT('',(1.5,-7.5,0.));
#1949=CARTESIAN_POINT('',(1.5,-7.5,0.));
#1950=CARTESIAN_POINT('',(1.5,-7.5,0.));
#1951=CARTESIAN_POINT('Origin',(-3.20981574249614,-1.04293235601545,6.75));
#1952=CARTESIAN_POINT('',(-5.17863912711822,9.67973769226627,6.75));
#1953=CARTESIAN_POINT('',(-5.17863912711822,9.67973769226627,6.75));
#1954=CARTESIAN_POINT('',(-3.19486390063113,6.94930533625082,6.75));
#1955=CARTESIAN_POINT('',(-3.19486390063113,6.94930533625082,6.75));
#1956=CARTESIAN_POINT('',(-5.62191488375597,5.1859495793734,6.75));
#1957=CARTESIAN_POINT('',(-5.62191488375597,5.1859495793734,6.75));
#1958=CARTESIAN_POINT('',(-7.60569011024307,7.91638193538884,6.75));
#1959=CARTESIAN_POINT('',(-5.62191488375597,5.1859495793734,6.75));
#1960=CARTESIAN_POINT('',(-5.17863912711822,9.67973769226627,6.75));
#1961=CARTESIAN_POINT('',(-11.5788075645813,0.443666166321984,6.75));
#1962=CARTESIAN_POINT('',(-14.7886233070775,-0.599266189693463,6.75));
#1963=CARTESIAN_POINT('',(-10.8062651062722,-1.93397503938482,6.75));
#1964=CARTESIAN_POINT('',(-10.8062651062722,-1.93397503938482,6.75));
#1965=CARTESIAN_POINT('',(-7.59644936377607,-0.891042683369374,6.75));
#1966=CARTESIAN_POINT('',(-9.87921412314737,-4.78714458827028,6.75));
#1967=CARTESIAN_POINT('',(-6.66939838065123,-3.74421223225484,6.75));
#1968=CARTESIAN_POINT('',(-10.8062651062722,-1.93397503938482,6.75));
#1969=CARTESIAN_POINT('',(-3.99999991059303,-10.875,6.75));
#1970=CARTESIAN_POINT('',(-3.99999991059303,-14.25,6.75));
#1971=CARTESIAN_POINT('',(-1.5,-10.875,6.75));
#1972=CARTESIAN_POINT('',(-1.5,-10.875,6.75));
#1973=CARTESIAN_POINT('',(-1.5,-7.5,6.75));
#1974=CARTESIAN_POINT('',(1.5,-10.875,6.75));
#1975=CARTESIAN_POINT('',(1.5,-7.5,6.75));
#1976=CARTESIAN_POINT('',(-1.5,-10.875,6.75));
#1977=CARTESIAN_POINT('',(9.10667166483828,-7.16478579397709,6.75));
#1978=CARTESIAN_POINT('',(12.3164874073344,-8.20771814999254,6.75));
#1979=CARTESIAN_POINT('',(9.87921412314737,-4.78714458827028,6.75));
#1980=CARTESIAN_POINT('',(9.87921412314737,-4.78714458827028,6.75));
#1981=CARTESIAN_POINT('',(6.66939838065123,-3.74421223225484,6.75));
#1982=CARTESIAN_POINT('',(6.66939838065123,-3.74421223225484,6.75));
#1983=CARTESIAN_POINT('',(7.59644936377607,-0.891042683369376,6.75));
#1984=CARTESIAN_POINT('',(7.59644936377607,-0.891042683369376,6.75));
#1985=CARTESIAN_POINT('',(10.8062651062722,-1.93397503938482,6.75));
#1986=CARTESIAN_POINT('',(7.59644936377607,-0.891042683369376,6.75));
#1987=CARTESIAN_POINT('',(11.5788075645813,0.443666166321982,6.75));
#1988=CARTESIAN_POINT('',(9.87921412314737,-4.78714458827028,6.75));
#1989=CARTESIAN_POINT('',(14.7886233070775,-0.599266189693466,6.75));
#1990=CARTESIAN_POINT('Origin',(-3.20981574249614,-1.04293235601545,0.));
#1991=CARTESIAN_POINT('',(-9.87921412314737,-4.78714458827028,0.));
#1992=CARTESIAN_POINT('',(-10.8062651062722,-1.93397503938482,0.));
#1993=CARTESIAN_POINT('',(-6.66939838065123,-3.74421223225484,0.));
#1994=CARTESIAN_POINT('',(-10.8062651062722,-1.93397503938482,0.));
#1995=CARTESIAN_POINT('',(-7.59644936377607,-0.891042683369374,0.));
#1996=CARTESIAN_POINT('',(-11.5788075645813,0.443666166321984,0.));
#1997=CARTESIAN_POINT('',(-10.8062651062722,-1.93397503938482,0.));
#1998=CARTESIAN_POINT('',(-14.7886233070775,-0.599266189693463,0.));
#1999=CARTESIAN_POINT('',(-7.60569011024307,7.91638193538884,0.));
#2000=CARTESIAN_POINT('',(-5.17863912711822,9.67973769226627,0.));
#2001=CARTESIAN_POINT('',(-5.62191488375597,5.1859495793734,0.));
#2002=CARTESIAN_POINT('',(-5.62191488375597,5.1859495793734,0.));
#2003=CARTESIAN_POINT('',(-3.19486390063113,6.94930533625082,0.));
#2004=CARTESIAN_POINT('',(-5.62191488375597,5.1859495793734,0.));
#2005=CARTESIAN_POINT('',(-5.17863912711822,9.67973769226627,0.));
#2006=CARTESIAN_POINT('',(-3.19486390063113,6.94930533625082,0.));
#2007=CARTESIAN_POINT('',(-5.17863912711822,9.67973769226627,0.));
#2008=CARTESIAN_POINT('',(11.5788075645813,0.443666166321982,0.));
#2009=CARTESIAN_POINT('',(14.7886233070775,-0.599266189693466,0.));
#2010=CARTESIAN_POINT('',(10.8062651062722,-1.93397503938482,0.));
#2011=CARTESIAN_POINT('',(9.87921412314737,-4.78714458827028,0.));
#2012=CARTESIAN_POINT('',(7.59644936377607,-0.891042683369376,0.));
#2013=CARTESIAN_POINT('',(7.59644936377607,-0.891042683369376,0.));
#2014=CARTESIAN_POINT('',(6.66939838065123,-3.74421223225484,0.));
#2015=CARTESIAN_POINT('',(7.59644936377607,-0.891042683369376,0.));
#2016=CARTESIAN_POINT('',(9.87921412314737,-4.78714458827028,0.));
#2017=CARTESIAN_POINT('',(6.66939838065123,-3.74421223225484,0.));
#2018=CARTESIAN_POINT('',(9.10667166483828,-7.16478579397709,0.));
#2019=CARTESIAN_POINT('',(9.87921412314737,-4.78714458827028,0.));
#2020=CARTESIAN_POINT('',(12.3164874073344,-8.20771814999254,0.));
#2021=CARTESIAN_POINT('',(1.5,-10.875,0.));
#2022=CARTESIAN_POINT('',(-1.5,-10.875,0.));
#2023=CARTESIAN_POINT('',(1.5,-7.5,0.));
#2024=CARTESIAN_POINT('',(-1.5,-10.875,0.));
#2025=CARTESIAN_POINT('',(-1.5,-7.5,0.));
#2026=CARTESIAN_POINT('',(-3.99999991059303,-10.875,0.));
#2027=CARTESIAN_POINT('',(-1.5,-10.875,0.));
#2028=CARTESIAN_POINT('',(-3.99999991059303,-14.25,0.));
#2029=CARTESIAN_POINT('Origin',(-5.17863912711822,9.67973769226627,3.375));
#2030=CARTESIAN_POINT('Origin',(-7.60569011024307,7.91638193538884,3.375));
#2031=CARTESIAN_POINT('Origin',(-5.17863912711822,9.67973769226627,3.375));
#2032=CARTESIAN_POINT('Origin',(-5.17863912711822,9.67973769226627,3.375));
#2033=CARTESIAN_POINT('Origin',(-5.17863912711822,9.67973769226627,3.375));
#2034=CARTESIAN_POINT('',(-8.1493914686136,8.66472265518567,3.375));
#2035=CARTESIAN_POINT('Origin',(-7.60569011024307,7.91638193538884,3.375));
#2036=CARTESIAN_POINT('',(-5.72234048548876,10.4280784120631,3.375));
#2037=CARTESIAN_POINT('Origin',(-5.17863912711822,9.67973769226627,3.375));
#2038=CARTESIAN_POINT('',(-5.72234048548876,10.4280784120631,3.375));
#2039=CARTESIAN_POINT('',(-5.72234048548876,10.4280784120631,3.375));
#2040=CARTESIAN_POINT('Origin',(-5.17863912711822,9.67973769226627,3.375));
#2041=CARTESIAN_POINT('Origin',(-5.62191488375597,5.1859495793734,0.));
#2042=CARTESIAN_POINT('',(-5.62191488375597,5.1859495793734,0.));
#2043=CARTESIAN_POINT('Origin',(-3.19486390063113,6.94930533625082,0.));
#2044=CARTESIAN_POINT('',(-3.19486390063113,6.94930533625082,0.));
#2045=CARTESIAN_POINT('Origin',(-7.16241435360532,12.4101700482817,0.));
#2046=CARTESIAN_POINT('Origin',(6.66939838065123,-3.74421223225484,0.));
#2047=CARTESIAN_POINT('',(6.66939838065123,-3.74421223225484,0.));
#2048=CARTESIAN_POINT('',(7.59644936377607,-0.891042683369376,0.));
#2049=CARTESIAN_POINT('Origin',(-1.5,-10.875,3.375));
#2050=CARTESIAN_POINT('Origin',(1.5,-10.875,3.375));
#2051=CARTESIAN_POINT('Origin',(-1.5,-10.875,3.375));
#2052=CARTESIAN_POINT('Origin',(-1.5,-10.875,3.375));
#2053=CARTESIAN_POINT('Origin',(-3.99999991059303,-10.875,3.375));
#2054=CARTESIAN_POINT('Origin',(-1.5,-10.875,3.375));
#2055=CARTESIAN_POINT('',(1.5,-11.8,3.375));
#2056=CARTESIAN_POINT('Origin',(1.5,-10.875,3.375));
#2057=CARTESIAN_POINT('',(-1.5,-11.8,3.375));
#2058=CARTESIAN_POINT('Origin',(-1.5,-10.875,3.375));
#2059=CARTESIAN_POINT('',(-3.99999991059303,-11.8,3.375));
#2060=CARTESIAN_POINT('Origin',(-3.99999991059303,-10.875,3.375));
#2061=CARTESIAN_POINT('',(-1.5,-11.8,3.375));
#2062=CARTESIAN_POINT('',(-1.5,-11.8,3.375));
#2063=CARTESIAN_POINT('Origin',(-1.5,-10.875,3.375));
#2064=CARTESIAN_POINT('Origin',(-3.99999991059303,-6.34428882659481,0.));
#2065=CARTESIAN_POINT('Origin',(1.5,-7.5,0.));
#2066=CARTESIAN_POINT('Origin',(-1.5,-14.25,0.));
#2067=CARTESIAN_POINT('Origin',(9.87921412314737,-4.78714458827028,3.375));
#2068=CARTESIAN_POINT('Origin',(11.5788075645813,0.443666166321982,3.375));
#2069=CARTESIAN_POINT('Origin',(10.8062651062722,-1.93397503938482,3.375));
#2070=CARTESIAN_POINT('Origin',(9.87921412314737,-4.78714458827028,3.375));
#2071=CARTESIAN_POINT('Origin',(9.87921412314737,-4.78714458827028,3.375));
#2072=CARTESIAN_POINT('Origin',(9.10667166483828,-7.16478579397709,3.375));
#2073=CARTESIAN_POINT('Origin',(9.87921412314737,-4.78714458827028,3.375));
#2074=CARTESIAN_POINT('',(11.6859923838452,-2.21981575918165,3.375));
#2075=CARTESIAN_POINT('Origin',(10.8062651062722,-1.93397503938482,3.375));
#2076=CARTESIAN_POINT('',(12.4585348421543,0.157825446525156,3.375));
#2077=CARTESIAN_POINT('',(10.7589414007204,-5.07298530806711,3.375));
#2078=CARTESIAN_POINT('Origin',(11.5788075645813,0.443666166321982,3.375));
#2079=CARTESIAN_POINT('Origin',(9.87921412314737,-4.78714458827028,3.375));
#2080=CARTESIAN_POINT('',(9.9863989424113,-7.45062651377392,3.375));
#2081=CARTESIAN_POINT('Origin',(9.10667166483828,-7.16478579397709,3.375));
#2082=CARTESIAN_POINT('',(10.7589414007204,-5.07298530806711,3.375));
#2083=CARTESIAN_POINT('',(10.7589414007204,-5.07298530806711,3.375));
#2084=CARTESIAN_POINT('Origin',(9.87921412314737,-4.78714458827028,3.375));
#2085=CARTESIAN_POINT('Origin',(4.79770927992001,-5.76471904479043,0.));
#2086=CARTESIAN_POINT('Origin',(7.59644936377607,-0.891042683369376,0.));
#2087=CARTESIAN_POINT('Origin',(13.0890298656435,-5.83007694428573,0.));
#2088=CARTESIAN_POINT('Origin',(14.7886233070775,-0.599266189693466,0.));
#2089=CARTESIAN_POINT('Origin',(-10.8062651062722,-1.93397503938482,3.375));
#2090=CARTESIAN_POINT('Origin',(-9.87921412314737,-4.78714458827028,3.375));
#2091=CARTESIAN_POINT('Origin',(-10.8062651062722,-1.93397503938482,3.375));
#2092=CARTESIAN_POINT('Origin',(-10.8062651062722,-1.93397503938482,3.375));
#2093=CARTESIAN_POINT('Origin',(-11.5788075645813,0.443666166321985,3.375));
#2094=CARTESIAN_POINT('Origin',(-10.8062651062722,-1.93397503938482,3.375));
#2095=CARTESIAN_POINT('',(-10.7589414007204,-5.07298530806711,3.375));
#2096=CARTESIAN_POINT('Origin',(-9.87921412314737,-4.78714458827028,3.375));
#2097=CARTESIAN_POINT('',(-11.6859923838452,-2.21981575918165,3.375));
#2098=CARTESIAN_POINT('Origin',(-10.8062651062722,-1.93397503938482,3.375));
#2099=CARTESIAN_POINT('',(-12.4585348421543,0.157825446525159,3.375));
#2100=CARTESIAN_POINT('Origin',(-11.5788075645813,0.443666166321985,3.375));
#2101=CARTESIAN_POINT('',(-11.6859923838452,-2.21981575918165,3.375));
#2102=CARTESIAN_POINT('',(-11.6859923838452,-2.21981575918165,3.375));
#2103=CARTESIAN_POINT('Origin',(-10.8062651062722,-1.93397503938482,3.375));
#2104=CARTESIAN_POINT('Origin',(-7.26984517966304,1.84373291550865,0.));
#2105=CARTESIAN_POINT('Origin',(-6.66939838065123,-3.74421223225484,0.));
#2106=CARTESIAN_POINT('Origin',(-14.0160808487684,-2.97690739540027,0.));
#2107=UNCERTAINTY_MEASURE_WITH_UNIT(LENGTH_MEASURE(0.01),#2111,
'DISTANCE_ACCURACY_VALUE',
'Maximum model space distance between geometric entities at asserted c
onnectivities');
#2108=UNCERTAINTY_MEASURE_WITH_UNIT(LENGTH_MEASURE(0.01),#2111,
'DISTANCE_ACCURACY_VALUE',
'Maximum model space distance between geometric entities at asserted c
onnectivities');
#2109=(
GEOMETRIC_REPRESENTATION_CONTEXT(3)
GLOBAL_UNCERTAINTY_ASSIGNED_CONTEXT((#2107))
GLOBAL_UNIT_ASSIGNED_CONTEXT((#2111,#2113,#2114))
REPRESENTATION_CONTEXT('','3D')
);
#2110=(
GEOMETRIC_REPRESENTATION_CONTEXT(3)
GLOBAL_UNCERTAINTY_ASSIGNED_CONTEXT((#2108))
GLOBAL_UNIT_ASSIGNED_CONTEXT((#2111,#2113,#2114))
REPRESENTATION_CONTEXT('','3D')
);
#2111=(
LENGTH_UNIT()
NAMED_UNIT(*)
SI_UNIT(.MILLI.,.METRE.)
);
#2112=(
LENGTH_UNIT()
NAMED_UNIT(*)
SI_UNIT($,.METRE.)
);
#2113=(
NAMED_UNIT(*)
PLANE_ANGLE_UNIT()
SI_UNIT($,.RADIAN.)
);
#2114=(
NAMED_UNIT(*)
SI_UNIT($,.STERADIAN.)
SOLID_ANGLE_UNIT()
);
#2115=SHAPE_DEFINITION_REPRESENTATION(#2116,#2117);
#2116=PRODUCT_DEFINITION_SHAPE('',$,#2119);
#2117=SHAPE_REPRESENTATION('',(#1267),#2109);
#2118=PRODUCT_DEFINITION_CONTEXT('part definition',#2123,'design');
#2119=PRODUCT_DEFINITION('CenterRingV0','CenterRingV0 v10',#2120,#2118);
#2120=PRODUCT_DEFINITION_FORMATION('',$,#2125);
#2121=PRODUCT_RELATED_PRODUCT_CATEGORY('CenterRingV0 v10',
'CenterRingV0 v10',(#2125));
#2122=APPLICATION_PROTOCOL_DEFINITION('international standard',
'automotive_design',2009,#2123);
#2123=APPLICATION_CONTEXT(
'Core Data for Automotive Mechanical Design Process');
#2124=PRODUCT_CONTEXT('part definition',#2123,'mechanical');
#2125=PRODUCT('CenterRingV0','CenterRingV0 v10',$,(#2124));
#2126=PRESENTATION_STYLE_ASSIGNMENT((#2127));
#2127=SURFACE_STYLE_USAGE(.BOTH.,#2128);
#2128=SURFACE_SIDE_STYLE('',(#2129));
#2129=SURFACE_STYLE_FILL_AREA(#2130);
#2130=FILL_AREA_STYLE('Steel - Satin',(#2131));
#2131=FILL_AREA_STYLE_COLOUR('Steel - Satin',#2132);
#2132=COLOUR_RGB('Steel - Satin',0.627450980392157,0.627450980392157,0.627450980392157);
ENDSEC;
END-ISO-10303-21;
