ISO-10303-21;
HEADER;
/* Generated by software containing ST-Developer
 * from STEP Tools, Inc. (www.steptools.com) 
 */

FILE_DESCRIPTION(
/* description */ (''),
/* implementation_level */ '2;1');

FILE_NAME(
/* name */ 'FlowerNubV0_v13.step',
/* time_stamp */ '2026-08-21T09:20:19-04:00',
/* author */ (''),
/* organization */ (''),
/* preprocessor_version */ 'ST-DEVELOPER v20.1',
/* originating_system */ 'Autodesk Translation Framework v15.8.0.0',
/* authorisation */ '');

FILE_SCHEMA (('AUTOMOTIVE_DESIGN { 1 0 10303 214 3 1 1 }'));
ENDSEC;

DATA;
#10=MECHANICAL_DESIGN_GEOMETRIC_PRESENTATION_REPRESENTATION('',(#13),#1258);
#11=SHAPE_REPRESENTATION_RELATIONSHIP('SRR','None',#1265,#12);
#12=ADVANCED_BREP_SHAPE_REPRESENTATION('',(#14),#1257);
#13=STYLED_ITEM('',(#1274),#14);
#14=MANIFOLD_SOLID_BREP('Body1',#699);
#15=(
BOUNDED_SURFACE()
B_SPLINE_SURFACE(2,2,((#1216,#1217,#1218,#1219,#1220,#1221,#1222,#1223,
#1224),(#1225,#1226,#1227,#1228,#1229,#1230,#1231,#1232,#1233),(#1234,#1235,
#1236,#1237,#1238,#1239,#1240,#1241,#1242)),.UNSPECIFIED.,.F.,.T.,.F.)
B_SPLINE_SURFACE_WITH_KNOTS((3,3),(3,2,2,2,3),(0.,1.5707963267949),(-3.14159265358979,
-1.5707963267949,0.,1.5707963267949,3.14159265358979),.UNSPECIFIED.)
GEOMETRIC_REPRESENTATION_ITEM()
RATIONAL_B_SPLINE_SURFACE(((1.,0.707106781186548,1.,0.707106781186548,1.,
0.707106781186548,1.,0.707106781186548,1.),(0.707106781186547,0.5,0.707106781186547,
0.5,0.707106781186547,0.5,0.707106781186547,0.5,0.707106781186547),(1.,
0.707106781186548,1.,0.707106781186548,1.,0.707106781186548,1.,0.707106781186548,
1.)))
REPRESENTATION_ITEM('')
SURFACE()
);
#16=FACE_BOUND('',#131,.T.);
#17=TOROIDAL_SURFACE('',#779,10.,8.);
#18=(
BOUNDED_CURVE()
B_SPLINE_CURVE(2,(#1070,#1071,#1072),.UNSPECIFIED.,.F.,.F.)
B_SPLINE_CURVE_WITH_KNOTS((3,3),(0.,0.283636129863354),.UNSPECIFIED.)
CURVE()
GEOMETRIC_REPRESENTATION_ITEM()
RATIONAL_B_SPLINE_CURVE((1.,1.0014035537542,1.))
REPRESENTATION_ITEM('')
);
#19=(
BOUNDED_CURVE()
B_SPLINE_CURVE(2,(#1076,#1077,#1078),.UNSPECIFIED.,.F.,.F.)
B_SPLINE_CURVE_WITH_KNOTS((3,3),(0.,0.283636129839475),.UNSPECIFIED.)
CURVE()
GEOMETRIC_REPRESENTATION_ITEM()
RATIONAL_B_SPLINE_CURVE((1.,1.00140355377615,1.))
REPRESENTATION_ITEM('')
);
#20=(
BOUNDED_CURVE()
B_SPLINE_CURVE(2,(#1083,#1084,#1085),.UNSPECIFIED.,.F.,.F.)
B_SPLINE_CURVE_WITH_KNOTS((3,3),(0.,0.283636129863354),.UNSPECIFIED.)
CURVE()
GEOMETRIC_REPRESENTATION_ITEM()
RATIONAL_B_SPLINE_CURVE((1.,1.00140355371043,1.))
REPRESENTATION_ITEM('')
);
#21=(
BOUNDED_CURVE()
B_SPLINE_CURVE(2,(#1089,#1090,#1091),.UNSPECIFIED.,.F.,.F.)
B_SPLINE_CURVE_WITH_KNOTS((3,3),(0.,0.283636129839475),.UNSPECIFIED.)
CURVE()
GEOMETRIC_REPRESENTATION_ITEM()
RATIONAL_B_SPLINE_CURVE((1.,1.0014035537282,1.))
REPRESENTATION_ITEM('')
);
#22=(
BOUNDED_CURVE()
B_SPLINE_CURVE(2,(#1096,#1097,#1098),.UNSPECIFIED.,.F.,.F.)
B_SPLINE_CURVE_WITH_KNOTS((3,3),(0.,0.283636129863354),.UNSPECIFIED.)
CURVE()
GEOMETRIC_REPRESENTATION_ITEM()
RATIONAL_B_SPLINE_CURVE((1.,1.00140355382716,1.))
REPRESENTATION_ITEM('')
);
#23=(
BOUNDED_CURVE()
B_SPLINE_CURVE(2,(#1102,#1103,#1104),.UNSPECIFIED.,.F.,.F.)
B_SPLINE_CURVE_WITH_KNOTS((3,3),(0.,0.283636129839475),.UNSPECIFIED.)
CURVE()
GEOMETRIC_REPRESENTATION_ITEM()
RATIONAL_B_SPLINE_CURVE((1.,1.00140355374532,1.))
REPRESENTATION_ITEM('')
);
#24=(
BOUNDED_CURVE()
B_SPLINE_CURVE(2,(#1109,#1110,#1111),.UNSPECIFIED.,.F.,.F.)
B_SPLINE_CURVE_WITH_KNOTS((3,3),(0.,0.283636129863354),.UNSPECIFIED.)
CURVE()
GEOMETRIC_REPRESENTATION_ITEM()
RATIONAL_B_SPLINE_CURVE((1.,1.00140355379454,1.))
REPRESENTATION_ITEM('')
);
#25=(
BOUNDED_CURVE()
B_SPLINE_CURVE(2,(#1115,#1116,#1117),.UNSPECIFIED.,.F.,.F.)
B_SPLINE_CURVE_WITH_KNOTS((3,3),(0.,0.283636129839475),.UNSPECIFIED.)
CURVE()
GEOMETRIC_REPRESENTATION_ITEM()
RATIONAL_B_SPLINE_CURVE((1.,1.00140355371313,1.))
REPRESENTATION_ITEM('')
);
#26=(
BOUNDED_CURVE()
B_SPLINE_CURVE(2,(#1122,#1123,#1124),.UNSPECIFIED.,.F.,.F.)
B_SPLINE_CURVE_WITH_KNOTS((3,3),(0.,0.283636129863354),.UNSPECIFIED.)
CURVE()
GEOMETRIC_REPRESENTATION_ITEM()
RATIONAL_B_SPLINE_CURVE((1.,1.0014035537163,1.))
REPRESENTATION_ITEM('')
);
#27=(
BOUNDED_CURVE()
B_SPLINE_CURVE(2,(#1128,#1129,#1130),.UNSPECIFIED.,.F.,.F.)
B_SPLINE_CURVE_WITH_KNOTS((3,3),(0.,0.283636129839475),.UNSPECIFIED.)
CURVE()
GEOMETRIC_REPRESENTATION_ITEM()
RATIONAL_B_SPLINE_CURVE((1.,1.00140355375642,1.))
REPRESENTATION_ITEM('')
);
#28=CONICAL_SURFACE('',#738,19.,0.785398163397448);
#29=CONICAL_SURFACE('',#741,19.,0.785398163397448);
#30=CONICAL_SURFACE('',#744,19.,0.785398163397448);
#31=CONICAL_SURFACE('',#747,19.,0.785398163397449);
#32=CONICAL_SURFACE('',#750,19.,0.785398163397448);
#33=PLANE('',#716);
#34=PLANE('',#721);
#35=PLANE('',#723);
#36=PLANE('',#727);
#37=PLANE('',#730);
#38=PLANE('',#734);
#39=PLANE('',#737);
#40=PLANE('',#753);
#41=PLANE('',#754);
#42=PLANE('',#755);
#43=PLANE('',#756);
#44=PLANE('',#757);
#45=PLANE('',#758);
#46=PLANE('',#759);
#47=PLANE('',#760);
#48=PLANE('',#761);
#49=PLANE('',#762);
#50=PLANE('',#763);
#51=PLANE('',#766);
#52=PLANE('',#769);
#53=PLANE('',#772);
#54=PLANE('',#782);
#55=PLANE('',#789);
#56=PLANE('',#790);
#57=FACE_OUTER_BOUND('',#96,.T.);
#58=FACE_OUTER_BOUND('',#97,.T.);
#59=FACE_OUTER_BOUND('',#98,.T.);
#60=FACE_OUTER_BOUND('',#99,.T.);
#61=FACE_OUTER_BOUND('',#100,.T.);
#62=FACE_OUTER_BOUND('',#101,.T.);
#63=FACE_OUTER_BOUND('',#102,.T.);
#64=FACE_OUTER_BOUND('',#103,.T.);
#65=FACE_OUTER_BOUND('',#104,.T.);
#66=FACE_OUTER_BOUND('',#105,.T.);
#67=FACE_OUTER_BOUND('',#106,.T.);
#68=FACE_OUTER_BOUND('',#107,.T.);
#69=FACE_OUTER_BOUND('',#108,.T.);
#70=FACE_OUTER_BOUND('',#109,.T.);
#71=FACE_OUTER_BOUND('',#110,.T.);
#72=FACE_OUTER_BOUND('',#111,.T.);
#73=FACE_OUTER_BOUND('',#112,.T.);
#74=FACE_OUTER_BOUND('',#113,.T.);
#75=FACE_OUTER_BOUND('',#114,.T.);
#76=FACE_OUTER_BOUND('',#115,.T.);
#77=FACE_OUTER_BOUND('',#116,.T.);
#78=FACE_OUTER_BOUND('',#117,.T.);
#79=FACE_OUTER_BOUND('',#118,.T.);
#80=FACE_OUTER_BOUND('',#119,.T.);
#81=FACE_OUTER_BOUND('',#120,.T.);
#82=FACE_OUTER_BOUND('',#121,.T.);
#83=FACE_OUTER_BOUND('',#122,.T.);
#84=FACE_OUTER_BOUND('',#123,.T.);
#85=FACE_OUTER_BOUND('',#124,.T.);
#86=FACE_OUTER_BOUND('',#125,.T.);
#87=FACE_OUTER_BOUND('',#126,.T.);
#88=FACE_OUTER_BOUND('',#127,.T.);
#89=FACE_OUTER_BOUND('',#128,.T.);
#90=FACE_OUTER_BOUND('',#129,.T.);
#91=FACE_OUTER_BOUND('',#130,.T.);
#92=FACE_OUTER_BOUND('',#132,.T.);
#93=FACE_OUTER_BOUND('',#133,.T.);
#94=FACE_OUTER_BOUND('',#134,.T.);
#95=FACE_OUTER_BOUND('',#135,.T.);
#96=EDGE_LOOP('',(#448,#449,#450,#451));
#97=EDGE_LOOP('',(#452,#453,#454,#455));
#98=EDGE_LOOP('',(#456,#457,#458,#459));
#99=EDGE_LOOP('',(#460,#461,#462,#463));
#100=EDGE_LOOP('',(#464,#465,#466,#467,#468));
#101=EDGE_LOOP('',(#469,#470,#471,#472));
#102=EDGE_LOOP('',(#473,#474,#475,#476,#477));
#103=EDGE_LOOP('',(#478,#479,#480,#481));
#104=EDGE_LOOP('',(#482,#483,#484,#485,#486));
#105=EDGE_LOOP('',(#487,#488,#489,#490));
#106=EDGE_LOOP('',(#491,#492,#493,#494,#495));
#107=EDGE_LOOP('',(#496,#497,#498,#499));
#108=EDGE_LOOP('',(#500,#501,#502,#503,#504,#505,#506,#507));
#109=EDGE_LOOP('',(#508,#509,#510,#511));
#110=EDGE_LOOP('',(#512,#513,#514,#515));
#111=EDGE_LOOP('',(#516,#517,#518,#519));
#112=EDGE_LOOP('',(#520,#521,#522,#523));
#113=EDGE_LOOP('',(#524,#525,#526,#527));
#114=EDGE_LOOP('',(#528,#529,#530,#531));
#115=EDGE_LOOP('',(#532,#533,#534,#535));
#116=EDGE_LOOP('',(#536,#537,#538,#539));
#117=EDGE_LOOP('',(#540,#541,#542,#543));
#118=EDGE_LOOP('',(#544,#545,#546,#547));
#119=EDGE_LOOP('',(#548,#549,#550,#551));
#120=EDGE_LOOP('',(#552,#553,#554,#555));
#121=EDGE_LOOP('',(#556,#557,#558,#559));
#122=EDGE_LOOP('',(#560,#561,#562,#563));
#123=EDGE_LOOP('',(#564,#565,#566,#567));
#124=EDGE_LOOP('',(#568,#569,#570,#571));
#125=EDGE_LOOP('',(#572,#573,#574,#575));
#126=EDGE_LOOP('',(#576,#577,#578,#579));
#127=EDGE_LOOP('',(#580,#581,#582,#583));
#128=EDGE_LOOP('',(#584,#585,#586,#587,#588,#589,#590,#591,#592,#593,#594,
#595,#596,#597,#598,#599,#600,#601,#602,#603,#604,#605,#606,#607));
#129=EDGE_LOOP('',(#608,#609,#610,#611));
#130=EDGE_LOOP('',(#612));
#131=EDGE_LOOP('',(#613,#614,#615,#616));
#132=EDGE_LOOP('',(#617,#618,#619,#620));
#133=EDGE_LOOP('',(#621,#622,#623,#624,#625,#626,#627,#628,#629,#630,#631,
#632,#633,#634,#635,#636,#637,#638,#639,#640,#641,#642,#643,#644));
#134=EDGE_LOOP('',(#645));
#135=EDGE_LOOP('',(#646,#647,#648,#649,#650,#651));
#136=LINE('',#1007,#188);
#137=LINE('',#1010,#189);
#138=LINE('',#1013,#190);
#139=LINE('',#1015,#191);
#140=LINE('',#1022,#192);
#141=LINE('',#1025,#193);
#142=LINE('',#1028,#194);
#143=LINE('',#1030,#195);
#144=LINE('',#1034,#196);
#145=LINE('',#1036,#197);
#146=LINE('',#1037,#198);
#147=LINE('',#1042,#199);
#148=LINE('',#1045,#200);
#149=LINE('',#1046,#201);
#150=LINE('',#1050,#202);
#151=LINE('',#1053,#203);
#152=LINE('',#1054,#204);
#153=LINE('',#1059,#205);
#154=LINE('',#1062,#206);
#155=LINE('',#1063,#207);
#156=LINE('',#1134,#208);
#157=LINE('',#1136,#209);
#158=LINE('',#1137,#210);
#159=LINE('',#1140,#211);
#160=LINE('',#1142,#212);
#161=LINE('',#1143,#213);
#162=LINE('',#1146,#214);
#163=LINE('',#1148,#215);
#164=LINE('',#1149,#216);
#165=LINE('',#1152,#217);
#166=LINE('',#1154,#218);
#167=LINE('',#1155,#219);
#168=LINE('',#1158,#220);
#169=LINE('',#1160,#221);
#170=LINE('',#1161,#222);
#171=LINE('',#1164,#223);
#172=LINE('',#1166,#224);
#173=LINE('',#1167,#225);
#174=LINE('',#1170,#226);
#175=LINE('',#1172,#227);
#176=LINE('',#1173,#228);
#177=LINE('',#1176,#229);
#178=LINE('',#1178,#230);
#179=LINE('',#1179,#231);
#180=LINE('',#1182,#232);
#181=LINE('',#1184,#233);
#182=LINE('',#1185,#234);
#183=LINE('',#1188,#235);
#184=LINE('',#1190,#236);
#185=LINE('',#1191,#237);
#186=LINE('',#1208,#238);
#187=LINE('',#1250,#239);
#188=VECTOR('',#797,10.);
#189=VECTOR('',#800,10.);
#190=VECTOR('',#803,10.);
#191=VECTOR('',#804,10.);
#192=VECTOR('',#811,10.);
#193=VECTOR('',#814,10.);
#194=VECTOR('',#817,10.);
#195=VECTOR('',#818,10.);
#196=VECTOR('',#823,10.);
#197=VECTOR('',#824,10.);
#198=VECTOR('',#825,10.);
#199=VECTOR('',#832,10.);
#200=VECTOR('',#835,10.);
#201=VECTOR('',#836,10.);
#202=VECTOR('',#841,10.);
#203=VECTOR('',#844,10.);
#204=VECTOR('',#845,10.);
#205=VECTOR('',#852,10.);
#206=VECTOR('',#855,10.);
#207=VECTOR('',#856,10.);
#208=VECTOR('',#895,10.);
#209=VECTOR('',#896,10.);
#210=VECTOR('',#897,10.);
#211=VECTOR('',#900,10.);
#212=VECTOR('',#901,10.);
#213=VECTOR('',#902,10.);
#214=VECTOR('',#905,10.);
#215=VECTOR('',#906,10.);
#216=VECTOR('',#907,10.);
#217=VECTOR('',#910,10.);
#218=VECTOR('',#911,10.);
#219=VECTOR('',#912,10.);
#220=VECTOR('',#915,10.);
#221=VECTOR('',#916,10.);
#222=VECTOR('',#917,10.);
#223=VECTOR('',#920,10.);
#224=VECTOR('',#921,10.);
#225=VECTOR('',#922,10.);
#226=VECTOR('',#925,10.);
#227=VECTOR('',#926,10.);
#228=VECTOR('',#927,10.);
#229=VECTOR('',#930,10.);
#230=VECTOR('',#931,10.);
#231=VECTOR('',#932,10.);
#232=VECTOR('',#935,10.);
#233=VECTOR('',#936,10.);
#234=VECTOR('',#937,10.);
#235=VECTOR('',#940,10.);
#236=VECTOR('',#941,10.);
#237=VECTOR('',#942,10.);
#238=VECTOR('',#971,20.);
#239=VECTOR('',#992,20.);
#240=CIRCLE('',#714,5.);
#241=CIRCLE('',#715,5.);
#242=CIRCLE('',#717,3.);
#243=CIRCLE('',#719,5.);
#244=CIRCLE('',#720,5.);
#245=CIRCLE('',#722,3.);
#246=CIRCLE('',#725,5.);
#247=CIRCLE('',#726,5.);
#248=CIRCLE('',#729,3.);
#249=CIRCLE('',#732,5.);
#250=CIRCLE('',#733,5.);
#251=CIRCLE('',#736,3.);
#252=CIRCLE('',#739,20.);
#253=CIRCLE('',#740,18.);
#254=CIRCLE('',#742,20.);
#255=CIRCLE('',#743,18.);
#256=CIRCLE('',#745,20.);
#257=CIRCLE('',#746,18.);
#258=CIRCLE('',#748,20.);
#259=CIRCLE('',#749,18.);
#260=CIRCLE('',#751,20.);
#261=CIRCLE('',#752,18.);
#262=CIRCLE('',#764,20.);
#263=CIRCLE('',#765,18.);
#264=CIRCLE('',#767,18.);
#265=CIRCLE('',#768,20.);
#266=CIRCLE('',#770,20.);
#267=CIRCLE('',#771,18.);
#268=CIRCLE('',#773,18.);
#269=CIRCLE('',#774,20.);
#270=CIRCLE('',#776,18.);
#271=CIRCLE('',#777,18.);
#272=CIRCLE('',#778,18.);
#273=CIRCLE('',#780,8.);
#274=CIRCLE('',#781,10.);
#275=CIRCLE('',#783,10.);
#276=CIRCLE('',#784,10.);
#277=CIRCLE('',#785,20.);
#278=CIRCLE('',#787,20.);
#279=CIRCLE('',#788,20.);
#280=VERTEX_POINT('',#1003);
#281=VERTEX_POINT('',#1004);
#282=VERTEX_POINT('',#1006);
#283=VERTEX_POINT('',#1008);
#284=VERTEX_POINT('',#1012);
#285=VERTEX_POINT('',#1014);
#286=VERTEX_POINT('',#1018);
#287=VERTEX_POINT('',#1019);
#288=VERTEX_POINT('',#1021);
#289=VERTEX_POINT('',#1023);
#290=VERTEX_POINT('',#1027);
#291=VERTEX_POINT('',#1029);
#292=VERTEX_POINT('',#1033);
#293=VERTEX_POINT('',#1035);
#294=VERTEX_POINT('',#1040);
#295=VERTEX_POINT('',#1044);
#296=VERTEX_POINT('',#1048);
#297=VERTEX_POINT('',#1052);
#298=VERTEX_POINT('',#1057);
#299=VERTEX_POINT('',#1061);
#300=VERTEX_POINT('',#1068);
#301=VERTEX_POINT('',#1069);
#302=VERTEX_POINT('',#1073);
#303=VERTEX_POINT('',#1075);
#304=VERTEX_POINT('',#1081);
#305=VERTEX_POINT('',#1082);
#306=VERTEX_POINT('',#1086);
#307=VERTEX_POINT('',#1088);
#308=VERTEX_POINT('',#1094);
#309=VERTEX_POINT('',#1095);
#310=VERTEX_POINT('',#1099);
#311=VERTEX_POINT('',#1101);
#312=VERTEX_POINT('',#1107);
#313=VERTEX_POINT('',#1108);
#314=VERTEX_POINT('',#1112);
#315=VERTEX_POINT('',#1114);
#316=VERTEX_POINT('',#1120);
#317=VERTEX_POINT('',#1121);
#318=VERTEX_POINT('',#1125);
#319=VERTEX_POINT('',#1127);
#320=VERTEX_POINT('',#1133);
#321=VERTEX_POINT('',#1135);
#322=VERTEX_POINT('',#1139);
#323=VERTEX_POINT('',#1141);
#324=VERTEX_POINT('',#1145);
#325=VERTEX_POINT('',#1147);
#326=VERTEX_POINT('',#1151);
#327=VERTEX_POINT('',#1153);
#328=VERTEX_POINT('',#1157);
#329=VERTEX_POINT('',#1159);
#330=VERTEX_POINT('',#1163);
#331=VERTEX_POINT('',#1165);
#332=VERTEX_POINT('',#1169);
#333=VERTEX_POINT('',#1171);
#334=VERTEX_POINT('',#1175);
#335=VERTEX_POINT('',#1177);
#336=VERTEX_POINT('',#1181);
#337=VERTEX_POINT('',#1183);
#338=VERTEX_POINT('',#1187);
#339=VERTEX_POINT('',#1189);
#340=VERTEX_POINT('',#1205);
#341=VERTEX_POINT('',#1207);
#342=VERTEX_POINT('',#1212);
#343=VERTEX_POINT('',#1243);
#344=VERTEX_POINT('',#1245);
#345=VERTEX_POINT('',#1249);
#346=EDGE_CURVE('',#280,#281,#240,.T.);
#347=EDGE_CURVE('',#280,#282,#136,.T.);
#348=EDGE_CURVE('',#282,#283,#241,.T.);
#349=EDGE_CURVE('',#281,#283,#137,.T.);
#350=EDGE_CURVE('',#283,#284,#138,.T.);
#351=EDGE_CURVE('',#285,#282,#139,.T.);
#352=EDGE_CURVE('',#284,#285,#242,.T.);
#353=EDGE_CURVE('',#286,#287,#243,.T.);
#354=EDGE_CURVE('',#286,#288,#140,.T.);
#355=EDGE_CURVE('',#288,#289,#244,.T.);
#356=EDGE_CURVE('',#287,#289,#141,.T.);
#357=EDGE_CURVE('',#289,#290,#142,.T.);
#358=EDGE_CURVE('',#291,#288,#143,.T.);
#359=EDGE_CURVE('',#290,#291,#245,.T.);
#360=EDGE_CURVE('',#284,#292,#144,.T.);
#361=EDGE_CURVE('',#293,#292,#145,.T.);
#362=EDGE_CURVE('',#281,#293,#146,.T.);
#363=EDGE_CURVE('',#281,#286,#246,.T.);
#364=EDGE_CURVE('',#294,#293,#247,.T.);
#365=EDGE_CURVE('',#286,#294,#147,.T.);
#366=EDGE_CURVE('',#295,#294,#148,.T.);
#367=EDGE_CURVE('',#295,#291,#149,.T.);
#368=EDGE_CURVE('',#296,#295,#248,.T.);
#369=EDGE_CURVE('',#296,#290,#150,.T.);
#370=EDGE_CURVE('',#297,#296,#151,.T.);
#371=EDGE_CURVE('',#287,#297,#152,.T.);
#372=EDGE_CURVE('',#287,#280,#249,.T.);
#373=EDGE_CURVE('',#298,#297,#250,.T.);
#374=EDGE_CURVE('',#280,#298,#153,.T.);
#375=EDGE_CURVE('',#299,#298,#154,.T.);
#376=EDGE_CURVE('',#299,#285,#155,.T.);
#377=EDGE_CURVE('',#292,#299,#251,.T.);
#378=EDGE_CURVE('',#300,#301,#18,.F.);
#379=EDGE_CURVE('',#302,#301,#252,.T.);
#380=EDGE_CURVE('',#302,#303,#19,.F.);
#381=EDGE_CURVE('',#303,#300,#253,.T.);
#382=EDGE_CURVE('',#304,#305,#20,.F.);
#383=EDGE_CURVE('',#306,#305,#254,.T.);
#384=EDGE_CURVE('',#306,#307,#21,.F.);
#385=EDGE_CURVE('',#307,#304,#255,.T.);
#386=EDGE_CURVE('',#308,#309,#22,.F.);
#387=EDGE_CURVE('',#310,#309,#256,.T.);
#388=EDGE_CURVE('',#310,#311,#23,.F.);
#389=EDGE_CURVE('',#311,#308,#257,.T.);
#390=EDGE_CURVE('',#312,#313,#24,.F.);
#391=EDGE_CURVE('',#314,#313,#258,.T.);
#392=EDGE_CURVE('',#314,#315,#25,.F.);
#393=EDGE_CURVE('',#315,#312,#259,.T.);
#394=EDGE_CURVE('',#316,#317,#26,.F.);
#395=EDGE_CURVE('',#318,#317,#260,.T.);
#396=EDGE_CURVE('',#318,#319,#27,.F.);
#397=EDGE_CURVE('',#319,#316,#261,.T.);
#398=EDGE_CURVE('',#315,#320,#156,.T.);
#399=EDGE_CURVE('',#321,#314,#157,.T.);
#400=EDGE_CURVE('',#320,#321,#158,.T.);
#401=EDGE_CURVE('',#322,#312,#159,.T.);
#402=EDGE_CURVE('',#323,#322,#160,.T.);
#403=EDGE_CURVE('',#313,#323,#161,.T.);
#404=EDGE_CURVE('',#319,#324,#162,.T.);
#405=EDGE_CURVE('',#325,#318,#163,.T.);
#406=EDGE_CURVE('',#324,#325,#164,.T.);
#407=EDGE_CURVE('',#326,#316,#165,.T.);
#408=EDGE_CURVE('',#327,#326,#166,.T.);
#409=EDGE_CURVE('',#317,#327,#167,.T.);
#410=EDGE_CURVE('',#311,#328,#168,.T.);
#411=EDGE_CURVE('',#329,#310,#169,.T.);
#412=EDGE_CURVE('',#328,#329,#170,.T.);
#413=EDGE_CURVE('',#330,#308,#171,.T.);
#414=EDGE_CURVE('',#331,#330,#172,.T.);
#415=EDGE_CURVE('',#309,#331,#173,.T.);
#416=EDGE_CURVE('',#303,#332,#174,.T.);
#417=EDGE_CURVE('',#333,#302,#175,.T.);
#418=EDGE_CURVE('',#332,#333,#176,.T.);
#419=EDGE_CURVE('',#334,#300,#177,.T.);
#420=EDGE_CURVE('',#335,#334,#178,.T.);
#421=EDGE_CURVE('',#301,#335,#179,.T.);
#422=EDGE_CURVE('',#307,#336,#180,.T.);
#423=EDGE_CURVE('',#337,#306,#181,.T.);
#424=EDGE_CURVE('',#336,#337,#182,.T.);
#425=EDGE_CURVE('',#338,#304,#183,.T.);
#426=EDGE_CURVE('',#339,#338,#184,.T.);
#427=EDGE_CURVE('',#305,#339,#185,.T.);
#428=EDGE_CURVE('',#339,#329,#262,.T.);
#429=EDGE_CURVE('',#338,#328,#263,.T.);
#430=EDGE_CURVE('',#334,#336,#264,.T.);
#431=EDGE_CURVE('',#335,#337,#265,.T.);
#432=EDGE_CURVE('',#331,#321,#266,.T.);
#433=EDGE_CURVE('',#330,#320,#267,.T.);
#434=EDGE_CURVE('',#326,#332,#268,.T.);
#435=EDGE_CURVE('',#327,#333,#269,.T.);
#436=EDGE_CURVE('',#340,#324,#270,.T.);
#437=EDGE_CURVE('',#340,#341,#186,.T.);
#438=EDGE_CURVE('',#341,#341,#271,.T.);
#439=EDGE_CURVE('',#322,#340,#272,.T.);
#440=EDGE_CURVE('',#341,#342,#273,.T.);
#441=EDGE_CURVE('',#342,#342,#274,.T.);
#442=EDGE_CURVE('',#343,#343,#275,.T.);
#443=EDGE_CURVE('',#343,#344,#276,.T.);
#444=EDGE_CURVE('',#344,#344,#277,.T.);
#445=EDGE_CURVE('',#344,#345,#187,.T.);
#446=EDGE_CURVE('',#345,#325,#278,.T.);
#447=EDGE_CURVE('',#323,#345,#279,.T.);
#448=ORIENTED_EDGE('',*,*,#346,.F.);
#449=ORIENTED_EDGE('',*,*,#347,.T.);
#450=ORIENTED_EDGE('',*,*,#348,.T.);
#451=ORIENTED_EDGE('',*,*,#349,.F.);
#452=ORIENTED_EDGE('',*,*,#350,.F.);
#453=ORIENTED_EDGE('',*,*,#348,.F.);
#454=ORIENTED_EDGE('',*,*,#351,.F.);
#455=ORIENTED_EDGE('',*,*,#352,.F.);
#456=ORIENTED_EDGE('',*,*,#353,.F.);
#457=ORIENTED_EDGE('',*,*,#354,.T.);
#458=ORIENTED_EDGE('',*,*,#355,.T.);
#459=ORIENTED_EDGE('',*,*,#356,.F.);
#460=ORIENTED_EDGE('',*,*,#357,.F.);
#461=ORIENTED_EDGE('',*,*,#355,.F.);
#462=ORIENTED_EDGE('',*,*,#358,.F.);
#463=ORIENTED_EDGE('',*,*,#359,.F.);
#464=ORIENTED_EDGE('',*,*,#360,.T.);
#465=ORIENTED_EDGE('',*,*,#361,.F.);
#466=ORIENTED_EDGE('',*,*,#362,.F.);
#467=ORIENTED_EDGE('',*,*,#349,.T.);
#468=ORIENTED_EDGE('',*,*,#350,.T.);
#469=ORIENTED_EDGE('',*,*,#363,.F.);
#470=ORIENTED_EDGE('',*,*,#362,.T.);
#471=ORIENTED_EDGE('',*,*,#364,.F.);
#472=ORIENTED_EDGE('',*,*,#365,.F.);
#473=ORIENTED_EDGE('',*,*,#365,.T.);
#474=ORIENTED_EDGE('',*,*,#366,.F.);
#475=ORIENTED_EDGE('',*,*,#367,.T.);
#476=ORIENTED_EDGE('',*,*,#358,.T.);
#477=ORIENTED_EDGE('',*,*,#354,.F.);
#478=ORIENTED_EDGE('',*,*,#367,.F.);
#479=ORIENTED_EDGE('',*,*,#368,.F.);
#480=ORIENTED_EDGE('',*,*,#369,.T.);
#481=ORIENTED_EDGE('',*,*,#359,.T.);
#482=ORIENTED_EDGE('',*,*,#369,.F.);
#483=ORIENTED_EDGE('',*,*,#370,.F.);
#484=ORIENTED_EDGE('',*,*,#371,.F.);
#485=ORIENTED_EDGE('',*,*,#356,.T.);
#486=ORIENTED_EDGE('',*,*,#357,.T.);
#487=ORIENTED_EDGE('',*,*,#372,.F.);
#488=ORIENTED_EDGE('',*,*,#371,.T.);
#489=ORIENTED_EDGE('',*,*,#373,.F.);
#490=ORIENTED_EDGE('',*,*,#374,.F.);
#491=ORIENTED_EDGE('',*,*,#374,.T.);
#492=ORIENTED_EDGE('',*,*,#375,.F.);
#493=ORIENTED_EDGE('',*,*,#376,.T.);
#494=ORIENTED_EDGE('',*,*,#351,.T.);
#495=ORIENTED_EDGE('',*,*,#347,.F.);
#496=ORIENTED_EDGE('',*,*,#376,.F.);
#497=ORIENTED_EDGE('',*,*,#377,.F.);
#498=ORIENTED_EDGE('',*,*,#360,.F.);
#499=ORIENTED_EDGE('',*,*,#352,.T.);
#500=ORIENTED_EDGE('',*,*,#377,.T.);
#501=ORIENTED_EDGE('',*,*,#375,.T.);
#502=ORIENTED_EDGE('',*,*,#373,.T.);
#503=ORIENTED_EDGE('',*,*,#370,.T.);
#504=ORIENTED_EDGE('',*,*,#368,.T.);
#505=ORIENTED_EDGE('',*,*,#366,.T.);
#506=ORIENTED_EDGE('',*,*,#364,.T.);
#507=ORIENTED_EDGE('',*,*,#361,.T.);
#508=ORIENTED_EDGE('',*,*,#378,.T.);
#509=ORIENTED_EDGE('',*,*,#379,.F.);
#510=ORIENTED_EDGE('',*,*,#380,.T.);
#511=ORIENTED_EDGE('',*,*,#381,.T.);
#512=ORIENTED_EDGE('',*,*,#382,.T.);
#513=ORIENTED_EDGE('',*,*,#383,.F.);
#514=ORIENTED_EDGE('',*,*,#384,.T.);
#515=ORIENTED_EDGE('',*,*,#385,.T.);
#516=ORIENTED_EDGE('',*,*,#386,.T.);
#517=ORIENTED_EDGE('',*,*,#387,.F.);
#518=ORIENTED_EDGE('',*,*,#388,.T.);
#519=ORIENTED_EDGE('',*,*,#389,.T.);
#520=ORIENTED_EDGE('',*,*,#390,.T.);
#521=ORIENTED_EDGE('',*,*,#391,.F.);
#522=ORIENTED_EDGE('',*,*,#392,.T.);
#523=ORIENTED_EDGE('',*,*,#393,.T.);
#524=ORIENTED_EDGE('',*,*,#394,.T.);
#525=ORIENTED_EDGE('',*,*,#395,.F.);
#526=ORIENTED_EDGE('',*,*,#396,.T.);
#527=ORIENTED_EDGE('',*,*,#397,.T.);
#528=ORIENTED_EDGE('',*,*,#398,.F.);
#529=ORIENTED_EDGE('',*,*,#392,.F.);
#530=ORIENTED_EDGE('',*,*,#399,.F.);
#531=ORIENTED_EDGE('',*,*,#400,.F.);
#532=ORIENTED_EDGE('',*,*,#401,.F.);
#533=ORIENTED_EDGE('',*,*,#402,.F.);
#534=ORIENTED_EDGE('',*,*,#403,.F.);
#535=ORIENTED_EDGE('',*,*,#390,.F.);
#536=ORIENTED_EDGE('',*,*,#404,.F.);
#537=ORIENTED_EDGE('',*,*,#396,.F.);
#538=ORIENTED_EDGE('',*,*,#405,.F.);
#539=ORIENTED_EDGE('',*,*,#406,.F.);
#540=ORIENTED_EDGE('',*,*,#407,.F.);
#541=ORIENTED_EDGE('',*,*,#408,.F.);
#542=ORIENTED_EDGE('',*,*,#409,.F.);
#543=ORIENTED_EDGE('',*,*,#394,.F.);
#544=ORIENTED_EDGE('',*,*,#410,.F.);
#545=ORIENTED_EDGE('',*,*,#388,.F.);
#546=ORIENTED_EDGE('',*,*,#411,.F.);
#547=ORIENTED_EDGE('',*,*,#412,.F.);
#548=ORIENTED_EDGE('',*,*,#413,.F.);
#549=ORIENTED_EDGE('',*,*,#414,.F.);
#550=ORIENTED_EDGE('',*,*,#415,.F.);
#551=ORIENTED_EDGE('',*,*,#386,.F.);
#552=ORIENTED_EDGE('',*,*,#416,.F.);
#553=ORIENTED_EDGE('',*,*,#380,.F.);
#554=ORIENTED_EDGE('',*,*,#417,.F.);
#555=ORIENTED_EDGE('',*,*,#418,.F.);
#556=ORIENTED_EDGE('',*,*,#419,.F.);
#557=ORIENTED_EDGE('',*,*,#420,.F.);
#558=ORIENTED_EDGE('',*,*,#421,.F.);
#559=ORIENTED_EDGE('',*,*,#378,.F.);
#560=ORIENTED_EDGE('',*,*,#422,.F.);
#561=ORIENTED_EDGE('',*,*,#384,.F.);
#562=ORIENTED_EDGE('',*,*,#423,.F.);
#563=ORIENTED_EDGE('',*,*,#424,.F.);
#564=ORIENTED_EDGE('',*,*,#425,.F.);
#565=ORIENTED_EDGE('',*,*,#426,.F.);
#566=ORIENTED_EDGE('',*,*,#427,.F.);
#567=ORIENTED_EDGE('',*,*,#382,.F.);
#568=ORIENTED_EDGE('',*,*,#412,.T.);
#569=ORIENTED_EDGE('',*,*,#428,.F.);
#570=ORIENTED_EDGE('',*,*,#426,.T.);
#571=ORIENTED_EDGE('',*,*,#429,.T.);
#572=ORIENTED_EDGE('',*,*,#420,.T.);
#573=ORIENTED_EDGE('',*,*,#430,.T.);
#574=ORIENTED_EDGE('',*,*,#424,.T.);
#575=ORIENTED_EDGE('',*,*,#431,.F.);
#576=ORIENTED_EDGE('',*,*,#400,.T.);
#577=ORIENTED_EDGE('',*,*,#432,.F.);
#578=ORIENTED_EDGE('',*,*,#414,.T.);
#579=ORIENTED_EDGE('',*,*,#433,.T.);
#580=ORIENTED_EDGE('',*,*,#408,.T.);
#581=ORIENTED_EDGE('',*,*,#434,.T.);
#582=ORIENTED_EDGE('',*,*,#418,.T.);
#583=ORIENTED_EDGE('',*,*,#435,.F.);
#584=ORIENTED_EDGE('',*,*,#416,.T.);
#585=ORIENTED_EDGE('',*,*,#434,.F.);
#586=ORIENTED_EDGE('',*,*,#407,.T.);
#587=ORIENTED_EDGE('',*,*,#397,.F.);
#588=ORIENTED_EDGE('',*,*,#404,.T.);
#589=ORIENTED_EDGE('',*,*,#436,.F.);
#590=ORIENTED_EDGE('',*,*,#437,.T.);
#591=ORIENTED_EDGE('',*,*,#438,.T.);
#592=ORIENTED_EDGE('',*,*,#437,.F.);
#593=ORIENTED_EDGE('',*,*,#439,.F.);
#594=ORIENTED_EDGE('',*,*,#401,.T.);
#595=ORIENTED_EDGE('',*,*,#393,.F.);
#596=ORIENTED_EDGE('',*,*,#398,.T.);
#597=ORIENTED_EDGE('',*,*,#433,.F.);
#598=ORIENTED_EDGE('',*,*,#413,.T.);
#599=ORIENTED_EDGE('',*,*,#389,.F.);
#600=ORIENTED_EDGE('',*,*,#410,.T.);
#601=ORIENTED_EDGE('',*,*,#429,.F.);
#602=ORIENTED_EDGE('',*,*,#425,.T.);
#603=ORIENTED_EDGE('',*,*,#385,.F.);
#604=ORIENTED_EDGE('',*,*,#422,.T.);
#605=ORIENTED_EDGE('',*,*,#430,.F.);
#606=ORIENTED_EDGE('',*,*,#419,.T.);
#607=ORIENTED_EDGE('',*,*,#381,.F.);
#608=ORIENTED_EDGE('',*,*,#438,.F.);
#609=ORIENTED_EDGE('',*,*,#440,.T.);
#610=ORIENTED_EDGE('',*,*,#441,.F.);
#611=ORIENTED_EDGE('',*,*,#440,.F.);
#612=ORIENTED_EDGE('',*,*,#441,.T.);
#613=ORIENTED_EDGE('',*,*,#346,.T.);
#614=ORIENTED_EDGE('',*,*,#363,.T.);
#615=ORIENTED_EDGE('',*,*,#353,.T.);
#616=ORIENTED_EDGE('',*,*,#372,.T.);
#617=ORIENTED_EDGE('',*,*,#442,.T.);
#618=ORIENTED_EDGE('',*,*,#443,.T.);
#619=ORIENTED_EDGE('',*,*,#444,.T.);
#620=ORIENTED_EDGE('',*,*,#443,.F.);
#621=ORIENTED_EDGE('',*,*,#444,.F.);
#622=ORIENTED_EDGE('',*,*,#445,.T.);
#623=ORIENTED_EDGE('',*,*,#446,.T.);
#624=ORIENTED_EDGE('',*,*,#405,.T.);
#625=ORIENTED_EDGE('',*,*,#395,.T.);
#626=ORIENTED_EDGE('',*,*,#409,.T.);
#627=ORIENTED_EDGE('',*,*,#435,.T.);
#628=ORIENTED_EDGE('',*,*,#417,.T.);
#629=ORIENTED_EDGE('',*,*,#379,.T.);
#630=ORIENTED_EDGE('',*,*,#421,.T.);
#631=ORIENTED_EDGE('',*,*,#431,.T.);
#632=ORIENTED_EDGE('',*,*,#423,.T.);
#633=ORIENTED_EDGE('',*,*,#383,.T.);
#634=ORIENTED_EDGE('',*,*,#427,.T.);
#635=ORIENTED_EDGE('',*,*,#428,.T.);
#636=ORIENTED_EDGE('',*,*,#411,.T.);
#637=ORIENTED_EDGE('',*,*,#387,.T.);
#638=ORIENTED_EDGE('',*,*,#415,.T.);
#639=ORIENTED_EDGE('',*,*,#432,.T.);
#640=ORIENTED_EDGE('',*,*,#399,.T.);
#641=ORIENTED_EDGE('',*,*,#391,.T.);
#642=ORIENTED_EDGE('',*,*,#403,.T.);
#643=ORIENTED_EDGE('',*,*,#447,.T.);
#644=ORIENTED_EDGE('',*,*,#445,.F.);
#645=ORIENTED_EDGE('',*,*,#442,.F.);
#646=ORIENTED_EDGE('',*,*,#402,.T.);
#647=ORIENTED_EDGE('',*,*,#439,.T.);
#648=ORIENTED_EDGE('',*,*,#436,.T.);
#649=ORIENTED_EDGE('',*,*,#406,.T.);
#650=ORIENTED_EDGE('',*,*,#446,.F.);
#651=ORIENTED_EDGE('',*,*,#447,.F.);
#652=CYLINDRICAL_SURFACE('',#713,5.);
#653=CYLINDRICAL_SURFACE('',#718,5.);
#654=CYLINDRICAL_SURFACE('',#724,5.);
#655=CYLINDRICAL_SURFACE('',#728,3.);
#656=CYLINDRICAL_SURFACE('',#731,5.);
#657=CYLINDRICAL_SURFACE('',#735,3.);
#658=CYLINDRICAL_SURFACE('',#775,18.);
#659=CYLINDRICAL_SURFACE('',#786,20.);
#660=ADVANCED_FACE('',(#57),#652,.F.);
#661=ADVANCED_FACE('',(#58),#33,.T.);
#662=ADVANCED_FACE('',(#59),#653,.F.);
#663=ADVANCED_FACE('',(#60),#34,.T.);
#664=ADVANCED_FACE('',(#61),#35,.T.);
#665=ADVANCED_FACE('',(#62),#654,.T.);
#666=ADVANCED_FACE('',(#63),#36,.T.);
#667=ADVANCED_FACE('',(#64),#655,.T.);
#668=ADVANCED_FACE('',(#65),#37,.T.);
#669=ADVANCED_FACE('',(#66),#656,.T.);
#670=ADVANCED_FACE('',(#67),#38,.T.);
#671=ADVANCED_FACE('',(#68),#657,.T.);
#672=ADVANCED_FACE('',(#69),#39,.T.);
#673=ADVANCED_FACE('',(#70),#28,.F.);
#674=ADVANCED_FACE('',(#71),#29,.F.);
#675=ADVANCED_FACE('',(#72),#30,.F.);
#676=ADVANCED_FACE('',(#73),#31,.F.);
#677=ADVANCED_FACE('',(#74),#32,.F.);
#678=ADVANCED_FACE('',(#75),#40,.F.);
#679=ADVANCED_FACE('',(#76),#41,.F.);
#680=ADVANCED_FACE('',(#77),#42,.F.);
#681=ADVANCED_FACE('',(#78),#43,.F.);
#682=ADVANCED_FACE('',(#79),#44,.F.);
#683=ADVANCED_FACE('',(#80),#45,.F.);
#684=ADVANCED_FACE('',(#81),#46,.F.);
#685=ADVANCED_FACE('',(#82),#47,.F.);
#686=ADVANCED_FACE('',(#83),#48,.F.);
#687=ADVANCED_FACE('',(#84),#49,.F.);
#688=ADVANCED_FACE('',(#85),#50,.F.);
#689=ADVANCED_FACE('',(#86),#51,.F.);
#690=ADVANCED_FACE('',(#87),#52,.F.);
#691=ADVANCED_FACE('',(#88),#53,.F.);
#692=ADVANCED_FACE('',(#89),#658,.F.);
#693=ADVANCED_FACE('',(#90),#17,.F.);
#694=ADVANCED_FACE('',(#91,#16),#54,.F.);
#695=ADVANCED_FACE('',(#92),#15,.F.);
#696=ADVANCED_FACE('',(#93),#659,.T.);
#697=ADVANCED_FACE('',(#94),#55,.T.);
#698=ADVANCED_FACE('',(#95),#56,.F.);
#699=CLOSED_SHELL('',(#660,#661,#662,#663,#664,#665,#666,#667,#668,#669,
#670,#671,#672,#673,#674,#675,#676,#677,#678,#679,#680,#681,#682,#683,#684,
#685,#686,#687,#688,#689,#690,#691,#692,#693,#694,#695,#696,#697,#698));
#700=DERIVED_UNIT_ELEMENT(#702,1.);
#701=DERIVED_UNIT_ELEMENT(#1260,-3.);
#702=(
MASS_UNIT()
NAMED_UNIT(*)
SI_UNIT(.KILO.,.GRAM.)
);
#703=DERIVED_UNIT((#700,#701));
#704=MEASURE_REPRESENTATION_ITEM('density measure',
POSITIVE_RATIO_MEASURE(7850.),#703);
#705=PROPERTY_DEFINITION_REPRESENTATION(#710,#707);
#706=PROPERTY_DEFINITION_REPRESENTATION(#711,#708);
#707=REPRESENTATION('material name',(#709),#1257);
#708=REPRESENTATION('density',(#704),#1257);
#709=DESCRIPTIVE_REPRESENTATION_ITEM('Steel','Steel');
#710=PROPERTY_DEFINITION('material property','material name',#1267);
#711=PROPERTY_DEFINITION('material property','density of part',#1267);
#712=AXIS2_PLACEMENT_3D('',#1001,#791,#792);
#713=AXIS2_PLACEMENT_3D('',#1002,#793,#794);
#714=AXIS2_PLACEMENT_3D('',#1005,#795,#796);
#715=AXIS2_PLACEMENT_3D('',#1009,#798,#799);
#716=AXIS2_PLACEMENT_3D('',#1011,#801,#802);
#717=AXIS2_PLACEMENT_3D('',#1016,#805,#806);
#718=AXIS2_PLACEMENT_3D('',#1017,#807,#808);
#719=AXIS2_PLACEMENT_3D('',#1020,#809,#810);
#720=AXIS2_PLACEMENT_3D('',#1024,#812,#813);
#721=AXIS2_PLACEMENT_3D('',#1026,#815,#816);
#722=AXIS2_PLACEMENT_3D('',#1031,#819,#820);
#723=AXIS2_PLACEMENT_3D('',#1032,#821,#822);
#724=AXIS2_PLACEMENT_3D('',#1038,#826,#827);
#725=AXIS2_PLACEMENT_3D('',#1039,#828,#829);
#726=AXIS2_PLACEMENT_3D('',#1041,#830,#831);
#727=AXIS2_PLACEMENT_3D('',#1043,#833,#834);
#728=AXIS2_PLACEMENT_3D('',#1047,#837,#838);
#729=AXIS2_PLACEMENT_3D('',#1049,#839,#840);
#730=AXIS2_PLACEMENT_3D('',#1051,#842,#843);
#731=AXIS2_PLACEMENT_3D('',#1055,#846,#847);
#732=AXIS2_PLACEMENT_3D('',#1056,#848,#849);
#733=AXIS2_PLACEMENT_3D('',#1058,#850,#851);
#734=AXIS2_PLACEMENT_3D('',#1060,#853,#854);
#735=AXIS2_PLACEMENT_3D('',#1064,#857,#858);
#736=AXIS2_PLACEMENT_3D('',#1065,#859,#860);
#737=AXIS2_PLACEMENT_3D('',#1066,#861,#862);
#738=AXIS2_PLACEMENT_3D('',#1067,#863,#864);
#739=AXIS2_PLACEMENT_3D('',#1074,#865,#866);
#740=AXIS2_PLACEMENT_3D('',#1079,#867,#868);
#741=AXIS2_PLACEMENT_3D('',#1080,#869,#870);
#742=AXIS2_PLACEMENT_3D('',#1087,#871,#872);
#743=AXIS2_PLACEMENT_3D('',#1092,#873,#874);
#744=AXIS2_PLACEMENT_3D('',#1093,#875,#876);
#745=AXIS2_PLACEMENT_3D('',#1100,#877,#878);
#746=AXIS2_PLACEMENT_3D('',#1105,#879,#880);
#747=AXIS2_PLACEMENT_3D('',#1106,#881,#882);
#748=AXIS2_PLACEMENT_3D('',#1113,#883,#884);
#749=AXIS2_PLACEMENT_3D('',#1118,#885,#886);
#750=AXIS2_PLACEMENT_3D('',#1119,#887,#888);
#751=AXIS2_PLACEMENT_3D('',#1126,#889,#890);
#752=AXIS2_PLACEMENT_3D('',#1131,#891,#892);
#753=AXIS2_PLACEMENT_3D('',#1132,#893,#894);
#754=AXIS2_PLACEMENT_3D('',#1138,#898,#899);
#755=AXIS2_PLACEMENT_3D('',#1144,#903,#904);
#756=AXIS2_PLACEMENT_3D('',#1150,#908,#909);
#757=AXIS2_PLACEMENT_3D('',#1156,#913,#914);
#758=AXIS2_PLACEMENT_3D('',#1162,#918,#919);
#759=AXIS2_PLACEMENT_3D('',#1168,#923,#924);
#760=AXIS2_PLACEMENT_3D('',#1174,#928,#929);
#761=AXIS2_PLACEMENT_3D('',#1180,#933,#934);
#762=AXIS2_PLACEMENT_3D('',#1186,#938,#939);
#763=AXIS2_PLACEMENT_3D('',#1192,#943,#944);
#764=AXIS2_PLACEMENT_3D('',#1193,#945,#946);
#765=AXIS2_PLACEMENT_3D('',#1194,#947,#948);
#766=AXIS2_PLACEMENT_3D('',#1195,#949,#950);
#767=AXIS2_PLACEMENT_3D('',#1196,#951,#952);
#768=AXIS2_PLACEMENT_3D('',#1197,#953,#954);
#769=AXIS2_PLACEMENT_3D('',#1198,#955,#956);
#770=AXIS2_PLACEMENT_3D('',#1199,#957,#958);
#771=AXIS2_PLACEMENT_3D('',#1200,#959,#960);
#772=AXIS2_PLACEMENT_3D('',#1201,#961,#962);
#773=AXIS2_PLACEMENT_3D('',#1202,#963,#964);
#774=AXIS2_PLACEMENT_3D('',#1203,#965,#966);
#775=AXIS2_PLACEMENT_3D('',#1204,#967,#968);
#776=AXIS2_PLACEMENT_3D('',#1206,#969,#970);
#777=AXIS2_PLACEMENT_3D('',#1209,#972,#973);
#778=AXIS2_PLACEMENT_3D('',#1210,#974,#975);
#779=AXIS2_PLACEMENT_3D('',#1211,#976,#977);
#780=AXIS2_PLACEMENT_3D('',#1213,#978,#979);
#781=AXIS2_PLACEMENT_3D('',#1214,#980,#981);
#782=AXIS2_PLACEMENT_3D('',#1215,#982,#983);
#783=AXIS2_PLACEMENT_3D('',#1244,#984,#985);
#784=AXIS2_PLACEMENT_3D('',#1246,#986,#987);
#785=AXIS2_PLACEMENT_3D('',#1247,#988,#989);
#786=AXIS2_PLACEMENT_3D('',#1248,#990,#991);
#787=AXIS2_PLACEMENT_3D('',#1251,#993,#994);
#788=AXIS2_PLACEMENT_3D('',#1252,#995,#996);
#789=AXIS2_PLACEMENT_3D('',#1253,#997,#998);
#790=AXIS2_PLACEMENT_3D('',#1254,#999,#1000);
#791=DIRECTION('axis',(0.,0.,1.));
#792=DIRECTION('refdir',(1.,0.,0.));
#793=DIRECTION('center_axis',(0.,0.,1.));
#794=DIRECTION('ref_axis',(1.,0.,0.));
#795=DIRECTION('center_axis',(0.,0.,1.));
#796=DIRECTION('ref_axis',(1.,0.,0.));
#797=DIRECTION('',(0.,0.,1.));
#798=DIRECTION('center_axis',(0.,0.,1.));
#799=DIRECTION('ref_axis',(1.,0.,0.));
#800=DIRECTION('',(0.,0.,1.));
#801=DIRECTION('center_axis',(0.,0.,-1.));
#802=DIRECTION('ref_axis',(1.,0.,0.));
#803=DIRECTION('',(-1.,0.,0.));
#804=DIRECTION('',(-1.,0.,0.));
#805=DIRECTION('center_axis',(0.,0.,-1.));
#806=DIRECTION('ref_axis',(1.,0.,0.));
#807=DIRECTION('center_axis',(0.,0.,1.));
#808=DIRECTION('ref_axis',(1.,0.,0.));
#809=DIRECTION('center_axis',(0.,0.,1.));
#810=DIRECTION('ref_axis',(1.,0.,0.));
#811=DIRECTION('',(0.,0.,1.));
#812=DIRECTION('center_axis',(0.,0.,1.));
#813=DIRECTION('ref_axis',(1.,0.,0.));
#814=DIRECTION('',(0.,0.,1.));
#815=DIRECTION('center_axis',(0.,0.,-1.));
#816=DIRECTION('ref_axis',(1.,0.,0.));
#817=DIRECTION('',(1.,0.,0.));
#818=DIRECTION('',(1.,0.,0.));
#819=DIRECTION('center_axis',(0.,0.,-1.));
#820=DIRECTION('ref_axis',(1.,0.,0.));
#821=DIRECTION('center_axis',(0.,-1.,0.));
#822=DIRECTION('ref_axis',(-1.,0.,0.));
#823=DIRECTION('',(0.,0.,-1.));
#824=DIRECTION('',(-1.,0.,0.));
#825=DIRECTION('',(0.,0.,-1.));
#826=DIRECTION('center_axis',(0.,0.,-1.));
#827=DIRECTION('ref_axis',(1.,0.,0.));
#828=DIRECTION('center_axis',(0.,0.,1.));
#829=DIRECTION('ref_axis',(1.,0.,0.));
#830=DIRECTION('center_axis',(0.,0.,-1.));
#831=DIRECTION('ref_axis',(1.,0.,0.));
#832=DIRECTION('',(0.,0.,-1.));
#833=DIRECTION('center_axis',(0.,1.,0.));
#834=DIRECTION('ref_axis',(1.,0.,0.));
#835=DIRECTION('',(1.,0.,0.));
#836=DIRECTION('',(0.,0.,1.));
#837=DIRECTION('center_axis',(0.,0.,-1.));
#838=DIRECTION('ref_axis',(1.,0.,0.));
#839=DIRECTION('center_axis',(0.,0.,-1.));
#840=DIRECTION('ref_axis',(1.,0.,0.));
#841=DIRECTION('',(0.,0.,1.));
#842=DIRECTION('center_axis',(0.,1.,0.));
#843=DIRECTION('ref_axis',(1.,0.,0.));
#844=DIRECTION('',(1.,0.,0.));
#845=DIRECTION('',(0.,0.,-1.));
#846=DIRECTION('center_axis',(0.,0.,-1.));
#847=DIRECTION('ref_axis',(-1.,-1.22464679914735E-16,0.));
#848=DIRECTION('center_axis',(0.,0.,1.));
#849=DIRECTION('ref_axis',(1.,0.,0.));
#850=DIRECTION('center_axis',(0.,0.,-1.));
#851=DIRECTION('ref_axis',(1.,0.,0.));
#852=DIRECTION('',(0.,0.,-1.));
#853=DIRECTION('center_axis',(0.,-1.,0.));
#854=DIRECTION('ref_axis',(-1.,0.,0.));
#855=DIRECTION('',(-1.,0.,0.));
#856=DIRECTION('',(0.,0.,1.));
#857=DIRECTION('center_axis',(0.,0.,-1.));
#858=DIRECTION('ref_axis',(1.,0.,0.));
#859=DIRECTION('center_axis',(0.,0.,-1.));
#860=DIRECTION('ref_axis',(1.,0.,0.));
#861=DIRECTION('center_axis',(0.,0.,-1.));
#862=DIRECTION('ref_axis',(1.,0.,0.));
#863=DIRECTION('center_axis',(0.,0.,-1.));
#864=DIRECTION('ref_axis',(1.,0.,0.));
#865=DIRECTION('center_axis',(0.,0.,1.));
#866=DIRECTION('ref_axis',(1.,0.,0.));
#867=DIRECTION('center_axis',(0.,0.,1.));
#868=DIRECTION('ref_axis',(1.,0.,0.));
#869=DIRECTION('center_axis',(0.,0.,-1.));
#870=DIRECTION('ref_axis',(1.,0.,0.));
#871=DIRECTION('center_axis',(0.,0.,1.));
#872=DIRECTION('ref_axis',(1.,0.,0.));
#873=DIRECTION('center_axis',(0.,0.,1.));
#874=DIRECTION('ref_axis',(1.,0.,0.));
#875=DIRECTION('center_axis',(0.,0.,-1.));
#876=DIRECTION('ref_axis',(1.,0.,0.));
#877=DIRECTION('center_axis',(0.,0.,1.));
#878=DIRECTION('ref_axis',(1.,0.,0.));
#879=DIRECTION('center_axis',(0.,0.,1.));
#880=DIRECTION('ref_axis',(1.,0.,0.));
#881=DIRECTION('center_axis',(0.,0.,-1.));
#882=DIRECTION('ref_axis',(-1.,0.,0.));
#883=DIRECTION('center_axis',(0.,0.,1.));
#884=DIRECTION('ref_axis',(1.,0.,0.));
#885=DIRECTION('center_axis',(0.,0.,1.));
#886=DIRECTION('ref_axis',(-1.,0.,0.));
#887=DIRECTION('center_axis',(0.,0.,-1.));
#888=DIRECTION('ref_axis',(-1.,0.,0.));
#889=DIRECTION('center_axis',(0.,0.,1.));
#890=DIRECTION('ref_axis',(1.,0.,0.));
#891=DIRECTION('center_axis',(0.,0.,1.));
#892=DIRECTION('ref_axis',(-1.,0.,0.));
#893=DIRECTION('center_axis',(0.587785252292473,0.809016994374948,0.));
#894=DIRECTION('ref_axis',(-0.809016994374947,0.587785252292473,0.));
#895=DIRECTION('',(0.,0.,-1.));
#896=DIRECTION('',(0.,0.,1.));
#897=DIRECTION('',(-0.809016994374947,0.587785252292473,0.));
#898=DIRECTION('center_axis',(-0.587785252292473,-0.809016994374948,0.));
#899=DIRECTION('ref_axis',(0.809016994374948,-0.587785252292473,0.));
#900=DIRECTION('',(0.,0.,1.));
#901=DIRECTION('',(0.809016994374947,-0.587785252292473,0.));
#902=DIRECTION('',(0.,0.,-1.));
#903=DIRECTION('center_axis',(-0.587785252292473,0.809016994374947,0.));
#904=DIRECTION('ref_axis',(-0.809016994374947,-0.587785252292473,0.));
#905=DIRECTION('',(0.,0.,-1.));
#906=DIRECTION('',(0.,0.,1.));
#907=DIRECTION('',(-0.809016994374947,-0.587785252292473,0.));
#908=DIRECTION('center_axis',(0.587785252292473,-0.809016994374947,0.));
#909=DIRECTION('ref_axis',(0.809016994374947,0.587785252292473,0.));
#910=DIRECTION('',(0.,0.,1.));
#911=DIRECTION('',(0.809016994374947,0.587785252292473,0.));
#912=DIRECTION('',(0.,0.,-1.));
#913=DIRECTION('center_axis',(0.951056516295154,-0.309016994374947,0.));
#914=DIRECTION('ref_axis',(0.309016994374947,0.951056516295154,0.));
#915=DIRECTION('',(0.,0.,-1.));
#916=DIRECTION('',(0.,0.,1.));
#917=DIRECTION('',(0.309016994374947,0.951056516295154,0.));
#918=DIRECTION('center_axis',(-0.951056516295154,0.309016994374947,0.));
#919=DIRECTION('ref_axis',(-0.309016994374947,-0.951056516295154,0.));
#920=DIRECTION('',(0.,0.,1.));
#921=DIRECTION('',(-0.309016994374947,-0.951056516295154,0.));
#922=DIRECTION('',(0.,0.,-1.));
#923=DIRECTION('center_axis',(-0.951056516295154,-0.309016994374948,0.));
#924=DIRECTION('ref_axis',(0.309016994374948,-0.951056516295153,0.));
#925=DIRECTION('',(0.,0.,-1.));
#926=DIRECTION('',(0.,0.,1.));
#927=DIRECTION('',(0.309016994374948,-0.951056516295153,0.));
#928=DIRECTION('center_axis',(0.951056516295154,0.309016994374947,0.));
#929=DIRECTION('ref_axis',(-0.309016994374947,0.951056516295154,0.));
#930=DIRECTION('',(0.,0.,1.));
#931=DIRECTION('',(-0.309016994374947,0.951056516295154,0.));
#932=DIRECTION('',(0.,0.,-1.));
#933=DIRECTION('center_axis',(0.,-1.,0.));
#934=DIRECTION('ref_axis',(1.,0.,0.));
#935=DIRECTION('',(0.,0.,-1.));
#936=DIRECTION('',(0.,0.,1.));
#937=DIRECTION('',(1.,0.,0.));
#938=DIRECTION('center_axis',(0.,1.,0.));
#939=DIRECTION('ref_axis',(-1.,0.,0.));
#940=DIRECTION('',(0.,0.,1.));
#941=DIRECTION('',(-1.,0.,0.));
#942=DIRECTION('',(0.,0.,-1.));
#943=DIRECTION('center_axis',(0.,0.,1.));
#944=DIRECTION('ref_axis',(1.,0.,0.));
#945=DIRECTION('center_axis',(0.,0.,1.));
#946=DIRECTION('ref_axis',(1.,0.,0.));
#947=DIRECTION('center_axis',(0.,0.,1.));
#948=DIRECTION('ref_axis',(1.,0.,0.));
#949=DIRECTION('center_axis',(0.,0.,1.));
#950=DIRECTION('ref_axis',(1.,0.,0.));
#951=DIRECTION('center_axis',(0.,0.,1.));
#952=DIRECTION('ref_axis',(1.,0.,0.));
#953=DIRECTION('center_axis',(0.,0.,1.));
#954=DIRECTION('ref_axis',(1.,0.,0.));
#955=DIRECTION('center_axis',(0.,0.,1.));
#956=DIRECTION('ref_axis',(1.,0.,0.));
#957=DIRECTION('center_axis',(0.,0.,1.));
#958=DIRECTION('ref_axis',(1.,0.,0.));
#959=DIRECTION('center_axis',(0.,0.,1.));
#960=DIRECTION('ref_axis',(1.,0.,0.));
#961=DIRECTION('center_axis',(0.,0.,1.));
#962=DIRECTION('ref_axis',(1.,0.,0.));
#963=DIRECTION('center_axis',(0.,0.,1.));
#964=DIRECTION('ref_axis',(1.,0.,0.));
#965=DIRECTION('center_axis',(0.,0.,1.));
#966=DIRECTION('ref_axis',(1.,0.,0.));
#967=DIRECTION('center_axis',(0.,0.,1.));
#968=DIRECTION('ref_axis',(1.,0.,0.));
#969=DIRECTION('center_axis',(0.,0.,1.));
#970=DIRECTION('ref_axis',(1.,0.,0.));
#971=DIRECTION('',(0.,0.,1.));
#972=DIRECTION('center_axis',(0.,0.,1.));
#973=DIRECTION('ref_axis',(1.,0.,0.));
#974=DIRECTION('center_axis',(0.,0.,1.));
#975=DIRECTION('ref_axis',(1.,0.,0.));
#976=DIRECTION('center_axis',(0.,0.,1.));
#977=DIRECTION('ref_axis',(1.,0.,0.));
#978=DIRECTION('center_axis',(-1.22464679914735E-16,1.,0.));
#979=DIRECTION('ref_axis',(-1.,-1.22464679914735E-16,0.));
#980=DIRECTION('center_axis',(0.,0.,-1.));
#981=DIRECTION('ref_axis',(1.,0.,0.));
#982=DIRECTION('center_axis',(0.,0.,1.));
#983=DIRECTION('ref_axis',(1.,0.,0.));
#984=DIRECTION('center_axis',(0.,0.,-1.));
#985=DIRECTION('ref_axis',(1.,0.,0.));
#986=DIRECTION('center_axis',(1.22464679914735E-16,-1.,0.));
#987=DIRECTION('ref_axis',(-1.,-1.22464679914735E-16,0.));
#988=DIRECTION('center_axis',(0.,0.,1.));
#989=DIRECTION('ref_axis',(1.,0.,0.));
#990=DIRECTION('center_axis',(0.,0.,1.));
#991=DIRECTION('ref_axis',(1.,0.,0.));
#992=DIRECTION('',(0.,0.,-1.));
#993=DIRECTION('center_axis',(0.,0.,1.));
#994=DIRECTION('ref_axis',(1.,0.,0.));
#995=DIRECTION('center_axis',(0.,0.,1.));
#996=DIRECTION('ref_axis',(1.,0.,0.));
#997=DIRECTION('center_axis',(0.,0.,1.));
#998=DIRECTION('ref_axis',(1.,0.,0.));
#999=DIRECTION('center_axis',(0.,0.,1.));
#1000=DIRECTION('ref_axis',(1.,0.,0.));
#1001=CARTESIAN_POINT('',(0.,0.,0.));
#1002=CARTESIAN_POINT('Origin',(0.,0.,15.));
#1003=CARTESIAN_POINT('',(-4.84122918275927,-1.25,15.));
#1004=CARTESIAN_POINT('',(4.84122918275927,-1.25,15.));
#1005=CARTESIAN_POINT('Origin',(0.,0.,15.));
#1006=CARTESIAN_POINT('',(-4.84122918275927,-1.25,16.));
#1007=CARTESIAN_POINT('',(-4.84122918275927,-1.25,15.));
#1008=CARTESIAN_POINT('',(4.84122918275927,-1.25,16.));
#1009=CARTESIAN_POINT('Origin',(0.,0.,16.));
#1010=CARTESIAN_POINT('',(4.84122918275927,-1.25,15.));
#1011=CARTESIAN_POINT('Origin',(-5.55111512312578E-16,-3.125,16.));
#1012=CARTESIAN_POINT('',(2.72717802865893,-1.25,16.));
#1013=CARTESIAN_POINT('',(-6.50000009685755,-1.25,16.));
#1014=CARTESIAN_POINT('',(-2.72717802865893,-1.25,16.));
#1015=CARTESIAN_POINT('',(-6.50000009685755,-1.25,16.));
#1016=CARTESIAN_POINT('Origin',(0.,0.,16.));
#1017=CARTESIAN_POINT('Origin',(0.,0.,15.));
#1018=CARTESIAN_POINT('',(4.84122918275927,1.25,15.));
#1019=CARTESIAN_POINT('',(-4.84122918275927,1.25,15.));
#1020=CARTESIAN_POINT('Origin',(0.,0.,15.));
#1021=CARTESIAN_POINT('',(4.84122918275927,1.25,16.));
#1022=CARTESIAN_POINT('',(4.84122918275927,1.25,15.));
#1023=CARTESIAN_POINT('',(-4.84122918275927,1.25,16.));
#1024=CARTESIAN_POINT('Origin',(0.,0.,16.));
#1025=CARTESIAN_POINT('',(-4.84122918275927,1.25,15.));
#1026=CARTESIAN_POINT('Origin',(0.,3.125,16.));
#1027=CARTESIAN_POINT('',(-2.72717802865893,1.25,16.));
#1028=CARTESIAN_POINT('',(6.50000009685755,1.25,16.));
#1029=CARTESIAN_POINT('',(2.72717802865893,1.25,16.));
#1030=CARTESIAN_POINT('',(6.50000009685755,1.25,16.));
#1031=CARTESIAN_POINT('Origin',(0.,0.,16.));
#1032=CARTESIAN_POINT('Origin',(4.84122918275927,-1.25,15.));
#1033=CARTESIAN_POINT('',(2.72717802865893,-1.25,14.));
#1034=CARTESIAN_POINT('',(2.72717802865893,-1.25,15.));
#1035=CARTESIAN_POINT('',(4.84122918275927,-1.25,14.));
#1036=CARTESIAN_POINT('',(-6.50000009685755,-1.25,14.));
#1037=CARTESIAN_POINT('',(4.84122918275927,-1.25,15.));
#1038=CARTESIAN_POINT('Origin',(0.,0.,15.));
#1039=CARTESIAN_POINT('Origin',(0.,0.,15.));
#1040=CARTESIAN_POINT('',(4.84122918275927,1.25,14.));
#1041=CARTESIAN_POINT('Origin',(0.,0.,14.));
#1042=CARTESIAN_POINT('',(4.84122918275927,1.25,15.));
#1043=CARTESIAN_POINT('Origin',(2.72717802865893,1.25,15.));
#1044=CARTESIAN_POINT('',(2.72717802865893,1.25,14.));
#1045=CARTESIAN_POINT('',(6.50000009685755,1.25,14.));
#1046=CARTESIAN_POINT('',(2.72717802865893,1.25,15.));
#1047=CARTESIAN_POINT('Origin',(0.,0.,15.));
#1048=CARTESIAN_POINT('',(-2.72717802865893,1.25,14.));
#1049=CARTESIAN_POINT('Origin',(0.,0.,14.));
#1050=CARTESIAN_POINT('',(-2.72717802865893,1.25,15.));
#1051=CARTESIAN_POINT('Origin',(-4.84122918275927,1.25,15.));
#1052=CARTESIAN_POINT('',(-4.84122918275927,1.25,14.));
#1053=CARTESIAN_POINT('',(6.50000009685755,1.25,14.));
#1054=CARTESIAN_POINT('',(-4.84122918275927,1.25,15.));
#1055=CARTESIAN_POINT('Origin',(0.,0.,15.));
#1056=CARTESIAN_POINT('Origin',(0.,0.,15.));
#1057=CARTESIAN_POINT('',(-4.84122918275927,-1.25,14.));
#1058=CARTESIAN_POINT('Origin',(0.,0.,14.));
#1059=CARTESIAN_POINT('',(-4.84122918275927,-1.25,15.));
#1060=CARTESIAN_POINT('Origin',(-2.72717802865893,-1.25,15.));
#1061=CARTESIAN_POINT('',(-2.72717802865893,-1.25,14.));
#1062=CARTESIAN_POINT('',(-6.50000009685755,-1.25,14.));
#1063=CARTESIAN_POINT('',(-2.72717802865893,-1.25,15.));
#1064=CARTESIAN_POINT('Origin',(0.,0.,15.));
#1065=CARTESIAN_POINT('Origin',(0.,0.,14.));
#1066=CARTESIAN_POINT('Origin',(0.,0.,14.));
#1067=CARTESIAN_POINT('Origin',(0.,0.,4.));
#1068=CARTESIAN_POINT('',(7.42997710490478,-16.3949821659126,5.));
#1069=CARTESIAN_POINT('',(8.05147360511881,-18.3077517130333,3.));
#1070=CARTESIAN_POINT('Ctrl Pts',(8.05147360511881,-18.3077517130333,3.));
#1071=CARTESIAN_POINT('Ctrl Pts',(7.72437018392092,-17.3010308986589,4.05322296379138));
#1072=CARTESIAN_POINT('Ctrl Pts',(7.42997710490478,-16.3949821659126,5.));
#1073=CARTESIAN_POINT('',(4.24724751252009,-19.5438197025912,3.));
#1074=CARTESIAN_POINT('Origin',(0.,0.,3.));
#1075=CARTESIAN_POINT('',(3.62575101241011,-17.6310501557907,5.));
#1076=CARTESIAN_POINT('Ctrl Pts',(3.62575101241011,-17.6310501557907,5.));
#1077=CARTESIAN_POINT('Ctrl Pts',(3.92014409127552,-18.5370988880731,4.05322296410003));
#1078=CARTESIAN_POINT('Ctrl Pts',(4.24724751252009,-19.5438197025912,3.));
#1079=CARTESIAN_POINT('Origin',(0.,0.,5.));
#1080=CARTESIAN_POINT('Origin',(0.,0.,4.));
#1081=CARTESIAN_POINT('',(17.8885438166663,2.00000002980232,5.));
#1082=CARTESIAN_POINT('',(19.8997487391372,2.00000002980232,3.));
#1083=CARTESIAN_POINT('Ctrl Pts',(19.8997487391372,2.00000002980232,3.));
#1084=CARTESIAN_POINT('Ctrl Pts',(18.8412198327547,2.00000002980232,4.05322296350634));
#1085=CARTESIAN_POINT('Ctrl Pts',(17.8885438166663,2.00000002980232,5.));
#1086=CARTESIAN_POINT('',(19.8997487421324,-2.,3.));
#1087=CARTESIAN_POINT('Origin',(0.,0.,3.));
#1088=CARTESIAN_POINT('',(17.8885438199983,-2.,5.));
#1089=CARTESIAN_POINT('Ctrl Pts',(17.8885438199983,-2.,5.));
#1090=CARTESIAN_POINT('Ctrl Pts',(18.8412198357647,-2.,4.05322296365006));
#1091=CARTESIAN_POINT('Ctrl Pts',(19.8997487421324,-2.,3.));
#1092=CARTESIAN_POINT('Origin',(0.,0.,5.));
#1093=CARTESIAN_POINT('Origin',(0.,0.,4.));
#1094=CARTESIAN_POINT('',(3.62575098303677,17.6310501618312,5.));
#1095=CARTESIAN_POINT('',(4.24724748325081,19.543819708952,3.));
#1096=CARTESIAN_POINT('Ctrl Pts',(4.24724748325081,19.543819708952,3.));
#1097=CARTESIAN_POINT('Ctrl Pts',(3.92014406189494,18.5370988940913,4.05322296429977));
#1098=CARTESIAN_POINT('Ctrl Pts',(3.62575098303677,17.6310501618312,5.));
#1099=CARTESIAN_POINT('',(8.0514735777007,18.3077517250914,3.));
#1100=CARTESIAN_POINT('Origin',(0.,0.,3.));
#1101=CARTESIAN_POINT('',(7.42997707759072,16.3949821782909,5.));
#1102=CARTESIAN_POINT('Ctrl Pts',(7.42997707759072,16.3949821782909,5.));
#1103=CARTESIAN_POINT('Ctrl Pts',(7.72437015658507,17.3010309109701,4.0532229636851));
#1104=CARTESIAN_POINT('Ctrl Pts',(8.0514735777007,18.3077517250914,3.));
#1105=CARTESIAN_POINT('Origin',(0.,0.,5.));
#1106=CARTESIAN_POINT('Origin',(0.,0.,4.));
#1107=CARTESIAN_POINT('',(-15.6477064744062,8.89658822756369,5.));
#1108=CARTESIAN_POINT('',(-17.2748054358557,10.0787448203301,3.));
#1109=CARTESIAN_POINT('Ctrl Pts',(-17.2748054358557,10.0787448203301,3.));
#1110=CARTESIAN_POINT('Ctrl Pts',(-16.4184375609932,9.4565571396249,4.05322296419706));
#1111=CARTESIAN_POINT('Ctrl Pts',(-15.6477064744062,8.89658822756369,5.));
#1112=CARTESIAN_POINT('',(-14.9236644115917,13.314812823701,3.));
#1113=CARTESIAN_POINT('Origin',(0.,0.,3.));
#1114=CARTESIAN_POINT('',(-13.2965654504146,12.1326562311326,5.));
#1115=CARTESIAN_POINT('Ctrl Pts',(-13.2965654504146,12.1326562311326,5.));
#1116=CARTESIAN_POINT('Ctrl Pts',(-14.0672965375518,12.6926251435935,4.05322296334436));
#1117=CARTESIAN_POINT('Ctrl Pts',(-14.9236644115917,13.314812823701,3.));
#1118=CARTESIAN_POINT('Origin',(0.,0.,5.));
#1119=CARTESIAN_POINT('Origin',(0.,0.,4.));
#1120=CARTESIAN_POINT('',(-13.2965654302016,-12.1326562532847,5.));
#1121=CARTESIAN_POINT('',(-14.9236643916511,-13.314812846051,3.));
#1122=CARTESIAN_POINT('Ctrl Pts',(-14.9236643916511,-13.314812846051,3.));
#1123=CARTESIAN_POINT('Ctrl Pts',(-14.0672965172287,-12.6926251656656,4.05322296365606));
#1124=CARTESIAN_POINT('Ctrl Pts',(-13.2965654302016,-12.1326562532847,5.));
#1125=CARTESIAN_POINT('',(-17.2748054207615,-10.0787448462012,3.));
#1126=CARTESIAN_POINT('Origin',(0.,0.,3.));
#1127=CARTESIAN_POINT('',(-15.6477064595845,-8.89658825363278,5.));
#1128=CARTESIAN_POINT('Ctrl Pts',(-15.6477064595845,-8.89658825363278,5.));
#1129=CARTESIAN_POINT('Ctrl Pts',(-16.4184375464234,-9.45655716587705,4.05322296371092));
#1130=CARTESIAN_POINT('Ctrl Pts',(-17.2748054207615,-10.0787448462012,3.));
#1131=CARTESIAN_POINT('Origin',(0.,0.,5.));
#1132=CARTESIAN_POINT('Origin',(-10.9596845918687,10.4348129045172,0.));
#1133=CARTESIAN_POINT('',(-13.2965654504146,12.1326562311326,0.));
#1134=CARTESIAN_POINT('',(-13.2965654504146,12.1326562311326,0.));
#1135=CARTESIAN_POINT('',(-14.9236644115917,13.314812823701,0.));
#1136=CARTESIAN_POINT('',(-14.9236644115917,13.314812823701,0.));
#1137=CARTESIAN_POINT('',(-4.89205704364186,6.02642344663356,0.));
#1138=CARTESIAN_POINT('Origin',(-18.9739446635676,11.3132417302649,0.));
#1139=CARTESIAN_POINT('',(-15.6477064744062,8.89658822756369,0.));
#1140=CARTESIAN_POINT('',(-15.6477064744062,8.89658822756369,0.));
#1141=CARTESIAN_POINT('',(-17.2748054358557,10.0787448203301,0.));
#1142=CARTESIAN_POINT('',(-10.074757592835,4.84760385870223,0.));
#1143=CARTESIAN_POINT('',(-17.2748054358557,10.0787448203301,0.));
#1144=CARTESIAN_POINT('Origin',(-13.3108256010385,-7.19874492701744,0.));
#1145=CARTESIAN_POINT('',(-15.6477064595845,-8.89658825363278,0.));
#1146=CARTESIAN_POINT('',(-15.6477064595845,-8.89658825363278,0.));
#1147=CARTESIAN_POINT('',(-17.2748054207615,-10.0787448462012,0.));
#1148=CARTESIAN_POINT('',(-17.2748054207615,-10.0787448462012,0.));
#1149=CARTESIAN_POINT('',(-7.24319805281175,-2.79035546913377,0.));
#1150=CARTESIAN_POINT('Origin',(-16.622803619363,-14.5493097559859,0.));
#1151=CARTESIAN_POINT('',(-13.2965654302016,-12.1326562532847,0.));
#1152=CARTESIAN_POINT('',(-13.2965654302016,-12.1326562532847,0.));
#1153=CARTESIAN_POINT('',(-14.9236643916511,-13.314812846051,0.));
#1154=CARTESIAN_POINT('',(-7.72361654863033,-8.08367188442319,0.));
#1155=CARTESIAN_POINT('',(-14.9236643916511,-13.314812846051,0.));
#1156=CARTESIAN_POINT('Origin',(6.53736801728519,13.6478139682551,0.));
#1157=CARTESIAN_POINT('',(7.42997707759072,16.3949821782909,0.));
#1158=CARTESIAN_POINT('',(7.42997707759072,16.3949821782909,0.));
#1159=CARTESIAN_POINT('',(8.0514735777007,18.3077517250914,0.));
#1160=CARTESIAN_POINT('',(8.0514735777007,18.3077517250914,0.));
#1161=CARTESIAN_POINT('',(4.21974052493775,6.51488998975261,0.));
#1162=CARTESIAN_POINT('Origin',(4.8962609166185,21.5412776682333,0.));
#1163=CARTESIAN_POINT('',(3.62575098303677,17.6310501618312,0.));
#1164=CARTESIAN_POINT('',(3.62575098303677,17.6310501618312,0.));
#1165=CARTESIAN_POINT('',(4.24724748325081,19.543819708952,0.));
#1166=CARTESIAN_POINT('',(1.49707392784225,11.0796558330963,0.));
#1167=CARTESIAN_POINT('',(4.24724748325081,19.543819708952,0.));
#1168=CARTESIAN_POINT('Origin',(2.73314195210459,-14.8838819457549,0.));
#1169=CARTESIAN_POINT('',(3.62575101241011,-17.6310501557907,0.));
#1170=CARTESIAN_POINT('',(3.62575101241011,-17.6310501557907,0.));
#1171=CARTESIAN_POINT('',(4.24724751252009,-19.5438197025912,0.));
#1172=CARTESIAN_POINT('',(4.24724751252009,-19.5438197025912,0.));
#1173=CARTESIAN_POINT('',(0.415514459757138,-7.7509579672524,0.));
#1174=CARTESIAN_POINT('Origin',(8.70048703848651,-20.3052096723147,0.));
#1175=CARTESIAN_POINT('',(7.42997710490478,-16.3949821659126,0.));
#1176=CARTESIAN_POINT('',(7.42997710490477,-16.3949821659126,0.));
#1177=CARTESIAN_POINT('',(8.05147360511881,-18.3077517130333,0.));
#1178=CARTESIAN_POINT('',(5.30130004971025,-9.84358783717768,0.));
#1179=CARTESIAN_POINT('',(8.05147360511881,-18.3077517130333,0.));
#1180=CARTESIAN_POINT('Origin',(15.0000002235174,-2.,0.));
#1181=CARTESIAN_POINT('',(17.8885438199983,-2.,0.));
#1182=CARTESIAN_POINT('',(17.8885438199983,-2.,0.));
#1183=CARTESIAN_POINT('',(19.8997487421324,-2.,0.));
#1184=CARTESIAN_POINT('',(19.8997487421324,-2.,0.));
#1185=CARTESIAN_POINT('',(7.50000011175871,-2.,0.));
#1186=CARTESIAN_POINT('Origin',(22.0000003278255,2.00000002980232,0.));
#1187=CARTESIAN_POINT('',(17.8885438166663,2.00000002980232,0.));
#1188=CARTESIAN_POINT('',(17.8885438166663,2.00000002980232,0.));
#1189=CARTESIAN_POINT('',(19.8997487391372,2.00000002980232,0.));
#1190=CARTESIAN_POINT('',(11.0000001639128,2.00000002980232,0.));
#1191=CARTESIAN_POINT('',(19.8997487391372,2.00000002980232,0.));
#1192=CARTESIAN_POINT('Origin',(0.,0.,0.));
#1193=CARTESIAN_POINT('Origin',(0.,0.,0.));
#1194=CARTESIAN_POINT('Origin',(0.,0.,0.));
#1195=CARTESIAN_POINT('Origin',(0.,0.,0.));
#1196=CARTESIAN_POINT('Origin',(0.,0.,0.));
#1197=CARTESIAN_POINT('Origin',(0.,0.,0.));
#1198=CARTESIAN_POINT('Origin',(0.,0.,0.));
#1199=CARTESIAN_POINT('Origin',(0.,0.,0.));
#1200=CARTESIAN_POINT('Origin',(0.,0.,0.));
#1201=CARTESIAN_POINT('Origin',(0.,0.,0.));
#1202=CARTESIAN_POINT('Origin',(0.,0.,0.));
#1203=CARTESIAN_POINT('Origin',(0.,0.,0.));
#1204=CARTESIAN_POINT('Origin',(0.,0.,0.));
#1205=CARTESIAN_POINT('',(-18.,-2.20436423846524E-15,0.));
#1206=CARTESIAN_POINT('Origin',(0.,0.,0.));
#1207=CARTESIAN_POINT('',(-18.,-2.20436423846524E-15,7.));
#1208=CARTESIAN_POINT('',(-18.,-2.20436423846524E-15,0.));
#1209=CARTESIAN_POINT('Origin',(0.,0.,7.));
#1210=CARTESIAN_POINT('Origin',(0.,0.,0.));
#1211=CARTESIAN_POINT('Origin',(0.,0.,7.));
#1212=CARTESIAN_POINT('',(-10.,1.22464679914735E-15,15.));
#1213=CARTESIAN_POINT('Origin',(-10.,-1.22464679914735E-15,7.));
#1214=CARTESIAN_POINT('Origin',(0.,0.,15.));
#1215=CARTESIAN_POINT('Origin',(0.,0.,15.));
#1216=CARTESIAN_POINT('Ctrl Pts',(-20.,0.,7.));
#1217=CARTESIAN_POINT('Ctrl Pts',(-20.,-20.,7.));
#1218=CARTESIAN_POINT('Ctrl Pts',(0.,-20.,7.));
#1219=CARTESIAN_POINT('Ctrl Pts',(20.,-20.,7.));
#1220=CARTESIAN_POINT('Ctrl Pts',(20.,0.,7.));
#1221=CARTESIAN_POINT('Ctrl Pts',(20.,20.,7.));
#1222=CARTESIAN_POINT('Ctrl Pts',(0.,20.,7.));
#1223=CARTESIAN_POINT('Ctrl Pts',(-20.,20.,7.));
#1224=CARTESIAN_POINT('Ctrl Pts',(-20.,0.,7.));
#1225=CARTESIAN_POINT('Ctrl Pts',(-20.,0.,17.));
#1226=CARTESIAN_POINT('Ctrl Pts',(-20.,-20.,17.));
#1227=CARTESIAN_POINT('Ctrl Pts',(0.,-20.,17.));
#1228=CARTESIAN_POINT('Ctrl Pts',(20.,-20.,17.));
#1229=CARTESIAN_POINT('Ctrl Pts',(20.,0.,17.));
#1230=CARTESIAN_POINT('Ctrl Pts',(20.,20.,17.));
#1231=CARTESIAN_POINT('Ctrl Pts',(0.,20.,17.));
#1232=CARTESIAN_POINT('Ctrl Pts',(-20.,20.,17.));
#1233=CARTESIAN_POINT('Ctrl Pts',(-20.,0.,17.));
#1234=CARTESIAN_POINT('Ctrl Pts',(-10.,0.,17.));
#1235=CARTESIAN_POINT('Ctrl Pts',(-10.,-10.,17.));
#1236=CARTESIAN_POINT('Ctrl Pts',(0.,-10.,17.));
#1237=CARTESIAN_POINT('Ctrl Pts',(10.,-10.,17.));
#1238=CARTESIAN_POINT('Ctrl Pts',(10.,0.,17.));
#1239=CARTESIAN_POINT('Ctrl Pts',(10.,10.,17.));
#1240=CARTESIAN_POINT('Ctrl Pts',(0.,10.,17.));
#1241=CARTESIAN_POINT('Ctrl Pts',(-10.,10.,17.));
#1242=CARTESIAN_POINT('Ctrl Pts',(-10.,0.,17.));
#1243=CARTESIAN_POINT('',(-10.,1.22464679914735E-15,17.));
#1244=CARTESIAN_POINT('Origin',(0.,0.,17.));
#1245=CARTESIAN_POINT('',(-20.,-2.44929359829471E-15,7.));
#1246=CARTESIAN_POINT('Origin',(-10.,-1.22464679914735E-15,7.));
#1247=CARTESIAN_POINT('Origin',(0.,0.,7.));
#1248=CARTESIAN_POINT('Origin',(0.,0.,0.));
#1249=CARTESIAN_POINT('',(-20.,-2.44929359829471E-15,0.));
#1250=CARTESIAN_POINT('',(-20.,-2.44929359829471E-15,0.));
#1251=CARTESIAN_POINT('Origin',(0.,0.,0.));
#1252=CARTESIAN_POINT('Origin',(0.,0.,0.));
#1253=CARTESIAN_POINT('Origin',(0.,0.,17.));
#1254=CARTESIAN_POINT('Origin',(0.,0.,0.));
#1255=UNCERTAINTY_MEASURE_WITH_UNIT(LENGTH_MEASURE(0.01),#1259,
'DISTANCE_ACCURACY_VALUE',
'Maximum model space distance between geometric entities at asserted c
onnectivities');
#1256=UNCERTAINTY_MEASURE_WITH_UNIT(LENGTH_MEASURE(0.01),#1259,
'DISTANCE_ACCURACY_VALUE',
'Maximum model space distance between geometric entities at asserted c
onnectivities');
#1257=(
GEOMETRIC_REPRESENTATION_CONTEXT(3)
GLOBAL_UNCERTAINTY_ASSIGNED_CONTEXT((#1255))
GLOBAL_UNIT_ASSIGNED_CONTEXT((#1259,#1261,#1262))
REPRESENTATION_CONTEXT('','3D')
);
#1258=(
GEOMETRIC_REPRESENTATION_CONTEXT(3)
GLOBAL_UNCERTAINTY_ASSIGNED_CONTEXT((#1256))
GLOBAL_UNIT_ASSIGNED_CONTEXT((#1259,#1261,#1262))
REPRESENTATION_CONTEXT('','3D')
);
#1259=(
LENGTH_UNIT()
NAMED_UNIT(*)
SI_UNIT(.MILLI.,.METRE.)
);
#1260=(
LENGTH_UNIT()
NAMED_UNIT(*)
SI_UNIT($,.METRE.)
);
#1261=(
NAMED_UNIT(*)
PLANE_ANGLE_UNIT()
SI_UNIT($,.RADIAN.)
);
#1262=(
NAMED_UNIT(*)
SI_UNIT($,.STERADIAN.)
SOLID_ANGLE_UNIT()
);
#1263=SHAPE_DEFINITION_REPRESENTATION(#1264,#1265);
#1264=PRODUCT_DEFINITION_SHAPE('',$,#1267);
#1265=SHAPE_REPRESENTATION('',(#712),#1257);
#1266=PRODUCT_DEFINITION_CONTEXT('part definition',#1271,'design');
#1267=PRODUCT_DEFINITION('FlowerNubV0','FlowerNubV0 v13',#1268,#1266);
#1268=PRODUCT_DEFINITION_FORMATION('',$,#1273);
#1269=PRODUCT_RELATED_PRODUCT_CATEGORY('FlowerNubV0 v13',
'FlowerNubV0 v13',(#1273));
#1270=APPLICATION_PROTOCOL_DEFINITION('international standard',
'automotive_design',2009,#1271);
#1271=APPLICATION_CONTEXT(
'Core Data for Automotive Mechanical Design Process');
#1272=PRODUCT_CONTEXT('part definition',#1271,'mechanical');
#1273=PRODUCT('FlowerNubV0','FlowerNubV0 v13',$,(#1272));
#1274=PRESENTATION_STYLE_ASSIGNMENT((#1275));
#1275=SURFACE_STYLE_USAGE(.BOTH.,#1276);
#1276=SURFACE_SIDE_STYLE('',(#1277));
#1277=SURFACE_STYLE_FILL_AREA(#1278);
#1278=FILL_AREA_STYLE('Steel - Satin',(#1279));
#1279=FILL_AREA_STYLE_COLOUR('Steel - Satin',#1280);
#1280=COLOUR_RGB('Steel - Satin',0.627450980392157,0.627450980392157,0.627450980392157);
ENDSEC;
END-ISO-10303-21;
