ISO-10303-21;
HEADER;
/* Generated by software containing ST-Developer
 * from STEP Tools, Inc. (www.steptools.com) 
 */

FILE_DESCRIPTION(
/* description */ (''),
/* implementation_level */ '2;1');

FILE_NAME(
/* name */ 'Bearing_v6.step',
/* time_stamp */ '2026-08-21T09:17:05-04:00',
/* author */ (''),
/* organization */ (''),
/* preprocessor_version */ 'ST-DEVELOPER v20.1',
/* originating_system */ 'Autodesk Translation Framework v15.8.0.0',
/* authorisation */ '');

FILE_SCHEMA (('AUTOMOTIVE_DESIGN { 1 0 10303 214 3 1 1 }'));
ENDSEC;

DATA;
#10=MECHANICAL_DESIGN_GEOMETRIC_PRESENTATION_REPRESENTATION('',(#19,#20,
#21,#22,#23,#24),#592);
#11=ITEM_DEFINED_TRANSFORMATION($,$,#333,#384);
#12=(
REPRESENTATION_RELATIONSHIP($,$,#603,#602)
REPRESENTATION_RELATIONSHIP_WITH_TRANSFORMATION(#11)
SHAPE_REPRESENTATION_RELATIONSHIP()
);
#13=CONTEXT_DEPENDENT_SHAPE_REPRESENTATION(#12,#601);
#14=NEXT_ASSEMBLY_USAGE_OCCURRENCE('BearingSleeve v5:1',
'BearingSleeve v5:1','BearingSleeve v5:1',#605,#606,
'BearingSleeve v5:1');
#15=SHAPE_REPRESENTATION_RELATIONSHIP('SRR','None',#603,#17);
#16=SHAPE_REPRESENTATION_RELATIONSHIP('SRR','None',#602,#18);
#17=ADVANCED_BREP_SHAPE_REPRESENTATION('',(#25),#591);
#18=ADVANCED_BREP_SHAPE_REPRESENTATION('',(#26,#27,#28),#590);
#19=STYLED_ITEM('',(#618),#25);
#20=STYLED_ITEM('',(#618),#298);
#21=STYLED_ITEM('',(#618),#299);
#22=STYLED_ITEM('',(#617),#26);
#23=STYLED_ITEM('',(#619),#27);
#24=STYLED_ITEM('',(#620),#28);
#25=MANIFOLD_SOLID_BREP('Body1',#316);
#26=MANIFOLD_SOLID_BREP('Body1',#317);
#27=MANIFOLD_SOLID_BREP('Body3',#318);
#28=MANIFOLD_SOLID_BREP('Body4',#319);
#29=CYLINDRICAL_SURFACE('',#347,4.);
#30=CYLINDRICAL_SURFACE('',#356,2.);
#31=CYLINDRICAL_SURFACE('',#361,1.5);
#32=CYLINDRICAL_SURFACE('',#363,2.);
#33=CYLINDRICAL_SURFACE('',#365,3.4);
#34=CYLINDRICAL_SURFACE('',#370,3.4);
#35=CYLINDRICAL_SURFACE('',#371,4.);
#36=CYLINDRICAL_SURFACE('',#374,0.5);
#37=CYLINDRICAL_SURFACE('',#381,1.5);
#38=FACE_BOUND('',#105,.T.);
#39=FACE_BOUND('',#109,.T.);
#40=FACE_BOUND('',#111,.T.);
#41=FACE_BOUND('',#114,.T.);
#42=FACE_BOUND('',#118,.T.);
#43=FACE_BOUND('',#121,.T.);
#44=FACE_BOUND('',#125,.T.);
#45=PLANE('',#345);
#46=PLANE('',#350);
#47=PLANE('',#353);
#48=PLANE('',#358);
#49=PLANE('',#364);
#50=PLANE('',#367);
#51=PLANE('',#373);
#52=PLANE('',#377);
#53=PLANE('',#378);
#54=PLANE('',#379);
#55=PLANE('',#383);
#56=LINE('',#514,#66);
#57=LINE('',#525,#67);
#58=LINE('',#541,#68);
#59=LINE('',#550,#69);
#60=LINE('',#552,#70);
#61=LINE('',#557,#71);
#62=LINE('',#564,#72);
#63=LINE('',#568,#73);
#64=LINE('',#574,#74);
#65=LINE('',#584,#75);
#66=VECTOR('',#403,5.30000004842877);
#67=VECTOR('',#418,4.1);
#68=VECTOR('',#439,2.);
#69=VECTOR('',#450,1.5);
#70=VECTOR('',#453,2.);
#71=VECTOR('',#460,3.4);
#72=VECTOR('',#469,3.4);
#73=VECTOR('',#474,4.);
#74=VECTOR('',#481,0.5);
#75=VECTOR('',#496,1.5);
#76=CONICAL_SURFACE('',#339,5.30000004842877,1.56454601266646);
#77=FACE_OUTER_BOUND('',#101,.T.);
#78=FACE_OUTER_BOUND('',#102,.T.);
#79=FACE_OUTER_BOUND('',#103,.T.);
#80=FACE_OUTER_BOUND('',#104,.T.);
#81=FACE_OUTER_BOUND('',#106,.T.);
#82=FACE_OUTER_BOUND('',#107,.T.);
#83=FACE_OUTER_BOUND('',#108,.T.);
#84=FACE_OUTER_BOUND('',#110,.T.);
#85=FACE_OUTER_BOUND('',#112,.T.);
#86=FACE_OUTER_BOUND('',#113,.T.);
#87=FACE_OUTER_BOUND('',#115,.T.);
#88=FACE_OUTER_BOUND('',#116,.T.);
#89=FACE_OUTER_BOUND('',#117,.T.);
#90=FACE_OUTER_BOUND('',#119,.T.);
#91=FACE_OUTER_BOUND('',#120,.T.);
#92=FACE_OUTER_BOUND('',#122,.T.);
#93=FACE_OUTER_BOUND('',#123,.T.);
#94=FACE_OUTER_BOUND('',#124,.T.);
#95=FACE_OUTER_BOUND('',#126,.T.);
#96=FACE_OUTER_BOUND('',#127,.T.);
#97=FACE_OUTER_BOUND('',#128,.T.);
#98=FACE_OUTER_BOUND('',#129,.T.);
#99=FACE_OUTER_BOUND('',#130,.T.);
#100=FACE_OUTER_BOUND('',#131,.T.);
#101=EDGE_LOOP('',(#217,#218,#219,#220,#221));
#102=EDGE_LOOP('',(#222,#223,#224,#225,#226));
#103=EDGE_LOOP('',(#227,#228,#229,#230));
#104=EDGE_LOOP('',(#231));
#105=EDGE_LOOP('',(#232));
#106=EDGE_LOOP('',(#233,#234,#235,#236));
#107=EDGE_LOOP('',(#237,#238,#239,#240));
#108=EDGE_LOOP('',(#241));
#109=EDGE_LOOP('',(#242));
#110=EDGE_LOOP('',(#243));
#111=EDGE_LOOP('',(#244));
#112=EDGE_LOOP('',(#245,#246,#247,#248));
#113=EDGE_LOOP('',(#249));
#114=EDGE_LOOP('',(#250));
#115=EDGE_LOOP('',(#251,#252,#253,#254));
#116=EDGE_LOOP('',(#255,#256,#257,#258));
#117=EDGE_LOOP('',(#259));
#118=EDGE_LOOP('',(#260));
#119=EDGE_LOOP('',(#261,#262,#263,#264));
#120=EDGE_LOOP('',(#265));
#121=EDGE_LOOP('',(#266));
#122=EDGE_LOOP('',(#267,#268,#269,#270));
#123=EDGE_LOOP('',(#271,#272,#273,#274));
#124=EDGE_LOOP('',(#275));
#125=EDGE_LOOP('',(#276));
#126=EDGE_LOOP('',(#277,#278,#279,#280));
#127=EDGE_LOOP('',(#281));
#128=EDGE_LOOP('',(#282));
#129=EDGE_LOOP('',(#283));
#130=EDGE_LOOP('',(#284,#285,#286,#287));
#131=EDGE_LOOP('',(#288));
#132=CIRCLE('',#335,5.64320753738456);
#133=CIRCLE('',#336,0.2);
#134=CIRCLE('',#337,5.5232498192604);
#135=CIRCLE('',#338,5.5232498192604);
#136=CIRCLE('',#340,4.);
#137=CIRCLE('',#342,5.53281274528916);
#138=CIRCLE('',#343,0.2);
#139=CIRCLE('',#344,5.6507776254381);
#140=CIRCLE('',#346,4.);
#141=CIRCLE('',#349,2.03830327580119);
#142=CIRCLE('',#351,3.4);
#143=CIRCLE('',#352,2.);
#144=CIRCLE('',#354,3.4);
#145=CIRCLE('',#355,2.);
#146=CIRCLE('',#357,2.);
#147=CIRCLE('',#359,2.);
#148=CIRCLE('',#360,1.5);
#149=CIRCLE('',#362,1.5);
#150=CIRCLE('',#366,3.4);
#151=CIRCLE('',#368,4.);
#152=CIRCLE('',#369,3.4);
#153=CIRCLE('',#372,4.);
#154=CIRCLE('',#375,0.5);
#155=CIRCLE('',#376,0.5);
#156=CIRCLE('',#380,1.5);
#157=CIRCLE('',#382,1.5);
#158=VERTEX_POINT('',#504);
#159=VERTEX_POINT('',#506);
#160=VERTEX_POINT('',#508);
#161=VERTEX_POINT('',#512);
#162=VERTEX_POINT('',#516);
#163=VERTEX_POINT('',#518);
#164=VERTEX_POINT('',#522);
#165=VERTEX_POINT('',#529);
#166=VERTEX_POINT('',#531);
#167=VERTEX_POINT('',#534);
#168=VERTEX_POINT('',#536);
#169=VERTEX_POINT('',#539);
#170=VERTEX_POINT('',#543);
#171=VERTEX_POINT('',#545);
#172=VERTEX_POINT('',#548);
#173=VERTEX_POINT('',#555);
#174=VERTEX_POINT('',#559);
#175=VERTEX_POINT('',#561);
#176=VERTEX_POINT('',#566);
#177=VERTEX_POINT('',#571);
#178=VERTEX_POINT('',#573);
#179=VERTEX_POINT('',#579);
#180=VERTEX_POINT('',#582);
#181=EDGE_CURVE('',#158,#158,#132,.T.);
#182=EDGE_CURVE('',#158,#159,#133,.T.);
#183=EDGE_CURVE('',#159,#160,#134,.T.);
#184=EDGE_CURVE('',#160,#159,#135,.T.);
#185=EDGE_CURVE('',#161,#161,#136,.F.);
#186=EDGE_CURVE('',#161,#160,#56,.T.);
#187=EDGE_CURVE('',#162,#162,#137,.T.);
#188=EDGE_CURVE('',#162,#163,#138,.T.);
#189=EDGE_CURVE('',#163,#163,#139,.T.);
#190=EDGE_CURVE('',#164,#164,#140,.T.);
#191=EDGE_CURVE('',#164,#161,#57,.T.);
#192=EDGE_CURVE('',#158,#163,#141,.T.);
#193=EDGE_CURVE('',#165,#165,#142,.T.);
#194=EDGE_CURVE('',#166,#166,#143,.T.);
#195=EDGE_CURVE('',#167,#167,#144,.T.);
#196=EDGE_CURVE('',#168,#168,#145,.T.);
#197=EDGE_CURVE('',#169,#169,#146,.T.);
#198=EDGE_CURVE('',#169,#168,#58,.T.);
#199=EDGE_CURVE('',#170,#170,#147,.T.);
#200=EDGE_CURVE('',#171,#171,#148,.T.);
#201=EDGE_CURVE('',#172,#172,#149,.T.);
#202=EDGE_CURVE('',#172,#171,#59,.T.);
#203=EDGE_CURVE('',#166,#170,#60,.T.);
#204=EDGE_CURVE('',#173,#173,#150,.T.);
#205=EDGE_CURVE('',#173,#167,#61,.T.);
#206=EDGE_CURVE('',#174,#174,#151,.T.);
#207=EDGE_CURVE('',#175,#175,#152,.T.);
#208=EDGE_CURVE('',#165,#175,#62,.T.);
#209=EDGE_CURVE('',#176,#176,#153,.T.);
#210=EDGE_CURVE('',#176,#174,#63,.T.);
#211=EDGE_CURVE('',#177,#177,#154,.T.);
#212=EDGE_CURVE('',#177,#178,#64,.T.);
#213=EDGE_CURVE('',#178,#178,#155,.T.);
#214=EDGE_CURVE('',#179,#179,#156,.T.);
#215=EDGE_CURVE('',#180,#180,#157,.T.);
#216=EDGE_CURVE('',#180,#179,#65,.T.);
#217=ORIENTED_EDGE('',*,*,#181,.T.);
#218=ORIENTED_EDGE('',*,*,#182,.T.);
#219=ORIENTED_EDGE('',*,*,#183,.T.);
#220=ORIENTED_EDGE('',*,*,#184,.T.);
#221=ORIENTED_EDGE('',*,*,#182,.F.);
#222=ORIENTED_EDGE('',*,*,#185,.T.);
#223=ORIENTED_EDGE('',*,*,#186,.T.);
#224=ORIENTED_EDGE('',*,*,#183,.F.);
#225=ORIENTED_EDGE('',*,*,#184,.F.);
#226=ORIENTED_EDGE('',*,*,#186,.F.);
#227=ORIENTED_EDGE('',*,*,#187,.T.);
#228=ORIENTED_EDGE('',*,*,#188,.T.);
#229=ORIENTED_EDGE('',*,*,#189,.T.);
#230=ORIENTED_EDGE('',*,*,#188,.F.);
#231=ORIENTED_EDGE('',*,*,#187,.F.);
#232=ORIENTED_EDGE('',*,*,#190,.F.);
#233=ORIENTED_EDGE('',*,*,#190,.T.);
#234=ORIENTED_EDGE('',*,*,#191,.T.);
#235=ORIENTED_EDGE('',*,*,#185,.F.);
#236=ORIENTED_EDGE('',*,*,#191,.F.);
#237=ORIENTED_EDGE('',*,*,#181,.F.);
#238=ORIENTED_EDGE('',*,*,#192,.T.);
#239=ORIENTED_EDGE('',*,*,#189,.F.);
#240=ORIENTED_EDGE('',*,*,#192,.F.);
#241=ORIENTED_EDGE('',*,*,#193,.F.);
#242=ORIENTED_EDGE('',*,*,#194,.F.);
#243=ORIENTED_EDGE('',*,*,#195,.F.);
#244=ORIENTED_EDGE('',*,*,#196,.F.);
#245=ORIENTED_EDGE('',*,*,#197,.F.);
#246=ORIENTED_EDGE('',*,*,#198,.T.);
#247=ORIENTED_EDGE('',*,*,#196,.T.);
#248=ORIENTED_EDGE('',*,*,#198,.F.);
#249=ORIENTED_EDGE('',*,*,#199,.T.);
#250=ORIENTED_EDGE('',*,*,#200,.T.);
#251=ORIENTED_EDGE('',*,*,#201,.F.);
#252=ORIENTED_EDGE('',*,*,#202,.T.);
#253=ORIENTED_EDGE('',*,*,#200,.F.);
#254=ORIENTED_EDGE('',*,*,#202,.F.);
#255=ORIENTED_EDGE('',*,*,#194,.T.);
#256=ORIENTED_EDGE('',*,*,#203,.T.);
#257=ORIENTED_EDGE('',*,*,#199,.F.);
#258=ORIENTED_EDGE('',*,*,#203,.F.);
#259=ORIENTED_EDGE('',*,*,#197,.T.);
#260=ORIENTED_EDGE('',*,*,#201,.T.);
#261=ORIENTED_EDGE('',*,*,#204,.F.);
#262=ORIENTED_EDGE('',*,*,#205,.T.);
#263=ORIENTED_EDGE('',*,*,#195,.T.);
#264=ORIENTED_EDGE('',*,*,#205,.F.);
#265=ORIENTED_EDGE('',*,*,#206,.T.);
#266=ORIENTED_EDGE('',*,*,#207,.T.);
#267=ORIENTED_EDGE('',*,*,#193,.T.);
#268=ORIENTED_EDGE('',*,*,#208,.T.);
#269=ORIENTED_EDGE('',*,*,#207,.F.);
#270=ORIENTED_EDGE('',*,*,#208,.F.);
#271=ORIENTED_EDGE('',*,*,#209,.F.);
#272=ORIENTED_EDGE('',*,*,#210,.T.);
#273=ORIENTED_EDGE('',*,*,#206,.F.);
#274=ORIENTED_EDGE('',*,*,#210,.F.);
#275=ORIENTED_EDGE('',*,*,#209,.T.);
#276=ORIENTED_EDGE('',*,*,#204,.T.);
#277=ORIENTED_EDGE('',*,*,#211,.F.);
#278=ORIENTED_EDGE('',*,*,#212,.T.);
#279=ORIENTED_EDGE('',*,*,#213,.T.);
#280=ORIENTED_EDGE('',*,*,#212,.F.);
#281=ORIENTED_EDGE('',*,*,#211,.T.);
#282=ORIENTED_EDGE('',*,*,#213,.F.);
#283=ORIENTED_EDGE('',*,*,#214,.T.);
#284=ORIENTED_EDGE('',*,*,#215,.F.);
#285=ORIENTED_EDGE('',*,*,#216,.T.);
#286=ORIENTED_EDGE('',*,*,#214,.F.);
#287=ORIENTED_EDGE('',*,*,#216,.F.);
#288=ORIENTED_EDGE('',*,*,#215,.T.);
#289=TOROIDAL_SURFACE('',#334,5.52449987394685,0.2);
#290=TOROIDAL_SURFACE('',#341,5.53281274528916,0.2);
#291=TOROIDAL_SURFACE('',#348,6.85301863362346,2.03830327580119);
#292=ADVANCED_FACE('',(#77),#289,.T.);
#293=ADVANCED_FACE('',(#78),#76,.F.);
#294=ADVANCED_FACE('',(#79),#290,.T.);
#295=ADVANCED_FACE('',(#80,#38),#45,.T.);
#296=ADVANCED_FACE('',(#81),#29,.F.);
#297=ADVANCED_FACE('',(#82),#291,.F.);
#298=ADVANCED_FACE('',(#83,#39),#46,.F.);
#299=ADVANCED_FACE('',(#84,#40),#47,.T.);
#300=ADVANCED_FACE('',(#85),#30,.T.);
#301=ADVANCED_FACE('',(#86,#41),#48,.F.);
#302=ADVANCED_FACE('',(#87),#31,.F.);
#303=ADVANCED_FACE('',(#88),#32,.T.);
#304=ADVANCED_FACE('',(#89,#42),#49,.T.);
#305=ADVANCED_FACE('',(#90),#33,.F.);
#306=ADVANCED_FACE('',(#91,#43),#50,.F.);
#307=ADVANCED_FACE('',(#92),#34,.F.);
#308=ADVANCED_FACE('',(#93),#35,.T.);
#309=ADVANCED_FACE('',(#94,#44),#51,.T.);
#310=ADVANCED_FACE('',(#95),#36,.T.);
#311=ADVANCED_FACE('',(#96),#52,.T.);
#312=ADVANCED_FACE('',(#97),#53,.F.);
#313=ADVANCED_FACE('',(#98),#54,.F.);
#314=ADVANCED_FACE('',(#99),#37,.T.);
#315=ADVANCED_FACE('',(#100),#55,.T.);
#316=CLOSED_SHELL('',(#292,#293,#294,#295,#296,#297));
#317=CLOSED_SHELL('',(#298,#299,#300,#301,#302,#303,#304,#305,#306,#307,
#308,#309));
#318=CLOSED_SHELL('',(#310,#311,#312));
#319=CLOSED_SHELL('',(#313,#314,#315));
#320=DERIVED_UNIT_ELEMENT(#322,1.);
#321=DERIVED_UNIT_ELEMENT(#594,-3.);
#322=(
MASS_UNIT()
NAMED_UNIT(*)
SI_UNIT(.KILO.,.GRAM.)
);
#323=DERIVED_UNIT((#320,#321));
#324=MEASURE_REPRESENTATION_ITEM('density measure',
POSITIVE_RATIO_MEASURE(7850.),#323);
#325=PROPERTY_DEFINITION_REPRESENTATION(#330,#327);
#326=PROPERTY_DEFINITION_REPRESENTATION(#331,#328);
#327=REPRESENTATION('material name',(#329),#591);
#328=REPRESENTATION('density',(#324),#591);
#329=DESCRIPTIVE_REPRESENTATION_ITEM('Steel','Steel');
#330=PROPERTY_DEFINITION('material property','material name',#606);
#331=PROPERTY_DEFINITION('material property','density of part',#606);
#332=AXIS2_PLACEMENT_3D('',#501,#385,#386);
#333=AXIS2_PLACEMENT_3D('',#502,#387,#388);
#334=AXIS2_PLACEMENT_3D('',#503,#389,#390);
#335=AXIS2_PLACEMENT_3D('',#505,#391,#392);
#336=AXIS2_PLACEMENT_3D('',#507,#393,#394);
#337=AXIS2_PLACEMENT_3D('',#509,#395,#396);
#338=AXIS2_PLACEMENT_3D('',#510,#397,#398);
#339=AXIS2_PLACEMENT_3D('',#511,#399,#400);
#340=AXIS2_PLACEMENT_3D('',#513,#401,#402);
#341=AXIS2_PLACEMENT_3D('',#515,#404,#405);
#342=AXIS2_PLACEMENT_3D('',#517,#406,#407);
#343=AXIS2_PLACEMENT_3D('',#519,#408,#409);
#344=AXIS2_PLACEMENT_3D('',#520,#410,#411);
#345=AXIS2_PLACEMENT_3D('',#521,#412,#413);
#346=AXIS2_PLACEMENT_3D('',#523,#414,#415);
#347=AXIS2_PLACEMENT_3D('',#524,#416,#417);
#348=AXIS2_PLACEMENT_3D('',#526,#419,#420);
#349=AXIS2_PLACEMENT_3D('',#527,#421,#422);
#350=AXIS2_PLACEMENT_3D('',#528,#423,#424);
#351=AXIS2_PLACEMENT_3D('',#530,#425,#426);
#352=AXIS2_PLACEMENT_3D('',#532,#427,#428);
#353=AXIS2_PLACEMENT_3D('',#533,#429,#430);
#354=AXIS2_PLACEMENT_3D('',#535,#431,#432);
#355=AXIS2_PLACEMENT_3D('',#537,#433,#434);
#356=AXIS2_PLACEMENT_3D('',#538,#435,#436);
#357=AXIS2_PLACEMENT_3D('',#540,#437,#438);
#358=AXIS2_PLACEMENT_3D('',#542,#440,#441);
#359=AXIS2_PLACEMENT_3D('',#544,#442,#443);
#360=AXIS2_PLACEMENT_3D('',#546,#444,#445);
#361=AXIS2_PLACEMENT_3D('',#547,#446,#447);
#362=AXIS2_PLACEMENT_3D('',#549,#448,#449);
#363=AXIS2_PLACEMENT_3D('',#551,#451,#452);
#364=AXIS2_PLACEMENT_3D('',#553,#454,#455);
#365=AXIS2_PLACEMENT_3D('',#554,#456,#457);
#366=AXIS2_PLACEMENT_3D('',#556,#458,#459);
#367=AXIS2_PLACEMENT_3D('',#558,#461,#462);
#368=AXIS2_PLACEMENT_3D('',#560,#463,#464);
#369=AXIS2_PLACEMENT_3D('',#562,#465,#466);
#370=AXIS2_PLACEMENT_3D('',#563,#467,#468);
#371=AXIS2_PLACEMENT_3D('',#565,#470,#471);
#372=AXIS2_PLACEMENT_3D('',#567,#472,#473);
#373=AXIS2_PLACEMENT_3D('',#569,#475,#476);
#374=AXIS2_PLACEMENT_3D('',#570,#477,#478);
#375=AXIS2_PLACEMENT_3D('',#572,#479,#480);
#376=AXIS2_PLACEMENT_3D('',#575,#482,#483);
#377=AXIS2_PLACEMENT_3D('',#576,#484,#485);
#378=AXIS2_PLACEMENT_3D('',#577,#486,#487);
#379=AXIS2_PLACEMENT_3D('',#578,#488,#489);
#380=AXIS2_PLACEMENT_3D('',#580,#490,#491);
#381=AXIS2_PLACEMENT_3D('',#581,#492,#493);
#382=AXIS2_PLACEMENT_3D('',#583,#494,#495);
#383=AXIS2_PLACEMENT_3D('',#585,#497,#498);
#384=AXIS2_PLACEMENT_3D('',#586,#499,#500);
#385=DIRECTION('axis',(0.,0.,1.));
#386=DIRECTION('refdir',(1.,0.,0.));
#387=DIRECTION('axis',(0.,0.,1.));
#388=DIRECTION('refdir',(1.,0.,0.));
#389=DIRECTION('center_axis',(0.,1.,0.));
#390=DIRECTION('ref_axis',(0.,0.,1.));
#391=DIRECTION('center_axis',(0.,-1.,0.));
#392=DIRECTION('ref_axis',(1.,0.,0.));
#393=DIRECTION('center_axis',(-1.,0.,1.22464679914735E-16));
#394=DIRECTION('ref_axis',(-1.22464679914735E-16,0.,-1.));
#395=DIRECTION('center_axis',(0.,1.,0.));
#396=DIRECTION('ref_axis',(1.,0.,-6.12323399573677E-17));
#397=DIRECTION('center_axis',(0.,1.,0.));
#398=DIRECTION('ref_axis',(1.,0.,-6.12323399573677E-17));
#399=DIRECTION('center_axis',(0.,-1.,0.));
#400=DIRECTION('ref_axis',(-1.,0.,0.));
#401=DIRECTION('center_axis',(0.,-1.,0.));
#402=DIRECTION('ref_axis',(-1.,0.,0.));
#403=DIRECTION('',(0.999980466850239,-0.00625027343228999,-1.22462287793802E-16));
#404=DIRECTION('center_axis',(0.,1.,0.));
#405=DIRECTION('ref_axis',(0.,0.,1.));
#406=DIRECTION('center_axis',(0.,-1.,0.));
#407=DIRECTION('ref_axis',(1.,0.,0.));
#408=DIRECTION('center_axis',(-1.,0.,1.22464679914735E-16));
#409=DIRECTION('ref_axis',(-1.22464679914735E-16,0.,-1.));
#410=DIRECTION('center_axis',(0.,1.,0.));
#411=DIRECTION('ref_axis',(1.,0.,0.));
#412=DIRECTION('center_axis',(0.,1.,0.));
#413=DIRECTION('ref_axis',(0.,0.,1.));
#414=DIRECTION('center_axis',(0.,1.,0.));
#415=DIRECTION('ref_axis',(-1.,0.,0.));
#416=DIRECTION('center_axis',(0.,1.,0.));
#417=DIRECTION('ref_axis',(-1.,0.,0.));
#418=DIRECTION('',(0.,-1.,0.));
#419=DIRECTION('center_axis',(0.,1.,0.));
#420=DIRECTION('ref_axis',(0.,0.,1.));
#421=DIRECTION('center_axis',(-1.,0.,1.22464679914735E-16));
#422=DIRECTION('ref_axis',(-1.22464679914735E-16,0.,-1.));
#423=DIRECTION('center_axis',(0.,0.,1.));
#424=DIRECTION('ref_axis',(1.,0.,0.));
#425=DIRECTION('center_axis',(0.,0.,1.));
#426=DIRECTION('ref_axis',(1.,0.,0.));
#427=DIRECTION('center_axis',(0.,0.,-1.));
#428=DIRECTION('ref_axis',(1.,0.,0.));
#429=DIRECTION('center_axis',(0.,0.,1.));
#430=DIRECTION('ref_axis',(1.,0.,0.));
#431=DIRECTION('center_axis',(0.,0.,-1.));
#432=DIRECTION('ref_axis',(1.,0.,0.));
#433=DIRECTION('center_axis',(0.,0.,1.));
#434=DIRECTION('ref_axis',(1.,0.,0.));
#435=DIRECTION('center_axis',(0.,0.,1.));
#436=DIRECTION('ref_axis',(1.,0.,0.));
#437=DIRECTION('center_axis',(0.,0.,1.));
#438=DIRECTION('ref_axis',(1.,0.,0.));
#439=DIRECTION('',(0.,0.,-1.));
#440=DIRECTION('center_axis',(0.,0.,1.));
#441=DIRECTION('ref_axis',(1.,0.,0.));
#442=DIRECTION('center_axis',(0.,0.,-1.));
#443=DIRECTION('ref_axis',(1.,0.,0.));
#444=DIRECTION('center_axis',(0.,0.,1.));
#445=DIRECTION('ref_axis',(1.,0.,0.));
#446=DIRECTION('center_axis',(0.,0.,1.));
#447=DIRECTION('ref_axis',(1.,0.,0.));
#448=DIRECTION('center_axis',(0.,0.,-1.));
#449=DIRECTION('ref_axis',(1.,0.,0.));
#450=DIRECTION('',(0.,0.,-1.));
#451=DIRECTION('center_axis',(0.,0.,1.));
#452=DIRECTION('ref_axis',(1.,0.,0.));
#453=DIRECTION('',(0.,0.,-1.));
#454=DIRECTION('center_axis',(0.,0.,1.));
#455=DIRECTION('ref_axis',(1.,0.,0.));
#456=DIRECTION('center_axis',(0.,0.,1.));
#457=DIRECTION('ref_axis',(1.,0.,0.));
#458=DIRECTION('center_axis',(0.,0.,-1.));
#459=DIRECTION('ref_axis',(1.,0.,0.));
#460=DIRECTION('',(0.,0.,-1.));
#461=DIRECTION('center_axis',(0.,0.,1.));
#462=DIRECTION('ref_axis',(1.,0.,0.));
#463=DIRECTION('center_axis',(0.,0.,-1.));
#464=DIRECTION('ref_axis',(1.,0.,0.));
#465=DIRECTION('center_axis',(0.,0.,1.));
#466=DIRECTION('ref_axis',(1.,0.,0.));
#467=DIRECTION('center_axis',(0.,0.,1.));
#468=DIRECTION('ref_axis',(1.,0.,0.));
#469=DIRECTION('',(0.,0.,-1.));
#470=DIRECTION('center_axis',(0.,0.,1.));
#471=DIRECTION('ref_axis',(1.,0.,0.));
#472=DIRECTION('center_axis',(0.,0.,1.));
#473=DIRECTION('ref_axis',(1.,0.,0.));
#474=DIRECTION('',(0.,0.,-1.));
#475=DIRECTION('center_axis',(0.,0.,1.));
#476=DIRECTION('ref_axis',(1.,0.,0.));
#477=DIRECTION('center_axis',(1.,0.,0.));
#478=DIRECTION('ref_axis',(0.,1.,0.));
#479=DIRECTION('center_axis',(1.,0.,0.));
#480=DIRECTION('ref_axis',(0.,1.,0.));
#481=DIRECTION('',(-1.,0.,0.));
#482=DIRECTION('center_axis',(1.,0.,0.));
#483=DIRECTION('ref_axis',(0.,1.,0.));
#484=DIRECTION('center_axis',(1.,0.,0.));
#485=DIRECTION('ref_axis',(0.,0.,-1.));
#486=DIRECTION('center_axis',(1.,0.,0.));
#487=DIRECTION('ref_axis',(0.,0.,-1.));
#488=DIRECTION('center_axis',(0.,0.,1.));
#489=DIRECTION('ref_axis',(1.,0.,0.));
#490=DIRECTION('center_axis',(0.,0.,-1.));
#491=DIRECTION('ref_axis',(1.,0.,0.));
#492=DIRECTION('center_axis',(0.,0.,1.));
#493=DIRECTION('ref_axis',(1.,0.,0.));
#494=DIRECTION('center_axis',(0.,0.,1.));
#495=DIRECTION('ref_axis',(1.,0.,0.));
#496=DIRECTION('',(0.,0.,-1.));
#497=DIRECTION('center_axis',(0.,0.,1.));
#498=DIRECTION('ref_axis',(1.,0.,0.));
#499=DIRECTION('',(0.,-1.,-3.46944695195361E-16));
#500=DIRECTION('',(0.999999999999999,0.,0.));
#501=CARTESIAN_POINT('',(0.,0.,0.));
#502=CARTESIAN_POINT('',(0.,0.,0.));
#503=CARTESIAN_POINT('Origin',(0.,-1.80889978092723,0.));
#504=CARTESIAN_POINT('',(-6.91093604758222E-16,-1.64793863455594,-5.64320753738456));
#505=CARTESIAN_POINT('Origin',(0.,-1.64793863455594,0.));
#506=CARTESIAN_POINT('',(-6.76403021204844E-16,-2.00889587429728,-5.5232498192604));
#507=CARTESIAN_POINT('Origin',(-6.76556108751897E-16,-1.80889978092723,
-5.52449987394685));
#508=CARTESIAN_POINT('',(5.5232498192604,-2.00889587429728,-6.76403021204844E-16));
#509=CARTESIAN_POINT('Origin',(0.,-2.00889587429728,-3.38201510602422E-16));
#510=CARTESIAN_POINT('Origin',(0.,-2.00889587429728,-3.38201510602422E-16));
#511=CARTESIAN_POINT('Origin',(0.,-2.00750047492934,0.));
#512=CARTESIAN_POINT('',(4.,-1.99937496044778,4.89858719658941E-16));
#513=CARTESIAN_POINT('Origin',(0.,-1.99937496044778,0.));
#514=CARTESIAN_POINT('',(5.30000004842877,-2.00750047492934,-6.49062809478911E-16));
#515=CARTESIAN_POINT('Origin',(0.,1.8,0.));
#516=CARTESIAN_POINT('',(-6.77574141880005E-16,2.,-5.53281274528916));
#517=CARTESIAN_POINT('Origin',(0.,2.,0.));
#518=CARTESIAN_POINT('',(-6.92020673168625E-16,1.63849369346231,-5.6507776254381));
#519=CARTESIAN_POINT('Origin',(-6.77574141880005E-16,1.8,-5.53281274528916));
#520=CARTESIAN_POINT('Origin',(0.,1.63849369346231,0.));
#521=CARTESIAN_POINT('Origin',(-4.1,2.,0.));
#522=CARTESIAN_POINT('',(4.,2.,-4.89858719658941E-16));
#523=CARTESIAN_POINT('Origin',(0.,2.,0.));
#524=CARTESIAN_POINT('Origin',(0.,0.,0.));
#525=CARTESIAN_POINT('',(4.,0.,-4.89858719658941E-16));
#526=CARTESIAN_POINT('Origin',(0.,-0.00750047492934086,0.));
#527=CARTESIAN_POINT('Origin',(-8.39252733416414E-16,-0.00750047492934086,
-6.85301863362346));
#528=CARTESIAN_POINT('Origin',(0.,0.,-1.8));
#529=CARTESIAN_POINT('',(-3.4,-4.163799117101E-16,-1.8));
#530=CARTESIAN_POINT('Origin',(0.,0.,-1.8));
#531=CARTESIAN_POINT('',(-2.,-2.44929359829471E-16,-1.8));
#532=CARTESIAN_POINT('Origin',(0.,0.,-1.8));
#533=CARTESIAN_POINT('Origin',(0.,0.,1.8));
#534=CARTESIAN_POINT('',(-3.4,-4.163799117101E-16,1.8));
#535=CARTESIAN_POINT('Origin',(0.,0.,1.8));
#536=CARTESIAN_POINT('',(-2.,-2.44929359829471E-16,1.8));
#537=CARTESIAN_POINT('Origin',(0.,0.,1.8));
#538=CARTESIAN_POINT('Origin',(0.,0.,0.));
#539=CARTESIAN_POINT('',(-2.,-2.44929359829471E-16,2.));
#540=CARTESIAN_POINT('Origin',(0.,0.,2.));
#541=CARTESIAN_POINT('',(-2.,-2.44929359829471E-16,0.));
#542=CARTESIAN_POINT('Origin',(0.,0.,-2.));
#543=CARTESIAN_POINT('',(-2.,-2.44929359829471E-16,-2.));
#544=CARTESIAN_POINT('Origin',(0.,0.,-2.));
#545=CARTESIAN_POINT('',(-1.5,-1.83697019872103E-16,-2.));
#546=CARTESIAN_POINT('Origin',(0.,0.,-2.));
#547=CARTESIAN_POINT('Origin',(0.,0.,0.));
#548=CARTESIAN_POINT('',(-1.5,-1.83697019872103E-16,2.));
#549=CARTESIAN_POINT('Origin',(0.,0.,2.));
#550=CARTESIAN_POINT('',(-1.5,-1.83697019872103E-16,0.));
#551=CARTESIAN_POINT('Origin',(0.,0.,0.));
#552=CARTESIAN_POINT('',(-2.,-2.44929359829471E-16,0.));
#553=CARTESIAN_POINT('Origin',(0.,0.,2.));
#554=CARTESIAN_POINT('Origin',(0.,0.,0.));
#555=CARTESIAN_POINT('',(-3.4,-4.163799117101E-16,2.));
#556=CARTESIAN_POINT('Origin',(0.,0.,2.));
#557=CARTESIAN_POINT('',(-3.4,-4.163799117101E-16,0.));
#558=CARTESIAN_POINT('Origin',(0.,0.,-2.));
#559=CARTESIAN_POINT('',(-4.,-4.89858719658941E-16,-2.));
#560=CARTESIAN_POINT('Origin',(0.,0.,-2.));
#561=CARTESIAN_POINT('',(-3.4,-4.163799117101E-16,-2.));
#562=CARTESIAN_POINT('Origin',(0.,0.,-2.));
#563=CARTESIAN_POINT('Origin',(0.,0.,0.));
#564=CARTESIAN_POINT('',(-3.4,-4.163799117101E-16,0.));
#565=CARTESIAN_POINT('Origin',(0.,0.,0.));
#566=CARTESIAN_POINT('',(-4.,-4.89858719658941E-16,2.));
#567=CARTESIAN_POINT('Origin',(0.,0.,2.));
#568=CARTESIAN_POINT('',(-4.,-4.89858719658941E-16,0.));
#569=CARTESIAN_POINT('Origin',(0.,0.,2.));
#570=CARTESIAN_POINT('Origin',(4.00000005960464,0.,0.));
#571=CARTESIAN_POINT('',(15.0000002235174,-0.5,-6.12323399573677E-17));
#572=CARTESIAN_POINT('Origin',(15.0000002235174,0.,0.));
#573=CARTESIAN_POINT('',(4.00000005960464,-0.5,-6.12323399573677E-17));
#574=CARTESIAN_POINT('',(4.00000005960464,-0.5,-6.12323399573677E-17));
#575=CARTESIAN_POINT('Origin',(4.00000005960464,0.,0.));
#576=CARTESIAN_POINT('Origin',(15.0000002235174,0.,0.));
#577=CARTESIAN_POINT('Origin',(4.00000005960464,0.,0.));
#578=CARTESIAN_POINT('Origin',(0.,0.,-4.5));
#579=CARTESIAN_POINT('',(-1.5,-1.83697019872103E-16,-4.5));
#580=CARTESIAN_POINT('Origin',(0.,0.,-4.5));
#581=CARTESIAN_POINT('Origin',(0.,0.,0.));
#582=CARTESIAN_POINT('',(-1.5,-1.83697019872103E-16,4.5));
#583=CARTESIAN_POINT('Origin',(0.,0.,4.5));
#584=CARTESIAN_POINT('',(-1.5,-1.83697019872103E-16,0.));
#585=CARTESIAN_POINT('Origin',(0.,0.,4.5));
#586=CARTESIAN_POINT('',(0.,0.,0.));
#587=UNCERTAINTY_MEASURE_WITH_UNIT(LENGTH_MEASURE(0.01),#593,
'DISTANCE_ACCURACY_VALUE',
'Maximum model space distance between geometric entities at asserted c
onnectivities');
#588=UNCERTAINTY_MEASURE_WITH_UNIT(LENGTH_MEASURE(0.01),#593,
'DISTANCE_ACCURACY_VALUE',
'Maximum model space distance between geometric entities at asserted c
onnectivities');
#589=UNCERTAINTY_MEASURE_WITH_UNIT(LENGTH_MEASURE(0.01),#593,
'DISTANCE_ACCURACY_VALUE',
'Maximum model space distance between geometric entities at asserted c
onnectivities');
#590=(
GEOMETRIC_REPRESENTATION_CONTEXT(3)
GLOBAL_UNCERTAINTY_ASSIGNED_CONTEXT((#587))
GLOBAL_UNIT_ASSIGNED_CONTEXT((#593,#595,#596))
REPRESENTATION_CONTEXT('','3D')
);
#591=(
GEOMETRIC_REPRESENTATION_CONTEXT(3)
GLOBAL_UNCERTAINTY_ASSIGNED_CONTEXT((#588))
GLOBAL_UNIT_ASSIGNED_CONTEXT((#593,#595,#596))
REPRESENTATION_CONTEXT('','3D')
);
#592=(
GEOMETRIC_REPRESENTATION_CONTEXT(3)
GLOBAL_UNCERTAINTY_ASSIGNED_CONTEXT((#589))
GLOBAL_UNIT_ASSIGNED_CONTEXT((#593,#595,#596))
REPRESENTATION_CONTEXT('','3D')
);
#593=(
LENGTH_UNIT()
NAMED_UNIT(*)
SI_UNIT(.MILLI.,.METRE.)
);
#594=(
LENGTH_UNIT()
NAMED_UNIT(*)
SI_UNIT($,.METRE.)
);
#595=(
NAMED_UNIT(*)
PLANE_ANGLE_UNIT()
SI_UNIT($,.RADIAN.)
);
#596=(
NAMED_UNIT(*)
SI_UNIT($,.STERADIAN.)
SOLID_ANGLE_UNIT()
);
#597=SHAPE_DEFINITION_REPRESENTATION(#599,#602);
#598=SHAPE_DEFINITION_REPRESENTATION(#600,#603);
#599=PRODUCT_DEFINITION_SHAPE('',$,#605);
#600=PRODUCT_DEFINITION_SHAPE('',$,#606);
#601=PRODUCT_DEFINITION_SHAPE($,$,#14);
#602=SHAPE_REPRESENTATION('',(#332,#384),#590);
#603=SHAPE_REPRESENTATION('',(#333),#591);
#604=PRODUCT_DEFINITION_CONTEXT('part definition',#612,'design');
#605=PRODUCT_DEFINITION('Bearing','Bearing v6',#607,#604);
#606=PRODUCT_DEFINITION('BearingSleeve','BearingSleeve v5',#608,#604);
#607=PRODUCT_DEFINITION_FORMATION('',$,#614);
#608=PRODUCT_DEFINITION_FORMATION('',$,#615);
#609=PRODUCT_RELATED_PRODUCT_CATEGORY('Bearing v6','Bearing v6',(#614));
#610=PRODUCT_RELATED_PRODUCT_CATEGORY('BearingSleeve v5',
'BearingSleeve v5',(#615));
#611=APPLICATION_PROTOCOL_DEFINITION('international standard',
'automotive_design',2009,#612);
#612=APPLICATION_CONTEXT(
'Core Data for Automotive Mechanical Design Process');
#613=PRODUCT_CONTEXT('part definition',#612,'mechanical');
#614=PRODUCT('Bearing','Bearing v6',$,(#613));
#615=PRODUCT('BearingSleeve','BearingSleeve v5',$,(#613));
#616=PRESENTATION_STYLE_ASSIGNMENT((#621));
#617=PRESENTATION_STYLE_ASSIGNMENT((#622));
#618=PRESENTATION_STYLE_ASSIGNMENT((#623));
#619=PRESENTATION_STYLE_ASSIGNMENT((#624));
#620=PRESENTATION_STYLE_ASSIGNMENT((#625));
#621=SURFACE_STYLE_USAGE(.BOTH.,#626);
#622=SURFACE_STYLE_USAGE(.BOTH.,#627);
#623=SURFACE_STYLE_USAGE(.BOTH.,#628);
#624=SURFACE_STYLE_USAGE(.BOTH.,#629);
#625=SURFACE_STYLE_USAGE(.BOTH.,#630);
#626=SURFACE_SIDE_STYLE('',(#631));
#627=SURFACE_SIDE_STYLE('',(#632));
#628=SURFACE_SIDE_STYLE('',(#633));
#629=SURFACE_SIDE_STYLE('',(#634));
#630=SURFACE_SIDE_STYLE('',(#635));
#631=SURFACE_STYLE_FILL_AREA(#636);
#632=SURFACE_STYLE_FILL_AREA(#637);
#633=SURFACE_STYLE_FILL_AREA(#638);
#634=SURFACE_STYLE_FILL_AREA(#639);
#635=SURFACE_STYLE_FILL_AREA(#640);
#636=FILL_AREA_STYLE('Steel - Satin',(#641));
#637=FILL_AREA_STYLE('Paint - Metallic (Silver)',(#642));
#638=FILL_AREA_STYLE('Plastic - Matte (Blue)',(#643));
#639=FILL_AREA_STYLE('Plastic - Matte (Green)',(#644));
#640=FILL_AREA_STYLE('Stainless Steel - Satin',(#645));
#641=FILL_AREA_STYLE_COLOUR('Steel - Satin',#646);
#642=FILL_AREA_STYLE_COLOUR('Paint - Metallic (Silver)',#647);
#643=FILL_AREA_STYLE_COLOUR('Plastic - Matte (Blue)',#648);
#644=FILL_AREA_STYLE_COLOUR('Plastic - Matte (Green)',#649);
#645=FILL_AREA_STYLE_COLOUR('Stainless Steel - Satin',#650);
#646=COLOUR_RGB('Steel - Satin',0.627450980392157,0.627450980392157,0.627450980392157);
#647=COLOUR_RGB('Paint - Metallic (Silver)',0.984313725490196,0.980392156862745,
0.96078431372549);
#648=COLOUR_RGB('Plastic - Matte (Blue)',0.188235294117647,0.231372549019608,
0.588235294117647);
#649=COLOUR_RGB('Plastic - Matte (Green)',0.266666666666667,0.588235294117647,
0.282352941176471);
#650=COLOUR_RGB('Stainless Steel - Satin',0.796078431372549,0.796078431372549,
0.796078431372549);
ENDSEC;
END-ISO-10303-21;
