ISO-10303-21;
HEADER;
/* Generated by software containing ST-Developer
 * from STEP Tools, Inc. (www.steptools.com) 
 */

FILE_DESCRIPTION(
/* description */ (''),
/* implementation_level */ '2;1');

FILE_NAME(
/* name */ 'SlideSupports_v11.step',
/* time_stamp */ '2026-08-21T09:17:56-04:00',
/* author */ (''),
/* organization */ (''),
/* preprocessor_version */ 'ST-DEVELOPER v20.1',
/* originating_system */ 'Autodesk Translation Framework v15.8.0.0',
/* authorisation */ '');

FILE_SCHEMA (('AUTOMOTIVE_DESIGN { 1 0 10303 214 3 1 1 }'));
ENDSEC;

DATA;
#10=MECHANICAL_DESIGN_GEOMETRIC_PRESENTATION_REPRESENTATION('',(#13),#1536);
#11=SHAPE_REPRESENTATION_RELATIONSHIP('SRR','None',#1543,#12);
#12=ADVANCED_BREP_SHAPE_REPRESENTATION('',(#14),#1535);
#13=STYLED_ITEM('',(#1553),#14);
#14=MANIFOLD_SOLID_BREP('Body1',#910);
#15=FACE_BOUND('',#114,.T.);
#16=FACE_BOUND('',#117,.T.);
#17=FACE_BOUND('',#125,.T.);
#18=FACE_BOUND('',#147,.T.);
#19=FACE_BOUND('',#157,.T.);
#20=PLANE('',#927);
#21=PLANE('',#931);
#22=PLANE('',#935);
#23=PLANE('',#939);
#24=PLANE('',#943);
#25=PLANE('',#944);
#26=PLANE('',#953);
#27=PLANE('',#964);
#28=PLANE('',#971);
#29=PLANE('',#976);
#30=PLANE('',#979);
#31=PLANE('',#982);
#32=PLANE('',#987);
#33=PLANE('',#988);
#34=PLANE('',#989);
#35=PLANE('',#990);
#36=PLANE('',#991);
#37=PLANE('',#992);
#38=PLANE('',#993);
#39=PLANE('',#994);
#40=PLANE('',#995);
#41=PLANE('',#996);
#42=PLANE('',#997);
#43=PLANE('',#998);
#44=PLANE('',#999);
#45=PLANE('',#1000);
#46=PLANE('',#1001);
#47=PLANE('',#1002);
#48=PLANE('',#1003);
#49=PLANE('',#1004);
#50=PLANE('',#1005);
#51=PLANE('',#1006);
#52=PLANE('',#1007);
#53=FACE_OUTER_BOUND('',#103,.T.);
#54=FACE_OUTER_BOUND('',#104,.T.);
#55=FACE_OUTER_BOUND('',#105,.T.);
#56=FACE_OUTER_BOUND('',#106,.T.);
#57=FACE_OUTER_BOUND('',#107,.T.);
#58=FACE_OUTER_BOUND('',#108,.T.);
#59=FACE_OUTER_BOUND('',#109,.T.);
#60=FACE_OUTER_BOUND('',#110,.T.);
#61=FACE_OUTER_BOUND('',#111,.T.);
#62=FACE_OUTER_BOUND('',#112,.T.);
#63=FACE_OUTER_BOUND('',#113,.T.);
#64=FACE_OUTER_BOUND('',#115,.T.);
#65=FACE_OUTER_BOUND('',#116,.T.);
#66=FACE_OUTER_BOUND('',#118,.T.);
#67=FACE_OUTER_BOUND('',#119,.T.);
#68=FACE_OUTER_BOUND('',#120,.T.);
#69=FACE_OUTER_BOUND('',#121,.T.);
#70=FACE_OUTER_BOUND('',#122,.T.);
#71=FACE_OUTER_BOUND('',#123,.T.);
#72=FACE_OUTER_BOUND('',#124,.T.);
#73=FACE_OUTER_BOUND('',#126,.T.);
#74=FACE_OUTER_BOUND('',#127,.T.);
#75=FACE_OUTER_BOUND('',#128,.T.);
#76=FACE_OUTER_BOUND('',#129,.T.);
#77=FACE_OUTER_BOUND('',#130,.T.);
#78=FACE_OUTER_BOUND('',#131,.T.);
#79=FACE_OUTER_BOUND('',#132,.T.);
#80=FACE_OUTER_BOUND('',#133,.T.);
#81=FACE_OUTER_BOUND('',#134,.T.);
#82=FACE_OUTER_BOUND('',#135,.T.);
#83=FACE_OUTER_BOUND('',#136,.T.);
#84=FACE_OUTER_BOUND('',#137,.T.);
#85=FACE_OUTER_BOUND('',#138,.T.);
#86=FACE_OUTER_BOUND('',#139,.T.);
#87=FACE_OUTER_BOUND('',#140,.T.);
#88=FACE_OUTER_BOUND('',#141,.T.);
#89=FACE_OUTER_BOUND('',#142,.T.);
#90=FACE_OUTER_BOUND('',#143,.T.);
#91=FACE_OUTER_BOUND('',#144,.T.);
#92=FACE_OUTER_BOUND('',#145,.T.);
#93=FACE_OUTER_BOUND('',#146,.T.);
#94=FACE_OUTER_BOUND('',#148,.T.);
#95=FACE_OUTER_BOUND('',#149,.T.);
#96=FACE_OUTER_BOUND('',#150,.T.);
#97=FACE_OUTER_BOUND('',#151,.T.);
#98=FACE_OUTER_BOUND('',#152,.T.);
#99=FACE_OUTER_BOUND('',#153,.T.);
#100=FACE_OUTER_BOUND('',#154,.T.);
#101=FACE_OUTER_BOUND('',#155,.T.);
#102=FACE_OUTER_BOUND('',#156,.T.);
#103=EDGE_LOOP('',(#589,#590,#591,#592));
#104=EDGE_LOOP('',(#593));
#105=EDGE_LOOP('',(#594,#595,#596,#597));
#106=EDGE_LOOP('',(#598));
#107=EDGE_LOOP('',(#599,#600,#601,#602));
#108=EDGE_LOOP('',(#603));
#109=EDGE_LOOP('',(#604,#605,#606,#607));
#110=EDGE_LOOP('',(#608));
#111=EDGE_LOOP('',(#609,#610,#611,#612));
#112=EDGE_LOOP('',(#613));
#113=EDGE_LOOP('',(#614,#615,#616,#617,#618,#619,#620,#621,#622,#623,#624,
#625,#626,#627,#628,#629,#630));
#114=EDGE_LOOP('',(#631));
#115=EDGE_LOOP('',(#632,#633,#634,#635));
#116=EDGE_LOOP('',(#636,#637,#638,#639,#640,#641,#642,#643,#644,#645,#646,
#647,#648,#649,#650,#651));
#117=EDGE_LOOP('',(#652));
#118=EDGE_LOOP('',(#653,#654,#655,#656));
#119=EDGE_LOOP('',(#657,#658,#659,#660));
#120=EDGE_LOOP('',(#661,#662,#663,#664));
#121=EDGE_LOOP('',(#665,#666,#667,#668));
#122=EDGE_LOOP('',(#669,#670,#671,#672));
#123=EDGE_LOOP('',(#673,#674,#675,#676));
#124=EDGE_LOOP('',(#677,#678,#679,#680,#681,#682,#683,#684,#685,#686,#687,
#688,#689,#690,#691,#692));
#125=EDGE_LOOP('',(#693));
#126=EDGE_LOOP('',(#694,#695,#696,#697));
#127=EDGE_LOOP('',(#698,#699,#700,#701));
#128=EDGE_LOOP('',(#702,#703,#704,#705));
#129=EDGE_LOOP('',(#706,#707,#708,#709));
#130=EDGE_LOOP('',(#710,#711,#712,#713,#714,#715,#716,#717,#718,#719));
#131=EDGE_LOOP('',(#720,#721,#722,#723));
#132=EDGE_LOOP('',(#724,#725,#726,#727));
#133=EDGE_LOOP('',(#728,#729,#730,#731));
#134=EDGE_LOOP('',(#732,#733,#734,#735));
#135=EDGE_LOOP('',(#736,#737,#738,#739));
#136=EDGE_LOOP('',(#740,#741,#742,#743));
#137=EDGE_LOOP('',(#744,#745,#746,#747));
#138=EDGE_LOOP('',(#748,#749,#750,#751));
#139=EDGE_LOOP('',(#752,#753,#754,#755));
#140=EDGE_LOOP('',(#756,#757,#758,#759));
#141=EDGE_LOOP('',(#760,#761,#762,#763));
#142=EDGE_LOOP('',(#764,#765,#766,#767));
#143=EDGE_LOOP('',(#768,#769,#770,#771));
#144=EDGE_LOOP('',(#772,#773,#774,#775));
#145=EDGE_LOOP('',(#776,#777,#778,#779));
#146=EDGE_LOOP('',(#780,#781,#782,#783));
#147=EDGE_LOOP('',(#784));
#148=EDGE_LOOP('',(#785,#786,#787,#788,#789,#790,#791,#792,#793,#794,#795,
#796));
#149=EDGE_LOOP('',(#797,#798,#799,#800));
#150=EDGE_LOOP('',(#801,#802,#803,#804));
#151=EDGE_LOOP('',(#805,#806,#807,#808));
#152=EDGE_LOOP('',(#809,#810,#811,#812));
#153=EDGE_LOOP('',(#813,#814,#815,#816));
#154=EDGE_LOOP('',(#817,#818,#819,#820));
#155=EDGE_LOOP('',(#821,#822,#823,#824));
#156=EDGE_LOOP('',(#825,#826,#827,#828,#829,#830,#831,#832,#833,#834,#835,
#836,#837,#838,#839,#840,#841));
#157=EDGE_LOOP('',(#842));
#158=LINE('',#1276,#251);
#159=LINE('',#1283,#252);
#160=LINE('',#1290,#253);
#161=LINE('',#1297,#254);
#162=LINE('',#1304,#255);
#163=LINE('',#1312,#256);
#164=LINE('',#1314,#257);
#165=LINE('',#1316,#258);
#166=LINE('',#1318,#259);
#167=LINE('',#1320,#260);
#168=LINE('',#1322,#261);
#169=LINE('',#1326,#262);
#170=LINE('',#1330,#263);
#171=LINE('',#1332,#264);
#172=LINE('',#1334,#265);
#173=LINE('',#1341,#266);
#174=LINE('',#1344,#267);
#175=LINE('',#1347,#268);
#176=LINE('',#1353,#269);
#177=LINE('',#1355,#270);
#178=LINE('',#1357,#271);
#179=LINE('',#1359,#272);
#180=LINE('',#1361,#273);
#181=LINE('',#1363,#274);
#182=LINE('',#1365,#275);
#183=LINE('',#1367,#276);
#184=LINE('',#1373,#277);
#185=LINE('',#1380,#278);
#186=LINE('',#1385,#279);
#187=LINE('',#1386,#280);
#188=LINE('',#1389,#281);
#189=LINE('',#1392,#282);
#190=LINE('',#1395,#283);
#191=LINE('',#1396,#284);
#192=LINE('',#1399,#285);
#193=LINE('',#1402,#286);
#194=LINE('',#1408,#287);
#195=LINE('',#1410,#288);
#196=LINE('',#1414,#289);
#197=LINE('',#1416,#290);
#198=LINE('',#1418,#291);
#199=LINE('',#1420,#292);
#200=LINE('',#1422,#293);
#201=LINE('',#1424,#294);
#202=LINE('',#1426,#295);
#203=LINE('',#1427,#296);
#204=LINE('',#1429,#297);
#205=LINE('',#1432,#298);
#206=LINE('',#1435,#299);
#207=LINE('',#1438,#300);
#208=LINE('',#1439,#301);
#209=LINE('',#1444,#302);
#210=LINE('',#1445,#303);
#211=LINE('',#1448,#304);
#212=LINE('',#1450,#305);
#213=LINE('',#1452,#306);
#214=LINE('',#1453,#307);
#215=LINE('',#1454,#308);
#216=LINE('',#1456,#309);
#217=LINE('',#1458,#310);
#218=LINE('',#1459,#311);
#219=LINE('',#1464,#312);
#220=LINE('',#1465,#313);
#221=LINE('',#1467,#314);
#222=LINE('',#1472,#315);
#223=LINE('',#1473,#316);
#224=LINE('',#1478,#317);
#225=LINE('',#1479,#318);
#226=LINE('',#1482,#319);
#227=LINE('',#1483,#320);
#228=LINE('',#1485,#321);
#229=LINE('',#1488,#322);
#230=LINE('',#1490,#323);
#231=LINE('',#1491,#324);
#232=LINE('',#1494,#325);
#233=LINE('',#1495,#326);
#234=LINE('',#1497,#327);
#235=LINE('',#1499,#328);
#236=LINE('',#1502,#329);
#237=LINE('',#1503,#330);
#238=LINE('',#1506,#331);
#239=LINE('',#1507,#332);
#240=LINE('',#1510,#333);
#241=LINE('',#1511,#334);
#242=LINE('',#1514,#335);
#243=LINE('',#1515,#336);
#244=LINE('',#1517,#337);
#245=LINE('',#1519,#338);
#246=LINE('',#1522,#339);
#247=LINE('',#1524,#340);
#248=LINE('',#1526,#341);
#249=LINE('',#1528,#342);
#250=LINE('',#1530,#343);
#251=VECTOR('',#1014,1.75);
#252=VECTOR('',#1023,1.75);
#253=VECTOR('',#1032,1.75);
#254=VECTOR('',#1041,1.75);
#255=VECTOR('',#1050,1.75);
#256=VECTOR('',#1059,10.);
#257=VECTOR('',#1060,10.);
#258=VECTOR('',#1061,10.);
#259=VECTOR('',#1062,10.);
#260=VECTOR('',#1063,10.);
#261=VECTOR('',#1064,10.);
#262=VECTOR('',#1067,10.);
#263=VECTOR('',#1070,10.);
#264=VECTOR('',#1071,10.);
#265=VECTOR('',#1072,10.);
#266=VECTOR('',#1079,10.);
#267=VECTOR('',#1082,10.);
#268=VECTOR('',#1085,10.);
#269=VECTOR('',#1090,10.);
#270=VECTOR('',#1091,10.);
#271=VECTOR('',#1092,10.);
#272=VECTOR('',#1093,10.);
#273=VECTOR('',#1094,10.);
#274=VECTOR('',#1095,10.);
#275=VECTOR('',#1096,10.);
#276=VECTOR('',#1097,10.);
#277=VECTOR('',#1102,10.);
#278=VECTOR('',#1109,10.);
#279=VECTOR('',#1114,10.);
#280=VECTOR('',#1115,10.);
#281=VECTOR('',#1118,10.);
#282=VECTOR('',#1121,10.);
#283=VECTOR('',#1124,10.);
#284=VECTOR('',#1125,10.);
#285=VECTOR('',#1128,10.);
#286=VECTOR('',#1131,10.);
#287=VECTOR('',#1140,10.);
#288=VECTOR('',#1143,10.);
#289=VECTOR('',#1146,10.);
#290=VECTOR('',#1147,10.);
#291=VECTOR('',#1148,10.);
#292=VECTOR('',#1149,10.);
#293=VECTOR('',#1150,10.);
#294=VECTOR('',#1151,10.);
#295=VECTOR('',#1152,10.);
#296=VECTOR('',#1153,10.);
#297=VECTOR('',#1156,3.);
#298=VECTOR('',#1159,10.);
#299=VECTOR('',#1162,10.);
#300=VECTOR('',#1165,10.);
#301=VECTOR('',#1166,10.);
#302=VECTOR('',#1171,10.);
#303=VECTOR('',#1172,10.);
#304=VECTOR('',#1175,10.);
#305=VECTOR('',#1176,10.);
#306=VECTOR('',#1177,10.);
#307=VECTOR('',#1178,10.);
#308=VECTOR('',#1179,10.);
#309=VECTOR('',#1180,10.);
#310=VECTOR('',#1181,10.);
#311=VECTOR('',#1182,10.);
#312=VECTOR('',#1187,10.);
#313=VECTOR('',#1188,10.);
#314=VECTOR('',#1191,10.);
#315=VECTOR('',#1196,10.);
#316=VECTOR('',#1197,10.);
#317=VECTOR('',#1204,10.);
#318=VECTOR('',#1205,10.);
#319=VECTOR('',#1208,10.);
#320=VECTOR('',#1209,10.);
#321=VECTOR('',#1212,10.);
#322=VECTOR('',#1215,10.);
#323=VECTOR('',#1216,10.);
#324=VECTOR('',#1217,10.);
#325=VECTOR('',#1220,10.);
#326=VECTOR('',#1221,10.);
#327=VECTOR('',#1224,10.);
#328=VECTOR('',#1227,10.);
#329=VECTOR('',#1230,10.);
#330=VECTOR('',#1231,10.);
#331=VECTOR('',#1234,10.);
#332=VECTOR('',#1235,10.);
#333=VECTOR('',#1238,10.);
#334=VECTOR('',#1239,10.);
#335=VECTOR('',#1242,10.);
#336=VECTOR('',#1243,10.);
#337=VECTOR('',#1246,10.);
#338=VECTOR('',#1249,10.);
#339=VECTOR('',#1254,10.);
#340=VECTOR('',#1257,10.);
#341=VECTOR('',#1260,10.);
#342=VECTOR('',#1263,10.);
#343=VECTOR('',#1266,10.);
#344=CIRCLE('',#925,1.75);
#345=CIRCLE('',#926,1.75);
#346=CIRCLE('',#929,1.75);
#347=CIRCLE('',#930,1.75);
#348=CIRCLE('',#933,1.75);
#349=CIRCLE('',#934,1.75);
#350=CIRCLE('',#937,1.75);
#351=CIRCLE('',#938,1.75);
#352=CIRCLE('',#941,1.75);
#353=CIRCLE('',#942,1.75);
#354=CIRCLE('',#945,1.5);
#355=CIRCLE('',#946,1.5);
#356=CIRCLE('',#947,2.5);
#357=CIRCLE('',#948,2.);
#358=CIRCLE('',#949,4.75);
#359=CIRCLE('',#950,2.);
#360=CIRCLE('',#952,1.5);
#361=CIRCLE('',#954,1.5);
#362=CIRCLE('',#955,3.);
#363=CIRCLE('',#956,3.);
#364=CIRCLE('',#957,2.5);
#365=CIRCLE('',#958,4.75);
#366=CIRCLE('',#959,3.);
#367=CIRCLE('',#961,1.5);
#368=CIRCLE('',#963,2.5);
#369=CIRCLE('',#966,3.);
#370=CIRCLE('',#968,4.75);
#371=CIRCLE('',#970,3.);
#372=CIRCLE('',#972,3.);
#373=CIRCLE('',#975,1.5);
#374=CIRCLE('',#978,2.5);
#375=CIRCLE('',#981,2.);
#376=CIRCLE('',#984,2.);
#377=CIRCLE('',#986,4.75);
#378=VERTEX_POINT('',#1273);
#379=VERTEX_POINT('',#1275);
#380=VERTEX_POINT('',#1280);
#381=VERTEX_POINT('',#1282);
#382=VERTEX_POINT('',#1287);
#383=VERTEX_POINT('',#1289);
#384=VERTEX_POINT('',#1294);
#385=VERTEX_POINT('',#1296);
#386=VERTEX_POINT('',#1301);
#387=VERTEX_POINT('',#1303);
#388=VERTEX_POINT('',#1308);
#389=VERTEX_POINT('',#1309);
#390=VERTEX_POINT('',#1311);
#391=VERTEX_POINT('',#1313);
#392=VERTEX_POINT('',#1315);
#393=VERTEX_POINT('',#1317);
#394=VERTEX_POINT('',#1319);
#395=VERTEX_POINT('',#1321);
#396=VERTEX_POINT('',#1323);
#397=VERTEX_POINT('',#1325);
#398=VERTEX_POINT('',#1327);
#399=VERTEX_POINT('',#1329);
#400=VERTEX_POINT('',#1331);
#401=VERTEX_POINT('',#1333);
#402=VERTEX_POINT('',#1335);
#403=VERTEX_POINT('',#1337);
#404=VERTEX_POINT('',#1339);
#405=VERTEX_POINT('',#1343);
#406=VERTEX_POINT('',#1345);
#407=VERTEX_POINT('',#1349);
#408=VERTEX_POINT('',#1350);
#409=VERTEX_POINT('',#1352);
#410=VERTEX_POINT('',#1354);
#411=VERTEX_POINT('',#1356);
#412=VERTEX_POINT('',#1358);
#413=VERTEX_POINT('',#1360);
#414=VERTEX_POINT('',#1362);
#415=VERTEX_POINT('',#1364);
#416=VERTEX_POINT('',#1366);
#417=VERTEX_POINT('',#1368);
#418=VERTEX_POINT('',#1370);
#419=VERTEX_POINT('',#1372);
#420=VERTEX_POINT('',#1374);
#421=VERTEX_POINT('',#1376);
#422=VERTEX_POINT('',#1378);
#423=VERTEX_POINT('',#1382);
#424=VERTEX_POINT('',#1383);
#425=VERTEX_POINT('',#1388);
#426=VERTEX_POINT('',#1390);
#427=VERTEX_POINT('',#1394);
#428=VERTEX_POINT('',#1398);
#429=VERTEX_POINT('',#1400);
#430=VERTEX_POINT('',#1406);
#431=VERTEX_POINT('',#1411);
#432=VERTEX_POINT('',#1413);
#433=VERTEX_POINT('',#1415);
#434=VERTEX_POINT('',#1417);
#435=VERTEX_POINT('',#1419);
#436=VERTEX_POINT('',#1421);
#437=VERTEX_POINT('',#1423);
#438=VERTEX_POINT('',#1425);
#439=VERTEX_POINT('',#1431);
#440=VERTEX_POINT('',#1433);
#441=VERTEX_POINT('',#1437);
#442=VERTEX_POINT('',#1441);
#443=VERTEX_POINT('',#1442);
#444=VERTEX_POINT('',#1447);
#445=VERTEX_POINT('',#1449);
#446=VERTEX_POINT('',#1451);
#447=VERTEX_POINT('',#1455);
#448=VERTEX_POINT('',#1457);
#449=VERTEX_POINT('',#1461);
#450=VERTEX_POINT('',#1462);
#451=VERTEX_POINT('',#1469);
#452=VERTEX_POINT('',#1470);
#453=VERTEX_POINT('',#1477);
#454=VERTEX_POINT('',#1481);
#455=VERTEX_POINT('',#1487);
#456=VERTEX_POINT('',#1489);
#457=VERTEX_POINT('',#1493);
#458=VERTEX_POINT('',#1501);
#459=VERTEX_POINT('',#1505);
#460=VERTEX_POINT('',#1509);
#461=VERTEX_POINT('',#1513);
#462=EDGE_CURVE('',#378,#378,#344,.T.);
#463=EDGE_CURVE('',#378,#379,#158,.T.);
#464=EDGE_CURVE('',#379,#379,#345,.T.);
#465=EDGE_CURVE('',#380,#380,#346,.T.);
#466=EDGE_CURVE('',#380,#381,#159,.T.);
#467=EDGE_CURVE('',#381,#381,#347,.T.);
#468=EDGE_CURVE('',#382,#382,#348,.T.);
#469=EDGE_CURVE('',#382,#383,#160,.T.);
#470=EDGE_CURVE('',#383,#383,#349,.T.);
#471=EDGE_CURVE('',#384,#384,#350,.T.);
#472=EDGE_CURVE('',#384,#385,#161,.T.);
#473=EDGE_CURVE('',#385,#385,#351,.T.);
#474=EDGE_CURVE('',#386,#386,#352,.T.);
#475=EDGE_CURVE('',#386,#387,#162,.T.);
#476=EDGE_CURVE('',#387,#387,#353,.T.);
#477=EDGE_CURVE('',#388,#389,#354,.T.);
#478=EDGE_CURVE('',#388,#390,#163,.T.);
#479=EDGE_CURVE('',#390,#391,#164,.F.);
#480=EDGE_CURVE('',#391,#392,#165,.F.);
#481=EDGE_CURVE('',#392,#393,#166,.F.);
#482=EDGE_CURVE('',#393,#394,#167,.T.);
#483=EDGE_CURVE('',#394,#395,#168,.T.);
#484=EDGE_CURVE('',#396,#395,#355,.T.);
#485=EDGE_CURVE('',#396,#397,#169,.T.);
#486=EDGE_CURVE('',#398,#397,#356,.T.);
#487=EDGE_CURVE('',#398,#399,#170,.T.);
#488=EDGE_CURVE('',#399,#400,#171,.T.);
#489=EDGE_CURVE('',#400,#401,#172,.T.);
#490=EDGE_CURVE('',#402,#401,#357,.T.);
#491=EDGE_CURVE('',#402,#403,#358,.T.);
#492=EDGE_CURVE('',#404,#403,#359,.T.);
#493=EDGE_CURVE('',#404,#389,#173,.T.);
#494=EDGE_CURVE('',#389,#405,#174,.T.);
#495=EDGE_CURVE('',#405,#406,#360,.T.);
#496=EDGE_CURVE('',#406,#388,#175,.T.);
#497=EDGE_CURVE('',#407,#408,#361,.T.);
#498=EDGE_CURVE('',#409,#407,#176,.T.);
#499=EDGE_CURVE('',#410,#409,#177,.F.);
#500=EDGE_CURVE('',#411,#410,#178,.F.);
#501=EDGE_CURVE('',#411,#412,#179,.T.);
#502=EDGE_CURVE('',#412,#413,#180,.T.);
#503=EDGE_CURVE('',#413,#414,#181,.T.);
#504=EDGE_CURVE('',#414,#415,#182,.T.);
#505=EDGE_CURVE('',#416,#415,#183,.T.);
#506=EDGE_CURVE('',#416,#417,#362,.F.);
#507=EDGE_CURVE('',#418,#417,#363,.T.);
#508=EDGE_CURVE('',#419,#418,#184,.T.);
#509=EDGE_CURVE('',#420,#419,#364,.T.);
#510=EDGE_CURVE('',#421,#420,#365,.T.);
#511=EDGE_CURVE('',#422,#421,#366,.T.);
#512=EDGE_CURVE('',#408,#422,#185,.T.);
#513=EDGE_CURVE('',#423,#424,#367,.T.);
#514=EDGE_CURVE('',#424,#407,#186,.T.);
#515=EDGE_CURVE('',#408,#423,#187,.T.);
#516=EDGE_CURVE('',#419,#425,#188,.T.);
#517=EDGE_CURVE('',#425,#426,#368,.T.);
#518=EDGE_CURVE('',#426,#420,#189,.T.);
#519=EDGE_CURVE('',#427,#418,#190,.T.);
#520=EDGE_CURVE('',#425,#427,#191,.T.);
#521=EDGE_CURVE('',#421,#428,#192,.T.);
#522=EDGE_CURVE('',#428,#429,#369,.T.);
#523=EDGE_CURVE('',#429,#422,#193,.T.);
#524=EDGE_CURVE('',#428,#426,#370,.T.);
#525=EDGE_CURVE('',#430,#427,#371,.T.);
#526=EDGE_CURVE('',#417,#430,#194,.T.);
#527=EDGE_CURVE('',#423,#429,#195,.T.);
#528=EDGE_CURVE('',#431,#430,#372,.T.);
#529=EDGE_CURVE('',#432,#431,#196,.T.);
#530=EDGE_CURVE('',#432,#433,#197,.T.);
#531=EDGE_CURVE('',#433,#434,#198,.T.);
#532=EDGE_CURVE('',#434,#435,#199,.T.);
#533=EDGE_CURVE('',#435,#436,#200,.F.);
#534=EDGE_CURVE('',#436,#437,#201,.F.);
#535=EDGE_CURVE('',#437,#438,#202,.F.);
#536=EDGE_CURVE('',#438,#424,#203,.T.);
#537=EDGE_CURVE('',#416,#431,#204,.T.);
#538=EDGE_CURVE('',#395,#439,#205,.T.);
#539=EDGE_CURVE('',#439,#440,#373,.T.);
#540=EDGE_CURVE('',#440,#396,#206,.T.);
#541=EDGE_CURVE('',#441,#394,#207,.T.);
#542=EDGE_CURVE('',#441,#439,#208,.T.);
#543=EDGE_CURVE('',#442,#443,#374,.T.);
#544=EDGE_CURVE('',#443,#398,#209,.T.);
#545=EDGE_CURVE('',#397,#442,#210,.T.);
#546=EDGE_CURVE('',#444,#443,#211,.T.);
#547=EDGE_CURVE('',#444,#445,#212,.T.);
#548=EDGE_CURVE('',#446,#445,#213,.T.);
#549=EDGE_CURVE('',#414,#446,#214,.T.);
#550=EDGE_CURVE('',#414,#433,#215,.T.);
#551=EDGE_CURVE('',#433,#447,#216,.T.);
#552=EDGE_CURVE('',#448,#447,#217,.T.);
#553=EDGE_CURVE('',#399,#448,#218,.T.);
#554=EDGE_CURVE('',#449,#450,#375,.T.);
#555=EDGE_CURVE('',#450,#404,#219,.T.);
#556=EDGE_CURVE('',#403,#449,#220,.T.);
#557=EDGE_CURVE('',#450,#405,#221,.T.);
#558=EDGE_CURVE('',#451,#452,#376,.T.);
#559=EDGE_CURVE('',#452,#402,#222,.T.);
#560=EDGE_CURVE('',#401,#451,#223,.T.);
#561=EDGE_CURVE('',#452,#449,#377,.T.);
#562=EDGE_CURVE('',#432,#453,#224,.T.);
#563=EDGE_CURVE('',#447,#453,#225,.T.);
#564=EDGE_CURVE('',#454,#448,#226,.T.);
#565=EDGE_CURVE('',#400,#454,#227,.T.);
#566=EDGE_CURVE('',#453,#454,#228,.T.);
#567=EDGE_CURVE('',#455,#444,#229,.T.);
#568=EDGE_CURVE('',#455,#456,#230,.T.);
#569=EDGE_CURVE('',#445,#456,#231,.T.);
#570=EDGE_CURVE('',#457,#446,#232,.T.);
#571=EDGE_CURVE('',#415,#457,#233,.T.);
#572=EDGE_CURVE('',#456,#457,#234,.T.);
#573=EDGE_CURVE('',#442,#440,#235,.T.);
#574=EDGE_CURVE('',#458,#441,#236,.T.);
#575=EDGE_CURVE('',#458,#393,#237,.T.);
#576=EDGE_CURVE('',#459,#458,#238,.F.);
#577=EDGE_CURVE('',#459,#392,#239,.T.);
#578=EDGE_CURVE('',#459,#460,#240,.T.);
#579=EDGE_CURVE('',#460,#391,#241,.T.);
#580=EDGE_CURVE('',#460,#461,#242,.T.);
#581=EDGE_CURVE('',#461,#390,#243,.F.);
#582=EDGE_CURVE('',#406,#461,#244,.T.);
#583=EDGE_CURVE('',#455,#451,#245,.T.);
#584=EDGE_CURVE('',#409,#438,#246,.T.);
#585=EDGE_CURVE('',#410,#437,#247,.T.);
#586=EDGE_CURVE('',#411,#436,#248,.T.);
#587=EDGE_CURVE('',#412,#435,#249,.F.);
#588=EDGE_CURVE('',#413,#434,#250,.T.);
#589=ORIENTED_EDGE('',*,*,#462,.F.);
#590=ORIENTED_EDGE('',*,*,#463,.T.);
#591=ORIENTED_EDGE('',*,*,#464,.T.);
#592=ORIENTED_EDGE('',*,*,#463,.F.);
#593=ORIENTED_EDGE('',*,*,#464,.F.);
#594=ORIENTED_EDGE('',*,*,#465,.F.);
#595=ORIENTED_EDGE('',*,*,#466,.T.);
#596=ORIENTED_EDGE('',*,*,#467,.T.);
#597=ORIENTED_EDGE('',*,*,#466,.F.);
#598=ORIENTED_EDGE('',*,*,#467,.F.);
#599=ORIENTED_EDGE('',*,*,#468,.F.);
#600=ORIENTED_EDGE('',*,*,#469,.T.);
#601=ORIENTED_EDGE('',*,*,#470,.T.);
#602=ORIENTED_EDGE('',*,*,#469,.F.);
#603=ORIENTED_EDGE('',*,*,#470,.F.);
#604=ORIENTED_EDGE('',*,*,#471,.F.);
#605=ORIENTED_EDGE('',*,*,#472,.T.);
#606=ORIENTED_EDGE('',*,*,#473,.T.);
#607=ORIENTED_EDGE('',*,*,#472,.F.);
#608=ORIENTED_EDGE('',*,*,#473,.F.);
#609=ORIENTED_EDGE('',*,*,#474,.F.);
#610=ORIENTED_EDGE('',*,*,#475,.T.);
#611=ORIENTED_EDGE('',*,*,#476,.T.);
#612=ORIENTED_EDGE('',*,*,#475,.F.);
#613=ORIENTED_EDGE('',*,*,#476,.F.);
#614=ORIENTED_EDGE('',*,*,#477,.F.);
#615=ORIENTED_EDGE('',*,*,#478,.T.);
#616=ORIENTED_EDGE('',*,*,#479,.T.);
#617=ORIENTED_EDGE('',*,*,#480,.T.);
#618=ORIENTED_EDGE('',*,*,#481,.T.);
#619=ORIENTED_EDGE('',*,*,#482,.T.);
#620=ORIENTED_EDGE('',*,*,#483,.T.);
#621=ORIENTED_EDGE('',*,*,#484,.F.);
#622=ORIENTED_EDGE('',*,*,#485,.T.);
#623=ORIENTED_EDGE('',*,*,#486,.F.);
#624=ORIENTED_EDGE('',*,*,#487,.T.);
#625=ORIENTED_EDGE('',*,*,#488,.T.);
#626=ORIENTED_EDGE('',*,*,#489,.T.);
#627=ORIENTED_EDGE('',*,*,#490,.F.);
#628=ORIENTED_EDGE('',*,*,#491,.T.);
#629=ORIENTED_EDGE('',*,*,#492,.F.);
#630=ORIENTED_EDGE('',*,*,#493,.T.);
#631=ORIENTED_EDGE('',*,*,#468,.T.);
#632=ORIENTED_EDGE('',*,*,#477,.T.);
#633=ORIENTED_EDGE('',*,*,#494,.T.);
#634=ORIENTED_EDGE('',*,*,#495,.T.);
#635=ORIENTED_EDGE('',*,*,#496,.T.);
#636=ORIENTED_EDGE('',*,*,#497,.F.);
#637=ORIENTED_EDGE('',*,*,#498,.F.);
#638=ORIENTED_EDGE('',*,*,#499,.F.);
#639=ORIENTED_EDGE('',*,*,#500,.F.);
#640=ORIENTED_EDGE('',*,*,#501,.T.);
#641=ORIENTED_EDGE('',*,*,#502,.T.);
#642=ORIENTED_EDGE('',*,*,#503,.T.);
#643=ORIENTED_EDGE('',*,*,#504,.T.);
#644=ORIENTED_EDGE('',*,*,#505,.F.);
#645=ORIENTED_EDGE('',*,*,#506,.T.);
#646=ORIENTED_EDGE('',*,*,#507,.F.);
#647=ORIENTED_EDGE('',*,*,#508,.F.);
#648=ORIENTED_EDGE('',*,*,#509,.F.);
#649=ORIENTED_EDGE('',*,*,#510,.F.);
#650=ORIENTED_EDGE('',*,*,#511,.F.);
#651=ORIENTED_EDGE('',*,*,#512,.F.);
#652=ORIENTED_EDGE('',*,*,#471,.T.);
#653=ORIENTED_EDGE('',*,*,#513,.T.);
#654=ORIENTED_EDGE('',*,*,#514,.T.);
#655=ORIENTED_EDGE('',*,*,#497,.T.);
#656=ORIENTED_EDGE('',*,*,#515,.T.);
#657=ORIENTED_EDGE('',*,*,#509,.T.);
#658=ORIENTED_EDGE('',*,*,#516,.T.);
#659=ORIENTED_EDGE('',*,*,#517,.T.);
#660=ORIENTED_EDGE('',*,*,#518,.T.);
#661=ORIENTED_EDGE('',*,*,#516,.F.);
#662=ORIENTED_EDGE('',*,*,#508,.T.);
#663=ORIENTED_EDGE('',*,*,#519,.F.);
#664=ORIENTED_EDGE('',*,*,#520,.F.);
#665=ORIENTED_EDGE('',*,*,#511,.T.);
#666=ORIENTED_EDGE('',*,*,#521,.T.);
#667=ORIENTED_EDGE('',*,*,#522,.T.);
#668=ORIENTED_EDGE('',*,*,#523,.T.);
#669=ORIENTED_EDGE('',*,*,#518,.F.);
#670=ORIENTED_EDGE('',*,*,#524,.F.);
#671=ORIENTED_EDGE('',*,*,#521,.F.);
#672=ORIENTED_EDGE('',*,*,#510,.T.);
#673=ORIENTED_EDGE('',*,*,#525,.T.);
#674=ORIENTED_EDGE('',*,*,#519,.T.);
#675=ORIENTED_EDGE('',*,*,#507,.T.);
#676=ORIENTED_EDGE('',*,*,#526,.T.);
#677=ORIENTED_EDGE('',*,*,#513,.F.);
#678=ORIENTED_EDGE('',*,*,#527,.T.);
#679=ORIENTED_EDGE('',*,*,#522,.F.);
#680=ORIENTED_EDGE('',*,*,#524,.T.);
#681=ORIENTED_EDGE('',*,*,#517,.F.);
#682=ORIENTED_EDGE('',*,*,#520,.T.);
#683=ORIENTED_EDGE('',*,*,#525,.F.);
#684=ORIENTED_EDGE('',*,*,#528,.F.);
#685=ORIENTED_EDGE('',*,*,#529,.F.);
#686=ORIENTED_EDGE('',*,*,#530,.T.);
#687=ORIENTED_EDGE('',*,*,#531,.T.);
#688=ORIENTED_EDGE('',*,*,#532,.T.);
#689=ORIENTED_EDGE('',*,*,#533,.T.);
#690=ORIENTED_EDGE('',*,*,#534,.T.);
#691=ORIENTED_EDGE('',*,*,#535,.T.);
#692=ORIENTED_EDGE('',*,*,#536,.T.);
#693=ORIENTED_EDGE('',*,*,#465,.T.);
#694=ORIENTED_EDGE('',*,*,#526,.F.);
#695=ORIENTED_EDGE('',*,*,#506,.F.);
#696=ORIENTED_EDGE('',*,*,#537,.T.);
#697=ORIENTED_EDGE('',*,*,#528,.T.);
#698=ORIENTED_EDGE('',*,*,#484,.T.);
#699=ORIENTED_EDGE('',*,*,#538,.T.);
#700=ORIENTED_EDGE('',*,*,#539,.T.);
#701=ORIENTED_EDGE('',*,*,#540,.T.);
#702=ORIENTED_EDGE('',*,*,#538,.F.);
#703=ORIENTED_EDGE('',*,*,#483,.F.);
#704=ORIENTED_EDGE('',*,*,#541,.F.);
#705=ORIENTED_EDGE('',*,*,#542,.T.);
#706=ORIENTED_EDGE('',*,*,#543,.T.);
#707=ORIENTED_EDGE('',*,*,#544,.T.);
#708=ORIENTED_EDGE('',*,*,#486,.T.);
#709=ORIENTED_EDGE('',*,*,#545,.T.);
#710=ORIENTED_EDGE('',*,*,#544,.F.);
#711=ORIENTED_EDGE('',*,*,#546,.F.);
#712=ORIENTED_EDGE('',*,*,#547,.T.);
#713=ORIENTED_EDGE('',*,*,#548,.F.);
#714=ORIENTED_EDGE('',*,*,#549,.F.);
#715=ORIENTED_EDGE('',*,*,#550,.T.);
#716=ORIENTED_EDGE('',*,*,#551,.T.);
#717=ORIENTED_EDGE('',*,*,#552,.F.);
#718=ORIENTED_EDGE('',*,*,#553,.F.);
#719=ORIENTED_EDGE('',*,*,#487,.F.);
#720=ORIENTED_EDGE('',*,*,#554,.T.);
#721=ORIENTED_EDGE('',*,*,#555,.T.);
#722=ORIENTED_EDGE('',*,*,#492,.T.);
#723=ORIENTED_EDGE('',*,*,#556,.T.);
#724=ORIENTED_EDGE('',*,*,#494,.F.);
#725=ORIENTED_EDGE('',*,*,#493,.F.);
#726=ORIENTED_EDGE('',*,*,#555,.F.);
#727=ORIENTED_EDGE('',*,*,#557,.T.);
#728=ORIENTED_EDGE('',*,*,#558,.T.);
#729=ORIENTED_EDGE('',*,*,#559,.T.);
#730=ORIENTED_EDGE('',*,*,#490,.T.);
#731=ORIENTED_EDGE('',*,*,#560,.T.);
#732=ORIENTED_EDGE('',*,*,#556,.F.);
#733=ORIENTED_EDGE('',*,*,#491,.F.);
#734=ORIENTED_EDGE('',*,*,#559,.F.);
#735=ORIENTED_EDGE('',*,*,#561,.T.);
#736=ORIENTED_EDGE('',*,*,#530,.F.);
#737=ORIENTED_EDGE('',*,*,#562,.T.);
#738=ORIENTED_EDGE('',*,*,#563,.F.);
#739=ORIENTED_EDGE('',*,*,#551,.F.);
#740=ORIENTED_EDGE('',*,*,#488,.F.);
#741=ORIENTED_EDGE('',*,*,#553,.T.);
#742=ORIENTED_EDGE('',*,*,#564,.F.);
#743=ORIENTED_EDGE('',*,*,#565,.F.);
#744=ORIENTED_EDGE('',*,*,#563,.T.);
#745=ORIENTED_EDGE('',*,*,#566,.T.);
#746=ORIENTED_EDGE('',*,*,#564,.T.);
#747=ORIENTED_EDGE('',*,*,#552,.T.);
#748=ORIENTED_EDGE('',*,*,#567,.F.);
#749=ORIENTED_EDGE('',*,*,#568,.T.);
#750=ORIENTED_EDGE('',*,*,#569,.F.);
#751=ORIENTED_EDGE('',*,*,#547,.F.);
#752=ORIENTED_EDGE('',*,*,#504,.F.);
#753=ORIENTED_EDGE('',*,*,#549,.T.);
#754=ORIENTED_EDGE('',*,*,#570,.F.);
#755=ORIENTED_EDGE('',*,*,#571,.F.);
#756=ORIENTED_EDGE('',*,*,#570,.T.);
#757=ORIENTED_EDGE('',*,*,#548,.T.);
#758=ORIENTED_EDGE('',*,*,#569,.T.);
#759=ORIENTED_EDGE('',*,*,#572,.T.);
#760=ORIENTED_EDGE('',*,*,#540,.F.);
#761=ORIENTED_EDGE('',*,*,#573,.F.);
#762=ORIENTED_EDGE('',*,*,#545,.F.);
#763=ORIENTED_EDGE('',*,*,#485,.F.);
#764=ORIENTED_EDGE('',*,*,#574,.T.);
#765=ORIENTED_EDGE('',*,*,#541,.T.);
#766=ORIENTED_EDGE('',*,*,#482,.F.);
#767=ORIENTED_EDGE('',*,*,#575,.F.);
#768=ORIENTED_EDGE('',*,*,#576,.T.);
#769=ORIENTED_EDGE('',*,*,#575,.T.);
#770=ORIENTED_EDGE('',*,*,#481,.F.);
#771=ORIENTED_EDGE('',*,*,#577,.F.);
#772=ORIENTED_EDGE('',*,*,#578,.F.);
#773=ORIENTED_EDGE('',*,*,#577,.T.);
#774=ORIENTED_EDGE('',*,*,#480,.F.);
#775=ORIENTED_EDGE('',*,*,#579,.F.);
#776=ORIENTED_EDGE('',*,*,#580,.F.);
#777=ORIENTED_EDGE('',*,*,#579,.T.);
#778=ORIENTED_EDGE('',*,*,#479,.F.);
#779=ORIENTED_EDGE('',*,*,#581,.F.);
#780=ORIENTED_EDGE('',*,*,#496,.F.);
#781=ORIENTED_EDGE('',*,*,#582,.T.);
#782=ORIENTED_EDGE('',*,*,#581,.T.);
#783=ORIENTED_EDGE('',*,*,#478,.F.);
#784=ORIENTED_EDGE('',*,*,#462,.T.);
#785=ORIENTED_EDGE('',*,*,#505,.T.);
#786=ORIENTED_EDGE('',*,*,#571,.T.);
#787=ORIENTED_EDGE('',*,*,#572,.F.);
#788=ORIENTED_EDGE('',*,*,#568,.F.);
#789=ORIENTED_EDGE('',*,*,#583,.T.);
#790=ORIENTED_EDGE('',*,*,#560,.F.);
#791=ORIENTED_EDGE('',*,*,#489,.F.);
#792=ORIENTED_EDGE('',*,*,#565,.T.);
#793=ORIENTED_EDGE('',*,*,#566,.F.);
#794=ORIENTED_EDGE('',*,*,#562,.F.);
#795=ORIENTED_EDGE('',*,*,#529,.T.);
#796=ORIENTED_EDGE('',*,*,#537,.F.);
#797=ORIENTED_EDGE('',*,*,#515,.F.);
#798=ORIENTED_EDGE('',*,*,#512,.T.);
#799=ORIENTED_EDGE('',*,*,#523,.F.);
#800=ORIENTED_EDGE('',*,*,#527,.F.);
#801=ORIENTED_EDGE('',*,*,#514,.F.);
#802=ORIENTED_EDGE('',*,*,#536,.F.);
#803=ORIENTED_EDGE('',*,*,#584,.F.);
#804=ORIENTED_EDGE('',*,*,#498,.T.);
#805=ORIENTED_EDGE('',*,*,#499,.T.);
#806=ORIENTED_EDGE('',*,*,#584,.T.);
#807=ORIENTED_EDGE('',*,*,#535,.F.);
#808=ORIENTED_EDGE('',*,*,#585,.F.);
#809=ORIENTED_EDGE('',*,*,#500,.T.);
#810=ORIENTED_EDGE('',*,*,#585,.T.);
#811=ORIENTED_EDGE('',*,*,#534,.F.);
#812=ORIENTED_EDGE('',*,*,#586,.F.);
#813=ORIENTED_EDGE('',*,*,#501,.F.);
#814=ORIENTED_EDGE('',*,*,#586,.T.);
#815=ORIENTED_EDGE('',*,*,#533,.F.);
#816=ORIENTED_EDGE('',*,*,#587,.F.);
#817=ORIENTED_EDGE('',*,*,#502,.F.);
#818=ORIENTED_EDGE('',*,*,#587,.T.);
#819=ORIENTED_EDGE('',*,*,#532,.F.);
#820=ORIENTED_EDGE('',*,*,#588,.F.);
#821=ORIENTED_EDGE('',*,*,#503,.F.);
#822=ORIENTED_EDGE('',*,*,#588,.T.);
#823=ORIENTED_EDGE('',*,*,#531,.F.);
#824=ORIENTED_EDGE('',*,*,#550,.F.);
#825=ORIENTED_EDGE('',*,*,#495,.F.);
#826=ORIENTED_EDGE('',*,*,#557,.F.);
#827=ORIENTED_EDGE('',*,*,#554,.F.);
#828=ORIENTED_EDGE('',*,*,#561,.F.);
#829=ORIENTED_EDGE('',*,*,#558,.F.);
#830=ORIENTED_EDGE('',*,*,#583,.F.);
#831=ORIENTED_EDGE('',*,*,#567,.T.);
#832=ORIENTED_EDGE('',*,*,#546,.T.);
#833=ORIENTED_EDGE('',*,*,#543,.F.);
#834=ORIENTED_EDGE('',*,*,#573,.T.);
#835=ORIENTED_EDGE('',*,*,#539,.F.);
#836=ORIENTED_EDGE('',*,*,#542,.F.);
#837=ORIENTED_EDGE('',*,*,#574,.F.);
#838=ORIENTED_EDGE('',*,*,#576,.F.);
#839=ORIENTED_EDGE('',*,*,#578,.T.);
#840=ORIENTED_EDGE('',*,*,#580,.T.);
#841=ORIENTED_EDGE('',*,*,#582,.F.);
#842=ORIENTED_EDGE('',*,*,#474,.T.);
#843=CYLINDRICAL_SURFACE('',#924,1.75);
#844=CYLINDRICAL_SURFACE('',#928,1.75);
#845=CYLINDRICAL_SURFACE('',#932,1.75);
#846=CYLINDRICAL_SURFACE('',#936,1.75);
#847=CYLINDRICAL_SURFACE('',#940,1.75);
#848=CYLINDRICAL_SURFACE('',#951,1.5);
#849=CYLINDRICAL_SURFACE('',#960,1.5);
#850=CYLINDRICAL_SURFACE('',#962,2.5);
#851=CYLINDRICAL_SURFACE('',#965,3.);
#852=CYLINDRICAL_SURFACE('',#967,4.75);
#853=CYLINDRICAL_SURFACE('',#969,3.);
#854=CYLINDRICAL_SURFACE('',#973,3.);
#855=CYLINDRICAL_SURFACE('',#974,1.5);
#856=CYLINDRICAL_SURFACE('',#977,2.5);
#857=CYLINDRICAL_SURFACE('',#980,2.);
#858=CYLINDRICAL_SURFACE('',#983,2.);
#859=CYLINDRICAL_SURFACE('',#985,4.75);
#860=ADVANCED_FACE('',(#53),#843,.F.);
#861=ADVANCED_FACE('',(#54),#20,.T.);
#862=ADVANCED_FACE('',(#55),#844,.F.);
#863=ADVANCED_FACE('',(#56),#21,.T.);
#864=ADVANCED_FACE('',(#57),#845,.F.);
#865=ADVANCED_FACE('',(#58),#22,.T.);
#866=ADVANCED_FACE('',(#59),#846,.F.);
#867=ADVANCED_FACE('',(#60),#23,.F.);
#868=ADVANCED_FACE('',(#61),#847,.F.);
#869=ADVANCED_FACE('',(#62),#24,.F.);
#870=ADVANCED_FACE('',(#63,#15),#25,.T.);
#871=ADVANCED_FACE('',(#64),#848,.T.);
#872=ADVANCED_FACE('',(#65,#16),#26,.F.);
#873=ADVANCED_FACE('',(#66),#849,.T.);
#874=ADVANCED_FACE('',(#67),#850,.F.);
#875=ADVANCED_FACE('',(#68),#27,.T.);
#876=ADVANCED_FACE('',(#69),#851,.F.);
#877=ADVANCED_FACE('',(#70),#852,.T.);
#878=ADVANCED_FACE('',(#71),#853,.T.);
#879=ADVANCED_FACE('',(#72,#17),#28,.T.);
#880=ADVANCED_FACE('',(#73),#854,.F.);
#881=ADVANCED_FACE('',(#74),#855,.T.);
#882=ADVANCED_FACE('',(#75),#29,.T.);
#883=ADVANCED_FACE('',(#76),#856,.F.);
#884=ADVANCED_FACE('',(#77),#30,.T.);
#885=ADVANCED_FACE('',(#78),#857,.F.);
#886=ADVANCED_FACE('',(#79),#31,.T.);
#887=ADVANCED_FACE('',(#80),#858,.F.);
#888=ADVANCED_FACE('',(#81),#859,.T.);
#889=ADVANCED_FACE('',(#82),#32,.T.);
#890=ADVANCED_FACE('',(#83),#33,.T.);
#891=ADVANCED_FACE('',(#84),#34,.T.);
#892=ADVANCED_FACE('',(#85),#35,.T.);
#893=ADVANCED_FACE('',(#86),#36,.T.);
#894=ADVANCED_FACE('',(#87),#37,.T.);
#895=ADVANCED_FACE('',(#88),#38,.T.);
#896=ADVANCED_FACE('',(#89),#39,.T.);
#897=ADVANCED_FACE('',(#90),#40,.T.);
#898=ADVANCED_FACE('',(#91),#41,.T.);
#899=ADVANCED_FACE('',(#92),#42,.T.);
#900=ADVANCED_FACE('',(#93,#18),#43,.T.);
#901=ADVANCED_FACE('',(#94),#44,.T.);
#902=ADVANCED_FACE('',(#95),#45,.T.);
#903=ADVANCED_FACE('',(#96),#46,.T.);
#904=ADVANCED_FACE('',(#97),#47,.T.);
#905=ADVANCED_FACE('',(#98),#48,.T.);
#906=ADVANCED_FACE('',(#99),#49,.T.);
#907=ADVANCED_FACE('',(#100),#50,.T.);
#908=ADVANCED_FACE('',(#101),#51,.T.);
#909=ADVANCED_FACE('',(#102,#19),#52,.F.);
#910=CLOSED_SHELL('',(#860,#861,#862,#863,#864,#865,#866,#867,#868,#869,
#870,#871,#872,#873,#874,#875,#876,#877,#878,#879,#880,#881,#882,#883,#884,
#885,#886,#887,#888,#889,#890,#891,#892,#893,#894,#895,#896,#897,#898,#899,
#900,#901,#902,#903,#904,#905,#906,#907,#908,#909));
#911=DERIVED_UNIT_ELEMENT(#913,1.);
#912=DERIVED_UNIT_ELEMENT(#1538,-3.);
#913=(
MASS_UNIT()
NAMED_UNIT(*)
SI_UNIT(.KILO.,.GRAM.)
);
#914=DERIVED_UNIT((#911,#912));
#915=MEASURE_REPRESENTATION_ITEM('density measure',
POSITIVE_RATIO_MEASURE(7850.),#914);
#916=PROPERTY_DEFINITION_REPRESENTATION(#921,#918);
#917=PROPERTY_DEFINITION_REPRESENTATION(#922,#919);
#918=REPRESENTATION('material name',(#920),#1535);
#919=REPRESENTATION('density',(#915),#1535);
#920=DESCRIPTIVE_REPRESENTATION_ITEM('Steel','Steel');
#921=PROPERTY_DEFINITION('material property','material name',#1545);
#922=PROPERTY_DEFINITION('material property','density of part',#1545);
#923=AXIS2_PLACEMENT_3D('',#1271,#1008,#1009);
#924=AXIS2_PLACEMENT_3D('',#1272,#1010,#1011);
#925=AXIS2_PLACEMENT_3D('',#1274,#1012,#1013);
#926=AXIS2_PLACEMENT_3D('',#1277,#1015,#1016);
#927=AXIS2_PLACEMENT_3D('',#1278,#1017,#1018);
#928=AXIS2_PLACEMENT_3D('',#1279,#1019,#1020);
#929=AXIS2_PLACEMENT_3D('',#1281,#1021,#1022);
#930=AXIS2_PLACEMENT_3D('',#1284,#1024,#1025);
#931=AXIS2_PLACEMENT_3D('',#1285,#1026,#1027);
#932=AXIS2_PLACEMENT_3D('',#1286,#1028,#1029);
#933=AXIS2_PLACEMENT_3D('',#1288,#1030,#1031);
#934=AXIS2_PLACEMENT_3D('',#1291,#1033,#1034);
#935=AXIS2_PLACEMENT_3D('',#1292,#1035,#1036);
#936=AXIS2_PLACEMENT_3D('',#1293,#1037,#1038);
#937=AXIS2_PLACEMENT_3D('',#1295,#1039,#1040);
#938=AXIS2_PLACEMENT_3D('',#1298,#1042,#1043);
#939=AXIS2_PLACEMENT_3D('',#1299,#1044,#1045);
#940=AXIS2_PLACEMENT_3D('',#1300,#1046,#1047);
#941=AXIS2_PLACEMENT_3D('',#1302,#1048,#1049);
#942=AXIS2_PLACEMENT_3D('',#1305,#1051,#1052);
#943=AXIS2_PLACEMENT_3D('',#1306,#1053,#1054);
#944=AXIS2_PLACEMENT_3D('',#1307,#1055,#1056);
#945=AXIS2_PLACEMENT_3D('',#1310,#1057,#1058);
#946=AXIS2_PLACEMENT_3D('',#1324,#1065,#1066);
#947=AXIS2_PLACEMENT_3D('',#1328,#1068,#1069);
#948=AXIS2_PLACEMENT_3D('',#1336,#1073,#1074);
#949=AXIS2_PLACEMENT_3D('',#1338,#1075,#1076);
#950=AXIS2_PLACEMENT_3D('',#1340,#1077,#1078);
#951=AXIS2_PLACEMENT_3D('',#1342,#1080,#1081);
#952=AXIS2_PLACEMENT_3D('',#1346,#1083,#1084);
#953=AXIS2_PLACEMENT_3D('',#1348,#1086,#1087);
#954=AXIS2_PLACEMENT_3D('',#1351,#1088,#1089);
#955=AXIS2_PLACEMENT_3D('',#1369,#1098,#1099);
#956=AXIS2_PLACEMENT_3D('',#1371,#1100,#1101);
#957=AXIS2_PLACEMENT_3D('',#1375,#1103,#1104);
#958=AXIS2_PLACEMENT_3D('',#1377,#1105,#1106);
#959=AXIS2_PLACEMENT_3D('',#1379,#1107,#1108);
#960=AXIS2_PLACEMENT_3D('',#1381,#1110,#1111);
#961=AXIS2_PLACEMENT_3D('',#1384,#1112,#1113);
#962=AXIS2_PLACEMENT_3D('',#1387,#1116,#1117);
#963=AXIS2_PLACEMENT_3D('',#1391,#1119,#1120);
#964=AXIS2_PLACEMENT_3D('',#1393,#1122,#1123);
#965=AXIS2_PLACEMENT_3D('',#1397,#1126,#1127);
#966=AXIS2_PLACEMENT_3D('',#1401,#1129,#1130);
#967=AXIS2_PLACEMENT_3D('',#1403,#1132,#1133);
#968=AXIS2_PLACEMENT_3D('',#1404,#1134,#1135);
#969=AXIS2_PLACEMENT_3D('',#1405,#1136,#1137);
#970=AXIS2_PLACEMENT_3D('',#1407,#1138,#1139);
#971=AXIS2_PLACEMENT_3D('',#1409,#1141,#1142);
#972=AXIS2_PLACEMENT_3D('',#1412,#1144,#1145);
#973=AXIS2_PLACEMENT_3D('',#1428,#1154,#1155);
#974=AXIS2_PLACEMENT_3D('',#1430,#1157,#1158);
#975=AXIS2_PLACEMENT_3D('',#1434,#1160,#1161);
#976=AXIS2_PLACEMENT_3D('',#1436,#1163,#1164);
#977=AXIS2_PLACEMENT_3D('',#1440,#1167,#1168);
#978=AXIS2_PLACEMENT_3D('',#1443,#1169,#1170);
#979=AXIS2_PLACEMENT_3D('',#1446,#1173,#1174);
#980=AXIS2_PLACEMENT_3D('',#1460,#1183,#1184);
#981=AXIS2_PLACEMENT_3D('',#1463,#1185,#1186);
#982=AXIS2_PLACEMENT_3D('',#1466,#1189,#1190);
#983=AXIS2_PLACEMENT_3D('',#1468,#1192,#1193);
#984=AXIS2_PLACEMENT_3D('',#1471,#1194,#1195);
#985=AXIS2_PLACEMENT_3D('',#1474,#1198,#1199);
#986=AXIS2_PLACEMENT_3D('',#1475,#1200,#1201);
#987=AXIS2_PLACEMENT_3D('',#1476,#1202,#1203);
#988=AXIS2_PLACEMENT_3D('',#1480,#1206,#1207);
#989=AXIS2_PLACEMENT_3D('',#1484,#1210,#1211);
#990=AXIS2_PLACEMENT_3D('',#1486,#1213,#1214);
#991=AXIS2_PLACEMENT_3D('',#1492,#1218,#1219);
#992=AXIS2_PLACEMENT_3D('',#1496,#1222,#1223);
#993=AXIS2_PLACEMENT_3D('',#1498,#1225,#1226);
#994=AXIS2_PLACEMENT_3D('',#1500,#1228,#1229);
#995=AXIS2_PLACEMENT_3D('',#1504,#1232,#1233);
#996=AXIS2_PLACEMENT_3D('',#1508,#1236,#1237);
#997=AXIS2_PLACEMENT_3D('',#1512,#1240,#1241);
#998=AXIS2_PLACEMENT_3D('',#1516,#1244,#1245);
#999=AXIS2_PLACEMENT_3D('',#1518,#1247,#1248);
#1000=AXIS2_PLACEMENT_3D('',#1520,#1250,#1251);
#1001=AXIS2_PLACEMENT_3D('',#1521,#1252,#1253);
#1002=AXIS2_PLACEMENT_3D('',#1523,#1255,#1256);
#1003=AXIS2_PLACEMENT_3D('',#1525,#1258,#1259);
#1004=AXIS2_PLACEMENT_3D('',#1527,#1261,#1262);
#1005=AXIS2_PLACEMENT_3D('',#1529,#1264,#1265);
#1006=AXIS2_PLACEMENT_3D('',#1531,#1267,#1268);
#1007=AXIS2_PLACEMENT_3D('',#1532,#1269,#1270);
#1008=DIRECTION('axis',(0.,0.,1.));
#1009=DIRECTION('refdir',(1.,0.,0.));
#1010=DIRECTION('center_axis',(-1.,0.,0.));
#1011=DIRECTION('ref_axis',(0.,1.,0.));
#1012=DIRECTION('center_axis',(-1.,0.,0.));
#1013=DIRECTION('ref_axis',(0.,1.,0.));
#1014=DIRECTION('',(-1.,0.,0.));
#1015=DIRECTION('center_axis',(-1.,0.,0.));
#1016=DIRECTION('ref_axis',(0.,1.,0.));
#1017=DIRECTION('center_axis',(1.,0.,0.));
#1018=DIRECTION('ref_axis',(0.,1.,0.));
#1019=DIRECTION('center_axis',(0.,0.,-1.));
#1020=DIRECTION('ref_axis',(1.,0.,0.));
#1021=DIRECTION('center_axis',(0.,0.,-1.));
#1022=DIRECTION('ref_axis',(1.,0.,0.));
#1023=DIRECTION('',(0.,0.,-1.));
#1024=DIRECTION('center_axis',(0.,0.,-1.));
#1025=DIRECTION('ref_axis',(1.,0.,0.));
#1026=DIRECTION('center_axis',(0.,0.,1.));
#1027=DIRECTION('ref_axis',(1.,0.,0.));
#1028=DIRECTION('center_axis',(0.,0.,-1.));
#1029=DIRECTION('ref_axis',(1.,0.,0.));
#1030=DIRECTION('center_axis',(0.,0.,-1.));
#1031=DIRECTION('ref_axis',(1.,0.,0.));
#1032=DIRECTION('',(0.,0.,-1.));
#1033=DIRECTION('center_axis',(0.,0.,-1.));
#1034=DIRECTION('ref_axis',(1.,0.,0.));
#1035=DIRECTION('center_axis',(0.,0.,1.));
#1036=DIRECTION('ref_axis',(1.,0.,0.));
#1037=DIRECTION('center_axis',(0.,0.,1.));
#1038=DIRECTION('ref_axis',(1.,0.,0.));
#1039=DIRECTION('center_axis',(0.,0.,1.));
#1040=DIRECTION('ref_axis',(1.,0.,0.));
#1041=DIRECTION('',(0.,0.,1.));
#1042=DIRECTION('center_axis',(0.,0.,1.));
#1043=DIRECTION('ref_axis',(1.,0.,0.));
#1044=DIRECTION('center_axis',(0.,0.,1.));
#1045=DIRECTION('ref_axis',(1.,0.,0.));
#1046=DIRECTION('center_axis',(0.,0.,1.));
#1047=DIRECTION('ref_axis',(1.,0.,0.));
#1048=DIRECTION('center_axis',(0.,0.,1.));
#1049=DIRECTION('ref_axis',(1.,0.,0.));
#1050=DIRECTION('',(0.,0.,1.));
#1051=DIRECTION('center_axis',(0.,0.,1.));
#1052=DIRECTION('ref_axis',(1.,0.,0.));
#1053=DIRECTION('center_axis',(0.,0.,1.));
#1054=DIRECTION('ref_axis',(1.,0.,0.));
#1055=DIRECTION('center_axis',(0.,0.,1.));
#1056=DIRECTION('ref_axis',(1.,0.,0.));
#1057=DIRECTION('center_axis',(0.,0.,-1.));
#1058=DIRECTION('ref_axis',(0.707106781186547,-0.707106781186548,0.));
#1059=DIRECTION('',(0.,1.,0.));
#1060=DIRECTION('',(1.,0.,0.));
#1061=DIRECTION('',(0.,-1.,0.));
#1062=DIRECTION('',(-1.,0.,0.));
#1063=DIRECTION('',(0.,1.,0.));
#1064=DIRECTION('',(-1.,0.,0.));
#1065=DIRECTION('center_axis',(0.,0.,-1.));
#1066=DIRECTION('ref_axis',(-0.707106781186548,0.707106781186548,0.));
#1067=DIRECTION('',(0.,-1.,0.));
#1068=DIRECTION('center_axis',(0.,0.,1.));
#1069=DIRECTION('ref_axis',(0.707106781186547,-0.707106781186547,0.));
#1070=DIRECTION('',(-1.,0.,0.));
#1071=DIRECTION('',(7.40148683083438E-16,-1.,0.));
#1072=DIRECTION('',(1.,0.,0.));
#1073=DIRECTION('center_axis',(0.,0.,1.));
#1074=DIRECTION('ref_axis',(0.693888666488711,0.720082299823096,0.));
#1075=DIRECTION('center_axis',(0.,0.,1.));
#1076=DIRECTION('ref_axis',(1.,0.,0.));
#1077=DIRECTION('center_axis',(0.,0.,1.));
#1078=DIRECTION('ref_axis',(0.720082299823095,0.693888666488711,0.));
#1079=DIRECTION('',(0.,-1.,0.));
#1080=DIRECTION('center_axis',(0.,0.,1.));
#1081=DIRECTION('ref_axis',(0.707106781186547,-0.707106781186548,0.));
#1082=DIRECTION('',(0.,0.,-1.));
#1083=DIRECTION('center_axis',(0.,0.,1.));
#1084=DIRECTION('ref_axis',(0.707106781186547,-0.707106781186548,0.));
#1085=DIRECTION('',(0.,0.,1.));
#1086=DIRECTION('center_axis',(0.,0.,1.));
#1087=DIRECTION('ref_axis',(1.,0.,0.));
#1088=DIRECTION('center_axis',(0.,0.,1.));
#1089=DIRECTION('ref_axis',(-0.707106781186548,-0.707106781186547,0.));
#1090=DIRECTION('',(-1.,0.,0.));
#1091=DIRECTION('',(0.,-1.,0.));
#1092=DIRECTION('',(1.,0.,0.));
#1093=DIRECTION('',(0.,1.,0.));
#1094=DIRECTION('',(1.,-9.25185853854298E-17,0.));
#1095=DIRECTION('',(0.,-1.,0.));
#1096=DIRECTION('',(0.,-1.,0.));
#1097=DIRECTION('',(-1.,0.,0.));
#1098=DIRECTION('center_axis',(0.,0.,-1.));
#1099=DIRECTION('ref_axis',(-0.991071249821234,0.133333333333333,0.));
#1100=DIRECTION('center_axis',(0.,0.,1.));
#1101=DIRECTION('ref_axis',(0.465474668125632,-0.885061203156783,0.));
#1102=DIRECTION('',(1.,0.,0.));
#1103=DIRECTION('center_axis',(0.,0.,-1.));
#1104=DIRECTION('ref_axis',(-0.491303684440517,0.870988340711386,0.));
#1105=DIRECTION('center_axis',(0.,0.,1.));
#1106=DIRECTION('ref_axis',(1.,0.,0.));
#1107=DIRECTION('center_axis',(0.,0.,-1.));
#1108=DIRECTION('ref_axis',(0.647576125802734,0.762000762001142,0.));
#1109=DIRECTION('',(1.,0.,0.));
#1110=DIRECTION('center_axis',(0.,0.,1.));
#1111=DIRECTION('ref_axis',(-0.707106781186548,0.707106781186547,0.));
#1112=DIRECTION('center_axis',(0.,0.,-1.));
#1113=DIRECTION('ref_axis',(-0.707106781186548,-0.707106781186547,0.));
#1114=DIRECTION('',(0.,0.,-1.));
#1115=DIRECTION('',(0.,0.,1.));
#1116=DIRECTION('center_axis',(0.,0.,1.));
#1117=DIRECTION('ref_axis',(-0.491303684440517,0.870988340711386,0.));
#1118=DIRECTION('',(0.,0.,1.));
#1119=DIRECTION('center_axis',(0.,0.,1.));
#1120=DIRECTION('ref_axis',(-0.491303684440517,0.870988340711386,0.));
#1121=DIRECTION('',(0.,0.,-1.));
#1122=DIRECTION('center_axis',(0.,-1.,0.));
#1123=DIRECTION('ref_axis',(1.,0.,0.));
#1124=DIRECTION('',(0.,0.,-1.));
#1125=DIRECTION('',(1.,0.,0.));
#1126=DIRECTION('center_axis',(0.,0.,1.));
#1127=DIRECTION('ref_axis',(0.647576125802734,0.762000762001142,0.));
#1128=DIRECTION('',(0.,0.,1.));
#1129=DIRECTION('center_axis',(0.,0.,1.));
#1130=DIRECTION('ref_axis',(0.647576125802734,0.762000762001142,0.));
#1131=DIRECTION('',(0.,0.,-1.));
#1132=DIRECTION('center_axis',(0.,0.,1.));
#1133=DIRECTION('ref_axis',(1.,0.,0.));
#1134=DIRECTION('center_axis',(0.,0.,1.));
#1135=DIRECTION('ref_axis',(1.,0.,0.));
#1136=DIRECTION('center_axis',(0.,0.,1.));
#1137=DIRECTION('ref_axis',(0.465474668125632,-0.885061203156783,0.));
#1138=DIRECTION('center_axis',(0.,0.,-1.));
#1139=DIRECTION('ref_axis',(0.465474668125632,-0.885061203156783,0.));
#1140=DIRECTION('',(0.,0.,1.));
#1141=DIRECTION('center_axis',(0.,0.,1.));
#1142=DIRECTION('ref_axis',(1.,0.,0.));
#1143=DIRECTION('',(1.,0.,0.));
#1144=DIRECTION('center_axis',(0.,0.,1.));
#1145=DIRECTION('ref_axis',(-0.991071249821234,0.133333333333333,0.));
#1146=DIRECTION('',(1.,0.,0.));
#1147=DIRECTION('',(0.,1.,0.));
#1148=DIRECTION('',(0.,1.,0.));
#1149=DIRECTION('',(-1.,9.25185853854298E-17,0.));
#1150=DIRECTION('',(0.,1.,0.));
#1151=DIRECTION('',(1.,0.,0.));
#1152=DIRECTION('',(0.,-1.,0.));
#1153=DIRECTION('',(-1.,0.,0.));
#1154=DIRECTION('center_axis',(0.,0.,-1.));
#1155=DIRECTION('ref_axis',(-0.991071249821234,0.133333333333333,0.));
#1156=DIRECTION('',(0.,0.,1.));
#1157=DIRECTION('center_axis',(0.,0.,1.));
#1158=DIRECTION('ref_axis',(-0.707106781186548,0.707106781186548,0.));
#1159=DIRECTION('',(0.,0.,-1.));
#1160=DIRECTION('center_axis',(0.,0.,1.));
#1161=DIRECTION('ref_axis',(-0.707106781186548,0.707106781186548,0.));
#1162=DIRECTION('',(0.,0.,1.));
#1163=DIRECTION('center_axis',(0.,1.,0.));
#1164=DIRECTION('ref_axis',(-1.,0.,0.));
#1165=DIRECTION('',(0.,0.,1.));
#1166=DIRECTION('',(-1.,0.,0.));
#1167=DIRECTION('center_axis',(0.,0.,1.));
#1168=DIRECTION('ref_axis',(0.707106781186547,-0.707106781186547,0.));
#1169=DIRECTION('center_axis',(0.,0.,-1.));
#1170=DIRECTION('ref_axis',(0.707106781186547,-0.707106781186547,0.));
#1171=DIRECTION('',(0.,0.,1.));
#1172=DIRECTION('',(0.,0.,-1.));
#1173=DIRECTION('center_axis',(0.,1.,0.));
#1174=DIRECTION('ref_axis',(-1.,0.,0.));
#1175=DIRECTION('',(1.,0.,0.));
#1176=DIRECTION('',(0.,0.,-1.));
#1177=DIRECTION('',(1.,0.,0.));
#1178=DIRECTION('',(0.,0.,-1.));
#1179=DIRECTION('',(0.,0.,1.));
#1180=DIRECTION('',(0.,0.,1.));
#1181=DIRECTION('',(-1.,0.,0.));
#1182=DIRECTION('',(0.,0.,1.));
#1183=DIRECTION('center_axis',(0.,0.,1.));
#1184=DIRECTION('ref_axis',(0.720082299823095,0.693888666488711,0.));
#1185=DIRECTION('center_axis',(0.,0.,-1.));
#1186=DIRECTION('ref_axis',(0.720082299823095,0.693888666488711,0.));
#1187=DIRECTION('',(0.,0.,1.));
#1188=DIRECTION('',(0.,0.,-1.));
#1189=DIRECTION('center_axis',(-1.,0.,0.));
#1190=DIRECTION('ref_axis',(0.,-1.,0.));
#1191=DIRECTION('',(0.,-1.,0.));
#1192=DIRECTION('center_axis',(0.,0.,1.));
#1193=DIRECTION('ref_axis',(0.693888666488711,0.720082299823096,0.));
#1194=DIRECTION('center_axis',(0.,0.,-1.));
#1195=DIRECTION('ref_axis',(0.693888666488711,0.720082299823096,0.));
#1196=DIRECTION('',(0.,0.,1.));
#1197=DIRECTION('',(0.,0.,-1.));
#1198=DIRECTION('center_axis',(0.,0.,1.));
#1199=DIRECTION('ref_axis',(1.,0.,0.));
#1200=DIRECTION('center_axis',(0.,0.,1.));
#1201=DIRECTION('ref_axis',(1.,0.,0.));
#1202=DIRECTION('center_axis',(-1.,0.,0.));
#1203=DIRECTION('ref_axis',(0.,-1.,0.));
#1204=DIRECTION('',(0.,0.,1.));
#1205=DIRECTION('',(0.,-1.,0.));
#1206=DIRECTION('center_axis',(1.,7.40148683083438E-16,0.));
#1207=DIRECTION('ref_axis',(-7.40148683083438E-16,1.,0.));
#1208=DIRECTION('',(-7.40148683083438E-16,1.,0.));
#1209=DIRECTION('',(0.,0.,1.));
#1210=DIRECTION('center_axis',(0.,0.,1.));
#1211=DIRECTION('ref_axis',(1.,0.,0.));
#1212=DIRECTION('',(1.,0.,0.));
#1213=DIRECTION('center_axis',(1.,7.40148683083438E-16,0.));
#1214=DIRECTION('ref_axis',(7.40148683083438E-16,-1.,0.));
#1215=DIRECTION('',(-7.40148683083438E-16,1.,0.));
#1216=DIRECTION('',(0.,0.,-1.));
#1217=DIRECTION('',(7.40148683083438E-16,-1.,0.));
#1218=DIRECTION('center_axis',(-1.,0.,0.));
#1219=DIRECTION('ref_axis',(0.,1.,0.));
#1220=DIRECTION('',(0.,1.,0.));
#1221=DIRECTION('',(0.,0.,-1.));
#1222=DIRECTION('center_axis',(0.,0.,-1.));
#1223=DIRECTION('ref_axis',(-1.,0.,0.));
#1224=DIRECTION('',(-1.,0.,0.));
#1225=DIRECTION('center_axis',(-1.,0.,0.));
#1226=DIRECTION('ref_axis',(0.,-1.,0.));
#1227=DIRECTION('',(0.,1.,0.));
#1228=DIRECTION('center_axis',(1.,0.,0.));
#1229=DIRECTION('ref_axis',(0.,1.,0.));
#1230=DIRECTION('',(0.,1.,0.));
#1231=DIRECTION('',(0.,0.,1.));
#1232=DIRECTION('center_axis',(0.,-1.,0.));
#1233=DIRECTION('ref_axis',(1.,0.,0.));
#1234=DIRECTION('',(-1.,0.,0.));
#1235=DIRECTION('',(0.,0.,1.));
#1236=DIRECTION('center_axis',(1.,0.,0.));
#1237=DIRECTION('ref_axis',(0.,1.,0.));
#1238=DIRECTION('',(0.,-1.,0.));
#1239=DIRECTION('',(0.,0.,1.));
#1240=DIRECTION('center_axis',(0.,1.,0.));
#1241=DIRECTION('ref_axis',(-1.,0.,0.));
#1242=DIRECTION('',(1.,0.,0.));
#1243=DIRECTION('',(0.,0.,-1.));
#1244=DIRECTION('center_axis',(1.,0.,0.));
#1245=DIRECTION('ref_axis',(0.,1.,0.));
#1246=DIRECTION('',(0.,1.,0.));
#1247=DIRECTION('center_axis',(0.,-1.,0.));
#1248=DIRECTION('ref_axis',(1.,0.,0.));
#1249=DIRECTION('',(1.,0.,0.));
#1250=DIRECTION('center_axis',(0.,-1.,0.));
#1251=DIRECTION('ref_axis',(1.,0.,0.));
#1252=DIRECTION('center_axis',(0.,1.,0.));
#1253=DIRECTION('ref_axis',(-1.,0.,0.));
#1254=DIRECTION('',(0.,0.,1.));
#1255=DIRECTION('center_axis',(1.,0.,0.));
#1256=DIRECTION('ref_axis',(0.,1.,0.));
#1257=DIRECTION('',(0.,0.,1.));
#1258=DIRECTION('center_axis',(0.,1.,0.));
#1259=DIRECTION('ref_axis',(-1.,0.,0.));
#1260=DIRECTION('',(0.,0.,1.));
#1261=DIRECTION('center_axis',(-1.,0.,0.));
#1262=DIRECTION('ref_axis',(0.,-1.,0.));
#1263=DIRECTION('',(0.,0.,-1.));
#1264=DIRECTION('center_axis',(9.25185853854298E-17,1.,0.));
#1265=DIRECTION('ref_axis',(-1.,9.25185853854298E-17,0.));
#1266=DIRECTION('',(0.,0.,1.));
#1267=DIRECTION('center_axis',(1.,0.,0.));
#1268=DIRECTION('ref_axis',(0.,1.,0.));
#1269=DIRECTION('center_axis',(0.,0.,1.));
#1270=DIRECTION('ref_axis',(1.,0.,0.));
#1271=CARTESIAN_POINT('',(0.,0.,0.));
#1272=CARTESIAN_POINT('Origin',(3.,-5.7,47.));
#1273=CARTESIAN_POINT('',(3.,-7.45,47.));
#1274=CARTESIAN_POINT('Origin',(3.,-5.7,47.));
#1275=CARTESIAN_POINT('',(-1.,-7.45,47.));
#1276=CARTESIAN_POINT('',(3.,-7.45,47.));
#1277=CARTESIAN_POINT('Origin',(-1.,-5.7,47.));
#1278=CARTESIAN_POINT('Origin',(-1.,-5.7,47.));
#1279=CARTESIAN_POINT('Origin',(-32.15,-5.85,72.));
#1280=CARTESIAN_POINT('',(-33.9,-5.85,72.));
#1281=CARTESIAN_POINT('Origin',(-32.15,-5.85,72.));
#1282=CARTESIAN_POINT('',(-33.9,-5.85,66.));
#1283=CARTESIAN_POINT('',(-33.9,-5.85,72.));
#1284=CARTESIAN_POINT('Origin',(-32.15,-5.85,66.));
#1285=CARTESIAN_POINT('Origin',(-32.15,-5.85,66.));
#1286=CARTESIAN_POINT('Origin',(-1.75,-6.25,72.));
#1287=CARTESIAN_POINT('',(-3.5,-6.25,72.));
#1288=CARTESIAN_POINT('Origin',(-1.75,-6.25,72.));
#1289=CARTESIAN_POINT('',(-3.5,-6.25,66.));
#1290=CARTESIAN_POINT('',(-3.5,-6.25,72.));
#1291=CARTESIAN_POINT('Origin',(-1.75,-6.25,66.));
#1292=CARTESIAN_POINT('Origin',(-1.75,-6.25,66.));
#1293=CARTESIAN_POINT('Origin',(-32.15,-5.85,0.));
#1294=CARTESIAN_POINT('',(-33.9,-5.85,0.));
#1295=CARTESIAN_POINT('Origin',(-32.15,-5.85,0.));
#1296=CARTESIAN_POINT('',(-33.9,-5.85,6.));
#1297=CARTESIAN_POINT('',(-33.9,-5.85,0.));
#1298=CARTESIAN_POINT('Origin',(-32.15,-5.85,6.));
#1299=CARTESIAN_POINT('Origin',(-32.15,-5.85,6.));
#1300=CARTESIAN_POINT('Origin',(-1.75,-6.25,0.));
#1301=CARTESIAN_POINT('',(-3.5,-6.25,0.));
#1302=CARTESIAN_POINT('Origin',(-1.75,-6.25,0.));
#1303=CARTESIAN_POINT('',(-3.5,-6.25,6.));
#1304=CARTESIAN_POINT('',(-3.5,-6.25,0.));
#1305=CARTESIAN_POINT('Origin',(-1.75,-6.25,6.));
#1306=CARTESIAN_POINT('Origin',(-1.75,-6.25,6.));
#1307=CARTESIAN_POINT('Origin',(-19.7,-6.,72.));
#1308=CARTESIAN_POINT('',(3.,-15.,72.));
#1309=CARTESIAN_POINT('',(0.,-15.,72.));
#1310=CARTESIAN_POINT('Origin',(1.5,-15.,72.));
#1311=CARTESIAN_POINT('',(3.,-1.7,72.));
#1312=CARTESIAN_POINT('',(3.,-16.5,72.));
#1313=CARTESIAN_POINT('',(-0.2,-1.7,72.));
#1314=CARTESIAN_POINT('',(-8.35,-1.7,72.));
#1315=CARTESIAN_POINT('',(-0.2,1.7,72.));
#1316=CARTESIAN_POINT('',(-0.2,-3.75,72.));
#1317=CARTESIAN_POINT('',(3.,1.7,72.));
#1318=CARTESIAN_POINT('',(-9.85,1.7,72.));
#1319=CARTESIAN_POINT('',(3.,4.5,72.));
#1320=CARTESIAN_POINT('',(3.,1.5,72.));
#1321=CARTESIAN_POINT('',(-1.5,4.5,72.));
#1322=CARTESIAN_POINT('',(3.,4.5,72.));
#1323=CARTESIAN_POINT('',(-3.,3.,72.));
#1324=CARTESIAN_POINT('Origin',(-1.5,3.,72.));
#1325=CARTESIAN_POINT('',(-3.,1.,72.));
#1326=CARTESIAN_POINT('',(-3.,-4.5,72.));
#1327=CARTESIAN_POINT('',(-5.5,-1.5,72.));
#1328=CARTESIAN_POINT('Origin',(-5.5,1.,72.));
#1329=CARTESIAN_POINT('',(-11.4,-1.5,72.));
#1330=CARTESIAN_POINT('',(-21.4,-1.5,72.));
#1331=CARTESIAN_POINT('',(-11.4,-4.5,72.));
#1332=CARTESIAN_POINT('',(-11.4,-5.25,72.));
#1333=CARTESIAN_POINT('',(-8.49536878161602,-4.5,72.));
#1334=CARTESIAN_POINT('',(-21.4,-4.5,72.));
#1335=CARTESIAN_POINT('',(-6.49674099447053,-6.42592592592593,72.));
#1336=CARTESIAN_POINT('Origin',(-8.49536878161602,-6.5,72.));
#1337=CARTESIAN_POINT('',(-1.92592592592593,-10.9967409944705,72.));
#1338=CARTESIAN_POINT('Origin',(-1.75,-6.25,72.));
#1339=CARTESIAN_POINT('',(0.,-12.995368781616,72.));
#1340=CARTESIAN_POINT('Origin',(-2.,-12.995368781616,72.));
#1341=CARTESIAN_POINT('',(0.,-4.5,72.));
#1342=CARTESIAN_POINT('Origin',(1.5,-15.,0.));
#1343=CARTESIAN_POINT('',(0.,-15.,0.));
#1344=CARTESIAN_POINT('',(0.,-15.,0.));
#1345=CARTESIAN_POINT('',(3.,-15.,0.));
#1346=CARTESIAN_POINT('Origin',(1.5,-15.,0.));
#1347=CARTESIAN_POINT('',(3.,-15.,0.));
#1348=CARTESIAN_POINT('Origin',(-19.7,-6.,0.));
#1349=CARTESIAN_POINT('',(-40.9,-1.1,0.));
#1350=CARTESIAN_POINT('',(-40.9,-4.1,0.));
#1351=CARTESIAN_POINT('Origin',(-40.9,-2.6,0.));
#1352=CARTESIAN_POINT('',(-27.6,-1.1,0.));
#1353=CARTESIAN_POINT('',(-27.4,-1.1,0.));
#1354=CARTESIAN_POINT('',(-27.6,-4.3,0.));
#1355=CARTESIAN_POINT('',(-27.6,-5.05,0.));
#1356=CARTESIAN_POINT('',(-24.2,-4.3,0.));
#1357=CARTESIAN_POINT('',(-22.05,-4.3,0.));
#1358=CARTESIAN_POINT('',(-24.2,-1.1,0.));
#1359=CARTESIAN_POINT('',(-24.2,-3.55,0.));
#1360=CARTESIAN_POINT('',(-21.4,-1.1,0.));
#1361=CARTESIAN_POINT('',(-24.4,-1.1,0.));
#1362=CARTESIAN_POINT('',(-21.4,-1.5,0.));
#1363=CARTESIAN_POINT('',(-21.4,-1.1,0.));
#1364=CARTESIAN_POINT('',(-21.4,-4.5,0.));
#1365=CARTESIAN_POINT('',(-21.4,-5.25,0.));
#1366=CARTESIAN_POINT('',(-18.4267862505363,-4.5,0.));
#1367=CARTESIAN_POINT('',(-20.55,-4.5,0.));
#1368=CARTESIAN_POINT('',(-20.898627669398,-5.8,0.));
#1369=CARTESIAN_POINT('Origin',(-18.4267862505363,-7.5,0.));
#1370=CARTESIAN_POINT('',(-23.3704690882596,-7.1,0.));
#1371=CARTESIAN_POINT('Origin',(-23.3704690882596,-4.1,0.));
#1372=CARTESIAN_POINT('',(-25.9451631770046,-7.1,0.));
#1373=CARTESIAN_POINT('',(-30.4,-7.1,0.));
#1374=CARTESIAN_POINT('',(-28.0847620814858,-8.30689655172414,0.));
#1375=CARTESIAN_POINT('Origin',(-25.9451631770046,-9.6,0.));
#1376=CARTESIAN_POINT('',(-36.8378082624966,-6.61612903225806,0.));
#1377=CARTESIAN_POINT('Origin',(-32.15,-5.85,0.));
#1378=CARTESIAN_POINT('',(-39.7985292703892,-4.1,0.));
#1379=CARTESIAN_POINT('Origin',(-39.7985292703892,-7.1,0.));
#1380=CARTESIAN_POINT('',(-42.4,-4.1,0.));
#1381=CARTESIAN_POINT('Origin',(-40.9,-2.6,0.));
#1382=CARTESIAN_POINT('',(-40.9,-4.1,72.));
#1383=CARTESIAN_POINT('',(-40.9,-1.1,72.));
#1384=CARTESIAN_POINT('Origin',(-40.9,-2.6,72.));
#1385=CARTESIAN_POINT('',(-40.9,-1.1,0.));
#1386=CARTESIAN_POINT('',(-40.9,-4.1,0.));
#1387=CARTESIAN_POINT('Origin',(-25.9451631770046,-9.6,0.));
#1388=CARTESIAN_POINT('',(-25.9451631770046,-7.1,72.));
#1389=CARTESIAN_POINT('',(-25.9451631770046,-7.1,0.));
#1390=CARTESIAN_POINT('',(-28.0847620814858,-8.30689655172414,72.));
#1391=CARTESIAN_POINT('Origin',(-25.9451631770046,-9.6,72.));
#1392=CARTESIAN_POINT('',(-28.0847620814858,-8.30689655172414,0.));
#1393=CARTESIAN_POINT('Origin',(-27.5674243050442,-7.1,0.));
#1394=CARTESIAN_POINT('',(-23.3704690882596,-7.1,72.));
#1395=CARTESIAN_POINT('',(-23.3704690882596,-7.1,0.));
#1396=CARTESIAN_POINT('',(-30.4,-7.1,72.));
#1397=CARTESIAN_POINT('Origin',(-39.7985292703892,-7.1,0.));
#1398=CARTESIAN_POINT('',(-36.8378082624966,-6.61612903225806,72.));
#1399=CARTESIAN_POINT('',(-36.8378082624966,-6.61612903225806,0.));
#1400=CARTESIAN_POINT('',(-39.7985292703892,-4.1,72.));
#1401=CARTESIAN_POINT('Origin',(-39.7985292703892,-7.1,72.));
#1402=CARTESIAN_POINT('',(-39.7985292703892,-4.1,0.));
#1403=CARTESIAN_POINT('Origin',(-32.15,-5.85,0.));
#1404=CARTESIAN_POINT('Origin',(-32.15,-5.85,72.));
#1405=CARTESIAN_POINT('Origin',(-23.3704690882596,-4.1,0.));
#1406=CARTESIAN_POINT('',(-20.898627669398,-5.8,72.));
#1407=CARTESIAN_POINT('Origin',(-23.3704690882596,-4.1,72.));
#1408=CARTESIAN_POINT('',(-20.898627669398,-5.8,0.));
#1409=CARTESIAN_POINT('Origin',(-19.7,-6.,72.));
#1410=CARTESIAN_POINT('',(-42.4,-4.1,72.));
#1411=CARTESIAN_POINT('',(-18.4267862505363,-4.5,72.));
#1412=CARTESIAN_POINT('Origin',(-18.4267862505363,-7.5,72.));
#1413=CARTESIAN_POINT('',(-21.4,-4.5,72.));
#1414=CARTESIAN_POINT('',(-20.55,-4.5,72.));
#1415=CARTESIAN_POINT('',(-21.4,-1.5,72.));
#1416=CARTESIAN_POINT('',(-21.4,-3.75,72.));
#1417=CARTESIAN_POINT('',(-21.4,-1.1,72.));
#1418=CARTESIAN_POINT('',(-21.4,-1.1,72.));
#1419=CARTESIAN_POINT('',(-24.2,-1.1,72.));
#1420=CARTESIAN_POINT('',(-24.4,-1.1,72.));
#1421=CARTESIAN_POINT('',(-24.2,-4.3,72.));
#1422=CARTESIAN_POINT('',(-24.2,-3.55,72.));
#1423=CARTESIAN_POINT('',(-27.6,-4.3,72.));
#1424=CARTESIAN_POINT('',(-22.05,-4.3,72.));
#1425=CARTESIAN_POINT('',(-27.6,-1.1,72.));
#1426=CARTESIAN_POINT('',(-27.6,-5.05,72.));
#1427=CARTESIAN_POINT('',(-27.4,-1.1,72.));
#1428=CARTESIAN_POINT('Origin',(-18.4267862505363,-7.5,0.));
#1429=CARTESIAN_POINT('',(-18.4267862505363,-4.5,0.));
#1430=CARTESIAN_POINT('Origin',(-1.5,3.,0.));
#1431=CARTESIAN_POINT('',(-1.5,4.5,0.));
#1432=CARTESIAN_POINT('',(-1.5,4.5,0.));
#1433=CARTESIAN_POINT('',(-3.,3.,0.));
#1434=CARTESIAN_POINT('Origin',(-1.5,3.,0.));
#1435=CARTESIAN_POINT('',(-3.,3.,0.));
#1436=CARTESIAN_POINT('Origin',(3.,4.5,0.));
#1437=CARTESIAN_POINT('',(3.,4.5,0.));
#1438=CARTESIAN_POINT('',(3.,4.5,0.));
#1439=CARTESIAN_POINT('',(3.,4.5,0.));
#1440=CARTESIAN_POINT('Origin',(-5.5,1.,0.));
#1441=CARTESIAN_POINT('',(-3.,1.,0.));
#1442=CARTESIAN_POINT('',(-5.5,-1.5,0.));
#1443=CARTESIAN_POINT('Origin',(-5.5,1.,0.));
#1444=CARTESIAN_POINT('',(-5.5,-1.5,0.));
#1445=CARTESIAN_POINT('',(-3.,1.,0.));
#1446=CARTESIAN_POINT('Origin',(-3.,-1.5,0.));
#1447=CARTESIAN_POINT('',(-11.4,-1.5,0.));
#1448=CARTESIAN_POINT('',(-21.4,-1.5,0.));
#1449=CARTESIAN_POINT('',(-11.4,-1.5,-3.));
#1450=CARTESIAN_POINT('',(-11.4,-1.5,0.));
#1451=CARTESIAN_POINT('',(-21.4,-1.5,-3.));
#1452=CARTESIAN_POINT('',(-11.4,-1.5,-3.));
#1453=CARTESIAN_POINT('',(-21.4,-1.5,0.));
#1454=CARTESIAN_POINT('',(-21.4,-1.5,0.));
#1455=CARTESIAN_POINT('',(-21.4,-1.5,75.));
#1456=CARTESIAN_POINT('',(-21.4,-1.5,0.));
#1457=CARTESIAN_POINT('',(-11.4,-1.5,75.));
#1458=CARTESIAN_POINT('',(-11.4,-1.5,75.));
#1459=CARTESIAN_POINT('',(-11.4,-1.5,0.));
#1460=CARTESIAN_POINT('Origin',(-2.,-12.995368781616,0.));
#1461=CARTESIAN_POINT('',(-1.92592592592593,-10.9967409944705,0.));
#1462=CARTESIAN_POINT('',(0.,-12.995368781616,0.));
#1463=CARTESIAN_POINT('Origin',(-2.,-12.995368781616,0.));
#1464=CARTESIAN_POINT('',(0.,-12.995368781616,0.));
#1465=CARTESIAN_POINT('',(-1.92592592592593,-10.9967409944705,0.));
#1466=CARTESIAN_POINT('Origin',(0.,-10.6658804331639,0.));
#1467=CARTESIAN_POINT('',(0.,-4.5,0.));
#1468=CARTESIAN_POINT('Origin',(-8.49536878161602,-6.5,0.));
#1469=CARTESIAN_POINT('',(-8.49536878161602,-4.5,0.));
#1470=CARTESIAN_POINT('',(-6.49674099447053,-6.42592592592593,0.));
#1471=CARTESIAN_POINT('Origin',(-8.49536878161602,-6.5,0.));
#1472=CARTESIAN_POINT('',(-6.49674099447053,-6.42592592592593,0.));
#1473=CARTESIAN_POINT('',(-8.49536878161602,-4.5,0.));
#1474=CARTESIAN_POINT('Origin',(-1.75,-6.25,0.));
#1475=CARTESIAN_POINT('Origin',(-1.75,-6.25,0.));
#1476=CARTESIAN_POINT('Origin',(-21.4,-1.5,0.));
#1477=CARTESIAN_POINT('',(-21.4,-4.5,75.));
#1478=CARTESIAN_POINT('',(-21.4,-4.5,0.));
#1479=CARTESIAN_POINT('',(-21.4,-1.5,75.));
#1480=CARTESIAN_POINT('Origin',(-11.4,-4.5,0.));
#1481=CARTESIAN_POINT('',(-11.4,-4.5,75.));
#1482=CARTESIAN_POINT('',(-11.4,-4.5,75.));
#1483=CARTESIAN_POINT('',(-11.4,-4.5,0.));
#1484=CARTESIAN_POINT('Origin',(-16.4,-3.,75.));
#1485=CARTESIAN_POINT('',(-21.4,-4.5,75.));
#1486=CARTESIAN_POINT('Origin',(-11.4,-1.5,0.));
#1487=CARTESIAN_POINT('',(-11.4,-4.5,0.));
#1488=CARTESIAN_POINT('',(-11.4,-3.75,0.));
#1489=CARTESIAN_POINT('',(-11.4,-4.5,-3.));
#1490=CARTESIAN_POINT('',(-11.4,-4.5,0.));
#1491=CARTESIAN_POINT('',(-11.4,-4.5,-3.));
#1492=CARTESIAN_POINT('Origin',(-21.4,-4.5,0.));
#1493=CARTESIAN_POINT('',(-21.4,-4.5,-3.));
#1494=CARTESIAN_POINT('',(-21.4,-1.5,-3.));
#1495=CARTESIAN_POINT('',(-21.4,-4.5,0.));
#1496=CARTESIAN_POINT('Origin',(-16.4,-3.,-3.));
#1497=CARTESIAN_POINT('',(-21.4,-4.5,-3.));
#1498=CARTESIAN_POINT('Origin',(-3.,4.5,0.));
#1499=CARTESIAN_POINT('',(-3.,-4.5,0.));
#1500=CARTESIAN_POINT('Origin',(3.,1.5,0.));
#1501=CARTESIAN_POINT('',(3.,1.7,0.));
#1502=CARTESIAN_POINT('',(3.,1.5,0.));
#1503=CARTESIAN_POINT('',(3.,1.7,0.));
#1504=CARTESIAN_POINT('Origin',(0.,1.7,0.));
#1505=CARTESIAN_POINT('',(-0.2,1.7,0.));
#1506=CARTESIAN_POINT('',(-9.85,1.7,0.));
#1507=CARTESIAN_POINT('',(-0.2,1.7,0.));
#1508=CARTESIAN_POINT('Origin',(-0.2,-1.5,0.));
#1509=CARTESIAN_POINT('',(-0.2,-1.7,0.));
#1510=CARTESIAN_POINT('',(-0.2,-3.75,0.));
#1511=CARTESIAN_POINT('',(-0.2,-1.7,0.));
#1512=CARTESIAN_POINT('Origin',(3.,-1.7,0.));
#1513=CARTESIAN_POINT('',(3.,-1.7,0.));
#1514=CARTESIAN_POINT('',(-8.35,-1.7,0.));
#1515=CARTESIAN_POINT('',(3.,-1.7,0.));
#1516=CARTESIAN_POINT('Origin',(3.,-16.5,0.));
#1517=CARTESIAN_POINT('',(3.,-16.5,0.));
#1518=CARTESIAN_POINT('Origin',(-21.4,-4.5,0.));
#1519=CARTESIAN_POINT('',(-21.4,-4.5,0.));
#1520=CARTESIAN_POINT('Origin',(-42.4,-4.1,0.));
#1521=CARTESIAN_POINT('Origin',(-27.4,-1.1,0.));
#1522=CARTESIAN_POINT('',(-27.6,-1.1,0.));
#1523=CARTESIAN_POINT('Origin',(-27.6,-4.1,0.));
#1524=CARTESIAN_POINT('',(-27.6,-4.3,0.));
#1525=CARTESIAN_POINT('Origin',(-24.4,-4.3,0.));
#1526=CARTESIAN_POINT('',(-24.2,-4.3,0.));
#1527=CARTESIAN_POINT('Origin',(-24.2,-1.1,0.));
#1528=CARTESIAN_POINT('',(-24.2,-1.1,0.));
#1529=CARTESIAN_POINT('Origin',(-21.4,-1.1,0.));
#1530=CARTESIAN_POINT('',(-21.4,-1.1,0.));
#1531=CARTESIAN_POINT('Origin',(-21.4,-1.5,0.));
#1532=CARTESIAN_POINT('Origin',(-19.7,-6.,0.));
#1533=UNCERTAINTY_MEASURE_WITH_UNIT(LENGTH_MEASURE(0.01),#1537,
'DISTANCE_ACCURACY_VALUE',
'Maximum model space distance between geometric entities at asserted c
onnectivities');
#1534=UNCERTAINTY_MEASURE_WITH_UNIT(LENGTH_MEASURE(0.01),#1537,
'DISTANCE_ACCURACY_VALUE',
'Maximum model space distance between geometric entities at asserted c
onnectivities');
#1535=(
GEOMETRIC_REPRESENTATION_CONTEXT(3)
GLOBAL_UNCERTAINTY_ASSIGNED_CONTEXT((#1533))
GLOBAL_UNIT_ASSIGNED_CONTEXT((#1537,#1539,#1540))
REPRESENTATION_CONTEXT('','3D')
);
#1536=(
GEOMETRIC_REPRESENTATION_CONTEXT(3)
GLOBAL_UNCERTAINTY_ASSIGNED_CONTEXT((#1534))
GLOBAL_UNIT_ASSIGNED_CONTEXT((#1537,#1539,#1540))
REPRESENTATION_CONTEXT('','3D')
);
#1537=(
LENGTH_UNIT()
NAMED_UNIT(*)
SI_UNIT(.MILLI.,.METRE.)
);
#1538=(
LENGTH_UNIT()
NAMED_UNIT(*)
SI_UNIT($,.METRE.)
);
#1539=(
NAMED_UNIT(*)
PLANE_ANGLE_UNIT()
SI_UNIT($,.RADIAN.)
);
#1540=(
NAMED_UNIT(*)
SI_UNIT($,.STERADIAN.)
SOLID_ANGLE_UNIT()
);
#1541=SHAPE_DEFINITION_REPRESENTATION(#1542,#1543);
#1542=PRODUCT_DEFINITION_SHAPE('',$,#1545);
#1543=SHAPE_REPRESENTATION('',(#923),#1535);
#1544=PRODUCT_DEFINITION_CONTEXT('part definition',#1549,'design');
#1545=PRODUCT_DEFINITION('SlideSupports','SlideSupports v11',#1546,#1544);
#1546=PRODUCT_DEFINITION_FORMATION('',$,#1551);
#1547=PRODUCT_RELATED_PRODUCT_CATEGORY('SlideSupports v11',
'SlideSupports v11',(#1551));
#1548=APPLICATION_PROTOCOL_DEFINITION('international standard',
'automotive_design',2009,#1549);
#1549=APPLICATION_CONTEXT(
'Core Data for Automotive Mechanical Design Process');
#1550=PRODUCT_CONTEXT('part definition',#1549,'mechanical');
#1551=PRODUCT('SlideSupports','SlideSupports v11',$,(#1550));
#1552=PRESENTATION_STYLE_ASSIGNMENT((#1554));
#1553=PRESENTATION_STYLE_ASSIGNMENT((#1555));
#1554=SURFACE_STYLE_USAGE(.BOTH.,#1556);
#1555=SURFACE_STYLE_USAGE(.BOTH.,#1557);
#1556=SURFACE_SIDE_STYLE('',(#1558));
#1557=SURFACE_SIDE_STYLE('',(#1559));
#1558=SURFACE_STYLE_FILL_AREA(#1560);
#1559=SURFACE_STYLE_FILL_AREA(#1561);
#1560=FILL_AREA_STYLE('Steel - Satin',(#1562));
#1561=FILL_AREA_STYLE('Plastic - Matte (White)',(#1563));
#1562=FILL_AREA_STYLE_COLOUR('Steel - Satin',#1564);
#1563=FILL_AREA_STYLE_COLOUR('Plastic - Matte (White)',#1565);
#1564=COLOUR_RGB('Steel - Satin',0.627450980392157,0.627450980392157,0.627450980392157);
#1565=COLOUR_RGB('Plastic - Matte (White)',0.964705882352941,0.964705882352941,
0.952941176470588);
ENDSEC;
END-ISO-10303-21;
