ISO-10303-21;
HEADER;
/* Generated by software containing ST-Developer
 * from STEP Tools, Inc. (www.steptools.com) 
 */

FILE_DESCRIPTION(
/* description */ (''),
/* implementation_level */ '2;1');

FILE_NAME(
/* name */ 'slide_v2.step',
/* time_stamp */ '2026-08-21T09:17:54-04:00',
/* author */ (''),
/* organization */ (''),
/* preprocessor_version */ 'ST-DEVELOPER v20.1',
/* originating_system */ 'Autodesk Translation Framework v15.8.0.0',
/* authorisation */ '');

FILE_SCHEMA (('AUTOMOTIVE_DESIGN { 1 0 10303 214 3 1 1 }'));
ENDSEC;

DATA;
#10=MECHANICAL_DESIGN_GEOMETRIC_PRESENTATION_REPRESENTATION('',(#13),#681);
#11=SHAPE_REPRESENTATION_RELATIONSHIP('SRR','None',#688,#12);
#12=ADVANCED_BREP_SHAPE_REPRESENTATION('',(#14),#680);
#13=STYLED_ITEM('',(#697),#14);
#14=MANIFOLD_SOLID_BREP('Body1',#413);
#15=FACE_BOUND('',#69,.T.);
#16=FACE_BOUND('',#72,.T.);
#17=FACE_BOUND('',#75,.T.);
#18=FACE_BOUND('',#78,.T.);
#19=FACE_BOUND('',#81,.T.);
#20=FACE_BOUND('',#86,.T.);
#21=PLANE('',#430);
#22=PLANE('',#440);
#23=PLANE('',#441);
#24=PLANE('',#442);
#25=PLANE('',#443);
#26=PLANE('',#444);
#27=PLANE('',#445);
#28=PLANE('',#446);
#29=PLANE('',#447);
#30=PLANE('',#448);
#31=PLANE('',#449);
#32=PLANE('',#450);
#33=PLANE('',#451);
#34=PLANE('',#452);
#35=PLANE('',#453);
#36=PLANE('',#454);
#37=PLANE('',#455);
#38=PLANE('',#456);
#39=FACE_OUTER_BOUND('',#61,.T.);
#40=FACE_OUTER_BOUND('',#62,.T.);
#41=FACE_OUTER_BOUND('',#63,.T.);
#42=FACE_OUTER_BOUND('',#64,.T.);
#43=FACE_OUTER_BOUND('',#65,.T.);
#44=FACE_OUTER_BOUND('',#66,.T.);
#45=FACE_OUTER_BOUND('',#67,.T.);
#46=FACE_OUTER_BOUND('',#68,.T.);
#47=FACE_OUTER_BOUND('',#70,.T.);
#48=FACE_OUTER_BOUND('',#71,.T.);
#49=FACE_OUTER_BOUND('',#73,.T.);
#50=FACE_OUTER_BOUND('',#74,.T.);
#51=FACE_OUTER_BOUND('',#76,.T.);
#52=FACE_OUTER_BOUND('',#77,.T.);
#53=FACE_OUTER_BOUND('',#79,.T.);
#54=FACE_OUTER_BOUND('',#80,.T.);
#55=FACE_OUTER_BOUND('',#82,.T.);
#56=FACE_OUTER_BOUND('',#83,.T.);
#57=FACE_OUTER_BOUND('',#84,.T.);
#58=FACE_OUTER_BOUND('',#85,.T.);
#59=FACE_OUTER_BOUND('',#87,.T.);
#60=FACE_OUTER_BOUND('',#88,.T.);
#61=EDGE_LOOP('',(#279,#280,#281,#282));
#62=EDGE_LOOP('',(#283));
#63=EDGE_LOOP('',(#284,#285,#286,#287));
#64=EDGE_LOOP('',(#288,#289,#290,#291));
#65=EDGE_LOOP('',(#292,#293,#294,#295));
#66=EDGE_LOOP('',(#296));
#67=EDGE_LOOP('',(#297,#298,#299,#300,#301,#302,#303,#304,#305,#306,#307,
#308,#309,#310));
#68=EDGE_LOOP('',(#311,#312,#313,#314));
#69=EDGE_LOOP('',(#315));
#70=EDGE_LOOP('',(#316,#317,#318,#319));
#71=EDGE_LOOP('',(#320,#321,#322,#323));
#72=EDGE_LOOP('',(#324));
#73=EDGE_LOOP('',(#325,#326,#327,#328));
#74=EDGE_LOOP('',(#329,#330,#331,#332));
#75=EDGE_LOOP('',(#333));
#76=EDGE_LOOP('',(#334,#335,#336,#337));
#77=EDGE_LOOP('',(#338,#339,#340,#341));
#78=EDGE_LOOP('',(#342));
#79=EDGE_LOOP('',(#343,#344,#345,#346));
#80=EDGE_LOOP('',(#347,#348,#349,#350));
#81=EDGE_LOOP('',(#351));
#82=EDGE_LOOP('',(#352,#353,#354,#355));
#83=EDGE_LOOP('',(#356,#357,#358,#359));
#84=EDGE_LOOP('',(#360,#361,#362,#363));
#85=EDGE_LOOP('',(#364,#365,#366,#367));
#86=EDGE_LOOP('',(#368));
#87=EDGE_LOOP('',(#369,#370,#371,#372));
#88=EDGE_LOOP('',(#373,#374,#375,#376,#377,#378,#379,#380,#381,#382,#383,
#384,#385,#386));
#89=LINE('',#570,#135);
#90=LINE('',#577,#136);
#91=LINE('',#583,#137);
#92=LINE('',#589,#138);
#93=LINE('',#595,#139);
#94=LINE('',#597,#140);
#95=LINE('',#599,#141);
#96=LINE('',#601,#142);
#97=LINE('',#603,#143);
#98=LINE('',#605,#144);
#99=LINE('',#607,#145);
#100=LINE('',#609,#146);
#101=LINE('',#611,#147);
#102=LINE('',#613,#148);
#103=LINE('',#615,#149);
#104=LINE('',#617,#150);
#105=LINE('',#619,#151);
#106=LINE('',#620,#152);
#107=LINE('',#623,#153);
#108=LINE('',#625,#154);
#109=LINE('',#626,#155);
#110=LINE('',#629,#156);
#111=LINE('',#630,#157);
#112=LINE('',#633,#158);
#113=LINE('',#634,#159);
#114=LINE('',#637,#160);
#115=LINE('',#638,#161);
#116=LINE('',#641,#162);
#117=LINE('',#642,#163);
#118=LINE('',#645,#164);
#119=LINE('',#646,#165);
#120=LINE('',#649,#166);
#121=LINE('',#650,#167);
#122=LINE('',#653,#168);
#123=LINE('',#654,#169);
#124=LINE('',#657,#170);
#125=LINE('',#658,#171);
#126=LINE('',#661,#172);
#127=LINE('',#662,#173);
#128=LINE('',#665,#174);
#129=LINE('',#666,#175);
#130=LINE('',#669,#176);
#131=LINE('',#670,#177);
#132=LINE('',#673,#178);
#133=LINE('',#674,#179);
#134=LINE('',#676,#180);
#135=VECTOR('',#463,1.5);
#136=VECTOR('',#472,1.5);
#137=VECTOR('',#479,1.5);
#138=VECTOR('',#486,1.5);
#139=VECTOR('',#493,10.);
#140=VECTOR('',#494,10.);
#141=VECTOR('',#495,10.);
#142=VECTOR('',#496,10.);
#143=VECTOR('',#497,10.);
#144=VECTOR('',#498,10.);
#145=VECTOR('',#499,10.);
#146=VECTOR('',#500,10.);
#147=VECTOR('',#501,10.);
#148=VECTOR('',#502,10.);
#149=VECTOR('',#503,10.);
#150=VECTOR('',#504,10.);
#151=VECTOR('',#505,10.);
#152=VECTOR('',#506,10.);
#153=VECTOR('',#509,10.);
#154=VECTOR('',#510,10.);
#155=VECTOR('',#511,10.);
#156=VECTOR('',#514,10.);
#157=VECTOR('',#515,10.);
#158=VECTOR('',#518,10.);
#159=VECTOR('',#519,10.);
#160=VECTOR('',#522,10.);
#161=VECTOR('',#523,10.);
#162=VECTOR('',#526,10.);
#163=VECTOR('',#527,10.);
#164=VECTOR('',#530,10.);
#165=VECTOR('',#531,10.);
#166=VECTOR('',#534,10.);
#167=VECTOR('',#535,10.);
#168=VECTOR('',#538,10.);
#169=VECTOR('',#539,10.);
#170=VECTOR('',#542,10.);
#171=VECTOR('',#543,10.);
#172=VECTOR('',#546,10.);
#173=VECTOR('',#547,10.);
#174=VECTOR('',#550,10.);
#175=VECTOR('',#551,10.);
#176=VECTOR('',#554,10.);
#177=VECTOR('',#555,10.);
#178=VECTOR('',#558,10.);
#179=VECTOR('',#559,10.);
#180=VECTOR('',#562,10.);
#181=CIRCLE('',#428,1.5);
#182=CIRCLE('',#429,1.5);
#183=CIRCLE('',#432,1.5);
#184=CIRCLE('',#433,1.5);
#185=CIRCLE('',#435,1.5);
#186=CIRCLE('',#436,1.5);
#187=CIRCLE('',#438,1.5);
#188=CIRCLE('',#439,1.5);
#189=VERTEX_POINT('',#567);
#190=VERTEX_POINT('',#569);
#191=VERTEX_POINT('',#574);
#192=VERTEX_POINT('',#576);
#193=VERTEX_POINT('',#580);
#194=VERTEX_POINT('',#582);
#195=VERTEX_POINT('',#586);
#196=VERTEX_POINT('',#588);
#197=VERTEX_POINT('',#593);
#198=VERTEX_POINT('',#594);
#199=VERTEX_POINT('',#596);
#200=VERTEX_POINT('',#598);
#201=VERTEX_POINT('',#600);
#202=VERTEX_POINT('',#602);
#203=VERTEX_POINT('',#604);
#204=VERTEX_POINT('',#606);
#205=VERTEX_POINT('',#608);
#206=VERTEX_POINT('',#610);
#207=VERTEX_POINT('',#612);
#208=VERTEX_POINT('',#614);
#209=VERTEX_POINT('',#616);
#210=VERTEX_POINT('',#618);
#211=VERTEX_POINT('',#622);
#212=VERTEX_POINT('',#624);
#213=VERTEX_POINT('',#628);
#214=VERTEX_POINT('',#632);
#215=VERTEX_POINT('',#636);
#216=VERTEX_POINT('',#640);
#217=VERTEX_POINT('',#644);
#218=VERTEX_POINT('',#648);
#219=VERTEX_POINT('',#652);
#220=VERTEX_POINT('',#656);
#221=VERTEX_POINT('',#660);
#222=VERTEX_POINT('',#664);
#223=VERTEX_POINT('',#668);
#224=VERTEX_POINT('',#672);
#225=EDGE_CURVE('',#189,#189,#181,.T.);
#226=EDGE_CURVE('',#189,#190,#89,.T.);
#227=EDGE_CURVE('',#190,#190,#182,.T.);
#228=EDGE_CURVE('',#191,#191,#183,.T.);
#229=EDGE_CURVE('',#191,#192,#90,.T.);
#230=EDGE_CURVE('',#192,#192,#184,.T.);
#231=EDGE_CURVE('',#193,#193,#185,.T.);
#232=EDGE_CURVE('',#193,#194,#91,.T.);
#233=EDGE_CURVE('',#194,#194,#186,.T.);
#234=EDGE_CURVE('',#195,#195,#187,.T.);
#235=EDGE_CURVE('',#195,#196,#92,.T.);
#236=EDGE_CURVE('',#196,#196,#188,.T.);
#237=EDGE_CURVE('',#197,#198,#93,.T.);
#238=EDGE_CURVE('',#198,#199,#94,.T.);
#239=EDGE_CURVE('',#199,#200,#95,.T.);
#240=EDGE_CURVE('',#200,#201,#96,.T.);
#241=EDGE_CURVE('',#201,#202,#97,.T.);
#242=EDGE_CURVE('',#202,#203,#98,.T.);
#243=EDGE_CURVE('',#203,#204,#99,.T.);
#244=EDGE_CURVE('',#204,#205,#100,.T.);
#245=EDGE_CURVE('',#205,#206,#101,.T.);
#246=EDGE_CURVE('',#206,#207,#102,.T.);
#247=EDGE_CURVE('',#207,#208,#103,.T.);
#248=EDGE_CURVE('',#208,#209,#104,.T.);
#249=EDGE_CURVE('',#209,#210,#105,.T.);
#250=EDGE_CURVE('',#210,#197,#106,.T.);
#251=EDGE_CURVE('',#211,#198,#107,.T.);
#252=EDGE_CURVE('',#212,#211,#108,.T.);
#253=EDGE_CURVE('',#199,#212,#109,.T.);
#254=EDGE_CURVE('',#213,#212,#110,.T.);
#255=EDGE_CURVE('',#200,#213,#111,.T.);
#256=EDGE_CURVE('',#214,#213,#112,.T.);
#257=EDGE_CURVE('',#201,#214,#113,.T.);
#258=EDGE_CURVE('',#215,#214,#114,.T.);
#259=EDGE_CURVE('',#202,#215,#115,.T.);
#260=EDGE_CURVE('',#216,#215,#116,.T.);
#261=EDGE_CURVE('',#203,#216,#117,.T.);
#262=EDGE_CURVE('',#217,#216,#118,.T.);
#263=EDGE_CURVE('',#204,#217,#119,.T.);
#264=EDGE_CURVE('',#218,#217,#120,.T.);
#265=EDGE_CURVE('',#205,#218,#121,.T.);
#266=EDGE_CURVE('',#219,#218,#122,.T.);
#267=EDGE_CURVE('',#206,#219,#123,.T.);
#268=EDGE_CURVE('',#220,#219,#124,.T.);
#269=EDGE_CURVE('',#207,#220,#125,.T.);
#270=EDGE_CURVE('',#221,#220,#126,.T.);
#271=EDGE_CURVE('',#208,#221,#127,.T.);
#272=EDGE_CURVE('',#222,#221,#128,.T.);
#273=EDGE_CURVE('',#209,#222,#129,.T.);
#274=EDGE_CURVE('',#223,#222,#130,.T.);
#275=EDGE_CURVE('',#210,#223,#131,.T.);
#276=EDGE_CURVE('',#224,#223,#132,.T.);
#277=EDGE_CURVE('',#197,#224,#133,.T.);
#278=EDGE_CURVE('',#211,#224,#134,.T.);
#279=ORIENTED_EDGE('',*,*,#225,.F.);
#280=ORIENTED_EDGE('',*,*,#226,.T.);
#281=ORIENTED_EDGE('',*,*,#227,.T.);
#282=ORIENTED_EDGE('',*,*,#226,.F.);
#283=ORIENTED_EDGE('',*,*,#227,.F.);
#284=ORIENTED_EDGE('',*,*,#228,.F.);
#285=ORIENTED_EDGE('',*,*,#229,.T.);
#286=ORIENTED_EDGE('',*,*,#230,.F.);
#287=ORIENTED_EDGE('',*,*,#229,.F.);
#288=ORIENTED_EDGE('',*,*,#231,.F.);
#289=ORIENTED_EDGE('',*,*,#232,.T.);
#290=ORIENTED_EDGE('',*,*,#233,.F.);
#291=ORIENTED_EDGE('',*,*,#232,.F.);
#292=ORIENTED_EDGE('',*,*,#234,.F.);
#293=ORIENTED_EDGE('',*,*,#235,.T.);
#294=ORIENTED_EDGE('',*,*,#236,.T.);
#295=ORIENTED_EDGE('',*,*,#235,.F.);
#296=ORIENTED_EDGE('',*,*,#236,.F.);
#297=ORIENTED_EDGE('',*,*,#237,.T.);
#298=ORIENTED_EDGE('',*,*,#238,.T.);
#299=ORIENTED_EDGE('',*,*,#239,.T.);
#300=ORIENTED_EDGE('',*,*,#240,.T.);
#301=ORIENTED_EDGE('',*,*,#241,.T.);
#302=ORIENTED_EDGE('',*,*,#242,.T.);
#303=ORIENTED_EDGE('',*,*,#243,.T.);
#304=ORIENTED_EDGE('',*,*,#244,.T.);
#305=ORIENTED_EDGE('',*,*,#245,.T.);
#306=ORIENTED_EDGE('',*,*,#246,.T.);
#307=ORIENTED_EDGE('',*,*,#247,.T.);
#308=ORIENTED_EDGE('',*,*,#248,.T.);
#309=ORIENTED_EDGE('',*,*,#249,.T.);
#310=ORIENTED_EDGE('',*,*,#250,.T.);
#311=ORIENTED_EDGE('',*,*,#251,.F.);
#312=ORIENTED_EDGE('',*,*,#252,.F.);
#313=ORIENTED_EDGE('',*,*,#253,.F.);
#314=ORIENTED_EDGE('',*,*,#238,.F.);
#315=ORIENTED_EDGE('',*,*,#228,.T.);
#316=ORIENTED_EDGE('',*,*,#253,.T.);
#317=ORIENTED_EDGE('',*,*,#254,.F.);
#318=ORIENTED_EDGE('',*,*,#255,.F.);
#319=ORIENTED_EDGE('',*,*,#239,.F.);
#320=ORIENTED_EDGE('',*,*,#255,.T.);
#321=ORIENTED_EDGE('',*,*,#256,.F.);
#322=ORIENTED_EDGE('',*,*,#257,.F.);
#323=ORIENTED_EDGE('',*,*,#240,.F.);
#324=ORIENTED_EDGE('',*,*,#225,.T.);
#325=ORIENTED_EDGE('',*,*,#257,.T.);
#326=ORIENTED_EDGE('',*,*,#258,.F.);
#327=ORIENTED_EDGE('',*,*,#259,.F.);
#328=ORIENTED_EDGE('',*,*,#241,.F.);
#329=ORIENTED_EDGE('',*,*,#259,.T.);
#330=ORIENTED_EDGE('',*,*,#260,.F.);
#331=ORIENTED_EDGE('',*,*,#261,.F.);
#332=ORIENTED_EDGE('',*,*,#242,.F.);
#333=ORIENTED_EDGE('',*,*,#234,.T.);
#334=ORIENTED_EDGE('',*,*,#261,.T.);
#335=ORIENTED_EDGE('',*,*,#262,.F.);
#336=ORIENTED_EDGE('',*,*,#263,.F.);
#337=ORIENTED_EDGE('',*,*,#243,.F.);
#338=ORIENTED_EDGE('',*,*,#263,.T.);
#339=ORIENTED_EDGE('',*,*,#264,.F.);
#340=ORIENTED_EDGE('',*,*,#265,.F.);
#341=ORIENTED_EDGE('',*,*,#244,.F.);
#342=ORIENTED_EDGE('',*,*,#233,.T.);
#343=ORIENTED_EDGE('',*,*,#265,.T.);
#344=ORIENTED_EDGE('',*,*,#266,.F.);
#345=ORIENTED_EDGE('',*,*,#267,.F.);
#346=ORIENTED_EDGE('',*,*,#245,.F.);
#347=ORIENTED_EDGE('',*,*,#267,.T.);
#348=ORIENTED_EDGE('',*,*,#268,.F.);
#349=ORIENTED_EDGE('',*,*,#269,.F.);
#350=ORIENTED_EDGE('',*,*,#246,.F.);
#351=ORIENTED_EDGE('',*,*,#231,.T.);
#352=ORIENTED_EDGE('',*,*,#269,.T.);
#353=ORIENTED_EDGE('',*,*,#270,.F.);
#354=ORIENTED_EDGE('',*,*,#271,.F.);
#355=ORIENTED_EDGE('',*,*,#247,.F.);
#356=ORIENTED_EDGE('',*,*,#271,.T.);
#357=ORIENTED_EDGE('',*,*,#272,.F.);
#358=ORIENTED_EDGE('',*,*,#273,.F.);
#359=ORIENTED_EDGE('',*,*,#248,.F.);
#360=ORIENTED_EDGE('',*,*,#273,.T.);
#361=ORIENTED_EDGE('',*,*,#274,.F.);
#362=ORIENTED_EDGE('',*,*,#275,.F.);
#363=ORIENTED_EDGE('',*,*,#249,.F.);
#364=ORIENTED_EDGE('',*,*,#275,.T.);
#365=ORIENTED_EDGE('',*,*,#276,.F.);
#366=ORIENTED_EDGE('',*,*,#277,.F.);
#367=ORIENTED_EDGE('',*,*,#250,.F.);
#368=ORIENTED_EDGE('',*,*,#230,.T.);
#369=ORIENTED_EDGE('',*,*,#277,.T.);
#370=ORIENTED_EDGE('',*,*,#278,.F.);
#371=ORIENTED_EDGE('',*,*,#251,.T.);
#372=ORIENTED_EDGE('',*,*,#237,.F.);
#373=ORIENTED_EDGE('',*,*,#278,.T.);
#374=ORIENTED_EDGE('',*,*,#276,.T.);
#375=ORIENTED_EDGE('',*,*,#274,.T.);
#376=ORIENTED_EDGE('',*,*,#272,.T.);
#377=ORIENTED_EDGE('',*,*,#270,.T.);
#378=ORIENTED_EDGE('',*,*,#268,.T.);
#379=ORIENTED_EDGE('',*,*,#266,.T.);
#380=ORIENTED_EDGE('',*,*,#264,.T.);
#381=ORIENTED_EDGE('',*,*,#262,.T.);
#382=ORIENTED_EDGE('',*,*,#260,.T.);
#383=ORIENTED_EDGE('',*,*,#258,.T.);
#384=ORIENTED_EDGE('',*,*,#256,.T.);
#385=ORIENTED_EDGE('',*,*,#254,.T.);
#386=ORIENTED_EDGE('',*,*,#252,.T.);
#387=CYLINDRICAL_SURFACE('',#427,1.5);
#388=CYLINDRICAL_SURFACE('',#431,1.5);
#389=CYLINDRICAL_SURFACE('',#434,1.5);
#390=CYLINDRICAL_SURFACE('',#437,1.5);
#391=ADVANCED_FACE('',(#39),#387,.F.);
#392=ADVANCED_FACE('',(#40),#21,.F.);
#393=ADVANCED_FACE('',(#41),#388,.F.);
#394=ADVANCED_FACE('',(#42),#389,.F.);
#395=ADVANCED_FACE('',(#43),#390,.F.);
#396=ADVANCED_FACE('',(#44),#22,.F.);
#397=ADVANCED_FACE('',(#45),#23,.T.);
#398=ADVANCED_FACE('',(#46,#15),#24,.T.);
#399=ADVANCED_FACE('',(#47),#25,.T.);
#400=ADVANCED_FACE('',(#48,#16),#26,.T.);
#401=ADVANCED_FACE('',(#49),#27,.T.);
#402=ADVANCED_FACE('',(#50,#17),#28,.T.);
#403=ADVANCED_FACE('',(#51),#29,.T.);
#404=ADVANCED_FACE('',(#52,#18),#30,.T.);
#405=ADVANCED_FACE('',(#53),#31,.T.);
#406=ADVANCED_FACE('',(#54,#19),#32,.T.);
#407=ADVANCED_FACE('',(#55),#33,.T.);
#408=ADVANCED_FACE('',(#56),#34,.T.);
#409=ADVANCED_FACE('',(#57),#35,.T.);
#410=ADVANCED_FACE('',(#58,#20),#36,.T.);
#411=ADVANCED_FACE('',(#59),#37,.T.);
#412=ADVANCED_FACE('',(#60),#38,.T.);
#413=CLOSED_SHELL('',(#391,#392,#393,#394,#395,#396,#397,#398,#399,#400,
#401,#402,#403,#404,#405,#406,#407,#408,#409,#410,#411,#412));
#414=DERIVED_UNIT_ELEMENT(#416,1.);
#415=DERIVED_UNIT_ELEMENT(#683,-3.);
#416=(
MASS_UNIT()
NAMED_UNIT(*)
SI_UNIT(.KILO.,.GRAM.)
);
#417=DERIVED_UNIT((#414,#415));
#418=MEASURE_REPRESENTATION_ITEM('density measure',
POSITIVE_RATIO_MEASURE(7850.),#417);
#419=PROPERTY_DEFINITION_REPRESENTATION(#424,#421);
#420=PROPERTY_DEFINITION_REPRESENTATION(#425,#422);
#421=REPRESENTATION('material name',(#423),#680);
#422=REPRESENTATION('density',(#418),#680);
#423=DESCRIPTIVE_REPRESENTATION_ITEM('Steel','Steel');
#424=PROPERTY_DEFINITION('material property','material name',#690);
#425=PROPERTY_DEFINITION('material property','density of part',#690);
#426=AXIS2_PLACEMENT_3D('',#565,#457,#458);
#427=AXIS2_PLACEMENT_3D('',#566,#459,#460);
#428=AXIS2_PLACEMENT_3D('',#568,#461,#462);
#429=AXIS2_PLACEMENT_3D('',#571,#464,#465);
#430=AXIS2_PLACEMENT_3D('',#572,#466,#467);
#431=AXIS2_PLACEMENT_3D('',#573,#468,#469);
#432=AXIS2_PLACEMENT_3D('',#575,#470,#471);
#433=AXIS2_PLACEMENT_3D('',#578,#473,#474);
#434=AXIS2_PLACEMENT_3D('',#579,#475,#476);
#435=AXIS2_PLACEMENT_3D('',#581,#477,#478);
#436=AXIS2_PLACEMENT_3D('',#584,#480,#481);
#437=AXIS2_PLACEMENT_3D('',#585,#482,#483);
#438=AXIS2_PLACEMENT_3D('',#587,#484,#485);
#439=AXIS2_PLACEMENT_3D('',#590,#487,#488);
#440=AXIS2_PLACEMENT_3D('',#591,#489,#490);
#441=AXIS2_PLACEMENT_3D('',#592,#491,#492);
#442=AXIS2_PLACEMENT_3D('',#621,#507,#508);
#443=AXIS2_PLACEMENT_3D('',#627,#512,#513);
#444=AXIS2_PLACEMENT_3D('',#631,#516,#517);
#445=AXIS2_PLACEMENT_3D('',#635,#520,#521);
#446=AXIS2_PLACEMENT_3D('',#639,#524,#525);
#447=AXIS2_PLACEMENT_3D('',#643,#528,#529);
#448=AXIS2_PLACEMENT_3D('',#647,#532,#533);
#449=AXIS2_PLACEMENT_3D('',#651,#536,#537);
#450=AXIS2_PLACEMENT_3D('',#655,#540,#541);
#451=AXIS2_PLACEMENT_3D('',#659,#544,#545);
#452=AXIS2_PLACEMENT_3D('',#663,#548,#549);
#453=AXIS2_PLACEMENT_3D('',#667,#552,#553);
#454=AXIS2_PLACEMENT_3D('',#671,#556,#557);
#455=AXIS2_PLACEMENT_3D('',#675,#560,#561);
#456=AXIS2_PLACEMENT_3D('',#677,#563,#564);
#457=DIRECTION('axis',(0.,0.,1.));
#458=DIRECTION('refdir',(1.,0.,0.));
#459=DIRECTION('center_axis',(-0.966466863815781,-0.256791357226227,0.));
#460=DIRECTION('ref_axis',(0.256791357226227,-0.966466863815781,0.));
#461=DIRECTION('center_axis',(-0.966466863815782,-0.256791357226227,0.));
#462=DIRECTION('ref_axis',(0.256791357226227,-0.966466863815781,0.));
#463=DIRECTION('',(-0.966466863815781,-0.256791357226227,0.));
#464=DIRECTION('center_axis',(-0.966466863815781,-0.256791357226227,0.));
#465=DIRECTION('ref_axis',(0.256791357226227,-0.966466863815781,0.));
#466=DIRECTION('center_axis',(-0.966466863815781,-0.256791357226227,0.));
#467=DIRECTION('ref_axis',(0.256791357226227,-0.966466863815781,0.));
#468=DIRECTION('center_axis',(0.966466863815781,0.256791357226227,0.));
#469=DIRECTION('ref_axis',(0.256791357226227,-0.966466863815781,0.));
#470=DIRECTION('center_axis',(0.966466863815781,0.256791357226227,0.));
#471=DIRECTION('ref_axis',(0.256791357226227,-0.966466863815781,0.));
#472=DIRECTION('',(0.966466863815781,0.256791357226227,0.));
#473=DIRECTION('center_axis',(-0.966466863815781,-0.256791357226227,0.));
#474=DIRECTION('ref_axis',(0.256791357226227,-0.966466863815781,0.));
#475=DIRECTION('center_axis',(0.905923288890639,0.423441843286144,0.));
#476=DIRECTION('ref_axis',(-0.423441843286144,0.905923288890639,0.));
#477=DIRECTION('center_axis',(0.905923288890639,0.423441843286144,0.));
#478=DIRECTION('ref_axis',(-0.423441843286144,0.905923288890639,0.));
#479=DIRECTION('',(0.905923288890639,0.423441843286144,0.));
#480=DIRECTION('center_axis',(-0.905923288890639,-0.423441843286144,0.));
#481=DIRECTION('ref_axis',(-0.423441843286144,0.905923288890639,0.));
#482=DIRECTION('center_axis',(0.905923288890639,0.423441843286144,0.));
#483=DIRECTION('ref_axis',(-0.423441843286144,0.905923288890639,0.));
#484=DIRECTION('center_axis',(0.905923288890639,0.423441843286144,0.));
#485=DIRECTION('ref_axis',(-0.423441843286144,0.905923288890639,0.));
#486=DIRECTION('',(0.905923288890639,0.423441843286144,0.));
#487=DIRECTION('center_axis',(0.905923288890639,0.423441843286144,0.));
#488=DIRECTION('ref_axis',(-0.423441843286144,0.905923288890639,0.));
#489=DIRECTION('center_axis',(0.905923288890639,0.423441843286144,0.));
#490=DIRECTION('ref_axis',(-0.423441843286144,0.905923288890639,0.));
#491=DIRECTION('center_axis',(0.,0.,-1.));
#492=DIRECTION('ref_axis',(-1.,0.,0.));
#493=DIRECTION('',(-0.966466863815781,-0.256791357226227,0.));
#494=DIRECTION('',(-0.256791357226227,0.966466863815781,0.));
#495=DIRECTION('',(-0.966466863815782,-0.256791357226227,0.));
#496=DIRECTION('',(0.256791357226227,-0.966466863815782,0.));
#497=DIRECTION('',(-1.,1.2387150462965E-16,0.));
#498=DIRECTION('',(-0.423441843286144,0.905923288890639,0.));
#499=DIRECTION('',(-0.90592328889064,-0.423441843286143,0.));
#500=DIRECTION('',(0.423441843286144,-0.905923288890639,0.));
#501=DIRECTION('',(-0.905923288890639,-0.423441843286144,0.));
#502=DIRECTION('',(-0.423441843286144,0.905923288890639,0.));
#503=DIRECTION('',(0.90592328889064,0.423441843286143,0.));
#504=DIRECTION('',(0.993341288305951,-0.115208875294713,0.));
#505=DIRECTION('',(0.966466863815781,0.256791357226227,0.));
#506=DIRECTION('',(0.256791357226227,-0.966466863815781,0.));
#507=DIRECTION('center_axis',(-0.966466863815781,-0.256791357226227,0.));
#508=DIRECTION('ref_axis',(0.256791357226227,-0.966466863815781,0.));
#509=DIRECTION('',(0.,0.,-1.));
#510=DIRECTION('',(0.256791357226227,-0.966466863815781,0.));
#511=DIRECTION('',(0.,0.,1.));
#512=DIRECTION('center_axis',(0.256791357226227,-0.966466863815782,0.));
#513=DIRECTION('ref_axis',(0.966466863815782,0.256791357226227,0.));
#514=DIRECTION('',(0.966466863815782,0.256791357226227,0.));
#515=DIRECTION('',(0.,0.,1.));
#516=DIRECTION('center_axis',(0.966466863815782,0.256791357226227,0.));
#517=DIRECTION('ref_axis',(-0.256791357226227,0.966466863815782,0.));
#518=DIRECTION('',(-0.256791357226227,0.966466863815782,0.));
#519=DIRECTION('',(0.,0.,1.));
#520=DIRECTION('center_axis',(-1.2387150462965E-16,-1.,0.));
#521=DIRECTION('ref_axis',(1.,-1.2387150462965E-16,0.));
#522=DIRECTION('',(1.,-1.2387150462965E-16,0.));
#523=DIRECTION('',(0.,0.,1.));
#524=DIRECTION('center_axis',(-0.905923288890639,-0.423441843286144,0.));
#525=DIRECTION('ref_axis',(0.423441843286144,-0.905923288890639,0.));
#526=DIRECTION('',(0.423441843286144,-0.905923288890639,0.));
#527=DIRECTION('',(0.,0.,1.));
#528=DIRECTION('center_axis',(0.423441843286143,-0.90592328889064,0.));
#529=DIRECTION('ref_axis',(0.90592328889064,0.423441843286143,0.));
#530=DIRECTION('',(0.90592328889064,0.423441843286143,0.));
#531=DIRECTION('',(0.,0.,1.));
#532=DIRECTION('center_axis',(0.905923288890639,0.423441843286144,0.));
#533=DIRECTION('ref_axis',(-0.423441843286144,0.905923288890639,0.));
#534=DIRECTION('',(-0.423441843286144,0.905923288890639,0.));
#535=DIRECTION('',(0.,0.,1.));
#536=DIRECTION('center_axis',(0.423441843286144,-0.905923288890639,0.));
#537=DIRECTION('ref_axis',(0.905923288890639,0.423441843286144,0.));
#538=DIRECTION('',(0.905923288890639,0.423441843286144,0.));
#539=DIRECTION('',(0.,0.,1.));
#540=DIRECTION('center_axis',(-0.905923288890639,-0.423441843286144,0.));
#541=DIRECTION('ref_axis',(0.423441843286144,-0.905923288890639,0.));
#542=DIRECTION('',(0.423441843286144,-0.905923288890639,0.));
#543=DIRECTION('',(0.,0.,1.));
#544=DIRECTION('center_axis',(-0.423441843286143,0.90592328889064,0.));
#545=DIRECTION('ref_axis',(-0.90592328889064,-0.423441843286143,0.));
#546=DIRECTION('',(-0.90592328889064,-0.423441843286143,0.));
#547=DIRECTION('',(0.,0.,1.));
#548=DIRECTION('center_axis',(0.115208875294713,0.993341288305951,0.));
#549=DIRECTION('ref_axis',(-0.993341288305951,0.115208875294713,0.));
#550=DIRECTION('',(-0.993341288305951,0.115208875294713,0.));
#551=DIRECTION('',(0.,0.,1.));
#552=DIRECTION('center_axis',(-0.256791357226227,0.966466863815781,0.));
#553=DIRECTION('ref_axis',(-0.966466863815781,-0.256791357226227,0.));
#554=DIRECTION('',(-0.966466863815781,-0.256791357226227,0.));
#555=DIRECTION('',(0.,0.,1.));
#556=DIRECTION('center_axis',(0.966466863815781,0.256791357226227,0.));
#557=DIRECTION('ref_axis',(-0.256791357226227,0.966466863815781,0.));
#558=DIRECTION('',(-0.256791357226227,0.966466863815781,0.));
#559=DIRECTION('',(0.,0.,1.));
#560=DIRECTION('center_axis',(0.256791357226227,-0.966466863815781,0.));
#561=DIRECTION('ref_axis',(0.966466863815781,0.256791357226227,0.));
#562=DIRECTION('',(0.966466863815781,0.256791357226227,0.));
#563=DIRECTION('center_axis',(0.,0.,1.));
#564=DIRECTION('ref_axis',(1.,0.,0.));
#565=CARTESIAN_POINT('',(0.,0.,0.));
#566=CARTESIAN_POINT('Origin',(10.3076653257844,3.92656602035225,0.500000000000001));
#567=CARTESIAN_POINT('',(6.05661083468198,4.34910088717101,0.500000000000001));
#568=CARTESIAN_POINT('Origin',(6.44179787052132,2.89940059144734,0.500000000000001));
#569=CARTESIAN_POINT('',(3.15721024323463,3.57872681549233,0.500000000000001));
#570=CARTESIAN_POINT('',(9.9224782899451,5.37626631607592,0.500000000000001));
#571=CARTESIAN_POINT('Origin',(3.54239727907397,2.12902651976866,0.500000000000001));
#572=CARTESIAN_POINT('Origin',(3.54239727907397,2.12902651976866,0.500000000000001));
#573=CARTESIAN_POINT('Origin',(10.3076653257844,3.92656602035225,0.500000000000001));
#574=CARTESIAN_POINT('',(9.9224782899451,5.37626631607592,0.500000000000001));
#575=CARTESIAN_POINT('Origin',(10.3076653257844,3.92656602035225,0.500000000000001));
#576=CARTESIAN_POINT('',(12.8218788813924,6.1466403877546,0.500000000000001));
#577=CARTESIAN_POINT('',(9.9224782899451,5.37626631607592,0.500000000000001));
#578=CARTESIAN_POINT('Origin',(13.2070659172318,4.69694009203093,0.500000000000001));
#579=CARTESIAN_POINT('Origin',(-12.106190627621,1.02400249352734,0.5));
#580=CARTESIAN_POINT('',(-14.1887977293637,-1.60520796966705,0.5));
#581=CARTESIAN_POINT('Origin',(-14.8239604942929,-0.246323036331092,0.5));
#582=CARTESIAN_POINT('',(-11.4710278626918,-0.334882439808618,0.5));
#583=CARTESIAN_POINT('',(-11.4710278626918,-0.334882439808617,0.5));
#584=CARTESIAN_POINT('Origin',(-12.106190627621,1.02400249352734,0.5));
#585=CARTESIAN_POINT('Origin',(-12.106190627621,1.02400249352734,0.5));
#586=CARTESIAN_POINT('',(-7.84733470712921,1.35888493333596,0.5));
#587=CARTESIAN_POINT('Origin',(-8.48249747205843,2.71776986667192,0.5));
#588=CARTESIAN_POINT('',(-5.1295648404573,2.62921046319439,0.5));
#589=CARTESIAN_POINT('',(-11.4710278626918,-0.334882439808617,0.5));
#590=CARTESIAN_POINT('Origin',(-5.76472760538651,3.98809539653035,0.5));
#591=CARTESIAN_POINT('Origin',(-5.76472760538651,3.98809539653035,0.5));
#592=CARTESIAN_POINT('Origin',(-2.01116716501426,4.49067433382314,-2.));
#593=CARTESIAN_POINT('',(13.9774399889105,1.79753950058359,-2.));
#594=CARTESIAN_POINT('',(11.0780393974631,1.02716542890491,-2.));
#595=CARTESIAN_POINT('',(11.0780393974631,1.02716542890491,-2.));
#596=CARTESIAN_POINT('',(9.15210421826642,8.27566690752327,-2.));
#597=CARTESIAN_POINT('',(11.4632264333025,-0.422534866818766,-2.));
#598=CARTESIAN_POINT('',(5.2862367630033,7.24850147861836,-2.));
#599=CARTESIAN_POINT('',(5.2862367630033,7.24850147861836,-2.));
#600=CARTESIAN_POINT('',(7.2121719422,-8.32667268468867E-16,-2.));
#601=CARTESIAN_POINT('',(7.59735897803934,-1.44970029572367,-2.));
#602=CARTESIAN_POINT('',(-7.2121719422,8.32667268468867E-16,-2.));
#603=CARTESIAN_POINT('',(7.2121719422,-8.93382590128056E-16,-2.));
#604=CARTESIAN_POINT('',(-10.3879857668461,6.79442466667979,-2.));
#605=CARTESIAN_POINT('',(-6.57700917727078,-1.35888493333596,-2.));
#606=CARTESIAN_POINT('',(-14.0116789224086,5.10065729353522,-2.));
#607=CARTESIAN_POINT('',(-14.0116789224086,5.10065729353522,-2.));
#608=CARTESIAN_POINT('',(-10.8358650977626,-1.69376737314458,-2.));
#609=CARTESIAN_POINT('',(-10.2007023328333,-3.05265230648053,-2.));
#610=CARTESIAN_POINT('',(-13.5536349644345,-2.96409290300301,-2.));
#611=CARTESIAN_POINT('',(-10.8358650977626,-1.69376737314458,-2.));
#612=CARTESIAN_POINT('',(-17.999774318939,6.54810163034871,-2.));
#613=CARTESIAN_POINT('',(-13.5536349644345,-2.96409290300301,-2.));
#614=CARTESIAN_POINT('',(-9.07422498429493,10.7200344076055,-2.));
#615=CARTESIAN_POINT('',(-17.999774318939,6.54810163034871,-2.));
#616=CARTESIAN_POINT('',(1.8852409058781,9.4489428362575,-2.));
#617=CARTESIAN_POINT('',(1.8852409058781,9.4489428362575,-2.));
#618=CARTESIAN_POINT('',(11.2811307380351,11.9454415706493,-2.));
#619=CARTESIAN_POINT('',(11.2811307380351,11.9454415706493,-2.));
#620=CARTESIAN_POINT('',(13.9774399889105,1.79753950058359,-2.));
#621=CARTESIAN_POINT('Origin',(9.15210421826642,8.27566690752327,0.));
#622=CARTESIAN_POINT('',(11.0780393974631,1.02716542890491,3.));
#623=CARTESIAN_POINT('',(11.0780393974631,1.02716542890491,0.));
#624=CARTESIAN_POINT('',(9.15210421826642,8.27566690752327,3.));
#625=CARTESIAN_POINT('',(11.4632264333025,-0.422534866818766,3.));
#626=CARTESIAN_POINT('',(9.15210421826642,8.27566690752327,0.));
#627=CARTESIAN_POINT('Origin',(5.2862367630033,7.24850147861836,0.));
#628=CARTESIAN_POINT('',(5.2862367630033,7.24850147861836,3.));
#629=CARTESIAN_POINT('',(5.2862367630033,7.24850147861836,3.));
#630=CARTESIAN_POINT('',(5.2862367630033,7.24850147861836,0.));
#631=CARTESIAN_POINT('Origin',(7.2121719422,-8.32667268468867E-16,0.));
#632=CARTESIAN_POINT('',(7.2121719422,-8.32667268468867E-16,3.));
#633=CARTESIAN_POINT('',(7.59735897803934,-1.44970029572367,3.));
#634=CARTESIAN_POINT('',(7.2121719422,-8.93382590128056E-16,0.));
#635=CARTESIAN_POINT('Origin',(-7.2121719422,8.93382590128056E-16,0.));
#636=CARTESIAN_POINT('',(-7.2121719422,8.32667268468867E-16,3.));
#637=CARTESIAN_POINT('',(7.2121719422,-8.93382590128056E-16,3.));
#638=CARTESIAN_POINT('',(-7.2121719422,8.93382590128056E-16,0.));
#639=CARTESIAN_POINT('Origin',(-10.3879857668461,6.79442466667979,0.));
#640=CARTESIAN_POINT('',(-10.3879857668461,6.79442466667979,3.));
#641=CARTESIAN_POINT('',(-6.57700917727078,-1.35888493333596,3.));
#642=CARTESIAN_POINT('',(-10.3879857668461,6.79442466667979,0.));
#643=CARTESIAN_POINT('Origin',(-14.0116789224086,5.10065729353522,0.));
#644=CARTESIAN_POINT('',(-14.0116789224086,5.10065729353522,3.));
#645=CARTESIAN_POINT('',(-14.0116789224086,5.10065729353522,3.));
#646=CARTESIAN_POINT('',(-14.0116789224086,5.10065729353522,0.));
#647=CARTESIAN_POINT('Origin',(-10.8358650977626,-1.69376737314458,0.));
#648=CARTESIAN_POINT('',(-10.8358650977626,-1.69376737314458,3.));
#649=CARTESIAN_POINT('',(-10.2007023328333,-3.05265230648053,3.));
#650=CARTESIAN_POINT('',(-10.8358650977626,-1.69376737314458,0.));
#651=CARTESIAN_POINT('Origin',(-13.5536349644345,-2.96409290300301,0.));
#652=CARTESIAN_POINT('',(-13.5536349644345,-2.96409290300301,3.));
#653=CARTESIAN_POINT('',(-10.8358650977626,-1.69376737314458,3.));
#654=CARTESIAN_POINT('',(-13.5536349644345,-2.96409290300301,0.));
#655=CARTESIAN_POINT('Origin',(-17.999774318939,6.54810163034871,0.));
#656=CARTESIAN_POINT('',(-17.999774318939,6.54810163034871,3.));
#657=CARTESIAN_POINT('',(-13.5536349644345,-2.96409290300301,3.));
#658=CARTESIAN_POINT('',(-17.999774318939,6.54810163034871,0.));
#659=CARTESIAN_POINT('Origin',(-9.07422498429493,10.7200344076055,0.));
#660=CARTESIAN_POINT('',(-9.07422498429493,10.7200344076055,3.));
#661=CARTESIAN_POINT('',(-17.999774318939,6.54810163034871,3.));
#662=CARTESIAN_POINT('',(-9.07422498429493,10.7200344076055,0.));
#663=CARTESIAN_POINT('Origin',(1.8852409058781,9.4489428362575,0.));
#664=CARTESIAN_POINT('',(1.8852409058781,9.4489428362575,3.));
#665=CARTESIAN_POINT('',(1.8852409058781,9.4489428362575,3.));
#666=CARTESIAN_POINT('',(1.8852409058781,9.4489428362575,0.));
#667=CARTESIAN_POINT('Origin',(11.2811307380351,11.9454415706493,0.));
#668=CARTESIAN_POINT('',(11.2811307380351,11.9454415706493,3.));
#669=CARTESIAN_POINT('',(11.2811307380351,11.9454415706493,3.));
#670=CARTESIAN_POINT('',(11.2811307380351,11.9454415706493,0.));
#671=CARTESIAN_POINT('Origin',(13.9774399889105,1.79753950058359,0.));
#672=CARTESIAN_POINT('',(13.9774399889105,1.79753950058359,3.));
#673=CARTESIAN_POINT('',(13.9774399889105,1.79753950058359,3.));
#674=CARTESIAN_POINT('',(13.9774399889105,1.79753950058359,0.));
#675=CARTESIAN_POINT('Origin',(11.0780393974631,1.02716542890491,0.));
#676=CARTESIAN_POINT('',(11.0780393974631,1.02716542890491,3.));
#677=CARTESIAN_POINT('Origin',(-2.01116716501426,4.49067433382314,3.));
#678=UNCERTAINTY_MEASURE_WITH_UNIT(LENGTH_MEASURE(0.01),#682,
'DISTANCE_ACCURACY_VALUE',
'Maximum model space distance between geometric entities at asserted c
onnectivities');
#679=UNCERTAINTY_MEASURE_WITH_UNIT(LENGTH_MEASURE(0.01),#682,
'DISTANCE_ACCURACY_VALUE',
'Maximum model space distance between geometric entities at asserted c
onnectivities');
#680=(
GEOMETRIC_REPRESENTATION_CONTEXT(3)
GLOBAL_UNCERTAINTY_ASSIGNED_CONTEXT((#678))
GLOBAL_UNIT_ASSIGNED_CONTEXT((#682,#684,#685))
REPRESENTATION_CONTEXT('','3D')
);
#681=(
GEOMETRIC_REPRESENTATION_CONTEXT(3)
GLOBAL_UNCERTAINTY_ASSIGNED_CONTEXT((#679))
GLOBAL_UNIT_ASSIGNED_CONTEXT((#682,#684,#685))
REPRESENTATION_CONTEXT('','3D')
);
#682=(
LENGTH_UNIT()
NAMED_UNIT(*)
SI_UNIT(.MILLI.,.METRE.)
);
#683=(
LENGTH_UNIT()
NAMED_UNIT(*)
SI_UNIT($,.METRE.)
);
#684=(
NAMED_UNIT(*)
PLANE_ANGLE_UNIT()
SI_UNIT($,.RADIAN.)
);
#685=(
NAMED_UNIT(*)
SI_UNIT($,.STERADIAN.)
SOLID_ANGLE_UNIT()
);
#686=SHAPE_DEFINITION_REPRESENTATION(#687,#688);
#687=PRODUCT_DEFINITION_SHAPE('',$,#690);
#688=SHAPE_REPRESENTATION('',(#426),#680);
#689=PRODUCT_DEFINITION_CONTEXT('part definition',#694,'design');
#690=PRODUCT_DEFINITION('slide','slide v2',#691,#689);
#691=PRODUCT_DEFINITION_FORMATION('',$,#696);
#692=PRODUCT_RELATED_PRODUCT_CATEGORY('slide v2','slide v2',(#696));
#693=APPLICATION_PROTOCOL_DEFINITION('international standard',
'automotive_design',2009,#694);
#694=APPLICATION_CONTEXT(
'Core Data for Automotive Mechanical Design Process');
#695=PRODUCT_CONTEXT('part definition',#694,'mechanical');
#696=PRODUCT('slide','slide v2',$,(#695));
#697=PRESENTATION_STYLE_ASSIGNMENT((#698));
#698=SURFACE_STYLE_USAGE(.BOTH.,#699);
#699=SURFACE_SIDE_STYLE('',(#700));
#700=SURFACE_STYLE_FILL_AREA(#701);
#701=FILL_AREA_STYLE('Steel - Satin',(#702));
#702=FILL_AREA_STYLE_COLOUR('Steel - Satin',#703);
#703=COLOUR_RGB('Steel - Satin',0.627450980392157,0.627450980392157,0.627450980392157);
ENDSEC;
END-ISO-10303-21;
