ISO-10303-21;
HEADER;
/* Generated by software containing ST-Developer
 * from STEP Tools, Inc. (www.steptools.com) 
 */

FILE_DESCRIPTION(
/* description */ (''),
/* implementation_level */ '2;1');

FILE_NAME(
/* name */ 'Untitled_v1.step',
/* time_stamp */ '2026-08-21T09:18:03-04:00',
/* author */ (''),
/* organization */ (''),
/* preprocessor_version */ 'ST-DEVELOPER v20.1',
/* originating_system */ 'Autodesk Translation Framework v15.8.0.0',
/* authorisation */ '');

FILE_SCHEMA (('AUTOMOTIVE_DESIGN { 1 0 10303 214 3 1 1 }'));
ENDSEC;

DATA;
#10=MECHANICAL_DESIGN_GEOMETRIC_PRESENTATION_REPRESENTATION('',(#27,#28,
#29,#30),#1005);
#11=ITEM_DEFINED_TRANSFORMATION($,$,#607,#663);
#12=ITEM_DEFINED_TRANSFORMATION($,$,#638,#664);
#13=ITEM_DEFINED_TRANSFORMATION($,$,#638,#665);
#14=(
REPRESENTATION_RELATIONSHIP($,$,#1020,#1019)
REPRESENTATION_RELATIONSHIP_WITH_TRANSFORMATION(#11)
SHAPE_REPRESENTATION_RELATIONSHIP()
);
#15=(
REPRESENTATION_RELATIONSHIP($,$,#1021,#1019)
REPRESENTATION_RELATIONSHIP_WITH_TRANSFORMATION(#12)
SHAPE_REPRESENTATION_RELATIONSHIP()
);
#16=(
REPRESENTATION_RELATIONSHIP($,$,#1021,#1019)
REPRESENTATION_RELATIONSHIP_WITH_TRANSFORMATION(#13)
SHAPE_REPRESENTATION_RELATIONSHIP()
);
#17=CONTEXT_DEPENDENT_SHAPE_REPRESENTATION(#14,#1016);
#18=CONTEXT_DEPENDENT_SHAPE_REPRESENTATION(#15,#1017);
#19=CONTEXT_DEPENDENT_SHAPE_REPRESENTATION(#16,#1018);
#20=NEXT_ASSEMBLY_USAGE_OCCURRENCE('slide v2:1','slide v2:1',
'slide v2:1',#1023,#1024,'slide v2:1');
#21=NEXT_ASSEMBLY_USAGE_OCCURRENCE('Bearing v1:1','Bearing v1:1',
'Bearing v1:1',#1023,#1025,'Bearing v1:1');
#22=NEXT_ASSEMBLY_USAGE_OCCURRENCE('Bearing v1:2','Bearing v1:2',
'Bearing v1:2',#1023,#1025,'Bearing v1:2');
#23=SHAPE_REPRESENTATION_RELATIONSHIP('SRR','None',#1020,#25);
#24=SHAPE_REPRESENTATION_RELATIONSHIP('SRR','None',#1021,#26);
#25=ADVANCED_BREP_SHAPE_REPRESENTATION('',(#31),#1003);
#26=ADVANCED_BREP_SHAPE_REPRESENTATION('',(#32),#1004);
#27=STYLED_ITEM('',(#1038),#31);
#28=STYLED_ITEM('',(#1040),#569);
#29=STYLED_ITEM('',(#1040),#570);
#30=STYLED_ITEM('',(#1039),#32);
#31=MANIFOLD_SOLID_BREP('Body1',#581);
#32=MANIFOLD_SOLID_BREP('Body1',#582);
#33=FACE_BOUND('',#111,.T.);
#34=FACE_BOUND('',#114,.T.);
#35=FACE_BOUND('',#117,.T.);
#36=FACE_BOUND('',#120,.T.);
#37=FACE_BOUND('',#123,.T.);
#38=FACE_BOUND('',#128,.T.);
#39=FACE_BOUND('',#132,.T.);
#40=FACE_BOUND('',#134,.T.);
#41=FACE_BOUND('',#137,.T.);
#42=FACE_BOUND('',#141,.T.);
#43=FACE_BOUND('',#144,.T.);
#44=FACE_BOUND('',#148,.T.);
#45=PLANE('',#611);
#46=PLANE('',#621);
#47=PLANE('',#622);
#48=PLANE('',#623);
#49=PLANE('',#624);
#50=PLANE('',#625);
#51=PLANE('',#626);
#52=PLANE('',#627);
#53=PLANE('',#628);
#54=PLANE('',#629);
#55=PLANE('',#630);
#56=PLANE('',#631);
#57=PLANE('',#632);
#58=PLANE('',#633);
#59=PLANE('',#634);
#60=PLANE('',#635);
#61=PLANE('',#636);
#62=PLANE('',#637);
#63=PLANE('',#639);
#64=PLANE('',#642);
#65=PLANE('',#647);
#66=PLANE('',#653);
#67=PLANE('',#656);
#68=PLANE('',#662);
#69=FACE_OUTER_BOUND('',#103,.T.);
#70=FACE_OUTER_BOUND('',#104,.T.);
#71=FACE_OUTER_BOUND('',#105,.T.);
#72=FACE_OUTER_BOUND('',#106,.T.);
#73=FACE_OUTER_BOUND('',#107,.T.);
#74=FACE_OUTER_BOUND('',#108,.T.);
#75=FACE_OUTER_BOUND('',#109,.T.);
#76=FACE_OUTER_BOUND('',#110,.T.);
#77=FACE_OUTER_BOUND('',#112,.T.);
#78=FACE_OUTER_BOUND('',#113,.T.);
#79=FACE_OUTER_BOUND('',#115,.T.);
#80=FACE_OUTER_BOUND('',#116,.T.);
#81=FACE_OUTER_BOUND('',#118,.T.);
#82=FACE_OUTER_BOUND('',#119,.T.);
#83=FACE_OUTER_BOUND('',#121,.T.);
#84=FACE_OUTER_BOUND('',#122,.T.);
#85=FACE_OUTER_BOUND('',#124,.T.);
#86=FACE_OUTER_BOUND('',#125,.T.);
#87=FACE_OUTER_BOUND('',#126,.T.);
#88=FACE_OUTER_BOUND('',#127,.T.);
#89=FACE_OUTER_BOUND('',#129,.T.);
#90=FACE_OUTER_BOUND('',#130,.T.);
#91=FACE_OUTER_BOUND('',#131,.T.);
#92=FACE_OUTER_BOUND('',#133,.T.);
#93=FACE_OUTER_BOUND('',#135,.T.);
#94=FACE_OUTER_BOUND('',#136,.T.);
#95=FACE_OUTER_BOUND('',#138,.T.);
#96=FACE_OUTER_BOUND('',#139,.T.);
#97=FACE_OUTER_BOUND('',#140,.T.);
#98=FACE_OUTER_BOUND('',#142,.T.);
#99=FACE_OUTER_BOUND('',#143,.T.);
#100=FACE_OUTER_BOUND('',#145,.T.);
#101=FACE_OUTER_BOUND('',#146,.T.);
#102=FACE_OUTER_BOUND('',#147,.T.);
#103=EDGE_LOOP('',(#393,#394,#395,#396));
#104=EDGE_LOOP('',(#397));
#105=EDGE_LOOP('',(#398,#399,#400,#401));
#106=EDGE_LOOP('',(#402,#403,#404,#405));
#107=EDGE_LOOP('',(#406,#407,#408,#409));
#108=EDGE_LOOP('',(#410));
#109=EDGE_LOOP('',(#411,#412,#413,#414,#415,#416,#417,#418,#419,#420,#421,
#422,#423,#424));
#110=EDGE_LOOP('',(#425,#426,#427,#428));
#111=EDGE_LOOP('',(#429));
#112=EDGE_LOOP('',(#430,#431,#432,#433));
#113=EDGE_LOOP('',(#434,#435,#436,#437));
#114=EDGE_LOOP('',(#438));
#115=EDGE_LOOP('',(#439,#440,#441,#442));
#116=EDGE_LOOP('',(#443,#444,#445,#446));
#117=EDGE_LOOP('',(#447));
#118=EDGE_LOOP('',(#448,#449,#450,#451));
#119=EDGE_LOOP('',(#452,#453,#454,#455));
#120=EDGE_LOOP('',(#456));
#121=EDGE_LOOP('',(#457,#458,#459,#460));
#122=EDGE_LOOP('',(#461,#462,#463,#464));
#123=EDGE_LOOP('',(#465));
#124=EDGE_LOOP('',(#466,#467,#468,#469));
#125=EDGE_LOOP('',(#470,#471,#472,#473));
#126=EDGE_LOOP('',(#474,#475,#476,#477));
#127=EDGE_LOOP('',(#478,#479,#480,#481));
#128=EDGE_LOOP('',(#482));
#129=EDGE_LOOP('',(#483,#484,#485,#486));
#130=EDGE_LOOP('',(#487,#488,#489,#490,#491,#492,#493,#494,#495,#496,#497,
#498,#499,#500));
#131=EDGE_LOOP('',(#501));
#132=EDGE_LOOP('',(#502));
#133=EDGE_LOOP('',(#503));
#134=EDGE_LOOP('',(#504));
#135=EDGE_LOOP('',(#505,#506,#507,#508));
#136=EDGE_LOOP('',(#509));
#137=EDGE_LOOP('',(#510));
#138=EDGE_LOOP('',(#511,#512,#513,#514));
#139=EDGE_LOOP('',(#515,#516,#517,#518));
#140=EDGE_LOOP('',(#519));
#141=EDGE_LOOP('',(#520));
#142=EDGE_LOOP('',(#521,#522,#523,#524));
#143=EDGE_LOOP('',(#525));
#144=EDGE_LOOP('',(#526));
#145=EDGE_LOOP('',(#527,#528,#529,#530));
#146=EDGE_LOOP('',(#531,#532,#533,#534));
#147=EDGE_LOOP('',(#535));
#148=EDGE_LOOP('',(#536));
#149=LINE('',#844,#201);
#150=LINE('',#851,#202);
#151=LINE('',#857,#203);
#152=LINE('',#863,#204);
#153=LINE('',#869,#205);
#154=LINE('',#871,#206);
#155=LINE('',#873,#207);
#156=LINE('',#875,#208);
#157=LINE('',#877,#209);
#158=LINE('',#879,#210);
#159=LINE('',#881,#211);
#160=LINE('',#883,#212);
#161=LINE('',#885,#213);
#162=LINE('',#887,#214);
#163=LINE('',#889,#215);
#164=LINE('',#891,#216);
#165=LINE('',#893,#217);
#166=LINE('',#894,#218);
#167=LINE('',#897,#219);
#168=LINE('',#899,#220);
#169=LINE('',#900,#221);
#170=LINE('',#903,#222);
#171=LINE('',#904,#223);
#172=LINE('',#907,#224);
#173=LINE('',#908,#225);
#174=LINE('',#911,#226);
#175=LINE('',#912,#227);
#176=LINE('',#915,#228);
#177=LINE('',#916,#229);
#178=LINE('',#919,#230);
#179=LINE('',#920,#231);
#180=LINE('',#923,#232);
#181=LINE('',#924,#233);
#182=LINE('',#927,#234);
#183=LINE('',#928,#235);
#184=LINE('',#931,#236);
#185=LINE('',#932,#237);
#186=LINE('',#935,#238);
#187=LINE('',#936,#239);
#188=LINE('',#939,#240);
#189=LINE('',#940,#241);
#190=LINE('',#943,#242);
#191=LINE('',#944,#243);
#192=LINE('',#947,#244);
#193=LINE('',#948,#245);
#194=LINE('',#950,#246);
#195=LINE('',#966,#247);
#196=LINE('',#975,#248);
#197=LINE('',#977,#249);
#198=LINE('',#982,#250);
#199=LINE('',#989,#251);
#200=LINE('',#993,#252);
#201=VECTOR('',#674,1.5);
#202=VECTOR('',#683,1.5);
#203=VECTOR('',#690,1.5);
#204=VECTOR('',#697,1.5);
#205=VECTOR('',#704,10.);
#206=VECTOR('',#705,10.);
#207=VECTOR('',#706,10.);
#208=VECTOR('',#707,10.);
#209=VECTOR('',#708,10.);
#210=VECTOR('',#709,10.);
#211=VECTOR('',#710,10.);
#212=VECTOR('',#711,10.);
#213=VECTOR('',#712,10.);
#214=VECTOR('',#713,10.);
#215=VECTOR('',#714,10.);
#216=VECTOR('',#715,10.);
#217=VECTOR('',#716,10.);
#218=VECTOR('',#717,10.);
#219=VECTOR('',#720,10.);
#220=VECTOR('',#721,10.);
#221=VECTOR('',#722,10.);
#222=VECTOR('',#725,10.);
#223=VECTOR('',#726,10.);
#224=VECTOR('',#729,10.);
#225=VECTOR('',#730,10.);
#226=VECTOR('',#733,10.);
#227=VECTOR('',#734,10.);
#228=VECTOR('',#737,10.);
#229=VECTOR('',#738,10.);
#230=VECTOR('',#741,10.);
#231=VECTOR('',#742,10.);
#232=VECTOR('',#745,10.);
#233=VECTOR('',#746,10.);
#234=VECTOR('',#749,10.);
#235=VECTOR('',#750,10.);
#236=VECTOR('',#753,10.);
#237=VECTOR('',#754,10.);
#238=VECTOR('',#757,10.);
#239=VECTOR('',#758,10.);
#240=VECTOR('',#761,10.);
#241=VECTOR('',#762,10.);
#242=VECTOR('',#765,10.);
#243=VECTOR('',#766,10.);
#244=VECTOR('',#769,10.);
#245=VECTOR('',#770,10.);
#246=VECTOR('',#773,10.);
#247=VECTOR('',#794,2.);
#248=VECTOR('',#805,1.5);
#249=VECTOR('',#808,2.);
#250=VECTOR('',#815,3.4);
#251=VECTOR('',#824,3.4);
#252=VECTOR('',#829,4.);
#253=CIRCLE('',#609,1.5);
#254=CIRCLE('',#610,1.5);
#255=CIRCLE('',#613,1.5);
#256=CIRCLE('',#614,1.5);
#257=CIRCLE('',#616,1.5);
#258=CIRCLE('',#617,1.5);
#259=CIRCLE('',#619,1.5);
#260=CIRCLE('',#620,1.5);
#261=CIRCLE('',#640,3.4);
#262=CIRCLE('',#641,2.);
#263=CIRCLE('',#643,3.4);
#264=CIRCLE('',#644,2.);
#265=CIRCLE('',#646,2.);
#266=CIRCLE('',#648,2.);
#267=CIRCLE('',#649,1.5);
#268=CIRCLE('',#651,1.5);
#269=CIRCLE('',#655,3.4);
#270=CIRCLE('',#657,4.);
#271=CIRCLE('',#658,3.4);
#272=CIRCLE('',#661,4.);
#273=VERTEX_POINT('',#841);
#274=VERTEX_POINT('',#843);
#275=VERTEX_POINT('',#848);
#276=VERTEX_POINT('',#850);
#277=VERTEX_POINT('',#854);
#278=VERTEX_POINT('',#856);
#279=VERTEX_POINT('',#860);
#280=VERTEX_POINT('',#862);
#281=VERTEX_POINT('',#867);
#282=VERTEX_POINT('',#868);
#283=VERTEX_POINT('',#870);
#284=VERTEX_POINT('',#872);
#285=VERTEX_POINT('',#874);
#286=VERTEX_POINT('',#876);
#287=VERTEX_POINT('',#878);
#288=VERTEX_POINT('',#880);
#289=VERTEX_POINT('',#882);
#290=VERTEX_POINT('',#884);
#291=VERTEX_POINT('',#886);
#292=VERTEX_POINT('',#888);
#293=VERTEX_POINT('',#890);
#294=VERTEX_POINT('',#892);
#295=VERTEX_POINT('',#896);
#296=VERTEX_POINT('',#898);
#297=VERTEX_POINT('',#902);
#298=VERTEX_POINT('',#906);
#299=VERTEX_POINT('',#910);
#300=VERTEX_POINT('',#914);
#301=VERTEX_POINT('',#918);
#302=VERTEX_POINT('',#922);
#303=VERTEX_POINT('',#926);
#304=VERTEX_POINT('',#930);
#305=VERTEX_POINT('',#934);
#306=VERTEX_POINT('',#938);
#307=VERTEX_POINT('',#942);
#308=VERTEX_POINT('',#946);
#309=VERTEX_POINT('',#954);
#310=VERTEX_POINT('',#956);
#311=VERTEX_POINT('',#959);
#312=VERTEX_POINT('',#961);
#313=VERTEX_POINT('',#964);
#314=VERTEX_POINT('',#968);
#315=VERTEX_POINT('',#970);
#316=VERTEX_POINT('',#973);
#317=VERTEX_POINT('',#980);
#318=VERTEX_POINT('',#984);
#319=VERTEX_POINT('',#986);
#320=VERTEX_POINT('',#991);
#321=EDGE_CURVE('',#273,#273,#253,.T.);
#322=EDGE_CURVE('',#273,#274,#149,.T.);
#323=EDGE_CURVE('',#274,#274,#254,.T.);
#324=EDGE_CURVE('',#275,#275,#255,.T.);
#325=EDGE_CURVE('',#275,#276,#150,.T.);
#326=EDGE_CURVE('',#276,#276,#256,.T.);
#327=EDGE_CURVE('',#277,#277,#257,.T.);
#328=EDGE_CURVE('',#277,#278,#151,.T.);
#329=EDGE_CURVE('',#278,#278,#258,.T.);
#330=EDGE_CURVE('',#279,#279,#259,.T.);
#331=EDGE_CURVE('',#279,#280,#152,.T.);
#332=EDGE_CURVE('',#280,#280,#260,.T.);
#333=EDGE_CURVE('',#281,#282,#153,.T.);
#334=EDGE_CURVE('',#282,#283,#154,.T.);
#335=EDGE_CURVE('',#283,#284,#155,.T.);
#336=EDGE_CURVE('',#284,#285,#156,.T.);
#337=EDGE_CURVE('',#285,#286,#157,.T.);
#338=EDGE_CURVE('',#286,#287,#158,.T.);
#339=EDGE_CURVE('',#287,#288,#159,.T.);
#340=EDGE_CURVE('',#288,#289,#160,.T.);
#341=EDGE_CURVE('',#289,#290,#161,.T.);
#342=EDGE_CURVE('',#290,#291,#162,.T.);
#343=EDGE_CURVE('',#291,#292,#163,.T.);
#344=EDGE_CURVE('',#292,#293,#164,.T.);
#345=EDGE_CURVE('',#293,#294,#165,.T.);
#346=EDGE_CURVE('',#294,#281,#166,.T.);
#347=EDGE_CURVE('',#295,#282,#167,.T.);
#348=EDGE_CURVE('',#296,#295,#168,.T.);
#349=EDGE_CURVE('',#283,#296,#169,.T.);
#350=EDGE_CURVE('',#297,#296,#170,.T.);
#351=EDGE_CURVE('',#284,#297,#171,.T.);
#352=EDGE_CURVE('',#298,#297,#172,.T.);
#353=EDGE_CURVE('',#285,#298,#173,.T.);
#354=EDGE_CURVE('',#299,#298,#174,.T.);
#355=EDGE_CURVE('',#286,#299,#175,.T.);
#356=EDGE_CURVE('',#300,#299,#176,.T.);
#357=EDGE_CURVE('',#287,#300,#177,.T.);
#358=EDGE_CURVE('',#301,#300,#178,.T.);
#359=EDGE_CURVE('',#288,#301,#179,.T.);
#360=EDGE_CURVE('',#302,#301,#180,.T.);
#361=EDGE_CURVE('',#289,#302,#181,.T.);
#362=EDGE_CURVE('',#303,#302,#182,.T.);
#363=EDGE_CURVE('',#290,#303,#183,.T.);
#364=EDGE_CURVE('',#304,#303,#184,.T.);
#365=EDGE_CURVE('',#291,#304,#185,.T.);
#366=EDGE_CURVE('',#305,#304,#186,.T.);
#367=EDGE_CURVE('',#292,#305,#187,.T.);
#368=EDGE_CURVE('',#306,#305,#188,.T.);
#369=EDGE_CURVE('',#293,#306,#189,.T.);
#370=EDGE_CURVE('',#307,#306,#190,.T.);
#371=EDGE_CURVE('',#294,#307,#191,.T.);
#372=EDGE_CURVE('',#308,#307,#192,.T.);
#373=EDGE_CURVE('',#281,#308,#193,.T.);
#374=EDGE_CURVE('',#295,#308,#194,.T.);
#375=EDGE_CURVE('',#309,#309,#261,.T.);
#376=EDGE_CURVE('',#310,#310,#262,.T.);
#377=EDGE_CURVE('',#311,#311,#263,.T.);
#378=EDGE_CURVE('',#312,#312,#264,.T.);
#379=EDGE_CURVE('',#313,#313,#265,.T.);
#380=EDGE_CURVE('',#313,#312,#195,.T.);
#381=EDGE_CURVE('',#314,#314,#266,.T.);
#382=EDGE_CURVE('',#315,#315,#267,.T.);
#383=EDGE_CURVE('',#316,#316,#268,.T.);
#384=EDGE_CURVE('',#316,#315,#196,.T.);
#385=EDGE_CURVE('',#310,#314,#197,.T.);
#386=EDGE_CURVE('',#317,#317,#269,.T.);
#387=EDGE_CURVE('',#317,#311,#198,.T.);
#388=EDGE_CURVE('',#318,#318,#270,.T.);
#389=EDGE_CURVE('',#319,#319,#271,.T.);
#390=EDGE_CURVE('',#309,#319,#199,.T.);
#391=EDGE_CURVE('',#320,#320,#272,.T.);
#392=EDGE_CURVE('',#320,#318,#200,.T.);
#393=ORIENTED_EDGE('',*,*,#321,.F.);
#394=ORIENTED_EDGE('',*,*,#322,.T.);
#395=ORIENTED_EDGE('',*,*,#323,.T.);
#396=ORIENTED_EDGE('',*,*,#322,.F.);
#397=ORIENTED_EDGE('',*,*,#323,.F.);
#398=ORIENTED_EDGE('',*,*,#324,.F.);
#399=ORIENTED_EDGE('',*,*,#325,.T.);
#400=ORIENTED_EDGE('',*,*,#326,.F.);
#401=ORIENTED_EDGE('',*,*,#325,.F.);
#402=ORIENTED_EDGE('',*,*,#327,.F.);
#403=ORIENTED_EDGE('',*,*,#328,.T.);
#404=ORIENTED_EDGE('',*,*,#329,.F.);
#405=ORIENTED_EDGE('',*,*,#328,.F.);
#406=ORIENTED_EDGE('',*,*,#330,.F.);
#407=ORIENTED_EDGE('',*,*,#331,.T.);
#408=ORIENTED_EDGE('',*,*,#332,.T.);
#409=ORIENTED_EDGE('',*,*,#331,.F.);
#410=ORIENTED_EDGE('',*,*,#332,.F.);
#411=ORIENTED_EDGE('',*,*,#333,.T.);
#412=ORIENTED_EDGE('',*,*,#334,.T.);
#413=ORIENTED_EDGE('',*,*,#335,.T.);
#414=ORIENTED_EDGE('',*,*,#336,.T.);
#415=ORIENTED_EDGE('',*,*,#337,.T.);
#416=ORIENTED_EDGE('',*,*,#338,.T.);
#417=ORIENTED_EDGE('',*,*,#339,.T.);
#418=ORIENTED_EDGE('',*,*,#340,.T.);
#419=ORIENTED_EDGE('',*,*,#341,.T.);
#420=ORIENTED_EDGE('',*,*,#342,.T.);
#421=ORIENTED_EDGE('',*,*,#343,.T.);
#422=ORIENTED_EDGE('',*,*,#344,.T.);
#423=ORIENTED_EDGE('',*,*,#345,.T.);
#424=ORIENTED_EDGE('',*,*,#346,.T.);
#425=ORIENTED_EDGE('',*,*,#347,.F.);
#426=ORIENTED_EDGE('',*,*,#348,.F.);
#427=ORIENTED_EDGE('',*,*,#349,.F.);
#428=ORIENTED_EDGE('',*,*,#334,.F.);
#429=ORIENTED_EDGE('',*,*,#324,.T.);
#430=ORIENTED_EDGE('',*,*,#349,.T.);
#431=ORIENTED_EDGE('',*,*,#350,.F.);
#432=ORIENTED_EDGE('',*,*,#351,.F.);
#433=ORIENTED_EDGE('',*,*,#335,.F.);
#434=ORIENTED_EDGE('',*,*,#351,.T.);
#435=ORIENTED_EDGE('',*,*,#352,.F.);
#436=ORIENTED_EDGE('',*,*,#353,.F.);
#437=ORIENTED_EDGE('',*,*,#336,.F.);
#438=ORIENTED_EDGE('',*,*,#321,.T.);
#439=ORIENTED_EDGE('',*,*,#353,.T.);
#440=ORIENTED_EDGE('',*,*,#354,.F.);
#441=ORIENTED_EDGE('',*,*,#355,.F.);
#442=ORIENTED_EDGE('',*,*,#337,.F.);
#443=ORIENTED_EDGE('',*,*,#355,.T.);
#444=ORIENTED_EDGE('',*,*,#356,.F.);
#445=ORIENTED_EDGE('',*,*,#357,.F.);
#446=ORIENTED_EDGE('',*,*,#338,.F.);
#447=ORIENTED_EDGE('',*,*,#330,.T.);
#448=ORIENTED_EDGE('',*,*,#357,.T.);
#449=ORIENTED_EDGE('',*,*,#358,.F.);
#450=ORIENTED_EDGE('',*,*,#359,.F.);
#451=ORIENTED_EDGE('',*,*,#339,.F.);
#452=ORIENTED_EDGE('',*,*,#359,.T.);
#453=ORIENTED_EDGE('',*,*,#360,.F.);
#454=ORIENTED_EDGE('',*,*,#361,.F.);
#455=ORIENTED_EDGE('',*,*,#340,.F.);
#456=ORIENTED_EDGE('',*,*,#329,.T.);
#457=ORIENTED_EDGE('',*,*,#361,.T.);
#458=ORIENTED_EDGE('',*,*,#362,.F.);
#459=ORIENTED_EDGE('',*,*,#363,.F.);
#460=ORIENTED_EDGE('',*,*,#341,.F.);
#461=ORIENTED_EDGE('',*,*,#363,.T.);
#462=ORIENTED_EDGE('',*,*,#364,.F.);
#463=ORIENTED_EDGE('',*,*,#365,.F.);
#464=ORIENTED_EDGE('',*,*,#342,.F.);
#465=ORIENTED_EDGE('',*,*,#327,.T.);
#466=ORIENTED_EDGE('',*,*,#365,.T.);
#467=ORIENTED_EDGE('',*,*,#366,.F.);
#468=ORIENTED_EDGE('',*,*,#367,.F.);
#469=ORIENTED_EDGE('',*,*,#343,.F.);
#470=ORIENTED_EDGE('',*,*,#367,.T.);
#471=ORIENTED_EDGE('',*,*,#368,.F.);
#472=ORIENTED_EDGE('',*,*,#369,.F.);
#473=ORIENTED_EDGE('',*,*,#344,.F.);
#474=ORIENTED_EDGE('',*,*,#369,.T.);
#475=ORIENTED_EDGE('',*,*,#370,.F.);
#476=ORIENTED_EDGE('',*,*,#371,.F.);
#477=ORIENTED_EDGE('',*,*,#345,.F.);
#478=ORIENTED_EDGE('',*,*,#371,.T.);
#479=ORIENTED_EDGE('',*,*,#372,.F.);
#480=ORIENTED_EDGE('',*,*,#373,.F.);
#481=ORIENTED_EDGE('',*,*,#346,.F.);
#482=ORIENTED_EDGE('',*,*,#326,.T.);
#483=ORIENTED_EDGE('',*,*,#373,.T.);
#484=ORIENTED_EDGE('',*,*,#374,.F.);
#485=ORIENTED_EDGE('',*,*,#347,.T.);
#486=ORIENTED_EDGE('',*,*,#333,.F.);
#487=ORIENTED_EDGE('',*,*,#374,.T.);
#488=ORIENTED_EDGE('',*,*,#372,.T.);
#489=ORIENTED_EDGE('',*,*,#370,.T.);
#490=ORIENTED_EDGE('',*,*,#368,.T.);
#491=ORIENTED_EDGE('',*,*,#366,.T.);
#492=ORIENTED_EDGE('',*,*,#364,.T.);
#493=ORIENTED_EDGE('',*,*,#362,.T.);
#494=ORIENTED_EDGE('',*,*,#360,.T.);
#495=ORIENTED_EDGE('',*,*,#358,.T.);
#496=ORIENTED_EDGE('',*,*,#356,.T.);
#497=ORIENTED_EDGE('',*,*,#354,.T.);
#498=ORIENTED_EDGE('',*,*,#352,.T.);
#499=ORIENTED_EDGE('',*,*,#350,.T.);
#500=ORIENTED_EDGE('',*,*,#348,.T.);
#501=ORIENTED_EDGE('',*,*,#375,.F.);
#502=ORIENTED_EDGE('',*,*,#376,.F.);
#503=ORIENTED_EDGE('',*,*,#377,.F.);
#504=ORIENTED_EDGE('',*,*,#378,.F.);
#505=ORIENTED_EDGE('',*,*,#379,.F.);
#506=ORIENTED_EDGE('',*,*,#380,.T.);
#507=ORIENTED_EDGE('',*,*,#378,.T.);
#508=ORIENTED_EDGE('',*,*,#380,.F.);
#509=ORIENTED_EDGE('',*,*,#381,.T.);
#510=ORIENTED_EDGE('',*,*,#382,.T.);
#511=ORIENTED_EDGE('',*,*,#383,.F.);
#512=ORIENTED_EDGE('',*,*,#384,.T.);
#513=ORIENTED_EDGE('',*,*,#382,.F.);
#514=ORIENTED_EDGE('',*,*,#384,.F.);
#515=ORIENTED_EDGE('',*,*,#376,.T.);
#516=ORIENTED_EDGE('',*,*,#385,.T.);
#517=ORIENTED_EDGE('',*,*,#381,.F.);
#518=ORIENTED_EDGE('',*,*,#385,.F.);
#519=ORIENTED_EDGE('',*,*,#379,.T.);
#520=ORIENTED_EDGE('',*,*,#383,.T.);
#521=ORIENTED_EDGE('',*,*,#386,.F.);
#522=ORIENTED_EDGE('',*,*,#387,.T.);
#523=ORIENTED_EDGE('',*,*,#377,.T.);
#524=ORIENTED_EDGE('',*,*,#387,.F.);
#525=ORIENTED_EDGE('',*,*,#388,.T.);
#526=ORIENTED_EDGE('',*,*,#389,.T.);
#527=ORIENTED_EDGE('',*,*,#375,.T.);
#528=ORIENTED_EDGE('',*,*,#390,.T.);
#529=ORIENTED_EDGE('',*,*,#389,.F.);
#530=ORIENTED_EDGE('',*,*,#390,.F.);
#531=ORIENTED_EDGE('',*,*,#391,.F.);
#532=ORIENTED_EDGE('',*,*,#392,.T.);
#533=ORIENTED_EDGE('',*,*,#388,.F.);
#534=ORIENTED_EDGE('',*,*,#392,.F.);
#535=ORIENTED_EDGE('',*,*,#391,.T.);
#536=ORIENTED_EDGE('',*,*,#386,.T.);
#537=CYLINDRICAL_SURFACE('',#608,1.5);
#538=CYLINDRICAL_SURFACE('',#612,1.5);
#539=CYLINDRICAL_SURFACE('',#615,1.5);
#540=CYLINDRICAL_SURFACE('',#618,1.5);
#541=CYLINDRICAL_SURFACE('',#645,2.);
#542=CYLINDRICAL_SURFACE('',#650,1.5);
#543=CYLINDRICAL_SURFACE('',#652,2.);
#544=CYLINDRICAL_SURFACE('',#654,3.4);
#545=CYLINDRICAL_SURFACE('',#659,3.4);
#546=CYLINDRICAL_SURFACE('',#660,4.);
#547=ADVANCED_FACE('',(#69),#537,.F.);
#548=ADVANCED_FACE('',(#70),#45,.F.);
#549=ADVANCED_FACE('',(#71),#538,.F.);
#550=ADVANCED_FACE('',(#72),#539,.F.);
#551=ADVANCED_FACE('',(#73),#540,.F.);
#552=ADVANCED_FACE('',(#74),#46,.F.);
#553=ADVANCED_FACE('',(#75),#47,.T.);
#554=ADVANCED_FACE('',(#76,#33),#48,.T.);
#555=ADVANCED_FACE('',(#77),#49,.T.);
#556=ADVANCED_FACE('',(#78,#34),#50,.T.);
#557=ADVANCED_FACE('',(#79),#51,.T.);
#558=ADVANCED_FACE('',(#80,#35),#52,.T.);
#559=ADVANCED_FACE('',(#81),#53,.T.);
#560=ADVANCED_FACE('',(#82,#36),#54,.T.);
#561=ADVANCED_FACE('',(#83),#55,.T.);
#562=ADVANCED_FACE('',(#84,#37),#56,.T.);
#563=ADVANCED_FACE('',(#85),#57,.T.);
#564=ADVANCED_FACE('',(#86),#58,.T.);
#565=ADVANCED_FACE('',(#87),#59,.T.);
#566=ADVANCED_FACE('',(#88,#38),#60,.T.);
#567=ADVANCED_FACE('',(#89),#61,.T.);
#568=ADVANCED_FACE('',(#90),#62,.T.);
#569=ADVANCED_FACE('',(#91,#39),#63,.F.);
#570=ADVANCED_FACE('',(#92,#40),#64,.T.);
#571=ADVANCED_FACE('',(#93),#541,.T.);
#572=ADVANCED_FACE('',(#94,#41),#65,.F.);
#573=ADVANCED_FACE('',(#95),#542,.F.);
#574=ADVANCED_FACE('',(#96),#543,.T.);
#575=ADVANCED_FACE('',(#97,#42),#66,.T.);
#576=ADVANCED_FACE('',(#98),#544,.F.);
#577=ADVANCED_FACE('',(#99,#43),#67,.F.);
#578=ADVANCED_FACE('',(#100),#545,.F.);
#579=ADVANCED_FACE('',(#101),#546,.T.);
#580=ADVANCED_FACE('',(#102,#44),#68,.T.);
#581=CLOSED_SHELL('',(#547,#548,#549,#550,#551,#552,#553,#554,#555,#556,
#557,#558,#559,#560,#561,#562,#563,#564,#565,#566,#567,#568));
#582=CLOSED_SHELL('',(#569,#570,#571,#572,#573,#574,#575,#576,#577,#578,
#579,#580));
#583=DERIVED_UNIT_ELEMENT(#587,1.);
#584=DERIVED_UNIT_ELEMENT(#1007,-3.);
#585=DERIVED_UNIT_ELEMENT(#587,1.);
#586=DERIVED_UNIT_ELEMENT(#1007,-3.);
#587=(
MASS_UNIT()
NAMED_UNIT(*)
SI_UNIT(.KILO.,.GRAM.)
);
#588=DERIVED_UNIT((#583,#584));
#589=DERIVED_UNIT((#585,#586));
#590=MEASURE_REPRESENTATION_ITEM('density measure',
POSITIVE_RATIO_MEASURE(7850.),#588);
#591=MEASURE_REPRESENTATION_ITEM('density measure',
POSITIVE_RATIO_MEASURE(7850.),#589);
#592=PROPERTY_DEFINITION_REPRESENTATION(#602,#596);
#593=PROPERTY_DEFINITION_REPRESENTATION(#603,#597);
#594=PROPERTY_DEFINITION_REPRESENTATION(#604,#598);
#595=PROPERTY_DEFINITION_REPRESENTATION(#605,#599);
#596=REPRESENTATION('material name',(#600),#1003);
#597=REPRESENTATION('density',(#590),#1003);
#598=REPRESENTATION('material name',(#601),#1004);
#599=REPRESENTATION('density',(#591),#1004);
#600=DESCRIPTIVE_REPRESENTATION_ITEM('Steel','Steel');
#601=DESCRIPTIVE_REPRESENTATION_ITEM('Steel','Steel');
#602=PROPERTY_DEFINITION('material property','material name',#1024);
#603=PROPERTY_DEFINITION('material property','density of part',#1024);
#604=PROPERTY_DEFINITION('material property','material name',#1025);
#605=PROPERTY_DEFINITION('material property','density of part',#1025);
#606=AXIS2_PLACEMENT_3D('',#838,#666,#667);
#607=AXIS2_PLACEMENT_3D('',#839,#668,#669);
#608=AXIS2_PLACEMENT_3D('',#840,#670,#671);
#609=AXIS2_PLACEMENT_3D('',#842,#672,#673);
#610=AXIS2_PLACEMENT_3D('',#845,#675,#676);
#611=AXIS2_PLACEMENT_3D('',#846,#677,#678);
#612=AXIS2_PLACEMENT_3D('',#847,#679,#680);
#613=AXIS2_PLACEMENT_3D('',#849,#681,#682);
#614=AXIS2_PLACEMENT_3D('',#852,#684,#685);
#615=AXIS2_PLACEMENT_3D('',#853,#686,#687);
#616=AXIS2_PLACEMENT_3D('',#855,#688,#689);
#617=AXIS2_PLACEMENT_3D('',#858,#691,#692);
#618=AXIS2_PLACEMENT_3D('',#859,#693,#694);
#619=AXIS2_PLACEMENT_3D('',#861,#695,#696);
#620=AXIS2_PLACEMENT_3D('',#864,#698,#699);
#621=AXIS2_PLACEMENT_3D('',#865,#700,#701);
#622=AXIS2_PLACEMENT_3D('',#866,#702,#703);
#623=AXIS2_PLACEMENT_3D('',#895,#718,#719);
#624=AXIS2_PLACEMENT_3D('',#901,#723,#724);
#625=AXIS2_PLACEMENT_3D('',#905,#727,#728);
#626=AXIS2_PLACEMENT_3D('',#909,#731,#732);
#627=AXIS2_PLACEMENT_3D('',#913,#735,#736);
#628=AXIS2_PLACEMENT_3D('',#917,#739,#740);
#629=AXIS2_PLACEMENT_3D('',#921,#743,#744);
#630=AXIS2_PLACEMENT_3D('',#925,#747,#748);
#631=AXIS2_PLACEMENT_3D('',#929,#751,#752);
#632=AXIS2_PLACEMENT_3D('',#933,#755,#756);
#633=AXIS2_PLACEMENT_3D('',#937,#759,#760);
#634=AXIS2_PLACEMENT_3D('',#941,#763,#764);
#635=AXIS2_PLACEMENT_3D('',#945,#767,#768);
#636=AXIS2_PLACEMENT_3D('',#949,#771,#772);
#637=AXIS2_PLACEMENT_3D('',#951,#774,#775);
#638=AXIS2_PLACEMENT_3D('',#952,#776,#777);
#639=AXIS2_PLACEMENT_3D('',#953,#778,#779);
#640=AXIS2_PLACEMENT_3D('',#955,#780,#781);
#641=AXIS2_PLACEMENT_3D('',#957,#782,#783);
#642=AXIS2_PLACEMENT_3D('',#958,#784,#785);
#643=AXIS2_PLACEMENT_3D('',#960,#786,#787);
#644=AXIS2_PLACEMENT_3D('',#962,#788,#789);
#645=AXIS2_PLACEMENT_3D('',#963,#790,#791);
#646=AXIS2_PLACEMENT_3D('',#965,#792,#793);
#647=AXIS2_PLACEMENT_3D('',#967,#795,#796);
#648=AXIS2_PLACEMENT_3D('',#969,#797,#798);
#649=AXIS2_PLACEMENT_3D('',#971,#799,#800);
#650=AXIS2_PLACEMENT_3D('',#972,#801,#802);
#651=AXIS2_PLACEMENT_3D('',#974,#803,#804);
#652=AXIS2_PLACEMENT_3D('',#976,#806,#807);
#653=AXIS2_PLACEMENT_3D('',#978,#809,#810);
#654=AXIS2_PLACEMENT_3D('',#979,#811,#812);
#655=AXIS2_PLACEMENT_3D('',#981,#813,#814);
#656=AXIS2_PLACEMENT_3D('',#983,#816,#817);
#657=AXIS2_PLACEMENT_3D('',#985,#818,#819);
#658=AXIS2_PLACEMENT_3D('',#987,#820,#821);
#659=AXIS2_PLACEMENT_3D('',#988,#822,#823);
#660=AXIS2_PLACEMENT_3D('',#990,#825,#826);
#661=AXIS2_PLACEMENT_3D('',#992,#827,#828);
#662=AXIS2_PLACEMENT_3D('',#994,#830,#831);
#663=AXIS2_PLACEMENT_3D('',#995,#832,#833);
#664=AXIS2_PLACEMENT_3D('',#996,#834,#835);
#665=AXIS2_PLACEMENT_3D('',#997,#836,#837);
#666=DIRECTION('axis',(0.,0.,1.));
#667=DIRECTION('refdir',(1.,0.,0.));
#668=DIRECTION('axis',(0.,0.,1.));
#669=DIRECTION('refdir',(1.,0.,0.));
#670=DIRECTION('center_axis',(-0.966466863815781,-0.256791357226227,0.));
#671=DIRECTION('ref_axis',(0.256791357226227,-0.966466863815781,0.));
#672=DIRECTION('center_axis',(-0.966466863815782,-0.256791357226227,0.));
#673=DIRECTION('ref_axis',(0.256791357226227,-0.966466863815781,0.));
#674=DIRECTION('',(-0.966466863815781,-0.256791357226227,0.));
#675=DIRECTION('center_axis',(-0.966466863815781,-0.256791357226227,0.));
#676=DIRECTION('ref_axis',(0.256791357226227,-0.966466863815781,0.));
#677=DIRECTION('center_axis',(-0.966466863815781,-0.256791357226227,0.));
#678=DIRECTION('ref_axis',(0.256791357226227,-0.966466863815781,0.));
#679=DIRECTION('center_axis',(0.966466863815781,0.256791357226227,0.));
#680=DIRECTION('ref_axis',(0.256791357226227,-0.966466863815781,0.));
#681=DIRECTION('center_axis',(0.966466863815781,0.256791357226227,0.));
#682=DIRECTION('ref_axis',(0.256791357226227,-0.966466863815781,0.));
#683=DIRECTION('',(0.966466863815781,0.256791357226227,0.));
#684=DIRECTION('center_axis',(-0.966466863815781,-0.256791357226227,0.));
#685=DIRECTION('ref_axis',(0.256791357226227,-0.966466863815781,0.));
#686=DIRECTION('center_axis',(0.905923288890639,0.423441843286144,0.));
#687=DIRECTION('ref_axis',(-0.423441843286144,0.905923288890639,0.));
#688=DIRECTION('center_axis',(0.905923288890639,0.423441843286144,0.));
#689=DIRECTION('ref_axis',(-0.423441843286144,0.905923288890639,0.));
#690=DIRECTION('',(0.905923288890639,0.423441843286144,0.));
#691=DIRECTION('center_axis',(-0.905923288890639,-0.423441843286144,0.));
#692=DIRECTION('ref_axis',(-0.423441843286144,0.905923288890639,0.));
#693=DIRECTION('center_axis',(0.905923288890639,0.423441843286144,0.));
#694=DIRECTION('ref_axis',(-0.423441843286144,0.905923288890639,0.));
#695=DIRECTION('center_axis',(0.905923288890639,0.423441843286144,0.));
#696=DIRECTION('ref_axis',(-0.423441843286144,0.905923288890639,0.));
#697=DIRECTION('',(0.905923288890639,0.423441843286144,0.));
#698=DIRECTION('center_axis',(0.905923288890639,0.423441843286144,0.));
#699=DIRECTION('ref_axis',(-0.423441843286144,0.905923288890639,0.));
#700=DIRECTION('center_axis',(0.905923288890639,0.423441843286144,0.));
#701=DIRECTION('ref_axis',(-0.423441843286144,0.905923288890639,0.));
#702=DIRECTION('center_axis',(0.,0.,-1.));
#703=DIRECTION('ref_axis',(-1.,0.,0.));
#704=DIRECTION('',(-0.966466863815781,-0.256791357226227,0.));
#705=DIRECTION('',(-0.256791357226227,0.966466863815781,0.));
#706=DIRECTION('',(-0.966466863815782,-0.256791357226227,0.));
#707=DIRECTION('',(0.256791357226227,-0.966466863815782,0.));
#708=DIRECTION('',(-1.,1.2387150462965E-16,0.));
#709=DIRECTION('',(-0.423441843286144,0.905923288890639,0.));
#710=DIRECTION('',(-0.90592328889064,-0.423441843286143,0.));
#711=DIRECTION('',(0.423441843286144,-0.905923288890639,0.));
#712=DIRECTION('',(-0.905923288890639,-0.423441843286144,0.));
#713=DIRECTION('',(-0.423441843286144,0.905923288890639,0.));
#714=DIRECTION('',(0.90592328889064,0.423441843286143,0.));
#715=DIRECTION('',(0.993341288305951,-0.115208875294713,0.));
#716=DIRECTION('',(0.966466863815781,0.256791357226227,0.));
#717=DIRECTION('',(0.256791357226227,-0.966466863815781,0.));
#718=DIRECTION('center_axis',(-0.966466863815781,-0.256791357226227,0.));
#719=DIRECTION('ref_axis',(0.256791357226227,-0.966466863815781,0.));
#720=DIRECTION('',(0.,0.,-1.));
#721=DIRECTION('',(0.256791357226227,-0.966466863815781,0.));
#722=DIRECTION('',(0.,0.,1.));
#723=DIRECTION('center_axis',(0.256791357226227,-0.966466863815782,0.));
#724=DIRECTION('ref_axis',(0.966466863815782,0.256791357226227,0.));
#725=DIRECTION('',(0.966466863815782,0.256791357226227,0.));
#726=DIRECTION('',(0.,0.,1.));
#727=DIRECTION('center_axis',(0.966466863815782,0.256791357226227,0.));
#728=DIRECTION('ref_axis',(-0.256791357226227,0.966466863815782,0.));
#729=DIRECTION('',(-0.256791357226227,0.966466863815782,0.));
#730=DIRECTION('',(0.,0.,1.));
#731=DIRECTION('center_axis',(-1.2387150462965E-16,-1.,0.));
#732=DIRECTION('ref_axis',(1.,-1.2387150462965E-16,0.));
#733=DIRECTION('',(1.,-1.2387150462965E-16,0.));
#734=DIRECTION('',(0.,0.,1.));
#735=DIRECTION('center_axis',(-0.905923288890639,-0.423441843286144,0.));
#736=DIRECTION('ref_axis',(0.423441843286144,-0.905923288890639,0.));
#737=DIRECTION('',(0.423441843286144,-0.905923288890639,0.));
#738=DIRECTION('',(0.,0.,1.));
#739=DIRECTION('center_axis',(0.423441843286143,-0.90592328889064,0.));
#740=DIRECTION('ref_axis',(0.90592328889064,0.423441843286143,0.));
#741=DIRECTION('',(0.90592328889064,0.423441843286143,0.));
#742=DIRECTION('',(0.,0.,1.));
#743=DIRECTION('center_axis',(0.905923288890639,0.423441843286144,0.));
#744=DIRECTION('ref_axis',(-0.423441843286144,0.905923288890639,0.));
#745=DIRECTION('',(-0.423441843286144,0.905923288890639,0.));
#746=DIRECTION('',(0.,0.,1.));
#747=DIRECTION('center_axis',(0.423441843286144,-0.905923288890639,0.));
#748=DIRECTION('ref_axis',(0.905923288890639,0.423441843286144,0.));
#749=DIRECTION('',(0.905923288890639,0.423441843286144,0.));
#750=DIRECTION('',(0.,0.,1.));
#751=DIRECTION('center_axis',(-0.905923288890639,-0.423441843286144,0.));
#752=DIRECTION('ref_axis',(0.423441843286144,-0.905923288890639,0.));
#753=DIRECTION('',(0.423441843286144,-0.905923288890639,0.));
#754=DIRECTION('',(0.,0.,1.));
#755=DIRECTION('center_axis',(-0.423441843286143,0.90592328889064,0.));
#756=DIRECTION('ref_axis',(-0.90592328889064,-0.423441843286143,0.));
#757=DIRECTION('',(-0.90592328889064,-0.423441843286143,0.));
#758=DIRECTION('',(0.,0.,1.));
#759=DIRECTION('center_axis',(0.115208875294713,0.993341288305951,0.));
#760=DIRECTION('ref_axis',(-0.993341288305951,0.115208875294713,0.));
#761=DIRECTION('',(-0.993341288305951,0.115208875294713,0.));
#762=DIRECTION('',(0.,0.,1.));
#763=DIRECTION('center_axis',(-0.256791357226227,0.966466863815781,0.));
#764=DIRECTION('ref_axis',(-0.966466863815781,-0.256791357226227,0.));
#765=DIRECTION('',(-0.966466863815781,-0.256791357226227,0.));
#766=DIRECTION('',(0.,0.,1.));
#767=DIRECTION('center_axis',(0.966466863815781,0.256791357226227,0.));
#768=DIRECTION('ref_axis',(-0.256791357226227,0.966466863815781,0.));
#769=DIRECTION('',(-0.256791357226227,0.966466863815781,0.));
#770=DIRECTION('',(0.,0.,1.));
#771=DIRECTION('center_axis',(0.256791357226227,-0.966466863815781,0.));
#772=DIRECTION('ref_axis',(0.966466863815781,0.256791357226227,0.));
#773=DIRECTION('',(0.966466863815781,0.256791357226227,0.));
#774=DIRECTION('center_axis',(0.,0.,1.));
#775=DIRECTION('ref_axis',(1.,0.,0.));
#776=DIRECTION('axis',(0.,0.,1.));
#777=DIRECTION('refdir',(1.,0.,0.));
#778=DIRECTION('center_axis',(0.,0.,1.));
#779=DIRECTION('ref_axis',(1.,0.,0.));
#780=DIRECTION('center_axis',(0.,0.,1.));
#781=DIRECTION('ref_axis',(1.,0.,0.));
#782=DIRECTION('center_axis',(0.,0.,-1.));
#783=DIRECTION('ref_axis',(1.,0.,0.));
#784=DIRECTION('center_axis',(0.,0.,1.));
#785=DIRECTION('ref_axis',(1.,0.,0.));
#786=DIRECTION('center_axis',(0.,0.,-1.));
#787=DIRECTION('ref_axis',(1.,0.,0.));
#788=DIRECTION('center_axis',(0.,0.,1.));
#789=DIRECTION('ref_axis',(1.,0.,0.));
#790=DIRECTION('center_axis',(0.,0.,1.));
#791=DIRECTION('ref_axis',(1.,0.,0.));
#792=DIRECTION('center_axis',(0.,0.,1.));
#793=DIRECTION('ref_axis',(1.,0.,0.));
#794=DIRECTION('',(0.,0.,-1.));
#795=DIRECTION('center_axis',(0.,0.,1.));
#796=DIRECTION('ref_axis',(1.,0.,0.));
#797=DIRECTION('center_axis',(0.,0.,-1.));
#798=DIRECTION('ref_axis',(1.,0.,0.));
#799=DIRECTION('center_axis',(0.,0.,1.));
#800=DIRECTION('ref_axis',(1.,0.,0.));
#801=DIRECTION('center_axis',(0.,0.,1.));
#802=DIRECTION('ref_axis',(1.,0.,0.));
#803=DIRECTION('center_axis',(0.,0.,-1.));
#804=DIRECTION('ref_axis',(1.,0.,0.));
#805=DIRECTION('',(0.,0.,-1.));
#806=DIRECTION('center_axis',(0.,0.,1.));
#807=DIRECTION('ref_axis',(1.,0.,0.));
#808=DIRECTION('',(0.,0.,-1.));
#809=DIRECTION('center_axis',(0.,0.,1.));
#810=DIRECTION('ref_axis',(1.,0.,0.));
#811=DIRECTION('center_axis',(0.,0.,1.));
#812=DIRECTION('ref_axis',(1.,0.,0.));
#813=DIRECTION('center_axis',(0.,0.,-1.));
#814=DIRECTION('ref_axis',(1.,0.,0.));
#815=DIRECTION('',(0.,0.,-1.));
#816=DIRECTION('center_axis',(0.,0.,1.));
#817=DIRECTION('ref_axis',(1.,0.,0.));
#818=DIRECTION('center_axis',(0.,0.,-1.));
#819=DIRECTION('ref_axis',(1.,0.,0.));
#820=DIRECTION('center_axis',(0.,0.,1.));
#821=DIRECTION('ref_axis',(1.,0.,0.));
#822=DIRECTION('center_axis',(0.,0.,1.));
#823=DIRECTION('ref_axis',(1.,0.,0.));
#824=DIRECTION('',(0.,0.,-1.));
#825=DIRECTION('center_axis',(0.,0.,1.));
#826=DIRECTION('ref_axis',(1.,0.,0.));
#827=DIRECTION('center_axis',(0.,0.,1.));
#828=DIRECTION('ref_axis',(1.,0.,0.));
#829=DIRECTION('',(0.,0.,-1.));
#830=DIRECTION('center_axis',(0.,0.,1.));
#831=DIRECTION('ref_axis',(1.,0.,0.));
#832=DIRECTION('',(0.,0.,1.));
#833=DIRECTION('',(1.,0.,0.));
#834=DIRECTION('',(-0.966466863815783,-0.256791357226228,0.));
#835=DIRECTION('',(-1.57239356837902E-17,5.9179027562699E-17,1.));
#836=DIRECTION('',(-0.905923288890641,-0.423441843286145,6.84227765783602E-49));
#837=DIRECTION('',(-2.59283349002716E-17,5.54718028006483E-17,1.));
#838=CARTESIAN_POINT('',(0.,0.,0.));
#839=CARTESIAN_POINT('',(0.,0.,0.));
#840=CARTESIAN_POINT('Origin',(10.3076653257844,3.92656602035225,0.500000000000001));
#841=CARTESIAN_POINT('',(6.05661083468198,4.34910088717101,0.500000000000001));
#842=CARTESIAN_POINT('Origin',(6.44179787052132,2.89940059144734,0.500000000000001));
#843=CARTESIAN_POINT('',(3.15721024323463,3.57872681549233,0.500000000000001));
#844=CARTESIAN_POINT('',(9.9224782899451,5.37626631607592,0.500000000000001));
#845=CARTESIAN_POINT('Origin',(3.54239727907397,2.12902651976866,0.500000000000001));
#846=CARTESIAN_POINT('Origin',(3.54239727907397,2.12902651976866,0.500000000000001));
#847=CARTESIAN_POINT('Origin',(10.3076653257844,3.92656602035225,0.500000000000001));
#848=CARTESIAN_POINT('',(9.9224782899451,5.37626631607592,0.500000000000001));
#849=CARTESIAN_POINT('Origin',(10.3076653257844,3.92656602035225,0.500000000000001));
#850=CARTESIAN_POINT('',(12.8218788813924,6.1466403877546,0.500000000000001));
#851=CARTESIAN_POINT('',(9.9224782899451,5.37626631607592,0.500000000000001));
#852=CARTESIAN_POINT('Origin',(13.2070659172318,4.69694009203093,0.500000000000001));
#853=CARTESIAN_POINT('Origin',(-12.106190627621,1.02400249352734,0.5));
#854=CARTESIAN_POINT('',(-14.1887977293637,-1.60520796966705,0.5));
#855=CARTESIAN_POINT('Origin',(-14.8239604942929,-0.246323036331092,0.5));
#856=CARTESIAN_POINT('',(-11.4710278626918,-0.334882439808618,0.5));
#857=CARTESIAN_POINT('',(-11.4710278626918,-0.334882439808617,0.5));
#858=CARTESIAN_POINT('Origin',(-12.106190627621,1.02400249352734,0.5));
#859=CARTESIAN_POINT('Origin',(-12.106190627621,1.02400249352734,0.5));
#860=CARTESIAN_POINT('',(-7.84733470712921,1.35888493333596,0.5));
#861=CARTESIAN_POINT('Origin',(-8.48249747205843,2.71776986667192,0.5));
#862=CARTESIAN_POINT('',(-5.1295648404573,2.62921046319439,0.5));
#863=CARTESIAN_POINT('',(-11.4710278626918,-0.334882439808617,0.5));
#864=CARTESIAN_POINT('Origin',(-5.76472760538651,3.98809539653035,0.5));
#865=CARTESIAN_POINT('Origin',(-5.76472760538651,3.98809539653035,0.5));
#866=CARTESIAN_POINT('Origin',(-2.01116716501426,4.49067433382314,-2.));
#867=CARTESIAN_POINT('',(13.9774399889105,1.79753950058359,-2.));
#868=CARTESIAN_POINT('',(11.0780393974631,1.02716542890491,-2.));
#869=CARTESIAN_POINT('',(11.0780393974631,1.02716542890491,-2.));
#870=CARTESIAN_POINT('',(9.15210421826642,8.27566690752327,-2.));
#871=CARTESIAN_POINT('',(11.4632264333025,-0.422534866818766,-2.));
#872=CARTESIAN_POINT('',(5.2862367630033,7.24850147861836,-2.));
#873=CARTESIAN_POINT('',(5.2862367630033,7.24850147861836,-2.));
#874=CARTESIAN_POINT('',(7.2121719422,-8.32667268468867E-16,-2.));
#875=CARTESIAN_POINT('',(7.59735897803934,-1.44970029572367,-2.));
#876=CARTESIAN_POINT('',(-7.2121719422,8.32667268468867E-16,-2.));
#877=CARTESIAN_POINT('',(7.2121719422,-8.93382590128056E-16,-2.));
#878=CARTESIAN_POINT('',(-10.3879857668461,6.79442466667979,-2.));
#879=CARTESIAN_POINT('',(-6.57700917727078,-1.35888493333596,-2.));
#880=CARTESIAN_POINT('',(-14.0116789224086,5.10065729353522,-2.));
#881=CARTESIAN_POINT('',(-14.0116789224086,5.10065729353522,-2.));
#882=CARTESIAN_POINT('',(-10.8358650977626,-1.69376737314458,-2.));
#883=CARTESIAN_POINT('',(-10.2007023328333,-3.05265230648053,-2.));
#884=CARTESIAN_POINT('',(-13.5536349644345,-2.96409290300301,-2.));
#885=CARTESIAN_POINT('',(-10.8358650977626,-1.69376737314458,-2.));
#886=CARTESIAN_POINT('',(-17.999774318939,6.54810163034871,-2.));
#887=CARTESIAN_POINT('',(-13.5536349644345,-2.96409290300301,-2.));
#888=CARTESIAN_POINT('',(-9.07422498429493,10.7200344076055,-2.));
#889=CARTESIAN_POINT('',(-17.999774318939,6.54810163034871,-2.));
#890=CARTESIAN_POINT('',(1.8852409058781,9.4489428362575,-2.));
#891=CARTESIAN_POINT('',(1.8852409058781,9.4489428362575,-2.));
#892=CARTESIAN_POINT('',(11.2811307380351,11.9454415706493,-2.));
#893=CARTESIAN_POINT('',(11.2811307380351,11.9454415706493,-2.));
#894=CARTESIAN_POINT('',(13.9774399889105,1.79753950058359,-2.));
#895=CARTESIAN_POINT('Origin',(9.15210421826642,8.27566690752327,0.));
#896=CARTESIAN_POINT('',(11.0780393974631,1.02716542890491,3.));
#897=CARTESIAN_POINT('',(11.0780393974631,1.02716542890491,0.));
#898=CARTESIAN_POINT('',(9.15210421826642,8.27566690752327,3.));
#899=CARTESIAN_POINT('',(11.4632264333025,-0.422534866818766,3.));
#900=CARTESIAN_POINT('',(9.15210421826642,8.27566690752327,0.));
#901=CARTESIAN_POINT('Origin',(5.2862367630033,7.24850147861836,0.));
#902=CARTESIAN_POINT('',(5.2862367630033,7.24850147861836,3.));
#903=CARTESIAN_POINT('',(5.2862367630033,7.24850147861836,3.));
#904=CARTESIAN_POINT('',(5.2862367630033,7.24850147861836,0.));
#905=CARTESIAN_POINT('Origin',(7.2121719422,-8.32667268468867E-16,0.));
#906=CARTESIAN_POINT('',(7.2121719422,-8.32667268468867E-16,3.));
#907=CARTESIAN_POINT('',(7.59735897803934,-1.44970029572367,3.));
#908=CARTESIAN_POINT('',(7.2121719422,-8.93382590128056E-16,0.));
#909=CARTESIAN_POINT('Origin',(-7.2121719422,8.93382590128056E-16,0.));
#910=CARTESIAN_POINT('',(-7.2121719422,8.32667268468867E-16,3.));
#911=CARTESIAN_POINT('',(7.2121719422,-8.93382590128056E-16,3.));
#912=CARTESIAN_POINT('',(-7.2121719422,8.93382590128056E-16,0.));
#913=CARTESIAN_POINT('Origin',(-10.3879857668461,6.79442466667979,0.));
#914=CARTESIAN_POINT('',(-10.3879857668461,6.79442466667979,3.));
#915=CARTESIAN_POINT('',(-6.57700917727078,-1.35888493333596,3.));
#916=CARTESIAN_POINT('',(-10.3879857668461,6.79442466667979,0.));
#917=CARTESIAN_POINT('Origin',(-14.0116789224086,5.10065729353522,0.));
#918=CARTESIAN_POINT('',(-14.0116789224086,5.10065729353522,3.));
#919=CARTESIAN_POINT('',(-14.0116789224086,5.10065729353522,3.));
#920=CARTESIAN_POINT('',(-14.0116789224086,5.10065729353522,0.));
#921=CARTESIAN_POINT('Origin',(-10.8358650977626,-1.69376737314458,0.));
#922=CARTESIAN_POINT('',(-10.8358650977626,-1.69376737314458,3.));
#923=CARTESIAN_POINT('',(-10.2007023328333,-3.05265230648053,3.));
#924=CARTESIAN_POINT('',(-10.8358650977626,-1.69376737314458,0.));
#925=CARTESIAN_POINT('Origin',(-13.5536349644345,-2.96409290300301,0.));
#926=CARTESIAN_POINT('',(-13.5536349644345,-2.96409290300301,3.));
#927=CARTESIAN_POINT('',(-10.8358650977626,-1.69376737314458,3.));
#928=CARTESIAN_POINT('',(-13.5536349644345,-2.96409290300301,0.));
#929=CARTESIAN_POINT('Origin',(-17.999774318939,6.54810163034871,0.));
#930=CARTESIAN_POINT('',(-17.999774318939,6.54810163034871,3.));
#931=CARTESIAN_POINT('',(-13.5536349644345,-2.96409290300301,3.));
#932=CARTESIAN_POINT('',(-17.999774318939,6.54810163034871,0.));
#933=CARTESIAN_POINT('Origin',(-9.07422498429493,10.7200344076055,0.));
#934=CARTESIAN_POINT('',(-9.07422498429493,10.7200344076055,3.));
#935=CARTESIAN_POINT('',(-17.999774318939,6.54810163034871,3.));
#936=CARTESIAN_POINT('',(-9.07422498429493,10.7200344076055,0.));
#937=CARTESIAN_POINT('Origin',(1.8852409058781,9.4489428362575,0.));
#938=CARTESIAN_POINT('',(1.8852409058781,9.4489428362575,3.));
#939=CARTESIAN_POINT('',(1.8852409058781,9.4489428362575,3.));
#940=CARTESIAN_POINT('',(1.8852409058781,9.4489428362575,0.));
#941=CARTESIAN_POINT('Origin',(11.2811307380351,11.9454415706493,0.));
#942=CARTESIAN_POINT('',(11.2811307380351,11.9454415706493,3.));
#943=CARTESIAN_POINT('',(11.2811307380351,11.9454415706493,3.));
#944=CARTESIAN_POINT('',(11.2811307380351,11.9454415706493,0.));
#945=CARTESIAN_POINT('Origin',(13.9774399889105,1.79753950058359,0.));
#946=CARTESIAN_POINT('',(13.9774399889105,1.79753950058359,3.));
#947=CARTESIAN_POINT('',(13.9774399889105,1.79753950058359,3.));
#948=CARTESIAN_POINT('',(13.9774399889105,1.79753950058359,0.));
#949=CARTESIAN_POINT('Origin',(11.0780393974631,1.02716542890491,0.));
#950=CARTESIAN_POINT('',(11.0780393974631,1.02716542890491,3.));
#951=CARTESIAN_POINT('Origin',(-2.01116716501426,4.49067433382314,3.));
#952=CARTESIAN_POINT('',(0.,0.,0.));
#953=CARTESIAN_POINT('Origin',(0.,0.,-1.8));
#954=CARTESIAN_POINT('',(-3.4,-4.163799117101E-16,-1.8));
#955=CARTESIAN_POINT('Origin',(0.,0.,-1.8));
#956=CARTESIAN_POINT('',(-2.,-2.44929359829471E-16,-1.8));
#957=CARTESIAN_POINT('Origin',(0.,0.,-1.8));
#958=CARTESIAN_POINT('Origin',(0.,0.,1.8));
#959=CARTESIAN_POINT('',(-3.4,-4.163799117101E-16,1.8));
#960=CARTESIAN_POINT('Origin',(0.,0.,1.8));
#961=CARTESIAN_POINT('',(-2.,-2.44929359829471E-16,1.8));
#962=CARTESIAN_POINT('Origin',(0.,0.,1.8));
#963=CARTESIAN_POINT('Origin',(0.,0.,0.));
#964=CARTESIAN_POINT('',(-2.,-2.44929359829471E-16,2.));
#965=CARTESIAN_POINT('Origin',(0.,0.,2.));
#966=CARTESIAN_POINT('',(-2.,-2.44929359829471E-16,0.));
#967=CARTESIAN_POINT('Origin',(0.,0.,-2.));
#968=CARTESIAN_POINT('',(-2.,-2.44929359829471E-16,-2.));
#969=CARTESIAN_POINT('Origin',(0.,0.,-2.));
#970=CARTESIAN_POINT('',(-1.5,-1.83697019872103E-16,-2.));
#971=CARTESIAN_POINT('Origin',(0.,0.,-2.));
#972=CARTESIAN_POINT('Origin',(0.,0.,0.));
#973=CARTESIAN_POINT('',(-1.5,-1.83697019872103E-16,2.));
#974=CARTESIAN_POINT('Origin',(0.,0.,2.));
#975=CARTESIAN_POINT('',(-1.5,-1.83697019872103E-16,0.));
#976=CARTESIAN_POINT('Origin',(0.,0.,0.));
#977=CARTESIAN_POINT('',(-2.,-2.44929359829471E-16,0.));
#978=CARTESIAN_POINT('Origin',(0.,0.,2.));
#979=CARTESIAN_POINT('Origin',(0.,0.,0.));
#980=CARTESIAN_POINT('',(-3.4,-4.163799117101E-16,2.));
#981=CARTESIAN_POINT('Origin',(0.,0.,2.));
#982=CARTESIAN_POINT('',(-3.4,-4.163799117101E-16,0.));
#983=CARTESIAN_POINT('Origin',(0.,0.,-2.));
#984=CARTESIAN_POINT('',(-4.,-4.89858719658941E-16,-2.));
#985=CARTESIAN_POINT('Origin',(0.,0.,-2.));
#986=CARTESIAN_POINT('',(-3.4,-4.163799117101E-16,-2.));
#987=CARTESIAN_POINT('Origin',(0.,0.,-2.));
#988=CARTESIAN_POINT('Origin',(0.,0.,0.));
#989=CARTESIAN_POINT('',(-3.4,-4.163799117101E-16,0.));
#990=CARTESIAN_POINT('Origin',(0.,0.,0.));
#991=CARTESIAN_POINT('',(-4.,-4.89858719658941E-16,2.));
#992=CARTESIAN_POINT('Origin',(0.,0.,2.));
#993=CARTESIAN_POINT('',(-4.,-4.89858719658941E-16,0.));
#994=CARTESIAN_POINT('Origin',(0.,0.,2.));
#995=CARTESIAN_POINT('',(0.,0.,0.));
#996=CARTESIAN_POINT('',(8.37473159815287,3.41298330589979,0.500000000000001));
#997=CARTESIAN_POINT('',(-10.2943440498397,1.87088618009963,0.5));
#998=UNCERTAINTY_MEASURE_WITH_UNIT(LENGTH_MEASURE(0.01),#1006,
'DISTANCE_ACCURACY_VALUE',
'Maximum model space distance between geometric entities at asserted c
onnectivities');
#999=UNCERTAINTY_MEASURE_WITH_UNIT(LENGTH_MEASURE(0.01),#1006,
'DISTANCE_ACCURACY_VALUE',
'Maximum model space distance between geometric entities at asserted c
onnectivities');
#1000=UNCERTAINTY_MEASURE_WITH_UNIT(LENGTH_MEASURE(0.01),#1006,
'DISTANCE_ACCURACY_VALUE',
'Maximum model space distance between geometric entities at asserted c
onnectivities');
#1001=UNCERTAINTY_MEASURE_WITH_UNIT(LENGTH_MEASURE(0.01),#1006,
'DISTANCE_ACCURACY_VALUE',
'Maximum model space distance between geometric entities at asserted c
onnectivities');
#1002=(
GEOMETRIC_REPRESENTATION_CONTEXT(3)
GLOBAL_UNCERTAINTY_ASSIGNED_CONTEXT((#998))
GLOBAL_UNIT_ASSIGNED_CONTEXT((#1006,#1008,#1009))
REPRESENTATION_CONTEXT('','3D')
);
#1003=(
GEOMETRIC_REPRESENTATION_CONTEXT(3)
GLOBAL_UNCERTAINTY_ASSIGNED_CONTEXT((#999))
GLOBAL_UNIT_ASSIGNED_CONTEXT((#1006,#1008,#1009))
REPRESENTATION_CONTEXT('','3D')
);
#1004=(
GEOMETRIC_REPRESENTATION_CONTEXT(3)
GLOBAL_UNCERTAINTY_ASSIGNED_CONTEXT((#1000))
GLOBAL_UNIT_ASSIGNED_CONTEXT((#1006,#1008,#1009))
REPRESENTATION_CONTEXT('','3D')
);
#1005=(
GEOMETRIC_REPRESENTATION_CONTEXT(3)
GLOBAL_UNCERTAINTY_ASSIGNED_CONTEXT((#1001))
GLOBAL_UNIT_ASSIGNED_CONTEXT((#1006,#1008,#1009))
REPRESENTATION_CONTEXT('','3D')
);
#1006=(
LENGTH_UNIT()
NAMED_UNIT(*)
SI_UNIT(.MILLI.,.METRE.)
);
#1007=(
LENGTH_UNIT()
NAMED_UNIT(*)
SI_UNIT($,.METRE.)
);
#1008=(
NAMED_UNIT(*)
PLANE_ANGLE_UNIT()
SI_UNIT($,.RADIAN.)
);
#1009=(
NAMED_UNIT(*)
SI_UNIT($,.STERADIAN.)
SOLID_ANGLE_UNIT()
);
#1010=SHAPE_DEFINITION_REPRESENTATION(#1013,#1019);
#1011=SHAPE_DEFINITION_REPRESENTATION(#1014,#1020);
#1012=SHAPE_DEFINITION_REPRESENTATION(#1015,#1021);
#1013=PRODUCT_DEFINITION_SHAPE('',$,#1023);
#1014=PRODUCT_DEFINITION_SHAPE('',$,#1024);
#1015=PRODUCT_DEFINITION_SHAPE('',$,#1025);
#1016=PRODUCT_DEFINITION_SHAPE($,$,#20);
#1017=PRODUCT_DEFINITION_SHAPE($,$,#21);
#1018=PRODUCT_DEFINITION_SHAPE($,$,#22);
#1019=SHAPE_REPRESENTATION('',(#606,#663,#664,#665),#1002);
#1020=SHAPE_REPRESENTATION('',(#607),#1003);
#1021=SHAPE_REPRESENTATION('',(#638),#1004);
#1022=PRODUCT_DEFINITION_CONTEXT('part definition',#1033,'design');
#1023=PRODUCT_DEFINITION('Untitled','Untitled v1',#1026,#1022);
#1024=PRODUCT_DEFINITION('slide','slide v2',#1027,#1022);
#1025=PRODUCT_DEFINITION('Bearing','Bearing v1',#1028,#1022);
#1026=PRODUCT_DEFINITION_FORMATION('',$,#1035);
#1027=PRODUCT_DEFINITION_FORMATION('',$,#1036);
#1028=PRODUCT_DEFINITION_FORMATION('',$,#1037);
#1029=PRODUCT_RELATED_PRODUCT_CATEGORY('Untitled v1','Untitled v1',(#1035));
#1030=PRODUCT_RELATED_PRODUCT_CATEGORY('slide v2','slide v2',(#1036));
#1031=PRODUCT_RELATED_PRODUCT_CATEGORY('Bearing v1','Bearing v1',(#1037));
#1032=APPLICATION_PROTOCOL_DEFINITION('international standard',
'automotive_design',2009,#1033);
#1033=APPLICATION_CONTEXT(
'Core Data for Automotive Mechanical Design Process');
#1034=PRODUCT_CONTEXT('part definition',#1033,'mechanical');
#1035=PRODUCT('Untitled','Untitled v1',$,(#1034));
#1036=PRODUCT('slide','slide v2',$,(#1034));
#1037=PRODUCT('Bearing','Bearing v1',$,(#1034));
#1038=PRESENTATION_STYLE_ASSIGNMENT((#1041));
#1039=PRESENTATION_STYLE_ASSIGNMENT((#1042));
#1040=PRESENTATION_STYLE_ASSIGNMENT((#1043));
#1041=SURFACE_STYLE_USAGE(.BOTH.,#1044);
#1042=SURFACE_STYLE_USAGE(.BOTH.,#1045);
#1043=SURFACE_STYLE_USAGE(.BOTH.,#1046);
#1044=SURFACE_SIDE_STYLE('',(#1047));
#1045=SURFACE_SIDE_STYLE('',(#1048));
#1046=SURFACE_SIDE_STYLE('',(#1049));
#1047=SURFACE_STYLE_FILL_AREA(#1050);
#1048=SURFACE_STYLE_FILL_AREA(#1051);
#1049=SURFACE_STYLE_FILL_AREA(#1052);
#1050=FILL_AREA_STYLE('Steel - Satin',(#1053));
#1051=FILL_AREA_STYLE('Paint - Metallic (Silver)',(#1054));
#1052=FILL_AREA_STYLE('Plastic - Matte (Blue)',(#1055));
#1053=FILL_AREA_STYLE_COLOUR('Steel - Satin',#1056);
#1054=FILL_AREA_STYLE_COLOUR('Paint - Metallic (Silver)',#1057);
#1055=FILL_AREA_STYLE_COLOUR('Plastic - Matte (Blue)',#1058);
#1056=COLOUR_RGB('Steel - Satin',0.627450980392157,0.627450980392157,0.627450980392157);
#1057=COLOUR_RGB('Paint - Metallic (Silver)',0.984313725490196,0.980392156862745,
0.96078431372549);
#1058=COLOUR_RGB('Plastic - Matte (Blue)',0.188235294117647,0.231372549019608,
0.588235294117647);
ENDSEC;
END-ISO-10303-21;
