ISO-10303-21;
HEADER;
/* Generated by software containing ST-Developer
 * from STEP Tools, Inc. (www.steptools.com) 
 */

FILE_DESCRIPTION(
/* description */ (''),
/* implementation_level */ '2;1');

FILE_NAME(
/* name */ '4mmIDx12mm Bushing_v1.step',
/* time_stamp */ '2026-08-21T09:16:39-04:00',
/* author */ (''),
/* organization */ (''),
/* preprocessor_version */ 'ST-DEVELOPER v20.1',
/* originating_system */ 'Autodesk Translation Framework v15.8.0.0',
/* authorisation */ '');

FILE_SCHEMA (('AUTOMOTIVE_DESIGN { 1 0 10303 214 3 1 1 }'));
ENDSEC;

DATA;
#10=MECHANICAL_DESIGN_GEOMETRIC_PRESENTATION_REPRESENTATION('',(#13),#225);
#11=SHAPE_REPRESENTATION_RELATIONSHIP('SRR','None',#232,#12);
#12=ADVANCED_BREP_SHAPE_REPRESENTATION('',(#14),#224);
#13=STYLED_ITEM('',(#242),#14);
#14=MANIFOLD_SOLID_BREP('Body1',#121);
#15=CYLINDRICAL_SURFACE('',#140,3.);
#16=CYLINDRICAL_SURFACE('',#144,2.);
#17=FACE_BOUND('',#31,.T.);
#18=FACE_BOUND('',#37,.T.);
#19=PLANE('',#138);
#20=PLANE('',#148);
#21=FACE_OUTER_BOUND('',#29,.T.);
#22=FACE_OUTER_BOUND('',#30,.T.);
#23=FACE_OUTER_BOUND('',#32,.T.);
#24=FACE_OUTER_BOUND('',#33,.T.);
#25=FACE_OUTER_BOUND('',#34,.T.);
#26=FACE_OUTER_BOUND('',#35,.T.);
#27=FACE_OUTER_BOUND('',#36,.T.);
#28=FACE_OUTER_BOUND('',#38,.T.);
#29=EDGE_LOOP('',(#81,#82,#83,#84));
#30=EDGE_LOOP('',(#85));
#31=EDGE_LOOP('',(#86));
#32=EDGE_LOOP('',(#87,#88,#89,#90));
#33=EDGE_LOOP('',(#91,#92,#93,#94));
#34=EDGE_LOOP('',(#95,#96,#97,#98));
#35=EDGE_LOOP('',(#99,#100,#101,#102));
#36=EDGE_LOOP('',(#103));
#37=EDGE_LOOP('',(#104));
#38=EDGE_LOOP('',(#105,#106,#107,#108));
#39=LINE('',#196,#45);
#40=LINE('',#203,#46);
#41=LINE('',#207,#47);
#42=LINE('',#211,#48);
#43=LINE('',#215,#49);
#44=LINE('',#221,#50);
#45=VECTOR('',#157,2.85);
#46=VECTOR('',#166,3.);
#47=VECTOR('',#171,2.15);
#48=VECTOR('',#176,2.);
#49=VECTOR('',#181,2.85);
#50=VECTOR('',#190,2.15);
#51=CIRCLE('',#136,2.7);
#52=CIRCLE('',#137,3.);
#53=CIRCLE('',#139,2.3);
#54=CIRCLE('',#141,3.);
#55=CIRCLE('',#143,2.);
#56=CIRCLE('',#145,2.);
#57=CIRCLE('',#147,2.7);
#58=CIRCLE('',#149,2.3);
#59=VERTEX_POINT('',#193);
#60=VERTEX_POINT('',#195);
#61=VERTEX_POINT('',#199);
#62=VERTEX_POINT('',#202);
#63=VERTEX_POINT('',#206);
#64=VERTEX_POINT('',#210);
#65=VERTEX_POINT('',#214);
#66=VERTEX_POINT('',#218);
#67=EDGE_CURVE('',#59,#59,#51,.T.);
#68=EDGE_CURVE('',#59,#60,#39,.T.);
#69=EDGE_CURVE('',#60,#60,#52,.T.);
#70=EDGE_CURVE('',#61,#61,#53,.T.);
#71=EDGE_CURVE('',#60,#62,#40,.T.);
#72=EDGE_CURVE('',#62,#62,#54,.T.);
#73=EDGE_CURVE('',#61,#63,#41,.T.);
#74=EDGE_CURVE('',#63,#63,#55,.T.);
#75=EDGE_CURVE('',#63,#64,#42,.T.);
#76=EDGE_CURVE('',#64,#64,#56,.T.);
#77=EDGE_CURVE('',#62,#65,#43,.T.);
#78=EDGE_CURVE('',#65,#65,#57,.T.);
#79=EDGE_CURVE('',#66,#66,#58,.T.);
#80=EDGE_CURVE('',#64,#66,#44,.T.);
#81=ORIENTED_EDGE('',*,*,#67,.T.);
#82=ORIENTED_EDGE('',*,*,#68,.T.);
#83=ORIENTED_EDGE('',*,*,#69,.T.);
#84=ORIENTED_EDGE('',*,*,#68,.F.);
#85=ORIENTED_EDGE('',*,*,#67,.F.);
#86=ORIENTED_EDGE('',*,*,#70,.F.);
#87=ORIENTED_EDGE('',*,*,#69,.F.);
#88=ORIENTED_EDGE('',*,*,#71,.T.);
#89=ORIENTED_EDGE('',*,*,#72,.F.);
#90=ORIENTED_EDGE('',*,*,#71,.F.);
#91=ORIENTED_EDGE('',*,*,#70,.T.);
#92=ORIENTED_EDGE('',*,*,#73,.T.);
#93=ORIENTED_EDGE('',*,*,#74,.T.);
#94=ORIENTED_EDGE('',*,*,#73,.F.);
#95=ORIENTED_EDGE('',*,*,#74,.F.);
#96=ORIENTED_EDGE('',*,*,#75,.T.);
#97=ORIENTED_EDGE('',*,*,#76,.F.);
#98=ORIENTED_EDGE('',*,*,#75,.F.);
#99=ORIENTED_EDGE('',*,*,#72,.T.);
#100=ORIENTED_EDGE('',*,*,#77,.T.);
#101=ORIENTED_EDGE('',*,*,#78,.T.);
#102=ORIENTED_EDGE('',*,*,#77,.F.);
#103=ORIENTED_EDGE('',*,*,#78,.F.);
#104=ORIENTED_EDGE('',*,*,#79,.F.);
#105=ORIENTED_EDGE('',*,*,#76,.T.);
#106=ORIENTED_EDGE('',*,*,#80,.T.);
#107=ORIENTED_EDGE('',*,*,#79,.T.);
#108=ORIENTED_EDGE('',*,*,#80,.F.);
#109=CONICAL_SURFACE('',#135,2.85,0.785398163397447);
#110=CONICAL_SURFACE('',#142,2.15,0.785398163397448);
#111=CONICAL_SURFACE('',#146,2.85,0.785398163397448);
#112=CONICAL_SURFACE('',#150,2.15,0.785398163397448);
#113=ADVANCED_FACE('',(#21),#109,.T.);
#114=ADVANCED_FACE('',(#22,#17),#19,.T.);
#115=ADVANCED_FACE('',(#23),#15,.T.);
#116=ADVANCED_FACE('',(#24),#110,.F.);
#117=ADVANCED_FACE('',(#25),#16,.F.);
#118=ADVANCED_FACE('',(#26),#111,.T.);
#119=ADVANCED_FACE('',(#27,#18),#20,.F.);
#120=ADVANCED_FACE('',(#28),#112,.F.);
#121=CLOSED_SHELL('',(#113,#114,#115,#116,#117,#118,#119,#120));
#122=DERIVED_UNIT_ELEMENT(#124,1.);
#123=DERIVED_UNIT_ELEMENT(#227,-3.);
#124=(
MASS_UNIT()
NAMED_UNIT(*)
SI_UNIT(.KILO.,.GRAM.)
);
#125=DERIVED_UNIT((#122,#123));
#126=MEASURE_REPRESENTATION_ITEM('density measure',
POSITIVE_RATIO_MEASURE(7850.),#125);
#127=PROPERTY_DEFINITION_REPRESENTATION(#132,#129);
#128=PROPERTY_DEFINITION_REPRESENTATION(#133,#130);
#129=REPRESENTATION('material name',(#131),#224);
#130=REPRESENTATION('density',(#126),#224);
#131=DESCRIPTIVE_REPRESENTATION_ITEM('Steel','Steel');
#132=PROPERTY_DEFINITION('material property','material name',#234);
#133=PROPERTY_DEFINITION('material property','density of part',#234);
#134=AXIS2_PLACEMENT_3D('',#191,#151,#152);
#135=AXIS2_PLACEMENT_3D('',#192,#153,#154);
#136=AXIS2_PLACEMENT_3D('',#194,#155,#156);
#137=AXIS2_PLACEMENT_3D('',#197,#158,#159);
#138=AXIS2_PLACEMENT_3D('',#198,#160,#161);
#139=AXIS2_PLACEMENT_3D('',#200,#162,#163);
#140=AXIS2_PLACEMENT_3D('',#201,#164,#165);
#141=AXIS2_PLACEMENT_3D('',#204,#167,#168);
#142=AXIS2_PLACEMENT_3D('',#205,#169,#170);
#143=AXIS2_PLACEMENT_3D('',#208,#172,#173);
#144=AXIS2_PLACEMENT_3D('',#209,#174,#175);
#145=AXIS2_PLACEMENT_3D('',#212,#177,#178);
#146=AXIS2_PLACEMENT_3D('',#213,#179,#180);
#147=AXIS2_PLACEMENT_3D('',#216,#182,#183);
#148=AXIS2_PLACEMENT_3D('',#217,#184,#185);
#149=AXIS2_PLACEMENT_3D('',#219,#186,#187);
#150=AXIS2_PLACEMENT_3D('',#220,#188,#189);
#151=DIRECTION('axis',(0.,0.,1.));
#152=DIRECTION('refdir',(1.,0.,0.));
#153=DIRECTION('center_axis',(0.,0.,-1.));
#154=DIRECTION('ref_axis',(1.,0.,0.));
#155=DIRECTION('center_axis',(0.,0.,-1.));
#156=DIRECTION('ref_axis',(1.,0.,0.));
#157=DIRECTION('',(-0.707106781186547,-8.65956056235492E-17,-0.707106781186548));
#158=DIRECTION('center_axis',(0.,0.,1.));
#159=DIRECTION('ref_axis',(1.,0.,0.));
#160=DIRECTION('center_axis',(0.,0.,1.));
#161=DIRECTION('ref_axis',(1.,0.,0.));
#162=DIRECTION('center_axis',(0.,0.,1.));
#163=DIRECTION('ref_axis',(1.,0.,0.));
#164=DIRECTION('center_axis',(0.,0.,1.));
#165=DIRECTION('ref_axis',(1.,0.,0.));
#166=DIRECTION('',(0.,0.,-1.));
#167=DIRECTION('center_axis',(0.,0.,-1.));
#168=DIRECTION('ref_axis',(1.,0.,0.));
#169=DIRECTION('center_axis',(0.,0.,1.));
#170=DIRECTION('ref_axis',(1.,0.,0.));
#171=DIRECTION('',(0.707106781186547,8.65956056235493E-17,-0.707106781186548));
#172=DIRECTION('center_axis',(0.,0.,-1.));
#173=DIRECTION('ref_axis',(1.,0.,0.));
#174=DIRECTION('center_axis',(0.,0.,1.));
#175=DIRECTION('ref_axis',(1.,0.,0.));
#176=DIRECTION('',(0.,0.,-1.));
#177=DIRECTION('center_axis',(0.,0.,1.));
#178=DIRECTION('ref_axis',(1.,0.,0.));
#179=DIRECTION('center_axis',(0.,0.,1.));
#180=DIRECTION('ref_axis',(1.,0.,0.));
#181=DIRECTION('',(0.707106781186547,8.65956056235493E-17,-0.707106781186548));
#182=DIRECTION('center_axis',(0.,0.,1.));
#183=DIRECTION('ref_axis',(1.,0.,0.));
#184=DIRECTION('center_axis',(0.,0.,1.));
#185=DIRECTION('ref_axis',(1.,0.,0.));
#186=DIRECTION('center_axis',(0.,0.,-1.));
#187=DIRECTION('ref_axis',(1.,0.,0.));
#188=DIRECTION('center_axis',(0.,0.,-1.));
#189=DIRECTION('ref_axis',(1.,0.,0.));
#190=DIRECTION('',(-0.707106781186548,-8.65956056235493E-17,-0.707106781186548));
#191=CARTESIAN_POINT('',(0.,0.,0.));
#192=CARTESIAN_POINT('Origin',(0.,0.,11.85));
#193=CARTESIAN_POINT('',(-2.7,3.30654635769785E-16,12.));
#194=CARTESIAN_POINT('Origin',(0.,0.,12.));
#195=CARTESIAN_POINT('',(-3.,-3.67394039744206E-16,11.7));
#196=CARTESIAN_POINT('',(-2.85,-3.49024337756996E-16,11.85));
#197=CARTESIAN_POINT('Origin',(0.,0.,11.7));
#198=CARTESIAN_POINT('Origin',(0.,0.,12.));
#199=CARTESIAN_POINT('',(-2.3,-2.81668763803891E-16,12.));
#200=CARTESIAN_POINT('Origin',(0.,0.,12.));
#201=CARTESIAN_POINT('Origin',(0.,0.,0.));
#202=CARTESIAN_POINT('',(-3.,3.67394039744206E-16,0.3));
#203=CARTESIAN_POINT('',(-3.,-3.67394039744206E-16,0.));
#204=CARTESIAN_POINT('Origin',(0.,0.,0.3));
#205=CARTESIAN_POINT('Origin',(0.,0.,11.85));
#206=CARTESIAN_POINT('',(-2.,2.44929359829471E-16,11.7));
#207=CARTESIAN_POINT('',(-2.15,-2.63299061816681E-16,11.85));
#208=CARTESIAN_POINT('Origin',(0.,0.,11.7));
#209=CARTESIAN_POINT('Origin',(0.,0.,0.));
#210=CARTESIAN_POINT('',(-2.,-2.44929359829471E-16,0.3));
#211=CARTESIAN_POINT('',(-2.,-2.44929359829471E-16,0.));
#212=CARTESIAN_POINT('Origin',(0.,0.,0.3));
#213=CARTESIAN_POINT('Origin',(0.,0.,0.15));
#214=CARTESIAN_POINT('',(-2.7,-3.30654635769785E-16,0.));
#215=CARTESIAN_POINT('',(-2.85,-3.49024337756996E-16,0.15));
#216=CARTESIAN_POINT('Origin',(0.,0.,0.));
#217=CARTESIAN_POINT('Origin',(0.,0.,0.));
#218=CARTESIAN_POINT('',(-2.3,2.81668763803891E-16,0.));
#219=CARTESIAN_POINT('Origin',(0.,0.,0.));
#220=CARTESIAN_POINT('Origin',(0.,0.,0.15));
#221=CARTESIAN_POINT('',(-2.15,-2.63299061816681E-16,0.15));
#222=UNCERTAINTY_MEASURE_WITH_UNIT(LENGTH_MEASURE(0.01),#226,
'DISTANCE_ACCURACY_VALUE',
'Maximum model space distance between geometric entities at asserted c
onnectivities');
#223=UNCERTAINTY_MEASURE_WITH_UNIT(LENGTH_MEASURE(0.01),#226,
'DISTANCE_ACCURACY_VALUE',
'Maximum model space distance between geometric entities at asserted c
onnectivities');
#224=(
GEOMETRIC_REPRESENTATION_CONTEXT(3)
GLOBAL_UNCERTAINTY_ASSIGNED_CONTEXT((#222))
GLOBAL_UNIT_ASSIGNED_CONTEXT((#226,#228,#229))
REPRESENTATION_CONTEXT('','3D')
);
#225=(
GEOMETRIC_REPRESENTATION_CONTEXT(3)
GLOBAL_UNCERTAINTY_ASSIGNED_CONTEXT((#223))
GLOBAL_UNIT_ASSIGNED_CONTEXT((#226,#228,#229))
REPRESENTATION_CONTEXT('','3D')
);
#226=(
LENGTH_UNIT()
NAMED_UNIT(*)
SI_UNIT(.MILLI.,.METRE.)
);
#227=(
LENGTH_UNIT()
NAMED_UNIT(*)
SI_UNIT($,.METRE.)
);
#228=(
NAMED_UNIT(*)
PLANE_ANGLE_UNIT()
SI_UNIT($,.RADIAN.)
);
#229=(
NAMED_UNIT(*)
SI_UNIT($,.STERADIAN.)
SOLID_ANGLE_UNIT()
);
#230=SHAPE_DEFINITION_REPRESENTATION(#231,#232);
#231=PRODUCT_DEFINITION_SHAPE('',$,#234);
#232=SHAPE_REPRESENTATION('',(#134),#224);
#233=PRODUCT_DEFINITION_CONTEXT('part definition',#238,'design');
#234=PRODUCT_DEFINITION('4mmIDx12mm Bushing','4mmIDx12mm Bushing v1',#235,
#233);
#235=PRODUCT_DEFINITION_FORMATION('',$,#240);
#236=PRODUCT_RELATED_PRODUCT_CATEGORY('4mmIDx12mm Bushing v1',
'4mmIDx12mm Bushing v1',(#240));
#237=APPLICATION_PROTOCOL_DEFINITION('international standard',
'automotive_design',2009,#238);
#238=APPLICATION_CONTEXT(
'Core Data for Automotive Mechanical Design Process');
#239=PRODUCT_CONTEXT('part definition',#238,'mechanical');
#240=PRODUCT('4mmIDx12mm Bushing','4mmIDx12mm Bushing v1',$,(#239));
#241=PRESENTATION_STYLE_ASSIGNMENT((#243));
#242=PRESENTATION_STYLE_ASSIGNMENT((#244));
#243=SURFACE_STYLE_USAGE(.BOTH.,#245);
#244=SURFACE_STYLE_USAGE(.BOTH.,#246);
#245=SURFACE_SIDE_STYLE('',(#247));
#246=SURFACE_SIDE_STYLE('',(#248));
#247=SURFACE_STYLE_FILL_AREA(#249);
#248=SURFACE_STYLE_FILL_AREA(#250);
#249=FILL_AREA_STYLE('Steel - Satin',(#251));
#250=FILL_AREA_STYLE('Brass - Matte',(#252));
#251=FILL_AREA_STYLE_COLOUR('Steel - Satin',#253);
#252=FILL_AREA_STYLE_COLOUR('Brass - Matte',#254);
#253=COLOUR_RGB('Steel - Satin',0.627450980392157,0.627450980392157,0.627450980392157);
#254=COLOUR_RGB('Brass - Matte',0.952941176470588,0.796078431372549,0.486274509803922);
ENDSEC;
END-ISO-10303-21;
