ISO-10303-21;
HEADER;
/* Generated by software containing ST-Developer
 * from STEP Tools, Inc. (www.steptools.com) 
 */

FILE_DESCRIPTION(
/* description */ (''),
/* implementation_level */ '2;1');

FILE_NAME(
/* name */ 'Roller_v1.step',
/* time_stamp */ '2026-08-21T09:16:49-04:00',
/* author */ (''),
/* organization */ (''),
/* preprocessor_version */ 'ST-DEVELOPER v20.1',
/* originating_system */ 'Autodesk Translation Framework v15.8.0.0',
/* authorisation */ '');

FILE_SCHEMA (('AUTOMOTIVE_DESIGN { 1 0 10303 214 3 1 1 }'));
ENDSEC;

DATA;
#10=MECHANICAL_DESIGN_GEOMETRIC_PRESENTATION_REPRESENTATION('',(#240,#241,
#242,#243),#509);
#11=ITEM_DEFINED_TRANSFORMATION($,$,#288,#330);
#12=ITEM_DEFINED_TRANSFORMATION($,$,#313,#331);
#13=(
REPRESENTATION_RELATIONSHIP($,$,#523,#522)
REPRESENTATION_RELATIONSHIP_WITH_TRANSFORMATION(#11)
SHAPE_REPRESENTATION_RELATIONSHIP()
);
#14=(
REPRESENTATION_RELATIONSHIP($,$,#524,#522)
REPRESENTATION_RELATIONSHIP_WITH_TRANSFORMATION(#12)
SHAPE_REPRESENTATION_RELATIONSHIP()
);
#15=CONTEXT_DEPENDENT_SHAPE_REPRESENTATION(#13,#520);
#16=CONTEXT_DEPENDENT_SHAPE_REPRESENTATION(#14,#521);
#17=NEXT_ASSEMBLY_USAGE_OCCURRENCE('Bearing v1:1','Bearing v1:1',
'Bearing v1:1',#526,#527,'Bearing v1:1');
#18=NEXT_ASSEMBLY_USAGE_OCCURRENCE('BearingSleeve v1:1',
'BearingSleeve v1:1','BearingSleeve v1:1',#526,#528,
'BearingSleeve v1:1');
#19=CONICAL_SURFACE('',#319,5.30000004842877,1.56454601266646);
#20=TOROIDAL_SURFACE('',#314,5.52449987394685,0.2);
#21=TOROIDAL_SURFACE('',#321,5.53281274528916,0.2);
#22=TOROIDAL_SURFACE('',#328,6.85301863362346,2.03830327580119);
#23=SHAPE_REPRESENTATION_RELATIONSHIP('SRR','None',#523,#25);
#24=SHAPE_REPRESENTATION_RELATIONSHIP('SRR','None',#524,#26);
#25=ADVANCED_BREP_SHAPE_REPRESENTATION('',(#27),#507);
#26=ADVANCED_BREP_SHAPE_REPRESENTATION('',(#28),#508);
#27=MANIFOLD_SOLID_BREP('Body1',#262);
#28=MANIFOLD_SOLID_BREP('Body1',#263);
#29=LINE('',#445,#37);
#30=LINE('',#454,#38);
#31=LINE('',#456,#39);
#32=LINE('',#461,#40);
#33=LINE('',#468,#41);
#34=LINE('',#472,#42);
#35=LINE('',#486,#43);
#36=LINE('',#497,#44);
#37=VECTOR('',#352,2.);
#38=VECTOR('',#363,1.5);
#39=VECTOR('',#366,2.);
#40=VECTOR('',#373,3.4);
#41=VECTOR('',#382,3.4);
#42=VECTOR('',#387,4.);
#43=VECTOR('',#406,5.30000004842877);
#44=VECTOR('',#421,4.1);
#45=CYLINDRICAL_SURFACE('',#295,2.);
#46=CYLINDRICAL_SURFACE('',#300,1.5);
#47=CYLINDRICAL_SURFACE('',#302,2.);
#48=CYLINDRICAL_SURFACE('',#304,3.4);
#49=CYLINDRICAL_SURFACE('',#309,3.4);
#50=CYLINDRICAL_SURFACE('',#310,4.);
#51=CYLINDRICAL_SURFACE('',#327,4.);
#52=FACE_BOUND('',#78,.T.);
#53=FACE_BOUND('',#80,.T.);
#54=FACE_BOUND('',#83,.T.);
#55=FACE_BOUND('',#87,.T.);
#56=FACE_BOUND('',#90,.T.);
#57=FACE_BOUND('',#94,.T.);
#58=FACE_BOUND('',#99,.T.);
#59=FACE_OUTER_BOUND('',#77,.T.);
#60=FACE_OUTER_BOUND('',#79,.T.);
#61=FACE_OUTER_BOUND('',#81,.T.);
#62=FACE_OUTER_BOUND('',#82,.T.);
#63=FACE_OUTER_BOUND('',#84,.T.);
#64=FACE_OUTER_BOUND('',#85,.T.);
#65=FACE_OUTER_BOUND('',#86,.T.);
#66=FACE_OUTER_BOUND('',#88,.T.);
#67=FACE_OUTER_BOUND('',#89,.T.);
#68=FACE_OUTER_BOUND('',#91,.T.);
#69=FACE_OUTER_BOUND('',#92,.T.);
#70=FACE_OUTER_BOUND('',#93,.T.);
#71=FACE_OUTER_BOUND('',#95,.T.);
#72=FACE_OUTER_BOUND('',#96,.T.);
#73=FACE_OUTER_BOUND('',#97,.T.);
#74=FACE_OUTER_BOUND('',#98,.T.);
#75=FACE_OUTER_BOUND('',#100,.T.);
#76=FACE_OUTER_BOUND('',#101,.T.);
#77=EDGE_LOOP('',(#173));
#78=EDGE_LOOP('',(#174));
#79=EDGE_LOOP('',(#175));
#80=EDGE_LOOP('',(#176));
#81=EDGE_LOOP('',(#177,#178,#179,#180));
#82=EDGE_LOOP('',(#181));
#83=EDGE_LOOP('',(#182));
#84=EDGE_LOOP('',(#183,#184,#185,#186));
#85=EDGE_LOOP('',(#187,#188,#189,#190));
#86=EDGE_LOOP('',(#191));
#87=EDGE_LOOP('',(#192));
#88=EDGE_LOOP('',(#193,#194,#195,#196));
#89=EDGE_LOOP('',(#197));
#90=EDGE_LOOP('',(#198));
#91=EDGE_LOOP('',(#199,#200,#201,#202));
#92=EDGE_LOOP('',(#203,#204,#205,#206));
#93=EDGE_LOOP('',(#207));
#94=EDGE_LOOP('',(#208));
#95=EDGE_LOOP('',(#209,#210,#211,#212,#213));
#96=EDGE_LOOP('',(#214,#215,#216,#217,#218));
#97=EDGE_LOOP('',(#219,#220,#221,#222));
#98=EDGE_LOOP('',(#223));
#99=EDGE_LOOP('',(#224));
#100=EDGE_LOOP('',(#225,#226,#227,#228));
#101=EDGE_LOOP('',(#229,#230,#231,#232));
#102=CIRCLE('',#290,3.4);
#103=CIRCLE('',#291,2.);
#104=CIRCLE('',#293,3.4);
#105=CIRCLE('',#294,2.);
#106=CIRCLE('',#296,2.);
#107=CIRCLE('',#298,2.);
#108=CIRCLE('',#299,1.5);
#109=CIRCLE('',#301,1.5);
#110=CIRCLE('',#305,3.4);
#111=CIRCLE('',#307,4.);
#112=CIRCLE('',#308,3.4);
#113=CIRCLE('',#311,4.);
#114=CIRCLE('',#315,5.64320753738456);
#115=CIRCLE('',#316,0.2);
#116=CIRCLE('',#317,5.5232498192604);
#117=CIRCLE('',#318,5.5232498192604);
#118=CIRCLE('',#320,4.);
#119=CIRCLE('',#322,5.53281274528916);
#120=CIRCLE('',#323,0.2);
#121=CIRCLE('',#324,5.6507776254381);
#122=CIRCLE('',#326,4.);
#123=CIRCLE('',#329,2.03830327580119);
#124=VERTEX_POINT('',#433);
#125=VERTEX_POINT('',#435);
#126=VERTEX_POINT('',#438);
#127=VERTEX_POINT('',#440);
#128=VERTEX_POINT('',#443);
#129=VERTEX_POINT('',#447);
#130=VERTEX_POINT('',#449);
#131=VERTEX_POINT('',#452);
#132=VERTEX_POINT('',#459);
#133=VERTEX_POINT('',#463);
#134=VERTEX_POINT('',#465);
#135=VERTEX_POINT('',#470);
#136=VERTEX_POINT('',#476);
#137=VERTEX_POINT('',#478);
#138=VERTEX_POINT('',#480);
#139=VERTEX_POINT('',#484);
#140=VERTEX_POINT('',#488);
#141=VERTEX_POINT('',#490);
#142=VERTEX_POINT('',#494);
#143=EDGE_CURVE('',#124,#124,#102,.T.);
#144=EDGE_CURVE('',#125,#125,#103,.T.);
#145=EDGE_CURVE('',#126,#126,#104,.T.);
#146=EDGE_CURVE('',#127,#127,#105,.T.);
#147=EDGE_CURVE('',#128,#128,#106,.T.);
#148=EDGE_CURVE('',#128,#127,#29,.T.);
#149=EDGE_CURVE('',#129,#129,#107,.T.);
#150=EDGE_CURVE('',#130,#130,#108,.T.);
#151=EDGE_CURVE('',#131,#131,#109,.T.);
#152=EDGE_CURVE('',#131,#130,#30,.T.);
#153=EDGE_CURVE('',#125,#129,#31,.T.);
#154=EDGE_CURVE('',#132,#132,#110,.T.);
#155=EDGE_CURVE('',#132,#126,#32,.T.);
#156=EDGE_CURVE('',#133,#133,#111,.T.);
#157=EDGE_CURVE('',#134,#134,#112,.T.);
#158=EDGE_CURVE('',#124,#134,#33,.T.);
#159=EDGE_CURVE('',#135,#135,#113,.T.);
#160=EDGE_CURVE('',#135,#133,#34,.T.);
#161=EDGE_CURVE('',#136,#136,#114,.T.);
#162=EDGE_CURVE('',#136,#137,#115,.T.);
#163=EDGE_CURVE('',#137,#138,#116,.T.);
#164=EDGE_CURVE('',#138,#137,#117,.T.);
#165=EDGE_CURVE('',#139,#139,#118,.F.);
#166=EDGE_CURVE('',#139,#138,#35,.T.);
#167=EDGE_CURVE('',#140,#140,#119,.T.);
#168=EDGE_CURVE('',#140,#141,#120,.T.);
#169=EDGE_CURVE('',#141,#141,#121,.T.);
#170=EDGE_CURVE('',#142,#142,#122,.T.);
#171=EDGE_CURVE('',#142,#139,#36,.T.);
#172=EDGE_CURVE('',#136,#141,#123,.T.);
#173=ORIENTED_EDGE('',*,*,#143,.F.);
#174=ORIENTED_EDGE('',*,*,#144,.F.);
#175=ORIENTED_EDGE('',*,*,#145,.F.);
#176=ORIENTED_EDGE('',*,*,#146,.F.);
#177=ORIENTED_EDGE('',*,*,#147,.F.);
#178=ORIENTED_EDGE('',*,*,#148,.T.);
#179=ORIENTED_EDGE('',*,*,#146,.T.);
#180=ORIENTED_EDGE('',*,*,#148,.F.);
#181=ORIENTED_EDGE('',*,*,#149,.T.);
#182=ORIENTED_EDGE('',*,*,#150,.T.);
#183=ORIENTED_EDGE('',*,*,#151,.F.);
#184=ORIENTED_EDGE('',*,*,#152,.T.);
#185=ORIENTED_EDGE('',*,*,#150,.F.);
#186=ORIENTED_EDGE('',*,*,#152,.F.);
#187=ORIENTED_EDGE('',*,*,#144,.T.);
#188=ORIENTED_EDGE('',*,*,#153,.T.);
#189=ORIENTED_EDGE('',*,*,#149,.F.);
#190=ORIENTED_EDGE('',*,*,#153,.F.);
#191=ORIENTED_EDGE('',*,*,#147,.T.);
#192=ORIENTED_EDGE('',*,*,#151,.T.);
#193=ORIENTED_EDGE('',*,*,#154,.F.);
#194=ORIENTED_EDGE('',*,*,#155,.T.);
#195=ORIENTED_EDGE('',*,*,#145,.T.);
#196=ORIENTED_EDGE('',*,*,#155,.F.);
#197=ORIENTED_EDGE('',*,*,#156,.T.);
#198=ORIENTED_EDGE('',*,*,#157,.T.);
#199=ORIENTED_EDGE('',*,*,#143,.T.);
#200=ORIENTED_EDGE('',*,*,#158,.T.);
#201=ORIENTED_EDGE('',*,*,#157,.F.);
#202=ORIENTED_EDGE('',*,*,#158,.F.);
#203=ORIENTED_EDGE('',*,*,#159,.F.);
#204=ORIENTED_EDGE('',*,*,#160,.T.);
#205=ORIENTED_EDGE('',*,*,#156,.F.);
#206=ORIENTED_EDGE('',*,*,#160,.F.);
#207=ORIENTED_EDGE('',*,*,#159,.T.);
#208=ORIENTED_EDGE('',*,*,#154,.T.);
#209=ORIENTED_EDGE('',*,*,#161,.T.);
#210=ORIENTED_EDGE('',*,*,#162,.T.);
#211=ORIENTED_EDGE('',*,*,#163,.T.);
#212=ORIENTED_EDGE('',*,*,#164,.T.);
#213=ORIENTED_EDGE('',*,*,#162,.F.);
#214=ORIENTED_EDGE('',*,*,#165,.T.);
#215=ORIENTED_EDGE('',*,*,#166,.T.);
#216=ORIENTED_EDGE('',*,*,#163,.F.);
#217=ORIENTED_EDGE('',*,*,#164,.F.);
#218=ORIENTED_EDGE('',*,*,#166,.F.);
#219=ORIENTED_EDGE('',*,*,#167,.T.);
#220=ORIENTED_EDGE('',*,*,#168,.T.);
#221=ORIENTED_EDGE('',*,*,#169,.T.);
#222=ORIENTED_EDGE('',*,*,#168,.F.);
#223=ORIENTED_EDGE('',*,*,#167,.F.);
#224=ORIENTED_EDGE('',*,*,#170,.F.);
#225=ORIENTED_EDGE('',*,*,#170,.T.);
#226=ORIENTED_EDGE('',*,*,#171,.T.);
#227=ORIENTED_EDGE('',*,*,#165,.F.);
#228=ORIENTED_EDGE('',*,*,#171,.F.);
#229=ORIENTED_EDGE('',*,*,#161,.F.);
#230=ORIENTED_EDGE('',*,*,#172,.T.);
#231=ORIENTED_EDGE('',*,*,#169,.F.);
#232=ORIENTED_EDGE('',*,*,#172,.F.);
#233=PLANE('',#289);
#234=PLANE('',#292);
#235=PLANE('',#297);
#236=PLANE('',#303);
#237=PLANE('',#306);
#238=PLANE('',#312);
#239=PLANE('',#325);
#240=STYLED_ITEM('',(#543),#244);
#241=STYLED_ITEM('',(#543),#245);
#242=STYLED_ITEM('',(#542),#27);
#243=STYLED_ITEM('',(#543),#28);
#244=ADVANCED_FACE('',(#59,#52),#233,.F.);
#245=ADVANCED_FACE('',(#60,#53),#234,.T.);
#246=ADVANCED_FACE('',(#61),#45,.T.);
#247=ADVANCED_FACE('',(#62,#54),#235,.F.);
#248=ADVANCED_FACE('',(#63),#46,.F.);
#249=ADVANCED_FACE('',(#64),#47,.T.);
#250=ADVANCED_FACE('',(#65,#55),#236,.T.);
#251=ADVANCED_FACE('',(#66),#48,.F.);
#252=ADVANCED_FACE('',(#67,#56),#237,.F.);
#253=ADVANCED_FACE('',(#68),#49,.F.);
#254=ADVANCED_FACE('',(#69),#50,.T.);
#255=ADVANCED_FACE('',(#70,#57),#238,.T.);
#256=ADVANCED_FACE('',(#71),#20,.T.);
#257=ADVANCED_FACE('',(#72),#19,.F.);
#258=ADVANCED_FACE('',(#73),#21,.T.);
#259=ADVANCED_FACE('',(#74,#58),#239,.T.);
#260=ADVANCED_FACE('',(#75),#51,.F.);
#261=ADVANCED_FACE('',(#76),#22,.F.);
#262=CLOSED_SHELL('',(#244,#245,#246,#247,#248,#249,#250,#251,#252,#253,
#254,#255));
#263=CLOSED_SHELL('',(#256,#257,#258,#259,#260,#261));
#264=DERIVED_UNIT_ELEMENT(#268,1.);
#265=DERIVED_UNIT_ELEMENT(#511,-3.);
#266=DERIVED_UNIT_ELEMENT(#268,1.);
#267=DERIVED_UNIT_ELEMENT(#511,-3.);
#268=(
MASS_UNIT()
NAMED_UNIT(*)
SI_UNIT(.KILO.,.GRAM.)
);
#269=DERIVED_UNIT((#264,#265));
#270=DERIVED_UNIT((#266,#267));
#271=MEASURE_REPRESENTATION_ITEM('density measure',
POSITIVE_RATIO_MEASURE(7850.),#269);
#272=MEASURE_REPRESENTATION_ITEM('density measure',
POSITIVE_RATIO_MEASURE(7850.),#270);
#273=PROPERTY_DEFINITION_REPRESENTATION(#283,#277);
#274=PROPERTY_DEFINITION_REPRESENTATION(#284,#278);
#275=PROPERTY_DEFINITION_REPRESENTATION(#285,#279);
#276=PROPERTY_DEFINITION_REPRESENTATION(#286,#280);
#277=REPRESENTATION('material name',(#281),#507);
#278=REPRESENTATION('density',(#271),#507);
#279=REPRESENTATION('material name',(#282),#508);
#280=REPRESENTATION('density',(#272),#508);
#281=DESCRIPTIVE_REPRESENTATION_ITEM('Steel','Steel');
#282=DESCRIPTIVE_REPRESENTATION_ITEM('Steel','Steel');
#283=PROPERTY_DEFINITION('material property','material name',#527);
#284=PROPERTY_DEFINITION('material property','density of part',#527);
#285=PROPERTY_DEFINITION('material property','material name',#528);
#286=PROPERTY_DEFINITION('material property','density of part',#528);
#287=AXIS2_PLACEMENT_3D('',#430,#332,#333);
#288=AXIS2_PLACEMENT_3D('',#431,#334,#335);
#289=AXIS2_PLACEMENT_3D('',#432,#336,#337);
#290=AXIS2_PLACEMENT_3D('',#434,#338,#339);
#291=AXIS2_PLACEMENT_3D('',#436,#340,#341);
#292=AXIS2_PLACEMENT_3D('',#437,#342,#343);
#293=AXIS2_PLACEMENT_3D('',#439,#344,#345);
#294=AXIS2_PLACEMENT_3D('',#441,#346,#347);
#295=AXIS2_PLACEMENT_3D('',#442,#348,#349);
#296=AXIS2_PLACEMENT_3D('',#444,#350,#351);
#297=AXIS2_PLACEMENT_3D('',#446,#353,#354);
#298=AXIS2_PLACEMENT_3D('',#448,#355,#356);
#299=AXIS2_PLACEMENT_3D('',#450,#357,#358);
#300=AXIS2_PLACEMENT_3D('',#451,#359,#360);
#301=AXIS2_PLACEMENT_3D('',#453,#361,#362);
#302=AXIS2_PLACEMENT_3D('',#455,#364,#365);
#303=AXIS2_PLACEMENT_3D('',#457,#367,#368);
#304=AXIS2_PLACEMENT_3D('',#458,#369,#370);
#305=AXIS2_PLACEMENT_3D('',#460,#371,#372);
#306=AXIS2_PLACEMENT_3D('',#462,#374,#375);
#307=AXIS2_PLACEMENT_3D('',#464,#376,#377);
#308=AXIS2_PLACEMENT_3D('',#466,#378,#379);
#309=AXIS2_PLACEMENT_3D('',#467,#380,#381);
#310=AXIS2_PLACEMENT_3D('',#469,#383,#384);
#311=AXIS2_PLACEMENT_3D('',#471,#385,#386);
#312=AXIS2_PLACEMENT_3D('',#473,#388,#389);
#313=AXIS2_PLACEMENT_3D('',#474,#390,#391);
#314=AXIS2_PLACEMENT_3D('',#475,#392,#393);
#315=AXIS2_PLACEMENT_3D('',#477,#394,#395);
#316=AXIS2_PLACEMENT_3D('',#479,#396,#397);
#317=AXIS2_PLACEMENT_3D('',#481,#398,#399);
#318=AXIS2_PLACEMENT_3D('',#482,#400,#401);
#319=AXIS2_PLACEMENT_3D('',#483,#402,#403);
#320=AXIS2_PLACEMENT_3D('',#485,#404,#405);
#321=AXIS2_PLACEMENT_3D('',#487,#407,#408);
#322=AXIS2_PLACEMENT_3D('',#489,#409,#410);
#323=AXIS2_PLACEMENT_3D('',#491,#411,#412);
#324=AXIS2_PLACEMENT_3D('',#492,#413,#414);
#325=AXIS2_PLACEMENT_3D('',#493,#415,#416);
#326=AXIS2_PLACEMENT_3D('',#495,#417,#418);
#327=AXIS2_PLACEMENT_3D('',#496,#419,#420);
#328=AXIS2_PLACEMENT_3D('',#498,#422,#423);
#329=AXIS2_PLACEMENT_3D('',#499,#424,#425);
#330=AXIS2_PLACEMENT_3D('',#500,#426,#427);
#331=AXIS2_PLACEMENT_3D('',#501,#428,#429);
#332=DIRECTION('axis',(0.,0.,1.));
#333=DIRECTION('refdir',(1.,0.,0.));
#334=DIRECTION('axis',(0.,0.,1.));
#335=DIRECTION('refdir',(1.,0.,0.));
#336=DIRECTION('center_axis',(0.,0.,1.));
#337=DIRECTION('ref_axis',(1.,0.,0.));
#338=DIRECTION('center_axis',(0.,0.,1.));
#339=DIRECTION('ref_axis',(1.,0.,0.));
#340=DIRECTION('center_axis',(0.,0.,-1.));
#341=DIRECTION('ref_axis',(1.,0.,0.));
#342=DIRECTION('center_axis',(0.,0.,1.));
#343=DIRECTION('ref_axis',(1.,0.,0.));
#344=DIRECTION('center_axis',(0.,0.,-1.));
#345=DIRECTION('ref_axis',(1.,0.,0.));
#346=DIRECTION('center_axis',(0.,0.,1.));
#347=DIRECTION('ref_axis',(1.,0.,0.));
#348=DIRECTION('center_axis',(0.,0.,1.));
#349=DIRECTION('ref_axis',(1.,0.,0.));
#350=DIRECTION('center_axis',(0.,0.,1.));
#351=DIRECTION('ref_axis',(1.,0.,0.));
#352=DIRECTION('',(0.,0.,-1.));
#353=DIRECTION('center_axis',(0.,0.,1.));
#354=DIRECTION('ref_axis',(1.,0.,0.));
#355=DIRECTION('center_axis',(0.,0.,-1.));
#356=DIRECTION('ref_axis',(1.,0.,0.));
#357=DIRECTION('center_axis',(0.,0.,1.));
#358=DIRECTION('ref_axis',(1.,0.,0.));
#359=DIRECTION('center_axis',(0.,0.,1.));
#360=DIRECTION('ref_axis',(1.,0.,0.));
#361=DIRECTION('center_axis',(0.,0.,-1.));
#362=DIRECTION('ref_axis',(1.,0.,0.));
#363=DIRECTION('',(0.,0.,-1.));
#364=DIRECTION('center_axis',(0.,0.,1.));
#365=DIRECTION('ref_axis',(1.,0.,0.));
#366=DIRECTION('',(0.,0.,-1.));
#367=DIRECTION('center_axis',(0.,0.,1.));
#368=DIRECTION('ref_axis',(1.,0.,0.));
#369=DIRECTION('center_axis',(0.,0.,1.));
#370=DIRECTION('ref_axis',(1.,0.,0.));
#371=DIRECTION('center_axis',(0.,0.,-1.));
#372=DIRECTION('ref_axis',(1.,0.,0.));
#373=DIRECTION('',(0.,0.,-1.));
#374=DIRECTION('center_axis',(0.,0.,1.));
#375=DIRECTION('ref_axis',(1.,0.,0.));
#376=DIRECTION('center_axis',(0.,0.,-1.));
#377=DIRECTION('ref_axis',(1.,0.,0.));
#378=DIRECTION('center_axis',(0.,0.,1.));
#379=DIRECTION('ref_axis',(1.,0.,0.));
#380=DIRECTION('center_axis',(0.,0.,1.));
#381=DIRECTION('ref_axis',(1.,0.,0.));
#382=DIRECTION('',(0.,0.,-1.));
#383=DIRECTION('center_axis',(0.,0.,1.));
#384=DIRECTION('ref_axis',(1.,0.,0.));
#385=DIRECTION('center_axis',(0.,0.,1.));
#386=DIRECTION('ref_axis',(1.,0.,0.));
#387=DIRECTION('',(0.,0.,-1.));
#388=DIRECTION('center_axis',(0.,0.,1.));
#389=DIRECTION('ref_axis',(1.,0.,0.));
#390=DIRECTION('axis',(0.,0.,1.));
#391=DIRECTION('refdir',(1.,0.,0.));
#392=DIRECTION('center_axis',(0.,1.,0.));
#393=DIRECTION('ref_axis',(0.,0.,1.));
#394=DIRECTION('center_axis',(0.,-1.,0.));
#395=DIRECTION('ref_axis',(1.,0.,0.));
#396=DIRECTION('center_axis',(-1.,0.,1.22464679914735E-16));
#397=DIRECTION('ref_axis',(-1.22464679914735E-16,0.,-1.));
#398=DIRECTION('center_axis',(0.,1.,0.));
#399=DIRECTION('ref_axis',(1.,0.,-6.12323399573677E-17));
#400=DIRECTION('center_axis',(0.,1.,0.));
#401=DIRECTION('ref_axis',(1.,0.,-6.12323399573677E-17));
#402=DIRECTION('center_axis',(0.,-1.,0.));
#403=DIRECTION('ref_axis',(-1.,0.,0.));
#404=DIRECTION('center_axis',(0.,-1.,0.));
#405=DIRECTION('ref_axis',(-1.,0.,0.));
#406=DIRECTION('',(0.999980466850239,-0.00625027343228999,-1.22462287793802E-16));
#407=DIRECTION('center_axis',(0.,1.,0.));
#408=DIRECTION('ref_axis',(0.,0.,1.));
#409=DIRECTION('center_axis',(0.,-1.,0.));
#410=DIRECTION('ref_axis',(1.,0.,0.));
#411=DIRECTION('center_axis',(-1.,0.,1.22464679914735E-16));
#412=DIRECTION('ref_axis',(-1.22464679914735E-16,0.,-1.));
#413=DIRECTION('center_axis',(0.,1.,0.));
#414=DIRECTION('ref_axis',(1.,0.,0.));
#415=DIRECTION('center_axis',(0.,1.,0.));
#416=DIRECTION('ref_axis',(0.,0.,1.));
#417=DIRECTION('center_axis',(0.,1.,0.));
#418=DIRECTION('ref_axis',(-1.,0.,0.));
#419=DIRECTION('center_axis',(0.,1.,0.));
#420=DIRECTION('ref_axis',(-1.,0.,0.));
#421=DIRECTION('',(0.,-1.,0.));
#422=DIRECTION('center_axis',(0.,1.,0.));
#423=DIRECTION('ref_axis',(0.,0.,1.));
#424=DIRECTION('center_axis',(-1.,0.,1.22464679914735E-16));
#425=DIRECTION('ref_axis',(-1.22464679914735E-16,0.,-1.));
#426=DIRECTION('',(0.,0.,1.));
#427=DIRECTION('',(1.,0.,0.));
#428=DIRECTION('',(-9.99200722162645E-16,1.00000000000001,-1.99840144432529E-15));
#429=DIRECTION('',(0.999999999999999,0.,4.99600361081319E-16));
#430=CARTESIAN_POINT('',(0.,0.,0.));
#431=CARTESIAN_POINT('',(0.,0.,0.));
#432=CARTESIAN_POINT('Origin',(0.,0.,-1.8));
#433=CARTESIAN_POINT('',(-3.4,-4.163799117101E-16,-1.8));
#434=CARTESIAN_POINT('Origin',(0.,0.,-1.8));
#435=CARTESIAN_POINT('',(-2.,-2.44929359829471E-16,-1.8));
#436=CARTESIAN_POINT('Origin',(0.,0.,-1.8));
#437=CARTESIAN_POINT('Origin',(0.,0.,1.8));
#438=CARTESIAN_POINT('',(-3.4,-4.163799117101E-16,1.8));
#439=CARTESIAN_POINT('Origin',(0.,0.,1.8));
#440=CARTESIAN_POINT('',(-2.,-2.44929359829471E-16,1.8));
#441=CARTESIAN_POINT('Origin',(0.,0.,1.8));
#442=CARTESIAN_POINT('Origin',(0.,0.,0.));
#443=CARTESIAN_POINT('',(-2.,-2.44929359829471E-16,2.));
#444=CARTESIAN_POINT('Origin',(0.,0.,2.));
#445=CARTESIAN_POINT('',(-2.,-2.44929359829471E-16,0.));
#446=CARTESIAN_POINT('Origin',(0.,0.,-2.));
#447=CARTESIAN_POINT('',(-2.,-2.44929359829471E-16,-2.));
#448=CARTESIAN_POINT('Origin',(0.,0.,-2.));
#449=CARTESIAN_POINT('',(-1.5,-1.83697019872103E-16,-2.));
#450=CARTESIAN_POINT('Origin',(0.,0.,-2.));
#451=CARTESIAN_POINT('Origin',(0.,0.,0.));
#452=CARTESIAN_POINT('',(-1.5,-1.83697019872103E-16,2.));
#453=CARTESIAN_POINT('Origin',(0.,0.,2.));
#454=CARTESIAN_POINT('',(-1.5,-1.83697019872103E-16,0.));
#455=CARTESIAN_POINT('Origin',(0.,0.,0.));
#456=CARTESIAN_POINT('',(-2.,-2.44929359829471E-16,0.));
#457=CARTESIAN_POINT('Origin',(0.,0.,2.));
#458=CARTESIAN_POINT('Origin',(0.,0.,0.));
#459=CARTESIAN_POINT('',(-3.4,-4.163799117101E-16,2.));
#460=CARTESIAN_POINT('Origin',(0.,0.,2.));
#461=CARTESIAN_POINT('',(-3.4,-4.163799117101E-16,0.));
#462=CARTESIAN_POINT('Origin',(0.,0.,-2.));
#463=CARTESIAN_POINT('',(-4.,-4.89858719658941E-16,-2.));
#464=CARTESIAN_POINT('Origin',(0.,0.,-2.));
#465=CARTESIAN_POINT('',(-3.4,-4.163799117101E-16,-2.));
#466=CARTESIAN_POINT('Origin',(0.,0.,-2.));
#467=CARTESIAN_POINT('Origin',(0.,0.,0.));
#468=CARTESIAN_POINT('',(-3.4,-4.163799117101E-16,0.));
#469=CARTESIAN_POINT('Origin',(0.,0.,0.));
#470=CARTESIAN_POINT('',(-4.,-4.89858719658941E-16,2.));
#471=CARTESIAN_POINT('Origin',(0.,0.,2.));
#472=CARTESIAN_POINT('',(-4.,-4.89858719658941E-16,0.));
#473=CARTESIAN_POINT('Origin',(0.,0.,2.));
#474=CARTESIAN_POINT('',(0.,0.,0.));
#475=CARTESIAN_POINT('Origin',(0.,-1.80889978092723,0.));
#476=CARTESIAN_POINT('',(-6.91093604758222E-16,-1.64793863455594,-5.64320753738456));
#477=CARTESIAN_POINT('Origin',(0.,-1.64793863455594,0.));
#478=CARTESIAN_POINT('',(-6.76403021204844E-16,-2.00889587429728,-5.5232498192604));
#479=CARTESIAN_POINT('Origin',(-6.76556108751897E-16,-1.80889978092723,
-5.52449987394685));
#480=CARTESIAN_POINT('',(5.5232498192604,-2.00889587429728,-6.76403021204844E-16));
#481=CARTESIAN_POINT('Origin',(0.,-2.00889587429728,-3.38201510602422E-16));
#482=CARTESIAN_POINT('Origin',(0.,-2.00889587429728,-3.38201510602422E-16));
#483=CARTESIAN_POINT('Origin',(0.,-2.00750047492934,0.));
#484=CARTESIAN_POINT('',(4.,-1.99937496044778,4.89858719658941E-16));
#485=CARTESIAN_POINT('Origin',(0.,-1.99937496044778,0.));
#486=CARTESIAN_POINT('',(5.30000004842877,-2.00750047492934,-6.49062809478911E-16));
#487=CARTESIAN_POINT('Origin',(0.,1.8,0.));
#488=CARTESIAN_POINT('',(-6.77574141880005E-16,2.,-5.53281274528916));
#489=CARTESIAN_POINT('Origin',(0.,2.,0.));
#490=CARTESIAN_POINT('',(-6.92020673168625E-16,1.63849369346231,-5.6507776254381));
#491=CARTESIAN_POINT('Origin',(-6.77574141880005E-16,1.8,-5.53281274528916));
#492=CARTESIAN_POINT('Origin',(0.,1.63849369346231,0.));
#493=CARTESIAN_POINT('Origin',(-4.1,2.,0.));
#494=CARTESIAN_POINT('',(4.,2.,-4.89858719658941E-16));
#495=CARTESIAN_POINT('Origin',(0.,2.,0.));
#496=CARTESIAN_POINT('Origin',(0.,0.,0.));
#497=CARTESIAN_POINT('',(4.,0.,-4.89858719658941E-16));
#498=CARTESIAN_POINT('Origin',(0.,-0.00750047492934086,0.));
#499=CARTESIAN_POINT('Origin',(-8.39252733416414E-16,-0.00750047492934086,
-6.85301863362346));
#500=CARTESIAN_POINT('',(0.,0.,0.));
#501=CARTESIAN_POINT('',(9.71445146547012E-16,0.,-0.00889587429729083));
#502=UNCERTAINTY_MEASURE_WITH_UNIT(LENGTH_MEASURE(0.01),#510,
'DISTANCE_ACCURACY_VALUE',
'Maximum model space distance between geometric entities at asserted c
onnectivities');
#503=UNCERTAINTY_MEASURE_WITH_UNIT(LENGTH_MEASURE(0.01),#510,
'DISTANCE_ACCURACY_VALUE',
'Maximum model space distance between geometric entities at asserted c
onnectivities');
#504=UNCERTAINTY_MEASURE_WITH_UNIT(LENGTH_MEASURE(0.01),#510,
'DISTANCE_ACCURACY_VALUE',
'Maximum model space distance between geometric entities at asserted c
onnectivities');
#505=UNCERTAINTY_MEASURE_WITH_UNIT(LENGTH_MEASURE(0.01),#510,
'DISTANCE_ACCURACY_VALUE',
'Maximum model space distance between geometric entities at asserted c
onnectivities');
#506=(
GEOMETRIC_REPRESENTATION_CONTEXT(3)
GLOBAL_UNCERTAINTY_ASSIGNED_CONTEXT((#502))
GLOBAL_UNIT_ASSIGNED_CONTEXT((#510,#512,#513))
REPRESENTATION_CONTEXT('','3D')
);
#507=(
GEOMETRIC_REPRESENTATION_CONTEXT(3)
GLOBAL_UNCERTAINTY_ASSIGNED_CONTEXT((#503))
GLOBAL_UNIT_ASSIGNED_CONTEXT((#510,#512,#513))
REPRESENTATION_CONTEXT('','3D')
);
#508=(
GEOMETRIC_REPRESENTATION_CONTEXT(3)
GLOBAL_UNCERTAINTY_ASSIGNED_CONTEXT((#504))
GLOBAL_UNIT_ASSIGNED_CONTEXT((#510,#512,#513))
REPRESENTATION_CONTEXT('','3D')
);
#509=(
GEOMETRIC_REPRESENTATION_CONTEXT(3)
GLOBAL_UNCERTAINTY_ASSIGNED_CONTEXT((#505))
GLOBAL_UNIT_ASSIGNED_CONTEXT((#510,#512,#513))
REPRESENTATION_CONTEXT('','3D')
);
#510=(
LENGTH_UNIT()
NAMED_UNIT(*)
SI_UNIT(.MILLI.,.METRE.)
);
#511=(
LENGTH_UNIT()
NAMED_UNIT(*)
SI_UNIT($,.METRE.)
);
#512=(
NAMED_UNIT(*)
PLANE_ANGLE_UNIT()
SI_UNIT($,.RADIAN.)
);
#513=(
NAMED_UNIT(*)
SI_UNIT($,.STERADIAN.)
SOLID_ANGLE_UNIT()
);
#514=SHAPE_DEFINITION_REPRESENTATION(#517,#522);
#515=SHAPE_DEFINITION_REPRESENTATION(#518,#523);
#516=SHAPE_DEFINITION_REPRESENTATION(#519,#524);
#517=PRODUCT_DEFINITION_SHAPE('',$,#526);
#518=PRODUCT_DEFINITION_SHAPE('',$,#527);
#519=PRODUCT_DEFINITION_SHAPE('',$,#528);
#520=PRODUCT_DEFINITION_SHAPE($,$,#17);
#521=PRODUCT_DEFINITION_SHAPE($,$,#18);
#522=SHAPE_REPRESENTATION('',(#287,#330,#331),#506);
#523=SHAPE_REPRESENTATION('',(#288),#507);
#524=SHAPE_REPRESENTATION('',(#313),#508);
#525=PRODUCT_DEFINITION_CONTEXT('part definition',#536,'design');
#526=PRODUCT_DEFINITION('Roller','Roller v1',#529,#525);
#527=PRODUCT_DEFINITION('Bearing','Bearing v1',#530,#525);
#528=PRODUCT_DEFINITION('BearingSleeve','BearingSleeve v1',#531,#525);
#529=PRODUCT_DEFINITION_FORMATION('',$,#538);
#530=PRODUCT_DEFINITION_FORMATION('',$,#539);
#531=PRODUCT_DEFINITION_FORMATION('',$,#540);
#532=PRODUCT_RELATED_PRODUCT_CATEGORY('Roller v1','Roller v1',(#538));
#533=PRODUCT_RELATED_PRODUCT_CATEGORY('Bearing v1','Bearing v1',(#539));
#534=PRODUCT_RELATED_PRODUCT_CATEGORY('BearingSleeve v1',
'BearingSleeve v1',(#540));
#535=APPLICATION_PROTOCOL_DEFINITION('international standard',
'automotive_design',2009,#536);
#536=APPLICATION_CONTEXT(
'Core Data for Automotive Mechanical Design Process');
#537=PRODUCT_CONTEXT('part definition',#536,'mechanical');
#538=PRODUCT('Roller','Roller v1',$,(#537));
#539=PRODUCT('Bearing','Bearing v1',$,(#537));
#540=PRODUCT('BearingSleeve','BearingSleeve v1',$,(#537));
#541=PRESENTATION_STYLE_ASSIGNMENT((#544));
#542=PRESENTATION_STYLE_ASSIGNMENT((#545));
#543=PRESENTATION_STYLE_ASSIGNMENT((#546));
#544=SURFACE_STYLE_USAGE(.BOTH.,#547);
#545=SURFACE_STYLE_USAGE(.BOTH.,#548);
#546=SURFACE_STYLE_USAGE(.BOTH.,#549);
#547=SURFACE_SIDE_STYLE('',(#550));
#548=SURFACE_SIDE_STYLE('',(#551));
#549=SURFACE_SIDE_STYLE('',(#552));
#550=SURFACE_STYLE_FILL_AREA(#553);
#551=SURFACE_STYLE_FILL_AREA(#554);
#552=SURFACE_STYLE_FILL_AREA(#555);
#553=FILL_AREA_STYLE('Steel - Satin',(#556));
#554=FILL_AREA_STYLE('Paint - Metallic (Silver)',(#557));
#555=FILL_AREA_STYLE('Plastic - Matte (Blue)',(#558));
#556=FILL_AREA_STYLE_COLOUR('Steel - Satin',#559);
#557=FILL_AREA_STYLE_COLOUR('Paint - Metallic (Silver)',#560);
#558=FILL_AREA_STYLE_COLOUR('Plastic - Matte (Blue)',#561);
#559=COLOUR_RGB('Steel - Satin',0.627450980392157,0.627450980392157,0.627450980392157);
#560=COLOUR_RGB('Paint - Metallic (Silver)',0.984313725490196,0.980392156862745,
0.96078431372549);
#561=COLOUR_RGB('Plastic - Matte (Blue)',0.188235294117647,0.231372549019608,
0.588235294117647);
ENDSEC;
END-ISO-10303-21;
