ISO-10303-21;
HEADER;
/* Generated by software containing ST-Developer
 * from STEP Tools, Inc. (www.steptools.com) 
 */

FILE_DESCRIPTION(
/* description */ (''),
/* implementation_level */ '2;1');

FILE_NAME(
/* name */ 'UpperMount_v14.step',
/* time_stamp */ '2026-08-21T09:12:29-04:00',
/* author */ (''),
/* organization */ (''),
/* preprocessor_version */ 'ST-DEVELOPER v20.1',
/* originating_system */ 'Autodesk Translation Framework v15.8.0.0',
/* authorisation */ '');

FILE_SCHEMA (('AUTOMOTIVE_DESIGN { 1 0 10303 214 3 1 1 }'));
ENDSEC;

DATA;
#10=MECHANICAL_DESIGN_GEOMETRIC_PRESENTATION_REPRESENTATION('',(#13,#14,
#15,#16,#17,#18,#19,#20,#21,#22),#1235);
#11=SHAPE_REPRESENTATION_RELATIONSHIP('SRR','None',#1242,#12);
#12=ADVANCED_BREP_SHAPE_REPRESENTATION('',(#23,#24,#25,#26,#27,#28,#29,
#30,#31,#32),#1234);
#13=STYLED_ITEM('',(#1252),#23);
#14=STYLED_ITEM('',(#1251),#24);
#15=STYLED_ITEM('',(#1251),#25);
#16=STYLED_ITEM('',(#1251),#26);
#17=STYLED_ITEM('',(#1251),#27);
#18=STYLED_ITEM('',(#1251),#28);
#19=STYLED_ITEM('',(#1251),#29);
#20=STYLED_ITEM('',(#1251),#30);
#21=STYLED_ITEM('',(#1251),#31);
#22=STYLED_ITEM('',(#1251),#32);
#23=MANIFOLD_SOLID_BREP('Body43',#694);
#24=MANIFOLD_SOLID_BREP('Body44',#695);
#25=MANIFOLD_SOLID_BREP('Body45',#696);
#26=MANIFOLD_SOLID_BREP('Body46',#697);
#27=MANIFOLD_SOLID_BREP('Body47',#698);
#28=MANIFOLD_SOLID_BREP('Body49',#699);
#29=MANIFOLD_SOLID_BREP('Body50',#700);
#30=MANIFOLD_SOLID_BREP('Body51',#701);
#31=MANIFOLD_SOLID_BREP('Body52',#702);
#32=MANIFOLD_SOLID_BREP('Body53',#703);
#33=FACE_BOUND('',#153,.T.);
#34=FACE_BOUND('',#154,.T.);
#35=FACE_BOUND('',#155,.T.);
#36=FACE_BOUND('',#156,.T.);
#37=FACE_BOUND('',#157,.T.);
#38=FACE_BOUND('',#158,.T.);
#39=FACE_BOUND('',#159,.T.);
#40=FACE_BOUND('',#160,.T.);
#41=FACE_BOUND('',#161,.T.);
#42=FACE_BOUND('',#162,.T.);
#43=FACE_BOUND('',#163,.T.);
#44=FACE_BOUND('',#164,.T.);
#45=FACE_BOUND('',#165,.T.);
#46=FACE_BOUND('',#166,.T.);
#47=FACE_BOUND('',#167,.T.);
#48=FACE_BOUND('',#168,.T.);
#49=FACE_BOUND('',#169,.T.);
#50=FACE_BOUND('',#171,.T.);
#51=FACE_BOUND('',#172,.T.);
#52=FACE_BOUND('',#173,.T.);
#53=FACE_BOUND('',#174,.T.);
#54=FACE_BOUND('',#175,.T.);
#55=FACE_BOUND('',#176,.T.);
#56=FACE_BOUND('',#177,.T.);
#57=FACE_BOUND('',#178,.T.);
#58=FACE_BOUND('',#179,.T.);
#59=FACE_BOUND('',#180,.T.);
#60=FACE_BOUND('',#181,.T.);
#61=FACE_BOUND('',#182,.T.);
#62=FACE_BOUND('',#183,.T.);
#63=FACE_BOUND('',#184,.T.);
#64=FACE_BOUND('',#185,.T.);
#65=FACE_BOUND('',#186,.T.);
#66=FACE_BOUND('',#187,.T.);
#67=PLANE('',#771);
#68=PLANE('',#772);
#69=PLANE('',#776);
#70=PLANE('',#777);
#71=PLANE('',#781);
#72=PLANE('',#782);
#73=PLANE('',#786);
#74=PLANE('',#787);
#75=PLANE('',#791);
#76=PLANE('',#792);
#77=PLANE('',#796);
#78=PLANE('',#797);
#79=PLANE('',#801);
#80=PLANE('',#802);
#81=PLANE('',#806);
#82=PLANE('',#807);
#83=PLANE('',#811);
#84=PLANE('',#812);
#85=PLANE('',#816);
#86=PLANE('',#817);
#87=FACE_OUTER_BOUND('',#134,.T.);
#88=FACE_OUTER_BOUND('',#135,.T.);
#89=FACE_OUTER_BOUND('',#136,.T.);
#90=FACE_OUTER_BOUND('',#137,.T.);
#91=FACE_OUTER_BOUND('',#138,.T.);
#92=FACE_OUTER_BOUND('',#139,.T.);
#93=FACE_OUTER_BOUND('',#140,.T.);
#94=FACE_OUTER_BOUND('',#141,.T.);
#95=FACE_OUTER_BOUND('',#142,.T.);
#96=FACE_OUTER_BOUND('',#143,.T.);
#97=FACE_OUTER_BOUND('',#144,.T.);
#98=FACE_OUTER_BOUND('',#145,.T.);
#99=FACE_OUTER_BOUND('',#146,.T.);
#100=FACE_OUTER_BOUND('',#147,.T.);
#101=FACE_OUTER_BOUND('',#148,.T.);
#102=FACE_OUTER_BOUND('',#149,.T.);
#103=FACE_OUTER_BOUND('',#150,.T.);
#104=FACE_OUTER_BOUND('',#151,.T.);
#105=FACE_OUTER_BOUND('',#152,.T.);
#106=FACE_OUTER_BOUND('',#170,.T.);
#107=FACE_OUTER_BOUND('',#188,.T.);
#108=FACE_OUTER_BOUND('',#189,.T.);
#109=FACE_OUTER_BOUND('',#190,.T.);
#110=FACE_OUTER_BOUND('',#191,.T.);
#111=FACE_OUTER_BOUND('',#192,.T.);
#112=FACE_OUTER_BOUND('',#193,.T.);
#113=FACE_OUTER_BOUND('',#194,.T.);
#114=FACE_OUTER_BOUND('',#195,.T.);
#115=FACE_OUTER_BOUND('',#196,.T.);
#116=FACE_OUTER_BOUND('',#197,.T.);
#117=FACE_OUTER_BOUND('',#198,.T.);
#118=FACE_OUTER_BOUND('',#199,.T.);
#119=FACE_OUTER_BOUND('',#200,.T.);
#120=FACE_OUTER_BOUND('',#201,.T.);
#121=FACE_OUTER_BOUND('',#202,.T.);
#122=FACE_OUTER_BOUND('',#203,.T.);
#123=FACE_OUTER_BOUND('',#204,.T.);
#124=FACE_OUTER_BOUND('',#205,.T.);
#125=FACE_OUTER_BOUND('',#206,.T.);
#126=FACE_OUTER_BOUND('',#207,.T.);
#127=FACE_OUTER_BOUND('',#208,.T.);
#128=FACE_OUTER_BOUND('',#209,.T.);
#129=FACE_OUTER_BOUND('',#210,.T.);
#130=FACE_OUTER_BOUND('',#211,.T.);
#131=FACE_OUTER_BOUND('',#212,.T.);
#132=FACE_OUTER_BOUND('',#213,.T.);
#133=FACE_OUTER_BOUND('',#214,.T.);
#134=EDGE_LOOP('',(#458,#459,#460,#461));
#135=EDGE_LOOP('',(#462,#463,#464,#465));
#136=EDGE_LOOP('',(#466,#467,#468,#469));
#137=EDGE_LOOP('',(#470,#471,#472,#473));
#138=EDGE_LOOP('',(#474,#475,#476,#477));
#139=EDGE_LOOP('',(#478,#479,#480,#481));
#140=EDGE_LOOP('',(#482,#483,#484,#485));
#141=EDGE_LOOP('',(#486,#487,#488,#489));
#142=EDGE_LOOP('',(#490,#491,#492,#493));
#143=EDGE_LOOP('',(#494,#495,#496,#497));
#144=EDGE_LOOP('',(#498,#499,#500,#501));
#145=EDGE_LOOP('',(#502,#503,#504,#505));
#146=EDGE_LOOP('',(#506,#507,#508,#509));
#147=EDGE_LOOP('',(#510,#511,#512,#513));
#148=EDGE_LOOP('',(#514,#515,#516,#517));
#149=EDGE_LOOP('',(#518,#519,#520,#521));
#150=EDGE_LOOP('',(#522,#523,#524,#525));
#151=EDGE_LOOP('',(#526,#527,#528,#529));
#152=EDGE_LOOP('',(#530));
#153=EDGE_LOOP('',(#531));
#154=EDGE_LOOP('',(#532));
#155=EDGE_LOOP('',(#533));
#156=EDGE_LOOP('',(#534));
#157=EDGE_LOOP('',(#535));
#158=EDGE_LOOP('',(#536));
#159=EDGE_LOOP('',(#537));
#160=EDGE_LOOP('',(#538));
#161=EDGE_LOOP('',(#539));
#162=EDGE_LOOP('',(#540));
#163=EDGE_LOOP('',(#541));
#164=EDGE_LOOP('',(#542));
#165=EDGE_LOOP('',(#543));
#166=EDGE_LOOP('',(#544));
#167=EDGE_LOOP('',(#545));
#168=EDGE_LOOP('',(#546));
#169=EDGE_LOOP('',(#547));
#170=EDGE_LOOP('',(#548));
#171=EDGE_LOOP('',(#549));
#172=EDGE_LOOP('',(#550));
#173=EDGE_LOOP('',(#551));
#174=EDGE_LOOP('',(#552));
#175=EDGE_LOOP('',(#553));
#176=EDGE_LOOP('',(#554));
#177=EDGE_LOOP('',(#555));
#178=EDGE_LOOP('',(#556));
#179=EDGE_LOOP('',(#557));
#180=EDGE_LOOP('',(#558));
#181=EDGE_LOOP('',(#559));
#182=EDGE_LOOP('',(#560));
#183=EDGE_LOOP('',(#561));
#184=EDGE_LOOP('',(#562));
#185=EDGE_LOOP('',(#563));
#186=EDGE_LOOP('',(#564));
#187=EDGE_LOOP('',(#565));
#188=EDGE_LOOP('',(#566,#567,#568,#569));
#189=EDGE_LOOP('',(#570));
#190=EDGE_LOOP('',(#571));
#191=EDGE_LOOP('',(#572,#573,#574,#575));
#192=EDGE_LOOP('',(#576));
#193=EDGE_LOOP('',(#577));
#194=EDGE_LOOP('',(#578,#579,#580,#581));
#195=EDGE_LOOP('',(#582));
#196=EDGE_LOOP('',(#583));
#197=EDGE_LOOP('',(#584,#585,#586,#587));
#198=EDGE_LOOP('',(#588));
#199=EDGE_LOOP('',(#589));
#200=EDGE_LOOP('',(#590,#591,#592,#593));
#201=EDGE_LOOP('',(#594));
#202=EDGE_LOOP('',(#595));
#203=EDGE_LOOP('',(#596,#597,#598,#599));
#204=EDGE_LOOP('',(#600));
#205=EDGE_LOOP('',(#601));
#206=EDGE_LOOP('',(#602,#603,#604,#605));
#207=EDGE_LOOP('',(#606));
#208=EDGE_LOOP('',(#607));
#209=EDGE_LOOP('',(#608,#609,#610,#611));
#210=EDGE_LOOP('',(#612));
#211=EDGE_LOOP('',(#613));
#212=EDGE_LOOP('',(#614,#615,#616,#617));
#213=EDGE_LOOP('',(#618));
#214=EDGE_LOOP('',(#619));
#215=LINE('',#1054,#242);
#216=LINE('',#1060,#243);
#217=LINE('',#1066,#244);
#218=LINE('',#1072,#245);
#219=LINE('',#1078,#246);
#220=LINE('',#1084,#247);
#221=LINE('',#1090,#248);
#222=LINE('',#1096,#249);
#223=LINE('',#1102,#250);
#224=LINE('',#1108,#251);
#225=LINE('',#1114,#252);
#226=LINE('',#1120,#253);
#227=LINE('',#1126,#254);
#228=LINE('',#1132,#255);
#229=LINE('',#1138,#256);
#230=LINE('',#1144,#257);
#231=LINE('',#1150,#258);
#232=LINE('',#1156,#259);
#233=LINE('',#1164,#260);
#234=LINE('',#1172,#261);
#235=LINE('',#1180,#262);
#236=LINE('',#1188,#263);
#237=LINE('',#1196,#264);
#238=LINE('',#1204,#265);
#239=LINE('',#1212,#266);
#240=LINE('',#1220,#267);
#241=LINE('',#1228,#268);
#242=VECTOR('',#824,2.);
#243=VECTOR('',#831,1.75);
#244=VECTOR('',#838,2.);
#245=VECTOR('',#845,1.75);
#246=VECTOR('',#852,1.75);
#247=VECTOR('',#859,1.75);
#248=VECTOR('',#866,2.);
#249=VECTOR('',#873,2.);
#250=VECTOR('',#880,2.5);
#251=VECTOR('',#887,1.75);
#252=VECTOR('',#894,1.75);
#253=VECTOR('',#901,1.75);
#254=VECTOR('',#908,2.);
#255=VECTOR('',#915,2.);
#256=VECTOR('',#922,2.);
#257=VECTOR('',#929,1.75);
#258=VECTOR('',#936,2.);
#259=VECTOR('',#943,59.5);
#260=VECTOR('',#954,6.);
#261=VECTOR('',#965,6.);
#262=VECTOR('',#976,6.);
#263=VECTOR('',#987,6.);
#264=VECTOR('',#998,10.);
#265=VECTOR('',#1009,3.);
#266=VECTOR('',#1020,3.);
#267=VECTOR('',#1031,3.);
#268=VECTOR('',#1042,3.);
#269=CIRCLE('',#718,2.);
#270=CIRCLE('',#719,2.);
#271=CIRCLE('',#721,1.75);
#272=CIRCLE('',#722,1.75);
#273=CIRCLE('',#724,2.);
#274=CIRCLE('',#725,2.);
#275=CIRCLE('',#727,1.75);
#276=CIRCLE('',#728,1.75);
#277=CIRCLE('',#730,1.75);
#278=CIRCLE('',#731,1.75);
#279=CIRCLE('',#733,1.75);
#280=CIRCLE('',#734,1.75);
#281=CIRCLE('',#736,2.);
#282=CIRCLE('',#737,2.);
#283=CIRCLE('',#739,2.);
#284=CIRCLE('',#740,2.);
#285=CIRCLE('',#742,2.5);
#286=CIRCLE('',#743,2.5);
#287=CIRCLE('',#745,1.75);
#288=CIRCLE('',#746,1.75);
#289=CIRCLE('',#748,1.75);
#290=CIRCLE('',#749,1.75);
#291=CIRCLE('',#751,1.75);
#292=CIRCLE('',#752,1.75);
#293=CIRCLE('',#754,2.);
#294=CIRCLE('',#755,2.);
#295=CIRCLE('',#757,2.);
#296=CIRCLE('',#758,2.);
#297=CIRCLE('',#760,2.);
#298=CIRCLE('',#761,2.);
#299=CIRCLE('',#763,1.75);
#300=CIRCLE('',#764,1.75);
#301=CIRCLE('',#766,2.);
#302=CIRCLE('',#767,2.);
#303=CIRCLE('',#769,59.5);
#304=CIRCLE('',#770,59.5);
#305=CIRCLE('',#774,6.);
#306=CIRCLE('',#775,6.);
#307=CIRCLE('',#779,6.);
#308=CIRCLE('',#780,6.);
#309=CIRCLE('',#784,6.);
#310=CIRCLE('',#785,6.);
#311=CIRCLE('',#789,6.);
#312=CIRCLE('',#790,6.);
#313=CIRCLE('',#794,10.);
#314=CIRCLE('',#795,10.);
#315=CIRCLE('',#799,3.);
#316=CIRCLE('',#800,3.);
#317=CIRCLE('',#804,3.);
#318=CIRCLE('',#805,3.);
#319=CIRCLE('',#809,3.);
#320=CIRCLE('',#810,3.);
#321=CIRCLE('',#814,3.);
#322=CIRCLE('',#815,3.);
#323=VERTEX_POINT('',#1051);
#324=VERTEX_POINT('',#1053);
#325=VERTEX_POINT('',#1057);
#326=VERTEX_POINT('',#1059);
#327=VERTEX_POINT('',#1063);
#328=VERTEX_POINT('',#1065);
#329=VERTEX_POINT('',#1069);
#330=VERTEX_POINT('',#1071);
#331=VERTEX_POINT('',#1075);
#332=VERTEX_POINT('',#1077);
#333=VERTEX_POINT('',#1081);
#334=VERTEX_POINT('',#1083);
#335=VERTEX_POINT('',#1087);
#336=VERTEX_POINT('',#1089);
#337=VERTEX_POINT('',#1093);
#338=VERTEX_POINT('',#1095);
#339=VERTEX_POINT('',#1099);
#340=VERTEX_POINT('',#1101);
#341=VERTEX_POINT('',#1105);
#342=VERTEX_POINT('',#1107);
#343=VERTEX_POINT('',#1111);
#344=VERTEX_POINT('',#1113);
#345=VERTEX_POINT('',#1117);
#346=VERTEX_POINT('',#1119);
#347=VERTEX_POINT('',#1123);
#348=VERTEX_POINT('',#1125);
#349=VERTEX_POINT('',#1129);
#350=VERTEX_POINT('',#1131);
#351=VERTEX_POINT('',#1135);
#352=VERTEX_POINT('',#1137);
#353=VERTEX_POINT('',#1141);
#354=VERTEX_POINT('',#1143);
#355=VERTEX_POINT('',#1147);
#356=VERTEX_POINT('',#1149);
#357=VERTEX_POINT('',#1153);
#358=VERTEX_POINT('',#1155);
#359=VERTEX_POINT('',#1161);
#360=VERTEX_POINT('',#1163);
#361=VERTEX_POINT('',#1169);
#362=VERTEX_POINT('',#1171);
#363=VERTEX_POINT('',#1177);
#364=VERTEX_POINT('',#1179);
#365=VERTEX_POINT('',#1185);
#366=VERTEX_POINT('',#1187);
#367=VERTEX_POINT('',#1193);
#368=VERTEX_POINT('',#1195);
#369=VERTEX_POINT('',#1201);
#370=VERTEX_POINT('',#1203);
#371=VERTEX_POINT('',#1209);
#372=VERTEX_POINT('',#1211);
#373=VERTEX_POINT('',#1217);
#374=VERTEX_POINT('',#1219);
#375=VERTEX_POINT('',#1225);
#376=VERTEX_POINT('',#1227);
#377=EDGE_CURVE('',#323,#323,#269,.T.);
#378=EDGE_CURVE('',#323,#324,#215,.T.);
#379=EDGE_CURVE('',#324,#324,#270,.T.);
#380=EDGE_CURVE('',#325,#325,#271,.T.);
#381=EDGE_CURVE('',#325,#326,#216,.T.);
#382=EDGE_CURVE('',#326,#326,#272,.T.);
#383=EDGE_CURVE('',#327,#327,#273,.T.);
#384=EDGE_CURVE('',#327,#328,#217,.T.);
#385=EDGE_CURVE('',#328,#328,#274,.T.);
#386=EDGE_CURVE('',#329,#329,#275,.T.);
#387=EDGE_CURVE('',#329,#330,#218,.T.);
#388=EDGE_CURVE('',#330,#330,#276,.T.);
#389=EDGE_CURVE('',#331,#331,#277,.T.);
#390=EDGE_CURVE('',#331,#332,#219,.T.);
#391=EDGE_CURVE('',#332,#332,#278,.T.);
#392=EDGE_CURVE('',#333,#333,#279,.T.);
#393=EDGE_CURVE('',#333,#334,#220,.T.);
#394=EDGE_CURVE('',#334,#334,#280,.T.);
#395=EDGE_CURVE('',#335,#335,#281,.T.);
#396=EDGE_CURVE('',#335,#336,#221,.T.);
#397=EDGE_CURVE('',#336,#336,#282,.T.);
#398=EDGE_CURVE('',#337,#337,#283,.T.);
#399=EDGE_CURVE('',#337,#338,#222,.T.);
#400=EDGE_CURVE('',#338,#338,#284,.T.);
#401=EDGE_CURVE('',#339,#339,#285,.T.);
#402=EDGE_CURVE('',#339,#340,#223,.T.);
#403=EDGE_CURVE('',#340,#340,#286,.T.);
#404=EDGE_CURVE('',#341,#341,#287,.T.);
#405=EDGE_CURVE('',#341,#342,#224,.T.);
#406=EDGE_CURVE('',#342,#342,#288,.T.);
#407=EDGE_CURVE('',#343,#343,#289,.T.);
#408=EDGE_CURVE('',#343,#344,#225,.T.);
#409=EDGE_CURVE('',#344,#344,#290,.T.);
#410=EDGE_CURVE('',#345,#345,#291,.T.);
#411=EDGE_CURVE('',#345,#346,#226,.T.);
#412=EDGE_CURVE('',#346,#346,#292,.T.);
#413=EDGE_CURVE('',#347,#347,#293,.T.);
#414=EDGE_CURVE('',#347,#348,#227,.T.);
#415=EDGE_CURVE('',#348,#348,#294,.T.);
#416=EDGE_CURVE('',#349,#349,#295,.T.);
#417=EDGE_CURVE('',#349,#350,#228,.T.);
#418=EDGE_CURVE('',#350,#350,#296,.T.);
#419=EDGE_CURVE('',#351,#351,#297,.T.);
#420=EDGE_CURVE('',#351,#352,#229,.T.);
#421=EDGE_CURVE('',#352,#352,#298,.T.);
#422=EDGE_CURVE('',#353,#353,#299,.T.);
#423=EDGE_CURVE('',#353,#354,#230,.T.);
#424=EDGE_CURVE('',#354,#354,#300,.T.);
#425=EDGE_CURVE('',#355,#355,#301,.T.);
#426=EDGE_CURVE('',#355,#356,#231,.T.);
#427=EDGE_CURVE('',#356,#356,#302,.T.);
#428=EDGE_CURVE('',#357,#357,#303,.T.);
#429=EDGE_CURVE('',#357,#358,#232,.T.);
#430=EDGE_CURVE('',#358,#358,#304,.T.);
#431=EDGE_CURVE('',#359,#359,#305,.T.);
#432=EDGE_CURVE('',#359,#360,#233,.T.);
#433=EDGE_CURVE('',#360,#360,#306,.T.);
#434=EDGE_CURVE('',#361,#361,#307,.T.);
#435=EDGE_CURVE('',#361,#362,#234,.T.);
#436=EDGE_CURVE('',#362,#362,#308,.T.);
#437=EDGE_CURVE('',#363,#363,#309,.T.);
#438=EDGE_CURVE('',#363,#364,#235,.T.);
#439=EDGE_CURVE('',#364,#364,#310,.T.);
#440=EDGE_CURVE('',#365,#365,#311,.T.);
#441=EDGE_CURVE('',#365,#366,#236,.T.);
#442=EDGE_CURVE('',#366,#366,#312,.T.);
#443=EDGE_CURVE('',#367,#367,#313,.T.);
#444=EDGE_CURVE('',#367,#368,#237,.T.);
#445=EDGE_CURVE('',#368,#368,#314,.T.);
#446=EDGE_CURVE('',#369,#369,#315,.T.);
#447=EDGE_CURVE('',#369,#370,#238,.T.);
#448=EDGE_CURVE('',#370,#370,#316,.T.);
#449=EDGE_CURVE('',#371,#371,#317,.T.);
#450=EDGE_CURVE('',#371,#372,#239,.T.);
#451=EDGE_CURVE('',#372,#372,#318,.T.);
#452=EDGE_CURVE('',#373,#373,#319,.T.);
#453=EDGE_CURVE('',#373,#374,#240,.T.);
#454=EDGE_CURVE('',#374,#374,#320,.T.);
#455=EDGE_CURVE('',#375,#375,#321,.T.);
#456=EDGE_CURVE('',#375,#376,#241,.T.);
#457=EDGE_CURVE('',#376,#376,#322,.T.);
#458=ORIENTED_EDGE('',*,*,#377,.F.);
#459=ORIENTED_EDGE('',*,*,#378,.T.);
#460=ORIENTED_EDGE('',*,*,#379,.F.);
#461=ORIENTED_EDGE('',*,*,#378,.F.);
#462=ORIENTED_EDGE('',*,*,#380,.F.);
#463=ORIENTED_EDGE('',*,*,#381,.T.);
#464=ORIENTED_EDGE('',*,*,#382,.F.);
#465=ORIENTED_EDGE('',*,*,#381,.F.);
#466=ORIENTED_EDGE('',*,*,#383,.F.);
#467=ORIENTED_EDGE('',*,*,#384,.T.);
#468=ORIENTED_EDGE('',*,*,#385,.F.);
#469=ORIENTED_EDGE('',*,*,#384,.F.);
#470=ORIENTED_EDGE('',*,*,#386,.F.);
#471=ORIENTED_EDGE('',*,*,#387,.T.);
#472=ORIENTED_EDGE('',*,*,#388,.F.);
#473=ORIENTED_EDGE('',*,*,#387,.F.);
#474=ORIENTED_EDGE('',*,*,#389,.F.);
#475=ORIENTED_EDGE('',*,*,#390,.T.);
#476=ORIENTED_EDGE('',*,*,#391,.F.);
#477=ORIENTED_EDGE('',*,*,#390,.F.);
#478=ORIENTED_EDGE('',*,*,#392,.F.);
#479=ORIENTED_EDGE('',*,*,#393,.T.);
#480=ORIENTED_EDGE('',*,*,#394,.F.);
#481=ORIENTED_EDGE('',*,*,#393,.F.);
#482=ORIENTED_EDGE('',*,*,#395,.F.);
#483=ORIENTED_EDGE('',*,*,#396,.T.);
#484=ORIENTED_EDGE('',*,*,#397,.F.);
#485=ORIENTED_EDGE('',*,*,#396,.F.);
#486=ORIENTED_EDGE('',*,*,#398,.F.);
#487=ORIENTED_EDGE('',*,*,#399,.T.);
#488=ORIENTED_EDGE('',*,*,#400,.F.);
#489=ORIENTED_EDGE('',*,*,#399,.F.);
#490=ORIENTED_EDGE('',*,*,#401,.F.);
#491=ORIENTED_EDGE('',*,*,#402,.T.);
#492=ORIENTED_EDGE('',*,*,#403,.F.);
#493=ORIENTED_EDGE('',*,*,#402,.F.);
#494=ORIENTED_EDGE('',*,*,#404,.F.);
#495=ORIENTED_EDGE('',*,*,#405,.T.);
#496=ORIENTED_EDGE('',*,*,#406,.F.);
#497=ORIENTED_EDGE('',*,*,#405,.F.);
#498=ORIENTED_EDGE('',*,*,#407,.F.);
#499=ORIENTED_EDGE('',*,*,#408,.T.);
#500=ORIENTED_EDGE('',*,*,#409,.F.);
#501=ORIENTED_EDGE('',*,*,#408,.F.);
#502=ORIENTED_EDGE('',*,*,#410,.F.);
#503=ORIENTED_EDGE('',*,*,#411,.T.);
#504=ORIENTED_EDGE('',*,*,#412,.F.);
#505=ORIENTED_EDGE('',*,*,#411,.F.);
#506=ORIENTED_EDGE('',*,*,#413,.F.);
#507=ORIENTED_EDGE('',*,*,#414,.T.);
#508=ORIENTED_EDGE('',*,*,#415,.F.);
#509=ORIENTED_EDGE('',*,*,#414,.F.);
#510=ORIENTED_EDGE('',*,*,#416,.F.);
#511=ORIENTED_EDGE('',*,*,#417,.T.);
#512=ORIENTED_EDGE('',*,*,#418,.F.);
#513=ORIENTED_EDGE('',*,*,#417,.F.);
#514=ORIENTED_EDGE('',*,*,#419,.F.);
#515=ORIENTED_EDGE('',*,*,#420,.T.);
#516=ORIENTED_EDGE('',*,*,#421,.F.);
#517=ORIENTED_EDGE('',*,*,#420,.F.);
#518=ORIENTED_EDGE('',*,*,#422,.F.);
#519=ORIENTED_EDGE('',*,*,#423,.T.);
#520=ORIENTED_EDGE('',*,*,#424,.F.);
#521=ORIENTED_EDGE('',*,*,#423,.F.);
#522=ORIENTED_EDGE('',*,*,#425,.F.);
#523=ORIENTED_EDGE('',*,*,#426,.T.);
#524=ORIENTED_EDGE('',*,*,#427,.F.);
#525=ORIENTED_EDGE('',*,*,#426,.F.);
#526=ORIENTED_EDGE('',*,*,#428,.F.);
#527=ORIENTED_EDGE('',*,*,#429,.T.);
#528=ORIENTED_EDGE('',*,*,#430,.F.);
#529=ORIENTED_EDGE('',*,*,#429,.F.);
#530=ORIENTED_EDGE('',*,*,#430,.T.);
#531=ORIENTED_EDGE('',*,*,#427,.T.);
#532=ORIENTED_EDGE('',*,*,#424,.T.);
#533=ORIENTED_EDGE('',*,*,#421,.T.);
#534=ORIENTED_EDGE('',*,*,#418,.T.);
#535=ORIENTED_EDGE('',*,*,#415,.T.);
#536=ORIENTED_EDGE('',*,*,#412,.T.);
#537=ORIENTED_EDGE('',*,*,#409,.T.);
#538=ORIENTED_EDGE('',*,*,#406,.T.);
#539=ORIENTED_EDGE('',*,*,#403,.T.);
#540=ORIENTED_EDGE('',*,*,#400,.T.);
#541=ORIENTED_EDGE('',*,*,#397,.T.);
#542=ORIENTED_EDGE('',*,*,#394,.T.);
#543=ORIENTED_EDGE('',*,*,#391,.T.);
#544=ORIENTED_EDGE('',*,*,#388,.T.);
#545=ORIENTED_EDGE('',*,*,#385,.T.);
#546=ORIENTED_EDGE('',*,*,#382,.T.);
#547=ORIENTED_EDGE('',*,*,#379,.T.);
#548=ORIENTED_EDGE('',*,*,#428,.T.);
#549=ORIENTED_EDGE('',*,*,#425,.T.);
#550=ORIENTED_EDGE('',*,*,#422,.T.);
#551=ORIENTED_EDGE('',*,*,#419,.T.);
#552=ORIENTED_EDGE('',*,*,#416,.T.);
#553=ORIENTED_EDGE('',*,*,#413,.T.);
#554=ORIENTED_EDGE('',*,*,#410,.T.);
#555=ORIENTED_EDGE('',*,*,#407,.T.);
#556=ORIENTED_EDGE('',*,*,#404,.T.);
#557=ORIENTED_EDGE('',*,*,#401,.T.);
#558=ORIENTED_EDGE('',*,*,#398,.T.);
#559=ORIENTED_EDGE('',*,*,#395,.T.);
#560=ORIENTED_EDGE('',*,*,#392,.T.);
#561=ORIENTED_EDGE('',*,*,#389,.T.);
#562=ORIENTED_EDGE('',*,*,#386,.T.);
#563=ORIENTED_EDGE('',*,*,#383,.T.);
#564=ORIENTED_EDGE('',*,*,#380,.T.);
#565=ORIENTED_EDGE('',*,*,#377,.T.);
#566=ORIENTED_EDGE('',*,*,#431,.F.);
#567=ORIENTED_EDGE('',*,*,#432,.T.);
#568=ORIENTED_EDGE('',*,*,#433,.F.);
#569=ORIENTED_EDGE('',*,*,#432,.F.);
#570=ORIENTED_EDGE('',*,*,#433,.T.);
#571=ORIENTED_EDGE('',*,*,#431,.T.);
#572=ORIENTED_EDGE('',*,*,#434,.F.);
#573=ORIENTED_EDGE('',*,*,#435,.T.);
#574=ORIENTED_EDGE('',*,*,#436,.F.);
#575=ORIENTED_EDGE('',*,*,#435,.F.);
#576=ORIENTED_EDGE('',*,*,#436,.T.);
#577=ORIENTED_EDGE('',*,*,#434,.T.);
#578=ORIENTED_EDGE('',*,*,#437,.F.);
#579=ORIENTED_EDGE('',*,*,#438,.T.);
#580=ORIENTED_EDGE('',*,*,#439,.F.);
#581=ORIENTED_EDGE('',*,*,#438,.F.);
#582=ORIENTED_EDGE('',*,*,#439,.T.);
#583=ORIENTED_EDGE('',*,*,#437,.T.);
#584=ORIENTED_EDGE('',*,*,#440,.F.);
#585=ORIENTED_EDGE('',*,*,#441,.T.);
#586=ORIENTED_EDGE('',*,*,#442,.F.);
#587=ORIENTED_EDGE('',*,*,#441,.F.);
#588=ORIENTED_EDGE('',*,*,#442,.T.);
#589=ORIENTED_EDGE('',*,*,#440,.T.);
#590=ORIENTED_EDGE('',*,*,#443,.F.);
#591=ORIENTED_EDGE('',*,*,#444,.T.);
#592=ORIENTED_EDGE('',*,*,#445,.T.);
#593=ORIENTED_EDGE('',*,*,#444,.F.);
#594=ORIENTED_EDGE('',*,*,#443,.T.);
#595=ORIENTED_EDGE('',*,*,#445,.F.);
#596=ORIENTED_EDGE('',*,*,#446,.F.);
#597=ORIENTED_EDGE('',*,*,#447,.T.);
#598=ORIENTED_EDGE('',*,*,#448,.T.);
#599=ORIENTED_EDGE('',*,*,#447,.F.);
#600=ORIENTED_EDGE('',*,*,#446,.T.);
#601=ORIENTED_EDGE('',*,*,#448,.F.);
#602=ORIENTED_EDGE('',*,*,#449,.F.);
#603=ORIENTED_EDGE('',*,*,#450,.T.);
#604=ORIENTED_EDGE('',*,*,#451,.T.);
#605=ORIENTED_EDGE('',*,*,#450,.F.);
#606=ORIENTED_EDGE('',*,*,#449,.T.);
#607=ORIENTED_EDGE('',*,*,#451,.F.);
#608=ORIENTED_EDGE('',*,*,#452,.F.);
#609=ORIENTED_EDGE('',*,*,#453,.T.);
#610=ORIENTED_EDGE('',*,*,#454,.T.);
#611=ORIENTED_EDGE('',*,*,#453,.F.);
#612=ORIENTED_EDGE('',*,*,#452,.T.);
#613=ORIENTED_EDGE('',*,*,#454,.F.);
#614=ORIENTED_EDGE('',*,*,#455,.F.);
#615=ORIENTED_EDGE('',*,*,#456,.T.);
#616=ORIENTED_EDGE('',*,*,#457,.T.);
#617=ORIENTED_EDGE('',*,*,#456,.F.);
#618=ORIENTED_EDGE('',*,*,#455,.T.);
#619=ORIENTED_EDGE('',*,*,#457,.F.);
#620=CYLINDRICAL_SURFACE('',#717,2.);
#621=CYLINDRICAL_SURFACE('',#720,1.75);
#622=CYLINDRICAL_SURFACE('',#723,2.);
#623=CYLINDRICAL_SURFACE('',#726,1.75);
#624=CYLINDRICAL_SURFACE('',#729,1.75);
#625=CYLINDRICAL_SURFACE('',#732,1.75);
#626=CYLINDRICAL_SURFACE('',#735,2.);
#627=CYLINDRICAL_SURFACE('',#738,2.);
#628=CYLINDRICAL_SURFACE('',#741,2.5);
#629=CYLINDRICAL_SURFACE('',#744,1.75);
#630=CYLINDRICAL_SURFACE('',#747,1.75);
#631=CYLINDRICAL_SURFACE('',#750,1.75);
#632=CYLINDRICAL_SURFACE('',#753,2.);
#633=CYLINDRICAL_SURFACE('',#756,2.);
#634=CYLINDRICAL_SURFACE('',#759,2.);
#635=CYLINDRICAL_SURFACE('',#762,1.75);
#636=CYLINDRICAL_SURFACE('',#765,2.);
#637=CYLINDRICAL_SURFACE('',#768,59.5);
#638=CYLINDRICAL_SURFACE('',#773,6.);
#639=CYLINDRICAL_SURFACE('',#778,6.);
#640=CYLINDRICAL_SURFACE('',#783,6.);
#641=CYLINDRICAL_SURFACE('',#788,6.);
#642=CYLINDRICAL_SURFACE('',#793,10.);
#643=CYLINDRICAL_SURFACE('',#798,3.);
#644=CYLINDRICAL_SURFACE('',#803,3.);
#645=CYLINDRICAL_SURFACE('',#808,3.);
#646=CYLINDRICAL_SURFACE('',#813,3.);
#647=ADVANCED_FACE('',(#87),#620,.F.);
#648=ADVANCED_FACE('',(#88),#621,.F.);
#649=ADVANCED_FACE('',(#89),#622,.F.);
#650=ADVANCED_FACE('',(#90),#623,.F.);
#651=ADVANCED_FACE('',(#91),#624,.F.);
#652=ADVANCED_FACE('',(#92),#625,.F.);
#653=ADVANCED_FACE('',(#93),#626,.F.);
#654=ADVANCED_FACE('',(#94),#627,.F.);
#655=ADVANCED_FACE('',(#95),#628,.F.);
#656=ADVANCED_FACE('',(#96),#629,.F.);
#657=ADVANCED_FACE('',(#97),#630,.F.);
#658=ADVANCED_FACE('',(#98),#631,.F.);
#659=ADVANCED_FACE('',(#99),#632,.F.);
#660=ADVANCED_FACE('',(#100),#633,.F.);
#661=ADVANCED_FACE('',(#101),#634,.F.);
#662=ADVANCED_FACE('',(#102),#635,.F.);
#663=ADVANCED_FACE('',(#103),#636,.F.);
#664=ADVANCED_FACE('',(#104),#637,.T.);
#665=ADVANCED_FACE('',(#105,#33,#34,#35,#36,#37,#38,#39,#40,#41,#42,#43,
#44,#45,#46,#47,#48,#49),#67,.T.);
#666=ADVANCED_FACE('',(#106,#50,#51,#52,#53,#54,#55,#56,#57,#58,#59,#60,
#61,#62,#63,#64,#65,#66),#68,.F.);
#667=ADVANCED_FACE('',(#107),#638,.T.);
#668=ADVANCED_FACE('',(#108),#69,.T.);
#669=ADVANCED_FACE('',(#109),#70,.F.);
#670=ADVANCED_FACE('',(#110),#639,.T.);
#671=ADVANCED_FACE('',(#111),#71,.T.);
#672=ADVANCED_FACE('',(#112),#72,.F.);
#673=ADVANCED_FACE('',(#113),#640,.T.);
#674=ADVANCED_FACE('',(#114),#73,.T.);
#675=ADVANCED_FACE('',(#115),#74,.F.);
#676=ADVANCED_FACE('',(#116),#641,.T.);
#677=ADVANCED_FACE('',(#117),#75,.T.);
#678=ADVANCED_FACE('',(#118),#76,.F.);
#679=ADVANCED_FACE('',(#119),#642,.T.);
#680=ADVANCED_FACE('',(#120),#77,.T.);
#681=ADVANCED_FACE('',(#121),#78,.F.);
#682=ADVANCED_FACE('',(#122),#643,.T.);
#683=ADVANCED_FACE('',(#123),#79,.T.);
#684=ADVANCED_FACE('',(#124),#80,.F.);
#685=ADVANCED_FACE('',(#125),#644,.T.);
#686=ADVANCED_FACE('',(#126),#81,.T.);
#687=ADVANCED_FACE('',(#127),#82,.F.);
#688=ADVANCED_FACE('',(#128),#645,.T.);
#689=ADVANCED_FACE('',(#129),#83,.T.);
#690=ADVANCED_FACE('',(#130),#84,.F.);
#691=ADVANCED_FACE('',(#131),#646,.T.);
#692=ADVANCED_FACE('',(#132),#85,.T.);
#693=ADVANCED_FACE('',(#133),#86,.F.);
#694=CLOSED_SHELL('',(#647,#648,#649,#650,#651,#652,#653,#654,#655,#656,
#657,#658,#659,#660,#661,#662,#663,#664,#665,#666));
#695=CLOSED_SHELL('',(#667,#668,#669));
#696=CLOSED_SHELL('',(#670,#671,#672));
#697=CLOSED_SHELL('',(#673,#674,#675));
#698=CLOSED_SHELL('',(#676,#677,#678));
#699=CLOSED_SHELL('',(#679,#680,#681));
#700=CLOSED_SHELL('',(#682,#683,#684));
#701=CLOSED_SHELL('',(#685,#686,#687));
#702=CLOSED_SHELL('',(#688,#689,#690));
#703=CLOSED_SHELL('',(#691,#692,#693));
#704=DERIVED_UNIT_ELEMENT(#706,1.);
#705=DERIVED_UNIT_ELEMENT(#1237,-3.);
#706=(
MASS_UNIT()
NAMED_UNIT(*)
SI_UNIT(.KILO.,.GRAM.)
);
#707=DERIVED_UNIT((#704,#705));
#708=MEASURE_REPRESENTATION_ITEM('density measure',
POSITIVE_RATIO_MEASURE(7850.),#707);
#709=PROPERTY_DEFINITION_REPRESENTATION(#714,#711);
#710=PROPERTY_DEFINITION_REPRESENTATION(#715,#712);
#711=REPRESENTATION('material name',(#713),#1234);
#712=REPRESENTATION('density',(#708),#1234);
#713=DESCRIPTIVE_REPRESENTATION_ITEM('Steel','Steel');
#714=PROPERTY_DEFINITION('material property','material name',#1244);
#715=PROPERTY_DEFINITION('material property','density of part',#1244);
#716=AXIS2_PLACEMENT_3D('',#1049,#818,#819);
#717=AXIS2_PLACEMENT_3D('',#1050,#820,#821);
#718=AXIS2_PLACEMENT_3D('',#1052,#822,#823);
#719=AXIS2_PLACEMENT_3D('',#1055,#825,#826);
#720=AXIS2_PLACEMENT_3D('',#1056,#827,#828);
#721=AXIS2_PLACEMENT_3D('',#1058,#829,#830);
#722=AXIS2_PLACEMENT_3D('',#1061,#832,#833);
#723=AXIS2_PLACEMENT_3D('',#1062,#834,#835);
#724=AXIS2_PLACEMENT_3D('',#1064,#836,#837);
#725=AXIS2_PLACEMENT_3D('',#1067,#839,#840);
#726=AXIS2_PLACEMENT_3D('',#1068,#841,#842);
#727=AXIS2_PLACEMENT_3D('',#1070,#843,#844);
#728=AXIS2_PLACEMENT_3D('',#1073,#846,#847);
#729=AXIS2_PLACEMENT_3D('',#1074,#848,#849);
#730=AXIS2_PLACEMENT_3D('',#1076,#850,#851);
#731=AXIS2_PLACEMENT_3D('',#1079,#853,#854);
#732=AXIS2_PLACEMENT_3D('',#1080,#855,#856);
#733=AXIS2_PLACEMENT_3D('',#1082,#857,#858);
#734=AXIS2_PLACEMENT_3D('',#1085,#860,#861);
#735=AXIS2_PLACEMENT_3D('',#1086,#862,#863);
#736=AXIS2_PLACEMENT_3D('',#1088,#864,#865);
#737=AXIS2_PLACEMENT_3D('',#1091,#867,#868);
#738=AXIS2_PLACEMENT_3D('',#1092,#869,#870);
#739=AXIS2_PLACEMENT_3D('',#1094,#871,#872);
#740=AXIS2_PLACEMENT_3D('',#1097,#874,#875);
#741=AXIS2_PLACEMENT_3D('',#1098,#876,#877);
#742=AXIS2_PLACEMENT_3D('',#1100,#878,#879);
#743=AXIS2_PLACEMENT_3D('',#1103,#881,#882);
#744=AXIS2_PLACEMENT_3D('',#1104,#883,#884);
#745=AXIS2_PLACEMENT_3D('',#1106,#885,#886);
#746=AXIS2_PLACEMENT_3D('',#1109,#888,#889);
#747=AXIS2_PLACEMENT_3D('',#1110,#890,#891);
#748=AXIS2_PLACEMENT_3D('',#1112,#892,#893);
#749=AXIS2_PLACEMENT_3D('',#1115,#895,#896);
#750=AXIS2_PLACEMENT_3D('',#1116,#897,#898);
#751=AXIS2_PLACEMENT_3D('',#1118,#899,#900);
#752=AXIS2_PLACEMENT_3D('',#1121,#902,#903);
#753=AXIS2_PLACEMENT_3D('',#1122,#904,#905);
#754=AXIS2_PLACEMENT_3D('',#1124,#906,#907);
#755=AXIS2_PLACEMENT_3D('',#1127,#909,#910);
#756=AXIS2_PLACEMENT_3D('',#1128,#911,#912);
#757=AXIS2_PLACEMENT_3D('',#1130,#913,#914);
#758=AXIS2_PLACEMENT_3D('',#1133,#916,#917);
#759=AXIS2_PLACEMENT_3D('',#1134,#918,#919);
#760=AXIS2_PLACEMENT_3D('',#1136,#920,#921);
#761=AXIS2_PLACEMENT_3D('',#1139,#923,#924);
#762=AXIS2_PLACEMENT_3D('',#1140,#925,#926);
#763=AXIS2_PLACEMENT_3D('',#1142,#927,#928);
#764=AXIS2_PLACEMENT_3D('',#1145,#930,#931);
#765=AXIS2_PLACEMENT_3D('',#1146,#932,#933);
#766=AXIS2_PLACEMENT_3D('',#1148,#934,#935);
#767=AXIS2_PLACEMENT_3D('',#1151,#937,#938);
#768=AXIS2_PLACEMENT_3D('',#1152,#939,#940);
#769=AXIS2_PLACEMENT_3D('',#1154,#941,#942);
#770=AXIS2_PLACEMENT_3D('',#1157,#944,#945);
#771=AXIS2_PLACEMENT_3D('',#1158,#946,#947);
#772=AXIS2_PLACEMENT_3D('',#1159,#948,#949);
#773=AXIS2_PLACEMENT_3D('',#1160,#950,#951);
#774=AXIS2_PLACEMENT_3D('',#1162,#952,#953);
#775=AXIS2_PLACEMENT_3D('',#1165,#955,#956);
#776=AXIS2_PLACEMENT_3D('',#1166,#957,#958);
#777=AXIS2_PLACEMENT_3D('',#1167,#959,#960);
#778=AXIS2_PLACEMENT_3D('',#1168,#961,#962);
#779=AXIS2_PLACEMENT_3D('',#1170,#963,#964);
#780=AXIS2_PLACEMENT_3D('',#1173,#966,#967);
#781=AXIS2_PLACEMENT_3D('',#1174,#968,#969);
#782=AXIS2_PLACEMENT_3D('',#1175,#970,#971);
#783=AXIS2_PLACEMENT_3D('',#1176,#972,#973);
#784=AXIS2_PLACEMENT_3D('',#1178,#974,#975);
#785=AXIS2_PLACEMENT_3D('',#1181,#977,#978);
#786=AXIS2_PLACEMENT_3D('',#1182,#979,#980);
#787=AXIS2_PLACEMENT_3D('',#1183,#981,#982);
#788=AXIS2_PLACEMENT_3D('',#1184,#983,#984);
#789=AXIS2_PLACEMENT_3D('',#1186,#985,#986);
#790=AXIS2_PLACEMENT_3D('',#1189,#988,#989);
#791=AXIS2_PLACEMENT_3D('',#1190,#990,#991);
#792=AXIS2_PLACEMENT_3D('',#1191,#992,#993);
#793=AXIS2_PLACEMENT_3D('',#1192,#994,#995);
#794=AXIS2_PLACEMENT_3D('',#1194,#996,#997);
#795=AXIS2_PLACEMENT_3D('',#1197,#999,#1000);
#796=AXIS2_PLACEMENT_3D('',#1198,#1001,#1002);
#797=AXIS2_PLACEMENT_3D('',#1199,#1003,#1004);
#798=AXIS2_PLACEMENT_3D('',#1200,#1005,#1006);
#799=AXIS2_PLACEMENT_3D('',#1202,#1007,#1008);
#800=AXIS2_PLACEMENT_3D('',#1205,#1010,#1011);
#801=AXIS2_PLACEMENT_3D('',#1206,#1012,#1013);
#802=AXIS2_PLACEMENT_3D('',#1207,#1014,#1015);
#803=AXIS2_PLACEMENT_3D('',#1208,#1016,#1017);
#804=AXIS2_PLACEMENT_3D('',#1210,#1018,#1019);
#805=AXIS2_PLACEMENT_3D('',#1213,#1021,#1022);
#806=AXIS2_PLACEMENT_3D('',#1214,#1023,#1024);
#807=AXIS2_PLACEMENT_3D('',#1215,#1025,#1026);
#808=AXIS2_PLACEMENT_3D('',#1216,#1027,#1028);
#809=AXIS2_PLACEMENT_3D('',#1218,#1029,#1030);
#810=AXIS2_PLACEMENT_3D('',#1221,#1032,#1033);
#811=AXIS2_PLACEMENT_3D('',#1222,#1034,#1035);
#812=AXIS2_PLACEMENT_3D('',#1223,#1036,#1037);
#813=AXIS2_PLACEMENT_3D('',#1224,#1038,#1039);
#814=AXIS2_PLACEMENT_3D('',#1226,#1040,#1041);
#815=AXIS2_PLACEMENT_3D('',#1229,#1043,#1044);
#816=AXIS2_PLACEMENT_3D('',#1230,#1045,#1046);
#817=AXIS2_PLACEMENT_3D('',#1231,#1047,#1048);
#818=DIRECTION('axis',(0.,0.,1.));
#819=DIRECTION('refdir',(1.,0.,0.));
#820=DIRECTION('center_axis',(0.,0.,-1.));
#821=DIRECTION('ref_axis',(1.,0.,0.));
#822=DIRECTION('center_axis',(0.,0.,1.));
#823=DIRECTION('ref_axis',(1.,0.,0.));
#824=DIRECTION('',(0.,0.,1.));
#825=DIRECTION('center_axis',(0.,0.,-1.));
#826=DIRECTION('ref_axis',(1.,0.,0.));
#827=DIRECTION('center_axis',(0.,0.,-1.));
#828=DIRECTION('ref_axis',(1.,0.,0.));
#829=DIRECTION('center_axis',(0.,0.,1.));
#830=DIRECTION('ref_axis',(1.,0.,0.));
#831=DIRECTION('',(0.,0.,1.));
#832=DIRECTION('center_axis',(0.,0.,-1.));
#833=DIRECTION('ref_axis',(1.,0.,0.));
#834=DIRECTION('center_axis',(0.,0.,-1.));
#835=DIRECTION('ref_axis',(1.,0.,0.));
#836=DIRECTION('center_axis',(0.,0.,1.));
#837=DIRECTION('ref_axis',(1.,0.,0.));
#838=DIRECTION('',(0.,0.,1.));
#839=DIRECTION('center_axis',(0.,0.,-1.));
#840=DIRECTION('ref_axis',(1.,0.,0.));
#841=DIRECTION('center_axis',(0.,0.,-1.));
#842=DIRECTION('ref_axis',(1.,0.,0.));
#843=DIRECTION('center_axis',(0.,0.,1.));
#844=DIRECTION('ref_axis',(1.,0.,0.));
#845=DIRECTION('',(0.,0.,1.));
#846=DIRECTION('center_axis',(0.,0.,-1.));
#847=DIRECTION('ref_axis',(1.,0.,0.));
#848=DIRECTION('center_axis',(0.,0.,-1.));
#849=DIRECTION('ref_axis',(1.,0.,0.));
#850=DIRECTION('center_axis',(0.,0.,1.));
#851=DIRECTION('ref_axis',(1.,0.,0.));
#852=DIRECTION('',(0.,0.,1.));
#853=DIRECTION('center_axis',(0.,0.,-1.));
#854=DIRECTION('ref_axis',(1.,0.,0.));
#855=DIRECTION('center_axis',(0.,0.,-1.));
#856=DIRECTION('ref_axis',(1.,0.,0.));
#857=DIRECTION('center_axis',(0.,0.,1.));
#858=DIRECTION('ref_axis',(1.,0.,0.));
#859=DIRECTION('',(0.,0.,1.));
#860=DIRECTION('center_axis',(0.,0.,-1.));
#861=DIRECTION('ref_axis',(1.,0.,0.));
#862=DIRECTION('center_axis',(0.,0.,-1.));
#863=DIRECTION('ref_axis',(1.,0.,0.));
#864=DIRECTION('center_axis',(0.,0.,1.));
#865=DIRECTION('ref_axis',(1.,0.,0.));
#866=DIRECTION('',(0.,0.,1.));
#867=DIRECTION('center_axis',(0.,0.,-1.));
#868=DIRECTION('ref_axis',(1.,0.,0.));
#869=DIRECTION('center_axis',(0.,0.,-1.));
#870=DIRECTION('ref_axis',(1.,0.,0.));
#871=DIRECTION('center_axis',(0.,0.,1.));
#872=DIRECTION('ref_axis',(1.,0.,0.));
#873=DIRECTION('',(0.,0.,1.));
#874=DIRECTION('center_axis',(0.,0.,-1.));
#875=DIRECTION('ref_axis',(1.,0.,0.));
#876=DIRECTION('center_axis',(0.,0.,-1.));
#877=DIRECTION('ref_axis',(1.,0.,0.));
#878=DIRECTION('center_axis',(0.,0.,1.));
#879=DIRECTION('ref_axis',(1.,0.,0.));
#880=DIRECTION('',(0.,0.,1.));
#881=DIRECTION('center_axis',(0.,0.,-1.));
#882=DIRECTION('ref_axis',(1.,0.,0.));
#883=DIRECTION('center_axis',(0.,0.,-1.));
#884=DIRECTION('ref_axis',(1.,0.,0.));
#885=DIRECTION('center_axis',(0.,0.,1.));
#886=DIRECTION('ref_axis',(1.,0.,0.));
#887=DIRECTION('',(0.,0.,1.));
#888=DIRECTION('center_axis',(0.,0.,-1.));
#889=DIRECTION('ref_axis',(1.,0.,0.));
#890=DIRECTION('center_axis',(0.,0.,-1.));
#891=DIRECTION('ref_axis',(1.,0.,0.));
#892=DIRECTION('center_axis',(0.,0.,1.));
#893=DIRECTION('ref_axis',(1.,0.,0.));
#894=DIRECTION('',(0.,0.,1.));
#895=DIRECTION('center_axis',(0.,0.,-1.));
#896=DIRECTION('ref_axis',(1.,0.,0.));
#897=DIRECTION('center_axis',(0.,0.,-1.));
#898=DIRECTION('ref_axis',(1.,0.,0.));
#899=DIRECTION('center_axis',(0.,0.,1.));
#900=DIRECTION('ref_axis',(1.,0.,0.));
#901=DIRECTION('',(0.,0.,1.));
#902=DIRECTION('center_axis',(0.,0.,-1.));
#903=DIRECTION('ref_axis',(1.,0.,0.));
#904=DIRECTION('center_axis',(0.,0.,-1.));
#905=DIRECTION('ref_axis',(1.,0.,0.));
#906=DIRECTION('center_axis',(0.,0.,1.));
#907=DIRECTION('ref_axis',(1.,0.,0.));
#908=DIRECTION('',(0.,0.,1.));
#909=DIRECTION('center_axis',(0.,0.,-1.));
#910=DIRECTION('ref_axis',(1.,0.,0.));
#911=DIRECTION('center_axis',(0.,0.,-1.));
#912=DIRECTION('ref_axis',(1.,0.,0.));
#913=DIRECTION('center_axis',(0.,0.,1.));
#914=DIRECTION('ref_axis',(1.,0.,0.));
#915=DIRECTION('',(0.,0.,1.));
#916=DIRECTION('center_axis',(0.,0.,-1.));
#917=DIRECTION('ref_axis',(1.,0.,0.));
#918=DIRECTION('center_axis',(0.,0.,-1.));
#919=DIRECTION('ref_axis',(1.,0.,0.));
#920=DIRECTION('center_axis',(0.,0.,1.));
#921=DIRECTION('ref_axis',(1.,0.,0.));
#922=DIRECTION('',(0.,0.,1.));
#923=DIRECTION('center_axis',(0.,0.,-1.));
#924=DIRECTION('ref_axis',(1.,0.,0.));
#925=DIRECTION('center_axis',(0.,0.,-1.));
#926=DIRECTION('ref_axis',(1.,0.,0.));
#927=DIRECTION('center_axis',(0.,0.,1.));
#928=DIRECTION('ref_axis',(1.,0.,0.));
#929=DIRECTION('',(0.,0.,1.));
#930=DIRECTION('center_axis',(0.,0.,-1.));
#931=DIRECTION('ref_axis',(1.,0.,0.));
#932=DIRECTION('center_axis',(0.,0.,-1.));
#933=DIRECTION('ref_axis',(1.,0.,0.));
#934=DIRECTION('center_axis',(0.,0.,1.));
#935=DIRECTION('ref_axis',(1.,0.,0.));
#936=DIRECTION('',(0.,0.,1.));
#937=DIRECTION('center_axis',(0.,0.,-1.));
#938=DIRECTION('ref_axis',(1.,0.,0.));
#939=DIRECTION('center_axis',(0.,0.,-1.));
#940=DIRECTION('ref_axis',(1.,0.,0.));
#941=DIRECTION('center_axis',(0.,0.,-1.));
#942=DIRECTION('ref_axis',(1.,0.,0.));
#943=DIRECTION('',(0.,0.,1.));
#944=DIRECTION('center_axis',(0.,0.,1.));
#945=DIRECTION('ref_axis',(1.,0.,0.));
#946=DIRECTION('center_axis',(0.,0.,1.));
#947=DIRECTION('ref_axis',(1.,0.,0.));
#948=DIRECTION('center_axis',(0.,0.,1.));
#949=DIRECTION('ref_axis',(1.,0.,0.));
#950=DIRECTION('center_axis',(0.,0.,-1.));
#951=DIRECTION('ref_axis',(1.,0.,0.));
#952=DIRECTION('center_axis',(0.,0.,-1.));
#953=DIRECTION('ref_axis',(1.,0.,0.));
#954=DIRECTION('',(0.,0.,1.));
#955=DIRECTION('center_axis',(0.,0.,1.));
#956=DIRECTION('ref_axis',(1.,0.,0.));
#957=DIRECTION('center_axis',(0.,0.,1.));
#958=DIRECTION('ref_axis',(1.,0.,0.));
#959=DIRECTION('center_axis',(0.,0.,1.));
#960=DIRECTION('ref_axis',(1.,0.,0.));
#961=DIRECTION('center_axis',(0.,0.,-1.));
#962=DIRECTION('ref_axis',(1.,0.,0.));
#963=DIRECTION('center_axis',(0.,0.,-1.));
#964=DIRECTION('ref_axis',(1.,0.,0.));
#965=DIRECTION('',(0.,0.,1.));
#966=DIRECTION('center_axis',(0.,0.,1.));
#967=DIRECTION('ref_axis',(1.,0.,0.));
#968=DIRECTION('center_axis',(0.,0.,1.));
#969=DIRECTION('ref_axis',(1.,0.,0.));
#970=DIRECTION('center_axis',(0.,0.,1.));
#971=DIRECTION('ref_axis',(1.,0.,0.));
#972=DIRECTION('center_axis',(0.,0.,-1.));
#973=DIRECTION('ref_axis',(1.,0.,0.));
#974=DIRECTION('center_axis',(0.,0.,-1.));
#975=DIRECTION('ref_axis',(1.,0.,0.));
#976=DIRECTION('',(0.,0.,1.));
#977=DIRECTION('center_axis',(0.,0.,1.));
#978=DIRECTION('ref_axis',(1.,0.,0.));
#979=DIRECTION('center_axis',(0.,0.,1.));
#980=DIRECTION('ref_axis',(1.,0.,0.));
#981=DIRECTION('center_axis',(0.,0.,1.));
#982=DIRECTION('ref_axis',(1.,0.,0.));
#983=DIRECTION('center_axis',(0.,0.,-1.));
#984=DIRECTION('ref_axis',(1.,0.,0.));
#985=DIRECTION('center_axis',(0.,0.,-1.));
#986=DIRECTION('ref_axis',(1.,0.,0.));
#987=DIRECTION('',(0.,0.,1.));
#988=DIRECTION('center_axis',(0.,0.,1.));
#989=DIRECTION('ref_axis',(1.,0.,0.));
#990=DIRECTION('center_axis',(0.,0.,1.));
#991=DIRECTION('ref_axis',(1.,0.,0.));
#992=DIRECTION('center_axis',(0.,0.,1.));
#993=DIRECTION('ref_axis',(1.,0.,0.));
#994=DIRECTION('center_axis',(0.,0.,1.));
#995=DIRECTION('ref_axis',(1.,0.,0.));
#996=DIRECTION('center_axis',(0.,0.,1.));
#997=DIRECTION('ref_axis',(1.,0.,0.));
#998=DIRECTION('',(0.,0.,-1.));
#999=DIRECTION('center_axis',(0.,0.,1.));
#1000=DIRECTION('ref_axis',(1.,0.,0.));
#1001=DIRECTION('center_axis',(0.,0.,1.));
#1002=DIRECTION('ref_axis',(1.,0.,0.));
#1003=DIRECTION('center_axis',(0.,0.,1.));
#1004=DIRECTION('ref_axis',(1.,0.,0.));
#1005=DIRECTION('center_axis',(0.,0.,1.));
#1006=DIRECTION('ref_axis',(1.,0.,0.));
#1007=DIRECTION('center_axis',(0.,0.,1.));
#1008=DIRECTION('ref_axis',(1.,0.,0.));
#1009=DIRECTION('',(0.,0.,-1.));
#1010=DIRECTION('center_axis',(0.,0.,1.));
#1011=DIRECTION('ref_axis',(1.,0.,0.));
#1012=DIRECTION('center_axis',(0.,0.,1.));
#1013=DIRECTION('ref_axis',(1.,0.,0.));
#1014=DIRECTION('center_axis',(0.,0.,1.));
#1015=DIRECTION('ref_axis',(1.,0.,0.));
#1016=DIRECTION('center_axis',(0.,0.,1.));
#1017=DIRECTION('ref_axis',(1.,0.,0.));
#1018=DIRECTION('center_axis',(0.,0.,1.));
#1019=DIRECTION('ref_axis',(1.,0.,0.));
#1020=DIRECTION('',(0.,0.,-1.));
#1021=DIRECTION('center_axis',(0.,0.,1.));
#1022=DIRECTION('ref_axis',(1.,0.,0.));
#1023=DIRECTION('center_axis',(0.,0.,1.));
#1024=DIRECTION('ref_axis',(1.,0.,0.));
#1025=DIRECTION('center_axis',(0.,0.,1.));
#1026=DIRECTION('ref_axis',(1.,0.,0.));
#1027=DIRECTION('center_axis',(0.,0.,1.));
#1028=DIRECTION('ref_axis',(1.,0.,0.));
#1029=DIRECTION('center_axis',(0.,0.,1.));
#1030=DIRECTION('ref_axis',(1.,0.,0.));
#1031=DIRECTION('',(0.,0.,-1.));
#1032=DIRECTION('center_axis',(0.,0.,1.));
#1033=DIRECTION('ref_axis',(1.,0.,0.));
#1034=DIRECTION('center_axis',(0.,0.,1.));
#1035=DIRECTION('ref_axis',(1.,0.,0.));
#1036=DIRECTION('center_axis',(0.,0.,1.));
#1037=DIRECTION('ref_axis',(1.,0.,0.));
#1038=DIRECTION('center_axis',(0.,0.,1.));
#1039=DIRECTION('ref_axis',(1.,0.,0.));
#1040=DIRECTION('center_axis',(0.,0.,1.));
#1041=DIRECTION('ref_axis',(1.,0.,0.));
#1042=DIRECTION('',(0.,0.,-1.));
#1043=DIRECTION('center_axis',(0.,0.,1.));
#1044=DIRECTION('ref_axis',(1.,0.,0.));
#1045=DIRECTION('center_axis',(0.,0.,1.));
#1046=DIRECTION('ref_axis',(1.,0.,0.));
#1047=DIRECTION('center_axis',(0.,0.,1.));
#1048=DIRECTION('ref_axis',(1.,0.,0.));
#1049=CARTESIAN_POINT('',(0.,0.,0.));
#1050=CARTESIAN_POINT('Origin',(16.9330347749138,6.79966003678183,0.));
#1051=CARTESIAN_POINT('',(14.9330347749138,6.79966003678183,-3.));
#1052=CARTESIAN_POINT('Origin',(16.9330347749138,6.79966003678183,-3.));
#1053=CARTESIAN_POINT('',(14.9330347749138,6.79966003678183,0.));
#1054=CARTESIAN_POINT('',(14.9330347749138,6.79966003678183,0.));
#1055=CARTESIAN_POINT('Origin',(16.9330347749138,6.79966003678183,0.));
#1056=CARTESIAN_POINT('Origin',(0.,-35.0000005215406,0.));
#1057=CARTESIAN_POINT('',(-1.75,-35.0000005215406,-3.));
#1058=CARTESIAN_POINT('Origin',(0.,-35.0000005215406,-3.));
#1059=CARTESIAN_POINT('',(-1.75,-35.0000005215406,0.));
#1060=CARTESIAN_POINT('',(-1.75,-35.0000005215406,0.));
#1061=CARTESIAN_POINT('Origin',(0.,-35.0000005215406,0.));
#1062=CARTESIAN_POINT('Origin',(4.43303477491376,-6.79966003678183,0.));
#1063=CARTESIAN_POINT('',(2.43303477491376,-6.79966003678183,-3.));
#1064=CARTESIAN_POINT('Origin',(4.43303477491376,-6.79966003678183,-3.));
#1065=CARTESIAN_POINT('',(2.43303477491376,-6.79966003678183,0.));
#1066=CARTESIAN_POINT('',(2.43303477491376,-6.79966003678183,0.));
#1067=CARTESIAN_POINT('Origin',(4.43303477491376,-6.79966003678183,0.));
#1068=CARTESIAN_POINT('Origin',(39.5979797464467,-39.5979797464467,0.));
#1069=CARTESIAN_POINT('',(37.8479797464467,-39.5979797464467,-3.));
#1070=CARTESIAN_POINT('Origin',(39.5979797464467,-39.5979797464467,-3.));
#1071=CARTESIAN_POINT('',(37.8479797464467,-39.5979797464467,0.));
#1072=CARTESIAN_POINT('',(37.8479797464467,-39.5979797464467,0.));
#1073=CARTESIAN_POINT('Origin',(39.5979797464467,-39.5979797464467,0.));
#1074=CARTESIAN_POINT('Origin',(0.,35.0000005215406,0.));
#1075=CARTESIAN_POINT('',(-1.75,35.0000005215406,-3.));
#1076=CARTESIAN_POINT('Origin',(0.,35.0000005215406,-3.));
#1077=CARTESIAN_POINT('',(-1.75,35.0000005215406,0.));
#1078=CARTESIAN_POINT('',(-1.75,35.0000005215406,0.));
#1079=CARTESIAN_POINT('Origin',(0.,35.0000005215406,0.));
#1080=CARTESIAN_POINT('Origin',(39.5979797464467,39.5979797464467,0.));
#1081=CARTESIAN_POINT('',(37.8479797464467,39.5979797464467,-3.));
#1082=CARTESIAN_POINT('Origin',(39.5979797464467,39.5979797464467,-3.));
#1083=CARTESIAN_POINT('',(37.8479797464467,39.5979797464467,0.));
#1084=CARTESIAN_POINT('',(37.8479797464467,39.5979797464467,0.));
#1085=CARTESIAN_POINT('Origin',(39.5979797464467,39.5979797464467,0.));
#1086=CARTESIAN_POINT('Origin',(-16.9330347749138,6.79966003678183,0.));
#1087=CARTESIAN_POINT('',(-18.9330347749138,6.79966003678183,-3.));
#1088=CARTESIAN_POINT('Origin',(-16.9330347749138,6.79966003678183,-3.));
#1089=CARTESIAN_POINT('',(-18.9330347749138,6.79966003678183,0.));
#1090=CARTESIAN_POINT('',(-18.9330347749138,6.79966003678183,0.));
#1091=CARTESIAN_POINT('Origin',(-16.9330347749138,6.79966003678183,0.));
#1092=CARTESIAN_POINT('Origin',(16.9330347749138,-6.79966003678183,0.));
#1093=CARTESIAN_POINT('',(14.9330347749138,-6.79966003678183,-3.));
#1094=CARTESIAN_POINT('Origin',(16.9330347749138,-6.79966003678183,-3.));
#1095=CARTESIAN_POINT('',(14.9330347749138,-6.79966003678183,0.));
#1096=CARTESIAN_POINT('',(14.9330347749138,-6.79966003678183,0.));
#1097=CARTESIAN_POINT('Origin',(16.9330347749138,-6.79966003678183,0.));
#1098=CARTESIAN_POINT('Origin',(0.,0.,0.));
#1099=CARTESIAN_POINT('',(-2.5,0.,-3.));
#1100=CARTESIAN_POINT('Origin',(0.,0.,-3.));
#1101=CARTESIAN_POINT('',(-2.5,-3.06161699786838E-16,0.));
#1102=CARTESIAN_POINT('',(-2.5,3.06161699786838E-16,0.));
#1103=CARTESIAN_POINT('Origin',(0.,0.,0.));
#1104=CARTESIAN_POINT('Origin',(-26.5,0.,0.));
#1105=CARTESIAN_POINT('',(-28.25,0.,-3.));
#1106=CARTESIAN_POINT('Origin',(-26.5,0.,-3.));
#1107=CARTESIAN_POINT('',(-28.25,-2.14313189850787E-16,0.));
#1108=CARTESIAN_POINT('',(-28.25,2.14313189850787E-16,0.));
#1109=CARTESIAN_POINT('Origin',(-26.5,0.,0.));
#1110=CARTESIAN_POINT('Origin',(26.5,0.,0.));
#1111=CARTESIAN_POINT('',(24.75,0.,-3.));
#1112=CARTESIAN_POINT('Origin',(26.5,0.,-3.));
#1113=CARTESIAN_POINT('',(24.75,-2.14313189850787E-16,0.));
#1114=CARTESIAN_POINT('',(24.75,2.14313189850787E-16,0.));
#1115=CARTESIAN_POINT('Origin',(26.5,0.,0.));
#1116=CARTESIAN_POINT('Origin',(-39.5979797464467,39.5979797464467,0.));
#1117=CARTESIAN_POINT('',(-41.3479797464467,39.5979797464467,-3.));
#1118=CARTESIAN_POINT('Origin',(-39.5979797464467,39.5979797464467,-3.));
#1119=CARTESIAN_POINT('',(-41.3479797464467,39.5979797464467,0.));
#1120=CARTESIAN_POINT('',(-41.3479797464467,39.5979797464467,0.));
#1121=CARTESIAN_POINT('Origin',(-39.5979797464467,39.5979797464467,0.));
#1122=CARTESIAN_POINT('Origin',(-4.43303477491376,-6.79966003678183,0.));
#1123=CARTESIAN_POINT('',(-6.43303477491376,-6.79966003678183,-3.));
#1124=CARTESIAN_POINT('Origin',(-4.43303477491376,-6.79966003678183,-3.));
#1125=CARTESIAN_POINT('',(-6.43303477491376,-6.79966003678183,0.));
#1126=CARTESIAN_POINT('',(-6.43303477491376,-6.79966003678183,0.));
#1127=CARTESIAN_POINT('Origin',(-4.43303477491376,-6.79966003678183,0.));
#1128=CARTESIAN_POINT('Origin',(-4.43303477491376,6.79966003678183,0.));
#1129=CARTESIAN_POINT('',(-6.43303477491376,6.79966003678183,-3.));
#1130=CARTESIAN_POINT('Origin',(-4.43303477491376,6.79966003678183,-3.));
#1131=CARTESIAN_POINT('',(-6.43303477491376,6.79966003678183,0.));
#1132=CARTESIAN_POINT('',(-6.43303477491376,6.79966003678183,0.));
#1133=CARTESIAN_POINT('Origin',(-4.43303477491376,6.79966003678183,0.));
#1134=CARTESIAN_POINT('Origin',(-16.9330347749138,-6.79966003678183,0.));
#1135=CARTESIAN_POINT('',(-18.9330347749138,-6.79966003678183,-3.));
#1136=CARTESIAN_POINT('Origin',(-16.9330347749138,-6.79966003678183,-3.));
#1137=CARTESIAN_POINT('',(-18.9330347749138,-6.79966003678183,0.));
#1138=CARTESIAN_POINT('',(-18.9330347749138,-6.79966003678183,0.));
#1139=CARTESIAN_POINT('Origin',(-16.9330347749138,-6.79966003678183,0.));
#1140=CARTESIAN_POINT('Origin',(-39.5979797464467,-39.5979797464467,0.));
#1141=CARTESIAN_POINT('',(-41.3479797464467,-39.5979797464467,-3.));
#1142=CARTESIAN_POINT('Origin',(-39.5979797464467,-39.5979797464467,-3.));
#1143=CARTESIAN_POINT('',(-41.3479797464467,-39.5979797464467,0.));
#1144=CARTESIAN_POINT('',(-41.3479797464467,-39.5979797464467,0.));
#1145=CARTESIAN_POINT('Origin',(-39.5979797464467,-39.5979797464467,0.));
#1146=CARTESIAN_POINT('Origin',(4.43303477491376,6.79966003678183,0.));
#1147=CARTESIAN_POINT('',(2.43303477491376,6.79966003678183,-3.));
#1148=CARTESIAN_POINT('Origin',(4.43303477491376,6.79966003678183,-3.));
#1149=CARTESIAN_POINT('',(2.43303477491376,6.79966003678183,0.));
#1150=CARTESIAN_POINT('',(2.43303477491376,6.79966003678183,0.));
#1151=CARTESIAN_POINT('Origin',(4.43303477491376,6.79966003678183,0.));
#1152=CARTESIAN_POINT('Origin',(0.,0.,0.));
#1153=CARTESIAN_POINT('',(-59.5,-7.7715611723761E-15,-3.));
#1154=CARTESIAN_POINT('Origin',(0.,0.,-3.));
#1155=CARTESIAN_POINT('',(-59.5,-7.28664845492675E-15,0.));
#1156=CARTESIAN_POINT('',(-59.5,7.28664845492675E-15,0.));
#1157=CARTESIAN_POINT('Origin',(0.,0.,0.));
#1158=CARTESIAN_POINT('Origin',(0.,0.,0.));
#1159=CARTESIAN_POINT('Origin',(0.,0.,-3.));
#1160=CARTESIAN_POINT('Origin',(-26.5,0.,0.));
#1161=CARTESIAN_POINT('',(-32.5,-7.34788079488412E-16,-1.));
#1162=CARTESIAN_POINT('Origin',(-26.5,0.,-1.));
#1163=CARTESIAN_POINT('',(-32.5,-7.34788079488412E-16,0.));
#1164=CARTESIAN_POINT('',(-32.5,7.34788079488412E-16,0.));
#1165=CARTESIAN_POINT('Origin',(-26.5,0.,0.));
#1166=CARTESIAN_POINT('Origin',(-26.5,0.,0.));
#1167=CARTESIAN_POINT('Origin',(-26.5,0.,-1.));
#1168=CARTESIAN_POINT('Origin',(26.5,0.,0.));
#1169=CARTESIAN_POINT('',(20.5,-7.34788079488412E-16,-1.));
#1170=CARTESIAN_POINT('Origin',(26.5,0.,-1.));
#1171=CARTESIAN_POINT('',(20.5,-7.34788079488412E-16,0.));
#1172=CARTESIAN_POINT('',(20.5,7.34788079488412E-16,0.));
#1173=CARTESIAN_POINT('Origin',(26.5,0.,0.));
#1174=CARTESIAN_POINT('Origin',(26.5,0.,0.));
#1175=CARTESIAN_POINT('Origin',(26.5,0.,-1.));
#1176=CARTESIAN_POINT('Origin',(0.,-35.0000005215406,0.));
#1177=CARTESIAN_POINT('',(-6.,-35.0000005215406,-1.));
#1178=CARTESIAN_POINT('Origin',(0.,-35.0000005215406,-1.));
#1179=CARTESIAN_POINT('',(-6.,-35.0000005215406,0.));
#1180=CARTESIAN_POINT('',(-6.,-35.0000005215406,0.));
#1181=CARTESIAN_POINT('Origin',(0.,-35.0000005215406,0.));
#1182=CARTESIAN_POINT('Origin',(0.,-35.0000005215406,0.));
#1183=CARTESIAN_POINT('Origin',(0.,-35.0000005215406,-1.));
#1184=CARTESIAN_POINT('Origin',(0.,35.0000005215406,0.));
#1185=CARTESIAN_POINT('',(-6.,35.0000005215406,-1.));
#1186=CARTESIAN_POINT('Origin',(0.,35.0000005215406,-1.));
#1187=CARTESIAN_POINT('',(-6.,35.0000005215406,0.));
#1188=CARTESIAN_POINT('',(-6.,35.0000005215406,0.));
#1189=CARTESIAN_POINT('Origin',(0.,35.0000005215406,0.));
#1190=CARTESIAN_POINT('Origin',(0.,35.0000005215406,0.));
#1191=CARTESIAN_POINT('Origin',(0.,35.0000005215406,-1.));
#1192=CARTESIAN_POINT('Origin',(0.,0.,30.));
#1193=CARTESIAN_POINT('',(-10.,-1.22464679914735E-15,35.));
#1194=CARTESIAN_POINT('Origin',(0.,0.,35.));
#1195=CARTESIAN_POINT('',(-10.,-1.22464679914735E-15,30.));
#1196=CARTESIAN_POINT('',(-10.,-1.22464679914735E-15,30.));
#1197=CARTESIAN_POINT('Origin',(0.,0.,30.));
#1198=CARTESIAN_POINT('Origin',(0.,0.,35.));
#1199=CARTESIAN_POINT('Origin',(0.,0.,30.));
#1200=CARTESIAN_POINT('Origin',(0.,35.0000005215406,0.));
#1201=CARTESIAN_POINT('',(-3.,35.0000005215406,10.));
#1202=CARTESIAN_POINT('Origin',(0.,35.0000005215406,10.));
#1203=CARTESIAN_POINT('',(-3.,35.0000005215406,0.));
#1204=CARTESIAN_POINT('',(-3.,35.0000005215406,0.));
#1205=CARTESIAN_POINT('Origin',(0.,35.0000005215406,0.));
#1206=CARTESIAN_POINT('Origin',(0.,35.0000005215406,10.));
#1207=CARTESIAN_POINT('Origin',(0.,35.0000005215406,0.));
#1208=CARTESIAN_POINT('Origin',(-26.5,0.,0.));
#1209=CARTESIAN_POINT('',(-29.5,-3.67394039744206E-16,10.));
#1210=CARTESIAN_POINT('Origin',(-26.5,0.,10.));
#1211=CARTESIAN_POINT('',(-29.5,-3.67394039744206E-16,0.));
#1212=CARTESIAN_POINT('',(-29.5,-3.67394039744206E-16,0.));
#1213=CARTESIAN_POINT('Origin',(-26.5,0.,0.));
#1214=CARTESIAN_POINT('Origin',(-26.5,0.,10.));
#1215=CARTESIAN_POINT('Origin',(-26.5,0.,0.));
#1216=CARTESIAN_POINT('Origin',(26.5,0.,0.));
#1217=CARTESIAN_POINT('',(23.5,-3.67394039744206E-16,10.));
#1218=CARTESIAN_POINT('Origin',(26.5,0.,10.));
#1219=CARTESIAN_POINT('',(23.5,-3.67394039744206E-16,0.));
#1220=CARTESIAN_POINT('',(23.5,-3.67394039744206E-16,0.));
#1221=CARTESIAN_POINT('Origin',(26.5,0.,0.));
#1222=CARTESIAN_POINT('Origin',(26.5,0.,10.));
#1223=CARTESIAN_POINT('Origin',(26.5,0.,0.));
#1224=CARTESIAN_POINT('Origin',(0.,-35.0000005215406,0.));
#1225=CARTESIAN_POINT('',(-3.,-35.0000005215406,10.));
#1226=CARTESIAN_POINT('Origin',(0.,-35.0000005215406,10.));
#1227=CARTESIAN_POINT('',(-3.,-35.0000005215406,0.));
#1228=CARTESIAN_POINT('',(-3.,-35.0000005215406,0.));
#1229=CARTESIAN_POINT('Origin',(0.,-35.0000005215406,0.));
#1230=CARTESIAN_POINT('Origin',(0.,-35.0000005215406,10.));
#1231=CARTESIAN_POINT('Origin',(0.,-35.0000005215406,0.));
#1232=UNCERTAINTY_MEASURE_WITH_UNIT(LENGTH_MEASURE(0.01),#1236,
'DISTANCE_ACCURACY_VALUE',
'Maximum model space distance between geometric entities at asserted c
onnectivities');
#1233=UNCERTAINTY_MEASURE_WITH_UNIT(LENGTH_MEASURE(0.01),#1236,
'DISTANCE_ACCURACY_VALUE',
'Maximum model space distance between geometric entities at asserted c
onnectivities');
#1234=(
GEOMETRIC_REPRESENTATION_CONTEXT(3)
GLOBAL_UNCERTAINTY_ASSIGNED_CONTEXT((#1232))
GLOBAL_UNIT_ASSIGNED_CONTEXT((#1236,#1238,#1239))
REPRESENTATION_CONTEXT('','3D')
);
#1235=(
GEOMETRIC_REPRESENTATION_CONTEXT(3)
GLOBAL_UNCERTAINTY_ASSIGNED_CONTEXT((#1233))
GLOBAL_UNIT_ASSIGNED_CONTEXT((#1236,#1238,#1239))
REPRESENTATION_CONTEXT('','3D')
);
#1236=(
LENGTH_UNIT()
NAMED_UNIT(*)
SI_UNIT(.MILLI.,.METRE.)
);
#1237=(
LENGTH_UNIT()
NAMED_UNIT(*)
SI_UNIT($,.METRE.)
);
#1238=(
NAMED_UNIT(*)
PLANE_ANGLE_UNIT()
SI_UNIT($,.RADIAN.)
);
#1239=(
NAMED_UNIT(*)
SI_UNIT($,.STERADIAN.)
SOLID_ANGLE_UNIT()
);
#1240=SHAPE_DEFINITION_REPRESENTATION(#1241,#1242);
#1241=PRODUCT_DEFINITION_SHAPE('',$,#1244);
#1242=SHAPE_REPRESENTATION('',(#716),#1234);
#1243=PRODUCT_DEFINITION_CONTEXT('part definition',#1248,'design');
#1244=PRODUCT_DEFINITION('UpperMount','UpperMount v14',#1245,#1243);
#1245=PRODUCT_DEFINITION_FORMATION('',$,#1250);
#1246=PRODUCT_RELATED_PRODUCT_CATEGORY('UpperMount v14',
'UpperMount v14',(#1250));
#1247=APPLICATION_PROTOCOL_DEFINITION('international standard',
'automotive_design',2009,#1248);
#1248=APPLICATION_CONTEXT(
'Core Data for Automotive Mechanical Design Process');
#1249=PRODUCT_CONTEXT('part definition',#1248,'mechanical');
#1250=PRODUCT('UpperMount','UpperMount v14',$,(#1249));
#1251=PRESENTATION_STYLE_ASSIGNMENT((#1253));
#1252=PRESENTATION_STYLE_ASSIGNMENT((#1254));
#1253=SURFACE_STYLE_USAGE(.BOTH.,#1255);
#1254=SURFACE_STYLE_USAGE(.BOTH.,#1256);
#1255=SURFACE_SIDE_STYLE('',(#1257));
#1256=SURFACE_SIDE_STYLE('',(#1258));
#1257=SURFACE_STYLE_FILL_AREA(#1259);
#1258=SURFACE_STYLE_FILL_AREA(#1260);
#1259=FILL_AREA_STYLE('Steel - Satin',(#1261));
#1260=FILL_AREA_STYLE('Acrylic (Clear)',(#1262));
#1261=FILL_AREA_STYLE_COLOUR('Steel - Satin',#1263);
#1262=FILL_AREA_STYLE_COLOUR('Acrylic (Clear)',#1264);
#1263=COLOUR_RGB('Steel - Satin',0.627450980392157,0.627450980392157,0.627450980392157);
#1264=COLOUR_RGB('Acrylic (Clear)',0.964705882352941,0.964705882352941,
0.952941176470588);
ENDSEC;
END-ISO-10303-21;
