ISO-10303-21;
HEADER;
/* Generated by software containing ST-Developer
 * from STEP Tools, Inc. (www.steptools.com) 
 */

FILE_DESCRIPTION(
/* description */ (''),
/* implementation_level */ '2;1');

FILE_NAME(
/* name */ '40KgServoMotor_v2.step',
/* time_stamp */ '2026-08-21T09:20:10-04:00',
/* author */ (''),
/* organization */ (''),
/* preprocessor_version */ 'ST-DEVELOPER v20.1',
/* originating_system */ 'Autodesk Translation Framework v15.8.0.0',
/* authorisation */ '');

FILE_SCHEMA (('AUTOMOTIVE_DESIGN { 1 0 10303 214 3 1 1 }'));
ENDSEC;

DATA;
#10=MECHANICAL_DESIGN_GEOMETRIC_PRESENTATION_REPRESENTATION('',(#1017,#1018,
#1019,#1020,#1021,#1022,#1023),#1755);
#11=SHAPE_REPRESENTATION_RELATIONSHIP('SRR','None',#1762,#12);
#12=ADVANCED_BREP_SHAPE_REPRESENTATION('',(#13),#1754);
#13=MANIFOLD_SOLID_BREP('Body1',#1079);
#14=CYLINDRICAL_SURFACE('',#1126,3.5);
#15=CYLINDRICAL_SURFACE('',#1130,7.55000893896474);
#16=CYLINDRICAL_SURFACE('',#1135,2.25);
#17=CYLINDRICAL_SURFACE('',#1141,2.25);
#18=CYLINDRICAL_SURFACE('',#1143,2.25);
#19=CYLINDRICAL_SURFACE('',#1148,2.25);
#20=ELLIPSE('',#1118,8.26029349318311,7.55000893896474);
#21=ELLIPSE('',#1119,8.26029349318311,7.55000893896474);
#22=ELLIPSE('',#1124,12.0859113074799,7.55000893896474);
#23=ELLIPSE('',#1125,12.0859113074799,7.55000893896474);
#24=CIRCLE('',#1109,2.25);
#25=CIRCLE('',#1110,2.25);
#26=CIRCLE('',#1115,2.25);
#27=CIRCLE('',#1116,2.25);
#28=CIRCLE('',#1121,7.55000893896474);
#29=CIRCLE('',#1122,7.55000893896474);
#30=CIRCLE('',#1127,3.5);
#31=CIRCLE('',#1128,3.5);
#32=CIRCLE('',#1131,7.55000893896474);
#33=CIRCLE('',#1132,7.55000893896474);
#34=CIRCLE('',#1136,2.25);
#35=CIRCLE('',#1142,2.25);
#36=CIRCLE('',#1144,2.25);
#37=CIRCLE('',#1149,2.25);
#38=FACE_BOUND('',#106,.T.);
#39=FACE_BOUND('',#108,.T.);
#40=FACE_BOUND('',#125,.T.);
#41=FACE_OUTER_BOUND('',#96,.T.);
#42=FACE_OUTER_BOUND('',#97,.T.);
#43=FACE_OUTER_BOUND('',#98,.T.);
#44=FACE_OUTER_BOUND('',#99,.T.);
#45=FACE_OUTER_BOUND('',#100,.T.);
#46=FACE_OUTER_BOUND('',#101,.T.);
#47=FACE_OUTER_BOUND('',#102,.T.);
#48=FACE_OUTER_BOUND('',#103,.T.);
#49=FACE_OUTER_BOUND('',#104,.T.);
#50=FACE_OUTER_BOUND('',#105,.T.);
#51=FACE_OUTER_BOUND('',#107,.T.);
#52=FACE_OUTER_BOUND('',#109,.T.);
#53=FACE_OUTER_BOUND('',#110,.T.);
#54=FACE_OUTER_BOUND('',#111,.T.);
#55=FACE_OUTER_BOUND('',#112,.T.);
#56=FACE_OUTER_BOUND('',#113,.T.);
#57=FACE_OUTER_BOUND('',#114,.T.);
#58=FACE_OUTER_BOUND('',#115,.T.);
#59=FACE_OUTER_BOUND('',#116,.T.);
#60=FACE_OUTER_BOUND('',#117,.T.);
#61=FACE_OUTER_BOUND('',#118,.T.);
#62=FACE_OUTER_BOUND('',#119,.T.);
#63=FACE_OUTER_BOUND('',#120,.T.);
#64=FACE_OUTER_BOUND('',#121,.T.);
#65=FACE_OUTER_BOUND('',#122,.T.);
#66=FACE_OUTER_BOUND('',#123,.T.);
#67=FACE_OUTER_BOUND('',#124,.T.);
#68=FACE_OUTER_BOUND('',#126,.T.);
#69=FACE_OUTER_BOUND('',#127,.T.);
#70=FACE_OUTER_BOUND('',#128,.T.);
#71=FACE_OUTER_BOUND('',#129,.T.);
#72=FACE_OUTER_BOUND('',#130,.T.);
#73=FACE_OUTER_BOUND('',#131,.T.);
#74=FACE_OUTER_BOUND('',#132,.T.);
#75=FACE_OUTER_BOUND('',#133,.T.);
#76=FACE_OUTER_BOUND('',#134,.T.);
#77=FACE_OUTER_BOUND('',#135,.T.);
#78=FACE_OUTER_BOUND('',#136,.T.);
#79=FACE_OUTER_BOUND('',#137,.T.);
#80=FACE_OUTER_BOUND('',#138,.T.);
#81=FACE_OUTER_BOUND('',#139,.T.);
#82=FACE_OUTER_BOUND('',#140,.T.);
#83=FACE_OUTER_BOUND('',#141,.T.);
#84=FACE_OUTER_BOUND('',#142,.T.);
#85=FACE_OUTER_BOUND('',#143,.T.);
#86=FACE_OUTER_BOUND('',#144,.T.);
#87=FACE_OUTER_BOUND('',#145,.T.);
#88=FACE_OUTER_BOUND('',#146,.T.);
#89=FACE_OUTER_BOUND('',#147,.T.);
#90=FACE_OUTER_BOUND('',#148,.T.);
#91=FACE_OUTER_BOUND('',#149,.T.);
#92=FACE_OUTER_BOUND('',#150,.T.);
#93=FACE_OUTER_BOUND('',#151,.T.);
#94=FACE_OUTER_BOUND('',#152,.T.);
#95=FACE_OUTER_BOUND('',#153,.T.);
#96=EDGE_LOOP('',(#668,#669,#670,#671));
#97=EDGE_LOOP('',(#672,#673,#674,#675));
#98=EDGE_LOOP('',(#676,#677,#678,#679));
#99=EDGE_LOOP('',(#680,#681,#682,#683,#684,#685,#686,#687,#688,#689,#690,
#691,#692,#693,#694));
#100=EDGE_LOOP('',(#695,#696,#697,#698));
#101=EDGE_LOOP('',(#699,#700,#701,#702));
#102=EDGE_LOOP('',(#703,#704,#705,#706));
#103=EDGE_LOOP('',(#707,#708,#709,#710,#711,#712,#713,#714,#715,#716,#717,
#718,#719,#720,#721));
#104=EDGE_LOOP('',(#722,#723,#724,#725));
#105=EDGE_LOOP('',(#726,#727,#728,#729));
#106=EDGE_LOOP('',(#730,#731,#732,#733));
#107=EDGE_LOOP('',(#734,#735,#736,#737));
#108=EDGE_LOOP('',(#738,#739,#740,#741));
#109=EDGE_LOOP('',(#742,#743,#744,#745));
#110=EDGE_LOOP('',(#746,#747,#748,#749));
#111=EDGE_LOOP('',(#750,#751,#752));
#112=EDGE_LOOP('',(#753,#754,#755));
#113=EDGE_LOOP('',(#756,#757,#758,#759,#760,#761,#762,#763,#764,#765,#766,
#767,#768,#769,#770,#771));
#114=EDGE_LOOP('',(#772,#773,#774,#775));
#115=EDGE_LOOP('',(#776,#777,#778));
#116=EDGE_LOOP('',(#779,#780,#781));
#117=EDGE_LOOP('',(#782,#783,#784,#785,#786,#787,#788,#789,#790,#791,#792,
#793,#794,#795,#796,#797));
#118=EDGE_LOOP('',(#798,#799,#800,#801));
#119=EDGE_LOOP('',(#802,#803,#804));
#120=EDGE_LOOP('',(#805,#806,#807,#808,#809,#810,#811));
#121=EDGE_LOOP('',(#812,#813,#814,#815));
#122=EDGE_LOOP('',(#816));
#123=EDGE_LOOP('',(#817,#818,#819,#820,#821,#822,#823,#824,#825,#826));
#124=EDGE_LOOP('',(#827,#828));
#125=EDGE_LOOP('',(#829));
#126=EDGE_LOOP('',(#830,#831,#832,#833,#834,#835));
#127=EDGE_LOOP('',(#836,#837,#838,#839));
#128=EDGE_LOOP('',(#840,#841,#842,#843));
#129=EDGE_LOOP('',(#844,#845,#846,#847));
#130=EDGE_LOOP('',(#848,#849,#850,#851));
#131=EDGE_LOOP('',(#852,#853,#854,#855));
#132=EDGE_LOOP('',(#856,#857,#858,#859));
#133=EDGE_LOOP('',(#860,#861,#862,#863));
#134=EDGE_LOOP('',(#864,#865,#866,#867));
#135=EDGE_LOOP('',(#868,#869,#870,#871));
#136=EDGE_LOOP('',(#872,#873,#874,#875));
#137=EDGE_LOOP('',(#876,#877,#878,#879));
#138=EDGE_LOOP('',(#880,#881,#882,#883));
#139=EDGE_LOOP('',(#884,#885,#886,#887));
#140=EDGE_LOOP('',(#888,#889,#890,#891));
#141=EDGE_LOOP('',(#892,#893,#894,#895,#896,#897,#898,#899,#900,#901,#902,
#903));
#142=EDGE_LOOP('',(#904,#905,#906,#907));
#143=EDGE_LOOP('',(#908,#909,#910,#911));
#144=EDGE_LOOP('',(#912,#913,#914,#915));
#145=EDGE_LOOP('',(#916,#917,#918,#919));
#146=EDGE_LOOP('',(#920,#921,#922,#923));
#147=EDGE_LOOP('',(#924,#925,#926,#927,#928,#929,#930,#931,#932,#933,#934,
#935));
#148=EDGE_LOOP('',(#936,#937,#938,#939));
#149=EDGE_LOOP('',(#940,#941,#942,#943,#944,#945,#946,#947));
#150=EDGE_LOOP('',(#948,#949,#950,#951));
#151=EDGE_LOOP('',(#952,#953,#954,#955));
#152=EDGE_LOOP('',(#956,#957,#958,#959,#960,#961,#962,#963));
#153=EDGE_LOOP('',(#964,#965,#966,#967));
#154=LINE('',#1450,#286);
#155=LINE('',#1452,#287);
#156=LINE('',#1454,#288);
#157=LINE('',#1455,#289);
#158=LINE('',#1458,#290);
#159=LINE('',#1460,#291);
#160=LINE('',#1461,#292);
#161=LINE('',#1465,#293);
#162=LINE('',#1467,#294);
#163=LINE('',#1469,#295);
#164=LINE('',#1470,#296);
#165=LINE('',#1474,#297);
#166=LINE('',#1476,#298);
#167=LINE('',#1478,#299);
#168=LINE('',#1480,#300);
#169=LINE('',#1482,#301);
#170=LINE('',#1484,#302);
#171=LINE('',#1486,#303);
#172=LINE('',#1488,#304);
#173=LINE('',#1490,#305);
#174=LINE('',#1492,#306);
#175=LINE('',#1494,#307);
#176=LINE('',#1496,#308);
#177=LINE('',#1498,#309);
#178=LINE('',#1500,#310);
#179=LINE('',#1501,#311);
#180=LINE('',#1504,#312);
#181=LINE('',#1506,#313);
#182=LINE('',#1507,#314);
#183=LINE('',#1510,#315);
#184=LINE('',#1512,#316);
#185=LINE('',#1513,#317);
#186=LINE('',#1516,#318);
#187=LINE('',#1518,#319);
#188=LINE('',#1519,#320);
#189=LINE('',#1523,#321);
#190=LINE('',#1525,#322);
#191=LINE('',#1527,#323);
#192=LINE('',#1529,#324);
#193=LINE('',#1531,#325);
#194=LINE('',#1533,#326);
#195=LINE('',#1535,#327);
#196=LINE('',#1537,#328);
#197=LINE('',#1539,#329);
#198=LINE('',#1541,#330);
#199=LINE('',#1543,#331);
#200=LINE('',#1545,#332);
#201=LINE('',#1547,#333);
#202=LINE('',#1549,#334);
#203=LINE('',#1550,#335);
#204=LINE('',#1552,#336);
#205=LINE('',#1553,#337);
#206=LINE('',#1555,#338);
#207=LINE('',#1556,#339);
#208=LINE('',#1558,#340);
#209=LINE('',#1559,#341);
#210=LINE('',#1564,#342);
#211=LINE('',#1566,#343);
#212=LINE('',#1568,#344);
#213=LINE('',#1569,#345);
#214=LINE('',#1572,#346);
#215=LINE('',#1573,#347);
#216=LINE('',#1576,#348);
#217=LINE('',#1577,#349);
#218=LINE('',#1579,#350);
#219=LINE('',#1581,#351);
#220=LINE('',#1583,#352);
#221=LINE('',#1587,#353);
#222=LINE('',#1589,#354);
#223=LINE('',#1591,#355);
#224=LINE('',#1595,#356);
#225=LINE('',#1596,#357);
#226=LINE('',#1597,#358);
#227=LINE('',#1601,#359);
#228=LINE('',#1603,#360);
#229=LINE('',#1605,#361);
#230=LINE('',#1606,#362);
#231=LINE('',#1609,#363);
#232=LINE('',#1610,#364);
#233=LINE('',#1613,#365);
#234=LINE('',#1614,#366);
#235=LINE('',#1616,#367);
#236=LINE('',#1618,#368);
#237=LINE('',#1620,#369);
#238=LINE('',#1624,#370);
#239=LINE('',#1626,#371);
#240=LINE('',#1628,#372);
#241=LINE('',#1632,#373);
#242=LINE('',#1633,#374);
#243=LINE('',#1634,#375);
#244=LINE('',#1640,#376);
#245=LINE('',#1643,#377);
#246=LINE('',#1654,#378);
#247=LINE('',#1655,#379);
#248=LINE('',#1656,#380);
#249=LINE('',#1661,#381);
#250=LINE('',#1666,#382);
#251=LINE('',#1670,#383);
#252=LINE('',#1673,#384);
#253=LINE('',#1676,#385);
#254=LINE('',#1679,#386);
#255=LINE('',#1680,#387);
#256=LINE('',#1683,#388);
#257=LINE('',#1684,#389);
#258=LINE('',#1687,#390);
#259=LINE('',#1689,#391);
#260=LINE('',#1690,#392);
#261=LINE('',#1693,#393);
#262=LINE('',#1695,#394);
#263=LINE('',#1696,#395);
#264=LINE('',#1701,#396);
#265=LINE('',#1704,#397);
#266=LINE('',#1707,#398);
#267=LINE('',#1708,#399);
#268=LINE('',#1711,#400);
#269=LINE('',#1712,#401);
#270=LINE('',#1715,#402);
#271=LINE('',#1717,#403);
#272=LINE('',#1718,#404);
#273=LINE('',#1722,#405);
#274=LINE('',#1725,#406);
#275=LINE('',#1726,#407);
#276=LINE('',#1728,#408);
#277=LINE('',#1730,#409);
#278=LINE('',#1732,#410);
#279=LINE('',#1733,#411);
#280=LINE('',#1734,#412);
#281=LINE('',#1735,#413);
#282=LINE('',#1740,#414);
#283=LINE('',#1743,#415);
#284=LINE('',#1746,#416);
#285=LINE('',#1748,#417);
#286=VECTOR('',#1170,10.);
#287=VECTOR('',#1171,10.);
#288=VECTOR('',#1172,10.);
#289=VECTOR('',#1173,10.);
#290=VECTOR('',#1176,10.);
#291=VECTOR('',#1177,10.);
#292=VECTOR('',#1178,10.);
#293=VECTOR('',#1181,10.);
#294=VECTOR('',#1182,10.);
#295=VECTOR('',#1183,10.);
#296=VECTOR('',#1184,10.);
#297=VECTOR('',#1187,10.);
#298=VECTOR('',#1188,10.);
#299=VECTOR('',#1189,10.);
#300=VECTOR('',#1190,10.);
#301=VECTOR('',#1191,10.);
#302=VECTOR('',#1192,10.);
#303=VECTOR('',#1193,10.);
#304=VECTOR('',#1194,10.);
#305=VECTOR('',#1195,10.);
#306=VECTOR('',#1196,10.);
#307=VECTOR('',#1197,10.);
#308=VECTOR('',#1198,10.);
#309=VECTOR('',#1199,10.);
#310=VECTOR('',#1200,10.);
#311=VECTOR('',#1201,10.);
#312=VECTOR('',#1204,10.);
#313=VECTOR('',#1205,10.);
#314=VECTOR('',#1206,10.);
#315=VECTOR('',#1209,10.);
#316=VECTOR('',#1210,10.);
#317=VECTOR('',#1211,10.);
#318=VECTOR('',#1214,10.);
#319=VECTOR('',#1215,10.);
#320=VECTOR('',#1216,10.);
#321=VECTOR('',#1219,10.);
#322=VECTOR('',#1220,10.);
#323=VECTOR('',#1221,10.);
#324=VECTOR('',#1222,10.);
#325=VECTOR('',#1223,10.);
#326=VECTOR('',#1224,10.);
#327=VECTOR('',#1225,10.);
#328=VECTOR('',#1226,10.);
#329=VECTOR('',#1227,10.);
#330=VECTOR('',#1228,10.);
#331=VECTOR('',#1229,10.);
#332=VECTOR('',#1230,10.);
#333=VECTOR('',#1231,10.);
#334=VECTOR('',#1232,10.);
#335=VECTOR('',#1233,10.);
#336=VECTOR('',#1236,10.);
#337=VECTOR('',#1237,10.);
#338=VECTOR('',#1240,10.);
#339=VECTOR('',#1241,10.);
#340=VECTOR('',#1244,10.);
#341=VECTOR('',#1245,10.);
#342=VECTOR('',#1250,10.);
#343=VECTOR('',#1251,10.);
#344=VECTOR('',#1252,10.);
#345=VECTOR('',#1253,10.);
#346=VECTOR('',#1256,10.);
#347=VECTOR('',#1257,10.);
#348=VECTOR('',#1260,10.);
#349=VECTOR('',#1261,10.);
#350=VECTOR('',#1264,10.);
#351=VECTOR('',#1265,10.);
#352=VECTOR('',#1266,10.);
#353=VECTOR('',#1269,10.);
#354=VECTOR('',#1270,10.);
#355=VECTOR('',#1271,10.);
#356=VECTOR('',#1274,10.);
#357=VECTOR('',#1275,10.);
#358=VECTOR('',#1276,10.);
#359=VECTOR('',#1279,10.);
#360=VECTOR('',#1280,10.);
#361=VECTOR('',#1281,10.);
#362=VECTOR('',#1282,10.);
#363=VECTOR('',#1285,10.);
#364=VECTOR('',#1286,10.);
#365=VECTOR('',#1289,10.);
#366=VECTOR('',#1290,10.);
#367=VECTOR('',#1293,10.);
#368=VECTOR('',#1294,10.);
#369=VECTOR('',#1295,10.);
#370=VECTOR('',#1298,10.);
#371=VECTOR('',#1299,10.);
#372=VECTOR('',#1300,10.);
#373=VECTOR('',#1303,10.);
#374=VECTOR('',#1304,10.);
#375=VECTOR('',#1305,10.);
#376=VECTOR('',#1310,10.);
#377=VECTOR('',#1313,10.);
#378=VECTOR('',#1326,10.);
#379=VECTOR('',#1327,10.);
#380=VECTOR('',#1328,10.);
#381=VECTOR('',#1333,3.5);
#382=VECTOR('',#1342,7.55000893896474);
#383=VECTOR('',#1349,10.);
#384=VECTOR('',#1352,10.);
#385=VECTOR('',#1355,10.);
#386=VECTOR('',#1358,10.);
#387=VECTOR('',#1359,10.);
#388=VECTOR('',#1362,10.);
#389=VECTOR('',#1363,10.);
#390=VECTOR('',#1366,10.);
#391=VECTOR('',#1367,10.);
#392=VECTOR('',#1368,10.);
#393=VECTOR('',#1371,10.);
#394=VECTOR('',#1372,10.);
#395=VECTOR('',#1373,10.);
#396=VECTOR('',#1380,10.);
#397=VECTOR('',#1383,10.);
#398=VECTOR('',#1386,10.);
#399=VECTOR('',#1387,10.);
#400=VECTOR('',#1390,10.);
#401=VECTOR('',#1391,10.);
#402=VECTOR('',#1394,10.);
#403=VECTOR('',#1395,10.);
#404=VECTOR('',#1396,10.);
#405=VECTOR('',#1401,10.);
#406=VECTOR('',#1404,10.);
#407=VECTOR('',#1405,10.);
#408=VECTOR('',#1408,10.);
#409=VECTOR('',#1411,10.);
#410=VECTOR('',#1414,10.);
#411=VECTOR('',#1415,10.);
#412=VECTOR('',#1416,10.);
#413=VECTOR('',#1417,10.);
#414=VECTOR('',#1426,10.);
#415=VECTOR('',#1431,10.);
#416=VECTOR('',#1436,10.);
#417=VECTOR('',#1439,10.);
#418=VERTEX_POINT('',#1448);
#419=VERTEX_POINT('',#1449);
#420=VERTEX_POINT('',#1451);
#421=VERTEX_POINT('',#1453);
#422=VERTEX_POINT('',#1457);
#423=VERTEX_POINT('',#1459);
#424=VERTEX_POINT('',#1463);
#425=VERTEX_POINT('',#1464);
#426=VERTEX_POINT('',#1466);
#427=VERTEX_POINT('',#1468);
#428=VERTEX_POINT('',#1472);
#429=VERTEX_POINT('',#1473);
#430=VERTEX_POINT('',#1475);
#431=VERTEX_POINT('',#1477);
#432=VERTEX_POINT('',#1479);
#433=VERTEX_POINT('',#1481);
#434=VERTEX_POINT('',#1483);
#435=VERTEX_POINT('',#1485);
#436=VERTEX_POINT('',#1487);
#437=VERTEX_POINT('',#1489);
#438=VERTEX_POINT('',#1491);
#439=VERTEX_POINT('',#1493);
#440=VERTEX_POINT('',#1495);
#441=VERTEX_POINT('',#1497);
#442=VERTEX_POINT('',#1499);
#443=VERTEX_POINT('',#1503);
#444=VERTEX_POINT('',#1505);
#445=VERTEX_POINT('',#1509);
#446=VERTEX_POINT('',#1511);
#447=VERTEX_POINT('',#1515);
#448=VERTEX_POINT('',#1517);
#449=VERTEX_POINT('',#1521);
#450=VERTEX_POINT('',#1522);
#451=VERTEX_POINT('',#1524);
#452=VERTEX_POINT('',#1526);
#453=VERTEX_POINT('',#1528);
#454=VERTEX_POINT('',#1530);
#455=VERTEX_POINT('',#1532);
#456=VERTEX_POINT('',#1534);
#457=VERTEX_POINT('',#1536);
#458=VERTEX_POINT('',#1538);
#459=VERTEX_POINT('',#1540);
#460=VERTEX_POINT('',#1542);
#461=VERTEX_POINT('',#1544);
#462=VERTEX_POINT('',#1546);
#463=VERTEX_POINT('',#1548);
#464=VERTEX_POINT('',#1562);
#465=VERTEX_POINT('',#1563);
#466=VERTEX_POINT('',#1565);
#467=VERTEX_POINT('',#1567);
#468=VERTEX_POINT('',#1571);
#469=VERTEX_POINT('',#1575);
#470=VERTEX_POINT('',#1580);
#471=VERTEX_POINT('',#1582);
#472=VERTEX_POINT('',#1584);
#473=VERTEX_POINT('',#1586);
#474=VERTEX_POINT('',#1588);
#475=VERTEX_POINT('',#1590);
#476=VERTEX_POINT('',#1592);
#477=VERTEX_POINT('',#1594);
#478=VERTEX_POINT('',#1599);
#479=VERTEX_POINT('',#1600);
#480=VERTEX_POINT('',#1602);
#481=VERTEX_POINT('',#1604);
#482=VERTEX_POINT('',#1608);
#483=VERTEX_POINT('',#1612);
#484=VERTEX_POINT('',#1617);
#485=VERTEX_POINT('',#1619);
#486=VERTEX_POINT('',#1621);
#487=VERTEX_POINT('',#1623);
#488=VERTEX_POINT('',#1625);
#489=VERTEX_POINT('',#1627);
#490=VERTEX_POINT('',#1629);
#491=VERTEX_POINT('',#1631);
#492=VERTEX_POINT('',#1636);
#493=VERTEX_POINT('',#1637);
#494=VERTEX_POINT('',#1639);
#495=VERTEX_POINT('',#1641);
#496=VERTEX_POINT('',#1645);
#497=VERTEX_POINT('',#1649);
#498=VERTEX_POINT('',#1650);
#499=VERTEX_POINT('',#1652);
#500=VERTEX_POINT('',#1658);
#501=VERTEX_POINT('',#1660);
#502=VERTEX_POINT('',#1672);
#503=VERTEX_POINT('',#1674);
#504=VERTEX_POINT('',#1678);
#505=VERTEX_POINT('',#1682);
#506=VERTEX_POINT('',#1686);
#507=VERTEX_POINT('',#1688);
#508=VERTEX_POINT('',#1692);
#509=VERTEX_POINT('',#1694);
#510=VERTEX_POINT('',#1700);
#511=VERTEX_POINT('',#1702);
#512=VERTEX_POINT('',#1706);
#513=VERTEX_POINT('',#1710);
#514=VERTEX_POINT('',#1714);
#515=VERTEX_POINT('',#1716);
#516=VERTEX_POINT('',#1720);
#517=VERTEX_POINT('',#1724);
#518=EDGE_CURVE('',#418,#419,#154,.T.);
#519=EDGE_CURVE('',#420,#418,#155,.T.);
#520=EDGE_CURVE('',#421,#420,#156,.T.);
#521=EDGE_CURVE('',#419,#421,#157,.T.);
#522=EDGE_CURVE('',#422,#419,#158,.T.);
#523=EDGE_CURVE('',#422,#423,#159,.T.);
#524=EDGE_CURVE('',#423,#418,#160,.T.);
#525=EDGE_CURVE('',#424,#425,#161,.T.);
#526=EDGE_CURVE('',#425,#426,#162,.T.);
#527=EDGE_CURVE('',#426,#427,#163,.T.);
#528=EDGE_CURVE('',#427,#424,#164,.T.);
#529=EDGE_CURVE('',#428,#429,#165,.T.);
#530=EDGE_CURVE('',#429,#430,#166,.T.);
#531=EDGE_CURVE('',#430,#431,#167,.T.);
#532=EDGE_CURVE('',#431,#432,#168,.T.);
#533=EDGE_CURVE('',#432,#433,#169,.T.);
#534=EDGE_CURVE('',#433,#434,#170,.T.);
#535=EDGE_CURVE('',#434,#435,#171,.T.);
#536=EDGE_CURVE('',#435,#436,#172,.T.);
#537=EDGE_CURVE('',#436,#437,#173,.T.);
#538=EDGE_CURVE('',#438,#437,#174,.T.);
#539=EDGE_CURVE('',#438,#439,#175,.T.);
#540=EDGE_CURVE('',#440,#439,#176,.T.);
#541=EDGE_CURVE('',#441,#440,#177,.T.);
#542=EDGE_CURVE('',#442,#441,#178,.T.);
#543=EDGE_CURVE('',#442,#428,#179,.T.);
#544=EDGE_CURVE('',#443,#420,#180,.T.);
#545=EDGE_CURVE('',#443,#444,#181,.T.);
#546=EDGE_CURVE('',#444,#421,#182,.T.);
#547=EDGE_CURVE('',#425,#445,#183,.T.);
#548=EDGE_CURVE('',#446,#445,#184,.T.);
#549=EDGE_CURVE('',#426,#446,#185,.T.);
#550=EDGE_CURVE('',#445,#447,#186,.T.);
#551=EDGE_CURVE('',#447,#448,#187,.T.);
#552=EDGE_CURVE('',#448,#446,#188,.T.);
#553=EDGE_CURVE('',#449,#450,#189,.T.);
#554=EDGE_CURVE('',#450,#451,#190,.T.);
#555=EDGE_CURVE('',#451,#452,#191,.T.);
#556=EDGE_CURVE('',#452,#453,#192,.T.);
#557=EDGE_CURVE('',#453,#454,#193,.T.);
#558=EDGE_CURVE('',#454,#455,#194,.T.);
#559=EDGE_CURVE('',#455,#456,#195,.T.);
#560=EDGE_CURVE('',#456,#457,#196,.T.);
#561=EDGE_CURVE('',#457,#458,#197,.T.);
#562=EDGE_CURVE('',#458,#459,#198,.T.);
#563=EDGE_CURVE('',#459,#460,#199,.T.);
#564=EDGE_CURVE('',#460,#461,#200,.T.);
#565=EDGE_CURVE('',#461,#462,#201,.T.);
#566=EDGE_CURVE('',#462,#463,#202,.T.);
#567=EDGE_CURVE('',#463,#449,#203,.T.);
#568=EDGE_CURVE('',#429,#449,#204,.T.);
#569=EDGE_CURVE('',#430,#463,#205,.T.);
#570=EDGE_CURVE('',#450,#428,#206,.T.);
#571=EDGE_CURVE('',#423,#443,#207,.T.);
#572=EDGE_CURVE('',#447,#424,#208,.T.);
#573=EDGE_CURVE('',#444,#422,#209,.T.);
#574=EDGE_CURVE('',#464,#465,#210,.T.);
#575=EDGE_CURVE('',#466,#465,#211,.T.);
#576=EDGE_CURVE('',#466,#467,#212,.T.);
#577=EDGE_CURVE('',#464,#467,#213,.T.);
#578=EDGE_CURVE('',#468,#464,#214,.T.);
#579=EDGE_CURVE('',#465,#468,#215,.T.);
#580=EDGE_CURVE('',#469,#466,#216,.T.);
#581=EDGE_CURVE('',#467,#469,#217,.T.);
#582=EDGE_CURVE('',#469,#454,#218,.T.);
#583=EDGE_CURVE('',#470,#453,#219,.T.);
#584=EDGE_CURVE('',#470,#471,#220,.T.);
#585=EDGE_CURVE('',#471,#472,#24,.T.);
#586=EDGE_CURVE('',#472,#473,#221,.T.);
#587=EDGE_CURVE('',#474,#473,#222,.T.);
#588=EDGE_CURVE('',#474,#475,#223,.T.);
#589=EDGE_CURVE('',#475,#476,#25,.T.);
#590=EDGE_CURVE('',#476,#477,#224,.T.);
#591=EDGE_CURVE('',#440,#477,#225,.T.);
#592=EDGE_CURVE('',#439,#468,#226,.T.);
#593=EDGE_CURVE('',#478,#479,#227,.T.);
#594=EDGE_CURVE('',#480,#479,#228,.T.);
#595=EDGE_CURVE('',#480,#481,#229,.T.);
#596=EDGE_CURVE('',#478,#481,#230,.T.);
#597=EDGE_CURVE('',#482,#478,#231,.T.);
#598=EDGE_CURVE('',#479,#482,#232,.T.);
#599=EDGE_CURVE('',#483,#480,#233,.T.);
#600=EDGE_CURVE('',#481,#483,#234,.T.);
#601=EDGE_CURVE('',#433,#483,#235,.T.);
#602=EDGE_CURVE('',#432,#484,#236,.T.);
#603=EDGE_CURVE('',#484,#485,#237,.T.);
#604=EDGE_CURVE('',#485,#486,#26,.T.);
#605=EDGE_CURVE('',#486,#487,#238,.T.);
#606=EDGE_CURVE('',#487,#488,#239,.T.);
#607=EDGE_CURVE('',#488,#489,#240,.T.);
#608=EDGE_CURVE('',#489,#490,#27,.T.);
#609=EDGE_CURVE('',#490,#491,#241,.T.);
#610=EDGE_CURVE('',#491,#461,#242,.T.);
#611=EDGE_CURVE('',#482,#460,#243,.T.);
#612=EDGE_CURVE('',#492,#493,#20,.T.);
#613=EDGE_CURVE('',#493,#494,#244,.T.);
#614=EDGE_CURVE('',#494,#495,#21,.T.);
#615=EDGE_CURVE('',#492,#495,#245,.T.);
#616=EDGE_CURVE('',#493,#496,#28,.T.);
#617=EDGE_CURVE('',#496,#494,#29,.T.);
#618=EDGE_CURVE('',#497,#498,#22,.T.);
#619=EDGE_CURVE('',#498,#499,#23,.T.);
#620=EDGE_CURVE('',#499,#456,#246,.T.);
#621=EDGE_CURVE('',#438,#455,#247,.T.);
#622=EDGE_CURVE('',#437,#497,#248,.T.);
#623=EDGE_CURVE('',#500,#500,#30,.T.);
#624=EDGE_CURVE('',#500,#501,#249,.T.);
#625=EDGE_CURVE('',#501,#501,#31,.T.);
#626=EDGE_CURVE('',#495,#492,#32,.T.);
#627=EDGE_CURVE('',#496,#498,#250,.T.);
#628=EDGE_CURVE('',#499,#497,#33,.T.);
#629=EDGE_CURVE('',#436,#457,#251,.T.);
#630=EDGE_CURVE('',#489,#502,#252,.T.);
#631=EDGE_CURVE('',#503,#502,#34,.T.);
#632=EDGE_CURVE('',#490,#503,#253,.T.);
#633=EDGE_CURVE('',#504,#503,#254,.T.);
#634=EDGE_CURVE('',#491,#504,#255,.T.);
#635=EDGE_CURVE('',#505,#488,#256,.T.);
#636=EDGE_CURVE('',#502,#505,#257,.T.);
#637=EDGE_CURVE('',#506,#470,#258,.T.);
#638=EDGE_CURVE('',#507,#506,#259,.T.);
#639=EDGE_CURVE('',#471,#507,#260,.T.);
#640=EDGE_CURVE('',#472,#508,#261,.T.);
#641=EDGE_CURVE('',#509,#508,#262,.T.);
#642=EDGE_CURVE('',#473,#509,#263,.T.);
#643=EDGE_CURVE('',#508,#507,#35,.T.);
#644=EDGE_CURVE('',#485,#510,#264,.T.);
#645=EDGE_CURVE('',#511,#510,#36,.T.);
#646=EDGE_CURVE('',#486,#511,#265,.T.);
#647=EDGE_CURVE('',#512,#511,#266,.T.);
#648=EDGE_CURVE('',#487,#512,#267,.T.);
#649=EDGE_CURVE('',#513,#484,#268,.T.);
#650=EDGE_CURVE('',#510,#513,#269,.T.);
#651=EDGE_CURVE('',#514,#474,#270,.T.);
#652=EDGE_CURVE('',#515,#514,#271,.T.);
#653=EDGE_CURVE('',#475,#515,#272,.T.);
#654=EDGE_CURVE('',#516,#515,#37,.T.);
#655=EDGE_CURVE('',#476,#516,#273,.T.);
#656=EDGE_CURVE('',#517,#516,#274,.T.);
#657=EDGE_CURVE('',#477,#517,#275,.T.);
#658=EDGE_CURVE('',#504,#462,#276,.T.);
#659=EDGE_CURVE('',#431,#513,#277,.T.);
#660=EDGE_CURVE('',#506,#452,#278,.T.);
#661=EDGE_CURVE('',#442,#451,#279,.T.);
#662=EDGE_CURVE('',#441,#517,#280,.T.);
#663=EDGE_CURVE('',#514,#509,#281,.T.);
#664=EDGE_CURVE('',#427,#448,#282,.T.);
#665=EDGE_CURVE('',#512,#505,#283,.T.);
#666=EDGE_CURVE('',#434,#459,#284,.T.);
#667=EDGE_CURVE('',#435,#458,#285,.T.);
#668=ORIENTED_EDGE('',*,*,#518,.F.);
#669=ORIENTED_EDGE('',*,*,#519,.F.);
#670=ORIENTED_EDGE('',*,*,#520,.F.);
#671=ORIENTED_EDGE('',*,*,#521,.F.);
#672=ORIENTED_EDGE('',*,*,#518,.T.);
#673=ORIENTED_EDGE('',*,*,#522,.F.);
#674=ORIENTED_EDGE('',*,*,#523,.T.);
#675=ORIENTED_EDGE('',*,*,#524,.T.);
#676=ORIENTED_EDGE('',*,*,#525,.T.);
#677=ORIENTED_EDGE('',*,*,#526,.T.);
#678=ORIENTED_EDGE('',*,*,#527,.T.);
#679=ORIENTED_EDGE('',*,*,#528,.T.);
#680=ORIENTED_EDGE('',*,*,#529,.T.);
#681=ORIENTED_EDGE('',*,*,#530,.T.);
#682=ORIENTED_EDGE('',*,*,#531,.T.);
#683=ORIENTED_EDGE('',*,*,#532,.T.);
#684=ORIENTED_EDGE('',*,*,#533,.T.);
#685=ORIENTED_EDGE('',*,*,#534,.T.);
#686=ORIENTED_EDGE('',*,*,#535,.T.);
#687=ORIENTED_EDGE('',*,*,#536,.T.);
#688=ORIENTED_EDGE('',*,*,#537,.T.);
#689=ORIENTED_EDGE('',*,*,#538,.F.);
#690=ORIENTED_EDGE('',*,*,#539,.T.);
#691=ORIENTED_EDGE('',*,*,#540,.F.);
#692=ORIENTED_EDGE('',*,*,#541,.F.);
#693=ORIENTED_EDGE('',*,*,#542,.F.);
#694=ORIENTED_EDGE('',*,*,#543,.T.);
#695=ORIENTED_EDGE('',*,*,#520,.T.);
#696=ORIENTED_EDGE('',*,*,#544,.F.);
#697=ORIENTED_EDGE('',*,*,#545,.T.);
#698=ORIENTED_EDGE('',*,*,#546,.T.);
#699=ORIENTED_EDGE('',*,*,#547,.T.);
#700=ORIENTED_EDGE('',*,*,#548,.F.);
#701=ORIENTED_EDGE('',*,*,#549,.F.);
#702=ORIENTED_EDGE('',*,*,#526,.F.);
#703=ORIENTED_EDGE('',*,*,#550,.T.);
#704=ORIENTED_EDGE('',*,*,#551,.T.);
#705=ORIENTED_EDGE('',*,*,#552,.T.);
#706=ORIENTED_EDGE('',*,*,#548,.T.);
#707=ORIENTED_EDGE('',*,*,#553,.T.);
#708=ORIENTED_EDGE('',*,*,#554,.T.);
#709=ORIENTED_EDGE('',*,*,#555,.T.);
#710=ORIENTED_EDGE('',*,*,#556,.T.);
#711=ORIENTED_EDGE('',*,*,#557,.T.);
#712=ORIENTED_EDGE('',*,*,#558,.T.);
#713=ORIENTED_EDGE('',*,*,#559,.T.);
#714=ORIENTED_EDGE('',*,*,#560,.T.);
#715=ORIENTED_EDGE('',*,*,#561,.T.);
#716=ORIENTED_EDGE('',*,*,#562,.T.);
#717=ORIENTED_EDGE('',*,*,#563,.T.);
#718=ORIENTED_EDGE('',*,*,#564,.T.);
#719=ORIENTED_EDGE('',*,*,#565,.T.);
#720=ORIENTED_EDGE('',*,*,#566,.T.);
#721=ORIENTED_EDGE('',*,*,#567,.T.);
#722=ORIENTED_EDGE('',*,*,#568,.T.);
#723=ORIENTED_EDGE('',*,*,#567,.F.);
#724=ORIENTED_EDGE('',*,*,#569,.F.);
#725=ORIENTED_EDGE('',*,*,#530,.F.);
#726=ORIENTED_EDGE('',*,*,#529,.F.);
#727=ORIENTED_EDGE('',*,*,#570,.F.);
#728=ORIENTED_EDGE('',*,*,#553,.F.);
#729=ORIENTED_EDGE('',*,*,#568,.F.);
#730=ORIENTED_EDGE('',*,*,#519,.T.);
#731=ORIENTED_EDGE('',*,*,#524,.F.);
#732=ORIENTED_EDGE('',*,*,#571,.T.);
#733=ORIENTED_EDGE('',*,*,#544,.T.);
#734=ORIENTED_EDGE('',*,*,#525,.F.);
#735=ORIENTED_EDGE('',*,*,#572,.F.);
#736=ORIENTED_EDGE('',*,*,#550,.F.);
#737=ORIENTED_EDGE('',*,*,#547,.F.);
#738=ORIENTED_EDGE('',*,*,#546,.F.);
#739=ORIENTED_EDGE('',*,*,#573,.T.);
#740=ORIENTED_EDGE('',*,*,#522,.T.);
#741=ORIENTED_EDGE('',*,*,#521,.T.);
#742=ORIENTED_EDGE('',*,*,#573,.F.);
#743=ORIENTED_EDGE('',*,*,#545,.F.);
#744=ORIENTED_EDGE('',*,*,#571,.F.);
#745=ORIENTED_EDGE('',*,*,#523,.F.);
#746=ORIENTED_EDGE('',*,*,#574,.T.);
#747=ORIENTED_EDGE('',*,*,#575,.F.);
#748=ORIENTED_EDGE('',*,*,#576,.T.);
#749=ORIENTED_EDGE('',*,*,#577,.F.);
#750=ORIENTED_EDGE('',*,*,#574,.F.);
#751=ORIENTED_EDGE('',*,*,#578,.F.);
#752=ORIENTED_EDGE('',*,*,#579,.F.);
#753=ORIENTED_EDGE('',*,*,#576,.F.);
#754=ORIENTED_EDGE('',*,*,#580,.F.);
#755=ORIENTED_EDGE('',*,*,#581,.F.);
#756=ORIENTED_EDGE('',*,*,#578,.T.);
#757=ORIENTED_EDGE('',*,*,#577,.T.);
#758=ORIENTED_EDGE('',*,*,#581,.T.);
#759=ORIENTED_EDGE('',*,*,#582,.T.);
#760=ORIENTED_EDGE('',*,*,#557,.F.);
#761=ORIENTED_EDGE('',*,*,#583,.F.);
#762=ORIENTED_EDGE('',*,*,#584,.T.);
#763=ORIENTED_EDGE('',*,*,#585,.T.);
#764=ORIENTED_EDGE('',*,*,#586,.T.);
#765=ORIENTED_EDGE('',*,*,#587,.F.);
#766=ORIENTED_EDGE('',*,*,#588,.T.);
#767=ORIENTED_EDGE('',*,*,#589,.T.);
#768=ORIENTED_EDGE('',*,*,#590,.T.);
#769=ORIENTED_EDGE('',*,*,#591,.F.);
#770=ORIENTED_EDGE('',*,*,#540,.T.);
#771=ORIENTED_EDGE('',*,*,#592,.T.);
#772=ORIENTED_EDGE('',*,*,#593,.T.);
#773=ORIENTED_EDGE('',*,*,#594,.F.);
#774=ORIENTED_EDGE('',*,*,#595,.T.);
#775=ORIENTED_EDGE('',*,*,#596,.F.);
#776=ORIENTED_EDGE('',*,*,#593,.F.);
#777=ORIENTED_EDGE('',*,*,#597,.F.);
#778=ORIENTED_EDGE('',*,*,#598,.F.);
#779=ORIENTED_EDGE('',*,*,#595,.F.);
#780=ORIENTED_EDGE('',*,*,#599,.F.);
#781=ORIENTED_EDGE('',*,*,#600,.F.);
#782=ORIENTED_EDGE('',*,*,#597,.T.);
#783=ORIENTED_EDGE('',*,*,#596,.T.);
#784=ORIENTED_EDGE('',*,*,#600,.T.);
#785=ORIENTED_EDGE('',*,*,#601,.F.);
#786=ORIENTED_EDGE('',*,*,#533,.F.);
#787=ORIENTED_EDGE('',*,*,#602,.T.);
#788=ORIENTED_EDGE('',*,*,#603,.T.);
#789=ORIENTED_EDGE('',*,*,#604,.T.);
#790=ORIENTED_EDGE('',*,*,#605,.T.);
#791=ORIENTED_EDGE('',*,*,#606,.T.);
#792=ORIENTED_EDGE('',*,*,#607,.T.);
#793=ORIENTED_EDGE('',*,*,#608,.T.);
#794=ORIENTED_EDGE('',*,*,#609,.T.);
#795=ORIENTED_EDGE('',*,*,#610,.T.);
#796=ORIENTED_EDGE('',*,*,#564,.F.);
#797=ORIENTED_EDGE('',*,*,#611,.F.);
#798=ORIENTED_EDGE('',*,*,#612,.T.);
#799=ORIENTED_EDGE('',*,*,#613,.T.);
#800=ORIENTED_EDGE('',*,*,#614,.T.);
#801=ORIENTED_EDGE('',*,*,#615,.F.);
#802=ORIENTED_EDGE('',*,*,#613,.F.);
#803=ORIENTED_EDGE('',*,*,#616,.T.);
#804=ORIENTED_EDGE('',*,*,#617,.T.);
#805=ORIENTED_EDGE('',*,*,#618,.T.);
#806=ORIENTED_EDGE('',*,*,#619,.T.);
#807=ORIENTED_EDGE('',*,*,#620,.T.);
#808=ORIENTED_EDGE('',*,*,#559,.F.);
#809=ORIENTED_EDGE('',*,*,#621,.F.);
#810=ORIENTED_EDGE('',*,*,#538,.T.);
#811=ORIENTED_EDGE('',*,*,#622,.T.);
#812=ORIENTED_EDGE('',*,*,#623,.F.);
#813=ORIENTED_EDGE('',*,*,#624,.T.);
#814=ORIENTED_EDGE('',*,*,#625,.F.);
#815=ORIENTED_EDGE('',*,*,#624,.F.);
#816=ORIENTED_EDGE('',*,*,#623,.T.);
#817=ORIENTED_EDGE('',*,*,#626,.F.);
#818=ORIENTED_EDGE('',*,*,#614,.F.);
#819=ORIENTED_EDGE('',*,*,#617,.F.);
#820=ORIENTED_EDGE('',*,*,#627,.T.);
#821=ORIENTED_EDGE('',*,*,#618,.F.);
#822=ORIENTED_EDGE('',*,*,#628,.F.);
#823=ORIENTED_EDGE('',*,*,#619,.F.);
#824=ORIENTED_EDGE('',*,*,#627,.F.);
#825=ORIENTED_EDGE('',*,*,#616,.F.);
#826=ORIENTED_EDGE('',*,*,#612,.F.);
#827=ORIENTED_EDGE('',*,*,#626,.T.);
#828=ORIENTED_EDGE('',*,*,#615,.T.);
#829=ORIENTED_EDGE('',*,*,#625,.T.);
#830=ORIENTED_EDGE('',*,*,#628,.T.);
#831=ORIENTED_EDGE('',*,*,#622,.F.);
#832=ORIENTED_EDGE('',*,*,#537,.F.);
#833=ORIENTED_EDGE('',*,*,#629,.T.);
#834=ORIENTED_EDGE('',*,*,#560,.F.);
#835=ORIENTED_EDGE('',*,*,#620,.F.);
#836=ORIENTED_EDGE('',*,*,#608,.F.);
#837=ORIENTED_EDGE('',*,*,#630,.T.);
#838=ORIENTED_EDGE('',*,*,#631,.F.);
#839=ORIENTED_EDGE('',*,*,#632,.F.);
#840=ORIENTED_EDGE('',*,*,#609,.F.);
#841=ORIENTED_EDGE('',*,*,#632,.T.);
#842=ORIENTED_EDGE('',*,*,#633,.F.);
#843=ORIENTED_EDGE('',*,*,#634,.F.);
#844=ORIENTED_EDGE('',*,*,#607,.F.);
#845=ORIENTED_EDGE('',*,*,#635,.F.);
#846=ORIENTED_EDGE('',*,*,#636,.F.);
#847=ORIENTED_EDGE('',*,*,#630,.F.);
#848=ORIENTED_EDGE('',*,*,#584,.F.);
#849=ORIENTED_EDGE('',*,*,#637,.F.);
#850=ORIENTED_EDGE('',*,*,#638,.F.);
#851=ORIENTED_EDGE('',*,*,#639,.F.);
#852=ORIENTED_EDGE('',*,*,#586,.F.);
#853=ORIENTED_EDGE('',*,*,#640,.T.);
#854=ORIENTED_EDGE('',*,*,#641,.F.);
#855=ORIENTED_EDGE('',*,*,#642,.F.);
#856=ORIENTED_EDGE('',*,*,#585,.F.);
#857=ORIENTED_EDGE('',*,*,#639,.T.);
#858=ORIENTED_EDGE('',*,*,#643,.F.);
#859=ORIENTED_EDGE('',*,*,#640,.F.);
#860=ORIENTED_EDGE('',*,*,#604,.F.);
#861=ORIENTED_EDGE('',*,*,#644,.T.);
#862=ORIENTED_EDGE('',*,*,#645,.F.);
#863=ORIENTED_EDGE('',*,*,#646,.F.);
#864=ORIENTED_EDGE('',*,*,#605,.F.);
#865=ORIENTED_EDGE('',*,*,#646,.T.);
#866=ORIENTED_EDGE('',*,*,#647,.F.);
#867=ORIENTED_EDGE('',*,*,#648,.F.);
#868=ORIENTED_EDGE('',*,*,#603,.F.);
#869=ORIENTED_EDGE('',*,*,#649,.F.);
#870=ORIENTED_EDGE('',*,*,#650,.F.);
#871=ORIENTED_EDGE('',*,*,#644,.F.);
#872=ORIENTED_EDGE('',*,*,#588,.F.);
#873=ORIENTED_EDGE('',*,*,#651,.F.);
#874=ORIENTED_EDGE('',*,*,#652,.F.);
#875=ORIENTED_EDGE('',*,*,#653,.F.);
#876=ORIENTED_EDGE('',*,*,#589,.F.);
#877=ORIENTED_EDGE('',*,*,#653,.T.);
#878=ORIENTED_EDGE('',*,*,#654,.F.);
#879=ORIENTED_EDGE('',*,*,#655,.F.);
#880=ORIENTED_EDGE('',*,*,#590,.F.);
#881=ORIENTED_EDGE('',*,*,#655,.T.);
#882=ORIENTED_EDGE('',*,*,#656,.F.);
#883=ORIENTED_EDGE('',*,*,#657,.F.);
#884=ORIENTED_EDGE('',*,*,#634,.T.);
#885=ORIENTED_EDGE('',*,*,#658,.T.);
#886=ORIENTED_EDGE('',*,*,#565,.F.);
#887=ORIENTED_EDGE('',*,*,#610,.F.);
#888=ORIENTED_EDGE('',*,*,#649,.T.);
#889=ORIENTED_EDGE('',*,*,#602,.F.);
#890=ORIENTED_EDGE('',*,*,#532,.F.);
#891=ORIENTED_EDGE('',*,*,#659,.T.);
#892=ORIENTED_EDGE('',*,*,#641,.T.);
#893=ORIENTED_EDGE('',*,*,#643,.T.);
#894=ORIENTED_EDGE('',*,*,#638,.T.);
#895=ORIENTED_EDGE('',*,*,#660,.T.);
#896=ORIENTED_EDGE('',*,*,#555,.F.);
#897=ORIENTED_EDGE('',*,*,#661,.F.);
#898=ORIENTED_EDGE('',*,*,#542,.T.);
#899=ORIENTED_EDGE('',*,*,#662,.T.);
#900=ORIENTED_EDGE('',*,*,#656,.T.);
#901=ORIENTED_EDGE('',*,*,#654,.T.);
#902=ORIENTED_EDGE('',*,*,#652,.T.);
#903=ORIENTED_EDGE('',*,*,#663,.T.);
#904=ORIENTED_EDGE('',*,*,#637,.T.);
#905=ORIENTED_EDGE('',*,*,#583,.T.);
#906=ORIENTED_EDGE('',*,*,#556,.F.);
#907=ORIENTED_EDGE('',*,*,#660,.F.);
#908=ORIENTED_EDGE('',*,*,#657,.T.);
#909=ORIENTED_EDGE('',*,*,#662,.F.);
#910=ORIENTED_EDGE('',*,*,#541,.T.);
#911=ORIENTED_EDGE('',*,*,#591,.T.);
#912=ORIENTED_EDGE('',*,*,#570,.T.);
#913=ORIENTED_EDGE('',*,*,#543,.F.);
#914=ORIENTED_EDGE('',*,*,#661,.T.);
#915=ORIENTED_EDGE('',*,*,#554,.F.);
#916=ORIENTED_EDGE('',*,*,#527,.F.);
#917=ORIENTED_EDGE('',*,*,#549,.T.);
#918=ORIENTED_EDGE('',*,*,#552,.F.);
#919=ORIENTED_EDGE('',*,*,#664,.F.);
#920=ORIENTED_EDGE('',*,*,#572,.T.);
#921=ORIENTED_EDGE('',*,*,#528,.F.);
#922=ORIENTED_EDGE('',*,*,#664,.T.);
#923=ORIENTED_EDGE('',*,*,#551,.F.);
#924=ORIENTED_EDGE('',*,*,#636,.T.);
#925=ORIENTED_EDGE('',*,*,#665,.F.);
#926=ORIENTED_EDGE('',*,*,#647,.T.);
#927=ORIENTED_EDGE('',*,*,#645,.T.);
#928=ORIENTED_EDGE('',*,*,#650,.T.);
#929=ORIENTED_EDGE('',*,*,#659,.F.);
#930=ORIENTED_EDGE('',*,*,#531,.F.);
#931=ORIENTED_EDGE('',*,*,#569,.T.);
#932=ORIENTED_EDGE('',*,*,#566,.F.);
#933=ORIENTED_EDGE('',*,*,#658,.F.);
#934=ORIENTED_EDGE('',*,*,#633,.T.);
#935=ORIENTED_EDGE('',*,*,#631,.T.);
#936=ORIENTED_EDGE('',*,*,#635,.T.);
#937=ORIENTED_EDGE('',*,*,#606,.F.);
#938=ORIENTED_EDGE('',*,*,#648,.T.);
#939=ORIENTED_EDGE('',*,*,#665,.T.);
#940=ORIENTED_EDGE('',*,*,#598,.T.);
#941=ORIENTED_EDGE('',*,*,#611,.T.);
#942=ORIENTED_EDGE('',*,*,#563,.F.);
#943=ORIENTED_EDGE('',*,*,#666,.F.);
#944=ORIENTED_EDGE('',*,*,#534,.F.);
#945=ORIENTED_EDGE('',*,*,#601,.T.);
#946=ORIENTED_EDGE('',*,*,#599,.T.);
#947=ORIENTED_EDGE('',*,*,#594,.T.);
#948=ORIENTED_EDGE('',*,*,#535,.F.);
#949=ORIENTED_EDGE('',*,*,#666,.T.);
#950=ORIENTED_EDGE('',*,*,#562,.F.);
#951=ORIENTED_EDGE('',*,*,#667,.F.);
#952=ORIENTED_EDGE('',*,*,#536,.F.);
#953=ORIENTED_EDGE('',*,*,#667,.T.);
#954=ORIENTED_EDGE('',*,*,#561,.F.);
#955=ORIENTED_EDGE('',*,*,#629,.F.);
#956=ORIENTED_EDGE('',*,*,#579,.T.);
#957=ORIENTED_EDGE('',*,*,#592,.F.);
#958=ORIENTED_EDGE('',*,*,#539,.F.);
#959=ORIENTED_EDGE('',*,*,#621,.T.);
#960=ORIENTED_EDGE('',*,*,#558,.F.);
#961=ORIENTED_EDGE('',*,*,#582,.F.);
#962=ORIENTED_EDGE('',*,*,#580,.T.);
#963=ORIENTED_EDGE('',*,*,#575,.T.);
#964=ORIENTED_EDGE('',*,*,#642,.T.);
#965=ORIENTED_EDGE('',*,*,#663,.F.);
#966=ORIENTED_EDGE('',*,*,#651,.T.);
#967=ORIENTED_EDGE('',*,*,#587,.T.);
#968=PLANE('',#1093);
#969=PLANE('',#1094);
#970=PLANE('',#1095);
#971=PLANE('',#1096);
#972=PLANE('',#1097);
#973=PLANE('',#1098);
#974=PLANE('',#1099);
#975=PLANE('',#1100);
#976=PLANE('',#1101);
#977=PLANE('',#1102);
#978=PLANE('',#1103);
#979=PLANE('',#1104);
#980=PLANE('',#1105);
#981=PLANE('',#1106);
#982=PLANE('',#1107);
#983=PLANE('',#1108);
#984=PLANE('',#1111);
#985=PLANE('',#1112);
#986=PLANE('',#1113);
#987=PLANE('',#1114);
#988=PLANE('',#1117);
#989=PLANE('',#1120);
#990=PLANE('',#1123);
#991=PLANE('',#1129);
#992=PLANE('',#1133);
#993=PLANE('',#1134);
#994=PLANE('',#1137);
#995=PLANE('',#1138);
#996=PLANE('',#1139);
#997=PLANE('',#1140);
#998=PLANE('',#1145);
#999=PLANE('',#1146);
#1000=PLANE('',#1147);
#1001=PLANE('',#1150);
#1002=PLANE('',#1151);
#1003=PLANE('',#1152);
#1004=PLANE('',#1153);
#1005=PLANE('',#1154);
#1006=PLANE('',#1155);
#1007=PLANE('',#1156);
#1008=PLANE('',#1157);
#1009=PLANE('',#1158);
#1010=PLANE('',#1159);
#1011=PLANE('',#1160);
#1012=PLANE('',#1161);
#1013=PLANE('',#1162);
#1014=PLANE('',#1163);
#1015=PLANE('',#1164);
#1016=PLANE('',#1165);
#1017=STYLED_ITEM('',(#1773),#1024);
#1018=STYLED_ITEM('',(#1773),#1025);
#1019=STYLED_ITEM('',(#1773),#1028);
#1020=STYLED_ITEM('',(#1773),#1035);
#1021=STYLED_ITEM('',(#1774),#1047);
#1022=STYLED_ITEM('',(#1774),#1048);
#1023=STYLED_ITEM('',(#1772),#13);
#1024=ADVANCED_FACE('',(#41),#968,.F.);
#1025=ADVANCED_FACE('',(#42),#969,.F.);
#1026=ADVANCED_FACE('',(#43),#970,.F.);
#1027=ADVANCED_FACE('',(#44),#971,.F.);
#1028=ADVANCED_FACE('',(#45),#972,.F.);
#1029=ADVANCED_FACE('',(#46),#973,.T.);
#1030=ADVANCED_FACE('',(#47),#974,.T.);
#1031=ADVANCED_FACE('',(#48),#975,.T.);
#1032=ADVANCED_FACE('',(#49),#976,.T.);
#1033=ADVANCED_FACE('',(#50,#38),#977,.F.);
#1034=ADVANCED_FACE('',(#51,#39),#978,.F.);
#1035=ADVANCED_FACE('',(#52),#979,.F.);
#1036=ADVANCED_FACE('',(#53),#980,.T.);
#1037=ADVANCED_FACE('',(#54),#981,.T.);
#1038=ADVANCED_FACE('',(#55),#982,.T.);
#1039=ADVANCED_FACE('',(#56),#983,.T.);
#1040=ADVANCED_FACE('',(#57),#984,.T.);
#1041=ADVANCED_FACE('',(#58),#985,.T.);
#1042=ADVANCED_FACE('',(#59),#986,.T.);
#1043=ADVANCED_FACE('',(#60),#987,.T.);
#1044=ADVANCED_FACE('',(#61),#988,.T.);
#1045=ADVANCED_FACE('',(#62),#989,.T.);
#1046=ADVANCED_FACE('',(#63),#990,.T.);
#1047=ADVANCED_FACE('',(#64),#14,.T.);
#1048=ADVANCED_FACE('',(#65),#991,.T.);
#1049=ADVANCED_FACE('',(#66),#15,.T.);
#1050=ADVANCED_FACE('',(#67,#40),#992,.T.);
#1051=ADVANCED_FACE('',(#68),#993,.T.);
#1052=ADVANCED_FACE('',(#69),#16,.F.);
#1053=ADVANCED_FACE('',(#70),#994,.F.);
#1054=ADVANCED_FACE('',(#71),#995,.F.);
#1055=ADVANCED_FACE('',(#72),#996,.F.);
#1056=ADVANCED_FACE('',(#73),#997,.F.);
#1057=ADVANCED_FACE('',(#74),#17,.F.);
#1058=ADVANCED_FACE('',(#75),#18,.F.);
#1059=ADVANCED_FACE('',(#76),#998,.F.);
#1060=ADVANCED_FACE('',(#77),#999,.F.);
#1061=ADVANCED_FACE('',(#78),#1000,.F.);
#1062=ADVANCED_FACE('',(#79),#19,.F.);
#1063=ADVANCED_FACE('',(#80),#1001,.F.);
#1064=ADVANCED_FACE('',(#81),#1002,.T.);
#1065=ADVANCED_FACE('',(#82),#1003,.T.);
#1066=ADVANCED_FACE('',(#83),#1004,.T.);
#1067=ADVANCED_FACE('',(#84),#1005,.T.);
#1068=ADVANCED_FACE('',(#85),#1006,.T.);
#1069=ADVANCED_FACE('',(#86),#1007,.T.);
#1070=ADVANCED_FACE('',(#87),#1008,.T.);
#1071=ADVANCED_FACE('',(#88),#1009,.T.);
#1072=ADVANCED_FACE('',(#89),#1010,.T.);
#1073=ADVANCED_FACE('',(#90),#1011,.T.);
#1074=ADVANCED_FACE('',(#91),#1012,.T.);
#1075=ADVANCED_FACE('',(#92),#1013,.T.);
#1076=ADVANCED_FACE('',(#93),#1014,.T.);
#1077=ADVANCED_FACE('',(#94),#1015,.T.);
#1078=ADVANCED_FACE('',(#95),#1016,.T.);
#1079=CLOSED_SHELL('',(#1024,#1025,#1026,#1027,#1028,#1029,#1030,#1031,
#1032,#1033,#1034,#1035,#1036,#1037,#1038,#1039,#1040,#1041,#1042,#1043,
#1044,#1045,#1046,#1047,#1048,#1049,#1050,#1051,#1052,#1053,#1054,#1055,
#1056,#1057,#1058,#1059,#1060,#1061,#1062,#1063,#1064,#1065,#1066,#1067,
#1068,#1069,#1070,#1071,#1072,#1073,#1074,#1075,#1076,#1077,#1078));
#1080=DERIVED_UNIT_ELEMENT(#1082,1.);
#1081=DERIVED_UNIT_ELEMENT(#1757,-3.);
#1082=(
MASS_UNIT()
NAMED_UNIT(*)
SI_UNIT(.KILO.,.GRAM.)
);
#1083=DERIVED_UNIT((#1080,#1081));
#1084=MEASURE_REPRESENTATION_ITEM('density measure',
POSITIVE_RATIO_MEASURE(7850.),#1083);
#1085=PROPERTY_DEFINITION_REPRESENTATION(#1090,#1087);
#1086=PROPERTY_DEFINITION_REPRESENTATION(#1091,#1088);
#1087=REPRESENTATION('material name',(#1089),#1754);
#1088=REPRESENTATION('density',(#1084),#1754);
#1089=DESCRIPTIVE_REPRESENTATION_ITEM('Steel','Steel');
#1090=PROPERTY_DEFINITION('material property','material name',#1764);
#1091=PROPERTY_DEFINITION('material property','density of part',#1764);
#1092=AXIS2_PLACEMENT_3D('',#1446,#1166,#1167);
#1093=AXIS2_PLACEMENT_3D('',#1447,#1168,#1169);
#1094=AXIS2_PLACEMENT_3D('',#1456,#1174,#1175);
#1095=AXIS2_PLACEMENT_3D('',#1462,#1179,#1180);
#1096=AXIS2_PLACEMENT_3D('',#1471,#1185,#1186);
#1097=AXIS2_PLACEMENT_3D('',#1502,#1202,#1203);
#1098=AXIS2_PLACEMENT_3D('',#1508,#1207,#1208);
#1099=AXIS2_PLACEMENT_3D('',#1514,#1212,#1213);
#1100=AXIS2_PLACEMENT_3D('',#1520,#1217,#1218);
#1101=AXIS2_PLACEMENT_3D('',#1551,#1234,#1235);
#1102=AXIS2_PLACEMENT_3D('',#1554,#1238,#1239);
#1103=AXIS2_PLACEMENT_3D('',#1557,#1242,#1243);
#1104=AXIS2_PLACEMENT_3D('',#1560,#1246,#1247);
#1105=AXIS2_PLACEMENT_3D('',#1561,#1248,#1249);
#1106=AXIS2_PLACEMENT_3D('',#1570,#1254,#1255);
#1107=AXIS2_PLACEMENT_3D('',#1574,#1258,#1259);
#1108=AXIS2_PLACEMENT_3D('',#1578,#1262,#1263);
#1109=AXIS2_PLACEMENT_3D('',#1585,#1267,#1268);
#1110=AXIS2_PLACEMENT_3D('',#1593,#1272,#1273);
#1111=AXIS2_PLACEMENT_3D('',#1598,#1277,#1278);
#1112=AXIS2_PLACEMENT_3D('',#1607,#1283,#1284);
#1113=AXIS2_PLACEMENT_3D('',#1611,#1287,#1288);
#1114=AXIS2_PLACEMENT_3D('',#1615,#1291,#1292);
#1115=AXIS2_PLACEMENT_3D('',#1622,#1296,#1297);
#1116=AXIS2_PLACEMENT_3D('',#1630,#1301,#1302);
#1117=AXIS2_PLACEMENT_3D('',#1635,#1306,#1307);
#1118=AXIS2_PLACEMENT_3D('',#1638,#1308,#1309);
#1119=AXIS2_PLACEMENT_3D('',#1642,#1311,#1312);
#1120=AXIS2_PLACEMENT_3D('',#1644,#1314,#1315);
#1121=AXIS2_PLACEMENT_3D('',#1646,#1316,#1317);
#1122=AXIS2_PLACEMENT_3D('',#1647,#1318,#1319);
#1123=AXIS2_PLACEMENT_3D('',#1648,#1320,#1321);
#1124=AXIS2_PLACEMENT_3D('',#1651,#1322,#1323);
#1125=AXIS2_PLACEMENT_3D('',#1653,#1324,#1325);
#1126=AXIS2_PLACEMENT_3D('',#1657,#1329,#1330);
#1127=AXIS2_PLACEMENT_3D('',#1659,#1331,#1332);
#1128=AXIS2_PLACEMENT_3D('',#1662,#1334,#1335);
#1129=AXIS2_PLACEMENT_3D('',#1663,#1336,#1337);
#1130=AXIS2_PLACEMENT_3D('',#1664,#1338,#1339);
#1131=AXIS2_PLACEMENT_3D('',#1665,#1340,#1341);
#1132=AXIS2_PLACEMENT_3D('',#1667,#1343,#1344);
#1133=AXIS2_PLACEMENT_3D('',#1668,#1345,#1346);
#1134=AXIS2_PLACEMENT_3D('',#1669,#1347,#1348);
#1135=AXIS2_PLACEMENT_3D('',#1671,#1350,#1351);
#1136=AXIS2_PLACEMENT_3D('',#1675,#1353,#1354);
#1137=AXIS2_PLACEMENT_3D('',#1677,#1356,#1357);
#1138=AXIS2_PLACEMENT_3D('',#1681,#1360,#1361);
#1139=AXIS2_PLACEMENT_3D('',#1685,#1364,#1365);
#1140=AXIS2_PLACEMENT_3D('',#1691,#1369,#1370);
#1141=AXIS2_PLACEMENT_3D('',#1697,#1374,#1375);
#1142=AXIS2_PLACEMENT_3D('',#1698,#1376,#1377);
#1143=AXIS2_PLACEMENT_3D('',#1699,#1378,#1379);
#1144=AXIS2_PLACEMENT_3D('',#1703,#1381,#1382);
#1145=AXIS2_PLACEMENT_3D('',#1705,#1384,#1385);
#1146=AXIS2_PLACEMENT_3D('',#1709,#1388,#1389);
#1147=AXIS2_PLACEMENT_3D('',#1713,#1392,#1393);
#1148=AXIS2_PLACEMENT_3D('',#1719,#1397,#1398);
#1149=AXIS2_PLACEMENT_3D('',#1721,#1399,#1400);
#1150=AXIS2_PLACEMENT_3D('',#1723,#1402,#1403);
#1151=AXIS2_PLACEMENT_3D('',#1727,#1406,#1407);
#1152=AXIS2_PLACEMENT_3D('',#1729,#1409,#1410);
#1153=AXIS2_PLACEMENT_3D('',#1731,#1412,#1413);
#1154=AXIS2_PLACEMENT_3D('',#1736,#1418,#1419);
#1155=AXIS2_PLACEMENT_3D('',#1737,#1420,#1421);
#1156=AXIS2_PLACEMENT_3D('',#1738,#1422,#1423);
#1157=AXIS2_PLACEMENT_3D('',#1739,#1424,#1425);
#1158=AXIS2_PLACEMENT_3D('',#1741,#1427,#1428);
#1159=AXIS2_PLACEMENT_3D('',#1742,#1429,#1430);
#1160=AXIS2_PLACEMENT_3D('',#1744,#1432,#1433);
#1161=AXIS2_PLACEMENT_3D('',#1745,#1434,#1435);
#1162=AXIS2_PLACEMENT_3D('',#1747,#1437,#1438);
#1163=AXIS2_PLACEMENT_3D('',#1749,#1440,#1441);
#1164=AXIS2_PLACEMENT_3D('',#1750,#1442,#1443);
#1165=AXIS2_PLACEMENT_3D('',#1751,#1444,#1445);
#1166=DIRECTION('axis',(0.,0.,1.));
#1167=DIRECTION('refdir',(1.,0.,0.));
#1168=DIRECTION('center_axis',(0.,0.,1.));
#1169=DIRECTION('ref_axis',(1.,0.,0.));
#1170=DIRECTION('',(-3.05473797257427E-8,-0.999999999999999,0.));
#1171=DIRECTION('',(-1.,0.,0.));
#1172=DIRECTION('',(0.,1.,0.));
#1173=DIRECTION('',(1.,0.,0.));
#1174=DIRECTION('center_axis',(1.,-3.05473797257427E-8,0.));
#1175=DIRECTION('ref_axis',(-3.05473797257427E-8,-0.999999999999999,0.));
#1176=DIRECTION('',(0.,0.,-1.));
#1177=DIRECTION('',(3.05473797257427E-8,0.999999999999999,0.));
#1178=DIRECTION('',(0.,0.,-1.));
#1179=DIRECTION('center_axis',(0.,0.,1.));
#1180=DIRECTION('ref_axis',(1.,0.,0.));
#1181=DIRECTION('',(1.,0.,0.));
#1182=DIRECTION('',(0.,-1.,0.));
#1183=DIRECTION('',(-1.,0.,0.));
#1184=DIRECTION('',(0.,1.,0.));
#1185=DIRECTION('center_axis',(0.,0.,1.));
#1186=DIRECTION('ref_axis',(1.,0.,0.));
#1187=DIRECTION('',(-1.,0.,0.));
#1188=DIRECTION('',(0.,1.,0.));
#1189=DIRECTION('',(-1.,0.,0.));
#1190=DIRECTION('',(0.,1.,0.));
#1191=DIRECTION('',(1.,0.,0.));
#1192=DIRECTION('',(0.,1.,0.));
#1193=DIRECTION('',(1.,0.,0.));
#1194=DIRECTION('',(0.316227766016838,0.948683298050514,0.));
#1195=DIRECTION('',(1.,0.,0.));
#1196=DIRECTION('',(-0.624695047554424,0.78086880944303,0.));
#1197=DIRECTION('',(0.,-1.,0.));
#1198=DIRECTION('',(-1.,0.,0.));
#1199=DIRECTION('',(0.,1.,0.));
#1200=DIRECTION('',(1.,0.,0.));
#1201=DIRECTION('',(0.,-1.,0.));
#1202=DIRECTION('center_axis',(-1.,0.,0.));
#1203=DIRECTION('ref_axis',(0.,1.,0.));
#1204=DIRECTION('',(0.,0.,-1.));
#1205=DIRECTION('',(0.,-1.,0.));
#1206=DIRECTION('',(0.,0.,-1.));
#1207=DIRECTION('center_axis',(1.,0.,0.));
#1208=DIRECTION('ref_axis',(0.,1.,0.));
#1209=DIRECTION('',(0.,0.,1.));
#1210=DIRECTION('',(0.,1.,0.));
#1211=DIRECTION('',(0.,0.,1.));
#1212=DIRECTION('center_axis',(0.,0.,1.));
#1213=DIRECTION('ref_axis',(1.,0.,0.));
#1214=DIRECTION('',(-1.,0.,0.));
#1215=DIRECTION('',(0.,-1.,0.));
#1216=DIRECTION('',(1.,0.,0.));
#1217=DIRECTION('center_axis',(0.,0.,1.));
#1218=DIRECTION('ref_axis',(1.,0.,0.));
#1219=DIRECTION('',(1.,0.,0.));
#1220=DIRECTION('',(0.,1.,0.));
#1221=DIRECTION('',(1.,0.,0.));
#1222=DIRECTION('',(0.,1.,0.));
#1223=DIRECTION('',(-1.,0.,0.));
#1224=DIRECTION('',(0.,1.,0.));
#1225=DIRECTION('',(-0.624695047554424,0.78086880944303,0.));
#1226=DIRECTION('',(-1.,0.,0.));
#1227=DIRECTION('',(-0.316227766016838,-0.948683298050514,0.));
#1228=DIRECTION('',(-1.,0.,0.));
#1229=DIRECTION('',(0.,-1.,0.));
#1230=DIRECTION('',(-1.,0.,0.));
#1231=DIRECTION('',(0.,-1.,0.));
#1232=DIRECTION('',(1.,0.,0.));
#1233=DIRECTION('',(0.,-1.,0.));
#1234=DIRECTION('center_axis',(-1.,0.,0.));
#1235=DIRECTION('ref_axis',(0.,-1.,0.));
#1236=DIRECTION('',(0.,0.,1.));
#1237=DIRECTION('',(0.,0.,1.));
#1238=DIRECTION('center_axis',(0.,1.,0.));
#1239=DIRECTION('ref_axis',(1.,0.,0.));
#1240=DIRECTION('',(0.,0.,-1.));
#1241=DIRECTION('',(1.,0.,0.));
#1242=DIRECTION('center_axis',(0.,-1.,0.));
#1243=DIRECTION('ref_axis',(-1.,0.,0.));
#1244=DIRECTION('',(0.,0.,-1.));
#1245=DIRECTION('',(-1.,0.,0.));
#1246=DIRECTION('center_axis',(0.,0.,-1.));
#1247=DIRECTION('ref_axis',(-1.,0.,0.));
#1248=DIRECTION('center_axis',(0.316227766016838,0.948683298050514,0.));
#1249=DIRECTION('ref_axis',(0.,0.,1.));
#1250=DIRECTION('',(-0.948683298050514,0.316227766016838,0.));
#1251=DIRECTION('',(0.,0.,-1.));
#1252=DIRECTION('',(0.948683298050514,-0.316227766016838,0.));
#1253=DIRECTION('',(0.,0.,1.));
#1254=DIRECTION('center_axis',(0.,0.,-1.));
#1255=DIRECTION('ref_axis',(-1.,0.,0.));
#1256=DIRECTION('',(1.,0.,0.));
#1257=DIRECTION('',(0.,-1.,0.));
#1258=DIRECTION('center_axis',(0.,0.,1.));
#1259=DIRECTION('ref_axis',(1.,0.,0.));
#1260=DIRECTION('',(0.,1.,0.));
#1261=DIRECTION('',(-1.,0.,0.));
#1262=DIRECTION('center_axis',(0.,1.,0.));
#1263=DIRECTION('ref_axis',(-1.,0.,0.));
#1264=DIRECTION('',(0.,0.,1.));
#1265=DIRECTION('',(0.,0.,1.));
#1266=DIRECTION('',(-1.,0.,0.));
#1267=DIRECTION('center_axis',(0.,-1.,0.));
#1268=DIRECTION('ref_axis',(-1.,0.,0.));
#1269=DIRECTION('',(1.,0.,0.));
#1270=DIRECTION('',(0.,0.,1.));
#1271=DIRECTION('',(-1.,0.,0.));
#1272=DIRECTION('center_axis',(0.,-1.,0.));
#1273=DIRECTION('ref_axis',(-1.,0.,0.));
#1274=DIRECTION('',(1.,0.,0.));
#1275=DIRECTION('',(0.,0.,1.));
#1276=DIRECTION('',(0.,0.,1.));
#1277=DIRECTION('center_axis',(-0.316227766016838,0.948683298050514,0.));
#1278=DIRECTION('ref_axis',(0.,0.,1.));
#1279=DIRECTION('',(0.948683298050514,0.316227766016838,-3.51083305877204E-16));
#1280=DIRECTION('',(0.,0.,1.));
#1281=DIRECTION('',(-0.948683298050514,-0.316227766016838,-1.7554167081306E-16));
#1282=DIRECTION('',(0.,0.,-1.));
#1283=DIRECTION('center_axis',(3.70074298344514E-16,0.,1.));
#1284=DIRECTION('ref_axis',(1.,0.,-3.70074298344514E-16));
#1285=DIRECTION('',(-1.,0.,3.70074298344514E-16));
#1286=DIRECTION('',(0.,-1.,0.));
#1287=DIRECTION('center_axis',(1.85037168013591E-16,0.,-1.));
#1288=DIRECTION('ref_axis',(-1.,0.,-1.85037168013591E-16));
#1289=DIRECTION('',(0.,1.,0.));
#1290=DIRECTION('',(1.,0.,1.85037168013591E-16));
#1291=DIRECTION('center_axis',(0.,1.,0.));
#1292=DIRECTION('ref_axis',(-1.,0.,0.));
#1293=DIRECTION('',(0.,0.,1.));
#1294=DIRECTION('',(0.,0.,1.));
#1295=DIRECTION('',(0.999999999786363,0.,-2.06706270772099E-5));
#1296=DIRECTION('center_axis',(0.,-1.,0.));
#1297=DIRECTION('ref_axis',(1.,0.,0.));
#1298=DIRECTION('',(-0.999999999786363,0.,-2.06706270772099E-5));
#1299=DIRECTION('',(0.,0.,1.));
#1300=DIRECTION('',(0.999998283155277,0.,0.00185302091138554));
#1301=DIRECTION('center_axis',(0.,-1.,0.));
#1302=DIRECTION('ref_axis',(1.,0.,0.));
#1303=DIRECTION('',(-0.999998283155277,0.,0.00185302091138554));
#1304=DIRECTION('',(0.,0.,1.));
#1305=DIRECTION('',(0.,0.,1.));
#1306=DIRECTION('center_axis',(0.405686724003074,0.914012189178926,0.));
#1307=DIRECTION('ref_axis',(0.,0.,1.));
#1308=DIRECTION('center_axis',(0.405686724003074,0.914012189178926,0.));
#1309=DIRECTION('ref_axis',(-0.914012189178926,0.405686724003075,0.));
#1310=DIRECTION('',(0.,0.,-1.));
#1311=DIRECTION('center_axis',(0.405686724003074,0.914012189178926,0.));
#1312=DIRECTION('ref_axis',(-0.914012189178926,0.405686724003075,0.));
#1313=DIRECTION('',(0.,0.,-1.));
#1314=DIRECTION('center_axis',(0.,1.,0.));
#1315=DIRECTION('ref_axis',(-1.,0.,0.));
#1316=DIRECTION('center_axis',(0.,1.,0.));
#1317=DIRECTION('ref_axis',(-1.,0.,0.));
#1318=DIRECTION('center_axis',(0.,1.,0.));
#1319=DIRECTION('ref_axis',(-1.,0.,0.));
#1320=DIRECTION('center_axis',(0.78086880944303,0.624695047554424,0.));
#1321=DIRECTION('ref_axis',(-0.624695047554424,0.78086880944303,0.));
#1322=DIRECTION('center_axis',(-0.78086880944303,-0.624695047554424,0.));
#1323=DIRECTION('ref_axis',(-0.624695047554424,0.78086880944303,0.));
#1324=DIRECTION('center_axis',(-0.78086880944303,-0.624695047554424,0.));
#1325=DIRECTION('ref_axis',(-0.624695047554424,0.78086880944303,0.));
#1326=DIRECTION('',(0.,0.,1.));
#1327=DIRECTION('',(0.,0.,1.));
#1328=DIRECTION('',(0.,0.,1.));
#1329=DIRECTION('center_axis',(0.,1.,0.));
#1330=DIRECTION('ref_axis',(-1.,0.,0.));
#1331=DIRECTION('center_axis',(0.,1.,0.));
#1332=DIRECTION('ref_axis',(-1.,0.,0.));
#1333=DIRECTION('',(0.,-1.,0.));
#1334=DIRECTION('center_axis',(0.,-1.,0.));
#1335=DIRECTION('ref_axis',(-1.,0.,0.));
#1336=DIRECTION('center_axis',(0.,1.,0.));
#1337=DIRECTION('ref_axis',(-1.,0.,0.));
#1338=DIRECTION('center_axis',(0.,1.,0.));
#1339=DIRECTION('ref_axis',(-1.,0.,0.));
#1340=DIRECTION('center_axis',(0.,1.,0.));
#1341=DIRECTION('ref_axis',(-1.,0.,0.));
#1342=DIRECTION('',(0.,-1.,0.));
#1343=DIRECTION('center_axis',(0.,-1.,0.));
#1344=DIRECTION('ref_axis',(-1.,0.,0.));
#1345=DIRECTION('center_axis',(0.,1.,0.));
#1346=DIRECTION('ref_axis',(-1.,0.,0.));
#1347=DIRECTION('center_axis',(0.,1.,0.));
#1348=DIRECTION('ref_axis',(-1.,0.,0.));
#1349=DIRECTION('',(0.,0.,1.));
#1350=DIRECTION('center_axis',(0.,-1.,0.));
#1351=DIRECTION('ref_axis',(1.,0.,0.));
#1352=DIRECTION('',(0.,-1.,0.));
#1353=DIRECTION('center_axis',(0.,1.,0.));
#1354=DIRECTION('ref_axis',(1.,0.,0.));
#1355=DIRECTION('',(0.,-1.,0.));
#1356=DIRECTION('center_axis',(0.00185302091138554,0.,0.999998283155277));
#1357=DIRECTION('ref_axis',(-0.999998283155277,0.,0.00185302091138554));
#1358=DIRECTION('',(0.999998283155277,0.,-0.00185302091138554));
#1359=DIRECTION('',(0.,-1.,0.));
#1360=DIRECTION('center_axis',(0.00185302091138554,0.,-0.999998283155277));
#1361=DIRECTION('ref_axis',(0.999998283155277,0.,0.00185302091138554));
#1362=DIRECTION('',(0.,1.,0.));
#1363=DIRECTION('',(-0.999998283155277,0.,-0.00185302091138554));
#1364=DIRECTION('center_axis',(0.,0.,1.));
#1365=DIRECTION('ref_axis',(-1.,0.,0.));
#1366=DIRECTION('',(0.,1.,0.));
#1367=DIRECTION('',(1.,0.,0.));
#1368=DIRECTION('',(0.,-1.,0.));
#1369=DIRECTION('center_axis',(0.,0.,-1.));
#1370=DIRECTION('ref_axis',(1.,0.,0.));
#1371=DIRECTION('',(0.,-1.,0.));
#1372=DIRECTION('',(-1.,0.,0.));
#1373=DIRECTION('',(0.,-1.,0.));
#1374=DIRECTION('center_axis',(0.,-1.,0.));
#1375=DIRECTION('ref_axis',(-1.,0.,0.));
#1376=DIRECTION('center_axis',(0.,1.,0.));
#1377=DIRECTION('ref_axis',(-1.,0.,0.));
#1378=DIRECTION('center_axis',(0.,-1.,0.));
#1379=DIRECTION('ref_axis',(1.,0.,0.));
#1380=DIRECTION('',(0.,-1.,0.));
#1381=DIRECTION('center_axis',(0.,1.,0.));
#1382=DIRECTION('ref_axis',(1.,0.,0.));
#1383=DIRECTION('',(0.,-1.,0.));
#1384=DIRECTION('center_axis',(-2.06706270772099E-5,0.,0.999999999786363));
#1385=DIRECTION('ref_axis',(-0.999999999786363,0.,-2.06706270772099E-5));
#1386=DIRECTION('',(0.999999999786363,0.,2.06706270772099E-5));
#1387=DIRECTION('',(0.,-1.,0.));
#1388=DIRECTION('center_axis',(-2.06706270772099E-5,0.,-0.999999999786363));
#1389=DIRECTION('ref_axis',(0.999999999786363,0.,-2.06706270772099E-5));
#1390=DIRECTION('',(0.,1.,0.));
#1391=DIRECTION('',(-0.999999999786363,0.,2.06706270772099E-5));
#1392=DIRECTION('center_axis',(0.,0.,1.));
#1393=DIRECTION('ref_axis',(-1.,0.,0.));
#1394=DIRECTION('',(0.,1.,0.));
#1395=DIRECTION('',(1.,0.,0.));
#1396=DIRECTION('',(0.,-1.,0.));
#1397=DIRECTION('center_axis',(0.,-1.,0.));
#1398=DIRECTION('ref_axis',(-1.,0.,0.));
#1399=DIRECTION('center_axis',(0.,1.,0.));
#1400=DIRECTION('ref_axis',(-1.,0.,0.));
#1401=DIRECTION('',(0.,-1.,0.));
#1402=DIRECTION('center_axis',(0.,0.,-1.));
#1403=DIRECTION('ref_axis',(1.,0.,0.));
#1404=DIRECTION('',(-1.,0.,0.));
#1405=DIRECTION('',(0.,-1.,0.));
#1406=DIRECTION('center_axis',(-1.,0.,0.));
#1407=DIRECTION('ref_axis',(0.,-1.,0.));
#1408=DIRECTION('',(0.,0.,1.));
#1409=DIRECTION('center_axis',(-1.,0.,0.));
#1410=DIRECTION('ref_axis',(0.,-1.,0.));
#1411=DIRECTION('',(0.,0.,1.));
#1412=DIRECTION('center_axis',(0.,-1.,0.));
#1413=DIRECTION('ref_axis',(1.,0.,0.));
#1414=DIRECTION('',(0.,0.,1.));
#1415=DIRECTION('',(0.,0.,1.));
#1416=DIRECTION('',(0.,0.,1.));
#1417=DIRECTION('',(0.,0.,1.));
#1418=DIRECTION('center_axis',(1.,0.,0.));
#1419=DIRECTION('ref_axis',(0.,1.,0.));
#1420=DIRECTION('center_axis',(1.,0.,0.));
#1421=DIRECTION('ref_axis',(0.,1.,0.));
#1422=DIRECTION('center_axis',(1.,0.,0.));
#1423=DIRECTION('ref_axis',(0.,1.,0.));
#1424=DIRECTION('center_axis',(0.,-1.,0.));
#1425=DIRECTION('ref_axis',(1.,0.,0.));
#1426=DIRECTION('',(0.,0.,1.));
#1427=DIRECTION('center_axis',(-1.,0.,0.));
#1428=DIRECTION('ref_axis',(0.,-1.,0.));
#1429=DIRECTION('center_axis',(0.,-1.,0.));
#1430=DIRECTION('ref_axis',(1.,0.,0.));
#1431=DIRECTION('',(0.,0.,1.));
#1432=DIRECTION('center_axis',(-1.,0.,0.));
#1433=DIRECTION('ref_axis',(0.,-1.,0.));
#1434=DIRECTION('center_axis',(-1.,0.,0.));
#1435=DIRECTION('ref_axis',(0.,-1.,0.));
#1436=DIRECTION('',(0.,0.,1.));
#1437=DIRECTION('center_axis',(0.,1.,0.));
#1438=DIRECTION('ref_axis',(-1.,0.,0.));
#1439=DIRECTION('',(0.,0.,1.));
#1440=DIRECTION('center_axis',(-0.948683298050514,0.316227766016838,0.));
#1441=DIRECTION('ref_axis',(-0.316227766016838,-0.948683298050514,0.));
#1442=DIRECTION('center_axis',(1.,0.,0.));
#1443=DIRECTION('ref_axis',(0.,1.,0.));
#1444=DIRECTION('center_axis',(1.,0.,0.));
#1445=DIRECTION('ref_axis',(0.,1.,0.));
#1446=CARTESIAN_POINT('',(0.,0.,0.));
#1447=CARTESIAN_POINT('Origin',(-32.5000004842877,-7.00000010430813,0.1));
#1448=CARTESIAN_POINT('',(-52.9000001788139,3.00000004470348,0.1));
#1449=CARTESIAN_POINT('',(-52.9000007897615,-17.0000002533197,0.1));
#1450=CARTESIAN_POINT('',(-52.9000003315508,-1.99999971821905,0.1));
#1451=CARTESIAN_POINT('',(-12.1000001788139,3.00000004470348,0.1));
#1452=CARTESIAN_POINT('',(-12.1000001788139,3.00000004470348,0.1));
#1453=CARTESIAN_POINT('',(-12.1000001788139,-17.0000002533197,0.1));
#1454=CARTESIAN_POINT('',(-12.1000001788139,-12.0000001788139,0.1));
#1455=CARTESIAN_POINT('',(-52.9000007897615,-17.0000002533197,0.1));
#1456=CARTESIAN_POINT('Origin',(-52.9000001788139,3.00000004470348,19.));
#1457=CARTESIAN_POINT('',(-52.9000007897615,-17.0000002533197,18.9));
#1458=CARTESIAN_POINT('',(-52.9000007897615,-17.0000002533197,19.));
#1459=CARTESIAN_POINT('',(-52.9000001788139,3.00000004470348,18.9));
#1460=CARTESIAN_POINT('',(-52.9000007897615,-17.0000002533197,18.9));
#1461=CARTESIAN_POINT('',(-52.9000001788139,3.00000004470348,19.));
#1462=CARTESIAN_POINT('Origin',(-32.5000001788139,-3.50000005215406,0.));
#1463=CARTESIAN_POINT('',(-53.0000007897615,-17.0000002533197,0.));
#1464=CARTESIAN_POINT('',(-12.0000001788139,-17.0000002533197,0.));
#1465=CARTESIAN_POINT('',(-42.7000004842877,-17.0000002533197,0.));
#1466=CARTESIAN_POINT('',(-12.0000001788139,-24.0000003576279,0.));
#1467=CARTESIAN_POINT('',(-12.0000001788139,17.0000002533197,0.));
#1468=CARTESIAN_POINT('',(-53.0000001788139,-24.0000003576279,0.));
#1469=CARTESIAN_POINT('',(-12.0000001788139,-24.0000003576279,0.));
#1470=CARTESIAN_POINT('',(-53.0000001788139,-24.0000003576279,0.));
#1471=CARTESIAN_POINT('Origin',(-32.5000001788139,-3.50000005215406,0.));
#1472=CARTESIAN_POINT('',(-12.0000001788139,3.00000004470348,0.));
#1473=CARTESIAN_POINT('',(-53.0000001788139,3.00000004470348,0.));
#1474=CARTESIAN_POINT('',(-22.3000001788139,3.00000004470348,0.));
#1475=CARTESIAN_POINT('',(-53.0000001788139,4.99999964237213,0.));
#1476=CARTESIAN_POINT('',(-53.0000001788139,-24.0000003576279,0.));
#1477=CARTESIAN_POINT('',(-60.0000002831221,4.99999964237213,0.));
#1478=CARTESIAN_POINT('',(-53.0000001788139,4.99999964237213,0.));
#1479=CARTESIAN_POINT('',(-60.0000002831221,7.99999964237213,0.));
#1480=CARTESIAN_POINT('',(-60.0000002831221,4.99999964237213,0.));
#1481=CARTESIAN_POINT('',(-53.0000001788139,7.99999964237213,0.));
#1482=CARTESIAN_POINT('',(-60.0000002831221,7.99999964237213,0.));
#1483=CARTESIAN_POINT('',(-53.0000007897615,14.0000002086163,0.));
#1484=CARTESIAN_POINT('',(-53.0000001788139,-24.0000003576279,0.));
#1485=CARTESIAN_POINT('',(-50.0000007450581,14.0000002086163,0.));
#1486=CARTESIAN_POINT('',(-53.0000007897615,14.0000002086163,0.));
#1487=CARTESIAN_POINT('',(-49.0000007301569,17.0000002533197,0.));
#1488=CARTESIAN_POINT('',(-50.0000007450581,14.0000002086163,0.));
#1489=CARTESIAN_POINT('',(-16.0000002384186,17.0000002533197,0.));
#1490=CARTESIAN_POINT('',(-53.0000001788139,17.0000002533197,0.));
#1491=CARTESIAN_POINT('',(-12.0000001788139,12.0000001788139,0.));
#1492=CARTESIAN_POINT('',(-12.0000001788139,12.0000001788139,0.));
#1493=CARTESIAN_POINT('',(-12.0000001788139,7.99999964237213,0.));
#1494=CARTESIAN_POINT('',(-12.0000001788139,17.0000002533197,0.));
#1495=CARTESIAN_POINT('',(-5.00000007450581,7.99999964237213,0.));
#1496=CARTESIAN_POINT('',(-5.00000007450581,7.99999964237213,0.));
#1497=CARTESIAN_POINT('',(-5.00000007450581,4.99999964237213,0.));
#1498=CARTESIAN_POINT('',(-5.00000007450581,4.99999964237213,0.));
#1499=CARTESIAN_POINT('',(-12.0000001788139,4.99999964237213,0.));
#1500=CARTESIAN_POINT('',(-12.0000001788139,4.99999964237213,0.));
#1501=CARTESIAN_POINT('',(-12.0000001788139,17.0000002533197,0.));
#1502=CARTESIAN_POINT('Origin',(-12.1000001788139,-17.0000002533197,19.));
#1503=CARTESIAN_POINT('',(-12.1000001788139,3.00000004470348,18.9));
#1504=CARTESIAN_POINT('',(-12.1000001788139,3.00000004470348,19.));
#1505=CARTESIAN_POINT('',(-12.1000001788139,-17.0000002533197,18.9));
#1506=CARTESIAN_POINT('',(-12.1000001788139,3.00000004470348,18.9));
#1507=CARTESIAN_POINT('',(-12.1000001788139,-17.0000002533197,19.));
#1508=CARTESIAN_POINT('Origin',(-12.0000001788139,-24.0000003576279,0.));
#1509=CARTESIAN_POINT('',(-12.0000001788139,-17.0000002533197,19.));
#1510=CARTESIAN_POINT('',(-12.0000001788139,-17.0000002533197,9.5));
#1511=CARTESIAN_POINT('',(-12.0000001788139,-24.0000003576279,19.));
#1512=CARTESIAN_POINT('',(-12.0000001788139,17.0000002533197,19.));
#1513=CARTESIAN_POINT('',(-12.0000001788139,-24.0000003576279,0.));
#1514=CARTESIAN_POINT('Origin',(-32.5000001788139,-3.50000005215406,19.));
#1515=CARTESIAN_POINT('',(-53.0000007897615,-17.0000002533197,19.));
#1516=CARTESIAN_POINT('',(-22.2500001788139,-17.0000002533197,19.));
#1517=CARTESIAN_POINT('',(-53.0000001788139,-24.0000003576279,19.));
#1518=CARTESIAN_POINT('',(-53.0000001788139,-24.0000003576279,19.));
#1519=CARTESIAN_POINT('',(-12.0000001788139,-24.0000003576279,19.));
#1520=CARTESIAN_POINT('Origin',(-32.5000001788139,-3.50000005215406,19.));
#1521=CARTESIAN_POINT('',(-53.0000001788139,3.00000004470348,19.));
#1522=CARTESIAN_POINT('',(-12.0000001788139,3.00000004470348,19.));
#1523=CARTESIAN_POINT('',(-22.3000001788139,3.00000004470348,19.));
#1524=CARTESIAN_POINT('',(-12.0000001788139,4.99999964237213,19.));
#1525=CARTESIAN_POINT('',(-12.0000001788139,17.0000002533197,19.));
#1526=CARTESIAN_POINT('',(-5.00000007450581,4.99999964237213,19.));
#1527=CARTESIAN_POINT('',(-12.0000001788139,4.99999964237213,19.));
#1528=CARTESIAN_POINT('',(-5.00000007450581,7.99999964237213,19.));
#1529=CARTESIAN_POINT('',(-5.00000007450581,4.99999964237213,19.));
#1530=CARTESIAN_POINT('',(-12.0000001788139,7.99999964237213,19.));
#1531=CARTESIAN_POINT('',(-5.00000007450581,7.99999964237213,19.));
#1532=CARTESIAN_POINT('',(-12.0000001788139,12.0000001788139,19.));
#1533=CARTESIAN_POINT('',(-12.0000001788139,17.0000002533197,19.));
#1534=CARTESIAN_POINT('',(-16.0000002384186,17.0000002533197,19.));
#1535=CARTESIAN_POINT('',(-12.0000001788139,12.0000001788139,19.));
#1536=CARTESIAN_POINT('',(-49.0000007301569,17.0000002533197,19.));
#1537=CARTESIAN_POINT('',(-53.0000001788139,17.0000002533197,19.));
#1538=CARTESIAN_POINT('',(-50.0000007450581,14.0000002086163,19.));
#1539=CARTESIAN_POINT('',(-50.0000007450581,14.0000002086163,19.));
#1540=CARTESIAN_POINT('',(-53.0000007897615,14.0000002086163,19.));
#1541=CARTESIAN_POINT('',(-53.0000007897615,14.0000002086163,19.));
#1542=CARTESIAN_POINT('',(-53.0000001788139,7.99999964237213,19.));
#1543=CARTESIAN_POINT('',(-53.0000001788139,-24.0000003576279,19.));
#1544=CARTESIAN_POINT('',(-60.0000002831221,7.99999964237213,19.));
#1545=CARTESIAN_POINT('',(-60.0000002831221,7.99999964237213,19.));
#1546=CARTESIAN_POINT('',(-60.0000002831221,4.99999964237213,19.));
#1547=CARTESIAN_POINT('',(-60.0000002831221,4.99999964237213,19.));
#1548=CARTESIAN_POINT('',(-53.0000001788139,4.99999964237213,19.));
#1549=CARTESIAN_POINT('',(-53.0000001788139,4.99999964237213,19.));
#1550=CARTESIAN_POINT('',(-53.0000001788139,-24.0000003576279,19.));
#1551=CARTESIAN_POINT('Origin',(-53.0000001788139,4.99999964237213,0.));
#1552=CARTESIAN_POINT('',(-53.0000001788139,3.00000004470348,9.5));
#1553=CARTESIAN_POINT('',(-53.0000001788139,4.99999964237213,0.));
#1554=CARTESIAN_POINT('Origin',(-52.9000001788139,3.00000004470348,19.));
#1555=CARTESIAN_POINT('',(-12.0000001788139,3.00000004470348,9.5));
#1556=CARTESIAN_POINT('',(-12.0000001788139,3.00000004470348,18.9));
#1557=CARTESIAN_POINT('Origin',(-12.1000001788139,-17.0000002533197,19.));
#1558=CARTESIAN_POINT('',(-53.0000001788139,-17.0000002533197,9.5));
#1559=CARTESIAN_POINT('',(-53.0000007897615,-17.0000002533197,18.9));
#1560=CARTESIAN_POINT('Origin',(-32.5000004842877,-7.00000010430813,18.9));
#1561=CARTESIAN_POINT('Origin',(-9.00000008940697,8.99999964237213,10.0000000782311));
#1562=CARTESIAN_POINT('',(-6.00000008940697,7.99999964237213,8.49999984353781));
#1563=CARTESIAN_POINT('',(-12.0000001788139,9.99999964237213,8.49999984353781));
#1564=CARTESIAN_POINT('',(-7.50000008940697,8.49999964237213,8.49999984353781));
#1565=CARTESIAN_POINT('',(-12.0000001788139,9.99999964237213,10.5000001564622));
#1566=CARTESIAN_POINT('',(-12.0000001788139,9.99999964237213,4.75));
#1567=CARTESIAN_POINT('',(-6.00000008940697,7.99999964237213,10.5000001564622));
#1568=CARTESIAN_POINT('',(-10.2000001296401,9.39999965578318,10.5000001564622));
#1569=CARTESIAN_POINT('',(-6.00000008940697,7.99999964237213,5.2500000782311));
#1570=CARTESIAN_POINT('Origin',(-6.00000008940697,7.99999964237213,8.49999984353781));
#1571=CARTESIAN_POINT('',(-12.0000001788139,7.99999964237213,8.49999984353781));
#1572=CARTESIAN_POINT('',(-5.50000008195639,7.99999964237213,8.49999984353781));
#1573=CARTESIAN_POINT('',(-12.0000001788139,7.99999964237213,8.49999984353781));
#1574=CARTESIAN_POINT('Origin',(-12.0000001788139,7.99999964237213,10.5000001564622));
#1575=CARTESIAN_POINT('',(-12.0000001788139,7.99999964237213,10.5000001564622));
#1576=CARTESIAN_POINT('',(-12.0000001788139,7.99999964237213,10.5000001564622));
#1577=CARTESIAN_POINT('',(-8.50000012665987,7.99999964237213,10.5000001564622));
#1578=CARTESIAN_POINT('Origin',(-5.00000007450581,7.99999964237213,0.));
#1579=CARTESIAN_POINT('',(-12.0000001788139,7.99999964237213,0.));
#1580=CARTESIAN_POINT('',(-5.00000007450581,7.99999964237213,15.545092772204));
#1581=CARTESIAN_POINT('',(-5.00000007450581,7.99999964237213,0.));
#1582=CARTESIAN_POINT('',(-5.41224490776957,7.99999964237213,15.545092772204));
#1583=CARTESIAN_POINT('',(-5.00000007450581,7.99999964237213,15.545092772204));
#1584=CARTESIAN_POINT('',(-5.41224490776957,7.99999964237213,13.3086797488852));
#1585=CARTESIAN_POINT('Origin',(-7.36470853029434,7.99999964237213,14.4268862605446));
#1586=CARTESIAN_POINT('',(-5.00000007450581,7.99999964237213,13.3086797488852));
#1587=CARTESIAN_POINT('',(-5.20612249113769,7.99999964237213,13.3086797488852));
#1588=CARTESIAN_POINT('',(-5.00000007450581,7.99999964237213,5.54509277220398));
#1589=CARTESIAN_POINT('',(-5.00000007450581,7.99999964237213,0.));
#1590=CARTESIAN_POINT('',(-5.41224490776958,7.99999964237213,5.54509277220398));
#1591=CARTESIAN_POINT('',(-5.00000007450581,7.99999964237213,5.54509277220398));
#1592=CARTESIAN_POINT('',(-5.41224490776957,7.99999964237213,3.30867974888519));
#1593=CARTESIAN_POINT('Origin',(-7.36470853029434,7.99999964237213,4.42688626054459));
#1594=CARTESIAN_POINT('',(-5.00000007450581,7.99999964237213,3.30867974888519));
#1595=CARTESIAN_POINT('',(-5.20612249113769,7.99999964237213,3.30867974888519));
#1596=CARTESIAN_POINT('',(-5.00000007450581,7.99999964237213,0.));
#1597=CARTESIAN_POINT('',(-12.0000001788139,7.99999964237213,0.));
#1598=CARTESIAN_POINT('Origin',(-56.0000008791685,8.99999964237213,9.));
#1599=CARTESIAN_POINT('',(-59.0000008791685,7.99999964237213,10.5));
#1600=CARTESIAN_POINT('',(-53.0000001788139,9.99999964237213,10.5));
#1601=CARTESIAN_POINT('',(-57.5000008791685,8.49999964237213,10.5));
#1602=CARTESIAN_POINT('',(-53.0000007897615,9.99999964237213,8.5));
#1603=CARTESIAN_POINT('',(-53.0000001788139,9.99999964237213,4.75));
#1604=CARTESIAN_POINT('',(-59.0000008791685,7.99999964237213,8.5));
#1605=CARTESIAN_POINT('',(-54.8000008389354,9.39999965578318,8.5));
#1606=CARTESIAN_POINT('',(-59.0000008791685,7.99999964237213,4.25));
#1607=CARTESIAN_POINT('Origin',(-59.0000008791685,7.99999964237213,10.5));
#1608=CARTESIAN_POINT('',(-53.0000001788139,7.99999964237213,10.5));
#1609=CARTESIAN_POINT('',(-56.0000005289912,7.99999964237213,10.5));
#1610=CARTESIAN_POINT('',(-53.0000001788139,10.9999999254942,10.5));
#1611=CARTESIAN_POINT('Origin',(-53.0000007897615,7.99999964237213,8.5));
#1612=CARTESIAN_POINT('',(-53.0000007897615,7.99999964237213,8.5));
#1613=CARTESIAN_POINT('',(-53.0000001788139,10.9999999254942,8.5));
#1614=CARTESIAN_POINT('',(-53.0000004842877,7.99999964237213,8.5));
#1615=CARTESIAN_POINT('Origin',(-53.0000001788139,7.99999964237213,0.));
#1616=CARTESIAN_POINT('',(-53.0000001788139,7.99999964237213,0.));
#1617=CARTESIAN_POINT('',(-60.0000002831221,7.99999964237213,3.30869375523407));
#1618=CARTESIAN_POINT('',(-60.0000002831221,7.99999964237213,0.));
#1619=CARTESIAN_POINT('',(-59.4524652367491,7.99999964237213,3.30868243734131));
#1620=CARTESIAN_POINT('',(-56.5045484150502,7.99999964237213,3.30862150205202));
#1621=CARTESIAN_POINT('',(-59.4524652367491,7.99999964237213,5.54509008374786));
#1622=CARTESIAN_POINT('Origin',(-57.5000000745058,7.99999964237213,4.42688626054459));
#1623=CARTESIAN_POINT('',(-60.0000002831221,7.99999964237213,5.54507876585511));
#1624=CARTESIAN_POINT('',(-56.2262900194046,7.99999964237213,5.54515677081268));
#1625=CARTESIAN_POINT('',(-60.0000002831221,7.99999964237213,13.3076651503995));
#1626=CARTESIAN_POINT('',(-60.0000002831221,7.99999964237213,0.));
#1627=CARTESIAN_POINT('',(-59.4524636970306,7.99999964237213,13.3086797488852));
#1628=CARTESIAN_POINT('',(-56.525486418884,7.99999964237213,13.3141035083005));
#1629=CARTESIAN_POINT('',(-59.4524636970306,7.99999964237213,15.545092772204));
#1630=CARTESIAN_POINT('Origin',(-57.5000000745058,7.99999964237213,14.4268862605446));
#1631=CARTESIAN_POINT('',(-60.0000002831221,7.99999964237213,15.5461073706897));
#1632=CARTESIAN_POINT('',(-56.2118403495297,7.99999964237213,15.5390878190656));
#1633=CARTESIAN_POINT('',(-60.0000002831221,7.99999964237213,0.));
#1634=CARTESIAN_POINT('',(-53.0000001788139,7.99999964237213,0.));
#1635=CARTESIAN_POINT('Origin',(-14.8735002384186,17.5000002533197,12.1901168334184));
#1636=CARTESIAN_POINT('',(-16.0000002384186,18.0000002533197,14.8802336668368));
#1637=CARTESIAN_POINT('',(-13.7470002384186,17.0000002533197,9.56067707860348));
#1638=CARTESIAN_POINT('Origin',(-21.2967653520218,20.3509834373425,9.5));
#1639=CARTESIAN_POINT('',(-13.7470002384186,17.0000002533197,9.43932292139652));
#1640=CARTESIAN_POINT('',(-13.7470002384186,17.0000002533197,12.1901168334184));
#1641=CARTESIAN_POINT('',(-16.0000002384186,18.0000002533197,4.11976633316324));
#1642=CARTESIAN_POINT('Origin',(-21.2967653520218,20.3509834373425,9.5));
#1643=CARTESIAN_POINT('',(-16.0000002384186,18.0000002533197,19.));
#1644=CARTESIAN_POINT('Origin',(-14.8733783257378,17.0000002533197,9.5));
#1645=CARTESIAN_POINT('',(-13.746756413057,17.0000002533197,9.5));
#1646=CARTESIAN_POINT('Origin',(-21.2967653520218,17.0000002533197,9.5));
#1647=CARTESIAN_POINT('Origin',(-21.2967653520218,17.0000002533197,9.5));
#1648=CARTESIAN_POINT('Origin',(-12.0000001788139,12.0000001788139,0.));
#1649=CARTESIAN_POINT('',(-16.0000002384186,17.0000002533197,4.11976633316324));
#1650=CARTESIAN_POINT('',(-13.746756413057,14.1834454716178,9.5));
#1651=CARTESIAN_POINT('Origin',(-21.2967653520218,23.6209566453237,9.5));
#1652=CARTESIAN_POINT('',(-16.0000002384186,17.0000002533197,14.8802336668368));
#1653=CARTESIAN_POINT('Origin',(-21.2967653520218,23.6209566453237,9.5));
#1654=CARTESIAN_POINT('',(-16.0000002384186,17.0000002533197,0.));
#1655=CARTESIAN_POINT('',(-12.0000001788139,12.0000001788139,0.));
#1656=CARTESIAN_POINT('',(-16.0000002384186,17.0000002533197,0.));
#1657=CARTESIAN_POINT('Origin',(-21.2967653520218,17.0000002533197,9.5));
#1658=CARTESIAN_POINT('',(-17.7967653520218,22.5000002533197,9.5));
#1659=CARTESIAN_POINT('Origin',(-21.2967653520218,22.5000002533197,9.5));
#1660=CARTESIAN_POINT('',(-17.7967653520218,18.0000002533197,9.5));
#1661=CARTESIAN_POINT('',(-17.7967653520218,17.0000002533197,9.5));
#1662=CARTESIAN_POINT('Origin',(-21.2967653520218,18.0000002533197,9.5));
#1663=CARTESIAN_POINT('Origin',(-21.2967653520218,22.5000002533197,9.5));
#1664=CARTESIAN_POINT('Origin',(-21.2967653520218,17.0000002533197,9.5));
#1665=CARTESIAN_POINT('Origin',(-21.2967653520218,18.0000002533197,9.5));
#1666=CARTESIAN_POINT('',(-13.746756413057,17.0000002533197,9.5));
#1667=CARTESIAN_POINT('Origin',(-21.2967653520218,17.0000002533197,9.5));
#1668=CARTESIAN_POINT('Origin',(-22.4233872647025,18.0000002533197,9.5));
#1669=CARTESIAN_POINT('Origin',(-16.0000002384186,17.0000002533197,0.));
#1670=CARTESIAN_POINT('',(-49.0000007301569,17.0000002533197,0.));
#1671=CARTESIAN_POINT('Origin',(-57.5000000745058,17.0000002533197,14.4268862605446));
#1672=CARTESIAN_POINT('',(-59.4524636970306,5.00000025331974,13.3086797488852));
#1673=CARTESIAN_POINT('',(-59.4524636970306,17.0000002533197,13.3086797488852));
#1674=CARTESIAN_POINT('',(-59.4524636970306,5.00000025331974,15.545092772204));
#1675=CARTESIAN_POINT('Origin',(-57.5000000745058,4.99999964237213,14.4268862605446));
#1676=CARTESIAN_POINT('',(-59.4524636970306,17.0000002533197,15.545092772204));
#1677=CARTESIAN_POINT('Origin',(-59.4524636970306,17.0000002533197,15.545092772204));
#1678=CARTESIAN_POINT('',(-60.0000002831221,4.99999964237213,15.5461073706897));
#1679=CARTESIAN_POINT('',(-59.7118283837808,4.99999964237214,15.5455733812173));
#1680=CARTESIAN_POINT('',(-60.0000002831221,12.4999999478459,15.5461073706897));
#1681=CARTESIAN_POINT('Origin',(-60.0262892836792,17.0000002533197,13.3076164362481));
#1682=CARTESIAN_POINT('',(-60.0000002831221,4.99999964237213,13.3076651503995));
#1683=CARTESIAN_POINT('',(-60.0000002831221,12.4999999478459,13.3076651503995));
#1684=CARTESIAN_POINT('',(-60.0254744531352,4.99999964237214,13.3076179461487));
#1685=CARTESIAN_POINT('Origin',(-5.00000007450581,17.0000002533197,15.545092772204));
#1686=CARTESIAN_POINT('',(-5.00000007450581,5.00000025331974,15.545092772204));
#1687=CARTESIAN_POINT('',(-5.00000007450581,10.9999999478459,15.545092772204));
#1688=CARTESIAN_POINT('',(-5.41224490776957,5.00000025331974,15.545092772204));
#1689=CARTESIAN_POINT('',(-8.50000012665987,4.99999964237213,15.545092772204));
#1690=CARTESIAN_POINT('',(-5.41224490776957,17.0000002533197,15.545092772204));
#1691=CARTESIAN_POINT('Origin',(-5.41224490776957,17.0000002533197,13.3086797488852));
#1692=CARTESIAN_POINT('',(-5.41224490776957,5.00000025331974,13.3086797488852));
#1693=CARTESIAN_POINT('',(-5.41224490776957,17.0000002533197,13.3086797488852));
#1694=CARTESIAN_POINT('',(-5.00000007450581,5.00000025331974,13.3086797488852));
#1695=CARTESIAN_POINT('',(-8.70612254329176,4.99999964237213,13.3086797488852));
#1696=CARTESIAN_POINT('',(-5.00000007450581,10.9999999478459,13.3086797488852));
#1697=CARTESIAN_POINT('Origin',(-7.36470853029434,17.0000002533197,14.4268862605446));
#1698=CARTESIAN_POINT('Origin',(-7.36470853029434,4.99999964237213,14.4268862605446));
#1699=CARTESIAN_POINT('Origin',(-57.5000000745058,17.0000002533197,4.42688626054459));
#1700=CARTESIAN_POINT('',(-59.4524652367491,5.00000025331974,3.30868243734131));
#1701=CARTESIAN_POINT('',(-59.4524652367491,17.0000002533197,3.30868243734131));
#1702=CARTESIAN_POINT('',(-59.4524652367491,5.00000025331974,5.54509008374786));
#1703=CARTESIAN_POINT('Origin',(-57.5000000745058,4.99999964237213,4.42688626054459));
#1704=CARTESIAN_POINT('',(-59.4524652367491,17.0000002533197,5.54509008374786));
#1705=CARTESIAN_POINT('Origin',(-59.4524652367491,17.0000002533197,5.54509008374786));
#1706=CARTESIAN_POINT('',(-60.0000002831221,4.99999964237213,5.54507876585511));
#1707=CARTESIAN_POINT('',(-59.7262900700632,4.99999964237213,5.54508442361685));
#1708=CARTESIAN_POINT('',(-60.0000002831221,12.4999999478459,5.54507876585511));
#1709=CARTESIAN_POINT('Origin',(-60.0091650410703,17.0000002533197,3.30869394467536));
#1710=CARTESIAN_POINT('',(-60.0000002831221,4.99999964237213,3.30869375523407));
#1711=CARTESIAN_POINT('',(-60.0000002831221,12.4999999478459,3.30869375523407));
#1712=CARTESIAN_POINT('',(-60.0045484657088,4.99999964237213,3.30869384924786));
#1713=CARTESIAN_POINT('Origin',(-5.00000007450581,17.0000002533197,5.54509277220398));
#1714=CARTESIAN_POINT('',(-5.00000007450581,5.00000025331974,5.54509277220398));
#1715=CARTESIAN_POINT('',(-5.00000007450581,10.9999999478459,5.54509277220398));
#1716=CARTESIAN_POINT('',(-5.41224490776958,5.00000025331974,5.54509277220398));
#1717=CARTESIAN_POINT('',(-8.50000012665987,4.99999964237213,5.54509277220398));
#1718=CARTESIAN_POINT('',(-5.41224490776958,17.0000002533197,5.54509277220398));
#1719=CARTESIAN_POINT('Origin',(-7.36470853029434,17.0000002533197,4.42688626054459));
#1720=CARTESIAN_POINT('',(-5.41224490776957,5.00000025331974,3.30867974888519));
#1721=CARTESIAN_POINT('Origin',(-7.36470853029434,4.99999964237213,4.42688626054459));
#1722=CARTESIAN_POINT('',(-5.41224490776957,17.0000002533197,3.30867974888519));
#1723=CARTESIAN_POINT('Origin',(-5.41224490776957,17.0000002533197,3.30867974888519));
#1724=CARTESIAN_POINT('',(-5.00000007450581,5.00000025331974,3.30867974888519));
#1725=CARTESIAN_POINT('',(-8.70612254329176,4.99999964237213,3.30867974888519));
#1726=CARTESIAN_POINT('',(-5.00000007450581,10.9999999478459,3.30867974888519));
#1727=CARTESIAN_POINT('Origin',(-60.0000002831221,7.99999964237213,0.));
#1728=CARTESIAN_POINT('',(-60.0000002831221,4.99999964237213,0.));
#1729=CARTESIAN_POINT('Origin',(-60.0000002831221,7.99999964237213,0.));
#1730=CARTESIAN_POINT('',(-60.0000002831221,4.99999964237213,0.));
#1731=CARTESIAN_POINT('Origin',(-12.0000001788139,4.99999964237213,0.));
#1732=CARTESIAN_POINT('',(-5.00000007450581,4.99999964237213,0.));
#1733=CARTESIAN_POINT('',(-12.0000001788139,4.99999964237213,0.));
#1734=CARTESIAN_POINT('',(-5.00000007450581,4.99999964237213,0.));
#1735=CARTESIAN_POINT('',(-5.00000007450581,4.99999964237213,0.));
#1736=CARTESIAN_POINT('Origin',(-5.00000007450581,4.99999964237213,0.));
#1737=CARTESIAN_POINT('Origin',(-5.00000007450581,4.99999964237213,0.));
#1738=CARTESIAN_POINT('Origin',(-12.0000001788139,-24.0000003576279,0.));
#1739=CARTESIAN_POINT('Origin',(-53.0000001788139,-24.0000003576279,0.));
#1740=CARTESIAN_POINT('',(-53.0000001788139,-24.0000003576279,0.));
#1741=CARTESIAN_POINT('Origin',(-53.0000001788139,4.99999964237213,0.));
#1742=CARTESIAN_POINT('Origin',(-60.0000002831221,4.99999964237213,0.));
#1743=CARTESIAN_POINT('',(-60.0000002831221,4.99999964237213,0.));
#1744=CARTESIAN_POINT('Origin',(-60.0000002831221,7.99999964237213,0.));
#1745=CARTESIAN_POINT('Origin',(-53.0000001788139,14.0000002086163,0.));
#1746=CARTESIAN_POINT('',(-53.0000007897615,14.0000002086163,0.));
#1747=CARTESIAN_POINT('Origin',(-50.0000007450581,14.0000002086163,0.));
#1748=CARTESIAN_POINT('',(-50.0000007450581,14.0000002086163,0.));
#1749=CARTESIAN_POINT('Origin',(-49.0000007301569,17.0000002533197,0.));
#1750=CARTESIAN_POINT('Origin',(-12.0000001788139,7.99999964237213,0.));
#1751=CARTESIAN_POINT('Origin',(-5.00000007450581,4.99999964237213,0.));
#1752=UNCERTAINTY_MEASURE_WITH_UNIT(LENGTH_MEASURE(0.01),#1756,
'DISTANCE_ACCURACY_VALUE',
'Maximum model space distance between geometric entities at asserted c
onnectivities');
#1753=UNCERTAINTY_MEASURE_WITH_UNIT(LENGTH_MEASURE(0.01),#1756,
'DISTANCE_ACCURACY_VALUE',
'Maximum model space distance between geometric entities at asserted c
onnectivities');
#1754=(
GEOMETRIC_REPRESENTATION_CONTEXT(3)
GLOBAL_UNCERTAINTY_ASSIGNED_CONTEXT((#1752))
GLOBAL_UNIT_ASSIGNED_CONTEXT((#1756,#1758,#1759))
REPRESENTATION_CONTEXT('','3D')
);
#1755=(
GEOMETRIC_REPRESENTATION_CONTEXT(3)
GLOBAL_UNCERTAINTY_ASSIGNED_CONTEXT((#1753))
GLOBAL_UNIT_ASSIGNED_CONTEXT((#1756,#1758,#1759))
REPRESENTATION_CONTEXT('','3D')
);
#1756=(
LENGTH_UNIT()
NAMED_UNIT(*)
SI_UNIT(.MILLI.,.METRE.)
);
#1757=(
LENGTH_UNIT()
NAMED_UNIT(*)
SI_UNIT($,.METRE.)
);
#1758=(
NAMED_UNIT(*)
PLANE_ANGLE_UNIT()
SI_UNIT($,.RADIAN.)
);
#1759=(
NAMED_UNIT(*)
SI_UNIT($,.STERADIAN.)
SOLID_ANGLE_UNIT()
);
#1760=SHAPE_DEFINITION_REPRESENTATION(#1761,#1762);
#1761=PRODUCT_DEFINITION_SHAPE('',$,#1764);
#1762=SHAPE_REPRESENTATION('',(#1092),#1754);
#1763=PRODUCT_DEFINITION_CONTEXT('part definition',#1768,'design');
#1764=PRODUCT_DEFINITION('40KgServoMotor','40KgServoMotor v2',#1765,#1763);
#1765=PRODUCT_DEFINITION_FORMATION('',$,#1770);
#1766=PRODUCT_RELATED_PRODUCT_CATEGORY('40KgServoMotor v2',
'40KgServoMotor v2',(#1770));
#1767=APPLICATION_PROTOCOL_DEFINITION('international standard',
'automotive_design',2009,#1768);
#1768=APPLICATION_CONTEXT(
'Core Data for Automotive Mechanical Design Process');
#1769=PRODUCT_CONTEXT('part definition',#1768,'mechanical');
#1770=PRODUCT('40KgServoMotor','40KgServoMotor v2',$,(#1769));
#1771=PRESENTATION_STYLE_ASSIGNMENT((#1775));
#1772=PRESENTATION_STYLE_ASSIGNMENT((#1776));
#1773=PRESENTATION_STYLE_ASSIGNMENT((#1777));
#1774=PRESENTATION_STYLE_ASSIGNMENT((#1778));
#1775=SURFACE_STYLE_USAGE(.BOTH.,#1779);
#1776=SURFACE_STYLE_USAGE(.BOTH.,#1780);
#1777=SURFACE_STYLE_USAGE(.BOTH.,#1781);
#1778=SURFACE_STYLE_USAGE(.BOTH.,#1782);
#1779=SURFACE_SIDE_STYLE('',(#1783));
#1780=SURFACE_SIDE_STYLE('',(#1784));
#1781=SURFACE_SIDE_STYLE('',(#1785));
#1782=SURFACE_SIDE_STYLE('',(#1786));
#1783=SURFACE_STYLE_FILL_AREA(#1787);
#1784=SURFACE_STYLE_FILL_AREA(#1788);
#1785=SURFACE_STYLE_FILL_AREA(#1789);
#1786=SURFACE_STYLE_FILL_AREA(#1790);
#1787=FILL_AREA_STYLE('Steel - Satin',(#1791));
#1788=FILL_AREA_STYLE('Plastic - Matte (Black)',(#1792));
#1789=FILL_AREA_STYLE('Plastic - Matte (Red)',(#1793));
#1790=FILL_AREA_STYLE('Paint - Metallic (Silver)',(#1794));
#1791=FILL_AREA_STYLE_COLOUR('Steel - Satin',#1795);
#1792=FILL_AREA_STYLE_COLOUR('Plastic - Matte (Black)',#1796);
#1793=FILL_AREA_STYLE_COLOUR('Plastic - Matte (Red)',#1797);
#1794=FILL_AREA_STYLE_COLOUR('Paint - Metallic (Silver)',#1798);
#1795=COLOUR_RGB('Steel - Satin',0.627450980392157,0.627450980392157,0.627450980392157);
#1796=COLOUR_RGB('Plastic - Matte (Black)',0.0980392156862745,0.0980392156862745,
0.0980392156862745);
#1797=COLOUR_RGB('Plastic - Matte (Red)',0.768627450980392,0.207843137254902,
0.152941176470588);
#1798=COLOUR_RGB('Paint - Metallic (Silver)',0.984313725490196,0.980392156862745,
0.96078431372549);
ENDSEC;
END-ISO-10303-21;
