ISO-10303-21;
HEADER;
/* Generated by software containing ST-Developer
 * from STEP Tools, Inc. (www.steptools.com) 
 */

FILE_DESCRIPTION(
/* description */ (''),
/* implementation_level */ '2;1');

FILE_NAME(
/* name */ 'ConnectingBracketV1_v16.step',
/* time_stamp */ '2026-08-21T09:20:29-04:00',
/* author */ (''),
/* organization */ (''),
/* preprocessor_version */ 'ST-DEVELOPER v20.1',
/* originating_system */ 'Autodesk Translation Framework v15.8.0.0',
/* authorisation */ '');

FILE_SCHEMA (('AUTOMOTIVE_DESIGN { 1 0 10303 214 3 1 1 }'));
ENDSEC;

DATA;
#10=MECHANICAL_DESIGN_GEOMETRIC_PRESENTATION_REPRESENTATION('',(#13),#750);
#11=SHAPE_REPRESENTATION_RELATIONSHIP('SRR','None',#757,#12);
#12=ADVANCED_BREP_SHAPE_REPRESENTATION('',(#14),#749);
#13=STYLED_ITEM('',(#767),#14);
#14=MANIFOLD_SOLID_BREP('Body2',#344);
#15=B_SPLINE_SURFACE_WITH_KNOTS('',3,3,((#685,#686,#687,#688,#689,#690,
#691),(#692,#693,#694,#695,#696,#697,#698),(#699,#700,#701,#702,#703,#704,
#705),(#706,#707,#708,#709,#710,#711,#712)),.UNSPECIFIED.,.F.,.F.,.F.,(4,
4),(4,1,1,1,4),(0.,1.),(-1.5707963267949,-0.673198425769242,-0.224399475256414,
0.673198425769242,1.5707963267949),.UNSPECIFIED.);
#16=B_SPLINE_SURFACE_WITH_KNOTS('',3,3,((#714,#715,#716,#717,#718,#719,
#720),(#721,#722,#723,#724,#725,#726,#727),(#728,#729,#730,#731,#732,#733,
#734),(#735,#736,#737,#738,#739,#740,#741)),.UNSPECIFIED.,.F.,.F.,.F.,(4,
4),(4,1,1,1,4),(0.,1.),(-1.5707963267949,-1.12199737628207,-0.224399475256414,
0.673198425769241,1.5707963267949),.UNSPECIFIED.);
#17=ELLIPSE('',#395,1.48131408043666,1.3);
#18=ELLIPSE('',#396,1.30187515832453,1.3);
#19=ELLIPSE('',#397,1.48131408043666,1.3);
#20=ELLIPSE('',#398,1.30187515832453,1.3);
#21=ELLIPSE('',#399,1.48131408043666,1.3);
#22=ELLIPSE('',#400,1.48131408043666,1.3);
#23=PLANE('',#367);
#24=PLANE('',#371);
#25=PLANE('',#378);
#26=PLANE('',#382);
#27=FACE_BOUND('',#66,.T.);
#28=FACE_BOUND('',#68,.T.);
#29=FACE_BOUND('',#71,.T.);
#30=FACE_BOUND('',#75,.T.);
#31=FACE_BOUND('',#78,.T.);
#32=CONICAL_SURFACE('',#362,2.5,1.47112767430373);
#33=CONICAL_SURFACE('',#369,2.5,1.47112767430373);
#34=CONICAL_SURFACE('',#373,2.25,1.47112767430373);
#35=CONICAL_SURFACE('',#380,2.25,1.47112767430373);
#36=CONICAL_SURFACE('',#384,1.,0.0996686524911621);
#37=CONICAL_SURFACE('',#388,1.,0.0996686524911621);
#38=CONICAL_SURFACE('',#392,1.,0.0996686524911621);
#39=CONICAL_SURFACE('',#393,1.,0.0996686524911621);
#40=FACE_OUTER_BOUND('',#62,.T.);
#41=FACE_OUTER_BOUND('',#63,.T.);
#42=FACE_OUTER_BOUND('',#64,.T.);
#43=FACE_OUTER_BOUND('',#65,.T.);
#44=FACE_OUTER_BOUND('',#67,.T.);
#45=FACE_OUTER_BOUND('',#69,.T.);
#46=FACE_OUTER_BOUND('',#70,.T.);
#47=FACE_OUTER_BOUND('',#72,.T.);
#48=FACE_OUTER_BOUND('',#73,.T.);
#49=FACE_OUTER_BOUND('',#74,.T.);
#50=FACE_OUTER_BOUND('',#76,.T.);
#51=FACE_OUTER_BOUND('',#77,.T.);
#52=FACE_OUTER_BOUND('',#79,.T.);
#53=FACE_OUTER_BOUND('',#80,.T.);
#54=FACE_OUTER_BOUND('',#81,.T.);
#55=FACE_OUTER_BOUND('',#82,.T.);
#56=FACE_OUTER_BOUND('',#83,.T.);
#57=FACE_OUTER_BOUND('',#84,.T.);
#58=FACE_OUTER_BOUND('',#85,.T.);
#59=FACE_OUTER_BOUND('',#86,.T.);
#60=FACE_OUTER_BOUND('',#87,.T.);
#61=FACE_OUTER_BOUND('',#88,.T.);
#62=EDGE_LOOP('',(#220,#221,#222));
#63=EDGE_LOOP('',(#223,#224,#225));
#64=EDGE_LOOP('',(#226,#227,#228,#229));
#65=EDGE_LOOP('',(#230,#231,#232,#233));
#66=EDGE_LOOP('',(#234,#235));
#67=EDGE_LOOP('',(#236));
#68=EDGE_LOOP('',(#237));
#69=EDGE_LOOP('',(#238,#239,#240,#241));
#70=EDGE_LOOP('',(#242));
#71=EDGE_LOOP('',(#243));
#72=EDGE_LOOP('',(#244,#245,#246,#247,#248));
#73=EDGE_LOOP('',(#249,#250,#251,#252,#253,#254,#255,#256));
#74=EDGE_LOOP('',(#257));
#75=EDGE_LOOP('',(#258));
#76=EDGE_LOOP('',(#259,#260,#261,#262,#263));
#77=EDGE_LOOP('',(#264));
#78=EDGE_LOOP('',(#265));
#79=EDGE_LOOP('',(#266,#267,#268,#269));
#80=EDGE_LOOP('',(#270,#271,#272,#273));
#81=EDGE_LOOP('',(#274,#275,#276,#277));
#82=EDGE_LOOP('',(#278,#279,#280,#281));
#83=EDGE_LOOP('',(#282,#283,#284,#285));
#84=EDGE_LOOP('',(#286,#287,#288,#289));
#85=EDGE_LOOP('',(#290,#291,#292,#293,#294,#295,#296,#297,#298,#299,#300));
#86=EDGE_LOOP('',(#301,#302));
#87=EDGE_LOOP('',(#303,#304,#305,#306));
#88=EDGE_LOOP('',(#307,#308,#309,#310,#311,#312,#313));
#89=CIRCLE('',#359,2.75);
#90=CIRCLE('',#361,2.75);
#91=CIRCLE('',#363,2.);
#92=CIRCLE('',#364,3.);
#93=CIRCLE('',#366,3.);
#94=CIRCLE('',#368,1.06);
#95=CIRCLE('',#370,2.);
#96=CIRCLE('',#372,1.06);
#97=CIRCLE('',#374,2.75);
#98=CIRCLE('',#375,1.75);
#99=CIRCLE('',#377,2.75);
#100=CIRCLE('',#379,1.05);
#101=CIRCLE('',#381,1.75);
#102=CIRCLE('',#383,1.05);
#103=CIRCLE('',#385,0.95);
#104=CIRCLE('',#387,0.95);
#105=CIRCLE('',#389,0.95);
#106=CIRCLE('',#391,0.95);
#107=B_SPLINE_CURVE_WITH_KNOTS('',3,(#513,#514,#515,#516,#517,#518),
 .UNSPECIFIED.,.F.,.F.,(4,2,4),(0.516776428070246,0.549280293362354,0.598319781342641),
 .UNSPECIFIED.);
#108=B_SPLINE_CURVE_WITH_KNOTS('',3,(#526,#527,#528,#529,#530,#531),
 .UNSPECIFIED.,.F.,.F.,(4,2,4),(0.203476137648927,0.252515625629214,0.285019490921322),
 .UNSPECIFIED.);
#109=B_SPLINE_CURVE_WITH_KNOTS('',3,(#544,#545,#546,#547,#548,#549,#550,
#551,#552,#553,#554,#555,#556),.UNSPECIFIED.,.F.,.F.,(4,3,2,2,2,4),(0.188570475549113,
0.204868992340793,0.253839629688336,0.302810267035878,0.352270179303316,
0.401730091570753),.UNSPECIFIED.);
#110=B_SPLINE_CURVE_WITH_KNOTS('',3,(#557,#558,#559,#560,#561,#562,#563,
#564,#565,#566,#567,#568,#569,#570,#571,#572,#573,#574,#575,#576,#577,#578,
#579,#580,#581,#582,#583,#584,#585,#586,#587,#588,#589,#590,#591),
 .UNSPECIFIED.,.F.,.F.,(4,2,2,2,3,2,2,2,2,2,2,2,2,2,2,2,4),(0.401730091570753,
0.45119000383819,0.500649916105627,0.549620553453169,0.598591190800712,
0.630834527055477,0.657618487594342,0.705141759379096,0.750803648416861,
0.787673654886997,0.805126411418069,0.81950852414741,0.83758934002606,0.882080762641267,
0.939859087324728,0.987015999040192,1.00861190605216),.UNSPECIFIED.);
#111=B_SPLINE_CURVE_WITH_KNOTS('',3,(#609,#610,#611,#612,#613,#614,#615,
#616),.UNSPECIFIED.,.F.,.F.,(4,2,2,4),(0.285019490921322,0.3015551136095,
0.351226536552642,0.400897959495784),.UNSPECIFIED.);
#112=B_SPLINE_CURVE_WITH_KNOTS('',3,(#617,#618,#619,#620,#621,#622,#623,
#624),.UNSPECIFIED.,.F.,.F.,(4,2,2,4),(0.400897959495784,0.450569382438926,
0.500240805382068,0.516776428070246),.UNSPECIFIED.);
#113=B_SPLINE_CURVE_WITH_KNOTS('',3,(#626,#627,#628,#629,#630,#631,#632,
#633,#634,#635),.UNSPECIFIED.,.F.,.F.,(4,2,2,2,4),(0.598319781342641,0.649809592162193,
0.701299402981745,0.751547660986657,0.801795918991568),.UNSPECIFIED.);
#114=B_SPLINE_CURVE_WITH_KNOTS('',3,(#636,#637,#638,#639,#640,#641,#642,
#643,#644,#645),.UNSPECIFIED.,.F.,.F.,(4,2,2,2,4),(0.,0.0502482580049112,
0.100496516009822,0.151986326829375,0.203476137648927),.UNSPECIFIED.);
#115=LINE('',#511,#130);
#116=LINE('',#523,#131);
#117=LINE('',#536,#132);
#118=LINE('',#541,#133);
#119=LINE('',#597,#134);
#120=LINE('',#605,#135);
#121=LINE('',#653,#136);
#122=LINE('',#660,#137);
#123=LINE('',#664,#138);
#124=LINE('',#668,#139);
#125=LINE('',#672,#140);
#126=LINE('',#674,#141);
#127=LINE('',#676,#142);
#128=LINE('',#679,#143);
#129=LINE('',#746,#144);
#130=VECTOR('',#406,2.75);
#131=VECTOR('',#411,2.75);
#132=VECTOR('',#418,2.5);
#133=VECTOR('',#425,3.);
#134=VECTOR('',#432,2.5);
#135=VECTOR('',#443,2.25);
#136=VECTOR('',#458,2.25);
#137=VECTOR('',#467,1.);
#138=VECTOR('',#472,0.95);
#139=VECTOR('',#477,1.);
#140=VECTOR('',#482,0.95);
#141=VECTOR('',#485,1.);
#142=VECTOR('',#488,1.);
#143=VECTOR('',#491,1.3);
#144=VECTOR('',#506,1.3);
#145=VERTEX_POINT('',#509);
#146=VERTEX_POINT('',#510);
#147=VERTEX_POINT('',#512);
#148=VERTEX_POINT('',#521);
#149=VERTEX_POINT('',#522);
#150=VERTEX_POINT('',#524);
#151=VERTEX_POINT('',#533);
#152=VERTEX_POINT('',#535);
#153=VERTEX_POINT('',#539);
#154=VERTEX_POINT('',#542);
#155=VERTEX_POINT('',#543);
#156=VERTEX_POINT('',#593);
#157=VERTEX_POINT('',#596);
#158=VERTEX_POINT('',#600);
#159=VERTEX_POINT('',#604);
#160=VERTEX_POINT('',#608);
#161=VERTEX_POINT('',#625);
#162=VERTEX_POINT('',#648);
#163=VERTEX_POINT('',#651);
#164=VERTEX_POINT('',#655);
#165=VERTEX_POINT('',#658);
#166=VERTEX_POINT('',#662);
#167=VERTEX_POINT('',#666);
#168=VERTEX_POINT('',#670);
#169=VERTEX_POINT('',#678);
#170=VERTEX_POINT('',#680);
#171=VERTEX_POINT('',#682);
#172=VERTEX_POINT('',#742);
#173=EDGE_CURVE('',#145,#146,#115,.T.);
#174=EDGE_CURVE('',#145,#147,#107,.T.);
#175=EDGE_CURVE('',#146,#147,#89,.T.);
#176=EDGE_CURVE('',#148,#149,#116,.T.);
#177=EDGE_CURVE('',#150,#148,#90,.T.);
#178=EDGE_CURVE('',#150,#149,#108,.T.);
#179=EDGE_CURVE('',#151,#151,#91,.T.);
#180=EDGE_CURVE('',#151,#152,#117,.T.);
#181=EDGE_CURVE('',#152,#152,#92,.T.);
#182=EDGE_CURVE('',#153,#153,#93,.T.);
#183=EDGE_CURVE('',#153,#152,#118,.T.);
#184=EDGE_CURVE('',#154,#155,#109,.T.);
#185=EDGE_CURVE('',#155,#154,#110,.T.);
#186=EDGE_CURVE('',#156,#156,#94,.T.);
#187=EDGE_CURVE('',#153,#157,#119,.T.);
#188=EDGE_CURVE('',#157,#157,#95,.T.);
#189=EDGE_CURVE('',#158,#158,#96,.F.);
#190=EDGE_CURVE('',#147,#146,#97,.T.);
#191=EDGE_CURVE('',#146,#159,#120,.T.);
#192=EDGE_CURVE('',#159,#159,#98,.T.);
#193=EDGE_CURVE('',#149,#160,#111,.T.);
#194=EDGE_CURVE('',#160,#145,#112,.T.);
#195=EDGE_CURVE('',#147,#161,#113,.T.);
#196=EDGE_CURVE('',#161,#150,#114,.T.);
#197=EDGE_CURVE('',#148,#150,#99,.T.);
#198=EDGE_CURVE('',#162,#162,#100,.T.);
#199=EDGE_CURVE('',#163,#163,#101,.T.);
#200=EDGE_CURVE('',#163,#148,#121,.T.);
#201=EDGE_CURVE('',#164,#164,#102,.T.);
#202=EDGE_CURVE('',#165,#165,#103,.T.);
#203=EDGE_CURVE('',#165,#162,#122,.T.);
#204=EDGE_CURVE('',#166,#166,#104,.T.);
#205=EDGE_CURVE('',#166,#165,#123,.T.);
#206=EDGE_CURVE('',#167,#167,#105,.T.);
#207=EDGE_CURVE('',#167,#156,#124,.T.);
#208=EDGE_CURVE('',#168,#168,#106,.T.);
#209=EDGE_CURVE('',#168,#167,#125,.T.);
#210=EDGE_CURVE('',#164,#166,#126,.T.);
#211=EDGE_CURVE('',#158,#168,#127,.T.);
#212=EDGE_CURVE('',#160,#169,#128,.T.);
#213=EDGE_CURVE('',#170,#169,#17,.T.);
#214=EDGE_CURVE('',#171,#170,#18,.T.);
#215=EDGE_CURVE('',#169,#171,#19,.T.);
#216=EDGE_CURVE('',#170,#171,#20,.T.);
#217=EDGE_CURVE('',#171,#172,#21,.T.);
#218=EDGE_CURVE('',#172,#170,#22,.T.);
#219=EDGE_CURVE('',#172,#155,#129,.T.);
#220=ORIENTED_EDGE('',*,*,#173,.F.);
#221=ORIENTED_EDGE('',*,*,#174,.T.);
#222=ORIENTED_EDGE('',*,*,#175,.F.);
#223=ORIENTED_EDGE('',*,*,#176,.F.);
#224=ORIENTED_EDGE('',*,*,#177,.F.);
#225=ORIENTED_EDGE('',*,*,#178,.T.);
#226=ORIENTED_EDGE('',*,*,#179,.T.);
#227=ORIENTED_EDGE('',*,*,#180,.T.);
#228=ORIENTED_EDGE('',*,*,#181,.T.);
#229=ORIENTED_EDGE('',*,*,#180,.F.);
#230=ORIENTED_EDGE('',*,*,#182,.F.);
#231=ORIENTED_EDGE('',*,*,#183,.T.);
#232=ORIENTED_EDGE('',*,*,#181,.F.);
#233=ORIENTED_EDGE('',*,*,#183,.F.);
#234=ORIENTED_EDGE('',*,*,#184,.F.);
#235=ORIENTED_EDGE('',*,*,#185,.F.);
#236=ORIENTED_EDGE('',*,*,#179,.F.);
#237=ORIENTED_EDGE('',*,*,#186,.F.);
#238=ORIENTED_EDGE('',*,*,#182,.T.);
#239=ORIENTED_EDGE('',*,*,#187,.T.);
#240=ORIENTED_EDGE('',*,*,#188,.T.);
#241=ORIENTED_EDGE('',*,*,#187,.F.);
#242=ORIENTED_EDGE('',*,*,#188,.F.);
#243=ORIENTED_EDGE('',*,*,#189,.F.);
#244=ORIENTED_EDGE('',*,*,#190,.T.);
#245=ORIENTED_EDGE('',*,*,#191,.T.);
#246=ORIENTED_EDGE('',*,*,#192,.T.);
#247=ORIENTED_EDGE('',*,*,#191,.F.);
#248=ORIENTED_EDGE('',*,*,#175,.T.);
#249=ORIENTED_EDGE('',*,*,#176,.T.);
#250=ORIENTED_EDGE('',*,*,#193,.T.);
#251=ORIENTED_EDGE('',*,*,#194,.T.);
#252=ORIENTED_EDGE('',*,*,#173,.T.);
#253=ORIENTED_EDGE('',*,*,#190,.F.);
#254=ORIENTED_EDGE('',*,*,#195,.T.);
#255=ORIENTED_EDGE('',*,*,#196,.T.);
#256=ORIENTED_EDGE('',*,*,#197,.F.);
#257=ORIENTED_EDGE('',*,*,#192,.F.);
#258=ORIENTED_EDGE('',*,*,#198,.F.);
#259=ORIENTED_EDGE('',*,*,#199,.T.);
#260=ORIENTED_EDGE('',*,*,#200,.T.);
#261=ORIENTED_EDGE('',*,*,#197,.T.);
#262=ORIENTED_EDGE('',*,*,#177,.T.);
#263=ORIENTED_EDGE('',*,*,#200,.F.);
#264=ORIENTED_EDGE('',*,*,#199,.F.);
#265=ORIENTED_EDGE('',*,*,#201,.F.);
#266=ORIENTED_EDGE('',*,*,#202,.T.);
#267=ORIENTED_EDGE('',*,*,#203,.T.);
#268=ORIENTED_EDGE('',*,*,#198,.T.);
#269=ORIENTED_EDGE('',*,*,#203,.F.);
#270=ORIENTED_EDGE('',*,*,#204,.F.);
#271=ORIENTED_EDGE('',*,*,#205,.T.);
#272=ORIENTED_EDGE('',*,*,#202,.F.);
#273=ORIENTED_EDGE('',*,*,#205,.F.);
#274=ORIENTED_EDGE('',*,*,#206,.T.);
#275=ORIENTED_EDGE('',*,*,#207,.T.);
#276=ORIENTED_EDGE('',*,*,#186,.T.);
#277=ORIENTED_EDGE('',*,*,#207,.F.);
#278=ORIENTED_EDGE('',*,*,#208,.F.);
#279=ORIENTED_EDGE('',*,*,#209,.T.);
#280=ORIENTED_EDGE('',*,*,#206,.F.);
#281=ORIENTED_EDGE('',*,*,#209,.F.);
#282=ORIENTED_EDGE('',*,*,#201,.T.);
#283=ORIENTED_EDGE('',*,*,#210,.T.);
#284=ORIENTED_EDGE('',*,*,#204,.T.);
#285=ORIENTED_EDGE('',*,*,#210,.F.);
#286=ORIENTED_EDGE('',*,*,#189,.T.);
#287=ORIENTED_EDGE('',*,*,#211,.T.);
#288=ORIENTED_EDGE('',*,*,#208,.T.);
#289=ORIENTED_EDGE('',*,*,#211,.F.);
#290=ORIENTED_EDGE('',*,*,#196,.F.);
#291=ORIENTED_EDGE('',*,*,#195,.F.);
#292=ORIENTED_EDGE('',*,*,#174,.F.);
#293=ORIENTED_EDGE('',*,*,#194,.F.);
#294=ORIENTED_EDGE('',*,*,#212,.T.);
#295=ORIENTED_EDGE('',*,*,#213,.F.);
#296=ORIENTED_EDGE('',*,*,#214,.F.);
#297=ORIENTED_EDGE('',*,*,#215,.F.);
#298=ORIENTED_EDGE('',*,*,#212,.F.);
#299=ORIENTED_EDGE('',*,*,#193,.F.);
#300=ORIENTED_EDGE('',*,*,#178,.F.);
#301=ORIENTED_EDGE('',*,*,#214,.T.);
#302=ORIENTED_EDGE('',*,*,#216,.T.);
#303=ORIENTED_EDGE('',*,*,#213,.T.);
#304=ORIENTED_EDGE('',*,*,#215,.T.);
#305=ORIENTED_EDGE('',*,*,#217,.T.);
#306=ORIENTED_EDGE('',*,*,#218,.T.);
#307=ORIENTED_EDGE('',*,*,#216,.F.);
#308=ORIENTED_EDGE('',*,*,#218,.F.);
#309=ORIENTED_EDGE('',*,*,#219,.T.);
#310=ORIENTED_EDGE('',*,*,#185,.T.);
#311=ORIENTED_EDGE('',*,*,#184,.T.);
#312=ORIENTED_EDGE('',*,*,#219,.F.);
#313=ORIENTED_EDGE('',*,*,#217,.F.);
#314=CYLINDRICAL_SURFACE('',#358,2.75);
#315=CYLINDRICAL_SURFACE('',#360,2.75);
#316=CYLINDRICAL_SURFACE('',#365,3.);
#317=CYLINDRICAL_SURFACE('',#376,2.75);
#318=CYLINDRICAL_SURFACE('',#386,0.95);
#319=CYLINDRICAL_SURFACE('',#390,0.95);
#320=CYLINDRICAL_SURFACE('',#394,1.3);
#321=CYLINDRICAL_SURFACE('',#401,1.3);
#322=ADVANCED_FACE('',(#40),#314,.T.);
#323=ADVANCED_FACE('',(#41),#315,.T.);
#324=ADVANCED_FACE('',(#42),#32,.T.);
#325=ADVANCED_FACE('',(#43,#27),#316,.T.);
#326=ADVANCED_FACE('',(#44,#28),#23,.F.);
#327=ADVANCED_FACE('',(#45),#33,.T.);
#328=ADVANCED_FACE('',(#46,#29),#24,.T.);
#329=ADVANCED_FACE('',(#47),#34,.T.);
#330=ADVANCED_FACE('',(#48),#317,.T.);
#331=ADVANCED_FACE('',(#49,#30),#25,.F.);
#332=ADVANCED_FACE('',(#50),#35,.T.);
#333=ADVANCED_FACE('',(#51,#31),#26,.T.);
#334=ADVANCED_FACE('',(#52),#36,.F.);
#335=ADVANCED_FACE('',(#53),#318,.F.);
#336=ADVANCED_FACE('',(#54),#37,.F.);
#337=ADVANCED_FACE('',(#55),#319,.F.);
#338=ADVANCED_FACE('',(#56),#38,.F.);
#339=ADVANCED_FACE('',(#57),#39,.F.);
#340=ADVANCED_FACE('',(#58),#320,.T.);
#341=ADVANCED_FACE('',(#59),#15,.F.);
#342=ADVANCED_FACE('',(#60),#16,.T.);
#343=ADVANCED_FACE('',(#61),#321,.T.);
#344=CLOSED_SHELL('',(#322,#323,#324,#325,#326,#327,#328,#329,#330,#331,
#332,#333,#334,#335,#336,#337,#338,#339,#340,#341,#342,#343));
#345=DERIVED_UNIT_ELEMENT(#347,1.);
#346=DERIVED_UNIT_ELEMENT(#752,-3.);
#347=(
MASS_UNIT()
NAMED_UNIT(*)
SI_UNIT(.KILO.,.GRAM.)
);
#348=DERIVED_UNIT((#345,#346));
#349=MEASURE_REPRESENTATION_ITEM('density measure',
POSITIVE_RATIO_MEASURE(7850.),#348);
#350=PROPERTY_DEFINITION_REPRESENTATION(#355,#352);
#351=PROPERTY_DEFINITION_REPRESENTATION(#356,#353);
#352=REPRESENTATION('material name',(#354),#749);
#353=REPRESENTATION('density',(#349),#749);
#354=DESCRIPTIVE_REPRESENTATION_ITEM('Steel','Steel');
#355=PROPERTY_DEFINITION('material property','material name',#759);
#356=PROPERTY_DEFINITION('material property','density of part',#759);
#357=AXIS2_PLACEMENT_3D('',#507,#402,#403);
#358=AXIS2_PLACEMENT_3D('',#508,#404,#405);
#359=AXIS2_PLACEMENT_3D('',#519,#407,#408);
#360=AXIS2_PLACEMENT_3D('',#520,#409,#410);
#361=AXIS2_PLACEMENT_3D('',#525,#412,#413);
#362=AXIS2_PLACEMENT_3D('',#532,#414,#415);
#363=AXIS2_PLACEMENT_3D('',#534,#416,#417);
#364=AXIS2_PLACEMENT_3D('',#537,#419,#420);
#365=AXIS2_PLACEMENT_3D('',#538,#421,#422);
#366=AXIS2_PLACEMENT_3D('',#540,#423,#424);
#367=AXIS2_PLACEMENT_3D('',#592,#426,#427);
#368=AXIS2_PLACEMENT_3D('',#594,#428,#429);
#369=AXIS2_PLACEMENT_3D('',#595,#430,#431);
#370=AXIS2_PLACEMENT_3D('',#598,#433,#434);
#371=AXIS2_PLACEMENT_3D('',#599,#435,#436);
#372=AXIS2_PLACEMENT_3D('',#601,#437,#438);
#373=AXIS2_PLACEMENT_3D('',#602,#439,#440);
#374=AXIS2_PLACEMENT_3D('',#603,#441,#442);
#375=AXIS2_PLACEMENT_3D('',#606,#444,#445);
#376=AXIS2_PLACEMENT_3D('',#607,#446,#447);
#377=AXIS2_PLACEMENT_3D('',#646,#448,#449);
#378=AXIS2_PLACEMENT_3D('',#647,#450,#451);
#379=AXIS2_PLACEMENT_3D('',#649,#452,#453);
#380=AXIS2_PLACEMENT_3D('',#650,#454,#455);
#381=AXIS2_PLACEMENT_3D('',#652,#456,#457);
#382=AXIS2_PLACEMENT_3D('',#654,#459,#460);
#383=AXIS2_PLACEMENT_3D('',#656,#461,#462);
#384=AXIS2_PLACEMENT_3D('',#657,#463,#464);
#385=AXIS2_PLACEMENT_3D('',#659,#465,#466);
#386=AXIS2_PLACEMENT_3D('',#661,#468,#469);
#387=AXIS2_PLACEMENT_3D('',#663,#470,#471);
#388=AXIS2_PLACEMENT_3D('',#665,#473,#474);
#389=AXIS2_PLACEMENT_3D('',#667,#475,#476);
#390=AXIS2_PLACEMENT_3D('',#669,#478,#479);
#391=AXIS2_PLACEMENT_3D('',#671,#480,#481);
#392=AXIS2_PLACEMENT_3D('',#673,#483,#484);
#393=AXIS2_PLACEMENT_3D('',#675,#486,#487);
#394=AXIS2_PLACEMENT_3D('',#677,#489,#490);
#395=AXIS2_PLACEMENT_3D('',#681,#492,#493);
#396=AXIS2_PLACEMENT_3D('',#683,#494,#495);
#397=AXIS2_PLACEMENT_3D('',#684,#496,#497);
#398=AXIS2_PLACEMENT_3D('',#713,#498,#499);
#399=AXIS2_PLACEMENT_3D('',#743,#500,#501);
#400=AXIS2_PLACEMENT_3D('',#744,#502,#503);
#401=AXIS2_PLACEMENT_3D('',#745,#504,#505);
#402=DIRECTION('axis',(0.,0.,1.));
#403=DIRECTION('refdir',(1.,0.,0.));
#404=DIRECTION('center_axis',(0.,0.,1.));
#405=DIRECTION('ref_axis',(1.,0.,0.));
#406=DIRECTION('',(0.,0.,-1.));
#407=DIRECTION('center_axis',(0.,0.,-1.));
#408=DIRECTION('ref_axis',(1.,0.,0.));
#409=DIRECTION('center_axis',(0.,0.,1.));
#410=DIRECTION('ref_axis',(1.,0.,0.));
#411=DIRECTION('',(0.,0.,-1.));
#412=DIRECTION('center_axis',(0.,0.,1.));
#413=DIRECTION('ref_axis',(1.,0.,0.));
#414=DIRECTION('center_axis',(0.,0.,1.));
#415=DIRECTION('ref_axis',(1.,0.,0.));
#416=DIRECTION('center_axis',(0.,0.,1.));
#417=DIRECTION('ref_axis',(1.,0.,0.));
#418=DIRECTION('',(-0.995037190209989,1.21856911002324E-16,0.0995037190209988));
#419=DIRECTION('center_axis',(0.,0.,-1.));
#420=DIRECTION('ref_axis',(1.,0.,0.));
#421=DIRECTION('center_axis',(0.,0.,1.));
#422=DIRECTION('ref_axis',(1.,0.,0.));
#423=DIRECTION('center_axis',(0.,0.,1.));
#424=DIRECTION('ref_axis',(1.,0.,0.));
#425=DIRECTION('',(0.,0.,-1.));
#426=DIRECTION('center_axis',(0.,0.,1.));
#427=DIRECTION('ref_axis',(1.,0.,0.));
#428=DIRECTION('center_axis',(0.,0.,-1.));
#429=DIRECTION('ref_axis',(1.,0.,0.));
#430=DIRECTION('center_axis',(0.,0.,-1.));
#431=DIRECTION('ref_axis',(1.,0.,0.));
#432=DIRECTION('',(0.995037190209989,-1.21856911002324E-16,0.0995037190209989));
#433=DIRECTION('center_axis',(0.,0.,-1.));
#434=DIRECTION('ref_axis',(1.,0.,0.));
#435=DIRECTION('center_axis',(0.,0.,1.));
#436=DIRECTION('ref_axis',(1.,0.,0.));
#437=DIRECTION('center_axis',(0.,0.,-1.));
#438=DIRECTION('ref_axis',(1.,0.,0.));
#439=DIRECTION('center_axis',(0.,0.,1.));
#440=DIRECTION('ref_axis',(1.,0.,0.));
#441=DIRECTION('center_axis',(0.,0.,-1.));
#442=DIRECTION('ref_axis',(1.,0.,0.));
#443=DIRECTION('',(0.995037190209989,1.21856911002324E-16,-0.0995037190209989));
#444=DIRECTION('center_axis',(0.,0.,1.));
#445=DIRECTION('ref_axis',(1.,0.,0.));
#446=DIRECTION('center_axis',(0.,0.,1.));
#447=DIRECTION('ref_axis',(1.,0.,0.));
#448=DIRECTION('center_axis',(0.,0.,1.));
#449=DIRECTION('ref_axis',(1.,0.,0.));
#450=DIRECTION('center_axis',(0.,0.,1.));
#451=DIRECTION('ref_axis',(1.,0.,0.));
#452=DIRECTION('center_axis',(0.,0.,-1.));
#453=DIRECTION('ref_axis',(1.,0.,0.));
#454=DIRECTION('center_axis',(0.,0.,-1.));
#455=DIRECTION('ref_axis',(1.,0.,0.));
#456=DIRECTION('center_axis',(0.,0.,-1.));
#457=DIRECTION('ref_axis',(1.,0.,0.));
#458=DIRECTION('',(-0.995037190209989,-1.21856911002324E-16,-0.099503719020999));
#459=DIRECTION('center_axis',(0.,0.,1.));
#460=DIRECTION('ref_axis',(1.,0.,0.));
#461=DIRECTION('center_axis',(0.,0.,1.));
#462=DIRECTION('ref_axis',(1.,0.,0.));
#463=DIRECTION('center_axis',(0.,0.,-1.));
#464=DIRECTION('ref_axis',(1.,0.,0.));
#465=DIRECTION('center_axis',(0.,0.,1.));
#466=DIRECTION('ref_axis',(1.,0.,0.));
#467=DIRECTION('',(-0.099503719020999,-1.21856911002324E-17,-0.995037190209989));
#468=DIRECTION('center_axis',(0.,0.,1.));
#469=DIRECTION('ref_axis',(1.,0.,0.));
#470=DIRECTION('center_axis',(0.,0.,-1.));
#471=DIRECTION('ref_axis',(1.,0.,0.));
#472=DIRECTION('',(0.,0.,-1.));
#473=DIRECTION('center_axis',(0.,0.,-1.));
#474=DIRECTION('ref_axis',(1.,0.,0.));
#475=DIRECTION('center_axis',(0.,0.,1.));
#476=DIRECTION('ref_axis',(1.,0.,0.));
#477=DIRECTION('',(-0.099503719020999,-1.21856911002324E-17,-0.995037190209989));
#478=DIRECTION('center_axis',(0.,0.,1.));
#479=DIRECTION('ref_axis',(1.,0.,0.));
#480=DIRECTION('center_axis',(0.,0.,-1.));
#481=DIRECTION('ref_axis',(1.,0.,0.));
#482=DIRECTION('',(0.,0.,-1.));
#483=DIRECTION('center_axis',(0.,0.,1.));
#484=DIRECTION('ref_axis',(1.,0.,0.));
#485=DIRECTION('',(0.099503719020999,1.21856911002324E-17,-0.995037190209989));
#486=DIRECTION('center_axis',(0.,0.,1.));
#487=DIRECTION('ref_axis',(1.,0.,0.));
#488=DIRECTION('',(0.099503719020999,1.21856911002324E-17,-0.995037190209989));
#489=DIRECTION('center_axis',(0.985989714453626,-0.166806123963292,0.));
#490=DIRECTION('ref_axis',(0.166806123963292,0.985989714453626,0.));
#491=DIRECTION('',(-0.985989714453626,0.166806123963292,0.));
#492=DIRECTION('center_axis',(-0.945269796138439,-0.326289767704098,6.96643101547469E-17));
#493=DIRECTION('ref_axis',(0.326289767704098,-0.945269796138439,0.));
#494=DIRECTION('center_axis',(-0.993519167546391,0.11366469864442,2.10952051069372E-15));
#495=DIRECTION('ref_axis',(0.11366469864442,0.993519167546391,0.));
#496=DIRECTION('center_axis',(-0.945269796138439,-0.326289767704098,6.96643101547469E-17));
#497=DIRECTION('ref_axis',(0.326289767704098,-0.945269796138439,0.));
#498=DIRECTION('center_axis',(0.972224175091582,0.234051604069474,1.49913161416373E-16));
#499=DIRECTION('ref_axis',(-0.234051604069474,0.972224175091582,0.));
#500=DIRECTION('center_axis',(0.978021788824919,-0.208502711214281,-4.45162520551662E-17));
#501=DIRECTION('ref_axis',(-0.208502711214281,-0.978021788824919,0.));
#502=DIRECTION('center_axis',(0.978021788824919,-0.208502711214281,-4.45162520551662E-17));
#503=DIRECTION('ref_axis',(-0.208502711214281,-0.978021788824919,0.));
#504=DIRECTION('center_axis',(0.958266292780001,0.285877092684378,0.));
#505=DIRECTION('ref_axis',(-0.285877092684378,0.958266292780001,0.));
#506=DIRECTION('',(-0.958266292780001,-0.285877092684379,0.));
#507=CARTESIAN_POINT('',(0.,0.,0.));
#508=CARTESIAN_POINT('Origin',(0.,0.,0.));
#509=CARTESIAN_POINT('',(-2.75,6.15718131936614E-9,0.367269734441645));
#510=CARTESIAN_POINT('',(-2.75,-3.36777869765522E-16,0.1));
#511=CARTESIAN_POINT('',(-2.75,-3.36777869765522E-16,0.));
#512=CARTESIAN_POINT('',(-2.63657958091433,0.781631699399151,0.1));
#513=CARTESIAN_POINT('Ctrl Pts',(-2.75,1.2314363001531E-8,0.367269734441645));
#514=CARTESIAN_POINT('Ctrl Pts',(-2.74999999959846,0.0896708125146804,0.299670204120746));
#515=CARTESIAN_POINT('Ctrl Pts',(-2.74546028574615,0.190193170807505,0.241765059185958));
#516=CARTESIAN_POINT('Ctrl Pts',(-2.71689565790771,0.454456176441816,0.132364020233715));
#517=CARTESIAN_POINT('Ctrl Pts',(-2.6830411788873,0.624908653741797,0.1));
#518=CARTESIAN_POINT('Ctrl Pts',(-2.63657958091433,0.781631699399151,0.1));
#519=CARTESIAN_POINT('Origin',(0.,0.,0.1));
#520=CARTESIAN_POINT('Origin',(0.,0.,0.));
#521=CARTESIAN_POINT('',(-2.75,-3.36777869765522E-16,2.7));
#522=CARTESIAN_POINT('',(-2.75,6.15718143212316E-9,2.43273026555836));
#523=CARTESIAN_POINT('',(-2.75,-3.36777869765522E-16,0.));
#524=CARTESIAN_POINT('',(-2.63657958091433,0.781631699399151,2.7));
#525=CARTESIAN_POINT('Origin',(0.,0.,2.7));
#526=CARTESIAN_POINT('Ctrl Pts',(-2.63657958091433,0.781631699399151,2.7));
#527=CARTESIAN_POINT('Ctrl Pts',(-2.6830411788873,0.624908653741798,2.7));
#528=CARTESIAN_POINT('Ctrl Pts',(-2.71689565790771,0.454456176441816,2.66763597976629));
#529=CARTESIAN_POINT('Ctrl Pts',(-2.74546028574615,0.190193170807505,2.55823494081404));
#530=CARTESIAN_POINT('Ctrl Pts',(-2.74999999959846,0.089670812514681,2.50032979587926));
#531=CARTESIAN_POINT('Ctrl Pts',(-2.75,1.23143634005174E-8,2.43273026555836));
#532=CARTESIAN_POINT('Origin',(-14.984,-3.08148791101958E-32,-0.05));
#533=CARTESIAN_POINT('',(-16.984,-2.44929359829471E-16,-0.1));
#534=CARTESIAN_POINT('Origin',(-14.984,-3.08148791101958E-32,-0.1));
#535=CARTESIAN_POINT('',(-17.984,3.67394039744206E-16,0.));
#536=CARTESIAN_POINT('',(-17.484,3.06161699786838E-16,-0.05));
#537=CARTESIAN_POINT('Origin',(-14.984,-3.08148791101958E-32,0.));
#538=CARTESIAN_POINT('Origin',(-14.984,-3.08148791101958E-32,0.));
#539=CARTESIAN_POINT('',(-17.984,-3.67394039744206E-16,2.8));
#540=CARTESIAN_POINT('Origin',(-14.984,-3.08148791101958E-32,2.8));
#541=CARTESIAN_POINT('',(-17.984,-3.67394039744206E-16,0.));
#542=CARTESIAN_POINT('',(-12.3786553874328,1.4873397223792,2.69025682932082));
#543=CARTESIAN_POINT('',(-11.9851302248268,0.0823411898905537,1.4));
#544=CARTESIAN_POINT('Ctrl Pts',(-12.3786553874332,1.48733972237983,2.69025682932073));
#545=CARTESIAN_POINT('Ctrl Pts',(-12.3520192306129,1.44068167470783,2.69669939420993));
#546=CARTESIAN_POINT('Ctrl Pts',(-12.3264448687538,1.39296528968662,2.7));
#547=CARTESIAN_POINT('Ctrl Pts',(-12.3020985519353,1.34439749437005,2.7));
#548=CARTESIAN_POINT('Ctrl Pts',(-12.2289474384378,1.19847035746446,2.7));
#549=CARTESIAN_POINT('Ctrl Pts',(-12.1644126051802,1.03703587737435,2.66819813381052));
#550=CARTESIAN_POINT('Ctrl Pts',(-12.0702310331483,0.731756035225977,2.5370727335115));
#551=CARTESIAN_POINT('Ctrl Pts',(-12.0399082009776,0.588116929049778,2.43775556504026));
#552=CARTESIAN_POINT('Ctrl Pts',(-12.0029971337835,0.357004524189921,2.20780895899224));
#553=CARTESIAN_POINT('Ctrl Pts',(-11.9940125827489,0.254397425845654,2.06149817620024));
#554=CARTESIAN_POINT('Ctrl Pts',(-11.9854883946138,0.116923804188677,1.7400764488652));
#555=CARTESIAN_POINT('Ctrl Pts',(-11.9851302248268,0.0823411898905537,1.56486637422479));
#556=CARTESIAN_POINT('Ctrl Pts',(-11.9851302248268,0.0823411898905537,1.4));
#557=CARTESIAN_POINT('Ctrl Pts',(-11.9851302248268,0.0823411898905538,1.4));
#558=CARTESIAN_POINT('Ctrl Pts',(-11.9851302248268,0.0823411898905538,1.23513362577521));
#559=CARTESIAN_POINT('Ctrl Pts',(-11.9854883946138,0.116923804188678,1.0599235511348));
#560=CARTESIAN_POINT('Ctrl Pts',(-11.9940125827489,0.254397425845655,0.73850182379976));
#561=CARTESIAN_POINT('Ctrl Pts',(-12.0029971337835,0.357004524189921,0.592191041007763));
#562=CARTESIAN_POINT('Ctrl Pts',(-12.0399082009776,0.588116929049778,0.362244434959739));
#563=CARTESIAN_POINT('Ctrl Pts',(-12.0702310331483,0.731756035225978,0.262927266488497));
#564=CARTESIAN_POINT('Ctrl Pts',(-12.1644126051802,1.03703587737435,0.131801866189479));
#565=CARTESIAN_POINT('Ctrl Pts',(-12.2289474384378,1.19847035746446,0.1));
#566=CARTESIAN_POINT('Ctrl Pts',(-12.3020985519353,1.34439749437004,0.1));
#567=CARTESIAN_POINT('Ctrl Pts',(-12.3502628413476,1.44047910569459,0.1));
#568=CARTESIAN_POINT('Ctrl Pts',(-12.4033165918328,1.53330161527056,0.112899300274079));
#569=CARTESIAN_POINT('Ctrl Pts',(-12.5068021739029,1.69441446180257,0.158142644228964));
#570=CARTESIAN_POINT('Ctrl Pts',(-12.5558134152688,1.76369037363587,0.186685956245558));
#571=CARTESIAN_POINT('Ctrl Pts',(-12.6941635022446,1.94363637237876,0.285829340790721));
#572=CARTESIAN_POINT('Ctrl Pts',(-12.7852230038391,2.0444289666584,0.371676977301309));
#573=CARTESIAN_POINT('Ctrl Pts',(-12.9516634179947,2.20971017563624,0.575301035638308));
#574=CARTESIAN_POINT('Ctrl Pts',(-13.028028059835,2.27602487557973,0.692446689435075));
#575=CARTESIAN_POINT('Ctrl Pts',(-13.1375913226223,2.3653249665534,0.928465484451248));
#576=CARTESIAN_POINT('Ctrl Pts',(-13.1759448850427,2.39409974749151,1.04219426263146));
#577=CARTESIAN_POINT('Ctrl Pts',(-13.2089446815478,2.4185435070513,1.21855182317615));
#578=CARTESIAN_POINT('Ctrl Pts',(-13.2158819929473,2.42358669329369,1.27602812476526));
#579=CARTESIAN_POINT('Ctrl Pts',(-13.2213504837198,2.42756586271902,1.38192862652515));
#580=CARTESIAN_POINT('Ctrl Pts',(-13.2211289921455,2.42740576392383,1.42981694446339));
#581=CARTESIAN_POINT('Ctrl Pts',(-13.214566663054,2.4226279340075,1.53772181356598));
#582=CARTESIAN_POINT('Ctrl Pts',(-13.2066983244913,2.41690153201513,1.59713522943881));
#583=CARTESIAN_POINT('Ctrl Pts',(-13.1660351118646,2.38669248625413,1.79946437636171));
#584=CARTESIAN_POINT('Ctrl Pts',(-13.1142352471058,2.34759273138237,1.93421664851663));
#585=CARTESIAN_POINT('Ctrl Pts',(-12.9650435461363,2.22170596437297,2.21369221801883));
#586=CARTESIAN_POINT('Ctrl Pts',(-12.8592603314365,2.12403055141009,2.34911644923655));
#587=CARTESIAN_POINT('Ctrl Pts',(-12.6635474426991,1.90599991189917,2.5401872134862));
#588=CARTESIAN_POINT('Ctrl Pts',(-12.573803910591,1.79273437083885,2.60638391103308));
#589=CARTESIAN_POINT('Ctrl Pts',(-12.4511108627253,1.60912525652085,2.66766830328193));
#590=CARTESIAN_POINT('Ctrl Pts',(-12.4139489035978,1.54916270122899,2.68172028369243));
#591=CARTESIAN_POINT('Ctrl Pts',(-12.3786553874332,1.48733972237983,2.69025682932073));
#592=CARTESIAN_POINT('Origin',(-14.984,0.,-0.1));
#593=CARTESIAN_POINT('',(-16.044,1.29812560709619E-16,-0.1));
#594=CARTESIAN_POINT('Origin',(-14.984,-3.08148791101958E-32,-0.1));
#595=CARTESIAN_POINT('Origin',(-14.984,-3.08148791101958E-32,2.85));
#596=CARTESIAN_POINT('',(-16.984,2.44929359829471E-16,2.9));
#597=CARTESIAN_POINT('',(-17.484,3.06161699786838E-16,2.85));
#598=CARTESIAN_POINT('Origin',(-14.984,-3.08148791101958E-32,2.9));
#599=CARTESIAN_POINT('Origin',(-14.984,0.,2.9));
#600=CARTESIAN_POINT('',(-16.044,1.29812560709619E-16,2.9));
#601=CARTESIAN_POINT('Origin',(-14.984,-3.08148791101958E-32,2.9));
#602=CARTESIAN_POINT('Origin',(0.,0.,0.05));
#603=CARTESIAN_POINT('Origin',(0.,0.,0.1));
#604=CARTESIAN_POINT('',(-1.75,-2.14313189850787E-16,0.));
#605=CARTESIAN_POINT('',(-2.25,-2.75545529808155E-16,0.05));
#606=CARTESIAN_POINT('Origin',(0.,0.,0.));
#607=CARTESIAN_POINT('Origin',(0.,0.,0.));
#608=CARTESIAN_POINT('',(-2.69917775954707,-0.526250341915756,1.4));
#609=CARTESIAN_POINT('Ctrl Pts',(-2.75,1.23143632438628E-8,2.43273026555836));
#610=CARTESIAN_POINT('Ctrl Pts',(-2.75000000020428,-0.0456180243386315,
2.39834049938012));
#611=CARTESIAN_POINT('Ctrl Pts',(-2.74886167405932,-0.0884677670132845,
2.3614948258105));
#612=CARTESIAN_POINT('Ctrl Pts',(-2.741483669311,-0.24679437076613,2.20792922150444));
#613=CARTESIAN_POINT('Ctrl Pts',(-2.72840720606703,-0.351141816679506,2.06208726628816));
#614=CARTESIAN_POINT('Ctrl Pts',(-2.70673924267101,-0.490988268744613,1.74099426384001));
#615=CARTESIAN_POINT('Ctrl Pts',(-2.69917775954707,-0.526250341915756,1.56557140981047));
#616=CARTESIAN_POINT('Ctrl Pts',(-2.69917775954707,-0.526250341915756,1.4));
#617=CARTESIAN_POINT('Ctrl Pts',(-2.69917775954707,-0.526250341915756,1.4));
#618=CARTESIAN_POINT('Ctrl Pts',(-2.69917775954707,-0.526250341915756,1.23442859018953));
#619=CARTESIAN_POINT('Ctrl Pts',(-2.70673924267101,-0.490988268744612,1.05900573615999));
#620=CARTESIAN_POINT('Ctrl Pts',(-2.72840720606703,-0.351141816679506,0.737912733711842));
#621=CARTESIAN_POINT('Ctrl Pts',(-2.741483669311,-0.24679437076613,0.59207077849556));
#622=CARTESIAN_POINT('Ctrl Pts',(-2.74886167405932,-0.0884677670132843,
0.438505174189498));
#623=CARTESIAN_POINT('Ctrl Pts',(-2.75000000020428,-0.0456180243386316,
0.401659500619878));
#624=CARTESIAN_POINT('Ctrl Pts',(-2.75,1.23143629913954E-8,0.367269734441645));
#625=CARTESIAN_POINT('',(-1.91114566257948,1.97737762109407,1.4));
#626=CARTESIAN_POINT('Ctrl Pts',(-2.63657958091433,0.781631699399151,0.1));
#627=CARTESIAN_POINT('Ctrl Pts',(-2.58779646778387,0.946185619195483,0.1));
#628=CARTESIAN_POINT('Ctrl Pts',(-2.51958896971288,1.11472186489667,0.135333531278742));
#629=CARTESIAN_POINT('Ctrl Pts',(-2.36452271209463,1.41420143952194,0.271831824685582));
#630=CARTESIAN_POINT('Ctrl Pts',(-2.27818462322454,1.54550947309299,0.372787096006714));
#631=CARTESIAN_POINT('Ctrl Pts',(-2.12740499402137,1.74702595689684,0.600083514409181));
#632=CARTESIAN_POINT('Ctrl Pts',(-2.05158590938649,1.83296838771731,0.742041154319485));
#633=CARTESIAN_POINT('Ctrl Pts',(-1.94264439478652,1.94805320402799,1.05800668612764));
#634=CARTESIAN_POINT('Ctrl Pts',(-1.91114566257948,1.97737762109407,1.2325058066503));
#635=CARTESIAN_POINT('Ctrl Pts',(-1.91114566257948,1.97737762109407,1.4));
#636=CARTESIAN_POINT('Ctrl Pts',(-1.91114566257948,1.97737762109407,1.4));
#637=CARTESIAN_POINT('Ctrl Pts',(-1.91114566257948,1.97737762109407,1.5674941933497));
#638=CARTESIAN_POINT('Ctrl Pts',(-1.94264439478652,1.94805320402799,1.74199331387236));
#639=CARTESIAN_POINT('Ctrl Pts',(-2.05158590938649,1.83296838771731,2.05795884568052));
#640=CARTESIAN_POINT('Ctrl Pts',(-2.12740499402137,1.74702595689684,2.19991648559082));
#641=CARTESIAN_POINT('Ctrl Pts',(-2.27818462322454,1.54550947309299,2.42721290399329));
#642=CARTESIAN_POINT('Ctrl Pts',(-2.36452271209463,1.41420143952194,2.52816817531442));
#643=CARTESIAN_POINT('Ctrl Pts',(-2.51958896971288,1.11472186489667,2.66466646872126));
#644=CARTESIAN_POINT('Ctrl Pts',(-2.58779646778387,0.946185619195483,2.7));
#645=CARTESIAN_POINT('Ctrl Pts',(-2.63657958091433,0.781631699399151,2.7));
#646=CARTESIAN_POINT('Origin',(0.,0.,2.7));
#647=CARTESIAN_POINT('Origin',(0.,0.,0.));
#648=CARTESIAN_POINT('',(-1.05,1.28587913910472E-16,0.));
#649=CARTESIAN_POINT('Origin',(0.,0.,0.));
#650=CARTESIAN_POINT('Origin',(0.,0.,2.75));
#651=CARTESIAN_POINT('',(-1.75,2.14313189850787E-16,2.8));
#652=CARTESIAN_POINT('Origin',(0.,0.,2.8));
#653=CARTESIAN_POINT('',(-2.25,-2.75545529808155E-16,2.75));
#654=CARTESIAN_POINT('Origin',(0.,0.,2.8));
#655=CARTESIAN_POINT('',(-1.05,-1.28587913910472E-16,2.8));
#656=CARTESIAN_POINT('Origin',(0.,0.,2.8));
#657=CARTESIAN_POINT('Origin',(0.,0.,0.5));
#658=CARTESIAN_POINT('',(-0.95,-1.16341445918999E-16,1.));
#659=CARTESIAN_POINT('Origin',(0.,0.,1.));
#660=CARTESIAN_POINT('',(-1.,-1.22464679914735E-16,0.5));
#661=CARTESIAN_POINT('Origin',(0.,0.,0.));
#662=CARTESIAN_POINT('',(-0.95,1.16341445918999E-16,1.8));
#663=CARTESIAN_POINT('Origin',(0.,0.,1.8));
#664=CARTESIAN_POINT('',(-0.95,-1.16341445918999E-16,0.));
#665=CARTESIAN_POINT('Origin',(-14.984,-3.08148791101958E-32,0.5));
#666=CARTESIAN_POINT('',(-15.934,-1.16341445918999E-16,1.));
#667=CARTESIAN_POINT('Origin',(-14.984,-3.08148791101958E-32,1.));
#668=CARTESIAN_POINT('',(-15.984,-1.22464679914735E-16,0.5));
#669=CARTESIAN_POINT('Origin',(-14.984,-3.08148791101958E-32,0.));
#670=CARTESIAN_POINT('',(-15.934,1.16341445918998E-16,1.8));
#671=CARTESIAN_POINT('Origin',(-14.984,-3.08148791101958E-32,1.8));
#672=CARTESIAN_POINT('',(-15.934,-1.16341445918999E-16,0.));
#673=CARTESIAN_POINT('Origin',(0.,0.,2.3));
#674=CARTESIAN_POINT('',(-1.,-1.22464679914735E-16,2.3));
#675=CARTESIAN_POINT('Origin',(-14.984,-3.08148791101958E-32,2.3));
#676=CARTESIAN_POINT('',(-15.984,-1.22464679914735E-16,2.3));
#677=CARTESIAN_POINT('Origin',(-10.0081890479007,2.0287335550615,1.4));
#678=CARTESIAN_POINT('',(-9.52485142069822,0.62849209623014,1.4));
#679=CARTESIAN_POINT('',(-10.225037009053,0.746946926271788,1.4));
#680=CARTESIAN_POINT('',(-10.0081890479007,2.02873355506151,0.100000000000001));
#681=CARTESIAN_POINT('Origin',(-10.0081890479007,2.0287335550615,1.4));
#682=CARTESIAN_POINT('',(-10.0081890479007,2.02873355506151,2.7));
#683=CARTESIAN_POINT('Origin',(-10.0081890479007,2.0287335550615,1.4));
#684=CARTESIAN_POINT('Origin',(-10.0081890479007,2.0287335550615,1.4));
#685=CARTESIAN_POINT('Ctrl Pts',(-10.0081890479007,2.0287335550615,2.7));
#686=CARTESIAN_POINT('Ctrl Pts',(-9.96391435896914,2.4157292768227,2.7));
#687=CARTESIAN_POINT('Ctrl Pts',(-9.89849426766546,2.98755250274932,2.4201699342456));
#688=CARTESIAN_POINT('Ctrl Pts',(-9.84874241883434,3.42242292447312,1.51851864631217));
#689=CARTESIAN_POINT('Ctrl Pts',(-9.87568188416691,3.18695073750067,0.473898466209929));
#690=CARTESIAN_POINT('Ctrl Pts',(-9.96391435896914,2.4157292768227,0.100000000000001));
#691=CARTESIAN_POINT('Ctrl Pts',(-10.0081890479007,2.0287335550615,0.1));
#692=CARTESIAN_POINT('Ctrl Pts',(-10.0081890479007,2.0287335550615,2.7));
#693=CARTESIAN_POINT('Ctrl Pts',(-10.009061859535,2.41296433403342,2.7));
#694=CARTESIAN_POINT('Ctrl Pts',(-10.0102430336779,2.98682954632807,2.43936843557217));
#695=CARTESIAN_POINT('Ctrl Pts',(-10.0106436020429,3.45824841668539,1.52416141366012));
#696=CARTESIAN_POINT('Ctrl Pts',(-10.0105764757273,3.19247447075268,0.446580300604));
#697=CARTESIAN_POINT('Ctrl Pts',(-10.009061859535,2.41296433403342,0.100000000000001));
#698=CARTESIAN_POINT('Ctrl Pts',(-10.0081890479007,2.0287335550615,0.1));
#699=CARTESIAN_POINT('Ctrl Pts',(-10.0081890479007,2.0287335550615,2.7));
#700=CARTESIAN_POINT('Ctrl Pts',(-10.0542093601008,2.41019939124415,2.7));
#701=CARTESIAN_POINT('Ctrl Pts',(-10.1230641707092,2.97992010537556,2.43936843557217));
#702=CARTESIAN_POINT('Ctrl Pts',(-10.1801925145188,3.44786482873246,1.52416141366012));
#703=CARTESIAN_POINT('Ctrl Pts',(-10.1478274921933,3.18406888453988,0.446580300604001));
#704=CARTESIAN_POINT('Ctrl Pts',(-10.0542093601008,2.41019939124415,0.100000000000001));
#705=CARTESIAN_POINT('Ctrl Pts',(-10.0081890479007,2.0287335550615,0.1));
#706=CARTESIAN_POINT('Ctrl Pts',(-10.0081890479007,2.0287335550615,2.7));
#707=CARTESIAN_POINT('Ctrl Pts',(-10.0993568606666,2.40743444845487,2.7));
#708=CARTESIAN_POINT('Ctrl Pts',(-10.2340660315051,2.96700127140573,2.4201699342456));
#709=CARTESIAN_POINT('Ctrl Pts',(-10.3365120869931,3.39255072313526,1.51851864631217));
#710=CARTESIAN_POINT('Ctrl Pts',(-10.2810399382164,3.16212562393795,0.473898466209931));
#711=CARTESIAN_POINT('Ctrl Pts',(-10.0993568606666,2.40743444845487,0.100000000000001));
#712=CARTESIAN_POINT('Ctrl Pts',(-10.0081890479007,2.0287335550615,0.1));
#713=CARTESIAN_POINT('Origin',(-10.0081890479007,2.0287335550615,1.4));
#714=CARTESIAN_POINT('Ctrl Pts',(-10.0081890479007,2.0287335550615,0.1));
#715=CARTESIAN_POINT('Ctrl Pts',(-10.0543940969421,1.81199994784363,0.1));
#716=CARTESIAN_POINT('Ctrl Pts',(-10.1935853706774,1.15909669428564,0.228828011626582));
#717=CARTESIAN_POINT('Ctrl Pts',(-10.352926694351,0.411675783040039,1.06791819921443));
#718=CARTESIAN_POINT('Ctrl Pts',(-10.2844323948842,0.73296137639595,2.3284157552255));
#719=CARTESIAN_POINT('Ctrl Pts',(-10.1005991459834,1.59526634062575,2.7));
#720=CARTESIAN_POINT('Ctrl Pts',(-10.0081890479007,2.0287335550615,2.7));
#721=CARTESIAN_POINT('Ctrl Pts',(-10.0081890479007,2.0287335550615,0.1));
#722=CARTESIAN_POINT('Ctrl Pts',(-10.014890033947,1.81441927278424,0.1));
#723=CARTESIAN_POINT('Ctrl Pts',(-10.0342148393888,1.16241539404663,0.251445541216361));
#724=CARTESIAN_POINT('Ctrl Pts',(-10.0698960904906,0.51440962089629,1.09426608648963));
#725=CARTESIAN_POINT('Ctrl Pts',(-10.0519945776196,0.774317153461209,2.27796504057714));
#726=CARTESIAN_POINT('Ctrl Pts',(-10.0215910199932,1.60010499050699,2.7));
#727=CARTESIAN_POINT('Ctrl Pts',(-10.0081890479007,2.0287335550615,2.7));
#728=CARTESIAN_POINT('Ctrl Pts',(-10.0081890479007,2.0287335550615,0.1));
#729=CARTESIAN_POINT('Ctrl Pts',(-9.97538597095187,1.81683859772486,0.1));
#730=CARTESIAN_POINT('Ctrl Pts',(-9.87664338524455,1.17206545330732,0.251445541216361));
#731=CARTESIAN_POINT('Ctrl Pts',(-9.76215446712949,0.533256466719614,1.09426608648963));
#732=CARTESIAN_POINT('Ctrl Pts',(-9.81163798273432,0.789037176176844,2.27796504057714));
#733=CARTESIAN_POINT('Ctrl Pts',(-9.94258289400302,1.60494364038822,2.7));
#734=CARTESIAN_POINT('Ctrl Pts',(-10.0081890479007,2.0287335550615,2.7));
#735=CARTESIAN_POINT('Ctrl Pts',(-10.0081890479007,2.0287335550615,0.1));
#736=CARTESIAN_POINT('Ctrl Pts',(-9.93588190795676,1.81925792266548,0.1));
#737=CARTESIAN_POINT('Ctrl Pts',(-9.71805889688393,1.18821909260996,0.228828011626581));
#738=CARTESIAN_POINT('Ctrl Pts',(-9.46870269818356,0.465827812092989,1.06791819921443));
#739=CARTESIAN_POINT('Ctrl Pts',(-9.57589070035346,0.776354193819772,2.3284157552255));
#740=CARTESIAN_POINT('Ctrl Pts',(-9.86357476801282,1.60978229026946,2.7));
#741=CARTESIAN_POINT('Ctrl Pts',(-10.0081890479007,2.0287335550615,2.7));
#742=CARTESIAN_POINT('',(-10.3170470498316,0.579976108301297,1.4));
#743=CARTESIAN_POINT('Origin',(-10.0081890479007,2.0287335550615,1.4));
#744=CARTESIAN_POINT('Origin',(-10.0081890479007,2.0287335550615,1.4));
#745=CARTESIAN_POINT('Origin',(-14.3722485004965,0.726815040333683,1.4));
#746=CARTESIAN_POINT('',(-14.0006082800068,-0.51893114028032,1.4));
#747=UNCERTAINTY_MEASURE_WITH_UNIT(LENGTH_MEASURE(0.01),#751,
'DISTANCE_ACCURACY_VALUE',
'Maximum model space distance between geometric entities at asserted c
onnectivities');
#748=UNCERTAINTY_MEASURE_WITH_UNIT(LENGTH_MEASURE(0.01),#751,
'DISTANCE_ACCURACY_VALUE',
'Maximum model space distance between geometric entities at asserted c
onnectivities');
#749=(
GEOMETRIC_REPRESENTATION_CONTEXT(3)
GLOBAL_UNCERTAINTY_ASSIGNED_CONTEXT((#747))
GLOBAL_UNIT_ASSIGNED_CONTEXT((#751,#753,#754))
REPRESENTATION_CONTEXT('','3D')
);
#750=(
GEOMETRIC_REPRESENTATION_CONTEXT(3)
GLOBAL_UNCERTAINTY_ASSIGNED_CONTEXT((#748))
GLOBAL_UNIT_ASSIGNED_CONTEXT((#751,#753,#754))
REPRESENTATION_CONTEXT('','3D')
);
#751=(
LENGTH_UNIT()
NAMED_UNIT(*)
SI_UNIT(.MILLI.,.METRE.)
);
#752=(
LENGTH_UNIT()
NAMED_UNIT(*)
SI_UNIT($,.METRE.)
);
#753=(
NAMED_UNIT(*)
PLANE_ANGLE_UNIT()
SI_UNIT($,.RADIAN.)
);
#754=(
NAMED_UNIT(*)
SI_UNIT($,.STERADIAN.)
SOLID_ANGLE_UNIT()
);
#755=SHAPE_DEFINITION_REPRESENTATION(#756,#757);
#756=PRODUCT_DEFINITION_SHAPE('',$,#759);
#757=SHAPE_REPRESENTATION('',(#357),#749);
#758=PRODUCT_DEFINITION_CONTEXT('part definition',#763,'design');
#759=PRODUCT_DEFINITION('ConnectingBracketV1','ConnectingBracketV1 v16',
#760,#758);
#760=PRODUCT_DEFINITION_FORMATION('',$,#765);
#761=PRODUCT_RELATED_PRODUCT_CATEGORY('ConnectingBracketV1 v16',
'ConnectingBracketV1 v16',(#765));
#762=APPLICATION_PROTOCOL_DEFINITION('international standard',
'automotive_design',2009,#763);
#763=APPLICATION_CONTEXT(
'Core Data for Automotive Mechanical Design Process');
#764=PRODUCT_CONTEXT('part definition',#763,'mechanical');
#765=PRODUCT('ConnectingBracketV1','ConnectingBracketV1 v16',$,(#764));
#766=PRESENTATION_STYLE_ASSIGNMENT((#768));
#767=PRESENTATION_STYLE_ASSIGNMENT((#769));
#768=SURFACE_STYLE_USAGE(.BOTH.,#770);
#769=SURFACE_STYLE_USAGE(.BOTH.,#771);
#770=SURFACE_SIDE_STYLE('',(#772));
#771=SURFACE_SIDE_STYLE('',(#773));
#772=SURFACE_STYLE_FILL_AREA(#774);
#773=SURFACE_STYLE_FILL_AREA(#775);
#774=FILL_AREA_STYLE('Steel - Satin',(#776));
#775=FILL_AREA_STYLE('ABS (White)',(#777));
#776=FILL_AREA_STYLE_COLOUR('Steel - Satin',#778);
#777=FILL_AREA_STYLE_COLOUR('ABS (White)',#779);
#778=COLOUR_RGB('Steel - Satin',0.627450980392157,0.627450980392157,0.627450980392157);
#779=COLOUR_RGB('ABS (White)',0.964705882352941,0.964705882352941,0.952941176470588);
ENDSEC;
END-ISO-10303-21;
