ISO-10303-21;
HEADER;
/* Generated by software containing ST-Developer
 * from STEP Tools, Inc. (www.steptools.com) 
 */

FILE_DESCRIPTION(
/* description */ (''),
/* implementation_level */ '2;1');

FILE_NAME(
/* name */ 'Pot_v13.step',
/* time_stamp */ '2026-08-21T09:12:11-04:00',
/* author */ (''),
/* organization */ (''),
/* preprocessor_version */ 'ST-DEVELOPER v20.1',
/* originating_system */ 'Autodesk Translation Framework v15.8.0.0',
/* authorisation */ '');

FILE_SCHEMA (('AUTOMOTIVE_DESIGN { 1 0 10303 214 3 1 1 }'));
ENDSEC;

DATA;
#10=MECHANICAL_DESIGN_GEOMETRIC_PRESENTATION_REPRESENTATION('',(#30,#31,
#32,#33),#1736);
#11=SHAPE_REPRESENTATION_RELATIONSHIP('SRR','None',#1743,#12);
#12=ADVANCED_BREP_SHAPE_REPRESENTATION('',(#34,#35,#36,#37),#1735);
#13=(
BOUNDED_CURVE()
B_SPLINE_CURVE(5,(#1561,#1562,#1563,#1564,#1565,#1566,#1567,#1568,#1569,
#1570,#1571,#1572,#1573,#1574,#1575),.UNSPECIFIED.,.F.,.F.)
B_SPLINE_CURVE_WITH_KNOTS((6,1,1,1,1,1,1,1,1,1,6),(0.,0.1,0.2,0.3,0.4,0.5,
0.6,0.7,0.8,0.9,1.),.UNSPECIFIED.)
CURVE()
GEOMETRIC_REPRESENTATION_ITEM()
RATIONAL_B_SPLINE_CURVE((1.,1.,1.,1.,1.,1.,1.,1.,1.,1.,1.,1.,1.,1.,1.))
REPRESENTATION_ITEM('')
);
#14=(
BOUNDED_CURVE()
B_SPLINE_CURVE(5,(#1716,#1717,#1718,#1719,#1720,#1721,#1722,#1723,#1724,
#1725,#1726,#1727,#1728,#1729,#1730),.UNSPECIFIED.,.F.,.F.)
B_SPLINE_CURVE_WITH_KNOTS((6,1,1,1,1,1,1,1,1,1,6),(0.,0.1,0.2,0.3,0.4,0.5,
0.6,0.7,0.8,0.9,0.916153491235103),.UNSPECIFIED.)
CURVE()
GEOMETRIC_REPRESENTATION_ITEM()
RATIONAL_B_SPLINE_CURVE((1.,1.,1.,1.,1.,1.,1.,1.,1.,1.,1.,1.,1.,1.,1.))
REPRESENTATION_ITEM('')
);
#15=(
BOUNDED_SURFACE()
B_SPLINE_SURFACE(5,2,((#1425,#1426,#1427,#1428,#1429,#1430,#1431,#1432,
#1433),(#1434,#1435,#1436,#1437,#1438,#1439,#1440,#1441,#1442),(#1443,#1444,
#1445,#1446,#1447,#1448,#1449,#1450,#1451),(#1452,#1453,#1454,#1455,#1456,
#1457,#1458,#1459,#1460),(#1461,#1462,#1463,#1464,#1465,#1466,#1467,#1468,
#1469),(#1470,#1471,#1472,#1473,#1474,#1475,#1476,#1477,#1478),(#1479,#1480,
#1481,#1482,#1483,#1484,#1485,#1486,#1487),(#1488,#1489,#1490,#1491,#1492,
#1493,#1494,#1495,#1496),(#1497,#1498,#1499,#1500,#1501,#1502,#1503,#1504,
#1505),(#1506,#1507,#1508,#1509,#1510,#1511,#1512,#1513,#1514),(#1515,#1516,
#1517,#1518,#1519,#1520,#1521,#1522,#1523),(#1524,#1525,#1526,#1527,#1528,
#1529,#1530,#1531,#1532),(#1533,#1534,#1535,#1536,#1537,#1538,#1539,#1540,
#1541),(#1542,#1543,#1544,#1545,#1546,#1547,#1548,#1549,#1550),(#1551,#1552,
#1553,#1554,#1555,#1556,#1557,#1558,#1559)),.UNSPECIFIED.,.F.,.T.,.F.)
B_SPLINE_SURFACE_WITH_KNOTS((6,1,1,1,1,1,1,1,1,1,6),(3,2,2,2,3),(0.,0.1,
0.2,0.3,0.4,0.5,0.6,0.7,0.8,0.9,1.),(0.,1.5707963267949,3.14159265358979,
4.71238898038469,6.28318530717959),.UNSPECIFIED.)
GEOMETRIC_REPRESENTATION_ITEM()
RATIONAL_B_SPLINE_SURFACE(((1.,0.707106781186548,1.,0.707106781186548,1.,
0.707106781186548,1.,0.707106781186548,1.),(1.,0.707106781186548,1.,0.707106781186548,
1.,0.707106781186548,1.,0.707106781186548,1.),(1.,0.707106781186548,1.,
0.707106781186548,1.,0.707106781186548,1.,0.707106781186548,1.),(1.,0.707106781186548,
1.,0.707106781186548,1.,0.707106781186548,1.,0.707106781186548,1.),(1.,
0.707106781186548,1.,0.707106781186548,1.,0.707106781186548,1.,0.707106781186548,
1.),(1.,0.707106781186548,1.,0.707106781186548,1.,0.707106781186548,1.,
0.707106781186548,1.),(1.,0.707106781186548,1.,0.707106781186548,1.,0.707106781186548,
1.,0.707106781186548,1.),(1.,0.707106781186548,1.,0.707106781186548,1.,
0.707106781186548,1.,0.707106781186548,1.),(1.,0.707106781186548,1.,0.707106781186548,
1.,0.707106781186548,1.,0.707106781186548,1.),(1.,0.707106781186548,1.,
0.707106781186548,1.,0.707106781186548,1.,0.707106781186548,1.),(1.,0.707106781186548,
1.,0.707106781186548,1.,0.707106781186548,1.,0.707106781186548,1.),(1.,
0.707106781186548,1.,0.707106781186548,1.,0.707106781186548,1.,0.707106781186548,
1.),(1.,0.707106781186548,1.,0.707106781186548,1.,0.707106781186548,1.,
0.707106781186548,1.),(1.,0.707106781186548,1.,0.707106781186548,1.,0.707106781186548,
1.,0.707106781186548,1.),(1.,0.707106781186548,1.,0.707106781186548,1.,
0.707106781186548,1.,0.707106781186548,1.)))
REPRESENTATION_ITEM('')
SURFACE()
);
#16=(
BOUNDED_SURFACE()
B_SPLINE_SURFACE(5,2,((#1580,#1581,#1582,#1583,#1584,#1585,#1586,#1587,
#1588),(#1589,#1590,#1591,#1592,#1593,#1594,#1595,#1596,#1597),(#1598,#1599,
#1600,#1601,#1602,#1603,#1604,#1605,#1606),(#1607,#1608,#1609,#1610,#1611,
#1612,#1613,#1614,#1615),(#1616,#1617,#1618,#1619,#1620,#1621,#1622,#1623,
#1624),(#1625,#1626,#1627,#1628,#1629,#1630,#1631,#1632,#1633),(#1634,#1635,
#1636,#1637,#1638,#1639,#1640,#1641,#1642),(#1643,#1644,#1645,#1646,#1647,
#1648,#1649,#1650,#1651),(#1652,#1653,#1654,#1655,#1656,#1657,#1658,#1659,
#1660),(#1661,#1662,#1663,#1664,#1665,#1666,#1667,#1668,#1669),(#1670,#1671,
#1672,#1673,#1674,#1675,#1676,#1677,#1678),(#1679,#1680,#1681,#1682,#1683,
#1684,#1685,#1686,#1687),(#1688,#1689,#1690,#1691,#1692,#1693,#1694,#1695,
#1696),(#1697,#1698,#1699,#1700,#1701,#1702,#1703,#1704,#1705),(#1706,#1707,
#1708,#1709,#1710,#1711,#1712,#1713,#1714)),.UNSPECIFIED.,.F.,.T.,.F.)
B_SPLINE_SURFACE_WITH_KNOTS((6,1,1,1,1,1,1,1,1,1,6),(3,2,2,2,3),(-0.916153491235103,
-0.9,-0.8,-0.7,-0.6,-0.5,-0.4,-0.3,-0.2,-0.1,0.),(0.,1.5707963267949,3.14159265358979,
4.71238898038469,6.28318530717959),.UNSPECIFIED.)
GEOMETRIC_REPRESENTATION_ITEM()
RATIONAL_B_SPLINE_SURFACE(((1.,0.707106781186548,1.,0.707106781186548,1.,
0.707106781186548,1.,0.707106781186548,1.),(1.,0.707106781186548,1.,0.707106781186548,
1.,0.707106781186548,1.,0.707106781186548,1.),(1.,0.707106781186548,1.,
0.707106781186548,1.,0.707106781186548,1.,0.707106781186548,1.),(1.,0.707106781186548,
1.,0.707106781186548,1.,0.707106781186548,1.,0.707106781186548,1.),(1.,
0.707106781186548,1.,0.707106781186548,1.,0.707106781186548,1.,0.707106781186548,
1.),(1.,0.707106781186548,1.,0.707106781186548,1.,0.707106781186548,1.,
0.707106781186548,1.),(1.,0.707106781186548,1.,0.707106781186548,1.,0.707106781186548,
1.,0.707106781186548,1.),(1.,0.707106781186548,1.,0.707106781186548,1.,
0.707106781186548,1.,0.707106781186548,1.),(1.,0.707106781186548,1.,0.707106781186548,
1.,0.707106781186548,1.,0.707106781186548,1.),(1.,0.707106781186548,1.,
0.707106781186548,1.,0.707106781186548,1.,0.707106781186548,1.),(1.,0.707106781186548,
1.,0.707106781186548,1.,0.707106781186548,1.,0.707106781186548,1.),(1.,
0.707106781186548,1.,0.707106781186548,1.,0.707106781186548,1.,0.707106781186548,
1.),(1.,0.707106781186548,1.,0.707106781186548,1.,0.707106781186548,1.,
0.707106781186548,1.),(1.,0.707106781186548,1.,0.707106781186548,1.,0.707106781186548,
1.,0.707106781186548,1.),(1.,0.707106781186548,1.,0.707106781186548,1.,
0.707106781186548,1.,0.707106781186548,1.)))
REPRESENTATION_ITEM('')
SURFACE()
);
#17=FACE_BOUND('',#130,.T.);
#18=FACE_BOUND('',#132,.T.);
#19=FACE_BOUND('',#136,.T.);
#20=CIRCLE('',#951,77.);
#21=CIRCLE('',#952,77.);
#22=CIRCLE('',#954,80.);
#23=CIRCLE('',#955,80.);
#24=CIRCLE('',#959,63.);
#25=CIRCLE('',#960,83.);
#26=CIRCLE('',#962,80.);
#27=CIRCLE('',#963,64.5891468600263);
#28=CYLINDRICAL_SURFACE('',#950,77.);
#29=CYLINDRICAL_SURFACE('',#953,80.);
#30=STYLED_ITEM('',(#1752),#34);
#31=STYLED_ITEM('',(#1752),#35);
#32=STYLED_ITEM('',(#1752),#36);
#33=STYLED_ITEM('',(#1752),#37);
#34=MANIFOLD_SOLID_BREP('Body5',#893);
#35=MANIFOLD_SOLID_BREP('Body6',#894);
#36=MANIFOLD_SOLID_BREP('Body7',#895);
#37=MANIFOLD_SOLID_BREP('Body8',#896);
#38=FACE_OUTER_BOUND('',#87,.T.);
#39=FACE_OUTER_BOUND('',#88,.T.);
#40=FACE_OUTER_BOUND('',#89,.T.);
#41=FACE_OUTER_BOUND('',#90,.T.);
#42=FACE_OUTER_BOUND('',#91,.T.);
#43=FACE_OUTER_BOUND('',#92,.T.);
#44=FACE_OUTER_BOUND('',#93,.T.);
#45=FACE_OUTER_BOUND('',#94,.T.);
#46=FACE_OUTER_BOUND('',#95,.T.);
#47=FACE_OUTER_BOUND('',#96,.T.);
#48=FACE_OUTER_BOUND('',#97,.T.);
#49=FACE_OUTER_BOUND('',#98,.T.);
#50=FACE_OUTER_BOUND('',#99,.T.);
#51=FACE_OUTER_BOUND('',#100,.T.);
#52=FACE_OUTER_BOUND('',#101,.T.);
#53=FACE_OUTER_BOUND('',#102,.T.);
#54=FACE_OUTER_BOUND('',#103,.T.);
#55=FACE_OUTER_BOUND('',#104,.T.);
#56=FACE_OUTER_BOUND('',#105,.T.);
#57=FACE_OUTER_BOUND('',#106,.T.);
#58=FACE_OUTER_BOUND('',#107,.T.);
#59=FACE_OUTER_BOUND('',#108,.T.);
#60=FACE_OUTER_BOUND('',#109,.T.);
#61=FACE_OUTER_BOUND('',#110,.T.);
#62=FACE_OUTER_BOUND('',#111,.T.);
#63=FACE_OUTER_BOUND('',#112,.T.);
#64=FACE_OUTER_BOUND('',#113,.T.);
#65=FACE_OUTER_BOUND('',#114,.T.);
#66=FACE_OUTER_BOUND('',#115,.T.);
#67=FACE_OUTER_BOUND('',#116,.T.);
#68=FACE_OUTER_BOUND('',#117,.T.);
#69=FACE_OUTER_BOUND('',#118,.T.);
#70=FACE_OUTER_BOUND('',#119,.T.);
#71=FACE_OUTER_BOUND('',#120,.T.);
#72=FACE_OUTER_BOUND('',#121,.T.);
#73=FACE_OUTER_BOUND('',#122,.T.);
#74=FACE_OUTER_BOUND('',#123,.T.);
#75=FACE_OUTER_BOUND('',#124,.T.);
#76=FACE_OUTER_BOUND('',#125,.T.);
#77=FACE_OUTER_BOUND('',#126,.T.);
#78=FACE_OUTER_BOUND('',#127,.T.);
#79=FACE_OUTER_BOUND('',#128,.T.);
#80=FACE_OUTER_BOUND('',#129,.T.);
#81=FACE_OUTER_BOUND('',#131,.T.);
#82=FACE_OUTER_BOUND('',#133,.T.);
#83=FACE_OUTER_BOUND('',#134,.T.);
#84=FACE_OUTER_BOUND('',#135,.T.);
#85=FACE_OUTER_BOUND('',#137,.T.);
#86=FACE_OUTER_BOUND('',#138,.T.);
#87=EDGE_LOOP('',(#559,#560,#561,#562));
#88=EDGE_LOOP('',(#563,#564,#565,#566));
#89=EDGE_LOOP('',(#567,#568,#569,#570));
#90=EDGE_LOOP('',(#571,#572,#573,#574));
#91=EDGE_LOOP('',(#575,#576,#577,#578));
#92=EDGE_LOOP('',(#579,#580,#581,#582));
#93=EDGE_LOOP('',(#583,#584,#585,#586));
#94=EDGE_LOOP('',(#587,#588,#589,#590));
#95=EDGE_LOOP('',(#591,#592,#593,#594));
#96=EDGE_LOOP('',(#595,#596,#597,#598));
#97=EDGE_LOOP('',(#599,#600,#601,#602));
#98=EDGE_LOOP('',(#603,#604,#605,#606));
#99=EDGE_LOOP('',(#607,#608,#609,#610));
#100=EDGE_LOOP('',(#611,#612,#613,#614));
#101=EDGE_LOOP('',(#615,#616,#617,#618));
#102=EDGE_LOOP('',(#619,#620,#621,#622));
#103=EDGE_LOOP('',(#623,#624,#625,#626));
#104=EDGE_LOOP('',(#627,#628,#629,#630));
#105=EDGE_LOOP('',(#631,#632,#633,#634,#635,#636,#637,#638,#639,#640,#641,
#642,#643,#644,#645,#646,#647,#648));
#106=EDGE_LOOP('',(#649,#650,#651,#652,#653,#654,#655,#656,#657,#658,#659,
#660,#661,#662,#663,#664,#665,#666));
#107=EDGE_LOOP('',(#667,#668,#669,#670));
#108=EDGE_LOOP('',(#671,#672,#673,#674));
#109=EDGE_LOOP('',(#675,#676,#677,#678));
#110=EDGE_LOOP('',(#679,#680,#681,#682));
#111=EDGE_LOOP('',(#683,#684,#685,#686));
#112=EDGE_LOOP('',(#687,#688,#689,#690));
#113=EDGE_LOOP('',(#691,#692,#693,#694));
#114=EDGE_LOOP('',(#695,#696,#697,#698));
#115=EDGE_LOOP('',(#699,#700,#701,#702));
#116=EDGE_LOOP('',(#703,#704,#705,#706));
#117=EDGE_LOOP('',(#707,#708,#709,#710));
#118=EDGE_LOOP('',(#711,#712,#713,#714));
#119=EDGE_LOOP('',(#715,#716,#717,#718));
#120=EDGE_LOOP('',(#719,#720,#721,#722));
#121=EDGE_LOOP('',(#723,#724,#725,#726));
#122=EDGE_LOOP('',(#727,#728,#729,#730));
#123=EDGE_LOOP('',(#731,#732,#733,#734));
#124=EDGE_LOOP('',(#735,#736,#737,#738));
#125=EDGE_LOOP('',(#739,#740,#741,#742,#743,#744,#745,#746,#747,#748,#749,
#750,#751,#752,#753,#754,#755,#756));
#126=EDGE_LOOP('',(#757,#758,#759,#760,#761,#762,#763,#764,#765,#766,#767,
#768,#769,#770,#771,#772,#773,#774));
#127=EDGE_LOOP('',(#775,#776,#777,#778));
#128=EDGE_LOOP('',(#779,#780,#781,#782));
#129=EDGE_LOOP('',(#783));
#130=EDGE_LOOP('',(#784));
#131=EDGE_LOOP('',(#785));
#132=EDGE_LOOP('',(#786));
#133=EDGE_LOOP('',(#787));
#134=EDGE_LOOP('',(#788,#789,#790,#791));
#135=EDGE_LOOP('',(#792));
#136=EDGE_LOOP('',(#793));
#137=EDGE_LOOP('',(#794,#795,#796,#797));
#138=EDGE_LOOP('',(#798));
#139=LINE('',#1191,#249);
#140=LINE('',#1193,#250);
#141=LINE('',#1195,#251);
#142=LINE('',#1196,#252);
#143=LINE('',#1199,#253);
#144=LINE('',#1201,#254);
#145=LINE('',#1202,#255);
#146=LINE('',#1205,#256);
#147=LINE('',#1207,#257);
#148=LINE('',#1208,#258);
#149=LINE('',#1211,#259);
#150=LINE('',#1213,#260);
#151=LINE('',#1214,#261);
#152=LINE('',#1217,#262);
#153=LINE('',#1219,#263);
#154=LINE('',#1220,#264);
#155=LINE('',#1223,#265);
#156=LINE('',#1225,#266);
#157=LINE('',#1226,#267);
#158=LINE('',#1229,#268);
#159=LINE('',#1231,#269);
#160=LINE('',#1232,#270);
#161=LINE('',#1235,#271);
#162=LINE('',#1237,#272);
#163=LINE('',#1238,#273);
#164=LINE('',#1241,#274);
#165=LINE('',#1243,#275);
#166=LINE('',#1244,#276);
#167=LINE('',#1247,#277);
#168=LINE('',#1249,#278);
#169=LINE('',#1250,#279);
#170=LINE('',#1253,#280);
#171=LINE('',#1255,#281);
#172=LINE('',#1256,#282);
#173=LINE('',#1259,#283);
#174=LINE('',#1261,#284);
#175=LINE('',#1262,#285);
#176=LINE('',#1265,#286);
#177=LINE('',#1267,#287);
#178=LINE('',#1268,#288);
#179=LINE('',#1271,#289);
#180=LINE('',#1273,#290);
#181=LINE('',#1274,#291);
#182=LINE('',#1277,#292);
#183=LINE('',#1279,#293);
#184=LINE('',#1280,#294);
#185=LINE('',#1283,#295);
#186=LINE('',#1285,#296);
#187=LINE('',#1286,#297);
#188=LINE('',#1289,#298);
#189=LINE('',#1291,#299);
#190=LINE('',#1292,#300);
#191=LINE('',#1294,#301);
#192=LINE('',#1295,#302);
#193=LINE('',#1301,#303);
#194=LINE('',#1303,#304);
#195=LINE('',#1305,#305);
#196=LINE('',#1306,#306);
#197=LINE('',#1309,#307);
#198=LINE('',#1311,#308);
#199=LINE('',#1312,#309);
#200=LINE('',#1315,#310);
#201=LINE('',#1317,#311);
#202=LINE('',#1318,#312);
#203=LINE('',#1321,#313);
#204=LINE('',#1323,#314);
#205=LINE('',#1324,#315);
#206=LINE('',#1327,#316);
#207=LINE('',#1329,#317);
#208=LINE('',#1330,#318);
#209=LINE('',#1333,#319);
#210=LINE('',#1335,#320);
#211=LINE('',#1336,#321);
#212=LINE('',#1339,#322);
#213=LINE('',#1341,#323);
#214=LINE('',#1342,#324);
#215=LINE('',#1345,#325);
#216=LINE('',#1347,#326);
#217=LINE('',#1348,#327);
#218=LINE('',#1351,#328);
#219=LINE('',#1353,#329);
#220=LINE('',#1354,#330);
#221=LINE('',#1357,#331);
#222=LINE('',#1359,#332);
#223=LINE('',#1360,#333);
#224=LINE('',#1363,#334);
#225=LINE('',#1365,#335);
#226=LINE('',#1366,#336);
#227=LINE('',#1369,#337);
#228=LINE('',#1371,#338);
#229=LINE('',#1372,#339);
#230=LINE('',#1375,#340);
#231=LINE('',#1377,#341);
#232=LINE('',#1378,#342);
#233=LINE('',#1381,#343);
#234=LINE('',#1383,#344);
#235=LINE('',#1384,#345);
#236=LINE('',#1387,#346);
#237=LINE('',#1389,#347);
#238=LINE('',#1390,#348);
#239=LINE('',#1393,#349);
#240=LINE('',#1395,#350);
#241=LINE('',#1396,#351);
#242=LINE('',#1399,#352);
#243=LINE('',#1401,#353);
#244=LINE('',#1402,#354);
#245=LINE('',#1404,#355);
#246=LINE('',#1405,#356);
#247=LINE('',#1412,#357);
#248=LINE('',#1418,#358);
#249=VECTOR('',#969,10.);
#250=VECTOR('',#970,10.);
#251=VECTOR('',#971,10.);
#252=VECTOR('',#972,10.);
#253=VECTOR('',#975,10.);
#254=VECTOR('',#976,10.);
#255=VECTOR('',#977,10.);
#256=VECTOR('',#980,10.);
#257=VECTOR('',#981,10.);
#258=VECTOR('',#982,10.);
#259=VECTOR('',#985,10.);
#260=VECTOR('',#986,10.);
#261=VECTOR('',#987,10.);
#262=VECTOR('',#990,10.);
#263=VECTOR('',#991,10.);
#264=VECTOR('',#992,10.);
#265=VECTOR('',#995,10.);
#266=VECTOR('',#996,10.);
#267=VECTOR('',#997,10.);
#268=VECTOR('',#1000,10.);
#269=VECTOR('',#1001,10.);
#270=VECTOR('',#1002,10.);
#271=VECTOR('',#1005,10.);
#272=VECTOR('',#1006,10.);
#273=VECTOR('',#1007,10.);
#274=VECTOR('',#1010,10.);
#275=VECTOR('',#1011,10.);
#276=VECTOR('',#1012,10.);
#277=VECTOR('',#1015,10.);
#278=VECTOR('',#1016,10.);
#279=VECTOR('',#1017,10.);
#280=VECTOR('',#1020,10.);
#281=VECTOR('',#1021,10.);
#282=VECTOR('',#1022,10.);
#283=VECTOR('',#1025,10.);
#284=VECTOR('',#1026,10.);
#285=VECTOR('',#1027,10.);
#286=VECTOR('',#1030,10.);
#287=VECTOR('',#1031,10.);
#288=VECTOR('',#1032,10.);
#289=VECTOR('',#1035,10.);
#290=VECTOR('',#1036,10.);
#291=VECTOR('',#1037,10.);
#292=VECTOR('',#1040,10.);
#293=VECTOR('',#1041,10.);
#294=VECTOR('',#1042,10.);
#295=VECTOR('',#1045,10.);
#296=VECTOR('',#1046,10.);
#297=VECTOR('',#1047,10.);
#298=VECTOR('',#1050,10.);
#299=VECTOR('',#1051,10.);
#300=VECTOR('',#1052,10.);
#301=VECTOR('',#1055,10.);
#302=VECTOR('',#1056,10.);
#303=VECTOR('',#1063,10.);
#304=VECTOR('',#1064,10.);
#305=VECTOR('',#1065,10.);
#306=VECTOR('',#1066,10.);
#307=VECTOR('',#1069,10.);
#308=VECTOR('',#1070,10.);
#309=VECTOR('',#1071,10.);
#310=VECTOR('',#1074,10.);
#311=VECTOR('',#1075,10.);
#312=VECTOR('',#1076,10.);
#313=VECTOR('',#1079,10.);
#314=VECTOR('',#1080,10.);
#315=VECTOR('',#1081,10.);
#316=VECTOR('',#1084,10.);
#317=VECTOR('',#1085,10.);
#318=VECTOR('',#1086,10.);
#319=VECTOR('',#1089,10.);
#320=VECTOR('',#1090,10.);
#321=VECTOR('',#1091,10.);
#322=VECTOR('',#1094,10.);
#323=VECTOR('',#1095,10.);
#324=VECTOR('',#1096,10.);
#325=VECTOR('',#1099,10.);
#326=VECTOR('',#1100,10.);
#327=VECTOR('',#1101,10.);
#328=VECTOR('',#1104,10.);
#329=VECTOR('',#1105,10.);
#330=VECTOR('',#1106,10.);
#331=VECTOR('',#1109,10.);
#332=VECTOR('',#1110,10.);
#333=VECTOR('',#1111,10.);
#334=VECTOR('',#1114,10.);
#335=VECTOR('',#1115,10.);
#336=VECTOR('',#1116,10.);
#337=VECTOR('',#1119,10.);
#338=VECTOR('',#1120,10.);
#339=VECTOR('',#1121,10.);
#340=VECTOR('',#1124,10.);
#341=VECTOR('',#1125,10.);
#342=VECTOR('',#1126,10.);
#343=VECTOR('',#1129,10.);
#344=VECTOR('',#1130,10.);
#345=VECTOR('',#1131,10.);
#346=VECTOR('',#1134,10.);
#347=VECTOR('',#1135,10.);
#348=VECTOR('',#1136,10.);
#349=VECTOR('',#1139,10.);
#350=VECTOR('',#1140,10.);
#351=VECTOR('',#1141,10.);
#352=VECTOR('',#1144,10.);
#353=VECTOR('',#1145,10.);
#354=VECTOR('',#1146,10.);
#355=VECTOR('',#1149,10.);
#356=VECTOR('',#1150,10.);
#357=VECTOR('',#1159,77.);
#358=VECTOR('',#1166,80.);
#359=VERTEX_POINT('',#1189);
#360=VERTEX_POINT('',#1190);
#361=VERTEX_POINT('',#1192);
#362=VERTEX_POINT('',#1194);
#363=VERTEX_POINT('',#1198);
#364=VERTEX_POINT('',#1200);
#365=VERTEX_POINT('',#1204);
#366=VERTEX_POINT('',#1206);
#367=VERTEX_POINT('',#1210);
#368=VERTEX_POINT('',#1212);
#369=VERTEX_POINT('',#1216);
#370=VERTEX_POINT('',#1218);
#371=VERTEX_POINT('',#1222);
#372=VERTEX_POINT('',#1224);
#373=VERTEX_POINT('',#1228);
#374=VERTEX_POINT('',#1230);
#375=VERTEX_POINT('',#1234);
#376=VERTEX_POINT('',#1236);
#377=VERTEX_POINT('',#1240);
#378=VERTEX_POINT('',#1242);
#379=VERTEX_POINT('',#1246);
#380=VERTEX_POINT('',#1248);
#381=VERTEX_POINT('',#1252);
#382=VERTEX_POINT('',#1254);
#383=VERTEX_POINT('',#1258);
#384=VERTEX_POINT('',#1260);
#385=VERTEX_POINT('',#1264);
#386=VERTEX_POINT('',#1266);
#387=VERTEX_POINT('',#1270);
#388=VERTEX_POINT('',#1272);
#389=VERTEX_POINT('',#1276);
#390=VERTEX_POINT('',#1278);
#391=VERTEX_POINT('',#1282);
#392=VERTEX_POINT('',#1284);
#393=VERTEX_POINT('',#1288);
#394=VERTEX_POINT('',#1290);
#395=VERTEX_POINT('',#1299);
#396=VERTEX_POINT('',#1300);
#397=VERTEX_POINT('',#1302);
#398=VERTEX_POINT('',#1304);
#399=VERTEX_POINT('',#1308);
#400=VERTEX_POINT('',#1310);
#401=VERTEX_POINT('',#1314);
#402=VERTEX_POINT('',#1316);
#403=VERTEX_POINT('',#1320);
#404=VERTEX_POINT('',#1322);
#405=VERTEX_POINT('',#1326);
#406=VERTEX_POINT('',#1328);
#407=VERTEX_POINT('',#1332);
#408=VERTEX_POINT('',#1334);
#409=VERTEX_POINT('',#1338);
#410=VERTEX_POINT('',#1340);
#411=VERTEX_POINT('',#1344);
#412=VERTEX_POINT('',#1346);
#413=VERTEX_POINT('',#1350);
#414=VERTEX_POINT('',#1352);
#415=VERTEX_POINT('',#1356);
#416=VERTEX_POINT('',#1358);
#417=VERTEX_POINT('',#1362);
#418=VERTEX_POINT('',#1364);
#419=VERTEX_POINT('',#1368);
#420=VERTEX_POINT('',#1370);
#421=VERTEX_POINT('',#1374);
#422=VERTEX_POINT('',#1376);
#423=VERTEX_POINT('',#1380);
#424=VERTEX_POINT('',#1382);
#425=VERTEX_POINT('',#1386);
#426=VERTEX_POINT('',#1388);
#427=VERTEX_POINT('',#1392);
#428=VERTEX_POINT('',#1394);
#429=VERTEX_POINT('',#1398);
#430=VERTEX_POINT('',#1400);
#431=VERTEX_POINT('',#1409);
#432=VERTEX_POINT('',#1411);
#433=VERTEX_POINT('',#1415);
#434=VERTEX_POINT('',#1417);
#435=VERTEX_POINT('',#1423);
#436=VERTEX_POINT('',#1560);
#437=VERTEX_POINT('',#1578);
#438=VERTEX_POINT('',#1715);
#439=EDGE_CURVE('',#359,#360,#139,.T.);
#440=EDGE_CURVE('',#359,#361,#140,.T.);
#441=EDGE_CURVE('',#362,#361,#141,.T.);
#442=EDGE_CURVE('',#360,#362,#142,.T.);
#443=EDGE_CURVE('',#360,#363,#143,.T.);
#444=EDGE_CURVE('',#364,#362,#144,.T.);
#445=EDGE_CURVE('',#363,#364,#145,.T.);
#446=EDGE_CURVE('',#363,#365,#146,.T.);
#447=EDGE_CURVE('',#366,#364,#147,.T.);
#448=EDGE_CURVE('',#365,#366,#148,.T.);
#449=EDGE_CURVE('',#365,#367,#149,.T.);
#450=EDGE_CURVE('',#368,#366,#150,.T.);
#451=EDGE_CURVE('',#367,#368,#151,.T.);
#452=EDGE_CURVE('',#367,#369,#152,.T.);
#453=EDGE_CURVE('',#370,#368,#153,.T.);
#454=EDGE_CURVE('',#369,#370,#154,.T.);
#455=EDGE_CURVE('',#369,#371,#155,.T.);
#456=EDGE_CURVE('',#372,#370,#156,.T.);
#457=EDGE_CURVE('',#371,#372,#157,.T.);
#458=EDGE_CURVE('',#371,#373,#158,.T.);
#459=EDGE_CURVE('',#374,#372,#159,.T.);
#460=EDGE_CURVE('',#373,#374,#160,.T.);
#461=EDGE_CURVE('',#375,#373,#161,.T.);
#462=EDGE_CURVE('',#376,#374,#162,.T.);
#463=EDGE_CURVE('',#375,#376,#163,.T.);
#464=EDGE_CURVE('',#377,#375,#164,.T.);
#465=EDGE_CURVE('',#378,#376,#165,.T.);
#466=EDGE_CURVE('',#377,#378,#166,.T.);
#467=EDGE_CURVE('',#379,#377,#167,.T.);
#468=EDGE_CURVE('',#380,#378,#168,.T.);
#469=EDGE_CURVE('',#379,#380,#169,.T.);
#470=EDGE_CURVE('',#381,#379,#170,.T.);
#471=EDGE_CURVE('',#382,#380,#171,.T.);
#472=EDGE_CURVE('',#381,#382,#172,.T.);
#473=EDGE_CURVE('',#383,#381,#173,.T.);
#474=EDGE_CURVE('',#384,#382,#174,.T.);
#475=EDGE_CURVE('',#383,#384,#175,.T.);
#476=EDGE_CURVE('',#385,#383,#176,.T.);
#477=EDGE_CURVE('',#386,#384,#177,.T.);
#478=EDGE_CURVE('',#385,#386,#178,.T.);
#479=EDGE_CURVE('',#387,#385,#179,.T.);
#480=EDGE_CURVE('',#388,#386,#180,.T.);
#481=EDGE_CURVE('',#387,#388,#181,.T.);
#482=EDGE_CURVE('',#389,#387,#182,.T.);
#483=EDGE_CURVE('',#390,#388,#183,.T.);
#484=EDGE_CURVE('',#389,#390,#184,.T.);
#485=EDGE_CURVE('',#391,#389,#185,.T.);
#486=EDGE_CURVE('',#392,#390,#186,.T.);
#487=EDGE_CURVE('',#391,#392,#187,.T.);
#488=EDGE_CURVE('',#393,#391,#188,.T.);
#489=EDGE_CURVE('',#394,#392,#189,.T.);
#490=EDGE_CURVE('',#393,#394,#190,.T.);
#491=EDGE_CURVE('',#359,#393,#191,.T.);
#492=EDGE_CURVE('',#361,#394,#192,.T.);
#493=EDGE_CURVE('',#395,#396,#193,.T.);
#494=EDGE_CURVE('',#395,#397,#194,.T.);
#495=EDGE_CURVE('',#398,#397,#195,.T.);
#496=EDGE_CURVE('',#396,#398,#196,.T.);
#497=EDGE_CURVE('',#396,#399,#197,.T.);
#498=EDGE_CURVE('',#400,#398,#198,.T.);
#499=EDGE_CURVE('',#399,#400,#199,.T.);
#500=EDGE_CURVE('',#399,#401,#200,.T.);
#501=EDGE_CURVE('',#402,#400,#201,.T.);
#502=EDGE_CURVE('',#401,#402,#202,.T.);
#503=EDGE_CURVE('',#401,#403,#203,.T.);
#504=EDGE_CURVE('',#404,#402,#204,.T.);
#505=EDGE_CURVE('',#403,#404,#205,.T.);
#506=EDGE_CURVE('',#403,#405,#206,.T.);
#507=EDGE_CURVE('',#406,#404,#207,.T.);
#508=EDGE_CURVE('',#405,#406,#208,.T.);
#509=EDGE_CURVE('',#405,#407,#209,.T.);
#510=EDGE_CURVE('',#408,#406,#210,.T.);
#511=EDGE_CURVE('',#407,#408,#211,.T.);
#512=EDGE_CURVE('',#407,#409,#212,.T.);
#513=EDGE_CURVE('',#410,#408,#213,.T.);
#514=EDGE_CURVE('',#409,#410,#214,.T.);
#515=EDGE_CURVE('',#409,#411,#215,.T.);
#516=EDGE_CURVE('',#412,#410,#216,.T.);
#517=EDGE_CURVE('',#411,#412,#217,.T.);
#518=EDGE_CURVE('',#411,#413,#218,.T.);
#519=EDGE_CURVE('',#414,#412,#219,.T.);
#520=EDGE_CURVE('',#413,#414,#220,.T.);
#521=EDGE_CURVE('',#413,#415,#221,.T.);
#522=EDGE_CURVE('',#416,#414,#222,.T.);
#523=EDGE_CURVE('',#415,#416,#223,.T.);
#524=EDGE_CURVE('',#415,#417,#224,.T.);
#525=EDGE_CURVE('',#418,#416,#225,.T.);
#526=EDGE_CURVE('',#417,#418,#226,.T.);
#527=EDGE_CURVE('',#419,#417,#227,.T.);
#528=EDGE_CURVE('',#420,#418,#228,.T.);
#529=EDGE_CURVE('',#419,#420,#229,.T.);
#530=EDGE_CURVE('',#421,#419,#230,.T.);
#531=EDGE_CURVE('',#422,#420,#231,.T.);
#532=EDGE_CURVE('',#421,#422,#232,.T.);
#533=EDGE_CURVE('',#423,#421,#233,.T.);
#534=EDGE_CURVE('',#424,#422,#234,.T.);
#535=EDGE_CURVE('',#423,#424,#235,.T.);
#536=EDGE_CURVE('',#423,#425,#236,.T.);
#537=EDGE_CURVE('',#426,#424,#237,.T.);
#538=EDGE_CURVE('',#425,#426,#238,.T.);
#539=EDGE_CURVE('',#427,#425,#239,.T.);
#540=EDGE_CURVE('',#428,#426,#240,.T.);
#541=EDGE_CURVE('',#427,#428,#241,.T.);
#542=EDGE_CURVE('',#429,#427,#242,.T.);
#543=EDGE_CURVE('',#430,#428,#243,.T.);
#544=EDGE_CURVE('',#429,#430,#244,.T.);
#545=EDGE_CURVE('',#395,#429,#245,.T.);
#546=EDGE_CURVE('',#397,#430,#246,.T.);
#547=EDGE_CURVE('',#431,#431,#20,.T.);
#548=EDGE_CURVE('',#431,#432,#247,.T.);
#549=EDGE_CURVE('',#432,#432,#21,.T.);
#550=EDGE_CURVE('',#433,#433,#22,.T.);
#551=EDGE_CURVE('',#433,#434,#248,.T.);
#552=EDGE_CURVE('',#434,#434,#23,.T.);
#553=EDGE_CURVE('',#435,#435,#24,.T.);
#554=EDGE_CURVE('',#436,#435,#13,.T.);
#555=EDGE_CURVE('',#436,#436,#25,.T.);
#556=EDGE_CURVE('',#437,#437,#26,.T.);
#557=EDGE_CURVE('',#437,#438,#14,.T.);
#558=EDGE_CURVE('',#438,#438,#27,.T.);
#559=ORIENTED_EDGE('',*,*,#439,.F.);
#560=ORIENTED_EDGE('',*,*,#440,.T.);
#561=ORIENTED_EDGE('',*,*,#441,.F.);
#562=ORIENTED_EDGE('',*,*,#442,.F.);
#563=ORIENTED_EDGE('',*,*,#443,.F.);
#564=ORIENTED_EDGE('',*,*,#442,.T.);
#565=ORIENTED_EDGE('',*,*,#444,.F.);
#566=ORIENTED_EDGE('',*,*,#445,.F.);
#567=ORIENTED_EDGE('',*,*,#446,.F.);
#568=ORIENTED_EDGE('',*,*,#445,.T.);
#569=ORIENTED_EDGE('',*,*,#447,.F.);
#570=ORIENTED_EDGE('',*,*,#448,.F.);
#571=ORIENTED_EDGE('',*,*,#449,.F.);
#572=ORIENTED_EDGE('',*,*,#448,.T.);
#573=ORIENTED_EDGE('',*,*,#450,.F.);
#574=ORIENTED_EDGE('',*,*,#451,.F.);
#575=ORIENTED_EDGE('',*,*,#452,.F.);
#576=ORIENTED_EDGE('',*,*,#451,.T.);
#577=ORIENTED_EDGE('',*,*,#453,.F.);
#578=ORIENTED_EDGE('',*,*,#454,.F.);
#579=ORIENTED_EDGE('',*,*,#455,.F.);
#580=ORIENTED_EDGE('',*,*,#454,.T.);
#581=ORIENTED_EDGE('',*,*,#456,.F.);
#582=ORIENTED_EDGE('',*,*,#457,.F.);
#583=ORIENTED_EDGE('',*,*,#458,.F.);
#584=ORIENTED_EDGE('',*,*,#457,.T.);
#585=ORIENTED_EDGE('',*,*,#459,.F.);
#586=ORIENTED_EDGE('',*,*,#460,.F.);
#587=ORIENTED_EDGE('',*,*,#461,.T.);
#588=ORIENTED_EDGE('',*,*,#460,.T.);
#589=ORIENTED_EDGE('',*,*,#462,.F.);
#590=ORIENTED_EDGE('',*,*,#463,.F.);
#591=ORIENTED_EDGE('',*,*,#464,.T.);
#592=ORIENTED_EDGE('',*,*,#463,.T.);
#593=ORIENTED_EDGE('',*,*,#465,.F.);
#594=ORIENTED_EDGE('',*,*,#466,.F.);
#595=ORIENTED_EDGE('',*,*,#467,.T.);
#596=ORIENTED_EDGE('',*,*,#466,.T.);
#597=ORIENTED_EDGE('',*,*,#468,.F.);
#598=ORIENTED_EDGE('',*,*,#469,.F.);
#599=ORIENTED_EDGE('',*,*,#470,.T.);
#600=ORIENTED_EDGE('',*,*,#469,.T.);
#601=ORIENTED_EDGE('',*,*,#471,.F.);
#602=ORIENTED_EDGE('',*,*,#472,.F.);
#603=ORIENTED_EDGE('',*,*,#473,.T.);
#604=ORIENTED_EDGE('',*,*,#472,.T.);
#605=ORIENTED_EDGE('',*,*,#474,.F.);
#606=ORIENTED_EDGE('',*,*,#475,.F.);
#607=ORIENTED_EDGE('',*,*,#476,.T.);
#608=ORIENTED_EDGE('',*,*,#475,.T.);
#609=ORIENTED_EDGE('',*,*,#477,.F.);
#610=ORIENTED_EDGE('',*,*,#478,.F.);
#611=ORIENTED_EDGE('',*,*,#479,.T.);
#612=ORIENTED_EDGE('',*,*,#478,.T.);
#613=ORIENTED_EDGE('',*,*,#480,.F.);
#614=ORIENTED_EDGE('',*,*,#481,.F.);
#615=ORIENTED_EDGE('',*,*,#482,.T.);
#616=ORIENTED_EDGE('',*,*,#481,.T.);
#617=ORIENTED_EDGE('',*,*,#483,.F.);
#618=ORIENTED_EDGE('',*,*,#484,.F.);
#619=ORIENTED_EDGE('',*,*,#485,.T.);
#620=ORIENTED_EDGE('',*,*,#484,.T.);
#621=ORIENTED_EDGE('',*,*,#486,.F.);
#622=ORIENTED_EDGE('',*,*,#487,.F.);
#623=ORIENTED_EDGE('',*,*,#488,.T.);
#624=ORIENTED_EDGE('',*,*,#487,.T.);
#625=ORIENTED_EDGE('',*,*,#489,.F.);
#626=ORIENTED_EDGE('',*,*,#490,.F.);
#627=ORIENTED_EDGE('',*,*,#491,.T.);
#628=ORIENTED_EDGE('',*,*,#490,.T.);
#629=ORIENTED_EDGE('',*,*,#492,.F.);
#630=ORIENTED_EDGE('',*,*,#440,.F.);
#631=ORIENTED_EDGE('',*,*,#492,.T.);
#632=ORIENTED_EDGE('',*,*,#489,.T.);
#633=ORIENTED_EDGE('',*,*,#486,.T.);
#634=ORIENTED_EDGE('',*,*,#483,.T.);
#635=ORIENTED_EDGE('',*,*,#480,.T.);
#636=ORIENTED_EDGE('',*,*,#477,.T.);
#637=ORIENTED_EDGE('',*,*,#474,.T.);
#638=ORIENTED_EDGE('',*,*,#471,.T.);
#639=ORIENTED_EDGE('',*,*,#468,.T.);
#640=ORIENTED_EDGE('',*,*,#465,.T.);
#641=ORIENTED_EDGE('',*,*,#462,.T.);
#642=ORIENTED_EDGE('',*,*,#459,.T.);
#643=ORIENTED_EDGE('',*,*,#456,.T.);
#644=ORIENTED_EDGE('',*,*,#453,.T.);
#645=ORIENTED_EDGE('',*,*,#450,.T.);
#646=ORIENTED_EDGE('',*,*,#447,.T.);
#647=ORIENTED_EDGE('',*,*,#444,.T.);
#648=ORIENTED_EDGE('',*,*,#441,.T.);
#649=ORIENTED_EDGE('',*,*,#491,.F.);
#650=ORIENTED_EDGE('',*,*,#439,.T.);
#651=ORIENTED_EDGE('',*,*,#443,.T.);
#652=ORIENTED_EDGE('',*,*,#446,.T.);
#653=ORIENTED_EDGE('',*,*,#449,.T.);
#654=ORIENTED_EDGE('',*,*,#452,.T.);
#655=ORIENTED_EDGE('',*,*,#455,.T.);
#656=ORIENTED_EDGE('',*,*,#458,.T.);
#657=ORIENTED_EDGE('',*,*,#461,.F.);
#658=ORIENTED_EDGE('',*,*,#464,.F.);
#659=ORIENTED_EDGE('',*,*,#467,.F.);
#660=ORIENTED_EDGE('',*,*,#470,.F.);
#661=ORIENTED_EDGE('',*,*,#473,.F.);
#662=ORIENTED_EDGE('',*,*,#476,.F.);
#663=ORIENTED_EDGE('',*,*,#479,.F.);
#664=ORIENTED_EDGE('',*,*,#482,.F.);
#665=ORIENTED_EDGE('',*,*,#485,.F.);
#666=ORIENTED_EDGE('',*,*,#488,.F.);
#667=ORIENTED_EDGE('',*,*,#493,.F.);
#668=ORIENTED_EDGE('',*,*,#494,.T.);
#669=ORIENTED_EDGE('',*,*,#495,.F.);
#670=ORIENTED_EDGE('',*,*,#496,.F.);
#671=ORIENTED_EDGE('',*,*,#497,.F.);
#672=ORIENTED_EDGE('',*,*,#496,.T.);
#673=ORIENTED_EDGE('',*,*,#498,.F.);
#674=ORIENTED_EDGE('',*,*,#499,.F.);
#675=ORIENTED_EDGE('',*,*,#500,.F.);
#676=ORIENTED_EDGE('',*,*,#499,.T.);
#677=ORIENTED_EDGE('',*,*,#501,.F.);
#678=ORIENTED_EDGE('',*,*,#502,.F.);
#679=ORIENTED_EDGE('',*,*,#503,.F.);
#680=ORIENTED_EDGE('',*,*,#502,.T.);
#681=ORIENTED_EDGE('',*,*,#504,.F.);
#682=ORIENTED_EDGE('',*,*,#505,.F.);
#683=ORIENTED_EDGE('',*,*,#506,.F.);
#684=ORIENTED_EDGE('',*,*,#505,.T.);
#685=ORIENTED_EDGE('',*,*,#507,.F.);
#686=ORIENTED_EDGE('',*,*,#508,.F.);
#687=ORIENTED_EDGE('',*,*,#509,.F.);
#688=ORIENTED_EDGE('',*,*,#508,.T.);
#689=ORIENTED_EDGE('',*,*,#510,.F.);
#690=ORIENTED_EDGE('',*,*,#511,.F.);
#691=ORIENTED_EDGE('',*,*,#512,.F.);
#692=ORIENTED_EDGE('',*,*,#511,.T.);
#693=ORIENTED_EDGE('',*,*,#513,.F.);
#694=ORIENTED_EDGE('',*,*,#514,.F.);
#695=ORIENTED_EDGE('',*,*,#515,.F.);
#696=ORIENTED_EDGE('',*,*,#514,.T.);
#697=ORIENTED_EDGE('',*,*,#516,.F.);
#698=ORIENTED_EDGE('',*,*,#517,.F.);
#699=ORIENTED_EDGE('',*,*,#518,.F.);
#700=ORIENTED_EDGE('',*,*,#517,.T.);
#701=ORIENTED_EDGE('',*,*,#519,.F.);
#702=ORIENTED_EDGE('',*,*,#520,.F.);
#703=ORIENTED_EDGE('',*,*,#521,.F.);
#704=ORIENTED_EDGE('',*,*,#520,.T.);
#705=ORIENTED_EDGE('',*,*,#522,.F.);
#706=ORIENTED_EDGE('',*,*,#523,.F.);
#707=ORIENTED_EDGE('',*,*,#524,.F.);
#708=ORIENTED_EDGE('',*,*,#523,.T.);
#709=ORIENTED_EDGE('',*,*,#525,.F.);
#710=ORIENTED_EDGE('',*,*,#526,.F.);
#711=ORIENTED_EDGE('',*,*,#527,.T.);
#712=ORIENTED_EDGE('',*,*,#526,.T.);
#713=ORIENTED_EDGE('',*,*,#528,.F.);
#714=ORIENTED_EDGE('',*,*,#529,.F.);
#715=ORIENTED_EDGE('',*,*,#530,.T.);
#716=ORIENTED_EDGE('',*,*,#529,.T.);
#717=ORIENTED_EDGE('',*,*,#531,.F.);
#718=ORIENTED_EDGE('',*,*,#532,.F.);
#719=ORIENTED_EDGE('',*,*,#533,.T.);
#720=ORIENTED_EDGE('',*,*,#532,.T.);
#721=ORIENTED_EDGE('',*,*,#534,.F.);
#722=ORIENTED_EDGE('',*,*,#535,.F.);
#723=ORIENTED_EDGE('',*,*,#536,.F.);
#724=ORIENTED_EDGE('',*,*,#535,.T.);
#725=ORIENTED_EDGE('',*,*,#537,.F.);
#726=ORIENTED_EDGE('',*,*,#538,.F.);
#727=ORIENTED_EDGE('',*,*,#539,.T.);
#728=ORIENTED_EDGE('',*,*,#538,.T.);
#729=ORIENTED_EDGE('',*,*,#540,.F.);
#730=ORIENTED_EDGE('',*,*,#541,.F.);
#731=ORIENTED_EDGE('',*,*,#542,.T.);
#732=ORIENTED_EDGE('',*,*,#541,.T.);
#733=ORIENTED_EDGE('',*,*,#543,.F.);
#734=ORIENTED_EDGE('',*,*,#544,.F.);
#735=ORIENTED_EDGE('',*,*,#545,.T.);
#736=ORIENTED_EDGE('',*,*,#544,.T.);
#737=ORIENTED_EDGE('',*,*,#546,.F.);
#738=ORIENTED_EDGE('',*,*,#494,.F.);
#739=ORIENTED_EDGE('',*,*,#546,.T.);
#740=ORIENTED_EDGE('',*,*,#543,.T.);
#741=ORIENTED_EDGE('',*,*,#540,.T.);
#742=ORIENTED_EDGE('',*,*,#537,.T.);
#743=ORIENTED_EDGE('',*,*,#534,.T.);
#744=ORIENTED_EDGE('',*,*,#531,.T.);
#745=ORIENTED_EDGE('',*,*,#528,.T.);
#746=ORIENTED_EDGE('',*,*,#525,.T.);
#747=ORIENTED_EDGE('',*,*,#522,.T.);
#748=ORIENTED_EDGE('',*,*,#519,.T.);
#749=ORIENTED_EDGE('',*,*,#516,.T.);
#750=ORIENTED_EDGE('',*,*,#513,.T.);
#751=ORIENTED_EDGE('',*,*,#510,.T.);
#752=ORIENTED_EDGE('',*,*,#507,.T.);
#753=ORIENTED_EDGE('',*,*,#504,.T.);
#754=ORIENTED_EDGE('',*,*,#501,.T.);
#755=ORIENTED_EDGE('',*,*,#498,.T.);
#756=ORIENTED_EDGE('',*,*,#495,.T.);
#757=ORIENTED_EDGE('',*,*,#545,.F.);
#758=ORIENTED_EDGE('',*,*,#493,.T.);
#759=ORIENTED_EDGE('',*,*,#497,.T.);
#760=ORIENTED_EDGE('',*,*,#500,.T.);
#761=ORIENTED_EDGE('',*,*,#503,.T.);
#762=ORIENTED_EDGE('',*,*,#506,.T.);
#763=ORIENTED_EDGE('',*,*,#509,.T.);
#764=ORIENTED_EDGE('',*,*,#512,.T.);
#765=ORIENTED_EDGE('',*,*,#515,.T.);
#766=ORIENTED_EDGE('',*,*,#518,.T.);
#767=ORIENTED_EDGE('',*,*,#521,.T.);
#768=ORIENTED_EDGE('',*,*,#524,.T.);
#769=ORIENTED_EDGE('',*,*,#527,.F.);
#770=ORIENTED_EDGE('',*,*,#530,.F.);
#771=ORIENTED_EDGE('',*,*,#533,.F.);
#772=ORIENTED_EDGE('',*,*,#536,.T.);
#773=ORIENTED_EDGE('',*,*,#539,.F.);
#774=ORIENTED_EDGE('',*,*,#542,.F.);
#775=ORIENTED_EDGE('',*,*,#547,.F.);
#776=ORIENTED_EDGE('',*,*,#548,.T.);
#777=ORIENTED_EDGE('',*,*,#549,.T.);
#778=ORIENTED_EDGE('',*,*,#548,.F.);
#779=ORIENTED_EDGE('',*,*,#550,.F.);
#780=ORIENTED_EDGE('',*,*,#551,.T.);
#781=ORIENTED_EDGE('',*,*,#552,.T.);
#782=ORIENTED_EDGE('',*,*,#551,.F.);
#783=ORIENTED_EDGE('',*,*,#550,.T.);
#784=ORIENTED_EDGE('',*,*,#547,.T.);
#785=ORIENTED_EDGE('',*,*,#552,.F.);
#786=ORIENTED_EDGE('',*,*,#549,.F.);
#787=ORIENTED_EDGE('',*,*,#553,.F.);
#788=ORIENTED_EDGE('',*,*,#554,.T.);
#789=ORIENTED_EDGE('',*,*,#553,.T.);
#790=ORIENTED_EDGE('',*,*,#554,.F.);
#791=ORIENTED_EDGE('',*,*,#555,.F.);
#792=ORIENTED_EDGE('',*,*,#555,.T.);
#793=ORIENTED_EDGE('',*,*,#556,.F.);
#794=ORIENTED_EDGE('',*,*,#557,.F.);
#795=ORIENTED_EDGE('',*,*,#556,.T.);
#796=ORIENTED_EDGE('',*,*,#557,.T.);
#797=ORIENTED_EDGE('',*,*,#558,.F.);
#798=ORIENTED_EDGE('',*,*,#558,.T.);
#799=PLANE('',#910);
#800=PLANE('',#911);
#801=PLANE('',#912);
#802=PLANE('',#913);
#803=PLANE('',#914);
#804=PLANE('',#915);
#805=PLANE('',#916);
#806=PLANE('',#917);
#807=PLANE('',#918);
#808=PLANE('',#919);
#809=PLANE('',#920);
#810=PLANE('',#921);
#811=PLANE('',#922);
#812=PLANE('',#923);
#813=PLANE('',#924);
#814=PLANE('',#925);
#815=PLANE('',#926);
#816=PLANE('',#927);
#817=PLANE('',#928);
#818=PLANE('',#929);
#819=PLANE('',#930);
#820=PLANE('',#931);
#821=PLANE('',#932);
#822=PLANE('',#933);
#823=PLANE('',#934);
#824=PLANE('',#935);
#825=PLANE('',#936);
#826=PLANE('',#937);
#827=PLANE('',#938);
#828=PLANE('',#939);
#829=PLANE('',#940);
#830=PLANE('',#941);
#831=PLANE('',#942);
#832=PLANE('',#943);
#833=PLANE('',#944);
#834=PLANE('',#945);
#835=PLANE('',#946);
#836=PLANE('',#947);
#837=PLANE('',#948);
#838=PLANE('',#949);
#839=PLANE('',#956);
#840=PLANE('',#957);
#841=PLANE('',#958);
#842=PLANE('',#961);
#843=PLANE('',#964);
#844=ADVANCED_FACE('',(#38),#799,.T.);
#845=ADVANCED_FACE('',(#39),#800,.T.);
#846=ADVANCED_FACE('',(#40),#801,.T.);
#847=ADVANCED_FACE('',(#41),#802,.T.);
#848=ADVANCED_FACE('',(#42),#803,.T.);
#849=ADVANCED_FACE('',(#43),#804,.T.);
#850=ADVANCED_FACE('',(#44),#805,.T.);
#851=ADVANCED_FACE('',(#45),#806,.T.);
#852=ADVANCED_FACE('',(#46),#807,.T.);
#853=ADVANCED_FACE('',(#47),#808,.T.);
#854=ADVANCED_FACE('',(#48),#809,.T.);
#855=ADVANCED_FACE('',(#49),#810,.T.);
#856=ADVANCED_FACE('',(#50),#811,.T.);
#857=ADVANCED_FACE('',(#51),#812,.T.);
#858=ADVANCED_FACE('',(#52),#813,.T.);
#859=ADVANCED_FACE('',(#53),#814,.T.);
#860=ADVANCED_FACE('',(#54),#815,.T.);
#861=ADVANCED_FACE('',(#55),#816,.T.);
#862=ADVANCED_FACE('',(#56),#817,.T.);
#863=ADVANCED_FACE('',(#57),#818,.F.);
#864=ADVANCED_FACE('',(#58),#819,.T.);
#865=ADVANCED_FACE('',(#59),#820,.T.);
#866=ADVANCED_FACE('',(#60),#821,.T.);
#867=ADVANCED_FACE('',(#61),#822,.T.);
#868=ADVANCED_FACE('',(#62),#823,.T.);
#869=ADVANCED_FACE('',(#63),#824,.T.);
#870=ADVANCED_FACE('',(#64),#825,.T.);
#871=ADVANCED_FACE('',(#65),#826,.T.);
#872=ADVANCED_FACE('',(#66),#827,.T.);
#873=ADVANCED_FACE('',(#67),#828,.T.);
#874=ADVANCED_FACE('',(#68),#829,.T.);
#875=ADVANCED_FACE('',(#69),#830,.T.);
#876=ADVANCED_FACE('',(#70),#831,.T.);
#877=ADVANCED_FACE('',(#71),#832,.T.);
#878=ADVANCED_FACE('',(#72),#833,.T.);
#879=ADVANCED_FACE('',(#73),#834,.T.);
#880=ADVANCED_FACE('',(#74),#835,.T.);
#881=ADVANCED_FACE('',(#75),#836,.T.);
#882=ADVANCED_FACE('',(#76),#837,.T.);
#883=ADVANCED_FACE('',(#77),#838,.F.);
#884=ADVANCED_FACE('',(#78),#28,.F.);
#885=ADVANCED_FACE('',(#79),#29,.T.);
#886=ADVANCED_FACE('',(#80,#17),#839,.T.);
#887=ADVANCED_FACE('',(#81,#18),#840,.F.);
#888=ADVANCED_FACE('',(#82),#841,.T.);
#889=ADVANCED_FACE('',(#83),#15,.T.);
#890=ADVANCED_FACE('',(#84,#19),#842,.T.);
#891=ADVANCED_FACE('',(#85),#16,.T.);
#892=ADVANCED_FACE('',(#86),#843,.T.);
#893=CLOSED_SHELL('',(#844,#845,#846,#847,#848,#849,#850,#851,#852,#853,
#854,#855,#856,#857,#858,#859,#860,#861,#862,#863));
#894=CLOSED_SHELL('',(#864,#865,#866,#867,#868,#869,#870,#871,#872,#873,
#874,#875,#876,#877,#878,#879,#880,#881,#882,#883));
#895=CLOSED_SHELL('',(#884,#885,#886,#887));
#896=CLOSED_SHELL('',(#888,#889,#890,#891,#892));
#897=DERIVED_UNIT_ELEMENT(#899,1.);
#898=DERIVED_UNIT_ELEMENT(#1738,-3.);
#899=(
MASS_UNIT()
NAMED_UNIT(*)
SI_UNIT(.KILO.,.GRAM.)
);
#900=DERIVED_UNIT((#897,#898));
#901=MEASURE_REPRESENTATION_ITEM('density measure',
POSITIVE_RATIO_MEASURE(7850.),#900);
#902=PROPERTY_DEFINITION_REPRESENTATION(#907,#904);
#903=PROPERTY_DEFINITION_REPRESENTATION(#908,#905);
#904=REPRESENTATION('material name',(#906),#1735);
#905=REPRESENTATION('density',(#901),#1735);
#906=DESCRIPTIVE_REPRESENTATION_ITEM('Steel','Steel');
#907=PROPERTY_DEFINITION('material property','material name',#1745);
#908=PROPERTY_DEFINITION('material property','density of part',#1745);
#909=AXIS2_PLACEMENT_3D('',#1187,#965,#966);
#910=AXIS2_PLACEMENT_3D('',#1188,#967,#968);
#911=AXIS2_PLACEMENT_3D('',#1197,#973,#974);
#912=AXIS2_PLACEMENT_3D('',#1203,#978,#979);
#913=AXIS2_PLACEMENT_3D('',#1209,#983,#984);
#914=AXIS2_PLACEMENT_3D('',#1215,#988,#989);
#915=AXIS2_PLACEMENT_3D('',#1221,#993,#994);
#916=AXIS2_PLACEMENT_3D('',#1227,#998,#999);
#917=AXIS2_PLACEMENT_3D('',#1233,#1003,#1004);
#918=AXIS2_PLACEMENT_3D('',#1239,#1008,#1009);
#919=AXIS2_PLACEMENT_3D('',#1245,#1013,#1014);
#920=AXIS2_PLACEMENT_3D('',#1251,#1018,#1019);
#921=AXIS2_PLACEMENT_3D('',#1257,#1023,#1024);
#922=AXIS2_PLACEMENT_3D('',#1263,#1028,#1029);
#923=AXIS2_PLACEMENT_3D('',#1269,#1033,#1034);
#924=AXIS2_PLACEMENT_3D('',#1275,#1038,#1039);
#925=AXIS2_PLACEMENT_3D('',#1281,#1043,#1044);
#926=AXIS2_PLACEMENT_3D('',#1287,#1048,#1049);
#927=AXIS2_PLACEMENT_3D('',#1293,#1053,#1054);
#928=AXIS2_PLACEMENT_3D('',#1296,#1057,#1058);
#929=AXIS2_PLACEMENT_3D('',#1297,#1059,#1060);
#930=AXIS2_PLACEMENT_3D('',#1298,#1061,#1062);
#931=AXIS2_PLACEMENT_3D('',#1307,#1067,#1068);
#932=AXIS2_PLACEMENT_3D('',#1313,#1072,#1073);
#933=AXIS2_PLACEMENT_3D('',#1319,#1077,#1078);
#934=AXIS2_PLACEMENT_3D('',#1325,#1082,#1083);
#935=AXIS2_PLACEMENT_3D('',#1331,#1087,#1088);
#936=AXIS2_PLACEMENT_3D('',#1337,#1092,#1093);
#937=AXIS2_PLACEMENT_3D('',#1343,#1097,#1098);
#938=AXIS2_PLACEMENT_3D('',#1349,#1102,#1103);
#939=AXIS2_PLACEMENT_3D('',#1355,#1107,#1108);
#940=AXIS2_PLACEMENT_3D('',#1361,#1112,#1113);
#941=AXIS2_PLACEMENT_3D('',#1367,#1117,#1118);
#942=AXIS2_PLACEMENT_3D('',#1373,#1122,#1123);
#943=AXIS2_PLACEMENT_3D('',#1379,#1127,#1128);
#944=AXIS2_PLACEMENT_3D('',#1385,#1132,#1133);
#945=AXIS2_PLACEMENT_3D('',#1391,#1137,#1138);
#946=AXIS2_PLACEMENT_3D('',#1397,#1142,#1143);
#947=AXIS2_PLACEMENT_3D('',#1403,#1147,#1148);
#948=AXIS2_PLACEMENT_3D('',#1406,#1151,#1152);
#949=AXIS2_PLACEMENT_3D('',#1407,#1153,#1154);
#950=AXIS2_PLACEMENT_3D('',#1408,#1155,#1156);
#951=AXIS2_PLACEMENT_3D('',#1410,#1157,#1158);
#952=AXIS2_PLACEMENT_3D('',#1413,#1160,#1161);
#953=AXIS2_PLACEMENT_3D('',#1414,#1162,#1163);
#954=AXIS2_PLACEMENT_3D('',#1416,#1164,#1165);
#955=AXIS2_PLACEMENT_3D('',#1419,#1167,#1168);
#956=AXIS2_PLACEMENT_3D('',#1420,#1169,#1170);
#957=AXIS2_PLACEMENT_3D('',#1421,#1171,#1172);
#958=AXIS2_PLACEMENT_3D('',#1422,#1173,#1174);
#959=AXIS2_PLACEMENT_3D('',#1424,#1175,#1176);
#960=AXIS2_PLACEMENT_3D('',#1576,#1177,#1178);
#961=AXIS2_PLACEMENT_3D('',#1577,#1179,#1180);
#962=AXIS2_PLACEMENT_3D('',#1579,#1181,#1182);
#963=AXIS2_PLACEMENT_3D('',#1731,#1183,#1184);
#964=AXIS2_PLACEMENT_3D('',#1732,#1185,#1186);
#965=DIRECTION('axis',(0.,0.,1.));
#966=DIRECTION('refdir',(1.,0.,0.));
#967=DIRECTION('center_axis',(0.999999999999974,-2.28482809511121E-7,0.));
#968=DIRECTION('ref_axis',(2.28482809511121E-7,0.999999999999974,0.));
#969=DIRECTION('',(-2.28482809511121E-7,-0.999999999999974,0.));
#970=DIRECTION('',(0.,0.,1.));
#971=DIRECTION('',(2.28482809511121E-7,0.999999999999974,0.));
#972=DIRECTION('',(0.,0.,1.));
#973=DIRECTION('center_axis',(-2.28482809339076E-7,-0.999999999999974,0.));
#974=DIRECTION('ref_axis',(0.999999999999974,-2.28482809339076E-7,0.));
#975=DIRECTION('',(-0.999999999999974,2.28482809339076E-7,0.));
#976=DIRECTION('',(0.999999999999974,-2.28482809339076E-7,0.));
#977=DIRECTION('',(0.,0.,1.));
#978=DIRECTION('center_axis',(0.999999999999974,-2.28482808968996E-7,0.));
#979=DIRECTION('ref_axis',(2.28482808968996E-7,0.999999999999974,0.));
#980=DIRECTION('',(-2.28482808968996E-7,-0.999999999999974,0.));
#981=DIRECTION('',(2.28482808968996E-7,0.999999999999974,0.));
#982=DIRECTION('',(0.,0.,1.));
#983=DIRECTION('center_axis',(0.,1.,0.));
#984=DIRECTION('ref_axis',(-1.,0.,0.));
#985=DIRECTION('',(1.,0.,0.));
#986=DIRECTION('',(-1.,0.,0.));
#987=DIRECTION('',(0.,0.,1.));
#988=DIRECTION('center_axis',(1.,0.,0.));
#989=DIRECTION('ref_axis',(0.,1.,0.));
#990=DIRECTION('',(0.,-1.,0.));
#991=DIRECTION('',(0.,1.,0.));
#992=DIRECTION('',(0.,0.,1.));
#993=DIRECTION('center_axis',(1.43334024338324E-7,-0.99999999999999,0.));
#994=DIRECTION('ref_axis',(0.99999999999999,1.43334024338324E-7,0.));
#995=DIRECTION('',(-0.99999999999999,-1.43334024338324E-7,0.));
#996=DIRECTION('',(0.99999999999999,1.43334024338324E-7,0.));
#997=DIRECTION('',(0.,0.,1.));
#998=DIRECTION('center_axis',(0.999999999999922,3.94878208689479E-7,0.));
#999=DIRECTION('ref_axis',(-3.94878208689479E-7,0.999999999999922,0.));
#1000=DIRECTION('',(3.94878208689479E-7,-0.999999999999922,0.));
#1001=DIRECTION('',(-3.94878208689479E-7,0.999999999999922,0.));
#1002=DIRECTION('',(0.,0.,1.));
#1003=DIRECTION('center_axis',(1.,3.49145994265524E-14,0.));
#1004=DIRECTION('ref_axis',(-3.49145994265524E-14,1.,0.));
#1005=DIRECTION('',(-3.49145994265524E-14,1.,0.));
#1006=DIRECTION('',(-3.49145994265524E-14,1.,0.));
#1007=DIRECTION('',(0.,0.,1.));
#1008=DIRECTION('center_axis',(0.999999999999922,-3.94878173162343E-7,0.));
#1009=DIRECTION('ref_axis',(3.94878173162343E-7,0.999999999999922,0.));
#1010=DIRECTION('',(3.94878173162343E-7,0.999999999999922,0.));
#1011=DIRECTION('',(3.94878173162343E-7,0.999999999999922,0.));
#1012=DIRECTION('',(0.,0.,1.));
#1013=DIRECTION('center_axis',(1.43333990080017E-7,0.99999999999999,0.));
#1014=DIRECTION('ref_axis',(-0.99999999999999,1.43333990080017E-7,0.));
#1015=DIRECTION('',(-0.99999999999999,1.43333990080017E-7,0.));
#1016=DIRECTION('',(-0.99999999999999,1.43333990080017E-7,0.));
#1017=DIRECTION('',(0.,0.,1.));
#1018=DIRECTION('center_axis',(1.,3.5527136788005E-14,0.));
#1019=DIRECTION('ref_axis',(-3.5527136788005E-14,1.,0.));
#1020=DIRECTION('',(-3.5527136788005E-14,1.,0.));
#1021=DIRECTION('',(-3.5527136788005E-14,1.,0.));
#1022=DIRECTION('',(0.,0.,1.));
#1023=DIRECTION('center_axis',(3.3306679323752E-14,-1.,0.));
#1024=DIRECTION('ref_axis',(1.,3.3306679323752E-14,0.));
#1025=DIRECTION('',(1.,3.3306679323752E-14,0.));
#1026=DIRECTION('',(1.,3.3306679323752E-14,0.));
#1027=DIRECTION('',(0.,0.,1.));
#1028=DIRECTION('center_axis',(0.999999999999974,2.28482844496132E-7,0.));
#1029=DIRECTION('ref_axis',(-2.28482844496132E-7,0.999999999999974,0.));
#1030=DIRECTION('',(-2.28482844496132E-7,0.999999999999974,0.));
#1031=DIRECTION('',(-2.28482844496132E-7,0.999999999999974,0.));
#1032=DIRECTION('',(0.,0.,1.));
#1033=DIRECTION('center_axis',(-2.28482842645767E-7,0.999999999999974,0.));
#1034=DIRECTION('ref_axis',(-0.999999999999974,-2.28482842645767E-7,0.));
#1035=DIRECTION('',(-0.999999999999974,-2.28482842645767E-7,0.));
#1036=DIRECTION('',(-0.999999999999974,-2.28482842645767E-7,0.));
#1037=DIRECTION('',(0.,0.,1.));
#1038=DIRECTION('center_axis',(0.999999999999974,2.28482845038265E-7,0.));
#1039=DIRECTION('ref_axis',(-2.28482845038265E-7,0.999999999999974,0.));
#1040=DIRECTION('',(-2.28482845038265E-7,0.999999999999974,0.));
#1041=DIRECTION('',(-2.28482845038265E-7,0.999999999999974,0.));
#1042=DIRECTION('',(0.,0.,1.));
#1043=DIRECTION('center_axis',(0.,-1.,0.));
#1044=DIRECTION('ref_axis',(1.,0.,0.));
#1045=DIRECTION('',(1.,0.,0.));
#1046=DIRECTION('',(1.,0.,0.));
#1047=DIRECTION('',(0.,0.,1.));
#1048=DIRECTION('center_axis',(-1.,0.,0.));
#1049=DIRECTION('ref_axis',(0.,-1.,0.));
#1050=DIRECTION('',(0.,-1.,0.));
#1051=DIRECTION('',(0.,-1.,0.));
#1052=DIRECTION('',(0.,0.,1.));
#1053=DIRECTION('center_axis',(0.,1.,0.));
#1054=DIRECTION('ref_axis',(-1.,0.,0.));
#1055=DIRECTION('',(-1.,0.,0.));
#1056=DIRECTION('',(-1.,0.,0.));
#1057=DIRECTION('center_axis',(0.,0.,1.));
#1058=DIRECTION('ref_axis',(1.,0.,0.));
#1059=DIRECTION('center_axis',(0.,0.,1.));
#1060=DIRECTION('ref_axis',(1.,0.,0.));
#1061=DIRECTION('center_axis',(-1.,0.,0.));
#1062=DIRECTION('ref_axis',(0.,-1.,0.));
#1063=DIRECTION('',(0.,1.,0.));
#1064=DIRECTION('',(0.,0.,1.));
#1065=DIRECTION('',(0.,-1.,0.));
#1066=DIRECTION('',(0.,0.,1.));
#1067=DIRECTION('center_axis',(0.,1.,0.));
#1068=DIRECTION('ref_axis',(-1.,0.,0.));
#1069=DIRECTION('',(1.,0.,0.));
#1070=DIRECTION('',(-1.,0.,0.));
#1071=DIRECTION('',(0.,0.,1.));
#1072=DIRECTION('center_axis',(1.,0.,0.));
#1073=DIRECTION('ref_axis',(0.,1.,0.));
#1074=DIRECTION('',(0.,-1.,0.));
#1075=DIRECTION('',(0.,1.,0.));
#1076=DIRECTION('',(0.,0.,1.));
#1077=DIRECTION('center_axis',(-4.44089209850063E-16,-1.,0.));
#1078=DIRECTION('ref_axis',(1.,-4.44089209850063E-16,0.));
#1079=DIRECTION('',(-1.,4.44089209850063E-16,0.));
#1080=DIRECTION('',(1.,-4.44089209850063E-16,0.));
#1081=DIRECTION('',(0.,0.,1.));
#1082=DIRECTION('center_axis',(-1.,0.,0.));
#1083=DIRECTION('ref_axis',(0.,-1.,0.));
#1084=DIRECTION('',(0.,1.,0.));
#1085=DIRECTION('',(0.,-1.,0.));
#1086=DIRECTION('',(0.,0.,1.));
#1087=DIRECTION('center_axis',(2.28482974762307E-7,0.999999999999974,0.));
#1088=DIRECTION('ref_axis',(-0.999999999999974,2.28482974762307E-7,0.));
#1089=DIRECTION('',(0.999999999999974,-2.28482974762307E-7,0.));
#1090=DIRECTION('',(-0.999999999999974,2.28482974762307E-7,0.));
#1091=DIRECTION('',(0.,0.,1.));
#1092=DIRECTION('center_axis',(-0.999999999999974,2.284829747623E-7,0.));
#1093=DIRECTION('ref_axis',(-2.284829747623E-7,-0.999999999999974,0.));
#1094=DIRECTION('',(2.284829747623E-7,0.999999999999974,0.));
#1095=DIRECTION('',(-2.284829747623E-7,-0.999999999999974,0.));
#1096=DIRECTION('',(0.,0.,1.));
#1097=DIRECTION('center_axis',(-1.6431295133051E-13,-1.,0.));
#1098=DIRECTION('ref_axis',(1.,-1.6431295133051E-13,0.));
#1099=DIRECTION('',(-1.,1.6431295133051E-13,0.));
#1100=DIRECTION('',(1.,-1.6431295133051E-13,0.));
#1101=DIRECTION('',(0.,0.,1.));
#1102=DIRECTION('center_axis',(-1.,0.,0.));
#1103=DIRECTION('ref_axis',(0.,-1.,0.));
#1104=DIRECTION('',(0.,1.,0.));
#1105=DIRECTION('',(0.,-1.,0.));
#1106=DIRECTION('',(0.,0.,1.));
#1107=DIRECTION('center_axis',(-1.43333858122096E-7,0.99999999999999,0.));
#1108=DIRECTION('ref_axis',(-0.99999999999999,-1.43333858122096E-7,0.));
#1109=DIRECTION('',(0.99999999999999,1.43333858122096E-7,0.));
#1110=DIRECTION('',(-0.99999999999999,-1.43333858122096E-7,0.));
#1111=DIRECTION('',(0.,0.,1.));
#1112=DIRECTION('center_axis',(-0.999999999999922,-3.94878048817365E-7,
0.));
#1113=DIRECTION('ref_axis',(3.94878048817365E-7,-0.999999999999922,0.));
#1114=DIRECTION('',(-3.94878048817365E-7,0.999999999999922,0.));
#1115=DIRECTION('',(3.94878048817365E-7,-0.999999999999922,0.));
#1116=DIRECTION('',(0.,0.,1.));
#1117=DIRECTION('center_axis',(-1.,1.31695418889627E-13,0.));
#1118=DIRECTION('ref_axis',(-1.31695418889627E-13,-1.,0.));
#1119=DIRECTION('',(-1.31695418889627E-13,-1.,0.));
#1120=DIRECTION('',(-1.31695418889627E-13,-1.,0.));
#1121=DIRECTION('',(0.,0.,1.));
#1122=DIRECTION('center_axis',(-0.999999999999922,3.94878341916239E-7,0.));
#1123=DIRECTION('ref_axis',(-3.94878341916239E-7,-0.999999999999922,0.));
#1124=DIRECTION('',(-3.94878341916239E-7,-0.999999999999922,0.));
#1125=DIRECTION('',(-3.94878341916239E-7,-0.999999999999922,0.));
#1126=DIRECTION('',(0.,0.,1.));
#1127=DIRECTION('center_axis',(-1.43334156296246E-7,-0.99999999999999,0.));
#1128=DIRECTION('ref_axis',(0.99999999999999,-1.43334156296246E-7,0.));
#1129=DIRECTION('',(0.99999999999999,-1.43334156296246E-7,0.));
#1130=DIRECTION('',(0.99999999999999,-1.43334156296246E-7,0.));
#1131=DIRECTION('',(0.,0.,1.));
#1132=DIRECTION('center_axis',(-1.,0.,0.));
#1133=DIRECTION('ref_axis',(0.,-1.,0.));
#1134=DIRECTION('',(0.,1.,0.));
#1135=DIRECTION('',(0.,-1.,0.));
#1136=DIRECTION('',(0.,0.,1.));
#1137=DIRECTION('center_axis',(1.31006272006758E-13,1.,0.));
#1138=DIRECTION('ref_axis',(-1.,1.31006272006758E-13,0.));
#1139=DIRECTION('',(-1.,1.31006272006758E-13,0.));
#1140=DIRECTION('',(-1.,1.31006272006758E-13,0.));
#1141=DIRECTION('',(0.,0.,1.));
#1142=DIRECTION('center_axis',(-0.999999999999974,-2.28482678702827E-7,
0.));
#1143=DIRECTION('ref_axis',(2.28482678702827E-7,-0.999999999999974,0.));
#1144=DIRECTION('',(2.28482678702827E-7,-0.999999999999974,0.));
#1145=DIRECTION('',(2.28482678702827E-7,-0.999999999999974,0.));
#1146=DIRECTION('',(0.,0.,1.));
#1147=DIRECTION('center_axis',(2.28482679442982E-7,-0.999999999999974,0.));
#1148=DIRECTION('ref_axis',(0.999999999999974,2.28482679442982E-7,0.));
#1149=DIRECTION('',(0.999999999999974,2.28482679442982E-7,0.));
#1150=DIRECTION('',(0.999999999999974,2.28482679442982E-7,0.));
#1151=DIRECTION('center_axis',(0.,0.,1.));
#1152=DIRECTION('ref_axis',(1.,0.,0.));
#1153=DIRECTION('center_axis',(0.,0.,1.));
#1154=DIRECTION('ref_axis',(1.,0.,0.));
#1155=DIRECTION('center_axis',(0.,0.,1.));
#1156=DIRECTION('ref_axis',(1.,0.,0.));
#1157=DIRECTION('center_axis',(0.,0.,-1.));
#1158=DIRECTION('ref_axis',(1.,0.,0.));
#1159=DIRECTION('',(0.,0.,-1.));
#1160=DIRECTION('center_axis',(0.,0.,-1.));
#1161=DIRECTION('ref_axis',(1.,0.,0.));
#1162=DIRECTION('center_axis',(0.,0.,1.));
#1163=DIRECTION('ref_axis',(1.,0.,0.));
#1164=DIRECTION('center_axis',(0.,0.,1.));
#1165=DIRECTION('ref_axis',(1.,0.,0.));
#1166=DIRECTION('',(0.,0.,-1.));
#1167=DIRECTION('center_axis',(0.,0.,1.));
#1168=DIRECTION('ref_axis',(1.,0.,0.));
#1169=DIRECTION('center_axis',(0.,0.,1.));
#1170=DIRECTION('ref_axis',(1.,0.,0.));
#1171=DIRECTION('center_axis',(0.,0.,1.));
#1172=DIRECTION('ref_axis',(1.,0.,0.));
#1173=DIRECTION('center_axis',(0.,0.,-1.));
#1174=DIRECTION('ref_axis',(-1.,0.,0.));
#1175=DIRECTION('center_axis',(0.,0.,1.));
#1176=DIRECTION('ref_axis',(1.,0.,0.));
#1177=DIRECTION('center_axis',(0.,0.,1.));
#1178=DIRECTION('ref_axis',(1.,0.,0.));
#1179=DIRECTION('center_axis',(0.,0.,1.));
#1180=DIRECTION('ref_axis',(1.,0.,0.));
#1181=DIRECTION('center_axis',(0.,0.,1.));
#1182=DIRECTION('ref_axis',(1.,0.,0.));
#1183=DIRECTION('center_axis',(0.,0.,1.));
#1184=DIRECTION('ref_axis',(1.,0.,0.));
#1185=DIRECTION('center_axis',(0.,0.,1.));
#1186=DIRECTION('ref_axis',(1.,0.,0.));
#1187=CARTESIAN_POINT('',(0.,0.,0.));
#1188=CARTESIAN_POINT('Origin',(-46.0000006854534,37.000000551343,0.));
#1189=CARTESIAN_POINT('',(-46.0000000000051,40.0000000000044,0.));
#1190=CARTESIAN_POINT('',(-46.0000006854534,37.000000551343,0.));
#1191=CARTESIAN_POINT('',(-46.0000000000051,40.0000000000044,0.));
#1192=CARTESIAN_POINT('',(-46.0000000000051,40.0000000000044,100.));
#1193=CARTESIAN_POINT('',(-46.0000000000051,40.0000000000044,0.));
#1194=CARTESIAN_POINT('',(-46.0000006854534,37.000000551343,100.));
#1195=CARTESIAN_POINT('',(-46.0000000000051,40.0000000000044,100.));
#1196=CARTESIAN_POINT('',(-46.0000006854534,37.000000551343,0.));
#1197=CARTESIAN_POINT('Origin',(-50.0000006854532,37.0000014652742,0.));
#1198=CARTESIAN_POINT('',(-50.0000006854532,37.0000014652742,0.));
#1199=CARTESIAN_POINT('',(-46.0000006854534,37.000000551343,0.));
#1200=CARTESIAN_POINT('',(-50.0000006854532,37.0000014652742,100.));
#1201=CARTESIAN_POINT('',(-46.0000006854534,37.000000551343,100.));
#1202=CARTESIAN_POINT('',(-50.0000006854532,37.0000014652742,0.));
#1203=CARTESIAN_POINT('Origin',(-50.0000013709016,34.0000014652743,0.));
#1204=CARTESIAN_POINT('',(-50.0000013709016,34.0000014652743,0.));
#1205=CARTESIAN_POINT('',(-50.0000006854532,37.0000014652742,0.));
#1206=CARTESIAN_POINT('',(-50.0000013709016,34.0000014652743,100.));
#1207=CARTESIAN_POINT('',(-50.0000006854532,37.0000014652742,100.));
#1208=CARTESIAN_POINT('',(-50.0000013709016,34.0000014652743,0.));
#1209=CARTESIAN_POINT('Origin',(-46.0000000000051,34.0000014652743,0.));
#1210=CARTESIAN_POINT('',(-46.0000000000051,34.0000014652743,0.));
#1211=CARTESIAN_POINT('',(-50.0000013709016,34.0000014652743,0.));
#1212=CARTESIAN_POINT('',(-46.0000000000051,34.0000014652743,100.));
#1213=CARTESIAN_POINT('',(-50.0000013709016,34.0000014652743,100.));
#1214=CARTESIAN_POINT('',(-46.0000000000051,34.0000014652743,0.));
#1215=CARTESIAN_POINT('Origin',(-46.0000000000051,31.0000014652743,0.));
#1216=CARTESIAN_POINT('',(-46.0000000000051,31.0000014652743,0.));
#1217=CARTESIAN_POINT('',(-46.0000000000051,34.0000014652743,0.));
#1218=CARTESIAN_POINT('',(-46.0000000000051,31.0000014652743,100.));
#1219=CARTESIAN_POINT('',(-46.0000000000051,34.0000014652743,100.));
#1220=CARTESIAN_POINT('',(-46.0000000000051,31.0000014652743,0.));
#1221=CARTESIAN_POINT('Origin',(-53.0000007897615,31.000000461936,0.));
#1222=CARTESIAN_POINT('',(-53.0000007897615,31.000000461936,0.));
#1223=CARTESIAN_POINT('',(-46.0000000000051,31.0000014652743,0.));
#1224=CARTESIAN_POINT('',(-53.0000007897615,31.000000461936,100.));
#1225=CARTESIAN_POINT('',(-46.0000000000051,31.0000014652743,100.));
#1226=CARTESIAN_POINT('',(-53.0000007897615,31.000000461936,0.));
#1227=CARTESIAN_POINT('Origin',(-53.0000000000051,29.0000004321456,0.));
#1228=CARTESIAN_POINT('',(-53.0000000000051,29.0000004321456,0.));
#1229=CARTESIAN_POINT('',(-53.0000007897615,31.000000461936,0.));
#1230=CARTESIAN_POINT('',(-53.0000000000051,29.0000004321456,100.));
#1231=CARTESIAN_POINT('',(-53.0000007897615,31.000000461936,100.));
#1232=CARTESIAN_POINT('',(-53.0000000000051,29.0000004321456,0.));
#1233=CARTESIAN_POINT('Origin',(-53.0000000000041,-29.0000004321416,0.));
#1234=CARTESIAN_POINT('',(-53.0000000000041,-29.0000004321416,0.));
#1235=CARTESIAN_POINT('',(-53.0000000000041,-29.0000004321416,0.));
#1236=CARTESIAN_POINT('',(-53.0000000000041,-29.0000004321416,100.));
#1237=CARTESIAN_POINT('',(-53.0000000000041,-29.0000004321416,100.));
#1238=CARTESIAN_POINT('',(-53.0000000000041,-29.0000004321416,0.));
#1239=CARTESIAN_POINT('Origin',(-53.0000007897605,-31.000000461932,0.));
#1240=CARTESIAN_POINT('',(-53.0000007897605,-31.000000461932,0.));
#1241=CARTESIAN_POINT('',(-53.0000007897605,-31.000000461932,0.));
#1242=CARTESIAN_POINT('',(-53.0000007897605,-31.000000461932,100.));
#1243=CARTESIAN_POINT('',(-53.0000007897605,-31.000000461932,100.));
#1244=CARTESIAN_POINT('',(-53.0000007897605,-31.000000461932,0.));
#1245=CARTESIAN_POINT('Origin',(-46.000000000004,-31.00000146527,0.));
#1246=CARTESIAN_POINT('',(-46.000000000004,-31.00000146527,0.));
#1247=CARTESIAN_POINT('',(-46.000000000004,-31.00000146527,0.));
#1248=CARTESIAN_POINT('',(-46.000000000004,-31.00000146527,100.));
#1249=CARTESIAN_POINT('',(-46.000000000004,-31.00000146527,100.));
#1250=CARTESIAN_POINT('',(-46.000000000004,-31.00000146527,0.));
#1251=CARTESIAN_POINT('Origin',(-46.0000000000039,-34.00000146527,0.));
#1252=CARTESIAN_POINT('',(-46.0000000000039,-34.00000146527,0.));
#1253=CARTESIAN_POINT('',(-46.0000000000039,-34.00000146527,0.));
#1254=CARTESIAN_POINT('',(-46.0000000000039,-34.00000146527,100.));
#1255=CARTESIAN_POINT('',(-46.0000000000039,-34.00000146527,100.));
#1256=CARTESIAN_POINT('',(-46.0000000000039,-34.00000146527,0.));
#1257=CARTESIAN_POINT('Origin',(-50.0000013709004,-34.0000014652702,0.));
#1258=CARTESIAN_POINT('',(-50.0000013709004,-34.0000014652702,0.));
#1259=CARTESIAN_POINT('',(-50.0000013709004,-34.0000014652702,0.));
#1260=CARTESIAN_POINT('',(-50.0000013709004,-34.0000014652702,100.));
#1261=CARTESIAN_POINT('',(-50.0000013709004,-34.0000014652702,100.));
#1262=CARTESIAN_POINT('',(-50.0000013709004,-34.0000014652702,0.));
#1263=CARTESIAN_POINT('Origin',(-50.0000006854519,-37.0000014652701,0.));
#1264=CARTESIAN_POINT('',(-50.0000006854519,-37.0000014652701,0.));
#1265=CARTESIAN_POINT('',(-50.0000006854519,-37.0000014652701,0.));
#1266=CARTESIAN_POINT('',(-50.0000006854519,-37.0000014652701,100.));
#1267=CARTESIAN_POINT('',(-50.0000006854519,-37.0000014652701,100.));
#1268=CARTESIAN_POINT('',(-50.0000006854519,-37.0000014652701,0.));
#1269=CARTESIAN_POINT('Origin',(-46.0000006854521,-37.0000005513387,0.));
#1270=CARTESIAN_POINT('',(-46.0000006854521,-37.0000005513387,0.));
#1271=CARTESIAN_POINT('',(-46.0000006854521,-37.0000005513387,0.));
#1272=CARTESIAN_POINT('',(-46.0000006854521,-37.0000005513387,100.));
#1273=CARTESIAN_POINT('',(-46.0000006854521,-37.0000005513387,100.));
#1274=CARTESIAN_POINT('',(-46.0000006854521,-37.0000005513387,0.));
#1275=CARTESIAN_POINT('Origin',(-46.0000000000037,-40.0000000000002,0.));
#1276=CARTESIAN_POINT('',(-46.0000000000037,-40.0000000000002,0.));
#1277=CARTESIAN_POINT('',(-46.0000000000037,-40.0000000000002,0.));
#1278=CARTESIAN_POINT('',(-46.0000000000037,-40.0000000000002,100.));
#1279=CARTESIAN_POINT('',(-46.0000000000037,-40.0000000000002,100.));
#1280=CARTESIAN_POINT('',(-46.0000000000037,-40.0000000000002,0.));
#1281=CARTESIAN_POINT('Origin',(-56.0000000000051,-40.0000000000005,0.));
#1282=CARTESIAN_POINT('',(-56.0000000000051,-40.0000000000005,0.));
#1283=CARTESIAN_POINT('',(-56.0000000000051,-40.0000000000005,0.));
#1284=CARTESIAN_POINT('',(-56.0000000000051,-40.0000000000005,100.));
#1285=CARTESIAN_POINT('',(-56.0000000000051,-40.0000000000005,100.));
#1286=CARTESIAN_POINT('',(-56.0000000000051,-40.0000000000005,0.));
#1287=CARTESIAN_POINT('Origin',(-56.0000000000051,40.0000000000044,0.));
#1288=CARTESIAN_POINT('',(-56.0000000000051,40.0000000000044,0.));
#1289=CARTESIAN_POINT('',(-56.0000000000051,40.0000000000044,0.));
#1290=CARTESIAN_POINT('',(-56.0000000000051,40.0000000000044,100.));
#1291=CARTESIAN_POINT('',(-56.0000000000051,40.0000000000044,100.));
#1292=CARTESIAN_POINT('',(-56.0000000000051,40.0000000000044,0.));
#1293=CARTESIAN_POINT('Origin',(-46.0000000000051,40.0000000000044,0.));
#1294=CARTESIAN_POINT('',(-46.0000000000051,40.0000000000044,0.));
#1295=CARTESIAN_POINT('',(-46.0000000000051,40.0000000000044,100.));
#1296=CARTESIAN_POINT('Origin',(-51.0000000000044,1.95399252334028E-12,
100.));
#1297=CARTESIAN_POINT('Origin',(-51.0000000000044,1.95399252334028E-12,
0.));
#1298=CARTESIAN_POINT('Origin',(45.9999999999949,40.0000000000044,0.));
#1299=CARTESIAN_POINT('',(46.0000006854533,37.0000005513369,0.));
#1300=CARTESIAN_POINT('',(45.9999999999949,40.0000000000044,0.));
#1301=CARTESIAN_POINT('',(45.9999999999949,-39.9999999999966,0.));
#1302=CARTESIAN_POINT('',(46.0000006854533,37.0000005513369,100.));
#1303=CARTESIAN_POINT('',(46.0000006854533,37.0000005513369,0.));
#1304=CARTESIAN_POINT('',(45.9999999999949,40.0000000000044,100.));
#1305=CARTESIAN_POINT('',(45.9999999999949,-39.9999999999966,100.));
#1306=CARTESIAN_POINT('',(45.9999999999949,40.0000000000044,0.));
#1307=CARTESIAN_POINT('Origin',(55.9999999999949,40.0000000000044,0.));
#1308=CARTESIAN_POINT('',(55.9999999999949,40.0000000000044,0.));
#1309=CARTESIAN_POINT('',(45.9999999999949,40.0000000000044,0.));
#1310=CARTESIAN_POINT('',(55.9999999999949,40.0000000000044,100.));
#1311=CARTESIAN_POINT('',(45.9999999999949,40.0000000000044,100.));
#1312=CARTESIAN_POINT('',(55.9999999999949,40.0000000000044,0.));
#1313=CARTESIAN_POINT('Origin',(55.9999999999949,-39.9999999999966,0.));
#1314=CARTESIAN_POINT('',(55.9999999999949,-39.9999999999966,0.));
#1315=CARTESIAN_POINT('',(55.9999999999949,40.0000000000044,0.));
#1316=CARTESIAN_POINT('',(55.9999999999949,-39.9999999999966,100.));
#1317=CARTESIAN_POINT('',(55.9999999999949,40.0000000000044,100.));
#1318=CARTESIAN_POINT('',(55.9999999999949,-39.9999999999966,0.));
#1319=CARTESIAN_POINT('Origin',(45.9999999999949,-39.9999999999966,0.));
#1320=CARTESIAN_POINT('',(45.9999999999949,-39.9999999999966,0.));
#1321=CARTESIAN_POINT('',(55.9999999999949,-39.9999999999966,0.));
#1322=CARTESIAN_POINT('',(45.9999999999949,-39.9999999999966,100.));
#1323=CARTESIAN_POINT('',(55.9999999999949,-39.9999999999966,100.));
#1324=CARTESIAN_POINT('',(45.9999999999949,-39.9999999999966,0.));
#1325=CARTESIAN_POINT('Origin',(45.9999999999949,-37.0000005513448,0.));
#1326=CARTESIAN_POINT('',(46.0000006854423,-37.0000005513448,0.));
#1327=CARTESIAN_POINT('',(45.9999999999949,-39.9999999999966,0.));
#1328=CARTESIAN_POINT('',(46.0000006854423,-37.0000005513448,100.));
#1329=CARTESIAN_POINT('',(45.9999999999949,-39.9999999999966,100.));
#1330=CARTESIAN_POINT('',(46.0000006854423,-37.0000005513448,0.));
#1331=CARTESIAN_POINT('Origin',(50.0000006854421,-37.0000014652767,0.));
#1332=CARTESIAN_POINT('',(50.0000006854421,-37.0000014652767,0.));
#1333=CARTESIAN_POINT('',(46.0000006854423,-37.0000005513448,0.));
#1334=CARTESIAN_POINT('',(50.0000006854421,-37.0000014652767,100.));
#1335=CARTESIAN_POINT('',(46.0000006854423,-37.0000005513448,100.));
#1336=CARTESIAN_POINT('',(50.0000006854421,-37.0000014652767,0.));
#1337=CARTESIAN_POINT('Origin',(50.000001370891,-34.0000014652767,0.));
#1338=CARTESIAN_POINT('',(50.000001370891,-34.0000014652767,0.));
#1339=CARTESIAN_POINT('',(50.0000006854421,-37.0000014652767,0.));
#1340=CARTESIAN_POINT('',(50.000001370891,-34.0000014652767,100.));
#1341=CARTESIAN_POINT('',(50.0000006854421,-37.0000014652767,100.));
#1342=CARTESIAN_POINT('',(50.000001370891,-34.0000014652767,0.));
#1343=CARTESIAN_POINT('Origin',(45.9999999999945,-34.0000014652761,0.));
#1344=CARTESIAN_POINT('',(45.9999999999945,-34.0000014652761,0.));
#1345=CARTESIAN_POINT('',(50.000001370891,-34.0000014652767,0.));
#1346=CARTESIAN_POINT('',(45.9999999999945,-34.0000014652761,100.));
#1347=CARTESIAN_POINT('',(50.000001370891,-34.0000014652767,100.));
#1348=CARTESIAN_POINT('',(45.9999999999945,-34.0000014652761,0.));
#1349=CARTESIAN_POINT('Origin',(45.9999999999949,-31.0000014652761,0.));
#1350=CARTESIAN_POINT('',(45.999999999995,-31.0000014652761,0.));
#1351=CARTESIAN_POINT('',(45.9999999999949,-39.9999999999966,0.));
#1352=CARTESIAN_POINT('',(45.999999999995,-31.0000014652761,100.));
#1353=CARTESIAN_POINT('',(45.9999999999949,-39.9999999999966,100.));
#1354=CARTESIAN_POINT('',(45.999999999995,-31.0000014652761,0.));
#1355=CARTESIAN_POINT('Origin',(53.0000007897514,-31.000000461939,0.));
#1356=CARTESIAN_POINT('',(53.0000007897514,-31.000000461939,0.));
#1357=CARTESIAN_POINT('',(45.999999999995,-31.0000014652761,0.));
#1358=CARTESIAN_POINT('',(53.0000007897514,-31.000000461939,100.));
#1359=CARTESIAN_POINT('',(45.999999999995,-31.0000014652761,100.));
#1360=CARTESIAN_POINT('',(53.0000007897514,-31.000000461939,0.));
#1361=CARTESIAN_POINT('Origin',(52.9999999999953,-29.0000004321486,0.));
#1362=CARTESIAN_POINT('',(52.9999999999953,-29.0000004321486,0.));
#1363=CARTESIAN_POINT('',(53.0000007897514,-31.000000461939,0.));
#1364=CARTESIAN_POINT('',(52.9999999999953,-29.0000004321486,100.));
#1365=CARTESIAN_POINT('',(53.0000007897514,-31.000000461939,100.));
#1366=CARTESIAN_POINT('',(52.9999999999953,-29.0000004321486,0.));
#1367=CARTESIAN_POINT('Origin',(53.000000000004,29.0000004321387,0.));
#1368=CARTESIAN_POINT('',(53.000000000004,29.0000004321387,0.));
#1369=CARTESIAN_POINT('',(53.000000000004,29.0000004321387,0.));
#1370=CARTESIAN_POINT('',(53.000000000004,29.0000004321387,100.));
#1371=CARTESIAN_POINT('',(53.000000000004,29.0000004321387,100.));
#1372=CARTESIAN_POINT('',(53.000000000004,29.0000004321387,0.));
#1373=CARTESIAN_POINT('Origin',(53.0000007897607,31.000000461929,0.));
#1374=CARTESIAN_POINT('',(53.0000007897607,31.000000461929,0.));
#1375=CARTESIAN_POINT('',(53.0000007897607,31.000000461929,0.));
#1376=CARTESIAN_POINT('',(53.0000007897607,31.000000461929,100.));
#1377=CARTESIAN_POINT('',(53.0000007897607,31.000000461929,100.));
#1378=CARTESIAN_POINT('',(53.0000007897607,31.000000461929,0.));
#1379=CARTESIAN_POINT('Origin',(46.0000000000042,31.0000014652682,0.));
#1380=CARTESIAN_POINT('',(46.0000000000042,31.0000014652682,0.));
#1381=CARTESIAN_POINT('',(46.0000000000042,31.0000014652682,0.));
#1382=CARTESIAN_POINT('',(46.0000000000042,31.0000014652682,100.));
#1383=CARTESIAN_POINT('',(46.0000000000042,31.0000014652682,100.));
#1384=CARTESIAN_POINT('',(46.0000000000042,31.0000014652682,0.));
#1385=CARTESIAN_POINT('Origin',(45.9999999999949,34.0000014652682,0.));
#1386=CARTESIAN_POINT('',(46.0000000000046,34.0000014652682,0.));
#1387=CARTESIAN_POINT('',(45.9999999999949,-39.9999999999966,0.));
#1388=CARTESIAN_POINT('',(46.0000000000046,34.0000014652682,100.));
#1389=CARTESIAN_POINT('',(45.9999999999949,-39.9999999999966,100.));
#1390=CARTESIAN_POINT('',(46.0000000000046,34.0000014652682,0.));
#1391=CARTESIAN_POINT('Origin',(50.0000013709011,34.0000014652677,0.));
#1392=CARTESIAN_POINT('',(50.0000013709011,34.0000014652677,0.));
#1393=CARTESIAN_POINT('',(50.0000013709011,34.0000014652677,0.));
#1394=CARTESIAN_POINT('',(50.0000013709011,34.0000014652677,100.));
#1395=CARTESIAN_POINT('',(50.0000013709011,34.0000014652677,100.));
#1396=CARTESIAN_POINT('',(50.0000013709011,34.0000014652677,0.));
#1397=CARTESIAN_POINT('Origin',(50.0000006854531,37.0000014652676,0.));
#1398=CARTESIAN_POINT('',(50.0000006854531,37.0000014652676,0.));
#1399=CARTESIAN_POINT('',(50.0000006854531,37.0000014652676,0.));
#1400=CARTESIAN_POINT('',(50.0000006854531,37.0000014652676,100.));
#1401=CARTESIAN_POINT('',(50.0000006854531,37.0000014652676,100.));
#1402=CARTESIAN_POINT('',(50.0000006854531,37.0000014652676,0.));
#1403=CARTESIAN_POINT('Origin',(46.0000006854533,37.0000005513369,0.));
#1404=CARTESIAN_POINT('',(46.0000006854533,37.0000005513369,0.));
#1405=CARTESIAN_POINT('',(46.0000006854533,37.0000005513369,100.));
#1406=CARTESIAN_POINT('Origin',(50.9999999999947,3.90798504668055E-12,100.));
#1407=CARTESIAN_POINT('Origin',(50.9999999999947,3.90798504668055E-12,0.));
#1408=CARTESIAN_POINT('Origin',(0.,0.,0.));
#1409=CARTESIAN_POINT('',(-77.,-9.42978035343462E-15,100.));
#1410=CARTESIAN_POINT('Origin',(0.,0.,100.));
#1411=CARTESIAN_POINT('',(-77.,-9.42978035343462E-15,0.));
#1412=CARTESIAN_POINT('',(-77.,-9.42978035343462E-15,0.));
#1413=CARTESIAN_POINT('Origin',(0.,0.,0.));
#1414=CARTESIAN_POINT('Origin',(0.,0.,0.));
#1415=CARTESIAN_POINT('',(-80.,-9.79717439317883E-15,100.));
#1416=CARTESIAN_POINT('Origin',(0.,0.,100.));
#1417=CARTESIAN_POINT('',(-80.,-9.79717439317883E-15,0.));
#1418=CARTESIAN_POINT('',(-80.,-9.79717439317883E-15,0.));
#1419=CARTESIAN_POINT('Origin',(0.,0.,0.));
#1420=CARTESIAN_POINT('Origin',(0.,0.,100.));
#1421=CARTESIAN_POINT('Origin',(0.,0.,0.));
#1422=CARTESIAN_POINT('Origin',(63.,0.,-20.));
#1423=CARTESIAN_POINT('',(63.,0.,-20.));
#1424=CARTESIAN_POINT('Origin',(0.,0.,-20.));
#1425=CARTESIAN_POINT('Ctrl Pts',(83.,0.,100.));
#1426=CARTESIAN_POINT('Ctrl Pts',(83.,83.,100.));
#1427=CARTESIAN_POINT('Ctrl Pts',(0.,83.,100.));
#1428=CARTESIAN_POINT('Ctrl Pts',(-83.,83.,100.));
#1429=CARTESIAN_POINT('Ctrl Pts',(-83.,0.,100.));
#1430=CARTESIAN_POINT('Ctrl Pts',(-83.,-83.,100.));
#1431=CARTESIAN_POINT('Ctrl Pts',(0.,-83.,100.));
#1432=CARTESIAN_POINT('Ctrl Pts',(83.,-83.,100.));
#1433=CARTESIAN_POINT('Ctrl Pts',(83.,0.,100.));
#1434=CARTESIAN_POINT('Ctrl Pts',(83.2131628514989,0.,96.0855268217796));
#1435=CARTESIAN_POINT('Ctrl Pts',(83.2131628514989,83.2131628514989,96.0855268217796));
#1436=CARTESIAN_POINT('Ctrl Pts',(0.,83.2131628514989,96.0855268217796));
#1437=CARTESIAN_POINT('Ctrl Pts',(-83.2131628514989,83.2131628514989,96.0855268217796));
#1438=CARTESIAN_POINT('Ctrl Pts',(-83.2131628514989,0.,96.0855268217796));
#1439=CARTESIAN_POINT('Ctrl Pts',(-83.2131628514989,-83.2131628514989,96.0855268217796));
#1440=CARTESIAN_POINT('Ctrl Pts',(0.,-83.2131628514989,96.0855268217796));
#1441=CARTESIAN_POINT('Ctrl Pts',(83.2131628514989,-83.2131628514989,96.0855268217796));
#1442=CARTESIAN_POINT('Ctrl Pts',(83.2131628514989,0.,96.0855268217796));
#1443=CARTESIAN_POINT('Ctrl Pts',(83.59323265035,0.,88.3708296015996));
#1444=CARTESIAN_POINT('Ctrl Pts',(83.59323265035,83.59323265035,88.3708296015996));
#1445=CARTESIAN_POINT('Ctrl Pts',(0.,83.59323265035,88.3708296015996));
#1446=CARTESIAN_POINT('Ctrl Pts',(-83.59323265035,83.59323265035,88.3708296015996));
#1447=CARTESIAN_POINT('Ctrl Pts',(-83.59323265035,0.,88.3708296015996));
#1448=CARTESIAN_POINT('Ctrl Pts',(-83.59323265035,-83.59323265035,88.3708296015996));
#1449=CARTESIAN_POINT('Ctrl Pts',(0.,-83.59323265035,88.3708296015996));
#1450=CARTESIAN_POINT('Ctrl Pts',(83.59323265035,-83.59323265035,88.3708296015996));
#1451=CARTESIAN_POINT('Ctrl Pts',(83.59323265035,0.,88.3708296015996));
#1452=CARTESIAN_POINT('Ctrl Pts',(84.0245716176907,0.,77.1415262859254));
#1453=CARTESIAN_POINT('Ctrl Pts',(84.0245716176906,84.0245716176906,77.1415262859254));
#1454=CARTESIAN_POINT('Ctrl Pts',(0.,84.0245716176907,77.1415262859254));
#1455=CARTESIAN_POINT('Ctrl Pts',(-84.0245716176906,84.0245716176906,77.1415262859254));
#1456=CARTESIAN_POINT('Ctrl Pts',(-84.0245716176907,0.,77.1415262859254));
#1457=CARTESIAN_POINT('Ctrl Pts',(-84.0245716176906,-84.0245716176906,77.1415262859254));
#1458=CARTESIAN_POINT('Ctrl Pts',(0.,-84.0245716176907,77.1415262859254));
#1459=CARTESIAN_POINT('Ctrl Pts',(84.0245716176906,-84.0245716176906,77.1415262859254));
#1460=CARTESIAN_POINT('Ctrl Pts',(84.0245716176907,0.,77.1415262859254));
#1461=CARTESIAN_POINT('Ctrl Pts',(84.3175768453063,0.,62.8659239783664));
#1462=CARTESIAN_POINT('Ctrl Pts',(84.3175768453063,84.3175768453063,62.8659239783664));
#1463=CARTESIAN_POINT('Ctrl Pts',(0.,84.3175768453063,62.8659239783664));
#1464=CARTESIAN_POINT('Ctrl Pts',(-84.3175768453063,84.3175768453063,62.8659239783664));
#1465=CARTESIAN_POINT('Ctrl Pts',(-84.3175768453063,0.,62.8659239783664));
#1466=CARTESIAN_POINT('Ctrl Pts',(-84.3175768453063,-84.3175768453063,62.8659239783664));
#1467=CARTESIAN_POINT('Ctrl Pts',(0.,-84.3175768453063,62.8659239783664));
#1468=CARTESIAN_POINT('Ctrl Pts',(84.3175768453063,-84.3175768453063,62.8659239783664));
#1469=CARTESIAN_POINT('Ctrl Pts',(84.3175768453063,0.,62.8659239783664));
#1470=CARTESIAN_POINT('Ctrl Pts',(84.1754050395798,0.,46.2772067021079));
#1471=CARTESIAN_POINT('Ctrl Pts',(84.1754050395798,84.1754050395798,46.2772067021079));
#1472=CARTESIAN_POINT('Ctrl Pts',(0.,84.1754050395798,46.2772067021079));
#1473=CARTESIAN_POINT('Ctrl Pts',(-84.1754050395798,84.1754050395798,46.2772067021079));
#1474=CARTESIAN_POINT('Ctrl Pts',(-84.1754050395798,0.,46.2772067021079));
#1475=CARTESIAN_POINT('Ctrl Pts',(-84.1754050395798,-84.1754050395798,46.2772067021079));
#1476=CARTESIAN_POINT('Ctrl Pts',(0.,-84.1754050395798,46.2772067021079));
#1477=CARTESIAN_POINT('Ctrl Pts',(84.1754050395798,-84.1754050395798,46.2772067021079));
#1478=CARTESIAN_POINT('Ctrl Pts',(84.1754050395798,0.,46.2772067021079));
#1479=CARTESIAN_POINT('Ctrl Pts',(83.4610213411844,0.,31.1018163447878));
#1480=CARTESIAN_POINT('Ctrl Pts',(83.4610213411844,83.4610213411844,31.1018163447878));
#1481=CARTESIAN_POINT('Ctrl Pts',(0.,83.4610213411844,31.1018163447878));
#1482=CARTESIAN_POINT('Ctrl Pts',(-83.4610213411844,83.4610213411844,31.1018163447878));
#1483=CARTESIAN_POINT('Ctrl Pts',(-83.4610213411844,0.,31.1018163447878));
#1484=CARTESIAN_POINT('Ctrl Pts',(-83.4610213411844,-83.4610213411844,31.1018163447878));
#1485=CARTESIAN_POINT('Ctrl Pts',(0.,-83.4610213411844,31.1018163447878));
#1486=CARTESIAN_POINT('Ctrl Pts',(83.4610213411844,-83.4610213411844,31.1018163447878));
#1487=CARTESIAN_POINT('Ctrl Pts',(83.4610213411844,0.,31.1018163447878));
#1488=CARTESIAN_POINT('Ctrl Pts',(82.0905084791347,0.,17.5470232192685));
#1489=CARTESIAN_POINT('Ctrl Pts',(82.0905084791347,82.0905084791347,17.5470232192685));
#1490=CARTESIAN_POINT('Ctrl Pts',(0.,82.0905084791347,17.5470232192685));
#1491=CARTESIAN_POINT('Ctrl Pts',(-82.0905084791347,82.0905084791347,17.5470232192685));
#1492=CARTESIAN_POINT('Ctrl Pts',(-82.0905084791347,0.,17.5470232192685));
#1493=CARTESIAN_POINT('Ctrl Pts',(-82.0905084791347,-82.0905084791347,17.5470232192685));
#1494=CARTESIAN_POINT('Ctrl Pts',(0.,-82.0905084791347,17.5470232192685));
#1495=CARTESIAN_POINT('Ctrl Pts',(82.0905084791347,-82.0905084791347,17.5470232192685));
#1496=CARTESIAN_POINT('Ctrl Pts',(82.0905084791347,0.,17.5470232192685));
#1497=CARTESIAN_POINT('Ctrl Pts',(79.9737866068371,0.,5.83531880754514));
#1498=CARTESIAN_POINT('Ctrl Pts',(79.9737866068371,79.9737866068371,5.83531880754514));
#1499=CARTESIAN_POINT('Ctrl Pts',(0.,79.9737866068371,5.83531880754514));
#1500=CARTESIAN_POINT('Ctrl Pts',(-79.9737866068371,79.9737866068371,5.83531880754515));
#1501=CARTESIAN_POINT('Ctrl Pts',(-79.9737866068371,0.,5.83531880754515));
#1502=CARTESIAN_POINT('Ctrl Pts',(-79.9737866068371,-79.9737866068371,5.83531880754515));
#1503=CARTESIAN_POINT('Ctrl Pts',(0.,-79.9737866068371,5.83531880754514));
#1504=CARTESIAN_POINT('Ctrl Pts',(79.9737866068371,-79.9737866068371,5.83531880754514));
#1505=CARTESIAN_POINT('Ctrl Pts',(79.9737866068371,0.,5.83531880754514));
#1506=CARTESIAN_POINT('Ctrl Pts',(77.0311311536128,0.,-3.83638228014931));
#1507=CARTESIAN_POINT('Ctrl Pts',(77.0311311536127,77.0311311536127,-3.83638228014931));
#1508=CARTESIAN_POINT('Ctrl Pts',(0.,77.0311311536128,-3.83638228014931));
#1509=CARTESIAN_POINT('Ctrl Pts',(-77.0311311536127,77.0311311536127,-3.83638228014931));
#1510=CARTESIAN_POINT('Ctrl Pts',(-77.0311311536128,0.,-3.83638228014931));
#1511=CARTESIAN_POINT('Ctrl Pts',(-77.0311311536127,-77.0311311536127,-3.83638228014931));
#1512=CARTESIAN_POINT('Ctrl Pts',(0.,-77.0311311536128,-3.83638228014931));
#1513=CARTESIAN_POINT('Ctrl Pts',(77.0311311536127,-77.0311311536127,-3.83638228014931));
#1514=CARTESIAN_POINT('Ctrl Pts',(77.0311311536128,0.,-3.83638228014931));
#1515=CARTESIAN_POINT('Ctrl Pts',(73.2325575977592,0.,-11.3940201855691));
#1516=CARTESIAN_POINT('Ctrl Pts',(73.2325575977592,73.2325575977592,-11.3940201855691));
#1517=CARTESIAN_POINT('Ctrl Pts',(0.,73.2325575977592,-11.3940201855691));
#1518=CARTESIAN_POINT('Ctrl Pts',(-73.2325575977592,73.2325575977592,-11.3940201855691));
#1519=CARTESIAN_POINT('Ctrl Pts',(-73.2325575977592,0.,-11.3940201855691));
#1520=CARTESIAN_POINT('Ctrl Pts',(-73.2325575977592,-73.2325575977592,-11.3940201855691));
#1521=CARTESIAN_POINT('Ctrl Pts',(0.,-73.2325575977592,-11.3940201855691));
#1522=CARTESIAN_POINT('Ctrl Pts',(73.2325575977592,-73.2325575977592,-11.3940201855691));
#1523=CARTESIAN_POINT('Ctrl Pts',(73.2325575977592,0.,-11.3940201855691));
#1524=CARTESIAN_POINT('Ctrl Pts',(69.532560212201,0.,-15.8071604356128));
#1525=CARTESIAN_POINT('Ctrl Pts',(69.532560212201,69.532560212201,-15.8071604356128));
#1526=CARTESIAN_POINT('Ctrl Pts',(0.,69.532560212201,-15.8071604356128));
#1527=CARTESIAN_POINT('Ctrl Pts',(-69.532560212201,69.532560212201,-15.8071604356128));
#1528=CARTESIAN_POINT('Ctrl Pts',(-69.532560212201,0.,-15.8071604356128));
#1529=CARTESIAN_POINT('Ctrl Pts',(-69.532560212201,-69.532560212201,-15.8071604356128));
#1530=CARTESIAN_POINT('Ctrl Pts',(0.,-69.532560212201,-15.8071604356128));
#1531=CARTESIAN_POINT('Ctrl Pts',(69.532560212201,-69.532560212201,-15.8071604356128));
#1532=CARTESIAN_POINT('Ctrl Pts',(69.532560212201,0.,-15.8071604356128));
#1533=CARTESIAN_POINT('Ctrl Pts',(66.4021541700938,0.,-18.2391804992221));
#1534=CARTESIAN_POINT('Ctrl Pts',(66.4021541700938,66.4021541700938,-18.2391804992221));
#1535=CARTESIAN_POINT('Ctrl Pts',(0.,66.4021541700938,-18.2391804992221));
#1536=CARTESIAN_POINT('Ctrl Pts',(-66.4021541700938,66.4021541700938,-18.2391804992221));
#1537=CARTESIAN_POINT('Ctrl Pts',(-66.4021541700938,0.,-18.2391804992221));
#1538=CARTESIAN_POINT('Ctrl Pts',(-66.4021541700938,-66.4021541700938,-18.2391804992221));
#1539=CARTESIAN_POINT('Ctrl Pts',(0.,-66.4021541700938,-18.2391804992221));
#1540=CARTESIAN_POINT('Ctrl Pts',(66.4021541700938,-66.4021541700938,-18.2391804992221));
#1541=CARTESIAN_POINT('Ctrl Pts',(66.4021541700938,0.,-18.2391804992221));
#1542=CARTESIAN_POINT('Ctrl Pts',(64.1599362094511,0.,-19.4769940212313));
#1543=CARTESIAN_POINT('Ctrl Pts',(64.159936209451,64.159936209451,-19.4769940212313));
#1544=CARTESIAN_POINT('Ctrl Pts',(0.,64.1599362094511,-19.4769940212313));
#1545=CARTESIAN_POINT('Ctrl Pts',(-64.159936209451,64.159936209451,-19.4769940212313));
#1546=CARTESIAN_POINT('Ctrl Pts',(-64.1599362094511,0.,-19.4769940212313));
#1547=CARTESIAN_POINT('Ctrl Pts',(-64.159936209451,-64.159936209451,-19.4769940212313));
#1548=CARTESIAN_POINT('Ctrl Pts',(0.,-64.1599362094511,-19.4769940212313));
#1549=CARTESIAN_POINT('Ctrl Pts',(64.159936209451,-64.159936209451,-19.4769940212313));
#1550=CARTESIAN_POINT('Ctrl Pts',(64.1599362094511,0.,-19.4769940212313));
#1551=CARTESIAN_POINT('Ctrl Pts',(63.,0.,-20.));
#1552=CARTESIAN_POINT('Ctrl Pts',(63.,63.,-20.));
#1553=CARTESIAN_POINT('Ctrl Pts',(0.,63.,-20.));
#1554=CARTESIAN_POINT('Ctrl Pts',(-63.,63.,-20.));
#1555=CARTESIAN_POINT('Ctrl Pts',(-63.,0.,-20.));
#1556=CARTESIAN_POINT('Ctrl Pts',(-63.,-63.,-20.));
#1557=CARTESIAN_POINT('Ctrl Pts',(0.,-63.,-20.));
#1558=CARTESIAN_POINT('Ctrl Pts',(63.,-63.,-20.));
#1559=CARTESIAN_POINT('Ctrl Pts',(63.,0.,-20.));
#1560=CARTESIAN_POINT('',(83.,0.,100.));
#1561=CARTESIAN_POINT('Ctrl Pts',(83.,0.,100.));
#1562=CARTESIAN_POINT('Ctrl Pts',(83.2131628514989,0.,96.0855268217796));
#1563=CARTESIAN_POINT('Ctrl Pts',(83.59323265035,0.,88.3708296015996));
#1564=CARTESIAN_POINT('Ctrl Pts',(84.0245716176907,0.,77.1415262859254));
#1565=CARTESIAN_POINT('Ctrl Pts',(84.3175768453063,0.,62.8659239783664));
#1566=CARTESIAN_POINT('Ctrl Pts',(84.1754050395798,0.,46.2772067021079));
#1567=CARTESIAN_POINT('Ctrl Pts',(83.4610213411844,0.,31.1018163447878));
#1568=CARTESIAN_POINT('Ctrl Pts',(82.0905084791347,0.,17.5470232192685));
#1569=CARTESIAN_POINT('Ctrl Pts',(79.9737866068371,0.,5.83531880754514));
#1570=CARTESIAN_POINT('Ctrl Pts',(77.0311311536128,0.,-3.83638228014931));
#1571=CARTESIAN_POINT('Ctrl Pts',(73.2325575977592,0.,-11.3940201855691));
#1572=CARTESIAN_POINT('Ctrl Pts',(69.532560212201,0.,-15.8071604356128));
#1573=CARTESIAN_POINT('Ctrl Pts',(66.4021541700938,0.,-18.2391804992221));
#1574=CARTESIAN_POINT('Ctrl Pts',(64.1599362094511,0.,-19.4769940212313));
#1575=CARTESIAN_POINT('Ctrl Pts',(63.,0.,-20.));
#1576=CARTESIAN_POINT('Origin',(0.,0.,100.));
#1577=CARTESIAN_POINT('Origin',(80.,0.,100.));
#1578=CARTESIAN_POINT('',(80.,0.,100.));
#1579=CARTESIAN_POINT('Origin',(0.,0.,100.));
#1580=CARTESIAN_POINT('Ctrl Pts',(64.5891468600263,0.,-17.1314086200016));
#1581=CARTESIAN_POINT('Ctrl Pts',(64.5891468600263,64.5891468600263,-17.1314086200016));
#1582=CARTESIAN_POINT('Ctrl Pts',(0.,64.5891468600263,-17.1314086200016));
#1583=CARTESIAN_POINT('Ctrl Pts',(-64.5891468600263,64.5891468600263,-17.1314086200016));
#1584=CARTESIAN_POINT('Ctrl Pts',(-64.5891468600263,0.,-17.1314086200016));
#1585=CARTESIAN_POINT('Ctrl Pts',(-64.5891468600263,-64.5891468600263,-17.1314086200016));
#1586=CARTESIAN_POINT('Ctrl Pts',(0.,-64.5891468600263,-17.1314086200016));
#1587=CARTESIAN_POINT('Ctrl Pts',(64.5891468600263,-64.5891468600263,-17.1314086200016));
#1588=CARTESIAN_POINT('Ctrl Pts',(64.5891468600263,0.,-17.1314086200016));
#1589=CARTESIAN_POINT('Ctrl Pts',(64.7553726970831,0.,-16.9946996807193));
#1590=CARTESIAN_POINT('Ctrl Pts',(64.7553726970831,64.7553726970831,-16.9946996807193));
#1591=CARTESIAN_POINT('Ctrl Pts',(0.,64.7553726970831,-16.9946996807193));
#1592=CARTESIAN_POINT('Ctrl Pts',(-64.7553726970831,64.7553726970831,-16.9946996807193));
#1593=CARTESIAN_POINT('Ctrl Pts',(-64.7553726970831,0.,-16.9946996807193));
#1594=CARTESIAN_POINT('Ctrl Pts',(-64.7553726970831,-64.7553726970831,-16.9946996807193));
#1595=CARTESIAN_POINT('Ctrl Pts',(0.,-64.7553726970831,-16.9946996807193));
#1596=CARTESIAN_POINT('Ctrl Pts',(64.7553726970831,-64.7553726970831,-16.9946996807193));
#1597=CARTESIAN_POINT('Ctrl Pts',(64.7553726970831,0.,-16.9946996807193));
#1598=CARTESIAN_POINT('Ctrl Pts',(65.94324375403,0.,-15.9934148290887));
#1599=CARTESIAN_POINT('Ctrl Pts',(65.9432437540299,65.9432437540299,-15.9934148290887));
#1600=CARTESIAN_POINT('Ctrl Pts',(0.,65.94324375403,-15.9934148290887));
#1601=CARTESIAN_POINT('Ctrl Pts',(-65.9432437540299,65.9432437540299,-15.9934148290887));
#1602=CARTESIAN_POINT('Ctrl Pts',(-65.94324375403,0.,-15.9934148290887));
#1603=CARTESIAN_POINT('Ctrl Pts',(-65.9432437540299,-65.9432437540299,-15.9934148290887));
#1604=CARTESIAN_POINT('Ctrl Pts',(0.,-65.94324375403,-15.9934148290887));
#1605=CARTESIAN_POINT('Ctrl Pts',(65.9432437540299,-65.9432437540299,-15.9934148290887));
#1606=CARTESIAN_POINT('Ctrl Pts',(65.94324375403,0.,-15.9934148290887));
#1607=CARTESIAN_POINT('Ctrl Pts',(68.0546697741919,0.,-13.8852773805294));
#1608=CARTESIAN_POINT('Ctrl Pts',(68.0546697741918,68.0546697741918,-13.8852773805294));
#1609=CARTESIAN_POINT('Ctrl Pts',(0.,68.0546697741919,-13.8852773805294));
#1610=CARTESIAN_POINT('Ctrl Pts',(-68.0546697741918,68.0546697741918,-13.8852773805294));
#1611=CARTESIAN_POINT('Ctrl Pts',(-68.0546697741919,0.,-13.8852773805294));
#1612=CARTESIAN_POINT('Ctrl Pts',(-68.0546697741918,-68.0546697741918,-13.8852773805294));
#1613=CARTESIAN_POINT('Ctrl Pts',(0.,-68.0546697741919,-13.8852773805294));
#1614=CARTESIAN_POINT('Ctrl Pts',(68.0546697741918,-68.0546697741918,-13.8852773805294));
#1615=CARTESIAN_POINT('Ctrl Pts',(68.0546697741919,0.,-13.8852773805294));
#1616=CARTESIAN_POINT('Ctrl Pts',(70.8695518596329,0.,-10.1266570798117));
#1617=CARTESIAN_POINT('Ctrl Pts',(70.8695518596329,70.8695518596329,-10.1266570798117));
#1618=CARTESIAN_POINT('Ctrl Pts',(0.,70.8695518596329,-10.1266570798117));
#1619=CARTESIAN_POINT('Ctrl Pts',(-70.8695518596329,70.8695518596329,-10.1266570798117));
#1620=CARTESIAN_POINT('Ctrl Pts',(-70.8695518596329,0.,-10.1266570798117));
#1621=CARTESIAN_POINT('Ctrl Pts',(-70.8695518596329,-70.8695518596329,-10.1266570798117));
#1622=CARTESIAN_POINT('Ctrl Pts',(0.,-70.8695518596329,-10.1266570798117));
#1623=CARTESIAN_POINT('Ctrl Pts',(70.8695518596329,-70.8695518596329,-10.1266570798117));
#1624=CARTESIAN_POINT('Ctrl Pts',(70.8695518596329,0.,-10.1266570798117));
#1625=CARTESIAN_POINT('Ctrl Pts',(74.0311311536048,0.,-3.83638228014931));
#1626=CARTESIAN_POINT('Ctrl Pts',(74.0311311536047,74.0311311536047,-3.83638228014931));
#1627=CARTESIAN_POINT('Ctrl Pts',(0.,74.0311311536048,-3.83638228014931));
#1628=CARTESIAN_POINT('Ctrl Pts',(-74.0311311536047,74.0311311536047,-3.83638228014931));
#1629=CARTESIAN_POINT('Ctrl Pts',(-74.0311311536048,0.,-3.83638228014931));
#1630=CARTESIAN_POINT('Ctrl Pts',(-74.0311311536047,-74.0311311536047,-3.83638228014931));
#1631=CARTESIAN_POINT('Ctrl Pts',(0.,-74.0311311536048,-3.83638228014931));
#1632=CARTESIAN_POINT('Ctrl Pts',(74.0311311536047,-74.0311311536047,-3.83638228014931));
#1633=CARTESIAN_POINT('Ctrl Pts',(74.0311311536048,0.,-3.83638228014931));
#1634=CARTESIAN_POINT('Ctrl Pts',(76.9737866068481,0.,5.83531880754514));
#1635=CARTESIAN_POINT('Ctrl Pts',(76.9737866068481,76.9737866068481,5.83531880754514));
#1636=CARTESIAN_POINT('Ctrl Pts',(0.,76.9737866068481,5.83531880754514));
#1637=CARTESIAN_POINT('Ctrl Pts',(-76.9737866068481,76.9737866068481,5.83531880754515));
#1638=CARTESIAN_POINT('Ctrl Pts',(-76.9737866068481,0.,5.83531880754515));
#1639=CARTESIAN_POINT('Ctrl Pts',(-76.9737866068481,-76.9737866068481,5.83531880754515));
#1640=CARTESIAN_POINT('Ctrl Pts',(0.,-76.9737866068481,5.83531880754514));
#1641=CARTESIAN_POINT('Ctrl Pts',(76.9737866068481,-76.9737866068481,5.83531880754514));
#1642=CARTESIAN_POINT('Ctrl Pts',(76.9737866068481,0.,5.83531880754514));
#1643=CARTESIAN_POINT('Ctrl Pts',(79.0905084791693,0.,17.5470232192685));
#1644=CARTESIAN_POINT('Ctrl Pts',(79.0905084791693,79.0905084791693,17.5470232192685));
#1645=CARTESIAN_POINT('Ctrl Pts',(0.,79.0905084791693,17.5470232192685));
#1646=CARTESIAN_POINT('Ctrl Pts',(-79.0905084791693,79.0905084791693,17.5470232192685));
#1647=CARTESIAN_POINT('Ctrl Pts',(-79.0905084791693,0.,17.5470232192685));
#1648=CARTESIAN_POINT('Ctrl Pts',(-79.0905084791693,-79.0905084791693,17.5470232192685));
#1649=CARTESIAN_POINT('Ctrl Pts',(0.,-79.0905084791693,17.5470232192685));
#1650=CARTESIAN_POINT('Ctrl Pts',(79.0905084791693,-79.0905084791693,17.5470232192685));
#1651=CARTESIAN_POINT('Ctrl Pts',(79.0905084791693,0.,17.5470232192685));
#1652=CARTESIAN_POINT('Ctrl Pts',(80.4610213412417,0.,31.1018163447878));
#1653=CARTESIAN_POINT('Ctrl Pts',(80.4610213412416,80.4610213412416,31.1018163447878));
#1654=CARTESIAN_POINT('Ctrl Pts',(0.,80.4610213412417,31.1018163447878));
#1655=CARTESIAN_POINT('Ctrl Pts',(-80.4610213412416,80.4610213412416,31.1018163447878));
#1656=CARTESIAN_POINT('Ctrl Pts',(-80.4610213412417,0.,31.1018163447878));
#1657=CARTESIAN_POINT('Ctrl Pts',(-80.4610213412416,-80.4610213412416,31.1018163447878));
#1658=CARTESIAN_POINT('Ctrl Pts',(0.,-80.4610213412417,31.1018163447878));
#1659=CARTESIAN_POINT('Ctrl Pts',(80.4610213412416,-80.4610213412416,31.1018163447878));
#1660=CARTESIAN_POINT('Ctrl Pts',(80.4610213412417,0.,31.1018163447878));
#1661=CARTESIAN_POINT('Ctrl Pts',(81.1754050396521,0.,46.2772067021079));
#1662=CARTESIAN_POINT('Ctrl Pts',(81.1754050396521,81.1754050396521,46.2772067021079));
#1663=CARTESIAN_POINT('Ctrl Pts',(0.,81.1754050396521,46.2772067021079));
#1664=CARTESIAN_POINT('Ctrl Pts',(-81.1754050396521,81.1754050396521,46.2772067021079));
#1665=CARTESIAN_POINT('Ctrl Pts',(-81.1754050396521,0.,46.2772067021079));
#1666=CARTESIAN_POINT('Ctrl Pts',(-81.1754050396521,-81.1754050396521,46.2772067021079));
#1667=CARTESIAN_POINT('Ctrl Pts',(0.,-81.1754050396521,46.2772067021079));
#1668=CARTESIAN_POINT('Ctrl Pts',(81.1754050396521,-81.1754050396521,46.2772067021079));
#1669=CARTESIAN_POINT('Ctrl Pts',(81.1754050396521,0.,46.2772067021079));
#1670=CARTESIAN_POINT('Ctrl Pts',(81.3175768453792,0.,62.8659239783664));
#1671=CARTESIAN_POINT('Ctrl Pts',(81.3175768453792,81.3175768453792,62.8659239783664));
#1672=CARTESIAN_POINT('Ctrl Pts',(0.,81.3175768453792,62.8659239783664));
#1673=CARTESIAN_POINT('Ctrl Pts',(-81.3175768453792,81.3175768453792,62.8659239783664));
#1674=CARTESIAN_POINT('Ctrl Pts',(-81.3175768453792,0.,62.8659239783664));
#1675=CARTESIAN_POINT('Ctrl Pts',(-81.3175768453792,-81.3175768453792,62.8659239783664));
#1676=CARTESIAN_POINT('Ctrl Pts',(0.,-81.3175768453792,62.8659239783664));
#1677=CARTESIAN_POINT('Ctrl Pts',(81.3175768453792,-81.3175768453792,62.8659239783664));
#1678=CARTESIAN_POINT('Ctrl Pts',(81.3175768453792,0.,62.8659239783664));
#1679=CARTESIAN_POINT('Ctrl Pts',(81.0245716177475,0.,77.1415262859254));
#1680=CARTESIAN_POINT('Ctrl Pts',(81.0245716177475,81.0245716177475,77.1415262859254));
#1681=CARTESIAN_POINT('Ctrl Pts',(0.,81.0245716177475,77.1415262859254));
#1682=CARTESIAN_POINT('Ctrl Pts',(-81.0245716177475,81.0245716177475,77.1415262859254));
#1683=CARTESIAN_POINT('Ctrl Pts',(-81.0245716177475,0.,77.1415262859254));
#1684=CARTESIAN_POINT('Ctrl Pts',(-81.0245716177475,-81.0245716177475,77.1415262859254));
#1685=CARTESIAN_POINT('Ctrl Pts',(0.,-81.0245716177475,77.1415262859254));
#1686=CARTESIAN_POINT('Ctrl Pts',(81.0245716177475,-81.0245716177475,77.1415262859254));
#1687=CARTESIAN_POINT('Ctrl Pts',(81.0245716177475,0.,77.1415262859254));
#1688=CARTESIAN_POINT('Ctrl Pts',(80.5932326503832,0.,88.3708296015996));
#1689=CARTESIAN_POINT('Ctrl Pts',(80.5932326503832,80.5932326503832,88.3708296015996));
#1690=CARTESIAN_POINT('Ctrl Pts',(0.,80.5932326503832,88.3708296015996));
#1691=CARTESIAN_POINT('Ctrl Pts',(-80.5932326503832,80.5932326503832,88.3708296015996));
#1692=CARTESIAN_POINT('Ctrl Pts',(-80.5932326503832,0.,88.3708296015996));
#1693=CARTESIAN_POINT('Ctrl Pts',(-80.5932326503832,-80.5932326503832,88.3708296015996));
#1694=CARTESIAN_POINT('Ctrl Pts',(0.,-80.5932326503832,88.3708296015996));
#1695=CARTESIAN_POINT('Ctrl Pts',(80.5932326503832,-80.5932326503832,88.3708296015996));
#1696=CARTESIAN_POINT('Ctrl Pts',(80.5932326503832,0.,88.3708296015996));
#1697=CARTESIAN_POINT('Ctrl Pts',(80.2131628515108,0.,96.0855268217796));
#1698=CARTESIAN_POINT('Ctrl Pts',(80.2131628515108,80.2131628515108,96.0855268217796));
#1699=CARTESIAN_POINT('Ctrl Pts',(0.,80.2131628515108,96.0855268217796));
#1700=CARTESIAN_POINT('Ctrl Pts',(-80.2131628515108,80.2131628515108,96.0855268217796));
#1701=CARTESIAN_POINT('Ctrl Pts',(-80.2131628515108,0.,96.0855268217796));
#1702=CARTESIAN_POINT('Ctrl Pts',(-80.2131628515108,-80.2131628515108,96.0855268217796));
#1703=CARTESIAN_POINT('Ctrl Pts',(0.,-80.2131628515108,96.0855268217796));
#1704=CARTESIAN_POINT('Ctrl Pts',(80.2131628515108,-80.2131628515108,96.0855268217796));
#1705=CARTESIAN_POINT('Ctrl Pts',(80.2131628515108,0.,96.0855268217796));
#1706=CARTESIAN_POINT('Ctrl Pts',(80.,0.,100.));
#1707=CARTESIAN_POINT('Ctrl Pts',(80.,80.,100.));
#1708=CARTESIAN_POINT('Ctrl Pts',(0.,80.,100.));
#1709=CARTESIAN_POINT('Ctrl Pts',(-80.,80.,100.));
#1710=CARTESIAN_POINT('Ctrl Pts',(-80.,0.,100.));
#1711=CARTESIAN_POINT('Ctrl Pts',(-80.,-80.,100.));
#1712=CARTESIAN_POINT('Ctrl Pts',(0.,-80.,100.));
#1713=CARTESIAN_POINT('Ctrl Pts',(80.,-80.,100.));
#1714=CARTESIAN_POINT('Ctrl Pts',(80.,0.,100.));
#1715=CARTESIAN_POINT('',(64.5891468600263,0.,-17.1314086200016));
#1716=CARTESIAN_POINT('Ctrl Pts',(80.,0.,100.));
#1717=CARTESIAN_POINT('Ctrl Pts',(80.2131628515108,0.,96.0855268217796));
#1718=CARTESIAN_POINT('Ctrl Pts',(80.5932326503832,0.,88.3708296015996));
#1719=CARTESIAN_POINT('Ctrl Pts',(81.0245716177475,0.,77.1415262859254));
#1720=CARTESIAN_POINT('Ctrl Pts',(81.3175768453792,0.,62.8659239783664));
#1721=CARTESIAN_POINT('Ctrl Pts',(81.1754050396521,0.,46.2772067021079));
#1722=CARTESIAN_POINT('Ctrl Pts',(80.4610213412417,0.,31.1018163447878));
#1723=CARTESIAN_POINT('Ctrl Pts',(79.0905084791693,0.,17.5470232192685));
#1724=CARTESIAN_POINT('Ctrl Pts',(76.9737866068481,0.,5.83531880754514));
#1725=CARTESIAN_POINT('Ctrl Pts',(74.0311311536048,0.,-3.83638228014931));
#1726=CARTESIAN_POINT('Ctrl Pts',(70.8695518596329,0.,-10.1266570798117));
#1727=CARTESIAN_POINT('Ctrl Pts',(68.0546697741919,0.,-13.8852773805294));
#1728=CARTESIAN_POINT('Ctrl Pts',(65.94324375403,0.,-15.9934148290887));
#1729=CARTESIAN_POINT('Ctrl Pts',(64.7553726970831,0.,-16.9946996807193));
#1730=CARTESIAN_POINT('Ctrl Pts',(64.5891468600263,0.,-17.1314086200016));
#1731=CARTESIAN_POINT('Origin',(0.,0.,-17.1314086200016));
#1732=CARTESIAN_POINT('Origin',(1.04899623656852E-15,0.,-17.1314086200016));
#1733=UNCERTAINTY_MEASURE_WITH_UNIT(LENGTH_MEASURE(0.01),#1737,
'DISTANCE_ACCURACY_VALUE',
'Maximum model space distance between geometric entities at asserted c
onnectivities');
#1734=UNCERTAINTY_MEASURE_WITH_UNIT(LENGTH_MEASURE(0.01),#1737,
'DISTANCE_ACCURACY_VALUE',
'Maximum model space distance between geometric entities at asserted c
onnectivities');
#1735=(
GEOMETRIC_REPRESENTATION_CONTEXT(3)
GLOBAL_UNCERTAINTY_ASSIGNED_CONTEXT((#1733))
GLOBAL_UNIT_ASSIGNED_CONTEXT((#1737,#1739,#1740))
REPRESENTATION_CONTEXT('','3D')
);
#1736=(
GEOMETRIC_REPRESENTATION_CONTEXT(3)
GLOBAL_UNCERTAINTY_ASSIGNED_CONTEXT((#1734))
GLOBAL_UNIT_ASSIGNED_CONTEXT((#1737,#1739,#1740))
REPRESENTATION_CONTEXT('','3D')
);
#1737=(
LENGTH_UNIT()
NAMED_UNIT(*)
SI_UNIT(.MILLI.,.METRE.)
);
#1738=(
LENGTH_UNIT()
NAMED_UNIT(*)
SI_UNIT($,.METRE.)
);
#1739=(
NAMED_UNIT(*)
PLANE_ANGLE_UNIT()
SI_UNIT($,.RADIAN.)
);
#1740=(
NAMED_UNIT(*)
SI_UNIT($,.STERADIAN.)
SOLID_ANGLE_UNIT()
);
#1741=SHAPE_DEFINITION_REPRESENTATION(#1742,#1743);
#1742=PRODUCT_DEFINITION_SHAPE('',$,#1745);
#1743=SHAPE_REPRESENTATION('',(#909),#1735);
#1744=PRODUCT_DEFINITION_CONTEXT('part definition',#1749,'design');
#1745=PRODUCT_DEFINITION('Pot','Pot v13',#1746,#1744);
#1746=PRODUCT_DEFINITION_FORMATION('',$,#1751);
#1747=PRODUCT_RELATED_PRODUCT_CATEGORY('Pot v13','Pot v13',(#1751));
#1748=APPLICATION_PROTOCOL_DEFINITION('international standard',
'automotive_design',2009,#1749);
#1749=APPLICATION_CONTEXT(
'Core Data for Automotive Mechanical Design Process');
#1750=PRODUCT_CONTEXT('part definition',#1749,'mechanical');
#1751=PRODUCT('Pot','Pot v13',$,(#1750));
#1752=PRESENTATION_STYLE_ASSIGNMENT((#1753));
#1753=SURFACE_STYLE_USAGE(.BOTH.,#1754);
#1754=SURFACE_SIDE_STYLE('',(#1755));
#1755=SURFACE_STYLE_FILL_AREA(#1756);
#1756=FILL_AREA_STYLE('Steel - Satin',(#1757));
#1757=FILL_AREA_STYLE_COLOUR('Steel - Satin',#1758);
#1758=COLOUR_RGB('Steel - Satin',0.627450980392157,0.627450980392157,0.627450980392157);
ENDSEC;
END-ISO-10303-21;
