ISO-10303-21;
HEADER;
/* Generated by software containing ST-Developer
 * from STEP Tools, Inc. (www.steptools.com) 
 */

FILE_DESCRIPTION(
/* description */ (''),
/* implementation_level */ '2;1');

FILE_NAME(
/* name */ 'Bearing_v1.step',
/* time_stamp */ '2026-08-21T09:14:30-04:00',
/* author */ (''),
/* organization */ (''),
/* preprocessor_version */ 'ST-DEVELOPER v20.1',
/* originating_system */ 'Autodesk Translation Framework v15.8.0.0',
/* authorisation */ '');

FILE_SCHEMA (('AUTOMOTIVE_DESIGN { 1 0 10303 214 3 1 1 }'));
ENDSEC;

DATA;
#10=MECHANICAL_DESIGN_GEOMETRIC_PRESENTATION_REPRESENTATION('',(#152,#153,
#154),#307);
#11=SHAPE_REPRESENTATION_RELATIONSHIP('SRR','None',#314,#12);
#12=ADVANCED_BREP_SHAPE_REPRESENTATION('',(#13),#306);
#13=MANIFOLD_SOLID_BREP('Body1',#167);
#14=LINE('',#275,#20);
#15=LINE('',#284,#21);
#16=LINE('',#286,#22);
#17=LINE('',#291,#23);
#18=LINE('',#298,#24);
#19=LINE('',#302,#25);
#20=VECTOR('',#223,2.);
#21=VECTOR('',#234,1.5);
#22=VECTOR('',#237,2.);
#23=VECTOR('',#244,3.4);
#24=VECTOR('',#253,3.4);
#25=VECTOR('',#258,4.);
#26=CYLINDRICAL_SURFACE('',#187,2.);
#27=CYLINDRICAL_SURFACE('',#192,1.5);
#28=CYLINDRICAL_SURFACE('',#194,2.);
#29=CYLINDRICAL_SURFACE('',#196,3.4);
#30=CYLINDRICAL_SURFACE('',#201,3.4);
#31=CYLINDRICAL_SURFACE('',#202,4.);
#32=FACE_BOUND('',#51,.T.);
#33=FACE_BOUND('',#53,.T.);
#34=FACE_BOUND('',#56,.T.);
#35=FACE_BOUND('',#60,.T.);
#36=FACE_BOUND('',#63,.T.);
#37=FACE_BOUND('',#67,.T.);
#38=FACE_OUTER_BOUND('',#50,.T.);
#39=FACE_OUTER_BOUND('',#52,.T.);
#40=FACE_OUTER_BOUND('',#54,.T.);
#41=FACE_OUTER_BOUND('',#55,.T.);
#42=FACE_OUTER_BOUND('',#57,.T.);
#43=FACE_OUTER_BOUND('',#58,.T.);
#44=FACE_OUTER_BOUND('',#59,.T.);
#45=FACE_OUTER_BOUND('',#61,.T.);
#46=FACE_OUTER_BOUND('',#62,.T.);
#47=FACE_OUTER_BOUND('',#64,.T.);
#48=FACE_OUTER_BOUND('',#65,.T.);
#49=FACE_OUTER_BOUND('',#66,.T.);
#50=EDGE_LOOP('',(#110));
#51=EDGE_LOOP('',(#111));
#52=EDGE_LOOP('',(#112));
#53=EDGE_LOOP('',(#113));
#54=EDGE_LOOP('',(#114,#115,#116,#117));
#55=EDGE_LOOP('',(#118));
#56=EDGE_LOOP('',(#119));
#57=EDGE_LOOP('',(#120,#121,#122,#123));
#58=EDGE_LOOP('',(#124,#125,#126,#127));
#59=EDGE_LOOP('',(#128));
#60=EDGE_LOOP('',(#129));
#61=EDGE_LOOP('',(#130,#131,#132,#133));
#62=EDGE_LOOP('',(#134));
#63=EDGE_LOOP('',(#135));
#64=EDGE_LOOP('',(#136,#137,#138,#139));
#65=EDGE_LOOP('',(#140,#141,#142,#143));
#66=EDGE_LOOP('',(#144));
#67=EDGE_LOOP('',(#145));
#68=CIRCLE('',#182,3.4);
#69=CIRCLE('',#183,2.);
#70=CIRCLE('',#185,3.4);
#71=CIRCLE('',#186,2.);
#72=CIRCLE('',#188,2.);
#73=CIRCLE('',#190,2.);
#74=CIRCLE('',#191,1.5);
#75=CIRCLE('',#193,1.5);
#76=CIRCLE('',#197,3.4);
#77=CIRCLE('',#199,4.);
#78=CIRCLE('',#200,3.4);
#79=CIRCLE('',#203,4.);
#80=VERTEX_POINT('',#263);
#81=VERTEX_POINT('',#265);
#82=VERTEX_POINT('',#268);
#83=VERTEX_POINT('',#270);
#84=VERTEX_POINT('',#273);
#85=VERTEX_POINT('',#277);
#86=VERTEX_POINT('',#279);
#87=VERTEX_POINT('',#282);
#88=VERTEX_POINT('',#289);
#89=VERTEX_POINT('',#293);
#90=VERTEX_POINT('',#295);
#91=VERTEX_POINT('',#300);
#92=EDGE_CURVE('',#80,#80,#68,.T.);
#93=EDGE_CURVE('',#81,#81,#69,.T.);
#94=EDGE_CURVE('',#82,#82,#70,.T.);
#95=EDGE_CURVE('',#83,#83,#71,.T.);
#96=EDGE_CURVE('',#84,#84,#72,.T.);
#97=EDGE_CURVE('',#84,#83,#14,.T.);
#98=EDGE_CURVE('',#85,#85,#73,.T.);
#99=EDGE_CURVE('',#86,#86,#74,.T.);
#100=EDGE_CURVE('',#87,#87,#75,.T.);
#101=EDGE_CURVE('',#87,#86,#15,.T.);
#102=EDGE_CURVE('',#81,#85,#16,.T.);
#103=EDGE_CURVE('',#88,#88,#76,.T.);
#104=EDGE_CURVE('',#88,#82,#17,.T.);
#105=EDGE_CURVE('',#89,#89,#77,.T.);
#106=EDGE_CURVE('',#90,#90,#78,.T.);
#107=EDGE_CURVE('',#80,#90,#18,.T.);
#108=EDGE_CURVE('',#91,#91,#79,.T.);
#109=EDGE_CURVE('',#91,#89,#19,.T.);
#110=ORIENTED_EDGE('',*,*,#92,.F.);
#111=ORIENTED_EDGE('',*,*,#93,.F.);
#112=ORIENTED_EDGE('',*,*,#94,.F.);
#113=ORIENTED_EDGE('',*,*,#95,.F.);
#114=ORIENTED_EDGE('',*,*,#96,.F.);
#115=ORIENTED_EDGE('',*,*,#97,.T.);
#116=ORIENTED_EDGE('',*,*,#95,.T.);
#117=ORIENTED_EDGE('',*,*,#97,.F.);
#118=ORIENTED_EDGE('',*,*,#98,.T.);
#119=ORIENTED_EDGE('',*,*,#99,.T.);
#120=ORIENTED_EDGE('',*,*,#100,.F.);
#121=ORIENTED_EDGE('',*,*,#101,.T.);
#122=ORIENTED_EDGE('',*,*,#99,.F.);
#123=ORIENTED_EDGE('',*,*,#101,.F.);
#124=ORIENTED_EDGE('',*,*,#93,.T.);
#125=ORIENTED_EDGE('',*,*,#102,.T.);
#126=ORIENTED_EDGE('',*,*,#98,.F.);
#127=ORIENTED_EDGE('',*,*,#102,.F.);
#128=ORIENTED_EDGE('',*,*,#96,.T.);
#129=ORIENTED_EDGE('',*,*,#100,.T.);
#130=ORIENTED_EDGE('',*,*,#103,.F.);
#131=ORIENTED_EDGE('',*,*,#104,.T.);
#132=ORIENTED_EDGE('',*,*,#94,.T.);
#133=ORIENTED_EDGE('',*,*,#104,.F.);
#134=ORIENTED_EDGE('',*,*,#105,.T.);
#135=ORIENTED_EDGE('',*,*,#106,.T.);
#136=ORIENTED_EDGE('',*,*,#92,.T.);
#137=ORIENTED_EDGE('',*,*,#107,.T.);
#138=ORIENTED_EDGE('',*,*,#106,.F.);
#139=ORIENTED_EDGE('',*,*,#107,.F.);
#140=ORIENTED_EDGE('',*,*,#108,.F.);
#141=ORIENTED_EDGE('',*,*,#109,.T.);
#142=ORIENTED_EDGE('',*,*,#105,.F.);
#143=ORIENTED_EDGE('',*,*,#109,.F.);
#144=ORIENTED_EDGE('',*,*,#108,.T.);
#145=ORIENTED_EDGE('',*,*,#103,.T.);
#146=PLANE('',#181);
#147=PLANE('',#184);
#148=PLANE('',#189);
#149=PLANE('',#195);
#150=PLANE('',#198);
#151=PLANE('',#204);
#152=STYLED_ITEM('',(#325),#155);
#153=STYLED_ITEM('',(#325),#156);
#154=STYLED_ITEM('',(#324),#13);
#155=ADVANCED_FACE('',(#38,#32),#146,.F.);
#156=ADVANCED_FACE('',(#39,#33),#147,.T.);
#157=ADVANCED_FACE('',(#40),#26,.T.);
#158=ADVANCED_FACE('',(#41,#34),#148,.F.);
#159=ADVANCED_FACE('',(#42),#27,.F.);
#160=ADVANCED_FACE('',(#43),#28,.T.);
#161=ADVANCED_FACE('',(#44,#35),#149,.T.);
#162=ADVANCED_FACE('',(#45),#29,.F.);
#163=ADVANCED_FACE('',(#46,#36),#150,.F.);
#164=ADVANCED_FACE('',(#47),#30,.F.);
#165=ADVANCED_FACE('',(#48),#31,.T.);
#166=ADVANCED_FACE('',(#49,#37),#151,.T.);
#167=CLOSED_SHELL('',(#155,#156,#157,#158,#159,#160,#161,#162,#163,#164,
#165,#166));
#168=DERIVED_UNIT_ELEMENT(#170,1.);
#169=DERIVED_UNIT_ELEMENT(#309,-3.);
#170=(
MASS_UNIT()
NAMED_UNIT(*)
SI_UNIT(.KILO.,.GRAM.)
);
#171=DERIVED_UNIT((#168,#169));
#172=MEASURE_REPRESENTATION_ITEM('density measure',
POSITIVE_RATIO_MEASURE(7850.),#171);
#173=PROPERTY_DEFINITION_REPRESENTATION(#178,#175);
#174=PROPERTY_DEFINITION_REPRESENTATION(#179,#176);
#175=REPRESENTATION('material name',(#177),#306);
#176=REPRESENTATION('density',(#172),#306);
#177=DESCRIPTIVE_REPRESENTATION_ITEM('Steel','Steel');
#178=PROPERTY_DEFINITION('material property','material name',#316);
#179=PROPERTY_DEFINITION('material property','density of part',#316);
#180=AXIS2_PLACEMENT_3D('',#261,#205,#206);
#181=AXIS2_PLACEMENT_3D('',#262,#207,#208);
#182=AXIS2_PLACEMENT_3D('',#264,#209,#210);
#183=AXIS2_PLACEMENT_3D('',#266,#211,#212);
#184=AXIS2_PLACEMENT_3D('',#267,#213,#214);
#185=AXIS2_PLACEMENT_3D('',#269,#215,#216);
#186=AXIS2_PLACEMENT_3D('',#271,#217,#218);
#187=AXIS2_PLACEMENT_3D('',#272,#219,#220);
#188=AXIS2_PLACEMENT_3D('',#274,#221,#222);
#189=AXIS2_PLACEMENT_3D('',#276,#224,#225);
#190=AXIS2_PLACEMENT_3D('',#278,#226,#227);
#191=AXIS2_PLACEMENT_3D('',#280,#228,#229);
#192=AXIS2_PLACEMENT_3D('',#281,#230,#231);
#193=AXIS2_PLACEMENT_3D('',#283,#232,#233);
#194=AXIS2_PLACEMENT_3D('',#285,#235,#236);
#195=AXIS2_PLACEMENT_3D('',#287,#238,#239);
#196=AXIS2_PLACEMENT_3D('',#288,#240,#241);
#197=AXIS2_PLACEMENT_3D('',#290,#242,#243);
#198=AXIS2_PLACEMENT_3D('',#292,#245,#246);
#199=AXIS2_PLACEMENT_3D('',#294,#247,#248);
#200=AXIS2_PLACEMENT_3D('',#296,#249,#250);
#201=AXIS2_PLACEMENT_3D('',#297,#251,#252);
#202=AXIS2_PLACEMENT_3D('',#299,#254,#255);
#203=AXIS2_PLACEMENT_3D('',#301,#256,#257);
#204=AXIS2_PLACEMENT_3D('',#303,#259,#260);
#205=DIRECTION('axis',(0.,0.,1.));
#206=DIRECTION('refdir',(1.,0.,0.));
#207=DIRECTION('center_axis',(0.,0.,1.));
#208=DIRECTION('ref_axis',(1.,0.,0.));
#209=DIRECTION('center_axis',(0.,0.,1.));
#210=DIRECTION('ref_axis',(1.,0.,0.));
#211=DIRECTION('center_axis',(0.,0.,-1.));
#212=DIRECTION('ref_axis',(1.,0.,0.));
#213=DIRECTION('center_axis',(0.,0.,1.));
#214=DIRECTION('ref_axis',(1.,0.,0.));
#215=DIRECTION('center_axis',(0.,0.,-1.));
#216=DIRECTION('ref_axis',(1.,0.,0.));
#217=DIRECTION('center_axis',(0.,0.,1.));
#218=DIRECTION('ref_axis',(1.,0.,0.));
#219=DIRECTION('center_axis',(0.,0.,1.));
#220=DIRECTION('ref_axis',(1.,0.,0.));
#221=DIRECTION('center_axis',(0.,0.,1.));
#222=DIRECTION('ref_axis',(1.,0.,0.));
#223=DIRECTION('',(0.,0.,-1.));
#224=DIRECTION('center_axis',(0.,0.,1.));
#225=DIRECTION('ref_axis',(1.,0.,0.));
#226=DIRECTION('center_axis',(0.,0.,-1.));
#227=DIRECTION('ref_axis',(1.,0.,0.));
#228=DIRECTION('center_axis',(0.,0.,1.));
#229=DIRECTION('ref_axis',(1.,0.,0.));
#230=DIRECTION('center_axis',(0.,0.,1.));
#231=DIRECTION('ref_axis',(1.,0.,0.));
#232=DIRECTION('center_axis',(0.,0.,-1.));
#233=DIRECTION('ref_axis',(1.,0.,0.));
#234=DIRECTION('',(0.,0.,-1.));
#235=DIRECTION('center_axis',(0.,0.,1.));
#236=DIRECTION('ref_axis',(1.,0.,0.));
#237=DIRECTION('',(0.,0.,-1.));
#238=DIRECTION('center_axis',(0.,0.,1.));
#239=DIRECTION('ref_axis',(1.,0.,0.));
#240=DIRECTION('center_axis',(0.,0.,1.));
#241=DIRECTION('ref_axis',(1.,0.,0.));
#242=DIRECTION('center_axis',(0.,0.,-1.));
#243=DIRECTION('ref_axis',(1.,0.,0.));
#244=DIRECTION('',(0.,0.,-1.));
#245=DIRECTION('center_axis',(0.,0.,1.));
#246=DIRECTION('ref_axis',(1.,0.,0.));
#247=DIRECTION('center_axis',(0.,0.,-1.));
#248=DIRECTION('ref_axis',(1.,0.,0.));
#249=DIRECTION('center_axis',(0.,0.,1.));
#250=DIRECTION('ref_axis',(1.,0.,0.));
#251=DIRECTION('center_axis',(0.,0.,1.));
#252=DIRECTION('ref_axis',(1.,0.,0.));
#253=DIRECTION('',(0.,0.,-1.));
#254=DIRECTION('center_axis',(0.,0.,1.));
#255=DIRECTION('ref_axis',(1.,0.,0.));
#256=DIRECTION('center_axis',(0.,0.,1.));
#257=DIRECTION('ref_axis',(1.,0.,0.));
#258=DIRECTION('',(0.,0.,-1.));
#259=DIRECTION('center_axis',(0.,0.,1.));
#260=DIRECTION('ref_axis',(1.,0.,0.));
#261=CARTESIAN_POINT('',(0.,0.,0.));
#262=CARTESIAN_POINT('Origin',(0.,0.,-1.8));
#263=CARTESIAN_POINT('',(-3.4,-4.163799117101E-16,-1.8));
#264=CARTESIAN_POINT('Origin',(0.,0.,-1.8));
#265=CARTESIAN_POINT('',(-2.,-2.44929359829471E-16,-1.8));
#266=CARTESIAN_POINT('Origin',(0.,0.,-1.8));
#267=CARTESIAN_POINT('Origin',(0.,0.,1.8));
#268=CARTESIAN_POINT('',(-3.4,-4.163799117101E-16,1.8));
#269=CARTESIAN_POINT('Origin',(0.,0.,1.8));
#270=CARTESIAN_POINT('',(-2.,-2.44929359829471E-16,1.8));
#271=CARTESIAN_POINT('Origin',(0.,0.,1.8));
#272=CARTESIAN_POINT('Origin',(0.,0.,0.));
#273=CARTESIAN_POINT('',(-2.,-2.44929359829471E-16,2.));
#274=CARTESIAN_POINT('Origin',(0.,0.,2.));
#275=CARTESIAN_POINT('',(-2.,-2.44929359829471E-16,0.));
#276=CARTESIAN_POINT('Origin',(0.,0.,-2.));
#277=CARTESIAN_POINT('',(-2.,-2.44929359829471E-16,-2.));
#278=CARTESIAN_POINT('Origin',(0.,0.,-2.));
#279=CARTESIAN_POINT('',(-1.5,-1.83697019872103E-16,-2.));
#280=CARTESIAN_POINT('Origin',(0.,0.,-2.));
#281=CARTESIAN_POINT('Origin',(0.,0.,0.));
#282=CARTESIAN_POINT('',(-1.5,-1.83697019872103E-16,2.));
#283=CARTESIAN_POINT('Origin',(0.,0.,2.));
#284=CARTESIAN_POINT('',(-1.5,-1.83697019872103E-16,0.));
#285=CARTESIAN_POINT('Origin',(0.,0.,0.));
#286=CARTESIAN_POINT('',(-2.,-2.44929359829471E-16,0.));
#287=CARTESIAN_POINT('Origin',(0.,0.,2.));
#288=CARTESIAN_POINT('Origin',(0.,0.,0.));
#289=CARTESIAN_POINT('',(-3.4,-4.163799117101E-16,2.));
#290=CARTESIAN_POINT('Origin',(0.,0.,2.));
#291=CARTESIAN_POINT('',(-3.4,-4.163799117101E-16,0.));
#292=CARTESIAN_POINT('Origin',(0.,0.,-2.));
#293=CARTESIAN_POINT('',(-4.,-4.89858719658941E-16,-2.));
#294=CARTESIAN_POINT('Origin',(0.,0.,-2.));
#295=CARTESIAN_POINT('',(-3.4,-4.163799117101E-16,-2.));
#296=CARTESIAN_POINT('Origin',(0.,0.,-2.));
#297=CARTESIAN_POINT('Origin',(0.,0.,0.));
#298=CARTESIAN_POINT('',(-3.4,-4.163799117101E-16,0.));
#299=CARTESIAN_POINT('Origin',(0.,0.,0.));
#300=CARTESIAN_POINT('',(-4.,-4.89858719658941E-16,2.));
#301=CARTESIAN_POINT('Origin',(0.,0.,2.));
#302=CARTESIAN_POINT('',(-4.,-4.89858719658941E-16,0.));
#303=CARTESIAN_POINT('Origin',(0.,0.,2.));
#304=UNCERTAINTY_MEASURE_WITH_UNIT(LENGTH_MEASURE(0.01),#308,
'DISTANCE_ACCURACY_VALUE',
'Maximum model space distance between geometric entities at asserted c
onnectivities');
#305=UNCERTAINTY_MEASURE_WITH_UNIT(LENGTH_MEASURE(0.01),#308,
'DISTANCE_ACCURACY_VALUE',
'Maximum model space distance between geometric entities at asserted c
onnectivities');
#306=(
GEOMETRIC_REPRESENTATION_CONTEXT(3)
GLOBAL_UNCERTAINTY_ASSIGNED_CONTEXT((#304))
GLOBAL_UNIT_ASSIGNED_CONTEXT((#308,#310,#311))
REPRESENTATION_CONTEXT('','3D')
);
#307=(
GEOMETRIC_REPRESENTATION_CONTEXT(3)
GLOBAL_UNCERTAINTY_ASSIGNED_CONTEXT((#305))
GLOBAL_UNIT_ASSIGNED_CONTEXT((#308,#310,#311))
REPRESENTATION_CONTEXT('','3D')
);
#308=(
LENGTH_UNIT()
NAMED_UNIT(*)
SI_UNIT(.MILLI.,.METRE.)
);
#309=(
LENGTH_UNIT()
NAMED_UNIT(*)
SI_UNIT($,.METRE.)
);
#310=(
NAMED_UNIT(*)
PLANE_ANGLE_UNIT()
SI_UNIT($,.RADIAN.)
);
#311=(
NAMED_UNIT(*)
SI_UNIT($,.STERADIAN.)
SOLID_ANGLE_UNIT()
);
#312=SHAPE_DEFINITION_REPRESENTATION(#313,#314);
#313=PRODUCT_DEFINITION_SHAPE('',$,#316);
#314=SHAPE_REPRESENTATION('',(#180),#306);
#315=PRODUCT_DEFINITION_CONTEXT('part definition',#320,'design');
#316=PRODUCT_DEFINITION('Bearing','Bearing v1',#317,#315);
#317=PRODUCT_DEFINITION_FORMATION('',$,#322);
#318=PRODUCT_RELATED_PRODUCT_CATEGORY('Bearing v1','Bearing v1',(#322));
#319=APPLICATION_PROTOCOL_DEFINITION('international standard',
'automotive_design',2009,#320);
#320=APPLICATION_CONTEXT(
'Core Data for Automotive Mechanical Design Process');
#321=PRODUCT_CONTEXT('part definition',#320,'mechanical');
#322=PRODUCT('Bearing','Bearing v1',$,(#321));
#323=PRESENTATION_STYLE_ASSIGNMENT((#326));
#324=PRESENTATION_STYLE_ASSIGNMENT((#327));
#325=PRESENTATION_STYLE_ASSIGNMENT((#328));
#326=SURFACE_STYLE_USAGE(.BOTH.,#329);
#327=SURFACE_STYLE_USAGE(.BOTH.,#330);
#328=SURFACE_STYLE_USAGE(.BOTH.,#331);
#329=SURFACE_SIDE_STYLE('',(#332));
#330=SURFACE_SIDE_STYLE('',(#333));
#331=SURFACE_SIDE_STYLE('',(#334));
#332=SURFACE_STYLE_FILL_AREA(#335);
#333=SURFACE_STYLE_FILL_AREA(#336);
#334=SURFACE_STYLE_FILL_AREA(#337);
#335=FILL_AREA_STYLE('Steel - Satin',(#338));
#336=FILL_AREA_STYLE('Paint - Metallic (Silver)',(#339));
#337=FILL_AREA_STYLE('Plastic - Matte (Blue)',(#340));
#338=FILL_AREA_STYLE_COLOUR('Steel - Satin',#341);
#339=FILL_AREA_STYLE_COLOUR('Paint - Metallic (Silver)',#342);
#340=FILL_AREA_STYLE_COLOUR('Plastic - Matte (Blue)',#343);
#341=COLOUR_RGB('Steel - Satin',0.627450980392157,0.627450980392157,0.627450980392157);
#342=COLOUR_RGB('Paint - Metallic (Silver)',0.984313725490196,0.980392156862745,
0.96078431372549);
#343=COLOUR_RGB('Plastic - Matte (Blue)',0.188235294117647,0.231372549019608,
0.588235294117647);
ENDSEC;
END-ISO-10303-21;
